<?xml version="1.0" encoding="UTF-8" standalone="no"?>
<svg viewBox="0 0 256 134.03182374540992" xmlns="http://www.w3.org/2000/svg">
  <style>
    g.zone {
      fill: lightgray;
      stroke-width: 2;
      stroke-linecap: square;
      stroke-linejoin: bevel;
      stroke-miterlimit: 3;
      stroke-opacity: 0.8;
      stroke: black;
      fill-opacity: 0.3;
    }
  </style>
  <g class="zone" id="zone">
    <path d="M0,13.336597307221824 0.9400244798019747,13.884944920439644 2.0563035495702984,14.06119951040321 2.3108935128506958,14.68788249693925 2.859241126068514,15.275397796816875 2.3108935128506958,15.804161566707574 2.0954712362301056,16.293757649938463 3.0550795593619835,16.724602203182428 4.190942472460211,17.89963280293768 4.758873929007933,18.369645042838666 5.091799265605162,18.447980416156888 5.248470012238824,18.741738066095703 6.5018359853109065,18.976744186046197 8.616891064870915,19.62301101591214 8.753977968174674,20.151774785801447 10.340269277843985,20.563035495715507 10.614443084454287,21.18971848225155 12.200734394123597,21.62056303549551 11.867809057526369,22.070991432067988 10.888616891064586,22.345165238678288 10.692778457771118,23.637698898408786 9.968176254589732,24.30354957160324 9.791921664626168,25.086903304772946 10.24235006119725,26.12484700122305 11.75030599754973,26.594859241125427 12.474908200733898,27.10403916768622 12.788249694001223,27.554467564258697 12.416156670744188,28.376988984088207 11.280293757648742,28.631578947368602 10.966952264381419,28.886168910649 11.358629130965575,29.747858017135535 11.084455324355273,31.236230110159504 11.241126070991719,32.352509179926436 11.456548347612308,32.5091799265601 13.708690330476077,32.685434516523664 15.941248470009942,32.48959608323159 17.27294981640164,31.78457772337732 18.036719706240046,31.843329253365642 19.64259485923926,31.314565483476336 20.328029375763624,30.492044063646823 20.974296205628175,30.100367197062667 21.40514075887214,28.67074663402702 24.08812729497987,27.632802937575526 24.048959608322846,27.221542227661466 25.498164014685614,27.260709914319882 26.026927784576312,27.92656058751434 27.201958384331565,28.298653610771375 29.552019583842068,29.37576499387989 29.963280293756128,29.37576499387989 29.943696450426224,28.788249694002268 31.529987760095533,27.809057527539093 32.62668298653396,27.554467564258697 34.29130966952288,27.554467564258697 35.250917992654756,28.318237454099886 36.954712362300704,28.357405140758303 38.91309669522427,28.925336597307417 41.537331701345074,30.88372093023237 43.20195838433121,31.255813953488015 43.82864137086865,32.23500611995119 45.45410036719498,32.058751529987624 46.78580171358668,32.23500611995119 48.56793145654668,32.09791921664604 50.13463892288887,32.19583843329277 55.794369645041755,32.058751529987624 61.00367197062355,32.15667074663436 65.2729498164006,33.21419828641297 69.73806609547111,33.35128518971812 72.8518971848228,34.01713586291258 76.31823745409885,34.03671970624248 80.92044063647312,34.97674418604585 82.91799265605927,35.21175030599773 81.29253365973015,35.46634026927813 80.47001223990203,36.03427172582585 79.52998776009727,36.19094247245952 79.02080783353648,36.6805385556918 78.70746634026915,37.542227662178334 78.0416156670747,38.34516523867794 77.96328029375786,38.85434516523873 78.11995104039153,39.63769889840844 77.88494492044103,40.53855569155478 78.0220318237448,42.24235006119934 77.86536107711113,42.55569155446666 78.25703794369528,43.26070991432093 77.68910648714757,44.31823745409954 77.88494492044103,44.76866585067341 77.86536107711113,45.7870257037936 77.98286413708499,45.96328029375717 77.64993880048776,46.41370869032964 77.68910648714757,46.64871481028153 77.45410036719707,46.766217870256774 77.4932680538541,47.00122399020727 77.10159118726995,47.236230110159156 77.14075887392697,47.588739290084895 76.57282741737924,47.88249694002371 76.49449204406241,48.1175030599756 76.70991432068578,48.35250917992609 76.61199510403905,48.62668298653639 76.37698898408856,48.76376988984015 76.35740514075866,49.762545899633224 75.63280293757448,50.38922888616926 74.41860465116221,52.11260709914234 74.43818849449211,52.249694002447484 74.71236230109963,52.32802937576432 74.3990208078323,52.602203182374616 74.41860465116221,53.072215422277 74.28151774785844,53.189718482252246 74.51652386780894,53.38555691554432 74.67319461444261,53.95348837209344 74.24235006119864,54.48225214198274 74.30110159118557,54.93268053855522 73.96817625458834,54.95226438188512 73.51774785801726,55.34394124846928 73.65483476132101,55.50061199510433 73.59608323133409,55.892288861688485 73.83108935128459,56.16646266829879 73.73317013463785,56.636474908201166 73.85067319461449,56.93023255813998 73.30232558139389,58.12484700122374 74.10526315789488,58.28151774785741 74.71236230109963,58.86903304773503 75.92656058751469,59.358629130967316 77.2386780905737,60.27906976744217 77.7870257037943,60.72949816401464 78.43329253365886,61.98286413708673 78.86413708690282,61.94369645042831 79.5887392900842,62.19828641370871 80.58751529987589,62.04161566707504 81.86046511627788,62.237454100367124 82.54589963280223,62.35495716034237 83.01591187270321,62.62913096695267 82.87882496939946,62.72705018359802 82.9963280293761,62.78580171358633 83.54467564259392,62.82496940024475 83.485924112607,62.72705018359802 83.95593635250798,62.66829865361109 83.85801713586125,62.84455324357326 84.21052631578837,62.84455324357326 84.23011015911828,62.9620563035499 84.64137086903234,62.86413708690316 85.15055079559313,63.13831089351207 85.600979192167,63.07955936352515 86.99143206854284,63.39290085679247 87.30477356181017,63.25581395348871 88.47980416156541,63.23623011015881 89.28274173806642,63.51040391676911 90.75152998775908,63.64749082007287 91.08445532435631,63.4908200734392 91.73072215422087,63.58873929008594 92.04406364749097,63.39290085679247 93.17992656058642,63.43206854345089 95.27539779681653,64.41126070991406 103.89228886168745,66.38922888616892 105.57649938800348,67.46634026927744 105.57649938800348,69.01346389228833 106.14443084455121,69.38555691554397 106.51652386780825,69.38555691554397 107.31946144430647,69.83598531211784 108.00489596083082,69.9730722154216 108.02447980416073,70.30599755201882 108.25948592411122,70.63892288861744 108.76866585067202,70.71725826193428 108.94492044063558,70.89351285189646 108.78824969400192,71.91187270501804 109.27784577723281,72.36230110159052 109.06242350061223,72.55813953488399 109.16034271725896,72.87148102815131 109.86536107711044,73.63525091799251 109.92411260709736,74.43818849449211 111.47123623010965,74.9473684210529 112.25458996328075,75.67197062423429 112.626682986535,76.29865361077172 114.09547123623045,77.14075887392835 114.60465116279124,77.59118727050222 115.17258261933897,78.31578947368361 115.54467564259322,78.51162790697708 115.93635250918017,80.03916768665806 116.11260709914373,80.21542227662164 117.3072215422261,80.92044063647451 118.54100367197105,82.05630354957134 120.47980416156472,82.4479804161569 121.69400244797978,83.19216646266818 123.76988984087998,83.81884944920422 124.76866585067167,84.50428396572858 126.60954712362138,84.62178702570382 128.35250917992713,85.24847001223986 127.68665850673267,85.93390452876423 127.17747858017188,86.14932680538621 126.78580171358495,86.58017135862877 125.55201958384276,86.73684210526244 125.19951040391562,87.4418604651167 124.04406364749028,87.50061199510364 123.63280293757623,87.77478580171393 123.69155446756315,87.97062423500601 123.00611995103878,88.04895960832285 122.94736842105186,88.32313341493315 123.5544675642594,88.59730722154205 123.04528763769859,89.63525091799215 122.0073439412471,90.24235006119969 121.36107711138256,90.37943696450483 120.36230110159087,91.14320685434464 119.75520195838334,92.08323133414939 120.44063647490769,92.57282741738028 120.34271725826096,92.92533659730742 120.714810281518,93.31701346389296 120.79314565483483,93.64993880049019 121.16523867808908,93.74785801713554 121.12607099143206,94.00244798041594 121.32190942472275,94.29620563035475 121.59608323133304,94.29620563035475 121.67441860464987,94.60954712362346 122.10526315789384,94.92288861689079 123.0257037943687,95.39290085679316 124.14198286413702,95.54957160342683 125.57160342717266,96.35250917992644 126.19828641370732,96.94002447980407 128.45042839657108,98.056303549571 129.8017135862899,99.29008567931456 130.21297429620395,99.32925336597297 131.03549571603486,99.81884944920387 131.5838433292527,100.4259485924114 131.70134638922931,100.79804161566705 132.23011015911723,101.13096695226427 132.3476132190939,101.73806609547181 133.6793145654828,102.87392900856864 134.63892288861746,104.47980416156646 133.36597307221547,107.06487148102885 133.60097919216597,107.88739290085697 134.5214198286408,108.41615667074628 134.95226438188476,108.45532435740469 134.32558139534734,109.02325581395381 134.03182374540992,109.45410036719777 134.09057527539684,109.68910648714827 134.58017135862775,110.25703794369598 135.285189718482,110.5899632802932 135.755201958383,110.62913096695301 137.04773561811487,110.35495716034272 137.30232558139528,110.5507955936348 137.47858017135883,111.3733170134643 136.81272949816437,112.48959608323123 136.93023255813824,112.80293757649996 138.1248470012234,113.74296205630333 138.8690330477347,114.01713586291362 139.4369645042824,114.68298653610807 140.45532435740398,115.15299877601046 141.39534883720876,115.2705018359857 142.08078335373312,116.38678090575263 143.66707466340242,116.87637698898352 144.0783353733165,117.26805385556908 146.13463892288678,117.65973072215462 146.9963280293747,117.36597307221581 148.21052631578976,117.48347613219106 147.70134638922897,118.1101591187271 147.62301101591214,118.59975520195799 148.42594859241035,119.4222766217875 151.128518971848,120.20563035495721 152.36230110159016,120.9498164014685 153.36107711138186,121.24357405140731 156.0832313341494,121.47858017135918 156.3182374540999,122.0073439412485 157.00367197062425,122.45777233782097 159.58873929008524,123.14320685434534 160.56793145654703,123.96572827417346 161.70379436964527,123.67197062423463 162.01713586291257,123.47613219094256 162.25214198286307,122.98653610771167 167.40269277845795,123.16279069767384 168.14687882496924,123.88739290085663 169.45899632802823,124.23990208078375 170.24235006119935,124.72949816401464 172.4944920440631,124.96450428396653 172.984088127294,124.72949816401464 174.11995104039224,124.63157894736791 175.64749082007182,124.78824969400296 176.70501835985323,124.43574051407583 176.94002447980372,124.08323133415008 178.25214198286272,123.92656058751504 178.60465116278985,124.1028151774786 179.4663402692778,125.49326805385583 182.345165238679,126.82496940024475 182.6780905752762,127.49082007343921 184.28396572827265,127.80416156670792 186.20318237454197,128.60709914320753 185.4589963280279,129.35128518971882 185.4785801713578,129.95838433292496 184.91064871481007,130.23255813953526 186.34026927784572,132.2105263157901 186.71236230109997,133.28763769889864 189.33659730722079,134.03182374540992 190.35495716034237,133.7772337821295 190.4528763769891,133.42472460220378 190.86413708690316,133.2484700122402 191.25581395348732,132.7197062423509 191.54957160342752,131.79926560587467 192.37209302325564,131.27050183598536 192.39167686658556,130.91799265605823 192.72460220318277,130.74173806609605 192.86168910648652,130.42839657282732 193.2533659730707,130.3304773561806 193.09669522643702,129.95838433292496 193.62545899632772,129.0379436964501 194.21297429620535,128.7833537331697 194.46756425948575,128.31334149326872 194.3108935128521,128.09791921664674 194.8984088127297,127.82374541003644 194.8984088127297,127.52998776009763 195.25091799265684,127.23623011015881 195.1138310893503,127.04039167686673 195.25091799265684,126.7074663402695 196.19094247245883,126.58996328029426 196.4455324357392,126.1982864137087 196.70012239901962,126.10036719706197 196.99388004895982,125.19951040391702 197.1897184822505,125.06242350061187 197.34638922888695,123.90697674418652 197.85556915544774,123.71113831089305 198.07099143206833,123.43696450428415 197.85556915544774,122.67319461444295 198.7564259485927,122.12484700122374 199.08935128518993,121.65483476132137 198.83476132190953,121.24357405140731 199.3243574051404,120.53855569155444 198.97184822521328,120.00979192166513 197.42472460220378,119.16768665850711 197.36597307221408,118.18849449204393 196.9547123623,117.65973072215462 197.28763769889724,117.18971848225225 198.16891064871507,117.17013463892233 198.697674418603,116.91554467564333 198.7760097919226,115.87760097919184 198.07099143206833,115.21175030599738 197.77723378212812,114.56548347613283 198.227662178702,113.76254589963322 198.83476132190953,113.46878824969441 199.26560587515348,112.72460220318312 199.2851897184806,112.1370869033055 199.48102815177407,112.01958384332886 199.06976744186002,111.52998776009797 198.7172582619329,111.3733170134643 198.93268053855627,110.72705018359837 199.20685434516378,110.5703794369647 198.9522643818834,109.82619339045341 198.5214198286422,109.2778457772342 198.32558139534873,108.47490820073459 198.5018359853123,108.04406364749063 198.2080783353721,107.37821297429618 198.63892288861607,106.82986536107697 199.9902080783349,103.10893512851914 201.26315789473685,100.52386780905813 202.14443084455192,99.76009791921695 203.47613219094083,100.48470012239972 204.86658506731945,100.64137086903338 207.8433292533646,101.36597307221477 211.2117503059967,103.16768665850745 214.5997552019587,104.04895960832249 219.73072215422366,105.85067319461379 223.07955936352585,107.41738066095459 224.5091799265615,108.86658506732014 226.31089351285138,109.5520195838431 231.36352509179952,113.429620563036 233.96817625459042,114.38922888616926 237.92411260710014,114.87882496940016 240.07833537331717,116.11260709914373 240.9204406364752,116.87637698898352 242.07588739290054,116.42594859241105 243.48592411260628,116.34761321909423 244.13219094247364,116.0342717258269 244.89596083231203,115.93635250918017 246.40391676866452,116.0538555691554 247.22643818849542,116.2888616891059 248.36230110159087,116.0538555691554 248.81272949816474,116.15177478580215 249.2827417380657,115.89718482252175 251.47613219094256,115.72093023255817 252.22031823745385,115.38800489596095 252.84700122399127,114.78090575275343 254.23745410036713,114.36964504283937 254.7074663402681,113.9779681762552 255.29498164014575,113.76254589963322 255.4320685434523,113.54712362301125 255.90208078335326,113.48837209302292 256,113.07711138310887 255.2362301101588,112.70501835985323 255.41248470012238,112.58751529987798 255.529987760099,112.1370869033055 255.45165238678217,111.54957160342788 253.82619339045306,110.37454100367262 252.14198286413702,109.68910648714827 250.67319461444436,109.49326805385618 249.12607099143204,109.787025703795 247.93145654834692,109.29742962056271 246.69767441860472,109.04283965728231 241.6646266829865,108.25948592411261 240.54834761321817,107.78947368421024 239.25581395348905,106.61444308445498 238.5899632802946,105.59608323133479 237.4541003671964,104.65605875153003 236.88616891064865,103.5397796817631 236.16156670746727,102.83476132190883 236.5140758873916,102.54100367197002 236.16156670746727,102.07099143206904 236.43574051407478,101.50305997551992 236.2203182374542,101.07221542227596 235.28029375764945,100.52386780905813 234.32068543451757,100.21052631578942 232.93023255813893,98.6242350061201 232.6364749082015,98.54589963280327 231.91187270501734,97.91921664626723 231.14810281517614,97.76254589963219 229.91432068543398,97.13586291309613 229.62056303549656,96.52876376989 229.1309669522629,96.52876376989 228.87637698898527,96.2545899632797 228.641370869032,96.27417380660961 228.3867809057516,96.07833537331753 228.21052631578803,95.60832313341515 227.9167686658506,95.58873929008524 227.76009791921695,95.39290085679316 227.4271725826197,95.43206854345158 226.54589963280188,94.60954712362346 225.89963280293733,94.51162790697673 225.91921664626724,94.35495716034306 225.37086903304663,94.00244798041594 224.33292533659792,93.66952264381871 224.15667074663435,93.41493268053831 224.2545899632811,93.29742962056307 223.9804161566708,93.12117503059949 223.41248470012306,93.31701346389296 222.92288861689218,93.17992656058782 222.7466340269286,93.00367197062425 222.84455324357256,92.886168910649 221.78702570379394,92.67074663402703 220.67074663402562,92.16156670746622 220.29865361077137,92.3378212974298 219.69155446756383,91.8482252141989 219.71113831089374,91.67197062423533 219.12362301101612,91.69155446756385 218.4969400244787,91.06487148102781 218.06609547123472,90.98653610771098 218.14443084455434,90.63402692778523 217.51774785801692,90.2815177478581 217.32190942472343,89.88984088127255 216.9302325581393,89.7527539779688 216.7931456548355,89.53733170134682 215.79436964504384,89.22399020807809 215.34394124846997,88.36230110159156 215.05018359852977,88.22521419828641 215.14810281517651,87.83353733170087 214.97184822521294,87.26560587515314 214.50183598531194,86.99143206854284 214.48225214198206,86.75642594859235 214.73684210526244,86.44308445532363 213.97307221542124,86.01223990208106 213.95348837209414,85.56181150550859 213.69889840881373,85.20930232558145 213.8359853121175,85.03304773561788 213.18971848225294,84.71970624235055 213.24847001223986,84.56303549571551 212.99388004895948,84.36719706242343 213.24847001223986,84.07343941248462 213.1113831089361,83.54467564259531 212.83720930232582,83.40758873929016 212.48470012239866,82.80048959608263 212.5434516523856,82.11505507955967 212.73929008567907,81.9779681762545 212.46511627906878,81.33170134638857 212.19094247246124,81.25336597307174 212.13219094247154,81.07711138310955 212.21052631578837,80.76376988984084 212.70012239901928,80.48959608323193 212.77845777233887,80.17625458996322 212.46511627906878,79.92166462668283 212.64137086903233,79.62790697674401 212.2888616891052,79.02080783353787 211.89718482252104,78.84455324357431 211.85801713586403,78.47246022031867 211.58384332925374,78.23745410036678 212.23011015911828,77.74785801713588 211.91676866585095,77.41493268053866 212.07343941248462,77.06242350061153 211.93635250918086,76.82741738066103 212.15177478580145,76.65116279069747 211.525091799264,76.37698898408856 211.525091799264,75.67197062423429 211.34883720930324,75.39779681762538 211.44675642594717,75.20195838433331 210.91799265605925,74.45777233782063 210.23255813953492,74.22276621787013 209.58629130967034,73.51774785801726 209.09669522643668,73.67441860465092 209.23378212974322,73.43941248470043 208.95960832313293,73.24357405140695 208.9204406364759,72.87148102815131 209.01835985311985,72.51897184822558 209.4100367197068,72.42105263157883 209.03794369644976,71.89228886168954 209.31211750306005,71.59853121175072 208.99877600979272,71.5397796817624 208.97919216646284,71.20685434516517 208.52876376988897,71.0501835985315 209.1554467564264,70.67809057527586 209.5079559363535,70.65850673194596 209.78212974296105,70.95226438188477 210.09547123623116,70.69767441860438 211.93635250918086,70.36474908200715 210.58506731946204,69.38555691554397 210.33047735618163,68.99388004895982 210.9571603427163,68.83720930232616 212.66095471236224,68.95471236230141 215.3635250917999,68.56303549571585 216.83231334149255,68.89596083231308 217.87025703794404,68.71970624234952 218.18359853121137,68.79804161566635 218.8102815177488,68.50428396572754 219.61321909424703,68.36719706242377 220.1028151774779,68.46511627906912 222.15911872705098,68.1321909424719 222.6878824969389,68.38678090575229 224.23500611995118,68.6609547123626 226.44798041615516,69.75764993880101 227.3880048959599,69.75764993880101 228.97429620562923,69.26805385556872 229.30722154222644,68.89596083231308 229.24847001223952,68.56303549571585 230.2276621787013,67.97552019583823 236.88616891064865,68.07343941248496 237.7674418604637,67.4075887392905 238.76621787025817,67.23133414932694 238.62913096695164,66.74173806609465 239.21664626682926,66.13463892288853 240.9008567931453,66.95716034271663 240.94002447980512,66.66340269277782 241.27294981640233,66.3500611995105 241.11627906976867,65.97796817625486 240.86168910648829,65.8017135862913 242.54589963280154,65.33170134638891 247.61811505507958,62.39412484700078 231.85312117503042,53.522643818849474 212.21052631578837,34.15422276621773 164.1321909424726,11.985312117503007 134.07099143206693,8.597307221542403 106.53610771113816,10.927784577723003 88.38188494491868,11.12362301101508 45.64993880048846,9.26315789473686 12.200734394123597,0 1.1162790697655407,0.6854345165229689 1.0771113831085166,0.9791921664617818 1.8017135862899012,1.8212974296198048 3.1921664626685256,2.330477356180599 4.093023255813476,3.91676866584991 2.9767441860451527,5.150550795593481 3.5446756425928747,6.541003671970714 4.8763769889817885,7.461444308445568 6.208078335373485,9.106487148101806 6.266829865360413,9.380660954712107 4.4259485924107045,9.243574051406958 4.954712362298619,10.457772337820623 1.9975520195833707,12.102815177478254 0.6462668298645533,12.259485924111916 0.5091799265607945,12.768665850672711 0,13.336597307221824Z"/>
  </g>
</svg>