<?xml version="1.0" encoding="UTF-8" standalone="no"?>
<svg viewBox="0 0 256 137.246408839779" xmlns="http://www.w3.org/2000/svg">
  <style>
    g.zone {
      fill: lightgray;
      stroke-width: 2;
      stroke-linecap: square;
      stroke-linejoin: bevel;
      stroke-miterlimit: 3;
      stroke-opacity: 0.8;
      stroke: black;
      fill-opacity: 0.3;
    }
  </style>
  <g class="zone" id="zone">
    <path d="M0,75.05561694290972 0.005893186003878863,76.48176795580109 0.542173112338431,78.57974217311246 2.7874769797425807,80.0294659300185 8.533333333333529,79.92928176795591 11.62725598526776,79.28103130755059 13.471823204419872,76.73517495395951 9.988950276243035,74.2718232044198 14.279189686924477,76.24014732965001 14.750644567219712,77.64861878453017 12.62909760589367,79.79373848987089 13.866666666666356,80.72486187845276 15.127808471454559,83.04088397790052 15.911602209945324,83.88360957642715 17.938858195212656,83.88950276243102 20.72044198894968,82.94659300184139 17.514548802946777,84.63793738489852 16.08250460405111,84.54953959484327 11.532965009209049,85.53370165745838 11.75690607734807,86.85966850828716 13.265561694290811,88.08545119705335 15.75248618784562,88.39189686924499 21.76353591160274,91.05561694290947 23.596316758747097,90.06556169429089 25.617679558010547,89.76500920810312 27.786372007365948,89.87697974217305 29.772375690607802,88.55690607734816 34.999631675874156,86.66519337016585 39.790791896868555,86.07587476979722 47.08066298342552,87.30755064456729 49.709023941068395,88.57458563535896 51.830570902394435,88.61583793738485 53.58084714548784,87.69650092081031 54.02872928176755,86.78895027624311 56.60994475138107,86.28802946592974 57.6353591160225,85.3922651933699 61.183057090238655,85.07403314917131 62.37348066298366,84.42578268876599 64.25340699815905,82.17458563535922 70.6828729281765,80.22394106813981 72.25046040515635,80.83683241252311 72.21510128913475,81.41436464088397 70.81841620626236,81.05488029465909 66.1510128913444,82.15690607734801 65.68545119705304,83.14106813996311 63.204419889502105,84.2843462246775 62.14364640883908,85.4099447513811 63.78784530386769,85.67513812154687 62.96869244935532,86.37642725598499 61.44235727440095,86.52965009208083 59.89244935543273,86.20552486187837 55.219152854512565,87.13075506445679 52.44346224677774,89.44088397790026 50.10386740331488,90.01252302025766 46.992265193370685,88.13259668508269 43.82173112338938,88.43904235727435 38.09355432780839,87.24861878453018 32.954696132596865,89.12854511970514 32.67182320442073,90.03020257826888 33.08434622467718,91.3267034990791 36.11933701657429,93.9491712707181 38.51197053407039,97.30239410681378 40.23867403314995,98.20994475138099 41.67661141804782,99.61252302025767 43.49760589318609,99.69502762430946 43.95727440147357,100.73812154696127 45.913812154696025,100.48471454880286 46.61510128913416,99.87771639042343 47.404788213628805,99.9012891344381 46.95690607734741,100.59668508287278 44.31675874769845,100.99152854511968 44.32854511970621,101.56906077348054 45.93149171270766,101.88139963167566 47.57569060773459,101.96390423572745 48.506813996317305,102.54732965009178 51.00552486187819,105.56464088397767 52.160589318599925,106.63720073664804 51.88360957642767,107.04972375690575 51.247145488028856,106.35432780847148 48.54806629834278,104.23278084714545 47.18674033149199,102.49429097605896 45.689871086557005,102.68876611418027 43.93370165745805,102.09944751381207 42.73738489871084,100.13701657458572 41.02836095764292,100.10755064456717 39.53738489871014,98.51049723756876 37.899079189687086,98.02136279926314 37.03867403314925,97.19631675874773 37.00920810313153,96.52449355432773 34.363167587477015,93.64861878453033 32.58342541436422,92.55837937384875 31.510865561695116,90.5193370165745 30.44419889502822,90.67255985267032 30.072928176795575,91.403314917127 28.965009208103197,91.34438305709031 26.990791896869098,91.42688766114169 26.148066298342897,90.99668508287277 24.220994475138156,93.08876611418026 23.118968692449656,95.98232044198889 23.85561694290939,98.36316758747681 22.51786372007411,102.51786372007363 24.368324125230103,105.90055248618789 33.284714548802356,112.18268876611423 38.68287292817618,115.30607734806618 44.46998158379428,118.05230202578244 45.32449355432824,119.14254143646401 45.224309392265646,119.62578268876575 43.23830570902379,118.54732965009194 43.16169429097672,119.50791896869237 49.29060773480639,125.1005524861875 69.42762430939217,136.85745856353557 71.83793738489823,137.246408839779 71.1955801104972,135.29576427255958 73.7826887661146,133.7930018416203 73.80036832412456,125.77237569060749 72.58047882136351,123.84530386740316 73.36427255985261,122.73149171270691 70.30570902394165,121.5116022099446 69.92854511970512,120.46850828729279 74.37200736648239,121.26408839779006 76.44640883977908,119.73186003683223 78.65046040515607,119.14843462246748 80.48324125230211,116.90902394106804 85.26850828729262,114.89944751381194 86.63572744014729,113.44383057090243 87.47845303867349,113.92117863720071 89.21104972375693,113.37900552486185 89.8416206261502,112.25930018416172 88.98121546961403,109.99042357274372 89.24640883977854,108.33443830570904 88.1267034990784,106.58416206261481 86.87145488029407,106.10092081031307 88.40957642725621,105.94769797421725 90.08913443830642,107.90423572744012 89.85930018416184,110.29686924493538 90.23057090239448,111.52265193370157 91.14990791896943,110.6858195211784 91.52707182320428,108.9709023941066 92.43462246777148,108.42872928176776 92.87071823204344,109.35395948434616 91.65672191528459,111.07476979742142 91.09097605893231,112.34769797421697 91.02615101289133,113.11970534069955 93.9727440147336,111.16316758747668 93.80773480663002,110.61510128913437 95.37532228360988,110.67403314917107 95.77605893186025,109.84309392265179 94.35580110497234,108.76464088397796 93.86666666666714,104.88103130755034 94.58563535911524,104.6747697974217 95.1749539594847,105.38784530386718 95.77016574585636,105.88287292817667 95.28103130755117,108.11049723756877 95.85267034990731,109.2478821362797 96.51270718231999,108.85893186003668 97.25524861878526,108.06924493554328 99.00552486187867,107.91602209944746 100.00736648250458,107.12044198895019 100.49060773480589,105.94180478821336 102.41767955801063,104.4979742173112 103.59631675874788,104.24456721915278 104.75138121546962,103.21915285451178 106.23646408839852,99.59484346224646 108.03388581952127,99.57127071823177 108.54659300184198,100.86777163904242 107.78637200736674,103.20736648250444 105.6235727440152,104.85156537753221 104.76906077348126,105.94769797421725 105.18747697974158,107.20883977900544 106.27771639042399,107.63904235727436 107.6979742173119,106.87292817679524 110.29686924493538,108.74696132596675 111.85856353591136,109.06519337016573 116.10165745856344,108.66445672191496 117.6692449355433,107.491712707182 120.39779005524876,106.13627992633509 130.13333333333338,104.40957642725594 134.85966850828677,102.35285451197048 136.2386740331492,101.6987108655617 137.96537753222879,102.07587476979738 140.9001841620633,104.33885819521149 143.1631675874774,104.97532228360947 146.6990791896875,103.82025782688774 149.20957642725614,103.93222836095767 151.3252302025783,102.50018416206242 150.79484346224677,102.32338858195192 152.28581952117872,100.31970534069968 156.00441988950234,98.58710865561666 159.39889502762435,97.92117863720054 164.30202578268825,99.42394106813983 170.51933701657444,99.18232044198875 178.5281767955795,93.33038674033133 184.39189686924468,91.3856353591158 184.15616942909705,89.40552486187823 185.67071823204367,88.05009208103132 188.46408839779014,87.60810313075507 199.5432780847139,89.06961325966844 207.66408839779015,88.12081031307535 213.93443830570874,86.52375690607737 214.48250460405106,83.98379373848974 216.17974217311206,79.65819521178628 217.387845303867,78.50902394106801 221.0593001841621,77.7429097605893 226.73443830570903,76.18121546961332 232.38600368324126,73.38784530386728 236.55837937384848,70.12302025782684 240.14143646408792,68.93259668508267 245.97569060773452,69.4806629834254 246.788950276243,69.28618784530369 248.09723756906058,61.0828729281769 254.26740331491655,54.71823204419877 256,50.51639042357258 249.04604051565323,44.05156537753228 248.13848987108605,39.690607734806804 250.14806629834257,35.04088397790047 249.05193370165713,33.32007366482521 247.932228360957,30.32633517495399 251.76279926335178,21.83425414364636 254.1436464088393,17.396685082872967 234.8375690607728,16.041252302025633 224.194475138121,22.276243093922616 203.48581952117823,21.03278084714563 195.18232044198842,24.26224677716405 183.43720073664812,24.91639042357283 179.46519337016525,27.255985267034855 173.37753222836105,26.265930018416284 170.5075506445667,26.295395948434845 167.07182320442004,26.843462246777154 167.1307550644563,28.128176795580035 160.5127071823206,31.31639042357256 160.0117863720068,34.11565377532248 157.60736648250463,35.44751381215472 142.19079189686923,35.18232044198896 142.57974217311184,34.45745856353573 145.70902394106767,33.69134438305702 145.94475138121612,32.45377532228349 145.65598526703442,31.434254143646367 144.42430939226563,29.418784530386795 143.5580110497239,25.35837937384909 141.34217311233914,23.289871086556282 141.3834254143646,20.549539594843477 140.60552486187774,19.129281767955987 134.37642725598548,14.420626151012964 129.46740331491685,10.153959484346199 123.32670349907941,6.948066298342456 119.27219152854475,5.704604051565471 111.42836095764328,5.274401473296551 107.97495395948415,4.384530386740573 105.3053406998158,1.5558011049725153 101.51012891344344,0 102.18784530386773,1.9860036832414354 102.2290976058932,5.769429097606045 92.08103130755048,11.662615101289358 79.68766114180525,28.34622467771643 72.7513812154693,30.279189686924635 69.01510128913405,31.587476979742192 63.91160220994412,34.71086556169414 62.82725598526726,37.1270718232045 59.1911602209946,38.86556169429098 51.35322283609532,41.24051565377544 49.61473296500968,41.95359116022091 49.51454880294709,42.70202578268882 44.75874769797429,42.560589318600336 41.788581952118165,42.93775322283602 40.92817679558033,42.201104972375866 37.82836095764222,42.30718232044192 37.16832412522956,43.67440147329659 29.819521178637157,46.114180478821204 29.15359116022062,45.47182320441977 31.457826887661884,44.022099447513725 31.787845303867375,43.403314917126956 29.477716390423907,42.47808471454896 27.804051565377584,42.57237569060768 23.325230202578716,45.34217311233904 23.024677716390944,46.22615101289114 20.060405156537023,48.3653775322284 18.864088397789814,49.99779005524841 20.18416206261513,50.10386740331488 21.58084714548752,49.608839779005386 23.478453038674544,47.628729281767825 25.110865561693714,47.20441988950279 25.051933701658275,48.14143646408854 22.370534069982167,50.66372007366495 19.453406998159274,51.58895027624294 18.598895027623637,53.40994475138121 20.231307550644484,54.09944751381201 19.84235727440188,54.25267034990783 17.94475138121486,53.904972375690704 16.33001841620565,57.234622467771715 20.272559852669964,57.56464088397804 22.399999999999885,58.872928176795604 23.84972375690551,59.055616942909566 25.865193370165084,61.64861878453043 27.827624309393098,62.237937384898636 29.507182320441625,63.540331491712735 32.08839779005515,64.24162062615086 32.71307550644621,63.7230202578267 33.77974217311311,63.57569060773475 34.57532228360996,62.88618784530395 35.04677716390351,63.22209944751374 33.77974217311311,64.1178637200736 32.71307550644621,64.32412523020265 32.1001841620629,64.72486187845303 28.900184162062203,63.88802946592986 28.157642725598592,63.19852670349906 26.324861878452563,62.93333333333331 24.568692449355282,61.53075506445662 23.236832412523885,59.50349907918971 22.76537753222865,59.91602209944741 22.948066298342194,60.65267034990798 20.455248618785184,58.41915285451201 17.614732965009367,57.829834254143805 14.26151012891284,58.11270718232036 7.926335174954105,59.01436464088409 6.694659300183622,60.57016574585619 6.618047882136546,61.22430939226497 7.790791896869916,62.408839779005675 10.990791896868943,60.923756906077195 8.928176795580013,62.67403314917102 8.574585635359005,63.36942909760569 6.635727440148183,62.208471454880076 6.394106813995849,63.03941068139978 11.703867403314836,66.41620626151014 10.87292817679639,66.77569060773462 14.290976058932234,69.54548802946597 15.475506445671687,69.52780847145476 14.556169429098409,70.02283609576425 15.834990791896574,71.16611418047864 22.34696132596665,75.26187845303879 23.808471454880035,73.65303867403304 23.466666666666786,72.81031307550641 24.220994475138156,71.13664825046051 27.674401473297273,70.46482504604052 29.70165745856293,69.62799263351735 29.866666666666514,70.21141804788209 28.788213627993528,70.9009208103129 25.994843462247072,71.47845303867376 24.527440147329806,72.72780847145462 24.72191528545111,73.87697974217289 22.87145488029512,76.02209944751361 25.65303867403382,78.57974217311246 26.159852670350652,79.72302025782686 29.006261510128674,81.41436464088397 29.80184162062552,81.13738489871088 29.966850828729104,82.06850828729276 28.92375690607772,82.01546961325953 24.38600368324174,79.38710865561707 23.843830570903307,78.32633517495404 18.598895027623637,74.0360957642726 13.147697974218259,70.51786372007375 10.56058931860086,67.54180478821374 7.4489871086549915,65.86224677716396 9.122651933701317,65.83867403314927 6.317495395948773,63.79963167587461 3.936648250460435,62.65635359116021 2.7580110497231862,62.88618784530395 1.8681399631676268,63.73480662983403 4.0132596685091855,64.94880294659288 5.9344383057083725,66.3690607734808 5.745856353590948,66.94069981583777 2.846408839779694,66.6990791896867 2.2629834254141112,69.53370165745864 2.781583793738702,71.44898710865561 5.221362799264154,72.22688766114167 5.315653775322866,73.38784530386728 2.5576427255980048,73.02836095764282 0.8545119705339611,73.94769797421735 0,75.05561694290972Z"/>
  </g>
</svg>