<?xml version="1.0" encoding="UTF-8" standalone="no"?>
<svg viewBox="0 0 219.85417535663595 256" xmlns="http://www.w3.org/2000/svg">
  <style>
    g.zone {
      fill: lightgray;
      stroke-width: 2;
      stroke-linecap: square;
      stroke-linejoin: bevel;
      stroke-miterlimit: 3;
      stroke-opacity: 0.8;
      stroke: black;
      fill-opacity: 0.3;
    }
  </style>
  <g class="zone" id="zone">
    <path d="M0,71.3946775673645 1.4415616918321164,75.0039209143244 3.918912154834,76.23191791107067 4.5168933010758865,77.05414198715307 7.303912571952626,76.52023024943693 12.386752315007902,77.60941019437779 13.187619921580962,77.45991490781694 14.629181613414596,77.8336531242183 17.191957954450817,77.7161925419207 20.107116042379065,77.99382664553306 23.118378243096323,78.81605072161547 24.60265287394561,78.78401601735222 29.14090264453084,79.51013598064561 33.45490948527555,79.49945774589169 36.26328522566012,80.14015183115075 40.2569450237753,79.79844831901264 41.58104613331058,79.94794360557273 41.29273379494355,81.19729707182834 44.74180362058869,82.46800700759178 47.65696170851694,84.3580545591057 48.47918578459934,89.6437807624929 53.62609493617961,92.91132059731393 53.94644197880914,97.07583215149779 59.189455243179935,98.59214148661033 64.21890381246337,99.83081671811128 71.01026111620845,99.74539084007694 81.69917410527971,96.01868691082021 84.28330691582526,96.08275631934596 88.59731375656847,99.95895553516354 91.10669892383436,100.9627096020693 94.4169516976718,101.28305664469883 97.26804037707505,100.0230249436893 102.95953950112538,100.25794610828449 104.8282305831307,103.27988654375565 108.38408275631951,105.50095937265377 111.69433553015696,110.75465087177773 115.10069241678492,112.80487194460716 116.86260115124658,112.95436723116724 117.10820055059644,113.82998248102149 115.997664136147,116.81988821223017 115.06865771252092,118.19738049553729 113.89405188954649,118.36823225160596 113.19996663051559,119.15842162342587 113.6270960206888,119.71368983064983 113.5950613164263,121.34745974806071 114.82305831317257,122.13764911987987 114.17168599315885,124.48686076583024 104.84958705264005,132.2072244932014 100.52490197714218,142.03120046717308 98.89113205973052,143.62225744556605 99.74539084007694,145.5763744056065 99.70267790105977,149.7835988988075 101.78493367815095,152.68807875198183 101.43255193125891,157.98448319012297 100.30065904730014,158.68924668390778 97.7485609410186,161.19863185117217 96.691415700341,161.76457829315154 89.40885959789772,161.72186535413363 89.18461666805719,161.93543004922023 88.24493200967643,162.095603570535 87.3052473512972,166.00383749061507 80.19354300492107,170.16834904479893 67.43305247351181,173.58538416618006 63.546175022940304,178.40126804037766 77.06482022190698,193.27604905314135 78.67723366980778,201.74388921331447 78.16467840160175,204.12513556352735 79.06165012096382,204.85125552682075 79.39267539834802,206.1860348711107 79.08300659047316,207.69166597146935 81.81663468757806,215.45474263785766 81.38950529740485,217.03512138149674 81.83799115708588,218.79703011595913 81.78459998331404,219.73671477433913 82.08359055643574,220.51622591140435 83.215483440393,221.84032702093964 85.16960040043267,223.16442813047493 85.52198214732621,223.50613164261304 85.97046800700724,223.6663051639278 86.83540502210681,225.05447568198883 87.09168265620984,225.63110035872214 87.3693167598222,225.93009093184307 87.42270793359404,226.50671560857637 87.29456911654252,227.01927087678317 87.26253441228003,227.9055643613921 86.7393009093178,228.48218903812463 86.81404855259747,230.4683407024283 84.97739217485616,231.49345123884265 84.2726286810706,231.4400600650708 83.33294402269135,232.2516059063993 83.31158755318201,233.70384583298608 83.5785434220397,235.15608575957287 84.15516809877376,236.4161174605824 83.37565696170853,237.8042879786442 81.07983648953,240.1534996245938 80.77016768165514,242.5133895052981 81.24001001084399,244.00834237090206 82.27579878201377,244.8839576207563 82.93784933678064,245.94110286143388 83.56786518728502,246.25077166930873 86.45098857095078,248.20488862934917 90.65821306415181,249.64645032118128 94.07524818553445,251.70734962876463 94.04321348127044,253.42654542420988 95.57020105113841,256 198.44431467422945,255.9786435304914 198.4549929089841,249.6144156169188 201.10319512805467,248.09810628180549 202.52340035037895,232.43313589722266 188.12913990155957,200.60131809460256 199.24518228080402,185.19262534412272 202.1816968382416,164.81855343288598 210.53207641611715,159.28722783014967 214.88879619587905,158.5183949278391 217.4088595978981,156.97005088846254 217.73988487528078,153.9374322182367 219.85417535663595,152.67740051722717 212.528906315174,149.10019187453128 212.05906398598512,148.35271544172855 212.08042045549297,147.54116960040082 205.8016184199539,142.725285726204 202.34187035955563,142.39426044881978 198.33753232668727,143.16309335113036 194.73896721448128,143.05631100358744 192.41111203804024,144.54058563443746 190.70259447735046,144.77550679903266 189.94443980979304,143.5581880370403 190.57445566029895,142.43697338783696 194.0448819554519,139.97030115958975 195.59322599482772,136.42512722115634 195.74272128138855,134.9088178860438 194.93117544005932,131.6519562859767 190.63852506882392,128.98239759739755 187.3175940602318,124.97805956452845 182.4162843079999,122.91716025694511 178.30516392758787,123.26954200383788 168.246266789021,121.5823809126559 167.1997997830981,120.59998331525874 164.33803286894167,120.03403687327935 162.34120296988334,116.93734879452776 165.49128222240677,105.87469758905513 171.81279719696298,99.10469675481788 171.86618837073482,86.26945858012894 169.89071494118582,83.61057812630372 158.32618670226032,85.08417452239908 153.8199716359391,90.89313422874775 143.48344039375988,91.90756653040818 136.59597897722426,89.87870192708809 128.75815466755628,91.11737715858904 127.06031534161963,86.60048385751239 144.45515975640163,63.23650621506621 143.52615333277706,59.99032284975376 141.08083757403767,60.34270459664654 137.46091599232537,62.02986568782852 137.39684658379886,50.25177275381642 152.44247935263198,32.92099774756018 151.4814382247434,14.928172186535539 141.64678401601705,10.77433886710635 134.07591557520672,10.550095937265832 126.65454242095575,3.897555685326174 126.21673479602788,0 106.91048636022339,7.912571952949184 99.73471260532227,6.47101026111631 83.04463168432433,10.646200050054084 80.95169767247849,9.06582130641503 78.8053724868608,9.567698339868665 63.95194794360568,9.001751897889275 55.88988070409565,15.163093351130728 34.66155001251248,17.074497372153225 31.436723116709373,19.84016017352138 20.043046633852555,21.879703011596142 22.509718862099767,24.00467172770524 23.641611746057027,26.866438641862405 22.7659964962043,27.443063318594948 23.00091766079797,29.183615583548768 21.441895386669017,30.539751397347302 21.110870109284818,31.490114290481216 14.234086927503885,34.28781179611263 12.760490531407752,35.942938183032105 11.93826645532535,39.70167681655134 12.461499958287568,40.438475014599405 11.543171769416155,43.631267206140016 10.881121214649273,51.383665637774435 9.706515391673326,52.19521147910217 8.991073663134603,53.43388671060311 6.855426712271591,57.54500709101513 4.901309752230409,62.22207391340654 3.256861600065601,63.193793276049036 0.8435805455902299,67.25152248268998 0.1388170518061793,69.54734295486774 0,71.3946775673645Z"/>
  </g>
</svg>