<?xml version="1.0" encoding="UTF-8" standalone="no"?>
<svg viewBox="0 0 256 206.91993197515077" xmlns="http://www.w3.org/2000/svg">
  <style>
    g.zone {
      fill: lightgray;
      stroke-width: 2;
      stroke-linecap: square;
      stroke-linejoin: bevel;
      stroke-miterlimit: 3;
      stroke-opacity: 0.8;
      stroke: black;
      fill-opacity: 0.3;
    }
  </style>
  <g class="zone" id="zone">
    <path d="M0,113.15781071044353 0.00888487835381594,115.30795127199565 0.8174088085232889,118.47096796584933 4.202547461216052,120.65664804081544 12.865303855898716,120.50560510880563 17.529864991498044,119.52826848991806 20.310831916149002,115.6900010411971 15.059868809218022,111.97612188942514 21.52806025058138,114.94367125950119 22.23885051886393,117.06715718599249 19.040294311596252,120.30125290667416 20.906118765834467,121.70506368653037 22.807482733487948,125.19682087946451 23.98917155450759,126.4673584840179 27.045569708119263,126.4762433623717 31.239232290978972,125.05466282580787 26.405858466664718,127.60462291326844 24.24683302675815,127.47134973796562 17.38770693784204,128.95512442300364 17.72533231527442,130.95422205254596 19.999861173775543,132.80227675007842 23.749279838962135,133.2642904244617 32.81185575955389,137.28025544025266 35.57505292749721,135.78759587686147 38.622566202755074,135.334467080832 41.892201436850755,135.50327976954884 44.88640544198824,133.51306701836035 52.76729254156035,130.66102106688012 59.990698642972816,129.77253323152758 70.9812931662795,131.62947280741386 74.9439489119501,133.53972165342051 78.14250511921777,133.60191580189536 80.78131399021272,132.21587477874616 81.45656474508002,130.84760351230395 85.3481414639226,130.0923888522542 86.89411029743607,128.74188734251902 92.24280706625397,128.26210391142936 94.03755249366672,127.2847672925418 96.87182868844057,123.89074376149712 106.56523097213054,120.94984902648126 108.92860861416729,121.87387637524782 108.87529934404692,122.74459445389274 106.76958317426325,122.20261687432765 99.73275951827334,123.86408912643631 99.03085412834461,125.34786381147433 95.29032034151183,127.07153021205717 93.691042237878,128.76854197757982 96.16992329851183,129.16836150348828 94.93492520737182,130.22566202755704 92.63374171380926,130.45666886474868 90.29701870683394,129.9680005553052 83.25131017249275,131.36292645680822 79.06653246798433,134.8457987713879 75.53923576163557,135.70763197167966 70.8480199909773,132.87335577690644 66.06795543678342,133.3353694512897 57.43185367715969,131.54062402387822 49.68423975288976,134.37490021865145 49.257765591921746,135.73428660674045 49.879707076666136,137.68895984451495 54.455419428729826,141.64273071183172 58.06268004026041,146.69822649498508 60.665949397842624,148.06649776142726 62.833859716100484,150.18109880956538 65.5792871273387,150.30548710651502 66.27230763891362,151.87811057508804 69.22208725228202,151.4960608058866 70.27938777635077,150.58091833547385 71.46996147572422,150.61645784888785 70.79471072085441,151.6648734946034 66.81428521847872,152.26016034428952 66.83205497518634,153.13087842293442 69.24874188734347,153.6017769756709 71.72762294797478,153.72616527262053 73.13143372783225,154.60576822961863 76.89862214972395,159.15482594662151 78.64005830701379,160.77187380696236 78.2224690243996,161.39381529170862 77.26290216221777,160.3453996459937 73.19362787630644,157.14684343872602 71.14122097664314,154.52580432443744 68.88446187484965,154.81900531010328 66.23676812549836,153.93051747475135 64.43313781973433,150.97185298302912 61.85652309721356,150.9274285912613 59.60864887377136,148.51962655745672 57.13865269149386,147.78218165411462 55.84146045187966,146.53829868462208 55.79703606011311,145.5254225523205 51.80772567938106,141.18960191580226 49.12449241661703,139.54589942040062 47.50744455627808,136.47173151008258 45.89928157429043,136.7027383472742 45.3395342380177,137.80446326311076 43.66917710755586,137.71561447957578 40.69274285912601,137.84000277652476 39.42220525457326,137.19140665671767 36.5168500329714,140.34553847221753 34.85537778086338,144.70801374379658 35.96598757505249,148.2975045986189 33.94912018880445,154.56134383785144 36.73897199180922,159.6612640127726 50.181792940685774,169.132544337626 58.32034151251097,173.84152986499188 67.04529205567034,177.9818831777325 68.33359941693074,179.62558567313414 68.18255648492091,180.35414569812244 65.18835247978342,178.72821295942842 65.07284906118886,180.17644813105244 74.31312254884936,188.60819768854344 104.67275188283087,206.33353000381788 108.30666712942038,206.91993197515077 107.33821538888726,203.97903724013494 111.23867698608368,201.713393259987 111.2653316211426,189.621073820845 109.42616180196583,186.7157185992438 110.60785062298295,185.03647659042812 105.99659875750652,183.19730677124946 105.42796654287997,181.62468330267646 112.12716482143496,182.82414188040184 115.25464200187464,180.51407350848606 118.5775865060907,179.63447055148734 121.34078367403654,176.25821677714964 128.5553048970952,173.2284732585988 130.6165966751123,171.03390830527948 131.88713427966505,171.75358345191458 134.49928851560108,170.93617464339067 135.44997049942657,169.24804775622118 134.15277825981488,165.8273695901157 134.55259778572145,163.33071877277675 132.86447089855199,160.69190990178052 130.97199180925233,159.96334987679225 133.29094505952253,159.7323430396006 135.82313539027672,162.68212265296964 135.47662513448802,166.28938326449898 136.03637247076074,168.13743796203144 137.42241349391057,166.87578523583124 137.99104570853459,164.29028563495666 139.3593169749768,163.47287682643275 140.01679797313645,164.86780272793575 138.18651303231096,167.46218720716354 137.33356471037493,169.38132093152402 137.2358310484855,170.5452399958354 141.678270225247,167.59546038246634 141.42949363134773,166.76916669558923 143.7928712733845,166.85801547912425 144.39704300142375,165.60524763127788 142.25578731822483,163.97931489258386 141.51834241488336,158.12418005761296 142.60229757401103,157.81320931524013 143.49078540936483,158.88827959601588 144.38815812306996,159.6346093777118 143.6507132197285,162.99309339534247 144.5125464200183,164.70787491757213 145.50765279561287,164.12147294623986 146.62714746815834,162.93089924686828 149.2659563391533,162.69989240967664 150.77638565925147,161.50043383195126 151.50494568423915,159.72345816124678 154.41030090584098,157.5466629646345 156.1872765765461,157.16461319543302 157.92871273383594,155.6186443619202 160.16770207892432,150.15444417450456 162.8775899767473,150.11890466109057 163.65057439350403,152.0735778988657 162.50442508589964,155.6008746052132 159.24367473015778,158.07975566584577 157.95536736889738,159.7323430396006 158.5861937319956,161.6337070072541 160.2298962273985,162.2823031270612 162.37115191059746,161.12726894110298 166.28938326449898,163.95266025752304 168.64387602818192,164.43244368861332 175.04098844271726,163.8282719605734 177.40436608475403,162.06018116822273 181.51806476243445,160.01665914691324 196.195883802451,157.41338978933166 203.321556241974,154.3125672439528 205.40061777669877,153.32634574671206 208.00388713428097,153.89497796133733 212.42855655433485,157.30677124908902 215.84034984208654,158.2663381112696 221.17127685419933,156.52490195397974 224.95623503279867,156.69371464269656 228.14590636171252,154.53468920279062 227.3462673098956,154.26814285218498 229.59414153333654,151.24728421198796 235.20049977440755,148.63512997605255 240.31818970603632,147.63113872210482 239.38527747891595,145.71200499774432 240.1582618956727,144.58362544684695 243.55228542671802,142.37129073682064 247.67486898275098,141.5449970499429 250.22482907021157,140.67427897129798 251.70860375524958,138.34644084267524 251.43317252629137,136.96928469787986 249.16752854614282,136.0097178356993 244.51185228889855,135.48551001284181 239.49189601915796,135.87644466039646 241.51764828376108,129.4260229757401 256,120.3723319335028 253.46780966924706,109.26623399160157 250.00270711137372,106.31645437823252 254.03644188387233,100.2391975844238 252.19727206469304,98.61326484572979 248.03914899524608,97.28941797105476 247.2928192135495,94.872731058897 244.3430396001811,90.20816992329894 237.36841009266666,85.69465171971007 233.23694165827987,80.5769617880819 229.39867420955892,79.05764758962988 229.5052927498009,77.56498802623868 228.66122930621617,76.86308263630994 227.24853364800614,76.09009821955384 223.348072050811,74.71294207475783 220.11397633012805,72.17186686565107 219.46538021032222,71.0701419498145 216.8532259743862,70.00395654739194 213.53028147017014,69.53305799465548 212.4640960677476,68.56460625412174 214.17887758997853,65.30385589837924 215.76927081525852,64.1932461041895 216.58667962378183,63.127060701766936 214.30326588692688,59.77746156248944 213.65466976711852,57.13865269149386 215.15621420886544,54.881893589699104 214.3743449137549,53.04272377052044 214.96074688508654,51.94988373303706 219.67861729080624,50.7948495470795 220.03401242494877,48.92902509284002 219.59865338562443,47.391941137681 217.74171380974002,44.35331274077696 216.435636691772,38.23163155520106 213.09492243084833,35.1130392531152 213.15711657932252,30.981570818727782 211.98431263665668,28.840315135529476 202.59299621698636,21.74129733106602 195.19189254850264,15.30864540311666 185.9338493041345,10.475271578801141 179.82105299691116,8.600562246208478 167.99527990837606,7.951966126401379 162.78874119321165,6.610349495019995 158.76389129906687,2.3456078853297573 153.0420296393988,0 154.06379065005478,2.994204005136856 154.12598479852898,8.698295908097297 138.82622427376552,17.583174261618417 120.14132509631179,42.73626488043612 109.6838232742164,45.65050498039116 104.05081039808395,47.62294797487264 96.35650574393439,52.33193350223853 94.72168812688781,55.97473362718248 89.2397181827652,58.59577274147106 77.42282997258141,62.1763787179402 74.8017908582941,63.251448998715944 74.65074792628427,64.37982854961332 67.48065109499218,64.16659146912868 63.002672404817936,64.73522368375396 61.70548016520374,63.624613889564216 57.03203415125059,63.784541699927225 56.03692777565603,65.84583347794434 44.95748446881624,69.52417311630167 43.95349321486787,68.55572137576793 47.42748065109627,66.3700413008018 47.92503383889228,65.43712907368206 44.442161524312596,64.04220317217968 41.9188560719122,64.18436122583569 35.166348523236834,68.36025405199092 34.71321972720737,69.69298580501848 30.244125915384416,72.91819664734699 28.440495609620385,75.37930795127193 30.4307083608095,75.53923576163557 32.53642453059317,74.79290597993965 35.39735536042847,71.80758685315661 37.85846666435215,71.16787561170332 37.76961788081904,72.58057126991334 33.72699822996663,76.3832992052203 29.328983444974202,77.77822510672269 28.040676083711293,80.5236525179609 30.501787387637503,81.56318328532265 29.915385416305853,81.79419012251428 27.054454586470552,81.26998229965682 24.619997917605794,86.28993856939616 30.56398153611169,86.78749175719344 33.77142262173319,88.75993475167492 35.957102696698676,89.03536598063374 38.995731093602714,92.94471245618334 41.95439558532746,93.83320029153526 44.48658591607915,95.79675840766356 48.37816263492174,96.85405893173231 49.31995974039593,96.07218963662238 50.928122722383584,95.85006767778457 52.12758130010833,94.81053691042283 52.838371568388354,95.31697497657329 50.928122722383584,96.66747648630849 49.31995974039593,96.97844722868194 48.39593239162937,97.58261895672122 43.57144344566641,96.32096623052102 42.45194877312348,95.28143546315928 39.68875160517763,94.88161593725083 37.04105785582887,92.7670148891127 35.03307534793464,89.71061673550166 34.3222850796521,90.33255822024795 34.59771630861029,91.44316801443833 30.839412765072407,88.07579911845382 26.556901398674537,87.1873112831019 21.501405615519932,87.61378544407054 11.950161385485977,88.97317183215957 10.09322180959905,91.31877971748868 9.977718391004494,92.30500121472943 11.745809183355787,94.09086176378771 16.570298129316228,91.85187241869997 13.460590705584183,94.49068128969554 12.927498004372902,95.53909693541111 10.004373026065943,93.78877589976744 9.64009301356959,95.04154374761445 17.6453684100926,100.13257904418181 16.392600562247484,100.67455662374627 21.545830007289013,104.8504494499015 23.33169055634541,104.82379481484068 21.945649533198104,105.5701245965366 23.873668135910506,107.29379099711944 33.69145871655137,113.46878145281698 35.894908548224485,111.0432096623054 35.37958560372084,109.77267205775202 36.5168500329714,107.24936660535226 41.723388748135825,106.23649047305071 44.77978690174498,104.97483774685051 45.02856349564424,105.85444070384925 43.40263075695148,106.89397147121099 39.191198417381614,107.76468954985592 36.97886370735468,109.64828376080239 37.2720646930205,111.38083503973905 34.48221289001573,114.61493076042073 38.67587547287797,118.47096796584933 39.439975011280886,120.19463436643217 43.731371256030044,122.74459445389274 44.93082983375479,122.32700517127728 45.179606427654065,123.73081595113348 43.60698295908168,123.65085204595167 36.76562662687067,119.6881963002817 35.94821781834738,118.08891819664787 28.040676083711293,111.62072675528451 19.822163606706802,106.31645437823252 15.92170200951039,101.82959080970446 11.230486238849613,99.29740047895088 13.753791691250008,99.26186096553688 9.524589594975033,96.1876930552182 5.935098740152079,94.46402665463536 4.158123069446972,94.81053691042283 2.8165064380662193,96.0899593933294 6.050602158749162,97.92024433415486 8.947072501994674,100.0615000173538 8.662756394682665,100.92333321764491 4.291396244751686,100.55905320515045 3.4117932877516854,104.8326796931945 4.193662582862236,107.72026515808872 7.872002221220824,108.89306910075328 8.014160274876827,110.64339013639695 3.856037205427331,110.10141255683249 1.2883073612603824,111.48745357998169 0,113.15781071044353Z"/>
  </g>
</svg>