<?xml version="1.0" encoding="UTF-8" standalone="no"?>
<svg viewBox="0 0 256 115.39571865443415" xmlns="http://www.w3.org/2000/svg">
  <style>
    g.zone {
      fill: lightgray;
      stroke-width: 2;
      stroke-linecap: square;
      stroke-linejoin: bevel;
      stroke-miterlimit: 3;
      stroke-opacity: 0.8;
      stroke: black;
      fill-opacity: 0.3;
    }
  </style>
  <g class="zone" id="zone">
    <path d="M0,29.93190621814489 1.6857900101940153,30.552986748216096 3.1106218144751923,31.476778797145645 3.5124974515801775,34.06026503567785 6.02813455657478,35.65732925586133 6.184709480122186,37.69280326197761 8.747319062181827,38.4339245667684 11.205545361876034,39.03934760448508 14.524933741080607,38.99759429153921 19.749317023445418,37.17610601427109 21.012354740061507,37.2074209989805 23.120897043832706,39.101977573904264 24.347400611621342,39.59257900101942 25.96534148827738,39.74915392456683 27.35885830784952,39.133292558613675 30.140672782874642,39.24811416921521 31.054026503567723,40.72513761467873 32.792008154944455,41.810723751274104 34.40994903160049,44.37855249745142 36.074862385321566,45.38063200815505 36.93602446483194,45.45370030581033 37.056065239551884,45.881671763506674 36.51327217125401,47.343037716615676 36.05920489296631,48.016309887869596 35.4850968399594,48.099816513761354 35.145851172273225,48.48603465851182 35.35461773700335,48.757431192660384 35.33896024464883,49.5559633027523 35.9391641182471,49.9421814475024 35.62079510703387,51.090397553516965 31.06446483180456,54.863853211009236 28.950703363914943,59.665484199796126 28.15217125382265,60.44313965341474 28.569704383282897,61.39824668705406 28.548827726809957,63.45459734964329 29.566564729867732,64.87420998980642 29.394332313965805,67.46291539245667 28.841100917431092,67.8073802242609 27.59372069317026,69.03388379204878 27.077023445463745,69.31049949031615 23.517553516820012,69.28962283384283 23.407951070336903,69.39400611620789 22.948664627930782,69.4722935779816 22.4893781855254,71.38250764525988 19.01341488277268,73.41798165137617 12.776513761467777,75.08811416921492 10.876738022425961,77.44195718654444 17.484199796126813,84.712252803262 18.272293577981525,88.85104994903143 18.021773700306266,90.01492354740051 18.46018348623871,90.3698267074412 18.621977573904534,91.02222222222218 18.47062181447555,91.75812436289493 19.806727828746553,95.55245667686013 19.59796126401643,96.32489296636071 19.81716615698265,97.18605504587144 19.791070336391293,97.64534148827718 19.9372069317026,98.02634046890924 20.49043832823657,98.6735168195718 21.44554536187553,99.32069317023436 21.617777777778198,99.48770642201823 21.836982670744415,99.56599388379195 22.25973496432234,100.24448521916392 22.38499490315997,100.52632008154931 22.520693170234438,100.67245667686025 22.546788990825796,100.95429153924566 22.48415902140698,101.20481141692129 22.468501529052464,101.63800203873605 22.212762487258043,101.91983690112109 22.2492966360855,102.8906014271153 21.35160040774768,103.39164118246693 21.00713557594309,103.36554536187558 20.54784913353771,103.76220183486251 20.53741080530087,104.4720081549439 20.667889908256917,105.18181447502526 20.949724770642693,105.79767584097843 20.568725790010646,106.47616717635077 19.446605504587442,107.62438328236496 19.295249745158458,108.77781855249756 19.524892966360778,109.50850152905188 20.031151885831193,109.93647298674823 20.354740061162104,110.45317023445475 20.6626707441385,110.60452599388373 22.071845056065158,111.55963302752306 24.12819571865438,112.26422018348602 25.798328236493877,113.27151885830769 25.782670744138617,114.11180428134548 26.529011213048193,115.36962283384278 121.37166156982695,115.32786952089691 138.3704791029563,115.37484199796121 179.91502548420024,115.38006116207963 212.3834454638123,115.28089704383261 255.4780835881758,115.39571865443415 256,114.25794087665642 255.30585117227315,113.44897043832803 253.20774719673804,108.00016309887859 251.3497247706421,106.87282364933733 250.09712538226285,106.53879714576958 249.4395107033642,105.69851172273178 249.70046890927628,104.456350662589 251.17749235474017,103.04717635066271 251.79335372069372,100.14010193679923 250.71298674821637,100.20795107033646 250.154536187564,99.84260958205893 247.9050764525999,97.02948012232403 246.54809378185521,95.91257900101925 245.02931702344546,96.0639347604486 244.06899082568808,95.63074413863384 242.61806320081553,95.74034658511732 241.36546381243627,95.05663608562693 239.5178797145772,94.65476044852194 236.63168195718663,92.87502548419971 235.7078899082567,92.50446483180413 233.98556574923597,91.00134556574925 230.1286034658512,90.36460754332316 225.99502548419983,87.83853211009172 223.04619775739047,85.37508664627909 222.6965137614682,85.39596330275239 222.51906218144785,84.86360856269098 222.7069520897043,84.33125382262996 225.32697247706432,83.48053007135569 225.74450560652383,82.96383282364917 225.62968399592305,82.55151885830772 224.29357798165128,81.45549439347587 220.79151885830797,77.01920489296614 218.44289500509686,73.08917431192647 211.0055861365954,68.2457900101937 205.58287461773733,70.50568807339462 204.13716615698323,70.79796126401614 202.58185524974525,72.55160040774702 198.4587155963307,75.15596330275216 196.84077471967393,75.14030581039763 194.07983690112175,70.42740061162093 191.908664627931,70.57353720693149 190.66128440367015,67.44203873598373 189.18948012232468,67.00884811416934 185.13418960244664,66.48171253822636 183.23963302752324,63.87213047910279 182.27930682976586,64.96293577981659 179.61753312945996,63.99217125382274 177.40460754332332,65.45875637104979 175.9641182466869,65.69883792048932 175.78144750254887,66.85227319062193 174.25223241590226,67.48379204892962 172.81174311926657,66.71135575942904 166.1886238532112,65.77190621814461 162.3107849133542,65.69883792048932 159.97259938837922,66.18943934760448 159.57594291539266,59.72289500509689 156.4444444444445,52.79706422018354 156.04256880733953,51.12171253822637 157.38389398572897,48.37121304791029 155.7137614678902,41.73765545361882 157.6552905198779,39.848318042813474 152.34740061162134,32.19702344546386 150.89125382263038,28.340061162079465 149.63865443425112,27.21794087665626 145.01969418960226,24.10731906218144 143.72534148827714,22.46850152905209 144.33076452599383,21.77435270132523 144.11677879714603,20.829683995922373 144.35164118246678,19.404852191641197 143.8453822629971,17.124077471967333 144.09068297655466,16.21072375127425 143.80884811416965,14.321386340468905 142.85374108052994,12.29635066258909 141.7316207951075,11.127257900101961 141.8046890927624,9.446687054026365 140.13455657492364,7.8809378185523 139.95188583078487,7.969663608562843 139.78487257900136,7.974882772680892 139.69092762487278,8.084485219164003 139.48216106014266,8.173211009174175 138.8402038735985,8.188868501529063 137.94250764525995,8.308909276248643 137.86943934760504,8.512456676860346 137.42059123343574,9.008277268093924 137.12831804281387,9.060468909276269 136.96130479102962,9.133537206931551 136.82038735983673,9.143975535168021 136.6899082568807,9.03437308868491 136.56464831804306,8.997838939857083 136.25149847094823,9.029153924566861 136.084485219164,9.117879714577034 135.93312945973503,9.018715596330392 135.7765545361876,8.976962283384145 135.64085626911313,8.742099898063035 135.57822629969434,8.70556574923558 135.62519877675862,8.517675840978395 135.55213047910297,8.460265035678 135.55213047910297,8.251498470947878 135.66173292558608,8.147115188583188 135.36424057084653,7.954006116207954 135.23376146788974,7.750458715596252 135.10850152905212,7.661732925586079 134.39869520897074,7.5364729867480795 134.1272986748218,7.359021406727735 134.04901121304846,7.343363914373217 133.90287461773715,7.103282364933687 133.85590214067287,6.748379204892998 134.01247706422026,6.476982670744061 134.14817533129474,6.372599388379 134.30996941896055,6.309969418960185 134.38825688073388,6.075107033639076 134.36216106014328,5.892436289500312 134.25777777777785,5.824587155963448 134.25777777777785,5.600163098878808 133.76717635066268,5.407054026503574 133.33920489296634,5.328766564729871 132.93732925586136,5.182629969418933 132.6398369011218,5.151314984709526 132.24839959225292,5.208725790010291 132.19098878695252,5.328766564729871 131.85174311926636,5.281794087665574 131.7786748216107,5.344424057084759 131.35592252803278,5.448807339449449 130.21292558613663,5.427930682976512 130.00415902140725,5.459245667685919 129.81104994903166,5.641916411824684 129.56574923547407,5.678450560652511 129.46136595310938,5.79327217125367 129.44570846075484,5.8872171253822625 129.50833843017367,6.033353720693199 129.67535168195718,6.075107033639076 129.8267074413869,6.205586136595124 129.96762487257905,6.236901121304903 129.988501529052,6.304750254842136 130.13985728848098,6.435229357798185 130.29643221202838,6.96236493374117 130.23380224260956,7.092844036697218 130.00937818552492,7.165912334352502 129.89977573904181,7.2598572884810935 129.90499490316023,7.30682976554539 129.98328236493356,7.353802242609686 129.737981651376,7.5208154943935615 129.71710499490305,7.65651376146803 129.29435270132512,7.7243628950048935 128.99164118246716,7.959225280326003 128.83506625891974,8.016636085626768 128.7672171253825,8.12101936799183 128.69414882772685,8.1314576962283 128.54801223241628,8.126238532109879 128.37056065239594,7.9853211009173615 128.13569826707447,8.063608562691064 128.08350662589248,8.032293577981656 128.0365341488282,7.823527013251906 127.8956167176353,7.750458715596252 127.41545361875625,7.781773700305658 127.26409785932726,7.907033639143658 126.84134556574934,7.719143730886844 126.60126401631018,7.734801223241734 126.52819571865453,7.640856269113141 126.54907237512747,7.364240570846155 126.49166156982707,7.30682976554539 126.56472986748273,7.1241590214066255 126.49166156982707,7.019775739041935 126.30899082568831,6.910173292558453 126.01671763506643,6.894515800203935 125.77663608562727,6.664872579000875 125.68269113149869,6.638776758409888 125.6409378185528,6.5239551478083575 125.67747196738026,6.414352701325247 125.51045871559676,6.226462793068433 120.76623853211026,7.165912334352502 120.44265035677935,7.061529051987811 120.09818552497477,7.291172273190501 119.9050764525999,7.2233231396532664 119.84244648318034,7.150254841997984 119.6180224260957,7.045871559632922 119.05957186544332,7.07196738022428 118.8769011213053,7.009337410805095 118.70466870540263,7.024994903159984 118.58984709480109,6.983241590214107 118.52199796126386,6.904954128440404 118.36020387359878,6.889296636085516 118.12012232415887,6.920611620794923 117.90613659531107,6.884077471967466 117.58254841998016,6.993679918450577 116.99278287461799,7.009337410805095 116.69007135575927,6.852762487257689 116.66919469928634,6.649215086646357 116.76835881753335,6.482201834862481 117.03975535168229,6.283873598368827 117.38422018348614,6.153394495412779 117.48338430173315,6.012477064220262 117.55123343527038,5.7619571865442625 117.80175331294637,5.720203873598387 117.98964322120283,5.55840978593256 118.36020387359878,5.396615698267104 118.55331294597363,5.240040774719698 118.7359836901124,4.8642609582057 118.72032619775788,4.566768603465776 118.78817533129512,4.420632008154839 119.09610601427151,4.237961264016445 119.11698267074445,4.18055045871568 118.96040774719704,4.081386340469038 118.67857288481126,3.94046890927615 118.45936799184504,3.903934760448323 118.2819164118247,3.4968399592252886 118.29235474006154,3.376799184505709 118.37064220183487,3.2880733944955365 118.67335372069358,3.0897451580018833 118.98128440366997,2.9592660550458345 118.95518858307862,2.713965341488256 119.03869520897037,2.5417329255859604 119.00216106014291,2.442568807339319 118.83514780835867,2.3068705402648506 118.97606523955156,2.113761467889988 118.92387359836884,2.0198165137613957 118.55331294597363,1.9154332313963343 118.26625891947018,1.8893374108053471 118.17231396534159,1.8110499490316438 118.12012232415887,1.6857900101936445 117.68171253822644,1.4457084607544857 116.89361875637098,1.4091743119266587 116.88318042813488,1.1690927624871288 116.64309887869572,0 115.21304791029613,0.42797145769634337 114.83726809378176,1.221284403669845 112.26943934760443,2.5469520897043805 109.15359836901156,3.736921508664447 107.24338430173292,5.0260550458715265 105.57325178389415,6.857981651376108 105.13484199796171,8.204525993883582 103.51168195718651,8.773414882772814 97.5722731906219,10.099082568807349 94.50340468909333,11.424750254841884 93.76228338430218,11.377777777777588 93.15686034658549,11.033312945973368 92.13912334352698,11.01765545361885 90.97003058104022,10.474862385320977 90.36460754332353,10.626218144750334 89.35730886850186,10.965463812436134 89.04937818552546,11.278613659530947 87.64542303771648,11.440407747196774 84.32081549439349,12.479021406727854 83.18303771661577,12.541651376146667 82.3792864424058,12.917431192660667 81.79474006116205,12.927869520897135 80.90748216106032,13.241019367991948 80.57345565749257,13.601141692150687 79.39392456676897,14.248318042813251 77.90646279306824,14.681508664628014 76.97223241590223,14.785891946992704 76.5390417940882,14.300509683995967 76.74780835881758,13.872538226299623 74.17476044852184,12.150214067278151 72.05056065239539,12.546870540265088 69.95767584097871,12.212844036697337 67.4420387359841,10.866299694189493 66.34079510703384,10.88717635066243 64.2322528032619,11.925790010193511 63.465035677880124,12.839143730886963 61.262548419979595,13.841223241590216 58.710377166157535,16.46124362894988 54.27408766564744,17.165830784913208 49.968277268094134,19.566646279306653 48.773088685015274,19.738878695208946 47.00379204893025,20.563506625891858 42.807584097859305,21.388134556574766 35.667767584098165,23.611498470947865 32.859857288481685,23.016513761468016 32.56236493374139,19.1543323139652 28.961141692151042,17.30152905198768 22.25973496432234,16.623037716615706 15.814067278287316,19.80150866462776 14.749357798165248,19.994617737002994 12.959184505606542,21.32550458715595 11.779653414882944,22.93822629969431 6.247339449541742,27.85467889908236 2.0511314984708027,29.425647298674843 0.14091743119288835,29.32126401630978 0,29.93190621814489Z"/>
  </g>
</svg>