<?xml version="1.0" encoding="UTF-8" standalone="no"?>
<svg viewBox="0 0 256 150.68533678920235" xmlns="http://www.w3.org/2000/svg">
  <style>
    g.zone {
      fill: lightgray;
      stroke-width: 2;
      stroke-linecap: square;
      stroke-linejoin: bevel;
      stroke-miterlimit: 3;
      stroke-opacity: 0.8;
      stroke: black;
      fill-opacity: 0.3;
    }
  </style>
  <g class="zone" id="zone">
    <path d="M0,3.5118374055698616 4.232006827449064,15.592881752378686 2.168600056894949,18.352182571040554 6.594809874514448,21.847836394095733 5.720896418750366,24.364383475045422 7.8894964756453145,25.30303126086536 8.957612921578681,29.882985112368587 11.320415968644065,30.91873439327374 13.141069001486,33.33817997913821 18.416916901096407,29.446028384486546 25.990833517716922,30.659797073047454 35.54723899231929,27.43926415273267 36.955210671049485,28.628757467522128 36.866200967222184,32.11631949932054 40.09482567879431,33.14397698896893 41.235768246041445,35.239750924550684 53.915605145873954,40.645067484275096 54.06934917975768,41.59989885260914 57.38698359515711,43.461010841736055 59.87925530233535,42.68419888105719 62.38771059202827,43.73613174447645 67.89012864683733,43.865600404589884 68.34326895723348,42.142048866833164 73.99943104592741,39.26946297057255 77.01766918481557,42.287701109460706 78.73312893131437,47.26415273255984 84.34074027246541,47.48263109650115 89.25245756550812,50.22574833264834 101.26876758226167,51.67417896766466 104.44074975503356,53.17925214148007 100.92082055820751,57.2817903088157 100.1197332237572,61.91029490786125 94.35837784872128,63.19688971773593 91.29158896229137,64.79906438663598 90.52286879286928,65.53541739102928 90.44195088029817,66.75727787084753 87.90922021683437,69.05534658785591 87.76356797420682,69.84834213104888 86.03192464519334,70.86790782944051 81.61380661883234,74.23409299238226 74.75196763283483,73.8861459683281 73.32781237158996,76.62926320447585 73.91042134209897,82.30970066694067 75.33457660334383,88.49182918734394 73.14170117267801,99.01115782153828 80.26247747890123,107.79884312671854 86.99484780478588,110.72807156177882 89.23627398299459,110.55005215412307 92.5377248158805,113.1475171476433 93.22552707273148,114.31273508866188 92.48917406833759,117.21768814995072 95.31320921705532,121.80573379271128 95.62069728482507,124.11998609223377 97.02866896355526,127.87457723551523 99.92553023358676,129.5414862344723 100.89654518443548,129.282548914246 102.11031387299639,130.7390713405191 105.1690109681701,135.02772070676724 106.91683787969711,135.63460505104769 107.91212820431787,136.72699687075252 108.54328792236977,138.08641780194097 111.33495590605928,139.59958276701312 112.20886936182336,140.78907608180316 111.37541486234483,143.1842462938962 112.95331415747343,142.87675822612758 113.94051269083684,142.61782090590128 114.40174479248918,142.31033283813267 122.3883427632203,142.32651642064678 125.13955179062424,142.69064702721505 126.95211303220883,143.6131112305209 127.63991528905983,144.9320732054238 132.29269526187682,144.35755602617155 133.49837215918038,143.45936719663658 139.64813351455604,144.0015172108606 145.22337769067886,145.32857097702026 145.6846097923312,147.94221955305517 149.65767929955456,150.58014350286038 150.5235009640613,149.37446660555682 154.06770553465822,149.14789645035873 156.74608844074956,149.88424945475205 158.9956064102156,148.7433068875049 161.96529380156088,148.9132345039033 163.21952144640733,148.4520024022504 166.34295287163746,150.68533678920235 171.9020134652456,142.8848500173849 177.2345039036574,140.441129057749 182.68027941966622,139.72095963586924 184.13680184593932,137.90030660302787 183.53800929291677,136.87264911338005 183.78076303062898,135.86117520624578 181.9843853715579,134.1942662072887 185.90890413123836,132.27651167936273 189.51784303189285,131.92856465530855 189.4288333280644,130.14027878749542 193.42617820905863,128.79704143882165 195.62714543098295,129.05597875904792 198.17605967696028,127.55899737648929 201.17002244207757,127.66419066283127 203.24961279514406,125.76261971741938 221.8283655213827,120.70525018174912 226.6834402756263,118.37481429971253 238.2223346082117,119.75851060467186 240.30192496127933,121.35259348231513 241.34576603344183,121.12602332711707 241.3700414072127,119.96080538609847 243.80567057559185,119.29727850301836 245.53731390460533,117.26623889749361 246.4355027341403,115.95536871384749 250.45712298890538,111.8447387552551 250.65132597907467,107.86357745677554 252.18876631791886,105.40367291462552 254.22789771470096,105.91345576382075 256,105.5978759047948 254.55966115624045,103.817681828239 253.70193128299104,101.83519297025657 252.70664095837145,100.91272876695017 252.9736700698545,99.66659291336104 252.73900812339966,98.39618168600047 251.20156778455546,97.78929734172003 250.2710117899923,97.78929734172003 249.74504535828237,98.25862123463028 249.09770205771693,98.27480481714439 246.47596169042583,98.94642349148127 245.45639599203423,98.71176154502643 244.42064671112908,98.82504662262518 244.024148939532,99.47238992319119 243.36062205645305,99.63422574833284 242.4462496444034,99.55330783576173 241.4509593197838,99.00306603028093 240.73078989790346,98.97879065651006 239.10433985523196,98.55801751114213 238.206151025697,99.26200335050721 237.18658532730652,99.3510130543351 236.5797009830255,99.60995037456138 236.0618263425729,100.7023421942662 235.16363751303797,101.00173847077804 235.28501438189463,100.31393621392648 233.53718747036646,98.24243765211618 233.67474792173667,97.90258241931934 231.3766792047277,95.96864430887867 230.72933590416227,95.94436893510779 230.61605082656297,94.71441666403278 229.11906944400548,91.83373897651482 227.60590447893213,89.8674337010465 228.01049404178653,89.47093592945001 227.77583209533054,87.95777096437726 228.04286120681476,87.55318140152343 227.59781268767594,86.59835003318882 226.88573505705293,85.91054777633782 227.16894775105067,85.39267313588525 227.0071119259096,85.02854252931698 225.9956380187753,84.11417011726792 226.42450295539945,83.11887979264775 225.59914024717827,82.77093276859358 224.77377753895706,80.95837152700956 223.81894617062304,79.98735657616083 223.8917722919368,79.17008565919642 223.19587824382847,78.57938489743007 221.86882447766823,77.98059234440696 221.55324461864228,76.96102664601591 220.7278819104211,77.082403514872 219.69213262951595,76.83964977715982 219.48983784808934,75.94146094762486 219.06097291146406,75.49641242848548 217.86338780541783,75.22938331700243 217.45070645130724,73.86996238581398 216.4796915004585,73.12551759016333 214.67522205013125,72.48626608085466 213.42908619654213,70.09109586876107 212.4823466194643,68.73976672882996 212.75746752220468,68.52938015614657 211.22811897461781,67.19423459872958 210.46749059645308,67.12140847741581 207.93475993298927,65.60015172108629 207.530170370136,64.49157631886737 208.03995321933127,61.38432847615133 207.1417643897963,60.21911053513275 207.1417643897963,58.665486613775016 206.0979233176338,58.43082466732018 204.4714732749623,57.484085090242324 203.71084489679754,56.432152226823064 198.22461042450317,53.89942156335927 196.2744887315484,53.90751335461661 192.98112968991984,52.629010335999276 191.1038341182788,51.16439611846885 183.56228466668765,47.377437810159165 174.3133672598539,40.43468091159113 171.21421120839463,38.953883111546595 152.47362265701491,28.102791035812785 148.40345165470808,24.938900654297086 144.31709706988656,23.1182476214563 132.4545310870179,19.735878875999873 127.01684736226527,18.902424376521346 120.78616809431966,16.36969371305755 115.52650377722279,16.17549072288769 105.8891803900493,14.184910073647918 100.02263172867255,11.304232386130534 93.62202484432738,10.600246546764863 88.16006574580389,8.811960678952293 80.70752599804004,8.536839776211323 77.5274520340108,6.991307646110934 73.99133925467008,6.174036729146514 69.58131301956526,6.554350918228893 68.66694060751676,5.44577551600997 66.12611815279563,2.791667983690084 62.565729999684024,1.1733097322759258 54.70860068906693,0 46.4630653981101,0.23466194645541516 37.35980023390388,2.605556784777565 31.719821727723478,4.846982962986283 28.264626860953854,5.7128046274935995 23.895059582134593,5.575244176122827 22.592281189746384,4.806524006701303 13.893605588393417,2.427537377121812 5.615703132408382,2.3385276732939357 2.824035148718873,2.56509782849201 0,3.5118374055698616Z"/>
  </g>
</svg>