<?xml version="1.0" encoding="UTF-8" standalone="no"?>
<svg viewBox="0 0 256 118.40325959524121" xmlns="http://www.w3.org/2000/svg">
  <style>
    g.zone {
      fill: lightgray;
      stroke-width: 2;
      stroke-linecap: square;
      stroke-linejoin: bevel;
      stroke-miterlimit: 3;
      stroke-opacity: 0.8;
      stroke: black;
      fill-opacity: 0.3;
    }
  </style>
  <g class="zone" id="zone">
    <path d="M0,9.048144375468523 3.4145797697527263,15.18356364475015 7.808268147835441,19.09507793430809 18.74082758355648,26.155484230554702 27.533124483481128,34.92318041167768 32.71403586323548,43.917203205780844 34.150717841287175,50.40195268205487 36.389383252292355,54.45123099690545 43.006976610098405,59.986392727412465 51.272818127654844,69.29038457842417 51.769752647460066,72.6557629105725 55.39589859891219,74.72222328996145 59.130287713094326,71.64713343967988 61.23118909880651,72.32611327862222 66.59906594145791,68.45888028290805 75.97685994887672,70.49089965597409 84.6756741173532,75.19947723472525 91.85908400761096,71.34208452653196 97.56153062597289,71.16987949491643 101.12371470853914,69.40846802867506 104.37592973419721,66.14641271549647 108.89262170629037,65.44775230151238 111.72170436854964,66.02340912148496 115.44625319521055,65.65439833945116 119.13144087178794,67.81926159404958 124.13522707616649,69.11817954680828 127.84009532778565,67.76021986892395 135.85008936979855,74.44669523937615 141.0949626184388,77.72351098383623 143.21554457919345,76.58203763141194 145.36564740251038,76.79360381311135 147.04341642482373,76.1293844054505 149.10987680421303,77.30037862043778 148.8540293286695,80.90192385308754 152.34733139858926,82.7125367569333 155.75207088082146,82.19100151832536 159.43725855739885,85.76794603217276 159.4126578385965,88.65115027579702 161.61688224327804,90.3436797293919 156.87386365820365,93.36956814206906 150.40879475697173,95.57379254675064 149.980742249813,97.89118025792284 147.0581768561049,99.6673521554457 147.66827468240072,102.62435855547636 151.2402990524882,105.56660452422555 157.09034998366366,107.05740808364224 158.79763986854002,109.22719148200093 166.25165766562245,112.9763410274642 170.98483596317564,114.26049854894177 170.60598489362096,115.86446541484874 171.80157982741096,117.53731429340185 173.47442870596373,117.52255386212036 175.28012146604888,118.40325959524121 189.90770886586853,118.08345025081181 191.1229843746996,116.4499625223422 190.29148007918383,116.19411504679867 189.681382252888,115.8201841210046 189.1204858641962,115.40197190136641 189.69614268416913,115.1854855759064 189.3960139147815,114.99852011300936 188.28406142491983,114.95915896292586 188.24962041859692,113.6750014414483 188.28406142491983,106.93932463339137 190.08483404124505,106.23082393188639 191.01966135573022,107.53958217216632 192.33333973977074,108.48916991793332 194.1783936499394,109.24687205704268 195.35922815244757,109.89633103342203 196.47118064230924,110.0783763525588 198.00626549556972,110.604831734927 198.53764102169853,110.92956122311668 200.03336472487547,110.88035978551228 201.42576540908306,109.93569218350589 203.24621860045002,109.72904614556676 205.74073148699804,108.74009724971624 206.2130652880016,108.26776344871304 207.86623359151258,107.32309584670665 209.08150910034436,105.63548653687205 210.0163364148295,105.12379158578499 211.89583133132177,104.94174626664856 211.67934500586176,114.11781437988851 236.84588034056594,113.53231727239503 239.13866733293648,114.80663450635171 241.34289173761806,115.54957621417994 244.83127366377718,115.61353808306546 245.94322615363885,115.36753089504317 247.83748150141295,115.36753089504317 248.35409659625992,114.82631508139347 248.8707116911069,114.6590301935382 249.80061886183213,114.65411004977794 251.12413753339322,114.33922084910878 251.97532240395142,113.82752589802207 252.47225692375665,113.15346620284036 253.3283619380755,112.64669139551391 253.70721300763017,112.09563529434335 254.29763025888425,111.85946839384192 255.29641944225529,111.77090580615368 255.81795468086358,111.608541062059 256,110.94432165439817 255.99015971247877,110.28502239049759 255.79335396206122,109.67984470796236 254.1697065211125,109.27147277584506 252.89538928715547,109.19275047567768 251.84247852241907,108.87294113124827 249.6136533989351,108.94674328765502 248.74278795333584,109.14846918183355 247.2962656877629,109.0254655878224 246.17939305414063,109.13370875055242 245.2986873210201,108.95658357517625 242.82385500951386,108.89754185005064 241.7168226634121,109.10418788798978 240.32934212296516,108.46456919913095 239.09930618285225,107.67242605369835 237.10172781610947,106.04385846898936 236.31450481443784,105.69944840575793 235.83725086967368,104.81874267263707 235.3944379312331,104.75478080375154 234.39072860410144,104.4054505967595 234.33168687897617,104.18896427129948 235.3550767811496,103.0179700563122 236.6293940151066,102.0191808729408 236.2357825142701,101.95521900405491 235.71916741942314,101.95029886029465 234.6859372297285,101.36972189656144 233.6723876150756,101.10403413349704 232.77692145067394,100.68090177009823 232.17666391189863,100.22824854413679 232.093021467971,99.89367876842624 232.2357056370239,98.99821260402425 232.13238261805452,98.67840325959519 231.876535142511,98.31923276508226 231.6010070919257,98.19622917107075 231.74369126097932,97.81245795775581 232.08318118044977,97.56645076973317 231.54688551056105,97.33028386923174 230.76458265264932,97.4385270319614 229.84943591320592,98.09290615210136 229.22949779938884,98.7177644096787 228.10770502200594,99.08185504795188 227.0301935384672,100.14460610020916 226.1888489554302,100.76454421402588 225.0030943091621,100.862947089235 224.35855547654268,100.47917587592006 223.72385693144446,99.65751186792482 223.4532490246198,99.3869039610998 223.30072456804567,98.9145701600966 223.94034325690447,98.15686802098725 223.7681382252886,97.55661048221228 223.9846245507486,97.16299898137612 223.39912744325514,95.81979973477328 223.49261017470332,95.23922277104009 224.00922526955097,94.67340623858837 224.33395475774032,94.06330841229253 224.32903461398038,92.74963002825234 224.17651015740626,92.5429839903132 222.1543310718611,92.72010916568935 220.48148219330764,93.14816167284877 216.43712402221732,93.41384943591284 214.4985873805998,93.2957659856623 213.2783917280081,92.90215448482613 211.64490399953885,92.63646672176172 211.03972631700364,92.56266456535496 210.05569756491303,92.5921854279176 209.75556879552607,92.31665737733266 207.7579904287826,91.44087178797241 208.2844458111508,90.70777036766508 208.29920624243263,90.06323153504634 208.24508466106727,89.66962003421017 207.91051488535672,89.03492148911197 207.53166381580203,88.72987257596404 205.46028329265283,88.5379869693064 205.36680056120397,88.380542368972 205.4848840114545,88.07549345582407 205.14047394822342,87.93772943053143 204.38769195287398,88.26245891872146 203.87599700178762,88.33626107512822 201.62749130326122,88.434663950337 200.25477119409612,87.56871864849764 199.6889546616444,87.56379850473736 197.98166477676804,88.58718840691114 197.14032019373104,87.96233014933381 195.24114470219703,86.05331437027891 191.60023831946376,87.46047548576797 191.04426207453258,87.50967692337237 188.28898156868044,86.78149564682565 188.25946070611744,76.98548941976864 188.0331340931369,76.89692683208074 187.94457150544864,76.7099613691837 187.61984201725932,76.27698871826402 187.70840460494688,75.98670023639724 187.644442736061,75.81941534854197 187.38859526051817,75.63244988564493 187.30987296035045,75.46516499778966 187.34923411043394,75.18471680344376 187.29511252906929,75.1158347907976 186.9753031846399,75.11091464703699 186.61613269012696,74.98791105302585 186.65057369645055,74.88950817781672 186.3455247833023,74.89934846533795 186.37012550210466,74.71730314620117 186.02571543887288,74.31877150160474 186.12903845784228,74.14164632622824 185.97651400126884,73.7578751129133 183.9986162095671,72.57704061040513 184.2101823912665,71.92266149026517 185.31229459360765,71.32732409525082 185.30245430608713,71.03703561338405 184.44634929176829,71.13051834483257 183.17203205781195,71.7553766024099 182.20276373700318,71.63237300839874 181.96659683650142,71.70125502104489 181.7107493609579,71.56349099575225 180.39215083315744,71.68649458976374 179.31955949337927,71.27320251388582 179.01451058023102,71.54381042071049 178.46837462282105,71.75045645864962 177.7746343525976,71.80457804001428 176.74140416290294,71.57333128327312 175.90989986738717,71.70125502104489 175.65405239184363,71.58809171455461 175.54580922911364,71.3716053890946 175.8557782860218,71.13543848859318 176.44619553727588,71.02719532586316 175.91482001114707,70.21537160538881 175.58025023543652,70.24489246795144 174.31577328900073,69.73811766062535 174.3403740078031,69.53639176644683 173.98120351329018,69.31498529722654 173.68599488766313,69.36910687859154 172.29359420345557,68.94105437143213 170.7191482001116,69.04929753416214 170.5125021621728,69.25594357210092 169.89256404835572,69.41338817243532 169.1053410466841,69.35926659107066 168.21971516980295,69.46258961004006 166.67479002902127,69.0738982529645 165.81376487094252,68.80821048990009 164.2688397301608,68.98533566527625 163.55541888489557,68.73440833349333 163.0437239338085,69.07881839672477 161.26263189252575,68.36047740769892 160.8936211104916,68.33095654513629 160.62301320366691,67.95702561934222 160.0129153773711,67.7011781437987 160.00307508985057,67.4945321058599 160.06703695873645,67.36660836808814 160.3966865906864,67.10584074878435 157.5577636409066,64.09963291114893 156.41137014472133,64.2275566489207 155.53558455536142,63.55349695373898 155.64382771809144,62.42678403259582 154.49251407814558,60.837577597970345 153.7249716515157,60.576809978666546 153.129634256501,60.158597759028005 151.50106667179165,59.74530568315008 148.5686609905637,58.29878341757786 147.91428187042374,58.303703561338125 147.7322365512866,58.234821548691976 147.5600315196714,57.334435240529366 147.34846533797202,57.09826834002794 147.60431281351484,56.709576982952385 147.4813092195037,56.60133382022237 145.40500855259387,56.719417270473265 144.56858411331748,56.24708346947007 140.62262881743595,54.79072091637662 140.47502450462244,54.54963387211458 141.09988276219943,53.90017489573523 141.62633814456763,52.80298283715471 141.5525359881612,52.271607311025896 142.02978993292467,51.76483250369945 141.99534892660176,51.40566200918653 141.75918202609998,51.16457496492449 140.54390651726894,50.716841882723664 139.5844784839807,50.48067498222189 139.0235820952896,50.45115411965926 138.59552958813018,50.10674405642783 138.29540081874254,50.205146931636605 138.12811593088725,50.42655340085689 137.32613249793377,50.66764044511893 136.96204185966093,50.214987219157486 137.0210835847862,49.78693471199841 137.74926486133256,49.850896580884296 137.75418500509318,49.57536853029901 137.32613249793377,49.417923929964616 137.74434471757266,48.98495127904493 137.72958428629082,48.724183659741136 137.88702888662556,48.645461359573765 138.3888835501914,48.773385097345525 140.6669101112801,47.25306067536655 140.31265976052777,46.99229305606241 140.77515327401008,46.36743479848543 141.2720877938153,46.33299379216218 141.46397340047295,46.22967077319278 140.9817993119489,45.609732659376064 141.28684822509643,45.41784705271842 141.84282447002764,45.62449309065721 142.0150295016435,45.50640964040667 141.77394245738114,45.29484345870727 141.88218562011113,45.029155695642864 142.19215467701932,44.960273682996366 142.51196402144873,44.46333916319115 142.4283215775211,44.20257154388701 142.7432107781899,44.163210393803496 143.04333954757755,43.99592550594822 143.5156733485811,43.1102996290671 143.1368222790264,42.57400395917802 142.2511964021453,42.77080970959593 141.89202590763236,42.603524821740656 141.82806403874648,42.03278814552833 142.14295323941528,41.786780957506025 141.77394245738114,41.29476658146073 142.04947050796642,40.807672349176386 141.47381368799347,40.39438027329846 141.39509138782645,39.93680690357641 140.83419499913535,39.55303569026147 140.96211873690712,39.2676673521553 139.77144394687772,38.08191270588687 140.3225000480483,37.043762372431615 140.30281947300654,36.80267532816958 140.16997559147416,36.51730699006342 139.0875439641755,36.17781707059225 137.13916703503673,36.32542138340577 135.52535988160923,36.3697026772499 134.93002248659454,35.80880628855845 132.8438815321635,35.39551421268087 132.43550960004654,34.996982568084434 131.5548038669253,34.573850204685634 132.40106859372293,34.175318560089195 132.37646787492056,33.82106820933654 133.40477792085528,33.6341027464395 133.3752570582923,33.52093943994923 133.1243297265094,33.31921354577071 133.2325728892394,33.151928657915434 133.19321173915588,32.969883338778665 132.94228440737297,32.88624089485103 132.12554054313765,33.35365455209396 131.84509234879246,33.23065095808246 131.80081105494833,32.98956391382042 131.88937364263657,32.763237300839876 131.84509234879246,31.552881935769076 131.5449635794048,30.937863965712626 131.66304702965533,30.568853183678822 131.9385750802406,30.421248870865302 131.42195998539364,29.880033057215613 130.25096577040603,30.352366858219156 129.95575714477897,30.613134477522948 129.56706578770377,30.745978359054977 129.01108954277257,30.642655340085582 129.03569026157496,30.352366858219156 128.597797466895,29.880033057215613 130.04431973246722,27.848013684149574 130.22636505160364,27.49868347715788 129.61134708154788,27.42980146451138 129.20789529319083,27.21823528281198 129.49326363129666,26.903346082143184 130.1328823201555,26.65733889412053 129.80323268820553,25.58966769810299 129.97051757606081,25.328900078799197 130.5215736772307,25.23049720359007 131.22515423497538,25.61426841690501 132.50931175645295,25.176375622225063 131.7909707674271,24.403913051834213 131.3678384040283,24.37439218927158 131.0234283407972,24.664680671138356 130.79218158405607,24.733562683784502 130.62489669620078,24.517076358324836 130.87090388422308,24.182506582613932 130.5953758336378,23.892218100747506 130.60029597739842,23.70033249408986 130.78726144029545,23.597009475120466 132.67167650054762,23.085314524033755 132.87832253848708,22.676942591916095 132.68151678806885,22.514577847821432 132.11570025561713,22.312851953642905 130.67409813380482,21.525628951970916 130.09352117007197,21.683073552305313 129.49326363129666,21.525628951970916 128.7650823547503,20.758086525340676 128.70604062962502,20.143068555284227 127.31363994541745,20.50223904979715 125.25209970978877,21.28946205146914 122.99867386750245,21.284541907708878 122.4574580538524,21.02869443216535 120.29259479925435,21.191059176260012 119.73169841056325,21.033614575925615 116.40076108473816,22.03240375929736 115.0477215506141,22.63758144183258 112.79429570832778,22.79502604216698 112.2038784570737,22.430935403893795 110.72291518517788,22.25381022851764 109.98489362111098,22.529338279102575 109.62080298283745,22.42601526013318 109.41415694489866,22.184928215871142 108.66629509330983,21.92416059656735 108.09063827333689,21.89955987776498 108.1299994234211,21.673233264784436 109.08942745670863,21.04345486344649 110.12265764640328,20.79744767542419 110.47198785339498,20.52683976859952 110.32438354058145,20.32019373066038 109.22227133824101,19.601852741634534 109.50271953258621,19.08031750302695 109.68968499548394,17.899483000518785 109.89141088966211,15.990467221463899 109.23211162576155,15.63621687071159 107.37721742807166,15.803501758566865 106.29970594453289,15.065480194499264 96.58242201764361,15.25736580115691 94.52580192577486,12.949818377505586 94.58484365090082,11.91166804405068 93.93538467452147,10.942399723241918 92.36093867117678,10.204378159174317 91.92304587649684,7.857469585439482 90.58476677365462,7.665583978781835 90.07307182256757,8.118237204743274 88.00169129941767,8.792296899924994 86.97338125348364,8.546289711902343 84.52806980453967,9.121946531875283 82.45176913762985,9.343353001095215 81.43821952297696,9.0924256693123 79.5882454690477,7.96571274816914 78.39757067901832,6.976763852318623 78.89942534258414,6.465068901231915 80.50831235225172,5.9976552439889845 76.81820453191371,3.6310660952123928 62.1758567008129,0 53.34911879456466,2.8192423747380304 49.349041917318466,2.5584747554342377 39.89252560973263,3.1685725817300754 34.60337106724827,7.257212046664522 29.76686975072569,8.059195479617657 26.721300763007115,7.6606638350212215 22.87866848609497,6.4060271761062975 7.035805577444241,4.654455997386158 2.7995617996962743,5.298994830005244 0.22632661298124407,6.962003421037481 0,9.048144375468523Z"/>
  </g>
</svg>