<?xml version="1.0" encoding="UTF-8" standalone="no"?>
<svg viewBox="0 0 170.0076399269227 256" xmlns="http://www.w3.org/2000/svg">
  <style>
    g.zone {
      fill: lightgray;
      stroke-width: 2;
      stroke-linecap: square;
      stroke-linejoin: bevel;
      stroke-miterlimit: 3;
      stroke-opacity: 0.8;
      stroke: black;
      fill-opacity: 0.3;
    }
  </style>
  <g class="zone" id="zone">
    <path d="M0,124.30094668659648 0.27636605215091664,128.2763660521509 6.356419199468062,135.29181199136244 11.713668825775581,139.22471350273992 22.02424846371037,140.35143663843132 31.99468526822958,136.41853512705532 37.86214914466048,137.48148148148053 31.63328350772477,158.31523002823485 33.5040690915135,171.38947018767578 28.9546586945695,172.7075236671642 28.805846204950935,180.61584454409464 39.73293472845223,188.16276366052176 42.34778276033981,206.29662846703158 56.37867463876585,221.15661850190887 49.70337153296841,240.37468858993464 57.484138847369515,255.61733931240596 144.68825776449057,256 144.11426673310254,255.5535625311413 143.90167746221627,254.78824115595322 146.87792725460866,251.93954492609166 147.83457897359378,250.2388307590092 147.11177545258417,249.85617007141667 146.24015944195295,248.17671483142345 145.87875768144812,246.60355422687186 146.0913469523344,245.96578641421613 145.09217737917385,245.5831257266236 142.75369539943716,244.13751868460284 142.37103471184312,243.7548579970103 142.22222222222155,242.8832419863806 140.7766151802023,243.3934562365055 139.92625809666333,243.3934562365055 137.12007972097572,242.41554559043266 136.03587443946128,241.65022421524608 134.61152632453127,240.05580468360677 131.78408902175744,239.07789403753546 131.29513369872026,238.69523334994142 131.16758013619094,238.16376017272881 127.97874107291229,236.0378674638754 126.49061617671457,234.0395283175543 126.53313403089304,233.5930908486956 127.25593755190266,232.50888556718115 127.38349111443199,231.74356419199458 127.27719647899188,230.76565354592177 126.27802690583134,230.23418036870916 126.12921441620976,229.72396611858426 125.66151802026182,229.3838232851687 125.59774123899716,228.85235010795458 124.70486630127974,228.42717156618508 123.76947350938387,226.91778774289966 125.25759840558158,226.08868958644692 127.27719647899188,225.25959142999415 127.02208935392717,224.9619664507555 125.85284836405884,224.3454575651875 125.04500913469532,223.7076897525318 124.70486630127974,223.21873442949612 124.78990200963364,222.81481481481435 127.57482145822901,222.68726125228352 129.2330177711345,222.04949343962778 131.27387477163404,222.0707523667155 133.01710679289346,221.68809167912298 134.5477495432666,222.55970768975268 135.73824946022415,222.47467198139879 136.18468692908286,221.9857166583616 136.52482976249846,220.837734595581 136.9925261584464,220.49759176216543 137.24763328350807,219.37086862647402 138.20428500249318,218.43547583457817 141.24431157615024,218.66932403255214 143.45523999335757,217.43630626141763 144.02923102474864,217.4150473343299 144.9858827437307,218.2866633449596 146.77163261916556,219.47716326191565 147.40940043182127,219.71101145988962 148.19598073409858,219.71101145988962 149.13137352599145,220.54010961634236 151.59740906826048,221.13535957482114 153.17056967281206,220.94402923102413 153.9996678292648,220.5613685434316 154.36106958976964,220.17870785583756 156.06178375685056,220.60388639760853 157.61368543431294,220.51885068925313 158.3577478824118,220.1999667829253 160.24979239328977,218.92443115761532 160.58993522670835,218.3716990533135 160.8025244975916,217.20245806344366 161.3339976748042,216.86231523002806 162.39694402923243,216.56469025078792 163.56618501910077,215.62929745889355 163.7149975087193,215.26789569838874 163.62996180036544,214.28998505231593 163.2473011127714,213.86480651054643 164.5653545922613,213.58844045839552 164.54409566517208,212.90815479156285 164.92675635276612,212.48297624979185 165.24564025909245,212.39794054143798 165.24564025909245,212.65304766649965 170.0076399269227,212.65304766649965 166.90383657199797,208.25244975917573 165.1818634778278,207.9548247799371 165.24564025909245,204.70220893539226 164.45905995681818,202.7251287161604 157.25228367380814,199.91895034047428 155.44527487128408,197.49543265238222 155.5515695067272,196.36870951669084 151.46985550573115,196.21989702707077 142.4348114931078,185.44162099318956 138.37435641920098,182.89054974256663 126.57565188506847,181.9764158777615 126.08669656203432,180.02059458561737 120.77196478990224,176.06643414715063 121.19714333167173,171.26191662514495 127.53230360405357,165.75585450921736 119.41139345623688,159.65454243481096 118.284670320544,157.0396944029234 116.15877761169358,155.10513203786698 116.24381332004747,144.85832918119837 112.9486796213257,142.11592758677995 109.99368875602254,140.45773127387443 102.76565354592326,139.20345457565222 100.80983225377761,135.99335658528435 101.14997508719622,133.48480318883836 101.32004650390401,126.85201793721939 99.23667164922904,126.40558046836068 96.66434147151689,124.36472346786265 96.47301112771987,112.48098322537776 95.23999335658687,111.03537618335851 95.38880584620543,108.82444776615118 97.1107789403756,107.4426175053981 96.53678790898454,105.35924265072161 95.11243979405451,104.27503736920718 94.1345291479832,100.25710014947579 99.02408237834278,92.47633283507619 88.79853844876189,83.52632453080827 87.96944029231216,81.06028898853924 91.92360073077587,77.27619996678182 93.05032386646876,74.55505729945111 83.10114598903878,69.92061119415321 82.50589603056152,71.68510214250033 78.97691413386427,70.72845042351673 77.1699053313402,65.47749543265233 75.36289652881614,63.75552233848217 74.49128051818795,58.44079056635009 75.10778940375445,56.54874605547213 74.93771798704667,54.86929081547891 72.25909317389139,53.381165919282715 71.57880750706022,51.148978574987666 73.7472180700891,46.790898521839175 73.2157448928765,44.04849692742074 67.92227204783364,37.81963129048353 67.81597741239051,25.213087526989018 64.92476332835201,20.727453911309684 67.02939711011622,18.006311243978978 66.71051320378685,15.646570337153083 61.01312074406375,6.0587942202294265 59.928915462549305,5.102142501245833 57.3991031390126,4.33682112605775 50.25610363727024,4.1880086364391875 35.438631456569915,0 4.868294303273375,2.763660521507656 4.400597907325437,8.737419033383187 4.166749709349958,18.9842218900518 10.034213585783874,23.91629297458833 11.56485633615702,28.338149809001486 16.922105962464542,30.038863976083935 18.41023085866225,36.75668493605681 17.36854343132325,42.454077395781425 20.557382494601892,44.6224879588103 20.110945025743185,50.426175053978035 14.47732934728475,50.192326856004065 12.138847367548083,55.209433648894496 13.116758013619394,61.11941537950536 12.37269556552054,65.17987045341219 23.257266234846394,80.16741405082183 21.64158777611633,82.14449427005368 22.640757349276875,84.31290483308406 22.662016276366103,86.75768144826385 23.74622155788054,88.4583956153463 21.386480651054644,92.39129712672229 18.984221890053313,93.32668991861817 22.725793057630767,97.1107789403756 21.83291811991335,97.89735924264988 24.596578641422518,99.98073409732638 23.74622155788054,102.95698388971877 16.3481149310765,109.18584952665599 19.600730775619812,115.71234014283336 17.517355920944834,120.3042683939543 15.922936389303999,119.0925095499075 12.117588440458853,121.45225045673492 0,124.30094668659648Z"/>
  </g>
</svg>