<?xml version="1.0" encoding="UTF-8" standalone="no"?>
<svg viewBox="0 0 256 192.9012786987501" xmlns="http://www.w3.org/2000/svg">
  <style>
    g.zone {
      fill: lightgray;
      stroke-width: 2;
      stroke-linecap: square;
      stroke-linejoin: bevel;
      stroke-miterlimit: 3;
      stroke-opacity: 0.8;
      stroke: black;
      fill-opacity: 0.3;
    }
  </style>
  <g class="zone" id="zone">
    <path d="M0,22.472086941918967 1.7810618237657325,25.542883189789627 3.8016457548646136,28.318882997864936 8.389415349183201,33.62521891418559 8.635079049013168,37.45757263152862 12.092795624115304,42.92358995273862 30.695679293717312,41.584722788667 34.47890027109409,44.158050044382655 36.665307199578265,44.26245711681024 37.53127174147778,47.83072235683634 39.275484010267846,49.4398195907204 39.04210349542977,51.23930619197265 41.732121008564896,52.03157162392345 41.775112156034766,56.83429695559359 53.27831490055937,60.29201353069615 54.740013914545536,63.025022191301154 60.42098697310665,66.13266799414662 62.96974785883939,65.56149989204245 67.41011923326052,64.9473406424684 70.11241993138754,66.28006621404407 69.59652616174469,66.77753520619908 70.2229685963102,69.08677398459824 73.23849051171996,75.47403018016952 83.169445577334,75.36962310774193 86.31394093515338,70.0939951538997 92.78103783316935,71.28546409807386 94.826188134252,70.47477388863567 101.03533814744611,73.28148165918984 105.8871962190825,73.45344624907064 112.80262936928764,75.5784372525971 111.01542595302683,78.79049012787014 114.63282393301833,88.7890027109374 117.02804500635766,91.0245423793874 120.86039872370026,94.45769258450706 123.66096490175892,98.36374541179882 124.55149581364135,101.66792217450755 135.88273396828473,109.0808243168677 139.3711585058657,113.2939567689467 141.11537077465664,122.37737207014862 138.54204351894097,125.49730105798554 138.99037977113016,125.99477005014054 139.7028045006363,125.8166638677638 141.07852121968185,126.45538948732118 142.27613175635193,126.47381426480815 142.98855648585806,126.87915936952703 143.86066262025352,126.9344337019888 147.47191900774905,125.37446920807055 154.46105126790295,123.81450471415232 156.37108653407915,123.14507113211607 156.88698030372115,121.56054026821492 158.85228990235825,119.4048413022096 161.10011275580013,117.88786795576124 164.76664347575743,116.48758486673235 167.78830698366227,114.9276203728141 168.2305016433564,113.99409831346136 169.91329798718962,113.49048772881042 169.65535110236775,112.21917808219202 169.01662548281124,111.80769138497719 168.91221841038364,111.59273564762609 168.9613511503495,111.40848787275382 168.55600604563017,111.26108965285637 168.1813689033897,111.26108965285637 167.88043087109884,111.18739054290721 167.51193532135431,111.03999232300932 167.4259530264137,110.88031091811996 167.44437780390066,110.73905429071802 167.83743972362896,110.57937288582868 168.04011227598818,110.55480651584575 168.3594750857669,110.39512511095641 168.45159897320258,110.27843485353738 168.61742197058788,110.1985941510927 168.6911210805366,110.07576230117816 168.87536885540885,109.98978000623754 168.86922726291291,109.80553223136528 168.7279706355114,109.5537269390398 168.77096178298126,109.42475349662931 168.50687330566433,109.30192164671476 168.27963438332222,109.12381546433802 168.53758126814319,108.50965621476396 168.3594750857669,108.36225799486608 168.31034234580108,108.24556773744705 168.08310342345806,107.99376244512156 168.31034234580108,107.83408104023222 168.56828923062204,107.75424033778755 168.60513878559598,107.45330230549625 168.94292637286165,107.27519612311994 168.89993522539177,107.03567401578592 168.19979368087755,106.85756783340916 167.8251565386371,106.85756783340916 167.4136698414227,106.72859439099868 167.24170525154145,106.63032891106704 167.17414773408868,106.50135546865654 166.7380946668905,106.28639973130544 166.71966988940355,106.20655902886075 166.90391766427578,106.07144399395432 166.88549288678882,105.89333781157801 166.95919199673756,105.74593959168011 166.89777607177984,105.48185111436318 166.65825396444583,105.43885996689288 166.42487344960776,105.46956792937173 165.87827171748694,105.70294844420981 165.47906820526356,105.5494086318164 164.72365232828756,105.43271837439737 164.42271429599583,105.27917856200396 164.33059040856014,105.033514862174 164.37358155603002,104.78785116234447 164.44113907348367,104.67730249742094 164.55782933090228,104.62202816495962 164.50869659093647,104.44392198258286 164.23846652112357,104.49305472254868 163.79013026893438,104.30266535518092 163.23124535182254,104.35793968764268 162.2178825900247,103.92188662044495 162.03363481515242,103.72535566058123 161.89237818775092,103.30772737087091 162.16260825756294,103.17261233596446 162.20559940503367,103.11119641100676 162.22402418252065,102.87167430367317 162.42055514238479,102.78569200873255 162.3284312549482,102.58301945637334 162.2301657750166,102.50932034642416 162.14418348007598,102.54616990139853 161.9845020751866,102.52160353141562 161.640572895425,102.35578053403076 161.3334932706382,102.36806371902222 160.8483074634742,102.22066549912432 160.61492694863614,101.96886020679885 160.6210685411321,101.76618765443963 160.46138713624273,101.60036465705433 160.40611280378099,101.44682484466094 160.30784732384933,101.37926732720771 160.28328095386644,101.29328503226753 160.38154643379806,101.13360362737818 160.35698006381517,101.0721877024209 159.95163495909586,100.98620540748028 159.39889163447907,100.71597533766786 159.34361730201817,100.62999304272724 159.3559004870092,100.48259482282934 159.2699181920686,100.42117889787207 158.52064390758855,100.24921430799127 157.9371926204929,100.24307271549576 157.70995369815077,99.96055946069143 157.68538732816788,99.81316124079353 157.58712184823537,99.7578869083322 157.4765731833127,99.5859223184514 157.51956433078257,99.48151524602382 157.70995369815077,99.34025861862143 157.7345200681337,99.18671880622803 157.5809802557403,98.97176306887692 157.30460859343145,98.83664803397092 157.15106878103808,98.70153299906448 157.72837847563775,98.4067365592687 157.81436077057836,98.19792241441353 158.05388287791237,98.00139145454982 158.4899359451097,98.01367463954126 158.5636350550584,98.1303648969603 158.63733416500713,98.11194011947335 158.88913945733304,98.02595782453272 158.93213060480292,97.74344456972884 159.38046685699211,97.57147997984802 159.5585730393684,97.45478972242898 159.61998896432613,97.35652424249692 159.92092699661785,97.39951538996722 160.11745795648113,97.33195787251401 160.33241369383225,97.35652424249692 160.5412278386874,97.22755080008642 160.8360242784832,97.22755080008642 161.06940479332127,97.1784180601206 161.2597941606895,97.01259506273531 161.4256171580739,97.01873665523125 161.63443130292907,96.5089844780848 162.05205959264026,96.46599333061448 162.18103303505077,96.60110836552093 162.08276755511827,96.67480747546965 162.07048437012725,96.8160641028716 162.18103303505077,96.92047117529918 163.26809490679648,97.24597557757383 163.24967012930952,97.3073915025311 163.37250197922407,97.6328959048053 163.28651968428431,97.81100208718205 163.6734400115158,98.30847107933705 163.6734400115158,98.50500203920076 163.74099752896856,98.59098433414096 164.1709090036708,98.85507281145789 164.76664347575743,99.0761701413045 165.0000239905955,99.31569224863853 165.27025406040838,99.30340906364707 165.5896168701871,99.47537365352787 165.66945757263176,99.3955329510832 165.96425401242755,99.32797543362997 166.08094426984616,99.15601084374917 166.09322745483803,99.0516037713216 166.3941654871289,98.86735599644933 166.59069644699304,98.86121440395382 166.55998848451418,98.947196698894 166.596838039489,99.0516037713216 167.53650169133724,99.65962142840013 167.7084662812176,99.86229398075979 167.83129813113302,99.9114267207256 168.24892642084336,99.8930019432382 168.43317419571562,99.95441786819592 168.67883789554557,100.15094882805963 169.10874937024693,100.35362138041884 169.51409447496624,100.66070100520609 169.93786435717251,100.52558597029964 170.34320946189098,100.62385145023173 170.67485545666156,100.61770985773578 171.21531559628644,100.39661252788916 171.4732624811074,100.3843293428977 171.65136866348374,100.31063023294897 172.67087301777752,100.45802845284643 173.69037737207046,100.32905501043594 174.75287287383324,100.33519660293189 175.11522683108268,100.2369311229998 175.50214715831416,100.05268334812754 175.60655423074175,99.88071875824674 176.14701437036663,99.96670105318736 176.44181081016242,99.92370990571706 176.7980231749159,100.02811697814464 176.98841254228324,100.01583379315319 177.16037713216448,99.8868603507427 177.3139169445579,99.59820550344286 177.69469567929428,99.62891346592127 177.96492574910627,99.50608161600672 178.00791689657703,99.42624091356205 178.11846556149968,99.37096658110029 178.04476645155097,99.27884269366416 178.1368903389875,99.08231173380045 178.03248326655995,99.00247103135577 178.30271333637194,99.0761701413045 178.76947436604897,99.02089580884318 178.85545666098872,98.91034714391965 178.8677398459806,98.79979847899611 179.14411150828855,98.51114363169627 179.60473094546964,98.43744452174755 179.8811026077776,98.1303648969603 187.35542067509544,97.68817023726706 187.37998704507837,97.84785164215641 187.68706666986603,97.98296667706285 187.75462418731883,98.34532063431142 187.86517285224235,98.4313029292516 187.68706666986603,98.54799318667108 187.65635870738717,98.79979847899611 187.5273852649767,98.95947988388546 187.69934985485705,99.15601084374917 187.66250029988225,99.45694887604047 187.5765180049425,99.59820550344286 187.84060648225943,99.7394621308448 188.04327903461865,99.929851498213 188.0248542571317,100.10795768058931 188.08012858959344,100.24921430799127 188.00028788714877,100.41503730537656 188.04942062711459,100.59314348775287 187.93887196219106,100.78353285512107 187.93273036969512,100.91864789002707 188.14768610704624,101.1581699973611 188.88467720653526,101.1765947748485 189.38828779118623,101.37926732720771 189.84276563587136,101.42225847467802 190.0392965957346,101.53894873209705 190.43235851546206,101.51438236211415 190.81313725019845,101.66178058201204 191.14478324496815,101.86445313437126 191.27375668737866,102.21452390662881 191.4457212772599,102.38648849650961 191.4702876472428,102.53388671640707 191.7773672720296,102.81639997121141 191.7282345320638,102.9637981911093 191.78350886452554,103.12347959599865 191.50099560972077,103.23402826092173 191.42115490727699,103.40599285080253 191.5378451646956,103.74992203056415 192.21956193172286,103.89732025046204 192.42837607657802,103.88503706547058 192.58191588897142,103.98330254540222 192.95041143871595,104.08156802533429 193.411030875897,104.0631432478469 193.6935441307009,104.12455917280417 194.1050308279153,103.92188662044495 194.12345560540314,103.87275388047912 194.0497564954544,103.780629993043 193.95763260801783,103.72535566058123 193.99448216299265,103.67622292061542 193.94534942302596,103.62709018064916 194.3077033802754,103.418276035794 194.5902166350793,103.48583355324722 194.72533166998574,103.60866540316219 194.95257059232785,103.68236451311093 195.11839358971315,103.81747954801736 195.6895616918169,103.94645299042786 195.84924309670623,104.0631432478469 196.32214571887832,104.00172732288962 196.81961471103332,104.31494854017237 197.48904829306957,104.32723172516383 197.59345536549716,104.278098985198 197.7285704004036,104.32723172516383 197.882110212797,104.29038217018946 198.0724995801652,104.13070076530012 198.5331190173454,104.2351078377277 198.5945349423031,104.41935561259996 198.68051723724287,104.52376268502753 198.98759686203053,104.55447064750639 199.07972074946625,104.6895856824124 199.3253844492962,104.80013434733593 199.4789242616896,104.78170956984852 199.83513662644222,104.87383345728465 200.08694191876813,104.88611664227611 200.48000383849555,105.0765060096443 200.69495957584667,105.46956792937173 200.98361442314652,105.74593959168011 201.2415613079675,105.8257802941248 201.38281793536987,105.97317851402268 201.49950819278848,106.18813425137336 201.5609241177462,106.53206343113496 201.53635774776328,106.58733776359672 201.10644627306107,106.61804572607558 200.69495957584667,106.91898375836688 200.4615790610086,107.02339083079445 200.24662332365747,107.02339083079445 199.99481803133156,106.9496917208453 199.86584458892108,107.00496605330706 199.84127821893816,107.06638197826477 199.890410958904,107.60070052539415 199.81671184895526,107.80951467024931 199.96411006885359,107.9630544826427 199.87198618141701,108.0674615550703 200.0930835112641,108.31926684739577 200.09922510375915,108.4359571048148 200.4247295060338,108.81673583955077 200.44929587601672,109.08696590936366 200.55370294844428,109.25893049924446 200.615118873402,109.47388623659513 200.31418084111027,109.63970923398043 200.1053666962551,109.5905764940146 199.3253844492962,109.81167382386123 198.8279154571412,109.59671808651011 198.51469423985844,109.55986853153576 198.2506057625415,109.68884197394624 198.02950843269446,109.65813401146738 197.80226951035232,109.57829330902315 197.7531367703865,109.49845260657848 197.7408535853946,109.4431782741167 197.81455269534334,109.30806323921027 197.29865892570137,109.06854113187624 196.98543770841863,109.00098361442303 196.4265527913059,109.05011635438929 195.70184487680876,108.82287743204672 195.21665906964478,108.89657654199544 194.90957944485797,108.99484202192752 194.62092459755814,108.98870042943157 194.3998272677111,108.82901902454266 193.99448216299265,108.91500131948285 193.90849986805202,108.84130220953412 193.8593671280862,108.9272845044743 193.77338483314557,108.93956768946576 193.5154379483246,108.89657654199544 193.59527865076927,109.01326679941492 193.58913705827334,109.20979775927863 193.94534942302596,109.60285967900606 193.90235827555608,109.69498356644219 194.09274764292428,109.90993930379287 193.82865916560735,109.94678885876722 193.80409279562443,109.98978000623754 193.87165031307723,110.13717822613543 193.79180961063255,110.28457644603333 193.80409279562443,110.40740829594787 194.09888923542022,110.67763836576074 194.28927860278756,111.03999232300932 194.46738478516474,111.11983302545399 194.52880071012157,111.19353213540315 194.57179185759233,111.28565602283928 194.54108389511347,111.39620468776238 194.6024998200712,111.46990379771154 194.5226591176265,111.54360290766027 194.52880071012157,111.66643475757525 194.42439363769398,111.74013386752398 194.5533670801045,111.80769138497719 194.5226591176265,111.89981527241332 194.60864141256624,112.07177986229412 194.8051723724304,112.18847011971316 195.02626970227658,112.42799222704718 195.0201281097815,112.56924885444913 195.1122519972172,112.71664707434702 195.06926084974734,112.78420459180025 195.08154403473836,113.00530192164686 195.2412254396277,113.10970899407445 195.23508384713173,113.16498332653622 195.36405728954313,113.31238154643367 195.50531391694463,113.3799390638869 195.4684643619707,113.41678861886169 195.52988028692752,113.52119569128928 195.4807475469617,113.5519036537677 195.5851546193893,113.68701868867413 195.57287143439828,113.7484346136314 195.7386944317827,113.86512487105044 195.90451742916798,114.09850538588896 195.79396876424445,114.22747882829944 195.93522539164684,114.50999208310334 195.81853513422737,114.60825756303541 195.91065902166395,114.66353189549717 195.8676678741932,114.7556557829333 195.9659333541257,114.89077081783931 195.84924309670623,114.99517789026689 195.91680061415988,115.0381690377372 195.91065902166395,115.14257611016478 195.99664131660367,115.2285584051054 195.85538468920217,115.47422210493494 195.87380946668912,115.64004510231979 196.00892450159557,115.78744332221768 196.94244656094875,116.46916008924495 196.99772089340965,116.62884149413429 197.17582707578683,116.68411582659606 197.32936688818023,116.88064678645978 197.53203944053945,117.00962022887026 197.5504642180264,117.04032819134912 197.43991555310376,117.10174411630639 197.38464122064198,117.26142552119575 197.44605714559884,117.40268214859769 197.8452606578222,117.45795648105945 197.99265887772052,117.56236355348703 198.3427296499772,117.67905381090607 198.46556149989263,117.77731929083815 198.12163232013103,118.04140776815508 198.12163232013103,118.12124847059975 198.23218098505367,118.18266439555703 198.15848187510494,118.34848739294188 198.01722524770344,118.42832809538656 197.9619509152417,118.52659357531863 198.31202168749834,118.59415109277185 198.6989420147307,118.78454046013961 198.58839334980718,118.9073723100546 198.57611016481528,119.01177938248219 198.93232252956878,119.51538996713313 198.72350838471363,119.66892977952654 198.73579156970462,119.93301825684347 198.92618093707284,120.05585010675802 199.12885348943206,120.28308902910058 199.27625170933038,120.3445049540583 199.07972074946625,120.46119521147733 199.34380922678315,120.84811553870881 199.27011011683445,120.95866420363234 199.12271189693698,120.97094738862378 198.9937384545256,121.05692968356398 199.41750833673188,121.13062879351314 199.70002159153665,121.27188542091508 199.67545522155376,121.42542523330849 199.80442866396425,121.59124823069378 199.77986229398132,121.70179689561687 199.9272605138788,121.75707122807863 199.9395436988707,121.85533670801071 200.03166758630638,121.89218626298508 199.5956145191091,122.08871722284879 199.27625170933038,122.14399155531055 199.1718446369028,122.27296499772105 198.379579204952,122.53091188254203 198.02336684019852,122.58004462250784 197.5995969579931,122.78885876736345 199.52191540915948,124.60677014610268 199.43593311421972,126.58436292973168 200.7563755008035,127.96007964877766 201.88028692752488,130.34301753712555 202.2119329222946,132.56627402058407 201.92327807499476,133.6410527073388 202.51901254708142,136.32492862797795 202.24264088477346,138.00158337931524 202.4944461770985,139.1132116210447 201.78202144759237,139.93004342297843 203.30513638653625,141.85850346664117 208.74044574526826,145.51889259410297 210.21442794424632,146.83933498068762 211.9279322505584,151.37797183504082 218.1739318187273,160.38154643379806 215.8892594103115,162.60480291725662 217.8545690089486,170.41076697934417 216.27617973754298,173.64738622460013 216.74908235971506,175.6188374157332 220.4340378571602,183.76873065758238 220.90079888683636,191.37816375980626 223.6522323249292,190.80085406520655 228.21543554926487,190.88683636014673 236.00911642636143,191.9923230093803 237.70419595518567,192.9012786987501 239.50368255643838,192.15814600676558 239.71863829378862,190.80085406520655 241.4137178226137,190.51834081040224 244.01775304080823,188.79255331909914 247.1499652136366,189.93488952330705 248.28001823285305,188.65129669169676 250.5094163088071,191.72209293956786 255.28143367799882,192.34239378163784 256,189.96559748578545 255.09718590312656,188.14768610704624 252.8800710121635,184.8066597893627 252.83707986469366,182.73080152580206 253.44509752177132,181.68058920903027 251.90355780534048,180.6119521147711 251.92198258282744,179.96094331022226 251.5412038480919,177.96492574910627 250.56469064126887,177.3630496845237 250.70594726867125,176.25756303529016 247.27279706355114,176.85943909987273 246.72005373893438,176.55850106758146 244.29412470311618,170.42919175683159 250.29446057145597,166.48628937456502 249.15826595974357,165.9581124199316 251.12971715087664,164.08492670873017 252.76338075474405,162.25473214499905 252.49315068493203,162.07662596262276 252.49929227742712,161.32121008564633 251.9649737302982,160.81145790849985 250.92704459851743,160.2157234364128 250.28831897896004,159.07338723220488 249.3855048820866,158.89528104982855 247.42633687594454,159.23306863709422 247.3403545810048,159.89636062663453 243.6124079360889,159.93321018160887 241.12506297531388,156.27282105414665 244.582779550416,153.7179185759184 248.72835448504225,152.93793632895907 247.70270853825338,151.23057361514293 248.4396996377424,150.7699541779623 247.7395580932273,149.66446752872875 248.2738766403571,148.3133171796657 246.49895640908818,147.70529952258715 245.97077945445432,146.84547657318356 245.9093635294966,146.02864477124987 244.7854521027761,144.11246791257813 237.85773576757907,145.48818463162453 238.0051339874774,143.09296355828522 236.6539836384139,141.91377779910295 236.1810810162418,140.55034426504798 233.55247942806437,138.79999040376197 234.3263200825282,137.4734064246818 233.6138953530221,137.03735335748408 229.17352397860097,137.0926276899454 227.2389223424418,137.69450375452843 225.59911714607935,136.47232684787585 222.18439171844622,135.45896408607842 218.266055706163,130.58868123695507 220.25593167478388,126.11760190005509 222.1598253484633,125.10423913825768 221.77290502123182,123.2310534270567 222.4546217882591,121.43156682580444 233.7551519804236,125.04282321330041 237.624355252741,122.91783220977395 236.8320898207902,122.37123047765267 233.93939975529585,120.92181464865797 233.36209006069618,120.84811553870881 232.16447952402694,119.98215099680928 228.72518772641178,117.78346088333366 228.38740013914523,117.7466113283593 223.21617925773103,115.41280617997766 220.39104670969033,113.4474965813401 220.48317059712602,112.71664707434702 219.1565866180463,110.67763836576074 217.94669289638517,109.54144375404834 216.78593191468985,108.84744380202963 216.17791425761132,108.65091284216592 216.0796487776797,107.631408487873 215.5944629705157,107.25062975313703 215.4040736031475,106.648753688554 214.50740109876912,106.03459443897995 213.78883477676794,104.9229661972509 213.0149941223041,104.11227598781271 212.1490295804046,102.28208142408204 210.0915960943309,100.12638245807672 208.12014490319785,99.02089580884318 208.00959623827518,98.86735599644933 206.03200345464617,97.6513206822927 203.58150804884508,96.45985173811854 202.4883045846034,96.7055154379485 201.19242856800167,96.1711968908187 200.2589065086485,95.95624115346803 200.03166758630638,95.9930907084424 199.88426936640892,96.36772785068241 200.46772065350368,96.89590480531628 200.51685339347037,97.02487824772676 200.40016313605088,97.20298443010351 200.03166758630638,97.28282513254818 197.9988004702156,96.53969244056321 195.70798646930385,96.06678981839111 191.80193364201253,97.06172780270157 189.41285416116912,96.10363937336592 187.84060648225943,95.17011731401318 187.04834105030864,94.96130316915757 187.06062423529966,94.70335628433659 187.36770386008735,94.52525010196028 187.93887196219106,93.84353333493257 185.42081903893717,91.3930379291319 180.11448312261652,84.13367559916516 179.15639469328045,84.05383489672049 177.0559700597369,82.81323321258094 172.46205887292237,80.94004750137952 171.41798814864566,79.52133963486322 171.74349255092028,78.85190605282742 170.17738646450655,77.35335748386645 167.38296187894383,76.3338531295731 154.72513974521988,70.61603051603763 152.29921070940256,70.06328719142084 145.94266247630924,65.70275651944439 143.84223784276568,65.18686274980199 137.6699373845455,62.66266823405215 131.110716599093,59.88052683348133 126.87915936952703,58.57236763188857 125.21478780318165,55.32960679413667 123.33546049948427,51.128757527049565 117.8018856608215,47.12443921982573 114.7372310054459,43.464050092363934 114.8416380778735,42.843749250293946 113.05443466161269,42.51824484801974 111.224240097882,41.29606794136716 105.34059448696168,35.78705947268685 101.2380106998062,32.40918360002895 99.77631168581917,29.786723604347046 96.60110836552093,27.44677686346947 94.14447136722387,27.207254756135885 90.93241849195171,25.100688530096384 83.8573039368572,19.137202216731378 79.6564546697701,16.545450183528327 78.17018928580015,16.29364489120285 75.45560540268212,16.76654751337495 72.21284456493109,11.18383993474591 66.70383609625036,6.467096898015957 65.21142911978534,5.975769498356897 64.84907516253676,5.134371326440285 59.751553391071276,3.2857519852217703 55.845500563779076,1.1054866492335418 53.39500515797798,0 53.66523522779085,2.8435573255285282 45.810138425737456,2.8681236955114375 42.72705899287491,1.6090972338844938 38.21298850850505,1.8056281937482055 36.628457644603465,5.551999616150618 33.61907732169051,6.65748626538416 26.61766187654475,6.5776455629394865 19.91104287119477,8.420123311662056 17.135043063119898,8.825468416380934 13.228990235827702,9.70371614327191 10.889043494950124,9.27994626106563 2.3767962958523765,13.050884053451389 0.6510088045492813,16.281361706211396 1.744212268790932,18.97752081184203 0,22.472086941918967Z"/>
  </g>
</svg>