<?xml version="1.0" encoding="UTF-8" standalone="no"?>
<svg viewBox="0 0 256 248.3599632690546" xmlns="http://www.w3.org/2000/svg">
  <style>
    g.zone {
      fill: lightgray;
      stroke-width: 2;
      stroke-linecap: square;
      stroke-linejoin: bevel;
      stroke-miterlimit: 3;
      stroke-opacity: 0.8;
      stroke: black;
      fill-opacity: 0.3;
    }
  </style>
  <g class="zone" id="zone">
    <path d="M0,247.30211202938483 0.19589837771679908,247.4588307315584 1.067646158555198,247.51760024487325 2.1646770737681593,247.71349862258936 3.927762473217263,247.54698500153032 5.142332415059887,248.06611570247972 6.072849709213116,247.89960208142068 8.09060299969385,248.04652586470812 9.51086623813873,248.3109886746252 12.380777471686251,248.3599632690546 13.889194980103726,246.97887970615292 14.7217630853996,246.07774716865677 15.71104989286766,245.49984695439252 16.92561983471098,245.42148760330608 20.37343128252205,246.82216100397935 22.3226201408018,246.7829813284361 23.135598408325368,247.03764921946774 24.555861646770943,246.84175084175095 25.07499234771966,247.23354759718384 26.26997245179067,247.40985613712905 27.582491582491347,247.92898683807775 29.77655341291727,248.34037343128296 31.089072543617945,247.46862565044387 32.65625956535025,246.60667278849093 33.322314049586396,245.6565656565661 34.87970615243324,245.47046219773475 35.467401285582945,245.93082338536934 36.69176614631172,246.048362411999 37.84756657483951,245.64677073767993 38.787878787878896,245.71533516988092 41.403122130394785,244.93174165901442 41.78512396694223,244.05019895928987 45.85001530456076,243.38414447505372 47.73063973063953,242.45362718089982 47.916743189470175,242.15977961432495 49.190082644628326,241.28803183348654 49.50352004897479,240.50443832262005 50.6985001530458,239.24089378634875 51.795531068258065,236.39057239057283 54.22467095194332,235.39149066421794 57.780226507499286,236.43954698500153 65.35169880624441,235.99877563513925 75.60697887970643,237.5953474135293 84.24609733700606,232.79583715947365 97.37128864401559,222.1389654116926 103.14049586776841,218.2993572084479 114.80624426078984,212.29507193143579 120.79093970003035,211.69758187939993 126.30547903275153,208.70033670033658 142.51606978879698,197.5047444138352 151.9485766758493,187.60208142026357 152.21303948576707,185.99571472298734 157.25742271196822,182.6066727884911 160.14692378328735,180.98071625344397 165.19130700948918,178.46342209978613 168.63911845730024,173.4386287113559 169.78512396694188,170.79400061218226 170.0887664524029,167.32659932659956 170.40220385674934,166.86623813896568 170.47076828895032,166.6017753290479 171.11723293541488,166.21977349250116 171.44046525864678,165.46556473829241 172.0477502295681,163.06580961126423 172.97826752372202,162.01775329048064 173.38965411692652,161.31251913070128 174.28099173553724,160.36241199877574 175.8579736761557,159.1772268135909 176.32812978267503,158.6972757881847 177.99326599326608,157.46311600857047 180.72604836241234,154.24058769513326 180.66727884909682,153.8194061830426 181.09825528007363,153.09458218549162 180.89256198347138,152.42852770125478 181.58800122436458,151.43924089378672 182.05815733088463,151.06703397612472 181.70554025099494,150.78298132843602 182.00918273645524,149.92102846648308 182.36179981634564,149.4410774410776 182.4597490052037,149.00030609121532 182.90052035506596,148.60850933578243 183.68411386593175,148.49097030915206 183.93878175696338,148.11876339149077 185.1337618610344,145.51331496786034 185.53535353535347,145.31741659014423 186.3973063973064,143.59351086623835 186.14263850627478,143.16253443526153 186.58340985613705,142.11447811447795 187.23966942148772,140.79216406489113 188.00367309458193,139.53841444750526 188.28772574227133,138.30425466789103 189.60024487297198,136.27670645852484 189.5120906029994,135.65962656871739 188.8166513621062,135.73798591980452 188.19957147229871,135.6988062442606 188.2093663911849,135.3070094888277 188.5521885521884,134.94459749005188 189.07131925313712,134.58218549127673 189.14967860422425,133.92592592592604 188.65013774104716,132.91704928068566 188.77747168656296,132.07468625650435 188.405264768901,132.05509641873272 187.3572084481174,132.8876645240279 187.02418120599933,132.34894398530759 186.54423018059381,132.18243036424855 185.73125191307025,132.84848484848467 185.5451484542396,132.20202020202015 185.9173553719009,131.26170798898076 185.45699418426702,130.63483318028784 184.98683807774697,130.67401285583108 183.4784205693295,130.5368839914298 183.05723905723883,130.66421793694562 182.94949494949464,130.48790939700044 182.48913376186076,130.9286807468627 182.07774716865623,131.02662993572076 182.09733700642784,130.77196204468913 181.8426691153962,130.81114172023305 181.59779614325075,130.76216712580367 181.72513008876655,130.22344658708334 180.98071625344326,130.4291398836856 180.67707376798296,130.63483318028784 180.44199571472294,131.0168350168353 179.93265993265967,131.31068258341014 179.52127333945518,131.3596571778388 179.63881236608484,131.1245791245795 179.62901744719937,130.83073155800466 179.24701561065194,130.7523722069175 178.72788490970322,130.72298745026043 177.5133149678606,131.22252831343755 177.11172329354153,131.0560146923785 176.77869605142348,131.02662993572076 176.61218243036444,130.84052647689012 176.8178757269667,130.74257728803207 176.7689011325373,130.39975512702784 176.28895010713183,130.3018059381698 176.49464340373407,130.09611264156752 177.04315886134054,130.11570247933912 177.69941842669124,130.01775329048039 177.85613712886413,129.8610345883075 177.7973676155493,129.7043158861339 178.28711355984095,128.9892868074684 178.76706458524643,128.94031221303973 179.0805019895929,129.00887664524 179.59963269054163,128.49954086317746 179.74655647382903,128.6660544842365 180.29507193143553,128.80318334863776 181.09825528007363,128.53872053872067 181.35292317110526,127.87266605448453 181.4116926844201,127.40250994796449 181.5390266299359,127.27517600244867 182.11692684419947,127.04009794918866 182.5381083562901,127.17722681359062 182.36179981634564,127.38292011019288 182.5185185185185,127.69635751453934 182.72421181512078,127.59840832568129 182.86134067952273,127.34374043464966 183.03764921946723,127.27517600244867 183.16498316498306,127.39271502907904 182.9788797061524,127.50045913682254 183.0866238138966,127.57881848790969 183.4980104071011,127.59840832568129 183.958371594735,127.48086929905094 184.31098867462538,127.28497092133483 184.48729721456988,127.08907254361803 184.70278543005827,127.12825221916125 184.82032445668796,127.3143556779919 185.04560759106252,127.24579124579161 185.2415059687786,126.86378940924416 185.5647382920112,126.48178757269672 185.6528925619838,126.20752984389348 185.92715029078636,126.31527395163768 186.22099785736123,125.70798898071638 186.86746250382643,125.44352617079929 187.15151515151513,125.43373125191313 188.01346801346807,124.80685644322021 188.76767676767682,124.53259871441698 188.88521579430648,124.18977655341274 189.04193449648005,124.0036730945821 189.71778389960235,123.93510866238111 190.02142638506265,123.79797979797985 189.91368227731846,123.46495255586177 190.36424854606688,123.27884909703113 191.03030303030303,122.86746250382592 191.06948270584624,122.5246403428224 190.95194367921658,122.30915212733399 191.3633302724211,122.07407407407396 191.1870217324766,121.79002142638527 191.58861340679496,121.51576369758202 191.7159473523108,121.27089072543654 192.02938475665724,120.99663299663331 191.68656259565373,120.77134986225875 191.72574227119694,120.35016835016808 191.51025405570851,120.14447505356583 191.11845730027562,120.33057851239647 190.14876033057848,120.23262932353842 187.93510866238165,119.7134986225897 187.19069482705837,119.64493419038871 187.43556779920453,119.47842056932969 188.1212121212123,119.5176002448729 188.98316498316524,119.63513927150326 189.48270584634233,119.84083256810551 189.9430670339762,119.75267829813292 190.2075298438933,119.24334251606966 190.5993265993269,119.46862565044422 191.26538108356306,119.33149678604225 191.26538108356306,119.5176002448729 191.50045913682305,119.63513927150326 191.72574227119694,119.6253443526171 191.8824609733698,119.47842056932969 191.52984389348015,119.05723905723902 191.85307621671274,118.89072543617998 192.5191307009489,119.28252219161288 192.71502907866568,119.02785430058195 193.0382614018976,118.92011019283774 193.13621059075635,118.80257116620739 193.65534129170507,118.68503213957773 193.52800734618927,118.56749311294806 193.45944291398828,118.2540557086009 193.70431588613445,117.7741046831954 193.61616161616186,117.35292317110473 193.1264156718702,117.26476890113284 192.4505662687479,117.37251300887705 192.24487297214566,117.30394857667606 192.2154882154886,117.01010101010121 191.93143556779918,117.01010101010121 191.39271502907886,116.56932966023894 191.76492194674015,116.5105601469241 192.60728497092148,116.68686868686859 193.4986225895315,116.63789409243992 193.50841750841764,116.47138047138088 193.75329048056312,116.30486685032115 193.62595653504732,115.8151209060302 194.02754820936636,115.34496479951017 194.09611264156734,115.08050198959307 194.38016528925604,114.71808999081723 194.24303642485478,114.55157636975821 194.36057545148444,114.13039485766754 194.68380777471705,113.90511172329367 194.40955004591382,113.90511172329367 195.01683501683513,112.94520967248268 194.71319253137412,112.84726048362393 195.06580961126448,112.62197734925006 194.86011631466155,112.15182124273072 194.38016528925604,112.22038567493101 194.20385674931154,112.01469237832875 194.89929599020547,111.8285889194981 195.1539638812364,111.33884297520646 194.98745026017735,110.57483930211227 194.26262626262638,110.32996632996608 193.978573614937,110.01652892561962 193.1949801040712,110.13406795224999 192.8031833486376,110.66299357208486 192.37220691766146,110.81971227425774 191.28497092133466,111.97551270278554 190.67768595041335,112.19100091827394 190.31527395163752,112.91582491582491 189.52188552188557,113.89531680440751 189.04193449648005,113.86593204775045 189.4925007652278,113.15090296908494 189.3161922252833,112.94520967248268 189.75696357514556,112.39669421487619 190.1879400061217,111.329048056321 190.5797367615553,110.87848178757257 190.87358432813014,110.05570860116354 189.8842975206614,110.09488827670677 190.96173859810204,109.74227119681639 190.795224977043,109.08601163146639 192.01958983777178,107.07805325987182 191.30456075910627,106.95071931435601 192.39179675543306,105.383532292623 191.92164064891372,104.0122436486075 192.08815426997276,103.71839608203264 192.88154269972472,103.91429445974875 193.41046831955958,103.532292623202 194.55647382920122,103.06213651668196 195.82001836547323,102.08264462809936 197.1325374961739,101.47535965717805 197.4851545760636,100.77012549739798 198.08264462809944,100.51545760636705 198.53321089684718,99.87878787878797 199.15029078665464,99.52617079889829 199.43434343434333,99.08539944903602 200.03183348637918,98.57606366697276 201.37373737373764,97.92959902050822 201.86348331802859,97.35169880624399 202.65687174778054,96.59749005203524 202.30425466789086,96.39179675543299 202.82338536884026,96.0195898377717 203.5580042852774,96.05876951331491 204.26323844505677,95.4514845423936 204.1261095806548,95.11845730027554 203.21518212427318,94.87358432813006 201.2464034282218,93.83532292623192 199.2678298132843,93.55127027854323 197.83777165595328,94.24670951943713 196.99540863177265,94.46219773492486 196.03550658096094,94.13896541169294 194.1940618304254,93.2966023875116 193.6063666972757,93.15947352310963 193.50841750841764,92.97337006427898 195.9375573921029,93.45332108968448 196.97581879400033,93.95286195286229 197.68105295378038,93.44352617079903 198.92500765228007,92.91460055096415 200.1199877563511,93.04193449647997 201.27578818487888,93.05172941536613 202.56871747780863,93.23783287419677 204.09672482399773,93.86470768288969 205.8891949801039,94.16835016835 206.5846342209978,93.85491276400354 207.66207529843916,92.83624119987772 207.76002448729722,92.1212121212122 207.6326905417814,91.70982552800768 207.09397000306106,91.48454239363312 206.3005815733091,91.51392715029088 205.45821854912776,91.09274563820021 205.3014998469542,90.75971839608215 206.13406795225006,91.07315580042861 207.10376492194652,91.053565962657 207.8285889194982,91.23966942148765 208.39669421487628,91.68044077134992 208.8766452402818,91.72941536577929 209.05295378022626,91.07315580042861 209.94429139883698,90.67156412610956 210.68870523415956,90.05448423630278 211.69758187939993,88.79093970003079 212.73584328129806,87.99755127027883 213.45087235996357,87.20416284052618 212.9219467401287,87.14539332721135 212.93174165901416,86.8515457606365 213.65656565656582,86.65564738292039 213.97979797979775,86.25405570860134 215.67431894704657,85.05907560453032 216.24242424242397,84.08937863483318 215.4686256504436,83.81512090602993 215.32170186715618,83.256810529538 214.39118457300296,83.00214263850637 213.33333333333323,82.35567799204183 212.75543311906966,81.72880318334892 213.71533516988066,81.7777777777776 215.24334251606976,82.4732170186715 216.78114478114497,82.5613712886441 217.5843281297824,81.82675237220697 217.02601775329046,80.31833486378949 218.8870523415976,81.06274869911208 218.78910315273956,80.48484848484853 219.99387817569672,79.37802265075011 220.3954698500151,77.16437098255258 221.68839914294486,76.79216406489128 222.9813284358739,74.54912764003669 224.10774410774394,73.59902050811115 224.41138659320495,71.93388429752079 223.5102540557088,71.35598408325654 221.83532292623227,70.04346495255588 220.199571472299,69.38720538720519 219.18089990817248,69.59289868380814 216.44811753902692,69.59289868380814 215.93878175696366,68.52525252525224 217.61371288644017,69.15212733394587 219.46495255586186,68.70156106519744 219.66085093357796,67.88858279767386 219.7392102846651,66.7719620446893 218.4756657483931,66.74257728803153 218.23079277624763,66.2920110192838 220.131007040098,66.15488215488253 220.65993265993288,67.52617079889804 220.67952249770448,68.79951025405549 222.68748086929907,68.57422711968162 224.01958983777203,69.29905111723329 224.19589837771653,69.886746250383 225.24395469850012,69.84756657483908 226.5172941536576,69.05417814508712 226.19406183042565,67.5555555555558 227.0168350168354,67.61432506887063 227.43801652892535,65.89041934496474 228.94643403734352,66.03734312825218 229.34802571166188,65.439853076217 230.2785430058158,65.04805632078342 230.53321089684744,64.56810529537792 230.22956841138642,63.461279461279496 230.64095500459163,63.138047138046886 232.18855218855234,63.95102540557115 232.74686256504427,63.206611570247865 234.43158861340694,62.17814508723589 234.19651056014692,61.639424548515564 233.68717477808366,61.0223446587081 235.15641261095791,60.826446280991995 235.69513314967892,60.561983471074214 235.84205693296636,59.690235690235816 236.4199571472299,58.9752066115703 237.50719314355672,59.20048974594416 237.5953474135293,58.63238445056607 237.0272421181512,58.338536883991225 239.6424854606671,57.006427915518934 239.22130394857643,56.32078359351119 236.2436486072847,56.28160391796727 234.23569023569013,55.84083256810499 234.04958677685948,54.99846954392436 235.6167737985918,55.370676461585646 236.988062442608,54.812366085093714 240.7101316192223,55.12580348944017 241.5622895622898,54.85154576063693 242.85521885521885,52.85338230792781 242.70829507193145,50.816039179675464 242.13039485766788,49.826752372206705 244.20691766146345,49.80716253443509 244.77502295684155,47.133149678604376 241.0137741046833,45.89898989899014 242.13039485766788,45.43862871135625 247.12580348943965,47.45638200183629 250.63238445056624,44.85093357820655 253.74716865625993,43.76369758187975 255.2849709213345,41.736149372512855 255.16743189470483,38.62136516681986 253.2966023875115,39.189470462197946 250.8380777471685,38.092439546984984 249.55494337312558,38.925007652280165 248.52647689011363,30.285889194979834 250.55402509947982,29.678604224058525 251.41597796143276,21.539026629935996 251.8665442301805,19.188246097337192 256,16.083256810529647 255.04989286807447,15.191919191918943 252.37588001224375,14.496479951025734 250.36792164064917,12.635445362717881 246.39118457300253,11.215182124273003 245.89164370982542,8.394245485154853 241.69941842669107,9.471686562595508 234.55892255892275,9.755739210284903 230.03367003367032,10.470768288950419 223.13804713804748,10.989898989899135 218.1328435873889,9.23660850933549 207.2800734618917,6.582185491276376 206.10468319559232,2.8209366391181487 203.46005509641864,1.1166207529845718 199.65962656871721,0.8717477808383988 194.32139577594123,3.0070400979494907 188.90480563207808,3.6241199877562593 187.6608509335784,2.45852464034301 185.6528925619838,2.419344964799789 182.16590143862882,1.4888276706458636 180.843587389042,1.0480563207835876 180.7554331190694,0.7835935108665004 180.85338230792746,0.06856443220098407 180.65748393021136,0 179.98163452708906,0.41138659320451254 180.15794306703424,0.45056626874773315 180.0599938781755,0.5387205387203275 179.4527089072542,0.50933578206326 179.69758187940036,0.8717477808383988 179.52127333945518,1.2831343740436072 179.1490664217939,1.6259565350471357 178.64952555861677,1.4986225895313208 178.4242424242422,1.7826752372207142 178.61034588307285,2.135292317110396 177.4447505356596,2.3605754514842623 177.69941842669124,1.9198041016219864 177.35659626568702,1.7337006427913404 176.77869605142348,1.8022650749923246 176.3575145393328,2.2626262626262106 176.1420263238444,2.7719620446894706 175.64248546066727,2.7131925313746397 174.95684113865954,3.212733394551747 174.62381389654146,2.8797061524336756 174.2026323844508,2.9286807468623532 174.0263238445056,2.517294153657841 173.3308846036117,2.664217936945266 173.21334557698205,3.095194367921389 171.84205693296585,3.3008876645243412 170.90174471992646,2.850321395775912 170.04958677685966,3.1441689623507627 169.97122742577324,3.7024793388427004 170.891949801041,3.5457606366698182 172.42975206611553,3.614325068870802 172.11631466176908,4.113865932047909 172.19467401285553,4.564432200795642 173.03703703703684,4.789715335170205 173.86960514233272,4.544842363024032 174.7021732476279,3.7906336088152948 175.25068870523438,4.93663911845763 176.11264156718732,5.201101928374717 177.20967248239958,4.809305172941815 177.80716253443543,5.494949494949568 178.26752372206934,5.7202326293234345 177.58187940006158,5.827976737067639 177.29782675237217,6.131619222528643 177.58187940006158,6.621365166819596 175.90694827058437,6.552800734618613 175.77961432506856,6.90541781450899 175.8971533516989,7.512702785430302 174.2222222222224,8.981940618304556 173.25252525252526,8.3844505662687 171.6069788797065,7.982858891949645 171.3914906642181,9.050505050504842 169.95163758800092,9.314967860422627 167.8653198653199,7.502907866544149 168.11998775635152,6.748699112335411 166.7976737067647,5.641873278236993 164.50566268748074,6.053259871441505 162.71319253137455,6.023875114784438 163.06580961126423,4.926844199571477 160.4603611876338,5.690847872666367 158.7364554637279,6.4156718702173405 160.91092745638224,6.591980410162529 163.5751453933275,7.258034894398672 165.04438322620175,8.883991429445807 164.84848484848496,10.86256504438332 166.59198041016245,10.999693908784593 167.8653198653199,11.79308233853655 168.67829813284345,13.536577900214043 169.4520967248238,14.075298438935068 169.15824915824896,14.93725130088801 173.23293541475365,15.211509029690554 172.08692990511202,15.67187021732444 169.7165595347416,16.288950107131903 169.29537802265094,16.55341291704899 168.46280991735506,17.670033670033565 170.62748699112322,18.414447505356843 171.8910315273952,18.727884909703302 169.863483318029,20.157943067033642 169.58922558922578,20.255892255892388 168.86440159167412,21.21579430670338 165.36761554943368,23.478420569329593 161.4202632384448,26.818487909397152 159.11845730027537,29.394551576369825 155.93510866238137,29.835322926232102 155.04377104377136,31.020508111416962 153.5745332108971,31.089072543617945 151.90939700030606,32.73461891643739 148.7848178757269,32.156718702173144 146.80624426078938,32.02938475665733 146.9825528007346,33.77288031833482 143.43679216406477,34.67401285583099 140.19467401285596,34.50749923477195 138.05938169574557,35.66329966329974 135.7183960820322,36.18243036424846 134.719314355678,36.701561065197176 134.40587695133152,36.15304560759139 135.46372819100057,35.722069176614575 135.29721456994153,34.967860422405835 134.42546678910315,34.67401285583099 132.70156106519727,35.134374043464874 131.9081726354453,35.82981328435878 130.037343128252,36.280379553106506 129.0970309152126,37.06397306397301 128.74441383532294,38.033670033670155 130.72298745026043,38.3079277624734 132.82889501071307,37.857361493724966 134.719314355678,38.43526170798921 137.7655341291707,40.40404040404057 138.50994796449328,43.44046525864713 139.097643097643,44.10651974288327 140.6256504438321,44.61585552494653 140.33180287725722,45.26232017141106 142.26140189776535,46.800122436486305 143.13314967860447,46.26140189776528 145.7385981022342,45.77165595347432 148.5007652280382,45.00765228037943 151.06703397612472,44.41995714722973 152.8790939700032,44.56688093051716 152.21303948576707,46.09488827670624 151.4196510560144,47.201714110805355 149.97979797979792,46.947046219773725 148.40281603917947,47.68166513621085 146.57116620753007,47.789409243955056 142.80991735537185,47.8677685950415 140.72359963269082,46.73155800428532 137.91245791245814,45.68350168350173 134.6997245179064,46.31037649219465 132.23140495867793,47.113559840832764 129.9295990205078,50.14998469543932 130.41934496479945,52.76522803795521 130.7131925313743,53.881848790939785 129.3614937251304,54.547903275175926 126.08019589837767,56.55586164677051 122.240587695133,59.572696663605456 122.09366391184557,60.70890725436164 121.79981634527073,61.717783899602004 118.68503213957773,66.27242118151219 116.02081420263245,70.37649219467394 116.52035506580957,72.40404040404013 114.08142026323816,76.92929292929325 112.25956535047423,81.6014692378331 110.80991735537158,82.55157636975794 110.68258340985577,84.05999387817542 108.85093357820638,86.00918273645516 108.02816039179666,88.35996326905396 108.85093357820638,88.48729721456978 109.16437098255284,89.26109580655013 106.14753596571789,91.15151515151506 104.39424548515424,93.26721763085384 99.50658096112669,100.90725436179996 98.03734312825243,103.45393327211487 96.5876951331498,105.30517294153655 93.62962962962968,108.42975206611571 93.23783287419677,109.94796449341933 94.8637894092439,111.14294459749036 93.7961432506887,112.27915518824584 92.17018671564158,112.41628405264781 92.52280379553126,113.53290480563238 91.22007958371603,114.41444750535693 89.9859198041018,114.2479338842979 90.17202326293244,114.9433731251911 89.0064279155185,115.64860728497116 86.99846954392392,117.21579430670347 87.41965105601459,119.37067646158548 87.18457300275456,120.80073461891651 83.256810529538,122.23079277624754 84.10896847260479,123.42577288031855 82.88460361187602,126.7266605448422 79.466176920722,128.62687480869326 78.7707376798288,130.22344658708334 77.23293541475356,132.17263544536308 75.61677379859188,134.55280073461896 74.15733088460378,137.98102234465912 74.9409243954696,145.13131313131288 78.04591368227713,145.70921334557713 77.67370676461584,146.50260177532908 76.25344352617095,146.53198653198686 80.1224364860727,149.98959289868407 81.689623507805,153.1631466176919 82.7768595041325,153.6920722375268 83.9326599326596,152.88888888888866 85.6075910621368,152.15426997245154 85.97000306091195,150.3520048974592 86.68503213957746,149.92102846648308 86.77318640955005,151.10621365166796 87.50780532598718,151.9485766758493 88.40893786348335,153.89776553412904 90.59320477502311,154.80869299051136 92.39546985001544,156.3856749311298 94.8637894092439,156.64034282216144 97.12641567187012,157.5610651974292 97.35169880624399,158.42301805938146 95.58861340679488,159.53963881236604 93.39455157636965,158.23691460055082 90.88705234159796,158.0410162228347 88.27180899908137,156.17998163452685 85.68595041322325,154.18181818181841 83.62901744719929,154.1426385062752 81.76798285889214,154.76951331496812 80.08325681052948,156.02326293235396 79.17232935414715,157.0027548209366 81.26844199571434,158.59932659932664 81.63085399449017,160.1958983777167 81.2096724823995,161.14600550964224 80.37710437710433,160.50933578206318 79.31925313743459,158.44260789715375 77.80104071013166,156.8656259565353 78.91766146311622,155.229874502602 78.12427303336356,153.0554025099484 76.66483011937547,151.71349862258995 72.4334251606979,149.88184879093987 70.06305479032748,149.49005203550698 67.44781144781159,151.1355984083257 61.463116008570374,154.19161310070388 57.03581267217601,157.15947352311017 52.17753290480551,160.871747780839 49.01377410468314,163.97673706764655 47.92653810835633,167.24823997551312 48.56320783593471,168.52157943067058 45.820630547903,174.92745638200176 46.41812059993886,176.90602999693928 48.592592592592474,179.1686562595655 48.768901132537664,180.1481481481481 51.03152739516387,181.54882154882137 53.92102846648301,181.05907560453042 56.29139883685342,181.95041322314043 56.50688705234183,181.9112335475972 58.994796449341905,182.33241505968786 63.36333027242145,183.370676461586 68.18243036424872,184.0465258647076 76.0477502295687,180.79461279461262 76.75298438934807,181.58800122436529 74.31404958677666,182.98867462503856 70.75849403122139,185.58432812978285 71.75757575757561,185.88797061524315 71.87511478420596,186.32874196510542 68.14325068870549,186.97520661157066 64.75420875420856,186.98500153045612 59.3670033670032,186.19161310070413 59.39638812366096,188.11141720232612 61.43373125191331,189.2476277930823 63.382920110193055,190.0801958983775 66.26262626262604,190.32506887052367 68.26078971533516,189.48270584634233 70.87603305785105,188.63054790327556 73.6088154269973,186.8968472604835 75.91062136516673,186.27976737067675 77.47780838689904,186.181818181818 76.41995714723,187.1808999081729 74.70584634221026,187.31802877257417 71.92408937863463,189.62962962962976 75.81267217630868,190.83440465258693 77.99693908784845,191.1870217324766 75.97918579736772,192.33302724211825 73.20722375267825,191.11845730027562 70.6703397612488,190.7756351392714 69.14233241505971,191.94123048668536 67.68288950107161,192.52892561983504 65.08723599632664,192.83256810529537 62.94214876033078,191.68656259565373 58.44628099173543,190.5993265993269 56.124885215794386,191.6473829201105 56.78114478114438,196.47627793082322 59.29843893480221,198.46464646464688 59.739210284664495,200.6587082950721 63.627793082338535,202.62748699112348 65.36149372512988,204.79216406489164 69.85736149372522,205.83042546678908 74.22589531680407,206.68258340985656 76.89011325374933,205.77165595347424 79.36822773186395,205.801040710132 80.96479951025402,207.35843281297815 79.6424854606672,207.2996632996633 77.63452708907262,207.46617692072235 75.91062136516673,208.41628405264788 71.02295684113848,208.00489745944338 63.941230486684994,206.5650443832262 59.54331190694839,203.89103152739548 57.026017753290546,201.60881542699764 55.25313743495529,198.69972451790622 50.94337312519128,197.92592592592587 46.447505356595926,197.49494949494974 42.04958677685932,197.35782063054776 37.25007652280365,198.9152127333946 34.654423018059376,198.8368533823082 34.154882154882266,196.98561371288648 37.39700030609108,194.3899602081422 36.46648301193716,191.1870217324766 34.732782369145816,189.93327211509077 31.696357514539258,191.01071319253143 30.853994490357927,192.58769513314988 28.846036118763344,193.59657177839026 29.374961738598216,195.34006734006775 28.297520661156863,196.40771349862294 26.955616773798425,198.47444138353234 25.192531374349322,201.95163758800118 22.30303030303019,203.3621059075606 20.68686868686851,206.77073767982844 21.294153657789824,209.41536577900212 20.677073767983053,210.49280685644345 18.238138965411654,215.61554943373173 16.35751453933289,217.89776553412955 13.272115090296957,221.8549127640039 10.745026017752963,223.0303030303033 8.678298132843551,227.5163758800125 7.0915212733396364,228.48607284970964 3.6926844199572435,234.55892255892275 4.084481175390145,236.67462503826152 5.465564738291804,240.43587389041977 3.614325068870106,242.8943985307621 2.194061830425227,245.45087235996314 1.067646158555198,247.06703397612483 0,247.30211202938483Z"/>
  </g>
</svg>