<?xml version="1.0" encoding="UTF-8" standalone="no"?>
<svg viewBox="0 0 256 67.04152354450207" xmlns="http://www.w3.org/2000/svg">
  <style>
    g.zone {
      fill: lightgray;
      stroke-width: 2;
      stroke-linecap: square;
      stroke-linejoin: bevel;
      stroke-miterlimit: 3;
      stroke-opacity: 0.8;
      stroke: black;
      fill-opacity: 0.3;
    }
  </style>
  <g class="zone" id="zone">
    <path d="M0,14.525848949954936 1.7809469976945698,15.605548067307327 8.604200182615983,15.583286229836185 9.88425583720945,16.529414322362513 4.485760250445907,16.863341884430444 4.630462194008729,18.132266620287943 7.825035871125202,22.996478107744064 7.76938127744695,24.053915387626102 12.433236227661997,27.30414365842004 12.021392234445464,28.684377581634042 13.99156485064514,29.752945780251256 16.184355841557824,28.795686768990546 18.16565937649505,29.151876168529615 18.065481107874515,31.667463802774265 19.557024218443438,32.92525761989659 22.707074220617628,33.938171224836346 24.131831818773914,33.893647549894055 23.597547719466494,33.12561415713766 24.12070090003953,32.7249010826563 28.639853906691755,34.016087655985736 31.567285534152937,34.26096786816831 33.20353058828626,33.793469281273524 36.38697334666677,33.76007652506641 38.52410974390121,37.28857776425082 43.25475020653047,37.53345797643417 47.55128483847127,39.51476151137061 48.7311622244442,39.39232140527893 53.873646680289994,41.16213748423911 55.58780816557193,41.26231575285886 56.923518413843645,41.78546893343189 57.25744597591158,42.65368059480883 59.795295447628156,43.455106743771545 62.099395625897344,42.94308448193448 63.81355711117928,42.04148006435122 63.02326188095095,41.551719639984505 65.70581329623036,39.53702334884175 67.29753467541981,36.03078394712849 65.70581329623036,32.513413626680055 67.08604721944435,32.034784121049306 64.31444845428038,30.342884473238513 64.79307795991113,28.550806556807185 66.2289664768034,27.337536414627145 69.92443149702096,25.935040653942 72.13948432540559,25.589982173138104 75.61233097091174,23.864689769120996 77.02595765033206,23.653202313144746 79.96452019653078,24.39897386842921 81.09987390756143,22.55124135832042 82.11278751250119,22.51784860211331 82.62480977433826,21.861124396713418 84.30557850341387,21.081960085221056 87.46675942432245,21.07082916648588 89.44806295925967,20.73690160441795 90.86168963867999,18.09887386408162 91.70763946258499,17.965302839253976 91.38484281925302,16.039653897995795 90.63907126396856,15.015609374320864 90.41645288925555,13.579720857428608 90.7392495325891,12.433236227661997 84.75081525283672,10.719074742380064 83.05891560502673,8.648723857559059 80.67689899560894,8.971520500891813 79.45249793469213,8.292534458019986 78.47297708596028,6.199921735727839 75.91286577677334,4.89760424366323 74.58828644723602,2.749336927692831 72.58472107483001,1.4136266794211128 71.95025870690048,1.1576155485025776 70.29175181529679,1.858863428844755 68.55532849254293,2.9719553024050476 67.39771294404035,3.2390973520587583 62.077133788425414,3.3949302143575473 60.63011435279719,4.652724031479871 61.43154050176149,5.3651028305580155 60.34071046567155,6.945693291013093 60.9306491586588,7.212835340667595 60.719161702683344,8.069916083308561 57.48006435062459,11.108656898126245 54.26322883603618,11.776512022262104 53.47293360580943,12.51115265881139 51.00186964650548,13.390495238923501 49.20979173007495,13.357102482717181 47.584677594677586,14.648289056045824 45.13587547284716,15.20483499282597 43.80016522457544,15.17144223661965 42.60915691986654,14.703943649724076 39.49249967389868,15.260489586504223 38.334884125396094,16.496021566155402 34.53924083655799,17.341971390060404 33.6487673377107,18.299230401321907 31.53389277794662,19.056132875342335 32.0013913648414,21.683029696943485 32.60246097656462,22.206182877516525 32.27966433323108,22.829514326710097 34.327753380580944,24.61046132440546 34.09400408713355,27.11491803991493 32.95865037610291,27.89408235140729 34.21644419322602,29.062828818644256 35.09578677333734,29.01830514370197 34.9956085047168,29.541458324275006 36.04191486586288,30.365146310709655 35.20709596069384,32.335318926910126 33.92704030610037,31.9234749336928 34.33888429931691,31.333536240706334 30.687942954041617,28.96265055002451 31.055263272315866,25.30057828601246 28.22800991347364,20.61446149832627 28.550806556807185,19.991130049132696 25.21153093612789,16.162094004087475 24.621592243140633,14.637158137310648 23.608678638200878,13.980433931910756 23.252489238662598,11.219966085481959 20.43636679855634,8.414974564111667 20.425235879820374,5.1758772120529075 18.232444888907686,3.0610026522896177 15.850428279489895,2.593504065394042 15.9617374668464,2.192790990912685 10.963954954563423,0.7569024740212204 8.726640288708454,2.3597547719466494 6.80099134744948,2.181660072177509 5.899386929866228,2.9608243836690806 4.463498412973973,3.4617157267709753 4.1073090134356915,4.040523501022264 4.240880038262547,5.44301926170741 0.7457715552844627,8.871342232271276 0.7346406365484959,11.631810078699282 0.033392756206318416,12.077046828122924 0,14.525848949954936Z"/>
    <path d="M88.72455324144556,45.43641027870798 89.06961172224945,45.926170703074696 90.42758380799152,45.903908865603555 91.1288316883337,46.17105091525727 91.17335536327599,46.81664420192198 94.84655854602322,47.51789208226495 101.7588590808292,46.71646593330144 104.22992304013155,45.99295621548813 105.12039653898043,45.3139701726163 106.45610678725214,45.67015957215537 106.1667029001265,46.88342971433541 106.43384494978021,47.35092830123099 106.87908169920465,47.29527370755273 108.37062480977357,44.824209748250375 111.28692551850037,46.78325144571566 112.67829036045033,47.451106569851525 114.3813209269963,47.25075003261045 115.27179442584517,46.39366928996948 117.17518152963221,46.85003695812909 117.42006174181556,48.508543849732774 116.69655202400145,49.44354102352313 117.87642940997438,49.92217052915389 118.32166615939882,49.36562459237374 119.24553241445243,49.09848254272003 121.33814513674457,49.888777772946774 124.42140962650612,49.532588373407705 125.15605026305461,49.22092264881092 126.59193877994687,49.02056611157063 128.43967129005566,47.951997912953416 129.3412757076389,47.65146310709181 129.67520326970683,46.58289490847459 130.7326405495889,44.94664985434205 131.17787729901332,43.84468889951773 132.13513631027482,40.66124614113722 133.42632288360426,38.7133353624071 133.4485847210746,38.20131310057003 134.53941475716297,37.93417105091553 134.58393843210524,37.70042175746814 133.5598939084311,35.94173659724392 132.30210009130798,35.38519066046378 131.77894691073496,34.071742249663195 132.04608896039025,33.771207443802375 132.73620592199646,33.915909387365204 133.53763207095918,34.65055002391449 133.73798860820025,35.18483412322349 134.35018913865787,35.25161963563692 134.72864037566808,35.63007087264713 134.57280751337086,36.019653028392526 135.60798295578095,37.18839949563028 135.5523283621027,38.43506239401743 135.11822253141426,39.09178659941811 134.42810556980803,40.98404278446918 133.94947606417728,41.51832688377819 133.73798860820025,42.07487282055754 133.82703595808482,42.70933518848708 134.22774903256698,42.84290621331394 134.42810556980803,43.933736249402294 133.5265011522248,44.63498412974526 133.08126440280034,45.55885038479966 131.89025609809147,46.93908430801366 131.57859037349388,47.85181964433288 131.79007782947093,48.48628201226163 131.23353189269156,49.16526805513345 128.9962172268366,50.76812035305888 128.45080220879163,51.02413148397821 128.9962172268366,49.855385016740456 129.48597765120172,49.36562459237374 128.97395538936468,49.27657724248917 127.18187747293413,50.62341840949606 127.50467411626609,51.05752424018453 127.28205574155466,52.18174703248 127.72729249097752,52.916387669029284 128.23931475281617,53.161267881212645 128.40627853384933,53.47293360580943 130.59906952476203,52.82734031914472 131.38936475498878,51.257880777425605 132.27983825383765,50.634549328232026 134.47262924475032,50.50097830340518 135.062567937736,49.888777772946774 136.38714726727332,49.855385016740456 137.83416670289998,50.957345971563996 139.48154267576928,51.58067742075757 141.71885734162424,50.54550197834746 143.16587677725087,49.57711204834999 145.5367624679343,49.1875298926046 145.8818209487366,51.48049915213782 148.75359798252111,53.42840993086715 153.45084568894248,52.4488890821345 156.6231575285886,49.68842123570649 163.96956389408305,45.99295621548813 165.92860559154835,41.84112352711015 166.45175877212137,39.55928518631289 168.96734640636603,36.36471150919642 169.99139093004015,34.472455324144555 169.7019870429145,33.515196312883845 165.6058089482148,32.168355145876156 164.35914604982764,30.92169224748901 163.5688508196009,31.67859472151023 161.9882603591458,32.48002087047295 158.89386495064988,34.70620461759274 157.71398756467696,35.93060567850795 151.91477890343126,39.50363059263464 150.94638897343378,38.51297882516682 149.3324057567724,38.23470585677635 146.09330840471364,38.7133353624071 144.75759815644193,37.344232357929066 145.59241706161094,33.83799295621581 144.01182660115745,33.470672637940766 142.28653419713956,31.622940127831978 142.36445062828815,29.77520761772319 141.0510022174884,29.452410974390435 138.36845080220897,28.02765337623415 137.07726422887953,27.827296838993075 135.74155398060782,27.916344188878437 132.9476933779735,28.86247228140397 131.28918648636983,29.630505674160368 131.5006739423453,31.723118396452517 127.09283012304955,32.52454454541523 126.8145571546583,32.869603026219124 125.21170485673287,33.2257924257582 123.10796121570475,31.01073959737437 118.88934301491415,28.317057263359793 117.27535979825274,28.47289012565779 115.80607852515259,29.274316274621295 115.42762728814238,29.719553024044938 114.77090308274248,30.95508500369612 114.77090308274248,32.5356754641512 113.41293099700042,33.515196312883845 108.78246880299169,34.66168094264966 106.79003434932007,34.8731683986267 105.16492021392271,30.554371929214764 103.4062350536985,27.404321927040574 99.87773381451409,24.6327231618766 97.29536066785522,21.738684290621737 94.29001260924386,21.28231662246213 92.82073133614529,24.688377755554853 90.67246402017489,26.95908517761693 90.32740553937099,28.98491238749565 91.95251967476835,30.721335710248727 91.67424670637867,32.05704595852045 92.16400713074539,32.6135918952998 92.64263663637614,35.77477281620995 93.61102656637203,39.43684508022121 89.14752815339806,44.37897299882673 88.72455324144556,45.43641027870798Z"/>
    <path d="M159.01630505674237,17.44214965868094 159.41701813122293,18.14339753902391 160.1961824427153,22.6736814644121 162.85647202052274,25.45641114831125 162.74516283316626,26.30236097221625 164.73759728683945,25.86825514152857 164.2144441062664,27.248489064742575 166.1400930475238,29.207530762207078 166.81907909039563,30.821513978869266 172.64054958911325,32.92525761989659 174.0764381060055,35.00673942345356 173.46423757554632,36.40923518413871 173.31953563198348,38.65768076872964 169.99139093004015,43.85581981825369 164.23670594373675,48.94264968042124 162.1107004652383,55.5544154093664 171.2825775033696,59.13857124222827 172.9299534762389,57.70268272533601 177.1040480020872,59.20535675464169 181.12230966563834,59.995651984869234 184.16105048045603,59.93999739119098 189.470498717335,58.092264881082194 191.68555154571962,56.65637636418994 192.69846515065936,54.55263272316262 194.16774642375793,53.65102830557857 193.70024783686316,52.78281664420243 193.8783425366323,52.025914170182 195.3253619722605,51.34692812731017 197.03952345754246,51.46936823340185 196.62767946432433,50.656811165703175 195.6815513717988,49.510326535936564 196.03774077133866,48.60872211835331 195.8039914778913,47.69598678203409 195.34762380973086,46.482716639854054 196.01547893386675,45.380755685030515 195.78172964041934,44.98004261054837 197.54041480064356,42.553502326188294 197.68511674420637,41.919039958259546 197.4736292882309,41.496065046307045 197.85208052524115,40.68350797860836 197.6405930692641,40.21600939171279 197.94112787512572,39.403452324014104 198.5978520805256,38.501847906430854 200.26748989086525,37.78946910735271 199.9113004913254,37.41101787034249 197.60720031305777,36.976912039654025 197.91886603765377,36.39810426540353 199.900169572591,36.843341014827175 202.37123353189335,36.10870037827789 204.41932257924321,34.951084829775304 205.83294925866355,35.36292882299263 206.0444367146406,35.97512935345024 205.6214618026881,37.13274490195282 202.438019044306,38.590895256316216 200.50123918431265,39.726248967346855 200.61254837166913,40.73916257228582 200.27862080960122,42.73159702595822 200.56802469672687,43.3549284751518 200.37879907822176,45.681290490891335 199.92243141006136,46.28236010261377 198.77594678029473,46.87229879560024 199.13213617983462,47.43997565111555 199.24344536718954,48.36384190616995 199.6664202791436,48.4974129309976 200.13391886603839,50.189312578808384 200.0226096786819,52.515674594547924 201.69224748902153,54.27435975477214 207.0016957259021,55.487629896952186 207.36901604417633,60.073568416018624 205.75503282751495,61.387016826819206 205.17622505326366,62.48897778164274 205.32092699682647,63.47962954911135 204.90908300360837,64.48141223531513 204.8089047349894,65.56111135266832 205.3097960780905,66.35140658289507 206.3783642767085,67.04152354450207 208.54889343014926,66.97473803208864 213.4019739988694,65.38301665289839 214.42601852254515,65.89503891473625 215.72833601460897,66.08426453324135 218.18826905517693,65.50545675899006 221.02665333275354,65.23831470933557 226.74794556285065,63.423974955433096 227.64954998043387,63.51302230531767 229.46388973433636,61.48719509543974 228.907343797557,60.863863646246166 230.62150528283894,59.238749510848805 236.131310056959,58.14791947476044 236.99952171833593,59.02726205487255 240.01600069568326,59.661724422801306 240.72837949476138,59.416844210617946 242.04182790556118,60.30731770946602 244.90247402060973,60.66350710900509 246.46080264359287,60.218270359581446 246.88377755554694,57.70268272533601 249.14335405887226,56.50054350189194 252.62733162311437,56.5561980955694 254.085481977477,54.89769120396572 255.55476325057714,54.87542936649458 256,53.02769685638579 255.465715900691,52.1038306013306 251.72572720553114,46.76098960824452 252.74977172920526,33.8046002000087 250.42340971346573,27.181703552328358 239.41493108396003,16.763163615809905 229.57519892169287,10.707943823644888 206.44514978912116,0 204.44158441671357,2.5044567155094715 196.9504761076579,3.4951084829780843 189.6152006608978,6.856645941128522 181.96825948954333,17.58685160224376 177.67172485760256,14.514718031218969 175.94643245358463,15.149180399147719 171.86138527762088,14.915431105700327 168.76698986912496,16.484890647419437 165.08265576764177,15.471977042480471 160.20731336145124,15.783642767077259 159.01630505674237,17.44214965868094Z"/>
  </g>
</svg>