<?xml version="1.0" encoding="UTF-8" standalone="no"?>
<svg viewBox="0 0 256 130.84105087863225" xmlns="http://www.w3.org/2000/svg">
  <style>
    g.zone {
      fill: lightgray;
      stroke-width: 2;
      stroke-linecap: square;
      stroke-linejoin: bevel;
      stroke-miterlimit: 3;
      stroke-opacity: 0.8;
      stroke: black;
      fill-opacity: 0.3;
    }
  </style>
  <g class="zone" id="zone">
    <path d="M0,75.6107672805906 0.8589963462824842,77.76143961424746 2.335197474709577,78.49317724256241 2.691521885019596,78.98312330673856 4.35224815449985,78.66497651181881 7.38100564213456,79.31399597345508 7.858225834513516,79.22491487087736 8.717222180796904,79.44761762732122 10.244326796411015,79.37762533243885 11.981408296671791,79.54306166579711 13.77575622001819,80.03300772997326 14.660204309894182,80.01391892227791 17.364452066710985,80.44659856336845 19.935078169661644,80.4402356274703 21.608530310938196,80.82201178137383 23.988268336937093,80.61839783262532 24.777272388337654,80.70747893520259 24.605473119080795,81.45194243531475 26.660701414261784,82.20913180722319 28.397782914522562,83.33537146123842 28.887728978698725,86.48502473094251 31.954664081723244,88.43208311585042 32.14555215867501,90.91362811622335 35.26975368478605,91.81716501379469 38.26669649292865,92.55526557800825 42.3135237243055,92.50436209082122 48.68282255859562,90.28369746228243 50.22265304600693,90.3218750776727 52.793279148956685,92.63162080878922 54.28856908507959,93.22973678323801 56.261079213580544,93.42062486018978 57.95998309845151,92.66979842417948 61.35142793229394,92.80978301394423 62.46494171451241,94.61049387318877 64.58379936867762,95.93398454005437 66.55630949717857,99.0645490020631 68.58608604876605,100.28623269455467 69.6359704720003,100.37531379713195 69.78231799766365,100.89707454080022 69.12057266423064,102.67869659234987 68.56699724107024,103.49951532324253 67.86707429224741,103.60132229761658 67.45348345885178,104.07217955409783 67.70800089478776,104.40305222081389 67.68891208709286,105.37658141326807 68.4206497154078,105.84743866974887 73.5619019213082,107.96629632391362 76.5079412422638,107.71814182387624 80.1348147043473,106.58553923396242 83.96530211517887,107.08184823403718 86.26232197449865,106.94822658017058 86.80953446176042,106.45191758009628 89.58377451345915,105.89834215693634 94.5405015783064,105.9556085800215 96.76116620684473,105.39567022096297 97.92558347625113,104.59394029776566 99.63085029701979,104.93117590038077 100.2544180150621,105.5165660030328 106.2483036313473,106.52190987497865 108.69803395222812,106.31193299033153 111.61862152959019,107.53997961872123 113.59749459398975,109.92608058061828 116.1553948251432,111.51681455521616 116.63897795342167,113.45751000422591 116.54989685084394,114.36104690179725 115.62727114557723,116.47354162006341 113.55931697859994,117.9433798125919 113.1839037605941,118.61148808192307 113.63567220938046,119.33686277433986 114.6537419531226,119.19687818457511 116.04086197897196,118.31243009469867 118.18517137673068,118.37605945368244 120.57127233862727,117.91792806899839 122.63286356970596,118.11517908184877 126.37426987796071,120.98486317202337 126.36154400616441,121.46844630030093 126.641513185693,121.91385181318867 131.01921308378726,124.05179827504834 134.29612507145845,124.70081773668416 134.82424875102532,125.5852658265606 135.21238784082746,127.72321228842026 137.4585042129593,129.76571471180404 138.9537941490813,129.88661049387343 139.246489200408,130.45291178883056 140.1882037133696,130.84105087863225 140.5063505082889,130.3765565580496 140.53816518778103,129.04034001938726 141.57532373921896,129.56846369895413 142.69520045733606,130.72651803246146 147.92553376581418,125.26711903164085 155.01384435662294,122.93192155693126 153.02860835632478,116.78532547908456 153.58854671538288,115.44274600452407 157.32359008773903,115.0736957224173 160.3396217035765,113.79474560684056 160.44779161384915,107.55906842641659 164.65369224268656,107.60360897770501 168.22966221758216,109.14980240101447 170.31034225635665,111.93676832450996 176.98506201376978,113.34297715805467 181.8590709119379,115.5254641712032 185.92498695101054,120.95304849253125 187.77023836154396,119.5659284666819 187.38209927174182,117.72067705614802 188.2029180026345,115.04824397882379 189.27825416946317,113.97290781199558 191.26349016976133,110.16787214475706 193.12783038798966,110.1296945293668 194.96035592672675,110.79780279869797 195.60937538836257,111.96222006810346 199.204434170954,112.56033604255225 202.10593294062113,111.75224318345678 203.52486764596262,111.87950190142433 207.69895359530702,110.6005517858476 215.33447667337754,109.32796460616947 219.1522382124128,117.77158054333549 219.63582134069037,125.65525812144297 222.48641662317053,125.05714214699417 227.2140779956753,125.14622324957145 235.288643650735,126.29155171128203 237.0448139586907,127.23326622424409 238.9091541769199,126.46335098053889 239.13185693336288,125.05714214699417 240.88802724131946,124.76444709566792 243.58591206223767,122.97646210822013 246.83100937041763,124.15996818532098 248.00178957572174,122.83011458255677 250.3115353068378,126.01158253175299 255.25553649988876,126.65423905749066 256,124.19178286481264 255.06464842293698,122.30835383888896 252.76762856361722,118.8469167101637 252.72308801232882,116.69624437650728 253.3530186662688,115.60818233788233 251.7559217557728,114.501031491562 251.7750105634677,113.82656028633222 251.38050853776787,111.75860611935494 250.36880172992343,111.13503840131263 250.51514925558678,109.98970993960205 246.95826808838518,110.61327765764436 246.3856038575299,110.3014937986232 243.87224417766487,103.95128377202843 250.08883255039393,99.86627892526043 248.91168940919124,99.3190664379991 250.95419183257502,97.37837098898935 252.64673278154737,95.48221609126847 252.36676360201878,95.29769095021531 252.37312653791648,94.5150498347129 251.81955111475702,93.98692615514646 250.74421494792836,93.3697213730023 250.08246961449532,92.18621529590146 249.1471180374323,92.0016901548483 247.11734148584483,92.35165162925972 247.02826038326802,93.03884870628626 243.16595829294343,93.07702632167651 240.58896925409508,89.28471652623475 244.17130216488925,86.63773519250402 248.4662838963044,85.8296423334081 247.40367360127294,84.06074615365522 248.16722590908,83.5835259612758 247.44185121666274,82.43819749956522 247.99542663982314,81.0383516019191 246.15653816518832,80.40842094797819 245.60932567792653,79.5176099222036 245.5456963189423,78.67133944771741 244.38127904953683,76.6861034474188 237.20388735615035,78.11140108865888 237.3565978177123,75.62985608828595 235.95675192006573,74.40817239579485 235.46680585588956,72.99560062635152 232.74346929137786,71.18216389531023 233.54519921457563,69.80776974125762 232.80709865036206,69.35600129247172 228.20669599582484,69.41326771555688 226.20237118783086,70.03683543359963 224.50346730296081,68.77061118981966 220.96567494345413,67.72072676658496 216.90612184028006,62.67491859915999 218.96771307135967,58.04270126513064 220.9402231998606,56.99281684189594 220.5393582382622,55.05212139288665 221.2456441229836,53.18778117465787 216.9761141351629,51.71158004623078 206.68088385156486,49.529093033082255 202.72950065866345,47.772922725126115 199.03263490169803,47.13662913528706 195.6284641960584,46.87574876345292 193.8468421445083,47.34024308403558 194.8140084010643,48.04652896875701 194.87127482414903,48.21196530211527 195.0557999652031,48.26923172520088 195.21487336266276,48.4728456739494 195.42485024730942,48.606467327815544 195.4439390550043,48.63828200730766 195.32940620883397,48.70191136629143 195.27213978574838,48.867347699649685 195.3357691447317,49.01369522531258 195.74935997812733,49.0709616483982 195.90207043968928,49.17913155867084 196.264757785897,49.30002734074023 196.39201650386545,49.40183431511471 196.0356920935554,49.675440558745606 196.0356920935554,49.75815872542473 196.15022493972575,49.8217880844085 196.07386970894524,49.99358735366491 195.92752218328278,50.076305520344036 195.87025576019715,50.17811249471852 196.2329431064049,50.248104789600895 196.6338080680042,50.445355802450806 196.51927522183297,50.5726145204188 196.50654935003578,50.68078443069144 196.875599632143,51.20254517435971 196.65925981159774,51.36161857181936 196.67198568339404,51.63522481545026 196.8692366962444,51.7624835334178 197.07921358089106,51.99791216165843 197.23192404245302,52.06154152064265 197.02831009370405,52.18243730271204 197.30191633733494,52.58330226431047 197.2255611065544,52.69783511048171 197.07285064499337,52.710560982278466 196.93922899112633,52.79964208485574 197.37827156811548,52.87599731563672 197.67096661944217,53.02234484129962 197.64551487584865,53.18141823875927 197.7791365297148,53.35321750801613 197.75368478612128,53.46775035418692 197.90639524768235,53.52501677727253 197.91912111947954,53.626823751647024 198.014565157955,53.665001367037284 197.56279670916953,53.8686153157858 197.23192404245302,53.92588173887142 197.12375413218038,54.05950339273756 196.3029354012877,54.326746700469855 195.82571520890784,54.415827803047584 195.55847190117555,54.60035294410074 195.45030199090291,54.568538264608634 195.22759923445906,54.67670817488172 195.02398528571098,54.68307111077987 194.90945243953973,54.816692764646014 194.65493500360375,54.92486267491865 193.8722938881018,54.94395148261401 192.77786891357823,55.09029900827691 192.68878781100142,55.33845350831429 192.14157532373963,55.94293241866169 191.7852509134296,56.006561777645466 191.58163696468063,56.09564288022274 191.4098376954238,56.108368752019494 191.2507642979641,55.97474709815335 191.09805383640307,55.93020654686448 190.71627768249954,55.9683841622552 190.51266373375057,56.076554072527834 190.32813859269743,55.955658290458445 190.09907290035585,55.885665995576076 189.9718141823874,55.618422687843335 189.89545895160688,55.57388213655492 189.9527253746925,55.34481644421244 189.86364427211475,55.27482414933052 189.86364427211475,55.02030671339453 189.9463624387939,54.97576616210612 189.9972659259809,54.89304799542699 189.9654512464897,54.867596251833035 189.63457857977318,54.65761936718636 189.47550518231265,54.40946486714898 189.32279472075157,54.30129495687635 188.45743543857049,54.14858449531484 188.126562771854,53.93224467476957 188.03111873337855,53.913155867074664 187.8402306564268,53.59500907215491 187.78932716923887,53.20686998235278 187.98657818208923,52.85690850794136 188.1520145154475,52.72964978997337 188.34926552829785,52.653294559192844 188.4447095667733,52.366962443765196 188.41289488728208,52.14425968732132 188.28563616931365,52.06154152064265 188.26654736161873,51.7688464693164 187.43936569482744,51.47615141799061 187.16575945119655,51.457062610295246 186.91124201526148,51.336166828225856 186.4149330151867,51.24708572564813 185.83590584843282,51.31071508463235 185.80409116894072,51.43797380259989 185.7468247458551,51.457062610295246 185.35232272015526,51.399796187209624 185.26324161757753,51.47615141799061 184.74784380980785,51.60341013595814 183.35436084805988,51.577958392364636 183.0998434121248,51.616136007754896 182.86441478388372,51.838838764198776 182.52717918126953,51.9151939949793 182.43809807869178,52.023363905251934 182.4190092709969,52.13789675142317 182.4953645017774,52.31605895657818 182.6989784505255,52.366962443765196 182.88350359157954,52.526035841224854 183.0553028608355,52.56421345661557 183.080754604429,52.64693162329469 183.26527974548216,52.80600502075435 183.45616782243394,53.44866154649201 183.3798125916534,53.60773494395166 183.1062063480225,53.696816046528944 182.97258469415635,53.81134889270018 182.97894763005496,53.8686153157858 183.0743916685304,53.92588173887142 182.775333681306,54.12949568761994 182.7498819377125,54.294932020978194 182.2344841299428,54.37765018765687 181.8654338478365,54.663982303084516 181.67454577088475,54.733974597966885 181.5472870529172,54.867596251833035 181.32458429647332,54.867596251833035 181.10824447592805,54.695796982576624 180.82191236049994,54.79124102105251 180.75828300151665,54.753063405662246 180.70101657843102,54.49854596972671 180.52921730917416,54.40946486714898 179.94382720652166,54.447642482539244 179.7593020654685,54.60035294410074 179.24390425769883,54.371287251758716 178.95120920637302,54.39037605945408 178.8621281037953,54.27584321328283 178.8875798473888,53.93860761066817 178.8175875525069,53.8686153157858 178.90666865508462,53.64591255934192 178.8175875525069,53.51865384137439 178.594884796063,53.38503218750779 178.23856038575298,53.36594337981288 177.9458653344272,53.08597420028339 177.83133248825595,53.05415952079173 177.78042900106894,52.914174931026984 177.82496955235735,52.78055327716084 177.6213556036093,52.551487584818815 171.83744687197077,53.696816046528944 171.44294484627093,53.5695573285614 171.0229910769767,53.84952650809044 170.7875624487365,53.76680834141131 170.7112072179551,53.67772723883404 170.4376009743242,53.55046852086604 169.75676683319625,53.582283200358155 169.53406407675328,53.50592796957718 169.3240871921057,53.52501677727253 169.18410260234097,53.47411329008552 169.10138443566186,53.37866925160964 168.90413342281238,53.35958044391428 168.6114383714857,53.39775805930454 168.35055799965198,53.35321750801613 167.95605597395218,53.48683916188227 167.23704421743352,53.50592796957718 166.8679939353263,53.315039892625414 166.8425421917328,53.06688539258848 166.96343797380263,52.86327144383996 167.29431064051914,52.621479879700736 167.71426440981247,52.46240648224108 167.83516019188232,52.290607212984675 167.91787835856144,51.98518628986167 168.22329928168446,51.93428280267466 168.45236497402604,51.737031789824286 168.90413342281238,51.539780776974375 169.13956205105256,51.34889270002261 169.36226480749644,50.8907613153381 169.34317599980153,50.528073969129935 169.42589416648065,50.34991176397493 169.80130738448557,50.127209007531505 169.8267591280791,50.05721671264913 169.6358710511273,49.93632093057974 169.2922725126136,49.76452166132288 169.02502920488132,49.71998111003402 168.80868938433605,49.2236721099597 168.82141525613326,49.077324584296804 168.91685929460868,48.96915467402417 169.2859095767159,48.727363109884934 169.66132279472083,48.56828971242528 169.62950811522873,48.26923172520088 169.73131508960276,48.05925484055376 169.68677453831435,47.93835905848437 169.48316058956536,47.772922725126115 169.65495985882222,47.53749409688594 169.591330499838,47.4229612507147 169.13956205105256,47.29570253274671 168.78960057664113,47.26388785325505 168.6750677304699,47.16844381477917 168.6114383714857,47.01573335321767 168.07695175602112,46.72303830189187 167.11614843536367,46.67849775060301 167.1034225635674,46.38580269927676 166.81072751224158,44.96050505803713 165.0672830760822,45.48226580170541 164.60915169139724,46.44943205826098 161.4785872293885,48.06561777645236 157.67991449804904,49.5163671612855 155.35107995923715,51.088012328188476 153.31494047175198,53.321402828524015 152.7804538562874,54.96304029030891 150.80158079188695,55.65660030323404 143.56055973951715,57.27278602142543 139.8191534312633,58.88897173961682 138.9156165336915,58.831705316531206 138.17751596947795,58.411751547237415 136.93674346929103,58.39266273954251 135.51144582805185,57.730917406109484 134.7733452638383,57.915442547163096 134.30885094325566,57.40004473939343 136.97492108468174,54.1676733030102 135.16784728953814,44.75689110928862 131.55369969925184,40.39191708299156 119.81408296671883,32.7118534536326 118.89145726145212,29.28859394029806 115.98995849178495,25.24176670892076 112.01948649118863,21.684885541719627 109.5379414908157,19.368776874704956 105.79017224666325,9.009917232123154 107.64178659309526,5.682101757264044 100.47712077150598,3.480525936420611 95.4504014117759,3.3023637312656016 89.01747321850246,0.39450202570028137 86.89861556433725,1.2344095642883126 80.19844406333063,0 76.94062088335434,5.4657619367187715 77.04879079362698,9.474411552705357 74.27455074192825,12.827678771157974 76.15797976785238,20.539557080009043 73.07831879303065,24.446399721621596 74.21092138294402,25.78261626028394 73.32647329306803,28.754107324833033 75.20990231899125,33.068177863942616 63.70571421469933,37.78311336465109 59.42982129098,36.92411701836815 49.484552481793386,39.41202495463923 48.237417045708774,38.47031044167717 46.95846693013205,38.76936842890202 38.107623095468995,38.4321328262869 33.303606492182794,42.10354683965928 20.654089926179378,43.242512365471256 18.73248328486544,44.89051276315476 11.943230681281078,46.10583351974771 13.413068873809568,47.372057763527685 14.087540079038892,49.077324584296804 13.56577933537152,49.42092312280962 13.705763925135363,50.458081674247566 12.776775283970958,51.26617453334348 12.57952427112059,51.83247582830017 8.481793552555823,53.499565033679026 7.60370839857753,54.48582009792996 7.1137623344013665,56.72557353416365 7.4255461934229725,57.164616111152796 6.8783337061611896,59.06713394477183 6.4838316804613605,63.68662540700442 5.7839087316376245,64.17020853528199 5.357592026445684,64.90830909949553 4.0850048467675615,67.35803942037634 2.92058757736117,70.14500534387227 1.9406954490088435,70.72403251062572 0.5026719359724652,73.14194815201488 0.08271816667912772,74.50997937016888 0,75.6107672805906Z"/>
  </g>
</svg>