<?xml version="1.0" encoding="UTF-8" standalone="no"?>
<svg viewBox="0 0 256 161.0801227412202" xmlns="http://www.w3.org/2000/svg">
  <style>
    g.zone {
      fill: lightgray;
      stroke-width: 2;
      stroke-linecap: square;
      stroke-linejoin: bevel;
      stroke-miterlimit: 3;
      stroke-opacity: 0.8;
      stroke: black;
      fill-opacity: 0.3;
    }
  </style>
  <g class="zone" id="zone">
    <path d="M0,14.390726218888677 7.571769519263728,27.995908625980064 17.31469485168879,36.66962154790255 41.557449710195506,52.325946130241775 61.054210705762294,71.76815547221285 72.54278895329038,91.71224002727517 75.72860552335548,106.09205591544486 80.69280600068289,115.07125809751061 95.36720081827609,127.34538015683599 113.69655642686709,147.9768155472208 114.79849982952585,155.4394817592908 122.83941356972385,160.02182066143817 131.12035458574886,153.20286396181322 135.77906580293222,154.70848960109078 147.68223661779732,146.13296965564226 168.47732696897395,150.6389362427544 187.766791680873,161.0801227412202 203.69587453119698,152.52642345721046 216.34094783498108,152.14456188203195 224.24002727582683,148.23866348448658 231.4517558813508,141.00511421752464 241.46743948175907,139.45584725536958 247.7408796454145,140.7323559495391 256,139.91408114558408 255.84725536992798,136.139106716672 245.0460279577232,131.51312649164635 206.9689737470171,101.84793726559771 198.6225707466766,98.55301738833964 199.25536992840108,97.02557108762333 201.27378111149042,96.20729628366831 200.00818274803987,87.22809410160178 199.15717695192635,81.8711217183769 185.8138424821007,76.37231503579896 182.79168087282738,74.01568360040865 185.11558131605918,64.29457892942389 169.7211046709865,57.34469826116567 165.93521991135464,53.0569382884418 159.69451073985692,47.61268325946114 155.25400613706105,42.47391749062374 140.72144561882013,44.09955676781403 135.85543811796902,42.33208319127148 130.79304466416684,38.99352199113513 126.35254006137096,38.15342652574136 123.5594953972049,32.27275826798494 129.01466075690453,29.6433685646091 131.17490623934611,23.05352881009218 118.30071599045321,0.578247528128011 109.4306171155812,0 88.4609614728946,1.3528810092055379 76.7323559495395,10.41936583702706 66.00750085236994,12.19774974428859 59.25400613706202,11.314012956017319 50.73303784521,8.531878622570233 15.601772928741958,4.6478008864643865 6.207978179338427,6.077054210705934 0.5018752130935523,9.76474599386304 0,14.390726218888677Z"/>
  </g>
</svg>