<?xml version="1.0" encoding="UTF-8" standalone="no"?>
<svg viewBox="0 0 256 139.21042423036695" xmlns="http://www.w3.org/2000/svg">
  <style>
    g.zone {
      fill: lightgray;
      stroke-width: 2;
      stroke-linecap: square;
      stroke-linejoin: bevel;
      stroke-miterlimit: 3;
      stroke-opacity: 0.8;
      stroke: black;
      fill-opacity: 0.3;
    }
  </style>
  <g class="zone" id="zone">
    <path d="M0,8.67041328890451 0.6111304520799404,9.026906052617807 1.3368478639271313,9.141493012383249 1.502362361365901,9.54891331377078 1.8588551250791994,9.930869846321649 1.502362361365901,10.274630725617971 1.3623116327647002,10.592927836076726 1.986173969263425,10.873029293280938 2.7246232655294005,11.636942358382672 3.093847913661483,11.942507584422643 3.310289948773581,11.993435122096875 3.412145024120238,12.18441338837231 4.226985626895301,12.337196001392295 5.602029144078786,12.75734818719861 5.691152335006658,13.101109066494029 6.7224349728938195,13.368478639279456 6.900681354751373,13.775898940666988 7.931963992638535,14.056000397871198 7.715521957526437,14.348833739493289 7.078927736608927,14.527080121350842 6.9516088924247015,15.36738449296257 6.480529168945962,15.800268563186766 6.3659422091805205,16.309543939920953 6.658775550801707,16.98433381409391 7.639130651015539,17.289899040134785 8.110210374496088,17.620928035012327 8.3139205251894,17.913761376634415 8.072014721239736,18.448500522206174 7.333565424975569,18.614015019644942 7.129855274282256,18.779529517083713 7.384492962648897,19.33973243149123 7.206246580791343,20.30735564728718 7.30810165613981,21.033073059133468 7.44815238474101,21.134928134480123 8.912319092852368,21.249515094245567 10.36375391654494,21.122196250062245 11.22952205699514,20.66384841100048 11.72606554930964,20.70204406425593 12.770080071615585,20.35828318496051 13.215696026258565,19.823544039388754 13.635848212063976,19.56890635102211 13.915949669268187,18.639478788481608 15.660217834583754,17.964688914307743 15.634754065747996,17.697319341522316 16.576913512705474,17.722783110358982 16.9206743920018,18.155667180583176 17.684587457103532,18.397572984532843 19.212413587307005,19.097826627542467 19.479783160092428,19.097826627542467 19.467051275673644,18.715870094991597 20.498333913560806,18.079275874073186 21.21131944098921,17.913761376634415 22.29352961655151,17.913761376634415 22.917391953050235,18.410304868950725 24.025065897448293,18.435768637787387 25.298254339283314,18.804993285920375 27.004326851344338,20.0781817277563 28.086537026904825,20.320087531705063 28.493957328293263,20.956681752623474 29.55070373501618,20.842094792858035 30.416471875466385,20.956681752623474 31.57507335753596,20.867558561694697 32.59362411100615,20.931217983786812 36.27313870791181,20.842094792858035 39.65981996319629,20.905754214950147 42.43537076639902,21.593275973540983 45.338240413785975,21.68239916446976 47.36261003630575,22.11528323469396 49.616153578354606,22.128015119112742 52.60814641666943,22.739145571193585 53.906798627343825,22.891928184214475 52.8500522206191,23.057442681653246 52.315313075048245,23.426667329785328 51.70418262296649,23.528522405131987 51.37315362808896,23.846819515591644 51.16944347739564,24.407022429999163 50.73655940717145,24.929029691152135 50.68563186949812,25.260058686029673 50.78748694484477,25.76933406276386 50.634704331824786,26.355000746008947 50.723827522752664,27.4626746904061 50.621972447406,27.666384841099415 50.876610135772644,28.12473268016118 50.50738548764056,28.812254438752017 50.634704331824786,29.105087780375012 50.621972447406,29.767145770129186 50.69836375391509,29.881732729894626 50.481921718802994,30.17456607151672 50.50738548764056,30.327348684537608 50.354602874620575,30.4037399910476 50.38006664345634,30.556522604067585 50.125428955089696,30.709305217088474 50.15089272392545,30.93847913661845 49.78166807579337,31.129457402893888 49.730740538120045,31.282240015914777 49.87079126672305,31.43502262893476 49.80713184463094,31.613269010792315 49.65434923161096,31.702392201720187 49.641617347192174,32.35171830705738 49.170537623711624,32.759138608444914 48.38116078977413,33.87954443725995 48.39389267419291,33.968667628188726 48.572139056048655,34.01959516586206 48.368428905355344,34.19784154771961 48.38116078977413,34.50340677376048 48.29203759884626,34.57979808027048 48.444820211866244,34.7071169244538 48.5466752872129,35.076341572586784 48.26657383000869,35.4201024518822 48.30476948326323,35.71293579350429 48.088327448151134,35.72566767792308 47.795494106529944,35.98030536628972 47.88461729745782,36.082160441637285 47.846421644203275,36.33679813000393 47.99920425722326,36.515044511861475 47.93554483513115,36.82060973790235 48.011936141642046,37.01158800417779 47.655443377926936,37.7882329536974 48.17745063908082,37.89008802904406 48.572139056048655,38.272044561594925 49.36151588998796,38.590341672054585 50.21455214601757,39.18874023971755 50.57104490973268,39.48157358133964 50.991197095538084,40.2964141841147 51.271298552742294,40.27095041527804 51.74237827622104,40.43646491271681 52.39170438155733,40.33460983737015 53.21927686875118,40.46192868155347 53.66489282339416,40.53831998806346 53.97045804943413,40.71656636992102 53.88133485850626,40.78022579201223 53.95772616501716,40.818421445267674 54.314218928730455,40.84388521410434 54.27602327547591,40.78022579201223 54.58158850151588,40.742030138757684 54.517929079423766,40.85661709852222 54.747102998954645,40.85661709852222 54.759834883373436,40.93300840503312 55.027204456158856,40.869348982941005 55.3582334510364,41.04759536479765 55.65106679265939,41.00939971154311 56.55503058636233,41.21310986223642 56.75874073705564,41.12398667130855 57.52265380215738,41.111254786889766 58.04466106331125,41.28950116874732 58.99955239468752,41.37862435967519 59.215994429799615,41.27676928432854 59.63614661560503,41.34042870642065 59.83985676630015,41.21310986223642 60.578306062564316,41.23857363107309 61.94061769532902,41.8751678519915 67.54264683940781,43.16108817824621 68.63758889938708,43.861341821255834 68.63758889938708,44.86716069030633 69.00681354751916,45.10906649425509 69.24871935146882,45.10906649425509 69.77072661262089,45.40189983587808 70.21634256726388,45.491023026805955 70.22907445168266,45.70746506191806 70.38185706470264,45.92390709703106 70.71288605958019,45.974834634704386 70.82747301934562,46.089421594468924 70.72561794399897,46.751479584224 71.04391505445773,47.04431292584609 70.90386432585652,47.17163177003032 70.96752374794863,47.37534192072363 71.42587158700859,47.87188541303994 71.46406724026313,48.39389267419291 72.46988610931453,48.724921669070454 72.97916148604963,49.19600139254919 73.22106728999749,49.60342169393763 74.17595862137556,50.15089272392636 74.5069876162531,50.443726065549356 74.87621226438517,50.914805789028094 75.11811806833303,51.04212463321232 75.3727557567015,52.035211617844034 75.48734271646693,52.149798577609474 76.26398766598564,52.60814641667034 77.06609638434372,53.346595712935404 78.32655294175996,53.60123340130295 79.11592977569927,54.08504500920048 80.46550952404519,54.49246531058801 81.11483562938147,54.938081265230984 82.31163276470741,55.01447257174098 83.44477047794304,55.42189287312851 83.01188640771883,55.867508827771495 82.6808574128413,56.0075595563736 82.42621972447284,56.2876610135769 81.62411100611656,56.38951608892356 81.39493708658568,56.84786392798532 80.64375590590274,56.88605958123987 80.37638633311731,57.064305963097425 80.41458198637186,57.191624807280746 79.96896603172887,57.24255234495407 79.93077037847434,57.420798726811626 80.32545879544398,57.59904510866827 79.99442980056644,58.27383498284123 79.31963992639258,58.66852339981089 78.89948774058716,58.75764659073966 78.25016163525088,59.254190083055065 77.85547321828122,59.86532053513682 78.30108917292421,60.18361764559557 78.23742975083209,60.412791565126454 78.47933555478176,60.667429253494 78.53026309245509,60.883871288606095 78.77216889640295,60.94753071069731 78.74670512756718,61.11304520813607 78.8740239717496,61.30402347441151 79.05227035360716,61.30402347441151 79.10319789128049,61.50773362510573 79.3832993484847,61.71144377579904 79.98169791614765,62.01700900183992 80.70741532799485,62.11886407718657 81.63684289053535,62.640871338339544 82.04426319192198,63.02282787089041 83.50842990003333,63.7485452827367 84.38692992490051,64.55065400109387 84.65429949768594,64.57611776993055 85.13811110558527,64.86895111155263 85.5455314069719,65.28910329735895 85.6219227134828,65.53100910130772 85.96568359277731,65.74745113641981 86.04207489928821,66.14213955338947 86.9078430397366,66.88058884965453 87.51897349181834,67.88640771870503 86.7041328890433,69.60521211518393 86.85691550206327,70.13995126075478 87.45531406972624,70.4837121400502 87.73541552693045,70.50917590888687 87.13701695926748,71.15850201422407 87.25160391903292,71.45133535584615 87.70995175809288,71.80782811956036 88.07917640622676,71.9224150793258 89.13592281294969,71.74416869746825 89.36509673248058,72.02427015467246 89.39056050131633,72.26617595862122 88.94494454667516,73.13194409906961 88.98314019992971,73.29745859650838 89.79798080270477,73.94678470184468 90.28179241060229,74.12503108370223 90.65101705873438,74.55791515392643 91.31307504848945,74.8634803799673 91.9242055005712,74.93987168647729 92.45894464614206,75.71651663599691 93.40110409310135,75.98388620878234 93.5793504749589,76.20032824389534 94.06316208285642,76.34037897249654 95.0817128363248,76.5058934699353 95.56552444422232,76.30218331924199 96.31670562490528,76.3658427413332 95.96021286119198,76.96424130899617 96.01114039886531,77.16795145969039 96.40582881583495,77.60083552991458 97.43711145372212,77.97006017804758 98.25195205649719,78.14830655990421 99.05406077485345,78.63211816780174 99.70338688018975,78.82309643407717 101.4731188143429,78.97587904709806 101.62590142736288,79.31963992639348 102.07151738200585,79.61247326801558 103.75212612522931,80.05808922265855 104.38872034614683,80.5928283682294 105.1271696424128,80.40185010195397 105.3308797931061,80.27453125777065 105.4836624061261,79.9562341473119 106.40035808424781,79.94350226289312 108.83214800815603,80.07082110707644 109.31595961605355,80.54190083055607 110.16899587208316,80.77107475008697 110.67827124881825,81.08937186054571 112.06604665041871,81.22942258914782 112.46073506738837,81.08937186054571 113.19918436365434,81.02571243845361 114.19227134828515,81.12756751380117 114.8797931068778,80.89839359427029 115.03257571989778,80.6692196747403 115.9492713980195,80.5928283682294 116.12751777987705,80.70741532799485 116.67498880986669,81.58591535286203 118.54657581936648,82.45168349331041 118.76301785447858,82.88456756353462 119.80703237678271,83.08827771422884 121.05475704978379,83.6102849753818 120.57094544188445,84.09409658327932 120.58367732630323,84.48878500024807 120.21445267817116,84.66703138210563 121.14388024071165,85.95295170836033 121.38578604465951,86.65320535136996 123.09185855672054,87.13701695926748 123.75391654647562,86.9715024618287 123.81757596856772,86.74232854229874 124.08494554135315,86.62774158253329 124.33958322971979,86.28398070323787 124.53056149599614,85.68558213557401 125.06530064156699,85.34182125627859 125.07803252598578,85.1126473367477 125.29447456109787,84.99806037698316 125.38359775202575,84.79435022628896 125.63823544039239,84.73069080419684 125.53638036504573,84.48878500024807 125.88014124434206,83.8903864325851 126.26209777689292,83.72487193514634 126.4276122743317,83.41930670910637 126.32575719898503,83.27925598050426 126.7077137315359,83.10100959864671 126.7077137315359,82.91003133237128 126.93688765106678,82.71905306609584 126.8477644601371,82.59173422191252 126.93688765106678,82.37529218680042 127.54801810314672,82.29890088029043 127.7135326005855,82.04426319192288 127.87904709802426,81.98060376983078 128.0700253643006,81.3949370865866 128.197344208483,81.30581389565782 128.29919928383148,80.55463271497486 128.69388770079934,80.36365444869944 128.77027900731022,80.12174864475067 128.7066195852181,79.96896603172978 129.44506888148408,80.07082110707644 130.4381558661149,80.51643706171942 130.79464862983,80.91112547868907 130.78191674541122,81.50952404635203 131.2148008156354,81.80235738797413 131.11294574028875,81.98060376983078 130.75645297657545,82.18431392052499 130.74372109215668,82.32436464912709 131.53309792609417,82.6808574128413 131.60948923260506,83.05008206097338 131.82593126771715,83.31745163375881 131.72407619237052,83.49569801561636 132.1569602625947,83.66121251305513 133.099119709554,84.64156761326896 134.0158153876757,84.93440095489106 134.27045307604234,85.30362560302314 136.18023573879668,86.15666185905366 136.33301835181666,86.37310389416575 137.51708360272383,87.03516188392082 137.8226488287656,87.08608942159415 138.00089521062316,87.31526334112503 138.8284676978152,87.78634306460377 138.87939523548852,87.92639379320588 138.58656189386733,88.34654597901219 139.56691699408117,89.44148803899147 139.65604018500903,90.31998806385775 139.88521410453993,90.34545183269441 140.34356194360169,90.62555328989862 140.63639528522287,91.00750982244948 140.40722136569198,91.51678519918367 140.5345402098762,92.20430695777542 140.63639528522287,92.30616203312297 140.59819963196833,92.5735316059084 140.9037648580083,92.70085045009172 140.9801561645192,93.0064156761326 141.34938081265128,93.38837220868346 142.266076490773,93.91037946983644 142.45705475704935,94.27960411796852 142.39339533495723,94.86527080121361 142.96633013378442,95.17083602725357 142.9281344805281,95.25995921818236 143.2082359377323,95.52732879096779 143.31009101307893,95.83289401700866 143.9212214651607,96.29124185606952 143.97214900283402,96.60953896652917 144.65967076142485,97.39891580046758 144.51962003282367,97.72994479534421 144.55781568607821,98.08643755905841 144.65967076142485,98.22648828766052 145.0798229472321,98.3792709006814 145.2071417914145,98.50658974486473 145.18167802257875,98.68483612672138 145.39812005769085,98.85035062416014 145.30899686676295,99.25777092554767 145.6527577460575,99.79251007111944 145.61456209280294,100.12353906599698 145.80554035907747,100.21266225692484 145.89466355000715,100.51822748296573 146.25115631372043,100.79832894016994 146.60764907743555,101.39672750783289 146.5694534241792,101.60043765852622 146.69677226836342,101.70229273387378 146.59491719301676,101.84234346247588 146.82409111254765,102.10971303526131 146.67130849952767,102.38981449246461 147.24424329835307,102.64445218083216 147.39702591137305,102.8354304471076 148.0718157855469,103.20465509524058 148.5683592778632,103.62480728104599 148.5174317401899,103.73939424081144 148.69567812204562,104.00676381359686 148.5810911622802,104.36325657731106 149.26861292087284,104.7579449942807 149.2940766897086,105.17809718008613 149.59964191575037,105.36907544636156 149.59964191575037,105.58551748147366 149.43412741831162,105.64917690356577 149.2813448052916,106.29850300890206 149.53598249365825,106.6295320037796 149.8670114885358,106.70592331028959 150.05798975481034,107.02422042074835 150.2871636743412,107.16427114935045 150.50360570945332,107.48256825981011 150.47814194061755,107.8517929079422 150.83463470433085,108.09369871189095 150.88556224200417,108.46292336002395 151.42030138757502,108.71756104839059 152.33699706569857,109.39235092256445 153.44467101009482,109.59606107325776 154.3104391505432,110.0671407967374 155.59635947679882,110.41090167603282 157.44248271746105,110.5764161734716 156.88227980305263,114.48510468990905 158.02814940070522,115.10896702640868 159.53051176207293,115.13443079524534 160.0652509076438,115.36360471477532 160.9819465857655,115.42726413686744 163.83388869547912,115.26174963942866 165.2853235191717,115.29994529268411 166.76222211170185,115.7328293629083 168.07360620679322,115.96200328243829 169.33406276421127,115.60551051872498 170.26349032675176,115.03257571989869 170.79822947232262,114.25593077037817 170.98920773859714,113.61933654945975 170.7345700502305,112.82995971552135 170.7218381658117,112.20609737902173 170.90008454766928,111.54403938926755 171.47301934649468,110.55095240463493 172.4661063311273,109.45601034465565 172.72074401949573,109.39235092256445 174.92336002387125,121.30939473815043 175.687273088973,122.18789476301761 180.29621524842096,123.05366290346599 180.72909931864515,123.24464116974143 181.8367732630414,123.3337643606702 182.25692544884865,123.65206147112896 183.46645446859154,124.23772815437404 183.77201969463331,124.54329338041492 184.44680956880538,124.89978614412821 184.80330233252047,125.2053513701691 185.04520813646835,125.61277167155663 185.40170090018344,125.67643109364874 185.80912120157006,125.99472820410749 186.14015019644762,126.04565574178082 187.591585020142,126.84776446013801 188.15178793454862,127.02601084199466 189.23399811011092,127.75172825384185 190.6727010493847,127.98090217337182 191.41115034565067,128.46471378127026 192.06047645098695,128.70661958521902 191.99681702889484,128.859402198239 192.3915054458645,129.16496742427987 193.29546923956744,129.45780076590196 193.91933157606798,129.97980802705493 194.64504898791336,130.20898194658582 194.74690406326002,130.2217138310037 194.86149102302545,130.0052717958916 196.98771572089188,130.55274282588124 197.71343313273908,130.90923558959545 198.7701795394638,130.6545979012279 199.80146217735097,130.79464862983 200.18341870990184,130.68006167006456 200.29800566966728,130.45088775053458 200.64176654896178,130.1325906400749 200.7945491619818,129.83975729845284 200.7945491619818,129.52146018799408 201.01099119709568,129.2922862684632 201.34202019197141,129.24135873078987 201.44387526731987,129.0885761177699 201.82583179987074,128.935793504749 202.24598398567616,128.935793504749 202.81891878450156,128.73208335405567 202.95896951310456,129.25409061520864 204.49952752772683,130.0689312179837 204.83055652260256,130.8583080519221 205.25070870840977,131.35485154423841 205.17431740189886,131.46943850400297 205.33983189933764,131.9405182274826 205.77271596956183,132.48798925747224 205.81091162281638,132.71716317700313 206.2947232307157,132.98453274978854 206.57482468791812,133.5829313174515 207.04590441139865,134.0158153876757 207.21141890883743,134.39777192022657 206.98224498930657,134.70333714626744 207.27507833092955,135.2508081762571 207.89894066742826,136.00198935694004 210.57263639528435,137.94996767294984 211.61665091759028,139.21042423036695 213.14447704779377,139.13403292385698 215.7035858158844,138.6884169692149 216.17466553936313,138.29372855224526 216.68394091609824,138.1918734768986 216.82399164469942,137.79718505992892 217.4860496344545,137.41522852737808 217.60063659421994,137.16059083901143 217.9189337046787,137.07146764808266 217.89346993584294,136.9568806883172 218.04625254886292,136.90595315064388 218.1226438553738,136.7531705376239 218.35181777490288,136.7404386532051 218.93748445814887,136.37121400507303 219.45949171930096,136.2566270453076 219.89237578952515,136.05291689461336 219.95603521161726,135.86193862833792 220.10881782463724,135.97652558810339 220.2870642064948,135.90013428159338 220.37618739742268,135.58183717113462 221.24195553787106,135.0980255632362 221.49659322623953,135.13622121649163 221.67483960809525,135.04709802556286 221.8530859899528,135.12348933207286 221.92947729646372,135.0089023723083 222.42602078878002,134.8815835281241 222.78251355249333,134.5250907644099 223.3809121201563,134.33411249813446 223.5082309643405,134.14313423185902 224.0047744566568,134.15586611627782 224.34853533595134,134.0158153876757 224.65410056199312,134.06674292534905 224.9469339036143,133.90122842791027 226.18192669219658,133.67205450838028 226.50022380265534,133.44288058884942 226.602078878002,133.5192718953594 226.8185209131141,133.41741682001273 227.16228179241043,133.44288058884942 227.42965136519584,133.32829362908396 229.41582533445927,133.2900979758294 230.16700651514404,133.46834435768608 230.51076739443855,133.35375739792065 230.56169493211186,133.4556124732682 231.05823842442817,133.63385885512486 231.42746307256027,133.64659073954363 231.6184413388366,133.8121052369815 232.44601382603045,133.92669219674693 234.08842691599935,134.6014820709199 235.09424578504894,134.8179241060329 235.38707912667195,134.62694583975747 235.76903565922282,134.70333714626744 236.1382603073549,134.39777192022657 237.01676033222208,134.0922066941857 238.04804297010924,134.86885164370622 239.53767344705815,135.28900382951164 240.518028547272,135.7346197841546 242.5169344009542,136.12930820112337 243.9556373402298,136.61311980902178 244.8850649027703,136.7404386532051 245.8908837718199,136.65131546227633 247.62242005271668,136.7531705376239 248.6282389217681,137.00780822599054 256,133.76117769930815 255.9872681155812,133.5956632018694 255.65623912070367,133.43014870443062 255.04510866862194,132.75535883025768 254.8413985179286,132.3734022977068 254.95598547769404,131.9405182274826 254.51036952305108,130.8583080519221 254.8413985179286,130.19625006216702 254.76500721141772,129.99253991147373 253.555478191673,129.44506888148408 252.7661013577355,129.27955438404533 252.6133187447155,129.16496742427987 252.5623912070422,128.98672104242323 252.30775351867374,128.83393842940234 250.51255781568486,128.32466305266814 250.02874620778732,128.00636594220848 249.8886954791861,127.43343114338309 249.92689113244066,126.91142388223012 250.0542099766249,126.40214850549502 250.42343462475696,126.08385139503628 250.37250708708365,125.98199631968961 248.5391157308384,125.31993832993453 247.9025215099209,125.62550355597541 245.87815188740112,125.95653255085296 244.69408663649395,126.58039488735258 243.68826776744257,126.36395285224049 242.83523151141296,125.86740935992417 242.31322425026087,125.71462674690419 242.14770975282212,124.97617745063911 242.2495648281688,124.60695280250613 241.82941264236337,123.72845277763895 240.98910827075073,123.77938031531319 240.072412592629,123.58840204903775 239.04112995474185,123.74118466205773 238.48092704033343,123.60113393345563 238.23902123638376,123.34649624508809 237.71701397523168,123.16824986323144 237.10588352314994,122.42980056696636 236.03640523200824,121.7550106927934 236.36743422688576,120.91470632118168 235.9982095787537,120.64733674839626 235.79449942805857,120.27811210026327 235.59078927736525,120.16352514049782 234.38126025762054,119.92161933654906 233.45183269508004,119.99801064305906 232.95528920276374,119.74337295469242 231.6821007609287,119.34868453772276 230.57442681653066,119.06858308051855 229.70865867608225,119.04311931168189 229.11026010841928,118.71209031680526 227.5187745561237,118.25374247774349 226.62754264683957,117.85905406077474 225.13791216989063,116.39488735266339 224.81961505943187,116.35669169940793 223.44457154224838,116.54766996568337 221.95494106529947,116.3057641617346 220.98731784950442,115.91107574476496 220.03242651812815,115.68190182523497 219.0011438802392,114.90525687571446 218.44094096583257,114.61242353409237 217.2568757149236,114.57422788083692 216.87491918237276,114.4469090366536 216.30198438354736,114.05222061968485 216.13646988610859,113.46655393643977 215.71631770030316,112.66444521808258 215.9072959665777,111.65862634903209 217.4733177500357,111.21301039439001 217.60063659421994,110.90744516834914 217.52424528771087,110.66553936440037 216.68394091609824,110.1435321032474 215.38528870542564,109.72337991744108 214.81235390659842,109.37961903814566 214.544984333813,109.16317700303357 214.4176654896306,108.88307554582936 214.45586114288514,108.75575670164604 213.43731038941675,108.50111901327848 212.9025712438441,108.27194509374851 212.78798428407865,107.78813348585008 212.87710747500833,107.35524941562589 212.6224697866399,106.7695827323817 211.34928134480487,106.60406823494294 209.51588998855962,105.9165464763512 209.42676679763176,105.57278559705577 209.17212910926511,105.22902471775946 209.5286218729784,104.54150295916861 209.13393345600875,104.14681454219897 208.54826677276458,103.77758989406688 208.34455662207125,103.42109713035268 208.53553488834578,102.91182175361759 208.58646242602092,102.56806087432217 208.49733923509123,102.41527826130218 202.56428109613492,101.68956084945499 201.8767593375441,101.39672750783289 201.7876361466144,101.21848112597534 201.77490426219742,100.42910429203694 201.31655642313567,100.12353906599698 202.61520863380824,99.97075645297609 203.5700999651863,99.32143034763979 204.38494056796137,98.95220569950772 205.12338986422554,98.12463321231387 206.18013627095027,97.57716218232423 206.99497687372534,96.8769085393146 208.00079574277493,95.66737951956989 209.14666534042755,94.61063311284606 209.40130302879598,93.70666931914222 209.8087233301826,93.37564032426468 210.69995523946858,91.87327796289787 210.8909335057431,90.93111851593949 211.5529914954982,90.38364748594985 211.5275277266624,89.88710399363354 211.85855672153815,89.33963296364391 211.94767991246783,88.85582135574639 211.9094842592133,88.39747351668552 212.0368031033957,87.88819813995134 211.8330929527024,86.62774158253329 211.97314368130358,86.08027055254365 212.27870890734536,85.55826329139069 213.52643358034462,84.70522703536017 214.4049336052118,84.50151688466686 215.66539016262985,83.8903864325851 199.87785348386006,73.1446759834884 192.12413587307907,69.42696573332638 189.34858506987453,66.10394390013401 185.74546177947977,64.57611776993055 182.81712836325525,62.58994380066621 179.43044710797076,59.68707415327926 171.2311135425468,46.35679116725525 150.7327796289842,34.796240115382574 137.9626995573668,22.204406425622736 106.70592331028959,7.791913264037333 87.16248072810325,5.589297259660906 69.2614512358876,7.104391505445592 57.45899438006526,7.231710349628912 29.67802257920041,6.022181329885102 7.931963992638535,0 0.7257174118453816,0.44561595464207554 0.700253643009622,0.6365942209175093 1.1713333664883618,1.1840652509071463 2.0752971601931067,1.5150942457846852 2.6609638434372878,2.5463768836718463 1.9352464315900966,3.34848560202903 2.3044710797221795,4.25244939573287 3.170239220170571,4.850847963395835 4.036007360620772,5.920326254537541 4.074203013875316,6.098572636395095 2.8774058785493852,6.009449445466317 3.2211667578439,6.798826279404716 1.2986522106725873,7.868304570547326 0.42015218580541136,7.9701596458939825 0.33102899487753906,8.301188640771523 0,8.67041328890451Z"/>
  </g>
</svg>