<?xml version="1.0" encoding="UTF-8" standalone="no"?>
<svg viewBox="0 0 256 179.0053920268713" xmlns="http://www.w3.org/2000/svg">
  <style>
    g.zone {
      fill: lightgray;
      stroke-width: 2;
      stroke-linecap: square;
      stroke-linejoin: bevel;
      stroke-miterlimit: 3;
      stroke-opacity: 0.8;
      stroke: black;
      fill-opacity: 0.3;
    }
  </style>
  <g class="zone" id="zone">
    <path d="M0,48.67462211614975 5.572350393352842,56.04030761071322 9.3853089366228,57.65261203924682 3.63758507911268,63.140104304782106 5.317776009901374,66.94174843100855 2.5627154600916184,67.82427296031106 5.866525236453817,71.97666401485004 4.474851940246348,76.2648280738972 4.0618757182016765,80.76230884822779 2.862547511712344,83.19490851233098 0.7128082736686128,84.61486785114444 1.4029877132501853,87.44912932025079 15.727039688854621,86.80986475735862 22.374259701228524,90.29470520639946 39.294970388049514,96.17820206841655 43.73022186864796,98.51462918766028 60.94510739856831,100.72094051091638 63.34942102006673,102.15787147529392 70.0136126580047,106.25934765314229 74.69778131353327,107.50393352779966 78.83885795103073,107.93388137540882 81.16397065323174,113.52320339432492 85.74065234685771,114.29824096172526 91.26208786351995,116.03500397772473 99.39149650844143,114.89790506496912 104.25669583664863,120.53814196057625 104.96950411031564,121.91850083974181 104.33023954742308,122.42764960664717 104.05303632988617,123.57040572792332 104.45469813488974,126.27455140104286 105.6483691328561,127.03261734287952 97.89233625033138,134.76036418279824 97.64341907539966,137.99063024838642 100.36453637408287,139.71607884734357 99.99681782020747,142.6295412357461 99.25006629541231,143.77795456554364 98.81446123928221,146.76496066472183 100.95854326880618,149.07875894988052 101.3262618226816,150.36860249270717 103.84371961460235,152.30336780694734 104.18880933439395,156.3256430654995 105.10527711482341,158.0567488729776 105.15053478299266,159.0863608238306 106.83072571378136,160.21780252806485 107.50393352780047,161.36055864934102 108.21674180146748,161.52461769645515 107.9621674180144,162.2713692212495 106.68363829223088,162.79748961371854 99.80447273048772,167.66268894192493 97.86970741624756,169.6483691328557 97.49633165384918,171.43038981702443 96.00848581278184,172.8899496154862 95.85008397418864,173.63104393175956 96.64209316715305,174.84168655529 97.40581631751067,175.20940510916623 97.72261999469707,176.82736674622078 98.83709007336763,178.85830460532082 99.91761690091167,179.0053920268713 103.18748342614732,176.55582073720444 103.74188986122273,174.93220189162892 106.14054627419819,172.1714841332978 110.60974100592317,168.71492972686255 111.47529390966203,167.06868204720203 111.63935295677497,166.067356138955 112.7481658269258,164.71528330239502 113.86829311411611,163.45938301069532 113.68726244143909,162.87103332449377 115.67859984089122,161.80182091399246 114.62070184743263,160.2630601962341 115.12419340581742,159.21647661981743 114.94316273313878,158.87704410854718 117.04764430301486,157.97189074516004 117.0023866348456,157.5928577742419 117.32484752055177,157.44577035269143 117.61336515513138,157.63245823388982 117.95845487492298,157.36091222487386 117.40404843984756,157.02147971360364 117.26261822681843,156.55193140634617 116.67992574913784,157.10068063289984 116.35180765491033,157.7795456554403 115.80305842835789,157.55325731459362 115.8935737646964,156.710333244939 116.78741271104043,156.0880403076105 117.18341730752263,155.44877574471832 116.77609829399772,154.65110934323297 115.59374171307407,155.42048970211235 115.32785291257827,156.00318217979293 115.75780076018702,156.4331300274017 115.27693803588765,156.95359321134936 114.82436135419509,158.00583399628698 114.36612746397955,157.74560240431336 114.70555997524978,157.1459383010691 114.2812693361624,156.9875364624767 114.13983912313326,156.46707327852903 114.96013435870286,156.20118447803364 114.3604702554582,155.7825510474672 115.06762132060544,154.66808096879663 117.30221868646794,154.0514452399891 117.8226818704152,152.1336515513122 118.26394413506667,151.40952886060248 117.7830814107673,149.74065234685733 117.0419870944935,149.01652965614758 116.90055688146438,148.46778042959394 116.54980995315142,148.0887474586754 116.54415274463007,146.81021833289108 116.00106072659737,145.83152125872869 116.5158667020249,144.63219305224055 115.76345796870838,142.79925749138124 116.74781225139253,142.73137098912736 117.29656147794658,143.73269689737438 117.86793953858445,144.36064704322422 117.3474763546372,145.35065853442933 117.63599398921681,146.4651286130999 118.47326085034888,147.08176434190744 118.05462741978285,147.71537169627823 118.06594183682556,148.04914699902753 118.52983293556085,148.6318394767081 119.5820737204997,150.89472288517618 120.72482984177545,151.49438698842005 121.10952002121493,153.53098205604144 121.54512507734503,154.5945372580214 122.13913197206834,155.08671439936347 122.59170865376092,154.84911164147408 123.36674622116125,154.0910456996374 123.58737735348778,153.19720675329256 125.91814726421015,152.21285247060882 130.02528065057948,152.320339432511 132.7067974896148,152.56925660744233 133.2498895076459,152.2694245558204 133.77035269159475,151.13798285158654 135.18465482188606,151.1210112260229 135.65986033766566,151.35861398391188 135.62025987801616,151.7093609122244 133.8834968620171,152.85211703350097 132.66153982144394,153.20286396181353 130.0365950676222,153.43480951118156 128.4525766816934,153.07840537434765 126.52346857597458,152.8917174931493 124.47555909131046,153.59886855829532 123.9946963670111,153.99487315477754 123.90983823919395,154.86608326703774 123.61566339609297,155.01317068858822 123.42331830637323,155.52231945549357 123.57040572792371,155.85609475824245 123.14045788031497,156.67638999381205 120.6908865906489,158.8487580659416 118.94280915760713,162.24874038716487 115.9331742243443,163.05206399717122 115.38442499779025,164.05338990541824 113.17245646601319,166.23141518606874 113.39874480685947,166.52559002916973 112.99142579333615,167.78149032086944 113.25165738530897,167.97383541058917 111.15283302395586,170.17448952532433 107.61707769822442,172.50525943604669 105.78414213736387,174.99443118536146 106.3894634491299,175.2659771943778 105.6483691328561,176.02970034473583 104.92424644214638,177.5118889772826 105.7954565544066,177.93617961637 108.44868735083512,178.75081764341863 109.78378856183222,178.98276319278668 112.35781843896494,178.02103774418757 115.1920799080705,177.83434986298917 116.95712896667635,177.81172102890454 119.87624856359906,178.16246795721707 122.2239900998855,178.6376734729955 123.12914346327226,178.994077609829 125.52214266772795,177.87395032263748 126.38203836294544,177.94183682489137 136.63855741182684,173.2972686290107 137.08547688499965,171.76982232829465 141.19826747989035,168.82241668876475 142.68045611243795,168.21709537699954 147.30239547423315,167.9681782020682 153.9609299036514,166.11261380712426 165.85803942367198,150.09705648369123 175.59975249712747,144.43984796252082 175.56015203747958,140.8079200919295 174.9095730575443,138.9014408202949 173.85733227260707,138.76566781578674 170.28197648722772,134.6472200123747 164.6417395916202,130.81728984354268 156.444444444444,121.42632369839973 163.30098117210332,111.28294881994148 174.90391584902295,109.99310527711484 182.56943339520916,101.66003712543088 192.39034738796045,102.08432776451866 199.54105895872075,91.48271899584527 216.85211703350097,93.90400424290615 231.71360381861595,105.3711659153184 248.74180146733872,106.66100945814544 256,102.1465570582516 251.9041810306726,101.13957394148322 245.9697692919649,96.87403871652069 242.8469901882789,91.49403341288759 239.16980464951834,88.2807389728631 233.7954565544066,84.38292230177679 229.08300185627124,81.98426588880054 210.06346680809634,74.6525236453636 210.9686201714847,68.41827985503397 208.4172191284358,66.61928754530199 206.1826217625749,63.903827455140124 200.536727658446,61.57871475293912 194.3420843277647,55.57075930345617 182.98240961725543,51.265623618845744 180.05763281180975,49.70423406700276 179.13550782285893,48.651993282064716 179.03933527799904,47.85432688057975 180.01803235216187,44.9408644921772 179.31653849553595,44.05268275435331 179.51454079377706,42.819411296738245 181.02501546892984,42.79678246265362 184.61734287987326,40.256695836648234 185.0190046848752,39.13091134093535 184.22699549191242,38.39547423318292 184.147794572615,36.30796428887131 184.9680898081862,35.32926721470891 184.9002033059315,34.44674268540639 184.57774242022535,33.60381861575176 183.04463891098715,30.367895341642246 169.91425793335068,25.530982056041843 156.0710686820472,19.868116326350485 150.0065411473523,15.500751348006727 143.3989215946263,12.943693096437672 134.85653672765852,12.751348006717928 133.95704057279315,13.950676213206055 127.8811986210555,12.864492177141473 122.24096172544958,9.47582427296051 111.0679748961371,5.928754530186747 103.5891452311509,7.886148678511537 102.15221426677256,6.7490497657563395 96.24043136214948,4.06187571820047 91.38088924246524,2.3590559533283537 82.48775744718453,0 79.50640855652848,0.2376027578894036 76.97197913904365,1.770706267126404 67.25289489967359,1.182356580924856 65.38601608768651,1.9743657738884628 60.8149916025819,5.923097321665388 59.649606647220715,6.251215415893306 56.69654379916986,5.855210819411503 52.39140811455943,7.25254132414033 50.960134358702454,6.901794395827784 48.95748254220921,8.152037479006525 46.29293732873797,8.649871828869559 44.38645805710299,10.030230708035116 43.83770883054894,12.202598780164681 41.20710686820585,13.701759038274739 36.200477326969526,14.58428356757726 35.13692212498957,15.619552726951229 29.17988155219724,16.236188455758764 26.36824891717551,17.83717846725005 25.94395827808812,18.962962962962933 26.356934500132795,20.094404667197175 25.11800583399717,20.89207106868214 17.803235216123912,25.327322549279785 16.473791213648166,26.9905418545036 9.968001414303393,29.971890745160444 7.433571996818564,31.968885353133537 6.420931671529226,33.78484928842919 6.138071245470967,35.19349421020074 4.440908689119807,35.87801644126216 4.191991514188089,36.72659771943774 5.979669406877764,37.98815521965879 5.634579687086173,38.73490674445315 4.621939361796835,39.119596923893035 4.078847343764142,42.553522496243254 3.0605498099534465,43.13055776540249 5.430920180323713,45.04835145407938 5.470520639971611,45.993105277114836 0.8542384866977422,46.45699637585093 0.022628834085432478,47.05100327057383 0,48.67462211614975Z"/>
  </g>
</svg>