<?xml version="1.0" encoding="UTF-8" standalone="no"?>
<svg viewBox="0 0 256 196.95616312814948" xmlns="http://www.w3.org/2000/svg">
  <style>
    g.zone {
      fill: lightgray;
      stroke-width: 2;
      stroke-linecap: square;
      stroke-linejoin: bevel;
      stroke-miterlimit: 3;
      stroke-opacity: 0.8;
      stroke: black;
      fill-opacity: 0.3;
    }
  </style>
  <g class="zone" id="zone">
    <path d="M0,4.653123568046664 1.6227279670088568,5.552466778678163 4.086146326564036,7.605315411639885 4.477165113793913,8.074537956315739 5.180998930810473,9.63861310523942 9.286696196733919,13.079578432870683 13.724759431800676,15.445242095616308 16.65740033603171,16.403238124331594 18.808003665802985,17.947762333893085 20.763097601955153,19.98106002749401 23.5979838093808,23.382923476402283 26.12005498701699,25.494424927447795 28.368413013596427,29.09179776997101 33.393004429509396,33.177944096532265 36.85352069650285,34.605162669924795 39.49289751031216,37.67466014968698 41.056972659234454,39.1409806018025 41.917213991142965,40.998319841149275 46.19886971131777,44.576141744310306 48.83824652512709,48.799144646402716 51.57537803574179,50.891095158087424 53.530471971896745,52.74843439743421 55.70062624102743,53.745532304872484 60.76431953566477,54.70352833358777 64.5963036505287,54.6057736367796 69.24942721857397,55.64197342294225 73.7070413930057,57.9294333282419 76.28776538872845,60.88162517183373 77.85184053765073,61.66366274629627 79.67007789827592,66.00397128455764 79.29861005040546,69.03436688559684 79.70917977699752,70.34427982281902 81.66427371315247,73.90255078661924 88.03787994501477,80.80403238124256 88.09653276309855,82.1725981365513 88.72216282266635,83.75622422483579 89.95387200244534,85.65266534290556 90.83366427371325,87.3731480067198 92.73010539178442,89.40644570032073 93.31663357263062,90.364441729036 94.2941805407067,90.85321521307405 94.70475026729878,91.75255842370555 96.77714983962129,92.8278600885898 96.93355735451324,93.64899954177393 98.30212310982199,95.819153810906 100.35497174278233,96.07331602260473 102.40782037574543,97.93065526195151 105.53597067359279,98.63448907896668 105.59462349167659,98.98640598747497 106.65037421719865,100.88284710554474 108.80097754696713,103.1312051321214 112.22239193523899,104.51932182679094 115.64380632350806,106.45486482358231 115.80021383840001,107.43241179165979 116.91461738200864,108.80097754696713 119.18252634794472,110.03268672674473 120.21872613410737,111.6358637543914 122.58438979685438,113.66916144799093 126.88559645639137,115.23323659691461 129.81823736062242,118.02902092561449 132.73132732549402,120.23827707346817 135.3316022605762,122.48663510004482 138.26424316480723,123.44463112876011 140.7472124637246,126.27951733618437 144.22727967007745,127.23751336489966 146.4951886360163,127.31571712234563 150.79639529555607,128.52787536276102 154.25691156254675,130.7175805712539 151.71528944554836,131.42141438826908 148.82175042003894,131.0303956010378 146.37788299984874,131.010844661677 145.83045669772412,131.69512753933 140.90361997861655,132.8681839010224 140.06292958607023,133.51336489995379 138.87032228501562,133.51336489995379 138.16648846800183,133.7870780510147 135.8790285627008,133.98258744463104 133.88483274782425,134.88193065526113 130.24835802657665,137.30624713609194 129.91599205743057,138.18603940736125 126.22086451809919,141.0013746754233 118.5568962883769,145.51764166793882 117.0710248969006,146.221475484954 115.37009317244576,146.4951886360163 111.90957690545231,143.42569115625412 109.95448296930014,141.23598594776124 108.37085688101565,140.86451809989217 106.70902703528243,141.93981976477642 106.06384603635243,141.9789216435008 106.06384603635243,142.31128761264688 105.8292347640145,142.60455170306997 102.2123109821291,142.64365358179296 98.22391935237602,143.58209867114607 98.98640598747636,145.77180387963895 96.62074232472933,147.4531846647316 93.82495799602808,149.03681075301606 91.63525278753798,150.71819153810873 90.3448907896752,151.32427065831573 89.09363067053683,153.5139758668086 89.71926073010462,155.27356040934723 89.52375133649107,155.6254773178541 89.21093630670717,155.66457919657708 89.07407973117463,156.44661677103963 88.81991751947452,156.5639224072086 88.81991751947452,156.8571864976317 88.37024591416085,157.4828165572009 88.62440812586097,157.58057125400904 88.8394684588367,158.20620131357825 89.19138536734499,158.55811822208514 91.16603024285935,160.08309149228583 91.65480372689738,160.1417443103696 92.1435772109382,160.43500840079273 93.17977699709807,161.49075912631616 93.86405987475244,161.54941194440136 94.93936153963669,161.35390255078642 96.28837635558325,161.60806476248513 96.69894608217531,161.51031006567837 97.20727050557555,162.15549106460836 97.03131205132141,162.80067206353974 97.32457614174591,163.75866809225502 97.6373911715298,164.1496868794863 98.32167404918417,164.32564533374043 98.5367343821599,164.81441881777846 100.53093019703645,166.5544524209549 101.54757904383692,166.5935542996779 102.05590346723716,167.19963341988628 104.12830303955967,167.06277684435514 104.26515961509222,167.1800824805241 104.28471055445162,167.62975408584055 103.9914464640299,168.82236138689376 104.08920116083807,169.23293111348582 104.9298915533844,169.46754238582514 105.16450282572232,169.85856117305502 106.20070261188498,169.66305177944008 107.31510615549082,169.72170459752525 107.74522682144507,169.99541774858616 108.64457003207518,171.4617382007017 108.8791813044159,172.18512295707905 108.82052848632932,172.53703986558594 109.133343516116,172.81075301664822 109.133343516116,173.2408736826011 109.50481136398369,173.71009622727834 110.9711318161006,174.41393004429352 111.3230487246061,174.27707346876375 112.02688254162265,174.49213380174086 113.49320299373679,174.55078661982466 114.3143424469237,174.90270352833295 114.88131968840771,175.37192607301017 115.01817626393748,175.6651901634333 115.97617229265416,175.54788452726294 117.55979838093863,176.32992210172546 118.22453031923082,176.8382465251243 120.43378646708311,176.79914464640132 120.55109210325345,177.58118222086387 121.21582404154563,178.16771040171005 120.94211089048333,178.7346876431941 121.09851840537806,179.32121582404028 121.84145410111623,179.9077440048865 123.40552925003851,180.2205590346718 123.36642737131413,180.94394379104776 124.6763403085391,181.23720788147085 125.12601191385275,181.72598136551028 128.6647319382922,182.44936612188627 129.09485260424643,183.09454712081765 129.36856575530874,184.7172750878251 132.00794256911527,185.0496410569712 131.10859935848518,185.81212769207156 130.73713151061472,186.78967466014902 131.656025660607,188.11913853673337 132.67267450740746,188.99893080800268 135.39025507866276,189.83962120054903 136.1918435924847,190.26974186650327 135.9181304414224,190.8171681686251 136.99343210630943,193.08507713456396 137.52130746906906,193.45654498243303 137.7754696807692,194.7469069802958 138.5966091339533,196.95616312814948 142.31128761264688,194.21903161753337 142.78051015732274,193.5347487398804 143.34748739880953,193.16328089200994 144.93111348709402,193.04597525584097 147.31632808920043,191.9902245303175 147.57049030090056,191.20818695585638 148.52848632961724,190.523904078202 148.91950511684712,189.72231556438007 150.09256147853952,188.47105544524166 152.41912326256215,188.3733007484335 153.35756835191665,188.6861157782174 155.74278295402584,190.13288529097213 159.30105391782467,190.5043531388412 164.0910340614025,191.54055292500246 169.897663051778,190.97357568351845 170.4646402932648,189.07713456544866 169.70215365816443,188.3537498090713 168.23583320604754,187.33710096227225 168.05987475179342,186.75057278142603 167.6884069039257,186.2226974186636 167.7470597220095,186.0076370856865 167.33648999541742,185.6948220559026 166.9063693294632,184.97143729952523 165.55735451351663,184.7368260271873 163.50450588055628,183.60287154421786 163.11348709332643,183.17275087826363 162.99618145715607,181.92149075912522 160.21994806781697,181.1003513059411 160.1026424316494,180.59202688254086 158.85138231250824,179.43852146020924 158.929586069957,179.22346112723213 157.46326561784008,178.6760348251103 156.95494119443987,177.99175194745592 156.95494119443987,177.20971437299477 155.62547731785548,176.81869558576352 154.99984725828492,175.74339392087927 154.47197189552526,175.6065373453481 153.41622117000043,174.58988849854765 153.4944249274464,174.49213380174086 152.69283641362446,174.00336031770144 151.38292347640228,173.7687490453635 151.0896593859778,173.27997556132547 150.89414999236425,172.24377577516282 148.70444478387137,171.69634947303962 147.17947151367068,170.95341377730145 146.06506797006205,169.95631586986318 144.20772873071527,169.6239499007171 142.78051015732274,168.6659538720018 142.17443103711713,167.94256911562445 141.11868031159227,167.33648999541742 140.7472124637246,166.5544524209549 140.7472124637246,166.2611883305318 138.22514128608563,164.38429815182423 138.71391477012367,163.7391171528942 140.37574461585413,162.50740797311664 142.5850007637092,162.3510004582247 144.52054376050194,162.46830609439365 146.80800366580021,161.88177791354744 148.3134259966387,160.88468000610916 148.6457919657848,161.0215365816389 149.34962578280135,161.90132885290822 149.34962578280135,162.70291736673155 149.74064457003124,163.4849549411941 150.91370093172364,163.8173209103402 152.51687795937033,163.66091339544684 152.94699862532457,164.03238124331733 152.81014204979482,164.5016037879932 153.33801741255445,165.26409042309353 153.82679089659527,165.49870169543144 154.25691156254675,165.24453948373272 154.74568504658757,165.26409042309353 155.44951886360136,166.241637391171 156.38796395295583,166.51535054223191 157.7369787689024,166.37849396670074 158.38215976783238,166.4566977241481 158.38215976783238,165.9874751794709 158.08889567741068,165.3422941805395 158.3039560103864,164.9708263326704 159.14464640293272,164.52115472735537 159.20329922101652,165.12723384756237 159.5552161295248,165.53780357415582 160.1026424316494,165.79196578585456 160.94333282419294,165.81151672521673 161.54941194440136,166.02657705819388 162.44875515503145,166.04612799755466 163.13303803268582,165.77241484649375 164.57980754544053,165.69421108904777 165.0099282113948,165.30319230181652 165.45959981671123,165.18588666564756 165.73331296777076,165.69421108904777 166.3002902092548,165.90927142202491 166.47624866350893,166.71085993584825 167.1214296624417,167.23873529860927 169.48709332518592,166.74996181457124 170.26913089964847,167.14098060180112 170.4646402932648,167.55155032839318 170.81655720177307,167.80571254009328 171.53994195814903,167.66885596456353 172.61524362303328,167.92301817626364 173.65144340919593,166.88681839010098 176.1735145868349,166.202535512448 176.8968993432109,166.5544524209549 177.85489537192478,167.84481441881627 177.8157934932032,168.3531388422165 178.0504047655411,168.80281044753295 179.8490911868041,168.52909729647064 180.61157782190168,168.25538414540972 181.452268214448,168.58775011455583 181.72598136551028,168.84191232625594 182.2734076676349,168.78325950817077 183.21185275698662,169.46754238582514 183.89613563464098,169.36978768901696 184.7759279059117,169.03742171987088 186.80922559950983,167.80571254009328 187.66946693141833,167.92301817626364 191.73606231862018,166.16343363372502 194.6687032228512,165.87016954330193 195.88086146326523,165.3618451199017 195.15747670688924,163.46540400183193 195.21612952497304,162.58561173056262 194.80555979838098,162.15549106460836 195.35298610050282,161.0801893997241 196.13502367496534,157.81518252634697 196.99526500687384,157.56102031464687 199.2827249121721,157.58057125400904 200.43623033450513,156.32931113487066 201.60928669619753,153.94409653276284 201.57018481747315,152.96654956468538 202.6454864823574,152.38002138383916 208.1197495035896,151.4024744157617 209.70337559187408,151.28516877959274 214.2196425843896,151.61753474873882 221.1211241790115,158.57766916144732 225.89155338322715,162.97663051779386 231.89369176722175,167.29738811669304 233.8292347640145,166.5544524209549 237.5634641820675,162.6638154880086 243.37009317244576,158.53856728272433 243.72201008095126,158.6167710401703 251.1513670383384,156.70077898273973 256,156.70077898273973 255.0811058500077,155.78188483274744 251.09271422025182,153.2011608370233 249.52863907132954,151.48067817320768 247.47579043836922,150.32717275087745 244.28898732243806,149.68199175194607 240.59385978310667,146.96441118069217 238.83427524056805,144.91156254773043 237.62211700015126,143.87536276156916 233.98564227890645,143.13242706583102 231.97189552466773,142.11577821903055 230.32961661829668,141.76386131052365 230.32961661829668,140.68855964563804 231.5222239193513,139.8674201924539 232.59752558423554,137.4235527722609 231.26806170765116,136.46555674354562 229.39117152894497,135.83992668397642 228.00305483427405,134.92103253398412 225.2854742630215,135.3120513212154 226.04796089812186,136.68061707652274 225.3636780204675,137.677714983961 224.1710707194129,138.55750725523032 221.60989766305232,138.6943638307615 220.2999847258274,138.14693752863826 219.6352527875352,137.69726592332322 219.67435466625957,137.48220559034607 219.47884527264324,137.1693905605608 218.52084924392935,136.7588208339687 216.70261188330417,136.5046586222686 215.76416679394967,136.56331144035377 214.86482358331958,137.01298304566885 215.17763861310348,139.2613410722455 214.4738047960897,139.5741561020308 213.3398503131189,139.41774858713885 211.61936764930462,139.45685046586183 209.95753780357418,139.84786925309172 205.24576141744234,139.12448449671572 202.84099587597373,137.22804337864596 200.92500381854316,134.666870322284 198.0901176111203,129.8573392393454 198.01191385367432,128.50832442339885 197.22987627921177,127.17886054681448 195.54849549411912,125.2628684893839 193.88666564838869,125.57568351916781 189.8982740186356,128 188.90117611119453,127.06155491064551 186.32045211547177,123.22957079578437 185.46021078356605,122.54528791813 181.80418512295626,122.25202382770689 179.32121582404167,122.5648388574908 177.4052237666111,123.36642737131413 175.352375133648,123.73789521918322 175.0004582251425,124.65678936917551 173.53413777302558,125.18466473193793 172.04826638154927,123.32732549259114 166.61310523904146,119.43668855964484 162.74201924545594,117.46204368412909 159.14464640293272,115.09638002138345 154.92164350083894,111.65541469375219 151.73484038491057,108.93783412249829 149.87750114556377,105.92698946082128 149.17366732854722,103.32671452573634 148.07881472430077,101.76263937681405 140.02382770734584,95.27172750878279 137.16939056056356,94.3137314800675 137.0716358637554,89.68015885138163 135.80082480525482,86.64976325034384 134.0803421414378,83.79532610355878 132.78998014357782,80.74537956315878 131.48006720635564,78.55567435466591 128.09775469680815,76.52237666106637 121.54819001069173,74.64548648235879 117.71620589583058,72.8076981823728 113.04353138842312,68.74110279517373 114.06018023522358,64.34214143882718 113.98197647777761,61.83962120055041 109.25064915228359,56.052543149534316 104.77348403849244,53.510921032534554 98.12616465556785,50.08950664426409 92.98426760348175,48.07575989002535 88.31159309607429,46.51168474110306 85.5353597067352,46.31617534748813 82.70047349931234,46.980907285780305 81.937986864212,46.49213380174088 81.48831525889833,45.94470749961766 80.6867267450736,45.67099434855674 79.4159156865758,45.63189246983375 78.43836871849695,45.04536428898755 76.56147853979074,44.77165113792525 75.56438063235247,43.794104169849156 74.56728272491421,43.38353444325709 72.47533221322949,42.91431189857985 71.00901176111259,43.71590041240318 66.84466167710535,42.42553841454042 63.42324728883628,42.132274324118704 59.68901787078052,40.040323812432604 57.14739575378214,38.339392087979164 56.34580723995742,37.08813196884077 54.918588666564894,37.92882236138709 50.38277073468719,40.040323812432604 49.38567282724892,40.19673132732594 48.48632961661881,39.121429662440306 48.74049182831892,37.6160073316018 48.075759890026745,37.498701695432835 46.90270352833433,36.873071635863646 46.21842065067996,35.58270963800227 45.63189246983375,35.21124179013319 43.77455323048697,35.09393615396422 42.91431189858124,35.28944554757916 41.95631586986456,33.62761570184871 42.249579960289054,32.92378188483354 41.799908354972615,32.23949900717917 40.50954635710985,31.35970673590986 39.96212005498802,31.39880861463285 39.47334657094998,31.105544524209744 36.716664120973086,28.17290361997871 34.05773636780435,27.234458530625613 33.490759126317556,26.78478692530917 32.51321215824147,24.51687795937032 34.27279670078009,23.715289445548375 31.7898274018655,20.743546662594355 30.186650374218836,20.3134259966401 28.309760195509863,19.159920574308487 25.983198411487226,18.397433939209527 25.259813655111255,17.967313273255275 21.721093630671827,17.693600122194358 21.271422025355385,17.107071941348153 20.743546662595744,14.643653581792973 19.62914311898712,14.741408278601138 17.928211394532287,14.19398197647792 13.66610661371689,11.984725828624246 13.079578432870683,10.811669466931832 12.981823736062518,9.384450893539304 11.847869253094483,8.73926989460792 13.275087826487011,8.270047349932067 14.721857339241728,7.3120513212167815 14.721857339241728,6.510462807393448 15.191079883917581,5.923934626547242 15.054223308387819,4.6726745074088525 12.747212463724592,4.183901023369421 11.71101267756472,2.854437146785057 10.67481289140207,2.4047655414700024 9.9514281350261,1.5836260882844797 8.73926989460931,1.1339544829694252 7.663968229725062,0 7.214296624408617,0.6256300595691943 6.0412402627162045,1.2903619978613765 3.558270963801616,1.4663204521155162 2.6589277531715068,1.974644875515747 1.6813807850926439,3.4018634489082755 0,4.653123568046664Z"/>
  </g>
</svg>