<?xml version="1.0" encoding="UTF-8" standalone="no"?>
<svg viewBox="0 0 256 216.3504568120199" xmlns="http://www.w3.org/2000/svg">
  <style>
    g.zone {
      fill: lightgray;
      stroke-width: 2;
      stroke-linecap: square;
      stroke-linejoin: bevel;
      stroke-miterlimit: 3;
      stroke-opacity: 0.8;
      stroke: black;
      fill-opacity: 0.3;
    }
  </style>
  <g class="zone" id="zone">
    <path d="M0,45.346809009068984 12.414042368060493,59.56855526923456 20.95565744118493,65.36862889461477 26.37020180047631,71.60563568822948 27.963722766976083,71.81125129681031 33.4810749305588,74.07302299119824 37.36206954251933,78.18533516281245 42.38251731869923,79.47900003346575 53.7856162779027,80.10441417623213 59.67993039055037,81.91211806833721 68.6070747297618,86.57273852949989 75.74364981091773,92.77547605501789 84.79930390549151,99.62076235735063 85.93018975268639,101.68548576018159 85.87021853351746,105.66928817643286 89.09152973461492,108.67641645192562 90.35092533717214,114.57929788159655 92.14149459522766,117.50932030387142 92.56129312941502,118.99146614905722 92.21860044844554,120.79060272413842 87.66935510859746,121.90435393728373 87.10391218500124,122.95813393126012 87.85783608313116,124.7315685552685 86.40995950604024,126.90766707941468 87.03537364880783,129.45216023560073 89.23717412402623,132.68203875372265 88.44898095780081,133.7101167966262 86.91543121046998,134.78103142465034 85.26193902479883,137.92523677253052 86.2900170677024,138.85907432816785 89.4941936347509,139.31314213045007 92.01298483986533,140.34122017335363 92.63839898263048,141.40356748435389 95.75690237943904,143.8538201532737 99.5179545530605,145.1817542920243 100.88015795990783,145.92711087312912 101.69405307720669,146.60392891804116 101.59124527291657,148.04323817810578 105.29232622736912,149.50824938924322 109.27612864361976,154.44302399518014 116.00147250761403,158.79522104347186 118.84582175964653,163.2930624811743 119.56547638967974,165.62337271175562 123.57498075700262,166.8999029483612 125.3484153810116,168.46772196378876 121.45885345202659,174.3277668083391 124.80010709146312,177.17211606037222 127.24179244335845,187.88126234061713 113.27706569391937,196.61135838827224 111.32371741240237,202.83123054783857 116.16425153107427,202.45426859877423 120.65352565175222,202.95974030320153 122.83819149292287,203.88501054181495 123.10377832067202,205.212944680565 121.67303637763129,207.45758174090454 119.214216391687,208.29717880927564 115.23898129246083,209.09393929252613 111.9662661892177,211.2272012315505 111.22090960811227,212.31525049362358 112.12047789565348,214.16579097084986 119.24848565978371,216.3504568120199 128.28700512031097,215.99919681402778 139.92998895619257,207.49185100900127 148.45446939526803,204.6646363910165 148.1117767142998,201.78601787088667 150.31357718951818,199.81553495532194 154.37448545898795,199.17298617850722 170.48104146447528,201.29768080050775 182.28680432381836,199.91834275961205 191.40242963756228,197.5965998460552 192.19919012081218,193.90408620862652 194.66657742378092,187.61567551286677 196.42287741374096,185.9450486931485 201.76031591981567,184.83129748000317 210.0106422141163,182.5609584685914 218.22669924032022,178.50005019912223 224.2923596934502,173.7537565677178 229.50128844416136,172.02315852882998 237.98293229811566,172.81991901208048 239.16522204745496,172.53719755028177 241.0671664268263,160.61149225260144 250.03714735115892,151.3587898664695 252.55593855627336,145.2502928282177 242.44650446772135,135.85194605267506 241.12713764599522,129.51213145477024 244.04859275124684,122.7525183226793 242.45507178474585,120.25086175161442 240.82728155014814,115.8986647033227 246.39603761587654,103.55316087145621 249.85723369365093,97.1019711522368 254.61209464208045,87.60938388942792 256,81.4494829490311 234.66738060975132,62.14731769351731 213.934473411198,50.45292995549003 198.94166861885418,40.17214952645514 186.7075399083029,27.01275057728981 175.64713363006646,21.101301830595006 150.76764499180103,16.149392590609732 139.77577724975802,22.986111575917977 113.9881530069281,21.03276329440099 91.48181118436459,3.666811686355834 65.26582109032648,0 54.436732371741286,16.055152103343495 39.56387001773773,15.412603326528775 27.955155449951604,28.03226130316949 10.383588233326833,29.98560958468587 0,45.346809009068984Z"/>
  </g>
</svg>