<?xml version="1.0" encoding="UTF-8" standalone="no"?>
<svg viewBox="0 0 256 230.55149132213393" xmlns="http://www.w3.org/2000/svg">
  <style>
    g.zone {
      fill: lightgray;
      stroke-width: 2;
      stroke-linecap: square;
      stroke-linejoin: bevel;
      stroke-miterlimit: 3;
      stroke-opacity: 0.8;
      stroke: black;
      fill-opacity: 0.3;
    }
  </style>
  <g class="zone" id="zone">
    <path d="M0,1.1997299336749827 1.9012669287894088,3.467016164264102 2.7451447634920494,5.3276142817433145 2.0741093768611734,6.6290162436955935 5.307279876087133,7.838913380197945 5.32761428174187,9.679177092021698 7.259382819015551,10.299376464514287 7.554231701020071,12.058302553715482 7.249215616187461,13.624051789189453 12.454823463996576,14.793280114381608 10.594225346518085,19.14484292465999 9.82151793160919,21.330791532626552 6.852694705904923,22.825370348306777 6.435839389967647,25.763691965527496 10.960244648317795,26.12971126732648 13.085190039317977,32.585885062949586 20.385241669644447,32.006354501767916 24.940148536477423,30.166090789944164 32.46387862901611,33.54160212875834 30.867627785057866,35.36153143492663 31.253981492512317,39.458914174510696 26.821081059612094,40.404464037492076 26.211048889946873,42.57007823980317 26.180547281464047,46.14893363517266 30.725286945470376,50.459827634140126 30.277930021048828,52.28992414313579 25.570515111798827,54.51654156241327 27.929306167837872,57.536200802256545 30.166090789942718,58.52241947654812 30.4406052662925,59.05111402359151 31.752174431072874,59.71198220739574 32.53504904880986,59.66114619325673 33.49076611461861,59.17312045752426 33.63310695420754,58.82743556138074 34.02962786449008,58.50208507089267 34.751499265259966,58.52241947654812 34.87350569919272,58.715596330275346 35.27002660947526,58.603757099170686 35.4123674490642,58.542753882203584 35.483537868857944,58.0750625521273 36.22574367528401,57.79038087295015 36.52059255728853,57.59720401922293 36.561261368599446,57.46503038246208 37.120457524127104,57.505699193773 37.44580801461445,57.39385996266761 37.801660113586074,57.43452877397853 38.1473450097296,57.22101751459584 38.63537074546207,57.22101751459584 39.021724452916516,57.13967989197401 39.33690774057722,56.865165415624226 39.611422216925554,56.87533261845232 39.957107113069085,56.031454783748956 40.64847690535758,55.960284363954486 40.86198816474027,56.183962826165256 40.69931291949515,56.30596926009802 40.67897851384041,56.539814925136156 40.86198816474027,56.71265737320792 42.661583065251655,57.2515191230794 42.63108145676883,57.35319115135669 42.834425513323424,57.892052901227444 42.69208467373593,58.186901783232685 43.33261845188398,59.010445212280594 43.33261845188398,59.335795702768664 43.6274673338885,59.62047738194581 44.15616188093188,59.915326263950334 45.14238055522346,60.28134556574932 45.52873426267791,60.67786647603186 45.976091187099456,60.6575320703764 46.46411692283192,60.94221374955355 46.63695937090368,60.810040112792706 47.12498510663615,60.69820088168731 47.31816196036265,60.413519202510166 47.33849636601883,60.240676754438404 47.836689304577945,59.93566066960579 48.16203979506674,59.92549346677842 48.11120378092773,60.067834306366635 48.172206997894826,60.240676754438404 49.727789030540706,61.24722983438616 50.012470709717135,61.582747527702324 50.215814766273176,61.664085150324155 50.90718455856023,61.63358354184061 51.21220064339284,61.735255570118625 51.61888875650347,62.060606060606695 52.330592954445265,62.39612375392213 53.001628341077584,62.90448389531006 53.70316533619273,62.68080543309929 54.37420072282361,62.84348067834368 54.923229675523174,62.83331347551559 55.81794352436483,62.4672941737166 56.24496604313019,62.44695976806114 56.53981492513471,62.32495333412839 58.22757059454288,62.568966201993895 59.91532626394961,62.35545494261122 61.67425235315008,62.3656221454393 62.274117319988655,62.20294690019491 62.9146510981367,61.8979308153623 63.08749354620847,61.613249136185146 63.98220739505012,61.755589975774086 64.47023313078259,61.684419555979616 65.05993089479307,61.85726200405138 65.37511418245232,61.836927598395924 65.6597958616302,61.62341633901324 65.9139759323238,61.14555780610886 66.5443425076452,61.19639382024715 66.9916994320653,60.99304976369256 67.0628698518605,60.860876126931714 67.24587950275891,60.76937130148178 67.12387306882616,60.61686325906548 67.27638111124318,60.29151276857741 67.10353866317142,60.159339131816566 67.55089558759151,60.28134556574932 68.32360300250186,60.18984074030011 68.46594384208935,60.00683108940026 68.48627824774553,59.8238214385004 68.94380237499372,59.34596290559603 69.70634258707597,59.22395647166327 70.16386671432417,58.715596330275346 82.53735255570035,57.983557726677375 82.57802136701126,58.24790500019906 83.08638150839991,58.47158346240984 83.19822073950458,59.07144842924697 83.38123039040444,59.213789268835185 83.08638150839991,59.40696612256313 83.0355454942609,59.8238214385004 82.82203423487822,60.088168712022096 83.10671591405465,60.413519202510166 83.04571269708755,60.91171214107 82.90337185750006,61.14555780610886 83.34056157909352,61.37940347114701 83.67607927240896,61.69458675880771 83.64557766392612,61.989435640812225 83.73708248937605,62.22328130585037 83.60490885261521,62.49779578220015 83.68624647523704,62.79264466420467 83.5032368243372,63.107827951865374 83.4930696215091,63.33150641407543 83.84892172048072,63.72802732435796 85.06898605981117,63.758528932841514 85.90269669168715,64.09404662615695 86.65506970094131,64.16521704595142 86.98042019142866,64.35839389967865 87.6311211724048,64.31772508836772 88.2614877477262,64.56173795623396 88.81051670042432,64.8972556495494 89.024027959807,65.47678621073179 89.30870963898488,65.76146788990894 89.3493784502958,66.00548075777445 89.857738591683,66.47317208785145 89.77640096906116,66.71718495571768 89.86790579451109,66.98153222923938 89.40021446443336,67.16454188013851 89.26804082767396,67.44922355931567 89.46121768140046,68.01858691766996 90.58977719528097,68.2625997855362 90.9354620914245,68.24226537988075 91.1896421621181,68.40494062512441 91.79967433178332,68.56761587036881 92.56221454386558,68.53711426188526 93.02990587394186,68.63878629016256 93.71110846340083,68.30326859684712 93.7416100718851,68.22193097422529 93.61960363795234,68.06942293180897 93.46709559553531,67.97791810635906 93.52809881250242,67.89658048373721 93.44676118987914,67.81524286111465 94.0466261567177,67.46955796497113 94.514317486794,67.58139719607651 94.73799594900477,67.78474125263183 95.11418245363113,67.90674768656459 95.38869692998091,68.13042614877536 96.33424679296157,68.34393740815804 96.59859406648326,68.53711426188526 97.38146868422024,68.43544223360797 98.20501211326814,68.95396957782326 99.31323722149392,68.97430398347872 99.48607966956568,68.89296636085687 99.70975813177647,68.97430398347872 99.96393820247006,68.91330076651234 100.27912149013076,68.64895349299064 100.93998967393355,68.80146153540696 101.04166170221157,68.82179594106242 101.14333373048959,69.12681202589502 101.28567457007708,69.29965447396678 101.79403471146573,69.35049048810579 101.9465427538813,69.57416895031585 102.35323086699194,69.7571786012157 102.60741093768554,69.72667699273215 103.19710870169457,69.87918503514845 103.6139640176333,69.89951944080391 104.26466499860943,70.21470272846462 104.62051709758106,70.86540370944076 105.09837563048544,71.32292783668967 105.5253981492508,71.45510147345053 105.75924381428966,71.69911434131676 105.95242066801616,72.05496644028766 106.01342388498327,72.71583462409188 105.30171968704002,72.76667063823089 104.62051709758106,73.26486357679073 104.23416339012661,73.43770602486249 103.87831129115499,73.43770602486249 103.46145597521627,73.31569959092901 103.24794471583358,73.40720441637893 103.20727590452267,73.50887644465696 103.2886135271445,74.39342309067123 103.16660709321175,74.73910798681477 103.41061996107871,74.99328805750837 103.25811191866168,75.16613050558013 103.6241312204614,75.58298582151814 103.63429842328803,75.77616267524536 104.17316017315952,76.40652925056604 104.21382898447042,76.85388617498758 104.38667143254219,77.13856785416473 104.48834346082022,77.49441995313563 103.99015052225965,77.76893442948541 103.64446562611613,77.68759680686358 102.35323086699194,78.05361610866257 101.52968743794403,77.69776400969094 101.01116009372875,77.63676079272457 100.57397037213528,77.85027205210724 100.20795107033557,77.79943603796823 99.83176456570922,77.66726240120812 99.75042694308738,77.53508876444727 99.7300925374312,77.44358393899735 99.85209897136396,77.21990547678656 98.99805393383322,76.82338456650403 98.47952658961793,76.71154533539864 97.55431113229201,76.79288295802121 96.35458119861775,76.41669645339412 95.55137217522459,76.53870288732688 95.04301203383737,76.70137813257128 94.56515350093301,76.69121092974318 94.1991341991333,76.42686365622221 93.52809881250242,76.56920449581042 93.38575797291348,76.44719806187767 93.30442035029164,76.58953890146589 93.16207951070271,76.60987330712135 92.73505699193734,76.53870288732688 92.86723062869818,76.73187974105483 92.8570634258701,77.05723023154289 93.44676118987914,77.70793121251903 93.3755907700854,77.86043925493534 93.69077405774608,78.21629135390624 93.25358433615263,78.27729457087261 93.21291552484172,78.34846499066708 93.32475475594637,78.59247785853331 93.19258111918553,78.83649072639955 93.21291552484172,79.03983478295414 93.70094126057418,79.48719170737569 94.01612454823344,80.08705667421282 94.3109734302394,80.21923031097367 94.41264545851598,80.34123674490714 94.48381587831116,80.49374478732345 94.43297986417215,80.67675443822257 94.53465189245017,80.79876087215605 94.40247825568933,80.92076730608882 94.41264545851598,81.12411136264413 94.2398030104442,81.24611779657688 94.45331426982689,81.35795702768227 94.40247825568933,81.51046507009858 94.54481909527682,81.79514674927573 94.87016958576561,81.98832360300295 95.23618888756388,82.38484451328549 95.22602168473723,82.61869017832363 95.37852972715281,82.86270304618986 95.30735930735906,82.97454227729526 95.3276937130138,83.34056157909424 95.5920409865355,83.513404027166 95.58187378370741,83.60490885261594 95.79538504309154,83.84892172048144 96.02923070812895,83.96076095158682 95.9682274911633,84.02176416855393 96.06989951943987,84.19460661662569 95.98856189681804,84.24544263076397 96.1614043448898,84.46912109297475 96.14106993923507,84.57079312125205 96.4155844155834,84.76396997497928 96.69009889193319,85.15032368243445 96.50708924103333,85.36383494181712 96.7409349060722,85.83152627189341 96.54775805234425,85.99420151713781 96.70026609476128,86.08570634258773 96.62909567496608,86.23821438500404 96.7917709202112,86.46189284721409 96.59859406648326,86.63473529528585 96.71043329758936,86.70590571508032 96.70026609476128,86.87874816315208 96.84260693434877,87.02108900274102 96.60876126931134,87.42777711585093 96.63926287779418,87.70229159219998 96.86294134000495,87.94630446006622 98.40835616982419,89.07486397394673 98.49986099527267,89.33921124746843 98.79470987727863,89.43071607291836 99.04888994797223,89.75606656340642 99.38440764128767,89.9695778227891 99.4149092497705,90.02041383692811 99.23189959887209,90.12208586520542 99.14039477342216,90.3864331387271 99.24206680169873,90.62027880376525 99.90293498550297,90.71178362921518 100.14694785336992,90.88462607728694 100.72647841455087,91.07780293101416 100.9298224711069,91.24047817625856 100.36045911275261,91.67766789785202 100.36045911275261,91.80984153461286 100.543468763651,91.91151356289016 100.42146232971825,92.18602803923922 100.18761666468083,92.31820167600006 100.09611183923091,92.48087692124446 100.67564240041186,92.59271615234985 101.31617617856135,92.90789944000983 101.1331665276615,93.11124349656514 101.11283212200532,93.2840859446369 101.7025298860158,94.1177965765129 101.35684498987227,94.3719766472065 101.37717939552701,94.80916636879996 101.69236268318771,95.01251042535455 102.02788037650315,95.38869692998163 102.2718932443701,95.49036895825965 101.9465427538813,95.68354581198687 102.38373247547477,96.32407959013491 102.261726041542,96.50708924103478 102.0177131736765,96.52742364669024 101.80420191429238,96.66976448627845 102.50573890940753,96.79177092021193 102.97343023948525,97.02561658525006 102.93276142817433,97.27979665594367 103.14627268755702,97.55431113229345 103.1056038762461,97.73732078319259 103.3496167441116,97.82882560864252 103.36995114976779,97.9915008538869 103.52245919218338,98.05250407085329 102.80058779141349,98.37785456134135 102.2718932443701,98.46935938679128 102.09905079629834,98.68287064617397 100.78748163151796,99.10989316493934 100.19778386750748,99.19123078756117 99.49624687239378,99.53691568370542 102.67858135747929,102.54640772071988 102.5362405178918,105.82024703125676 104.72218912585762,108.09770046467325 106.58278724333756,112.04257516184173 107.13181619603569,115.72310258548852 106.65395766313131,117.50236308034516 107.64017633742289,121.94543071607347 107.1826522101747,124.7210770880498 107.59950752611198,126.56134079987355 106.42011199809245,127.91357877596484 108.94157829937517,131.10608046387915 117.9395528019379,137.16573334921972 120.37968148059879,139.351681957187 123.2163310695422,146.86524484689687 133.5563763453667,161.77036419238317 129.77417689344261,165.45089161602993 133.0276817983233,178.37340641010425 130.41471067159065,183.7315223003304 131.19758528932763,186.99519440803917 137.29790698597986,200.4870725604678 138.07061440088876,213.08423686405402 142.62552126772317,212.12851979824526 150.17975296874323,212.2708606378335 163.0819333571628,214.10095714682916 165.88808133762194,215.60570316533673 168.8670717661543,214.37547162317892 169.2229238651245,212.12851979824526 172.0290718455851,211.66082846816826 176.33996584455255,208.8038444735701 181.52523928670692,210.69494419953213 183.3960046070135,208.56999880853124 187.08669923348765,213.65360022240833 194.9866158306527,214.68048770801153 197.85376702807895,215.5243655427149 200.28372850391176,221.62468723936638 204.51328488025737,221.34000556018995 209.89173517613824,230.5209897136511 213.0435680527424,230.55149132213393 221.07565828666682,225.47805711108495 224.1054847293382,222.06187696095984 226.92179991262543,221.49251360260627 237.4855236506607,217.09011477818888 251.97378768020897,226.5252790023436 256,221.31967115453378 255.23745978791774,216.23606974065743 252.3703085904915,211.01012748719214 252.92950474601773,210.33909210056052 252.1059613169698,208.45815957742585 253.29552404781742,206.0078636959376 252.6448230668413,196.93871877358185 248.41526669049566,192.1092974303991 247.08336312006054,189.6691687517382 243.2198260455132,185.64295643194788 240.91187100361316,175.17073751936184 242.42678422494956,173.6863259065097 242.78263632391972,172.89328408594534 242.26410897970445,170.82934191191154 236.2451249056755,163.80380475793342 234.58787084475162,163.08193335716354 229.69744628460177,159.23873068827234 229.22975495452548,157.99833194328644 229.33142698280204,157.02228047182223 228.26387068588863,154.84649906668304 227.8673497756061,154.4499781564005 227.20648159180186,152.19285912863947 225.96608284681668,151.33881409110802 225.3763850828062,150.29159219984933 225.2340442432187,149.72222884149505 223.39378053139495,146.83474323841332 222.3872274514472,146.42805512530342 221.2891695460495,144.90297470114038 220.5062949283125,142.99154056952287 220.53679653679535,142.1476627348195 219.73358751340362,140.77509035307276 219.1337225465665,140.35823503713476 218.66603121648876,139.37201636284246 215.97172246713427,137.44024782556951 216.0835616982404,136.38285873148274 214.84316295325377,135.43730886850207 214.78215973628812,134.97978474125316 213.13507287819232,133.4648715199182 210.19675126097087,132.20413836927614 208.0921402756254,130.19103220938132 208.1734778982487,129.3776559831608 207.40077048333836,128.43210612018012 206.68906628539656,127.99491639858668 206.36371579490776,127.09003534691621 205.76385082807064,126.48000317725172 205.08264823861168,126.31732793200732 202.55101473450085,124.66007387108343 202.0528217959403,124.47706422018429 201.08693752730346,123.84669764486361 200.99543270185353,123.44000953175298 199.24667381548116,121.85392589062354 199.02299535327037,121.23372651813096 197.53858374041826,120.52202232018772 196.56253226895333,119.84081973072875 195.7694904483897,119.47480042892904 194.45792128360932,118.06155923587137 193.76655149132228,117.66503832558956 193.2683585527617,117.06517335875171 192.0787958219141,116.38397076929202 188.91679574248332,112.73394495412879 187.69673140315288,112.28658802970796 187.60522657770295,111.35120536955466 186.83251916279406,110.88351403947766 185.95813971960715,109.92779697366892 185.93780531395097,109.63294809166439 185.11426188490307,109.07375193613746 183.49767663529153,108.92124389372115 183.2943325787355,108.14853647881226 182.08443544223314,107.76218277135781 180.2950077445484,105.79991262560131 177.83454466023278,104.42734024385456 176.44163787283057,104.35616982406009 175.55709122681557,103.5732952063231 174.8657214345285,103.53262639501219 174.13368283093052,102.87175821120795 172.20191429365684,102.52607331506442 171.42920687874795,102.19055562174898 170.65649946383905,102.0278803765046 169.23309106795259,101.27550736725115 168.37904603042185,101.03149449938492 167.92152190317222,100.65530799475785 165.75590770086112,99.7504269430881 164.44433853608075,98.84554589141764 159.65558600420889,96.44608602406839 158.69986893840016,96.32407959013491 156.71726438698892,94.8905039914218 151.02363080344733,91.25064537908592 150.46443464791966,91.18964216211955 141.90364986695184,87.32610508757364 137.2267365661861,84.07260018269221 137.37924460860168,82.86270304618986 135.18312879780777,79.48719170737569 133.18018984074033,77.60625918424101 131.25858850629473,76.45736526470505 130.252035426347,76.13201477421697 130.0893601811033,74.44425910481024 129.28615115771015,73.81389252948956 128.97096787004944,72.81750665236918 127.48655625719731,71.80078636959405 126.29699352635114,69.96052265777102 125.0159259700536,68.6184518845071 123.58235037134047,65.58862544183718 120.17633742404274,62.01993724929578 116.91266531633396,60.18984074030011 116.72965566543554,59.93566066960579 113.45581635489867,57.92255450971099 109.39910242662481,55.95011716112639 107.58934032328533,56.356805274237026 105.44406052662896,55.47225862822202 103.89864569680972,55.11640652925112 103.52245919218338,55.1774097462175 103.27844632431785,55.79760911871009 104.24433059295326,56.671988561897 104.32566821557654,56.88549982127969 104.1324913618486,57.18034870328493 103.52245919218338,57.312522340045774 100.15711505619656,56.08229079788724 96.36474840144439,55.29941618015025 89.89840740299393,56.94650303824679 85.94336550299808,55.360419397117354 83.34056157909352,53.81500456729884 82.02899241431315,53.469319671154594 82.04932681996789,53.042297152389224 82.55768696135652,52.74744827038471 83.5032368243372,51.61888875650347 79.33468366495866,47.56217482823033 70.55022042178005,35.54454108582576 68.96413678064991,35.41236744906492 65.48695341355844,33.358592477859204 57.88188569839935,30.25759561539409 56.15346121768027,27.908971762183135 56.69232296755174,26.80074665395808 54.09968624647527,24.31994916398628 49.473608959847105,22.63219349457883 28.51900393184691,13.166527661940536 24.50295881488541,12.251479407442705 13.979903888159628,5.032765399738072 10.502720521068158,4.178720362206619 0.28468167917642884,0 0,1.1997299336749827Z"/>
  </g>
</svg>