<?xml version="1.0" encoding="UTF-8" standalone="no"?>
<svg viewBox="0 0 256 119.05218753766424" xmlns="http://www.w3.org/2000/svg">
  <style>
    g.zone {
      fill: lightgray;
      stroke-width: 2;
      stroke-linecap: square;
      stroke-linejoin: bevel;
      stroke-miterlimit: 3;
      stroke-opacity: 0.8;
      stroke: black;
      fill-opacity: 0.3;
    }
  </style>
  <g class="zone" id="zone">
    <path d="M0,28.40930456791598 0.6248041460768101,28.887549716764948 0.8947812462336865,29.890321803061603 2.229239484150364,30.561407737736594 3.6331204049656827,30.638544052066894 4.566469808364793,29.466072074243577 3.7719657707607728,28.11618657346029 6.32517777509895,28.6638544052068 7.497649752922817,28.42473183078259 9.449198505484096,26.02579245510447 8.199590213330476,23.140894299144627 6.309750512233438,21.289622755213014 6.379173195130983,20.718814029167138 8.646980836446772,21.112209232252496 9.626612028443516,21.968422321321306 10.621670483306868,23.896830179583223 10.721947691936533,24.822465951549027 11.740147041098702,26.110642400868073 10.205134385922692,28.046763890562744 10.004579968663363,29.118958659756398 11.95612872122464,29.86718090876224 14.648186091357909,30.060021694588265 20.502832349041746,31.37905266963998 22.130408581415214,30.81595757502741 25.269856574665873,28.548149933711073 28.733277088104344,26.534892129685552 32.3201157044713,21.76015427262867 33.51572857659398,21.51331806677116 35.99180426660241,22.608653730264177 42.18585030733957,22.7243582017599 43.16548149933741,21.690731589731126 52.259852958900474,19.183801373990583 55.16789200915969,16.761721104013642 55.93925515246489,17.440520670121938 55.260455586356045,18.088465710498113 54.813064963239746,19.476919368446275 52.02073038447681,21.143063757985164 50.83283114378744,20.880800289261046 49.698927323129,21.845004218392276 46.45920212124867,22.099554055683093 43.58973122815489,24.282511751235276 40.658551283596864,24.30565264553464 34.28709171989919,23.804266602386313 29.728335542967695,29.242376762685428 27.33710979872233,30.090876220320933 32.72122453898996,31.08593467518374 35.26672291189593,32.389538387368844 36.431481258286496,35.20501386043169 38.49102085090965,35.8375316379418 38.267325539351496,36.97914909003245 37.01771724719788,36.97914909003245 36.794021935639734,39.51693383150567 37.37254429311781,39.51693383150567 36.90201277570161,40.78968301795865 35.32071833192687,42.95721345064477 34.071110039773245,43.08834518500656 28.116186573460837,45.39472098348832 29.44293117994421,46.2046522839584 29.68205375436897,45.47185729781862 30.977943835121316,45.75726166084156 29.71290828010109,47.05315174159336 30.060021694588812,47.338556104616295 29.628058334338032,47.863083042063444 23.42629866216756,49.86862721465621 22.554658310232693,49.243823068579395 22.130408581415214,49.390382065807245 22.971194407616867,50.24659515487551 25.84066530071065,51.90502591298054 28.339881885018986,51.73532602145388 28.324454622152377,50.6245630950948 28.671568036640103,48.71158249969895 29.628058334338032,49.00470049415464 30.792816680727498,49.8609135832229 32.96806074484802,48.98927323128858 33.26889237073592,49.27467759431152 31.402193563938795,49.99204531758469 29.782330962998632,50.277449680607624 29.628058334338032,51.65047607569027 28.78727250813528,52.43726648186099 29.95974448595915,55.167892009160234 32.080993130046544,57.412558756177205 31.42533445823761,57.72110401349896 28.98011329396131,55.553573580812284 25.694106303483352,52.87694347354453 21.81414969265961,50.22345426057614 19.160660479691767,50.14631794624584 19.947450885862484,51.465348921297 21.40532722670874,53.34747499096074 23.526575870796133,55.422441846450496 25.29299746896469,56.4869229842114 25.63239725201911,57.29685428468148 26.51175123538619,58.02964927082071 40.72797396649441,64.81764493190312 43.24261781366716,66.90803905025948 43.597444859588194,70.15547788357256 47.315415210316935,71.00397734120807 49.15897312281524,71.75219959021337 49.336386645775754,72.22273110762957 53.77943835121097,73.14065324816207 55.39158732071783,72.60841267928163 57.37399059901123,72.46185368205377 62.079305773171114,74.02000723152969 62.9818006508381,75.01506568639304 64.42424972881776,74.38254790888293 62.565264553452835,72.60069904784886 67.59455224780054,71.99903579607087 74.15113896589094,71.95275400747269 75.99469687839034,71.01169097264082 78.0696637338801,70.50259129805974 76.60407376160055,69.2992647945043 77.55285042786517,67.27057972761271 79.76666264915002,67.96480655658708 81.16282993853203,67.64083403639872 80.28347595516496,67.00831625888915 79.8900807520796,65.99783054115973 78.19308183680859,65.3267446064842 79.51982644329306,63.938290948536036 79.90550801494511,62.603832710618256 81.33252983005924,60.34373870073523 81.81077497890766,61.58563336145609 82.42015186211896,61.35422441846464 82.83668795950312,61.84018319874691 81.64878871881375,63.55260937688343 81.61793419308162,64.70965409184069 82.92153790526729,65.14933108352423 84.54140050620745,67.20115704471517 83.8703145715319,69.27612390020494 86.73978546462568,70.20947330360404 87.11003977341223,69.05242858864679 88.43678437989671,67.66397493069807 89.91008798360846,67.64083403639872 91.69193684464254,64.46281788598317 89.3469928889959,62.997227913704165 86.98662167048374,62.33385561046193 86.20754489574524,61.531637941424606 85.28962275521273,59.641798240328114 83.48463299987985,57.474267807641446 83.38435579125019,55.48415089791529 84.98879112932374,54.99819211763302 86.13812221284769,53.887429191273945 87.0560443533813,53.51717488248795 88.55248885139189,53.60973845968431 96.42039291310124,50.6245630950948 97.70085573098697,49.11269133421706 99.45956369772223,47.90936483066162 98.17138724840319,47.261419790286 97.8782692539475,47.43111968181266 96.27383391587284,46.034952392431194 96.26612028444063,45.78040255514038 95.57189345546628,45.25587561769323 95.65674340122933,44.80848499457639 92.60214535374283,43.65144027961913 91.69193684464254,43.16548149933741 90.40376039532349,42.94178618777871 88.97673858020936,42.35555019886733 88.09738459684228,41.4684825840664 86.21525852717855,40.75882849222598 85.67530432686479,40.195733397613964 85.92985416415615,39.89490177172497 85.12763649511884,39.046402314089455 85.71387248403022,38.6530071110041 88.77618416295003,40.45799686633753 94.05230806315578,42.07014583584439 95.3019163553094,42.57924551042547 96.77521995902117,41.36049174400397 97.31517415933493,41.26021453537431 97.66228757382156,41.352778112570675 98.0325418826081,41.036519223816164 98.00940098830928,40.889960226588315 99.097023020369,40.427142340605414 99.4132819091235,40.69711944076174 99.93780884657065,40.581414969266014 100.58575388694737,40.180306134747354 101.27998071592172,39.88718814029166 101.43425334458233,39.32409304567909 101.90478486199854,39.26238399421485 102.67614800530374,39.62492467156809 102.12848017355668,40.05688803181887 101.29540797878724,40.28058334337702 100.7785946727734,40.7125467036278 98.9504640231406,41.69217789562509 98.51850066288982,42.22441846450554 97.78570567675114,42.22441846450554 97.00662890201262,42.509822827527934 95.99614318428375,42.47125467036305 95.81872966132325,42.68723635048845 97.40002410509798,43.54344943955671 98.8039050259133,44.19910811136564 99.65240448354825,45.00132578040242 100.0303724237681,45.8266843437391 100.69374472701034,46.42063396408379 101.38025792455139,46.67518380137406 102.35988911654813,46.89887911293276 102.50644811377653,47.338556104616295 102.9152705797274,47.53139689044232 103.42437025430903,47.47740147041139 103.81005182596108,47.77051946486708 104.01060624322042,48.34132819091241 103.2161022056164,48.511028082439616 102.20561648788753,49.19754127998067 101.22598529588969,49.4058093286733 100.67831746414373,49.83005905749078 100.20778594672753,50.52428588646514 101.2568398216229,51.465348921297 100.44690852115228,51.935880438712665 99.72954079787911,51.7584669157527 98.93503676027508,52.23671206460166 97.86284199108088,52.47583463902642 96.23526575870852,52.46812100759311 93.38893575991355,53.54802940822007 92.75641798240343,54.04941545136785 92.06990478486239,54.165119922863575 91.22140532722634,54.78221043750763 87.54971676509632,55.20646016632511 86.46209473303661,56.06267325539392 85.90671326985624,57.736531276365014 86.70893093889357,59.22526214294339 87.88140291671743,60.38230685790065 89.74810172351457,61.50849704712579 92.15475473062544,61.69362420151851 93.80547185729772,60.9145474267811 94.24514884898181,61.531637941424606 93.6126310714717,61.97902856454145 92.81041340243438,62.079305773171114 94.04459443172247,63.799445582740944 94.39942147764242,64.80221766903705 93.60491744003839,65.80498975533315 93.58949017717288,66.36808484994573 93.99059901169154,66.9388935759916 92.30902735928605,69.33011932023642 91.06713269856573,70.10148246354107 90.88971917560521,70.5180185609258 90.05664698083686,70.70314571531907 90.33433771242595,71.64420875015094 90.07207424370237,71.86790406170908 89.17729299746868,71.92189948174057 88.31336627696712,72.43099915632166 90.07978787513568,73.61889839701104 92.40930456791571,74.41340243461505 92.50958177654537,75.1847655779197 94.18343979751756,76.04869229842127 94.79281668072777,77.36000964203969 96.35868386163699,79.18814029167194 98.88104134024306,79.00301313727867 100.57032662408076,77.3831505363385 101.534530553212,77.3060142220082 101.71965770760471,76.95118717608771 103.29323851994724,76.44208750150663 104.51199228636874,75.22333373508513 104.42714234060568,75.08448836929004 105.26021453537403,73.60347113414497 105.15222369531216,72.62383994214768 105.42991442690125,71.79848137881154 105.93130047004958,71.71363143304848 105.88501868145084,72.04531758466905 106.1164276244423,72.7164035193446 106.03157767867924,73.51090755694861 105.78474147282118,73.83488007713642 105.12908280101225,75.54730625527294 104.1571652404488,76.6195010244666 103.30095215138054,77.03603712185132 101.83536217910098,77.36000964203969 101.34940339881926,77.6068458478972 101.03314451006366,78.1390864167771 100.70145835844255,78.10823189104498 100.59346751838068,78.94901771724717 100.3234904182238,78.9952995058459 99.98409063516938,79.39640834036402 97.53115583945977,80.15234422080262 98.10967819693894,81.06255272990236 98.0556827769069,81.44052067012166 97.7317102567191,81.45594793298827 97.72399662528579,81.24767988429564 96.9680607448472,80.9622755212727 96.60552006749396,81.270820778595 96.55152464746303,81.92647945040393 96.67494275039151,82.15788839339538 96.960347113415,82.26587923345781 97.70856936242028,83.26093768832116 98.31794624563157,83.56176931421015 98.8116186573466,83.57719657707621 102.1516210678555,82.75183801374007 103.3703748342781,82.80583343377155 105.09051464384683,82.21188381342687 106.15499578160772,82.21959744485963 108.36880800289258,81.8184886103415 110.12751596962782,82.07303844763177 110.59804748704404,81.34024346149255 111.24599252741966,81.03941183560354 111.87079667349647,81.07797999276842 112.13306014222005,80.95456188983995 112.88128239122534,81.07797999276842 117.19320236229986,79.55068096902518 117.94913824273846,79.63553091478877 119.10618295769572,78.48619983126427 119.97782330963058,78.35506809690249 120.40978666988028,77.40629143063786 120.81860913583223,77.59141858503114 120.67205013860494,78.18536820537582 118.42738339158797,80.29118958659771 116.1981439074365,80.75400747258061 115.65047607569055,81.26310714716169 113.93804989755293,81.87248403037245 112.69615523683261,81.84934313607363 111.56996504760747,82.74412438230677 109.87296613233755,83.12980595395938 108.94733036037175,83.10666505966056 108.12197179703561,82.7826925394722 105.9621549957817,83.16837411112479 105.15993732674437,84.02458720019305 102.52958900807535,84.61082318910444 101.91249849343184,85.27419549234668 100.44690852115228,85.79872242979383 100.77088104134009,87.61913944799332 101.18741713872537,87.98168012534656 100.96372182716613,88.41364348559733 102.38303001084695,89.6478245148849 102.22104375075304,91.38339158732079 101.43425334458233,91.92334578763453 102.3058936965172,92.73327708810407 102.9152705797274,92.70242256237195 102.84584789682985,93.06496323972519 103.57092925153633,93.63577196577106 102.99240689405825,95.00108472942041 102.10533927925786,94.71568036639746 102.39074364228026,94.30685790044605 99.8606725322409,92.66385440520708 100.11522236953117,90.12606966373386 98.15595998553658,86.87863083042078 98.37965529709582,86.44666747017 96.0655658671813,83.7931782572016 95.65674340122933,82.73641075087401 94.95480294082168,82.28130649632442 94.70796673496471,80.36832590092801 92.75641798240343,78.42449077980004 92.74870435097013,76.17982403278306 91.22911895865964,74.71423406050405 89.57840183198735,74.39026154031569 89.65553814631821,74.11257080872606 86.19211763287973,73.11751235386325 84.64167771483712,74.22827528022178 83.30721947691934,74.1048571772933 82.68241533084253,74.6448113776065 81.68735687597918,74.99192479209368 81.44052067012221,75.39303362661235 81.53308424731857,76.36495118717633 79.11100397734108,78.7407496685551 79.10329034590778,80.65373026395095 78.61733156562606,80.9622755212727 78.59419067132724,82.65927443654371 79.82837170061426,83.407496685549 84.55682776907295,83.39206942268294 85.44389538387334,84.04772809449243 81.70278413884579,84.27913703748388 81.80306134747545,85.15849102085095 84.0168735687603,88.52934795709307 83.97830541159487,89.26214294323285 87.2103169820419,91.51452332168257 86.92491261901951,92.4710136193805 88.29022538266831,93.21152223695303 89.8098107749788,92.54814993371134 91.182837170062,92.79498613956886 91.11341448716446,94.5382668434375 92.14704109919214,95.40990719537183 94.32999879474487,96.11184765577948 95.31734361817492,96.08099313004736 94.94708930938947,95.54875256116692 95.3096299867427,95.27106182957728 98.44136434856006,96.16584307581097 100.4700494154511,96.33554296733763 101.60395323610953,96.01157044714982 103.81005182596108,95.98842955285045 105.29106906110616,98.43365071712675 108.5693624201519,98.60335060865397 111.54682415330866,99.97637700373662 112.3644690852115,99.89152705797301 115.92816680727964,101.11799445582781 117.11606604796901,101.18741713872481 118.04170181993481,101.54995781607805 118.27311076292627,102.15162106785604 120.03181872966152,102.70700253103531 121.62854043630287,102.35217548511538 122.81643967699225,101.72737133903857 122.2687718452452,101.38797155598415 124.1277570206101,99.99180426660268 125.23080631553533,97.56201036519244 124.1277570206101,95.12450283234944 125.08424731830803,94.79281668072832 123.16355309147887,93.620344702905 123.4952392431,92.37845004218414 124.49029769796334,91.53766421598193 127.05122333373482,90.56574665541795 128.58623598891194,90.32662408099318 130.9928889960228,89.13101120887106 131.97252018801956,88.98445221164322 134.008918886345,89.50126551765705 134.7957092925157,88.22080269977131 135.49764975292337,88.19766180547194 135.8524767988433,87.74255755092234 137.01723514523385,87.2026033506086 139.2079064722188,87.19488971917583 140.580932867302,86.96348077618438 141.56056405929874,85.13535012655214 142.14680004821014,85.04278654935523 141.923104736652,83.708328311438 141.40629143063813,82.99867421959759 141.25201880197645,82.00361576473423 141.47571411353567,81.2091117271302 137.32578040255507,80.02121248644083 136.1533084247323,78.58647703989394 134.50259129806003,78.81017235145264 133.65409184042397,78.33964083403643 132.97529227431622,76.88947812462348 131.20115704471544,75.98698324695704 130.28323490418185,74.49825238037866 128.89478124623423,73.57261660841286 128.45510425455015,73.39520308545289 130.76919368446465,70.17090514643863 130.93117994455858,68.3736290225385 129.21104013498874,66.90032541882617 127.62203205978071,66.53778474147293 123.98119802338171,67.0160298903219 121.61311317343626,63.568036639749494 119.51500542364768,64.71736772327344 119.01361938049935,65.7124261781368 118.95191032903512,67.6176931420999 116.66096179341942,66.99288899602308 116.47583463902669,65.82041701819976 117.4091840424247,62.71182355068123 118.49680607448443,61.56249246715673 113.61407737736512,60.505724960829134 115.91273954441412,57.366276967579026 114.70941304085814,56.83403639869857 114.46257683500117,54.22682897432836 112.3721827166448,54.936483066168776 112.70386886826591,54.00313366276967 111.71652404483586,52.58382547908884 112.44931903097564,52.105580330239874 112.26419187658183,51.58105339279273 113.41352296010578,50.693985777992346 113.39809569724027,50.43172230926878 111.4696878389778,48.657587079667465 113.07412317705246,47.70109678196953 115.25708087260519,47.7242376762689 114.70941304085814,46.79860190430309 115.68904423285488,45.69555260937677 115.1182355068101,44.56164878871888 116.46812100759338,42.903218030613836 115.97444859587836,41.476196215499705 114.03832710618259,41.76160057852264 112.71929613113143,41.19850548391007 111.77051946486681,41.707605158491155 111.45426057611229,40.40400144630605 109.29444377485838,39.54007472580448 107.01892250210929,40.488851392069655 105.82330962998661,40.21116066048002 105.04423285524919,39.362661202844514 107.41231770519465,37.41882608171654 103.30866578281275,36.477763046884675 102.3136073279505,35.42870917198984 100.0226587923348,34.001687356876246 97.55429673375968,33.33831505363401 95.92672050138621,31.872725081355004 94.58454863203623,32.01928407858285 93.71290828010136,29.982885380257965 90.82801012414097,27.63022779317857 83.89345546583073,24.94588405447751 79.31927202603372,25.58611546342038 68.09593829094887,15.296131131734631 59.664939134626934,15.211281185971027 59.225262142942846,10.451970591780205 56.68747740147018,9.456912136916852 55.92382788959828,5.792937206219049 53.247197782330524,5.746655417620869 47.51596962757626,8.423285524888625 43.327467759431315,6.926841026877492 42.89550439918053,4.466192599735129 45.32529830059023,2.962034470290692 44.376521634325606,1.3267446064844695 40.141737977581926,1.6969989152704634 34.25623719416706,0 25.902374352175986,2.406653007110879 19.253224056888126,0.8639267205015659 17.602506930215846,1.9978305411594603 18.474147282150714,3.8105339279256496 17.48680245871957,4.335060865373342 17.82620224177399,5.522960106062722 16.78486199831301,6.826563818247826 17.363384355791087,7.513077015788878 17.224538989996,8.338435579125019 16.792575629745215,8.577558153549775 17.756779558876445,9.395203085452613 16.823430155477336,10.42882969748084 16.075207906472045,11.77100156683137 13.128600699047412,12.403519344341484 11.909846932625912,12.357237555743303 11.261901892250286,12.812341810292903 12.033265035555491,13.8768229480538 9.456912136917401,16.460889478124646 6.155477883572836,17.116548149933575 5.3609738459688145,17.695070507412204 3.463420513438472,17.980474870435142 3.031457153187689,18.3738700735205 3.656261299264499,19.01410148246337 3.3014342533445653,19.45377847414746 3.6948294564299236,19.916596360130363 3.6948294564299236,20.30999156321572 2.9928889960222644,20.88851392069435 2.8771845245270864,22.832349041822326 1.9515487525612796,23.156321562010685 3.147161624683963,25.501265517657323 2.437507532842999,25.809810774979077 2.900325418825903,26.403760395323765 1.7278534410031319,27.391105218753815 0.6942268289743552,27.622514161745265 0,28.40930456791598Z"/>
    <path d="M140.07954682415368,104.08002892611796 140.31866939857844,104.41942870917238 141.25973243340974,104.40400144630632 141.74569121369146,104.58912860069904 141.7765457394236,105.03651922381589 144.32204411232956,105.52247800409816 149.1122092322525,104.96709654091835 150.82463541038902,104.46571049777056 151.4417259250336,103.99517898035435 152.36736169699944,104.24201518621187 152.1668072797401,105.08280101241407 152.35193443413283,105.40677353260243 152.66047969145512,105.368205375437 153.6941063034828,103.65577919730049 155.71507773894163,105.01337832951707 156.67928166807286,105.47619621549998 157.85946727732895,105.33735084970489 158.47655779197353,104.7434012293602 159.7955887670247,105.05966011811525 159.9652886585519,106.20899120163921 159.46390261540358,106.85693624201538 160.28154754730642,107.18862239363649 160.5900928046287,106.8029408219839 161.23032421357104,106.61781366759118 162.680486922984,107.16548149933713 164.8171628299391,106.91864529347963 165.32626250451963,106.70266361335423 166.32132095938297,106.5638182475597 167.60178377726874,105.82330962998715 168.22658792334553,105.61504158129452 168.457996866337,104.87453296372198 169.19079185247676,103.74062914306408 169.49933710979906,102.9769796311922 170.1627094130413,100.77088104134064 171.05749065927498,99.4209955405568 171.0729179221405,99.06616849463687 171.8288538025791,98.8810413402436 171.85970832831123,98.7190550801497 171.15005423647136,97.5003013137282 170.2784138845365,97.11461974207559 169.91587320718324,96.20441123297584 170.10100036157706,95.99614318428375 170.57924551042547,96.09642039291343 171.13462697360475,96.60552006749451 171.27347233939983,96.97577437628105 171.6977220682173,97.02205616487923 171.95998553694088,97.2843196336028 171.85199469687902,97.55429673375913 172.56936242015217,98.36422803422921 172.53079426298675,99.22815475473078 172.22996263709777,99.68325900928093 171.75171748824934,100.99457635289879 171.42003133662823,101.36483066168533 171.27347233939983,101.75051223333739 171.33518139086408,102.19018922502147 171.61287212245426,102.28275280221783 171.75171748824934,103.03868868265643 171.12691334217254,103.5246474629387 170.81836808485022,104.16487887188157 169.9930095215141,105.1213691695795 169.77702784138816,105.75388694708961 169.92358683861656,106.19356393877315 169.5379052669645,106.66409545618936 167.9874653489219,107.77485838254789 167.60949740870203,107.9522719055084 167.9874653489219,107.14234060503831 168.3268651319752,106.8029408219839 167.97203808605528,106.74123177051966 166.73014342533494,107.67458117391821 166.9538387368931,107.97541279980722 166.79956610823248,108.75448957454518 167.1081113655537,109.26358924912626 167.46293841147474,109.43328914065347 167.57864288296992,109.64927082077887 169.0982282752804,109.20188019766202 169.64589610702637,108.11425816560231 170.26298662167096,107.68229480535152 171.78257201398145,107.58973122815516 172.19139447993234,107.16548149933713 173.10931662046593,107.14234060503831 174.11208870676148,107.90599011690968 175.25370615885325,108.33795347716045 176.80414607689585,107.62058575388728 177.80691816319143,106.94949981921174 179.4499216584315,106.67952271905541 179.68904423285514,108.26853079426346 181.67916114258185,109.61841629504674 184.93431360732768,108.93961672893845 187.13269856574703,107.0266361335426 192.22369531155897,104.46571049777056 193.58129444377556,101.58852597324348 193.94383512112879,100.00723152946874 195.68711582499745,97.79341930818389 196.39676991683731,96.48210196456547 196.196215499578,95.81872966132379 193.3575991322163,94.88538025792468 192.49367241171475,94.02145353742311 191.9460045799688,94.5459804748708 190.85066891647577,95.10136193805008 188.70627937808845,96.64408822465994 187.88863444618562,97.4925876822949 183.86983246956788,99.96866337230331 183.19874653489236,99.28215017476226 182.08026997710053,99.08930938893569 179.83560323008354,99.4209955405568 178.90996745811773,98.47221887429218 179.4884898155958,96.04242497288195 178.3931541521039,95.78787513559112 177.1975412799812,94.50741231770539 177.25153670001214,93.22694949981964 176.34132819091295,93.00325418826095 174.48234301554803,92.0159093648309 173.58756176931436,91.87706399903581 172.66192599734853,91.9387730505006 170.72580450765386,92.59443172230952 169.57647342412992,93.12667229118998 169.7230324213572,94.57683500060293 166.6684343738707,95.1322164637822 166.47559358804358,95.37133903820695 165.36483066168506,95.61817524406446 163.9069543208388,94.0831625888879 160.98348800771407,92.21646378209023 159.86501144992224,92.32445462215266 158.846812100759,92.87983608533247 158.58454863203542,93.18838134265422 158.1294443774858,94.04459443172247 158.1294443774858,95.13993009521549 157.18838134265448,95.81872966132379 153.9795106665063,96.61323369892726 152.59877063999087,96.75979269615566 151.47258045076575,93.76690370013284 150.25382668434423,91.58394600458011 147.80860552006794,89.66325177775096 146.01904302760056,87.65770760515873 143.9363625406775,87.34144871640369 142.91816319151533,89.70181993491639 141.42943232493695,91.27540074725836 141.1903097505122,92.67928166807313 142.31649993973733,93.88260817162858 142.12365915391132,94.80824394359438 142.46305893696572,95.19392551524643 142.79474508858686,97.38459684223247 143.4658310232613,99.92238158370513 140.37266481860937,103.34723393997874 140.07954682415368,104.08002892611796Z"/>
    <path d="M188.79112932385263,84.68024587200199 189.0688200554417,85.16620465228425 189.60877425575546,88.30565264553492 191.45233216825378,90.23406050379683 191.37519585392292,90.82029649270821 192.7559358804394,90.51946486681976 192.3933952030862,91.4759551645177 193.72785344100285,92.83355429673374 194.19838495841907,93.95203085452611 198.23261419790342,95.40990719537183 199.22767265276676,96.85235627335202 198.80342292394818,97.82427383391601 198.70314571531853,99.38242738339193 196.39676991683731,102.9846932626255 192.4088224659517,106.50982282752821 190.93551886223992,111.09171989875905 197.291551163071,113.57550922020025 198.43316861516274,112.58045076533689 201.32578040255535,113.62179100879843 204.11040134988608,114.16945884054493 206.21622273110796,114.1308906833795 209.89562492467127,112.85042786549376 211.43063757984837,111.85536941063042 212.13257804025602,110.3974930697847 213.1507773894182,109.77268892370735 212.8268048692304,109.1710256719299 212.95022297215885,108.64649873448276 213.9529950584555,108.17596721706654 215.1408942991449,108.26081716283015 214.85548993612142,107.69772206821759 214.19983126431248,106.90321803061356 214.44666747017055,106.27841388453675 214.28468121007663,105.64589610702664 213.96842232132104,104.80511028082444 214.43124020730394,104.04146076895309 214.26925394721002,103.7637700373629 215.48800771363153,102.0821983849585 215.58828492226118,101.64252139327496 215.4417259250339,101.34940339881926 215.70398939375747,100.7863083042067 215.55743039652907,100.46233578401834 215.76569844522172,99.89924068940577 216.2208026997713,99.27443654332896 217.37784741472856,98.78076413161394 217.13101120887052,98.51850066289036 215.53428950223025,98.21766903700137 215.7502711823551,97.81656020248326 217.1232975774383,98.125105459805 218.83572375557483,97.61600578522392 220.25503193925564,96.8137881161866 221.2346631312524,97.09919247920953 221.3812221284808,97.523442208027 221.0881041340251,98.32565987706434 218.88200554417244,99.33614559479375 217.53983367482246,100.12293600096447 217.61696998915332,100.82487646137157 217.38556104616188,102.20561648788753 217.5861154634212,102.63757984813832 217.45498372905942,104.24972881764518 217.1387248403038,104.6662649150299 216.3442208026998,105.07508738098132 216.59105700855784,105.46848258406668 216.66819332288762,106.10871399300954 216.96131131734438,106.20127757020646 217.2852838375322,107.37374954802976 217.20814752320135,108.98589851753663 218.3651922381586,110.20465228395813 222.04459443172303,111.04543811016033 222.29914426901328,114.22345426057642 221.18066771122147,115.13366276967616 220.7795588767028,115.89731228154751 220.87983608533247,116.58382547908911 220.59443172230897,117.27805230806347 220.52500903941254,118.0262745570693 220.87212245389915,118.57394238881527 221.61263107147224,119.05218753766424 223.11678920091614,119.00590574906605 226.47993250572495,117.90285645414028 227.1895865975659,118.25768350006076 228.0920814752318,118.38881523442255 229.7967940219361,117.98770639990389 231.76377003736292,117.80257924551061 235.7285765939497,116.54525732192369 236.35338074002652,116.60696637338793 237.61070266361344,115.2030854525737 237.2250210919614,114.77112209232293 238.41292033265077,113.64493190309778 242.23116789200918,112.88899602265919 242.83283114378716,113.49837290586994 244.92322526214355,113.93804989755348 245.41689767385856,113.76835000602627 246.32710618295775,114.38544052067031 248.30950946125117,114.63227672652783 249.38941786187758,114.32373146920608 249.68253585633434,112.58045076533689 251.2484030372425,111.74737857056799 253.66276967578668,111.78594672773286 254.67325539351552,110.63661564420892 255.6914547426788,110.62118838134285 256,109.34072556345711 255.62974569121346,108.70049415451369 253.03796552970985,104.99795106665101 253.74761962154972,96.01928407858257 252.13547065204287,91.42967337591897 244.50668916475826,84.20971435458632 237.6878389779443,80.01349885500808 221.65891286006988,72.59298541641556 220.27045920212117,74.32855248885144 215.07918524768067,75.01506568639304 209.99590213330092,77.34458237917363 204.69663733879744,84.78052308063165 201.7191756056407,82.6515608051104 200.52356273351802,83.09123779679395 197.69265999758966,82.92925153670004 195.54827045920234,84.01687356875975 192.99505845486308,83.31493310835265 189.61648788718875,83.53091478847803 188.79112932385263,84.68024587200199Z"/>
  </g>
</svg>