<?xml version="1.0" encoding="UTF-8" standalone="no"?>
<svg viewBox="0 0 256 61.94654356870111" xmlns="http://www.w3.org/2000/svg">
  <style>
    g.zone {
      fill: lightgray;
      stroke-width: 2;
      stroke-linecap: square;
      stroke-linejoin: bevel;
      stroke-miterlimit: 3;
      stroke-opacity: 0.8;
      stroke: black;
      fill-opacity: 0.3;
    }
  </style>
  <g class="zone" id="zone">
    <path d="M0,26.581865846013745 6.156721946772022,33.356205239262266 6.891054501244268,37.21266693261897 6.657624285253474,38.29714481107879 7.066127163238053,38.62783761706644 7.216884177732625,39.23572880454402 7.075853422238016,39.92143006401852 8.320814574191676,43.4569252103872 8.126289394198658,44.17666837636054 8.330540833190947,44.97908474383079 8.306225185691732,45.407040139814946 8.442392811687053,45.762048593301806 8.957884538667757,46.3650766512794 9.847837237134556,46.968104709257 10.00832051062909,47.123724853251204 10.21257194962138,47.1966717957485 10.606485439106706,47.82887863072495 10.723200547102103,48.09148762371528 10.849641914097461,48.22765524971026 10.873957561596674,48.49026424270059 10.815600007598976,48.72369445869173 10.801010619099724,49.127334207177014 10.562717273608259,49.389943200167004 10.596759180106744,50.294485287133746 9.760300906138355,50.76134571911637 9.439334359149976,50.737030071617156 9.011378963166166,51.10662791360362 9.001652704166203,51.76801352557891 9.12323094166158,52.429399137554206 9.38583993465226,53.003248418532955 9.030831481165398,53.63545525350975 7.985258638704047,54.70534374346997 7.844227883209436,55.78009536293017 8.058205581200996,56.460933492904694 8.529929142683946,56.85971011189 8.8314431716724,57.34115993237222 9.1183678121616,57.48219068786683 10.43141277711292,58.372143386333974 12.347485800041838,59.02866586880929 13.903687239984604,59.967249862274514 13.88909785148466,60.75021371174554 14.584525369959131,61.9222279212019 102.95731464067943,61.883322885203434 118.79652742159149,61.92709105070188 157.5070382401552,61.93195418020186 187.7605668585319,61.839554719704985 227.91542713854224,61.94654356870111 256,61.87359662620382 254.22009460306572,58.38673277483323 255.74711726600927,53.99046370699626 252.53745179612827,50.59113618662256 251.93928686765065,46.44288672327668 249.43963830474337,44.71647575084045 249.47368021124186,42.90739157690766 250.51438992420324,42.605877547918865 250.08643452821943,39.61505290553009 251.51133147166615,34.84918599570666 250.16910772971633,34.60602952071591 247.88829999430058,35.50570847818233 245.52968218688792,35.24796261469197 244.3041735529335,34.34828365722521 242.91331851598525,32.74345092228506 242.85009783248756,31.834045705818678 245.6220816473848,31.182386352843 245.16981060390177,30.409148762371597 241.2355388385478,29.14959822191834 239.47508595961273,28.327729336448854 237.71949621017836,26.406793184019957 237.06783685720234,26.299804335024177 236.82468038221157,26.022605953534246 236.37240933872786,26.032332212533863 235.759655021751,25.925343363538083 235.40464656826413,26.275488687524962 233.94084458881824,26.299804335024177 229.79259512547202,27.257840846488637 228.0418685055376,27.350240306985164 227.4971980015577,28.25478239395156 226.6947816340871,28.570885811439958 226.5537508785925,29.018293725423344 225.94585969111492,29.319807754412146 224.71548792766052,29.19822951691642 222.20611310575396,28.449307573944232 220.05660986683355,29.441385991907524 219.57516004635133,30.28757052487622 218.88459565737685,30.321612431374703 218.11135806690615,31.542257935829497 216.87612317395175,32.44193689329626 215.46095248950428,32.94283923177771 214.60990482703596,33.759844987747215 214.73148306453132,34.294789232727496 215.4269105830051,34.601166391215926 215.52417317300197,35.15556315419544 215.23238540301278,35.8850325791684 214.7655249710298,36.00174768716414 214.07009745255604,36.376208658650235 213.55460572557465,37.59199103360505 213.14610284759004,37.96645200509114 211.05982029216733,37.840010638095784 209.751638456716,38.729963336562925 207.8890598582855,39.21627628654478 204.2952071579184,38.6229744875668 200.44360859406135,36.26921980965411 197.69594042666333,33.973822685739115 197.37011075017568,33.9932752037387 197.20476434718185,33.49723599475688 197.37983700917493,33.001196785775406 199.82112801808452,32.208506677304776 200.21017837806988,31.727056856822553 200.10318952907443,31.342869626336842 198.8582283771201,30.321612431374703 195.59506848274137,26.187952356528072 193.4066602078225,22.526015843164043 186.47670067057976,18.013031667331678 181.4239091202675,20.11876674075363 180.07682224881768,20.391101992743238 178.62760965787103,22.02511350468259 174.78573735301393,24.451815125092576 173.2781672080696,24.437225736593323 170.70557170266537,20.045819798256336 168.68250983074032,20.181987424250966 167.52022188028357,17.26410972435949 166.14881936133455,16.860469975874548 162.37016773997445,16.36929389639271 160.6048517315401,13.937729146482743 159.7100359035733,14.954123211945245 157.22983985866526,14.049581124978848 155.16787295074175,15.416120514427886 153.82564920879125,15.639824471419754 153.65543967629813,16.714576090879955 152.2305427328507,17.303014760357954 150.88831899090087,16.583271594384616 144.7170076556296,15.70790828441707 141.103702437264,15.639824471419754 138.9250204213444,16.09695864440276 138.5554225793583,10.071541194126423 135.63754487946647,3.6181683478659292 129.8017894796828,4.590794247829639 126.61157652780174,5.568283277293331 125.52709864934192,5.471020687297167 123.30951159742386,6.088638133774016 120.56184343002585,5.631503960791011 120.06580422104437,4.7415512623242115 118.66522292509616,4.230922664843143 117.24032598164942,4.260101441841992 115.72302957770582,7.1682528827341985 114.90116069223599,7.990121768203682 114.27381698675917,10.032636158127612 114.57046788624834,11.442943713075442 113.16016033130086,12.503105944036045 114.84280313823828,16.150453068900823 110.26173514940827,22.214775555175628 110.34440835090517,24.73387663608214 110.34440835090517,25.81835451454196 109.70733838642909,25.823217644041595 107.19310043502186,26.84933796850371 105.8897817290705,27.51558670997899 105.15544917459758,28.10888850895697 102.47100169069724,28.643832753937254 101.36707129423819,29.09124066792064 100.26314089777914,30.418875021371214 97.7780817233718,32.28631674930205 97.33067380938806,33.15681692976961 95.42919017495909,31.926445166315208 94.58786877149002,31.610341748827157 91.61649664710049,31.02676620884879 88.80560779620478,28.069983472958505 84.31207613837165,26.29007807602456 80.42157253851543,26.080963507532292 79.92067020003398,25.75999696054426 78.91400239357178,25.546019262552008 80.12005850952698,19.972872855759043 79.26414771755867,19.08778328679188 78.47145760908803,18.68414353830659 78.44714196158881,19.70540073326873 78.20398548659806,20.06040918675559 77.48424232062507,19.76375828726677 77.26053836363286,19.330939761782634 76.11770293117534,19.238540301286104 74.40101821773942,17.677475731844048 74.10436731825025,16.0434642199047 73.70072756976496,15.367489219429805 71.1962158773584,14.871450010448333 67.85038278148207,13.23743849850898 67.63640508349052,12.897019433521372 67.64613134248978,12.527421591535258 64.78661119659566,10.334150187116757 63.21095723865435,10.183393172622184 61.38728367622231,10.533538496609065 59.74840903478263,10.484907201610984 58.688246803822025,11.160882202085876 57.91014608385133,11.267871051082002 57.56486388936374,10.713474288102486 57.851788529853636,10.202845690621418 59.43230561729492,9.079462776163135 60.13745939476867,7.464903782223016 60.205543207766326,6.774339393248871 59.83594536577952,5.291084895803746 57.88096730685214,4.075302520848935 56.36853403240851,2.2516289584165463 54.1363575919912,1.31304496495132 52.26405273456073,1.4735282384455086 47.6829847457307,0.7051537774740875 47.20639805474846,0.2577458634906977 45.90307934879711,0 45.01312665032962,0.6127543169772136 43.315894454892934,1.0407097129613707 39.52751657453354,0.9969415474632698 37.407192112612336,1.4200338139474458 36.98896297562779,1.7993579149331753 35.23337322619272,1.9014836344296657 32.30576926730163,1.5221595334435905 29.533785452404395,2.3877965844115208 27.28215649398785,2.5774586349045583 23.352747858133853,0.9580365114644587 23.056096958644687,2.027925001425024 18.810584905302292,5.543967629794463 16.841017457875658,10.018046769628361 16.09695864440276,10.742653065101335 16.486009004388798,11.63260576356848 16.466556486389564,13.548678786497396 17.414866738854062,14.871450010448333 17.25438346536022,17.283562242358723 16.738891738378822,17.604528789346755 15.576603787922075,18.74736422180427 15.095153967439856,19.005110085294966 11.778499648563416,18.985657567295387 11.676373929067271,19.0829201572919 11.248418533082768,19.155867099789194 10.820463137098956,20.935772496723136 7.581618890218758,22.83239300165282 1.7701791379343264,24.388594441594897 0,26.581865846013745Z"/>
  </g>
</svg>