<?xml version="1.0" encoding="UTF-8" standalone="no"?>
<svg viewBox="0 0 256 230.50721649484424" xmlns="http://www.w3.org/2000/svg">
  <style>
    g.zone {
      fill: lightgray;
      stroke-width: 2;
      stroke-linecap: square;
      stroke-linejoin: bevel;
      stroke-miterlimit: 3;
      stroke-opacity: 0.8;
      stroke: black;
      fill-opacity: 0.3;
    }
  </style>
  <g class="zone" id="zone">
    <path d="M0,40.503092783505224 8.123711340206263,51.241237113401674 13.682474226805873,53.591752577319276 5.303092783505372,61.59175257731935 7.752577319589452,67.13402061855642 3.736082474228922,68.42061855670067 8.552577319587877,74.47422680412328 6.523711340207068,80.72577319587592 5.9216494845380785,87.28247422680397 4.173195876288878,90.8288659793812 1.0391752577336344,92.89896907216428 2.0453608247421804,97.0309278350509 22.927835051547945,96.09896907216442 32.618556701030656,101.1793814432983 57.286597938144766,109.75670103092706 63.75257731958938,113.16288659793791 88.84948453608276,116.37938144329827 92.3546391752595,118.47422680412339 102.07010309278428,124.45360824742217 108.89896907216502,126.26804123711275 114.936082474228,126.89484536082439 118.32577319587749,135.04329896907154 124.99793814432988,136.17319587628805 133.0474226804123,138.70515463917488 144.89896907216445,137.04742268041147 151.9917525773201,145.27010309278302 153.03092783505141,147.28247422680363 152.09896907216435,148.02474226804077 151.6948453608248,149.6907216494837 152.28041237113476,153.632989690721 154.02061855670092,154.73814432989602 142.7134020618553,166.00412371133936 142.35051546391685,170.71340206185468 146.3175257731956,173.22886597938074 145.78144329896975,177.47628865979286 144.69278350515435,179.15051546391646 144.05773195876262,183.50515463917458 147.1835051546395,186.87835051546327 147.71958762886536,188.758762886597 151.38969072164878,191.5793814432979 151.89278350515423,197.44329896907118 153.22886597938086,199.96701030927733 153.29484536082398,201.4680412371124 155.74432989690806,203.11752577319513 156.7257731958769,204.78350515463805 157.76494845360818,205.02268041237033 157.39381443298905,206.11134020618456 155.52989690721725,206.87835051546315 145.50103092783579,213.97113402061765 142.6804123711349,216.86597938144237 142.13608247422601,219.46391752577236 139.96701030927824,221.59175257731846 139.73608247422607,222.6721649484526 140.89072164948462,224.43711340206085 142.00412371133973,224.97319587628786 142.4659793814441,227.33195876288556 144.09072164948535,230.29278350515344 145.66597938144483,230.50721649484424 150.43298969072202,226.93608247422551 151.24123711340346,224.5690721649477 154.73814432989718,220.5443298969065 161.25360824742356,215.5051546391743 162.51546391752635,213.10515463917432 162.75463917525687,211.64536082474152 164.3711340206198,209.67422680412258 166.00412371133936,207.8432989690712 165.7402061855668,206.98556701030856 168.6432989690722,205.42680412371047 167.10103092783547,203.18350515463825 167.8350515463931,201.65773195876173 167.57113402061816,201.16288659793696 170.6391752577326,199.84329896907113 170.57319587628947,199.2907216494839 171.04329896907217,199.0762886597931 171.4639175257731,199.3484536082464 171.96701030927855,198.95257731958694 171.1587628865971,198.45773195876217 170.95257731958696,197.77319587628747 170.10309278350442,198.57319587628766 169.62474226804105,199.5628865979372 168.8247422680426,199.23298969072087 168.9567010309289,198.00412371133908 170.25979381443275,197.0969072164941 170.83711340206204,196.1649484536076 170.2432989690714,195.00206185566896 168.5195876288666,196.12371134020535 168.13195876288606,196.9731958762879 168.7587628865971,197.59999999999894 168.05773195876225,198.35876288659685 167.3979381443308,199.8927835051535 166.7298969072163,199.51340206185483 167.22474226804107,198.6391752577308 166.6061855670107,198.4082474226798 166.40000000000057,197.64948453608187 167.59587628866024,197.26185567010194 166.72164948453562,196.65154639175168 167.75257731958857,195.02680412371043 171.01030927835177,194.12783505154553 171.7690721649491,191.33195876288553 172.41237113402153,190.27628865979287 171.71134020618663,187.84329896907133 170.63092783505192,186.78762886597866 170.4247422680418,185.98762886597848 169.91340206185566,185.43505154639067 169.90515463917498,183.57113402061773 169.1134020618549,182.1443298969065 169.8639175257739,180.39587628865905 168.7670103092778,177.72371134020523 170.2020618556703,177.6247422680405 171.0020618556711,179.08453608247333 171.83505154639224,179.999999999999 171.0762886597949,181.4432989690716 171.49690721649583,183.06804123711288 172.71752577319518,183.96701030927778 172.10721649484552,184.89072164948357 172.12371134020688,185.37731958762822 172.7999999999997,186.22680412371076 174.3340206185581,189.52577319587562 176.00000000000043,190.39999999999904 176.56082474226835,193.3690721649476 177.1958762886601,194.91958762886503 178.061855670104,195.6371134020613 178.72164948453545,195.2907216494836 179.85154639175192,194.18556701030857 180.17319587628933,192.88247422680354 183.5711340206195,191.44742268041162 189.55876288659837,191.60412371133938 193.46804123711468,191.96701030927724 194.2597938144324,191.52989690721554 195.01855670103208,189.8804123711334 197.0804123711333,189.85567010309194 197.77319587628983,190.20206185566903 197.71546391752503,190.71340206185457 195.18350515463877,192.3793814432981 193.40206185566916,192.89072164948362 189.57525773195974,193.22886597938063 187.26597938144263,192.70927835051438 184.45360824742244,192.43711340206113 181.4680412371125,193.46804123711232 180.76701030927762,194.0453608247416 180.64329896907202,195.31546391752505 180.2144329896904,195.52989690721586 179.93402061855645,196.272164948453 180.14845360824725,196.75876288659708 179.5216494845362,197.95463917525672 175.95051546391866,201.12164948453528 173.40206185567104,206.07835051546297 169.01443298969136,207.24948453608172 168.21443298969058,208.70927835051455 164.98969072165013,211.8845360824732 165.31958762886586,212.31340206185482 164.72577319587757,214.1443298969062 165.10515463917505,214.42474226804015 162.04536082474365,217.6329896907204 156.89072164948593,221.03092783505056 154.21855670103037,224.65979381443174 155.10103092783564,225.05567010309178 154.02061855670092,226.1690721649475 152.96494845360826,228.32989690721575 154.23505154639173,228.94845360824613 158.1030927835046,230.13608247422567 160.04948453608324,230.47422680412265 163.80206185567118,229.07216494845233 167.93402061855664,228.79999999999905 170.50721649484632,228.76701030927748 174.76288659793738,229.27835051546302 178.1855670103096,229.9711340206178 179.50515463917483,230.49072164948345 182.9938144329902,228.8577319587621 184.2474226804123,228.9567010309268 199.1999999999993,222.18556701030855 199.8515463917524,219.95876288659713 205.84742268041197,215.66185567010206 208.00824742268142,214.77938144329795 214.74639175257695,214.41649484536006 224.45360824742338,211.71134020618467 241.79793814432966,188.36288659793755 256,180.1154639175251 255.94226804123755,174.82061855670042 254.9938144329891,172.0412371134012 253.45979381443306,171.84329896907118 248.24742268041288,165.83917525773091 240.02474226804074,160.2556701030922 228.0742268041227,146.5649484536074 214.15257731958866,141.8309278350512 199.95876288659898,120.6020618556695 187.0597938144325,118.85360824742206 175.02680412371228,112.49484536082403 168.65979381443358,100.28865979381409 147.67835051546427,95.95051546391734 138.36701030927904,91.16701030927821 119.62061855670068,94.58144329896858 100.09072164948525,86.77113402061842 99.13402061855612,73.86391752577302 75.55463917525742,59.16701030927791 77.39381443298947,33.30309278350475 75.08453608247471,30.276288659793735 70.35876288659863,16.61030927835041 56.64329896907235,16.61030927835041 45.88865979381629,14.738144329896777 36.618556701032155,0 25.954639175258954,6.465979381443438 24.016494845361006,8.890721649484288 14.531958762888413,13.237113402061714 10.837113402062922,16.148453608247223 9.360824742269331,18.795876288659564 8.94845360824909,20.849484536082432 6.474226804125296,21.84742268041205 6.111340206186827,23.084536082473946 8.717525773196911,24.923711340206008 8.214432989691467,26.012371134020242 6.738144329897875,26.573195876288732 5.946391752577792,31.57938144329878 4.461855670103516,32.42061855670063 7.917525773196142,35.21649484536064 7.975257731958601,36.59381443298951 1.2453608247437553,37.27010309278351 0.032989690722744484,38.13608247422683 0,40.503092783505224Z"/>
  </g>
</svg>