<?xml version="1.0" encoding="UTF-8" standalone="no"?>
<svg viewBox="0 0 256 134.5092887971479" xmlns="http://www.w3.org/2000/svg">
  <style>
    g.zone {
      fill: lightgray;
      stroke-width: 2;
      stroke-linecap: square;
      stroke-linejoin: bevel;
      stroke-miterlimit: 3;
      stroke-opacity: 0.8;
      stroke: black;
      fill-opacity: 0.3;
    }
  </style>
  <g class="zone" id="zone">
    <path d="M0,17.834490523550645 0.8767123287672138,18.95139801088406 1.3751172827926914,20.314505535748037 1.4291611934693509,21.497466691687254 2.6121223494085686,22.145993619816128 2.6421467442295037,23.809345092888176 3.008444361043378,24.451867142053118 10.022142991180235,25.83899418277367 19.155563895665395,30.294614374179048 21.101144680052442,31.627697504222514 22.470257083880778,33.17095139801082 26.505535747795193,34.8102833552263 24.69806717958325,35.57890786263848 23.623193844999058,40.66504034528051 24.043535372490446,41.751923437793415 22.950647401013182,43.60743103771851 21.85775942953677,44.592231187840326 22.944642522048824,47.594670669919346 24.181647588665555,49.28804653781233 23.809345092888176,51.82811033965117 23.929442672171064,53.8517545505723 25.322574591855975,56.90223306436491 25.676862450741133,57.94708200412859 27.063989491461687,59.1420529179961 27.70050666166227,60.75136048039063 27.208106586602007,61.075623944454854 27.340213923812755,62.05441921561274 26.463501595046395,62.817038844060995 26.277350347157277,63.35147307187091 22.410208294238906,64.92475136048058 21.581534997184846,65.8555075999253 21.119159316944664,67.96922499530882 21.413398386188806,68.38356164383586 20.896978795271107,70.17902045411908 20.52467629949373,74.53856258209815 19.864139613435714,74.99493338337398 18.26083693000596,78.00337774441735 17.16194407956434,80.633514730719 16.23719271908397,81.1799587164572 14.880090073184352,83.4618127228376 14.483768061550396,84.75286170013143 14.405704635016304,85.79170576093075 15.21636329517729,87.82135485081668 16.609495214862203,88.51191593169477 16.94576843685514,88.97429161193496 18.513041846500453,88.67404766372688 21.37136423344001,89.28654531807132 21.821730155751478,89.20247701257287 22.632388815913316,89.41264777631856 24.073559767311384,89.34659410771276 25.712891724526425,89.50272096078095 27.406267592418985,89.96509664102113 28.240945768436546,89.94708200412849 30.7930193282041,90.35541377369115 33.21899042972441,90.34940889472722 34.79827359729758,90.70970163257674 37.044098329893124,90.51754550572369 37.788703321448736,90.60161381122171 37.626571589416194,91.30418465002853 39.56614749483974,92.01876524676321 41.20547945205479,93.08162882341911 41.66785513229497,96.05404391067762 44.562206793018966,97.89153687371007 44.742353161943726,100.23343966973192 47.690748733346084,101.08613248264214 50.519046725464705,101.78269844248459 54.33814974666907,101.73465941077144 60.34903358979147,99.63895665228014 61.80221429911825,99.674985926065 64.2281854006377,101.85475699005475 65.63933195721569,102.4192156126856 67.50084443610429,102.59936198161036 69.10414711953489,101.89078626383962 72.30474760743088,102.02289360105122 73.3556014261585,103.72227434790771 75.35522612122392,104.97128917245273 77.21673860011252,107.9256896228186 79.13229498967948,109.0786263839373 80.12310001876523,109.16269468943533 80.26121223494118,109.65509476449644 79.63670482266846,111.33646087446071 79.11428035278641,112.11109026083726 78.45374366672925,112.20716832426356 78.06342653405879,112.65152936761153 78.30362169262543,112.96378307374746 78.28560705573321,113.8825295552639 78.9761681366113,114.32689059861144 83.82811033965106,116.32651529367644 86.60836930005652,116.09232501407416 90.03115030962694,115.0234565584539 93.64608744604996,115.49183711765843 95.81384875211141,115.36573465941076 96.33026834302912,114.89735410020666 98.94839557140205,114.37492963032503 103.6261962844814,114.42897354100211 105.72189904297227,113.90054419215612 106.8207918934139,113.14392944267223 108.430099455808,113.46218802777294 109.01857759429544,114.01463689247551 114.67517357853266,114.96340776881246 116.9870519797336,114.76524676299505 123.95271157815729,106.35841621317329 126.85306811784565,105.99211859635983 128.0660536686058,106.37042597110157 133.0921373616068,105.66185025333083 134.80953274535594,107.86564083317715 136.70707449802984,108.2679677237759 139.98573841245994,108.2679677237759 143.55864139613416,107.04297241508745 150.98667667479805,108.3100018765247 152.58997935822865,107.55939200600514 159.66372677800737,107.53537249014857 165.8247325952336,115.94220303997034 169.79395759054265,115.98423719271914 173.16869956839903,117.44342278100984 175.13229498967917,120.07355976731107 181.43141302308135,121.40063801839017 186.0311503096266,123.4603115030966 189.86826796772405,128.5824732595235 191.60968286732975,127.27340964533704 191.2433852505159,125.5319947457309 192.01801463689245,123.0099455807847 193.0328391818356,121.99512103584196 194.90636141865292,118.40420341527508 196.66579095515087,118.36817414149021 198.3951960968287,118.99868643272687 199.00769375117272,120.09757928316763 202.40045036592218,120.6620379057985 205.13867517357886,119.89941827735066 206.47776318258624,120.01951585663355 210.4169637830735,118.81253518483776 217.62281854006383,117.61155939200631 221.225745918559,125.58003377744448 221.68211671983482,133.02007881403665 224.37230249577834,132.4556201914058 228.83392756614765,132.53968849690384 236.454118971665,133.62056671045238 238.11146556577228,134.5092887971479 239.87089510227105,133.7826984424849 240.0810658660159,132.4556201914058 241.738412460124,132.1793957590543 244.2844811409272,130.4920247701261 247.3469694126481,131.60893225745951 248.45186714205323,130.35391255395015 250.63163820604254,133.3563520360296 255.29742916119403,133.96284481140967 256,131.63895665228003 255.1172827922693,129.86151247888947 252.94952148620783,126.59485832238722 252.90748733345902,124.56520923250173 253.50197035090997,123.53837492963069 251.99474573090652,122.49352598986701 252.01276036779873,121.85700881966599 251.64045787202136,119.9054231563146 250.68568211672005,119.31694501782717 250.82379433289603,118.23606680427861 247.46706699193098,118.82454494276604 246.9266278851567,118.53030587352232 244.5547006943139,112.53743666729258 250.42146744229686,108.6823043723025 249.31056483392737,108.16588478138522 251.2381309814222,106.3343966973167 252.83542878588844,104.5449427659974 252.57121411146608,104.37080127603701 252.5772189904296,103.63220116344533 252.0547945205484,103.13379620942028 251.0399699756052,102.55132294989679 250.41546256333248,101.43441546256336 249.53274535560178,101.26027397260296 247.6171889660348,101.59054231563154 247.5331206605372,102.23906924376085 243.8881591292924,102.27509851754571 241.45618314880858,98.69619065490713 244.83693000562934,96.19816100581751 248.89022330643684,95.43554137736925 247.88740851942237,93.76618502533327 248.6079939951214,93.31581910302138 247.9234377932068,92.23494088947282 248.44586226308886,90.91386751735807 246.7104522424475,90.31938449990629 246.19403265152982,89.47870144492437 246.13398386188794,88.68005254269124 245.03509101144718,86.80653030587351 238.2615875398761,88.15162319384525 238.4057046350164,85.8097203978234 237.08463126290124,84.65678363670511 236.62225558266104,83.32370050666165 234.0521673860013,81.61231000187688 234.80878213548561,80.3152561456187 234.11221617564314,79.88890973916338 229.77068868455672,79.94295364984046 227.87915181084634,80.53143178832832 226.2758491274166,79.33646087446081 222.9371364233438,78.34565584537465 219.1060236442107,73.58378682679684 221.0516044285986,69.21223494088949 222.9131169074872,68.22142991180331 222.53480953274547,66.38994182773523 223.20135109776697,64.63051229123687 219.17207731281692,63.23738037155196 209.4561831488087,61.17770688684553 205.7271533120663,59.520360292737834 202.2383186338905,58.91987239632211 199.0257083880658,58.673672358791556 197.3443422781011,59.11202852317516 198.2570838806536,59.77857008819668 198.31112779133025,59.93469694126486 198.48526928129152,59.988740851942374 198.63539125539535,60.180896978795424 198.8335522612123,60.30699943704267 198.85156689810452,60.337023831863604 198.74347907675036,60.397072621505046 198.68943516607285,60.553199474573226 198.74948395571386,60.69131169074876 199.1398010883843,60.745355601426276 199.28391818352463,60.84743854381694 199.62619628448107,60.9615312441359 199.74629386376483,61.057609307562636 199.4100206417719,61.31581910302148 199.4100206417719,61.393882529555576 199.51810846312605,61.45393131919702 199.44604991555633,61.61606305122913 199.3079376993812,61.69412647776322 199.2538937887037,61.79020454118996 199.59617188966016,61.85625820979576 199.97447926440273,62.04240945768445 199.86639144304772,62.16250703696777 199.854381685119,62.26458997935843 200.20266466504066,62.75699005441955 199.9984987802593,62.90711202852337 200.01050853818717,63.165321823982225 200.19665978607628,63.28541940326511 200.39482079189327,63.50759992493909 200.5389378870336,63.56764871458096 200.3467817601801,63.68174141489992 200.60499155563895,64.06004878964166 200.53293300806922,64.16813661099668 200.38881591292977,64.18014636892497 200.26271345468166,64.26421467442299 200.6770501032087,64.33627322199315 200.9532745355606,64.47438543816868 200.92925501970404,64.62450741227251 201.05535747795128,64.78663914430504 201.0313379620947,64.89472696565964 201.17545505723416,64.94877087633716 201.18746481516288,65.0448489397639 201.27753799962483,65.08087821354876 200.85119159316994,65.27303434040181 200.5389378870336,65.32707825107933 200.43685494464293,65.45318070932657 199.66222555826639,65.70538562582107 199.21185963595406,65.78945393131951 198.95965471945956,65.9635954212799 198.8575717770689,65.93357102645898 198.6474010133232,66.03565396885007 198.45524488647058,66.04165884781399 198.34715706511554,66.16776130606124 198.10696190654892,66.26984424845192 197.36836179395766,66.28785888534456 196.33552261212228,66.42597110152009 196.25145430662468,66.66016138112236 195.73503471570697,67.23062488271758 195.39876149371403,67.29067367235902 195.20660536686057,67.37474197785704 195.04447363482802,67.38675173578532 194.8943516607242,67.26064927753808 194.75023456558475,67.21861512478885 194.3899418277352,67.25464439857416 194.19778570088175,67.35672734096482 194.02364421092136,67.24263464064586 193.80746856821216,67.17658097204006 193.68737098892842,66.92437605554514 193.61531244135867,66.88234190279634 193.6693563520362,66.6661662600863 193.58528804653776,66.60011259148092 193.58528804653776,66.35991743291429 193.66335147307183,66.31788328016549 193.711390504785,66.2398198536314 193.6813661099649,66.2158003377744 193.36911240382855,66.01763933195743 193.21899042972387,65.78344905235515 193.0748733345844,65.68136610996449 192.25820979545907,65.5372490148246 191.9459560893227,65.33308313004325 191.85588290486075,65.31506849315103 191.67573653593598,65.01482454494297 191.62769750422197,64.64852692812909 191.81384875211108,64.31825858510051 191.9699756051793,64.1981610058172 192.1561268530684,64.12610245824746 192.24620003753034,63.85588290486032 192.21617564271025,63.64571214111463 192.09607806342652,63.56764871458096 192.0780634265343,63.29142428222947 191.2974291611934,63.0151998498784 191.03921936573454,62.997185212985755 190.79902420716877,62.8830925126668 190.33064364796422,62.79902420716835 189.7841996622256,62.85907299681022 189.75417526740466,62.97917057609311 189.70013135672716,62.997185212985755 189.32782886094978,62.94314130230824 189.24376055545133,63.0151998498784 188.75736535935457,63.13529742916129 187.44229686620375,63.11127791330471 187.20210170763798,63.147307187089574 186.97992118596355,63.35747795083527 186.6616626008637,63.42953649840501 186.57759429536526,63.53161944079567 186.559579658473,63.639707262150694 186.63163820604277,63.80784387314716 186.82379433289537,63.85588290486032 186.99793582285662,64.00600487896415 187.16006755488831,64.04203415274944 187.1840870707449,64.12009757928352 187.3582285607053,64.27021955338735 187.53837492963007,64.87671232876743 187.4663163820603,65.02683430287125 187.20810658660147,65.11090260836927 187.0820041283542,65.2189904297243 187.0880090073186,65.27303434040181 187.17808219178053,65.32707825107933 186.8958528804651,65.51923437793236 186.87183336460853,65.67536123100055 186.38543816851177,65.75342465753421 186.03715518859096,66.02364421092135 185.85700881966622,66.08969787952715 185.77894539313212,66.20979545881046 185.69487708763367,66.22180521673876 185.52674047663763,66.2158003377744 185.3225745918563,66.05366860574229 185.05235503846873,66.14374179020467 184.9923062488277,66.1077125164198 184.9382623381502,65.8675173578536 184.77613060611768,65.78344905235515 184.22368174141468,65.81947832614001 184.04954025145426,65.9635954212799 183.5631450553575,65.74741977857029 183.28692062300644,65.76543441546293 183.202852317508,65.6573465941079 183.22687183336458,65.33908800900761 183.1608181647592,65.27303434040181 183.24488647025765,65.06286357665611 183.1608181647592,64.94276599737323 182.9506474010135,64.81666353912556 182.61437417902056,64.79864890223334 182.3381497466695,64.53443422781012 182.23006192531446,64.50440983298962 182.1820228936013,64.37230249577802 182.2240570463501,64.24620003753077 182.0319009194975,64.03002439482115 176.57346594107722,65.11090260836927 176.20116344529984,64.99080502908639 175.80484143366505,65.25501970350916 175.5826609119915,65.17695627697508 175.5106023644209,65.09288797147705 175.25239256896205,64.97279039219374 174.6098705197971,65.00281478701467 174.39969975605226,64.93075623944452 174.20153875023445,64.94877087633716 174.06943141302284,64.900731844624 173.97935822856087,64.80465378119727 173.52899230624857,64.82867329705384 173.28279226871842,64.78663914430504 172.91048977294105,64.91274160255229 172.5742165509481,64.900731844624 172.388065303059,64.94877087633716 172.23193844999082,64.93075623944452 171.90167010696223,64.7686245074124 171.8596359542126,64.5164195909179 171.97372865453195,64.32426346406487 172.28598236066833,64.09607806342652 172.68230437230227,63.9459560893227 172.79639707262166,63.78382435729059 172.86845562019138,63.501595045975165 173.16269468943554,63.44755113529765 173.37887033214474,63.26139988740854 173.80521673860048,63.07524863951984 174.02739726027403,62.89510227059509 174.23756802401974,62.46275098517541 174.21955338712752,62.12047288421854 174.2976168136616,61.95233627322207 174.65190467254675,61.742165509476806 174.67592418840334,61.676111840871 174.1715143554135,61.399887408519504 173.91930943891902,61.35785325577028 173.75117282792297,61.00356539688512 173.72715331206638,60.75136048039063 174.16550947644998,60.421092137361626 174.49577781947858,60.300994558078735 174.48977294051423,59.988740851942374 174.58585100394052,59.79057984612497 174.54381685119174,59.676487145806014 174.35166072433825,59.520360292737834 174.5137924563708,59.29817977106428 174.45374366672894,59.190091949709256 174.02739726027403,59.06999437042594 173.69712891724546,59.03996997560543 173.58904109589042,58.94989679114305 173.52899230624857,58.80577969600316 173.02458247325958,58.52955526365209 172.11784574967143,58.48752111090287 172.10583599174356,58.21129667855137 171.57740664289716,55.62319384499938 170.9528992306253,55.22086695440064 170.85081628823463,55.01069619065495 170.89885531994776,54.83054982173019 170.50253330831296,54.68643272659072 169.98010883843176,54.65640833176979 169.4336648526931,54.44023268906016 169.41565021580004,54.17601801463696 169.799962469507,54.01989116156877 169.99812347532398,53.9958716457122 170.31037718146035,53.83974479264402 170.4004503659223,53.72565209232506 170.56258209795482,53.64758866579097 170.63464064552457,53.52749108650808 170.8147870144493,53.44342278100963 170.80878213548496,53.26327641208488 170.67066991930986,53.017076374554314 170.71270407205864,52.89097391630707 170.4544942765998,52.770876337024184 170.23231375492625,52.59673484706335 170.48451867142074,51.99624695064764 170.31037718146035,51.85212985550775 170.2623381497472,51.738037155188785 170.04015762807276,51.49183711765823 170.2623381497472,51.33571026459005 170.51454306624169,51.257646838055955 170.55057234002612,50.96340776881224 170.88084068305469,50.78926627885184 170.8388065303059,50.55507599924957 170.15425032839215,50.38093450928874 169.78795271157827,50.38093450928874 169.38562582097998,50.2548320510415 169.21748920998309,50.158753987615185 169.1514355413777,50.03265152936794 168.72508913492194,49.822480765622245 168.70707449802973,49.74441733908816 168.8872208669545,49.61231000187655 168.86920623006228,49.43816851191615 168.941264777632,49.29405141677626 168.88121598799015,49.03584162131742 168.64702570838787,48.99380746856819 168.41884030774995,49.02383186338913 167.88440607994002,49.25201726402704 167.49408894726957,49.10189528992321 166.75548883467832,48.98780258960426 166.4612497654342,48.83768061550044 166.37117658097225,48.5974854569338 166.41321073372103,48.3572902983676 166.47926440232726,48.24920247701258 166.5933571026458,48.19515856633549 166.54531807093264,48.02101707637467 166.28110339650942,48.06905610808782 165.84274723212582,47.88290486019913 165.29630324638805,47.93694877087665 164.30549821730145,47.510602364421324 164.12535184837668,47.31844623756828 163.98723963220158,46.91011446800561 164.25145430662394,46.778007130794 164.29348845937358,46.71795834115213 164.3115030962658,46.483768061550286 164.50365922311929,46.39969975605184 164.41358603865646,46.20153875023486 164.31750797523017,46.1294802026647 164.23343966973172,46.16550947644957 164.07731281666352,46.14148996059299 163.74103959467058,45.97935822856088 163.44079564646296,45.991367986489166 162.96641020829404,45.847250891349276 162.73822480765614,45.60105085381872 162.74422968662049,45.40288984800174 162.5881028335523,45.2407581159692 162.5340589228748,45.090636141865374 162.4379808594485,45.02458247325958 162.41396134359192,44.940514167761556 162.5160442859826,44.75436291987244 162.08969787952682,44.64027021955348 161.54925877275255,44.376055545130704 161.5012197410394,44.32801651341712 161.51923437793246,44.183899418277655 161.47720022518283,44.111840870707496 160.93075623944506,43.96171889660367 160.5824732595234,43.91367986489052 160.19215612685295,43.9376993807471 160.0840683054979,43.883655470069584 160.0240195158569,43.75755301182234 159.89791705760965,43.63745543253902 159.87389754175308,43.49333833739913 159.7778194783259,43.43929442672204 159.66973165697175,43.27115781572557 159.71176580972053,43.16907487333491 159.89791705760965,43.030962657158945 159.90392193657402,42.84481140927026 159.77181459936241,42.67066991930943 159.50159504597485,42.53856258209825 159.35147307187103,42.40645524488665 159.91593169450186,42.11822105460686 160.0000000000003,41.91405516982553 160.2341902796026,41.72189904297248 160.66053668605747,41.73390880090077 160.73259523362722,41.84800150121973 160.9667855132295,41.78194783261436 161.05085381872794,41.74591855882906 161.09288797147673,41.46969412647799 161.53124413586033,41.30155751548152 161.70538562582075,41.18746481516256 161.72940514167732,41.10940138862848 162.05967348470676,41.13342090448505 162.25182961155937,41.06736723587925 162.46200037530505,41.091386751735826 162.6661662600864,40.96528429348859 162.9544004503662,40.96528429348859 163.1825858510041,40.91724526177543 163.3687370988932,40.75511352974289 163.5308688309249,40.76111840870725 163.73503471570623,40.2627134546822 164.14336648526975,40.220679301932975 164.269468943517,40.352786639144576 164.17339088008984,40.42484518671431 164.16138112216197,40.56295740288984 164.269468943517,40.66504034528051 165.33233252017249,40.98329893038123 165.31431788328027,41.04334772002267 165.43441546256315,41.36160630512297 165.35034715706556,41.53574779508379 165.72865453180728,42.02214299118056 165.72865453180728,42.2142991180336 165.9027960217677,42.38243572903007 166.21504972790405,42.556577218990476 166.79752298742713,42.7727528617001 167.02570838806503,43.006943141302365 167.28992306248824,42.99493338337408 167.57815725276802,43.16306999437055 167.6802401951587,43.08500656783646 167.96847438543847,43.018952899230655 168.082567085757,42.850816288234185 168.09457684368573,42.74873334584352 168.388815912929,42.56858697691876 168.5809720397825,42.56258209795483 168.55094764496155,42.64665040345285 168.58697691874684,42.74873334584352 169.50572340026287,43.343216363295305 169.6738600112589,43.54137736911271 169.79395759054265,43.58941640082587 170.2022893601053,43.571401763933224 170.38243572903008,43.63145055357509 170.6226308875967,43.82360668042814 171.04297241508723,44.02176768624512 171.43929442672206,44.32201163445319 171.85363107524907,44.18990429724158 172.24995308688304,44.28598236066832 172.5742165509481,44.279977481703966 173.10264589979366,44.063801838994344 173.35485081628815,44.051792081066054 173.52899230624857,43.97973353349632 174.52580221429952,44.123850628635786 175.5226121223496,43.99774817038854 176.56145618314852,44.003753049352895 176.91574404203453,43.90767498592616 177.29405141677626,43.727528617001404 177.39613435916692,43.559392006004934 177.9245637080125,43.64346031150338 178.21279789829228,43.60142615875416 178.56108087821391,43.703509101144824 178.7472321261022,43.691499343216535 178.9153687370991,43.56539688496929 179.0654907112029,43.28316757365386 179.43779320698115,43.31319196847437 179.7020078814035,43.19309438919149 179.74404203415315,43.11503096265739 179.85212985550731,43.06098705197988 179.7800713079376,42.9709138675175 179.87014449240039,42.77875774066445 179.76806155000972,42.70069431413037 180.03227622443208,42.7727528617001 180.48864702570876,42.71870895102301 180.57271533120635,42.61062112966798 180.58472508913508,42.50253330831296 180.8549446425218,42.220303996997536 181.3053105648341,42.148245449427804 181.5755301182208,41.84800150121973 185.96509664102123,41.583786826796945 185.838994182774,40.947269656595935 186.43948207918928,40.08256708575744 186.93188215425042,39.62619628448118 187.17808219178053,39.33195721523747 187.84462375680292,39.16982548320536 188.19891161568808,38.785513229499266 188.58322386939417,38.74948395571397 188.59523362732202,38.49727903921948 188.89547757553052,38.32313754925908 189.453931319197,37.656595984237136 186.99193094389227,35.26064927753819 181.80371551885958,28.162882341902883 180.86695440045048,28.084818915368793 178.8132857947084,26.871833364609067 174.32163632951818,25.04034528054055 173.30080690561064,23.653218239819996 173.61906549071136,22.998686432726764 172.08782135485134,21.53349596547212 169.35560142615904,20.53668605742159 156.97954588102823,14.946143741790154 154.60761869018629,14.405704635015878 148.3925689622817,10.14224057046355 146.33890035653963,9.637830737474141 140.30399699756066,7.169825483205038 133.8907862638391,4.449615312441444 129.753424657534,3.1705760930759164 128.12610245824766,0 120.79414524301009,4.617751923437914 120.87220866954418,5.338337399136947 118.90260836930057,6.581347344717608 120.7581159692248,9.445674610621095 120.18765246763044,16.255207355977042 115.9902420716835,19.798085944830337 109.22874835804113,17.720397823231686 104.48489397635554,17.552261212235216 98.41396134359212,14.80803152561462 96.41433664852671,15.600675548883812 90.09119909926795,14.435729029836814 87.0167010696192,19.593920060049 77.30681178457532,19.69600300243967 74.35841621317296,13.450928879715 73.74591855882895,11.193094389191165 74.25032839181878,10.706699193094403 71.60818164758844,9.403640457872298 67.26665415650201,10.004128354288016 64.77462938637633,10.562582097954937 59.220116344529764,7.524113342090624 57.79095515106041,4.851942203040185 46.54381685119131,1.4711953462190015 38.863576656032926,5.878776505911222 32.01200975792861,6.521298555076164 25.52674047663731,9.613811221617564 19.984237192719455,13.589041095890535 15.030212047288174,13.444924000750643 0,17.834490523550645Z"/>
  </g>
</svg>