<?xml version="1.0" encoding="UTF-8" standalone="no"?>
<svg viewBox="0 0 256 219.68839685836053" xmlns="http://www.w3.org/2000/svg">
  <style>
    g.zone {
      fill: lightgray;
      stroke-width: 2;
      stroke-linecap: square;
      stroke-linejoin: bevel;
      stroke-miterlimit: 3;
      stroke-opacity: 0.8;
      stroke: black;
      fill-opacity: 0.3;
    }
  </style>
  <g class="zone" id="zone">
    <path d="M0,7.351061005886714 2.774136127289542,12.335711943537861 6.343737801165247,15.513576815576792 15.225770185656941,21.249722842465093 22.3689708477118,28.372936932998165 26.578142810299422,35.68002748153559 27.745358587199437,40.94848773480314 29.56413659572512,44.23827740736674 34.94052433521276,48.735255999875065 41.656012366691286,56.29417734959306 42.05974111144067,59.02834033383819 45.005761753821666,60.707212341707674 44.69796855237889,64.17288384366731 47.36017987914405,67.86640226098088 47.70794622363096,70.36472370126317 46.95245382009007,72.3154130818356 48.671298971003985,77.51991630623151 46.72860421904073,81.46526552472537 42.45947254188605,83.86365410739647 41.04442327811032,85.50655028652612 42.31157191262154,87.2373873803538 43.506768889652506,89.20406601814398 48.70327748543953,88.43658167168905 55.04301797230019,87.9728932123729 58.89642896179173,88.6084661867805 62.37808972096885,90.65509111065982 63.09360898146559,92.4338959761408 63.15356869603266,93.45720843808061 62.35010852083789,96.559124338335 65.47201099261434,97.51448245709885 66.2195087675472,98.4658432615584 65.82777196571043,98.94951829239722 66.00765110941104,99.28929000827553 66.56727511203411,99.50914229502028 66.58326436925189,100.36856487047753 66.99898505691503,100.86822915853382 67.93435660415653,100.8722264728384 68.66986243617563,101.9115281919957 68.25813906281708,102.7869400246707 68.47399403525782,103.15869025498483 68.06626797620385,103.7143169433036 68.4380182065177,104.66967506206747 68.36606654903744,105.15335009290627 68.01030557594136,105.46514060865334 68.30210952016637,105.95681026810104 71.1881704479803,107.28791593148333 76.38467904376789,108.16732507846264 77.43197539153377,108.84287119591497 78.94296019861669,109.15865902596663 79.4746030011088,109.54639851349853 79.6225036303733,110.0460628015551 79.12683665662132,110.30588823134428 78.82304076948313,111.1813000640193 77.7597551644989,112.4044782411815 77.09620098996005,113.4317880174256 77.51591899192721,114.56702527988979 77.32005059100939,114.8548319098105 77.83570413628374,115.57035117030725 78.17147853785745,115.68627328513622 78.30738722420878,116.51371734615792 78.12750808050873,116.7695454616428 78.97893602735681,118.60031541308167 78.5871992255206,119.63961713223895 78.13950002342192,120.06732976281529 76.04091001358499,119.96739690520408 75.59720812579089,120.18325187764454 75.85303624127577,120.65893227987418 76.33271395780999,121.0826475961462 77.18813921896265,121.42241931202452 77.86768265071927,122.27784457317718 78.76308105491664,122.87744171884495 80.60984026357328,123.06131817684958 82.33668004309635,123.02534234810975 84.82300954046491,124.40041846884105 85.23473291382346,124.72819824180617 84.15945536592606,125.8914167044016 82.96425838889509,126.91872648064572 81.75307215464635,127.85010071358292 81.0455475227582,128.15789391502568 81.22542666645882,128.76948300360664 81.69710975438387,129.29313117748987 82.99623690333063,130.08459940977147 83.16812141842207,130.42836843995406 82.77638461658587,131.26380712958465 83.20009993285761,131.83542307512118 86.93758880752019,133.57825211186204 87.10947332261163,133.96998891369824 87.02952703652221,135.23314023390517 87.90493886919722,136.0605842949266 87.88495229767487,136.43633183954503 86.99355120778266,136.66018144059436 86.82166669269121,136.85604984151246 87.01753509360903,138.37103196289968 86.86163983573535,138.57089767812235 86.32999703324325,138.71480099308258 86.14212326093401,138.98262105148092 86.43392720515902,139.23045453835692 86.41394063363667,139.49427728245067 86.30601314741686,139.674156426151 86.549849319988,139.86203019846022 87.62912418219,140.45763002982343 89.09613853192418,140.8613587745731 90.85895414018738,141.11718689005798 91.35861842824339,142.70412066892544 92.01417797417365,144.27906250487942 93.73302312508812,145.8140311977887 98.1660446887251,146.02988617022916 97.93420045906659,146.61349405867918 96.37924519463495,147.40895960526504 96.27931233702374,148.10049497993515 95.37192198991319,148.83200349764965 95.4318817044797,149.47956841497103 96.85892291116917,150.03119778898522 97.14672954108958,150.80667676404903 96.94686382586718,152.07782271286453 100.24065081273508,154.12045032243927 101.09607607388774,154.14043689396163 101.5597645332042,154.3922676951422 101.2599659603706,155.05981918398564 99.60108052402317,156.47886576206596 100.60440641444033,157.8339553112749 100.59641178583173,158.51349874303182 101.22798744593506,159.3169589182266 100.58441984291798,161.05179332635853 100.53645207126468,162.36690973252308 104.48979591836742,164.46949705666486 106.62436175694448,164.753306372281 108.83487656730637,165.94450603500738 111.49708789407151,167.04376746873174 114.37115687897226,169.58206205205846 116.14596443014865,169.86187405337 118.33649266898819,171.54074606123976 128.86142123260953,170.67332885717394 129.88473369454906,171.16899583092592 130.46834158299907,171.9124962915539 130.80011867026877,172.81988663866446 130.83609449900834,173.60735755664146 131.62356541698531,174.03906750152208 131.64355198850768,175.1463235638553 131.88738816107937,175.57403619443164 136.55625126867886,176.49741579875996 142.63616632575005,179.46342301266301 143.93129616039224,180.3508267882515 144.84268382180736,181.37813656449532 147.5288790343989,182.4694033696108 146.32568742875876,182.98105960058055 145.610168168262,186.36678481645106 145.88998016957382,187.09029870555696 145.16246896616332,188.32546882563264 144.43495776275338,188.98102837156262 145.15847165185875,190.97968552378836 145.98191839857586,192.10692815764395 145.73408491170014,193.7977921084269 145.81403119778898,195.14488702902696 146.7414081164219,197.17552269568853 146.97724966038442,197.8710553846632 147.90062926471273,198.66652093124907 148.32434458098447,199.73780116484218 147.9965648080199,199.95365613728237 148.08450572271738,200.60521836890803 147.50089783426793,201.1128772855735 147.3769810908298,201.46863825866959 144.80271067876265,202.51593460643602 144.2510813047482,203.13551832362617 143.9432881033054,204.542572958793 144.1391565042238,204.81838764580024 143.7953874740409,206.01358462283122 143.5475539871652,208.9156348078632 143.1078494136751,209.21943069500136 142.04056649438687,211.22208516153168 141.30905797667177,212.9729088268817 140.69347157378624,213.3366644285867 139.79007854098026,214.85564386427848 139.5262557968868,215.71506643973544 139.4742907109289,216.40660181440552 140.0139281420296,217.75769404931046 140.9413050606625,218.21738519432233 141.16515466171185,218.5251783957651 142.20845369517372,218.32531268054242 144.11117530409285,218.73303873959668 144.41097387692645,218.6770763393342 144.95061130802773,218.8169823399901 145.90996674109618,218.7730118826411 147.00123354621135,218.87694205455688 148.12847618006666,219.18473525599964 148.68410286838514,219.1727433130862 150.3829614477773,219.44456068578884 151.99787642677597,219.44056337148453 153.04917008884644,219.68040222975165 154.5441656387116,219.5524881720092 155.03983261246358,219.6084505722714 156.50284964789262,219.68839685836053 159.71669034867224,218.4852052527204 163.9538435113908,214.71973517792716 164.85723654419678,213.48456505785148 166.22831535062377,212.46524991021624 167.04376746873174,212.31734928095145 171.98045063472986,209.8829848695405 177.1130022016458,210.40263572911917 179.87114907171755,211.82168230719947 180.0989959870715,214.77969489249392 182.2495510828663,215.23538872320123 187.717877051356,213.5325328295048 190.9317177521356,212.90095716940147 192.28680730134428,212.26938150929814 193.202192277064,212.1374701372511 196.49997657823647,210.29870555720336 199.89769373702075,209.75906812610236 201.8523804318972,207.75241634526776 203.5392470683761,206.98493199881312 204.12685227113013,206.28540199553385 205.74176725012885,205.489936448948 206.58520056836832,205.47394719173022 208.5119060631138,206.50525428227888 210.11482909919874,206.76108239776377 211.74173602111063,206.4572865106253 213.7124119732054,207.7764002310944 213.5525194010277,208.10418000405954 213.88429648829685,208.47593023437338 214.5998157487936,208.39598394828454 215.73905032556266,208.06420686101484 216.6424433583686,207.56853988726283 216.8982714738535,207.2927252002559 217.57781490561013,207.05288634198877 218.0255141077088,207.04489171337988 218.64110051059436,206.7570850834592 219.51251502896477,206.70911731180587 222.0588042409004,205.91365176522 223.13408178879837,205.78973502178187 223.3699233327609,205.54989616351475 224.14140499352013,205.29007073372557 224.60509345283657,205.1741486188963 225.50049185703338,205.58986930655945 226.27996814640176,205.60186124947265 226.74365660571823,205.86568399356642 227.31127523695045,205.90165982230653 229.6616960479677,204.8863419889759 234.2106397264336,203.87102415564527 235.45380447511846,203.43531689645977 235.7895788766922,202.40400980591136 237.0687194541166,201.00095248504883 238.5317364895462,200.01361585184915 240.91813312930356,199.1022281904343 242.88481176709374,198.08691035710365 243.17261839701473,197.479318582827 244.2678825164345,197.15153880986188 244.09999531564708,196.32409474884045 243.6842746279845,196.0562746904421 243.61632028480884,195.9163686897862 243.64829879924437,195.79644926065262 243.38447605515032,195.700513717346 243.14063988257863,195.700513717346 242.9447714816608,195.65254594569242 242.7049326233937,195.55661040238553 242.64897022313122,195.45268023046972 242.6609621660444,195.36074200146743 242.91679028152984,195.25681182955162 243.0487016535766,195.24082257233385 243.25656199740817,195.13689240041808 243.31652171197464,195.06094342863352 243.42444919819502,195.00897834267565 243.47241696984833,194.92903205658678 243.5923363989819,194.8730696563243 243.5883390846773,194.75315022719076 243.49640085567526,194.5892603407082 243.52438205580623,194.50531674031475 243.35249754071478,194.4253704542259 243.20459691145027,194.30944833939665 243.37248411223715,193.90971690895157 243.25656199740817,193.81378136564467 243.22458348297263,193.73783239386012 243.07668285370755,193.57394250737755 243.22458348297263,193.47001233546177 243.39247068375948,193.41804724950387 243.41645456958585,193.22217884858577 243.6363068563306,193.1062567337568 243.60832565619967,192.95036147588314 243.1526318254924,192.83443936105388 242.90879565292067,192.83443936105388 242.64097559452262,192.75049576066044 242.52905079399767,192.68653873178937 242.48508033664893,192.60259513139593 242.20127102103254,192.46268913074002 242.18927907811934,192.41072404478214 242.30919850725292,192.3227831300841 242.29720656433972,192.20686101525513 242.34517433599302,192.11092547194824 242.30520119294832,191.9390409568568 242.14930593507464,191.91105975672556 241.99740799150555,191.9310463282479 241.64164701840946,192.082944271817 241.38182158862,191.9830114142058 240.8901519291726,191.90706244242125 240.6942835282542,191.80712958481004 240.63432381368773,191.6472370126318 240.66230501381867,191.4873444404538 240.70627547116797,191.41539278297356 240.78222444295224,191.37941695423373 240.75024592851668,191.26349483940447 240.57436409912066,191.29547335384 240.28256015489566,191.17155661040215 239.91880455319097,191.20753243914228 239.2152772356074,190.8917446090906 239.13932826382256,190.79580906578371 239.04739003482055,190.52399169308106 239.223271864216,190.43605077838305 239.25125306434754,190.39607763533834 239.2632450072607,190.24018237746495 239.39115906500345,190.18421997720247 239.33119935043638,190.05230860515573 239.2672423215653,190.00434083350214 239.21127992130283,190.0283247193288 239.10734974938703,190.01233546211103 238.8835001483377,189.90440797589093 238.6836344331153,189.91240260449982 238.36784660306336,189.81646706119292 238.21594865949425,189.65257717471036 238.21994597379884,189.52066580266361 238.11601580188307,189.41273831644324 238.08003997314293,189.31280545883203 238.01608294427186,189.26883500148304 238.0000936870541,189.21287260122085 238.06405071592516,189.10894242930505 238.0480614587074,189.06896928626063 237.78423871461334,189.01300688599815 237.42448042721267,188.83712505660242 237.38850459847313,188.78116265633992 237.39649922708173,188.68522711303302 237.34053682681926,188.6452539699886 236.85286448167642,188.53332916946394 236.52108739440672,188.5453211123774 236.44913573692648,188.5093452836373 236.40916259388231,188.42540168324385 236.3252189934889,188.34545539715472 236.30922973627113,188.24951985384783 236.24527270739947,188.21354402510798 236.1733210499198,188.10161922458332 236.20130225005076,188.03366488140765 236.3252189934889,187.94172665240504 236.32921630779347,187.81780990896718 236.24127539309546,187.70188779413795 236.06139624939485,187.6139468794402 235.96146339178364,187.52600596474218 236.33721093640207,187.3341348781284 236.39317333666455,187.19822619177705 236.54906859453823,187.07031213403462 236.83287791015408,187.0783067626435 236.8808456818074,187.15425573442806 237.03674093968107,187.11028527707933 237.09270333994354,187.0863013912524 237.12068454007448,186.90242493324774 237.4124884842995,186.79050013272308 237.52841059912848,186.71455116093853 237.54439985634625,186.66258607498065 237.76425214309157,186.67857533219842 237.8921662008337,186.6346048748494 238.03207220148963,186.65059413206717 238.16798088784094,186.56665053167373 238.35985197445476,186.56665053167373 238.51174991802384,186.5346720172382 238.63566666146198,186.42674453101785 238.7435941476818,186.43074184532242 238.8795028340331,186.098964758053 239.15132020673633,186.07098355792175 239.23526380712977,186.15892447261976 239.17130677825813,186.20689224427306 239.16331214964953,186.2988304732754 239.23526380712977,186.36678481645106 239.94278843901733,186.5786424745872 239.93079649610416,186.61861561763163 240.010742782193,186.8304732757675 239.9547803819311,186.94639539059676 240.2066111831114,187.2701778492573 240.2066111831114,187.39809190699975 240.25058164046013,187.45405430726194 240.53039364177192,187.6259388223534 240.91813312930356,187.7698421373136 241.0820230157864,187.92973470949187 241.24591290226869,187.91774276657839 241.45377324610024,188.02966756710305 241.50573833205814,187.97770248114517 241.69760941867196,187.93373202379615 241.7735583904562,187.8218072232715 241.78155301906537,187.75385288009582 241.9774214199832,187.63393345096227 242.10533547772593,187.62993613665796 242.08534890620356,187.68589853692015 242.1093327920305,187.75385288009582 242.72092188061146,188.14958699623662 242.83284668113586,188.28149836828365 242.91279296722527,188.3134768827192 243.18461033992793,188.3014849398057 243.30452976906147,188.3414580828504 243.46442234123973,188.46937214059287 243.74423434255098,188.6012835126396 244.00805708664504,188.80114922786228 244.28387177365227,188.71320831316427 244.54769451774575,188.77716534203563 244.76354949018648,188.77316802773103 245.11531314897798,188.62926471277083 245.28320034976485,188.62127008416195 245.39912246459383,188.57330231250864 246.06267663913326,188.66923785581525 246.7262308136721,188.58529425542181 247.41776618834191,188.5892915697264 247.653607732305,188.52533454085506 247.9054385334853,188.40541511172148 247.97339287666097,188.29349031119682 248.32515653545246,188.3494527114593 248.51702762206625,188.32147151132807 248.74887185172477,188.3894258545037 248.92875099542482,188.3614446543725 249.04067579594977,188.21754133941226 249.0846462532985,188.1096138531922 249.3324797401748,188.12960042471425 249.50836156957024,188.0496541386254 249.53634276970178,187.9976890526675 249.60829442718145,187.9617132239274 249.56032665552814,187.90175350936062 249.6202863700952,187.7738394516182 249.55233202691954,187.72187436566028 249.728213856315,187.7698421373136 250.03200974345376,187.73386630857377 250.08797214371566,187.6619146510935 250.09596677232483,187.58996299361326 250.27584591602488,187.40208922130404 250.57564448885907,187.35412144965073 250.75552363255912,187.15425573442806 253.67756038911372,186.9783739050323 253.59361678872028,186.55465858876028 253.99334821916509,185.97904532891943 254.32112799213022,185.67524944178095 254.4850178786125,185.47938104086285 254.92871976640717,185.37145355464278 255.1645613103697,185.1156254391579 255.42038942585458,185.09164155333096 255.42838405446318,184.92375435254408 255.62824976968614,184.80783223771513 256,184.36413034992074 254.36110113517492,182.76920194244468 250.90742157612877,178.04437643458272 250.28384054463405,177.9924113486248 248.91675905251162,177.18495385912576 245.92676795278192,175.96577299626784 245.24722452102472,175.04239339193953 245.45908217916087,174.6066861327543 244.43976703152595,173.6313414424681 242.62098902300028,172.96778726792897 234.38252424152506,169.24628765048445 232.80358509126705,168.88652936308378 228.66636478615914,166.04843620692316 227.2992832940367,165.71266180534914 223.28198241806288,164.0697656262195 219.0128507409082,162.258982246303 216.258701185141,161.40755429945492 215.175429008635,159.29697234670422 213.9522508314725,156.5628093624594 210.35067064316183,153.9565604359567 208.35601080524012,151.57416111050367 208.4239651484158,151.17043236575398 207.26074668582035,150.9585747076181 206.06954702309397,150.16310916103222 202.24011991942936,146.57751822993905 199.56991396405562,144.37899536249063 198.61855315959576,142.67214215448962 196.55194166419437,141.14916540449352 194.95301594241346,140.99327014662012 192.86242056118567,139.62219134019313 188.25751448245728,135.74079915057064 185.52335149821243,134.05393251409197 184.5560014365348,133.8900426276094 182.78918851396702,134.19783582905217 180.67860656121692,130.56427712630568 177.09301563012343,127.49433974048655 176.1216682541418,127.17455459613059 175.8858267101793,126.62692253642071 178.6839467232952,126.63891447933389 180.69859313273926,125.90340864731479 183.18891994441242,124.35245069718773 186.45072841684478,124.28449635401208 191.79114032759227,125.97935761909933 191.41939009727844,122.5536592601844 190.0643005480692,122.5656512030976 188.80114922786257,122.22587948721929 188.12560311040997,121.44240588354687 187.98569710975462,120.63894570835211 188.3814312258954,119.81549896163499 188.16557625345467,119.15594210140044 187.28616710647563,118.36047655481455 187.106287962775,117.98073169589154 185.92308292865724,118.24455443998531 185.1036334962447,118.20857861124546 184.18824852052555,117.86880689536687 183.6246272035979,117.88879346688923 183.64061646081566,118.35647924050997 182.66527177052947,118.56433958434154 182.8891213715788,117.66894118014446 181.4301016504538,116.02604500101481 179.94310072919782,114.84683728120162 179.33151164061627,114.14730727792235 179.76721889980178,113.76756241899962 178.7119279234267,113.1399840732006 179.0756835251314,112.58036007057724 176.7092734568964,110.90948269131664 175.1583155067688,111.35718189341505 173.69130115703516,111.10535109223474 171.2649313742331,110.96544509157883 168.77860187686397,110.2978936027354 169.02643536374026,111.00541823462355 167.99512827319157,111.24925440719495 167.45948815639488,110.86950954827194 166.2043314647974,110.92147463422982 165.90453289196324,110.7855659478785 165.7686242056119,110.35785331730217 165.1450431741172,110.01008697281497 163.9458488827822,110.08203863029495 163.39022219446315,109.16265634027121 162.56277813344147,108.38318005090309 162.6227378480085,108.02741907780701 162.1030869884296,107.80356947675767 161.33959995627953,106.46446918476622 161.67937167215786,106.2246303264991 161.7473260153335,105.96480489670992 160.95985509735652,105.63702512374479 160.46418812360452,105.64102243804938 159.64873600549657,104.86554346298557 159.10510126009072,105.16933935012403 158.8132973158657,105.63302780944021 158.157737769936,105.63702512374479 156.98652467873143,104.87353809159445 156.9545461642959,104.31791140327569 158.4735255999874,103.69832768608583 158.44554439985643,103.23863654107369 158.04181565510706,102.7829427103664 157.30630982308796,102.53111190918582 156.73069656324654,101.76762487703549 155.75135455865575,101.22399013163019 156.85861062098925,100.83225332979399 161.23966709866832,101.54377527598614 161.60342270037302,101.87954967756015 162.594756647877,101.99946910669371 163.01447464984471,101.9035335633868 163.39421950876775,101.55176990459503 164.36956419905397,101.17202504567229 164.42552659931644,101.05610293084304 164.28961791296453,100.88421841575187 163.4741657948566,100.16869915525484 163.58209328107696,99.1134081788795 162.7386599628375,99.04545383570384 162.65471636244405,98.90554783504821 162.53079961900593,98.77763377730577 162.22700373186774,98.64172509095444 162.01914338803616,98.45385131864522 161.94319441625188,98.32593726090279 162.03513264525392,98.21800977468241 161.895226644598,98.03413331667778 161.61141732898218,97.83027028715051 161.49149789984864,97.67437502927712 161.4954952141532,97.5904314288834 161.24766172727695,97.39856034226989 161.0677825835769,97.33060599909422 160.76398669643814,97.37857377074752 160.4162203519512,97.45852005683666 160.0804459503769,97.62240994331923 159.5927736052341,97.75831862967055 159.38091594709795,97.74632668675709 159.1610636603532,97.54246365723009 159.28498040379134,97.32261137048533 159.19304217478873,97.05479131208699 158.79730805864793,97.098761769436 158.52948800024987,97.03080742626034 158.14974314132684,97.05079399778269 157.3862561091768,97.22267851287386 156.83062942085775,97.25065971300509 156.6467529628531,97.21868119856956 156.33895976141034,96.9508611401712 156.43889261902154,96.82694439673334 156.93455959277352,96.72301422481756 157.06647096482084,96.41522102337478 156.88259450681562,96.107427821932 157.1384226223005,95.84760239214255 157.46620239526564,95.63974204831098 157.26233936573865,95.34394078978167 157.41423730930774,95.15606701747245 157.5341567384413,94.90423621629188 157.54215136705048,94.63241884358922 157.43822119513467,94.46453164280236 155.2756741564261,94.60843495776257 154.60012803897408,94.400574613931 154.10446106522207,94.0967787267928 153.64876723451422,93.75700701091449 154.11645300813527,93.58112518151847 153.87261683556358,93.42922723794938 152.9692238027576,93.39724872351384 152.94124260262666,92.35394969005196 152.9692238027576,86.88162640725743 154.4322408381872,86.3060131474163 155.19173055603267,87.36929875240052 156.2590134753215,88.14078041315976 157.75800633949063,88.7563668160453 158.7173617725591,89.28401230423283 159.62075480536507,89.43191293349763 160.86791686835392,89.85962556407395 161.29962681323482,90.12344830816771 162.51481036178816,90.08347516512329 163.64605030994804,89.31599081866865 165.1250566025954,89.1481036178815 167.1516949549521,88.34464344268675 167.5354371281797,87.96090126945943 168.87853473447518,87.19341692300478 169.86587136767514,85.82233811657778 170.6253610855206,85.40661742891463 172.1523351498213,85.25871679965013 171.97645332042526,92.71370797745234 192.4227159876956,92.2380275752227 194.28546445357057,93.2733319800757 196.07626126196473,93.87692644004805 198.91035710382076,93.92889152600566 199.81375013662674,93.72902581078326 201.35271614384118,93.72902581078326 201.77243414580832,93.28932123729346 202.1921521477755,93.15341255094214 202.94764455131696,93.14941523663784 204.02292209921436,92.89358712115268 204.71445747388472,92.47786643348981 205.11818621863412,91.93023437377992 205.8137189076091,91.51851100042137 206.12151210905185,91.0708117983227 206.6011898255861,90.87894071170918 207.41264462938943,90.80698905422892 207.83635994566177,90.67507768218218 207.98426057492625,90.13544025108119 207.97626594631708,89.5998001342845 207.8163733741394,89.10813047483708 206.49725965367028,88.77635338756765 205.46195524881702,88.7123963586963 204.60652998766437,88.45257092890682 202.79574660774784,88.51253064347361 202.08822197586028,88.67642052995616 200.91301157035107,88.57648767234497 200.00562122324052,88.66442858704298 199.2901019627438,88.52052527208278 197.27945286760487,88.47255750042918 196.38005714910292,88.64044470121632 195.25281451524762,88.1207938416374 194.25348593913446,87.47722623862062 192.63057633152718,86.15411520384721 191.99100604281526,85.87430320253567 191.60326655528306,85.15878394203864 191.2435082678824,85.10681885608103 190.42805614977445,84.82300954046491 190.38008837812114,84.64712771106888 191.21152975344685,83.69576690660932 192.24683415830015,82.88431210280567 191.92704901394362,82.83234701684778 191.50733101197645,82.82834970254348 190.66789500804157,82.35666661461815 189.84444826132443,82.14081164217768 189.1169370579145,81.79704261199478 188.62926471277112,81.42928969598523 188.56131036959545,81.15747232328259 188.67723248442442,80.42996111987237 188.59328888403098,80.1701356900832 188.38542854019943,79.87833174585819 188.16157893915008,79.7783988882467 188.27750105397962,79.46660837249964 188.55331574098628,79.26674265727695 188.11760848180137,79.07487157066342 187.48203550739345,79.16281248536116 186.73853504676575,79.69445528785327 186.2348734444046,80.20211420451874 185.32348578298945,80.49791546304803 184.44807395031447,81.36133535280958 183.76453320425324,81.86499695517045 182.8011804568808,81.94494324125958 182.27753228299727,81.63315272551252 181.76187873772292,80.96560123666907 181.54202645097817,80.74574894992404 181.41810970754003,80.36200677669672 181.93776056711897,79.74642037381116 181.79785456646306,79.25874802866805 181.97373639585908,78.93896288431182 181.49805599362944,77.84769607919664 181.5740049654137,77.3760129912713 181.99372296738144,76.91632184625944 182.2575457114749,76.42065487250744 182.2535483971709,75.35337195321891 182.12963165373276,75.18548475243176 180.4867354746031,75.32938806739197 179.12764861108928,75.67715441187946 175.84185625282998,75.89300938431963 174.266914416876,75.797073841013 173.27558046937202,75.47728869665677 171.94847212029433,75.2614337242163 171.45680246084692,75.20147400964953 170.65733959995615,75.22545789547618 170.41350342738502,75.00160829442713 168.79059381977717,74.29008634823468 169.2183064503535,73.69448651687121 169.23029839326725,73.17083834298826 169.18632793591794,72.85105319863202 168.91451056321532,72.33539965335767 168.60671736177252,72.08756616648168 166.92384803959874,71.931670908608 166.8478990678139,71.80375685086555 166.94383461112054,71.55592336398956 166.66402260980928,71.44399856346489 166.05243352122775,71.70782130755894 165.63671283356518,71.76778102212572 163.80994019643032,71.84772730821457 162.69468950548875,71.14419999063101 162.2349983604769,71.14020267632671 160.84793029683212,71.9716440516527 160.16438955077092,71.46398513498724 158.62142622925248,69.91302718485991 155.6634136439583,71.05625907593327 155.21171712755503,71.09623221897769 152.9732211170622,70.5046297019188 152.94923723123526,62.545976921755425 152.7653607732306,62.47402526427547 152.69340911575037,62.32212732070637 152.42958637165688,61.97036366191459 152.50153802913655,61.734522117951784 152.44957294317868,61.598613431600455 152.24171259934766,61.44671548803136 152.17775557047602,61.31080680168004 152.20973408491156,61.08295988632611 152.16576362756282,61.02699748606392 151.90593819777337,61.023000171759335 151.61413425354837,60.923067314148135 151.64211545367988,60.843121028059 151.39428196680362,60.85111565666817 151.41426853832596,60.703215027403374 151.13445653701416,60.379432568742835 151.21840013740757,60.23552925378234 151.09448339397,59.92373873803527 149.4875630435799,58.96438330496682 149.65944755867136,58.43274050247471 150.5548459628687,57.94906547163619 150.5468513342601,57.713223927673376 149.85131864528518,57.789172899457924 148.81601424043245,58.29683181612339 148.02854332245548,58.19689895851218 147.83667223584166,58.252861358774375 147.62881189201008,58.140936558249706 146.55753165841725,58.24086941586119 145.68611714004683,57.90509501428718 145.43828365317054,58.12494730103194 144.99458176537647,58.29283450181908 144.43096044844881,58.33680495916781 143.5915244445139,58.14893118685859 142.91597832706188,58.252861358774375 142.7081179832303,58.16092312977206 142.62017706853229,57.985041300376025 142.87200786971258,57.79317021376251 143.35168558624682,57.70522929906449 142.91997564136588,57.04567243882994 142.64815826866325,57.06965632465659 141.62084849241913,56.657932951298314 141.6408350639415,56.494043064815756 141.3490311197165,56.31416392111542 141.10919226144938,56.35813437846443 139.97795231328948,56.010368033976945 138.6988117358651,56.09830894867496 138.5309245350782,56.26619614946183 138.02726293271706,56.39411020720427 137.38769264400514,56.35013974985554 136.6681760692038,56.434083350248976 135.4130193776058,56.118295520197314 134.7134893743268,55.90244054775686 133.45833268272878,56.04634386271707 132.87872210858336,55.84248083319008 132.46300142092022,56.12229283450162 131.01597364270896,55.53868494605161 130.71617506987477,55.51470106022496 130.49632278313,55.210905173086765 130.00065580937803,55.003044829255195 129.99266118076943,54.83515762846833 130.0446262667273,54.731227456552546 130.3124463251254,54.519369798416676 128.00599597145688,52.07701075839656 127.07462173851938,52.180940930312346 126.36309979232722,51.63330887060246 126.45104070702524,50.71792389488303 125.51566915978317,49.42679137454516 124.89208812828902,49.214933716409284 124.40841309745022,48.87516200053069 123.08530206267652,48.53938759895668 120.70290273722375,47.364177193448064 120.17125993473164,47.368174507752364 120.02335930546656,47.31221210749017 119.88345330481123,46.58070358977537 119.71156878971978,46.38883250316185 119.91942913355078,46.073044673110196 119.81949627593957,45.98510375841218 118.1326296394612,46.08103930171908 117.45308620770457,45.697297128491755 114.24724013553413,44.51409209437397 114.12732070640057,44.31822369345587 114.63497962306575,43.79057820526834 115.06269225364207,42.899177115375565 115.00273253907558,42.46746717049465 115.3904720266072,42.05574379713609 115.36249082647625,41.763939852911086 115.17061973986245,41.568071451992985 114.18328310666304,41.20431585028802 113.40380681729465,41.01244476367422 112.94811298658736,40.98846087784756 112.60034664209988,40.708648876536024 112.35651046952819,40.78859516262487 112.22060178317686,40.968474306325206 111.5690395515512,41.16434270724331 111.27323829302217,40.79658979123376 111.32120606467548,40.448823446746566 111.9128085817341,40.500788532704455 111.91680589603868,40.27693893165512 111.5690395515512,40.14902487391267 111.90881126743008,39.79726121512089 111.89681932451633,39.58540355698502 112.02473338225904,39.52144652811366 112.43245944131303,39.62537670002944 114.28321596427425,38.390206579954054 113.99540933435382,38.17834892181789 114.37115687897226,37.67069000515272 114.77488562372164,37.642708805021485 114.93078088159533,37.55876520462805 114.53904407975912,37.055103602267174 114.78687756663484,36.89920834439349 115.2385740830381,37.06709554518036 115.37848008369401,36.97116000187374 115.18261168277563,36.79927548678229 115.27055259747364,36.58342051434184 115.52238339865394,36.52745811407936 115.7822088284434,36.12372936932997 115.71425448526774,35.91187171119381 115.97008260075262,35.879893196758275 116.21391877332431,35.74398451040695 116.59766094655193,35.02446793560562 116.28986774510915,34.58876067642041 115.57035117030782,34.74865324859839 115.27854722608281,34.61274456224706 115.22658214012492,34.14905610293061 115.48241025560979,33.94919038770821 115.18261168277563,33.54945895726283 115.40646128382497,33.153724841122326 114.93877551020393,32.81795043954831 114.87481848133285,32.44620020923418 114.41912465062558,32.13440969348711 114.52305482254135,31.90256546382888 113.55570476086375,30.939212716456137 114.00340396296242,30.095779398216663 113.98741470574465,29.899910997298562 113.8794872195243,29.668066767640337 113.00007807254526,29.392252080633103 111.4171416079821,29.51217150976666 110.10602251612217,29.54814733850678 109.62234748528336,29.092453507799213 107.92748622019582,28.756679106225487 107.59570913292667,28.432896647564945 106.88018987242936,28.089127617382047 107.56772793279515,27.765345158721505 107.5477413612728,27.477538528800803 108.38318005090366,27.325640585231707 108.35919616507672,27.23370235622939 108.15533313554974,27.06981246974683 108.24327405024775,26.933903783395504 108.21129553581221,26.786003154130707 108.00743250628523,26.718048810955047 107.3438783317458,27.097793669878065 107.11603141639245,26.99786081226658 107.08005558765232,26.80199241134848 107.15200724513257,26.618115953343846 107.11603141639245,25.634776634448748 106.87219524382076,25.135112346392173 106.96813078712736,24.835313773558283 107.19198038817672,24.71539434442473 106.77226238620955,24.27568977093493 105.82090158174971,24.659431944162534 105.5810627234826,24.871289602298408 105.26527489343123,24.979217088518496 104.81357837702797,24.895273488125063 104.83356494855032,24.659431944162534 104.47780397545424,24.27568977093493 105.65301438096284,22.624798963196397 105.80091501022736,22.34098964758056 105.30125072217135,22.285027247318084 104.97347094920622,22.113142732226635 105.20531517886417,21.857314616741757 105.7249660384431,21.657448901519068 105.45714598004503,20.790031697453227 105.59305466639636,20.578174039317354 106.04075386849446,20.498227753228225 106.61236981403128,20.810018268975295 107.65566884749316,20.454257295879216 107.07206095904316,19.8266789500802 106.72829192886026,19.802695064253545 106.44847992754902,20.038536608216354 106.26060615523978,20.09449900847855 106.12469746888847,19.9186171790828 106.32456318411087,19.646799806379867 106.10071358306153,19.410958262417342 106.10471089736612,19.25506300454366 106.2566088409352,19.17111940415023 107.7875802195399,18.75539871648737 107.95546742032734,18.42362162921766 107.79557484814907,18.29171025717092 107.3358837031372,18.127820370688355 106.1646706119326,17.488250081976155 105.69298752400755,17.616164139718595 105.20531517886417,17.488250081976155 104.61371266180555,16.864669050481723 104.56574489015225,16.365004762425148 103.43450494199236,16.656808706650153 101.75963024842717,17.296378995362353 99.9288602969883,17.292381681058053 99.48915572349821,17.08452133722648 97.73033742953959,17.21643270927322 97.27464359883231,17.08851865153078 94.56846181471843,17.899973455334713 93.46920038099408,18.39164311478212 91.63843042955521,18.51955717252456 91.15875271302099,18.223755913995255 89.95556110738086,18.079852599035046 89.35596396171364,18.303702200084103 89.06016270318406,18.21975859969067 88.8922755023972,18.02389019877257 88.28468372812024,17.812032540636697 87.81699795449921,17.792045969114344 87.84897646893532,17.60816951110971 88.62845275830314,17.096513280139668 89.46788876223803,16.896647564917263 89.75169807785386,16.676795278172506 89.63177864872031,16.50890807738536 88.73638024452352,15.925300188935351 88.96422715987687,15.501584872663608 89.11612510344654,14.542229439595165 89.28001498992882,12.991271489467831 88.74437487313212,12.703464859547411 87.2373873803538,12.839373545898736 86.36197554767878,12.23977640023096 78.46727979638705,12.395671658104638 76.79640241712588,10.520931249316762 76.84437018877975,9.677497931077573 76.31672470059222,8.89002701310058 75.03758412316725,8.290429867432803 74.68182315007117,6.383710944209387 73.59455365926057,6.227815686335708 73.17883297159743,6.595568602345259 71.49596364942308,7.1432006620551425 70.66052495979277,6.943334946832455 68.67385975048022,7.411020720453491 66.98699311400185,7.590899864153541 66.16354636728472,7.387036834626554 64.66055618881099,6.471651858907119 63.69320612713337,5.668191683712355 64.10093218618735,5.252470996049496 65.40805396374327,4.872726137126476 62.41006823540439,2.9500179566852904 50.51406086535604,0 43.34287900316966,2.2904610964507364 40.093062473650484,2.078603438314864 32.41022438049434,2.574270412066855 28.113111503208703,5.896038599066281 24.1837515419329,6.547600830691666 21.70941398747753,6.223818372031124 18.587511515700506,5.2045032243959035 5.716159455365948,3.781459332011293 2.274471839232967,4.305107505894522 0.1838764580052014,5.6561997407991695 0,7.351061005886714Z"/>
  </g>
</svg>