<?xml version="1.0" encoding="UTF-8" standalone="no"?>
<svg viewBox="0 0 256 191.6700697462844" xmlns="http://www.w3.org/2000/svg">
  <style>
    g.zone {
      fill: lightgray;
      stroke-width: 2;
      stroke-linecap: square;
      stroke-linejoin: bevel;
      stroke-miterlimit: 3;
      stroke-opacity: 0.8;
      stroke: black;
      fill-opacity: 0.3;
    }
  </style>
  <g class="zone" id="zone">
    <path d="M0,70.72152026685508 8.539371272613648,78.17406246841092 13.119579500654952,80.0113211361561 27.42949560295017,88.83533811786091 36.5899120590291,90.8278580814715 42.800363893659885,94.21772970787438 49.99413726877338,93.67431517234272 54.755483675323404,95.82209643182055 62.28565652481286,95.07166683513502 69.01364601233199,100.60931972101389 80.16658243202151,114.55695946628799 82.93540887496094,116.36834125138986 88.2919235823311,116.0319417770139 85.23845143030233,130.44536540988605 77.91529364196674,137.43212372384386 76.62144950975322,143.59082179318617 79.88193672293218,147.75699989891788 86.09238855756296,149.41312038815252 95.3045587789322,155.00252703931986 105.70706560193803,182.0179925199623 109.14869099362937,186.02890932982862 106.56100272920233,191.6700697462844 256,191.28191650661998 246.5290609521866,172.72819165066127 254.65440210249616,149.3354897402189 237.57565955726153,131.24754877185822 234.39280299201434,109.17456787627636 221.09208531284702,99.98827453755044 221.2732234913557,90.36207419387347 226.8108763772346,88.7577074699273 224.53371070453835,72.84342464368775 232.11563731931443,47.48407965227812 224.97361770949124,46.190235520064604 212.83735974931534,50.97745880925794 200.28707166683168,49.60598402911079 193.7660972404701,44.818760739915625 186.36530880420273,36.279389467300135 186.02890932982677,31.440412412816492 200.77873243707486,27.972910138481833 198.37218235115654,23.858485798038572 177.4377842919228,17.15637319316643 168.07035277468634,12.783180026280835 158.7287981400987,2.5618113817837265 155.26129586576218,1.9925199636105866 153.96745173354867,0.5175376528846727 151.56090164762668,0.56929141817314 148.3004144344477,0 146.41140200141407,1.863135550388499 138.62246032548043,1.9925199636105866 116.54947942989673,7.090265844536564 107.23380167795425,7.581926614777922 104.33559082179272,12.39502678661641 100.06590518548222,14.077024158496194 99.31547558879852,16.457697361771203 96.08086525826104,18.062064085717367 89.5340139492543,17.41514201960877 76.18154250480033,13.430102092387594 64.74396037602149,18.708986151824128 62.182148994235924,23.21156373193181 58.50763165874555,23.39270191044053 54.39320731830597,29.8877994541588 47.82047912665408,34.67502274335397 40.290306277164625,37.34034165571647 35.761851814413625,41.687657939956914 36.408773880520386,44.53411503082997 40.109168098652226,46.16435863741945 40.62670575154058,49.11432325886944 39.07409279288289,52.99585565551367 36.5899120590291,53.616900838977124 32.889517840897255,55.60942080258771 30.146568280599297,62.07864146366082 27.972910138479993,64.0711614272714 16.871727484077102,63.3983624785195 9.910846052762627,68.1338320024262 0,70.72152026685508Z"/>
  </g>
</svg>