<?xml version="1.0" encoding="UTF-8" standalone="no"?>
<svg viewBox="0 0 256 69.4316739769195" xmlns="http://www.w3.org/2000/svg">
  <style>
    g.zone {
      fill: lightgray;
      stroke-width: 2;
      stroke-linecap: square;
      stroke-linejoin: bevel;
      stroke-miterlimit: 3;
      stroke-opacity: 0.8;
      stroke: black;
      fill-opacity: 0.3;
    }
  </style>
  <g class="zone" id="zone">
    <path d="M0,29.79380828684606 6.9006515351536555,37.38670527615739 7.723715027892521,41.70915130094108 7.462078950730928,42.924668909423886 7.9199420857644895,43.295320018736916 8.088915385598598,43.9766639696803 7.930843588979943,44.74521994634422 9.326236000511535,48.707916365029945 9.108205936209433,49.51462760294679 9.337137503726215,50.4140016181919 9.309883745688355,50.893667759655976 9.462504790700057,51.291572627006865 10.040284461099736,51.96746582634253 11.037772005280438,52.643359025678194 11.21764680833,52.81778307711964 11.446578375846782,52.899544351232834 11.888089256057937,53.608142060213694 12.018907294638733,53.90248264702126 12.160626836434984,54.05510369203258 12.187880594472842,54.349444278840146 12.122471575182445,54.61108035600213 12.106119320360039,55.06349273942873 11.839032491589945,55.35783332623591 11.877187752842485,56.371673125239795 10.939658476345228,56.89494527956414 10.579908870246877,56.86769152152628 10.100242728783183,57.28194864369996 10.089341225567729,58.02325086232602 10.225610015756251,58.76455308095209 10.519950602564204,59.40774177064255 10.122045735213316,60.116339479623804 8.950134139590778,61.31550483328381 8.792062342972121,62.52012093855155 9.031895413703582,63.28322616360774 9.560618319636042,63.73018779542662 9.898564919303487,64.26981220457377 10.220159264148524,64.42788400119242 11.691862198185968,65.42537154537351 13.839458331559074,66.16122301239184 15.58369884597434,67.21321807264826 15.567346591151159,68.09078908146323 16.346804071030533,69.40442021888164 115.39786228335424,69.36081420602137 133.15096026913105,69.40987097048937 176.5389430651966,69.41532172209709 210.44806881573894,69.31175744155338 255.4549248392459,69.4316739769195 256,68.24341012647456 255.27505003619635,67.39854362730478 253.08384788996298,61.707958949026974 251.1433803176765,60.53059660179709 249.83519993186545,60.181748498914196 249.1484052293151,59.30417749009923 249.42094280969215,58.00689860750323 250.9635055146277,56.53519567346618 251.6066942043186,53.49912702806303 250.4783886215563,53.56998679896116 249.8951581995489,53.18843418643267 247.54588425669687,50.250479069965515 246.12868883873438,49.0840182259507 244.54252012093855,49.24209002256975 243.53958182515012,48.789677639143136 242.0242728782524,48.90414342290191 240.71609249244133,48.190094962313324 238.78652642337033,47.7703870885323 235.77226078439733,45.911680790359036 234.80747774986145,45.524677426223214 233.008729719372,43.95486096325017 228.9806242813951,43.289869267129575 224.66362900821875,40.65170548907732 221.58395434995535,38.07895073031546 221.21875399225004,38.100753736745986 221.03342843759353,37.54477707277605 221.22965549546473,36.988800408806505 223.96593280245295,36.10032789677646 224.40199293105638,35.560703487629326 224.28207639569106,35.13009411063324 222.88668398415868,33.985436273048556 219.2292296554956,29.352297406634513 216.77639143209987,25.247881446152544 209.00907039134708,20.189583954350137 203.34573947110712,22.549759400417617 201.83588127581714,22.855001490439864 200.211557296768,24.68645403057527 195.9054635268071,27.406379082740717 194.21573052846756,27.39002682791831 191.33228292807613,22.467998126304426 189.0647702593369,22.620619171315354 187.76204062513355,19.35016820678809 186.2249286718057,18.89775582336187 181.9896946727422,18.347229910999662 180.0110718392032,15.62185410722649 179.00813354341474,16.76106119320383 176.22825022356625,15.747221394200334 173.91713154196677,17.27888259592045 172.41272409828372,17.52961716986775 172.22194779202027,18.734233275135487 170.62487757100897,19.393774219648357 169.1204701273267,18.58706298173151 162.20346633735065,17.605927692373214 158.1535578929444,17.52961716986775 155.71162117276336,18.04198782097703 155.29736405059006,11.28850657922774 152.0269130860624,4.055359196014366 145.48601115700708,5.145509517523325 141.91031810245758,6.241110590640011 140.69480049397478,6.132095558489348 138.20925776093347,6.824341012647416 135.12958310267004,6.311970361538136 134.5736064387005,5.314482817357434 133.00378997572707,4.742153898565095 131.40671975471656,4.774858408210294 129.70608525316234,8.03440786952288 128.78490823148672,8.955584891198116 128.0817612741132,11.244900566367086 128.4142571221737,12.82561853255558 126.83353915598558,14.013882383000524 128.71949921219633,18.10194608866009 123.58489119788806,24.899033343269647 123.67755397521631,27.722522675978414 123.67755397521631,28.93804028446122 122.96350551462811,28.943491036068558 120.1454669335263,30.093599625260964 118.6846655027043,30.84035259549475 117.86160200996467,31.505344291615348 114.85278712259938,32.10492696844555 113.61546650768645,32.60639611633976 112.3781458927735,34.09445130519961 109.59281182131805,36.187539922497386 109.09134267342345,37.16322446024795 106.96009879487353,35.784184303538765 106.01711876676777,35.42988544904853 102.68670953455745,34.775795256143 99.53617510539591,31.46173827875508 94.49968062002364,29.46676319039329 90.13907933398625,29.232380871268784 89.57765191840898,28.87263126517082 88.44934633564748,28.632798194438585 89.80113273431881,22.386236852191235 88.84180045139064,21.394200059617873 87.9533279393606,20.941787676191264 87.92607418132275,22.086445513775942 87.6535366009457,22.484350381126834 86.84682536302924,22.15185453306673 86.59609078908156,21.66673763999492 85.31516416130835,21.563173359451596 83.39104884384507,19.81348209342938 83.05855299578458,17.982029553293973 82.60614061235798,17.224375079845117 79.79900353447238,16.668398415875572 76.04888642848026,14.836945875740163 75.80905335774881,14.455393263211679 75.81995486096348,14.041136141038383 72.61491291572622,11.582847166035306 70.8488693948816,11.413873866201195 68.80483754205221,11.806327981944358 66.96793425030869,11.751820465869027 65.77967039986375,12.509474939317881 64.90755014265689,12.629391474683999 64.52054677852068,12.008005791423667 64.84214112336649,11.435676872631328 66.61363539581883,10.17655325128826 67.4039943789129,8.366903717582984 67.48030490141875,7.592896989311725 67.06604777924467,5.930417749010039 64.8748456330113,4.567729847123647 63.1796618830648,2.523697994293864 60.677766895201074,1.4717029340374435 58.57922752629596,1.6515777370866191 53.4446195119877,0.7903589830944407 52.910445854448284,0.2888898352002266 51.449644423626296,0 50.45215687944482,0.6867947025507295 48.54984456841168,1.166460844014811 44.30370906613346,1.117404079547206 41.92718136524357,1.5916194694035606 41.45841672699456,2.0167780947919227 39.49069539667023,2.1312438785507006 36.2093429289279,1.7060852531619508 33.10241451262664,2.6763190393051803 30.578716518332772,2.888898351999555 26.174509219435894,1.0737980666865532 25.8420133713754,2.2729634203469504 21.0835072179879,6.213856832602539 18.875952816932124,11.22854831154468 18.04198782097703,12.040710301068867 18.478047949581235,13.038197845249956 18.456244943151102,15.185793978623062 19.5191415066222,16.668398415875572 19.33926670357341,19.371971213218224 18.76148703317296,19.731720819316187 17.458757398969624,21.01264744708939 16.919132989822483,21.301537282289615 13.201720393476725,21.279734275859095 13.087254609718334,21.388749308010148 12.607588468253866,21.47051058212334 12.127922326790172,23.46548567048513 8.497721756164168,25.591278797428103 1.984073585146724,27.335519311842592 0,29.79380828684606Z"/>
  </g>
</svg>