<?xml version="1.0" encoding="UTF-8" standalone="no"?>
<svg viewBox="0 0 256 45.09664694280223" xmlns="http://www.w3.org/2000/svg">
  <style>
    g.zone {
      fill: lightgray;
      stroke-width: 2;
      stroke-linecap: square;
      stroke-linejoin: bevel;
      stroke-miterlimit: 3;
      stroke-opacity: 0.8;
      stroke: black;
      fill-opacity: 0.3;
    }
  </style>
  <g class="zone" id="zone">
    <path d="M0,25.972386587772352 0.44181459566196246,26.82445759368865 1.1676528599634375,27.360946745562288 3.2820512820526044,28.086785009861522 5.1124260355067435,28.276134122289356 5.680473372781284,27.676528599607188 7.573964497041712,26.919132149902566 11.171597633139216,26.28796844181501 12.433925049309845,25.372781065090184 17.35700197238875,24.89940828402508 20.355029585801844,25.372781065090184 24.773175542408016,25.341222879684796 28.781065088757607,23.763313609467026 33.54635108481406,22.280078895463173 36.765285996055894,22.500986193294153 37.83826429980317,22.37475345167709 41.278106508878224,20.197238658777152 44.907297830376635,20.102564102565474 47.17948717948825,19.723865877712043 49.76725838264477,20.039447731756944 50.903353057202814,19.91321499013764 52.07100591716177,20.828402366864708 51.818540433927645,22.185404339251498 52.67061143984618,23.479289940829755 53.04930966469737,24.615384615385565 54.05917159763388,29.885601577910272 55.9526627218943,31.684418145956784 57.53057199211432,32.094674556213356 59.26627218935229,32.094674556213356 59.89743589743761,31.652859960553638 59.960552268248385,31.021696252466082 61.38067061144146,30.011834319527335 61.75936883629265,29.317554240631246 61.53846153846391,28.276134122289356 59.928994082843,26.76134122288012 59.99211045364928,25.84615384615529 59.17159763313613,24.078895463511927 59.234714003946905,23.66863905325535 60.11834319526635,22.753451676528282 60.30769230769418,22.31163708086856 60.18145956607712,21.49112426035541 61.15976331361272,19.282051282052326 61.53846153846391,18.93491124260428 62.990138067062375,18.77712031558183 63.526627218936014,18.20907297830505 64.34714003944917,17.861932938857002 65.9250493096647,18.019723865879453 70.15384615384751,17.262327416174834 74.1932938856025,17.73570019723994 77.31755424063265,18.808678500987217 78.07495069033503,21.775147928994922 77.98027613412334,23.100591715976325 78.23274161735748,23.88954635108633 77.22287968442097,26.729783037476974 76.78106508875901,31.684418145956784 76.78106508875901,35.755424063117154 77.31755424063265,39.95266272189458 78.51676528599698,41.15187376725892 80.78895463510861,42.66666666666816 83.15581854043639,43.58185404339299 90.54043392505025,44.970414201185164 92.27613412228824,45.09664694280223 95.368836291913,44.84418145956586 98.6508875739656,43.48717948717907 100.986193293888,41.246548323472844 101.80670611440115,39.70019723866046 101.6489151873787,38.34319526627367 101.86982248520744,36.44970414201324 101.23865877712213,35.62919132150009 99.97633136094701,34.77712031558155 99.43984220907338,33.83037475345134 99.47140039447876,32.41025641025602 100.35502958580268,30.832347140040486 100.6706114398431,29.60157790927076 100.57593688363143,27.360946745562288 101.11242603550507,26.351084812623544 100.9546351084826,24.646942800788707 100.57593688363143,23.289940828404163 99.97633136094701,22.564102564102686 96.03155818540819,19.345167652860855 95.74753451676868,18.77712031558183 95.90532544379113,16.757396449704338 96.6627218934935,15.936883629191188 98.11439842209197,15.495069033531468 100.986193293888,15.179487179488811 106.00394477317859,15.495069033531468 111.05325443787007,14.927021696252442 115.37672583826456,15.40039447731755 119.32149901380787,14.642998027615173 125.75936883629602,14.706114398423704 127.96844181459686,14.138067061144678 131.66074950690603,15.211045364891955 134.28007889546345,15.621301775148531 134.65877712031912,17.35700197238651 134.4378698224859,18.051282051282598 131.91321499014015,21.71203155818639 131.8500986193294,22.753451676528282 131.21893491124408,23.605522682446818 129.32544378698364,29.15976331361104 129.70414201183485,29.885601577910272 133.80670611440058,33.07297830374896 134.91124260355326,33.32544378698309 137.7514792899439,33.26232741617455 139.80276134122678,33.514792899408675 142.16962524655005,33.23076923076917 143.77909270217097,32.094674556213356 144.03155818540512,31.084812623274612 143.84220907298175,29.191321499014183 144.25246548323832,27.70808678501033 144.15779092702218,26.635108481263053 144.50493096647244,25.46745562130186 145.3570019723865,23.8264299802778 147.56607495069184,21.522682445760797 147.53451676528644,20.923076923078625 148.48126232741666,19.345167652860855 149.99605522682592,18.24063116370819 150.12228796844298,17.262327416174834 150.87968441814982,16.536489151873358 151.3214990138073,15.526627218934612 153.9723865877746,13.790927021696634 156.591715976332,13.285996055228383 161.04142011834358,14.485207100592723 162.71400394477527,15.368836291914405 161.6094674556226,18.082840236687986 161.5463510848163,20.639053254439112 162.24063116370792,22.753451676528282 164.38658777120696,26.382642998028928 168.04733727810626,29.38067061143978 172.97041420118518,29.285996055228104 175.36883629191385,28.40236686390642 175.36883629191385,27.266272189350612 174.95857988165727,25.909270216963822 175.05325443787342,25.120315581853816 174.51676528599978,24.23668639053213 174.42209072978363,22.15384615384611 174.67455621301775,21.143984220907367 174.2327416173603,19.40828402366939 174.76923076923393,17.73570019723994 174.95857988165727,15.747534516765594 176.97830374753477,14.453648915187335 180.35502958579903,13.664694280079571 183.98422090730193,13.664694280079571 186.35108481262523,14.138067061144678 189.28599605522754,17.925049309665535 191.65285996055533,21.71203155818639 194.33530571992353,24.142011834320456 198.28007889546683,27.013806706114245 200.45759368836676,27.17159763313669 205.12820512820704,26.76134122288012 211.06114398422247,25.688362919132842 211.9447731755464,25.214990138067733 212.54437869822632,24.42603550295997 212.35502958580295,23.700197238658493 212.63905325443798,21.585798816569326 211.75542406311854,20.828402366864708 211.2820512820512,20.73372781065079 209.6410256410294,18.619329388561624 207.58974358974652,17.230769230769447 206.48520710059384,16.126232741619024 205.6331360946753,14.80078895463538 205.9487179487202,14.138067061144678 205.53846153846362,13.98027613412223 206.07495069033726,14.011834319527615 205.50690335305825,13.75936883629349 205.75936883629237,13.506903353057123 205.88560157790943,11.266272189350891 207.93688362919232,10.82445759368893 208.69428007889917,10.319526627220679 215.82642998027893,10.256410256409904 218.66666666666956,11.297830374754037 223.11637080868113,14.516765285995866 226.14595660749512,17.293885601577976 228.197238658778,18.39842209073064 231.54240631163688,20.828402366864708 233.81459566075299,21.459566074952264 236.62327416173824,21.585798816569326 232.42603550296081,20.859960552267854 251.42406311637137,23.605522682446818 253.09664694280306,23.321499013807305 255.3372781065093,21.554240631163943 255.74753451676588,20.859960552267854 256,19.43984220907253 255.3057199211084,15.936883629191188 252.21301775147916,10.919132149902849 247.25838264299932,5.238658777121564 244.48126232741947,2.840236686390642 243.4398422090731,1.672583826431689 243.34516765286142,1.1676528599611953 242.0828402366863,0 240.85207100592106,0.3471400394480441 234.28796844181585,0.22090729783098123 230.40631163708332,0.5680473372790253 228.63905325443994,0.8836291913216826 225.79881656804932,2.1775147928999408 224.5049309664733,2.3037475345170035 223.30571992110447,2.1775147928999408 220.33925049309676,1.199211045366582 219.99211045365095,0.8836291913216826 217.59368836292228,0.3155818540448996 212.44970414201464,0.7573964497046197 210.2406311637093,1.325443786983645 206.9270216962558,2.619329388561903 202.9191321499017,4.923076923076664 201.9092702169652,5.806706114398347 200.04733727811018,6.500986193294435 197.58579881657073,6.500986193294435 193.42011834319868,3.9447731755433058 190.80078895463677,3.9447731755433058 184.23668639053605,5.901380670612265 180.07100591715954,6.500986193294435 176.53648915187728,8.205128205129268 175.65285996055337,8.836291913214584 173.38067061144173,8.615384615385844 172.1814595660774,8.205128205129268 171.2031558185418,6.09072978303786 170.66666666666816,5.775147928995202 169.30966469428137,5.554240631164221 158.32741617357,6.311637080868841 150.690335305722,8.205128205129268 149.6489151873801,9.46745562130214 149.680473372781,9.877712031558715 149.14398422090736,10.287968441815291 147.25049309664695,10.193293885601372 144.88362919132365,8.836291913214584 140.46548323471748,7.479289940830036 137.30966469428193,7.289940828402199 122.5404339250497,8.015779092703674 119.5108481262357,8.773175542406053 113.76725838264365,9.057199211045564 107.55029585798873,9.814595660750184 104.42603550295857,9.499013806707527 98.61932938856022,9.688362919133121 95.65285996055252,10.161735700198228 93.79092702169747,10.82445759368893 92.30769230769363,11.897435897436207 89.46745562130297,11.329388560159423 88.17357001972697,11.329388560159423 84.54437869822856,12.244575936884251 76.18145956607908,13.443786982248591 70.05917159763584,15.211045364891955 67.15581854043442,15.368836291914405 62.485207100594124,14.35897435897566 58.63510848126249,14.548323471401254 52.260355029589604,16.504930966470212 46.074950690335584,16.915187376726788 43.51873767258446,17.325443786983364 37.86982248520856,19.0295857988182 35.06114398422331,19.56607495069184 32.91518737672875,19.59763313609498 29.22287968441957,20.13412228796862 21.522682445760797,22.15384615384611 17.5147928994112,22.816568047339054 15.021696252466361,22.974358974359262 10.540433925049417,24.015779092703394 1.5463510848146262,25.46745562130186 1.7357001972424628,25.372781065090184 0.18934911242783667,25.24654832347312 0,25.972386587772352Z"/>
    <path d="M236.62327416173824,21.585798816569326 243.21893491124436,22.721893491125137 240.97830374753812,22.090729783037578 236.62327416173824,21.585798816569326Z"/>
    <path d="M243.21893491124436,22.721893491125137 244.323471400397,23.353057199212692 245.58579881657212,23.637080867849964 248.74161735700318,23.66863905325535 243.21893491124436,22.721893491125137Z"/>
  </g>
</svg>