<?xml version="1.0" encoding="UTF-8" standalone="no"?>
<svg viewBox="0 0 256 185.06599060472806" xmlns="http://www.w3.org/2000/svg">
  <style>
    g.zone {
      fill: lightgray;
      stroke-width: 2;
      stroke-linecap: square;
      stroke-linejoin: bevel;
      stroke-miterlimit: 3;
      stroke-opacity: 0.8;
      stroke: black;
      fill-opacity: 0.3;
    }
  </style>
  <g class="zone" id="zone">
    <path d="M0,112.700320632317 0.8589963462824842,114.85099296597387 2.335197474709577,115.58273059428882 2.691521885019596,116.07267665846499 4.35224815449985,115.75452986354522 7.38100564213456,116.40354932518149 7.858225834513516,116.31446822260376 8.717222180796904,116.53717097904763 10.244326796411015,116.46717868416526 11.981408296671791,116.63261501752352 13.77575622001819,117.12256108169967 14.660204309894182,117.10347227400432 17.364452066710985,117.53615191509486 19.935078169661644,117.52978897919671 21.608530310938196,117.91156513310024 23.988268336937093,117.70795118435173 24.777272388337654,117.797032286929 24.605473119080795,118.54149578704116 26.660701414261784,119.29868515894961 28.397782914522562,120.42492481296483 28.887728978698725,123.57457808266892 31.954664081723244,125.52163646757683 32.14555215867501,128.00318146794976 35.26975368478605,128.9067183655211 38.26669649292865,129.64481892973464 42.3135237243055,129.59391544254763 48.68282255859562,127.37325081400884 50.22265304600693,127.41142842939911 52.793279148956685,129.72117416051563 54.28856908507959,130.31929013496443 56.261079213580544,130.51017821191618 57.95998309845151,129.75935177590588 61.35142793229394,129.89933636567065 62.46494171451241,131.70004722491518 64.58379936867762,133.02353789178076 66.55630949717857,136.1541023537895 68.58608604876605,137.37578604628106 69.6359704720003,137.46486714885836 69.78231799766365,137.98662789252663 69.12057266423064,139.76824994407627 68.56699724107024,140.58906867496896 67.86707429224741,140.69087564934298 67.45348345885178,141.16173290582424 67.70800089478776,141.4926055725403 67.68891208709286,142.46613476499448 68.4206497154078,142.93699202147528 73.5619019213082,145.05584967564005 76.5079412422638,144.80769517560265 80.1348147043473,143.67509258568882 83.96530211517887,144.1714015857636 86.26232197449865,144.037779931897 86.80953446176042,143.5414709318227 89.58377451345915,142.98789550866275 94.5405015783064,143.0451619317479 96.76116620684473,142.48522357268936 97.92558347625113,141.68349364949205 99.63085029701979,142.02072925210717 100.2544180150621,142.60611935475922 106.2483036313473,143.61146322670504 108.69803395222812,143.40148634205792 111.61862152959019,144.62953297044766 113.59749459398975,147.01563393234468 116.1553948251432,148.60636790694258 116.63897795342167,150.5470633559523 116.54989685084394,151.45060025352367 115.62727114557723,153.5630949717898 113.55931697859994,155.0329331643183 113.1839037605941,155.7010414336495 113.63567220938046,156.42641612606627 114.6537419531226,156.28643153630154 116.04086197897196,155.40198344642508 118.18517137673068,155.46561280540885 120.57127233862727,155.00748142072482 122.63286356970596,155.20473243357517 126.37426987796071,158.07441652374976 126.36154400616441,158.55799965202732 126.641513185693,159.00340516491508 131.01921308378726,161.14135162677474 134.29612507145845,161.79037108841055 134.82424875102532,162.674819178287 135.21238784082746,164.81276564014667 137.4585042129593,166.85526806353045 138.9537941490813,166.97616384559984 139.246489200408,167.54246514055697 140.1882037133696,167.93060423035865 140.5063505082889,167.466109909776 140.53816518778103,166.12989337111367 141.57532373921896,166.65801705068054 142.69520045733606,167.81607138418786 141.11719235453492,175.1079959237447 142.43432008550147,175.38796510327418 143.08970248303586,175.807918872568 148.1800512017502,176.08152511619886 154.05940397186413,178.4103596550103 157.73718092113467,182.27902468123258 161.62493475505187,183.04257698903965 162.72572266547402,183.45616782243482 165.21363060174465,185.06599060472806 165.79902070439715,183.9270250789161 169.0504809484748,181.48365769393342 170.49486739740982,179.74657619367264 171.9392538463448,179.1611860910206 175.45159446225705,178.4612631421973 176.41239778291447,177.68498496259352 178.11766460368315,176.81326274451382 181.40730246315243,175.47068326995287 182.24084706584142,175.46432033405472 182.24084706584142,174.04538562871323 182.13267715556879,170.74938483334626 188.126562771854,162.81480376805175 185.92498695101054,158.04260184425766 187.77023836154396,156.6554818184083 187.38209927174182,154.81023040787443 188.2029180026345,152.1377973305502 189.27825416946317,151.062461163722 191.26349016976133,147.25742549648348 193.12783038798966,147.2192478810932 194.96035592672675,147.88735615042438 195.60937538836257,149.05177341982986 199.204434170954,149.64988939427866 202.10593294062113,148.8417965351832 203.52486764596262,148.96905525315074 207.69895359530702,147.69010513757402 215.33447667337754,146.41751795789588 219.1522382124128,154.8611338950619 219.63582134069037,162.7448114731694 222.48641662317053,162.1466954987206 227.2140779956753,162.23577660129786 235.288643650735,163.38110506300845 237.0448139586907,164.3228195759705 238.9091541769199,163.5529043322653 239.13185693336288,162.1466954987206 240.88802724131946,161.85400044739433 243.58591206223767,160.06601545994653 246.83100937041763,161.24952153704737 248.00178957572174,159.91966793428318 250.3115353068378,163.1011358834794 255.25553649988876,163.74379240921706 256,161.28133621653905 255.06464842293698,159.39790719061537 252.76762856361722,155.9364700618901 252.72308801232882,153.7857977282337 253.3530186662688,152.69773568960872 251.7559217557728,151.5905848432884 251.7750105634677,150.91611363805865 251.38050853776787,148.84815947108135 250.36880172992343,148.22459175303905 250.51514925558678,147.07926329132846 246.95826808838518,147.70283100937075 246.3856038575299,147.3910471503496 243.87224417766487,141.04083712375484 250.08883255039393,136.95583227698683 248.91168940919124,136.4086197897255 250.95419183257502,134.46792434071577 252.64673278154737,132.57176944299488 252.36676360201878,132.3872443019417 252.37312653791648,131.6046031864393 251.81955111475702,131.0764795068729 250.74421494792836,130.45927472472872 250.08246961449532,129.27576864762787 249.1471180374323,129.09124350657473 247.11734148584483,129.44120498098613 247.02826038326802,130.12840205801265 243.16595829294343,130.16657967340294 240.58896925409508,126.37426987796115 244.17130216488925,123.72728854423043 248.4662838963044,122.91919568513451 247.40367360127294,121.15029950538162 248.16722590908,120.6730793130022 247.44185121666274,119.52775085129163 247.99542663982314,118.12790495364551 246.15653816518832,117.49797429970461 245.60932567792653,116.60716327393001 245.5456963189423,115.76089279944382 244.38127904953683,113.77565679914521 237.20388735615035,115.20095444038529 237.3565978177123,112.71940944001236 235.95675192006573,111.49772574752126 235.46680585588956,110.08515397807793 232.74346929137786,108.27171724703663 233.54519921457563,106.89732309298402 232.80709865036206,106.44555464419813 228.20669599582484,106.50282106728329 226.20237118783086,107.12638878532604 224.50346730296081,105.86016454154607 220.96567494345413,104.81028011831138 216.90612184028006,99.76447195088639 218.96771307135967,95.13225461685705 220.9402231998606,94.08237019362235 220.5393582382622,92.14167474461306 221.2456441229836,90.27733452638428 216.9761141351629,88.80113339795719 206.68088385156486,86.61864638480866 202.72950065866345,84.86247607685253 199.03263490169803,84.22618248701346 195.6284641960584,83.96530211517933 193.8468421445083,84.42979643576199 194.8140084010643,85.13608232048342 194.87127482414903,85.30151865384167 195.0557999652031,85.35878507692729 195.21487336266276,85.56239902567582 195.42485024730942,85.69602067954196 195.4439390550043,85.72783535903406 195.32940620883397,85.79146471801783 195.27213978574838,85.9569010513761 195.3357691447317,86.103248577039 195.74935997812733,86.1605150001246 195.90207043968928,86.26868491039724 196.264757785897,86.38958069246664 196.39201650386545,86.49138766684112 196.0356920935554,86.76499391047201 196.0356920935554,86.84771207715114 196.15022493972575,86.9113414361349 196.07386970894524,87.08314070539132 195.92752218328278,87.16585887207044 195.87025576019715,87.26766584644493 196.2329431064049,87.33765814132731 196.6338080680042,87.53490915417721 196.51927522183297,87.66216787214522 196.50654935003578,87.77033778241784 196.875599632143,88.29209852608612 196.65925981159774,88.45117192354577 196.67198568339404,88.72477816717667 196.8692366962444,88.8520368851442 197.07921358089106,89.08746551338484 197.23192404245302,89.15109487236906 197.02831009370405,89.27199065443845 197.30191633733494,89.67285561603688 197.2255611065544,89.78738846220811 197.07285064499337,89.80011433400487 196.93922899112633,89.88919543658216 197.37827156811548,89.96555066736313 197.67096661944217,90.11189819302602 197.64551487584865,90.27097159048569 197.7791365297148,90.44277085974254 197.75368478612128,90.55730370591333 197.90639524768235,90.61457012899895 197.91912111947954,90.71637710337343 198.014565157955,90.75455471876369 197.56279670916953,90.95816866751221 197.23192404245302,91.01543509059783 197.12375413218038,91.14905674446398 196.3029354012877,91.41630005219626 195.82571520890784,91.50538115477399 195.55847190117555,91.68990629582716 195.45030199090291,91.65809161633504 195.22759923445906,91.76626152660813 195.02398528571098,91.77262446250629 194.90945243953973,91.90624611637243 194.65493500360375,92.01441602664507 193.8722938881018,92.03350483434042 192.77786891357823,92.17985236000331 192.68878781100142,92.4280068600407 192.14157532373963,93.0324857703881 191.7852509134296,93.09611512937187 191.58163696468063,93.18519623194915 191.4098376954238,93.19792210374591 191.2507642979641,93.06430044987977 191.09805383640307,93.01975989859089 190.71627768249954,93.05793751398161 190.51266373375057,93.16610742425425 190.32813859269743,93.04521164218485 190.09907290035585,92.97521934730248 189.9718141823874,92.70797603956974 189.89545895160688,92.66343548828132 189.9527253746925,92.43436979593885 189.86364427211475,92.36437750105694 189.86364427211475,92.10986006512094 189.9463624387939,92.06531951383253 189.9972659259809,91.9826013471534 189.9654512464897,91.95714960355944 189.63457857977318,91.74717271891278 189.47550518231265,91.49901821887539 189.32279472075157,91.39084830860276 188.45743543857049,91.23813784704126 188.126562771854,91.02179802649599 188.03111873337855,91.00270921880107 187.8402306564268,90.68456242388132 187.78932716923887,90.2964233340792 187.98657818208923,89.94646185966778 188.1520145154475,89.81920314169977 188.34926552829785,89.74284791091925 188.4447095667733,89.45651579549161 188.41289488728208,89.23381303904773 188.28563616931365,89.15109487236906 188.26654736161873,88.85839982104281 187.43936569482744,88.56570476971702 187.16575945119655,88.54661596202166 186.91124201526148,88.42572017995226 186.4149330151867,88.33663907737454 185.83590584843282,88.40026843635876 185.80409116894072,88.5275271543263 185.7468247458551,88.54661596202166 185.35232272015526,88.48934953893604 185.26324161757753,88.56570476971702 184.74784380980785,88.69296348768455 183.35436084805988,88.66751174409104 183.0998434121248,88.70568935948131 182.86441478388372,88.92839211592518 182.52717918126953,89.00474734670571 182.43809807869178,89.11291725697835 182.4190092709969,89.22745010314958 182.4953645017774,89.4056123083046 182.6989784505255,89.45651579549161 182.88350359157954,89.61558919295126 183.0553028608355,89.65376680834197 183.080754604429,89.7364849750211 183.26527974548216,89.89555837248075 183.45616782243394,90.53821489821841 183.3798125916534,90.69728829567808 183.1062063480225,90.78636939825535 182.97258469415635,90.90090224442659 182.97894763005496,90.95816866751221 183.0743916685304,91.01543509059783 182.775333681306,91.21904903934634 182.7498819377125,91.3844853727046 182.2344841299428,91.46720353938328 181.8654338478365,91.75353565481092 181.67454577088475,91.8235279496933 181.5918276042056,91.95078666766129 181.50274650162788,91.96351253945805 181.32458429647332,91.95714960355944 181.10824447592805,91.78535033430303 180.82191236049994,91.88079437277892 180.75828300151665,91.84261675738865 180.70101657843102,91.58809932145311 180.52921730917416,91.49901821887539 179.94382720652166,91.53719583426565 179.7593020654685,91.68990629582716 179.24390425769883,91.46084060348512 178.95120920637302,91.47992941118048 178.8621281037953,91.36539656500925 178.8875798473888,91.02816096239458 178.8175875525069,90.95816866751221 178.90666865508462,90.73546591106833 178.8175875525069,90.6082071931008 178.594884796063,90.4745855392342 178.23856038575298,90.4554967315393 177.9458653344272,90.1755275520098 177.83133248825595,90.14371287251814 177.78042900106894,90.00372828275339 177.82496955235735,89.87010662888724 177.6213556036093,89.64104093654522 171.83744687197077,90.78636939825535 171.44294484627093,90.65911068028781 171.0229910769767,90.93907985981686 170.7875624487365,90.85636169313773 170.7112072179551,90.76728059056045 170.4376009743242,90.64002187259246 169.75676683319625,90.67183655208457 169.53406407675328,90.59548132130358 169.3240871921057,90.61457012899895 169.18410260234097,90.56366664181193 169.08865856386555,90.46185966743744 168.6114383714857,90.48731141103096 168.35055799965198,90.44277085974254 167.95605597395218,90.57639251360868 167.59973156364214,90.56366664181193 167.40248055079178,90.61457012899895 167.23704421743352,90.59548132130358 166.88708274302212,90.42368205204718 166.8425421917328,90.1564387443149 166.96343797380263,89.95282479556637 167.29431064051914,89.71103323142714 167.71426440981247,89.55195983396749 167.83516019188232,89.38016056471109 167.91151542266286,89.08110257748669 168.22329928168446,89.02383615440107 168.45236497402604,88.8265851415507 168.90413342281238,88.62933412870079 169.13956205105256,88.43844605174903 169.36226480749644,87.98031466706452 169.34317599980153,87.61762732085634 169.42589416648065,87.43946511570134 169.80130738448557,87.21676235925791 169.8267591280791,87.14677006437554 169.2922725126136,86.8540750130493 169.02502920488132,86.80953446176042 168.84686699972676,86.4341212437555 168.82141525613326,86.16687793602321 169.2859095767159,85.81691646161134 169.6358710511273,85.6896577436438 169.62950811522873,85.35878507692729 169.73131508960276,85.14880819228017 169.68677453831435,85.02791241021079 169.48316058956536,84.86247607685253 169.65495985882222,84.62704744861234 169.591330499838,84.51251460244112 169.13956205105256,84.38525588447312 168.78960057664113,84.35344120498146 168.6750677304699,84.25799716650558 168.6114383714857,84.10528670494408 168.07695175602112,83.81259165361828 167.11614843536367,83.76805110232941 167.1034225635674,83.47535605100316 166.5434842045084,80.73293067879655 165.88173887107627,80.30661397360416 165.77356896080363,80.08391121716029 165.82447244799064,79.89302314020853 165.4045186786964,79.74031267864747 164.85094325553692,79.70849799915536 164.27191608878303,79.47943230681334 164.25282728108724,79.19946312728383 164.66005517858517,79.03402679392559 164.87003206323183,79.00857505033208 165.20090472994835,78.84313871697383 165.29634876842377,78.72224293490443 165.46814803768063,78.6395247682253 165.54450326846117,78.51226605025776 165.73539134541292,78.42318494768003 165.7290284095143,78.23229687072826 165.58268088385188,77.97141649889413 165.62722143514029,77.83779484502799 165.3536151915094,77.71053612706045 165.1181865632692,77.52601098600684 165.38542987100152,76.88971739616777 165.20090472994835,76.73700693460627 165.15000124276133,76.61611115253687 164.91457261452024,76.35523078070274 165.15000124276133,76.18979444734448 165.41724455049362,76.10707628066535 165.45542216588342,75.7952924216442 165.80538364029485,75.61076728059105 165.76084308900644,75.36261278055366 165.0354683965901,75.17808763950005 164.64732930678795,75.17808763950005 164.22101260159602,75.0444659856339 164.04285039644057,74.94265901125988 163.97285810155864,74.80903735739373 163.52108965277228,74.58633460094985 163.5020008450774,74.50361643427073 163.69288892202914,74.36363184450597 163.67380011433423,74.17910670345282 163.75015534511476,74.02639624189132 163.68652598613053,73.75278999826043 163.43837148609316,73.70824944697156 163.19657992195437,73.74006412646368 162.6302786269977,73.98185569060246 162.21668779360206,73.8227822931428 161.4340466781001,73.70188651107341 161.1222628190785,73.54281311361376 161.02681878060307,73.28829567767777 161.07135933189147,73.03377824174224 161.14135162677428,72.919245395571 161.26224740884322,72.86197897248583 161.2113439216562,72.67745383143222 160.93137474212674,72.72835731861923 160.46688042154406,72.53110630576931 159.88785325479108,72.58837272885494 158.8379688315559,72.13660428006904 158.64708075460416,71.93299033132053 158.50073322894173,71.50031069022998 158.78070240847032,71.36032610046523 158.82524295975963,71.296696741481 158.84433176745452,71.04854224144408 159.0479457162035,70.95946113886635 158.95250167772716,70.74948425421968 158.85069470335313,70.6731290234387 158.7616136007754,70.71130663882896 158.59617726741715,70.68585489523545 158.23985285710714,70.51405562597905 157.9217060621878,70.5267814977758 157.41903412621446,70.3740710362143 157.17724256207566,70.11319066438016 157.18360549797427,69.90321377973349 157.018169164616,69.73141451047664 156.9609027415304,69.57234111301699 156.85909576715636,69.5023488181346 156.83364402356287,69.41326771555732 156.9418139338355,69.21601670270697 156.49004548504914,69.09512092063757 155.91738125419386,68.81515174110854 155.86647776700684,68.76424825392107 155.88556657470264,68.61153779236001 155.84102602341332,68.53518256157903 155.26199885666034,68.37610916411938 154.89294857455312,68.32520567693237 154.4793577411575,68.35065742052588 154.36482489498624,68.29339099744026 154.30119553600292,68.15976934357411 154.16757388213676,68.03251062560612 154.14212213854327,67.87980016404462 154.04031516416833,67.82253374095946 153.925782317998,67.64437153580444 153.9703228692864,67.5362016255318 154.16757388213676,67.38985409986846 154.17393681803537,67.19260308701854 154.03395222827064,67.00807794596493 153.74762011284253,66.86809335620063 153.58854671538288,66.72810876643588 154.18666268983168,66.42268784331289 154.2757437924094,66.20634802276761 154.5238982924468,66.00273407401909 154.97566674123223,66.01545994581585 155.05202197201277,66.13635572788523 155.30017647205014,66.06636343300332 155.38925757462786,66.0281858176126 155.4337981259163,65.7354907662868 155.89829244649894,65.5573285611318 156.0828175875521,65.4364327790624 156.1082693311456,65.35371461238327 156.45823080555795,65.37916635597679 156.661844754306,65.30917406109441 156.88454751074988,65.33462580468792 157.10088733129516,65.20100415082177 157.40630825441815,65.20100415082177 157.64809981855691,65.15010066363476 157.8453508314073,64.97830139437791 158.01715010066326,64.9846643302765 158.23348992120853,64.45654065071008 158.66616956229996,64.41200009942122 158.7997912161661,64.55198468918596 158.69798424179118,64.62833991996649 158.68525836999487,64.77468744562938 158.7997912161661,64.88285735590202 159.92603087018088,65.22009295851713 159.90694206248597,65.2837223175009 160.03420078045352,65.62095792011557 159.9451196778767,65.80548306116918 160.34598463947512,66.32088086893884 160.34598463947512,66.52449481768737 160.5305097805283,66.70265702284237 160.8613824472448,66.88718216389553 161.4785872293885,67.11624785623756 161.7203787935273,67.36440235627495 162.0003479730568,67.35167648447819 162.30576889617979,67.52983868963321 162.41393880645242,67.44712052295408 162.71935972957542,67.3771282280717 162.84025551164436,67.1989660229167 162.85298138344157,67.09079611264406 163.16476524246227,66.89990803569229 163.36837919121123,66.89354509979414 163.33656451171913,66.98262620237142 163.37474212710984,67.09079611264406 164.34827131956357,67.72072676658496 164.52643352471813,67.9307036512321 164.65369224268656,67.98160713841911 165.0863718837771,67.96251833072374 165.27725996072888,68.02614768970797 165.53177739666486,68.22976163845648 165.97718290955171,68.43973852310316 166.39713667884595,68.75788531802291 166.8361792558351,68.61790072825816 167.25613302512843,68.71970770263265 167.59973156364214,68.71334476673405 168.15966992270023,68.48427907439202 168.42691323043252,68.47155320259526 168.6114383714857,68.39519797181474 169.66768573061944,68.5479084333758 170.72393308975228,68.41428677950965 171.82472100017355,68.42064971540825 172.2001342181794,68.31884274103376 172.6009991797778,68.127954664082 172.70916909005044,67.94979245892699 173.26910744910853,68.03887356150473 173.57452837223153,67.99433301021585 173.94357865433875,68.10250292048849 174.14082966718823,68.08977704869174 174.31899187234367,67.9561553948256 174.47806526980332,67.6570974076012 174.87256729550407,67.68891208709286 175.15253647503266,67.56165336912531 175.19707702632198,67.47893520244618 175.3116098724923,67.42166877936057 175.23525464171178,67.32622474088468 175.33069868018814,67.12261079213617 175.2225287699155,67.03989262545704 175.50249794944406,67.11624785623756 175.98608107772253,67.0589814331524 176.07516218029937,66.94444858698115 176.08788805209656,66.82991574080992 176.37422016752376,66.53085775358552 176.85144035990362,66.454502522805 177.13777247533082,66.13635572788523 181.78907861705596,65.8563865483562 181.65545696318983,65.18191534312642 182.29175055302844,64.26565257375832 182.8135112966967,63.7820694454803 183.0743916685304,63.47028558645915 183.78067755325273,63.298486317202745 184.15609077125765,62.89125841970571 184.5633186687547,62.85308080431499 184.576044540551,62.585837496582705 184.89419133547122,62.40131235552955 185.48594437402141,61.695026470807655 182.87714065568093,59.15621504734956 177.3795640394705,51.63522481545026 176.38694603932097,51.55250664877113 174.21082196207104,50.26719359729625 169.45134591007417,48.326498148286504 168.3696468073469,46.85665995575801 168.70688240996202,46.163099942833334 167.08433375587248,44.61054358362571 164.18919792210392,43.55429622449241 151.07518703551784,37.63040290308959 148.5618273556537,37.0577386722343 141.9761887008174,32.540054184376196 139.8000646235675,32.00556756891117 133.40531404568384,29.390400914672092 126.60969850620089,26.507990952700734 122.22563567220892,25.152685606343482 120.50128004374535,21.793055451992263 118.55422165883701,17.440807297492412 112.8212164143864,13.29217309174063 109.64611140108833,9.499863296299317 109.75428131136097,8.857206770561652 107.90266696492895,8.51997116794699 106.00651206720852,7.253746924167018 99.91081947654929,1.5461934233094663 98.98819377128258,2.347923346506783 95.64128948872767,3.4041707056400865 92.66343548828088,2.9524022568541852 90.24551984689127,0.5599383590585368 87.75124897472203,1.4443864489349814 79.33944771704813,0.9544403847588182 78.13685283225193,0 76.69882931921556,1.4952899361224499 76.61611115253643,2.9714910645490904 75.349886908756,4.2886187955165305 74.82812616508772,6.032063231675912 73.25648099818521,8.036388039668978 73.91822633161823,11.243307732458698 73.65098302388594,12.967663360922721 72.9319712673673,14.991076976611597 69.61051872840679,20.16414386200412 68.05796236919917,21.3094723237147 66.98262620237142,23.19926428553698 65.30917406109396,25.08269331146111 65.34735167648468,26.43799865781836 64.76832450973077,27.64059354261456 64.25928963785971,27.88238510675334 63.960231650634405,29.123157606939806 63.05033181716491,30.204856709666615 63.75661770188634,31.916486466333886 63.413019163373534,33.13817015882499 62.87853254790805,33.653567966594665 63.52755200954387,36.046031864390315 66.6517535356549,42.663485198717815 76.94062088335434,42.55531528844518 77.04879079362698,46.563964904431764 74.27455074192825,49.917232122884386 76.15797976785238,57.629110431735455 73.07831879303065,61.535953073348004 74.21092138294402,62.87216961201035 73.32647329306803,65.84366067655944 75.20990231899125,70.15773121566903 63.70571421469933,74.8726667163775 59.42982129098,74.01367037009456 49.484552481793386,76.50157830636564 48.237417045708774,75.55986379340358 46.95846693013205,75.85892178062844 38.107623095468995,75.52168617801331 33.303606492182794,79.1931001913857 20.654089926179378,80.33206571719766 18.73248328486544,81.98006611488117 11.943230681281078,83.19538687147413 13.413068873809568,84.4616111152541 14.087540079038892,86.16687793602321 13.56577933537152,86.51047647453602 13.705763925135363,87.54763502597397 12.776775283970958,88.3557278850699 12.57952427112059,88.92202918002658 8.481793552555823,90.58911838540544 7.60370839857753,91.57537344965637 7.1137623344013665,93.81512688589007 7.4255461934229725,94.2541694628792 6.8783337061611896,96.15668729649825 6.4838316804613605,100.77617875873084 5.7839087316376245,101.2597618870084 5.357592026445684,101.99786245122193 4.0850048467675615,104.44759277210275 2.92058757736117,107.23455869559868 1.9406954490088435,107.81358586235213 0.5026719359724652,110.23150150374128 0.08271816667912772,111.59953272189529 0,112.700320632317Z"/>
  </g>
</svg>