<?xml version="1.0" encoding="UTF-8" standalone="no"?>
<svg viewBox="0 0 256 167.8071033827315" xmlns="http://www.w3.org/2000/svg">
  <style>
    g.zone {
      fill: lightgray;
      stroke-width: 2;
      stroke-linecap: square;
      stroke-linejoin: bevel;
      stroke-miterlimit: 3;
      stroke-opacity: 0.8;
      stroke: black;
      fill-opacity: 0.3;
    }
  </style>
  <g class="zone" id="zone">
    <path d="M0,30.304762575240463 3.5053680171775006,32.26019923263802 3.802738568762894,34.13453483051205 7.686578197049309,35.63039881727653 8.722869513181351,40.93801260164077 12.29131613221119,43.497201591045346 12.345383505227298,45.15526769685687 14.381921222147735,47.59731071139491 17.24749199197329,47.768524059277546 21.50079200253367,49.26438804604203 23.456228659931867,50.72420711746286 24.447463831884033,53.175261360836494 23.00566721813438,53.13921644549285 20.11306276180013,54.64409166109356 19.256996022386314,56.69865183568646 17.616952374247255,59.05959379070034 13.012214439085374,60.70864866767627 13.507832025061457,62.98848956316728 14.985673554154753,63.817522616073035 17.7791544932943,64.33116265972095 17.932345383505112,65.45756626421273 20.17614136365247,66.68309338589923 20.194163821323652,68.77369847583577 19.545355345136755,69.77394487662417 27.313034601710868,71.57619064381028 37.07219543102554,68.76468724699954 43.94776303284091,70.74715759090452 48.894927663768065,70.31461860678013 50.00330881058739,72.2249991199978 47.16477172726925,73.98218874300467 47.66940054208156,76.8567707416671 52.562497799992606,78.60494913583774 59.25784082508975,75.47805272976916 62.38473723115834,75.53212010278462 63.2768488859158,79.81245379985242 66.24154317293734,80.97490231968786 66.75518321658588,86.53483051145825 76.6044563342603,86.6339540286536 89.71579429054167,98.6549332957868 95.05945299024891,97.90700130240457 103.16054771375207,101.04290893730939 106.53074729839122,103.79133373226841 107.54901615685208,106.17029814495477 109.11696997430384,105.99908479707213 111.01833925868593,107.71121827589911 113.90193248618395,108.48618395578941 116.57826745045634,110.15326129043653 117.7407159702905,111.37878841212367 122.53468971100683,112.4781583301074 129.12189799007305,109.86490196768672 132.39297405751748,110.2613960364681 140.32285543313736,120.04759055229019 147.82019782463348,123.30965539089776 150.31630821218636,123.11140835650707 153.99288957724715,126.00401281284132 154.7588440283012,127.30162976521575 153.93882220423103,130.5366609173153 157.0837410679708,135.64602766728947 157.42616776373734,138.22323911436587 158.99412158118912,142.4044492942383 162.2201415044524,144.26076243444052 163.30148896476433,143.9724031116907 164.65317329015423,145.5944243021586 168.05941779013702,150.37037558520248 170.0058432186977,151.04621774789743 171.1142243655183,152.26273364074834 171.8171002147213,153.77662008518527 174.92597416311744,155.4617198775042 175.89918687739842,156.78637051638668 174.97103030729733,159.45369425182218 176.72821993030354,159.11126755605693 177.82758984828791,158.82290823330712 178.3412298919352,158.48048153754186 187.2353127530011,158.49850399521367 190.29913055721735,158.90400929283064 192.31764581646658,159.93128938012646 193.08360026752067,161.4001196803835 198.26505684818213,160.76032243303223 199.6077299447358,159.76007603224383 206.45626386004506,160.36382836425148 212.66500052800234,161.84166989334415 213.1786405716496,164.75229680735086 217.60315393009327,167.68995740786434 218.567355415538,166.34728431131066 222.51427364567547,166.0949699039045 225.4969903903695,166.91499172797404 228.00211200675858,165.64440846210766 231.3092329895454,165.83364426766212 232.70597345911517,165.3200042240142 236.18430778978527,167.8071033827315 242.3750220000701,159.12027878489315 248.3134218029507,156.39888767644155 254.37797880953212,155.5968883100432 256,153.56936182195835 255.33316906614192,152.42493575979537 255.6035059312199,151.29853215530358 252.16121651589347,148.1626245203994 249.14245485585582,146.55862578760335 248.91717413495772,145.90080608258023 249.35872434791767,144.79242493576024 248.37650040480176,143.3866732373549 245.5830194656622,140.53011369636428 240.3565067408221,139.6830581857867 237.70720546305716,138.0970819106631 237.00432961385545,136.56517300855435 235.25615121968417,135.32162342919537 234.3460171072555,133.96993910380547 228.92125734802346,132.35692914217384 228.8041113731563,131.1043683339793 226.9748319194628,128.74342637896476 226.6774613678761,127.58998908796555 226.51525924883035,126.31940582209918 227.89397726072767,122.97623992396808 230.72350311520958,119.76824245837662 232.20134464430285,115.82132422823786 230.69646942870216,110.8471259108033 218.3871308388185,105.62061318596257 216.14333485867115,106.25139920447829 212.44873103593918,105.7017142454861 207.7448695835826,105.80984899151703 206.5734098349122,105.33225386321277 206.46527508888,104.69245661586147 204.0863106761943,104.69245661586147 203.5636594037108,104.55728818332248 203.25727762328916,104.62036678517418 203.05001936006224,104.77355767538499 194.44429582174678,95.88848604315596 186.83881868421972,87.84145869266827 156.155584497871,80.63247562392259 148.83846668309306,76.90182688584635 151.65898130874004,74.34263789644177 151.74909359709977,72.98194234221565 152.6051603365136,72.16192051814612 156.02041606533135,70.37769720863183 162.43641099651555,68.94491182371841 163.32852265127303,63.79048892956498 167.24840719490308,59.221795909747385 169.5552817769015,59.59125629202071 184.62205639058106,57.04107853145173 196.50786722517464,59.807525784083225 202.07680664578126,53.70692386215686 199.67080854658687,52.499419198141545 190.67760216832752,50.165510929635076 187.78499771199327,47.59731071139491 187.05508817628288,45.66890774050541 187.1632229223138,42.4699215037489 189.12767080854695,40.58657467703927 184.1805061776198,37.07219543102554 180.24259917631727,36.25217360695601 176.65613009961626,32.55756978422341 175.70995107184396,30.13354922735783 176.65613009961626,27.2589672286954 174.44837903481255,21.34760111232414 179.59379070013037,18.013446443028634 168.8614171565347,15.79668414938933 162.32827625048463,12.588686683797864 155.20039424126117,11.80470977507134 149.11781477700728,9.81322820233078 140.81847301911344,9.506846421908515 137.2770600865923,7.785701714245934 133.33915308528978,6.875567601816652 128.42803336970627,7.299095357105443 127.40976451124669,6.064557006582714 124.5802386567635,3.108873948396763 120.61529796895356,1.3066281812106606 111.86539476926352,0 102.68295258544845,0.26132563624238825 92.54532014502486,2.9016156851704826 86.264493646379,5.397726072723356 82.41669893343622,6.361927558168747 77.5506353620326,6.208736667957294 76.099827519448,5.3526699285441195 66.41275652082061,2.703368650779794 57.1942694216619,2.6042451335844494 54.08539547326578,2.856559540990606 38.89246365588283,8.038016121652092 36.34228589531384,7.254039212925567 27.556337780280153,9.011228835932434 24.005913618922776,12.651765285648922 22.555105776338177,13.192439015804881 18.995670386144567,16.923087753881124 18.590165088528238,17.98641275652122 14.183674187757045,19.392164454926586 11.66954134253171,21.320567425816087 9.984441550212773,21.870252384807635 6.154669294941186,21.942342215495568 6.677320567424682,23.789644126861546 4.784962511880107,26.177619768383483 0.1351684325383494,28.196135027632096 0,30.304762575240463Z"/>
  </g>
</svg>