<?xml version="1.0" encoding="UTF-8" standalone="no"?>
<svg viewBox="0 0 256 204.4495332918483" xmlns="http://www.w3.org/2000/svg">
  <style>
    g.zone {
      fill: lightgray;
      stroke-width: 2;
      stroke-linecap: square;
      stroke-linejoin: bevel;
      stroke-miterlimit: 3;
      stroke-opacity: 0.8;
      stroke: black;
      fill-opacity: 0.3;
    }
  </style>
  <g class="zone" id="zone">
    <path d="M0,18.657573117610443 0.4078158058493641,19.415855631611507 1.1724704418170349,20.091300560049827 2.5361045426259876,20.632930927193442 3.6193652769132196,21.996565028002397 5.046720597386447,22.952383322961985 7.990640945861799,23.245500933416018 10.743397635345232,23.188151835718806 14.706857498443542,25.38016179215925 15.363186060982489,25.902675793403944 13.649085252021838,27.756963285625456 11.74382078406927,29.39459863098952 9.813067828251173,30.87930304915996 8.685202240198587,31.36995644057252 8.971947728686915,32.34489110143103 9.723858120721369,33.17963907902913 11.794797759800327,34.44131922837597 12.068799004355439,34.98932171748574 11.444331051648629,36.32109520846301 12.119775980086496,37.232308649657696 18.077710018668082,40.01055382700666 18.351711263223194,40.63502177971347 18.224268823894647,42.648612321095214 19.619763534535736,43.967641568139264 19.5879029247036,44.56662103298054 18.166919726197886,44.923459863098856 17.892918481642774,45.23569383945226 18.205152457995727,47.65072806471676 17.95663970130614,47.96933416303677 17.109147479775277,48.198730553826984 16.80965774735464,48.62566272557572 17.274822650901665,49.02073428749232 17.24296204106953,49.44129433727445 17.070914747977437,49.72803982576232 17.459614187926977,50.02752955818296 19.180087118854235,50.97697573117595 21.5186558805226,51.62056004978213 24.328761667703702,52.028375855631495 25.125276913502603,54.55810827629132 26.170304915991995,57.06872433105178 28.910317361543118,59.51561916614797 35.977000622277465,59.85971375233351 35.60741754822594,60.79004355942757 33.12866210329762,62.05809583074056 32.96935905413784,63.16047293092717 31.52288736776569,64.32657125077759 31.6184691972612,65.35885500933422 33.89331673926529,66.23820784069677 34.352109520845715,67.47439950217809 34.03350342252615,69.50073428749214 39.28413192283683,72.75688861232089 40.64776602364578,72.78874922215303 41.38693217174792,73.19019290603624 40.90902302426858,74.25433727442456 38.26459240821387,76.51644057249543 39.86399502177919,78.67658991910373 39.85125077784688,79.75985065339142 40.858046048537524,81.04064716863718 39.83213441194705,83.80614810205337 39.75566894835047,85.90257622899786 46.05769757311714,89.25431238332303 49.46041070317291,89.7067330429373 52.984194150590625,91.60562538892326 57.228027380211564,93.35795892968265 61.809583074050984,97.40425637834461 64.638805227131,97.85030491599227 68.13072806471658,100.52659614187911 84.90852520223999,99.14384567517125 86.53978842563744,99.93398879900444 87.4701182327315,101.11920348475424 87.9990043559428,102.56567517112639 88.05635345363956,103.82098319850662 89.3116614810198,104.50917237087725 89.34352209085193,106.2742501555694 89.73222153080238,106.9560672059739 97.17485998755394,108.42802738021156 106.86685749844409,113.156141879278 108.93142501555643,114.57075295581846 110.38426882389518,116.20838830118207 114.66633478531396,117.9479775980087 112.74832607342817,118.76360920970743 111.60771624144328,124.16079651524558 112.0537647790914,125.3141505911637 110.89403858120667,127.28313627878053 109.73431238332284,128.32816428126947 110.88766645924007,131.5142252644678 112.20032358431796,133.3111636589921 111.8052520224018,136.00657125077785 111.93269446172945,138.1539763534534 113.41102675793374,141.39101431238325 113.78698195395096,142.49976353453647 115.25894212818864,143.76781580584947 115.9343870566265,145.47554449284394 115.41187305538271,145.81963907902903 115.55205973864267,146.8582949595518 114.62172993154951,147.66755444928438 114.42419415059099,148.23467330429355 110.32054760423091,149.90416925948975 109.44119477286792,150.89184816428147 108.95054138145535,153.13483509645297 109.26277535780922,153.57451151213448 108.71477286869899,155.47977598008703 108.31970130678285,160.10593652769137 107.61876789047854,160.5902177971373 105.9174113254511,163.78265090230224 104.75131300559977,166.5736403235844 103.77000622277465,167.15350342252634 102.32990665836911,169.57490976975745 101.90934660858744,170.94491599253254 101.82650902302424,172.04729309271914 102.68674548848742,174.20107031736177 104.1650777846917,174.9338643434973 104.52191661481001,175.42451773490984 106.18504044803962,175.10591163658984 109.21817050404476,175.75586807716263 109.6960796515241,175.6666583696328 110.55631611698819,175.8896826384569 112.08562538892353,175.81958929682645 113.82521468574971,175.98526446795285 115.62215308027355,176.4759178593654 116.50787803360225,176.45680149346603 119.21602986932125,176.89010578718091 121.79036714374598,176.88373366521478 123.46623522090789,177.2660609831986 125.8494088363407,177.06215308027393 126.6395519601739,177.15136278780327 126.4675046670809,177.89690105787201 128.52570006222754,178.65518357187307 130.26528935905372,179.7830491599252 130.7559427504663,182.93724953329186 133.8273055382693,184.88711885500933 134.0184691972612,187.37224642190426 137.14718108276276,188.27708774113233 140.14845052893577,189.01625388923446 144.2011200995639,188.96527691350343 150.57961418792715,186.74140634723085 152.1216677037957,186.77963907902912 154.69600497821955,189.09271935283152 156.19345364032364,189.6916988176728 158.1688114499062,189.8828624766647 159.87016801493453,189.1309520846298 163.2665090230237,189.27113876789068 164.38163036714306,191.07444928438068 166.503546981954,192.39985065339133 168.47890479153654,195.5349346608586 170.51161169881766,196.75838207840715 171.56301182327275,196.8475917859365 171.70957062850022,197.3701057871812 171.04686994399466,199.15429993777227 170.49249533291783,199.97630367143762 169.79156191661443,200.0782576228997 169.37737398879847,200.54979464841335 169.63225886745465,200.8811449906657 169.61314250155573,201.85607965152465 170.34593652769126,202.32761667703784 175.49461107653983,204.4495332918483 178.44490354698178,204.2010205351587 182.07701306782823,203.06678282513997 185.9130304915989,203.56380833851915 188.21336652146852,203.42999377722444 188.76136901057873,202.93296826384574 191.5396141879277,202.37859365276935 196.50349719975094,202.43594275046655 198.7273677660231,201.87519601742358 199.89346608587442,201.0723086496576 201.60119477286847,201.41003111387698 202.22566272557526,201.9962663347855 208.22820161792131,203.00306160547615 210.6814685749841,202.79278158058486 218.0731300560046,193.87181082762902 221.15086496577422,193.483111387679 222.4380336029866,193.88455507156178 227.77149968886135,193.13264467952686 229.59392657125073,195.47121344119478 231.60751711263202,195.89814561294352 235.0866957062844,195.89814561294352 238.8781082762906,194.5982327317984 246.76042314872367,195.94275046670796 248.461779713752,195.1462352209086 255.96813939016786,195.1207467330431 256,176.01712507778453 249.56415681393906,167.66964530180442 240.50299937772235,160.5965899191039 236.79442439327934,154.32642190416937 236.3292594897323,153.81028002489128 238.99917859365254,150.57324206596147 237.18949595519547,141.14887367766028 233.57013067828225,136.7775980087117 221.81356565027977,129.08644679527055 220.88960796515232,125.65824517734923 217.9839203484748,121.60557560672066 214.0077162414433,118.04355942750466 211.52258867454836,115.72410703173612 207.7694088363409,105.35029247044196 209.6236963285624,102.01767268201617 202.4486869943993,99.81291848164295 197.41471064094517,99.6344990665838 190.97249533291856,96.72243932794014 188.85057871810764,97.56355942750484 182.1407342874916,96.32736776602353 178.8782078406967,101.80102053515871 168.57448662103295,101.90934660858744 165.4457747355314,95.2823397635346 164.79581829495905,92.88642190416901 165.33107654013696,92.37028002489093 162.52734287492157,90.98752955818306 157.9202986932166,91.62474175482264 155.2758680771619,92.21734909769776 149.3816552582446,88.99305538270069 147.86509023024246,86.15746110765406 135.93010578718037,82.56995644057253 135.88550093341593,77.58695706284989 133.09451151213375,76.76495332918456 133.33665214685672,74.89792159303029 131.52696950840055,73.22842563783453 130.62850031113865,69.52622277535767 128.36002489110115,69.41789670192894 124.43479775980069,66.7479775980087 105.1336403235836,68.13710018668318 101.54613565650253,62.46591163658993 101.29125077784633,58.48970752955795 96.53127566894821,52.98419415059108 94.43484754200372,50.103995021779554 92.58693217174792,46.91793403858122 94.39661481020498,43.292196639701395 93.2623771001867,40.49483509645306 87.66128189172342,41.59084007467305 81.80530180460485,39.39883011823261 72.43191039203427,41.042837585563284 72.05595519601705,38.226359676415576 63.89326695706225,34.78541381456106 64.03982576228972,32.09000622277529 57.57212196639665,28.70003733665228 51.89456129433679,27.82068450528928 49.24375855631547,23.84448039825775 39.79390168014921,16.083235843186163 40.12525202240199,14.152482887367615 30.66265090230161,10.30372121966373 29.62399502177973,6.346633478531125 25.48848786558752,0.7646546359676709 24.53904169259454,0.10195395146211464 22.601916614809834,0.8538643434970212 17.013565650279773,0 12.036938394523302,0.49065339141255865 6.180958307404736,1.7013565650278866 6.416726820161102,2.4978718108276947 5.626583696327903,2.9120597386432143 5.142302426881953,4.3075544492843045 3.447317983820222,6.257423771001775 2.3895457373985187,7.8950591163658395 3.058618543869778,9.70474175482245 2.7463845675168255,10.163534536403324 3.5683883011821624,11.30414436838822 4.10364654635917,11.48893590541353 4.320298693216616,12.807965152458035 4.033553204729192,13.215780958307398 5.3908151835715366,16.13421281891722 4.766347230864726,17.790964530180208 4.052669570628113,18.472781580584684 0.707305538270005,18.313478531424902 0,18.657573117610443Z"/>
  </g>
</svg>