<?xml version="1.0" encoding="UTF-8" standalone="no"?>
<svg viewBox="0 0 256 76.67379313711096" xmlns="http://www.w3.org/2000/svg">
  <style>
    g.zone {
      fill: lightgray;
      stroke-width: 2;
      stroke-linecap: square;
      stroke-linejoin: bevel;
      stroke-miterlimit: 3;
      stroke-opacity: 0.8;
      stroke: black;
      fill-opacity: 0.3;
    }
  </style>
  <g class="zone" id="zone">
    <path d="M0,44.228632791525946 8.422121345243214,62.853516864352905 7.591155366817812,72.01913408502914 6.041684970957085,72.90633084394958 6.035437106457438,76.63005808561478 59.37970420266512,76.59257089861823 79.72899887733668,76.64880167911328 129.4620002928688,76.65504954361292 168.32996534387598,76.53634011812319 219.91858251574172,76.67379313711096 256,76.58007516961938 253.713281593205,72.10035632352188 255.67511104602906,66.45228681602917 251.5515204763994,62.085029530921744 250.78303314296866,56.75560111290078 247.57163079025713,54.53760921559968 247.6153658417529,52.21340362180859 248.95240884463274,51.826036022843404 248.40259676868254,47.98359935568893 250.23322106701758,41.86069214623866 248.50881046517299,41.54829892126702 245.57856201493576,42.704153853662916 242.54834773270773,42.373017035192774 240.9738858788493,41.21716210279643 239.18699663201002,39.155366817982035 239.1057743935173,37.98701615658685 242.66705715819745,37.14980231366224 242.0860057597499,36.15639185825137 237.03148337970404,34.53819495289675 234.76975643090677,33.48230585249164 232.51427734661,31.01439937521313 231.67706350368496,30.8769463562258 231.3646702787133,30.520818079757515 230.78361888026487,30.533313808756365 229.9963879533361,30.395860789769035 229.54029384487703,30.845707033728456 229.6402596768678,33.28237418850963 230.14633670132227,34.22580172792466 225.28549812075923,39.75516180992808 225.3979596817493,40.34870893737448 221.44306145360474,43.741299360569975 219.73114658075855,44.066188314540476 218.82520622833917,44.834675647971636 219.20632596280515,45.42822277541848 218.4565822228725,45.67813735539589 218.46907795187178,46.10299214135762 219.18133450480747,46.340410992336174 219.18133450480747,46.94020598428266 218.85644555083653,47.30258212524971 220.25596719871106,49.8392151120221 222.2177966515351,51.86352320983995 223.06125835895892,54.468882706106236 222.38648899301936,56.04334455996466 221.2931127056177,56.911797725386606 215.5075901791381,58.411285205251936 214.21428222775398,58.49250744374467 213.54576072631406,58.05515692878365 210.85293112705628,54.6875579635863 209.22848635720158,53.350514960706434 207.41035778786494,53.531703031190396 206.26075071996823,53.01313027773664 204.52384438912435,53.14433543222522 203.024356909259,52.325865182798665 200.812612876458,51.844779616341896 197.35754380826825,49.714257822033176 196.2516717918673,49.270659442572956 194.18987650705336,47.47127446673482 189.57270464196765,46.70903499780331 184.6243959584122,43.68506858007494 181.09435251622938,40.73607653633967 180.6757455947673,40.76106799433781 180.46331820178645,40.12378581539477 180.6882413237657,39.486503636452184 183.82466930248415,38.46810172304361 184.32449846243895,37.84956313759907 184.18704544345206,37.35598184214346 182.58759213159507,36.04393029726129 178.39527505247196,30.73324547273838 175.58373602772446,26.02860350466116 166.68052911602447,20.23058524918228 160.18899790110797,22.93591057743935 158.45833943476373,23.285790989407545 156.59647581393045,25.385073461218923 151.66066285937433,28.502757846438872 149.72382486454796,28.48401425294082 146.4187045443453,22.842192609947766 143.81959291257866,23.017132815931642 142.32635329721296,19.26841411626875 140.56445550837137,18.749841362815438 135.7098647923071,18.11880704837205 133.44188997901105,14.994874798652457 132.29228291111434,16.300678479035422 129.1058720164005,15.138575682139876 126.45677746863848,16.89422560648182 124.73236686679299,17.18162737345622 124.51369160931337,18.56240542783227 122.68306731097744,19.31839703226414 120.95865670913284,18.393713086347155 113.0301166593448,17.269097476448156 108.38795333626226,17.18162737345622 105.58891004051316,17.768926636403414 105.11407233855604,10.027822521598981 101.3653536388927,1.7369063308438941 93.86791623956603,2.9864792307313768 89.76931712793495,4.242299995118506 88.37604334456005,4.1173427051300235 85.52701713281556,4.910821496558437 81.99697369063273,4.323522233611241 81.35969151169014,3.1801630302141897 79.56030653585155,2.524137257773106 77.72968223751653,2.5616244447696506 75.78034851369176,6.297847415434139 74.72445941328621,7.353736515839253 73.9184848928585,9.977839605603144 74.29960462732448,11.789720310440572 72.4877239224875,13.151754771318132 68.49533850734596,7.82232635329717 63.597012739785924,5.373163469517153 57.15546444086481,4.2985307756135445 55.11241274954803,1.5619661248595755 51.60111290086414,0.043735051495746705 47.47127446673482,0 47.36506077024439,6.12290720944982 44.40357299751071,7.3787279738369485 40.73607653634011,7.741104114804434 40.1862644603899,9.059403524185804 42.13559818421466,15.094840630643686 35.17547713183979,17.387806901937434 30.039732513301196,22.748474642456184 28.94010836139989,21.611363303558335 27.921706447991323,21.09279055010458 27.890467125493977,22.404842094986748 27.57807390052233,22.860936203445817 26.65338995460579,22.47981646898028 26.365988187630947,21.92375652852998 24.897740030262955,21.805047103040703 22.69224386196159,19.799482598720907 22.31112412749561,17.70020012690953 21.792551374041857,16.831746961487582 18.56240542783227,16.188216918045345 17.325328256943195,16.925464928979164 17.13164445746127,18.699858446819604 15.657148435593632,19.60579879923854 13.108019719822385,20.055645043197963 8.222189681261643,23.29203885390719 6.504026943915799,35.21296431883589 0,44.228632791525946Z"/>
  </g>
</svg>