<?xml version="1.0" encoding="UTF-8" standalone="no"?>
<svg viewBox="0 0 256 148.721944330019" xmlns="http://www.w3.org/2000/svg">
  <style>
    g.zone {
      fill: lightgray;
      stroke-width: 2;
      stroke-linecap: square;
      stroke-linejoin: bevel;
      stroke-miterlimit: 3;
      stroke-opacity: 0.8;
      stroke: black;
      fill-opacity: 0.3;
    }
  </style>
  <g class="zone" id="zone">
    <path d="M0,100.67957394221219 18.16842229153128,118.65215088565995 36.38203966339125,148.67674924969245 130.1015712352136,148.3905137409526 254.49349732242825,148.721944330019 256,145.43776849290975 253.9963514388276,143.10268934267097 247.94021067498383,127.37480138880781 242.57706114282317,124.12075560524995 238.96145471664755,123.15659389160326 237.06326134290663,120.7311245807103 237.8165126816925,117.14564820808606 242.07991525922466,113.07809097863954 243.85758841876216,104.68687106455698 240.73912787618502,104.88271641264157 239.1271700111818,103.82816453833964 232.63414347084233,95.70811510622069 228.7172365091506,92.48419937621422 224.3333137174129,92.92108515271102 221.56134879067838,91.67068793032449 217.37327134702522,91.98705349261571 213.75766492084958,90.0135349849947 208.42464544224137,88.85352792326343 200.0936856352616,83.71635379273874 197.42717589595645,82.64673689166163 192.45571705996707,78.30800918025152 181.32266227270034,76.4700759136123 169.3911610663212,69.17860295415825 160.87942093803306,62.06791031601256 159.87006414405982,62.12817042311641 159.3578532336851,60.59153769199112 159.90019419761015,59.05490496086691 167.4628376390278,56.59930559642255 168.66803978108564,55.10786794562489 168.33660919202137,53.917730830342215 164.47996233743248,50.75407520743854 154.37132937091735,37.94880244806686 147.59206732183804,26.604837285941446 126.12440416642129,12.624492438063328 110.47184134643715,19.14764903195527 106.29882892956022,19.991290531395325 101.809450950391,25.053139528041 89.9080797975643,32.570587889131026 85.23792149708672,32.525392808804476 77.26852233272581,18.921673630319294 71.00147119402124,19.343494380038788 67.40092979462183,10.304478314600772 63.15259224386589,9.054081092215316 51.44706643912163,7.532513387866262 45.97846171953162,0 43.20649679279712,3.148590596128519 35.52333313717389,0.3464956158426166 29.13576178426375,4.5797681398223276 24.977814394160912,5.27275937150649 24.450538457012083,8.602130288943362 20.03648561172188,10.424998528806341 15.501912552226106,15.682692873536599 8.059789325016162,16.64685458718329 10.485258635908055,27.82510445477551 12.579297357735705,30.280703819219866 16.33048902489314,30.747719649268053 18.439592773494876,35.643853351380535 23.8479373859821,37.52698169834736 21.301947860882496,40.94674277643735 24.01365268051422,43.613252515742516 15.577237686105121,46.716648031543414 10.56058376978707,52.92343906314413 15.125286882833166,53.887600776790826 9.445771788382345,62.173365503442966 19.313364326486322,66.57235332195694 12.38345200965112,77.19319719884679 17.80686164891457,79.31736597422584 20.081680692048433,77.434237627259 23.139881127522774,77.17813217207163 25.007944447713378,80.22126758076867 28.066144883187718,79.82957688460057 30.44641911375306,78.18748896604595 34.95086211969637,80.83893367857382 34.78514682516211,87.36209027246576 36.24645442240945,94.39745777673245 29.03030659683441,97.63643853351407 21.994939092567726,99.17307126463936 13.663979285587965,98.615665273937 0,100.67957394221219Z"/>
  </g>
</svg>