<?xml version="1.0" encoding="UTF-8" standalone="no"?>
<svg viewBox="0 0 256 174.57033755918735" xmlns="http://www.w3.org/2000/svg">
  <style>
    g.zone {
      fill: lightgray;
      stroke-width: 2;
      stroke-linecap: square;
      stroke-linejoin: bevel;
      stroke-miterlimit: 3;
      stroke-opacity: 0.8;
      stroke: black;
      fill-opacity: 0.3;
    }
  </style>
  <g class="zone" id="zone">
    <path d="M0,75.99450129830477 27.50817168168544,76.8547426302133 30.734076676340997,82.192149075913 26.843439743393247,92.94516572475978 37.18588666564934,117.46204368413036 46.980907285780816,123.07316328089237 57.04964105697182,125.4974797617232 56.52176569421218,107.10004582251486 60.68611577821945,110.46280739269879 60.27554605162738,114.60760653734528 67.25523140369538,113.47365205437583 72.7490453642898,113.82556896288412 72.4948831525897,109.07469069803062 75.44707499618016,108.31220406293026 76.65923323659696,111.3230487246073 75.72078814724247,114.00152741713826 84.02993737589762,115.38964411180781 92.49549411944471,129.8182373606238 109.81762639376879,132.92683671910902 108.87918130441429,129.13395448296944 113.63005956926779,116.03482511073781 117.83351153199943,120.27737895219245 114.37299526500595,127.06155491064689 113.84511990224631,135.70307010844675 115.17458377883068,144.71605315411708 118.12677562242116,154.0809531082943 124.5785856117295,162.2336948220561 142.03757446158613,160.49366121887962 137.7363678020463,154.5892775316945 145.79135481900133,148.52848632961744 142.83916297540807,143.15197800519337 154.6479303497783,146.4365358179327 153.29891553383175,151.12876126470243 161.9013288529086,150.60088590194 163.7782190316176,152.86879486787888 155.17580571254072,154.76523598594866 146.06506797006364,165.87016954330232 153.0447533221316,171.6181457155955 167.8057125400951,173.00626241026504 173.4363830762193,174.57033755918735 190.09378341225118,172.8303039560109 198.40293264090357,170.05407056667178 218.28623797159102,167.78616160073432 221.94226363219806,159.59431800824814 231.05300137467515,149.81884832747883 221.74675423858173,132.4380632350696 224.9531082938751,129.09485260424646 217.75836260882858,115.64380632350793 219.04872460669137,112.6134107224687 231.46357110126723,112.0073316022603 234.3180082480523,105.06674812891391 235.70612494272325,102.99434855659136 235.276004276769,91.71345654498217 231.97189552466747,88.40934779288202 233.53597067359254,78.61432717275055 242.13838399266942,75.8771956621358 243.95662135329184,68.58469528028114 246.3027340766767,64.26393768138051 251.67924240110077,55.837482816557795 253.92760042767745,53.66732854742709 254.18176263937758,48.38857491981117 256,46.45303192301839 246.6155491064606,30.167099434855587 225.9306552619512,22.815946234917124 183.77882999847262,15.11287612647038 128.33236596914747,13.998472582863132 36.38429815182461,0 34.37055139758585,43.363983503895376 1.0753016648842606,50.480525431495906 0,75.99450129830477Z"/>
  </g>
</svg>