<?xml version="1.0" encoding="UTF-8" standalone="no"?>
<svg viewBox="0 0 256 165.95094691089716" xmlns="http://www.w3.org/2000/svg">
  <style>
    g.zone {
      fill: lightgray;
      stroke-width: 2;
      stroke-linecap: square;
      stroke-linejoin: bevel;
      stroke-miterlimit: 3;
      stroke-opacity: 0.8;
      stroke: black;
      fill-opacity: 0.3;
    }
  </style>
  <g class="zone" id="zone">
    <path d="M0,29.099037565972992 3.864638311083344,31.254889785780783 4.192486805339376,33.32132877988212 8.4743868363852,34.970506054020284 9.616889164854431,40.82210493635511 13.551071095932462,43.64358894753155 13.610679913070564,45.471592673082604 15.855945358584096,48.16392424712837 19.015212666872447,48.35268550139714 23.704439615025578,50.0018627755353 25.860291834834072,51.611300838248525 26.95312014902179,54.31356721515017 25.36355169202032,54.27382800372524 22.17447997516221,55.93294008071999 21.230673703817633,58.19807513194669 19.422539583979752,60.80099348028531 14.34585532443249,62.619062402980475 14.892269481526348,65.13256752561335 16.521577149952748,66.04656938838887 19.601366035392648,66.6128531511952 19.77025768394896,67.85470350822746 22.2440235951569,69.20583669667793 22.263893200868658,71.51071095932957 21.548587395218494,72.61347407637388 30.112387457311552,74.60043464762464 40.871778950636624,71.50077615647298 48.45203352995876,73.68643278484912 53.90624029804358,73.20956224774925 55.12822104936267,75.31574045327552 51.99875814964266,77.25302701024548 52.5551071095931,80.42222912139113 57.94970506053981,82.3495808755045 65.3312635827373,78.90220428438364 68.77864017385816,78.96181310152103 69.76218565662768,83.6808444582425 73.03073579633565,84.96243402669971 73.59701955914267,91.09220738900976 84.45575908103078,91.20149022042867 98.91089723688289,104.45451723067345 104.80223533064193,103.62992859360436 113.73362309841596,107.08723998758181 117.44923936665617,110.11735485873949 118.57187208941363,112.74014281279128 120.30052778640166,112.55138155852251 122.39677118907206,114.43899410121095 125.57590810307357,115.29338714684908 128.5265445513821,117.13132567525601 129.8081341198379,118.4824588637072 135.09344923936638,119.69450481217041 142.35579012728908,116.81341198385586 145.96212356411107,117.25054330953151 154.7047500776156,128.03973921142494 162.970506054021,131.63613784538964 165.72244644520345,131.41757218255182 169.77584601055628,134.60664389940993 170.62030425333782,136.03725551071096 169.71623719341818,139.6038497361066 173.18348339025079,145.23688295560433 173.56100589878974,148.07823657249324 175.28966159577777,152.6879850977958 178.84632101831684,154.73455448618466 180.03849736106758,154.4166407947845 181.52871778950603,156.20490530891064 185.28407326917116,161.47035082272598 187.42999068612167,162.2154610369452 188.65197143744217,163.55665942253978 189.42688606023043,165.2257063023911 190.84756286867417,165.95094691089716 191.45358584290614,162.81154920832057 192.55634895995044,161.3312635827387 188.76125426886037,156.02607885749774 187.84725240608554,147.78019248680553 192.74511021421992,139.99130704750075 191.93045638000672,137.7559764048431 195.85470350822675,134.87488357652927 200.81217013349922,133.89133809375974 202.10369450481159,138.15336851909382 206.97174790437762,138.88854393045645 210.9257994411674,140.52778640173872 217.1449860291839,144.22353306426575 222.66873641726198,143.98509779571546 224.4172617199632,144.45203352995946 225.9074821484016,144.49177274138512 228.60974852530256,143.45855324433407 229.59329400807206,142.42533374728376 230.8550139708161,141.7100279416329 233.53741074200528,141.62061471592716 235.83235020180032,142.3458553244339 238.62402980440913,142.60416019869595 245.41943495808783,137.83545482769367 250.23781434337232,137.62682396771172 249.90996584911488,136.3551692021111 249.7311393977034,134.95436199937913 251.2511642347102,131.26855013970797 254.3706923315736,127.73176032288137 256,123.38031667184086 254.34088792300525,117.89630549518769 240.76994722135962,112.13411983855931 238.29618131015167,112.82955603849773 234.2229121390871,112.22353306426577 229.03694504812162,112.34275069854056 227.74542067680926,111.81620614715916 227.62620304253306,111.11083514436488 225.00341508848197,111.11083514436488 224.42719652281977,110.96181310152103 224.08941322570715,111.03135672151502 223.86091276001275,111.20024837007132 214.37317603228828,101.4045327538033 205.98820242160812,92.53275380316667 172.16019869605776,84.58491151816216 164.09313877677704,80.47190313567194 167.2027320707853,77.6504191244955 167.30208009934833,76.15026389320047 168.24588637069292,75.24619683328153 172.01117665321323,73.27910586774323 179.08475628686784,71.69947221359834 180.06830176963734,66.01676497981983 184.3899410121081,60.9798199316982 180.4954982924564,59.13194660043468 165.7423160509152,57.35361688916444 159.7118907171682,53.98571872089414 152.82707233778305,53.7174790437748 150.72089413225748,47.60757528717792 147.01521266687385,43.9018938217943 140.07078547035061,47.428748835765035 139.51443651040017,49.54486184414789 132.75877056814642,49.385904998447465 129.6789816827065,48.094380627134385 126.61906240297978,49.04812170133484 122.54579323191518,46.76311704439568 122.35703197764713,45.5908103073581 106.78919590189412,38.954361999379124 105.38838869916214,36.38124805960886 101.42440235951577,35.11952809686413 101.53368519093397,30.837628065817597 99.80502949394595,29.377212045948212 88.07202732070795,33.331263582738 78.77305184725155,31.84104315429957 72.29556038497371,36.619683328158445 70.06022974231536,33.64917727413816 67.15926730828835,32.377522508537545 65.84787333126282,26.75442409189643 63.185346165786804,25.601986960571317 64.25830487426276,22.512263272275536 58.8239677118897,18.220428438373126 61.35734244023575,14.832660664389657 56.161440546413694,0 42.87860912759916,4.550139708165165 40.0670599192786,3.6858118596704497 30.38062713442948,5.623098416640414 26.46631480906462,9.636758770567603 24.86681154920798,10.232846941942976 20.942564420986532,14.345855324433197 20.495498292455707,15.518162061471479 15.63737969574627,17.067991307047308 12.865569698850642,19.19403911828605 11.007761564731243,19.8000620925173 6.785470350822111,19.879540515367868 7.361688916484313,21.916175100900162 5.275380316671917,24.548897857807827 0.14902204284313755,26.774293697608893 0,29.099037565972992Z"/>
  </g>
</svg>