<?xml version="1.0" encoding="UTF-8" standalone="no"?>
<svg viewBox="0 0 256 202.23369736759057" xmlns="http://www.w3.org/2000/svg">
  <style>
    g.zone {
      fill: lightgray;
      stroke-width: 2;
      stroke-linecap: square;
      stroke-linejoin: bevel;
      stroke-miterlimit: 3;
      stroke-opacity: 0.8;
      stroke: black;
      fill-opacity: 0.3;
    }
  </style>
  <g class="zone" id="zone">
    <path d="M0,45.19310649580208 0.5171390695031312,46.15466195315934 1.4867748248216457,47.01117353702429 3.21595858847292,47.69799886370805 4.589609241840432,49.42718262735932 6.399595985101966,50.63922732150747 10.132693643078017,51.01092102771259 13.62338236222444,50.93819834606416 18.649327693957744,53.71782084464363 19.481598383939506,54.38040527744477 17.307998232434105,56.731771984092056 14.891989142099074,58.808408560065836 12.44365885992017,60.6911179849758 11.013446120825018,61.31330092797181 11.377059529070035,62.54958651600257 12.330534688466038,63.60810554889203 14.956631525786824,65.2080045451678 15.304084338109329,65.90291016981224 14.512215137932696,67.59169244365896 15.368726721797076,68.74717505208004 22.923805315320692,72.27018496307034 23.2712581276432,73.06205416324697 23.10965216842268,75.61542831891933 24.879237421879086,77.28804999684353 24.838835932073955,78.04759800517628 23.036929486774827,78.50009469099167 22.68947667445232,78.89602929107998 23.085411274540064,81.95846221829422 22.77027965406143,82.3624771163438 21.695600025250037,82.65336784293923 21.31582602108366,83.19474780632555 21.905687772235794,83.69572627990675 21.865286282430663,84.22902594533181 21.647118237484804,84.59263935357626 22.140016413104167,84.97241335774264 24.321696862570825,86.17637775392953 27.287166214254007,86.99248784798935 30.850577615049435,87.50962691749248 31.86061486017193,90.71750520800472 33.18578372577421,93.90114260463378 36.660311848999264,97.00397702165256 45.62136228773427,97.440313111546 45.152705005996374,98.62003661385027 42.009469099172456,100.22801590808673 41.80746165014796,101.62590745533744 39.973234013003804,103.10460198219783 40.09443848241805,104.41361025187817 42.97910485449097,105.52869137049412 43.560886307681855,107.09626917492602 43.156871409632856,109.66580392651974 49.815036929485814,113.79483618458411 51.544220693137085,113.83523767438923 52.48153525661173,114.34429644593169 51.87551290953823,115.69370620541658 48.522189255728556,118.56221198156699 50.55034404393595,121.30143299034134 50.53418344801459,122.67508364370943 51.81087052585048,124.29922353386782 50.509942554130824,127.80607284893618 50.4129789785992,130.46449087810083 58.40439366201569,134.7147276055806 62.71927277318262,135.2884287608108 67.1876775456088,137.69635755318458 72.56915598762703,139.91843949245637 78.37889022157685,145.0494286976831 81.9665425162549,145.61504955495207 86.39454579887597,149.00877469856687 107.66997033015565,147.25535004103295 109.73852660816817,148.25730698819535 110.91825011047244,149.76024240893892 111.58891484123482,151.59447004608307 111.66163752288269,153.18628874439761 113.25345622119721,154.05896092418394 113.29385771100235,156.29720345937764 113.78675588662286,157.1617953412033 123.22454390505585,159.0283441701913 135.5146771037179,165.02392525724372 138.13269364307743,166.8177514045833 139.97500157818286,168.8943879805565 145.4049618079663,171.10030932390637 142.97279212170875,172.13458746291263 141.52641878669223,178.97859983586872 142.09203964396175,180.44113376680775 140.62142541506148,182.93794583675304 139.15081118616234,184.26311470235473 140.6133451171002,188.30326368284815 142.27788649706375,190.58190770784702 141.77690802348312,193.99987374534444 141.9385139827025,196.72293415819684 143.81314310965178,200.82772552237859 144.2898806893498,202.23369736759057 152.91155861372354,200.69036045704183 155.3518085979412,198.59756328514612 171.41544094438441,197.1511899501296 177.51606590493026,192.4888580266396 188.75576036866354,192.91711381857237 190.37990025882195,192.5373398144054 191.96363865917522,193.73322391263162 204.5931443721985,190.57382740988575 210.02310460198197,191.6646676346191 224.63228331544627,185.67716684552738 222.24051511899503,180.1987248279781 223.36367653557164,176.42522568019695 221.9253834985164,174.72836310838954 225.83624771163431,169.7670601603434 223.4444795151819,159.97373903162665 226.9674894261722,155.7154220061862 226.83012436083544,150.62483429076457 213.76428255791927,150.76219935610132 209.7968562590737,142.35868947667458 208.9726658670532,139.32049744334296 209.65141089577685,138.6659933085031 210.08774698566972,137.11457609999368 209.19083391200022,134.9409759484883 210.34631652042071,133.5673252951202 210.72609052458824,131.99166719272762 211.37251436146687,131.68461587021025 212.107821475917,130.15743955558347 212.05933968815063,128.43633608989344 214.18445805189077,126.04456789344104 215.55002840729705,123.64471939902793 217.52162110977795,122.19026576605017 221.73953664541327,115.62098352376758 222.65261031500526,113.05144877217329 222.99198282936652,110.86168802474594 222.1516318414235,106.78921785240807 224.14746543778702,104.24392399469754 224.81004987058816,102.02992235338701 226.4180291648252,100.35730067546223 226.52307303831807,98.48267154851352 228.34922037750098,96.58380152768105 229.87639669212774,97.7958462218292 240.55855059655278,98.4180291648252 243.72602739725932,97.294867748248 246.79654062243537,100.3330597815796 250.57812006817664,100.9067609368098 254.828356795657,99.56543147528559 256,98.54731393220128 250.60236096206043,94.10315005365827 248.67925004734477,90.6528628243164 244.5017360015146,87.57426930118024 241.26961681711916,87.25913768070218 237.04362098352374,84.48759548008339 227.73511773246622,76.6416261599649 222.20819392715114,73.23174042042817 220.25276182059162,72.9004482040276 216.68127012183493,73.5226311470236 212.41487279843437,66.17764030048632 205.16684552742814,59.97197146644759 203.2033331229085,59.325547629568966 202.7265955432105,58.2185468089137 196.01994823559116,55.78637712265616 190.88087873240255,52.91787134650575 170.67205353197303,43.97298150369268 162.80184331797193,41.387286156177026 148.14418281674122,32.62824316646652 144.04747175052015,31.812133072407267 142.285966795025,31.246512215137752 130.06047598005185,29.218357426930357 115.3462533930935,21.14613976390361 97.06053910737963,12.61334511710137 83.5745218104908,3.628053784483174 73.78928097973528,0 71.42175367716663,4.5734486459184955 67.89066346821508,7.046019821981167 62.92936052016837,7.199545483239855 52.30376870146984,4.306798813206249 45.20118679376276,6.43191717694584 40.62773814784369,7.288428760810222 40.312606527365055,9.276182059213635 37.541064326746266,9.760999936872892 37.12088883277475,11.659869957704792 33.3150684931497,12.896155545735553 32.272710056183335,15.352566125875715 29.177955937124654,17.033268101761177 29.37996338614915,19.869452686067717 31.11722744776168,21.66327883340674 28.66081686762152,22.616753992803318 21.5743955558358,21.533994066031244 15.2636828483042,22.156177009027253 7.837889022157227,23.69143362161471 8.136860046713348,24.70147086673835 7.134903099550959,25.226690234202167 6.520800454516206,26.99627548765857 4.371441196893422,29.468846663720665 3.0301117353697835,31.545483239694445 3.8785430212729097,33.840287860614666 3.482608421185167,34.42206931380612 4.524966858152685,35.86844264882263 5.203711886875186,36.102771289691006 5.478442017548688,37.77539296761579 5.114828609304819,38.29253203711892 6.8359320749948385,41.99330850325109 6.044062874818205,44.09418597310749 5.139069503187438,44.95877785493313 0.8969130736695111,44.75677040590863 0,45.19310649580208Z"/>
  </g>
</svg>