<?xml version="1.0" encoding="UTF-8" standalone="no"?>
<svg viewBox="0 0 256 67.85312603374142" xmlns="http://www.w3.org/2000/svg">
  <style>
    g.zone {
      fill: lightgray;
      stroke-width: 2;
      stroke-linecap: square;
      stroke-linejoin: bevel;
      stroke-miterlimit: 3;
      stroke-opacity: 0.8;
      stroke: black;
      fill-opacity: 0.3;
    }
  </style>
  <g class="zone" id="zone">
    <path d="M1.7995368838897698,64.21171022163516 6.541845848495522,65.94773403903407 8.553092954020444,65.16440621898883 19.710221634137017,67.85312603374142 32.05292755540803,65.82070790605388 50.577571948396624,59.55408534568286 57.098246774728025,55.70095931194144 67.8107839894162,53.13926563016903 97.21733377439385,56.71716837578596 116.08071452199627,61.205425074429826 132.99636123056612,63.89414488918393 142.7138604035709,66.1382732385051 152.32550446576107,67.19682434667637 161.5772411511733,67.00628514720532 172.84022494211047,67.76844194508796 178.49288785974318,66.28647039364942 189.5865034733734,60.909030764141214 193.71485279523782,58.1991399272245 195.93781012239788,53.64737016209129 198.8170691366215,51.382070790605994 216.87595104201156,39.80152166721761 219.09890836917165,37.79027456169419 225.93714852795276,34.212371816077265 229.6420774065529,31.036718491565022 248.52662917631943,25.51108170691402 253.84055573933227,22.441283493217846 256,20.070129010916474 108.05689712206673,0 102.91233873635478,4.086007277537682 92.58087992060868,10.373800860072826 92.6020509427728,11.855772411511373 85.9543499834627,15.962950711213171 75.68640423420295,21.784981806152786 72.99768441945035,22.208402249421585 67.91663910023077,25.214687396625408 63.068475024810446,26.971882236188446 56.69599735362184,31.756533245120927 54.68475024809692,36.647039364869485 49.77307310618425,39.970889844526035 46.30102547138339,40.64836255375521 44.014555077736986,43.50645054581623 39.80152166721611,45.7294078729733 36.49884220972217,48.52398279854497 31.565994045651397,51.48792590142206 23.012901091630955,53.795567317234095 18.164737016210633,56.48428713198819 10.225603704925513,56.90770757525699 6.287793582532136,59.76579556731801 2.477009593117444,60.8878597419786 0,62.687396625868374 1.7995368838897698,64.21171022163516Z"/>
  </g>
</svg>