<?xml version="1.0" encoding="UTF-8" standalone="no"?>
<svg viewBox="0 0 256 163.8962300679364" xmlns="http://www.w3.org/2000/svg">
  <style>
    g.zone {
      fill: lightgray;
      stroke-width: 2;
      stroke-linecap: square;
      stroke-linejoin: bevel;
      stroke-miterlimit: 3;
      stroke-opacity: 0.8;
      stroke: black;
      fill-opacity: 0.3;
    }
  </style>
  <g class="zone" id="zone">
    <path d="M0,26.393889260445356 3.5053680171775006,28.349325917842908 3.802738568762894,30.22366151571694 7.686578197049309,31.71952550248142 8.722869513181351,37.02713928684566 12.29131613221119,39.586328276250235 12.345383505227298,41.244394382061756 14.381921222147735,43.68643739659981 17.24749199197329,43.85765074448244 21.50079200253367,45.35351473124692 23.456228659931867,46.81333380266775 24.447463831884033,49.26438804604138 23.00566721813438,49.22834313069774 20.11306276180013,50.73321834629845 19.256996022386314,52.78777852089135 17.616952374247255,55.148720475905236 13.012214439085374,56.79777535288116 13.507832025061457,59.077616248372166 14.985673554154753,59.90664930127792 17.7791544932943,60.420289344925834 17.932345383505112,61.546692949417626 20.17614136365247,62.77222007110412 20.194163821323652,64.86282516104067 19.545355345136755,65.86307156182906 27.313034601710868,67.66531732901517 37.07219543102554,64.85381393220443 43.94776303284091,66.83628427610941 48.894927663768065,66.40374529198502 50.00330881058739,68.3141258052027 47.16477172726925,70.07131542820957 47.66940054208156,72.945897426872 52.562497799992606,74.69407582104263 59.25784082508975,71.56717941497405 62.38473723115834,71.6212467879895 63.2768488859158,75.90158048505731 66.24154317293734,77.06402900489275 66.75518321658588,82.62395719666314 76.6044563342603,82.7230807138585 89.71579429054167,94.74405998099171 95.05945299024891,93.99612798760946 103.16054771375207,97.13203562251428 106.53074729839122,99.88046041747332 107.54901615685208,102.25942483015966 109.11696997430384,102.08821148227702 111.01833925868593,103.80034496110402 113.90193248618395,104.5753106409943 116.57826745045634,106.24238797564142 117.7407159702905,107.46791509732856 122.53468971100683,108.5672850153123 119.76824245837598,110.83811468196707 120.67837657080462,111.82934985391987 122.0751170403744,112.15375409201332 124.7334295469743,111.04537294519335 127.25657362103588,112.05463057481798 127.62603400330856,113.5775282480905 128.7344151501279,112.98278714491907 130.27533528107224,113.6406068499422 132.53715371889206,113.30719138301252 133.11387236439168,114.97426871766028 131.53690731810366,116.91168291738536 132.20373825196174,118.23633355626721 131.05931218979876,119.52493927980605 131.69910943715072,120.60628674011797 129.14893167658173,120.57925305360992 127.27459607870706,121.69664542926547 129.52740328769065,123.7692280615302 129.54542574536183,124.07560984195182 128.20275264880817,125.11190115808387 128.4190221408713,125.72466471892712 127.5629554014575,126.2833609067549 128.7163926924567,127.94142701256642 128.32890985251157,129.03178570171457 130.7709528670496,128.2027526488088 131.05931218979876,131.24854799535387 132.46506388820478,131.87032278503335 129.77971769509617,135.53789292125725 135.48382554824116,136.77243127178 134.21324228237478,138.1151043683343 133.1228835932279,141.7466295892152 133.33915308528978,143.11633637227692 136.01548804956215,143.8462459079873 136.08757788024946,141.6204723855118 136.67330775458527,140.45802386567635 139.1243619979583,139.11535076912267 141.89080925058911,143.1433700587843 146.1441092611495,142.58467387095655 148.00042240135173,143.00820162624532 150.00992643176474,144.72934633390855 149.82069062621028,146.8289626526807 147.11732197543049,150.59565630610058 147.63096201907902,150.80291456932684 149.25298320954562,151.88426202963876 150.3253194410226,153.62342919497382 152.39790207328667,154.6777429687777 153.19089021084815,156.37185398993284 154.1821253828016,156.92153894892505 156.1105283536911,156.66021331268266 157.48023513675219,158.336301876166 162.32827625048463,159.72403111689954 162.38234362349945,159.56182899785313 166.68971100707466,158.1740997571196 168.78932732584744,157.67848217114351 169.52824809039407,155.49776479284785 171.47467351895477,152.07349783519322 170.24914639726828,150.00091520292915 168.3838220282311,148.47801752965663 167.0501601605124,147.69404062093008 165.51825125840426,145.42321095427533 164.472948713436,144.32384103629158 162.2201415044524,140.3498891196454 163.30148896476433,140.0615297968956 164.65317329015423,141.68355098736347 168.05941779013702,146.45950227040737 170.0058432186977,147.13534443310232 171.1142243655183,148.35186032595323 171.8171002147213,149.86574677039016 174.92597416311744,151.5508465627091 175.89918687739842,152.87549720159157 174.97103030729733,155.54282093702707 176.72821993030354,155.20039424126182 177.82758984828791,154.912034918512 178.3412298919352,154.56960822274675 187.2353127530011,154.58763068041856 190.29913055721735,154.99313597803553 192.31764581646658,156.02041606533135 193.08360026752067,157.4892463655884 198.26505684818213,156.84944911823712 199.6077299447358,155.84920271744872 206.45626386004506,156.45295504945636 212.66500052800234,157.93079657854904 213.1786405716496,160.84142349255575 217.60315393009327,163.77908409306923 218.567355415538,162.43641099651555 222.51427364567547,162.1840965891094 225.4969903903695,163.00411841317893 228.00211200675858,161.73353514731255 231.3092329895454,161.922770952867 232.70597345911517,161.4091309092191 236.18430778978527,163.8962300679364 242.3750220000701,155.20940547009806 248.3134218029507,152.48801436164644 254.37797880953212,151.6860149952481 256,149.65848850716324 255.33316906614192,148.51406244500026 255.6035059312199,147.38765884050846 252.16121651589347,144.25175120560428 249.14245485585582,142.64775247280824 248.91717413495772,141.98993276778512 249.35872434791767,140.88155162096515 248.37650040480176,139.4757999225598 245.5830194656622,136.61924038156917 240.3565067408221,135.7721848709916 237.70720546305716,134.186208595868 237.00432961385545,132.65429969375924 235.25615121968417,131.41075011440026 234.3460171072555,130.05906578901036 228.92125734802346,128.44605582737873 228.8041113731563,127.19349501918418 226.9748319194628,124.83255306416966 226.6774613678761,123.67911577317045 226.51525924883035,122.40853250730407 227.89397726072767,119.06536660917297 230.72350311520958,115.85736914358151 232.20134464430285,111.91045091344274 230.69646942870216,106.93625259600819 218.3871308388185,101.70973987116747 216.14333485867115,102.34052588968318 212.44873103593918,101.79084093069099 207.7448695835826,101.89897567672192 206.5734098349122,101.42138054841766 206.46527508888,100.78158330106636 204.0863106761943,100.78158330106636 203.5636594037108,100.64641486852737 203.25727762328916,100.70949347037907 203.05001936006224,100.86268436058988 194.44429582174678,91.97761272836085 186.83881868421972,83.93058537787317 156.155584497871,76.72160230912748 148.83846668309306,72.99095357105124 151.65898130874004,70.43176458164666 151.74909359709977,69.07106902742053 152.6051603365136,68.251047203351 156.02041606533135,66.46682389383672 162.43641099651555,65.0340385089233 163.32852265127303,59.879615614769875 167.24840719490308,55.310922594952274 163.71600549121817,53.634834031468934 150.33433066985754,52.02182406983665 144.8645147664469,48.967017494455995 138.61973318314597,48.723714315885424 136.70935266992893,43.18180858178749 133.348164314126,39.82062022598457 127.04931535780895,43.01960646274045 126.54468654299664,44.93899820479436 120.41705093456287,44.79481854341913 117.62356999542332,43.62335879474811 114.84811151395624,44.48843676299751 111.15350769122428,42.41585413073279 110.98229434334229,41.35252912809333 96.8616987574363,35.333028265690494 95.59111549156992,32.999119997184025 91.99563518603267,31.85469393502041 92.09475870322737,27.970854306733354 90.5268048857756,26.646203667851513 79.88454363053971,30.232672744552534 71.45003344010624,28.880988419162637 65.57471223907926,33.2153894892459 63.547185750993776,30.521032067302336 60.91590693090127,29.36759477630313 59.72642472455842,24.267239255165165 57.31141539652907,23.221936710197532 58.28462811081005,20.419444542222394 53.35548593755408,16.526593685099748 55.65334929071755,13.45376465204663 50.94047660952473,0 38.89246365588283,4.127142806856981 36.34228589531384,3.3431658981304566 27.556337780280153,5.100355521137323 24.005913618922776,8.740891970853813 22.555105776338177,9.281565701009772 18.995670386144567,13.012214439086016 18.590165088528238,14.07553944172611 14.183674187757045,15.481291140131475 11.66954134253171,17.409694111020976 9.984441550212773,17.959379070012528 6.154669294941186,18.031468900700457 6.677320567424682,19.878770812066435 4.784962511880107,22.26674645358837 0.1351684325383494,24.285261712836988 0,26.393889260445356Z"/>
  </g>
</svg>