<?xml version="1.0" encoding="UTF-8" standalone="no"?>
<svg viewBox="0 0 256 159.89229406554497" xmlns="http://www.w3.org/2000/svg">
  <style>
    g.zone {
      fill: lightgray;
      stroke-width: 2;
      stroke-linecap: square;
      stroke-linejoin: bevel;
      stroke-miterlimit: 3;
      stroke-opacity: 0.8;
      stroke: black;
      fill-opacity: 0.3;
    }
  </style>
  <g class="zone" id="zone">
    <path d="M0,91.70876882196667 3.593976970770683,96.61789193977029 6.983879539415261,102.1959255978747 21.722586359609636,100.0191319751992 39.703808680248194,98.70398582816706 50.63312666076225,100.50664304694418 60.50806023029197,106.31142604074418 62.53746678476465,111.35659875996465 62.70752878653695,114.25899025686506 60.4286979627992,123.05686448184257 69.2832595217,125.7665190434012 71.40336581045221,128.4648361381755 70.29229406554377,129.83666961913252 70.80248007085903,130.80035429583734 72.3897254207257,131.42391496899918 72.43507528786466,133.8614703277241 73.61417183348073,135.27865367581927 76.26713906111526,135.2899911426044 78.35323294951205,138.23773250664297 77.18547387068112,140.72063773250682 77.79769707705944,141.77502214349036 76.64127546501365,143.35093002657268 77.69565987599638,146.06058458813132 77.49158547387027,147.43241806908836 76.4825509300265,148.3167404782996 77.31018600531446,149.71124889282612 85.49583702391446,153.4866253321526 100.23454384411045,155.9808680248008 103.20496014171766,157.89689991142612 107.49052258635943,158.79255978742248 108.99840566873333,159.89229406554497 119.41753764393212,157.73817537643976 128.27209920283454,156.86519043401285 138.2150575730735,158.38441098317108 141.66164747564216,157.04658990256868 139.22409211691726,154.529672276351 138.94065544729838,150.5502214348984 143.28290522586425,148.19202834366706 144.74543844109758,144.7454384410984 150.08538529672208,143.01080602302972 150.6749335695301,140.34650132861003 154.5636846767048,139.6662533215241 155.00584588131085,136.87723649247107 161.42285208148834,135.67546501328636 171.38848538529598,132.69371124889318 186.29725420726265,136.75252435783935 193.25845881310923,136.53711248892893 198.2129317980518,133.06784765278996 201.53480956598716,126.65084145261325 214.0060230292289,124.46271036315342 214.39149689991083,115.6648361381759 218.23489813994658,114.95057573073534 216.18281665190523,100.42728077945141 232.08928255093053,92.4457041629759 223.85828166518996,85.66589902568674 222.4524357838791,78.85208148804297 229.18689105403092,74.75925597874217 230.17325066430442,69.41930912311767 245.07068201948593,64.34012400354338 256,57.36758193091245 250.9208148804257,53.46749335695341 250.9775022143498,46.82373782108032 242.48573959256063,38.58139946855623 234.640212577502,39.783170947741766 226.59061116031887,35.610983170948195 227.1801594331269,27.311957484500002 222.4184233835253,24.613640389725703 218.5523472099209,26.144198405669076 213.5978742249783,25.656687333924097 208.71142604074336,28.286979627989155 196.62568644818353,20.73622674933534 178.16829052258674,5.328609388839356 169.63117803365864,8.457750221434537 158.1009743135514,5.464658990257028 149.60921169176225,0.47617360495983846 141.02674933569517,1.3264836138172682 134.5077059344546,0 124.09991142604096,1.6099202834369486 116.60584588131044,9.126660761736145 108.39751992914016,13.18547387068233 95.25739592559759,13.582285208148594 78.70469441984017,22.470859167404818 58.6600531443751,11.620903454384337 37.05084145261205,6.938529672276305 24.681665190433332,15.849778565102008 19.840566873338954,14.285208148804015 11.235429583701604,21.371124889282328 10.362444641274697,31.200708591673894 17.91319751992932,41.676527900797595 18.89955713020281,48.762444641275906 16.756775907883537,54.29512843224137 21.631886625331724,69.05651018600523 16.121877767936546,80.24658990256867 4.013463241806424,87.04906997342812 0,91.70876882196667Z"/>
  </g>
</svg>