<?xml version="1.0" encoding="UTF-8" standalone="no"?>
<svg viewBox="0 0 170.94470651169496 256" xmlns="http://www.w3.org/2000/svg">
  <style>
    g.zone {
      fill: lightgray;
      stroke-width: 2;
      stroke-linecap: square;
      stroke-linejoin: bevel;
      stroke-miterlimit: 3;
      stroke-opacity: 0.8;
      stroke: black;
      fill-opacity: 0.3;
    }
  </style>
  <g class="zone" id="zone">
    <path d="M0,47.8311530418713 2.2160190633654984,50.445557554831574 0.4855322666927985,56.25949520984316 4.170597675435147,64.70028692311436 4.681029032728392,69.2443709575456 13.3334630160972,77.00043767932749 22.16019063366206,77.26187813062334 33.62622185478764,82.10475125224934 34.74668093177061,103.08223508242996 17.205271604337597,123.2878471040215 17.27996887613717,137.01969556971258 21.50036473277144,135.05266741234271 24.351310606428882,134.6418324174486 25.434421047511183,138.42649418859096 5.154111754120968,165.6660993045762 7.133589456791063,170.93225696639652 16.2715557068509,169.48810971161834 24.301512425229756,171.8535233185821 36.35267227544638,170.67081651509977 41.6063803919656,163.89826387200281 55.08923795166018,162.18022662062947 57.392403832125474,165.28016340028253 57.33015610562612,180.24451685065418 49.960025288137885,188.1375285707341 46.287409424694,201.03525750133764 48.61547439575973,204.64562563828218 51.95195253610821,205.3054515391728 53.17200797548943,206.45080970675534 64.89947964791087,208.4178378641252 69.69255458833773,208.0070028692311 75.40689588095107,210.40976511209465 79.27870446919145,215.0783445995237 84.28342167971505,218.1907309244761 85.22958712250197,221.9878422409187 85.05529348830414,223.7556776734912 83.25010941983187,227.88892671302833 79.20400719739365,230.76477167728444 78.46948402470346,232.07197393376458 79.35340174099103,233.49122209794317 81.34532898895958,233.2173321013471 84.0593298643181,231.48684530467352 88.25482663035547,231.61134075767134 92.92340611778363,230.71497349608532 96.95705879492164,231.10090940037986 104.27739143121075,236.71565433059405 104.25249234061206,237.66181977337922 104.80027233380244,238.53328794436655 113.36555950007322,242.7163351651028 119.77707532947431,243.98618878568317 120.81038758935925,245.71667558235674 121.56980985264813,249.899722803093 125.96449934348023,253.89602684433208 128.89014248893548,254.13256820502838 129.46282157272807,255.24057773671203 131.30535427709924,256 131.9278315420892,255.09118319311375 131.99007926858854,252.47677868015347 134.01935515245776,253.51009094003842 136.21047512522458,255.77590818460394 146.4440013616687,245.0941983173659 160.31279482565785,240.525215192336 156.4285366921172,228.49895443271893 157.52409667849975,225.8721003744593 164.83197976948864,225.15002674707023 170.73306424159824,222.64766814180842 170.94470651169496,210.44711374799442 158.17147303409013,193.0177503282599 158.23372076058948,155.6940135194279 145.65968000778116,139.38510917667634 127.95642659145055,125.56611389388722 120.710791226961,113.3157613188741 119.80197442007476,112.3073481495896 125.01833390069507,105.98297913728564 121.48266303554833,87.57010163886616 114.41132130525662,79.02971356319583 91.44191022710656,64.00311238632483 89.63672615863429,57.30525701502744 83.95973350191986,49.38734620434795 76.19121723483862,42.42805038175382 71.3358945679124,37.896415892622805 64.00311238632483,17.628556144531927 67.6259300685696,11.117443952730817 53.60774206098311,6.809901278996748 43.77260127413197,6.461314010601987 31.186110976025194,0.7718718085882113 27.040412391186955,2.4152117881637687 13.931041190486704,0 7.556873996984512,10.694159412537367 7.768516267081237,18.537372951417293 2.340514516364196,25.09828332441753 6.025579925108314,40.18713222778788 0,47.8311530418713Z"/>
  </g>
</svg>