<?xml version="1.0" encoding="UTF-8" standalone="no"?>
<svg viewBox="0 0 238.50830140484933 256" xmlns="http://www.w3.org/2000/svg">
  <style>
    g.zone {
      fill: lightgray;
      stroke-width: 2;
      stroke-linecap: square;
      stroke-linejoin: bevel;
      stroke-miterlimit: 3;
      stroke-opacity: 0.8;
      stroke: black;
      fill-opacity: 0.3;
    }
  </style>
  <g class="zone" id="zone">
    <path d="M104.18731375052953,10.898254576413343 101.51724137930427,6.974882928905159 61.0847169008079,6.484461472965668 60.97573435504013,0 59.12303107704994,0.054491272880014645 57.70625798211535,5.176670923794983 58.905065985522135,11.55214985099675 50.89484887185411,18.472541507021894 51.712217965089174,28.662409535971815 47.78884631758099,33.8390804597668 44.246913580244524,35.41932737334918 46.59003831417421,42.28522775649043 48.933163048103886,43.32056194124943 48.49723286504828,49.09663686675167 36.94508301404379,56.180502341420734 26.918688803741656,51.38527032779747 16.0749255002122,57.65176670923534 17.92762877820239,64.46317581949658 24.466581524051943,71.98297147722124 8.609621115367547,79.55725840782979 12.805449127287421,82.71775223499067 10.625798212001655,84.78842060451254 8.93656875265538,92.96211153682061 3.5419327373287226,97.26692209450826 5.013197105147196,100.48190719454915 4.84972328650328,112.19753086419756 0,116.28437633035352 4.250319284796015,120.31673052362561 7.683269476372453,120.6981694338012 11.661132396764524,125.87484035759618 20.815666240947703,129.90719455087213 16.183908045972228,134.9748829289032 19.507875691780892,139.71562366964648 25.01149425286758,142.22222222222007 25.39293316304704,144.23839931885806 14.331204767982037,147.67134951042675 13.132396764575253,152.35759897828612 14.76713495103764,154.4282673478041 13.404853128986941,157.09833971902935 14.27671349509815,159.87739463601466 10.898254576413343,162.38399318858825 12.097062579820127,165.54448701574913 16.347381864623888,167.8876117496788 21.14261387824328,168.4325244784983 28.49893571732016,172.41038739889038 35.36483610046529,171.64750957854307 38.41634738186226,174.48105576841223 39.015751383561785,177.80502341421703 37.70796083439497,179.00383141762381 40.65048957002417,186.90506598552406 57.161345253299714,188.43082162622255 56.888888888888026,194.15240527884092 65.00808854831608,193.55300127713753 74.27160493826705,197.6398467432935 78.57641549595469,197.8033205619413 80.04767986377315,195.7871434653033 77.97701149424742,189.30268199233376 80.64708386547268,185.70625798211728 84.51596424009698,186.74159216687627 83.97105151128135,190.93742017879615 88.33035334184513,193.66198382290142 88.92975734354465,200.09195402298707 99.44657300978628,202.70753512132845 97.10344827585659,207.99318859088734 104.78671775222905,213.4968071519779 100.91783737760476,216.87526607066658 104.18731375052953,219.87228607917967 109.0915283099167,218.01958280118947 111.70710940825806,221.72498935716985 114.59514687100338,220.30821626223914 114.15921668794778,216.33035334184706 119.17241379310272,212.08003405704332 120.8071519795651,208.15666240953513 125.65687526606838,213.7147722435057 138.0808854831841,214.20519369944518 147.01745423583947,221.83397190293763 150.06896551723645,221.12558535547032 153.1749680715173,224.2860791826312 156.00851426138647,222.86930608769663 159.76841209025073,227.6645381013199 164.78160919539795,225.26692209450633 171.15708812260357,232.84120902511486 171.810983397187,236.32865048956745 177.3146019582814,236.92805449127084 180.69306087696623,246.40953597275347 185.65176670923728,247.93529161345197 183.85355470413097,253.32992762877862 187.3954874414597,256 195.8961260110672,251.64069816943234 194.37037037036484,248.42571306939143 195.35121328224383,245.91911451681398 200.58237547892656,239.81609195402004 198.34823329075692,234.47594721157725 200.30991911451488,233.00468284376265 200.0374627501032,222.54235845040105 202.97999148574013,219.70881226053575 208.70157513835463,219.59982971477186 213.7147722435018,225.9753086419736 225.92081736908972,233.27713920817047 238.45381013196547,231.36994465730027 238.50830140484933,219.10940825883236 228.590889740315,219.10940825883236 228.7543635589589,187.55896126010748 198.83865474669642,187.50446998722745 198.7296722009364,167.7786292039149 193.71647509578145,167.7786292039149 193.77096636866534,151.97616006811438 188.7577692635104,151.97616006811438 188.70327799063423,132.25031928480183 188.7577692635104,124.56704980842937 198.7296722009364,123.3137505321387 190.33801617709665,117.59216687952033 186.36015325670456,112.79693486589707 183.79906343124708,105.4406130268202 182.87271179225198,94.81481481481467 177.91400595998093,84.46147296721696 167.3971902937393,82.28182205193507 145.32822477650095,82.11834823328728 125.38441890165669,78.84887186036251 116.50234142187746,85.16985951468426 110.72626649637908,85.76926351638765 108.27415921668937,84.24350787568916 113.39633886760434,76.0153256704972 113.12388250319265,72.20093656874904 107.2388250319265,61.03022562792402 107.89272030650991,52.311621966792565 111.16219667943469,43.04810557683774 107.72924648786599,30.73307790548981 103.96934865900172,24.412090251168056 104.7322264793529,21.360578969771083 102.49808429118325,18.744997871433583 104.18731375052953,10.898254576413343Z"/>
  </g>
</svg>