<?xml version="1.0" encoding="UTF-8" standalone="no"?>
    <svg
    xmlns:dc="http://purl.org/dc/elements/1.1/"
    xmlns:cc="http://creativecommons.org/ns#"
    xmlns:rdf="http://www.w3.org/1999/02/22-rdf-syntax-ns#"
    xmlns:svg="http://www.w3.org/2000/svg"
    xmlns="http://www.w3.org/2000/svg"
    xmlns:inkscape="http://www.inkscape.org/namespaces/inkscape"
  >
  <style>
  g.comuni {
      fill: lightyellow;
      stroke-width: 3.5;
      stroke-linecap: square;
      stroke-linejoin: bevel;
      stroke-miterlimit: 3;
      stroke-opacity: 1;
      stroke: black;
      fill-opacity: 0;
  }
  </style>
  <g inkscape:groupmode="layer" id="layer1" inkscape:label="Base"/>
  <g inkscape:groupmode="layer" id="layer2" inkscape:label="Comuni">
  <g class="comuni" id="comuni">
<path d="M37.91074972789622,0.8031243997693859 28.650233689737608,0 27.158716947307916,1.0161982201164848 21.63518791215674,0.47531852231204214 19.619181765797162,0.655611754913523 16.734490044175796,2.1307382034698232 15.357705358857515,1.6718099750300077 10.08003073180022,4.343427876304274 2.1962993789622236,10.211153082783856 0,11.227351302900342 15.570779179204614,22.520263781291916 20.110890581982595,28.273256930661255 18.996350598629256,31.567705999103428 20.881234394006363,35.763621230551834 29.7975542608354,41.51661437992117 34.4360074268514,42.77866700813038 38.566361482808574,46.53204430501236 41.090466739226976,52.46533068698318 46.59760548050476,58.57891030155548 55.31724182085776,66.26595812792094 55.186119469875294,67.10186311543593 52.87508803380399,68.15084192329805 51.5146936423591,70.1504577757854 51.25244894039182,71.96978039567126 52.02279275241559,74.72334976631015 50.07234778154725,81.21390613995764 47.94160957807859,81.47615084192259 46.74511812536063,83.4102055189187 46.41731224790212,85.16396696331334 44.53242845252501,86.7866060567255 46.67955694986939,88.34368397464642 49.22005250015886,89.27793072539828 49.48229720212613,91.27754657788563 47.531852231255456,93.14604007939052 44.221012868942225,93.7360906588128 46.67955694986939,99.40713233881752 51.36718099750323,105.58627312888105 54.94026506178374,109.0774057237981 56.38261092259326,111.9620974454183 54.77636212305448,118.0756770599906 53.25206479288034,120.02612203085893 52.137524809527,123.51725462577598 52.153915103400394,127.51648633075068 51.05576541391812,135.95748767526652 49.6134195531086,141.2023817145782 51.13771688328274,147.2667904475315 52.59645303796565,150.39733657724557 50.94103335680904,151.28241244637957 48.03995134131428,154.41295857609248 39.45143735194375,160.47736730904577 35.091619181766085,162.2639093411872 34.714642422689735,164.1815737243099 32.60029451309214,166.05006722581481 31.666047762341446,169.09866188616425 31.46936423586541,172.62257506882574 33.7967859658101,176.90044176963877 37.5993341443111,178.47390998143194 41.188808502464994,180.88328318074127 42.68032524489469,185.8003713425956 45.31916255842217,186.89852103207554 48.695563096228966,190.71745950444875 50.38376336513237,194.1594212177468 49.547858377617366,198.3717267430686 50.711569242588546,201.42032140341806 50.61322747935053,210.63166655995883 51.54747423010355,213.926115628401 51.02298482617366,223.25219284205085 60.26711057045888,231.51290095396635 65.7086881362431,241.16678404507238 67.03630193994354,244.4612331135157 67.92137780907872,243.36308342403458 70.74050835520885,243.26474166079774 73.0843203790246,242.06825020807977 77.1163326717461,237.28228439720792 78.93565529163196,233.38139445547006 82.55791023753031,232.10295153338865 82.21371406620074,240.33087905755735 80.80414879313567,244.87099046033651 80.98444202573832,249.82085920993646 82.65625200076832,251.7713041808048 84.60669697163667,252.93501504577716 89.16319866828805,253.63979768230968 91.11364363915638,252.68916063768444 99.0137652858701,254.36097061271445 117.71509059478763,256 122.74691081375104,254.4757026698247 130.13893335040595,253.44311415583482 132.1713297906389,250.85344772392517 134.23650681861866,234.1681285613672 139.43222997631133,229.74274921569832 141.82521288174726,225.4976631026309 148.23381778602896,222.67853255650078 154.75715474742205,215.46680325244853 161.64107817401813,200.6499775913943 162.28029963505944,197.25718675971527 160.1003905499706,185.24310135091892 159.37921761956466,176.04814648825155 159.62507202765855,172.19642742813156 157.6746270567902,170.8360330366855 156.88789295089305,170.90159421217675 156.23228119597837,170.00012804917048 153.9868109353983,166.05006722581481 153.59344388245088,162.00166463922108 148.98777130417932,157.4123823548241 148.2829886676468,150.41372687111777 149.26640630001768,145.0377104808248 146.5128369293811,130.64703246046477 149.20084512452644,123.79588962161431 153.26563800499235,115.94493885652076 159.62507202765855,107.97925603431698 161.0346373007236,103.11133875408166 160.59209936615602,97.1124911966196 163.460400793904,91.44144951661373 170.22959216339098,87.7864139829686 182.27645815993293,84.42640373903518 188.78340482745264,81.65644407452406 191.55336449196494,78.49311735706436 189.897944810806,71.49446187335921 193.06127152826568,71.08470452653842 202.23983609705968,66.51181253601365 210.71361802932344,64.18439080606896 220.90838081823276,58.23471413022591 219.02349702285565,56.726807093923995 212.56572123695378,56.33344004097541 208.68122158909048,54.33382418848806 203.23964402330392,50.154299250911876 201.99398168896812,51.38357129137546 199.89602407324392,51.69498687495941 194.66752032780445,51.0229848261725 191.63531596132955,50.03956719380163 183.70241372687138,49.51507778987058 177.90024969588188,47.662974582239094 173.34374799923052,44.335744926051305 169.44285805749382,42.30334848581833 156.65842883667256,37.648505025930106 160.2970740764443,36.43562327933875 160.4118061335557,34.190153018758686 161.41161405979764,31.387412766501946 159.96926819898812,30.256482489275214 155.06857033100718,29.10916191817626 153.93764005378046,26.437544016901995 149.70894423458526,25.42134579678551 147.873231320826,26.535885780138848 144.93936871758677,30.174531019911754 140.75984378001175,32.731416864075776 136.5967091363078,32.747807157948 133.46616300659488,33.40341891286269 129.6472245342205,37.681285613675726 127.5492669184963,38.15660413598777 123.25500992380987,41.13963762084599 119.28855880658195,40.5495870414237 111.81458480056243,41.188808502464994 105.70100518599013,40.23817145783975 103.71777962737734,40.32012292720321 103.439144631539,40.89378321275327 101.50508995454172,41.28715026570185 103.19329022344512,36.77981945066832 97.19444266598423,31.649657468468053 92.19540303476526,29.912286317945647 83.18074140469821,24.405147576669023 80.42717203406166,21.93021320186963 74.90364299891047,22.667776426147782 73.01875920353336,24.028170817593836 55.579486522825036,17.357321211344868 54.071579486521955,15.882194762788567 54.71080094756325,14.882386836545473 53.170113323515714,13.161405979896456 49.088930149176385,11.145399833535715 48.67917280235557,9.604712209488177 46.54843459888459,7.8345604712201515 45.31916255842217,8.65407516486293 44.18823228119544,8.65407516486293 39.697291760035306,7.670657532492062 38.74665471541122,6.769191369485823 39.22197323772326,5.343235802547367 39.10724118061185,2.901082015493591 38.74665471541122,1.491516742428527 37.91074972789622,0.8031243997693859Z" id="15f3e70f-dbd5-477f-968a-274da3edceae"/></g>
  </g>
  </svg>
  