<?xml version="1.0" encoding="UTF-8" standalone="no"?>
<svg viewBox="0 0 243.00797957229557 256" xmlns="http://www.w3.org/2000/svg">
  <style>
    g.zone {
      fill: lightgray;
      stroke-width: 2;
      stroke-linecap: square;
      stroke-linejoin: bevel;
      stroke-miterlimit: 3;
      stroke-opacity: 0.8;
      stroke: black;
      fill-opacity: 0.3;
    }
  </style>
  <g class="zone" id="zone">
    <path d="M0,22.2661985317588 1.1929779763805903,23.786019789339335 1.8711777848713076,25.640855410150095 1.9447175231402942,27.250558570060747 3.5544206830509477,28.13303542930078 3.5952760932011585,30.396425151611908 4.093712097031644,31.270730928822246 13.637535908075206,33.15825087775294 26.065751675710434,39.22119374401512 28.713182253431107,41.035173954676246 30.57618895627214,43.13514203638653 36.067156080434266,45.36584743057772 33.60766038940294,46.41174593041802 32.145036706032585,53.332652409830565 32.71701244813322,54.81161825726147 31.229875518672035,57.33648260453268 29.742738589212014,58.67654005745298 31.221704436641758,62.76208107245435 32.90494733482256,65.0663262049157 32.39834024896296,68.52269390360682 32.561761889562646,71.27634854771759 34.457452920523615,75.42725821895941 34.93954676029355,76.84902649218014 36.82706670922425,78.47507181615076 37.693201404404306,80.66492180019173 37.02317267794503,81.10616022981147 37.2029364826041,82.43804660070208 36.00995850622467,83.47577401851268 35.75665496329429,84.20300031918272 30.49447813597172,86.34382381104379 29.366868815831,87.61034152569454 28.73769549952077,90.48656240025534 29.138078518991442,91.0503670603257 28.435365464411063,93.49352058729649 27.928758378551464,99.42572614107891 27.029939355250306,100.04672837535887 24.84826045324018,104.14044047239052 23.352952441748723,107.71937440153229 22.09460580912826,108.4629428662623 20.247941270347777,111.56795403766382 19.70864985636824,113.32473667411419 19.602425789978156,114.73833386530465 20.70552186402805,117.50015959144626 22.601212894989022,118.43983402489647 23.058793488669295,119.0690073412067 25.191445898500096,118.66045323970633 29.080880944781846,119.49390360676703 29.69371209703153,119.37950845834668 30.79680817108258,119.665496329397 32.757867858283426,119.57561442706688 34.98857325247403,119.78806255984705 37.2928183849348,120.41723587615728 38.428598787104626,120.39272263006704 41.90130864985631,120.94835620810713 45.202425789978044,120.94018512607742 47.35142036386823,121.43045004787764 50.40740504308985,121.16897542291757 51.42061921481021,121.28337057133734 51.19999999999977,122.2393871688481 53.83925949569133,123.21174593041825 56.06996488988194,124.65802744972864 56.699138206192174,128.70271305458039 60.637599744653244,131.20306415576133 60.88273220555335,134.3897861474627 64.89473348228573,135.55007979572278 68.74331311841728,136.49792531120326 73.9401212894988,136.4325566549634 82.11937440153183,133.58084902649225 84.09677625279322,133.62987551867215 87.39789339291379,136.59597829556367 89.31809766996558,137.3640600063839 91.8511330992659,137.609192467284 94.03281200127718,136.64500478774357 98.38799872326831,136.82476859240379 99.81793807851874,139.13718480689425 102.53890839451071,140.83676986913503 105.07194382381103,144.85694222789652 107.67851899138266,146.42578997765753 109.02674752633266,146.54018512607732 109.21468241302316,147.21021385253775 108.36488988190249,149.49811682093855 107.65400574529183,150.55218640280913 106.75518672199183,150.68292371528887 106.22406639004141,151.28758378550944 106.55090967124194,151.71248005106918 106.52639642515227,152.96265560165995 107.46607085860249,153.56731567187995 106.967634854772,155.3649537184811 99.83428024257928,161.2726460261733 96.52499202042844,168.79004149377613 95.27481646983709,170.0075327162464 95.92850303223814,171.50284072773727 95.89581870411821,174.72224704755857 97.48917969996832,176.94478135971949 97.21953399297854,180.99763804660094 96.35339929779732,181.53692946058104 94.40051069262675,183.45713373763166 93.59157357165628,183.8902010852223 88.0188956271949,183.85751675710176 87.84730290456494,184.02093839770203 87.12824768592401,184.14350462815207 86.40919246728424,187.13412065113326 80.96725183530144,190.32084264283463 71.20280880944743,192.93558889243536 68.22853495052624,196.62074688796721 78.57312480051115,208.00306415576156 79.80695818704079,214.48273220555382 79.41474624960155,216.30488349824464 80.10111714012137,216.8605170762847 80.35442068305176,217.88190233003536 80.11745930418193,219.03402489626572 82.20925630386252,224.97440153207785 81.88241302266199,226.18372167251843 82.22559846792191,227.531950207469 82.1847430577717,228.25100542610934 82.41353335461241,228.84749441429963 83.27966804979248,229.86070858602 84.77497606128277,230.87392275774036 85.0446217682737,231.13539738270043 85.38780721353362,231.25796361315048 86.04966485796378,232.32020427705075 86.2457708266834,232.76144270667106 86.45821895946357,232.99023300351118 86.49907436961378,233.4314714331315 86.40102138525397,233.82368337057133 86.37650813916432,234.50188317906205 85.97612511969363,234.94312160868176 86.03332269390323,236.46294286626286 84.62789658474364,237.2473667411431 84.08860517076295,237.2065113309929 83.36954995212318,237.82751356527342 83.35320778806262,238.9387807213536 83.55748483881251,240.05004787743377 83.99872326843341,241.01423555697423 83.4022342802431,242.07647622087507 81.64545164379216,243.87411426747565 81.40849026492234,245.6799233961065 81.76801787424164,246.8238748803066 82.56061283115271,247.49390360676705 83.06721991701231,248.3028407277375 83.54931375678224,248.53980210660734 85.7555059048832,250.0351101180982 88.9749122247045,251.1382061921481 91.5896584743064,252.7152250239388 91.56514522821557,254.03076923076947 92.7336099585065,256 241.21851260772468,255.93463134376012 243.00797957229557,254.03894031279972 242.14184487711552,253.24634535588925 242.35429300989452,249.92888605170813 239.1022023619533,248.2619853175873 234.92677944462238,248.3028407277375 233.88905202681119,246.94644111075664 232.21398021066065,246.09664857963656 232.15678263645106,244.61768273220565 234.3221193744018,239.9765081391642 236.22598148739306,238.95512288541357 238.9387807213536,236.4139163740824 239.84577082668386,234.44468560485186 239.70686243217384,231.6501755505909 238.65279285030329,230.51439514842048 239.11854452601384,230.17120970315997 239.08586019789388,229.13348228534997 235.948164698373,228.88834982444985 232.60619214810106,228.25917650813963 219.53246090009623,228.0712416214491 202.1443983402493,220.21066070858635 198.09154165336784,204.3751037344399 200.82068305138895,194.88030641557623 202.84711139482965,185.51624640919292 209.5637408234923,178.50545802744966 218.66632620491615,175.5066709224388 216.1169486115553,167.61340568145553 216.83600383019507,165.8893073731251 221.6324289818071,165.41538461538485 225.50552186402828,163.77299712735424 225.6444302585383,155.7653367379512 217.2609000957554,144.32582189594666 217.30175550590562,119.82891796999668 209.04896265560245,109.12480051069247 197.42968400893767,100.05489945738914 192.67411426747586,92.01455473986616 191.09709543568516,92.54567507181599 190.61500159591523,93.03593999361621 188.41698052984339,93.28924353654659 183.21200127673157,94.91528886051721 181.43070539419097,95.01334184487702 180.1723587615705,95.60165975103762 179.25719757420995,95.6180019150976 177.86811362910973,96.1082668368978 177.34516437918958,96.67207149696758 175.4984998404091,97.68528566868794 173.1697414618575,98.36348547717866 171.70711777848717,98.52690711777834 171.02891796999762,97.76699648898835 171.35576125119698,97.09696776252791 167.3274178104052,94.40051069262675 164.00178742419382,95.02151292690729 160.7251835301629,94.49856367698715 156.78672199170182,92.390424513246 155.06262368337082,92.42310884136594 151.76150654324908,94.04915416533656 150.5603574848394,95.47909352058757 147.11216086817737,97.047941270348 143.1165017555067,101.14982444940935 136.17108203000333,102.25292052345982 129.429939355251,106.01161825726125 127.55876157037969,106.2812639642516 124.78876476220955,107.572294924992 124.73973827002906,98.55959144589828 136.25279285030373,85.2979253112035 135.51739546760342,71.52965209064797 127.99182891797031,68.35110118097687 122.19853175869848,68.17950845834692 116.51962974784584,63.08892435365488 116.18461538461504,60.1064794127034 113.76597510373509,54.56648579636137 114.90175550590492,50.750590488349765 113.44730290456482,49.03466326204903 117.40210660708645,44.017618895627145 114.98346632620533,34.11426747526312 118.54605809128655,29.808107245451307 118.40714969677653,24.660325566549673 105.19451005426167,24.799233961059695 101.18250877752928,16.301308649856427 100.34905841046915,13.228981806574836 101.03542930099015,12.567124162144667 97.44015320778783,10.79399936163433 91.53246090009564,11.611107564634489 88.14146185764437,12.371018193425048 80.58321097989132,8.236450686243193 78.63849345675102,4.600319182891823 63.3340568145544,0 52.88324289818057,5.997574210022307 43.56003830194745,6.871879987232645 34.73526970954366,11.079987232684067 27.19336099585115,16.489243536546354 20.45221832109767,16.293137567826154 0,22.2661985317588Z"/>
  </g>
</svg>