<?xml version="1.0" encoding="UTF-8" standalone="no"?>
<svg viewBox="0 0 256 151.72894678457058" xmlns="http://www.w3.org/2000/svg">
  <style>
    g.zone {
      fill: lightgray;
      stroke-width: 2;
      stroke-linecap: square;
      stroke-linejoin: bevel;
      stroke-miterlimit: 3;
      stroke-opacity: 0.8;
      stroke: black;
      fill-opacity: 0.3;
    }
  </style>
  <g class="zone" id="zone">
    <path d="M0,31.53852492789448 11.416183322239792,31.89553421444673 12.754968146810162,34.11061456055277 11.140312509904275,38.57323064245189 15.432537795949747,48.74799530918185 19.49757535418882,51.07666951919109 23.67620677632994,52.08278659947377 23.457132895946604,44.44765617571563 25.185382396754534,45.84323793223645 25.014991600900313,47.563373585623054 27.91163513042324,47.09277043516818 30.19162625590336,47.238819688757836 30.086146239422064,45.26715476530085 31.31133720008808,44.95071471585697 31.814395740229998,46.2002472187887 31.42493106399128,47.31184431555267 34.873316218186396,47.88792748248884 38.386612151754434,53.8759468796552 45.57548096732283,55.1660486196953 45.186016291084115,53.59196221989779 47.15768121454111,48.15568444740245 48.90215841019285,49.91638933789743 47.46600741656309,52.73189439320477 47.246933536179746,56.318214953567065 47.79867516085078,60.05869861494093 49.0238661215168,63.94523152990388 51.70143577065638,67.32870590472548 58.94710151817696,66.60657348420023 57.162055085416846,64.15619156286647 60.50496022313067,61.64089886215977 59.279769262463496,59.409590821209925 64.18053310513102,60.77271718804486 63.620677633038085,62.720040569237284 67.19077049855716,62.50096668885279 67.96969985103458,63.44217298976254 64.39960698551552,64.2292161896613 60.618554087033864,68.8378815251495 63.51519761655679,71.22335266711033 69.6411524198915,71.7994358340465 71.97794047732263,72.44854362777693 78.89093848055552,71.72641120725167 82.33932363474948,70.57424487337934 90.59110646255273,69.63303857247017 92.10839593039807,66.23333650280475 95.88944882887972,62.17641279198757 98.9970523913664,60.70780640867135 101.14722195809951,65.18665018541428 106.52670279864324,64.77284396691043 110.58362650946042,67.88044752939652 127.49288453614713,78.93150771766331 133.6431808817464,78.4527907197871 135.37954422997623,79.28851700421556 135.7365535165285,81.0167665050235 136.57227980095695,81.43868657094868 136.872492155557,82.45291749865268 138.0084307945867,84.01077620360697 139.37967100884237,84.7247947767109 145.9518874203668,86.51795505689175 146.66590599347018,87.4104782732718 146.48740135019403,88.54641691230091 147.62333998922372,92.84675604576714 150.43073119710917,95.2403410351493 156.66216601692517,96.78197204525978 159.08820639599378,100.96871731482338 170.2041773636335,103.01340686507578 170.17172197394703,107.54904757376914 176.84941840195162,110.22661722290873 181.8881176507869,113.46404234414126 181.43374219517526,115.89008272320989 179.1375233748525,117.78060917245071 178.84542486767432,120.66913885455288 177.6608031441155,121.47240974929488 177.33624924724973,122.66514532027502 178.05838166777613,123.44407467275187 177.72571392348846,124.95325029317588 188.5901556210572,126.20278279610761 191.6490760990136,124.04449938195317 192.43611929891293,122.21888371208527 192.2657285030587,120.39326804221737 190.76466673005604,120.17419416183287 194.88650122024612,117.79683686729395 196.83382460143855,112.51472219580961 196.2252860448165,111.74390669075466 194.9919812367274,111.08668504960232 194.77290735634293,110.3239833919687 195.72222750467458,109.780355614719 194.3266457481532,104.71731482361857 196.11169218091328,104.71731482361857 196.94741846534174,105.30151183797665 196.501156857152,106.32385661310255 196.72023073753536,110.72967576305007 198.17260942600777,112.18205445152306 198.56207410224647,113.30987924313027 194.77290735634293,120.10116953503862 194.65931349244087,121.34258819054845 192.65519317929628,124.66115178599713 188.75243256949068,127.22512757123351 180.39516972520613,131.32262051915905 180.89822826534805,132.92916230864304 179.1699787645401,136.41000285252463 173.8229533136817,141.87873601470642 185.30404741529557,149.2217679312858 192.9310639916318,151.72894678457058 193.04465785553498,150.36582041773624 197.00421539729277,149.2217679312858 197.28008620962828,148.0452600551489 201.51551456372158,144.88897340813253 202.57031472853453,143.4203670248169 211.21156223257535,136.23149820924849 217.6701847801966,133.14823618902696 225.3621121359069,131.0305220119803 231.60166080314366,132.02041139741976 231.65845773509466,131.2495958923648 256,137.7325599822506 255.94320306804784,131.8337929067223 250.43390066875824,130.73842350480157 256,131.1360020284616 252.600297930334,124.92079490348942 241.96304396057164,124.33659788913192 249.42778358847556,119.37092326709147 244.74609362619253,112.14959906183603 239.17999429495077,111.4923774206837 234.16563658838004,109.16370321067446 231.37447307533841,106.10478273271863 216.55858768343262,100.068080251022 208.64758644733897,94.25856549713176 172.76815314886989,75.51557795315523 168.25685398244107,75.22347944597648 167.19393997020623,76.81379354061666 167.2507369021584,78.07955373839162 167.64020157839596,79.12624005578267 167.58340464644493,79.92139710310275 167.19393997020623,80.46502488035246 166.41501061772993,79.81591708662145 166.19593673734545,78.62318151564133 164.91394884472726,77.10589204779541 165.360210452917,75.15045481918166 167.0316630217739,73.6737345884441 169.8715096193458,73.20313143798923 159.89959113815652,60.56175715508227 155.16110424392247,59.01201229754988 152.4267376628307,59.701689328388674 147.2501030078288,59.51507083769122 144.23986561440154,57.072802763779364 130.03251877911896,53.59196221989779 129.91892491521577,54.84960857025142 130.5923742512119,55.31209787328439 130.9818389274506,56.74824886691357 132.76688536020956,58.47649836772208 133.1563500364483,60.01812937783256 132.59649456435534,61.34880035498102 133.545814712687,62.14395740230111 135.0468764856897,64.77284396691043 136.6047351906434,66.53354885740539 137.05099679883313,68.80542613546304 137.8867230832616,70.35517099299543 139.11191404392878,71.83189122373297 139.22550790783197,73.05708218439956 136.83192291844864,77.28439669107154 137.27818452663954,78.80168615891745 136.15847358245367,80.82203416690413 136.15847358245367,78.98019080219301 135.37954422997623,77.17891667459024 137.22138759468737,73.38163608126536 137.05099679883313,72.05096510411688 135.16047034959288,68.77297074577658 134.9900795537375,66.89867199137898 132.98595924059407,63.69370225983349 130.8033342841745,62.28189280846887 131.42810053564034,60.488732528287436 130.9818389274506,58.83350765427376 129.36718329054472,56.67522424011932 128.8073278184518,54.662990079553964 127.13587524959604,53.84349148996874 125.24534880035463,53.41345757662166 123.01404075940478,54.05445152293133 120.89632658235813,54.09502076003912 126.18655510126437,52.36677125923119 126.2433520332154,50.930620265601426 128.30426927831104,48.42344141231664 125.30214573230565,45.129219359133096 123.84976704383324,35.035593166619286 113.82105163069293,23.619409844378918 120.62045577002262,23.83036987734151 128.53145700611628,19.627396912934678 129.08319863078847,17.355519634877037 126.18655510126437,15.010617730024569 118.83540933726367,14.580583816678061 106.57538588317351,12.37361731799335 106.24271813888582,19.27850147380433 102.34807137650097,12.519666571582436 93.76362080441118,9.468859941047942 76.27016576336696,6.272004056923786 53.25929447561124,5.809514753890816 15.099870051662055,0 14.2641437672336,17.996513581186136 0.44626160818973887,20.949954042661236 0,31.53852492789448Z"/>
  </g>
</svg>