<?xml version="1.0" encoding="UTF-8" standalone="no"?>
<svg viewBox="0 0 256 134.1271300289898" xmlns="http://www.w3.org/2000/svg">
  <style>
    g.zone {
      fill: lightgray;
      stroke-width: 2;
      stroke-linecap: square;
      stroke-linejoin: bevel;
      stroke-miterlimit: 3;
      stroke-opacity: 0.8;
      stroke: black;
      fill-opacity: 0.3;
    }
  </style>
  <g class="zone" id="zone">
    <path d="M0,49.46956091352604 5.973272997240118,54.68259916566434 9.177119423034696,55.967757901434915 19.18687690023238,62.140139998585866 25.594569751818966,63.53390369794241 29.938768295268193,65.90511206957528 34.97079827476321,65.52499469702245 38.30135049140745,67.02736335996624 43.56869122533938,66.50243936929878 48.27490631407776,70.37601640387417 56.07636286502088,80.13236229936996 58.01315138230858,81.39942020787684 61.76002262603431,81.16410945343992 59.62412500883707,91.24627023969492 54.50159089301977,96.13349360107402 53.59654952980203,100.44149048999459 55.87725376511134,103.35572367955862 60.221452308560565,104.51417662447825 66.6653468146771,108.4239553135823 73.94187937495404,127.32121897758542 76.34928940111557,130.12684720356347 74.53920667468012,134.07282754719617 179.07148412642334,133.8013151382306 253.32107756487162,134.1271300289898 252.83235522873537,133.74701265643824 252.65134695609078,133.09538287491984 255.185462773102,130.66987202149463 256,129.22180584034444 255.38457187301154,128.89599094958652 254.64243795517083,127.46602559570134 254.3347238916766,126.12656437813713 254.51573216432118,125.58353956020598 253.66499328289578,125.25772466944807 251.67390228381575,124.02686841546983 251.34808739305655,123.70105352471191 251.2213816022043,122.9589196068725 249.99052534822738,123.39333946121768 249.26649225765422,123.39333946121768 246.87718305875507,122.56070140705597 245.95404086827236,121.90907162553886 244.7412854415604,120.55150958071097 242.33387541539886,119.71887152655054 241.91755638831737,119.39305663579134 241.8089514247327,118.94053595418248 239.36533974404122,117.34766315491767 238.17068514459422,116.04440359188213 237.82676942657005,115.42897546489367 237.86297108109997,115.04885809234212 238.47839920808846,114.12571590185941 238.58700417167313,113.47408612034228 238.49650003535342,112.64144806618059 237.64576115392805,112.18892738457171 237.5190553630758,111.75450753022653 237.1208371632593,111.46489429399728 237.06653468146695,111.01237361238712 236.30629993636384,110.65035706710054 235.5098635367308,109.36519833132998 236.77692144523766,108.65926606801922 238.38789507176617,108.04383794103074 238.49650003535342,107.84472884112249 236.5959131725931,106.63197341440923 236.30629993636384,106.21565438732902 236.37870324542115,105.87173866930613 226.87576893162725,102.54118645266189 225.30099695962613,99.8441631902711 213.3906526196707,101.41893516227093 208.15951354026615,98.03408046383306 200.82867849819684,98.16078625468401 192.8643145018741,95.62667043767152 193.497843456125,87.57180230502651 184.75514388743417,86.19613943293494 183.6328925970445,80.11426147210628 176.62787244573184,76.53029767376015 178.56466096301955,73.39885455702417 176.17535176412298,70.32171392208183 171.19762426642032,69.30806759527684 168.9350208583734,65.50689386975876 163.08845365198295,65.3801880789078 158.65375097221144,62.08583751679223 157.06087817294792,50.95382874920487 162.36442056140723,33.215018030120085 157.36859223644217,32.30997666690236 148.87930424945068,35.65862971081028 140.1004030262299,34.69928586579892 135.53899455560875,31.350632821889707 130.3621579579991,25.377359824648305 130.1268472035622,21.992505126210435 140.4443187442541,19.566994272785216 138.7609418086683,16.688962737749847 124.11737255179213,12.000848476277724 117.56487308208834,8.941808668599064 111.0304744396521,1.7919818991717782 108.60496358622558,1.3937636993565419 107.69992222300786,0.36201654528657834 106.01654528741948,0.39821819981523615 103.73584105211017,0 102.41448066181096,1.3032595630342543 96.96613165523443,1.3937636993565419 81.52612599872522,4.959626670437698 75.00982818355395,5.303542388460591 72.98253552994396,8.670296259633487 69.99589903132133,9.846850031818082 69.47097504065515,11.5121261401402 67.20837163260825,12.634377430531165 62.6288623347221,12.181856748921014 53.2888354663078,9.39432935020793 45.28826981545513,13.086898112140032 43.496287916282064,16.23644205614098 40.925970444740926,16.36314784699064 38.04793890970813,20.90645549034813 33.45032878455701,24.25510853425734 28.182988050625074,26.11949374248772 25.01534327936044,29.160432722901408 25.467863960969307,31.151523721982734 28.056282259772843,32.291875839637385 28.418298805061994,34.35537014777603 27.332249169199685,37.070494237431795 25.594569751818966,37.504914091776975 23.006151453015427,38.898677791133515 21.087463762990133,43.423884607226036 19.56699427278393,44.817648306582576 11.801739376368177,44.347026797708736 6.932616842252766,47.65947818708929 0,49.46956091352604Z"/>
  </g>
</svg>