<?xml version="1.0" encoding="UTF-8" standalone="no"?>
<svg viewBox="0 0 256 170.751188589541" xmlns="http://www.w3.org/2000/svg">
  <style>
    g.zone {
      fill: lightgray;
      stroke-width: 2;
      stroke-linecap: square;
      stroke-linejoin: bevel;
      stroke-miterlimit: 3;
      stroke-opacity: 0.8;
      stroke: black;
      fill-opacity: 0.3;
    }
  </style>
  <g class="zone" id="zone">
    <path d="M0,2.6515734661535006 0.1521394611726448,3.4195155082638014 3.6730812768841896,3.21666289336677 3.7020602218694063,3.405026035771193 4.064297034186159,3.564410233190399 4.143989132895247,3.991849671723117 4.274394385329237,4.093275979171375 4.064297034186159,4.230925967851927 4.02807335295438,4.527960153950654 3.8759338917817354,4.716323296355077 4.078786506678252,4.948154856237325 4.0353180891999125,5.303146932307001 3.933891781752169,5.469775865972769 4.24541544034402,5.636404799638023 4.4844917364723145,5.860991623274224 4.462757527733659,6.071088974417302 4.527960153950654,6.237717908082555 4.433778582748443,6.43332578673354 4.491736472718876,6.643423137876618 4.361331220284887,6.868009961512819 4.354086484038325,7.027394158931511 4.607652252659743,7.309938872538145 5.4770206022183014,7.331673081277315 6.071088974416787,7.57074937740561 6.60719945664484,7.621462531129996 6.839031016526572,7.759112519810032 7.302694136291069,7.730133574824816 7.751867783563471,7.904007244736631 8.14308354086441,8.143083540864925 8.295223002037055,8.55603350690555 8.498075616934601,8.75888612180258 8.527054561919819,8.932759791713881 8.88929137423554,9.266017659044902 8.831333484265107,9.439891328956717 8.896536110482103,9.62825447136114 8.563278243150567,9.758659723794615 8.469096671949385,9.961512338691646 8.606746660628907,10.367217568485708 9.410912383970471,10.541091238397524 9.657233416345326,10.526601765904914 9.838351822503189,10.64251754584578 10.273035997282468,10.758433325787163 10.816391215757081,10.736699117047992 11.149649083087589,10.809146479511035 11.63504641159074,10.57007018338274 11.656780620330423,10.512112293412306 11.569843785374774,10.403441249717487 11.46117274167944,10.338238623500493 11.504641159157778,10.28028073353006 11.446683269186316,10.22232284355911 11.874122707720064,9.976001811184254 12.20738057505057,10.055693909893858 12.366764772469775,10.200588634820456 12.634820013583287,10.287525469776105 12.83042789223427,10.446909667195312 13.504188363141846,10.599049128367957 13.692551505546268,10.736699117047992 14.250396196512977,10.664251754584951 14.8372198324649,11.033733303147235 15.62689608331437,11.048222775639845 15.750056599501798,10.990264885669411 15.909440796921006,11.048222775639845 16.090559203078865,11.00475435816202 16.315146026715066,10.816391215757596 16.786053882725096,10.925062259452416 16.858501245188652,10.939551731945024 16.93094860765221,11.156893819334664 17.03237491509995,11.280054335522092 17.394611727416706,11.31627801675387 17.50328277111101,11.475662214172562 17.793072220964206,11.606067466606552 17.974190627122066,11.584333257867382 18.394385329408223,11.693004301562201 18.69141951550798,11.707493774054809 19.15508263527248,11.93208059769101 19.408648403893896,12.395743717455508 19.749151007470964,12.721756848539966 20.05342992981625,12.815938419742178 20.22005886348202,12.989812089653993 20.35770885216154,13.243377858274895 20.40117726963988,13.714285714285953 19.894045732397046,13.750509395517732 19.408648403893896,14.105501471587408 19.13334842653382,14.228661987774835 18.879782657912404,14.228661987774835 18.582748471812646,14.14172515281867 18.43060901064,14.206927779035667 18.401630065654786,14.279375141499223 18.459587955625217,14.909667194928971 18.37265112066957,15.155988227303828 18.5465247905819,15.337106633461689 18.437853746886564,15.460267149649118 18.698664251754543,15.75730133574836 18.705908988000076,15.894951324428396 19.08988000905548,16.344124971700285 19.1188589540407,16.662893366538697 19.242019470228126,16.86574598143573 19.314466832691682,17.11931175005663 18.981208965361176,17.307674892461055 18.713153724246634,17.256961738737182 17.793072220964206,17.517772243604647 17.206248585012283,17.26420647498323 16.83676703645,17.220738057505404 16.525243377858146,17.37287751867805 16.264432872990167,17.33665383744627 15.996377631876655,17.242472266244576 15.938419741906221,17.148290695042363 15.923930269413098,17.08308806882537 16.01086710436875,16.92370387140616 15.40230925967817,16.641159157799528 15.032827711115885,16.561467059089924 14.373556712700404,16.61942494906087 13.51867783563497,16.351369707946844 12.946343672175137,16.438306542902495 12.584106859859416,16.554222322843877 12.243604256282348,16.546977586597315 11.982793751414368,16.358614444193407 11.504641159157778,16.460040751641667 11.403214851709006,16.373103916686016 11.345256961738572,16.474530224134273 11.243830654289798,16.489019696626883 10.93955173194451,16.438306542902495 11.033733303146722,16.575956531583046 11.02648856690016,16.807788091465294 11.446683269186316,17.27145121122979 11.395970115462443,17.38012225492461 11.620556939098645,17.633688023545513 11.309033280506794,17.67715644102334 11.280054335521577,17.727869594747727 11.359746434230665,17.90174326465954 11.265564863028454,18.075616934571354 11.280054335521577,18.220511659497436 11.627801675345207,18.53928005433585 11.852388498980378,18.966719492868567 12.062485850124485,19.06090106407078 12.134933212587013,19.147837899026946 12.185646366311914,19.256508942721766 12.149422685080136,19.38691419515524 12.221870047543693,19.473851030111405 12.127688476341481,19.560787865067056 12.134933212587013,19.705682589993653 12.011772696399584,19.7926194249493 12.163912157572229,19.872311523658905 12.127688476341481,19.980982567353724 12.229114783789225,20.183835182250757 12.460946343671987,20.321485170930792 12.721756848538938,20.60402988453743 12.714512112293406,20.77065881820268 12.82318315598771,20.944532488114493 12.772470002263839,21.024224586824097 12.786959474755932,21.28503509169156 12.975322617160355,21.40819560787899 12.968077880913793,21.473398234095985 13.120217342087468,21.647271904007287 13.286846275752206,21.72696400271689 13.243377858274895,21.770432420195228 13.315825220737423,21.893592936382657 13.25786733076699,21.92981661761392 13.381027846954417,22.089200815033127 13.366538374462325,22.16164817749617 13.562146253112278,22.299298166176204 13.757754131763264,22.574598143536793 13.627348879329274,22.726737604709438 13.793977812995042,23.059995472039944 13.65632782431449,23.175911251981326 13.764998868009824,23.24111387819832 13.714285714284923,23.34978492189314 13.83020149422682,23.50916911931183 13.692551505546268,23.63232963549926 13.772243604256387,23.683042789223645 13.764998868009824,23.806203305411074 13.866425175457568,23.907629612859846 13.69979624179283,24.197419062712527 13.721530450531485,24.393026941362997 13.880914647950691,24.566900611274814 15.909440796921006,24.038034865293323 19.785374688702742,24.335069051392566 23.994566447814982,25.059542676024524 28.49354765678042,27.059089880009108 40.21553090332784,29.544034412497354 45.076748924609,31.224813221644037 44.27258320126744,33.34752094181605 44.72900158478537,35.55716549694371 42.48313334842645,36.752546977586725 40.13583880461772,42.026714964908514 44.757980529770585,47.771790808241356 48.786053882725994,48.96717228888437 50.720398460493065,50.40887480190225 53.0024903780848,49.69889064976238 58.24043468417481,49.6336880235459 59.08082408874815,50.148064297034786 58.16798732171125,51.712927326240084 61.268734435136636,53.77767715644115 61.82657912610335,55.386008603124786 63.42042110029438,56.77699796241828 63.24654743038205,59.60244509848359 71.41860991623271,57.97962417930734 72.7443966493092,60.2399818881599 72.81684401177276,61.20353180892067 73.43989132895646,62.21779488340532 75.53362010414274,62.93502377179123 74.90332805071247,64.52886574598175 75.72922798279372,65.83291827031958 74.85985963323516,66.37627348879369 76.0697305863708,68.39031016527088 71.17953362010338,69.31039166855382 67.10074711342513,72.32420194702304 70.03486529318475,76.64206474983062 74.43242019470244,76.5985963323528 74.53384650215018,75.8161648177499 76.84491736472714,75.41770432420239 77.90989359293565,75.62780167534547 78.66334616255334,76.97532261716113 79.8877065881821,77.67806203305443 80.51799864161133,78.27937514149896 80.51075390536579,79.17047769979669 80.82952230020318,79.38057505093977 78.90242245868164,81.53950645234356 76.5768621236126,83.74915100747174 77.91713832918221,84.37219832465492 70.83903101652632,89.02331899479351 73.70070183382342,96.25356576862154 74.35272809599233,96.60855784469122 78.4025356576864,95.89857369255186 78.23590672402062,97.20262621688971 79.38781978718582,97.91261036902907 79.83699343445718,100.26714964908332 79.81525922571853,101.03509169119361 81.63368802354474,102.29567579805364 80.91645913515985,103.53452569617447 80.96717228888373,105.98324654743095 83.58252207380596,109.92438306542968 84.64749830201448,112.06882499434035 83.7998641611956,114.872537921667 85.84287978265802,115.47385103011153 87.57437174552857,119.82069277790382 90.58818202399831,119.6178401630073 94.4206474983017,126.15983699343514 96.66651573466166,126.1815712021738 102.38985736925481,122.56644781525952 104.54878877065912,120.13221643649567 106.55558071088974,119.72651120670211 114.08286167081701,116.58954041204495 124.40661082182439,123.31265564863065 127.66674213266897,128.7679420421103 132.52796015395015,134.92596785148325 134.38261263300916,136.44736246321074 134.54199683042734,137.01969662667005 133.96241793072195,137.73692551505596 130.32556033506853,138.91781752320637 130.06474983020158,139.65678062033095 130.31107086257643,140.395743717456 130.79646819107958,140.3667647724703 134.88974417025096,143.7862802807341 140.62757527733723,147.29273262395355 145.98143536336914,148.1765904460047 148.75616934570957,147.45211682137275 150.70500339596975,146.12633008829573 153.8129952456417,146.31469323070016 154.42155309033228,145.75684853973345 155.2039846049352,143.99637763187718 156.2254924156664,143.3878197871866 156.92098709531365,143.2139461172748 157.35567127009293,142.12723568032658 157.21077654516583,141.30133574824583 156.17477926194252,140.8449173647279 155.99366085578467,140.0479963776324 157.26148969889073,138.83088068825072 159.36970794657012,138.08467285487959 161.209870953136,136.74439664930998 162.36178401630016,134.92596785148325 163.39053656327795,134.87525469775937 164.10776545166385,133.61467059089938 167.30993887253803,132.1367443966497 171.17862802807318,133.2886574598149 172.88114104595854,133.4335521847415 173.78673307674887,132.9843785374696 173.99683042789195,132.3178628028081 175.19221190853548,131.84695494679704 176.00362236812362,130.49943400498137 178.61172741679826,130.36178401630133 184.79148743491038,128.93457097577607 186.97215304505332,128.8983472945443 187.50101879103482,128.37672628480937 188.41385555807068,128.53611048222805 189.08761602897928,128.52162100973544 189.449852841295,128.93457097577607 190.42064749830234,129.09395517319476 193.03599728322357,131.95562599049185 195.65859180439236,133.1799864161201 201.51958342766605,135.05637310391725 202.19334389857363,136.20828616708243 198.06384423817047,137.17908082408925 198.1580258093727,138.53384650215148 200.23002037582032,140.924609463437 202.05569390989308,142.26488566900662 205.5693909893591,142.6488566900615 208.96717228888426,141.3085804844924 210.96671949286832,141.67081729680814 208.8440117726968,148.7706588182032 209.4815485623726,153.22617160969028 211.2565089427215,154.54471360652073 213.59655875028264,154.59542676024512 214.50215078107297,156.1168213719726 216.4944532488115,156.52252660176666 217.45075843332572,157.75413176364094 216.6755716549694,159.0074711342544 219.47928458229603,160.44192891102622 219.9284582295674,162.87616028979008 223.42766583654029,163.42676024451023 223.1741000679199,166.65066787412306 226.36178401630096,167.6649309486082 229.29590219606058,167.6142177948838 231.38963097124787,168.96898347294604 236.15666742132683,168.3386914195163 236.78695947475708,169.41815712021793 240.59044600407526,170.751188589541 241.53950645234292,170.70772017206318 242.10459587955617,170.49037808467352 242.80009055920345,170.49762282091956 243.39415893140193,170.3672175684861 243.91577994113686,170.66425175458534 244.3214851709309,170.6352728096001 244.47362463210357,170.46864387593436 244.58954041204444,170.0774281186329 244.74892460946364,169.96151233869205 244.8358614444193,169.57754131763713 245.16187457550427,169.25877292279873 246.19787185872755,169.33846502150834 246.95132442834526,168.91827031922165 247.14693230699623,168.9110255829756 247.4729454380802,169.20805976907485 248.08150328277077,169.6137649988684 248.2988453701604,169.693457097578 248.56690061127495,169.693457097578 248.88566900611232,169.97600181118463 249.72605841068565,170.17885442608167 250.2621688929137,170.11365179986467 250.54471360652036,169.9832465474312 250.6678741227078,169.8528412949972 251.24745302241314,169.99773601992382 251.77631876839465,169.96875707493808 252.02988453701604,169.86008603124327 252.6746660629384,169.4254018564645 252.7905818428803,169.23703871406008 252.86302920534283,168.83857822051206 253.0441476115007,168.72266244057118 253.40638442381746,168.6212361331224 253.80484491736496,168.30246773828452 253.8555580710888,168.1793072220971 253.8265791261036,167.84604935476608 253.6961738736696,167.70115462983998 254.145347520942,167.60697305863778 254.13810278469546,167.37514149875554 254.26850803712944,167.23024677382892 254.37717908082374,167.2012678288437 254.37717908082374,167.28820466379935 256,167.28820466379935 254.94226850803702,165.78854426081105 254.3554448720851,165.6871179533628 254.37717908082374,164.57867330767542 254.10912383971024,163.90491283676786 251.65315825220722,162.94860765225312 251.03735567127006,162.1227077201724 251.07357935250184,161.7387366991175 249.68258999320835,161.68802354539312 246.60357708852163,158.0149422685084 245.2198324654747,157.14557391894985 241.19900384876584,156.8340502603585 241.03237491510112,156.167534525697 239.22119085352043,154.8200135838808 239.36608557844653,153.18270319221247 241.52501697985082,151.30631650441532 238.75752773375595,149.22707720172113 238.37355671270052,148.33597464342392 237.6490830880691,147.67670364500844 237.67806203305432,144.18474077428158 236.55512791487433,143.25016979850656 235.54810957663625,142.68508037129328 233.08489925288666,142.25764093276058 232.4183835182246,141.1636857595658 232.5342992981665,140.30880688249985 232.59225718813695,138.0484491736478 231.8822730359976,137.89630971247516 231.00565995019247,137.20081503282842 230.94045732397547,133.15100747113488 230.5202626216893,132.65836540638517 230.5709757754132,131.90491283676747 231.15779941136512,131.43400498075692 230.96219153271414,130.72402082861706 230.476794204211,130.35453928005478 230.14353633688046,128.98528412949995 231.80982567353402,126.33371066334644 228.32510753905325,123.28367670364544 228.04256282544762,122.4432872990721 229.39008376726278,121.15372424722686 229.77405478831818,120.22639800769787 226.3835182250396,118.64704550599997 226.18066561014308,119.2483586144445 224.978039393253,118.92234548336003 224.36223681231584,117.13289563051904 223.74643423137871,116.54607199456713 223.44940004528,114.73488793298645 223.65949739642306,114.0901064070641 223.60153950645264,113.51777224360478 222.68870273941573,113.01064070636245 222.456871179534,112.24994340049872 223.19583427665856,110.7647724700025 223.0147158705007,109.83020149422747 221.2107765451666,107.70749377405545 221.17455286393482,103.41136517998704 220.1892687344354,101.88272583201301 220.9064976228213,100.95539959248401 220.79782657912597,100.15123386914246 218.85623726511233,96.88385782205181 218.48675571655005,96.55784469096736 217.62463210323702,96.29703418609937 215.19040072447368,96.2463210323755 210.1408195607881,94.81910799185023 199.7228888385785,95.76092370387184 198.77382839030983,94.90604482680588 198.70862576409283,94.18157120217393 198.0783337106636,94.00045279601606 198.26669685306803,93.56576862123678 198.0276205569387,93.26148969889098 197.44079692098677,92.72537921666344 197.04233642743927,92.56599501924424 197.03509169119272,92.11682137197235 196.65112067013834,91.91396875707531 196.75979171383264,91.69662666968567 196.4192891102556,91.41408195607904 196.71632329635534,91.15327145121158 196.8467285487883,90.43604256282566 197.3611048222777,89.89268734435156 197.86823635952052,89.7622820919181 197.5639574371742,89.16096898347355 197.73783110708655,88.87117953362036 197.64364953588432,87.90038487661354 196.54969436268956,87.65406384423869 195.67308127688446,87.80620330541133 195.59338917817536,86.67602445098531 194.36178401630107,85.66900611274671 195.1079918496722,85.0966719492874 196.1294996604034,84.62576409327635 196.68734435137011,84.1693457097584 196.5714285714282,83.5318089200821 196.08603124292506,83.26375367896807 195.4557391894948,83.27099841521411 194.97758659723823,83.58976681005252 193.68077880914694,82.72039846049397 192.9852841294997,82.63346162553832 193.2750735793529,82.22775639574425 193.32578673307674,81.88000905592062 192.73171836087826,81.50328277111178 192.44917364727164,81.02513017885468 191.92030790129013,81.1990038487665 191.57256056146753,81.0541091238399 189.85555807108906,80.98890649762342 189.47883178628024,80.59769074032197 189.54403441249724,80.13402762055746 189.89178175232087,79.98913289563086 189.6092370387142,79.59067240208337 189.645460719946,79.28639347973755 189.98596332352307,79.01833823862405 189.81208965361074,78.67059089880041 189.31944758886104,78.63436721756864 188.9572107765453,78.36631197645512 188.78333710663298,77.70704097803964 187.85601086710398,77.93162780167584 187.2184740774282,77.62010414308399 186.71858727643192,77.03328050713208 186.18247679420386,76.89563051845204 186.11727416798686,76.54063844238185 185.91442155309034,76.35952003622398 185.82748471813468,76.09870953135652 185.01607425854658,75.53362010414325 185.00158478605346,75.39597011546321 184.69730586370815,75.20036223681275 184.6755716549695,74.89608331446746 184.41476115010153,74.71496490830908 184.29884537016065,74.2802807335298 183.90762961285972,74.13538600860372 183.4004980756169,73.70070183382444 183.39325333937032,73.5630518451444 183.10346388951817,73.3384650215082 182.8064297034184,73.00520715417719 182.57459814353666,72.49083088068882 182.0529771338007,72.07063617840214 181.9443060901064,71.81707040978073 181.69074032148498,71.60697305863765 181.42268508037148,71.2302467738288 181.40095087163178,70.9259678514835 181.21983246547393,70.65791261036948 180.85035091691165,70.38261263300942 180.48811410459592,70.21598369934364 180.35046411591537,69.91894951324491 180.08240887480184,69.76681005207176 179.88680099615087,69.57120217342128 179.71292732623957,69.266923251076 179.62599049128391,69.23794430609027 179.37966945890906,68.93366538374498 179.29997736019894,68.75254697758712 179.2275299977364,68.68009961512355 179.19130631650464,68.70907856010929 178.8580484491731,68.32510753905387 178.80733529544923,67.78175232057978 178.67693004301523,67.36880235453967 178.40887480190173,67.26737604709142 178.01041430835423,67.31808920081528 176.33688023545412,67.94113651799898 176.04709078560091,67.97011546298421 175.83699343445784,67.91940230925982 175.51098030337286,67.54267602445148 174.99660402988448,67.1731944758892 174.20692777903503,66.8689155535434 173.77224360425575,66.81095766357296 173.53316730812745,66.90513923477518 173.03328050713117,67.28186551958402 172.5333937061349,67.77450758433373 171.43943853294118,68.04980756169381 171.2583201267833,68.25266017659084 170.14987548109542,68.13674439664946 169.76590446004104,67.94838125424555 169.06316504414724,68.19470228662041 168.75888612180194,68.15123386914259 168.5053203531805,68.02807335295464 168.17930722209658,68.10776545166424 167.28820466379935,68.44826805524131 167.17953362010402,68.84672854878933 166.93321258772917,69.12202852614939 166.52750735793512,69.28141272356861 166.1652705456194,69.2959021960612 166.02762055693884,69.40457323975603 166.0058863482002,69.8102784695501 166.31741000679202,69.95517319447617 166.54924156667377,70.13629160063455 166.37536789676247,70.49128367670423 166.17976001811147,70.55648630292072 166.05659950192404,70.77382839031036 165.23069956984384,70.94770206022217 165.01335748245418,71.12157573013398 164.9119311750054,71.31718360878445 163.03554448720877,71.61421779488369 162.68779714738514,72.30246773828439 165.12202852614848,74.41793072220983 165.75232057957876,81.08308806882563 165.1727416798734,86.02399818881639 165.39732850350856,91.84876613085832 165.51324428345046,92.63844238170728 163.52094181571192,93.02241340276268 159.7391894951324,95.86959474756665 156.1602897894494,98.12270772017266 153.55218474077373,98.64432872990758 148.5388272583199,97.90536563278302 146.51754584559617,98.49943400498098 145.21349332125834,99.27462078333733 143.86597237944318,99.62961285940752 142.24315146026692,100.61489698890695 141.29409101199929,101.0061127462084 139.39597011546297,100.77428118632615 138.28028073352954,99.72379443060922 137.39642291147786,99.83246547430404 135.3026941362916,100.47000226398035 133.98415213946063,101.17998641612022 133.2379443060895,101.95517319447656 133.17998641611905,103.3534072900161 132.74530224133977,104.201041430836 132.56418383518192,105.30224134027681 132.9553995924839,106.388951777225 133.15100747113385,107.68575956531629 132.7597917138329,109.40276205569423 132.12949966040264,110.79375141498824 130.7457550373557,112.3151460267152 130.57188136744338,113.45256961738778 129.7242472266245,114.16255376952714 128.99252886574547,114.98845370160787 127.84786053882684,115.74915100747161 126.73217115689343,115.98098256735385 124.68915553543101,112.25718813674476 125.08761602897852,111.77903554448766 124.5007923930266,110.43875933891805 125.34842653384649,108.69277790355488 124.884763414082,102.23047317183664 121.87095313561227,98.78922345483419 120.92189268734462,97.05048675571706 118.16889291374183,94.18157120217393 116.52433778582693,86.71949286846313 117.60380348652959,85.66176137650015 117.85736925514998,85.0966719492874 117.4878877065877,83.62599049128431 113.19900384876637,78.61987774507604 112.01811184061596,78.10550147158766 108.53339370613516,75.366991170478 108.20013583880466,74.48313334842683 108.27258320126718,73.78763866878009 107.51188589540395,72.23726511206739 107.22934118179732,71.95472039846076 106.75843332578626,70.34638895177763 105.87457550373561,69.73783110708654 105.45438080144842,68.9916232737154 105.35295449400068,68.58591804392134 104.04165723341629,66.52841294996632 103.32442834503037,66.23862350011365 102.54199683042746,65.15191306316545 101.98415213946075,63.78990264885718 102.00588634819941,63.18858954041265 101.4335521847406,62.21055014715927 101.00611274620789,61.91351596106003 100.67285487887635,61.21077654516672 98.75299977360137,59.83427665836584 98.83269187231149,59.08082408874815 97.9488340502598,58.40706361784058 97.9053656327825,58.08105048675611 96.73171836087865,57.00158478605448 94.63798958569134,56.103237491510185 93.13832918270252,54.668779714738875 93.19628707267398,54.089200815032996 92.6456871179528,53.41544034412542 92.138555580711,53.10391668553357 91.90672402082824,52.4591351596107 91.47928458229552,52.02445098483194 90.99388725379237,51.908535204890555 89.18994792845825,50.727643196740146 88.83495585238806,50.59723794430667 88.14670590898737,50.148064297034786 88.08150328277037,49.85827484718158 86.835408648404,48.72809599275556 86.6760244509848,48.286167081730234 85.61829295902182,47.7790355444874 84.92279827937455,47.29363821598425 84.35770885216232,47.03282771111627 83.42313787638676,46.025809372877674 82.93049581163704,45.74326465927155 82.57550373556685,45.315825220738326 81.72786959474695,44.83042789223466 79.47475662214147,42.22956757980554 78.60538827258291,41.910799184967644 78.54018564636591,41.24428345030612 77.98958569164577,40.9110255829751 77.36653837446207,40.23002037582096 77.35204890196894,40.01992302467789 76.76522526601703,39.621462531129865 75.61331220285285,39.512791487435045 75.46841747792574,38.962191532714904 74.60629386461375,38.686891555354826 73.33122028526113,37.28865745981478 71.57799411365191,36.3106180665614 70.58546524790593,36.259904912837015 69.95517319447566,35.702060221870305 69.46253112972595,35.67308127688509 68.94091011999102,35.20217342087403 67.56441023318963,34.955852388499174 67.01381027846948,34.71677609237088 66.46321032374934,34.6008603124295 65.44894724926367,34.06474983020196 64.84038940457309,33.89087616029015 64.51437627348811,33.62282091917612 62.97124745302198,32.978039393253766 62.036676477246424,32.33325786733089 58.62440570522919,30.623500113199505 57.94340049807505,30.536563278243342 56.53067693004291,29.515055467512138 52.47362463210331,26.921439891329072 52.075164138554776,26.877971473851247 45.975096219152775,24.124971700249485 42.64251754584565,21.80665610142649 42.75118858953996,20.944532488114493 41.18632556033517,18.53928005433585 39.759112519809904,17.199003848766235 38.38985736925507,16.380348652932064 37.67262848086916,16.148517093049815 37.556712700928294,14.94589087616075 36.98437853746846,14.496717228888862 36.75979171383226,13.786733076748995 35.702060221869274,13.062259452117035 34.854426081050406,11.75096219153315 33.941589314013505,10.794657007018426 32.920081503282304,8.635725605615153 30.493094860764486,6.092823183156471 28.167534525695444,4.788770658818634 28.037129273262487,4.607652252660258 25.704324201946882,3.1731944758889448 22.813674439664574,1.7677156441023338 21.524111387819858,2.05750509395553 19.99547203984582,1.427213040525266 18.8942721304045,1.173647271904363 18.626216889290987,1.217115689382188 18.452343219379685,1.6590446004075141 19.140593162779354,2.282091917591216 19.198551052750815,2.434231378763861 19.060901064070265,2.644328729907454 18.626216889290987,2.7385103011096654 16.22820919175839,1.8618972153045454 13.525922571880502,1.304052524337838 8.918270319220758,2.477699796242201 6.1000679194020035,1.3475209418161778 4.24541544034402,0.24632103237537106 3.3108444645684667,0 2.8471813448039707,0.043468417478339745 2.419741906271253,0.5071315372428357 1.6155761829286595,0.7027394158933055 1.3185419968299315,1.0577314919629817 0.7244736246314458,1.6083314466836423 0,2.6515734661535006Z"/>
  </g>
</svg>