<?xml version="1.0" encoding="UTF-8" standalone="no"?>
<svg viewBox="0 0 256 121.45942535986683" xmlns="http://www.w3.org/2000/svg">
  <style>
    g.zone {
      fill: lightgray;
      stroke-width: 2;
      stroke-linecap: square;
      stroke-linejoin: bevel;
      stroke-miterlimit: 3;
      stroke-opacity: 0.8;
      stroke: black;
      fill-opacity: 0.3;
    }
  </style>
  <g class="zone" id="zone">
    <path d="M176.98457303435194,110.91816252795826 176.7790330905537,110.96220680162857 176.456041750302,111.1677467454268 175.32557205941484,112.45971210643981 174.9438550209333,112.78270344669359 174.5915008315646,113.03228766416213 174.06296954751468,113.26719045707425 173.02058840396813,113.51677467454279 172.5361013935885,113.6635889201122 171.25881745713087,114.1627573550493 169.84940069966234,115.0730056775818 168.58679818776216,115.74835120720323 168.27848827206586,115.96857257555789 168.02890405459732,116.21815679302642 167.9554969318121,116.4090153122672 167.9995412054824,116.70264380340605 168.14635545105284,117.0109537191034 168.42530251763424,117.36330790847 168.9244709525713,117.89183919252201 169.74663072776218,118.4644147502433 170.14302919080117,118.78740609049706 170.4807019556124,119.13976027986472 170.7596490221938,119.53615874290269 170.99455181510487,120.05000860239723 171.1120032115625,120.46108848999266 171.14136606067532,121.34197396341128 171.1120032115625,121.41538108619547 171.05327751333473,121.45942535986683 170.09898491713088,121.41538108619547 169.58513505763634,121.3566553879677 169.14469232092702,121.25388541606964 167.70591271434353,120.76939840568897 166.61948729712668,120.27022997075188 165.7973275219358,119.81510580948512 165.23943338877098,119.43338877100462 164.84303492573196,119.08103458163696 163.85937948041527,118.08269771176279 163.52170671560404,117.84779491885067 163.0372197052244,117.73034352239513 161.93611286345217,117.64225497505348 160.92309456902055,117.4807593049266 160.409244709526,117.36330790847 159.5724035097777,117.08436084188759 159.27877501863884,117.04031656821728 158.97046510294254,117.0549979927737 158.55938521534605,117.18713081378671 158.192349601422,117.46607788036913 157.89872111028313,117.7890692206229 157.54636692091444,118.31760050467386 157.2967827034459,118.84613178872483 157.25273842977558,119.25721167632027 157.3408269771183,119.75638011125734 157.31146412800337,119.87383150771393 157.19401273154782,119.94723863049812 157.03251706142197,119.94723863049812 156.87102139129405,119.87383150771393 156.7535699948385,119.77106153581481 156.43057865458474,119.31593737454803 156.2250387107865,119.19848597809249 155.97545449331795,119.12507885530727 155.82864024774958,119.13976027986472 155.65246315306626,119.19848597809249 155.1092504444568,119.62424729024434 154.9624361988884,119.69765441302957 154.77157767964763,119.71233583758703 154.18432069736787,119.58020301657403 153.49429374319,119.47743304467491 152.58404542065645,119.02230888340918 152.23169123128986,118.93422033606649 151.82061134369548,118.94890176062395 151.11590296496016,119.06635315707949 150.1028846705285,119.16912312897861 149.3100877444505,119.18380455353503 148.89900785685612,119.15444170442115 148.20898090267826,118.9929460342953 147.69513104318372,118.78740609049706 147.10787406090603,118.49377759935717 146.84360841888002,118.30291908011745 145.4341916614094,117.11372369100147 144.87629752824455,116.73200665252097 143.7751906864723,116.07134254745701 143.26134082697777,115.63089981074769 142.52726959912752,114.79405861099937 142.18959683431837,114.5297929689744 141.63170270115353,114.22148305327705 141.26466708722944,113.98658026036598 141.00040144520344,113.72231461833998 140.41314446292367,113.00292481504825 139.64971038596056,112.3128978608704 139.12117910191066,111.91649939783242 138.68073636520134,111.66691518036389 137.88793943912333,111.47605666112311 137.59431094798447,111.37328668922399 137.02173539026217,111.00625107529991 136.6987440500084,110.84475540517303 136.419796983427,110.75666685783138 136.05276136950084,110.7273040087175 135.8031771520323,110.75666685783138 135.53891151000838,110.84475540517303 135.24528301886744,111.00625107529991 134.83420313127306,111.31456099099623 134.56993748924705,111.57882663302118 134.07076905430998,112.18076503985739 133.90927338418413,112.26885358720008 133.6596891667156,112.29821643631396 132.58794517405622,112.12203934162962 131.89791821987836,112.09267649251574 130.51786431152266,111.93118082238884 129.00567758215394,111.56414520846477 128.62396054367238,111.53478235935088 127.66966794746854,111.5494637839073 126.73005677582215,111.46137523656564 126.02534839708683,111.29987956643876 124.76274588518666,110.83007398061557 124.33698457303481,110.7273040087175 123.27992200493289,110.63921546137479 121.20984114239933,110.5658083385906 120.66662843378985,110.47771979124894 120.3289556689807,110.31622412112206 119.712335837586,109.8317371107414 119.3893444973343,109.67024144061452 119.11039743075084,109.61151574238674 118.71399896771183,109.58215289327286 118.06801628720638,109.65556001605809 117.93588346619337,109.24448012846267 117.67161782416737,108.7159488444117 117.40735218214137,108.3195503813727 117.01095371910235,107.92315191833472 116.43837816138212,107.46802775706796 115.96857257555789,107.14503641681523 114.50043011985949,106.35223949073826 112.35694213454069,105.38326546997797 108.45168320238675,103.72426449503881 107.11567356770134,103.26914033377307 104.45833572288801,102.56443195503775 103.44531742845638,102.19739634111367 102.99019326719169,101.99185639731648 102.50570625680999,101.71290933073301 102.15335206744336,101.46332511326447 101.77163502896182,101.08160807478397 101.53673223605075,100.75861673453021 101.33119229225251,100.3328554223773 101.22842232035444,99.93645695933935 101.18437804668204,99.54005849630138 101.19905947123951,99.11429718414848 101.28714801858222,98.68853587199665 101.41928083959313,98.26277455984375 101.61013935883389,97.80765039857802 101.88908642541736,97.30848196364094 102.21207776567114,96.83867637781773 103.1223260882026,95.722888111487 104.2821586282047,94.54837414692848 104.78132706314177,94.12261283477663 105.32453977174916,93.74089579629509 105.83838963124371,93.44726730515521 106.38160233985319,93.22704593680055 106.8660893502328,93.08023169123112 107.52675345529572,92.9334174456617 108.81871881631082,92.8012846246487 111.35860526466654,92.74255892642093 112.62120777656669,92.6691518036357 113.17910190973154,92.58106325629404 113.8250845902391,92.43424901072463 114.66192578998741,92.14062051958473 115.11704995125419,91.89103630211619 115.41067844239303,91.70017778287541 115.98325400011535,91.15696507426699 116.4090153122672,90.56970809198826 117.30458221024328,88.85198141882236 117.7890692206229,88.13259161553061 118.4644147502433,87.36915753856753 119.37466307277684,86.63508631071834 120.29959281986577,86.07719217755348 121.5768767563234,85.48993519527474 126.3483397373406,83.7722085221078 126.96495956873322,83.59603142742449 127.62562367379823,83.44921718185508 128.27160635430369,83.37581005906983 128.8001376383557,83.37581005906983 129.75443023455955,83.46389860641149 131.89791821987836,83.8602970694505 132.8228479669673,83.99242989046246 133.8799105350692,84.05115558869024 135.1718758960822,83.97774846590605 136.24361988874162,83.7722085221078 137.183231060388,83.49326145552538 138.7541434879845,82.84727877501888 140.58932155760698,82.01043757527056 141.71979124849412,81.37913631932152 142.4979067500147,80.83592361071308 142.95303091128145,80.43952514767408 143.27602225153524,80.08717095830747 143.84859780925547,79.30905545678691 144.21563342318163,78.66307277628042 144.56798761254825,77.87027585020344 145.8305901244484,74.03842404083264 146.0948557664744,73.1134942937437 146.1976257383725,72.62900728336305 146.15358146470217,71.9389803291852 146.050811492802,71.45449331880454 145.8746343981187,71.02873200665269 145.5663244824224,70.5589264208295 145.2580145667261,70.1918908069054 144.9350232264723,69.86889946665164 144.50926191432046,69.51654527728398 143.7751906864723,69.04673969146079 142.63003957102768,68.44480128462457 140.03142742444211,67.24092447095218 138.94500200722527,66.63898606411703 138.0787979583641,66.06641050639472 137.33004530595846,65.44979067500105 136.71342547456587,64.81848941905201 136.27298273785655,64.26059528588611 135.7884957274769,63.46779835981019 135.39209726443792,62.586912886391566 135.06910592418416,61.544531742846054 134.79015885760276,60.14979640993288 134.59930033836199,58.82846819980495 134.3790789700063,56.68498021448616 134.30567184722105,55.55451052359899 134.29099042266358,54.5708550782823 134.39376039456374,52.647588461318165 134.34971612089345,51.78138441245596 134.23226472443582,51.34094167574665 134.08545047886744,51.00326891093645 133.89459195962667,50.665596146126255 133.58628204393037,50.22515340941695 133.38074210013212,50.01961346561871 132.89625508975251,49.65257785169463 131.94196249354866,49.08000229397231 130.7674485289912,48.61019670814912 127.91925216493708,47.685266961060194 126.5245168320239,47.09800997878041 125.77576417961829,46.73097436485634 124.86551585708473,46.231805929919254 122.39903653151426,44.67557492688024 121.79709812467702,44.323220737512585 120.81344267936032,43.89745942535969 119.976601479612,43.70660090611892 119.1250788553083,43.63319378333473 118.66995469404152,43.677238057005034 117.77438779606544,43.89745942535969 117.18713081378775,44.13236221827181 116.68796237885067,44.45535355852559 116.17411251935611,44.92515914434878 115.77771405631711,45.497734702070055 115.5134484142911,46.11435453346371 115.39599701783557,46.716292940299915 115.35195274416526,47.362275620806415 115.39599701783557,47.8614440557435 115.52812983884857,48.52210816080747 115.89516545277266,49.579170728909396 116.86413947353397,51.67861444055789 117.23117508745806,52.60354418764681 117.45139645581166,53.38165968916632 117.51012215403944,53.968916671446095 117.4807593049266,54.291908011699874 117.3926707575839,54.688306474737836 117.14308654011535,55.2168377587888 116.8054137753062,55.627917646384226 115.89516545277266,56.61157309170197 115.5574926879635,57.081378677525166 115.39599701783557,57.5365028387909 115.36663416872273,58.020989849171556 115.45472271606334,58.417388312209525 115.67494408441904,58.94591959626049 116.0126168492282,59.45976945575504 116.52646670872274,60.04702643803377 117.23117508745806,60.69300911854132 117.7450249469526,61.104089006136746 120.82812410391779,63.203532717784185 121.62092102999371,63.80547112462038 122.48712507885487,64.52486092791212 123.26524058037542,65.25893215576133 123.96994895911074,66.02236623272337 124.64529448873112,66.90325170614199 125.08573722544044,67.65200435854761 125.43809141480705,68.5475712565237 125.55554281126258,69.06142111601824 125.61426850949245,69.53122670184143 125.61426850949245,70.00103228766464 125.55554281126258,70.45615644893037 125.35000286746644,71.16086482766569 125.0123301026552,71.82152893272965 124.73338303607382,72.18856454665374 124.41039169582005,72.5409187360214 124.05803750645134,72.83454722716024 123.60291334518665,73.12817571830013 122.79543499455117,73.50989275678167 121.87050524746225,73.7594769742502 120.97493834948617,73.86224694614933 119.91787578138423,73.81820267247798 118.94890176062499,73.64202557779467 118.17078625910445,73.43648563399644 117.15776796467281,73.12817571830013 115.04364282846896,72.36474164133703 113.72231461834102,71.79216608361577 113.13505763606125,71.48385616791842 112.50375638011116,71.10213912943792 111.91649939783137,70.64701496817113 111.44669381200923,70.14784653323406 111.10902104719798,69.6633595228534 110.84475540517407,69.16419108791632 110.4777197912479,68.10712851981438 109.96386993175545,65.86087056259647 109.74364856339974,65.11211791019086 109.52342719504614,64.53954235246854 109.20043585479236,63.99632964386115 108.73063026896813,63.48247978436661 108.40763892871435,63.23289556689807 108.06996616390519,63.02735562310088 107.68824912542365,62.88054137753041 107.24780638871434,62.77777140563129 106.89545219934564,62.74840855651741 106.54309800997902,62.76308998107487 106.10265527326972,62.851178528416526 105.6181682628901,63.05671847221476 105.16304410162331,63.365028387911075 104.73728278947148,63.7761082755065 104.35556575098992,64.289958135 104.061937259849,64.78912656993708 103.034237540862,67.2115616218383 102.65252050238045,67.85754430234584 102.30016631301174,68.35671273728293 101.84504215174707,68.87056259677748 101.08160807478397,69.57527097551174 98.7032172965541,71.42513046969064 97.93978321959102,72.12983884842596 97.58742903022232,72.52623731146393 97.27911911452601,72.95199862361682 96.36887079199454,74.53759247576971 95.95779090439807,75.15421230716338 95.34117107300546,75.84423926134123 94.66582554338507,76.38745196994861 94.07856856110529,76.75448758387374 93.44726730515521,77.03343465045616 92.75724035097736,77.25365601881082 92.03785054768666,77.41515168893771 90.73120376211618,77.5766473590646 87.28106899122484,77.69409875552013 86.45890921603606,77.81155015197567 85.73951941274329,78.00240867121644 85.04949245856544,78.25199288868498 84.13924413603188,78.72179847450818 81.81957905602978,80.204622354763 80.93869358261117,80.71847221425755 79.95503813729447,81.17359637552327 79.13287836210361,81.42318059299183 78.63370992716652,81.52595056489093 78.14922291678691,81.56999483856124 77.63537305729237,81.56999483856124 76.98939037678481,81.49658771577705 76.40213339450712,81.36445489476405 75.93232780868289,81.20295922463717 75.46252222286073,80.99741928083998 75.0367609107068,80.74783506337143 74.43482250387164,80.32207375121854 73.74479554969379,79.64672822159815 73.15753856741401,78.89797556919149 72.15920169753984,77.37110741526637 71.60130756437499,76.57831048918939 71.02873200665269,75.902964959569 70.2652979296896,75.1688937317198 69.1495096633599,74.33205253197252 67.9456328496875,73.6273441532372 66.27195045019295,72.8492286517177 64.61294947525377,72.18856454665374 63.52652405803691,71.85089178184354 62.11710730056837,71.48385616791842 60.48746917474412,71.14618340310822 58.78442392613464,70.85255491196938 56.890520158284396,70.60297069449979 52.80908413144505,70.17720938234794 51.120720307393036,69.88358089120806 48.272523943338925,69.34036818260067 47.00992143143876,69.13482823880243 45.61518609852559,69.01737684234689 44.45535355852559,69.01737684234689 43.6038309342198,69.09078396513213 42.590812639790265,69.25227963525798 41.651201468141785,69.48718242817009 40.87308596662332,69.75144807019609 40.036244766875,70.10380225956271 37.95148247978398,71.10213912943792 36.86505706256921,71.60130756437499 35.661180248896805,72.0711131501982 32.50467396914639,73.20158284108535 31.78528416585361,73.50989275678167 31.183345759018454,73.84756552159186 30.61077020129614,74.2586454091873 30.096920341801596,74.74313241956796 29.583070482309136,75.34507082640415 28.247060847623736,77.13620462235528 27.41021964787542,78.14922291678586 26.20634283420302,79.39714400412961 24.929058897747478,80.57165796868708 23.25537649825084,81.9223490279289 21.860641165337668,82.93536732236053 20.084188793945046,84.08051843780515 19.364798990652265,84.49159832539954 18.660090611916946,84.8439525147672 17.544302345587248,85.25503240236263 16.516602626598157,85.50461661983117 15.283362963812918,85.65143086540164 14.211618971153522,85.69547513907195 12.978379308368284,85.62206801628776 11.98004243849412,85.4458909216034 11.157882663303266,85.19630670413486 10.247634340769714,84.770545391983 9.52824453747902,84.33010265527369 8.691403337730701,83.64007570109584 8.001376383552849,82.96473017147441 7.237942306589764,82.01043757527056 6.76813672076761,81.26168492286493 6.29833113494337,80.27802947754823 6.004702643804524,79.38246257957215 5.916614096461827,78.9567012674203 5.857888398234058,78.42816998336829 5.872569822791522,77.87027585020344 5.9606583701321325,77.31238171703859 6.151516889372904,76.73980615931627 6.415782531398909,76.19659345070785 6.988358089121223,75.38911510007445 7.414119401273071,74.90462808969484 8.896943281528937,73.34839708665478 9.263978895453016,72.87859150083159 9.46951883925125,72.5409187360214 9.616333084819631,72.14452027298239 9.660377358489937,71.7774846590583 9.616333084819631,71.39576762057676 9.513563112921556,71.11682055399434 9.352067442793626,70.80851063829803 9.073120376212245,70.47083787348784 8.764810460515935,70.16252795779047 8.383093422034392,69.88358089120806 7.604977920513842,69.39909388082843 5.461489935195051,68.35671273728293 4.448471640763425,67.79881860411808 3.640993290130034,67.24092447095218 2.7013821184836413,66.44812754487626 2.290302230889257,65.99300338360948 1.9085851924077142,65.52319779778628 1.5709124275964765,65.0240293628492 1.2772839364576307,64.48081665424077 0.9689740207613209,63.83483397373427 0.6606641050650112,63.012674198543415 0.22022136835569917,61.617938865630244 0.05872569822776918,60.839823364110735 0,59.988300739806 0.07340712278523306,59.26891093651426 0.26426564202600444,58.54952113322253 0.6459826805075473,57.68331708436136 1.247921087342703,56.61157309170197 1.9085851924077142,55.627917646384226 2.5986121465855665,54.879164993978605 3.22991340253565,54.394677983597944 3.6263118655746567,54.203819464357174 4.066754602281883,54.042323794230285 4.580604461776428,53.939553822332215 4.947640075700506,53.89550954866086 5.828525549119131,53.92487239777475 6.636003899754607,54.1010494924591 7.502207948615768,54.42404083271183 8.265642025578854,54.80575787119337 9.95400584963087,55.76005046739723 10.878935596719797,56.244537477776845 11.701095371910652,56.596891667144504 12.670069392671973,56.90520158284082 13.741813385331369,57.11074152663905 14.989734472674073,57.18414864942324 16.25233698457424,57.11074152663905 17.544302345587248,56.890520158284396 18.96840052761326,56.4647588461315 19.76119745369127,56.141767505878775 20.50995010609689,55.789413316511116 22.0221368354656,54.952572116762795 25.428227332684557,52.853128405115356 26.411882778001257,52.33927854562185 27.468945346103187,51.91351723346896 28.364512244079275,51.66393301600042 29.18667201927013,51.48775592131711 30.185008889144292,51.35562310030411 32.57808109193162,51.15008315650587 33.70855078281879,51.00326891093645 34.94179044560403,50.7830475425818 36.14566725927642,50.48941905144295 37.305499799278515,50.122383437517826 38.50937661294883,49.68194070080852 42.781671159028946,47.817399782073196 44.30853931295512,47.23014279979341 45.93817743877936,46.76033721397022 49.667259276252096,45.92349601422294 50.68027757068372,45.615186098526635 51.53180019498742,45.321557607386744 52.54481848941904,44.895796295234895 53.44038538739513,44.45535355852559 54.21850088891568,44.029592246372694 54.923209267648915,43.57446808510696 55.437059127143456,43.17806962206795 55.78941331651216,42.82571543270029 56.12708608132131,42.3559098468771 56.34730744967701,41.93014853472525 56.27390032689178,41.48970579801594 56.083041807651,41.00521878763528 55.80409474106754,40.52073177725566 55.46642197625838,40.08028904054635 52.32459712106543,36.77696851522651 47.993576876757544,31.917416986867657 47.186098526122066,31.10993863623322 46.18776165624791,30.229053162814598 45.18942478637374,29.50966335952286 43.98554797270135,28.775592131674703 43.03125537649957,28.305786545850463 42.3559098468771,28.026839479268038 41.651201468141785,27.791936686356962 40.91713024029362,27.586396742558726 39.99220049320469,27.395538223317953 39.008545047888,27.23404255319211 36.85037563801174,27.028502609393875 35.000516143831796,26.95509548660864 33.81132075471686,26.98445833572357 32.9451167058557,27.043184033951338 31.212708608133383,27.263405402305995 26.778918391925334,27.982795205597732 25.633767276480707,28.114928026610734 24.4739347364807,28.173653724838505 22.991110856224836,28.129609451167155 21.49360555141359,27.953432356483848 19.555657509893035,27.586396742558726 18.087515054194633,27.18999827952076 16.736823994953856,26.676148420026216 16.134885588116614,26.367838504329907 15.621035728624156,26.01548431496225 15.25400011469799,25.69249297470952 14.931008774446303,25.325457360784398 14.666743132420299,24.929058897746433 14.38779606583683,24.35648334002412 14.19693754659606,23.769226357745385 14.108848999255448,23.270057922808302 14.07948615014052,22.90302230888318 14.108848999255448,22.38917244938968 14.211618971153522,21.860641165338713 14.402477490394293,21.199977060274744 14.622698858749994,20.671445776222736 15.033778746344376,19.849286001032926 15.709124275964767,18.762860583816064 16.399151230142618,17.837930836727136 17.030452486092702,17.08917818432047 17.735160864828018,16.34042553191485 21.55233124964136,12.758157940012584 23.945403452428693,10.291678614441063 24.694156104834313,9.557607386591862 25.780581522051172,8.647359064059353 27.043184033951338,7.795836439754614 28.379193668636738,7.017720938235107 30.11160176635906,6.136835464816484 31.565062797499998,5.461489935195051 32.97447955497063,4.874232952916317 39.551757756495384,2.495842174686449 43.63319378333473,0.9542925962038571 45.1600619372609,0.4991684349370812 46.4079830246036,0.2495842174685406 48.30188679245386,0.05872569822776918 51.00326891093749,0 54.30658943625629,0.07340712278523306 57.0666972529677,0.2495842174685406 60.5902391466422,0.5872569822797781 74.1852382864031,2.0994437116474423 76.3727705453922,2.422435051901216 77.41515168893666,2.6132935711419876 78.63370992716652,2.877559213167992 79.676091070711,3.156506279750417 80.73315363881501,3.4794976200031473 81.92234902792994,3.9346217812699233 82.72982737856334,4.3016573951940025 83.65475712565227,4.8008258301310835 84.43287262717281,5.285312840511744 85.68079371451552,6.136835464816484 90.86333658312711,9.998050123301173 92.49297470895344,11.113838389631917 94.18133853300544,12.200263806847733 98.36554453174287,14.608017434191487 100.5824396398469,15.811894247863883 101.62482078339136,16.26701840913066 102.18271491655621,16.443195503813968 102.74060904972106,16.545965475713086 102.8140161725063,16.53128405115562 102.91678614440646,16.443195503813968 103.166370361875,15.958708493433306 103.34254745655831,15.430177209382341 103.57745024946938,14.299707518495175 103.75362734415269,13.668406262545092 103.94448586339345,13.139874978494127 104.22343292997692,12.508573722544044 104.51706142111577,12.009405287606961 104.84005276136955,11.613006824568998 105.20708837529362,11.245971210643877 105.70625681023071,10.893617021277262 106.24946951884019,10.629351379251258 106.83672650111787,10.497218558238256 107.37993920972734,10.482537133681834 108.02592189023281,10.599988530137372 108.51040890061451,10.76148420026426 109.00957733555158,10.996386993175337 110.66857831048868,11.93599816482173 111.5935080575797,12.405803750644926 112.54780065378147,12.772839364570048 113.2818718816317,12.96369788381082 113.8691288639094,13.03710500659501 114.57383724264471,13.007742157481125 115.17577564948196,12.90497218558305 115.88048402821519,12.655387968113466 116.52646670872274,12.317715203303273 117.14308654011535,11.818546768366192 117.53948500315437,11.348741182542994 117.89183919252098,10.673395652922606 118.0973791363192,9.954005849629825 118.15610483454698,9.36674886735109 118.15610483454698,8.808854734186239 118.08269771176175,6.885588117222105 118.11206056087667,6.327693984057254 118.21483053277476,5.6376670298794025 118.40568905201552,5.079772896714552 118.68463611859899,4.551241612662543 119.03699030796561,4.081436026839346 119.56552159201762,3.5675861673458447 120.53449561277685,2.8922406377244125 121.72369100189178,2.2315765326604446 123.22119630670511,1.5709124275964765 123.82313471354027,1.3506910592418206 124.68933876240143,1.1011068417732799 125.80512702873114,0.8955668979760879 126.95027814417575,0.8221597751908548 128.11011068417784,0.8955668979760879 129.22589895050754,1.0864254172168593 130.29764294316695,1.3653724837992844 131.57492687962457,1.835178069622481 132.72007799506713,2.4077536273447953 133.6156448930432,2.9656477605096456 134.62866318747484,3.7290818374727315 136.155531341401,5.079772896714552 137.08046108848993,6.034065492917366 137.85857659001047,7.017720938235107 138.25497505304742,7.6930664678554965 138.53392211963086,8.32436772380558 138.79818776165686,9.087801800768665 138.94500200722527,9.763147330390098 139.15054195102348,11.113838389631917 139.6790732350755,16.413832654700084 140.01674599988465,19.02712622584207 140.2222859436829,20.06950736938758 140.4865515857089,21.082525663818164 140.82422435052013,22.066181109135904 141.17657853988675,22.858978035212875 141.8666054940646,24.018810575213923 142.20427825887583,24.473934736479656 142.73280954292576,25.075873143315857 143.334747949763,25.663130125595636 145.44887308596685,27.468945346103187 146.2269885874874,28.20301657395239 147.2546883064744,29.348167689395975 148.7815564604006,31.388885702815646 149.2219991971099,31.799965590411073 149.7945747548322,32.167001204336195 150.41119458622484,32.431266846361154 150.86631874749162,32.48999254458893 151.409531456099,32.47531112003251 151.71784137179532,32.401903997247274 152.070195561164,32.25508975167785 152.40786832597317,32.00550553420931 152.61340826977138,31.77060274129719 152.7895853644547,31.447611401043417 152.8776739117974,31.168664334460992 153.0098067328104,30.3611859838276 153.24470952572148,28.496645065091233 153.50897516774748,27.380856798761535 153.71451511154362,26.764236967368916 154.11091357458264,25.76590009749371 154.85966622698825,24.224350519011118 156.41589723002727,21.449561277743285 157.51700407180158,19.33543614153838 158.2363938750923,18.17560360153733 158.8089694328146,17.470895222802014 159.45495211332215,16.82491254229551 160.17434191661494,16.23765556001573 160.95245741813338,15.709124275964767 161.7892986178817,15.268681539255454 162.39123702471687,15.004415897230492 163.18403395079488,14.754831679761953 163.8446980558578,14.5786545850776 164.69622068016358,14.417158914950715 165.75328324826552,14.285026093938756 166.82502724092492,14.211618971153522 167.67654986522862,14.211618971153522 168.5280724895344,14.240981820267407 169.70258645409186,14.358433216722945 171.37626885358642,14.652061707862835 173.21144692320888,15.136548718243494 174.4593680105516,15.562310030395343 175.69260767333893,16.01743419166212 177.19011297815015,16.634054023054738 181.22750473131921,18.469232092676176 183.57653266043414,19.467568962551383 185.22085221081585,20.113551643057885 190.53552790044253,22.08086253369337 192.47347594196307,22.88834088432676 193.67735275563547,23.460916442049076 194.8812295693058,24.12158054711304 196.08510638297818,24.885014624075083 197.1128061019673,25.604404427366823 198.37540861386745,26.573378448128143 199.27097551184355,27.3074496759763 203.2496415667827,30.84567299420826 203.73412857716443,31.183345759018454 204.11584561564388,31.403567127373112 204.5562883523532,31.59442564661388 204.83523541893666,31.66783276939807 204.74714687159397,32.62212536560193 204.64437689969589,33.09193095142513 204.64437689969589,33.19470092332424 204.7177840224811,33.32683374433724 204.9526868153922,33.51769226357802 205.6280323450126,33.95813500028733 205.7601651660256,34.11963067041317 205.9363422607089,34.442622010666945 206.3767849974182,34.64816195446518 206.86127200779993,35.000516143831796 207.16958192349622,35.32350748408557 207.47789183919252,35.74926879623846 207.8889717267869,36.13098583471896 208.79922004932047,36.806331364340394 209.62137982451134,37.27613695016359 209.79755691919462,37.40826977117659 210.72248666628357,38.259792395481334 211.5886907151468,39.17004071801384 212.02913345185613,39.551757756495384 213.5119573321099,40.55009462636954 213.7762229741359,40.7703159947242 214.2166657108452,41.240121580547395 214.55433847565436,41.753971440041944 214.90669266502306,42.693582611688335 215.1562768824916,43.222113895739305 215.56735677008598,44.23513219017093 215.68480816654153,44.44067213396812 215.86098526122692,44.616849228651425 216.5363307908473,45.01324769169043 217.41721626426593,45.65923037219694 217.7548890290751,45.98222171245071 218.34214601135486,46.67224866662856 218.69450020072148,46.84842576131187 219.4872971267995,47.00992143143876 219.8836955898385,47.142054252451764 221.63078511211828,47.96421402764262 222.81998050123323,48.36061249068058 223.5834145781963,48.74232952916212 223.86236164477768,48.84509950106124 224.40557435338715,48.9331880484029 226.40224809313548,48.991913746630665 228.23742616275797,49.16809084131501 228.3548775592135,49.27086081321309 229.4266215518729,49.887480644606754 230.10196708149329,50.665596146126255 230.73326833744338,51.23817170384857 231.04157825313968,51.47307449675965 231.73160520731753,51.89883580891254 232.09864082124162,52.20714572460885 232.4509950106103,52.66226988587458 232.5978092561787,52.941216952457005 232.67121637896392,53.190801169926594 232.6418535298511,53.411022538281244 232.5537649825084,53.616562482078436 232.15736651946938,54.1010494924591 231.33520674427854,54.923209267648915 230.99753397946938,55.31960773068792 230.52772839364513,56.00963468486577 230.19005562883598,56.65561736537227 230.07260423237835,57.0226529792974 230.04324138326552,57.36032574410759 230.1460113551636,57.68331708436136 230.4543212708599,58.4027068876531 230.4983655445323,58.65229110512164 230.4983655445323,58.960601020817954 230.46900269541737,59.25422951195784 230.35155129896182,59.59190227676804 230.2340999025063,59.79744222056523 230.07260423237835,59.97361931524958 230.74794976200084,59.94425646613569 231.33520674427854,59.95893789069211 232.9501634455474,60.31129208005977 233.28783621035655,60.31129208005977 234.05127028731962,60.22320353271812 234.30085450478816,60.252566381832004 234.52107587314387,60.34065492917366 234.81470436428273,60.619601995756085 235.34323564833474,61.33899179904782 235.47536846934565,61.64730171474413 235.51941274301802,61.85284165854237 235.51941274301802,62.04370017778314 235.3579170728901,62.54286861272022 235.32855422377727,62.73372713196099 235.38727992200504,62.98331134942953 235.54877559213088,63.23289556689807 235.78367838504403,63.394391237024955 236.57647531111996,63.80547112462038 236.7820152549182,63.98164821930369 237.1930951425126,64.46613522968435 238.05929919137375,65.0240293628492 239.08699891036284,65.97832195905306 239.96788438378147,66.46280896943267 240.76068130985738,67.09411022538276 241.0689912255537,67.16751734816799 241.49475253770763,67.13815449905411 241.92051384985947,67.06474737626887 242.6252222285948,66.88857028158557 242.8454435969484,67.27028732006711 243.0656649653041,67.54923438664953 243.28588633365771,67.72541148133284 243.5207891265688,67.79881860411808 243.72632907036703,67.82818145323196 244.53380742100043,67.78413717956062 245.70832138555997,67.82818145323196 245.9725870275839,67.78413717956062 246.82410965188967,67.51987153753565 247.4407294832823,67.35837586740877 248.43906635315648,66.93261455525587 248.80610196708054,66.90325170614199 249.09973045822147,66.96197740436976 249.27590755290478,67.09411022538276 249.613580317716,67.4758272638643 249.8484831106271,67.69604863221896 250.97895280151425,68.34203131272547 252.0800596432865,69.06142111601824 252.7847680220218,69.44313815449874 253.1077593622756,69.72208522108117 253.3279807306292,70.04507656133494 253.47479497619966,70.35338647703125 253.7243791936682,70.94064345931103 253.783104891896,71.20490910133599 253.76842346733852,71.42513046969064 253.69501634455537,71.63067041348889 253.35734357974414,72.15920169753984 253.21052933417366,72.45283018867974 253.21052933417366,72.70241440614828 253.3279807306292,72.96668004817325 253.51883924986998,73.15753856741401 254.2675919022756,73.55393703045301 255.08975167746644,74.1265125881743 255.53019441417575,74.3614153810864 256,74.53759247576971 255.22188449847945,75.43315937374581 254.4878132706313,76.47554051729132 254.28227332683306,76.66639903653208 254.047370533922,76.82789470665793 253.56288352354235,77.03343465045616 253.03435223949035,77.16556747146917 250.1127487526531,77.7528244537479 249.65762459138634,77.91432012387479 249.46676607214556,78.0904972185581 249.42272179847524,78.19326719045722 249.39335894936033,78.41348855881186 249.56953604404362,79.19160406033137 249.6282617422714,80.05780810919357 249.6282617422714,80.27802947754823 249.55485461948615,80.52761369501678 249.33463325113254,80.90933073349727 249.085049033664,81.18827780008074 248.7767391179677,81.37913631932152 248.13075643746015,81.70212765957424 247.82244652176385,81.93703045248637 247.55818087973785,82.30406606641044 247.4407294832823,82.62705740666422 247.42604805872483,82.93536732236053 247.45541090783976,83.40517290818373 247.91053506910654,84.82927109021078 247.9692607673343,85.18162527957844 247.9692607673343,85.59270516717282 247.89585364454908,85.95974078109795 247.76372082353606,86.31209497046561 247.14710099214346,87.47192751046666 247.0736938693582,87.73619315249161 247.08837529391568,88.08854734185927 247.20582669037123,88.47026438034081 247.528818030625,88.940069966164 247.73435797442116,89.11624706084731 248.1894821356879,89.29242415553166 248.2482078339157,89.38051270287332 248.26288925847317,89.52732694844275 248.20416356024538,89.7475483167974 248.0720307392324,89.98245110970952 247.64626942708054,90.42289384641883 247.16178241670093,91.02483225325503 247.14710099214346,91.15696507426699 247.19114526581376,91.5974078109763 247.08837529391568,92.14062051958473 247.08837529391568,92.71319607730705 247.01496817113045,92.91873602110424 246.86815392556,93.10959454034501 246.78006537821938,93.15363881401636 246.2368526696099,93.02150599300336 245.0770201296099,92.90405459654782 243.81441761770972,92.84532889832005 243.18311636175966,92.87469174743393 242.52245225669463,93.05086884211724 241.23048689568162,93.50599300338402 239.54212307162962,94.43092275047294 238.7493261455516,95.07690543098049 238.4703790789702,95.42925962034711 238.3088834088423,95.86970235705643 238.13270631415898,96.91208350060194 237.83907782302015,97.64615472845114 237.82439639846268,97.8663760968058 237.86844067213298,98.10127888971687 238.27952055972943,98.93812008946519 238.3088834088423,99.0849343350346 238.2942019842869,99.20238573149014 238.19143201238674,99.31983712794673 237.79503354934982,99.5106956471875 237.44267935998113,99.77496128921246 236.98755519871435,100.36221827149119 236.7379709812458,100.55307679073196 236.32689109365143,100.68520961174497 234.71193439238465,100.94947525377097 234.2861730802307,101.05224522566904 233.37592475769924,101.49268796237835 232.78866777541947,101.68354648161913 232.3775878878251,101.75695360440436 231.46733956529152,101.81567930263213 231.0268968285822,101.90376784997379 230.64517979010068,102.06526352010067 230.2781441761766,102.28548488845533 229.72025004301176,102.85806044617765 229.35321442908767,103.09296323908977 228.83936456959313,103.23977748465919 227.9144348225042,103.40127315478607 226.82800940528733,103.82703446693792 225.62413259161494,104.06193725985004 224.94878706199455,104.29684005276111 223.48064460629615,104.70791994035655 222.9227504731313,104.97218558238255 221.86568790502938,105.75030108390206 221.29311234730704,106.01456672592806 220.7352182141422,106.16138097149748 219.73688134426803,106.24946951883913 218.79727017262164,106.57246085909291 218.04851752021602,106.71927510466233 217.387853415151,106.96885932213087 216.46292366806207,107.45334633251153 216.24270229970847,107.54143487985318 215.3324539771749,107.62952342719484 214.4809313528712,107.87910764466338 213.62940872856544,108.01124046567638 213.39450593565437,108.08464758846162 213.17428456729866,108.23146183403104 212.95406319894505,108.49572747605704 212.33744336755242,109.59683431783033 210.85461948729656,111.5494637839073 210.5756724207152,111.72564087859165 209.70946837185193,111.98990652061661 209.51860985261115,112.12203934162962 209.38647703160024,112.25417216264262 209.29838848425754,112.47439353099728 209.2690256351426,112.76802202213716 209.29838848425754,113.16442048517513 209.4158398807131,113.73699604289745 208.53495440729446,113.32591615530201 207.74215748121853,113.07633193783347 206.96404197969798,112.97356196593435 206.05379365716652,112.98824339049182 205.1288639100755,113.16442048517513 204.2773412857718,113.47273040087144 203.52858863336618,113.83976601479655 202.00172047944002,114.77937718644296 201.4291449217177,115.10236852669568 200.68039226931208,115.41067844239303 200.03440958880452,115.58685553707635 199.18288696450085,115.68962550897545 198.66903710500628,115.70430693353188 198.14050582095638,115.6455812353041 197.28898319665058,115.46940414062081 196.17319493032088,115.08768710213926 195.4097608533578,114.7353329127716 194.36737970981332,114.19212020416317 192.67901588575924,113.1791019097326 190.90256351436662,111.9458622469463 190.1978551356313,111.40264953833788 189.3903767849979,110.71262258416003 188.6709869817051,110.00791420542471 188.06904857486995,109.33256867580432 185.74938349486786,106.30819521706691 183.5912140849916,103.70958307048238 182.56351436600252,102.56443195503775 181.93221311005243,101.97717497275902 181.13941618397652,101.41928083959417 180.3025749842282,100.97883810288485 179.33360096346897,100.65584676263109 178.7757068303041,100.53839536617555 178.23249412169463,100.47966966794777 177.3956529219484,100.46498824339031 176.52944887308516,100.58243963984584 175.95687331536493,100.72925388541631 175.10535069105916,101.08160807478397 174.503412284224,101.55141366060717 174.04828812295722,102.02121924643036 173.8867924528293,102.27080346389891 173.72529678270345,102.62315765326552 173.57848253713297,103.22509606010172 173.53443826346268,103.88576016516569 173.6078453862479,104.50237999655936 173.79870390548868,105.32453977175021 174.1510580948553,106.20542524516779 174.47404943510907,106.89545219934668 175.04662499283137,107.90847049377727 176.98457303435194,110.91816252795826Z"/>
  </g>
</svg>