<?xml version="1.0" encoding="UTF-8" standalone="no"?>
<svg viewBox="0 0 256 195.97668536236662" xmlns="http://www.w3.org/2000/svg">
  <style>
    g.zone {
      fill: lightgray;
      stroke-width: 2;
      stroke-linecap: square;
      stroke-linejoin: bevel;
      stroke-miterlimit: 3;
      stroke-opacity: 0.8;
      stroke: black;
      fill-opacity: 0.3;
    }
  </style>
  <g class="zone" id="zone">
    <path d="M231.50643352029346,144.5965028043538 231.75981524249374,145.24403387220968 232.18211811283558,146.0604860881991 232.998570328825,147.2710876498401 234.99747058176916,149.46706257560805 237.55944132849444,151.91641922357832 238.82634993951595,152.98625316177203 239.8961838777097,153.80270537776343 243.97844495766077,156.39282964918098 245.8084240624674,157.68789178488873 251.94589244473917,162.58660508083125 253.04387990762314,163.60013196964647 253.7758715495458,164.41658418563588 254.33894204333092,165.20488287693703 254.90201253711604,166.190256241064 255.35246893214813,167.28824370394798 255.63400417903867,168.32992411745343 255.83107885186647,169.822060925987 255.77477180248596,173.17233036401544 255.83107885186647,174.24216430220915 256,175.08677004288882 254.56417024084496,175.84691520950173 253.0720334323134,176.8322885736267 252.25558121631997,177.62058726492785 251.27020785219702,178.83118882656885 250.6508303090314,179.39425932035596 247.8354778400978,180.9708567029583 245.07643242054476,182.8852963818317 244.1473661057983,183.3075992521715 241.30386011217448,184.06774441878244 239.44572748268158,184.88419663477384 237.98174419883628,185.3064995051137 237.1934455075331,185.50357417793947 236.60222148905774,185.53172770262773 233.81502254481444,185.4191136038707 231.9287363906313,185.4191136038707 230.85890245243758,185.64434180138474 229.73276146486333,186.0666446717246 228.88815572418366,186.29187286923863 227.17079071813805,186.60156164082144 226.10095677994033,186.68602221489022 224.6651270207853,186.6297151655117 222.5536126690881,186.03849114703632 222.0468492246795,185.98218409765784 221.2303970086901,185.98218409765784 220.41394479270068,186.09479819641484 219.79456724953505,186.29187286923863 218.02089519410492,187.0238645111613 217.26075002749602,187.24909270867732 216.6413724843304,187.2772462333656 215.0366215770378,187.0801715605398 214.38909050918593,187.10832508523006 213.8260200153968,187.24909270867732 212.64357197844606,187.7840096777742 212.02419443528044,187.95293082590973 210.1942153304738,188.20631254811403 208.73023204663252,188.26261959749255 207.77301220719582,188.51600131969684 206.53425712086457,189.0509182887937 205.2391949851568,189.7547564060261 204.45089629385362,190.34598042450148 203.49367645441694,191.16243264049288 202.3112284174662,192.26042010337486 201.97338612119512,192.65456944902644 201.63554382492003,193.35840756625885 201.38216210271975,194.51270207852133 201.1569339052017,194.93500494886118 200.67832398548336,195.357307819201 200.03079291763146,195.63884306609356 198.76388430660995,195.83591773891936 196.17376003519442,195.97668536236662 195.44176839327176,195.92037831298813 195.01946552292995,195.8077642142311 194.37193445507805,195.4980754426483 193.24579346750383,194.5971626525901 192.57010887496168,194.14670625756 190.48674804795075,193.10502584405455 189.02276476410546,192.20411305399637 188.12185197404926,191.89442428241355 187.67139557901717,191.83811723303504 187.05201803585155,191.8662707577253 185.33465302980593,192.23226657868662 184.32112614098872,192.34488067744363 182.2377653139778,192.20411305399637 180.71747498075598,191.95073133179406 179.8728692400763,191.612889035521 179.2534916969107,191.13427911580263 178.54965357967828,190.14890575167567 178.0991971846502,189.07907181348196 178.63411415374506,188.31892664687106 179.1127240734634,187.55878148025815 179.70394809193877,186.09479819641484 179.90102276476657,185.25019245573517 180.0699439129001,184.15220499285118 180.0699439129001,182.18145826459929 179.9573298141431,181.16793137578208 179.76025514131928,180.23886506103563 179.1971846475342,178.69042120312358 178.71857472781582,177.9021225118224 178.23996480809748,177.31089849334504 177.67689431430836,176.74782799955992 177.11382382052324,176.3255251292201 176.52259980204786,176.01583635763726 175.6779940613682,175.70614758605444 174.88969537006503,175.50907291322866 174.0169361046991,175.3683052897834 173.0034092158819,175.45276586385015 171.51127240734635,175.84691520950173 170.38513141977612,176.29737160452981 169.54052567909645,176.8322885736267 168.49884526558898,177.6487407896181 166.47179148795854,179.45056636973447 165.00780820411325,180.52040030792818 164.10689541405708,180.99901022764655 163.20598262399687,181.39315957329814 162.27691630925042,181.64654129550243 161.37600351919025,181.81546244363795 160.27801605631026,181.89992301770474 159.4334103156306,181.89992301770474 158.44803695150364,181.7873089189477 157.12482129110563,181.5339271967434 155.77345210601734,181.1397778510938 154.4783899703096,180.68932145606374 153.2677884086686,180.18255801165714 151.94457274827056,179.506873419113 150.9591993841436,178.88749587594737 150.25536126691122,178.32442538216225 149.57967667436506,177.62058726492785 148.9884526558897,176.8322885736267 148.65061035961864,176.1847575057728 148.2846145386573,175.28384471571462 147.3837017486011,172.13064995050996 146.90509182888277,170.86374133949045 146.2012537116464,169.6249862531612 145.27218739689994,168.63961288903425 144.39942813153002,168.04838887055888 143.30144066864602,167.51347190146203 141.97822500824802,167.0630155064339 138.82503024304737,166.190256241064 137.22027933575478,165.65533927196714 135.6718354778427,164.979654679423 134.06708457055012,164.05058836467654 132.80017595953262,163.1215220499281 131.70218849664863,162.1079951611129 130.7731221818982,161.06631474760744 128.18299791048267,157.8568129330243 127.31023864511273,156.98405366765635 126.4374793797428,156.19575497635518 125.59287363906313,155.6045309578798 124.66380732431669,155.01330693940244 120.91938854063666,153.15517430990755 119.31463763334409,152.25426151984936 117.56911910260823,151.04365995820837 115.85175409655862,149.5515231496748 114.95084130650244,148.65061035961662 114.10623556582276,147.63708347080143 113.48685802265713,146.76432420543148 112.98009457824853,145.89156494006357 112.58594523259696,144.93434510062687 112.3607170350829,144.1460464093257 111.71318596723101,141.10546574287807 111.37534367095596,140.20455295281988 110.95304080061811,139.5007148355875 110.38997030683299,138.7968767183551 109.54536456615332,138.06488507643246 108.58814472671263,137.4736610579571 107.74353898603695,137.10766523699576 106.0543275046776,136.6290553172774 104.336962498628,136.40382711976136 101.77499175189872,136.3756735950731 98.2276476410425,136.51644121851837 96.1161332893453,136.71351589134417 94.22984713516217,136.99505113823673 88.06422522820014,138.43088089739376 85.75563620367517,138.8531837677336 83.1936654569459,139.10656548993592 80.40646651270256,139.10656548993592 78.71725503134321,138.93764434180036 77.05619707467413,138.68426261959607 74.43791927856834,138.06488507643246 72.86132189596601,137.52996810733558 70.97503574178288,136.82612999010118 69.22951721104302,136.00967777411176 67.54030572968367,135.13691850874184 65.06279555702515,133.61662817552002 64.0774221928982,132.85648300890713 63.09204882877125,131.9837237435392 62.24744308809158,131.08281095348102 61.543604970859185,130.18189816342283 60.980534477074066,129.22467832398414 60.501924557351714,128.26745848454743 60.24854283515142,127.50731331793652 60.02331463763337,126.55009347849983 59.82623996480958,124.83272847245023 59.854393489499834,123.28428461453815 60.07962168701388,119.1175629605183 60.164082261080644,116.2459034422082 60.05146816232362,114.24700318926604 59.79808644011932,112.55779170790669 59.26316947102446,110.67150555372156 58.81271307599637,109.62982514021809 58.36225668096428,108.86967997360519 57.93995381062644,108.2221489057513 57.32057626746081,107.49015726382865 55.88474650830577,106.19509512812088 55.23721544044988,105.77279225778105 54.3363026503937,105.32233586275095 52.70339821841086,104.75926536896384 51.183107885189045,104.47773012207128 49.522049928519955,104.47773012207128 47.74837787308984,104.75926536896384 46.70669745958637,105.06895414054665 45.749477620149676,105.43494996150798 44.313647860994635,106.13878807874237 41.385681293304025,107.94061365885874 40.287693830420054,108.55999120202237 38.851864071265005,109.15121522049974 37.303420213352936,109.54536456614932 35.642362256683846,109.71428571428486 34.65698889255689,109.6861321895966 33.67161552842994,109.57351809083958 31.700868800176032,109.09490817111923 29.617507973169104,108.27845595512981 26.74584845485901,106.8144726712845 23.508193115583595,104.87187946772286 20.101616628178643,102.50698339381937 17.455185307382596,100.36731551742993 16.047509072913808,99.01594633234366 14.667986363139272,97.49565599911983 10.219729462226857,91.69602991311915 4.5608709996734405,84.96733751237201 3.6881117343035106,84.06642472231383 2.7027383701765575,83.22181898163414 1.3795227097785345,82.32090619157596 0,81.56076102496306 0.5067634444086045,80.91322995710917 2.1115143517011856,79.25217200044008 2.8435059936238365,78.77356208072173 3.6599582096132544,78.46387330913892 4.701638623116719,78.23864511162488 5.687011987243672,78.1541845375561 8.108215110525672,78.3512592103819 9.544044869680716,78.32310568569164 10.078961838779577,78.21049158693461 11.59925217200139,77.67557461783775 12.359397338614297,77.47849994501196 14.921368085343575,77.22511822280767 15.456285054438435,77.02804354998388 16.666886616079434,76.38051248212798 17.342571208625575,76.1834378093042 18.412405146819296,76.12713075992569 19.876388430664598,76.38051248212798 20.18607720224541,76.32420543274948 20.495765973826224,76.1834378093042 20.636533597273502,75.9300560870999 20.692840646654016,75.11360387110848 20.861761794787547,74.63499395139013 21.565599912023945,73.36808534037061 21.959749257671525,72.83316837127376 22.691740899594176,72.04486967997259 25.14109754756643,69.98966237765192 25.95754976355585,69.06059606290547 26.999230177059314,67.4558451556129 29.50489387441208,65.25987022984695 30.18057846695422,64.52787858792429 30.602881337296058,63.96480809413718 30.828109534810103,63.34543055097355 30.828109534810103,62.641592433739156 30.71549543605308,62.1066754646423 30.067964368197195,60.53007808203997 29.983503794130428,60.10777521170014 30.03981084350694,59.713625866050556 30.265039041020987,59.347630045089225 31.475640602661986,57.79918618717716 32.23578576927489,57.06719454525451 35.58605520730333,54.75860552072953 36.289893324535726,54.3363026503897 37.387880787419704,53.970306829428374 39.077092268779055,53.632464533157304 39.94985153414898,53.519850434400276 41.751677114265355,53.463543385021765 43.49719564500521,53.09754756406044 45.32717474980784,53.18200813812721 47.43868910150903,53.1257010887487 49.184207632244885,53.379082810953 50.169580996371835,53.29462223688423 50.90157263829449,53.1257010887487 51.83063895304093,52.70339821840886 52.67524469372061,52.22478829869051 54.11107445287965,51.18310788518705 54.36445617507995,51.04234026173977 54.871219619488556,50.929726162982746 55.34982953920691,50.929726162982746 55.91290003299602,51.070493786428024 59.82623996480958,52.168481249312 61.09314857583109,52.478170020894815 61.79698669306348,52.534477070273326 62.21928956340132,52.50632354558507 62.58528538436265,52.393709446826044 62.78236005719044,52.252941823380766 63.063895304080994,51.80248542835067 63.45804464973258,50.33850214450737 63.90850104476067,49.465742879137444 64.83756735951111,48.255141317496445 66.44231826679969,46.565929836137094 66.92092818651804,45.83393819421445 67.2587704827891,44.70779720664221 67.42769163092665,42.87781810183559 67.2024634334126,40.65368965137937 67.23061695810286,38.73924997250598 66.63939293962748,36.515121522049775 66.52677884086646,35.86759045419589 66.52677884086646,35.304519960408776 66.78016056307077,34.037611349389266 66.78016056307077,33.53084790498066 66.44231826679969,32.51732101616545 65.9918618717716,30.743648960739336 65.34433080391571,29.02628395468973 65.0346420323349,27.22445837457336 64.86572088419737,25.67601451666129 63.79588694600365,23.87418893654492 63.317277026285296,22.12867040580706 63.09204882877125,21.593753436710198 62.81051358187669,21.25591114043713 62.81051358187669,21.11514351698985 63.03574177939074,20.805454745409037 63.68327284724662,20.354998350378946 64.49972506323604,20.073463103486386 66.16078301990913,19.763774331903573 66.58308589024698,19.56669965907778 66.92092818651804,19.285164412185225 67.23061695810286,18.891015066533644 67.4558451556169,18.412405146815292 67.62476630375043,16.55427251732041 67.76553392719771,16.16012317167083 68.07522269878253,15.737820301330993 69.84889475420864,14.048608819971644 71.25657098867343,13.20400307929197 72.46717255031443,12.077862091717739 73.03024304410354,11.514791597932623 73.73408116133595,10.52941823380567 73.98746288354025,10.276036511601367 75.08545034642022,9.628505443747484 76.4368195315085,8.58682503024202 77.50665346970221,7.995601011766648 77.78818871659678,7.742219289562345 78.01341691411082,7.319916419222508 78.04157043880109,6.784999450125648 77.53480699439248,4.6171780490479515 77.50665346970221,4.054107555262836 77.67557461783976,3.800725833058533 78.09787748817759,3.5191905861639747 79.53370724733664,2.8998130430003477 82.26459914219946,2.5901242714175337 83.9538106235588,2.6182777961057893 84.68580226548146,2.505663697348766 86.1216320246365,2.111514351699185 87.75453645661533,1.7455185307378596 88.17683932695716,1.4358297591550457 89.07775211701336,0.5630704937871162 89.89420433300677,0.14076762344727914 91.04849884526726,0 92.03387220939422,0.11261409875702315 92.54063565380282,0.2815352468925579 93.10370614758793,0.6475310678538834 94.37061475860544,1.8581326294948828 95.21522049928512,2.843505993621836 96.51028263499688,2.7871989442433245 97.63642362256712,2.81535246893158 98.283954690423,2.8998130430003477 100.53623666556747,3.4628835367854633 101.38084240624714,3.491037061475719 102.50698339382137,3.35026943802844 103.09820741229674,3.35026943802844 103.54866380732484,3.4628835367854633 103.91465962828616,3.68811173430151 104.30880897393774,4.082261079951091 105.18156823930768,5.264709116903835 105.57571758495526,6.053007808202997 105.66017815902602,6.447157153854579 105.66017815902602,6.813152974815904 105.35048938744121,7.770372814252601 105.2941823380647,8.136368635213927 105.40679643682172,8.614978554932275 105.71648520840253,9.093588474650623 106.16694160343462,9.403277246233438 107.68723193665645,10.1915759375346 108.08138128230802,10.52941823380567 108.86967997360718,11.458484548554111 110.53073793027627,12.528318486747832 112.50148465853019,14.358297591554459 114.19069613988952,15.2873639063009 115.71098647311135,16.4979654679419 116.30221049158672,16.638733091389177 117.11866270758013,16.582426042010667 117.93511492356956,16.44165841856339 119.28648410865783,16.10381612229232 119.70878697899566,16.83580776421497 120.1310898493375,17.370724733311828 120.55339271967534,17.7085670295829 121.00384911470343,17.849334653030176 121.39799846035501,17.90564170240869 122.94644231826709,17.821181128339923 125.19872429341555,17.90564170240869 125.70548773782015,17.821181128339923 127.33839216980299,17.314417683933318 128.52084020675375,17.004728912350505 130.43527988562712,16.188276696359086 131.13911800285953,16.131969646980576 131.70218849664863,16.244583745737597 132.0400307929197,16.4979654679419 132.6875618607756,17.22995710986455 133.13801825580367,17.652259980204388 135.30583965688137,18.891015066533644 137.41735400857857,20.270537776312178 138.76872319366686,21.00252941823283 139.21917958869494,21.3403717145059 139.52886836027974,21.73452106015548 140.09193885406486,22.748047948970687 140.5705487737832,23.87418893654492 140.68316287254024,24.380952380951523 140.65500934784998,24.80325525129136 140.5142417244067,25.197404596942942 139.72594303310353,26.436159683272198 139.55702188497,26.88661607830229 139.64148245903678,27.42153304739915 139.81040360717031,27.75937534367022 140.0074782799981,28.01275706587452 141.6122291872867,28.885516331244453 143.41405476740707,30.124271417573706 144.37127460684374,30.5747278126038 145.0469591993859,30.799956010117846 145.27218739689994,31.165951831079173 145.72264379192802,32.461013966786936 146.2012537116464,33.164852084021334 146.84878477950227,33.643462003739685 148.17200043990027,34.375453645660336 149.10106675464672,35.07929176289473 149.57967667436506,35.47344110854431 150.7058176619393,36.82481029363259 151.52226987792872,37.52864841086498 152.98625316177402,38.51402177499194 154.87253931595717,39.443088089738374 155.9986803035314,40.11877268228252 156.7588254701443,40.456614978555585 157.32189596392942,40.59738260200086 158.50434400088017,40.65368965137937 159.039260969979,40.625536126691124 161.91092048828912,39.83723743538996 164.44473771032813,39.246013416914586 164.81073353128946,39.07709226877705 165.20488287694104,38.76740349719624 166.27471681513475,37.47234136148647 167.03486198174767,36.796656768942334 167.99208182118437,36.31804684922398 168.69591993841675,36.12097217639819 169.17452985813512,36.06466512701968 169.6812933025437,36.177279225778705 169.93467502474402,36.37435389860249 170.21621027163857,36.76850324425408 170.9763554382515,38.14802595403061 171.82096117893116,38.99263169471028 173.93247553062835,40.14692620697277 174.83338832068853,40.42846145386533 175.81876168481548,40.34400087979656 176.52259980204786,40.11877268228252 177.02936324645648,39.72462333663294 177.81766193775564,38.57032882437045 179.16903112284393,37.500494886176725 179.73210161662902,37.16265258990366 180.37963268448493,36.909270867699355 180.74562850544623,36.852963818320845 181.05531727702706,36.93742439238961 181.44946662267864,37.21895963928217 181.70284834488294,37.61310898493375 182.3785329374251,40.794457274826655 182.6882217090099,41.49829539205905 182.9416034312142,41.80798416364186 183.08237105465747,41.86429121302038 183.5046739249993,41.244913669854746 183.9551303200274,40.40030792917508 184.32112614098872,39.386781040359864 184.63081491257356,38.204333003409126 184.9123501594641,37.75387660837903 185.33465302980593,37.38788078741771 185.78510942483402,37.1344990652154 186.62971516551372,36.740349719563824 188.40338722093983,36.12097217639819 189.16353238755272,35.642362256679846 189.58583525789055,35.220059386340004 189.97998460354214,34.65698889255489 190.90905091828859,32.93962388650529 191.38766083800692,32.26393929396115 192.23226657868662,31.30671945452445 192.936104695923,30.799956010117846 193.86517101066946,30.405806664466265 196.17376003519442,29.78642912130264 196.93390520180333,29.50489387440808 200.9598592323779,27.75937534367022 203.26844825690287,26.914769602990546 205.01396678763874,26.042010337622617 205.91487957769894,25.67601451666129 207.0691740899594,25.366325745078477 207.94193335532935,25.253711646321452 208.87099967007578,25.2255581216312 210.95436049708672,25.366325745078477 212.13680853403747,25.310018695699966 213.34741009567847,25.112944022874174 214.10755526229136,24.85956230066987 216.21906961398855,23.846035411854665 216.92290773122494,23.451886066205084 217.11998240404873,23.254811393379292 218.8091938854081,25.929396238865593 220.61101946552446,29.533047399098336 221.25855053338034,31.10964478170066 221.68085340371817,32.32024634334166 221.96238865061272,33.36192675684512 222.1876168481268,34.65698889255489 222.3002309468838,36.26173979984547 222.1876168481268,38.40140767623491 221.0896293852428,46.96007918178868 220.80809413834825,50.08512042230307 220.779940613662,51.54910370614637 220.86440118772876,52.95677994061316 221.06147586055255,54.30814912570144 221.37116463213738,55.63136478609946 221.87792807654196,57.20796216870179 222.52545914439784,58.81271307599237 226.32618497745838,66.47047179148795 227.67755416254266,69.03244253821522 232.06950401407857,76.6338942043323 233.47718024854336,79.42109314857562 234.34993951391328,81.5326075002748 234.80039590894137,83.10920488287712 235.0537776311457,84.77026283954622 235.13823820521245,86.54393489497433 235.08193115583595,90.26020015396409 235.1100846805262,91.86495106125467 235.27900582865973,93.49785549323552 235.58869460024454,94.87737820301204 236.15176509402966,96.73551083250894 236.91191026064257,98.56548993731356 240.48740789618506,105.6038711096435 241.38832068624524,107.63092488727592 242.0358517540971,109.37644341801379 242.62707577257248,111.31903662157744 243.1338392169811,113.74023974485743 243.6406026613897,116.8934345100621 244.0910590564178,120.35631804684955 244.3444407786221,123.48135928736394 244.2881337292456,125.93071593533419 244.11921258110806,127.02870339821817 243.83767733421348,128.18299791048065 243.49983503794243,129.16837127460562 243.0775321676046,130.12559111404232 242.0358517540971,131.7303420213349 241.27570658748823,132.65940833608133 240.31848674804752,133.64478170020828 238.46035411855465,135.33399318156765 234.34993951391328,138.71241614428632 233.53348729792387,139.47256131089725 232.8296491806915,140.2608600021984 232.12581106345507,141.33069394039413 231.75981524249374,142.2316067304523 231.56274056966996,143.30144066864602 231.50643352029346,144.5965028043538Z"/>
  </g>
</svg>