<?xml version="1.0" encoding="UTF-8" standalone="no"?>
<svg viewBox="0 0 151.40503781078345 256" xmlns="http://www.w3.org/2000/svg">
  <style>
    g.zone {
      fill: lightgray;
      stroke-width: 2;
      stroke-linecap: square;
      stroke-linejoin: bevel;
      stroke-miterlimit: 3;
      stroke-opacity: 0.8;
      stroke: black;
      fill-opacity: 0.3;
    }
  </style>
  <g class="zone" id="zone">
    <path d="M71.3501985746144,237.8107828736194 71.37805342473229,238.13111364996428 71.44769055002504,238.3539524508995 71.60089222566752,238.64642837712847 71.82373102660274,238.9528317284144 72.36690060388385,239.46814645557862 73.48109460856395,240.31771938414664 73.84320766008469,240.69375986072535 74.13568358631268,241.11158261247988 74.88776453947007,242.50432511832804 75.06882106523044,243.0057124204333 75.30558729122461,244.07812414993654 75.41700669169222,244.32881780098967 75.62591806757048,244.6073663021597 76.15516021979265,245.094826179206 76.71225722213072,245.45693923072673 77.40862847505628,245.80512485718953 78.85708068113725,246.37614928458655 79.30275828300968,246.65469778575655 79.77629073499803,247.00288341221835 78.96850008160683,248.3399162178327 78.20249170338852,249.52374734780457 75.91839399379846,252.7549099613723 75.51449866710287,253.42342636418 75.06882106523044,254.32870899298183 74.42815951254066,254.41227354333253 74.01033676078612,254.41227354333253 73.45323975844606,254.30085414286492 73.11898155704321,254.14765246722146 72.72901365540459,253.86910396605143 72.06049725259692,253.24236983841962 70.44491594581453,251.62678853163524 69.5674881671286,250.9164898536527 68.96860888961369,250.54044937707403 67.56193895870759,249.8022958489736 67.07447908166029,249.63516674827218 66.64272890484679,249.60731189815527 65.97421250204111,249.71873129862288 64.55361514607408,250.16440890049435 64.05222784396982,250.41510255154748 63.174800065285865,250.98612697894546 62.561993362712,251.19503835482274 61.78205755943672,251.3482400304662 59.91578260159923,251.64071595669418 58.77373374680322,251.96104673303907 58.48125782057523,251.94711930798013 57.57597519177339,251.82177248245455 56.8517490887339,251.86355475762943 56.60105543768078,251.91926445786322 56.12752298569242,252.1281758337405 55.208312931831635,252.3231597845598 55.02725640607127,252.44850661008638 54.9297644306626,252.6434905609047 55.01332898101232,253.33986181382926 54.97154670583746,253.6184103149983 54.81834503019498,253.86910396605143 54.567651379141864,254.1337250421625 54.24732060279599,254.35656384309874 53.857352701159336,254.565475218976 52.46461019531019,254.9972253957885 51.55932756650835,255.44290299765996 51.37827104074798,255.49861269789375 51.05794026440409,255.49861269789375 50.152657635602246,255.30362874707544 49.79054458408151,255.28970132201647 47.85463250095127,255.62395952342033 47.06076927261902,255.72145149882996 46.559381970512774,255.74930634894687 45.1109297644318,255.67966922365412 43.82960665905028,255.87465317447345 42.26973505249972,256 41.991186551330685,255.30362874707544 41.64300092486889,254.5933300690929 38.746096512703,249.55160219792148 38.397910886241206,248.8830857951138 38.14721723518809,248.29813394265784 37.96616070942772,247.72710951525983 37.81295903378524,247.10037538762802 37.38120885697175,243.952777324411 37.04695065556891,242.32326859256767 36.670910178989224,241.00016321201227 36.21130515205982,239.63527555628002 35.86311952559803,238.68821065230333 35.54278874925215,238.0336216745546 35.20853054784931,237.4904520972735 34.832490071269625,237.0308470703441 34.48430444480783,236.72444371905718 33.982917142701595,236.4041129427123 33.42582014036352,236.1673467167181 32.882650563082414,236.0559273162505 32.214134160274746,236.01414504107464 31.68489200805259,236.0559273162505 32.42304553615103,235.1924269626245 33.32832816495287,234.34285403405647 33.53723954083113,234.03645068276953 33.84364289211609,233.0754583537349 34.10826396822815,232.49050650127793 34.42859474457403,231.91948207387992 34.55394157010059,231.58522387247706 34.59572384527545,231.09776399542977 34.45644959468994,230.35961046733033 34.47037701974889,230.22033621674484 34.5260867199827,230.09498939121926 34.74892552091793,229.90000544039995 35.77955497524633,229.315053587944 36.47592622816991,228.71617431042907 37.00516838039207,228.14514988303105 37.08873293074377,227.95016593221175 37.116587780861664,227.68554485610068 37.36728143191281,227.5044883303403 37.3951362820307,227.37914150481473 37.14444263097757,226.8081170774167 36.629127903814364,226.01425384908248 36.448071378053996,225.48501169686034 36.406289102879136,224.64936619335126 36.29486970240954,223.96692236548563 36.26701485229363,223.0616397366838 36.28094227735257,222.54632500952056 36.406289102879136,221.32071160437383 36.39236167782019,220.9028888526193 36.33665197758638,220.54077580109856 36.21130515205982,220.17866274957782 35.918829225831836,219.7329851477064 35.68206299983766,218.85555736902242 35.361732223491785,218.13133126598095 34.9299820466783,217.43496001305638 34.26146564387063,216.6550242097811 33.95506229258568,216.1675643327348 33.88542516729292,215.94472553179858 33.88542516729292,215.7358141559213 34.0386268429354,215.06729775311462 34.024699417876455,214.91409607747116 33.95506229258568,214.71911212665185 33.67651379141466,214.31521679995626 33.25869103966012,213.93917632337656 32.172351885099886,213.2706599205699 31.2531418312391,212.88069201893225 30.51498830313868,212.42108699200185 30.19465752679478,212.28181274141733 30.083238126327167,212.1843207660077 29.930036450682714,211.9754093901304 29.790762200097205,211.68293346390243 29.414721723519502,210.652304009575 29.359012023285693,210.35982808334703 29.345084598226748,209.84451335618283 29.28937489799294,209.5938197051297 29.177955497525325,209.39883575431136 29.02475382188087,209.217779228551 28.258745443664537,208.6188999510361 28.133398618137974,208.46569827539264 28.07768891790417,208.32642402480812 28.049834067788254,208.1314400739888 28.091616342963114,207.69968989717628 28.28660029378243,207.60219792176665 28.899406996354312,207.19830259507106 29.3311571731678,206.9754637941348 30.584625428431433,206.51585876720443 33.35618301507076,205.79163266416396 34.010771992819485,205.66628583863738 34.95783689679619,205.59664871334462 35.45922419890045,205.4573744627601 35.83526467548014,205.2623905119418 36.113813176649174,205.02562428594663 36.517708503346746,204.60780153419208 37.08873293074377,203.9114302812685 37.46477340732345,203.5632446548067 38.17507208530598,203.06185735270046 38.843588488113646,202.6718894510628 40.70986344594915,201.72482454708611 41.60121864969205,201.36271149556538 43.119307981067756,200.9588161688698 44.10815516021932,200.62455796746596 44.63739731244147,200.58277569229108 44.92987323867143,200.59670311734905 45.250204015015335,200.68026766769975 45.65409934171093,200.83346934334324 45.988357543115754,201.0423807192205 46.30868831945965,201.36271149556538 46.61509167074658,201.86409879767163 46.81007562156589,202.1008650236658 47.01898699744416,202.21228442413343 47.46466459931462,202.28192154942616 47.63179370001603,202.37941352483483 47.979979326477824,202.8808008269401 48.495294053643015,203.43789782928016 48.982753930690315,204.06463195691197 49.17773788150765,204.2317610576134 49.38664925738591,204.35710788313995 50.05516566019358,204.5103095587834 50.23622218595395,204.59387410913413 50.333714161362614,204.78885805995245 50.5426255372389,205.65235841357844 50.69582721288335,205.97268918992432 50.87688373864372,206.2651651161523 51.113649964637894,206.55764104238028 52.1442794189663,207.6439801969425 52.520319895544006,207.92252869811153 52.812795821771985,208.04787552363808 53.20276372341061,208.1314400739888 54.59550622925778,208.2707143245743 56.11359556063348,208.57711767586025 57.36706381589711,208.75817420162062 57.92416081823716,208.74424677656265 58.913007997388725,208.57711767586025 59.6372341004302,208.52140797562643 59.999347151950936,208.43784342527573 60.19433110277025,208.35427887492503 60.34753277841273,208.22893204939845 60.54251672923204,207.92252869811153 60.54251672923204,207.61612534682558 60.40324247864653,206.71084271802374 60.40324247864653,206.41836679179576 60.45895217888034,206.20945541591848 60.65393612969965,205.90305206463157 61.15532343180392,205.42951961264322 61.32245253250732,205.10918883629833 61.33637995756429,204.9420597355959 61.29459768238943,204.7749306348945 60.93248463086869,204.09248680702888 60.83499265546002,203.8000108808009 60.821065230401075,203.54931722974777 60.862847505575935,203.29862357869465 61.36423480768218,202.14264729884067 61.642783308851214,201.6969696969692 62.21380773625022,200.9866710189867 62.60377563788687,200.19280779065346 62.75697731353132,199.98389641477618 63.02159838964141,199.76105761383997 64.08008269408573,199.19003318644195 64.47005059572436,198.89755726021397 64.76252652195234,198.54937163375217 65.22213154888175,197.51874217942378 65.52853490016868,197.07306457755232 65.98813992709808,196.69702410097364 67.14411620695304,195.94494314781525 68.0772536858708,194.97002339372165 68.92682661443884,194.28757956585602 69.49785104183586,193.71655513845803 70.1385125945276,193.14553071106002 70.30564169522903,192.8948370600069 70.37527882052179,192.7416353843644 70.41706109569664,192.4630868831944 70.44491594581453,191.8363527555626 70.57026277133912,191.4881671291008 70.72346444698357,191.26532832816457 70.87666612262605,191.12605407758005 71.05772264838642,191.00070725205347 71.23877917414679,190.93107012676074 70.9463032479188,190.91714270170277 70.6259724715749,190.79179587617622 70.38920624558072,190.5968119253569 70.1385125945276,190.23469887383715 69.94352864370829,189.7333115717309 69.31679451607747,187.51885098743261 69.0800282900813,186.93389913497566 67.99368913552108,184.9979870518464 67.77085033458387,184.71943855067738 67.17197105706896,184.10663184810352 66.7262934551985,183.4241880202379 65.27784124911555,180.86154180947682 65.02714759806243,180.36015450737156 64.77645394701129,179.7194929546808 64.59539742125092,179.3991621783359 64.2611392198461,179.02312170175722 63.745824492682885,178.56351667482681 62.687340188238565,177.75572602143464 61.89347695990434,177.35183069473905 61.642783308851214,177.08720961862795 61.559218758501494,176.89222566780865 61.54529133344255,176.66938686687342 61.79598498449567,175.9590881888909 62.11631576083957,174.24601490669687 62.158098036016405,173.75855502964956 62.088460910723654,173.39644197812882 61.977041510256036,173.2014580273105 61.79598498449567,173.00647407649217 60.570371579347956,172.18475599804106 60.333605353353775,171.9619171971058 60.12469397747749,171.7112235460527 59.52581469996258,170.8198683423098 59.09406452314909,170.05385996409348 58.88515314727083,169.608182362222 58.6623143463356,168.8978836842385 58.50911267069313,168.57755290789362 58.2862738697579,168.25722213154873 57.88237854306032,167.78368967956038 57.35313639083816,167.2683749523962 56.93531363908362,166.9758990261682 56.15537783580834,166.6277133997064 54.77656275501815,166.168108372776 54.26124802785493,165.95919699689873 53.592731625047264,165.5692290952611 52.42282792013533,164.77536586692787 51.392198465806935,163.98150263859364 49.98552853490082,162.60268755780442 48.82955225504586,161.58598552853496 48.45351177846618,161.08459822642874 47.96605190142086,160.09575104727716 47.8128502257764,159.90076709645786 47.63179370001603,159.73363799575642 47.200043523202545,159.46901691964536 46.336543169577546,159.10690386812462 45.37555084054189,158.60551656601936 45.08307491431391,158.39660519014208 44.498123061857946,157.89521788803583 43.941026059517895,157.51917741145715 43.57891300799716,157.37990316087263 42.91039660518949,157.2127740601702 42.673630379195316,157.1013546597026 42.45079157826009,156.90637070888428 42.144388226973156,156.36320113160318 41.90762200097898,156.0985800554921 41.48979924922444,155.73646700397137 40.751645721125996,155.1793700016323 40.152766443611085,154.78940209999465 39.76279854197245,154.59441814917534 39.2892660899841,154.44121647353188 38.52325771176777,154.27408737283045 38.091507534954275,154.09303084707008 37.59012023285001,153.70306294543244 36.21130515205982,152.25461073935048 35.37565964855073,151.47467493607522 34.99961917197105,151.29361841031485 34.651433545509256,151.23790871008103 34.42859474457403,151.251836135139 35.77955497524633,151.14041673467136 36.81018442957473,150.94543278385305 37.59012023285001,150.69473913279992 38.244709210598735,150.34655350633813 38.69038681246919,149.94265817964154 39.03857243893098,149.44127087753628 39.317120940101994,148.88417387519723 40.06920189325938,146.97611664218488 40.375605244546314,146.41901963984483 40.77950057124191,145.9037049126816 41.280887873348156,145.48588216092708 41.796202600511364,145.20733365975704 42.38115445296733,145.04020455905564 42.70148522931321,144.99842228387976 43.17501768130156,144.99842228387976 43.77389695881647,145.09591425928943 44.38670366139033,145.29089821010777 45.05522006419602,145.58337413633575 45.779446167237495,146.02905173820818 46.81007562156589,146.80898754148248 50.291931886187754,149.85909362929084 51.83787606767937,151.07077960937863 52.979924922475384,151.8785702627708 54.05233665197865,152.57494151569537 55.11082095642297,153.1459659430934 56.16930526086728,153.63342582013968 57.40884609107197,154.10695827212902 58.48125782057523,154.39943419835703 59.58152440019639,154.5804907241174 60.556444154289004,154.6640552744681 61.62885588379227,154.65012784940916 62.64555791306173,154.52478102388358 63.60655024209738,154.27408737283045 64.4561231706654,153.93982917142662 64.97143789782862,153.54986126978898 65.2082041238228,153.27131276861994 65.38926064958316,152.99276426744993 65.48675262499381,152.58886894075334 65.43104292476,152.0874816386481 65.24998639899964,151.58609433654283 65.01322017300546,151.15434415973033 63.467275991513844,148.9259561503721 62.97981611446655,148.1181654969799 62.770904738588285,147.6864153201674 62.60377563788687,147.1989554431201 62.52021108753714,146.83684239159936 62.5062836624782,146.47472934007962 62.58984821282792,145.77835808715506 63.07730808987522,144.12099450519582 63.857243893150496,140.66699309069088 64.27506664490504,139.34388771013548 64.63717969642578,138.5082422066264 65.13856699853203,137.50546760241488 66.25276100321015,135.52777324411076 68.10510853598869,132.65872368206277 68.53685871280219,132.0737718296068 69.0521734399654,131.44703770197498 69.42821391654508,131.0709972253953 69.97138349382618,130.62531962352386 70.47277079593044,130.30498884717898 71.01594037321155,130.02644034600894 71.61481965072646,129.78967412001478 72.21369892824137,129.59469016919644 72.9518524563418,129.42756106849404 73.74571568467404,129.28828681790952 75.1663130406391,129.149012567325 75.97410369403228,129.13508514226604 76.7679669223665,129.16293999238295 77.93787062727843,129.3161416680264 79.1495566073672,129.6086175942544 80.54229911321437,130.11000489636064 82.43642892116777,130.94565039986972 84.49768782982457,131.99020727925512 85.89043033567371,132.81192535770623 86.79571296447358,133.43865948533806 87.40851966704744,133.9400467874433 87.86812469397684,134.35786953919785 88.397366846199,134.9428213916538 88.92660899842313,135.62526521952043 89.7761819269892,136.90658832490095 90.44469832979686,137.9929274794622 91.65638430988562,140.1098960883518 92.08813448669912,140.75055764104258 92.54773951362853,141.2937272183227 92.95163484032412,141.66976769490236 93.50873184266418,142.04580817148107 94.02404656982739,142.31042924759214 94.72041782275096,142.5750503237032 95.58391817637795,142.77003427452254 96.57276535552951,142.88145367499015 97.75659648550237,142.90930852510706 99.67858114357169,142.8396713998153 101.26630760024014,142.67254229911288 102.49192100538588,142.43577607311872 103.25792938360222,142.1850824220656 103.82895381100121,141.80904194548688 104.12142973722919,141.55834829443475 104.27463141287167,141.33550949349853 104.31641368804654,141.0569609923285 104.28855883793062,140.87590446656813 104.16321201240406,140.5416462651653 103.91251836135093,140.09596866329386 103.606115010064,139.73385561177312 103.04901800772593,139.2463957347258 99.95712964474271,137.17120940101205 99.26075839181715,136.62803982373094 98.5226048637187,135.95952342092326 97.78445133561829,135.10995049235623 97.32484630868888,134.4275066644906 97.01844295740194,133.74506283662498 96.87916870681644,133.27153038463564 96.80953158152369,132.881562482999 96.76774930634883,132.24090093030821 96.82345900658264,131.4748925520919 96.97666068222709,130.7228115989335 97.26913660845507,129.6921821446061 97.71481421032553,128.52227843969317 98.2997660627815,127.08775365866919 99.12148414123361,125.29111582612444 100.01283934497651,123.48055056852175 100.37495239649725,122.56134051466195 100.47244437190591,122.1156629127905 100.50029922202182,121.69784016103596 100.43066209673106,121.29394483433937 100.2774604210866,120.83433980740996 100.09640389532623,120.51400903106409 99.80392796909825,120.11011370436849 99.52537946792921,119.83156520319847 99.12148414123361,119.51123442685358 98.46689516348489,119.17697622544975 96.89309613187538,118.68951634840344 96.48920080517979,118.48060497252617 96.0574506283663,118.17420162123923 95.5978456014369,117.74245144442575 94.49757902181574,116.55862031445487 93.56444154289798,115.61155541047816 90.06865785321718,112.28290082150076 89.49763342582015,111.78151351939452 88.80126217289657,111.25227136717236 88.31380229584929,110.94586801588542 87.89597954409473,110.73695664000816 87.46422936728125,110.56982753930673 86.99069691529289,110.43055328872222 86.02970458625724,110.27735161307875 84.83194603122742,110.2355693379029 83.95451825254347,110.27735161307875 82.7428322724547,110.41662586366327 81.82362221859589,110.59768238942364 80.96012186496891,110.82052119035986 80.15233121157772,111.1547793917627 79.45595995865216,111.54474729340033 78.75958870572858,112.04613459550659 78.28605625374023,112.505739622436 77.9796529024533,112.89570752407363 77.78466895163398,113.24389315053543 77.6314672759915,113.73135302758271 77.58968500081664,114.14917577933726 77.61753985093256,114.56699853109181 77.68717697622532,114.95696643272944 78.21641912844747,116.57254773951381 78.34176595397403,117.14357216691182 78.35569337903297,117.7842337196016 78.21641912844747,118.45275012240927 78.0353626026871,118.8427180240469 77.86823350198569,119.13519395027488 77.58968500081664,119.48337957673668 77.28328164952971,119.7619280779067 76.92116859800898,120.02654915401779 76.58691039660613,120.22153310483611 76.12730536967474,120.41651705565542 75.52842609215983,120.63935585659065 74.80419998911836,120.83433980740996 74.14961101136964,120.97361405799448 72.18584407812348,121.23823513410557 70.19422229476142,121.37750938469009 66.7262934551985,121.53071106033354 65.51460747510973,121.65605788586011 64.91572819759482,121.75354986126976 64.30292149502293,121.90675153691323 62.11631576083957,122.72846961536337 61.50350905826769,122.90952614112373 60.5842990044069,123.0905826668841 59.59545182525534,123.17414721723482 58.63445949621969,123.14629236711791 57.47848321636472,122.96523584135754 54.06626407703562,122.15744518796537 51.14150481475381,121.6003481856263 49.99945595995977,121.29394483433937 48.982753930690315,120.87612208258483 48.17496327729714,120.38866220553852 47.4368097491987,119.78978292802361 46.83793047168379,119.13519395027488 46.48974484522002,118.63380664816964 46.01621239323167,117.82601599477745 44.149937435396154,114.07953865404451 43.57891300799716,113.1046188999509 42.74326750448807,111.82329579457037 40.974484522061225,109.45563353462762 39.95778249279177,108.23002012948189 39.48425004080342,107.72863282737563 38.885370763288506,107.15760839997763 38.049725259779414,106.48909199717096 37.36728143191281,106.05734182035746 36.406289102879136,105.56988194331116 35.48707904901835,105.16598661661456 33.32832816495287,104.35819596322239 32.77123116261282,104.10750231217025 32.13056960992305,103.75931668570747 31.448125782058415,103.28578423371911 30.877101354659416,102.742614656439 30.43142375278896,102.24122735433276 29.665415374572625,101.26630760023916 29.12224579729152,100.7092105979001 28.829769871063537,100.47244437190591 28.481584244599766,100.24960557096969 28.105543768022063,100.05462162015137 27.63201131603371,99.88749251944895 26.657091561939115,99.63679886839682 25.696099232903467,99.45574234263646 23.06381589684964,99.06577444099882 21.698928241118395,98.89864534029739 14.470594635764586,98.21620151243079 13.063924704858477,98.14656438713902 11.462270823133057,98.14656438713902 10.682335019857776,97.65910451009172 10.48735106903846,97.4919754093903 10.306294543278092,97.24128175833718 10.167020292694563,96.82345900658264 10.069528317283917,96.62847505576431 9.526358740002811,96.09923290354116 9.206027963658915,95.89032152766389 8.509656710733355,95.58391817637795 8.217180784505372,95.38893422555863 8.077906533921844,95.24965997497411 7.687938632283213,94.69256297263506 7.158696480061055,94.14939339535395 4.623905119417877,91.96278766117157 2.7158478864055255,90.55611773026448 1.7548555573698765,90.08258527827613 1.3091779554974392,89.73439965181433 1.0724117295032636,89.41406887546944 0.8077906533931739,88.84304444807144 0.417822751754544,88.23023774549758 0.13927425058550774,87.63135846798366 0.04178227517486064,87.25531799140397 0,86.87927751482528 0,86.48930961318764 0.05570970023380725,86.14112398672486 0.18105652576036838,85.91828518578963 0.6267341276328056,86.18290626190071 1.2813231053815253,86.46145476307073 1.9080572330123515,86.65643871388906 2.5487187857021247,86.76785811435667 3.5236385397967203,86.82356781459147 4.679614819651684,86.74000326423977 5.710244273978108,86.57287416353834 6.6990914531316506,86.29432566236832 7.646156357108353,85.94614003590654 9.87454436646658,84.98514770687089 10.570915619390162,84.76230890593565 11.225504597138881,84.59517980523324 12.047222675589023,84.46983297970768 12.994287579565725,84.40019585441492 15.891191991731619,84.37234100429801 16.740764920297675,84.33055872912216 17.604265273924653,84.2330667537135 18.53740275284241,84.03808280289418 19.386975681410444,83.7734617267831 21.49001686524211,83.03530819868367 24.442630977639833,82.17180784505769 25.347913606441676,81.83754964365384 26.058212284424204,81.53114629236691 26.935640063108153,81.07154126543752 27.79914041673513,80.54229911321437 30.403568902671065,78.67602415537786 31.280996681355013,78.10499972797986 32.38126326097617,77.49219302540699 33.37011044012773,77.03258799847659 34.47037701974889,76.65654752189789 35.44529677384349,76.40585387084478 36.72661987922303,76.18301506990954 38.007942984604554,76.08552309449989 39.33104836515896,76.05766824438298 40.73771829606705,76.07159566944094 43.71818725858267,76.1969424949675 44.5677601871507,76.29443447037715 45.166639464665614,76.39192644578682 45.65409934171093,76.51727327131239 46.16941406887612,76.69832979707276 46.8657853217997,77.0604428485935 47.53430172460737,77.6036124258746 48.16103585223819,78.28605625374023 49.79054458408151,80.33338773733709 50.41727871171432,80.97404929002785 51.14150481475381,81.54507371742586 52.199989119200104,82.19966269517458 53.300255698819285,82.72890484739675 54.901909580544704,83.35563897502855 56.294652086393846,83.7734617267831 57.40884609107197,84.02415537783622 58.43947554540037,84.1773570534787 59.553669550078496,84.2609216038304 60.69571840487451,84.2609216038304 62.49235623741925,84.13557477830383 64.19150209455334,83.92666340242657 65.65388172569523,83.67596975137344 66.82378543060716,83.41134867526236 67.60372123388245,83.17458244926819 68.39758446221667,82.8542516729233 68.96860888961369,82.54784832163638 69.53963331701269,82.14395299494078 69.9156737935904,81.72613024318623 70.15244001958457,81.28045264131478 70.23600456993627,80.79299276426748 70.20814971982036,80.361242587454 70.12458516946866,80.04091181110911 69.94352864370829,79.62308905935457 69.49785104183586,78.84315325607929 68.81540721397121,77.89608835210258 66.99091453131057,75.6537729176864 66.04384962733188,74.42815951253966 65.23605897394069,73.23040095751084 64.53968772101712,71.99086012730515 63.84331646809155,70.4866982209894 63.57869539198146,69.76247211794792 63.35585659104425,68.98253631467264 63.27229204069453,68.46722158750843 63.27229204069453,68.0772536858708 63.328001740928336,67.68728578423415 63.509058266688704,67.2137533322448 63.815461617975636,66.79593058049026 64.13579239431954,66.50345465426228 64.53968772101712,66.22490615309324 64.92965562265375,66.02992220227392 65.38926064958316,65.8627931015725 65.90457537674835,65.73744627604594 66.71236603013955,65.61209945051938 67.35302758282933,65.57031717534453 68.91289918937989,65.54246232522664 70.51455307110531,65.63995430063629 71.80980360154578,65.87672052663046 74.19139328654649,66.51738207932122 74.85990968935415,66.58701920461299 75.36129699145842,66.54523692943813 75.97410369403228,66.37810782873572 76.26657962026026,66.22490615309324 76.54512812142929,66.02992220227392 76.83760404765728,65.7513737011039 77.03258799847659,65.51460747510973 77.18578967412104,65.2639138240576 77.36684619987943,64.8878733474779 77.50612045046495,64.38648604537265 77.57575757575769,63.8850987432674 77.6314672759915,62.24166258636613 77.70110440128425,61.43387193297394 77.79859637669293,60.862847505575935 77.96572547739434,60.222185952886164 78.28605625374023,59.414395299493975 78.6620967303199,58.731951471628356 79.0938469071334,58.04950764376273 79.98520211087629,56.809966813557054 80.40302486263083,56.09966813557453 80.68157336379987,55.3615146074751 80.82084761438539,54.49801425384911 80.8487024645013,54.038409226918716 80.82084761438539,53.34203797399513 80.68157336379987,52.241771394374965 80.51444426309845,51.503617866274546 79.79021816005698,48.7042054295193 79.5534519340628,47.450737174255664 79.42810510853624,46.61509167074658 79.35846798324349,45.26413144007428 79.51166965888794,42.77112235460497 79.49774223382899,42.29758990261662 79.44203253359518,41.86583972580412 79.28883085795073,41.19732332299645 79.0938469071334,40.70986344595015 78.80137098090343,40.16669386866904 78.36962080409192,39.498177465861374 77.88216092704462,38.8575159131716 77.42255590011521,38.3422011860074 75.2498775909908,36.002393776181556 74.55350633806722,35.05532887220485 73.92677221043441,33.96898971764364 72.70115880528867,31.46205320711637 71.9490778521293,30.2503672270276 71.15521462379706,29.24759262281709 70.34742397040388,28.398019694250046 69.65105271748031,27.785212991676186 68.45329416245048,26.85207551275744 66.85164028072506,25.779663783254176 63.38371144116215,23.648767749306597 61.62885588379227,22.618138294978195 60.02720200206685,21.740710516294243 59.03835482291529,21.225395789130044 58.02165279364583,20.751863337141693 56.50356346227013,20.180838909743684 55.22224035689058,19.818725858222948 52.07464229367354,19.080572330123516 50.43120613677128,18.551330177901356 49.12202818127384,17.994233175562297 46.01621239323167,16.57363581959625 42.060823676623436,14.902344812578075 40.82128284641677,14.27561068494626 39.707088841738646,13.62102170719754 34.442522169631,10.111310592459766 33.746150916707414,9.56814101517866 33.10548936401764,8.983189162722695 32.631956912029295,8.467874435558494 32.214134160274746,7.924704858277389 31.82416625863612,7.325825580762477 31.462053207115382,6.643381752896854 30.94673847995217,5.515260323159783 30.696044828899048,4.804961645177256 30.501060878081713,4.066808117077826 30.389641477612116,3.412219139329106 30.37571405255515,2.8133398618141934 30.445351177845925,2.2701702845330884 30.584625428431433,1.8523475327785444 30.821391654425607,1.4205973559650538 31.155649855830433,1.030629454328403 31.573472607584975,0.7381535280994305 31.935585659103733,0.5570970023390621 32.367335835917224,0.3899679016376404 32.84086828790557,0.2785485011700259 33.495457265654295,0.16712910070241135 34.77678037103582,0.04178227517585024 36.30879712746849,0 39.136064414341625,0.013927425058946615 50.821174038409914,0.23676622599417563 70.63989989663187,0.34818562646179013 82.95174364833296,0.29247592622798285 103.94037321146882,0.37604047657968337 145.93155976279752,0.29247592622798285 146.7114955660728,1.2673956803225785 146.97611664218488,1.7130732821940262 147.226810293238,2.1866057341823772 147.40786681899837,2.646210761111782 147.51928621946598,3.0779609379252726 147.56106849464084,3.48185626462087 147.53321364452492,3.8578967412005536 147.38001196888047,4.289646918013054 147.07360861759355,4.693542244709642 146.66971329089796,5.055655296230378 145.513737011043,5.87737337468052 145.06805940917252,6.239486426201256 144.70594635765178,6.643381752896854 144.51096240683248,7.061204504651398 144.46918013165762,7.367607855938327 144.48310755671656,7.757575757575967 144.5666721070663,8.175398509330511 144.91485773353006,9.387084489418294 144.97056743376385,9.777052391055934 144.9566400087049,10.153092867635618 144.8730754583532,10.52913334421431 144.7338012077697,10.919101245851952 144.05135737990307,12.214351776290444 143.8703008541427,12.646101953103935 143.74495402861615,13.063924704858477 143.71709917850023,13.439965181437172 143.7588814536751,13.774223382841004 143.8981557042606,14.136336434361741 144.5666721070663,15.222675588922963 144.74772863282666,15.612643490560602 144.8452206082373,16.01653881725719 144.8173657581194,16.49007126924554 144.70594635765178,16.921821446058043 144.52488983189141,17.325716772754628 143.48033295250605,19.13628203035732 142.4636309232366,21.127903813720387 142.19900984712453,21.726783091235298 142.01795332136416,22.22817039334055 141.90653392089655,22.729557695446797 141.8647516457217,23.272727272726915 141.87867907077865,23.774114574833156 141.9483161960714,24.219792176704605 142.11544529677283,24.651542353517105 142.35221152276898,25.01365540503784 142.7282519993467,25.403623306675485 143.2435667265119,25.793591208313124 145.09591425928843,27.074914313693657 147.1153908927704,28.384092269191097 147.58892334475874,28.76013274576979 147.9788912463954,29.136173222349477 148.4106414232089,29.748979924922345 148.74489962461172,30.45927860290487 148.95381100049,31.183504705946344 148.9816658506059,31.76845655840231 148.9259561503721,32.047005059572335 148.80060932484554,32.325553560742364 148.61955279908517,32.54839236167759 148.36885914803403,32.743376312496906 147.7699798705191,33.04977966378284 146.32152766443616,33.579021816006 145.80621293727296,33.80186061694123 145.31875306022565,34.12219139328611 144.90093030847112,34.5260867199827 144.51096240683248,35.152820847614514 143.8145911539089,36.75447472933993 142.77003427452354,38.81573363799575 142.33828409771004,39.386758065393764 141.55834829443475,40.06920189325938 141.36336434361544,40.31989554431251 141.26587236820677,40.584516620423585 141.196235242914,40.904847396768474 141.18230781785508,41.58729122463409 141.30765464338162,42.200097927207956 141.5165660192599,42.74326750448807 141.82296937054485,43.21679995647642 142.1711549970086,43.57891300799716 142.60290517382012,43.843534084108235 144.1070670801369,44.41455851150624 145.20733365975804,44.9438006637284 146.1961808389096,45.55660736630226 146.5722213154893,45.849083292530246 146.89255209183318,46.15548664381718 147.07360861759355,46.40618029486931 147.26859256841286,46.78222077144899 147.96496382133645,48.96882650563038 148.15994777215576,49.33093955715112 148.34100429791613,49.51199608291149 148.53598824873544,49.665197758554946 148.89810130025617,49.846254284315314 149.5526902780049,50.04123823513364 150.1515695555198,50.1387302105433 151.40503781078345,50.236222185952954 151.32147326043173,50.36156901147952 151.12648930961242,50.472988411947135 150.31869865622124,50.66797236276546 150.06800500516812,50.77939176323406 149.80338392905801,50.96044828899443 149.4969805777711,51.28077906533932 149.05130297589866,51.54540014145039 148.64740764920305,51.684674392034914 147.78390729557609,51.81002121756148 147.53321364452492,51.93536804308804 147.07360861759355,52.36711821990054 146.948261792067,52.53424732060295 146.80898754148345,52.910287797181645 146.78113269136557,53.38382024916999 146.7114955660728,53.53702192481346 146.58614874054823,53.64844132528108 146.40509221478786,53.759860725749675 145.88977748762267,53.88520755127624 145.7365758119802,53.968772101626946 145.63908383656954,54.23339317773803 145.45802731080917,54.428377128556356 145.3605353354005,54.58157880419982 145.31875306022565,54.74870790490223 145.33268048528458,55.138675806538885 145.29089821010777,55.31973233229925 145.15162395952422,55.61220825852822 144.7338012077697,56.05788586039967 143.99564767966928,56.628910287796685 143.8703008541427,56.823894238616006 143.85637342908376,56.94924106414256 143.07643762580847,57.436700941188874 142.2965018225332,57.85452369294342 141.6279854197275,58.35591099504966 140.79233991621842,58.745878896686314 140.33273488928702,58.94086284750563 139.87312986235764,59.01049997279838 138.80071813285437,58.92693542244668 137.54724987759073,58.60660464610179 136.60018497361403,58.53696752080904 136.043087971274,58.43947554540037 134.44143408954855,58.45340297045833 133.38294978510424,58.62053207116074 133.18796583428494,58.62053207116074 132.70050595723762,58.523040095751085 131.87878787878748,58.2305641695231 131.27990860127258,58.14699961917239 129.9010935204824,57.77095914259271 127.83983461182756,57.52026549154057 127.46379413524788,57.42277351613092 126.75349545726534,57.18600729013674 125.31897067624135,56.99102333931742 124.87329307437089,56.87960393884981 124.67830912355157,57.255644415428506 124.42761547249845,57.57597519177438 123.61982481910725,58.32805614493177 123.41091344322899,58.45340297045833 123.20200206735271,58.523040095751085 122.21315488819917,58.64838692127764 121.83711441162147,58.75980632174526 121.58642076056834,58.92693542244668 120.83433980740898,59.56759697513744 120.75077525705926,59.734726075838864 120.73684783200031,59.87400032642437 120.79255753223411,60.02720200206685 120.90397693270172,60.19433110276926 121.14074315869591,60.36146020347068 121.80925956150357,60.723573254991415 122.1156629127905,60.94641205592764 122.33850171372573,61.16925085686287 122.88167129100684,61.949186660138146 123.28556661770243,62.199880311191265 123.75909906969079,62.35308198683374 124.4972525977912,62.54806593765306 124.77580109896024,62.67341276317962 125.05434960013126,62.85446928893999 125.40253522659305,63.188727490342835 125.90392252869731,63.81546161797465 126.26603558021804,64.14971981937848 126.60029378162287,64.62325227136684 127.17131820901989,65.23605897394069 127.32451988466434,65.38926064958416 127.85376203688651,65.73744627604594 127.86768946194347,65.84886567651355 127.7980523366527,66.00206735215703 127.39415700995512,66.36418040367776 127.32451988466434,66.46167237908742 127.33844730972132,66.60094662967194 127.44986671018893,66.7262934551985 128.24372993852316,67.1023339317772 128.4944235895763,67.25553560742065 128.85653664109702,67.54801153364863 129.48327076872783,68.1329633861056 129.78967412001478,68.34187476198287 130.02644034600894,68.41151188727463 130.37462597247074,68.43936673739154 131.30776345139046,68.30009248680702 131.64202165279332,68.31401991186597 131.87878787878748,68.39758446221667 132.05984440454785,68.53685871280119 132.14340895489957,68.6482781132688 132.18519123007442,68.87111691420503 132.0459169794889,69.38643164136923 131.94842500408024,69.58141559218755 131.33561830150637,70.0549480441759 130.93172297481078,70.55633534628116 130.6671018987007,70.72346444698357 130.1796420216534,70.96023067297774 129.9846580708341,71.0855774985043 129.81752897013266,71.32234372449848 129.65039986943125,71.75409390131098 129.45541591861192,71.9490778521303 129.16293999238394,72.10227952777278 128.87046406615596,72.18584407812448 128.50835101463522,72.18584407812448 128.03481856264688,72.11620695283172 127.86768946194347,72.14406180294863 127.74234263641888,72.21369892824137 127.65877808606719,72.33904575376695 127.56128611065851,72.67330395517078 127.43593928513197,72.9239976062239 127.26881018443054,73.18861868233499 127.03204395843439,73.4393123333881 126.64207605679773,73.74571568467404 125.86214025352245,74.23317556172134 125.11005930036507,74.7624177139435 124.91507534954575,74.95740166476281 124.81758337413709,75.12453076546424 124.76187367390327,75.6259180675695 124.60867199825881,75.97410369403228 124.4415428975574,76.1690876448506 123.96801044556905,76.50334584625443 123.80088134486762,76.69832979707276 123.74517164463381,76.85153147271622 123.68946194440001,77.35291877482148 123.57804254393042,77.50612045046495 123.32734889287927,77.68717697622532 122.82596159077303,77.91001577716153 122.42206626407743,78.1467820031557 122.25493716337601,78.27212882868128 121.94853381208908,78.62031445514405 121.40536423480798,78.88493553125514 121.25216255916352,79.05206463195655 120.94575920787857,80.05483923616805 120.47222675589022,81.08546869049547 120.43044448071338,81.32223491648965 120.45829933083127,81.55900114248382 120.6254284315327,81.89325934388765 120.89004950764279,82.11609814482387 121.21038028398866,82.25537239540839 121.93460638703013,82.51999347151947 122.14351776290641,82.64534029704603 122.33850171372573,82.86817909798125 122.39421141395954,83.17458244926819 122.32457428866678,83.3974212502044 122.19922746314221,83.60633262608168 121.44714650998283,84.33055872912216 121.26608998422246,84.58125238017529 121.02932375822829,85.16620423263126 120.63935585659164,85.83472063543891 120.43044448071338,86.32218051248523 119.98476687884292,87.5060116424571 119.88727490343227,87.86812469397783 119.84549262825742,88.14667319514686 119.85942005331636,88.29987487079033 119.91512975355016,88.45307654643379 120.22153310483709,88.84304444807144 120.29117023012985,88.98231869865596 120.29117023012985,89.33050432511874 120.45829933083127,89.72047222675539 121.07110603340315,90.69539198084998 121.79533213644463,91.55889233447597 121.94853381208908,91.89315053587981 122.04602578749775,92.71486861432994 122.00424351232289,92.89592514009031 121.87889668679632,93.20232849137724 121.86496926173739,93.43909471737142 122.04602578749775,93.87084489418392 122.15744518796537,94.24688537076361 122.38028398890059,94.60899842228335 122.43599368913638,94.83183722321957 122.40813883901849,94.97111147380409 122.24100973831706,95.43071650073448 122.25493716337601,95.68141015178662 122.32457428866678,95.77890212719628 122.44992111419334,95.87639410260593 123.21592949240969,96.15494260377595 123.43876829334688,96.28028942930153 123.53626026875556,96.37778140471119 123.78695391980868,96.76774930634883 124.10728469615455,97.15771720798647 124.13513954627047,97.31091888362994 124.10728469615455,97.75659648550138 124.14906697132942,98.00729013655351 124.27441379685598,98.28583863772354 124.53903487296607,98.60616941406842 124.45547032261635,98.91257276535535 124.46939774767331,99.14933899134952 124.55296229802501,99.28861324193404 124.9011479244868,99.69250856863063 125.02649475001337,100.01283934497552 125.06827702518822,100.2774604210866 124.99863989989746,100.55600892225662 124.95685762472061,101.12703334965464 125.04042217507231,101.36379957564881 125.26326097600754,101.61449322670094 125.55573690223552,101.80947717752026 125.83428540340654,101.89304172787097 126.46101953103737,101.96267885316372 126.92062455796678,102.04624340351444 128.04874598770385,102.51977585550279 128.4944235895763,102.77046950655591 128.87046406615596,103.10472770795874 129.05152059191633,103.35542135901187 129.33006909308537,103.88466351123404 129.6921821446061,104.27463141287167 129.76181926989887,104.38605081333928 129.72003699472202,104.44176051357408 129.59469016919545,104.48354278874895 128.67548011533665,104.51139763886584 128.285512213698,104.5810347641586 128.03481856264688,104.72030901474312 127.86768946194347,104.92922039062039 127.35237473478026,105.8762852945971 127.2548827593716,106.16876122082607 127.15739078396095,106.69800337304822 126.94847940808467,107.12975354986072 126.83706000761704,107.43615690114765 126.80920515749915,107.77041510255148 126.8231325825581,107.95147162831185 127.05989880855228,108.35536695500745 127.08775365867017,108.46678635547606 127.01811653337741,108.53642348076782 126.69778575703154,108.68962515641128 126.51672923127117,108.94031880746441 126.44709210597841,109.14923018334169 126.36352755562869,109.90131113649907 126.279963005277,110.2355693379029 126.09890647951663,110.54197268918983 125.66715630270313,111.04335999129509 125.58359175235341,111.25227136717236 125.4721723518858,111.76758609433656 125.44431750176791,112.10184429574039 125.4721723518858,112.49181219737804 125.52788205211961,112.78428812360602 125.70893857787998,113.09069147489195 126.18247102986832,113.46673195147164 126.29389043033594,113.60600620205615 126.4192372558625,114.20488547957108 126.60029378162287,114.62270823132562 126.80920515749915,115.27729720907433 126.94847940808467,115.55584571024436 126.75349545726534,115.59762798541922 126.64207605679773,115.66726511071198 126.55851150644604,115.8901039116482 126.32174528045185,116.04330558729066 126.34960013056975,116.15472498775927 126.48887438115526,116.44720091398726 126.86491485773296,117.01822534138526 127.01811653337741,117.17142701702873 127.18524563407884,117.28284641749634 127.65877808606719,117.51961264349052 128.6615526902777,118.10456449594649 130.70888417387556,118.74522604863725 130.9874326750446,118.87057287416381 131.14063435068906,118.98199227463142 131.29383602633152,119.16304880039179 131.51667482726674,119.6226538273212 131.9344975790213,120.06833142919264 132.03198955443193,120.22153310483611 132.18519123007442,120.89004950764378 132.38017518089373,121.39143680974902 132.42195745606858,121.58642076056735 132.38017518089373,122.547413089603 132.3383929057169,122.70061476524647 132.00413470431405,123.18807464229377 131.5863119525595,123.53626026875556 131.4748925520919,123.66160709428212 131.32169087644942,123.94015559545214 131.25205375115667,124.24655894673808 131.23812632609773,124.52510744790811 131.27990860127258,124.91507534954575 131.55845710244358,125.55573690223552 131.60023937761846,125.72286600293793 131.51667482726674,126.19639845492628 131.4748925520919,126.7674228823243 131.40525542679913,127.35237473478026 131.40525542679913,127.56128611065753 131.48881997715083,127.97910886241208 131.3913280017402,128.39693161416662 131.21027147597982,128.70333496545354 130.73673902399148,129.1768674174419 130.58353734834898,129.72003699472302 129.9846580708341,130.08215004624276 129.70610956966505,130.3189162722379 129.42756106849404,130.7506664490504 129.33006909308537,131.08492465045424 129.35792394320129,131.29383602633152 129.5529078940206,131.6141668026764 130.0960774713017,132.18519123007442 130.69495674881662,132.68657853217968 130.86208584951802,132.89548990805696 130.90386812469487,133.17403840922697 130.876013274577,133.46651433545495 130.79244872422527,133.8007725368588 130.69495674881662,134.02361133779402 130.43033567270453,134.3996518143737 129.72003699472202,135.04031336706348 129.41363364343707,135.3745715684673 129.16293999238394,135.6949023448122 128.82868179097912,136.2380719220933 128.4944235895763,136.44698329797058 127.70056036124205,136.79516892443235 127.35237473478026,136.87873347478308 126.1963984549253,136.96229802513477 125.02649475001337,137.15728197595308 124.09335727109561,137.15728197595308 123.89837332027629,137.2408465263038 123.78695391980868,137.49154017735694 123.74517164463381,138.22969370545636 123.64767966922317,138.7310810075616 123.66160709428212,139.35781513519342 123.71731679451592,139.5388716609538 123.82873619498353,139.69207333659728 124.42761547249845,140.09596866329386 124.48332517273226,140.23524291387838 124.48332517273226,140.31880746422908 124.27441379685598,141.11267069256232 124.33012349708979,141.72547739513618 124.3022686469719,142.07366302159798 123.71731679451592,143.39676840215435 123.78695391980868,143.60567977803163 124.13513954627047,144.98449485882182 124.07942984603666,145.13769653446428 123.85659104510144,145.48588216092708 123.4944779935807,145.87585006256472 123.32734889287927,146.11261628855888 123.28556661770243,146.34938251455307 123.32734889287927,147.1153908927694 123.36913116805414,147.25466514335392 123.48055056852175,147.42179424405631 123.80088134486762,147.71427017028432 124.72009139872644,148.31314944779922 125.4721723518858,148.6056253740272 125.54180947717657,148.67526249931996 125.55573690223552,148.74489962461172 125.43039007670896,149.1209401011914 125.02649475001337,149.74767422882323 124.63652684837672,150.62510200750717 124.28834122191294,151.16827158478827 124.16299439638836,151.57216691148486 124.0376475708618,152.3103204395843 123.91230074533524,152.64457864098813 123.39698601817005,153.4523692943803 122.71454219030541,154.0373211468363 122.56134051466096,154.2323050976546 122.47777596431123,154.44121647353188 122.44992111419334,154.83118437516953 122.49170338937019,155.51362820303513 122.39421141395954,156.0707252053752 122.39421141395954,156.2657091561935 122.49170338937019,156.6417496327732 122.70061476524647,157.18491921005332 122.78417931559817,157.86736303791895 122.90952614112473,158.41053261520005 123.25771176758651,159.17654099341738 123.56411511887345,159.65007344540572 123.77302649474973,159.84505739622404 124.14906697132942,160.10967847233513 124.67830912355157,160.33251727327135 125.11005930036507,160.4021543985631 125.8482128284635,160.31858984821238 126.62814863173878,160.3464446983293 127.58914096077443,160.16538817256892 128.1462379631145,160.15146074751098 128.6615526902777,160.2628801479786 129.48327076872783,160.51357379903172 130.45819052282243,160.70855774985003 131.27990860127258,160.95925140090316 131.4748925520919,161.07067080137077 131.62809422773438,161.2099450519553 131.78129590337883,161.41885642783257 132.08769925466575,161.9759534301726 132.3662477558348,162.39377618192717 132.58908655677,162.6166149828624 132.881562482998,162.8394537837986 134.2046678635544,163.66117186224875 134.38572438931476,163.7308089875415 134.9428213916548,163.82830096295018 135.27707959305764,163.9397203634188 136.05701539633293,164.39932539034817 136.29378162232712,164.42718024046508 136.60018497361403,164.38539796529022 137.44975790218206,164.03721233882743 137.79794352864386,163.96757521353567 139.1349763342572,163.9397203634188 138.92606495838092,164.39932539034817 138.32718568086602,165.48566454491038 137.79794352864386,167.0037538762851 137.756161253469,167.21266525216237 137.756161253469,167.4912137533324 137.82579837875977,167.88118165497005 137.93721777922937,168.09009303084633 138.84250040802922,169.2182144605844 139.41352483542823,169.7892388879814 139.8034927370649,170.06778738915142 141.02910614221258,170.7084489418422 141.39121919373332,170.97307001795326 141.61405799466857,171.19590881888848 141.79511452042894,171.47445732005852 142.04580817148207,171.97584462216378 142.21293727218347,172.75578042543907 142.2686469724173,173.34073227789503 142.43577607311872,173.46607910342158 143.34105870192056,174.0649583809365 143.84244600402678,174.3435068821065 144.92878515858703,174.71954735868522 146.69756814101584,175.1512975354987 147.0318263424187,175.30449921114118 147.07360861759355,175.37413633643393 147.07360861759355,175.4716283118436 146.8229149665424,175.7501768130136 146.40509221478786,176.0426527392416 144.24634133072237,177.03149991839416 143.31320385180265,177.35183069473905 142.0318807464231,177.6303791959081 141.6001305696096,177.75572602143464 140.91768674174497,178.08998422283847 140.1934606387035,178.61922637506063 138.43860508133363,179.3434524781021 137.17120940101105,179.7194929546808 136.2659267722112,179.8309123551494 135.95952342092426,179.92840433055807 135.51384581905182,180.2069528317281 134.97067624177072,180.6387030085416 134.0514661879119,181.65540503781006 133.74506283662498,181.94788096403903 132.86763505794104,182.14286491485734 131.79522332843777,182.532832816495 130.70888417387556,182.81138131766502 130.26320657200313,182.9924378434254 129.5807627441385,183.34062346988716 128.46656873945838,183.81415592187554 127.22702790925369,184.20412382351316 126.72564060714943,184.32947064903973 126.4192372558625,184.32947064903973 125.75072085305483,184.23197867363007 124.91507534954575,184.00913987269385 124.62259942331777,183.967357597519 124.27441379685598,183.967357597519 123.67553451934107,184.0230672977528 123.4666231434628,184.00913987269385 123.0070181165334,183.8559381970514 122.1713726130243,183.4520428703548 121.69784016103596,183.36847832000407 121.23823513410656,183.39633317012098 119.34410532615117,183.66095424623205 118.91235514933966,183.81415592187554 118.46667754746721,184.0787769979866 117.95136282030401,184.5662368750339 116.87895109080074,186.0007616560579 116.65611228986552,186.55785865839695 116.47505576410515,187.3795767368471 116.25221696316794,187.79739948860166 115.58370056036027,188.52162559164313 115.08231325825601,189.17621456939185 114.49736140580005,189.74723899678986 114.27452260486284,190.02578749795987 114.10739350416141,190.37397312442167 114.03775637886866,190.6525216255917 114.02382895381169,191.47423970404185 113.91240955334408,192.07311898155675 113.66171590229095,192.5466514335451 113.25782057559536,192.99232903541656 112.97927207442434,193.21516783635278 112.65894129808045,193.3544420869373 112.1575539959742,193.438006637288 111.73973124421966,193.4101517871711 111.73973124421966,193.70262771339907 111.65616669386796,194.0368859148029 111.44725531799168,194.34328926608984 111.25227136717236,194.55220064196712 110.76481149012506,194.8446765681951 109.63669006038799,195.29035417006654 108.480713780535,195.94494314781525 108.07681845383743,196.29312877427705 107.47793917632252,196.93379032696782 107.19939067515348,197.15662912790305 106.9069147489255,197.2819759534296 106.5587291224637,197.37946792883926 105.5559545182532,197.56052445459963 104.76209128991897,197.75550840541794 104.34426853816443,197.89478265600346 104.02393776181854,198.03405690658798 103.68967956041571,198.24296828246526 103.43898590936259,198.43795223328357 103.27185680866116,198.64686360916085 103.2300745334863,198.883629835156 103.34149393395391,199.13432348620816 103.52255045971428,199.30145258690956 104.01001033676158,199.6635656384303 104.16321201240406,199.81676731407376 104.31641368804654,200.05353354006795 104.65067188945136,200.65241281758287 104.94314781567934,201.05630814427946 105.27740601708219,201.33485664544847 105.94592241988985,201.71089712202817 106.04341439530049,201.8501713726127 106.05734182035746,202.045155323431 105.90414014471499,202.61617975082902 105.82057559436329,203.49360752951395 105.58380936836912,204.02284968173612 105.34704314237493,204.343180458081 105.22169631684838,204.44067243349065 105.05456721614695,204.49638213372447 104.35819596322337,204.52423698384138 103.98215548664369,204.59387410913413 102.2551547793917,205.27631793699973 102.01838855339753,205.3459550622925 101.69805777705166,205.30417278711664 101.28023502529712,205.16489853653212 100.3610249714383,204.60780153419208 100.16604102061899,204.59387410913413 99.95712964474271,204.70529350960174 99.67858114357169,205.02562428594663 99.17719384146743,205.9169794896905 99.12148414123361,206.09803601545087 99.12148414123361,206.2373102660354 99.20504869158334,206.44622164191267 99.31646809205095,206.62727816767304 99.49752461781132,206.82226211849135 99.83178281921614,207.07295576954448 100.56993634731458,207.88074642293665 100.62564604754839,207.9921658234043 100.59779119743247,208.075730373755 100.05462162015137,208.28464174963227 99.74821826886443,208.49355312550952 99.56716174310408,208.68853707632886 99.13541156629059,209.31527120396066 98.96828246558916,209.49632772972103 98.28583863772452,209.73309395571522 97.96550786137865,209.9141504814746 97.63124965997581,210.27626353299533 97.31091888362994,210.83336053533537 97.18557205810338,210.95870736086096 96.87916870681644,211.0561993362706 96.4613459550619,211.0840541863875 95.94603122789869,211.09798161144647 95.569990751319,211.04227191121265 95.52820847614414,211.27903813720684 95.41678907567653,211.52973178825897 94.97111147380409,212.1425384908328 94.44186932158193,213.01996626951677 94.23295794570565,213.61884554703167 94.09368369512013,213.8973940482017 93.87084489418491,214.17594254937174 93.60622381807285,214.4127087753659 93.07698166585068,214.6494750013601 92.75665088950481,214.71911212665185 90.63968228061617,214.55198302595042 90.02687557804232,214.59376530112627 89.26086719982598,214.7330395517108 88.968391273598,214.90016865241222 88.75947989771974,215.17871715358223 88.66198792231107,215.42941080463436 88.52271367172555,216.11185463250098 88.36951199608309,216.61324193460624 88.27202002067442,216.82215331048351 88.13274577008892,217.00320983624388 87.82634241880199,217.15641151188734 87.29710026657982,217.29568576247186 86.76785811435767,217.35139546270568 86.14112398672486,217.29568576247186 85.87650291061478,217.30961318752983 85.58402698438678,217.37925031282256 85.43082530874233,217.47674228823223 85.34726075839261,217.61601653881675 85.34726075839261,217.78314563951915 85.40297045862641,217.96420216527855 85.54224470920994,218.1731135411558 85.94614003590752,218.57700886785238 86.53109188836349,218.980904194548 86.74000326423977,219.24552527065907 87.08818889070156,220.33186442522128 87.10211631576051,220.54077580109856 87.0464066155267,220.69397747674202 86.86535008976634,220.83325172732654 86.51716446330454,220.9585985528531 85.02692998204674,221.29285675425695 83.99630052771833,221.58533268048492 83.29992927479475,221.9056634568298 82.71497742233879,222.3374136336433 82.54784832163736,222.420978183994 81.80969479353695,222.61596213481232 81.61471084271763,222.7413089603389 81.21081551602202,223.22876883738618 80.89048473967615,223.52124476361416 79.5255970839449,224.35689026712325 78.74566128066962,224.6632936184102 78.49496762961849,224.83042271911162 78.21641912844747,225.15075349545648 78.10499972797986,225.45715684674343 78.16070942821366,226.71062510200707 78.0910723029209,227.40699635493164 77.91001577716054,227.74125455633447 77.6593221261094,227.97802078232965 77.25542679941182,228.17300473314796 75.96017626897333,228.5072629345518 75.01311136499662,228.63260976007837 74.3585223872479,228.68831946031216 73.71786083455814,228.67439203525322 73.06327185680941,228.57690005984355 72.50617485446936,228.40977095914215 71.8376584516617,228.1033676078552 72.04656982753995,228.47940808443488 72.79865078069734,229.593602089113 73.10505413198428,230.33175561721345 73.18861868233597,230.6103041183825 73.20254610739295,231.19525597083944 73.3278929329195,231.8637723736461 73.3278929329195,232.25374027528375 73.25825580762675,232.8665469778576 73.13290898210217,233.3540068549039 72.85436048093115,234.00859583265265 72.26940862847519,235.01137043686413 71.9769327022472,235.624177139437 71.50340025025885,237.07262934551895 71.3501985746144,237.8107828736194Z"/>
  </g>
</svg>