<?xml version="1.0" encoding="UTF-8" standalone="no"?>
<svg viewBox="0 0 256 208.8308207705194" xmlns="http://www.w3.org/2000/svg">
  <style>
    g.zone {
      fill: lightgray;
      stroke-width: 2;
      stroke-linecap: square;
      stroke-linejoin: bevel;
      stroke-miterlimit: 3;
      stroke-opacity: 0.8;
      stroke: black;
      fill-opacity: 0.3;
    }
  </style>
  <g class="zone" id="zone">
    <path d="M147.53947515354417,188.3050809603586 146.96772752652151,188.47660524846538 146.53891680625551,188.79106644332887 144.33768844221314,191.30675600223273 143.59441652708162,191.9356783919597 142.90831937465035,192.42166387492998 141.87917364600952,192.87906197655016 139.8494695700719,193.36504745952044 138.90608598548346,193.6509212730318 136.4189838079277,194.62289223897238 133.6745951982148,196.39530988274674 131.2160804020112,197.71032942490297 130.61574539363636,198.13914014517098 130.12975991066608,198.62512562814126 129.9868230039094,198.99676158570702 130.07258514796177,199.5685092127297 130.35845896147515,200.16884422110655 130.90161920714567,200.85494137353376 131.87359017308626,201.88408710217865 133.4744835287538,202.99899497487388 134.2463428252375,203.62791736460088 134.9038525963166,204.3140145170301 135.44701284198715,205.08587381351174 135.90441094360528,206.08643216080446 136.13310999441842,206.88687883863827 136.19028475711863,208.60212171971034 136.13310999441842,208.745058626465 136.01876046901387,208.8308207705194 134.16058068118508,208.745058626465 133.16002233389236,208.63070910106046 132.30240089335632,208.43059743160356 129.5008375209391,207.4872138470131 127.3853713009491,206.5152428810725 125.78447794528154,205.6290340591843 124.69815745393642,204.88576214405484 123.92629815745276,204.19966499162558 122.01094360692375,202.2557230597444 121.35343383584461,201.79832495812423 120.41005025125618,201.56962590731516 118.2659966499181,201.39810161920838 116.29346733668478,201.08364042434488 115.29290898939205,200.85494137353376 113.66342825237234,200.31178112786122 113.09168062534967,200.22601898380884 112.49134561697484,200.25460636515893 111.69089893913902,200.51189279732017 110.97621440535966,201.05505304299274 110.40446677833698,201.6839754327197 109.71836962590571,202.71312116136255 109.23238414293542,203.7422668900054 109.14662199888303,204.54271356783917 109.31814628699186,205.51468453377976 109.26097152428757,205.74338358459087 109.0322724734785,205.88632049134551 108.71781127861703,205.88632049134551 108.40335008375152,205.74338358459087 108.17465103294245,205.54327191513192 107.54572864321547,204.65706309324372 107.14550530429757,204.42836404243465 106.65951982132728,204.28542713567796 106.37364600781797,204.3140145170301 106.03059743160436,204.42836404243465 104.97286432160733,205.25739810161855 104.68699050809802,205.40033500837524 104.31535455053226,205.42892238972738 103.17185929648285,205.17163595756617 101.82825237297651,204.97152428810722 100.05583472920011,204.08531546622103 99.3697375767729,203.9137911781122 98.56929089894115,203.94237855946434 97.19709659408267,204.17107761027344 95.22456728084936,204.3711892797324 93.68084868788203,204.3997766610825 92.53735343383667,204.28542713567796 91.13657174762604,203.88520379676208 89.39274148520586,203.05616973757617 88.87816862088341,202.68453378001243 86.13378001116644,200.36895589056348 85.04745951982132,199.62568397543401 82.90340591848323,198.33925181462993 81.90284757119049,197.4816303740939 80.47347850362772,195.85214963707418 79.81596873255265,195.33757677275378 78.72964824120753,194.7372417643769 78.01496370742817,194.27984366275876 77.50039084310572,193.76527079843632 76.35689558905631,192.36448911222772 74.87035175879329,191.02088218872137 73.84120603015246,190.24902289223974 72.98358458961641,189.76303740926946 71.43986599664909,189.3914014517037 70.86811836962642,189.19128978224475 69.75321049692914,188.47660524846538 69.12428810720218,188.1621440536019 68.58112786153164,187.9906197654951 67.86644332774821,187.93344500279284 67.38045784477792,187.9906197654951 66.86588498045955,188.1621440536019 66.29413735343282,188.47660524846538 65.49369067560106,189.0769402568402 64.97911781127863,189.59151312116063 64.00714684533804,190.76359575656016 63.692685650476584,190.935120044669 63.20670016750629,190.99229480737125 61.11982132886844,190.64924623115562 59.7762144053621,190.59207146845336 57.08900055834942,190.27761027358986 54.144500279175524,189.5629257398105 53.40122836404401,189.50575097710825 51.543048576215234,189.53433835845834 49.7134561697386,189.36281407035156 48.34126186488011,189.04835287548806 45.88274706867651,188.13355667224974 45.05371300949261,187.93344500279284 42.995421552206906,187.76192071468398 38.96460078168789,187.61898380792934 37.792518146286326,187.4188721384704 37.07783361250696,187.04723618090463 36.04868788386208,186.1896147403686 35.41976549413916,185.8751535455051 34.87660524846457,185.76080402010055 34.10474595198091,185.7036292573983 32.84690117253102,185.84656616415498 32.50385259631335,184.81742043551213 31.903517587938527,183.73109994416498 31.360357342268,183.04500279173573 30.588498045784338,182.30173087660626 29.673701842548052,181.58704634282486 28.215745393633117,180.64366275823642 25.042546063650146,179.01418202121673 16.86655499720758,175.41217197096572 14.122166387494664,174.29726409826844 11.520714684534372,173.41105527638229 6.031937465104481,171.92451144611925 4.631155778893843,171.43852596314898 3.258961474035355,170.809603573422 1.8581797878287798,169.89480737018368 0.971970965940583,168.95142378559524 0.34304857621360646,167.89369067560025 0.0285873813521495,166.6930206588506 0,165.60670016750345 0.228699050809071,164.20591848129484 0.8004466778317484,162.77654941373612 1.6294807370197089,161.37576772752752 2.7443886097169767,159.8892238972645 4.402456728084773,158.0310441094357 6.003350083752332,156.43015075376815 7.547068676715592,155.17230597431623 8.547627024008325,154.54338358458924 9.548185371301058,154.05739810161896 10.691680625350475,153.65717476270308 11.978112786152515,153.34271356783958 13.40748185371124,153.14260189838063 14.836850921274026,153.0282523729761 19.782467895029328,152.91390284757156 22.240982691232933,152.77096594081488 23.327303182578053,152.59944165270807 24.585147962032007,152.31356783919674 25.58570630932474,151.99910664433327 26.52908989391317,151.59888330541534 27.30094919039683,151.1414852037972 27.92987158012381,150.68408710217705 28.64455611390317,149.9979899497498 29.073366834169164,149.4834170854274 29.845226130652826,148.28274706867774 31.53188163037277,145.0809603573426 32.303740926856435,143.9374651032952 33.21853713009678,142.85114461194806 34.27627024008975,141.8791736460075 35.39117811278702,141.02155220547144 36.87772194305004,140.1067560022331 38.13556672249993,139.44924623115602 40.679843662759986,138.39151312116104 48.39843662758441,135.6471245114461 50.170854271356745,135.10396426577353 51.74316024567215,134.7609156895599 53.37264098269186,134.6751535455055 54.887772194302975,134.7609156895599 60.40513679508501,135.7328866555005 63.03517587939746,135.96158570630956 64.86476828587408,135.96158570630956 66.15120044667613,135.84723618090504 68.52395309882735,135.36125069793474 70.06767169179061,134.90385259631458 72.21172529313276,134.04623115577851 76.04243439419486,132.30240089335632 77.92920156337172,131.35901730876586 79.3871580122826,130.47280848687967 80.41630374092748,129.72953657174816 81.5026242322726,128.72897822445543 82.47459519821318,127.61407035175817 83.4751535455059,126.04176437744276 84.44712451144649,123.9548855388049 87.13433835845917,115.80748185371246 87.53456169737707,114.09223897264036 87.62032384142945,113.40614182021315 87.53456169737707,112.40558347292041 87.22010050251156,111.14773869346647 86.70552763818911,110.14718034617576 85.79073143495283,109.00368509212838 84.73299832495987,108.03171412618576 83.67526521496283,107.23126744835402 81.53121161362475,106.03059743160233 76.24254606365177,103.57208263539873 74.69882747068851,102.77163595756494 72.92640982691212,101.7424902289221 71.81150195421485,100.97063093244046 70.81094360692212,100.17018425460668 69.52451144612007,98.94092685650487 68.60971524287973,97.88319374650987 67.75209380234368,96.62534896705796 67.00882188721218,95.22456728084936 66.23696259073257,93.16627582356162 65.69380234505799,91.10798436627591 65.26499162479199,88.59229480737004 64.7790061418217,84.59006141820318 64.46454494695618,80.50206588497986 64.43595756560403,78.58671133445084 64.63606923506501,74.84176437744317 64.55030709101263,73.15510887772119 64.3216080401995,72.29748743718514 64.03573422669018,71.63997766610805 63.46398659966345,70.66800670016747 62.720714684531934,69.7817978782813 64.12149637074258,68.46677833612507 65.26499162479199,67.60915689558902 66.43707426018949,66.95164712451194 67.69491903964345,66.55142378559403 69.03852596314978,66.32272473478496 70.32495812395183,66.35131211613711 70.92529313232666,66.29413735343483 73.06934673366881,65.72238972641013 75.78514796203363,65.29357900614211 78.10072585148055,65.26499162478996 80.30195421552294,64.95053042992647 82.76046901172654,64.86476828587408 85.90508096035737,64.52171970965844 85.99084310440975,63.66409826912443 86.19095477387073,63.03517587939746 86.79128978224556,61.97744276940245 87.734673366834,60.7767727526528 88.0777219430476,60.20502512562809 88.33500837520882,59.49034059184873 88.5637074260179,58.03238414293786 88.87816862088341,57.14617532104966 89.73579006141946,55.37375767727529 90.47906197655097,54.51613623673925 90.70776102736005,54.17308766052564 91.22233389168248,52.28632049134471 91.76549413735302,50.685427135679184 93.1376884422115,48.34126186488011 93.68084868788203,47.08341708542616 94.48129536571784,44.02456728084773 94.79575656057929,42.1949748743711 95.02445561139243,41.59463986599627 95.53902847571081,40.594081518705565 95.6819653824675,40.05092127303098 95.93925181462872,37.73534338358405 95.88207705192848,36.677610273591085 95.71055276381965,35.448352875489284 96.99698492462169,35.61987716359609 97.76884422110534,35.56270240089382 98.36917922948017,35.41976549413713 98.88375209380261,35.21965382467818 99.48408710217744,34.848017867112425 99.8557230597432,34.50496929089882 100.22735901730896,34.01898380792853 100.51323283082232,33.36147403685143 100.71334450027925,32.64678950307004 101.22791736460168,28.558793969848754 101.59955332216744,26.672026800669855 101.99977666108535,25.18548297040683 102.68587381351256,23.327303182580085 103.51490787269645,21.440536013401186 104.48687883863704,19.496594081517987 107.51714126186332,14.093579006142514 110.09000558347147,9.205136795087451 111.43361250697781,7.232607481854135 112.77721943048414,5.717476270240994 114.57822445561268,4.145170295923553 116.35064209938501,2.9159128978217486 117.98012283640473,2.0582914572857014 120.06700167504258,1.2292573981018033 122.63986599665071,0.5717476270247087 125.01261864879788,0.20011166945895273 126.72786152986997,0.05717476270226775 128.78615298715974,0 131.10173087660667,0.05717476270226775 133.38872138470143,0.2858738135113387 134.98961474036898,0.5431602456725592 137.01931881630253,0.9433835845904647 138.79173646007894,1.4007816862086067 141.25025125628255,2.1440536013401186 144.02322724734762,3.1160245672807014 147.0534896705739,4.3452819653825046 155.82981574539534,8.290340591847105 160.40379676158489,10.234282523730302 163.60558347292002,11.492127303182222 175.2978224455632,15.865996649916877 178.98559463986456,17.466890005584435 181.78715801228583,18.95343383584543 183.5881630374103,20.01116694584043 185.33199329983458,21.183249581239966 189.2198771635969,24.070575097711597 191.6783919598005,26.1288665549973 197.53880513679616,31.417532104970267 198.71088777219364,32.38950307091085 199.65427135678615,33.04701284198794 200.3975432719136,33.47582356225597 201.25516471244964,33.847459519821726 201.79832495812423,33.990396426576375 201.6268006700154,35.848576214405156 201.4266890005585,36.763372417643474 201.4266890005585,36.96348408710242 201.56962590731516,37.220770519263645 202.02702400893332,37.5924064768294 203.3420435510875,38.450027917365446 203.5993299832487,38.764489112226904 203.94237855946233,39.393411501953885 204.79999999999836,39.79363484087179 205.74338358459087,40.479731993299 206.3437185929657,41.10865438302598 206.94405360134053,41.93768844221191 207.74450027917229,42.680960357341384 209.51691792294866,43.995979899497605 211.11781127861622,44.91077610273592 211.46085985482983,45.168062534897146 213.26186487995432,46.82613065326697 214.9485203796783,48.59854829704133 215.80614182021438,49.34182021217285 218.69346733668397,51.28576214405401 219.2080402010064,51.71457286432204 220.06566164154245,52.62936906756035 220.72317141261752,53.629927414853086 221.4092685650488,55.459519821329714 221.8952540480191,56.488665549972566 222.69570072585083,58.461194863205876 222.9243997766599,58.861418202121754 223.26744835287758,59.20446677833536 224.58246789503175,59.97632607481902 226.29771077610386,61.23417085427094 226.95522054717893,61.863093243997916 228.09871580122834,63.20670016750426 228.78481295365555,63.54974874371786 230.32853154662288,63.864209938581354 231.10039084310654,64.12149637074258 234.50228922389857,65.72238972641013 236.8178671133455,66.49424902289176 238.30441094360853,67.23752093802328 238.84757118927905,67.43763260748223 239.90530429927608,67.60915689558902 243.79318816303842,67.72350642099357 247.36661083193928,68.06655499720921 247.59530988274835,68.26666666666613 249.6821887213862,69.46733668341781 250.9972082635404,70.98246789503095 252.2264656616422,72.09737576772822 254.68498045784582,73.78403126744817 255.68553880513855,75.04187604690212 255.8570630932433,75.41351200446584 256,75.89949748743817 255.94282523729976,76.32830820770619 255.77130094919093,76.72853154662207 254.99944165270728,77.67191513121253 253.3985482970397,79.27280848687806 252.74103852596465,80.04466778336172 251.68330541596762,81.64556113902928 251.0829704075928,82.87481853713108 250.911446119488,83.61809045226056 250.911446119488,84.16125069793515 251.5975432719152,85.87649357900725 251.79765494137214,86.81987716359568 251.7404801786719,87.4202121719705 251.5975432719152,88.07772194304964 251.340256839754,88.62088218872219 250.96862088218825,89.10686767169248 250.08241206030004,88.10630932439975 248.48151870463656,86.64835287548888 248.08129536571866,86.44824120602992 247.5667225013962,86.27671691792312 246.4232272473468,86.21954215522085 245.53701842546266,86.36247906197754 244.87950865438353,86.64835287548888 244.39352317141325,87.01998883305463 243.65025125628173,87.82043551088842 243.22144053601573,88.04913456169749 241.8778336125094,88.30642099385871 239.84812953657178,88.84958123953126 237.78983807928608,88.84958123953126 235.21697375767795,89.10686767169248 234.61663874930312,89.3069793411494 233.5589056393061,89.7929648241197 233.1300949190401,90.07883863763307 233.01574539363554,90.25036292573986 232.95857063093126,90.50764935790109 232.9871580122834,90.90787269681697 233.50173087660585,93.10910106085935 233.4731434952537,93.65226130653191 233.24444444444464,94.08107202679993 232.95857063093126,94.33835845896115 231.87225013958613,94.93869346733598 230.50005583472765,95.99642657733098 229.38514796203444,96.65393634840808 229.12786152987323,96.91122278056929 228.41317699609385,97.91178112786203 227.84142936906713,98.4835287548847 226.6121719709653,99.62702400893413 225.18280290340658,100.48464544947016 223.3817978782821,102.19988833054227 223.06733668341658,102.62869905081028 222.9243997766599,103.02892238972616 222.75287548855513,104.91568955890506 222.52417643774606,105.40167504187535 222.20971524288055,105.80189838079326 221.86666666666693,106.08777219430459 221.23774427693996,106.34505862646581 219.75120044667693,106.60234505862704 219.23662758235855,106.77386934673385 218.60770519263158,107.08833054159733 218.09313232830914,107.54572864321547 218.03595756560483,107.80301507537669 218.3218313791182,108.14606365159233 218.55053042992728,108.6892238972649 219.03651591289758,110.46164154103926 220.1228364042427,112.29123394751588 220.29436069235152,113.86353992183129 220.608821887213,115.69313232830793 221.2663316582921,117.43696259073216 221.72372975991024,119.23796761585665 222.06677833612386,120.26711334449949 222.06677833612386,120.78168620882194 221.80949190396265,122.068118369626 221.80949190396265,122.63986599665071 221.92384142937124,123.29737576772781 222.52417643774606,125.55577889447247 222.49558905639392,127.49972082635364 222.724288107203,129.75812395309828 222.55276381909414,131.61630374092707 222.20971524288055,132.75979899497446 221.72372975991024,133.50307091010598 220.09424902289462,135.21831379117805 219.1508654383021,136.44757118927987 218.69346733668397,137.33378001116807 218.29324399776607,138.82032384142906 218.00737018425676,139.27772194304922 217.80725851479576,139.42065884980389 217.43562255723,139.53500837521045 217.00681183696403,139.56359575656057 216.29212730318466,139.50642099385828 215.00569514237856,139.19195979899482 211.03204913456383,138.07705192629754 210.4603015075371,137.9341150195429 209.9743160245668,137.9341150195429 209.45974316024436,138.04846454494742 209.2024567280872,138.1914014517041 207.74450027917229,139.24913456169708 206.88687883863622,139.73512004466738 205.9434952540478,140.1639307649354 205.2002233389163,140.33545505304218 204.19966499162354,140.4212171970966 202.42724734785122,140.1639307649354 200.28319374650906,140.22110552763766 198.42501395868436,140.13534338358528 196.65259631490795,140.50697934115104 194.2226689000565,140.62132886655556 192.5074260189844,140.93579006141906 191.363930764935,141.27883863763267 190.3919597989944,141.8219988833052 186.99006141820237,144.16616415410428 186.2182021217187,144.9094360692358 184.9889447236169,146.4817420435512 184.76024567280783,146.85337800111697 184.70307091010758,147.25360134003284 184.78883305415997,147.68241206030086 185.4463428252391,149.2833054159684 185.56069235064365,149.82646566164098 185.56069235064365,150.54115019542238 185.33199329983458,151.17007258514732 184.90318257956451,151.74182021217203 184.2170854271373,152.48509212730355 181.67280848687724,154.71490787269605 180.61507537688428,156.34438860971576 179.78604131770038,157.28777219430418 177.29893914014463,159.37465103294204 176.5556672250131,160.17509771077582 176.15544388609928,160.71825795644838 175.44075935231584,162.00469011725247 175.26923506421107,162.49067560022274 175.21206030150677,163.31970965940866 175.15488553880652,163.49123394751547 174.9833612506977,163.63417085427216 174.44020100502718,163.77710776102683 172.95365717476415,163.51982132886764 171.86733668341904,163.5769960915699 171.18123953098777,163.77710776102683 169.95198213288595,164.43461753210593 169.40882188721542,164.63472920156286 166.80737018425512,164.89201563372407 166.03551088777147,165.09212730318305 164.49179229480822,165.6352875488556 163.9486320491336,165.74963707426014 162.49067560022274,165.77822445561227 160.03216080401913,165.57811278615333 159.0316024567264,165.66387493020775 157.97386934673344,165.89257398101682 157.14483528754954,166.2070351758803 156.40156337241802,166.6930206588506 154.7720826353983,168.37967615857053 154.2575097710759,169.03718592964765 153.05683975432623,168.57978782802948 151.77040759352417,168.23673925181384 150.42680067001785,168.03662758235694 148.94025683975482,167.95086543830251 147.62523729760062,168.03662758235694 146.31021775544238,168.265326633166 145.13813512004486,168.63696259073177 144.0804020100519,169.0657733109998 143.65159128978186,169.323059743161 142.73679508654556,170.0663316582925 142.1078726968186,170.66666666666734 141.65047459520045,171.26700167504217 141.22166387493039,172.15321049692832 140.96437744276918,173.0965940815188 140.85002791736463,174.18291457286392 140.90720268006893,175.32640982691333 141.0787269681737,176.32696817420404 141.36460078168707,177.4132886655512 141.76482412060497,178.44243439419404 142.33657174762766,179.78604131770038 143.07984366275917,181.15823562255684 144.42345058626552,183.44522613065365 147.53947515354417,188.3050809603586Z"/>
  </g>
</svg>