<?xml version="1.0" encoding="UTF-8" standalone="no"?>
<svg viewBox="0 0 256 101.2771929824554" xmlns="http://www.w3.org/2000/svg">
  <style>
    g.zone {
      fill: lightgray;
      stroke-width: 2;
      stroke-linecap: square;
      stroke-linejoin: bevel;
      stroke-miterlimit: 3;
      stroke-opacity: 0.8;
      stroke: black;
      fill-opacity: 0.3;
    }
  </style>
  <g class="zone" id="zone">
    <path d="M207.97754385965058,58.66666666666593 208.1122807017555,58.59929824561346 208.87578947368516,58.34105263157858 209.0891228070176,58.21754385964864 209.65052631579061,57.68982456140306 210.44771929824608,56.8140350877193 210.6385964912285,56.66807017543854 210.93052631579002,56.48842105263114 211.31228070175484,56.331228070175364 211.79508771929878,56.20771929824543 212.1768421052636,56.14035087719295 213.23228070175475,56.01684210526302 213.70385964912288,55.89333333333308 214.35508771929918,55.556491228069916 215.2870175438596,55.01754385964852 217.24070175438698,54.16421052631558 218.11649122807154,53.87228070175406 218.29614035087812,53.73754385964911 218.45333333333468,53.47929824561343 218.5543859649122,53.367017543859305 218.95859649122866,53.20982456140353 219.16070175438688,53.17614035087689 219.4414035087726,53.19859649122772 219.85684210526324,53.299649122806834 220.57543859649124,53.58035087719254 220.95719298245606,53.70385964912248 221.42877192982576,53.78245614035076 221.74315789473732,53.905964912280695 222.04631578947465,54.16421052631558 222.94456140350923,55.17473684210509 223.3712280701757,55.59017543859575 223.57333333333392,55.713684210525685 223.84280701754383,55.8147368421048 224.47157894736853,55.938245614034734 225.05543859649157,55.98315789473638 225.83017543859702,56.09543859649051 226.5375438596492,56.34245614035038 227.22245614035134,56.656842105262726 227.51438596491286,56.757894736841834 228.52491228070238,56.611929824561074 229.23228070175455,56.58947368421025 229.93964912280833,56.49964912280695 230.2764912280715,56.49964912280695 230.5459649122814,56.53333333333279 230.93894736842202,56.67929824561355 231.50035087719345,56.99368421052589 233.07228070175438,57.56631578947312 234.49824561403614,57.858245614034644 235.04842105263177,57.99298245613959 235.39649122807074,58.09403508771871 236.04771929824705,58.3635087719294 236.76631578947504,58.5431578947368 237.09192982456238,58.59929824561346 237.83298245614043,58.6329824561401 238.9108771929832,58.92491228070162 239.01192982456232,59.46385964912221 239.23649122807055,60.12631578947354 239.50596491228205,60.68771929824496 240.28070175438592,62.14736842105256 240.47157894736833,62.58526315789405 240.60631578947488,63.0007017543855 240.729824561404,63.53964912280689 240.78596491228146,64.07859649122749 240.87578947368476,65.93122807017492 240.95438596491226,66.86315789473615 241.1789473684221,68.24421052631547 241.40350877193035,69.20982456140334 241.69543859649187,70.15298245614036 242.0098245614034,70.9950877192975 242.38035087719402,71.74736842105213 242.9080701754396,72.61192982456087 244.2778947368423,74.46456140350831 244.88421052631696,75.43017543859618 245.42315789473676,76.51929824561397 246.28771929824552,78.69754385964877 246.69192982456195,79.58456140350835 247.23087719298334,80.58385964912205 247.84842105263223,81.50456140350826 248.7354385964926,82.64982456140352 249.80210526315798,83.83999999999962 250.7452631578958,84.78315789473666 253.3726315789479,87.25333333333298 254.24842105263247,88.14035087719256 254.84350877192972,88.79157894736807 255.2701754385978,89.31929824561365 255.59578947368516,89.80210526315759 255.83157894736922,90.2624561403507 255.95508771929835,90.6442105263155 256,90.9136842105262 256,91.22807017543855 255.93263157894833,91.50877192982426 255.79789473684338,91.7333333333333 255.59578947368516,91.94666666666654 255.3712280701753,92.08140350877149 255.10175438596542,92.17122807017479 254.8322807017555,92.21614035087644 254.40561403508903,92.22736842105225 254.0014035087726,92.1824561403506 253.49614035087865,92.08140350877149 252.94596491228143,91.89052631578907 252.14877192982595,91.51999999999927 250.75649122807164,90.68912280701716 250.34105263157937,90.46456140350811 249.79087719298377,90.25122807017488 249.24070175438655,90.13894736842076 248.8252631578959,90.13894736842076 248.35368421052618,90.20631578947322 248.0056140350888,90.30736842105235 247.57894736842232,90.48701754385894 247.2645614035092,90.66666666666633 246.86035087719435,90.94736842105205 246.52350877193118,91.2617543859644 246.20912280701802,91.62105263157838 245.93964912280813,92.07017543859648 245.78245614035157,92.47438596491212 245.72631578947409,92.93473684210522 245.78245614035157,93.35017543859588 245.95087719298235,93.76561403508734 246.23157894736966,94.19228070175382 247.60140350877236,95.77543859649056 248.16280701754377,96.50526315789436 248.48842105263273,97.02175438596413 248.83649122807012,97.71789473684208 249.0049122807025,98.1782456140344 249.11719298245742,98.6273684210525 249.1733333333333,98.98666666666648 249.1733333333333,99.28982456140302 249.13964912280744,99.58175438596454 249.04982456140417,99.89614035087689 248.9150877192992,100.14315789473676 248.7242105263168,100.367719298245 248.49964912280694,100.5473684210524 248.26385964912288,100.67087719298233 247.88210526315808,100.81684210526309 247.4666666666674,100.92912280701722 246.47859649122952,101.06385964912218 245.2771929824576,101.10877192982382 234.7115789473686,101.09754385964881 208.05614035087805,101.23228070175375 196.94035087719342,101.22105263157874 193.07789473684358,101.2771929824554 192.67368421052714,101.25473684210458 192.14596491228156,101.19859649122792 191.66315789473762,101.08631578947299 191.2814035087728,100.95157894736805 190.87719298245636,100.71578947368398 190.68631578947395,100.5361403508766 190.56280701754483,100.367719298245 190.46175438596572,100.1768421052626 190.34947368421078,99.88491228070107 190.04631578947505,98.58245614035084 189.77684210526354,97.87508771929787 189.5635087719311,97.48210526315724 189.30526315789544,97.11157894736823 189.00210526315811,96.75228070175423 188.65403508772073,96.41543859649106 188.1038596491235,95.97754385964878 187.56491228070212,95.61824561403478 186.8238596491241,95.20280701754332 184.79157894736926,94.12491228070134 184.1178947368429,93.7207017543857 183.30947368421164,93.14807017543846 180.16561403508817,90.79017543859626 179.1887719298245,90.01543859649082 178.48140350877233,89.33052631578947 178.178245614035,88.98245614035048 177.9200000000009,88.60070175438567 177.6392982456152,88.11789473684173 177.3585964912295,87.51157894736787 177.14526315789547,86.91649122806982 176.95438596491306,86.16421052631519 176.89824561403557,85.65894736842043 176.88701754385977,85.06385964912238 176.95438596491306,84.41263157894686 177.1789473684213,82.97543859649087 177.20140350877293,82.50385964912276 177.1789473684213,81.85263157894724 176.9992982456147,80.76350877192944 176.69614035087736,79.34877192982428 176.40421052631584,78.2596491228065 176.13473684210595,77.46245614035021 175.80912280701858,76.71017543859638 175.30385964912304,75.76701754385934 174.78736842105326,74.92491228070142 174.12491228070274,73.92561403508772 172.6203508771935,71.74736842105213 171.50877192982486,70.19789473684202 170.47578947368532,68.8168421052627 169.824561403509,68.0084210526314 168.84771929824691,66.93052631578942 168.15157894736896,66.24561403508727 167.65754385964922,65.81894736842081 167.14105263157944,65.40350877192934 166.51228070175478,64.94315789473625 165.56912280701852,64.39298245613983 164.8056140350889,64.02245614035083 163.88491228070268,63.640701754385205 161.94245614035114,62.96701754385966 160.8084210526325,62.6414035087715 159.78666666666717,62.37192982456081 158.93333333333422,62.1810526315784 158.20350877193042,62.05754385964846 157.29403508772003,61.94526315789434 156.49684210526453,61.88912280701688 155.57614035087832,61.866666666666056 154.5431578947372,61.90035087719269 153.76842105263174,61.978947368420975 152.93754385965042,62.13614035087675 152.25263157894827,62.30456140350834 151.466666666667,62.57403508771903 150.97263157894886,62.787368421052264 150.51228070175497,63.03438596491214 150.0743859649127,63.30385964912204 149.71508771929948,63.584561403508545 149.07508771929898,64.20210526315742 147.5480701754397,66.0098245614032 146.69473684210675,66.86315789473615 146.16701754385957,67.30105263157843 145.76280701754473,67.60421052631577 145.10035087719422,68.04210526315725 144.2919298245629,68.52491228070117 143.3600000000009,69.0077192982451 142.22596491228066,69.5466666666665 141.2715789473686,69.93964912280633 140.36210526315818,70.25403508771868 139.67719298245765,70.43368421052608 138.7452631578956,70.60210526315767 137.8133333333336,70.69192982456096 136.94877192982483,70.70315789473678 135.65754385964962,70.59087719298185 134.78175438596506,70.44491228070109 133.88350877193048,70.25403508771868 131.649122807019,69.65894736842063 127.78666666666756,68.50245614035036 126.80982456140389,68.2666666666663 125.88912280701767,68.09824561403471 124.71017543859737,67.96350877192975 123.11578947368483,67.88491228070147 121.49894736842225,67.88491228070147 119.6350877192982,67.9971929824556 118.96140350877346,68.01964912280643 118.186666666668,67.97473684210478 117.43438596491258,67.83999999999982 116.65964912280712,67.60421052631577 115.89614035087749,67.2673684210526 115.3571929824561,66.97543859649107 113.53824561403529,65.88631578947327 112.31438596491334,65.23508771929777 111.67438596491284,64.97684210526288 110.95578947368485,64.78596491228046 110.38315789473762,64.71859649122798 109.70947368421128,64.70736842105218 107.23929824561417,64.96561403508706 106.28491228070212,64.9992982456137 105.33052631579007,64.94315789473625 104.44350877193128,64.78596491228046 103.87087719298246,64.61754385964888 103.25333333333357,64.40421052631565 101.10877192982542,63.49473684210525 100.3677192982458,63.202807017543726 98.23438596491346,62.551578947368206 97.53824561403549,62.29333333333332 97.06666666666737,62.07999999999929 96.59508771929926,61.79929824561358 95.07929824561418,60.77754385964906 94.54035087719438,60.440701754385884 93.83298245614061,60.115087719297726 93.1929824561417,59.912982456140305 92.59789473684286,59.87929824561367 91.89052631579068,59.87929824561367 89.22947368421116,60.13754385964855 85.60280701754536,60.21614035087684 84.80561403508828,60.2722807017543 84.15438596491357,60.35087719298179 83.14385964912405,60.5417543859642 81.99859649122959,60.81122807017489 80.47157894736871,61.23789473684136 76.83368421052711,62.327017543859164 75.87929824561506,62.58526315789405 74.79017543859646,62.832280701753916 73.40912280701795,63.056842105262966 72.20771929824603,63.1803508771929 71.29824561403562,63.202807017543726 70.78175438596585,63.16912280701709 70.41122807017685,63.12421052631544 69.89473684210549,62.97824561403468 69.46807017543901,62.753684210525634 69.12000000000003,62.472982456139924 68.76070175438683,62.03508771929764 68.5473684210528,61.61964912280698 68.39017543859782,61.19298245613972 68.0870175438605,59.755789473683734 67.95228070175554,59.261754385964785 67.77263157894735,58.84631578947333 67.51438596491326,58.442105263157686 67.17754385965009,58.11649122806953 66.80701754386108,57.89192982456128 66.24561403508807,57.68982456140306 65.8189473684216,57.622456140350586 65.41473684210675,57.67859649122805 64.96561403508866,57.80210526315719 64.67368421052714,57.91438596491211 64.34807017543977,58.08280701754369 63.75298245614093,58.53192982456098 62.76491228070304,59.49754385964885 62.30456140350913,59.89052631578948 61.66456140351023,60.294736842105124 61.204210526316324,60.49684210526255 60.833684210527316,60.6315789473683 60.115087719299325,60.8224561403507 59.39649122807133,60.945964912280644 58.61052631579007,61.03578947368394 56.40982456140445,61.215438596490536 54.79298245614187,61.47368421052622 52.727017543861194,61.90035087719269 51.75017543859752,62.13614035087675 51.11017543859702,62.34947368420998 50.50385964912395,62.630175438596495 50.22315789473824,62.8210526315789 49.942456140350934,63.079298245613785 49.70666666666688,63.39368421052613 49.58315789473774,63.66315789473683 49.47087719298282,64.16842105263159 49.44842105263279,65.41473684210516 49.381052631579514,66.02105263157823 49.29122807017622,66.3691228070172 49.15649122807127,66.76210526315784 48.97684210526467,67.14385964912266 48.78596491228226,67.46947368421002 48.49403508772074,67.88491228070147 48.24701754386087,68.17684210526299 47.94385964912354,68.49122807017534 47.584561403508744,68.80561403508769 47.22526315789555,69.06385964912258 46.86596491228075,69.28842105263082 46.43929824561428,69.50175438596486 45.97894736842198,69.69263157894726 45.21543859649233,69.92842105263132 44.44070175438688,70.07438596491208 43.587368421053945,70.15298245614036 42.71157894736938,70.16421052631539 41.498947368421646,70.08561403508709 39.33192982456186,69.80491228070139 38.47859649122893,69.7263157894731 35.26736842105379,69.61403508771897 34.50385964912415,69.50175438596486 33.9087719298253,69.34456140350828 33.40350877193134,69.13122807017504 32.93192982456162,68.80561403508769 32.718596491229185,68.60350877192947 32.53894736842259,68.37894736842041 32.24701754386107,67.87368421052567 32.067368421052876,67.34596491228008 31.966315789473764,66.82947368421031 31.898947368422085,66.1782456140348 31.831578947368815,64.93192982456122 31.764210526317136,64.44912280701729 31.685614035088054,64.16842105263159 31.550877192983105,63.85403508771924 31.427368421053966,63.651929824561016 31.191578947369905,63.371228070175306 30.798596491229276,63.02315789473633 30.327017543861157,62.71999999999979 28.71017543859698,61.90035087719269 28.0028070175448,61.50736842105206 27.486315789475032,61.13684210526305 27.1831578947377,60.867368421052355 26.76771929824704,60.42947368421007 26.38596491228222,59.93543859649113 25.08350877193119,57.92561403508712 24.477192982456526,57.083508771929196 23.747368421052723,56.26385964912209 23.230877192982952,55.792280701753974 22.759298245614833,55.410526315789156 22.007017543861004,54.88280701754357 21.20982456140393,54.411228070175454 20.524912280701777,54.05192982456066 18.436491228071077,53.05263157894696 17.459649122807406,52.558596491228016 15.270175438597594,51.31228070175364 13.877894736843263,50.45894736842071 12.362105263158197,49.45964912280701 11.520000000001069,48.830877192982314 10.835087719298917,48.23578947368346 10.13894736842255,47.51719298245547 9.566315789473723,46.821052631578304 9.139649122807253,46.20350877192943 8.656842105263323,45.35017543859649 8.387368421053424,44.69894736842097 8.151578947369364,43.91298245613971 7.848421052632032,42.16140350877138 7.702456140351272,41.55508771929751 7.4554385964914,40.92631578947362 7.107368421054014,40.31999999999975 6.557192982456811,39.702456140350876 6.276491228071102,39.44421052631519 6.0968421052645025,39.30947368421024 5.277192982457401,38.8154385964905 3.6042105263173605,37.96210526315756 3.054035087720157,37.61403508771858 2.750877192982825,37.367017543859504 2.4701754385971153,37.086315789473 2.2231578947372443,36.78315789473646 2.021052631579023,36.468771929824115 1.8526315789482355,36.14315789473676 1.706666666667475,35.69403508771867 1.628070175439987,35.27859649122801 1.6168421052641757,34.84070175438573 1.628070175439987,34.45894736842091 1.6954385964916638,33.95368421052615 2.110877192983918,31.775438596490556 2.1557894736855676,31.202807017543325 2.133333333333945,30.675087719297743 2.065964912282268,30.113684210526326 1.7852631578949631,28.665263157894532 1.6954385964916638,27.93543859649073 1.650526315790014,27.003508771929503 1.6056140350883643,24.40982456140325 1.5494736842109034,23.53403508771869 1.4259649122817657,22.523508771929176 1.2912280701768166,21.759999999999536 1.1340350877202447,21.06385964912237 0.3031578947373321,17.942456140350536 0.1459649122807604,17.201403508771723 0.05614035087746102,16.52771929824538 0,15.820350877192404 0.011228070175811324,14.888421052631179 0.08982456140489499,14.124912280701539 0.21333333333403273,13.462456140350211 0.42666666666806546,12.620350877192283 0.7185964912295862,11.800701754385981 0.9880701754394844,11.171929824561289 1.403508771930143,10.385964912280027 1.7515789473691248,9.824561403508607 2.178245614035595,9.274385964912202 2.6161403508778758,8.847719298244934 3.009122807018507,8.567017543859224 3.3235087719300553,8.39859649122764 3.64912280701901,8.275087719297703 4.087017543859695,8.16280701754358 4.446315789474489,8.129122807016945 5.086315789474991,8.140350877192756 6.489824561403538,8.30877192982434 7.174736842105691,8.364912280701802 7.691228070175461,8.35368421052599 8.162807017545175,8.29754385964853 8.780350877194055,8.140350877192756 9.218245614036336,7.949473684210345 9.667368421052833,7.646315789473013 9.959298245614354,7.331929824560667 10.195087719298414,6.938947368420833 10.374736842106609,6.411228070175253 10.464561403509908,5.8947368421046855 10.52070175438737,5.086315789473396 10.509473684211558,4.221754385964645 10.453333333334097,3.4133333333333544 10.127719298246737,1.0666666666661746 10.037894736843437,0.1010526315783129 19.12140350877323,0 19.5480701754397,0.011228070175013522 19.88491228070287,0.07859649122748806 20.03087719298363,0.17964912280659875 20.16561403508858,0.5277192982455806 20.31157894736934,0.7298245614030042 21.14245614035225,1.5719298245609303 21.35578947368469,1.7178947368416908 22.096842105264304,2.099649122806511 22.22035087719344,2.2007017543856215 22.3663157894742,2.380350877193018 22.815438596492292,3.1663157894734835 23.08491228070219,3.8175438596489997 23.253333333334574,4.67087719298194 23.444210526316986,5.333333333333266 23.578947368421936,5.692631578947262 23.668771929825233,5.816140350877197 23.915789473685106,6.074385964912082 24.398596491229036,6.4673684210519164 24.567017543859823,6.658245614035124 25.016140350877915,7.073684210525783 25.184561403510298,7.365614035087304 25.319298245615247,7.848421052631235 25.42035087719436,8.06175438596447 25.498947368421845,8.16280701754358 25.644912280702606,8.20771929824523 25.99298245614159,8.174035087718593 28.08140350877229,7.657543859648825 28.395789473685433,7.534035087718888 28.94596491228104,7.197192982455718 29.22666666666675,7.084912280701594 29.934035087720524,7.017543859649119 30.652631578948515,6.804210526315087 31.270175438597395,6.7592982456134365 31.831578947368815,6.669473684210137 32.022456140351224,6.624561403508488 32.291929824562715,6.489824561403538 32.41543859649185,6.456140350876902 32.65122807017592,6.489824561403538 32.95438596491325,6.725614035087599 33.11157894736982,6.7592982456134365 33.19017543859731,6.703157894736774 33.65052631578961,6.287719298245317 34.57122807017583,5.569122807017327 34.78456140350986,5.333333333333266 35.00912280701811,4.940350877192635 35.098947368421406,4.828070175438511 35.42456140350877,4.6484210526311145 35.941052631580135,4.53614035087699 36.30035087719333,4.513684210526166 36.59228070175485,4.569824561402829 36.86175438596634,4.6596491228069254 37.3670175438603,4.929122807016824 37.737543859649314,5.153684210525871 37.95087719298334,5.333333333333266 38.11929824561413,5.546666666666502 38.33263157894817,5.973333333332971 38.4561403508773,6.029473684210433 38.714385964912985,6.063157894736271 38.983859649122884,6.029473684210433 39.48912280701843,5.872280701753861 40.072982456141474,5.591578947368151 41.02736842105353,5.086315789473396 41.24070175438597,5.00771929824511 41.37543859649251,5.00771929824511 41.498947368421646,5.063859649122571 42.2736842105271,5.782456140350561 42.39719298245624,5.849824561403036 42.53192982456278,5.872280701753861 42.67789473684354,5.816140350877197 43.34035087719407,5.232280701754156 43.68842105263305,5.00771929824511 43.90175438596549,4.929122807016824 44.77754385965005,4.715789473683589 45.61964912280718,4.446315789473691 46.24842105263187,4.378947368420419 47.48350877193123,4.300350877192931 48.10105263158011,4.334035087718769 48.74105263157902,4.277894736842105 49.50456140351025,4.277894736842105 49.92000000000091,4.334035087718769 50.088421052631695,4.401403508771243 50.234385964912455,4.53614035087699 50.56000000000141,5.187368421052507 50.77333333333385,5.479298245614027 51.2785964912294,5.96210526315716 51.82877192982501,6.658245614035124 52.00842105263161,6.804210526315087 52.15438596491237,6.882807017543373 52.40140350877224,6.961403508771658 52.77192982456285,6.983859649122484 53.79368421052657,6.7592982456134365 54.130526315789744,6.725614035087599 54.422456140351265,6.736842105262612 54.545964912281995,6.792982456140073 54.7256140350886,6.916491228070009 55.00631578947431,7.320701754385654 55.1859649122809,7.489122807017239 55.511578947369856,7.724912280701298 55.814736842105596,7.893333333332884 56.12912280701874,7.983157894736183 57.40912280701815,8.005614035087008 57.67859649122805,8.06175438596447 57.86947368421205,8.16280701754358 58.10526315789611,8.376140350876815 58.53192982456258,8.847719298244934 58.89122807017578,9.16210526315728 59.430175438597175,9.49894736842045 59.86807017543945,9.847017543859433 60.77754385964985,10.296140350876726 61.05824561403556,10.487017543859137 61.237894736842165,10.734035087719008 61.327719298247054,10.969824561403067 61.31649122807124,11.553684210526109 61.361403508772895,11.755789473683533 61.496140350877845,11.957894736841755 61.642105263158605,12.08140350877169 61.776842105263555,12.159999999999975 62.057543859649265,12.22736842105245 62.888421052632175,12.216140350876639 63.23649122807116,12.305964912280736 63.438596491229376,12.429473684209874 63.719298245615086,12.732631578947206 64.35929824561559,13.170526315789488 64.58385964912384,13.372631578946912 65.29122807017602,13.305263157894437 65.65052631579081,13.305263157894437 66.11087719298312,13.41754385964856 66.44771929824628,13.563508771929321 66.62736842105289,13.563508771929321 66.84070175438693,13.518596491227672 67.60421052631656,14.192280701754013 67.79508771929898,14.315789473683948 67.98596491228139,14.383157894736422 69.06385964912417,14.517894736841372 70.10807017543952,14.529122807017183 70.46736842105271,14.596491228069658 70.69192982456256,14.697543859648768 70.96140350877246,14.865964912280354 71.92701754386032,15.607017543859168 72.23017543859766,15.764210526315741 72.52210526315918,15.865263157894054 72.69052631578995,15.876491228069865 72.94877192982564,15.80912280701739 73.60000000000036,15.449824561403394 73.88070175438607,15.337543859648473 74.0940350877201,15.292631578946823 74.32982456140417,15.270175438595999 74.58807017543984,15.28140350877181 74.83508771929971,15.348771929824284 75.04842105263215,15.438596491227583 75.5536842105277,15.741754385964915 75.85684210526344,15.94385964912234 76.05894736842167,16.13473684210475 76.22736842105405,16.359298245613797 76.42947368421068,16.70736842105198 76.56421052631721,17.021754385964325 76.86736842105296,18.122105263157934 76.96842105263207,18.391578947367833 77.17052631579028,18.705964912280177 77.33894736842107,18.8182456140351 77.56350877193091,18.863157894736748 78.50666666666716,18.885614035087574 78.7312280701754,18.851929824560937 79.61824561403577,18.57122807017523 79.88771929824567,18.52631578947358 80.05614035087805,18.537543859648594 80.94315789473684,18.795789473683477 81.96491228070217,18.863157894736748 82.91929824561421,19.05403508771916 83.37964912280812,19.256140350876585 84.05333333333445,19.761403508771338 84.34526315789597,19.907368421052098 84.63719298245749,19.907368421052098 85.24350877193056,19.68280701754385 85.46807017543881,19.637894736841403 85.6364912280712,19.649122807017214 85.98456140351018,19.71649122806969 86.55719298245741,19.929824561402924 86.86035087719314,20.00842105263121 87.29824561403542,20.075789473683685 87.96070175438595,20.120701754385333 87.82596491228101,19.795087719297975 87.7361403508777,19.43578947368398 87.70245614035187,19.087719298245 87.74736842105352,18.851929824560937 87.91578947368431,18.582456140350242 88.2750877192991,18.178245614034598 88.56701754386062,17.942456140350536 88.85894736842214,17.785263157894764 89.21824561403534,17.695438596490668 89.5438596491243,17.695438596490668 89.9929824561408,17.762807017543143 90.77894736842205,17.964912280701363 91.11578947368523,17.953684210526347 91.32912280701767,17.897543859648888 91.71087719298248,17.740350877192316 92.02526315789562,17.493333333333243 92.21614035087804,17.39228070175413 93.04701754386095,17.156491228070074 94.20350877193123,16.639999999999507 94.40561403508785,16.606315789473665 94.9108771929834,16.651228070175318 95.39368421052733,16.651228070175318 95.84280701754383,16.62877192982449 96.26947368421189,16.572631578947032 96.7185964912284,16.47157894736792 97.38105263157892,16.258245614034685 97.61684210526458,16.168421052631384 97.84140350877283,16.03368421052564 98.02105263157942,15.820350877192404 98.0884210526327,15.674385964911643 98.12210526315853,15.483508771929234 98.12210526315853,15.337543859648473 97.98736842105359,14.910877192982003 97.96491228070197,14.75368421052623 97.95368421052774,14.574035087718833 98.0098245614036,14.439298245613884 98.0996491228085,14.349473684209787 98.22315789473764,14.282105263157312 98.76210526315903,14.068771929824077 99.04280701754475,13.911578947368303 99.24491228070296,13.709473684210082 99.32350877193045,13.541052631578497 99.34596491228207,13.372631578946912 99.33473684210627,13.204210526315325 99.07649122807058,12.597894736841459 98.98666666666729,12.305964912280736 98.98666666666729,12.103859649122516 99.0877192982464,11.84561403508763 99.22245614035134,11.677192982456045 99.58175438596614,11.351578947367889 99.95228070175514,10.891228070174781 100.13192982456174,10.722807017543197 100.49122807017653,10.565614035087423 101.44561403508858,10.329824561403363 101.69263157894846,10.195087719297616 101.96210526315836,9.723508771929497 102.25403508771988,9.341754385964677 102.42245614035227,9.173333333333092 102.74807017543962,8.915087719298207 102.84912280701873,8.79157894736827 102.90526315789619,8.611929824560875 102.88280701754456,8.218947368421041 102.91649122807041,8.01684210526282 103.06245614035117,7.747368421052124 103.21964912280774,7.635087719297999 103.88210526315827,7.792280701753773 104.87017543859776,7.949473684210345 105.2743859649126,7.983157894736183 106.03789473684225,7.949473684210345 106.4533333333345,8.050526315789456 106.79017543859767,8.20771929824523 107.37403508772071,8.623157894736686 107.90175438596629,8.948771929824044 108.29473684210532,9.285614035087216 108.48561403508774,9.487719298245437 108.99087719298329,10.442105263157487 109.39508771929972,10.947368421052243 109.57473684210633,11.284210526315414 109.63087719298379,11.59859649122776 109.642105263158,12.070175438595879 109.67578947368544,12.40701754385905 109.66456140350962,12.55298245613981 109.61964912280799,12.676491228069745 109.14807017543986,13.383859649122723 108.82245614035091,14.079999999999888 108.68771929824595,14.56280701754382 108.65403508772012,14.776140350877053 108.65403508772012,15.0905263157894 108.71017543859757,15.618245614034981 108.92350877193002,15.831578947368214 109.1817543859657,16.04491228070145 109.97894736842117,16.48280701754373 110.65263157894752,16.931929824561028 111.07929824561398,17.066666666665974 111.49473684210624,17.0891228070168 112.04491228070185,16.999298245613502 112.83087719298311,16.741052631578615 113.15649122807046,16.595087719297855 113.76280701754513,16.19087719298221 114.66105263157972,15.775438596490755 115.31228070175445,15.31508771929765 115.68280701754504,15.101754385964414 115.88491228070328,15.000701754385302 116.2778947368423,14.888421052631179 116.60350877193126,14.832280701753717 117.15368421052686,14.787368421052067 117.95087719298394,14.607719298245469 118.41122807017625,14.551578947368007 119.26456140350919,14.551578947368007 120.4547368421053,14.652631578947119 121.43157894736898,14.641403508771308 121.67859649122884,14.686315789472957 122.0042105263162,14.809824561402893 122.44210526315848,15.0905263157894 122.6329824561409,15.1803508771927 123.21684210526394,15.66315789473663 123.4638596491238,15.95508771929815 123.7221052631579,16.359298245613797 123.84561403508863,16.48280701754373 124.74385964912322,16.96561403508766 125.86666666666765,17.7291228070173 127.13543859649126,18.301754385964532 127.75298245614172,18.548771929824404 128.96561403508787,18.941754385964238 129.6392982456142,19.222456140350744 129.86385964912404,19.28982456140322 130.16701754385977,19.312280701754045 131.25614035087838,19.256140350876585 132.1094736842113,19.065263157894172 132.9066666666668,18.975438596490875 134.06315789473706,18.739649122806814 135.50035087719306,18.369122807017007 136.20771929824681,18.04350877192965 136.8364912280715,17.7291228070173 137.01614035087812,17.58315789473654 137.02736842105392,17.52701754385908 136.99368421052648,17.358596491227495 137.11719298245723,17.22385964912255 137.98175438596598,16.80842105263109 139.05964912280717,16.359298245613797 139.2617543859654,16.23578947368386 139.4526315789478,16.03368421052564 139.5312280701769,15.887719298244878 139.69964912280767,15.41614035087676 139.9242105263159,15.112982456140225 140.31719298245656,14.675087719297943 140.9122807017554,13.866666666666653 141.3726315789477,13.013333333332916 141.41754385964936,12.811228070174694 141.41754385964936,12.642807017543907 141.31649122807025,12.451929824560699 141.0021052631587,12.092631578946703 140.99087719298288,12.002807017543404 141.02456140350873,11.935438596490929 141.23789473684275,11.856842105262643 142.24842105263227,11.677192982456045 142.9108771929828,11.609824561402773 143.24771929824598,11.632280701754395 143.9214035087723,11.834385964911819 144.49403508771954,11.969122807017566 144.7073684210536,12.002807017543404 144.95438596491346,11.98035087719258 145.87508771929967,11.789473684210169 146.6385964912293,11.823157894736806 146.7396491228084,11.800701754385981 146.7508771929826,11.733333333332709 146.95298245614086,11.823157894736806 147.31228070175564,12.036491228070041 147.62666666666718,12.2722807017541 147.88491228070288,12.496842105263147 148.05333333333365,12.698947368420571 148.14315789473696,12.878596491227967 148.22175438596605,13.080701754385391 148.28912280701772,13.765614035087543 148.34526315789518,14.012631578947413 148.4575438596501,14.248421052631473 148.6371929824567,14.472982456139722 148.8392982456149,14.641403508771308 149.08631578947478,14.79859649122788 149.67017543859782,15.068070175438574 149.88350877193028,15.191578947367713 151.2870175438604,16.449122807017094 151.6350877192994,16.70736842105198 152.2638596491241,17.055438596490962 152.8364912280713,17.605614035087367 153.43157894736856,17.998596491228 154.3635087719306,18.369122807017007 155.71087719298328,19.031578947368335 155.95789473684314,19.09894736842081 156.2722807017547,19.143859649122458 156.57543859649203,19.132631578946647 156.84491228070192,19.076491228069983 157.10315789473762,18.986666666666686 157.3614035087733,18.8182456140351 157.642105263159,18.537543859648594 157.8217543859656,18.256842105262884 158.66385964912274,16.392982456139634 158.77614035087765,16.056140350876465 159.06807017543917,14.933333333332827 159.24771929824578,14.484210526315533 159.449824561404,14.158596491227376 159.7305263157897,13.866666666666653 160.49403508771934,13.294035087718624 160.97684210526327,12.78877192982387 161.2800000000006,12.530526315788984 161.62807017543957,12.31719298245575 162.77333333333405,11.74456140350852 163.02035087719392,11.587368421051949 163.24491228070218,11.385263157894524 163.3684210526329,11.228070175437953 163.469473684212,11.037192982455542 163.75017543859772,10.138947368420952 164.03087719298344,9.4540350877188 164.23298245614166,9.07228070175398 164.44631578947408,8.847719298244934 164.6371929824565,8.757894736841635 164.8056140350889,8.73543859649081 165.80491228070258,8.847719298244934 166.51228070175478,8.712982456139985 166.8042105263163,8.69052631578916 167.10736842105362,8.757894736841635 167.66877192982503,9.004912280701506 167.94947368421074,9.038596491227345 169.31929824561504,8.903859649122396 170.48701754386113,8.69052631578916 170.79017543859686,8.58947368421005 171.261754385965,8.275087719297703 171.49754385964906,8.196491228070217 172.69894736842096,8.07298245614028 173.02456140350992,8.084210526315294 173.73192982456212,8.275087719297703 174.14736842105276,8.477192982455925 174.49543859649174,8.724210526315797 175.4610526315796,9.532631578947086 176.48280701754493,10.172631578946792 176.69614035087736,10.374736842105014 176.87578947368556,10.621754385964884 177.089122807018,11.003508771929704 177.3810526315795,11.688421052631059 177.68421052631686,12.17122807017499 177.9087719298251,12.418245614034861 178.24561403508827,12.698947368420571 178.6498245614047,12.93473684210463 178.93052631579042,13.03578947368374 179.58175438596513,13.204210526315325 179.88491228070248,13.338947368421072 180.12070175438654,13.574736842105132 180.42385964912387,14.091228070174902 180.6484210526321,14.304561403508137 180.86175438596615,14.394385964912233 181.23228070175514,14.428070175438073 182.14175438596556,14.383157894736422 183.59017543859736,14.1810526315782 183.79228070175557,14.169824561403187 184.0168421052638,14.214736842104838 184.29754385964952,14.338245614034774 185.76842105263293,15.13543859649105 186.8126315789483,15.539649122806695 187.21684210526314,15.741754385964915 187.75578947368453,16.101052631578913 188.33964912280757,16.639999999999507 188.59789473684324,16.80842105263109 188.85614035087735,16.89824561403439 189.66456140351022,17.066666666665974 190.36070175438658,17.324912280701657 191.14666666666787,17.684210526315653 192.12350877192995,18.032280701753837 192.96561403508866,18.503859649122756 194.1782456140364,19.065263157894172 194.52631578947378,19.301052631578234 195.00912280701772,19.738947368420515 195.59298245614076,20.34526315789438 195.9073684210539,20.7270175438592 196.58105263158023,21.68140350877125 196.94035087719342,22.074385964911883 197.38947368421154,22.48982456140334 196.92912280701762,22.92771929824562 196.56982456140443,23.331929824561264 196.25543859649127,23.769824561403546 196.05333333333465,24.12912280701754 195.89614035087808,24.567017543859027 195.82877192982482,24.937543859648834 195.82877192982482,25.30807017543864 195.87368421052645,25.68982456140346 196.008421052633,26.17263157894739 196.24421052631706,26.666666666666334 196.52491228070278,27.12701754385944 196.92912280701762,27.621052631578383 197.34456140350989,28.036491228069842 197.68140350877306,28.294736842104726 198.24280701754446,28.642807017543706 198.7143859649126,28.867368421051957 198.2764912280703,29.091929824561003 197.76000000000053,29.529824561403284 197.24350877193078,29.90035087719229 197.03017543859673,30.169824561402987 196.58105263158023,30.94456140350844 196.4463157894737,31.0905263157892 196.31157894736873,31.1803508771925 194.85192982456275,31.831578947368016 193.9200000000007,32.02245614035043 192.76350877193045,32.31438596491195 192.41543859649147,32.48280701754353 192.21333333333322,32.66245614035013 192.06736842105408,32.89824561403499 191.8203508771942,33.65052631578882 191.8203508771942,33.93122807017532 191.94385964912334,34.39157894736843 191.96631578947495,34.60491228070167 191.93263157894754,34.8182456140349 191.66315789473762,35.62666666666619 191.6294736842118,35.92982456140352 191.67438596491343,36.165614035087586 191.74175438596512,36.35649122806999 191.92140350877332,36.59228070175405 192.51649122807058,37.041403508771346 192.89824561403537,37.254736842104585 193.86385964912324,37.68140350877185 194.66105263158033,38.06315789473667 194.9080701754386,38.25403508771908 195.05403508771937,38.47859649122733 195.11017543859683,38.658245614034726 195.12140350877263,38.95017543859625 194.95298245614026,40.129122807017346 194.69473684210615,41.71228070175408 194.5375438596496,42.38596491228043 194.40280701754463,42.801403508771884 194.38035087719302,42.99228070175429 194.39157894736883,43.23929824561336 194.47017543859792,43.508771929824064 194.61614035087868,43.78947368420977 194.86315789473696,44.13754385964875 195.4807017543874,44.99087719298249 195.80631578947478,45.31649122806985 196.15438596491376,45.585964912280545 196.79438596491266,45.95649122806955 197.5354385964923,46.64140350877171 198.22035087719445,47.06807017543817 198.43368421052688,47.258947368420586 199.08491228070318,48.089824561403496 199.76982456140374,48.76350877192984 199.89333333333448,48.9992982456139 200.05052631578945,49.4484210526312 200.185263157896,49.72912280701691 200.57824561403504,50.31298245613995 201.13964912280804,51.009122807017114 201.70105263157947,51.435789473683585 202.06035087719425,51.79508771929758 202.5431578947382,52.19929824561402 202.8350877192997,52.51368421052557 203.0933333333338,52.89543859649118 203.22807017543875,52.98526315789449 203.74456140351012,53.19859649122772 203.95789473684255,53.32210526315765 204.16000000000076,53.47929824561343 204.3733333333348,53.70385964912248 204.5417543859656,53.97333333333317 204.60912280701888,54.175438596490594 204.59789473684305,54.321403508771354 204.49684210526394,54.70315789473617 204.49684210526394,54.92771929824522 204.5417543859656,55.141052631578454 204.6315789473689,55.331929824560866 204.76631578947385,55.52280701754328 205.20421052631613,55.92701754385892 205.3614035087727,56.16280701754378 205.39508771929854,56.34245614035038 205.31649122807104,56.7242105263152 205.29403508771944,56.959999999999255 205.3614035087727,57.15087719298246 205.49614035087765,57.35298245613989 206.0014035087732,57.77964912280636 206.61894736842208,58.12771929824534 207.14666666666767,58.4533333333327 207.60701754385997,58.64421052631511 207.86526315789564,58.68912280701756 207.97754385965058,58.66666666666593Z"/>
  </g>
</svg>