<?xml version="1.0" encoding="UTF-8" standalone="no"?>
<svg viewBox="0 0 256 236.38782276700542" xmlns="http://www.w3.org/2000/svg">
  <style>
    g.zone {
      fill: lightgray;
      stroke-width: 2;
      stroke-linecap: square;
      stroke-linejoin: bevel;
      stroke-miterlimit: 3;
      stroke-opacity: 0.8;
      stroke: black;
      fill-opacity: 0.3;
    }
  </style>
  <g class="zone" id="zone">
    <path d="M182.07816738671625,219.65638500954458 182.10388827489152,219.88787300311475 182.20677182758897,220.1708027730336 182.37395760072278,220.45373254295157 182.59258515020528,220.73666231287044 183.01697980508268,221.12247563548675 184.04581533206073,221.90696272480702 184.38018687832832,222.25419471516133 184.65025620415955,222.64000803777765 185.34472018486818,223.92605244649837 185.51190595800196,224.38902843363778 185.7305335074845,225.3792826283529 185.871998392443,225.6750728423594 186.07776549783972,225.932281724103 186.51502059680476,226.31809504671932 187.02943836029195,226.6524665929869 187.67246056465368,226.97397769516778 189.00994674972222,227.5012559027426 189.4214809605138,227.75846478448713 189.85873605947884,228.07997588666709 189.1128303024215,229.3145785190391 188.4055058776234,230.40771626645258 186.29639304732223,233.3913392946847 185.92344016879355,234.00864061087117 185.51190595800196,234.84456947654016 184.92032552999078,234.92173214106325 184.53451220737446,234.92173214106325 184.02009444388545,234.8188485883658 183.71144378579314,234.67738370340638 183.35135135135027,234.42017482166185 182.7340500351638,233.8414548377374 181.2422385210491,232.34964332362085 180.43203054355357,231.6937606751733 179.87903144780347,231.346528684819 178.58012659499602,230.66492514819618 178.13001105194334,230.51059981915003 177.7313372852394,230.48487893097567 177.11403596905475,230.5877624836731 175.80227067215785,230.99929669446377 175.33929468501935,231.23078468803394 174.52908670752566,231.75806289560967 173.9632271676879,231.95096955691784 173.243042298804,232.09243444187726 171.51974279111732,232.3625037677085 170.46518637596583,232.65829398171408 170.1951170501346,232.64543353762645 169.35918818446564,232.5296895408423 168.69044509193228,232.5682708731034 168.4589570983621,232.61971264945208 168.0217019993971,232.81261931076025 167.17291268964047,232.99266552798167 167.0057269165067,233.10840952476676 166.91570380789688,233.2884557419873 166.99286647241905,233.9314779463481 166.95428514015796,234.1886868280917 166.81282025519943,234.42017482166185 166.58133226162929,234.6645232593187 166.28554204762278,234.87029036471452 165.92544961318174,235.06319702602266 164.6394052044601,235.4618707927257 163.8034763387911,235.87340500351638 163.6362905656573,235.9248467798651 163.34050035165262,235.9248467798651 162.50457148598366,235.74480056264457 162.17019993971607,235.73194011855693 160.38259821159303,236.04059077665016 159.6495528986233,236.13061388526089 159.186576911483,236.15633477343525 157.8490907264145,236.0920325529989 156.66592987039027,236.27207877022033 155.22556013262246,236.38782276700542 154.96835125087887,235.74480056264457 154.6468401486989,235.08891791419703 151.9718677785582,230.43343715462694 151.65035667637824,229.8161358384405 151.41886868280807,229.275997186778 151.2516829096743,228.74871897920227 151.11021802471575,228.1699989952778 150.7115442580118,225.26353863156874 150.40289359991948,223.75886667336457 150.05566160956425,222.5371244850802 149.63126695468688,221.27680096453292 149.30975585250692,220.40229076660285 149.0139656385004,219.79784989450403 148.70531498040808,219.29629257510263 148.35808299005285,218.87189792022525 148.0365718878729,218.58896815030639 147.5735959007326,218.29317793630076 147.0591781372454,218.07455038681826 146.55762081784403,217.9716668341208 145.94031950165754,217.93308550185884 145.4516226263438,217.9716668341208 146.1332261629648,217.17431930071385 146.96915502863376,216.38983221139358 147.16206168994285,216.10690244147472 147.4449914598599,215.21953179945794 147.68933989751767,214.67939314779454 147.98513011152417,214.1521149402188 148.10087410830926,213.8434642821265 148.13945544057034,213.39334873907382 148.01085099969762,212.7117452024519 148.02371144378526,212.5831407615792 148.07515322013398,212.46739676479504 148.28092032552885,212.2873505475736 149.23259318798293,211.74721189591114 149.87561539234284,211.194212800161 150.36431226765657,210.66693459258528 150.44147493218057,210.48688837536383 150.46719582035584,210.24253993770697 150.69868381392416,210.07535416457316 150.72440470209943,209.959610167789 150.4929167085293,209.43233196021325 150.01708027730317,208.69928664724173 149.84989450416938,208.21058977192797 149.8113131719083,207.43896312669534 149.70842961920903,206.80880136642216 149.68270873103558,205.9728725007532 149.6955691751232,205.49703606952707 149.8113131719083,204.3653169898525 149.79845272782066,203.97950366723617 149.74701095147194,203.64513212096858 149.63126695468688,203.310760574701 149.36119762885562,202.89922636391034 149.14257007937312,202.08901838641663 148.8467798653666,201.42027529388145 148.44810609866266,200.77725308952063 147.8308047824762,200.05706822063672 147.54787501255916,199.60695267758496 147.4835727921228,199.40118557218918 147.4835727921228,199.208278910881 147.6250376770813,198.59097759469546 147.61217723299367,198.44951270973604 147.54787501255916,198.2694664925146 147.29066613081372,197.89651361398592 146.9048528081974,197.5492816236307 145.90173816939648,196.93198030744514 145.05294885963986,196.5718878730032 144.37134532301704,196.14749321812488 144.07555510901236,196.0188887772531 143.9726715563149,195.92886566864237 143.83120667135455,195.73595900733423 143.70260223048186,195.46588968150297 143.35537024012845,194.51421681904984 143.30392846377973,194.2441474932186 143.2910680196921,193.76831106199157 143.23962624334337,193.53682306842143 143.13674269064595,193.35677685120092 142.9952778056856,193.1895910780671 142.28795338088932,192.63659198231701 142.17220938410424,192.49512709735757 142.1207676077555,192.36652265648576 142.0950467195821,192.18647643926434 142.13362805184317,191.7878026725613 142.3136742690646,191.69777956395058 142.8795338089005,191.32482668542193 143.27820757560445,191.11905958002612 144.4356475434534,190.6946649251478 146.99487591680904,190.02592183261353 147.59931678890788,189.91017783582848 148.47382698683793,189.84587561539212 148.9368029739764,189.7172711745203 149.28403496433165,189.5372249572998 149.54124384607525,189.31859740781636 149.91419672460574,188.93278408520004 150.44147493218057,188.28976188084013 150.7887069225358,187.96825077866018 151.44458957098334,187.5052747915199 152.06189088716982,187.14518235707794 153.78519039485465,186.27067215914786 154.608258816436,185.93630061288027 156.01004722194273,185.5633477343516 156.92313875213387,185.25469707625837 157.41183562744763,185.21611574399728 157.68190495328068,185.228976188084 157.97769516728536,185.3061388526071 158.35064804581404,185.44760373756654 158.65929870390818,185.64051039887468 158.95508891791286,185.93630061288027 159.23801868783173,186.39927660002058 159.41806490505317,186.6179041495031 159.61097156636222,186.72078770220054 160.022505777152,186.7850899226369 160.17683110619816,186.87511303124668 160.49834220837812,187.33808901838609 160.97417863960604,187.85250678187512 161.4242941826587,188.43122676579958 161.6043403998783,188.58555209484572 161.7972470611874,188.7012960916308 162.41454837737385,188.84276097659026 162.58173415050766,188.91992364111334 162.67175725911744,189.09996985833385 162.8646639204247,189.89731739174084 163.00612880538503,190.19310760574734 163.17331457851884,190.46317693157857 163.39194212800135,190.7332462574098 164.34361499045542,191.73636089621257 164.6908469808088,191.99356977795617 164.96091630664006,192.10931377474125 165.32100874108292,192.18647643926434 166.60705314980274,192.31508088013706 168.00884155530946,192.59801065005502 169.16628152315837,192.7651964231888 169.6806992866474,192.75233597910207 170.59379081683855,192.59801065005502 171.26253390937373,192.5465688737063 171.59690545564132,192.4694062091832 171.77695167286277,192.39224354466012 171.91841655782127,192.27649954787506 172.09846277504272,191.99356977795617 172.09846277504272,191.7106400080382 171.96985833417,190.87471114236925 171.96985833417,190.60464181653802 172.02130011051872,190.41173515522985 172.20134632774014,190.12880538531098 172.66432231487863,189.69155028634594 172.81864764392662,189.39576007234035 172.8315080880124,189.2414347432933 172.79292675575135,189.08710941424712 172.45855520948376,188.45694765397394 172.36853210087395,188.1868783281427 172.3556716567863,187.95539033457254 172.3942529890474,187.7239023410024 172.8572289761877,186.65648548176418 173.1144378579313,186.2449512709735 173.64171606550795,185.58906862252596 174.001808499949,184.85602330955535 174.14327338490935,184.66311664824718 174.3876218225653,184.4573495428514 175.3650155731928,183.93007133527564 175.72510800763567,183.6600020094444 175.9951773334669,183.33849090726446 176.4195719883443,182.3868180448104 176.70250175826317,181.97528383401973 177.12689641314057,181.62805184366542 178.1943132723797,180.93358786295587 179.05596302622212,180.03335677685146 179.84045011554238,179.40319501657825 180.3677283231172,178.87591680900252 180.95930875113024,178.34863860142679 181.11363408017638,178.11715060785662 181.17793630061274,177.9756857228981 181.21651763287383,177.71847684115357 181.2422385210491,177.13975685722912 181.35798251783234,176.81824575504916 181.4994474027927,176.61247864965338 181.64091228775123,176.48387420878157 181.80809806088502,176.3681302119965 181.97528383401882,176.30382799156013 181.7052145081876,176.29096754747343 181.4094242941829,176.17522355068834 181.19079674470038,175.9951773334669 180.95930875113024,175.66080578720022 180.7792625339088,175.19782980005994 180.20054254998524,173.15301919019421 179.9819150005009,172.61288053853082 178.97880036169997,170.8252788104087 178.77303325630325,170.5680699286651 178.22003416055315,170.00221038882736 177.8084999497634,169.37204862855418 176.47101376469303,167.0057269165076 176.23952577112286,166.5427509293682 176.00803777755453,165.9511705013561 175.84085200442075,165.6553802873505 175.53220134632662,165.3081482969962 175.0563649151005,164.88375364211788 174.078971164473,164.1378478850596 173.34592585150145,163.76489500653094 173.1144378579313,163.52054656887407 173.03727519340913,163.34050035165262 173.0244147493215,163.13473324625775 173.25590274289164,162.4788505978102 173.55169295689632,160.89701597508298 173.59027428915923,160.4469004320303 173.5259720687229,160.1125288857627 173.42308851602544,159.93248266854218 173.25590274289164,159.75243645132167 172.12418366321617,158.99367025017577 171.90555611373364,158.7879031447809 171.7126494524264,158.55641515121073 171.1596503566763,157.7333467296294 170.76097658997236,157.02602230483313 170.56806992866328,156.61448809404246 170.3623028232684,155.958605445594 170.22083793830987,155.6628152315884 170.015070832915,155.36702501758282 169.6421179543845,154.92976991861778 169.15342107907074,154.45393348739077 168.76760775645442,154.1838641615595 168.04742288757052,153.86235305937956 166.77423892293652,153.43795840450125 166.29840249171042,153.2450517431931 165.68110117552393,152.88495930875115 164.60082387219902,152.15191399578052 163.64915100974494,151.41886868280898 162.3502461569375,150.1456847181759 161.28282929769836,149.20687229980948 160.93559730734313,148.74389631266916 160.4854817642923,147.83080478247803 160.34401687933195,147.65075856525658 160.17683110619816,147.49643323621044 159.77815733949421,147.25208479855357 158.98080980608813,146.91771325228598 158.09343916407045,146.45473726514658 157.82336983823922,146.26183060383843 157.28323118657673,145.79885461669812 156.76881342308772,145.4516226263438 156.43444187682013,145.323018185472 155.81714056063365,145.16869285642494 155.59851301115114,145.0658093037275 155.39274590575627,144.88576308650698 155.10981613583738,144.38420576710558 154.89118858635487,144.13985732944872 154.50537526373856,143.80548578318113 153.82377172711756,143.291068019693 153.27077263136746,142.93097558525105 152.9106801969246,142.75092936802963 152.47342509795956,142.60946448307018 151.7661006731633,142.45513915402404 151.36742690645934,142.28795338089023 150.90445091932088,141.92786094644828 149.63126695468688,140.59037476137883 148.85964030945425,139.87018989249492 148.51240831909902,139.70300411936114 148.19089721691907,139.65156234301242 147.98513011152417,139.66442278709914 149.23259318798293,139.5615392344017 150.18426605043697,139.38149301718119 150.90445091932088,139.15000502361102 151.5088917914197,138.82849392143106 151.92042600220947,138.45554104290147 152.24193710438942,137.9925650557621 152.49914598613483,137.47814729227397 153.19360996684347,135.7162664523262 153.47653973676233,135.2018486888372 153.849492615291,134.72601225761107 154.31246860243132,134.34019893499476 154.78830503365742,134.08299005325026 155.3284436853199,133.9286647242041 155.6242338993264,133.8900833919421 156.06148899829145,133.8900833919421 156.61448809404155,133.98010650055284 157.1803476338793,134.16015271777334 157.79764895006392,134.43022204360457 158.46639204259913,134.84175625439616 159.41806490505317,135.56194112327915 162.63317592685638,138.37837837837841 164.06068522053653,139.49723701396533 165.11524163568802,140.2431427710236 166.10549583040316,140.88616497538442 167.08288958103066,141.41344318296018 168.06028333165818,141.86355872601192 169.20486285541946,142.30081382497787 170.1951170501346,142.5708831508091 171.211092133025,142.7380689239429 172.11132321912854,142.815231588466 173.10157741384367,142.80237114437836 174.04038983221008,142.68662714759418 174.92776047422777,142.45513915402404 175.71224756354803,142.1464884959308 176.18808399477416,141.78639606148886 176.40671154425667,141.52918717974524 176.57389731739045,141.27197829800073 176.66392042600208,140.89902541947114 176.61247864965338,140.43604943233177 176.44529287651957,139.97307344519237 176.22666532703707,139.57439967848933 174.7991560333569,137.51672862453506 174.34904049030422,136.7708228674768 174.15613382899517,136.37214910077375 174.001808499949,135.9220335577211 173.92464583542684,135.58766201145352 173.91178539133918,135.25329046518684 173.98894805586136,134.61026826082602 174.43906359891403,133.0798754144484 175.15924846779794,129.89048528081955 175.54506179041425,128.66874309253518 175.87943333668184,127.89711644730257 176.34240932382212,126.97116447302287 177.37124485079835,125.14498141263967 179.0816839143974,122.4957299306742 179.48035768110134,121.95559127901174 179.95619411232747,121.37687129508727 180.3034261026827,121.02963930473204 180.80498342208406,120.61810509394137 181.26795940922256,120.32231487993577 181.76951672862393,120.06510599819126 182.32251582437405,119.84647844870875 182.87551492012415,119.66643223148823 183.55711845674696,119.51210690244116 184.29016376971668,119.38350246156935 185.60192906661177,119.25489802069755 186.34783482367095,119.24203757660992 187.0808801366425,119.26775846478428 188.16115743996744,119.40922334974371 189.28001607555527,119.67929267557496 190.5660604842751,120.14226866271525 192.3150808801352,120.91389530794788 194.21842660504333,121.87842861448775 195.50447101376497,122.63719481563363 196.34039987943214,123.2159147995581 196.90625941926987,123.6788907866975 197.33065407414728,124.06470410931381 197.819350949461,124.60484276097628 198.3080478247766,125.23500452125037 199.09253491409504,126.41816537727367 199.7098362302815,127.42128001607553 200.82869486586935,129.37606751733145 201.22736863257327,129.96764794534354 201.65176328745068,130.46920526474403 202.02471616597936,130.81643725509926 202.5391339294684,131.16366924545358 203.0149703606945,131.40801768311044 203.6579925650544,131.6523661207673 204.4553400984623,131.83241233798876 205.36843162865344,131.93529589068618 206.46156937606784,131.96101677886054 208.23631066010142,131.89671455842512 209.7024012860445,131.74238922937803 210.83412036571815,131.52376167989553 211.54144479051442,131.29227368632536 212.0687229980911,130.94504169597104 212.33879232392232,130.7135537024018 212.48025720888083,130.50778659700603 212.51883854114192,130.2505777152615 212.49311765296846,130.08339194212772 212.3773736561834,129.7747412840354 212.14588566261324,129.36320707324472 211.86295589269437,129.02883552697713 211.34853812920718,128.57871998392446 208.49351954184684,126.66251381493055 207.8504973374851,126.16095649552916 207.1688938008641,125.5436551793427 206.4872902642413,124.75916809002335 206.0628956093639,124.12900632975017 205.77996583944503,123.49884456947699 205.5999196222236,122.83010147694179 205.54847784587488,122.1099166080579 205.5999196222236,121.40259218326163 205.74138450718394,120.70812820255209 206.01145383301517,119.75645534009894 206.42298804380493,118.6761780367731 206.9631266954674,117.35155229579036 207.7218928966142,115.69255500854004 208.66070531498065,113.77634883954612 208.84075153220024,113.3005124083191 208.93077464081188,112.95328041796478 208.9950768612464,112.37456043404032 208.9050537526366,111.89872400281328 208.67356575906643,111.37144579523753 208.27489199236433,110.83130714357507 207.87621822566038,110.47121470913312 207.37466090625898,110.1625640510399 206.9888475836427,110.00823872199373 205.74138450718394,109.62242539937742 205.40701296091635,109.46810007033035 204.98261830603712,109.1980307444991 204.46820054254994,108.72219431327208 202.73204059077563,106.89601125288888 199.56837134532296,103.87380689239475 198.6166984828689,103.03787802672576 197.98653672259482,102.5877624836731 197.22777052144983,102.20194916105679 196.81623631066006,102.04762383201063 196.3661207676074,101.93187983522556 195.32442479654355,101.80327539435376 194.2055661609557,101.80327539435376 193.38249773937434,101.8675776147892 192.5980106500541,101.95760072339992 191.42771023811935,102.20194916105679 190.83612981010634,102.36913493419058 190.20596804983407,102.63920426002183 189.5629458454723,102.99929669446377 188.9199236411124,103.46227268160408 188.4055058776234,103.96383000100455 188.13543655179217,104.34964332362087 187.96825077865836,104.68401486988846 187.87822767004855,105.01838641615605 187.83964633778749,105.40419973877235 187.8653672259609,105.79001306138866 187.92966944639727,106.15010549583062 188.37978498944994,107.52617301316207 188.50838943032267,108.04059077665018 188.5598312066714,108.65789209283663 188.45694765397394,109.24947252084783 188.34120365718886,109.55812317894106 188.1482969958798,109.93107605747065 187.91680900230963,110.2525871596506 187.65960012056604,110.49693559730748 187.3123681302108,110.76700492313871 187.01657791620613,110.94705114036014 186.60504370541454,111.15281824575503 186.06490505375208,111.35858535115082 185.53762684617723,111.51291068019698 184.66311664824536,111.70581734150512 183.158444690043,111.91158444690092 181.35798251783234,112.06590977594708 177.8084999497634,112.22023510499324 176.39385110017085,112.37456043404032 175.87943333668184,112.49030443082539 175.28785290867063,112.65749020395828 173.84748317090285,113.21048929970839 172.9858334170604,113.49341906962725 172.1370441073038,113.66060484276105 171.39113835024645,113.73776750728413 170.45232593188004,113.7249070631974 169.42349040490197,113.58344217823797 166.11835627448897,112.79895508891771 163.09615191399485,112.20737466090652 162.02873505475753,111.88586355872565 161.4242941826587,111.61579423289442 161.05134130412821,111.41002712749953 160.54978398472682,111.08851602531867 160.21541243846107,110.80558625540071 159.81673867175712,110.43263337687112 159.44378579322844,110.00823872199373 159.12227469104667,109.54526273485433 158.80076358886672,109.01798452727859 156.96172008439677,105.339897518336 156.43444187682013,104.43966643223158 155.98432633376746,103.7323420074353 155.00693258313996,102.34341404601622 154.02953883251246,101.07023008138222 153.09072641414602,99.93851100170856 152.38340198934978,99.20546568873702 151.90756555812183,98.78107103385962 151.32884557419828,98.33095549080696 150.82728825479688,98.009444388627 150.1971264945246,97.66221239827178 148.9625238621517,97.10921330252167 146.71194614689017,96.24756354867924 146.2103888274888,96.01607555510908 145.65738973173868,95.68170400884149 145.13011152416385,95.28303024213847 144.70571686928463,94.87149603134779 144.29418265849486,94.40852004420749 143.5868582336986,93.50828895810307 143.23962624334337,93.13533607957439 142.9181151411634,92.83954586556789 142.4937204862842,92.56947653973666 142.1464884959308,92.38943032251613 141.70923339696577,92.23510499346905 141.10479252486695,92.06791922033526 140.52607254094156,91.93931477946346 137.9539837235001,91.54064101276043 135.72912689641203,91.27057168692828 132.55259720687175,90.98764191701032 130.01908972169136,90.7304330352658 128.9388124183664,90.65327037074273 127.84567467095384,90.62754948256837 126.80397869988816,90.6404099266551 125.38932985029562,90.78187481161453 124.56626142871428,90.92333969657396 123.96182055661545,91.07766502562012 122.77865970059308,91.45061790414971 121.65980106500523,91.93931477946346 121.15824374560384,92.2093841052947 120.60524464985373,92.56947653973666 119.88505978096983,93.14819652366111 119.57640912287751,93.4825680699287 119.31920024113208,93.84266050437066 119.12629357982485,94.17703205063825 118.97196825077869,94.5371244850802 118.88194514216705,94.87149603134779 118.83050336581833,95.3473324625739 118.8176429217307,95.65598312066714 118.86908469808125,96.18326132824288 118.98482869486449,96.71053953581863 119.17773535617357,97.32784085200419 119.6149904551386,98.43383904350439 121.32542951873764,102.34341404601622 121.69838239726631,103.35938912890572 121.94273083492409,104.19531799457471 122.1099166080579,105.01838641615605 122.23852104892877,105.84145483773739 122.75293881241781,110.72842359087763 122.85582236511524,111.42288757158626 123.02300813824904,112.09163066412144 123.24163568773156,112.72179242439464 123.53742590173806,113.33909374058109 123.93609966844201,113.91781372450556 124.37335476740704,114.45795237616802 124.05184366522526,114.41937104390603 123.5502863458257,114.45795237616802 122.68863659198145,114.57369637295311 122.37998593388913,114.7023008138249 122.16135838440661,114.88234703104634 122.00703305536045,115.04953280418013 121.72410328544159,115.60253189992933 121.63408017682995,115.7182758967144 121.13252285742857,116.11694966341835 120.56666331759266,116.70853009142954 120.2451522154127,116.88857630865097 120.11654777453998,116.99145986134842 119.78217622827239,117.33869185170272 119.357781573395,117.85310961519176 118.7276198131209,118.68903848085981 118.44469004320203,118.99768913895305 118.14889982919735,119.24203757660992 117.73736561840576,119.51210690244116 117.27438963126728,119.6535717874006 116.87571586456333,119.67929267557496 115.8854616698482,119.62785089922623 115.7182758967144,119.6535717874006 115.58967145584168,119.76931578418566 115.39676479453445,120.15512910680198 115.20385813322538,120.39947754445886 114.76660303426034,120.73384909072645 114.47081282025384,120.84959308751152 114.22646438259788,120.86245353159825 113.91781372450373,120.77243042298844 112.74751331256898,120.00080377775582 112.20737466090652,119.75645534009894 111.42288757158626,119.49924645835443 111.22998091027719,119.24203757660992 110.94705114035831,118.90766603034233 110.43263337687112,118.48327137546494 110.05968049834244,118.23892293780806 109.63528584346322,118.02029538832555 108.82507786596952,117.71164473023231 108.07917210891218,117.50587762483651 107.53903345724787,117.39013362805235 106.93459258514905,117.31297096352837 106.40731437757421,117.28725007535401 105.9314779463481,117.30011051944165 105.36561840651036,117.36441273987708 104.95408419571878,117.46729629257544 104.45252687631739,117.63448206570924 103.98955088917891,117.8788305033661 103.56515623430151,118.18748116145935 103.12790113533465,118.6375967045111 102.85783180950342,119.07485180347612 102.5877624836722,119.7435948960113 102.20194916105588,121.35115040691291 101.86757761478829,122.37998593388913 101.54606651260833,123.10017080277304 101.04450919320695,124.09042499748817 100.7744398673757,124.5276800964532 100.42720787702231,125.01637697176695 100.16999899527688,125.29930674168583 99.89992966944564,125.5436551793427 99.48839545865589,125.81372450517485 99.16688435647411,125.98091027830773 98.79393147794543,126.10951471918044 98.30523460263169,126.21239827187787 97.94514216819064,126.23811916005224 97.54646840148669,126.22525871596552 97.09635285843403,126.14809605144153 96.7491208680788,126.03235205465737 96.36330754546249,125.85230583743594 95.99035466693381,125.59509695569142 95.73314578519022,125.35074851803454 95.46307645935899,125.00351652768023 95.28303024213756,124.64342409323828 95.16728624535247,124.2704712147096 95.1287049130914,123.75605345122058 95.20586757761356,123.13875213503503 95.37305335074736,122.59861348337165 95.9389128905851,121.20968552195347 96.20898221641633,120.38661710037213 96.38902843363776,119.6149904551395 96.46619109815992,118.83050336581925 96.46619109815992,118.3418064905055 96.42760976589885,117.90455139154047 96.35044710137669,117.46729629257544 96.22184266050397,117.01718074952277 95.9389128905851,116.38701898924958 95.72028534110258,116.03978699889527 95.46307645935899,115.74399678488876 94.97437958404524,115.28102079774938 94.40852004420749,114.93378880739506 93.85552094845738,114.7023008138249 93.1096151913982,114.50939415251675 92.51803476338702,114.44509193208131 91.74640811815439,114.47081282025566 91.12910680196794,114.56083592886547 89.04571485984022,114.92092836330743 88.38983221139267,114.97237013965614 87.6825077865964,114.95950969556941 86.84657892092743,114.84376569878434 86.13925449613116,114.65085903747618 85.49623229177125,114.36792926755732 84.78890786697498,113.90495328041793 84.17160655078852,113.36481462875545 83.67004923138714,112.76037375665662 83.28423590877082,112.19451421681889 82.33256304631676,110.59981915000492 81.90816839143938,109.93107605747065 81.35516929568927,109.1980307444991 80.75072842359045,108.52928765196393 80.06912488696761,107.93770722395274 79.3360795739979,107.410429016377 78.65447603737509,106.98603436149868 76.93117652968841,106.06008238721991 76.30101476941614,105.66140862051687 75.91520144679983,105.35275796242364 75.51652768009588,104.99266552798169 75.22073746608937,104.67115442580173 74.86064503164833,104.23389932683578 74.4233899326833,103.52657490203951 74.11473927458916,102.9221340299407 73.81894906058447,102.16336782879571 73.6131819551896,101.53320606852252 73.45885662614161,100.73585853511554 73.42027529388054,100.06711544258036 73.47171707022925,99.43695368230716 73.5746006229267,98.9482568069925 73.74178639606049,98.49814126394075 73.97327438963063,98.0994674972368 74.28192504772295,97.73937506279485 74.65487792625346,97.43072440470253 75.06641213704322,97.18637596704566 75.6579925650544,96.95488797347551 76.09524766402126,96.85200442077807 76.80257208881753,96.77484175625408 77.31698985230473,96.76198131216735 77.86998894805483,96.78770220034171 78.97598713955504,96.96774841756223 80.06912488696761,97.23781774339437 83.79865367225985,98.33095549080696 84.8403496433237,98.57530392846382 85.70199939716613,98.69104792524891 86.57650959509618,98.72962925750998 87.00090424997359,98.69104792524891 87.45101979302625,98.60102481663819 87.83683311564256,98.48528081985312 88.14548377373671,98.34381593489368 88.63418064905046,98.009444388627 88.89138953079406,97.72651461870812 89.04571485984022,97.48216618105126 89.16145885662529,97.16065507887039 89.21290063297401,96.80056264442935 89.14859841253765,96.15754044006853 88.78850597809662,94.52426404099256 88.67276198131154,93.53400984627743 88.6470410931381,92.64663920425973 88.6599015372239,89.0328544157544 88.71134331357263,88.20978599417306 88.80136642218426,87.61820556616097 88.95569175123042,87.05234602632413 89.16145885662529,86.49934693057402 89.92022505777028,84.68602431427755 90.11313171907935,84.06872299809108 90.26745704812551,83.49000301416662 92.51803476338702,83.87581633678293 94.03556716567881,83.91439766904492 95.81030844971238,84.09444388626544 96.90344619712678,84.33879232392232 97.84225861549137,84.46739676479503 98.75535014568435,84.66030342610318 100.54295187380555,85.11041896915494 101.996182055661,85.61197628855632 102.27911182557988,85.61197628855632 103.02501758263722,85.38048829498618 103.4365517934288,85.30332563046309 103.7709233396964,85.27760474228873 104.19531799457378,85.32904651863745 104.72259620215046,85.47051140359689 105.10840952476676,85.63769717673068 105.378478850598,85.80488294986448 105.91861750226046,86.22927760474279 106.3558726012255,86.47362604239966 106.83170903245161,86.62795137144582 107.55189390133552,86.75655581231763 108.56786898422592,86.82085803275397 110.44549382095876,86.71797448005654 110.9727720285336,86.71797448005654 112.52888576308648,86.93660202953906 115.17813724505193,87.18095046719593 115.53822967949297,87.15522957902157 116.02692655480672,87.02662513814977 116.30985632472559,87.0009042499754 116.7856927559517,87.0394855822365 117.37727318396472,87.20667135537029 117.6730633979694,87.24525268763229 118.35466693459222,87.14236913493393 119.34492112930737,87.15522957902157 120.2451522154127,87.06520647041086 120.77243042298753,87.06520647041086 121.19682507786493,87.11664824675957 121.62121973274414,87.21953179945793 122.63719481563272,87.64392645433531 123.61458856626022,87.90113533607983 123.29307746408027,87.43815934894045 122.80438058876652,86.93660202953906 120.46377976489521,84.91751230784678 118.70189892494746,83.61860745503841 117.71164473023231,83.11705013563794 117.32583140761601,82.76981814528271 117.15864563448221,82.51260926353912 116.94001808499969,82.03677283231208 116.57992565055683,81.47091329247435 116.28413543655215,80.77644931176572 116.20697277202815,80.3520546568874 116.19411232794052,79.86335778157365 116.24555410428924,79.54184667939279 116.36129810107431,79.3360795739979 116.7728323118659,79.58042801165479 117.19722696674329,79.77333467296295 117.69878428614467,79.95338089018438 118.07173716467335,80.04340399879418 118.54757359589946,80.12056666331725 119.13915402391248,80.15914799557925 120.2451522154127,80.13342710740488 121.46689440369616,79.94052044609674 122.37998593388913,79.68331156435222 123.2544961318192,79.36180046217227 125.31216718577346,78.47442982015457 125.95518939013337,78.2686627147597 126.55963026223219,78.11433738571262 127.31839646337718,77.99859338892846 128.19290666130723,77.9342911684921 130.86787903144798,77.90857028031775 131.6523661207664,77.86998894805575 132.4497136541743,77.77996583944594 133.31136340801672,77.5999196222245 134.09585049733698,77.35557118456764 136.03777755450616,76.67396764794573 138.7641917009938,75.87662011453875 139.47151612579006,75.61941123279423 140.1273987742376,75.33648146287537 140.78328142268515,75.01497036069541 141.73495428513922,74.4619712649453 142.58374359489582,73.8703908369341 144.2684617703196,72.64864864864882 144.84718175424499,72.26283532603252 145.6188083994776,71.79985933889311 146.3389932683615,71.42690646036353 147.27780568672793,71.0282326936605 148.02371144378526,70.78388425600362 148.9239425298906,70.55239626243348 149.83703406008175,70.38521048929968 150.98161358384306,70.2694664925146 152.03616999899452,70.23088516025352 153.81091128302992,70.24374560434023 155.76569878428492,70.3080478247766 156.88455741987278,70.38521048929968 157.75906761780286,70.51381493017148 158.59499648347182,70.7324424796549 159.0451120265245,70.92534914096306 159.36662312870445,71.09253491409594 159.99678488897854,71.56837134532297 160.6655279815119,72.28855621420686 161.66864262031467,73.5746006229276 162.3502461569375,74.38480860042222 163.0832914699072,75.04069124886976 163.86777855922747,75.59369034461987 164.39505676680412,75.9023410027131 165.1538229679491,76.27529388124178 166.632774037978,76.87973475334061 168.17602732844324,77.35557118456764 169.61639706621105,77.65136139857323 171.01818547171595,77.79282628353266 172.5485783180954,77.79282628353266 174.49050537526276,77.62564051039887 175.87943333668184,77.43273384909071 176.81824575504825,77.26554807595691 178.18145282829207,76.93117652968932 178.85019592082725,76.7125489802068 179.35175324022862,76.50678187481194 179.87903144780347,76.22385210489306 180.2262634381587,75.99236411132291 180.5606349844263,75.69657389731731 180.75354164573352,75.46508590374808 180.97216919521605,75.0535516929574 181.04933185974002,74.60343614990474 180.99789008339133,74.10187883050335 180.7792625339088,73.52315884657888 180.3677283231172,72.80297397769498 179.8918918918911,72.1342308851607 178.05284838742116,69.85793228172393 177.1783381894893,68.72621320204935 176.57389731739045,67.83884256003257 176.09806088616435,67.04149502662558 175.4421782377168,65.76831106199158 175.1463880237103,65.08670752536968 174.82487692153035,64.17361599517761 174.69627248065763,63.69777956395059 174.61910981613545,63.22194313272356 174.61910981613545,62.86185069828161 174.67055159248417,62.50175826384057 174.78629558926926,62.1802471616597 174.96634180649068,61.87159650356647 175.21069024414666,61.588666733648516 175.5193409022408,61.31859740781728 175.89229378076948,61.09996985833385 176.2781071033858,60.91992364111333 176.72822264643844,60.778458756153896 177.2169195217522,60.675575203456454 177.9371043906361,60.57269165075901 178.85019592082725,60.521249874409385 180.13624032954888,60.53411031849702 181.1650758565251,60.598412538933374 181.87240028132138,60.701296091630816 182.50256204159547,60.82990053250261 184.57309353963555,61.39576007234036 184.9717673063395,61.4600622927758 185.40902240530454,61.48578318095016 185.78197528383322,61.447201848689076 186.07776549783972,61.38289962825272 186.61790414950218,61.151411634683484 187.05515924846722,60.817040088415894 187.23520546568864,60.6112729830201 187.4666934592588,60.264040992665784 187.67246056465368,59.80106500552639 187.78820456143876,59.338089018386086 187.83964633778749,58.86225258715997 187.87822767004855,57.47332462574089 187.92966944639727,56.843162865467704 188.03255299909472,56.20014066110688 188.18687832814086,55.60856023309569 188.4826685421474,54.86265447603743 188.82990053250262,54.232492715764245 189.22857429920657,53.602330955491055 190.0516427207879,52.457751431728845 190.4374560434042,51.8018687832813 190.6946649251478,51.12026524665939 190.82326936602053,50.32291771325241 190.84899025419398,49.8985230583741 190.82326936602053,49.255500854014194 190.6946649251478,48.2395257711247 190.54033959610166,47.55792223450187 189.87159650356648,44.97297297297278 189.58866673364759,43.416859238420805 189.4986436250378,42.55520948457747 189.47292273686253,41.79644328343248 189.4986436250378,41.02481663819986 189.60152717773525,39.71305134130385 189.60152717773525,39.05716869285631 189.55008540138653,38.658494926153274 189.4600622927749,38.246960715362604 189.22857429920657,37.59107806691506 188.82990053250262,36.88375364211788 188.26404099266486,36.0864061087109 187.6853210087413,35.40480257208899 185.92344016879355,33.527177735356155 185.5247664020896,33.051341304129124 185.10037174721222,32.47262132020466 184.76600020094463,31.94534311262983 184.45734954285047,31.36662312870536 183.6214206771815,29.617602732844325 183.18416557821647,28.820255199437344 182.84979403194887,28.25439565960051 182.2582136039377,27.431327238019172 181.64091228775123,26.72400281322199 180.8692856425186,25.965236612077007 179.95619411232747,25.206470410931107 178.9530794735247,24.48628554204812 177.29408218627435,23.418868682808988 174.05325027629772,21.43836029337871 171.62262634381477,20.0751532201349 170.04079172108845,19.290666130814643 168.9219330855006,18.82769014367525 168.08600421983346,18.54476037375638 167.1857731337281,18.300411936099504 164.27931277001906,17.618808399477597 162.76178036772725,17.130111524163848 161.55289862352961,16.615693760675736 158.68501959208163,15.303928463779732 156.02290766603036,14.197930272279518 154.65970059278473,13.580628956093967 153.61800462172087,13.027629860343861 152.53772731839592,12.358886767808679 148.31950165779176,9.55530995679706 147.35496835125008,8.835125087913159 146.7633879232389,8.294986436250689 146.40329548879603,7.9091731136343775 145.94031950165754,7.317592685622274 145.58022706721468,6.764593589872168 145.2458555209471,6.134431829598981 144.770019089721,5.092735858535124 144.53853109615082,4.436853210087578 144.35848487893122,3.7552496734656717 144.25560132623195,3.1508088013668454 144.24274088214614,2.7907163669248938 144.2684617703196,2.3406008238722262 144.35848487893122,1.890485280819559 144.52567065206503,1.5175324022908845 144.79573997789626,1.1317190796745735 145.0658093037275,0.8745101979300615 145.43876218225617,0.6301617602731863 145.81171506078485,0.4629759871393906 146.22324927157644,0.32151110217995466 147.12348035767994,0.15432532904707272 148.30664121370413,0.03858133226199663 149.72129006329666,0 152.33196021300105,0.012860444087636804 163.12187280217012,0.21862754948251537 181.4222847382687,0.32151110217995466 192.79091731136316,0.270069325831235 212.1716065507885,0.3472319903552283 250.94584547372506,0.270069325831235 251.66603034260893,1.17030041193657 251.91037878026674,1.581834622727241 252.14186677383688,2.019089721692272 252.3090525469707,2.443484376569666 252.4119360996681,2.842158143273614 252.4505174319292,3.215111021802288 252.42479654375575,3.562343012157516 252.28333165879542,3.96101677886055 252.00040188887655,4.3339696573901385 251.62744901034787,4.66834120365773 250.56003215110874,5.427107404802715 250.14849794031898,5.761478951070306 249.81412639405139,6.134431829598981 249.63408017682994,6.520245152215292 249.59549884456888,6.803174922134164 249.60835928865652,7.163267356576116 249.68552195317866,7.549080679192426 250.00703305536047,8.667939314779362 250.05847483170916,9.028031749221315 250.04561438762153,9.375263739576543 249.96845172309756,9.722495729930857 249.83984728222666,10.082588164372808 249.20968552195257,11.278609464482825 249.04249974881876,11.677283231186772 248.9267557520337,12.063096553803083 248.90103486386025,12.410328544157398 248.93961619612134,12.71897920225063 249.06822063699403,13.053350748518222 249.68552195317866,14.056465387320081 249.85270772631247,14.416557821762034 249.9427308349241,14.78951070029162 249.91700994674883,15.226765799256652 249.81412639405139,15.625439565959686 249.64694062091758,15.998392444489275 248.6824073143777,17.670250175826318 247.7435948960113,19.509293680297155 247.49924645835353,20.062292776047265 247.33206068521972,20.525268763186656 247.2291771325223,20.98824475032696 247.1905958002612,21.489802069727432 247.20345624434702,21.952778056867736 247.26775846478336,22.364312267658406 247.42208379382953,22.76298603436144 247.64071134331388,23.097357580629033 247.98794333366726,23.457450015070982 248.4637797648952,23.817542449512935 250.17421882849243,25.000703305536227 252.03898322113946,26.20958504973388 252.47623832010447,26.556817040088195 252.83633075454551,26.904049030443424 253.23500452124946,27.469908570280253 253.54365517934178,28.1257912187278 253.73656184065086,28.794534311262982 253.7622827288243,29.334672962925453 253.7108409524756,29.591881844669963 253.5950969556905,29.849090726414477 253.4279111825567,30.054857831809354 253.19642318898838,30.23490404903079 252.64342409323828,30.517833818948745 251.30593790816792,31.00653069426341 250.8301014769418,31.212297799658288 250.37998593388912,31.508088013663883 249.99417261127283,31.88104089219347 249.63408017682994,32.45976087611794 248.99105797247003,33.938711946146825 248.02652466593017,35.84205767105402 247.62785089922625,36.36933587862977 246.90766603034234,36.99949763890295 246.7276198131209,37.23098563247311 246.63759670451108,37.47533407012998 246.57329448407475,37.771124284135574 246.56043403998711,38.401286044408764 246.67617803677217,38.96714558424651 246.86908469808125,39.46870290364698 247.1520144679983,39.90595800261201 247.47352557018007,40.2403295488796 247.8721993368822,40.484677986536475 249.2611272983013,41.01195619411222 250.2771023811917,41.50065306942597 251.19019391138283,42.06651260926372 251.53742590173806,42.336581935094955 251.83321611574274,42.61951170501383 252.00040188887655,42.85099969858307 252.18044810609797,43.19823168893829 252.82347031045788,45.21732141062965 253.00351652767932,45.55169295689724 253.1707023008131,45.71887873003104 253.35074851803455,45.86034361499048 253.68512006430214,46.02752938812427 254.28956093640096,46.207575605344786 254.84256003215106,46.2975987139555 256,46.387621822566224 255.922837335476,46.503365819351295 255.7427911182546,46.60624937204874 254.99688536119723,46.78629558926926 254.76539736762706,46.88917914196761 254.5210489299711,47.056364915101405 254.23811916005224,47.352155129107 253.82658494926065,47.59650356676387 253.45363207073197,47.725108007635676 252.6562845373241,47.840852004420746 252.42479654375575,47.956596001205824 252.00040188887655,48.35526976790886 251.88465789209147,48.509595096955934 251.75605345122057,48.85682708731024 251.7303325630453,49.294082186275276 251.66603034260893,49.435547071234716 251.5502863458257,49.53843062393215 251.38310057269192,49.6413141766305 250.90726414146397,49.75705817341558 250.76579925650543,49.83422083793866 250.6757761478938,50.078569275595534 250.50859037476002,50.258615492816055 250.4185672661502,50.40008037777549 250.37998593388912,50.554405706822564 250.39284637797675,50.9144981412636 250.35426504571384,51.081683914397395 250.22566060484297,51.35175324022955 249.83984728222666,51.76328745102022 249.15824374560384,52.29056565859505 249.04249974881876,52.47061187581648 249.02963930473112,52.58635587260156 248.30945443584721,53.03647141565331 247.5892695669633,53.422284738269624 246.97196825077867,53.88526072540993 246.20034160554607,54.245353159850964 245.77594695066685,54.425399377072395 245.35155229578945,54.489701597508756 244.3612981010743,54.41253893298476 243.20385813322537,54.11674871897917 242.32934793529532,54.05244649854281 241.81493017180628,53.96242338993301 240.3359791017774,53.97528383401973 239.3585853511499,54.1296091630668 239.17853913392847,54.1296091630668 238.7284235908758,54.03958605445609 237.96965738973083,53.76951672862485 237.4166582939807,53.69235406410177 236.1434743293467,53.345122073746545 234.24012860444043,53.113634080177306 233.8928966140852,53.02361097156659 233.23701396563766,52.80498342208407 231.9123882246549,52.62493720486264 231.50085401386517,52.522053652165205 231.32080779664372,52.869285642519515 231.08931980307358,53.16507585652602 230.34341404601622,53.85953983723466 230.15050738470717,53.97528383401973 229.9576007233999,54.03958605445609 229.04450919320695,54.155330051241165 228.69727720285354,54.2582136039386 228.4657892092834,54.41253893298476 227.77132522857292,55.00411936099687 227.69416256405077,55.15844469004302 227.68130211996314,55.28704913091573 227.73274389631186,55.428514015874256 227.83562744900928,55.58283934492133 228.0542549984918,55.73716467396749 228.67155631467827,56.07153622023508 228.95448608459714,56.277303325630875 229.160253189992,56.48307043102575 229.6618105093934,57.20325529990966 230.03476338792208,57.434743293479805 230.47201848688712,57.57620817843833 231.15362202350994,57.75625439565976 231.41083090525353,57.87199839244484 231.66803978699895,58.03918416557863 231.9895508891789,58.34783482367095 232.4525268763174,58.926554807595416 232.78689842258498,59.23520546568865 233.09554908067912,59.67246056465368 233.62282728825394,60.23832010449142 233.7642921732143,60.37978498945086 234.25298904852806,60.701296091630816 234.26584949261385,60.80417964432825 234.20154727217934,60.94564452928769 233.82859439364884,61.28001607555528 233.7642921732143,61.370039184166 233.77715261730012,61.49864362503779 233.88003616999757,61.61438762182287 234.6130814829691,61.96161961217719 234.84456947653925,62.10308449713662 235.17894102280684,62.37315382296786 235.7576610067304,62.91329247463124 236.04059077664925,63.1061991359394 236.2592183261318,63.17050135637484 236.58072942831174,63.1962222445492 237.44237918215597,63.0676178036774 237.7510298402483,63.080478247765036 237.96965738973083,63.157640912288116 238.1368431628646,63.28624535315991 238.2140058273886,63.389128905857355 238.2525871596497,63.59489601125315 238.12398271877697,64.07073244248018 238.0339596101672,64.2507786597007 237.46810007032943,64.68803375866572 237.09514719180075,65.15100974580511 236.8507987541448,65.30533507485218 236.40068321109212,65.5239626243347 236.2206369938707,65.63970662111979 236.06631166482452,65.85833417060229 235.91198633577838,66.25700793730533 235.73194011855693,66.43705415452676 235.4618707927257,66.57851903948529 235.19180146689447,66.65568170400928 234.85742992062688,66.65568170400928 234.42017482166185,66.59137948357292 234.26584949261385,66.61710037174728 234.15010549583062,66.68140259218363 234.07294283130662,66.79714658896779 233.98291972269683,67.10579724706103 233.86717572591175,67.33728524063119 233.71285039686558,67.58163367828806 233.49422284738125,67.81312167185821 233.1341304129402,68.09605144177617 232.4139455440563,68.54616698482883 231.71948156334767,69.03486386014258 231.53943534612625,69.21491007736402 231.44941223751644,69.36923540641018 231.39797046116772,69.83221139354957 231.25650557620736,70.15372249573043 231.10218024716121,70.33376871295096 230.66492514819618,70.64241937104418 230.51059981915003,70.8224655882647 230.4591580428013,70.96393047322414 230.40771626645258,71.42690646036353 230.3048327137533,71.56837134532297 230.073344720185,71.73555711845677 229.61036873304468,71.94132422385256 229.237415854516,72.15995177333507 229.08309052546986,72.27569577011923 228.800160755551,72.5972068723001 228.2986034361496,72.84155530995697 228.15713855118923,72.99588063900313 227.8742087812722,73.92183261328283 227.43695368230718,74.87350547573597 227.39837235004427,75.09213302521849 227.42409323821954,75.310760574701 227.5784185672657,75.61941123279423 227.82276700492164,75.82517833819003 228.11855721892817,75.95378277906183 228.78730031146335,76.1981312167187 228.9802069727706,76.31387521350378 229.160253189992,76.51964231889866 229.21169496634073,76.80257208881753 229.14739274590437,77.00833919421332 229.03164874912113,77.20124585552148 228.33718476841068,77.86998894805575 228.16999899527687,78.10147694162589 227.95137144579436,78.64161559328836 227.59127901135332,79.25891690947483 227.39837235004427,79.70903245252659 226.9868381392545,80.80217019994008 226.89681503064287,81.13654174620767 226.85823369838178,81.39375062795126 226.87109414246942,81.5352155129107 226.92253591881814,81.67668039787013 227.205465688737,82.03677283231208 227.26976790917337,82.16537727318389 227.26976790917337,82.48688837536476 227.42409323821954,82.84698080980579 227.98995277805545,83.74721189591112 228.65869587059063,84.54455942931811 228.800160755551,84.85321008741134 228.89018386416078,85.61197628855632 228.8516025318997,85.77916206169012 228.73585853511463,86.062091831609 228.722998091027,86.28071938109152 228.89018386416078,86.67939314779454 228.99306741685822,87.02662513814977 229.1988345222531,87.36099668441645 229.25027629860364,87.56676378981224 229.22455541042837,87.69536823068404 229.07023008138222,88.11976288556235 229.08309052546986,88.35125087913158 229.14739274590437,88.4412739877423 229.26313674268945,88.53129709635301 229.97046116748572,88.78850597809753 230.17622827288244,88.9042499748817 230.26625138149222,88.99427308349242 230.4977393750624,89.35436551793435 230.7935295890689,89.7144579523763 230.81925047724235,89.85592283733575 230.7935295890689,90.26745704812642 230.83211092132998,90.49894504169566 230.94785491811504,90.75615392344017 231.192203355771,91.05194413744576 231.11504069124885,91.33487390736464 231.12790113533467,91.55350145684716 231.20506379985866,91.68210589771896 231.52657490203862,92.05505877624854 231.64231889882367,92.35084899025414 231.68090023108476,92.595197427911 231.61659801065022,92.85240630965552 231.5780166783873,93.37968451723127 231.6551793429113,93.59831206671379 231.8609464483062,93.82980006028302 232.13101577413744,94.00984627750445 232.38822465588285,94.08700894202754 232.9669446398064,94.15131116246388 233.3913392946838,94.22847382698697 234.43303526574766,94.665728925952 234.84456947653925,94.89721691952215 235.19180146689447,95.20586757761447 235.35898724002826,95.43735557118463 235.61619612177188,95.92605244649837 235.95056766803947,96.28614488094033 236.01486988847583,96.38902843363776 235.9762885562129,96.4404702099874 235.86054455942784,96.47905154224848 235.01175524967303,96.50477243042283 234.65166281523017,96.56907465085919 234.42017482166185,96.69767909173099 234.26584949261385,96.89058575303915 233.79001306138775,97.76509595096921 233.69998995277794,98.03516527680137 233.6099668441663,98.52386215211511 233.41706018285907,98.92253591881814 233.31417663016163,99.20546568873702 233.28845574198635,99.51411634683025 233.301316186074,99.68130211996404 233.51994373555652,100.05425499849272 233.5456646237318,100.15713855119107 233.48136240329544,100.22144077162652 233.18557218928893,100.36290565658595 233.01838641615512,100.5943936501561 232.95408419571876,100.78730031146426 232.87692153119661,101.48176429217288 232.79975886667262,101.79041495026613 232.6325730935388,102.07334472018499 232.23389932683486,102.53632070732438 232.1567366623127,102.72922736863254 232.05385310961526,103.20506379985956 232.02813222144,103.5137144579528 232.05385310961526,103.87380689239475 232.10529488596399,104.14387621822598 232.2724806590978,104.42680598814394 232.7097357580628,104.77403797849917 232.81261931076025,104.90264241937096 232.92836330754534,105.45564151512107 233.09554908067912,105.84145483773739 233.28845574198635,106.44589570983621 233.41706018285907,106.70310459158073 233.23701396563766,106.7416859238418 233.1341304129402,106.80598814427816 233.0569677484162,107.01175524967395 232.8383401989337,107.15322013463248 232.86406108710898,107.25610368733084 232.99266552798167,107.52617301316207 233.33989751833508,108.05345122073781 233.48136240329544,108.19491610569725 233.63568773234158,108.2977996583947 234.07294283130662,108.5164272078772 234.9988948055854,109.05656585953967 236.88938008640588,109.64814628755178 237.14658896814947,109.76389028433685 237.28805385310983,109.86677383703429 237.42951873806834,110.03395961016808 237.63528584346324,110.45835426504549 238.02109916607955,110.86988847583615 238.11112227469116,111.01135336079558 238.2525871596497,111.62865467698205 238.4326333768711,112.09163066412144 238.4712147091322,112.27167688134196 238.4326333768711,113.15904752335966 238.3940520446082,113.3005124083191 238.08540138651588,113.75062795137177 237.69958806389957,114.07213905355172 237.59670451120215,114.1878830503368 237.4552396262436,114.44509193208131 237.39093740580728,114.72802170199927 237.37807696171961,114.98523058374377 237.4166582939807,115.34532301818572 237.67386717572614,115.93690344619692 237.71244850798723,116.09122877524399 237.63528584346324,116.52848387420902 237.59670451120215,117.05576208178476 237.5324022907658,117.59590073344724 237.5324022907658,117.7888073947554 237.60956495528978,118.17462071737171 237.51954184667815,118.56043403998801 237.35235607354434,118.84336380990689 236.91510097457933,119.28061890887192 236.7736360896208,119.7821762282733 236.2206369938707,120.11654777453998 235.9634281121271,120.33517532402341 235.70621923038166,120.73384909072645 235.61619612177188,121.04249974881968 235.6419170099453,121.23540641012784 235.82196322716675,121.53119662413343 236.32352054656815,122.05847483170918 236.87651964231824,122.52145081884856 237.0308449713644,122.71435748015672 237.06942630362732,122.97156636190124 237.04370541545202,123.24163568773247 236.96654275092806,123.5502863458257 236.87651964231824,123.75605345122058 236.63217120466047,124.1032854415758 235.9762885562129,124.69486586958699 235.69335878629587,125.00351652768023 235.4618707927257,125.29930674168583 235.15322013463157,125.80086406108721 234.84456947653925,125.99377072239537 234.1115241635677,126.31528182457532 233.79001306138775,126.3924444890984 232.72259620214862,126.46960715362239 231.64231889882367,126.64965337084291 230.78066914498126,126.64965337084291 230.60062292775982,126.72681603536599 230.4977393750624,126.95830402893614 230.4591580428013,127.63990756555805 230.36913493418967,128.10288355269745 230.3819953782773,128.6816035366219 230.43343715462603,128.8487893097557 230.53632070732345,128.99025419471513 231.08931980307358,129.36320707324472 231.1407615794223,129.49181151411653 231.1407615794223,129.5689741786396 230.94785491811504,130.30201949161022 230.99929669446377,130.86787903144798 230.9735758062885,131.18939013362794 230.43343715462603,132.41113232191321 230.4977393750624,132.6040389832214 230.81925047724235,133.8772229478554 230.76780870089362,134.0186878328139 230.56204159549875,134.34019893499476 230.22767004923114,134.7002913694367 230.073344720185,134.91891891891925 230.03476338792208,135.13754646840175 230.073344720185,135.84487089319802 230.11192605244608,135.97347533406983 230.2148096051435,136.1278006631169 230.51059981915003,136.39786998894812 231.3593891289048,136.95086908469824 232.05385310961526,137.22093841052947 232.1181553300498,137.28524063096583 232.13101577413744,137.34954285140128 232.01527177735235,137.6967748417565 231.64231889882367,138.27549482568097 231.28222646438263,139.08570280317466 230.96071536220086,139.58726012257605 230.84497136541762,139.96021300110564 230.72922736863254,140.64181653772755 230.61348337184745,140.95046719582078 230.13764694061953,141.69637295287905 229.50748518034726,142.2365116045415 229.3660202953869,142.41655782176204 229.28885763086473,142.60946448307018 229.26313674268945,142.96955691751214 229.30171807495236,143.59971867778532 229.21169496634073,144.11413644127435 229.21169496634073,144.29418265849486 229.30171807495236,144.6414146488501 229.49462473625962,145.14297196825058 229.5717874007836,145.77313372852376 229.68753139756868,146.27469104792513 230.00904249974863,146.9820154727223 230.2919722696675,147.41927057168735 230.48487893097476,147.59931678890788 230.83211092132998,147.84366522656475 231.32080779664372,148.04943233196053 231.71948156334767,148.11373455239598 232.40108509996867,148.0365718878729 233.12126996885257,148.06229277604726 234.00864061087026,147.89510700291348 234.5230583743593,147.88224655882675 234.9988948055854,147.98513011152417 235.7576610067304,148.21661810509434 236.65789209283574,148.39666432231485 237.4166582939807,148.62815231588502 237.59670451120215,148.73103586858244 237.73816939616066,148.85964030945425 237.879634281121,149.0525469707624 238.16256405103988,149.56696473425143 238.41977293278347,149.95277805686774 238.62554003817837,150.1585451622626 238.8956093640096,150.36431226765842 240.11735155229488,151.12307846880339 240.2845373254287,151.18738068923975 240.79895508891772,151.27740379784956 241.10760574701,151.38028735054792 241.82779061589392,151.8046820054253 242.04641816537645,151.83040289359965 242.32934793529532,151.79182156133857 243.11383502461558,151.4703104591577 243.43534612679554,151.40600823872225 244.66994875916663,151.38028735054792 244.4770420978594,151.8046820054253 243.92404300210927,152.80779664422806 243.43534612679554,154.20958504973387 243.39676479453445,154.40249171104205 243.39676479453445,154.65970059278655 243.461067014969,155.0197930272285 243.56395056766823,155.21269968853574 244.3998794333354,156.2543956596005 244.92715764091204,156.78167386717536 245.28725007535309,157.03888274891986 246.41896915502858,157.63046317693195 246.75334070129617,157.87481161458885 246.95910780669104,158.08057871998372 247.12629357982485,158.33778760172822 247.357781573395,158.80076358886762 247.51210690244116,159.52094845775153 247.56354867878989,160.061087109414 247.71787400783603,160.17683110619907 248.55380287350502,160.72983020194917 249.01677886064533,160.98703908369367 250.01989349944625,161.334271074048 251.65316989852315,161.73294484075194 251.96182055661546,161.87440972571048 252.00040188887655,161.93871194614684 252.00040188887655,162.02873505475753 251.7689138953082,162.28594393650206 251.38310057269192,162.5560132623333 249.38973173917398,163.46910479252534 248.52808198532975,163.76489500653094 247.34492112930735,164.02210388827453 246.9462473626034,164.1378478850596 246.31608560233113,164.44649854315284 245.64734250979595,164.9351954184666 244.02692655480672,165.6039385110018 242.85662614287014,165.9511705013561 242.020697277203,166.05405405405446 241.73776750728413,166.14407716266425 241.32623329649255,166.40128604440878 240.82467597709115,166.7999598111127 239.97588666733637,167.73877222947823 239.6929568974175,168.00884155531037 238.88274891992378,168.18888777253088 237.89249472520865,168.54898020697283 236.88938008640588,168.80618908871736 236.4778458756143,168.97337486185114 235.84768411534202,169.2948859640311 234.81884858836398,169.73214106299613 233.67426906460267,170.0922334974381 233.2112930774642,170.20797749422314 232.92836330754534,170.20797749422314 232.31106199135886,170.11795438561245 231.53943534612625,169.91218728021664 231.269366020295,169.87360594795555 230.94785491811504,169.87360594795555 230.39485582236495,169.92504772430428 230.20194916105586,169.91218728021664 229.7775545061785,169.77072239525813 229.00592786094586,169.39776951672854 228.56867276198082,169.32060685220546 228.14427810710345,169.34632774037982 226.3952577112415,169.5906761780367 225.99658394453937,169.73214106299613 225.58504973374778,169.976489500653 225.10921330252165,170.42660504370568 224.11895910780652,171.7512307846884 223.91319200241165,172.2656485481765 223.74600622927787,173.0244147493215 223.54023912388115,173.4102280719378 222.9229378076947,174.078971164473 222.4599618205562,174.6834120365718 221.91982316889374,175.21069024414757 221.71405606349703,175.46789912589207 221.55973073445088,175.78941022807203 221.49542851401452,176.04661910981653 221.4825680699287,176.80538531096153 221.37968451723125,177.35838440671162 221.1481965236611,177.79563950567666 220.77524364513243,178.20717371646734 220.51803476338702,178.41294082186312 220.22224454938234,178.54154526273493 219.75926856224203,178.61870792725801 219.3734552396257,178.59298703908365 219.3734552396257,178.86305636491488 219.29629257510172,179.1717070230081 219.10338591379448,179.45463679292698 218.92333969657304,179.64754345423515 218.4732241535204,179.91761278006638 217.43152818245653,180.32914699085705 216.36411132321922,180.93358786295587 215.99115844468872,181.25509896513583 215.43815934893863,181.84667939314792 215.180950467195,182.05244649854282 214.91088114136377,182.16819049532788 214.58937003918382,182.2582136039386 213.66341806490504,182.4253993770724 212.9303727519335,182.60544559429292 212.5445594293172,182.73405003516564 212.2487692153107,182.86265447603742 211.94011855721837,183.0555611373456 211.70863056364823,183.2356073545661 211.55430523460205,183.42851401587427 211.51572390234097,183.64714156535769 211.61860745503841,183.87862955892692 211.78579322817222,184.0329548879731 212.23590877122487,184.36732643424068 212.3773736561834,184.5087913192001 212.51883854114192,184.72741886868263 212.82748919923606,185.28041796443273 213.0975585250673,185.65337084296232 213.40620918315963,185.9105797247059 214.0235104993461,186.25781171506114 214.11353360795772,186.38641615593295 214.1263940520435,186.56646237315346 213.984929167085,187.09374058072922 213.907766502561,187.90394855822385 213.6891389530785,188.39264543353758 213.47051140359596,188.68843564754317 213.3547674068109,188.7784587561539 213.20044207776473,188.82990053250262 212.55741987340483,188.85562142067698 212.2101878830496,188.91992364111334 210.61549281623564,189.55008540138653 210.39686526675314,189.61438762182289 210.1010750527466,189.5758062895609 209.7152617301303,189.44720184868908 208.86647242037552,188.93278408520004 208.68642620315407,188.91992364111334 208.49351954184684,189.02280719381076 208.23631066010142,189.31859740781636 207.77333467296293,190.14166582939862 207.7218928966142,190.30885160253243 207.7218928966142,190.4374560434042 207.79905556113638,190.63036270471238 207.90193911383383,190.79754847784616 208.06912488696761,190.97759469506667 208.37777554506178,191.20908268863684 209.05937908168275,191.9549884456951 209.11082085803147,192.05787199839253 209.08509996985802,192.13503466291561 208.58354265045665,192.3279413242238 208.30061288053778,192.52084798553193 208.13342710740397,192.70089420275337 207.73475334070002,193.27961418667783 207.58042801165388,193.4467999598116 206.9502662513816,193.66542750929415 206.65447603737508,193.83261328242702 206.34582537928276,194.1669848286946 206.05003516527626,194.68140259218364 205.9342911684912,194.7971465889678 205.6513613985723,194.8871696975785 205.265548075956,194.91289058575288 204.7897116447299,194.9257510298405 204.44247965437467,194.8743092534918 204.40389832211358,195.0929368029743 204.30101476941613,195.32442479654355 203.88948055862457,195.89028433638128 203.4007836833108,196.700492313875 203.20787702200357,197.2534914096251 203.07927258113085,197.5107002913696 202.87350547573598,197.76790917311413 202.62915703807818,197.98653672259664 202.14046016276444,198.20516427207914 201.8446699487579,198.2694664925146 199.8898824475029,198.11514116346845 199.32402290766518,198.15372249573045 198.6166984828689,198.28232693660223 198.34662915703768,198.4366522656484 198.1537224957286,198.6938611473929 198.06369938711882,198.92534914096214 197.9350949462461,199.55551090123623 197.79363006128756,200.01848688837563 197.70360695267777,200.21139354968378 197.57500251180505,200.3785793228176 197.2920727418862,200.52004420777703 196.80337586657242,200.64864864864882 196.3146789912587,200.70009042499754 195.7359590073333,200.64864864864882 195.49161056967733,200.66150909273554 195.2215412438461,200.7258113131719 195.08007635888575,200.81583442178263 195.0029136943636,200.9444388626544 195.0029136943636,201.0987641917015 195.05435547071232,201.26594996483436 195.1829599115832,201.45885662614253 195.5559127901137,201.83180950467212 196.09605144177615,202.2047623832008 196.28895810308342,202.44911082085767 196.61046920526337,203.45222545966044 196.623329649351,203.64513212096858 196.57188787300228,203.78659700592803 196.40470209986847,203.91520144679984 196.08319099768852,204.0309454435849 194.70712348035707,204.33959610167813 193.75545061790302,204.60966542750938 193.1124284135431,204.90545564151498 192.57228976188065,205.30412940821893 192.41796443283448,205.38129207274199 191.73636089621166,205.56133828996252 191.55631467899025,205.67708228674758 191.18336180046157,206.12719782980025 190.88757158645507,206.39726715563148 189.62724806590867,207.1688938008641 188.90706319702477,207.45182357078298 188.67557520345645,207.60614889982915 188.41836632171103,207.90193911383474 188.31548276901358,208.1848688837536 188.3669245453623,209.34230885160255 188.30262232492595,209.98533105596337 188.13543655179217,210.2939817140557 187.90394855822385,210.5126092635391 187.53099567969332,210.69265548075964 186.33497437958331,211.00130613885287 185.46046418165326,211.11705013563795 184.85602330955442,211.16849191198665 184.26444288154323,211.155631467899 183.6600020094444,211.06560835928832 183.14558424595538,210.91128303024215 182.52828292976892,210.62835326032328 182.721189591078,210.9755852506785 183.41565357178663,212.00442077765473 183.6985833417055,212.68602431427755 183.7757460062295,212.94323319602114 183.78860645031529,213.48337184768454 183.90435044710037,214.10067316387008 183.90435044710037,214.46076559831204 183.840048226664,215.02662513814977 183.72430422988077,215.47674068120153 183.46709534813533,216.08118155330035 182.92695669647287,217.00713352758004 182.65688737064164,217.5729930674169 182.2196322716766,218.91047925248634 182.11674871897915,219.33487390736462 182.07816738671625,219.65638500954458Z"/>
    <path d="M77.86998894805483,56.65025620415955 76.90545564151496,56.89460464181642 76.03094544358491,57.254697076258374 73.13734552396166,58.72078770220054 71.79985933889311,59.50527479151989 71.22113935496773,59.90394855822383 70.59097759469364,60.39264543353758 68.49472520848012,62.25740982618278 67.37586657289226,63.311966241334275 66.21842660504333,64.52084798553193 65.75545061790302,64.95810308449695 65.4467999598107,65.18959107806711 65.04812619310677,65.44679995981163 64.31508088013523,65.75545061790395 63.78780267256039,65.89691550286338 63.05475735958885,66.02551994373609 61.357178740077444,66.17984527278225 59.05515924846722,66.26986838139297 58.12920727418844,66.2827288254797 56.920325529990784,66.2441474932186 55.46709534813534,66.1155430523459 54.695468702902716,66.01265949964845 53.82095850497266,65.84547372651465 52.985029639303676,65.63970662111979 52.38058876720485,65.45966040389834 51.1717070230072,64.97096352858459 49.97568572289718,64.36652265648577 49.332663518537274,63.9549884456951 48.80538531096061,63.58203556716551 47.815131116245475,62.758967145584165 46.90203958605433,61.84587561539211 46.07897116447299,60.84276097659025 45.30734451924037,59.67246056465368 44.70290364714154,58.52788104089238 44.239927660001236,57.47332462574089 43.8798352255602,56.508791319200114 43.60976589972896,55.63428112127005 43.42971968250753,54.77263136742671 43.32683612981009,54.03958605445609 43.313975685722454,53.13935496835167 43.378277906158814,52.380588767205765 43.54546367929261,51.480357681101346 44.03416055460636,49.53843062393215 44.09846277504271,48.98543152818296 44.12418366321616,48.56103687330465 44.09846277504271,47.94373555711819 43.96985833417,47.26213202049628 43.73837034059985,46.56766803978674 43.416859238419896,45.89892494725247 42.94102280719378,45.17874007836857 42.20797749422224,44.31709032452523 40.073143775745805,42.45232593188003 39.404400683210625,41.847885059781206 38.59419270571692,41.01195619411222 36.70370742489645,38.92856425198451 35.73917411835658,38.015472721792456 35.08329146990721,37.51391540239106 34.427408821459665,37.102381191600394 33.77152617301212,36.7680096453328 33.128503968652204,36.497940319501566 32.26685421480978,36.21501054958269 31.50808801366297,36.02210388827545 30.697880036169266,35.88063900331602 29.60474228875669,35.752034562443306 28.640208982214997,35.726313674268944 27.958605445594003,35.752034562443306 27.18697880036138,35.803476338792024 26.299608158343684,35.906359891490375 24.79493620013952,36.18928966140834 22.004219833215544,36.81945142168244 20.97538430623932,36.986637194815316 19.90796744700019,37.012358082990595 19.26494524264028,36.96091630664096 18.609062594192736,36.870893198031155 14.802371144378345,36.15070832914726 13.41344318295926,35.790615894705304 12.024515221540174,35.28905857530391 8.70652064704136,33.91299105797247 6.121571385512258,32.99989952778041 5.1313171907971205,32.57550487290302 4.629759871395733,32.292575102984145 4.115342107906709,31.94534311262983 3.6395056766805958,31.53380890183916 3.343715462674087,31.225158243745927 2.9964834723188587,30.787903144780895 2.5849492615291014,30.144880940420073 2.2762986034349564,29.57902140058324 1.9676479453426383,28.91027830804806 0.43725509896503073,24.833517532402432 0.23148799357015218,24.164774439867248 0.10288355269743928,23.61177534411714 0,22.93017180749524 0.012860444085809226,22.32573093539641 0.12860444087088532,21.708429619209948 0.30865065809231784,21.206872299809472 0.5529990957501069,20.743896312670085 0.8359288656689786,20.319501657791776 1.234602632371099,19.869386114739108 1.6847181754237666,19.444991459861715 2.3148799356978667,18.95629458454705 2.7907163669239803,18.64764392645473 3.3951572390228066,18.31327238018714 4.115342107906709,17.966040389831914 4.938410529488051,17.618808399477597 5.77433939515703,17.310157741384366 7.574801567365872,16.770019089721895 8.629357982517366,16.512810207977385 9.696774841756497,16.307043102582504 11.587260122575142,16.024113332663635 12.436049432331759,15.959811112227277 13.091932080779303,15.946950668140554 13.722093841051576,15.998392444489275 14.37797648950095,16.126996885361073 15.355370240128451,16.422787099367582 21.23259318798292,18.62192303828037 21.734150507384307,18.737667035064533 22.132824274088254,18.763387923238895 22.441474932180572,18.750527479152172 22.84014869888452,18.673364814629092 23.303124686022997,18.493318597407658 23.650356676378227,18.274691047925145 24.049030443082174,17.914598613483193 24.434843765698485,17.451622626343802 24.666331759268637,17.078669747815127 24.94926152918751,16.538531096151743 25.180749522755832,15.946950668140554 25.77232995076885,14.262232492715874 26.01667838842481,13.709233396965766 26.31246860243132,13.143373857128937 26.69828192504763,12.577514317291193 27.096955691751578,12.140259218326163 27.521350346628974,11.76730633979749 27.997186777855088,11.484376569878616 28.447302320907756,11.304330352657184 28.89741786396042,11.201446799959745 29.373254295186534,11.162865467698662 29.79764895006393,11.175725911785385 30.32492715764059,11.240028132221742 30.839344921129616,11.355772129006818 33.02562041595477,11.985933889280004 33.92585150205828,12.17884055058816 34.47885059780838,12.230282326936878 34.9932683612974,12.217421882849242 35.59770923339623,12.12739877423944 35.99638300010018,12.024515221541087 36.33075454636777,12.2817241032856 37.282427408821825,12.79614186677371 38.49130915301948,13.503466291570888 38.774238922936526,13.773535617402123 39.62302823269314,14.725208479855265 39.7773535617393,15.072440470210493 39.81593489400038,15.32964935195409 39.803074449914575,16.13985732944871 39.700190897217134,16.70571686928554 39.72591178539058,17.155832412338206 39.803074449914575,17.387320405907445 40.00884155530945,17.721691952175036 40.227469104791965,17.90173816939647 41.153421079070746,18.54476037375638 41.46207173716489,18.85341103184961 41.83502461569357,19.34210790716336 42.015070832915,19.470712348036074 42.46518637596584,19.625037677082233 43.725509896512214,19.856525670652385 43.99557922234528,19.9465487792631 44.17562543956488,20.049432331960542 44.32995076861104,20.22947854918106 44.56143876218119,20.795338089018802 45.062996081582575,21.39977896111763 45.23018185471637,21.644127398774504 45.48739073645997,22.454335376268208 45.80890183864175,23.791821561338576 46.15613382899515,25.01356374962295 46.246156937606784,25.206470410931107 46.47764493117511,25.553702401286333 46.51622626343802,25.66944639807141 46.45192404300166,25.810911283029935 46.15613382899515,26.08098060886208 45.96322716768791,26.36391037878004 45.73173917411776,26.89118858635579 45.577413845071604,27.35416457349518 45.34592585150145,27.855721892896565 45.23018185471637,28.87169697578606 45.217321410628735,29.540440068321246 44.92153119662406,30.479252486687663 44.80578719983898,31.08369335878649 44.81864764392662,31.405204460966445 44.89581030844878,31.585250678187876 44.98583341706041,31.70099467497204 45.38450718376253,32.02250577715291 45.435948960111254,32.12538932985035 49.07545463679185,31.88104089219347 50.76017281221744,31.88104089219347 51.261730131618826,31.90676178036783 51.69898523058386,31.98392444489091 52.26484477041978,32.12538932985035 54.81121269968779,32.97417863960605 56.920325529990784,33.73294484075195 57.75625439565976,34.080176831106265 58.30925349140987,34.40168793328622 58.579322817241106,34.646036370943094 58.9136943635087,35.05757058173468 59.45383301517116,35.803476338792024 59.633879232392594,36.124987440972895 59.646739676478404,36.39505676680413 59.2609263538621,37.14096252386239 59.158042801164655,37.59107806691506 59.183763689339926,38.015472721792456 59.2609263538621,38.246960715362604 59.42811212699589,38.581332261630195 59.633879232392594,38.915703807896875 59.87822767004856,39.23721491007774 60.39264543353758,39.76449311765349 61.202853411031285,40.51039887471084 61.82015472721775,41.28202551994346 62.20596804983406,41.68069928664741 62.643223148799095,42.015070832915 63.131920024112844,42.31086104692059 64.79091731136316,43.082487692153215 65.49824173615943,43.378277906158814 66.21842660504333,43.59690545564133 66.8485883653156,43.72550989651404 67.33728524063119,43.77695167286276 68.28895810308342,43.789812116949484 68.91911986335751,43.892695669647836 69.39495629458362,44.047020998693995 69.81935094946284,44.227067215914516 70.11514116346753,44.4328343213103 70.37235004521112,44.69004320305482 70.69386114739291,45.088716969757854 70.84818647643907,45.384507183763446 70.98965136139759,45.7831809504674 71.1954184667943,46.67055159248509 71.7612780066302,47.77654978398439 71.8384406711542,48.0723399979909 72.03134733246145,49.46126795940907 72.13423088515889,49.71847684115358 72.31427710238032,49.96282527881046 72.62292776047447,50.24575504872933 72.99588063900313,50.47724304229857 73.36883351753181,50.61870792725801 74.46197126494438,50.9144981412636 75.07927258113085,51.18456746709575 75.60655078870569,51.5060785692757 76.46820054254994,52.11051944137453 76.7125489802059,52.31628654677032 76.85401386516625,52.50919320807848 76.93117652968841,52.714960313473355 76.96975786195132,52.972169195217866 77.04692052647349,54.14246960715352 77.05978097056112,54.95267758464814 77.18838541143384,55.4027931276999 77.36843162865344,55.724304229880765 77.5613382899625,55.91721089118892 77.93429116849119,56.18728021702016 78.59017381693873,56.547372651462105 77.86998894805483,56.65025620415955Z"/>
  </g>
</svg>