<?xml version="1.0" encoding="UTF-8" standalone="no"?>
<svg viewBox="0 0 256 182.55320686540222" xmlns="http://www.w3.org/2000/svg">
  <style>
    g.zone {
      fill: lightgray;
      stroke-width: 2;
      stroke-linecap: square;
      stroke-linejoin: bevel;
      stroke-miterlimit: 3;
      stroke-opacity: 0.8;
      stroke: black;
      fill-opacity: 0.3;
    }
  </style>
  <g class="zone" id="zone">
    <path d="M0,56.01011743450699 0.5087624209547144,53.420054200540775 1.2025293586274042,51.33875338753256 1.9887985546525089,49.904968383017554 3.838843721773109,46.99114724480474 4.995121951221019,44.40108401084182 6.7064137308031375,41.16350496838241 8.556458897923738,37.27841011743638 9.065221318878452,36.399638663052286 9.712737127371648,35.75212285456238 10.406504065037765,35.289611562783875 11.424028906953767,34.873351400181576 13.459078590785769,34.45709123757928 15.540379403790693,34.36458897922357 16.789159891597592,34.54959349593498 20.2117434507684,35.33586269196008 22.108039747061923,35.52086720867148 30.10948509485145,34.54959349593498 31.95953026196548,34.503342366758766 33.39331526648378,34.780849141825875 35.01210478771348,35.382113821139576 36.5383920505842,36.49214092140799 41.024751580850506,41.39476061427331 42.08852755193943,42.41228545618931 43.152303523034924,43.244805781390625 44.03107497741901,43.753568202348625 44.90984643179653,44.07732610659522 46.71364046973764,44.53983739837373 48.05492321589695,44.72484191508513 50.96874435410648,44.58608852755322 54.57633242998869,43.89232158988382 58.3689250225823,43.383559168925814 60.72773261065762,42.68979223125641 65.76910569105813,40.74724480578011 67.29539295392884,40.4234869015368 69.46919602529276,40.1922312556459 74.64932249322518,39.7759710930436 77.42439024390279,39.6834688346879 78.996928635953,39.8222222222231 82.97452574525802,40.56224028906871 89.07967479674745,40.8397470641391 90.42095754290676,40.74724480578011 91.90099367660456,40.238482384825396 94.16729900632089,38.9897018970185 95.55483288165969,38.3884372177048 98.56115627822821,37.509665763323994 102.72375790424462,35.890876242097576 106.65510388437015,34.96585365853728 110.07768744354097,33.62457091237467 113.26901535682087,33.06955736224047 116.92285456187601,33.16205962059617 118.3566395663943,32.93080397470527 119.28166214995132,32.42204155375056 120.94670280036051,30.94200542005605 122.01047877145601,30.15573622402766 126.31183378500434,27.889430894308045 128.48563685636825,26.918157181571537 133.66576332430068,25.206865401986132 135.5158084914147,24.18934056007342 137.5508581752467,22.570551038843714 138.4758807588103,22.015537488709505 142.8234869015381,20.350496838303595 143.84101174344755,19.564227642275206 144.58102981029973,18.407949412827293 145.08979223125445,16.742908762421383 145.59855465221574,13.96784101174377 145.96856368563854,13.13532068653917 146.75483288166365,12.48780487804926 150.03866305329598,10.961517615175259 152.02746160794848,9.758988256547855 153.1374887082169,8.510207768744245 154.3400180668443,6.382655826559826 154.7562782294466,5.966395663957527 155.26504065040788,5.688888888890422 156.1900632339649,5.550135501355228 157.4388437217718,5.73514001806663 161.69394760614063,7.030171635049736 167.01282746160496,8.186449864497646 171.22168021680088,9.38897922312505 173.4417344173443,9.527732610660244 176.4943089430857,9.342728093948843 179.54688346883373,8.556458897923738 182.09069557362042,7.446431797652035 183.52448057813874,6.983920505873528 185.14327009936844,6.7064137308031375 188.38084914182127,6.428906955736034 189.02836495031445,6.197651309845137 189.67588075880766,5.550135501355228 190.09214092140996,3.746341463414121 190.41589882565327,2.867570009033315 191.89593495935108,0.32375790424659795 192.2196928635944,0 193.052213188799,0.7862691960251048 193.4684733514013,1.387533875338807 193.7922312556446,3.2375790424561206 195.4110207768743,6.752664859982631 195.4110207768743,7.446431797652035 194.39349593495828,9.89774164408305 190.87841011743507,10.961517615175259 189.7683830171601,11.424028906957053 189.07461607949395,11.88654019873556 188.47335140018026,12.580307136404963 187.22457091237337,15.12411924119168 186.80831074977107,15.679132791329174 186.25329719963685,16.04914182475198 183.47822944895924,17.20542005419989 181.16567299006343,18.63920505871819 180.42565492321782,19.332971996387595 177.9743450767835,22.246793134597116 175.66178861788768,23.68057813911542 173.21047877145338,26.224390243902135 171.26793134598037,27.565672990064733 170.99042457090997,28.120686540198943 171.03667570008946,28.721951219512643 171.26793134598037,29.230713640470643 172.1929539295374,30.479494128274258 173.4417344173443,31.58952122854596 178.71436314362913,34.45709123757928 180.2406504065064,34.91960252935778 181.8131887985566,35.24336043360438 186.43830171634826,35.24336043360438 187.91833785004604,35.382113821139576 188.93586269196206,35.613369467027184 190.27714543812135,36.122131887985184 191.57217705510118,36.76964769647838 194.85600722674008,38.8046973803071 197.3073170731678,40.0072267389345 199.52737127371122,40.932249322494805 202.30243902438883,41.81102077687561 202.53369467027974,42.22728093947791 202.34869015356833,42.59728997290071 201.51616982836373,43.47606142728152 199.2961156278203,45.279855465222624 199.0186088527565,45.64986449864543 198.9261065943975,46.06612466124773 199.94363143631352,48.702439024390145 199.94363143631352,49.25745257452764 199.66612466124312,51.15374887082116 199.8511291779611,52.35627822944857 200.26738934055683,53.18879855465317 201.88617886178653,54.807588075879586 202.44119241192075,55.825112917795586 202.6261969286387,56.56513098464448 202.67244805781164,58.1839205058709 203.08870822041393,61.005239385728004 204.29123757904134,64.19656729900792 205.07750677506644,67.11038843721744 205.72502258355965,68.35916892502433 207.06630532971894,70.07046070460646 207.76007226739165,70.67172538392016 208.68509485094867,71.13423667570196 211.83017163504908,72.29051490514986 213.3564588979198,73.16928635953067 214.5589882565472,74.18681120144667 218.30532971996132,77.84065040650509 220.80289069557512,79.6906955736224 223.20794941282992,81.07822944896121 225.79801264678957,82.09575429087721 227.74056007226915,82.69701897019091 228.61933152664668,83.25203252032512 229.54435411021026,84.03830171635023 230.88563685636956,85.70334236675613 231.90316169828557,86.62836495031644 233.3369467027973,88.70966576332465 234.67822944896318,90.00469738030776 235.6495031616997,90.74471544715337 236.1120144534749,91.34598012646707 238.56332429990923,95.60108401083919 239.02583559169102,96.75736224029039 240.18211382113893,99.2549232158976 241.84715447154153,101.47497741644102 242.91093044263704,103.37127371273782 245.87100271002606,110.81770551038986 247.16603432701245,112.71400180668667 247.72104787714665,113.36151761517658 248.41481481481276,113.82402890695508 251.28238482384938,115.39656729900528 253.87244805781557,116.5990966576327 254.65871725384068,117.10785907859069 255.1674796747954,117.6628726287282 255.6762420957567,118.5878952122852 256,119.7904245709126 255.9537488708205,120.3916892502263 255.76874435410912,120.85420054200482 254.8437217705521,122.01047877145601 254.28870822041787,123.12050587172443 253.82619692863608,123.76802168021763 251.74489611562458,125.57181571815873 251.6061427280927,125.94182475158154 251.74489611562458,126.95934959349754 251.6061427280927,127.69936766034314 251.1898825654904,128.62439024390346 250.63486901535617,129.17940379403765 249.89485094851057,129.54941282746046 246.05600722673745,130.52068654020024 245.59349593495566,130.70569105691166 245.50099367660326,130.89069557362305 244.15971093044394,131.02944896115497 242.40216802168231,131.39945799458107 241.10713640469592,131.81571815718337 239.5808491418252,132.55573622402898 238.3783197831978,133.34200542005408 236.7595302619681,134.63703703703717 232.68943089431068,138.6146341463422 231.11689250226047,140.002168021681 229.08184281842847,141.38970189701982 226.81553748870556,142.49972899729153 223.30045167118234,143.70225835591563 219.7853658536591,144.44227642276454 215.5765130984632,144.95103884372253 209.33261065944185,145.41355013550103 204.89250225835505,145.92231255645905 201.56242095754322,146.43107497741704 197.029810298104,147.30984643179784 190.23089430894188,148.74363143631615 186.76205962059814,149.62240289069695 184.17199638663192,150.54742547425397 181.8131887985566,151.74995483288137 180.65691056910214,152.62872628726217 179.63938572719272,153.60000000000198 178.89936766034052,154.66377597109417 178.2518518518539,156.09756097560918 177.88184281842453,158.2713640469731 177.8355916892516,162.98897922312702 177.5580849141812,165.48654019873425 177.1880758807584,166.92032520325253 176.6330623306242,168.53911472448226 175.5230352303492,170.75916892502238 173.58048780487619,173.58048780487948 172.28545618789636,175.0142728093945 170.89792231255757,176.3093044263776 169.41788617885976,177.511833785005 167.70659439927766,178.6218608852767 164.51526648599773,180.2406504065031 161.46269196024974,181.30442637759862 157.8088527551946,182.09069557362372 154.66377597109417,182.46070460704652 151.28744354110287,182.55320686540222 147.58735320686168,182.41445347786703 145.08979223125445,182.22944896115564 136.1633242999079,181.0731707317077 132.64823848238467,180.74941282746113 119.4204155374898,180.2869015356826 117.29286359530538,180.00939476061552 115.25781391147338,179.59313459801322 112.52899728997527,178.6681120144529 110.40144534778427,177.4193315266493 109.47642276422725,176.6793134598004 108.64390243902265,175.8005420054196 107.95013550135654,174.87551942186258 107.16386630533144,173.4879855465238 106.37759710930634,171.36043360433607 105.82258355916555,168.81662149954934 105.54507678410174,166.13405600722743 105.26757000903135,161.0001806684745 104.99006323396752,159.011382113822 104.34254742547434,156.97633242999 103.32502258355832,155.31129177958408 101.89123757904002,153.83125564588957 100.041192411926,152.44372177055078 97.58988256549169,151.05618789521196 90.23595302619536,147.30984643179784 88.01589882565196,145.87606142728282 86.11960252935843,144.25727190605312 84.40831074977632,142.45347786811203 82.83577235772611,140.4184281842833 77.47064137308229,132.13947606142668 75.48184281842978,129.36440831074907 73.16928635952739,126.58934056007145 70.62547425474067,124.04552845528472 68.68292682926766,122.38048780487881 66.74037940379463,120.94670280036051 62.392773261066814,118.1716350496829 58.69268292682561,116.1828364950304 50.089972899728956,112.06648599819347 45.09485094850793,109.52267389340675 38.8046973803071,105.96133694670404 31.312014453478856,101.38247515808531 26.22439024389885,98.05239385727349 22.431797651311804,95.32357723577209 19.471725383922788,92.82601626016158 16.46540198735428,89.91219512195205 14.430352303522277,87.50713640469725 12.580307136401677,85.05582655826623 11.054019873530962,82.60451671183522 9.805239385724063,80.3382113821156 8.695212285455646,77.65564588979369 7.908943089430542,75.20433604335939 7.307678410116839,72.56802168021697 6.243902439021344,66.27786811201614 5.873893405598539,64.70532971996263 5.226377597111916,62.94778681120102 4.486359530259732,61.3289972899746 3.4225835591708096,59.6177055103892 2.035049683832003,57.9989159891595 0,56.01011743450699Z"/>
  </g>
</svg>