<?xml version="1.0" encoding="UTF-8" standalone="no"?>
<svg viewBox="0 0 187.21221374045768 256" xmlns="http://www.w3.org/2000/svg">
  <style>
    g.zone {
      fill: lightgray;
      stroke-width: 2;
      stroke-linecap: square;
      stroke-linejoin: bevel;
      stroke-miterlimit: 3;
      stroke-opacity: 0.8;
      stroke: black;
      fill-opacity: 0.3;
    }
  </style>
  <g class="zone" id="zone">
    <path d="M164.4612294094,255.8765769385298 163.32985134592116,255.52687826436357 161.29337083165802,254.62177581357932 160.22370429891353,254.31321815990313 158.7014865407769,254.1486540779429 156.33587786259326,254.10751305745282 152.16006428284408,253.7166733627965 151.3578143832857,253.7166733627965 150.49385295299297,253.81952591402094 145.43350743270233,254.99204499799131 144.77525110486135,255.09489754921574 141.01084773000986,254.99204499799131 138.3778224186401,254.7246283648052 135.90936118923062,254.68348734431513 132.96777822418616,254.58063479308925 130.29361189232492,254.27207713941306 127.98971474487566,254.18979509843294 127.2286058658088,254.06637203696275 126.36464443551607,253.79895540377663 125.02756126958543,253.30526315789444 123.71104861390057,252.64700683005202 123.15564483728257,252.461872237846 120.09063881076646,251.8653274407394 118.1158698272377,251.59791080755326 117.4164724789052,251.59791080755326 116.71707513057271,251.7007633587777 116.07938931297457,251.8858979509837 113.96062675773425,252.64700683005202 113.22008838891024,252.81157091201226 112.60297308155786,252.87328244274806 112.50012053033198,252.79100040176795 112.60297308155786,252.40016070711164 112.56183206106634,252.0710325431897 112.33555644837173,251.49505825632738 112.08871032543138,251.04250703093527 111.75958216151089,250.63109682603465 111.26588991562724,250.24025713137834 110.73105664925498,249.86998794696635 110.23736440337426,249.62314182402596 109.53796705504176,249.3968662113299 108.92085174768938,249.27344314985973 106.32896745680826,249.04716753716366 104.95074327038903,248.98545600642782 104.64218561671137,248.75918039373178 104.10735235033913,248.05978304539929 103.839935717153,247.8129369224589 103.3873844917638,247.6278023302529 102.85255122539155,247.48380875853695 100.91892326235431,247.3603856970668 99.52012856568932,247.1135395741264 97.81277621534669,247.19582161510655 97.29851345922019,247.13411008437072 96.88710325431666,246.94897549216472 96.51683406990757,246.70212936922434 94.33635998392705,244.91249497790307 97.11337886701419,245.7764564081958 97.6687826436322,245.87930895942168 98.0801928485328,245.85873844917592 98.49160305343341,245.71474487745996 99.7052631578924,245.0770590598633 100.5897950984309,244.686219365207 101.1451988750489,244.58336681398112 102.9554037766145,244.45994375251092 104.00449979911618,244.23366813981485 104.78617918842879,243.9868220168745 106.53467255926002,243.34913619927636 108.48887103254302,242.79373242265982 109.08541582964963,242.52631578947367 109.39397348332436,242.30004017677763 109.66139011651049,241.97091201285568 109.82595419847073,241.62121333868942 110.23736440337426,239.81100843712383 110.31964644435438,238.6590598633992 110.5870630775405,236.8282844515864 110.87505022097238,233.68099638409015 111.24531940538148,232.26163117717942 111.90357573322537,230.38971474487653 112.06813981518562,229.15548413017325 112.19156287665726,228.72350341502542 112.56183206106634,228.08581759742876 113.15837685817587,227.28356769787038 114.68059461630959,225.55564483728344 115.29770992366196,224.93852952993106 116.51137002812386,224.05399758939257 116.96392125351308,223.58087585375614 117.70445962233708,222.61406187223753 117.91016472478886,222.24379268782698 118.01301727601181,221.95580554439508 117.97187625552321,221.35926074728846 117.64274809160273,220.49529931699428 117.29304941743648,219.91932503013197 116.71707513057271,219.28163921253528 116.22338288469197,218.8702290076332 115.58569706709385,218.43824829248686 114.76287665728971,218.0268380875848 113.38465247087048,217.45086380072246 112.80867818400962,217.121735636802 112.23270389714585,216.66918441140984 111.75958216151089,216.09321012454754 111.45102450783324,215.51723583768523 111.14246685415851,214.71498593812686 109.24997991160987,209.1198071514669 109.14712736038399,208.7495379670549 109.20883889111835,208.33812776215282 109.1059863398954,207.90614704700644 108.87971072719786,207.3713137806342 108.4477300120515,206.71305745279176 107.85118521494489,206.0959421454394 107.02836480514075,205.43768581759696 103.30510245078368,202.98979509843323 102.09144234632177,202.06412213740467 101.10405785456031,201.22073121735625 100.13724387303877,200.2539172358376 99.35556448372616,199.26653274407323 98.80016070711106,198.38200080353474 98.42989152269905,197.53860988348777 98.14190437926716,196.46894335074327 98.05962233828704,195.31699477701864 98.16247488951292,194.02105263157952 98.45046203294481,192.74568099638327 98.80016070711106,191.55259140217004 99.23214142225743,190.40064282844543 100.32237846524477,187.70590598633987 101.53603856970668,185.05231016472436 102.85255122539155,182.37814383286457 103.26396143029216,181.43190036159027 103.46966653274391,180.67079148252338 103.57251908396688,180.05367617517103 103.53137806347827,179.45713137806294 103.36681398151804,178.81944556046628 103.05825632784038,178.1406187223781 102.64684612293978,177.54407392527148 102.1325833668133,176.98867014865345 101.53603856970668,176.51554841301703 100.56922458818806,176.02185616713484 98.24475693049305,175.30188830855806 97.64821213338644,174.99333065488187 97.0105263157883,174.54077942948973 96.33169947770158,173.9030936118916 93.55468059461444,170.98208115709144 88.16520691040333,165.83945359582216 86.62241864202385,164.5435114503816 85.57332261952511,163.8646846122934 84.54479710727213,163.39156287665696 83.61912414624211,163.10357573322653 82.63173965447773,162.91844114102054 81.21237444756699,162.81558858979466 79.6695861791875,162.8567296102847 77.8182402571304,163.02129369224642 76.275451988748,163.28871032543108 74.89722780232877,163.61783848935303 76.2343109682594,162.17790277219797 76.64572117316001,161.5813579750899 76.85142627561177,161.06709521896343 77.28340699075814,159.66830052229844 77.36568903173826,159.2157492969063 77.38625954198402,158.76319807151418 77.28340699075814,158.35178786661356 77.18055443953226,158.16665327440757 76.460586580954,157.5083969465651 76.2343109682594,157.240980313379 75.55548413017267,155.88332663720408 75.22635596624926,155.0810767376457 75.06179188428901,154.85480112494963 74.52695861791676,154.36110887906744 73.10759341100601,153.45600642828464 72.86074728806565,153.14744877460845 72.75789473683977,152.8183206106865 72.79903575733128,152.3246283648058 73.18987545198905,151.58408999598177 73.82756126958427,150.72012856568904 74.67095218963416,149.79445560466047 74.89722780232877,149.46532744073852 75.08236239453477,148.82764162314186 75.10293290478053,148.21052631578948 75.00008035355465,147.7991161108874 74.73266372036854,147.36713539574103 74.44467657693664,147.09971876255491 73.5395741261553,146.46203294495822 73.12816392125177,146.0300522298104 72.77846524708553,145.4335074327038 72.55218963439093,144.7546805946156 72.44933708316505,143.78786661309698 72.59333065487952,141.71024507834525 72.46990759341081,140.24973885094445 72.49047810365364,138.60409803133763 72.34648453193915,137.65785456006478 72.03792687826443,136.50590598634017 71.95564483728431,135.95050220972215 71.9967858577729,133.19405383688223 71.87336279630127,131.2809963840893 71.52366412213502,129.61478505423818 71.27681799919466,129.24451586982764 71.05054238650006,129.07995178786592 70.82426677380252,128.9976697468858 70.47456809963629,128.95652872639573 70.00144636400131,128.9770992366415 69.13748493370858,129.1828043390918 67.92382482924667,129.63535556448394 66.7924467657678,129.8822016874243 66.19590196866119,130.14961832061041 64.92053033346492,131.01357975090463 63.357171554839695,131.77468862997148 62.71948573724156,131.98039373242324 61.21783848935069,132.30952189634374 59.90132583366582,132.96777822418616 57.92655685013999,133.77002812374454 57.103736440335844,133.95516271595054 56.61004419445512,133.97573322619485 56.30148654077747,133.85231016472466 55.931217356368386,133.62603455202859 55.60208919244498,133.2969063881081 55.47866613097626,132.98834873443192 55.4580956207305,132.3300924065895 55.29353153877025,131.11643230212906 55.067255926072725,130.86958617918867 54.36785857774023,130.49931699477668 54.182723985534224,130.2524708718363 54.12101245479987,130.0056247488945 54.16215347529139,129.40907995178787 54.12101245479987,128.44226597026926 53.977018883085385,128.05142627561295 53.586179188427614,127.68115709120093 52.43423061470299,126.94061872237837 52.002249899556624,126.59092004821213 50.685737243871756,124.67786259541919 49.94519887504774,123.95789473684239 52.1051024507825,123.5876255524304 53.83302531136798,123.19678585777409 55.35524306950461,122.70309361189189 56.58947368420936,122.16826034551964 57.55628766572798,121.55114503816726 57.967697870628584,121.20144636400101 58.31739654479483,120.83117717959047 58.56424266773812,120.44033748493416 58.7493772599412,120.04949779027785 58.852229811167085,119.61751707513002 58.872800321412846,119.16496584973936 58.79051828043272,118.52728003214122 58.584813177980955,117.93073523503462 58.29682603455199,117.27247890719218 57.78256327842258,116.44965849738804 56.774608276415364,115.05086380072305 54.079871434311265,111.73901165126513 52.68107673764336,109.92880674969807 51.48798714343013,108.15974286862253 50.644596223383154,106.69923664122173 49.677782241864534,104.6627561269586 49.22523101647241,103.5725190839698 48.8549618320604,102.46171153073524 48.66982723985439,101.70060265166693 48.587545198874274,100.93949377260007 48.608115709120035,100.34294897549199 48.731538770588756,99.78754519887545 48.93724387304052,99.27328244274749 49.26637203696101,98.80016070711106 49.698352752107375,98.3681799919647 50.1509039774995,97.99791080755269 50.82973081558624,97.62764162314214 51.46741663318437,97.36022498995601 52.20795500200839,97.15451988750571 52.96906388107524,97.01052631578976 54.6147047006806,96.84596223382952 56.136922458817224,96.804821213338 57.90598633989423,96.84596223382952 59.05793491361885,96.92824427480964 60.18931297709771,97.0928083567699 61.19726797910785,97.29851345922019 64.50912012856432,98.20361591000444 65.14680594616246,98.30646846122887 65.84620329449494,98.34760948171893 66.44274809160156,98.28589795098458 66.91586982723945,98.18304539975868 67.77983125753218,97.81277621534814 68.47922860586468,97.27794294897589 68.76721574929657,96.94881478505394 69.13748493370858,96.3934110084374 69.46661309762906,95.65287263961484 69.65174768983506,94.91233427079082 69.73402973081518,94.15122539172397 69.79574126154955,91.92961028525484 69.87802330252967,90.92165528324617 70.0425873844899,89.89312977099172 70.28943350743027,88.94688629971886 70.76255524306816,87.75379670550417 71.31795901968619,86.7458417034955 71.95564483728431,85.73788670148681 73.27215749296919,83.90711128967399 73.88927280032155,82.85801526717526 74.30068300522215,81.76777822418646 74.50638810767393,80.49240658899164 74.54752912816252,79.81357975090346 74.50638810767393,78.78505423865047 74.30068300522215,77.15998392928942 74.0538368822818,76.06974688629916 72.9841703495373,71.93507432703855 72.53161912414517,69.44604258738477 72.38762555243068,68.06781840096407 72.34648453193915,66.85415829650509 72.38762555243068,65.61992768180035 72.55218963439093,63.5217356368014 72.55218963439093,62.47263961430266 72.40819606267353,61.50582563278404 72.0996384089988,60.51844114102112 71.52366412213502,59.32535154680644 71.11225391723441,58.667095218964 70.41285656890192,57.72085174768968 69.48718360787483,56.63061470470088 66.66902370429908,53.62732020891914 66.03133788670095,52.86621132985082 65.35251104861422,51.94053836882226 64.81767778224197,51.09714744877529 64.32398553635832,50.17147448774673 62.986902370427686,47.37388509441529 62.287505022095196,46.098513459220484 61.75267175572294,45.193411008437685 60.806428284450085,43.87689835275282 59.819043792685704,42.74552028927249 58.584813177980955,41.53186018481351 57.124306950581605,40.318200080353066 55.51980715146485,39.166251506629905 52.86621132984936,37.458899156287266 47.68244274809001,34.29104057854528 43.79461631176977,32.11056649256768 41.264443551625924,30.85576536761717 39.47480916030317,30.115226998794615 38.13772599437546,29.662675773402487 36.69779027721895,29.27183607874618 32.04885496183186,28.181599035757376 29.621534752910964,27.39991964644476 27.687906789873725,26.577099236642084 23.10068300522099,24.47890719164314 18.842587384491665,22.709843310566143 16.662113298511137,21.722458818803226 14.995901968660025,20.837926878264728 13.26797910807455,19.768260345520225 6.520851747689973,15.283889112093373 4.97806347930758,14.131940538368749 4.031820008034722,13.267979108076013 3.4558457211709483,12.65086380072364 2.715307352349855,11.70462032944932 2.1393330654860816,10.820088388910822 1.6044997991138303,9.81213338690214 1.0902370429873403,8.721896343913338 0.6582563278409718,7.611088790678775 0.28798714342896353,6.37685817597403 0.08228204098012147,5.4306147047011715 0,4.607794294897034 0,3.9495379670546003 0.14399357171448177,3.1884290879877457 0.370269184409085,2.612454801125434 0.6582563278409718,2.0981920449974822 1.0079550020072188,1.6662113298511139 1.6044997991138303,1.172519083970385 2.0981920449974822,0.9051024507842594 2.715307352349855,0.6582563278424334 4.114102049014844,0.3085576536761863 5.9448774608262,0.10285255122588265 8.763037364401939,0 12.938850944154064,0.02057051024576118 30.197509039774737,0.34969867416624706 59.469345118519456,0.51426275612649 77.65367617517015,0.43198071514636854 108.65343511450327,0.5554037766180123 170.67352350341233,0.43198071514636854 171.2494977902761,1.1108075532345631 172.03117717958872,2.1804740859790654 172.58658095620675,3.2295701084778066 172.95685014061874,4.258095620730787 173.08027320208745,5.142627561269285 173.0597026918417,5.574608276417115 172.93627963037298,6.027159501807783 172.6071514664525,6.664845319405917 172.1340297308146,7.158537565288108 171.55805544395082,7.611088790678775 169.85070309361112,8.824748895139221 169.23358778625874,9.380152671755772 168.86331860184674,9.81213338690214 168.69875451988648,10.120691040578327 168.51361992768048,10.778947368420761 168.49304941743472,11.169787063077068 168.57533145841484,11.766331860185142 169.17187625552438,13.864523905182624 169.2541582965045,14.440498192044936 169.23358778625874,14.995901968662947 169.1101647247871,15.551305745279498 168.90445962233827,16.12728003214181 167.8965046203281,18.04033748493329 167.629087987142,18.67802330253142 167.443953394936,19.295138609883796 167.4028123744474,19.850542386500347 167.46452390518175,20.344234632382538 167.6702290076335,20.879067898754787 168.65761349939498,22.48356769787008 168.9250301325811,23.05954198473239 169.0690237042985,23.656086781840465 169.0690237042985,24.046926476496772 169.00731217356122,24.5200482121332 168.86331860184674,24.99316994776963 168.5959019686606,25.589714744877703 167.05311370028113,28.263881076737498 165.55146645239026,31.20546404178342 165.1606267577325,32.089995982321916 164.89321012454639,32.83053435114447 164.72864604258612,33.57107271996849 164.66693451185176,34.3733226195254 164.66693451185176,34.92872639614342 164.79035757332048,35.77211731619185 165.03720369626086,36.40980313378852 165.38690237043002,36.944636400160775 165.94230614704512,37.52061068702309 166.7034150261149,38.0965849738854 169.4392928887076,39.98907191643258 172.42201687424648,41.92269987946982 173.12141422257898,42.47810365608637 173.69738850943983,43.03350743270438 174.33507432703797,43.93860988348718 174.8287665729187,44.98770590598592 175.13732422659635,46.057372438730425 175.17846524708494,46.92133386902316 175.09618320610483,47.33274407392523 174.91104861389883,47.744154278827295 174.64363198071268,48.07328244274778 174.27336279630362,48.361269586179674 173.38883085576512,48.81382081157034 171.2494977902761,49.595500200884416 170.48838891120926,49.9246283648049 169.768421052631,50.39775010044133 169.15130574527862,50.9942948975494 168.57533145841484,51.91996785857796 167.54680594616187,54.28557653676157 166.0040176777824,57.33001205303337 165.36633186018426,58.173402973081814 164.21438328645965,59.18135797509049 163.92639614302774,59.5516271595025 163.78240257131327,59.94246685415881 163.6795500200874,60.415588589795234 163.65897950984163,61.42354359180392 163.84411410204763,62.328646042588176 164.1526717557253,63.130895942145095 164.60522298111448,63.830293290477584 165.1194857372439,64.36512655684983 165.75717155483912,64.75596625150615 167.97878666130825,65.59935717155459 169.60385697067076,66.3810365608672 171.0643631980701,67.28613901165146 171.6197669746881,67.71811972679782 172.09288871032308,68.17067095218995 172.3603053435092,68.5409401366005 172.6482924869411,69.09634391321852 173.67681799919407,72.32591402169486 173.96480514262595,72.86074728806712 174.2322217758121,73.12816392125323 174.52020891924397,73.3544395339493 175.05504218561623,73.62185616713543 176.02185616713484,73.90984331056585 176.90638810767334,74.0538368822818 178.75773402973047,74.19783045399774 178.6343109682588,74.38296504620374 178.34632382482692,74.54752912816399 177.1532342306137,74.83551627159441 176.7829650462017,75.00008035355611 176.39212535154684,75.26749698674224 175.93957412615472,75.74061872237867 175.28131779831082,76.13145841703498 174.6847730012042,76.33716351948529 173.40940136600796,76.52229811169128 172.99799116110734,76.74857372438736 172.3603053435092,77.34511852149396 172.1751707513032,77.59196464443579 171.96946564885437,78.14736842105233 171.92832462836284,78.84676576938483 171.82547207713696,79.0730413820809 171.4346323824821,79.38159903575709 170.5089594214521,79.62844515869891 170.3238248292461,79.7724387304134 170.24154278826597,80.10156689433533 169.97412615507983,80.38955403776576 169.83013258336536,80.61582965046183 169.768421052631,80.86267577340365 169.78899156287676,81.37693852953015 169.74785054238524,81.60321414222621 169.4392928887076,82.26147047006864 168.90445962233827,82.79630373644089 167.93764564081962,83.53684210526345 167.64965849738775,83.86597026918393 167.60851747689622,84.09224588188 167.77308155885646,84.46251506629201 167.87593411008234,85.3676175170748 167.81422257934798,86.56070711128949 167.6702290076335,86.91040578545574 166.99140216954385,87.79493772599423 166.84740859782937,88.16520691040624 166.80626757733785,88.57661711530685 166.8268380875836,89.1114503816791 167.27938931297575,90.55138609883562 167.32053033346727,91.00393732422629 167.13539574126125,91.47705905986271 166.66227400562337,92.15588589795091 166.5594214543975,92.42330253113703 166.5594214543975,92.62900763358734 166.62113298513478,92.89642426677347 166.72398553635773,93.0404178384894 167.46452390518175,93.63696263559602 167.83479308959375,94.3157894736842 168.08163921253413,94.95347529128234 168.24620329449436,95.61173161912478 168.30791482522872,96.00257131378109 168.2873443149859,96.45512253917175 168.12278023302272,96.90767376456388 167.4028123744474,98.28589795098458 166.88854961831797,99.02643631980713 166.41542788268302,99.47898754519926 165.44861390116438,100.26066693451187 163.82354359180187,101.4331860184808 163.63840899959587,101.63889112093256 163.5766974688615,101.8240257131371 163.61783848935303,101.96801928485304 163.7618320610675,102.1325833668133 164.276094817194,102.42057051024517 165.20176777822402,102.83198071514724 166.1274407392511,103.03768581759755 169.33644033748462,103.36681398151804 170.138690237043,103.34624347127374 171.4757734029707,103.22282040980355 172.42201687424648,103.28453194053792 173.38883085576512,103.44909602249962 174.27336279630362,103.79879469666587 175.8572920851746,104.72446765769442 176.43326637203546,104.99188429088055 177.19437525110231,105.19758939333086 178.79887505021907,105.46500602651697 181.53475291281467,106.41124949778984 182.11072719967845,106.69923664122173 182.56327842506767,107.04893531538796 182.72784250703083,107.27521092808404 182.99525914021694,107.89232623543641 183.20096424266578,108.11860184813247 183.50952189634344,108.30373644033702 184.33234230614465,108.53001205303308 184.5380474085964,108.65343511450327 184.80546404178253,109.04427480916104 185.27858577742043,109.53796705504176 185.46372036962643,109.86709521896371 185.64885496182953,110.40192848533596 185.64885496182953,110.95733226195252 185.79284853354693,111.2453194053844 186.14254720771316,111.59501807955064 187.08879067898602,112.21213338690302 187.21221374045768,112.37669746886326 187.19164323021192,112.58240257131357 187.0065086380059,112.93210124547981 185.79284853354693,114.57774206508662 185.09345118521443,115.83254319003566 184.06492567295854,117.1901968662106 183.11868220168566,118.52728003214122 182.52213740457904,119.1238248292493 181.78159903575505,119.7203696263559 181.14391321815984,120.13177983125797 180.1153877059039,120.68718360787453 179.51884290879732,121.13973483326666 179.12800321413954,121.59228605865879 178.6343109682588,122.49738850944159 178.20233025311245,122.99108075532378 177.46179188428843,123.4642024909602 175.17846524708494,124.57501004419477 173.12141422257898,125.15098433105709 172.6482924869411,125.31554841301732 172.40144636400072,125.50068300522332 172.25745279228332,125.7269586179194 172.11345922056884,126.07665729208564 172.07231820008025,126.48806749698625 172.1751707513032,126.8377661711525 172.3603053435092,127.08461229409433 172.58658095620675,127.2286058658088 174.7259140216928,128.2982723985533 175.32245881880235,128.7919646444355 175.87786259541744,129.47079148252368 176.0835676978692,129.8822016874243 176.22756126958367,130.39646444355225 176.22756126958367,131.05472077139467 176.14527922860356,131.81582965046152 175.96014463639756,132.37123342707955 175.69272800321144,132.8237846524702 175.1990357573307,133.39975893933254 174.4173563680181,134.11972679791077 173.9442346323802,134.51056649256708 173.47111289674524,134.79855363599899 173.08027320208745,134.94254720771346 172.25745279228332,135.16882282040953 172.01060666934296,135.31281639212548 171.84604258738273,135.49795098433148 171.70204901566822,135.7859381277619 171.64033748493387,136.1562073121739 171.64033748493387,136.91731619124076 171.6197669746881,137.08188027320247 171.41406187223635,137.22587384491695 170.9203696263556,137.20530333467264 170.7763760546382,137.28758537565278 170.79694656488397,137.9252711932509 170.71466452390385,138.35725190839727 170.48838891120926,138.9537967055039 170.0358376858171,139.87946966653243 169.56271595017924,141.75138609883533 169.27472880674733,142.43021293692206 168.4107673764546,143.89071916432286 168.08163921253413,144.56954600241107 167.8965046203281,145.14552028927338 167.79365206910222,145.76263559662576 167.87593411008234,146.4414624347125 168.2256327842486,147.73740458015305 168.39019686620884,149.65046203294452 169.02788268380698,151.27553234230558 169.50100441944488,152.7154680594621 169.7067095218937,153.74399357171507 169.87127360385688,155.06050622739994 170.0358376858171,155.63648051426225 170.52952993169785,156.8501406187227 170.71466452390385,157.96094817195726 170.94094013659844,158.5163519485738 171.49634391321646,159.46259541984665 171.55805544395082,159.7917235837686 171.49634391321646,160.40883889112098 171.51691442346223,160.73796705504148 172.23688228204048,162.38360787464828 172.3603053435092,162.73330654881454 172.3603053435092,163.08300522298077 172.21631177179472,163.43270389714704 171.9488951386086,163.761832061069 171.33177983125623,164.21438328645965 171.10550421856163,164.4406588991557 171.0232221775815,164.70807553234184 171.08493370831587,164.9137806347936 171.41406187223635,165.20176777822402 171.8666130976285,165.38690237043002 172.62772197669534,165.63374849337038 174.58192044997833,166.08629971876252 174.95218963439035,166.3948573724387 175.44588188027106,166.60056247488902 176.37155484130108,166.78569706709501 177.97605464041786,166.80626757734078 178.9634391321793,166.92969063881097 180.0331056649238,167.25881880273144 181.53475291281467,167.93764564081962 182.29586179188152,168.369626355966 182.76898352751942,168.82217758135815 183.50952189634344,169.80956207312104 184.57918842908794,171.0232221775815 184.78489353153677,171.45520289272787 184.764323021291,171.78433105664982 184.57918842908794,172.13402973081605 184.2294897549217,172.5042989152266 183.61237444756932,173.03913218159886 183.44781036560616,173.22426677380486 183.30381679389168,173.8825231016473 183.03640016070554,174.49963840899966 182.9129770992339,175.09618320610628 182.81012454801095,175.30188830855806 182.6455604660507,175.50759341100834 182.13129770992128,175.7750100441945 180.8147850542364,176.20699075934084 179.78625954198344,176.88581759742905 178.86058658095635,177.40008035355552 178.09947770188657,177.8937725994377 176.98867014865345,178.34632382482985 176.7829650462017,178.5108879067901 176.76239453595593,178.5931699477702 176.82410606669322,178.67545198875032 177.09152269987933,178.75773402973047 179.43656086781718,178.88115709120063 180.07424668541532,178.96343913218075 180.6913619927677,179.14857372438678 181.4730413820803,179.4777018883087 182.02844515869833,179.82740056247496 182.29586179188152,180.13595821615115 182.33700281237304,180.44451586982734 182.13129770992128,180.79421454399358 181.37018883085443,181.63760546404203 180.7325030132563,182.8306950582567 179.82740056247496,184.0237846524714 179.6628364805118,184.43519485737198 179.55998392928885,185.2168742466846 179.39541984732566,185.60771394134238 179.12800321413954,185.91627159501857 178.3668943350727,186.5950984331053 177.97605464041786,187.10936118923178 177.58521494576007,187.91161108879015 177.42065086379984,188.61100843712265 177.27665729208243,188.85785456006448 176.18642024909508,189.88638007231748 175.1990357573307,190.35950180795535 174.7876255524301,190.62691844114147 174.4173563680181,191.1206106870222 173.86195259140007,191.57316191241435 173.61510646845971,192.25198875050253 173.40940136600796,192.58111691442303 172.52486942546946,193.2805142627555 172.27802330252908,193.54793089594165 172.1340297308146,194.0621936520696 172.1340297308146,194.24732824427414 172.1751707513032,194.39132181599007 172.3603053435092,194.53531538770602 173.40940136600796,195.04957814383252 173.59453595821395,195.29642426677435 173.63567697870548,195.58441141020475 173.55339493772536,195.87239855363518 173.36826034551936,196.13981518682132 172.46315789473508,196.79807151466375 172.19574126154896,197.08605865809562 172.05174768983449,197.3123342707917 172.01060666934296,197.53860988348777 172.07231820008025,197.86773804740824 172.46315789473508,198.6082764162308 173.38883085576512,199.63680192848526 173.8002410606657,200.5624748895138 174.0265166733603,200.97388509441586 174.8287665729187,201.8584170349529 175.44588188027106,202.72237846524712 176.12470871836072,203.42177581357961 176.43326637203546,203.83318601848168 176.70068300522158,204.34744877460815 176.80353555644746,204.6148654077943 176.80353555644746,204.84114102049034 176.68011249497582,205.3142627561268 176.72125351546734,205.5816793893129 177.58521494576007,206.50735235034148 177.9966251506607,207.06275612695802 178.09947770188657,207.2890317396541 178.0377661711522,207.4741663318601 177.77034953796607,207.63873041382033 177.6674969867402,207.78272398553628 177.7497790277203,208.39983929288866 177.58521494576007,208.77010847730065 177.1120932101222,209.1403776617112 175.98071514664332,209.75749296906358 175.65158698272285,210.06605062273977 175.36359983929094,210.45689031739607 175.1990357573307,210.86830052229814 175.17846524708494,211.73226195259087 175.07561269585906,212.18481317798302 174.86990759341023,212.47280032141342 174.27336279630362,212.94592205705132 174.17051024507774,213.0899156287658 174.21165126556633,213.21333869023744 174.52020891924397,213.5630373644037 174.4996384089982,213.8715950180799 174.35564483728373,214.09787063077593 173.9030936118916,214.4475693049422 173.82081157091147,214.57099236641238 173.92366412213735,214.71498593812686 174.35564483728373,214.8589795098428 175.0139011651247,214.90012053033286 175.58987545198846,215.27038971474488 175.96014463639756,215.6200883889111 176.5566894335071,216.38119726797942 176.84467657693605,216.77203696263572 176.98867014865345,217.06002410606615 177.00924065889922,217.26572920851794 176.9680996384077,217.47143431096822 176.39212535154684,218.04740859783055 176.2687022900752,218.31482523101667 176.33041382080955,218.82908798714317 176.68011249497582,219.81647247890754 176.24813177982944,221.544395339493 176.2687022900752,221.97637605464084 176.45383688228122,222.59349136199322 176.70068300522158,223.128324628364 177.17380474085945,223.76601044596214 177.3795098433083,224.54768983527475 177.52350341502571,224.58883085576483 177.97605464041786,224.4859783045404 178.4491763760528,224.65054238650063 178.61374045801304,224.77396544797082 179.68340699075756,226.70759341100805 180.5062274005617,227.7361189232625 181.96673362796105,229.09377259943744 182.46042587384468,229.93716351948586 182.58384893531343,229.99887505022022 182.89240658899107,229.99887505022022 183.0569706709513,230.08115709120034 184.10606669345006,231.06854158296474 184.35291281639041,231.41824025713098 184.43519485737053,231.78850944154297 183.9415026114898,233.29015668943384 183.61237444756932,233.80441944556034 183.34495781438318,234.01012454801065 182.3987143431074,234.50381679389284 182.13129770992128,234.77123342707895 181.67874648453207,235.4294897549214 181.4319003615888,235.69690638810752 180.42394535958158,236.4991562876659 179.37484933708282,237.11627159501828 178.4080353555642,238.00080353555677 177.6263559662516,238.4122137404574 176.70068300522158,238.6796303736435 175.98071514664332,238.72077139413358 174.9316191241446,238.53563680192755 174.56134993973257,238.5973483326634 174.33507432703797,238.76191241462362 173.55339493772536,239.54359180393772 172.54543993571522,240.3458417034946 172.29859381277484,240.6543993571708 172.25745279228332,241.0452390518271 172.38087585375496,241.49779027721925 172.68943350743262,241.95034150261137 173.12141422257898,242.34118119726767 173.69738850943983,242.58802732020806 176.20699075934084,243.287424668542 176.7418240257131,243.55484130172667 177.1120932101222,243.84282844515855 177.2972278023282,244.1102450783447 177.4412213740456,244.3982322217751 177.6674969867402,245.5707513057455 177.87320208919195,246.12615508236203 177.81149055845466,246.33186018481234 177.5646444355143,246.49642426677406 176.98867014865345,246.64041783848853 175.81615106468308,246.7226998794701 175.17846524708494,246.68155885897858 174.33507432703797,246.5375652872641 172.81285656890134,246.1467255926078 171.6197669746881,245.73531538770573 170.2209722780231,244.97420650863742 168.7398955403751,244.35709120128504 168.18449176376,244.1925271193248 166.7034150261149,243.88396946564862 165.92173563679935,243.88396946564862 164.29666532743977,244.17195660907905 162.136761751705,244.3776617115308 161.68421052631578,244.35709120128504 161.45793491361826,244.2542386500606 161.33451185214955,244.04853354760886 161.33451185214955,243.18457211731612 161.19051828043214,242.69087987143394 160.923101647246,242.30004017677763 160.63511450381412,242.13547609481736 160.3265568501394,242.8143029329041 159.56544797107256,244.13081558858897 159.2157492969063,244.99477701888318 158.61920449979675,246.82555243069453 158.57806347930816,247.19582161510655 158.66034552028827,247.77179590196886 158.74262756126842,248.05978304539929 158.92776215347442,248.34777018883116 159.5860184813154,249.10887906789802 160.20313378866777,249.93169947770215 160.86139011651164,250.6105263157889 161.6224989955785,251.1865006026512 162.89787063077478,251.82418642024933 163.61783848935303,252.2561671353957 164.11153073523377,252.64700683005202 164.39951787866565,252.97613499397397 164.81092808356624,253.73724387304082 164.9754921655265,254.16922458818718 165.24290879871262,255.5063077541178 165.26347930895838,256 164.4612294094,255.8765769385298Z"/>
  </g>
</svg>