<?xml version="1.0" encoding="UTF-8" standalone="no"?>
<svg viewBox="0 0 256 159.94313277481572" xmlns="http://www.w3.org/2000/svg">
  <style>
    g.zone {
      fill: lightgray;
      stroke-width: 2;
      stroke-linecap: square;
      stroke-linejoin: bevel;
      stroke-miterlimit: 3;
      stroke-opacity: 0.8;
      stroke: black;
      fill-opacity: 0.3;
    }
  </style>
  <g class="zone" id="zone">
    <path d="M59.87125892076458,133.33288200614933 59.55352458322798,133.31843953626137 59.09858678175582,133.31843953626137 57.38715410002574,133.4845279399734 55.05469521311197,133.5350765845816 54.54198753208686,133.5711827593018 54.1231559053349,133.62173140390948 53.47324476037423,133.74449239795757 52.73667879608567,133.91780203661384 51.7545908436999,134.19220896448599 49.414910721841885,134.89266875405485 48.273955600688836,135.18151815181497 47.56627457617624,135.31150038080733 46.77915996727898,135.4125976700237 46.10758511748659,135.45592507968763 45.60209867140573,135.44148260979966 45.36379791825379,135.41981890496743 45.12549716510185,135.36927026035926 44.80776282756524,135.24650926631116 44.62001071902098,135.1309695072073 44.504470959917136,135.03709345293518 44.266170206765196,134.76268652506303 44.114524272940116,134.50272206707834 43.9845420439488,134.16332402471002 43.76068376068433,133.09458125299687 43.68125017629967,132.86350173478868 43.515161772588144,132.51688245747664 43.32018842909964,132.28580293926842 43.20464866999579,132.18470565005205 43.06022397111598,132.0836083608362 42.778595808299585,131.9608473667881 42.41753406109853,131.86697131251594 42.15756960311487,131.88863501734767 41.88316267524273,131.9464048969001 41.68096809680997,132.01139601139627 41.38489746410611,132.16304194522033 41.00217201207334,132.45189134298047 40.366703337001155,133.07291754816518 40.070632704296266,133.3256607712056 39.65902231248856,133.58562522918976 39.19686327607215,133.77337733773405 38.66249189021532,133.9250232715581 38.20033285379891,134.00445685594224 37.694846407718046,134.06222673549416 36.27948435869285,134.17776649459802 35.23962652675618,134.34385489831055 33.910919297058875,134.6182618261827 33.282671856929916,134.76990776000676 32.79162788073754,134.93599616371878 32.423344898593264,135.12374827226307 32.24281402499222,135.26095173619913 32.08394685622495,135.4125976700237 31.968407097120075,135.57868607373572 31.888973512736438,135.75199571239202 31.816761163296018,136.07695128487237 31.80231869340855,136.8785083636571 31.758991283744095,137.26845505063307 31.701221404192175,137.49231333389756 31.61456658486429,137.74505655693798 31.499026825760442,137.99057854503417 31.37626583171235,138.19999435841015 31.188513723168086,138.46718005133854 31.029646554399786,138.65493215988283 30.834673210911276,138.85712673831506 30.603593692702557,139.05932131674732 30.372514174494864,139.22540972045934 30.141434656286147,139.36983441933916 29.867027728413998,139.50703788327573 29.570957095710135,139.62979887732382 29.16656793884565,139.75978110631567 28.675523962653276,139.86087839553204 28.184479986460904,139.91864827508397 27.657329835548325,139.93309074497193 27.079631040027042,139.9114270401397 26.689684353051046,139.88254210036376 25.295986008857568,139.70201122676374 24.747172153113272,139.65146258215555 24.19835829736898,139.62257764237958 23.093509350935115,139.60091393754786 22.681898959127405,139.57925023271565 22.349722151703336,139.5359228230517 22.031987814166733,139.47093170855553 21.80812953090226,139.40594059405936 21.425404078869487,139.23263095540307 21.223209500437758,139.095427491467 21.08600603650117,138.9726664974189 20.963245042453078,138.83546303348282 20.82604157851752,138.62604722010687 20.674395644693462,138.29387041268228 20.5949620603088,137.99057854503417 20.558855885588592,137.7883839666019 20.515528475925162,137.36955233984946 20.472201066260705,136.56799526106474 20.428873656597275,136.25748215847236 20.3277763673809,135.93974782093576 20.212236608277053,135.74477447744778 20.11836055400492,135.62201348339968 19.901723505684696,135.4125976700237 19.65620151758851,135.23206679642317 19.273476065555737,135.01542974810295 18.125299709458446,134.43050971763844 17.77868043214588,134.2066514343745 17.482609799442017,133.95390821133404 17.215424106514117,133.67228004851765 16.96990211841793,133.35454571098157 16.132238864912996,132.06194465600396 15.821725762320638,131.6286705593635 15.46066401511958,131.19539646272307 15.063496093199339,130.79822854080282 14.760204225551231,130.53826408281864 14.456912357903121,130.31440579955418 13.778116273166486,129.88113170291373 13.200417477645203,129.57061860032138 11.857267778060427,128.92792869030495 11.229020337931468,128.61019435276884 10.369693379594816,128.13359284646396 9.228738258441771,127.44757552678358 8.484951059208965,126.97819525542292 7.835039914248292,126.53769992383874 7.286226058503996,126.11164706214203 6.860173196807795,125.72892161010977 6.426899100167345,125.2595413387491 6.073058587910534,124.81182477222067 5.762545485318178,124.32800203097256 5.517023497221992,123.85862175961189 5.3509350935094435,123.42534766297145 5.2426165693498445,123.04984344588291 5.047643225861334,121.92333079461785 4.953767171589203,121.53338410764135 4.794900002820901,121.12899495077737 4.571041719557456,120.73904826380087 4.217201207300644,120.34188034188062 4.036670333700629,120.17579193816808 3.9211305745967824,120.0891371188402 3.393980423684202,119.77140278130359 2.318016417027326,119.2225889255593 2.0363882542109315,119.04205805195927 1.8341936757781747,118.8904121181347 1.5886716876819886,118.6593325999265 1.3936983441934787,118.41381061183031 1.2131674705934627,118.10329750923796 1.133733886209825,117.87943922597401 1.0470790668819405,117.49671377394175 1.0398578319376934,117.09232461707725 1.0904064765453696,116.64460805054883 1.3431496995858025,115.32312205579525 1.379255874306011,114.94039660376299 1.3720346393617642,114.53600744689851 1.3287072296983349,114.17494569969847 1.1481763560972926,113.24340639192141 1.0904064765453696,112.77402612056075 1.0615215367694082,112.17466362020826 1.0326365969934466,110.50655834814263 0.9965304222732381,109.94330202250985 0.945981777665562,109.5100279258694 0.8737694282251451,109.01898394967702 0.765450904065546,108.50627626865243 0.25996445798467993,106.61431271332285 0.09387605427213151,105.87052551409003 0.03610617472020845,105.43725141744959 0,104.9823136159769 0,104.58514569405668 0.028884939776987726,104.17353530224845 0.10831852416062537,103.61027897661566 0.23830075315296534,103.06146512087136 0.4116103918087345,102.53431496995879 0.6354686750732059,101.99272234915823 0.9026543680011067,101.48723590307736 1.2059462356492157,101.01785563171721 1.5164593382415719,100.64957264957293 1.8053087360022133,100.40405066147623 2.0075033144349703,100.27406843248441 2.2746890073628707,100.15130743843632 2.5563171701792653,100.07187385405217 2.7801754534437366,100.04298891427621 3.271219429636109,100.04298891427621 4.1738737976361895,100.15130743843632 4.6143691292208855,100.18741361315652 5.018758286085373,100.17297114326803 5.430368677894108,100.10798002877237 5.820315364870101,99.97799779978003 6.109164762630742,99.811909396068 6.354686750726929,99.5808298778598 6.5279963893826976,99.32808665481936 6.636314913543323,99.06090096189095 6.701306028039493,98.80093650390678 6.744633437702922,98.46153846153847 6.766297142535663,98.0788130095062 6.759075907591416,97.52277791881765 6.722969732871207,97.00284900284933 6.51355391949523,95.49361089955148 6.455784039943307,94.87258469436678 6.4846689797192685,94.2226735494061 6.542438859271192,93.8688330371498 6.600208738823115,93.62331104905361 6.6940847930952465,93.3344616512935 6.8024033172548455,93.06005472342135 7.076810245128019,92.5401258074525 7.40898705255209,92.05630306620436 8.326083890440664,90.9297904149388 8.57160587853685,90.54706496290653 8.759357987081113,90.16433951087427 8.8965614510177,89.80327776367373 9.0048799751773,89.32667625736933 9.055428619786001,88.91506586556112 9.105977264393678,88.01963273250425 9.149304674058133,87.54303122619986 9.228738258441771,87.10253589461517 9.322614312713903,86.7342529124709 9.53203012608988,86.14933288200639 9.734224704522637,85.70883755042169 10.037516572170746,85.18890863445336 10.39135708442653,84.71230712814896 10.788525006346772,84.30069673634023 11.099038108939128,84.04795351330031 11.359002566923808,83.88186510958776 11.893373952780635,83.60023694677187 12.810470790669209,83.25361766945932 13.66979774900586,82.97198950664291 14.348593833742497,82.79145863304291 14.95517756903974,82.67591887393854 16.435530732561105,82.43039688584236 16.854362359313058,82.34374206651448 17.374291275281394,82.21375983752213 18.197512058898862,81.93213167470626 19.778962511636603,81.28944176468931 20.46497983131646,81.04391977659313 21.288200614933928,80.81284025838492 22.125863868438863,80.63953061972865 23.382358748695758,80.45177851118437 24.72550844828156,80.3145750472483 34.51028179741085,79.62855772756794 39.86121689092029,79.16639869115153 40.75665002397715,79.12307128148707 41.46433104848975,79.11585004654333 42.22978195255426,79.13751375137505 43.5079405376439,79.20972610081546 43.92677216439688,79.20972610081546 44.33116132126034,79.18084116103951 44.612789484076735,79.10862881159909 44.930523821613335,78.97864658260725 45.12549716510185,78.87754929339089 45.78985077994999,78.46593890158266 46.23756734647893,78.24930185326244 46.69972638289534,78.10487715438211 47.21243406391943,78.03266480494221 47.63848692561563,78.02544356999796 48.02843361259265,78.06877097966242 48.46892894417735,78.14820456404605 49.40768948689764,78.38650531719851 49.96372457758618,78.48038137147064 50.44032608389108,78.51648754619085 51.01802487941134,78.48760260641437 51.44407774110754,78.41539025697448 51.9640066570769,78.24208061831818 52.40450198866057,78.01822233505423 53.29271388677421,77.49829341908539 53.740430453302125,77.26721390087718 54.22425319455025,77.07224055738918 55.54573918930434,76.59563905108479 55.97901328594479,76.39344447265255 56.25342021381694,76.24179853882849 56.63614566584869,75.97461284590008 56.96110123832953,75.68576344813995 57.184959521594,75.3752503455476 57.34382669036128,75.07917971284321 57.452145214521906,74.72533920058692 57.48103015429787,74.33539251361042 57.452145214521906,73.9959944712421 57.34382669036128,73.58438407943387 57.184959521594,73.22332233223332 57.04053482271317,72.9705791091929 56.78779159967274,72.6167385969366 56.56393331640929,72.34233166906445 56.02234069560822,71.80796028320813 54.98248286367155,70.919748385095 54.53476629714261,70.49369552339881 54.11593467039065,70.04597895687037 53.85597021240597,69.70658091450206 53.58156328453383,69.26608558291737 53.37936870610209,68.81836901638893 53.242165242165505,68.34176751008454 53.16995289272509,67.81461735917196 53.16273165778187,67.43911314208344 53.184395362613586,67.0780513948834 53.350483766326136,65.821556514626 53.37936870610209,65.40994612281777 53.372147471157845,65.12109672505714 53.34326253138189,64.75281374291286 53.12662548306166,63.27246057939149 53.076076838453986,62.60810696454284 53.076076838453986,62.16761163295814 53.10496177822995,61.87876223519802 53.2060590674453,61.30828467462149 53.33604129643764,60.89667428281327 53.502129700150185,60.5139488307805 53.71154551352617,60.14566584863622 53.920961326902145,59.88570139065205 54.15204084511086,59.676285577275564 54.476996417590684,59.46686976389958 54.859721869623456,59.308002595131285 55.2568897915437,59.20690530591542 55.74793376773607,59.15635666130723 56.238977743928444,59.15635666130723 58.71586132972305,59.37299370962745 59.08414431186733,59.44520605906735 59.37299370962796,59.531860878395754 59.72683422188375,59.69072804716406 60.03734732447611,59.89292262559579 60.21787819807715,60.10955967391601 60.340639192125245,60.31175425234825 60.44173648134059,60.52839130066848 60.506727595836765,60.78835575865316 60.57893994527718,61.35883331922968 60.62948858988486,62.66587684409476 60.68725846943678,63.28690304927947 60.81001946348487,63.92237172435217 60.98332910214167,64.46396434515273 61.10609009618976,64.73837127302488 61.26495726495806,65.01277820089702 61.45270937350232,65.26552142393746 61.63324024710234,65.46049476742546 61.84265606047832,65.63380440608174 62.102620518463,65.77822910496205 62.326478801726445,65.86488392428994 62.550337084990915,65.91543256889813 62.90417759724773,65.92265380384187 63.24357563961605,65.87932639417792 63.61185862176033,65.76378663507407 63.97292036896036,65.58325576147355 64.22566359200079,65.42438859270575 64.50729175481719,65.20775154438553 64.74559250796912,64.99111449606531 65.31607006854615,64.41341570054453 65.53270711686639,64.22566359200027 65.79267157485003,64.04513271840025 66.05263603283471,63.91515048940792 66.46424642464243,63.79238949535983 66.90474175622712,63.727398380863654 68.45008603424465,63.669628501311735 69.10721841414957,63.60463738681556 69.57659868551023,63.51798256748768 70.02431525203815,63.395221573439585 70.45036811373436,63.207469464895325 70.8114298609354,62.969168711742874 71.05695184903159,62.75975289836689 71.66353558432782,62.08095681363026 71.9596062170327,61.79210741587013 72.3639953738972,61.48881554822151 72.8261544103136,61.21440862034936 73.40385320583385,60.968886632253174 74.09709176045898,60.75224958393295 75.05029477306778,60.54283377055646 76.16236495444485,60.36952413190069 76.79783362951703,60.3189754872925 77.11556796705364,60.3189754872925 77.48385094919792,60.340639192124726 77.77270034695856,60.38396660178867 78.14098332910284,60.45617895122857 78.67535471495864,60.62226735494061 79.05808016699142,60.76669205382093 79.67910637217612,61.04832021663733 81.3399904092975,61.907647174973974 82.06933513864284,62.254266452286544 82.89977715720353,62.61532819948658 84.16349327240466,63.113593410623196 84.47400637499702,63.25079687455926 84.8061831824211,63.42410651321555 85.10225381512598,63.60463738681556 85.3549970381654,63.80683196524781 85.52108544187794,63.96569913401611 85.6871738455905,64.17511494739209 85.78104989986262,64.34120335110464 85.86048348424626,64.55784039942486 85.90381089391072,64.78891991763307 85.91103212885393,64.99833573100905 85.8315985444703,65.28718512876917 85.73772249019817,65.55437082169759 85.49942173704622,66.03097232800198 85.1239175199577,66.63033482835498 84.19959944712488,67.97348452794026 83.83853769992382,68.59451073312498 82.95754703675546,70.50091675834254 81.94657414459475,72.48675636794476 81.70105215649856,73.07167639840928 81.61439733716965,73.40385320583334 81.59273363233794,73.678260133706 81.62883980705814,73.92378212180219 81.72271586133027,74.11875546529019 81.84547685537837,74.25595892922627 82.04045019886688,74.3859411582186 82.3654057713467,74.5087021522667 82.66147640405056,74.55925079687488 82.93588333192373,74.53036585709842 83.19584778990739,74.47259597754649 83.49191842261229,74.37871992327436 83.64356435643633,74.2992863388902 83.96851992891615,74.08987052551423 84.89283800174898,73.41829567572132 86.09878423739819,72.63118106682458 86.54650080392713,72.2990042594005 86.90034131618292,71.97404868692017 87.18919071394356,71.67075681927155 88.15683619644084,70.58035034272669 88.50345547375238,70.23373106541413 88.85007475106494,69.93766043271026 89.23280020309771,69.65603226989387 89.66607429973817,69.40328904685344 90.0776846915469,69.21553693830917 90.51095878818735,69.0783334743731 90.90090547516334,68.99167865504522 91.33417957180379,68.94835124538128 91.77467490338849,68.955572480325 92.17184282530873,69.0061211249332 92.54734704239725,69.08555470931735 92.8939663197088,69.18665199853321 94.45375306761483,69.749908324166 95.19754026684762,69.97376660742997 95.70302671292849,70.09652760147806 96.30961044822472,70.21206736058241 97.21226481622581,70.32760711968626 97.72497249724991,70.36371329440647 98.41098981693078,70.3853769992387 99.18366195593956,70.34927082451848 99.52305999830787,70.2987221799103 99.89134298045215,70.21206736058241 100.13686496854834,70.11819130631028 100.3607232518128,69.99543031226219 100.54847536035707,69.85822684832611 100.70734252912537,69.67769597472558 100.82288228822922,69.48272263123759 100.90231587261286,69.24442187808513 100.93120081238881,69.01334235987693 100.91675834250135,68.78226284166873 100.85176722800517,68.52229838368456 100.7506699387888,68.26955516064464 100.51236918563686,67.89405094355611 100.15130743843683,67.48244055174737 98.43987475670674,65.83599898451398 97.45056556937776,64.91890214662489 97.20504358128157,64.65893768864072 97.04617641251326,64.46396434515273 96.93063665340942,64.29787594144018 96.84398183408153,64.13178753772814 96.78621195452962,63.96569913401611 96.75732701475263,63.814053200192056 96.7501057798094,63.65518603142375 96.77899071958537,63.51076133254343 96.82953936419304,63.37355786860736 96.90175171363346,63.25801810950351 97.02451270768155,63.12803588051117 97.21948605117007,63.00527488646308 97.41445939465754,62.92584130207893 97.71775126230565,62.86807142252701 98.20157400355481,62.84640771769478 99.26309554032319,62.88973512735923 99.93467039011661,62.88973512735923 100.62790894474071,62.85362895263903 101.27059885475714,62.77419536825487 101.7905277707265,62.66587684409476 102.29601421680633,62.53589461510242 102.76539448816699,62.37702744633464 103.31420834391129,62.16039039801441 103.79080985021619,61.943753349694184 104.41905729034515,61.60435530732587 104.8378889170971,61.3443908493417 105.24227807396159,61.05554145158106 105.59611858621841,60.75224958393295 105.95718033341844,60.39840907167665 107.14868409917916,59.127471721531265 107.49530337649172,58.81695861893891 107.7191616597562,58.64364898028263 108.11632958167644,58.39812699218644 108.48461256382072,58.224817353530156 108.80956813630156,58.10205635948207 109.20673605822181,57.99373783532195 109.82776226340651,57.89986178104982 110.44878846859123,57.878198076218105 110.98315985444702,57.9143042509378 111.71972581873558,58.022622775097915 112.83179600011267,58.27536599813835 114.64432597105913,58.73752503455476 115.47476798961982,59.00471072748317 116.10301542974878,59.26467518546734 116.59405940594115,59.531860878395754 116.92623621336523,59.75571916165971 117.31618290034122,60.05901102930834 117.7205720572057,60.42729401145262 118.06719133451827,60.82446193337285 118.33437702744617,61.19996615046138 119.00595187723958,62.39869115116635 119.19370398578384,62.70198301881497 119.36701362443962,62.933062537023176 119.56920820287237,63.14247835039915 119.7714027813041,63.29412428422321 120.00248229951282,63.38800033849534 120.26244675749648,63.431327748159795 120.58018109503308,63.40966404332757 120.86180925784947,63.30856675411119 121.22287100504951,63.14247835039915 122.08219796338615,62.67309807903901 122.53713576485934,62.4420185608308 122.9415249217228,62.2831513920625 123.32425037375558,62.16039039801441 123.69975459084411,62.07373557868601 124.14747115737202,62.01596569913409 125.63504555583764,61.922089644861956 126.19108064652617,61.87154100025377 126.67490338777533,61.77766494598215 127.09373501452728,61.640461482045566 127.53423034611198,61.43104566866958 127.95306197286394,61.14219627090946 128.28523878028903,60.84612563820508 128.9856985698574,60.14566584863622 129.33953908211316,59.864037685819824 129.5706186003219,59.734055456827996 129.86668923302574,59.604073227835656 130.18442357056236,59.510197173563526 130.53826408281915,59.452427294011606 131.17373275789134,59.42354235423564 131.84530760768374,59.46686976389958 132.54576739725312,59.5751882880597 134.6688104707909,59.994019914812164 135.38371273024774,60.08789596908429 135.91808411610455,60.11678090886026 136.4235705621844,60.1240021438045 137.04459676736911,60.08789596908429 137.60063185805765,60.02290485458813 138.96544526247519,59.806267806267904 139.7670023412599,59.75571916165971 141.56508984231786,59.79182533637992 143.4426109277595,59.77738286649194 144.0491946630567,59.79182533637992 144.7713181574568,59.85681645087609 145.89783080872238,60.05178979436409 146.30221996558686,60.09511720402803 146.67050294773114,60.066232264252065 146.85103382133116,60.030126089532374 147.0604496347071,59.9651349750362 147.29875038786008,59.83515274604386 147.50816620123607,59.69072804716406 147.7248032495563,59.495754703675544 147.81867930382842,59.365772474683716 147.98476770753993,59.10580801669904 148.08586499675633,58.87472849849083 148.17251981608422,58.58587910073071 148.2230684606929,58.297029702970576 148.23751093058038,57.95041042565801 148.21584722574866,57.582127443513734 148.16529858113995,57.286056810809356 148.08586499675633,57.03331358776892 147.97032523765247,56.780570364729 147.84756424360438,56.585597021240496 147.66703337000436,56.37618120786452 147.47206002651586,56.22453527404046 147.3204140926918,56.145101689656315 147.10377704437158,56.06566810527216 146.90158246593882,56.015119460663975 146.67772418267538,55.979013285944276 146.41775972469068,56.00067699077599 146.03503427265792,56.10177427999237 145.74618487489832,56.217314039096216 145.5295478265781,56.35451750303229 145.26236213364916,56.56393331640878 144.74243321768083,57.02609235282519 144.3669290005923,57.30049928069734 144.1358494823846,57.42326027474543 143.9047699641759,57.52435756396181 143.66646921102395,57.58934867845798 143.43538969281522,57.63267608812192 143.15376152999985,57.654339792953635 142.93712448167963,57.654339792953635 142.6843812586392,57.62545485317767 142.3449832162709,57.560463738681506 141.99836393895833,57.45936644946564 141.66618713153426,57.34382669036128 141.3556740289419,57.213844461369455 141.0162759865736,57.04053482271317 140.76353276353314,56.88166765394487 140.58300188993312,56.737242955065064 140.40969225127634,56.55671208146453 140.25804631745228,56.35451750303229 140.1713914981244,56.18842909932025 140.07751544385226,55.95734958111205 139.84643592564456,55.148571267383076 139.72367493159646,54.823615694902735 139.54314405799542,54.50588135736665 139.3048433048435,54.253138134326214 139.080985021579,54.10149220050216 138.79935685876262,53.96428873656608 138.4599588163943,53.848748977462236 137.65118050266636,53.62489069419777 137.23957011085764,53.48768723026169 136.8424021889374,53.314377591605414 136.43079179712865,53.076076838453474 136.10583622464884,52.83777608530102 135.82420806183242,52.577811627316855 135.58590730867948,52.31062593438844 134.92155369383133,51.48740515077149 134.69769541056687,51.26354686750753 134.47383712730237,51.06135228907528 134.25720007898215,50.90970635525123 134.01889932583023,50.75806042142666 133.05847507827718,50.28145891512227 132.64686468646846,50.05037939691406 132.19914811994053,49.73986629432171 131.75865278835585,49.357140842289446 131.52757327014814,49.12606132408124 131.31093622182792,48.866096866097074 131.15206905305962,48.642238582832604 131.0220868240673,48.418380299568646 130.92098953485092,48.17285831147246 130.863219655299,47.97066373304022 130.69713125158745,47.1907703590872 130.61047643225857,46.959690840879 130.50215790809895,46.77915996727898 130.35773320921913,46.598629093678966 130.1410961608989,46.4108769851347 129.8955741728017,46.25923105131065 129.6789371244825,46.16535499703851 129.24566302784206,46.04259400299042 128.80516769625737,45.98482412343799 128.14803531635243,45.97760288849425 127.23815971340709,46.013709063213945 126.69656709260704,46.06425770782214 126.21274435135892,46.13647005726204 124.63129389862118,46.504753039406836 124.03915263321242,46.61307156356695 123.3820202533075,46.6780626780626 122.66711799385067,46.6780626780626 122.2338438972102,46.63473526839866 121.80779103551401,46.56974415390249 121.13621618572162,46.4108769851347 120.73182702885714,46.273673521198624 120.248004287609,46.0931426475981 119.80028772108007,45.883726834222124 119.36701362443962,45.65986855095765 118.73154494936743,45.26992186398166 118.478801726327,45.074948520493145 118.22605850328657,44.85109023722919 118.00942145496634,44.62001071902098 117.82889058136632,44.38893120081278 117.68446588248652,44.14340921271608 117.5617048884374,43.89788722461989 117.49671377394226,43.70291388113189 117.43894389438931,43.457391893035705 117.38839524978164,43.01689656145101 117.39561648472588,42.61972863953077 117.4533863642778,41.55098586781763 117.47505006910951,40.81441990352907 117.44616512933355,40.30171222250447 117.38117401483738,39.868438125864024 117.24397055090182,39.38461538461539 117.12843079179798,39.117429691687484 117.0128910326931,38.92245634819897 116.9045725085335,38.75636794448694 116.74570533976521,38.56861583594267 116.37742235762093,38.2364390285186 116.21133395390838,38.12812050435849 115.98025443570069,38.012580745254134 115.56142280894771,37.86815604637381 115.17147612197171,37.79594369693391 114.74542326027552,37.79594369693391 114.29048545880232,37.86815604637381 114.02329976587443,37.94758963075796 113.77777777777824,38.0414656850301 113.40949479563396,38.22199655863062 112.65848636145691,38.68415559504704 112.3768581986405,38.84302276381482 112.00857521649623,38.99466869763939 111.61140729457598,39.095765986855255 111.18535443287979,39.1390933965192 110.93261120983935,39.131872161575465 110.67986798679893,39.1029872217995 110.17438154071806,38.9802262277509 109.64001015486225,38.77081041437492 108.9034441905737,38.395306197286395 108.07300217201198,37.89704098615029 107.19923274378786,37.29045725085356 106.52043665905123,36.741643395108746 106.15937491185016,36.395024117796694 105.80553439959438,36.00507743082019 104.66457927844134,34.51750303235458 103.21311105469593,32.79162788073703 102.98925277143147,32.56054836252883 102.73650954839103,32.3439113142086 102.39711150602271,32.11283179600039 102.0432709937659,31.917858452511886 102.17325322275823,31.751770048799848 102.58486361456697,31.32571718710365 102.77261572311124,31.202956193055556 102.98203153648721,31.123522608671404 103.24921722941511,31.06575272911948 103.50196045245555,31.044089024287253 104.12298665764025,31.09463766889544 104.49126963978453,31.087416433951194 104.62847310372112,31.058531494175234 105.01841979069712,30.92132803023916 105.21339313418564,30.87077938563097 105.87052551409055,30.8057882711348 106.00772897802611,30.755239626527125 106.31824208061846,30.589151222814575 106.49155171927526,30.5386025782069 106.76595864714741,30.52416010831892 107.14146286423593,30.589151222814575 107.22089644861957,30.574708752926597 107.3003300330032,30.5386025782069 107.33643620772342,30.47361146371073 107.35087867761192,30.26419565033424 107.39420608727535,30.141434656286147 107.57473696087638,29.81647908380581 107.67583425009174,29.679275619869735 107.863586358636,29.477081041437494 108.49183379876496,28.94993089052491 108.70124961214094,28.71163013737297 108.96843530506884,28.30001974556424 109.61112521508629,27.73676341993196 109.78443485374206,27.549011311387698 109.8927533779027,27.404586612507376 109.9505232574546,27.24571944373959 109.9505232574546,27.06518857013906 109.92163831767864,26.927985106202986 109.75554991396609,26.5235959493385 109.73388620913438,26.415277425178388 109.74832867902185,26.31418013596252 109.80609855857378,26.22030408169039 110.11661166116613,25.82313615977015 110.31158500465465,25.635384051225888 111.1709119629913,25.043242785817135 111.3514428365913,24.934924261657024 111.6330709994077,24.84104820738489 112.06634509604815,24.754393388057007 112.29020337931263,24.725508448281047 112.75236241572904,24.711065978393066 113.20007898225798,24.617189924120932 113.6694592536176,24.63885362895265 114.21105187441869,24.624411159064667 114.6587684409466,24.689402273560837 114.91151166398703,24.66773856872861 115.0992637725313,24.624411159064667 115.33756452568323,24.516092634904556 115.55420157400346,24.393331640856463 115.92248455614876,24.12614594792856 115.9874756706439,24.090039773208353 116.11745789963625,24.06115483343239 116.24021889368434,24.06115483343239 116.38464359256517,24.09726100815209 117.38839524978164,24.37888917096848 117.71335082226248,24.458322755352633 117.8938816958625,24.472765225240614 118.0022002200221,24.46554399029688 118.09607627429423,24.436659050520404 118.14662491890293,24.40055287580071 118.21883726834233,24.28501311669635 118.3199345575587,23.909508899608337 118.43547431666255,23.685650616343864 118.67377506981552,23.37513751375151 119.08538546162322,22.941863417111062 119.20814645567131,22.7541113085668 119.2948012749992,22.465261910806667 119.33812868466366,21.99588163944601 119.28035880511173,21.425404078869487 119.28758004005599,20.934360102677118 119.13593410623193,20.363882542100594 119.10704916645494,20.19779413838856 119.10704916645494,20.053369439508238 119.17204028095111,19.7284138670279 119.17204028095111,19.59843163803556 119.08538546162322,19.338467180051396 118.96984570251938,18.88352937857923 118.80375729880683,18.443034046994534 118.72432371442319,17.980875010578124 118.68099630475874,17.58370708865788 118.40658937688659,17.121548052241472 118.2838283828385,16.67383148571304 118.22605850328657,16.53662802177697 118.15384615384616,16.44997320244857 118.15384615384616,16.41386702772836 118.21161603339807,16.334433443344725 118.37770443711062,16.218893684240367 118.5871202504866,16.146681334800462 119.01317311218384,16.06724775041631 119.12149163634344,16.016699105808122 119.20814645567131,15.944486756368219 119.28758004005599,15.84338946715184 119.3453499196079,15.720628473103746 119.38867732927133,15.244026966799355 119.42478350399153,15.14292967758349 119.50421708837621,15.034611153423377 119.95915488984836,14.60133705678293 120.3202166370484,14.384700008462705 120.63072973964076,14.095850610702064 120.77515443852158,13.951425911822255 120.9556853121216,13.698682688781822 121.02067642661777,13.633691574285653 121.30230458943315,13.467603170573616 121.6489238667457,13.200417477645203 121.92333079461785,13.048771543821148 121.99554314405827,12.983780429324979 122.0533130236102,12.875461905164867 122.06053425855444,12.738258441228792 121.93055202956211,12.18222335054025 121.92333079461785,12.037798651660443 121.96665820428231,11.972807537164273 122.07497672844191,11.900595187723855 122.44325971058721,11.741728018956067 123.14371950015557,11.662294434571917 123.57699359679602,11.66951566951565 123.76474570534027,11.640630729739689 124.13302868748455,11.539533440523824 124.5518603142365,11.445657386251693 124.66017883839714,11.366223801867541 124.89125835660482,11.142365518603583 125.10067416998183,11.034046994443472 125.39674480268569,10.997940819723262 125.64948802572613,11.026825759499223 125.77947025471846,11.070153169163166 125.92389495359828,11.164029223435298 126.2488505260781,11.474542326027654 126.46548757439832,11.727285549068087 126.79766438182342,11.712843079180105 127.08651377958303,11.72006431412384 127.25260218329558,11.741728018956067 127.83030097881584,11.886152717835875 128.04693802713606,11.893373952780122 128.3357874248967,11.857267778059914 128.48743335872075,11.857267778059914 128.6029731178246,11.886152717835875 128.69684917209673,11.943922597388312 128.79794646131313,12.045019886604177 129.0218047445776,12.3483117542528 129.12290203379294,12.55050633268453 129.1445657386257,12.651603621900907 129.1445657386257,12.745479676173039 129.065132154241,12.991001664269225 129.05068968435356,13.084877718541357 129.07957462412952,13.20763871258945 129.15900820851314,13.330399706637543 129.27454796761802,13.409833291021695 129.66449465459402,13.612027869453938 129.7655919438104,13.698682688781822 129.96778652224214,13.936983441934274 130.3938393839383,14.211390369806422 130.8993258300192,14.68077064116708 131.33259992665964,14.919071394319019 131.72254661363564,15.229584496911375 131.8741925474597,15.265690671631583 132.0836083608367,15.251248201743602 132.29302417421266,15.215142027023393 132.63964345152525,15.128487207695509 132.74796197568483,15.316239316239772 132.85628049984547,15.453442780175846 132.96459902400505,15.540097599503731 133.0801387831089,15.57620377422394 133.18123607232528,15.59064624411192 133.57840399424552,15.568982539279693 134.1561027897668,15.59064624411192 134.28608501875811,15.568982539279693 134.7049166455111,15.439000310287865 135.00820851315922,15.359566725903715 135.4992524893516,15.150150912527224 135.6797833629516,15.135708442639244 135.82420806183242,15.164593382415205 135.9108628811603,15.229584496911375 136.07695128487288,15.417336605455638 136.1924910439767,15.52565512961575 136.74852613466527,15.84338946715184 137.2901187554653,16.19722997940865 137.63673803277786,16.3849820879524 137.7522777918817,16.4716369072808 137.83171137626638,16.572734196496665 137.97613607514617,16.83269865448083 138.09889706919427,17.121548052241472 138.12778200897023,17.2515302812333 138.120560774026,17.359848805393412 138.0844545993068,17.46094609460979 137.88226002087404,17.77868043214588 137.83893261121062,17.894220191250238 137.86059631604235,18.031423655186313 137.90392372570577,18.1180784745142 137.95447237031448,18.18306958901037 138.36608276212218,18.40692787227484 138.8282417985396,18.72466220981093 139.0737637866358,18.840201968915288 139.24707342529157,18.89797184846721 139.3048433048435,18.99184790273934 139.42038306394736,19.324024710163414 139.54314405799542,19.504555583763942 139.70923246170798,19.627316577812035 140.0486305040763,19.815068686355787 140.28693125722825,19.995599559956315 140.40969225127634,20.09669684917218 140.69854164903697,20.443316126484746 140.90795746241295,20.623847000084762 141.28346167950147,20.876590223125195 141.7672844207496,21.11489097627713 142.05613381851023,21.288200614933416 142.25110716199876,21.374855434261814 142.39553186087855,21.41096160898151 142.69882372852666,21.425404078869487 142.83602719246326,21.418182843925756 143.57259315675182,21.21598826549351 144.2225043017125,21.064342331669458 144.31638035598462,21.021014922005 144.417477645201,20.941581337621365 144.69188457307314,20.60940453019678 144.88685791656167,20.4360948915405 145.13237990465785,20.313333897492406 145.31291077825787,20.262785252884214 145.43567177230597,20.248342782996236 145.5656540012983,20.277227722772707 145.63064511579344,20.327776367380384 145.70285746523385,20.428873656596764 145.89783080872238,20.78271416885306 146.1144678570426,20.999351217173288 146.65606047784263,21.295421849877663 146.88713999605136,21.367634199317564 147.1398832190918,21.34597049448534 147.3204140926918,21.288200614933416 147.45039632168414,21.18710332571755 147.65259090011588,20.891032693013173 147.99921017742844,20.616625765141027 148.14363487630825,20.52997094581263 148.3097232800208,20.46497983131646 148.40359933429292,20.450537361428477 148.48303291867657,20.472201066260705 148.58413020789294,20.54441341570061 148.6491213223891,20.645510704916987 148.8224309610449,21.461510253589697 148.90186454542953,21.642041127189714 148.96685565992573,21.721474711573865 149.0029618346449,21.735917181461843 149.11128035880552,21.577050012693544 149.22682011790937,21.360412964373317 149.3206961721815,21.100448506389153 149.40012975656617,20.797156638741043 149.47234210600556,20.681616879636685 149.5806606301662,20.587740825364552 149.69620038927002,20.522749710868894 149.91283743759024,20.421652421652517 150.3677752390624,20.262785252884214 150.56274858255094,20.14002425883612 150.67106710671052,20.03170573467601 150.7721643959269,19.887281035796203 151.01046514907884,19.446785704211507 151.13322614312693,19.273476065555226 151.34986319144716,19.02795407745904 151.5303940650482,18.89797184846721 151.76869481820015,18.79687455925083 152.3608360836089,18.638007390483043 152.55580942709636,18.565795041042627 153.58844602408982,18.1180784745142 154.18058728949856,17.901441426193973 154.6283038560265,17.677583142930015 154.8593833742352,17.58370708865788 155.15545400693907,17.504273504273733 155.37931229020353,17.47538856449777 155.61761304335548,17.468167329553523 156.15198442921232,17.504273504273733 156.4552762968604,17.48983103438575 156.76578939945279,17.439282389777564 156.96076274294128,17.374291275281394 157.50235536374132,17.114326817297226 157.68288623734236,17.01322952808136 157.73343488195005,16.962680883473173 158.1667089785905,17.64869820315405 158.6288680150069,18.573016275986873 158.79495641871947,18.977405432851363 158.90327494287905,19.28791853544372 158.97548729231949,19.55510422837162 159.03325717187138,19.887281035796203 159.06214211164735,20.298891427604424 159.03325717187138,20.84770528334923 158.751629009055,23.042960706327438 158.6794166596146,23.844517785112167 158.67219542467137,24.22002200220018 158.69385912950307,24.581083749400726 158.74440777411075,24.92770302671329 158.82384135849543,25.26710106908161 158.95382358748674,25.671490225946094 159.11991199119927,26.083100617754315 160.0947787086408,28.047276522524317 160.44139798595234,28.704408902428725 161.56791063721792,30.654142337310745 161.92897238441796,31.36904459676759 162.15283066768242,31.91063721756815 162.26837042678628,32.31502637443264 162.33336154128244,32.74107923612884 162.35502524611417,33.196017037601514 162.34058277622668,34.1492200502103 162.34780401117092,34.56083044201852 162.39113142083437,34.97966206877099 162.47056500521902,35.33350258102729 162.61498970409883,35.81010408733219 162.80996304758733,36.279484358692336 163.7270598854759,38.084793094694035 163.95813940368464,38.60472201066288 164.12422780739615,39.05243857719132 164.2758737412202,39.55070378832793 164.40585597021254,40.17172999351213 164.5358381992049,40.98050830724111 164.65137795830873,41.868720205354236 164.71636907280492,42.67027728413896 164.70192660291744,43.29852472426741 164.658599193253,43.5801528870838 164.58638684381256,43.87622351978818 164.49973202448467,44.1289667428281 164.3914135003251,44.374488730924284 164.12422780739615,44.78609912273302 163.92925446390868,45.02439987588496 163.68373247581147,45.27714309892539 163.20713096950757,45.71041719556584 162.15283066768242,46.57696538884674 161.94341485430644,46.77193873233473 161.76288398070642,46.97413331076698 161.58235310710538,47.248540238639634 161.48847705283325,47.479619756847846 161.4234859383381,47.84068150404788 161.4234859383381,48.06453978731235 161.4379284082256,48.11508843192002 161.59679557699388,48.461707709232584 161.80621139036987,48.772220811824944 162.31891907139496,49.33547713745773 162.97605145129887,49.96372457758618 163.3010070237797,50.23813150545833 163.57541395165185,50.447547318834815 164.75247524752513,51.198555753011355 165.2796253984377,51.5957236749316 166.79608473667926,52.816112380468795 167.04882795971972,53.06885560350923 167.2799074779274,53.372147471157334 167.4243321768072,53.62489069419777 167.51098699613613,53.84152774251799 167.5831993455755,54.05094355589397 167.63374799018422,54.289244309046424 167.66985416490442,54.69363346591091 167.6554116950159,55.50963301458362 167.67707539984764,55.81292488223173 167.7059603396236,55.91402217144811 167.8287213336717,56.08733181010439 168.00925220727274,56.28230515359238 168.60139347268046,56.81667653944921 168.92634904516132,57.12718964204105 169.43183549124217,57.73377337733779 169.966206877098,58.49200304645857 171.2227017573559,60.40563030662039 171.42489633578762,60.745028348988704 171.5982059744434,61.06998392146904 171.8292854926521,61.60435530732587 172.65250627626855,63.78516826041609 172.93413443908494,64.62283151392052 173.15077148740517,65.39550365292928 173.27353248145326,66.05985726777794 173.33852359594943,66.64477729824296 173.33852359594943,67.05638769005118 173.28075371639753,67.51854672646759 173.17965642718113,67.88682970861187 172.97024061380515,68.37787368480475 172.68139121604452,68.86891766099713 172.3419931736762,69.3599616371895 172.0748074807483,69.70658091450206 171.83650672759634,69.97376660742997 171.61264844433188,70.16873995091846 171.35268398634722,70.37093452935072 171.07105582353185,70.54424416800649 170.68110913655482,70.72477504160702 169.30185326224984,71.21581901779939 168.9119065752728,71.3963498913994 168.67360582212086,71.54799582522345 168.47863247863236,71.74296916871197 168.3414290146968,71.93794251219997 168.2836591351449,72.11125215085625 168.26921666525638,72.32788919917647 168.3197653098651,72.53008377760871 168.44252630391318,72.71783588615298 168.59417223773724,72.86226058503279 168.7819243462815,72.99224281402512 168.99856139460172,73.10056133818523 169.8795520577701,73.48328679021749 170.3056049194663,73.69992383853771 170.63056049194714,73.90211841696997 170.86164001015484,74.10431299540221 171.02050717892314,74.30650757383445 171.11438323319527,74.5087021522667 171.14326817297123,74.60979944148256 171.14326817297123,74.75422414036288 171.10716199825103,74.9708611886831 171.02772841386738,75.15139206228312 170.926631124651,75.33192293588365 170.60167555217117,75.74353332769188 170.0745254012586,76.30678965332466 169.6123663648422,76.71840004513288 169.25852585258536,76.95670079828483 168.8685791656094,77.1300104369411 168.4641900087449,77.24555019604546 168.05257961693616,77.30332007559738 167.72040280951208,77.29609884065366 167.4026684719755,77.2527714309892 167.13548277904758,77.18055908154929 166.79608473667926,77.05057685255696 166.55778398352734,76.9350370934531 166.20394347127052,76.71117881018864 165.17130687427706,75.97461284590008 164.658599193253,75.65687850836399 164.0953428676202,75.38247158049133 163.56097148176337,75.21638317677929 163.1204761501797,75.15139206228312 162.7160869933152,75.15139206228312 162.30447660150648,75.20916194183556 161.30794617923323,75.46912639981973 160.9685481368649,75.52689627937164 160.58582268483318,75.54133874925962 160.12366364841677,75.47634763476346 159.66150461200036,75.31748046599567 159.18490310569544,75.07195847789897 158.73718653916754,74.76144537530713 158.3255761473588,74.40038362810658 157.99339933993474,74.0321006459623 157.61067388790195,73.54105666976942 157.4084793094692,73.23054356717758 156.81633804406147,72.21957067501636 156.60692223068446,71.90183633748026 156.41194888719698,71.65631434938356 156.14476319426805,71.41079236128738 155.97867479055654,71.28803136723928 155.74037403740357,71.14360666835948 155.27099376604394,70.93419085498299 154.80883472962753,70.80420862599117 154.4911003920909,70.739217511495 154.16614481961008,70.70311133677478 153.73287072296964,70.69589010183105 153.3357028010494,70.72477504160702 152.89520746946468,70.80420862599117 152.41138472821658,70.94141208992724 151.9564469267444,71.10750049363928 151.38596936616736,71.3602437166797 150.77938563087116,71.67075681927155 150.30278412456624,71.96682745197593 149.92727990747773,72.23401314490434 149.63120927477385,72.47953513300052 149.3712448167892,72.73949959098469 149.11128035880552,73.04279145863332 148.81520972610065,73.51217172999345 148.67078502722083,73.81546359764208 148.38915686440444,74.47981721249073 148.2952808101323,74.65312685114702 148.17974105102846,74.80477278497106 148.04975882203613,74.9347550139629 147.88367041832458,75.05029477306725 147.69591830978032,75.13694959239514 147.45761755662735,75.18749823700333 147.1254407492033,75.2019407068913 146.7716002369475,75.13694959239514 146.42498095963495,74.99974612845907 146.07836168232237,74.7903303150831 145.78229104961852,74.53758709204266 145.54399029646555,74.2992863388902 144.6846633381289,73.24498603706556 144.33804406081634,72.87670305492077 144.12862824744036,72.67450847648904 143.89754872923265,72.4939776028885 143.69535415079991,72.35677413895243 143.47149586753542,72.24123437984858 143.26208005415947,72.15457956052019 142.98045189134305,72.08236721108028 142.70604496347093,72.04626103636008 142.43163803559878,72.04626103636008 142.14278863783812,72.09680968096826 141.86116047502173,72.18346450029615 141.6228597218698,72.2990042594005 141.3917802036621,72.45065019322456 141.1823643902851,72.63840230176882 140.96572734196488,72.90558799469724 140.81408140814082,73.16555245268141 140.69854164903697,73.4327381456093 140.5468957152129,73.93100335674592 140.35914360666865,75.02863106823503 140.26526755239652,75.45468392993175 140.12806408845995,75.87351555668421 139.93309074497245,76.27068347860445 139.69478999182053,76.62452399086075 139.39871935911563,76.97836450311705 139.0737637866358,77.2888776057094 138.27220670785107,78.02544356999796 138.0122422498664,78.28540802798264 137.83171137626638,78.5092663112466 137.7089503822183,78.68257594990288 137.54286197850573,79.02919522721494 137.4634283941221,79.3036021550876 137.4273222194019,79.56356661307176 137.4273222194019,79.86685848071987 137.47064962906532,80.14848664353627 137.55730444839423,80.44455727624064 137.69450791232978,80.74062790894502 137.84615384615384,80.97892866209696 138.0339059546981,81.19556571041718 138.27942794279429,81.41220275873741 138.54661363572322,81.58551239739369 138.76325068404344,81.67216721672158 139.00877267213963,81.73715833121774 139.3048433048435,81.78770697582593 139.6225776423801,81.80214944571391 139.94753321485993,81.77326450593795 140.26526755239652,81.71549462638603 140.76353276353314,81.56384869256146 141.27624044455723,81.32554793940952 141.75284195086215,81.05114101153737 142.94434571662285,80.28569010747233 143.2331951143835,80.12682293870404 143.60869933147202,79.94629206510402 143.9408761388961,79.81630983611169 144.2947166511529,79.71521254689581 144.65577839835294,79.6574426673439 145.00961891060976,79.62855772756794 145.4428930072502,79.64300019745592 145.93393698344258,79.70077007700783 146.37443231502624,79.8018673662237 146.76437900200327,79.9246283602718 147.17598939381097,80.07627429409636 147.65259090011588,80.30013257736032 149.15460776846896,81.1089108910893 149.63120927477385,81.3399904092975 149.91283743759024,81.44830893345761 150.23057177512686,81.54218498772974 150.54830611266243,81.61439733716965 150.84437674536733,81.6577247468336 151.15488984795968,81.67938845166582 151.50873036021545,81.67216721672158 151.86979210741652,81.63606104200188 152.20919014978483,81.5710699275057 152.79411018024933,81.3905390539057 154.12281740994663,80.89227384276907 154.4188880426505,80.80561902344067 154.77272855490733,80.72618543905703 155.09768412738714,80.69007926433683 155.37931229020353,80.69007926433683 155.60317057346802,80.71174296916905 155.86313503145166,80.76951284872098 156.03644467010847,80.83450396321714 156.23863924854018,80.94282248737726 156.36862147753254,81.04391977659313 156.4697187667489,81.14501706580951 156.54915235113253,81.2677780598576 156.61414346562873,81.39776028884943 156.65747087529317,81.54940622267348 156.68635581506913,81.72993709627401 156.68635581506913,81.98990155425818 156.65024964034893,82.27152971707457 156.36140024258827,83.36915742856367 156.2891878931489,83.80243152520413 156.28196665820465,84.04795351330031 156.2964091280921,84.30069673634023 156.46249753180467,85.37666074299761 156.49138247158064,85.88936842402222 156.4697187667489,86.21432399650256 156.4191701221402,86.50317339426269 156.26030295337293,87.03754478011899 156.0436659050527,87.51414628642338 155.8342500916757,87.88965050351192 154.4911003920909,90.00547234210597 154.16614481961008,90.48207384841037 153.42235762037728,91.49304674057159 153.1046232828417,91.98409071676396 152.89520746946468,92.35237369890824 152.74356153564062,92.67010803644483 152.25251755944828,93.82550562748587 152.10809286056846,94.0782488505263 151.96366816168864,94.28766466390228 151.73258864347994,94.53318665199846 151.44373924571929,94.76426617020667 151.16211108290392,94.95201827875093 150.12947448591046,95.55138077910341 149.76119150376618,95.79690276720011 149.42179346139787,96.064088460128 148.98129812981318,96.45403514710452 148.5985726777804,96.84398183408102 148.25917463541208,97.24114975600126 147.94866153281973,97.65998138275373 147.7609094242765,97.97771572028982 147.6092634904514,98.29545005782643 147.4792812614601,98.62040563030676 147.3926264421312,98.95258243773084 147.33485656257926,99.24865307043521 147.29875038786008,99.54472370313958 147.2698654480831,100.49792671574836 147.24098050830713,100.68567882429264 147.19043186369947,100.90231587261286 147.11099827931582,101.09006798115712 147.0026797551552,101.25615638486916 146.86547629121964,101.42224478858171 146.6849454176186,101.58111195734949 146.46108713435515,101.73997912611779 146.17945897153876,101.90606752982983 145.0746100251049,102.41155397591069 144.59078728385677,102.67873966883859 144.12862824744036,103.02535894615116 143.18264646977582,103.8630221996561 142.7926997827988,104.13742912752824 142.59050520436708,104.25296888663209 142.40275309582282,104.33240247101624 142.16445234267087,104.3973935855124 141.98392146906983,104.41905729034464 141.72395701108618,104.40461482045666 141.4639925531015,104.34684494090422 141.16792192039762,104.2168627119124 140.88629375758123,104.0435530732561 140.64077176948504,103.84857972976812 140.38080731150038,103.59583650672768 139.6659050520435,102.75817325322275 139.44204676878007,102.52709373501453 139.23263095540307,102.35378409635825 139.05932131674732,102.23102310231016 138.67659586471453,102.03604975882217 138.39496770189916,101.94217370455003 138.11333953908277,101.87718259005386 137.81004767143364,101.84107641533417 137.50675580378552,101.84107641533417 137.19624270119317,101.86274012016588 136.88572959860082,101.92050999971781 136.5824377309527,102.00716481904621 136.2935883331931,102.11548334320632 135.90364164621607,102.33212039152654 135.56424360384776,102.61374855434293 135.2898366759756,102.93870412682327 135.18873938675924,103.1047925305353 135.10208456743135,103.29976587402331 135.00820851315922,103.60305774167193 134.97210233843902,103.91357084426377 134.97932357338325,104.2168627119124 135.05875715776688,104.90288003159276 135.08042086259962,105.22783560407309 135.06597839271114,105.56723364644142 135.01542974810346,105.84164057431407 134.92155369383133,106.17381738173815 134.82045640461496,106.4121181348906 134.71935911539856,106.59987024343486 134.48105836224664,106.93204705085893 134.2283151392062,107.18479027389937 133.9611294462783,107.38698485233161 133.6939437533504,107.53140955121141 133.3978731206455,107.64694931031578 133.0729175481657,107.72638289469992 132.7768469154608,107.76248906941963 132.41578516826075,107.78415277425185 130.79822854080282,107.75526783447589 130.42272432371428,107.76248906941963 129.98945022707383,107.79859524413983 129.56339736537763,107.87080759357974 129.25288426278527,107.94301994302015 128.94959239513716,108.04411723223602 128.49465459366502,108.22464810583655 128.03971679219285,108.46294885898848 127.51256664128026,108.80956813630105 126.94931031564748,109.27172717271746 126.53047868889449,109.68333756452569 126.25607176102234,110.03717807678198 126.06831965247808,110.38379735409454 125.96722236326274,110.7304166314066 125.93833742348677,111.02648726411097 125.97444359820595,111.3297791317596 126.08998335731083,111.69806211390387 126.2849567007983,112.08078756593613 126.51603621900702,112.41296437336072 126.7615582071032,112.68737130123286 127.07207130969557,112.96177822910501 127.49812417139177,113.22896392203343 127.85196468364859,113.38783109080121 128.19858396096012,113.45282220529738 128.48743335872075,113.48170714507334 128.80516769625737,113.47448591012962 129.1445657386257,113.43115850046567 129.73670700403443,113.28673380158534 131.3253786917154,112.79568982539298 132.64686468646846,112.44907054808041 134.13443908493406,112.03746015627219 134.49550083213512,111.97246904177602 134.80601393472747,111.94358410200006 135.12374827226307,111.95080533694379 135.44148260979966,111.99413274660824 135.93974782093628,112.13133621054432 136.48134044173634,112.34797325886454 138.11333953908277,113.18563651236948 139.69478999182053,113.8788750669941 140.34470113678017,114.20383063947443 140.879072522637,114.51434374206679 141.36289526388614,114.83929931454713 143.18986770471903,116.18967024907616 143.63036303630375,116.4640771769483 143.99864601844803,116.64460805054883 144.4391413500327,116.7818115144849 144.83630927195296,116.84680262898107 145.1829285492655,116.86846633381279 146.4322021945792,116.87568756875703 146.81492764661093,116.89735127358875 147.2698654480831,116.95512115314118 147.66703337000436,117.04177597246907 148.09308623170057,117.17175820146142 148.7718823164372,117.45338636427729 149.31347493723726,117.74223576203794 149.88395249781428,118.1249612140702 150.37499647400665,118.53657160587841 150.8082705706471,118.99150940735109 151.0682350286318,119.30924374488718 151.4076330710001,119.79306648613581 151.75425234831164,120.34188034188062 152.49081831260122,121.57671151730581 152.88076499957722,122.18329525260202 153.15517192744937,122.57324193957852 153.5090124397062,123.03540097599495 153.81952554229855,123.40368395813923 154.1155961750024,123.72863953061956 154.42610927759475,124.03915263321191 154.76550731996306,124.33522326591628 155.08324165749968,124.58074525401247 155.61761304335548,124.92014329638079 156.15920566415656,125.17288651942123 157.48069165890962,125.67837296550158 157.9572931652145,125.91667371865402 158.1667089785905,126.0538771825901 158.38334602691071,126.22718682124639 158.57831937039924,126.4077176948464 158.72274406927903,126.58102733350269 158.88161123804733,126.84099179148684 159.00437223209542,127.18761106879941 159.04769964175887,127.46923923161529 159.04047840681565,127.79419480409564 158.96104482243098,128.1769202561284 158.85994753321563,128.46576965388854 158.70830159939055,128.76906152153666 158.5061070209588,129.05068968435305 158.36168232207902,129.21677808806507 158.19559391836646,129.3612027869454 158.01506304476644,129.49118501593773 157.762319821726,129.65005218470552 157.43014301430193,129.80169811853008 156.31807283292486,130.2277509802263 155.78370144706804,130.46605173337875 155.23488759132374,130.75490113113887 154.69329497052266,131.10874164339518 154.43333051253902,131.3109362218274 154.20947222927452,131.5203520352034 154.043383825562,131.69366167385968 153.89173789173793,131.90307748723617 153.77619813263408,132.12693577050013 153.7112070181379,132.31468787904438 153.6751008434177,132.4952187526444 153.65343713858599,132.7046345660209 153.71842825308215,133.05125384333294 153.86285295196197,133.47730670502966 154.03616259061877,133.8383684522297 154.53442780175436,134.777128994951 154.65718879580245,135.05875715776688 154.74384361513137,135.3259428506953 154.823277199515,135.67256212800785 154.8593833742352,136.01918140531993 154.91715325378712,137.21068517108117 154.9677018983948,137.81004767143364 155.11212659727565,138.69825956954676 155.25655129615544,139.31928577473147 155.44430340469972,139.9258695100282 155.64649798313144,140.46746213082827 155.8847987362844,140.95128487207688 156.22419677865273,141.50731996276542 157.1051874418211,142.69882372852666 157.4951341287981,143.3198499337114 157.84175340610966,144.02030972328023 158.3977884967982,145.42122930241746 158.65775295478286,145.991706862994 159.00437223209542,146.6343967730104 159.40154015401566,147.22653803841916 159.9720177145927,147.96310400270823 160.65803503427256,148.72855490677276 161.2646187695698,149.33513864206947 162.95438774646715,150.92381032975095 163.51764407209996,151.49428789032748 163.9003695241317,151.91311951707993 164.17477645200486,152.25251755944828 164.38419226538085,152.56303066204063 164.5358381992049,152.859101294745 164.61527178358853,153.10462328284117 164.6441567233645,153.27793292149747 164.6441567233645,153.48012749992972 164.60082931370107,153.6606583735297 164.51417449437318,153.80508307241004 164.38419226538085,153.94228653634613 164.2397675665,154.028941355674 164.06645792784423,154.08671123522592 163.89314828918847,154.11559617500188 163.61874136131632,154.12281740994612 163.35877690333163,154.09393247017016 163.03382133085182,154.028941355674 162.679980818595,153.9061803616259 162.16727313757093,153.66787960847347 161.27184000451405,153.13350822261714 161.00465431158514,152.9890835237368 160.65081379932934,152.85188005980075 160.29697328707255,152.77966771036085 160.02978759414464,152.77966771036085 159.7264957264955,152.82299512002479 159.50263744323206,152.88798623452095 159.2282305153599,153.0035259936248 159.02603593692714,153.11906575272917 158.7660714789435,153.2995966263292 158.54943443062328,153.50179120476142 158.3472398521905,153.73287072296964 158.17393021353473,154.02172012073027 158.05839045442988,154.3466756932106 158.03672674959816,154.6283038560265 158.08727539420687,154.8954895489549 158.18115144847798,155.11212659727514 158.36168232207902,155.38653352514729 159.14879693097524,156.28918789314838 159.51707991311952,156.75856816450852 159.8131505458244,157.20628473103696 160.03700882908785,157.65400129756588 160.19587599785615,158.12338156892605 160.23920340752062,158.35446108713424 160.25364587740808,158.59998307523043 160.24642464246486,158.80217765366268 160.19587599785615,158.99715099715118 160.12366364841677,159.16323940086323 160.02978759414464,159.29322162985505 159.8853628952638,159.4232038588474 159.74815943132825,159.51707991311952 159.58207102761568,159.5892922625594 159.3365490395195,159.6759470818878 158.7660714789435,159.78426560604794 158.0944966291501,159.82759301571187 150.9526952695269,159.82759301571187 133.80948351245425,159.91424783503976 126.66046091788684,159.90702660009603 124.2630109164769,159.94313277481572 123.82973681983644,159.921469069984 123.33869284364407,159.84203548559987 123.10039209049111,159.76982313615994 122.87653380722766,159.66150461199985 122.70322416857087,159.5315223830075 122.55879946969107,159.35821274435122 122.49380835519489,159.23545175030313 122.42159600575448,159.04769964175887 122.22662266226699,158.21003638825445 122.0533130236102,157.75509858678177 121.91610955967464,157.50235536374132 121.75002115596209,157.2640546105894 121.55504781247357,157.03297509238118 121.33118952921014,156.81633804406096 120.97734901695333,156.53470988124457 120.63072973964076,156.30363036303635 120.15412823333688,156.03644467010795 118.84708470847129,155.34320611548333 118.41381061183084,155.08324165749917 118.03108515979807,154.81605596457075 115.87193591154006,153.1984993371133 115.35922823051598,152.79411018024882 114.88262672421106,152.36083608360838 114.550449916787,151.97088939663186 114.30492792869082,151.59538517954385 114.1243970550908,151.22710219739906 113.92942371160228,150.70717328143073 113.82110518744166,150.28834165467828 113.77055654283399,149.89839496770176 113.76333530788973,149.58066063016565 113.7922202476657,149.24126258779734 113.92942371160228,148.3674931595722 113.95830865137825,148.03531635214813 113.9655298863225,147.6959183097798 113.92942371160228,147.27708668302733 113.69112295845035,146.05669797749016 113.45282220529738,145.13960113960107 113.22174268708969,144.48246875969664 112.88234464472137,143.7820089701278 112.56461030718476,143.24041634932723 112.16022115032028,142.61216890919877 111.01926602916724,140.95128487207688 109.82776226340651,139.31206453978723 109.3150545823814,138.66215339482656 108.88178048574095,138.1566669487462 108.59293108798134,137.85337508109808 108.1452145214524,137.4128797495134 107.66139178020427,137.00126935770518 107.32199373783595,136.741304899721 106.95371075569167,136.48856167668058 106.64319765309932,136.30803080308056 106.32546331556271,136.13472116442426 105.83441933937034,135.9108628811598 104.95342867620096,135.57146483879148 103.6680488561681,135.15985444698327 102.59930608445546,134.88544751911112 101.74720036106204,134.71935911539856 100.82288228822922,134.6182618261827 99.89134298045215,134.59659812135047 99.06090096189146,134.64714676595867 98.63484810019526,134.71213788045483 98.18713153366632,134.80601393472696 97.58054779837009,134.99376604327122 97.17615864150561,135.152633212039 96.80065442441708,135.34760655552753 96.45403514710452,135.57146483879148 96.22295562889683,135.75199571239202 95.93410623113618,136.04084511015213 94.89424839919951,137.26123381568934 94.34543454345523,137.81004767143364 94.00603650108587,138.09167583425003 93.60886857916563,138.38052523201017 93.09616089814155,138.7054808044905 92.5040196327328,139.03765761191508 91.7963386082202,139.38427688922764 91.15364869820378,139.67312628698778 90.61927731234695,139.87532086542 90.09934839637862,140.0341880341878 89.47110095624966,140.17861273306812 88.99449944994578,140.2436038475643 88.4673492990332,140.27971002228452 87.8824292685687,140.26526755239652 87.08809342472719,140.18583396801236 86.46706721954247,140.07029420890802 85.93269583368668,139.94753321485993 84.66897971848553,139.60813517249161 82.18487489774668,138.8643479732588 81.55662745761772,138.71270203943473 80.96448619220898,138.60438351527463 80.2062565230887,138.51772869594674 79.18084116103951,138.46718005133854 78.14098332910284,138.46718005133854 76.94225832839685,138.53939240077847 76.50898423175742,138.55383487066644 76.0107190206208,138.52494993089047 75.52689627937164,138.4382951115626 75.02863106823503,138.28664917773855 74.53758709204266,138.07001212941833 74.19096781473009,137.88226002087404 73.02112775380108,137.1818002313052 72.23401314490485,136.76296860455273 71.82240275309611,136.5968802008407 71.3602437166797,136.4741192067926 70.99196073453543,136.43079179712865 70.55868663789498,136.4235705621844 68.97001495021298,136.58965896589643 68.35620997997252,136.61132267072867 67.74240500973205,136.57521649600847 67.17192744915604,136.4741192067926 66.80364446701074,136.36580068263248 66.4064765450905,136.22859721869642 65.02722067078552,135.64367718823192 64.55061916448061,135.45592507968763 63.178584525119874,135.03709345293518 62.730867958590935,134.87100504922313 62.42757609094282,134.73380158528656 62.124284223294715,134.55327071168654 61.149417505853194,133.89613833178214 60.802798228541654,133.67950128346192 60.25398437279633,133.43397929536573 60.008462384700145,133.35454571098157 59.87125892076458,133.33288200614933Z"/>
    <path d="M236.25714366308463,122.01720684888998 236.47378071140486,123.18704690981899 236.66875405489233,123.98138275365999 236.7842938139972,124.34966573580427 236.9070548080453,124.66740007334087 237.16701926602897,125.20177145919719 237.42698372401364,125.63504555583764 237.67250571210982,125.9816648331502 238.14910721841474,126.55214239372673 238.40185044145414,126.80488561676664 238.68347860427053,127.05762883980708 239.63668161687932,127.77253109926392 239.98330089419187,128.0541592620803 240.31547770161697,128.38633606950438 240.5393359848804,128.68240670220877 240.75597303320063,129.05791091929729 240.82818538264107,129.2384417928973 240.89317649713723,129.47674254604976 240.94372514174492,129.86668923302574 240.95094637668916,130.6538038419225 240.98705255140936,130.863219655299 241.03037996107278,131.00764435417878 241.13869848523342,131.2026176976673 241.29034441905748,131.37592733632357 241.44199035288153,131.49868833037166 241.64418493131427,131.61422808947552 241.81749456997005,131.67921920397168 242.03413161829027,131.74421031846785 242.46740571493072,131.7875377281318 242.92956475134713,131.75865278835585 243.4206087275395,131.65755549913948 243.8466615892357,131.52757327014763 244.25827198104446,131.37592733632357 246.25855406053415,130.46605173337875 246.7784829765025,130.2638571549465 247.2261995430314,130.1049899861782 247.84000451327188,129.9316803475219 249.27703026712982,129.58506107020986 250.87292318975503,129.08679585907325 251.3639671659474,128.98569856985688 251.90555978674848,128.92792869030495 252.21607288934084,128.92070745536122 252.58435587148512,128.94237116019292 253.22704578150154,129.03624721446505 253.86973569151797,129.21677808806507 254.4474344870382,129.46230007616126 254.96014216806333,129.7511494739219 255.21288539110375,129.9316803475219 255.42230120447974,130.11221122112192 255.58838960819128,130.28552085977822 255.76892048179232,130.52382161293067 255.86279653606445,130.69713125158694 255.94223012044807,130.89210459507495 255.98555753011254,131.0798567036192 256,131.2748300471072 255.97111506022404,131.53479450509138 255.92056641561635,131.72254661363564 255.8411328312317,131.92474119206787 255.68948689740765,132.17026318016406 255.54506219852783,132.3507940537646 255.3428676200951,132.55298863219684 255.01791204761525,132.812953090181 254.60630165580653,133.08736001805315 253.2559307212775,133.85281092211767 252.75766551014087,134.16332402471002 252.32439141350042,134.4593946574144 251.9633296663004,134.74824405517452 251.56616174438017,135.11652703731932 251.1689938224589,135.52813742912755 250.11469352063475,136.83518095399262 249.71030436377026,137.2901187554653 249.27703026712982,137.7161716171615 248.8654198753211,138.04112718964186 248.46103071845658,138.30831288257025 248.0205353868719,138.52494993089047 247.53671264562377,138.7054808044905 246.6412795125669,138.95822402753092 246.28743900031012,139.080985021579 245.90471354827835,139.26151589517903 245.5436518010773,139.50703788327573 245.3631209274773,139.6659050520435 245.1681475839898,139.87532086542 244.86485571634066,140.28693125722825 244.7132097825166,140.56855942004464 244.5904487884685,140.8285238780288 244.48935149925316,141.10293080590094 244.38103297509255,141.4639925531015 244.3015993907089,141.853939240078 244.2293870412685,142.31609827649442 244.11384728216464,143.9047699641759 244.01274999294827,144.85075174184092 243.8827677639559,145.72452117006557 243.73834306507612,146.4394234295224 243.5433697215876,147.161546923923 243.34117514315588,147.79701559899567 243.12453809483566,148.36027192462848 242.62627288369902,149.55899692533345 242.44574201009902,150.0428196665821 242.30131731121818,150.5049787029985 242.20022002200284,150.94547403458319 242.12078643761816,151.57372147471162 242.01246791345855,153.1623931623931 242.01246791345855,153.6389946686975 242.07023779301048,154.09393247017016 242.17133508222585,154.47665792220243 242.30853854616242,154.79439225973903 242.52517559448265,155.1626752418833 242.77069758257883,155.47318834447566 242.98011339595482,155.68260415785164 243.225635384051,155.90646244111613 244.14995345688382,156.60692223068446 244.50379396914065,156.91021409833309 244.75653719218107,157.162957321373 245.37756339736578,157.86341711094187 245.65919156018217,158.14504527375826 246.02747454232644,158.41223096668617 246.38131505458225,158.61442554511842 246.73515556683904,158.77329271388672 247.87611068799208,159.23545175030313 248.20828749541616,159.38709768412718 248.37437589912872,159.4809737383993 248.4754731883451,159.57484979267144 248.5188005980085,159.6542833770556 248.5188005980085,159.69761078671954 248.4393670136249,159.7770443711037 248.3021635496883,159.8348142506556 247.9122168627123,159.89258413020804 247.35618177202375,159.91424783503976 245.68807649995813,159.91424783503976 241.16036219006514,159.79148684099167 238.79179712843114,159.75538066627198 222.414036275423,159.71927449155177 221.8796648895662,159.69761078671954 221.5474880821421,159.66872584694357 221.18642633494105,159.59651349750368 220.9625680516776,159.52430114806376 220.78203717807656,159.43764632873538 220.6231700093093,159.30766409974353 220.52929395503716,159.17046063580696 220.4859665453727,159.04047840681514 220.47874531042845,158.83106259343865 220.51485148514865,158.6433104848949 220.5870638345891,158.4338946715184 220.73148853346888,158.10893909903805 221.17920509999783,157.32182449014132 221.5330456122536,156.74412569462055 221.92299229923063,156.15920566415605 222.3779301007028,155.5309582240276 222.89063778172687,154.90993201884288 223.36001805308754,154.39000310287454 224.82592874672144,152.91687117429692 225.1364418493138,152.5413669572084 225.3386364277455,152.23807508956028 225.4758398916821,151.97088939663186 225.57693718089746,151.73258864347994 225.64192829539363,151.50150912527172 225.69247694000234,151.25598713717503 225.7213618797783,150.80827057064658 225.69969817494555,150.05004090152582 225.69969817494555,149.7828552085979 225.74302558461,149.47956334094928 225.82968040393789,149.20515641307713 225.9741051028177,148.91630701531702 226.1690784463062,148.63467885250063 226.44348537417835,148.30972328002028 227.05729034441882,147.65259090011588 227.36058221206795,147.2698654480831 227.48334320611605,147.06767086965087 227.56999802544394,146.87991876110712 227.6349891399401,146.69216665256283 227.66387407971607,146.49719330907433 227.65665284477183,146.19390144142622 227.5627767904997,145.91227327860983 227.4039096217314,145.67397252545788 227.1800513384669,145.45733547713766 226.93452935037072,145.29846830836937 226.62401624777837,145.13960113960107 225.2808665481936,144.6341146935207 224.68872528278484,144.35970776564855 224.42153958985693,144.19361936193602 224.17601760176075,143.99142478350376 223.95215931849629,143.76034526529557 223.80051338467223,143.54370821697535 223.64886745084817,143.24041634932723 223.56943386646353,142.92268201179115 223.5333276917433,142.62661137908677 223.5116639869116,141.8033905954698 223.4755578121914,141.56508984231735 223.41778793263947,141.32678908916543 223.2444782939837,140.86463005274902 222.67400073340664,139.69478999181948 222.55846097430282,139.38427688922764 222.48624862486238,139.11709119629924 222.44292121519896,138.85712673831506 222.42847874531046,138.57549857549867 222.45014245014218,138.29387041268228 222.50791232969513,138.0339059546981 222.60900961891048,137.74505655693798 222.803982962399,137.3406674000735 222.97007136611154,137.07348170714508 223.2805844687039,136.64742884544887 224.62373416828868,135.01542974810295 224.95591097571275,134.6543680009029 225.65637076528213,133.95390821133404 225.95244139798598,133.62173140390948 226.14019350653024,133.38343065075753 226.27739697046684,133.14512989760507 226.38571549462642,132.90682914445313 226.4507066091226,132.64686468646846 226.48681278384282,132.39412146342855 226.48681278384282,132.1052720656679 226.47237031395431,131.88141378240394 226.40015796451493,131.50590956531542 226.08964486192258,130.4082818538263 225.98854757270618,129.88835293785797 225.9741051028177,129.62838847987382 225.99576880765045,129.3973089616656 226.0246537474264,129.2239993230093 226.0968660968658,129.00014103974485 226.2051846210264,128.76906152153666 226.38571549462642,128.48743335872075 227.3533609771237,127.32481453273549 227.5627767904997,127.02874390003112 227.77941383881992,126.66768215283057 227.95994471241994,126.32106287551852 228.11881188118824,125.94555865842999 228.45820992355655,124.86237341682887 228.58097091760465,124.53741784434852 228.74705932131718,124.18357733209223 228.89870525514124,123.92361287410806 229.10812106851722,123.6636484161239 229.33920058672595,123.43979013285943 229.71470480381345,123.15816197004304 230.36461594877412,122.73210910834683 230.57403176215112,122.57324193957852 230.8051112803588,122.36382612620255 230.98564215395882,122.1255253730501 231.12284561789542,121.86556091506593 231.20227920227904,121.62003892696974 231.18061549744735,121.28786211954517 231.07951820823095,120.96290654706483 230.9639784491271,120.76793320357683 230.7834475755271,120.55129615525661 230.14075766551068,119.90860624524018 229.84468703280578,119.57642943781559 229.59194380976535,119.24425263039153 229.02868748413357,118.45713802149426 228.67484697187678,118.05274886463029 228.4293249837806,117.8433330512538 228.1693605257959,117.69890835237399 227.8805111280363,117.59781106315761 227.5844404953314,117.54726241854942 227.32447603734775,117.54726241854942 227.07173281430732,117.56892612338164 226.78288341654667,117.63391723787782 226.53014019350624,117.71335082226197 226.27739697046684,117.81444811147783 225.99576880765045,117.95887281035816 225.53360977123404,118.26216467800627 225.2808665481936,118.4788017263265 225.07145073481763,118.68099630475874 224.65261910806464,119.15759781106313 224.30599983075209,119.65586302219974 223.583876336352,120.81848184818502 223.37446052297602,121.10733124594515 223.18670841443176,121.32396829426537 222.93396519139134,121.54782657752985 222.73177061295857,121.67780880652167 222.58734591407878,121.75002115596158 222.28405404643067,121.85111844517795 221.9157710642864,121.91610955967413 220.31265690671694,121.98832190911402 219.87216157513222,122.03887055372222 218.57956052015513,122.21940142732223 217.67690615215403,122.2843925418184 217.07754365180102,122.2843925418184 216.34097768751246,122.24828636709819 215.74883642210372,122.19051648754628 215.13503145186326,122.09664043327413 214.3840230176862,121.95221573439382 211.90713943189263,121.39618064370528 211.17057346760305,121.1867648303293 210.39068009365104,120.92680037234513 209.6252291895855,120.60906603480852 208.98976051451334,120.29133169727244 208.71535358664119,120.11802205861616 208.469831598545,119.93749118501614 208.2459733152805,119.74251784152763 208.03655750190455,119.5258807932074 207.7477081041439,119.13593410623142 207.55995599559964,118.75320865419864 207.45163747144005,118.34881949733415 207.40831006177558,117.93720910552592 207.43719500155154,117.44616512933355 207.53107105582367,116.904572508533 207.7838142788641,115.79972356209964 207.96434515246412,115.1714761219712 208.14487602606414,114.65154720600286 208.70091111675268,113.24340639192141 209.24250373755376,111.6330709994077 209.4952469605942,111.03370849905522 209.75521141857786,110.50655834814263 210.07294575611445,109.9721869622858 211.29333446165114,108.1452145214524 211.7266085582916,107.41586979210757 212.02267919099648,106.82372852669882 212.28264364898013,106.2532509661223 212.49928069730035,105.69721587543376 212.63648416123692,105.25672054384957 212.73036021550908,104.8017827423769 212.76646639022928,104.3757298806807 212.7736876251725,103.89190713943205 212.73758145045332,103.48751798256757 212.66536910101289,103.02535894615116 212.57149304674076,102.6426334941189 212.43428958280418,102.26712927703038 212.24653747426095,101.88440382499812 212.08767030549265,101.6172181320697 211.90713943189263,101.40058108374947 211.61106879918773,101.11173168598934 211.33666187131558,100.91675834250084 211.11280358805112,100.77955487856477 210.7734055456828,100.61346647485273 209.82020253307402,100.22351978787621 209.36526473160185,100.01410397450024 208.90310569518545,99.73969704662758 208.47705283348822,99.42918394403574 208.09432738145648,99.06812219683519 207.39386759188812,98.30267129277016 207.01114213985534,97.9199458407379 206.5778680432149,97.53722038870563 205.41524921723013,96.54791120137665 204.69312572282905,95.883557586528 204.05765704775584,95.21920397167933 203.45829454740388,94.49708047727876 203.15500267975577,94.08547008547004 202.8661532819951,93.65219598882958 202.59896758906723,93.2117006572454 202.34622436602677,92.74954162082899 201.92017150433057,91.85410848777212 201.1619418352093,90.05602098671416 200.8081013229535,89.26168514287316 200.50480945530435,88.66954387746493 200.17985388282455,88.17849990127205 199.8693407802322,87.80299568418403 199.024456291783,86.87145637640697 198.10735945389442,85.8171560745818 197.58020930298184,85.26112098389326 196.9014132182452,84.6473160136528 195.62325463315557,83.63634312149158 195.30552029562,83.34749372373145 195.0094496629151,83.04420185608333 194.61950297593913,82.58926405461067 194.13568023468997,81.98268031931393 193.62297255366587,81.28944176468931 193.20414092691394,80.68285802939258 192.0487433358724,78.88477052833512 191.72378776339153,78.29985049787062 191.4854870102396,77.77270034695805 189.8029392682865,73.75769371808964 189.4346562861412,72.97780034413714 189.06637330399693,72.27011931962454 188.38035598431705,71.10027925869502 187.62934755014,69.95210290259824 186.84945417618698,68.86891766099713 186.5317198386504,68.47897097402061 186.1562156215629,68.05291811232442 185.44131336210606,67.3452370878113 183.97540266847216,66.04541479788996 182.34340357112674,64.45674311020848 181.91735070943054,64.08123889312047 181.44074920312562,63.705734676031945 178.65335251473866,61.77766494598215 177.3318665199856,60.889453047869026 172.515302812333,57.856534371385884 171.3671264562357,57.12718964204105 170.95551606442697,56.83834024428093 170.52224196778653,56.50616343685686 170.24783503991438,56.26786268370441 169.98064934698647,55.98623452088801 169.81456094327393,55.776818707512035 169.71346365405753,55.6107303038 169.56181772023348,55.27133226143117 169.4896053707941,54.91027051423114 169.4968266057373,54.50588135736665 169.59070266000944,54.087049730614176 169.7784547685537,53.63211192914201 170.04564046148263,53.19161659755732 170.2406138049701,52.93887337451689 170.40670220868267,52.765563735861114 170.7099940763308,52.53448421765291 171.02050717892314,52.38283828382834 171.38879016106742,52.303404699444705 171.74985190826848,52.28896222955621 172.0892499506368,52.31062593438844 172.6380638063811,52.40450198866057 173.98121350596585,52.671687681588985 174.65278835575927,52.852218555189005 175.23770838622377,53.06163436856498 175.7359735973604,53.30715635666168 176.20535386872004,53.61766945925352 177.02135341739324,54.217031959606516 177.2957603452654,54.397562833206536 177.72903444190584,54.63586358635899 178.19119347832225,54.84527939973496 179.86651998533213,55.51685424952787 180.29257284702834,55.71182759301586 180.761953118389,55.95734958111205 181.07246622098134,56.13788045471207 181.4912978477333,56.41950861752846 182.83444754731912,57.49547262418585 184.02595131307982,58.333135877690275 184.48811034949625,58.69419762489082 185.03692420524155,59.17802036613946 186.2861978505542,60.39840907167665 186.64003836281103,60.68725846943678 186.92166652562742,60.875010577981044 187.34049815237935,61.10609009618925 187.78099348396407,61.29384220473351 189.96180643705378,62.088178048573994 190.61171758201445,62.35536374150241 191.1821951425915,62.60810696454284 191.81766381766366,62.918620067135194 192.48923866745707,63.29412428422321 192.96584017376097,63.59019491692759 193.65907872838608,64.052353953344 194.31621110829101,64.54339792953688 194.886688668867,65.01999943584127 196.74976728442115,66.70976841273861 198.25178415277423,67.93015711827582 199.024456291783,68.64505937773265 199.96321683450432,69.58381992045396 200.5770218047448,70.28427971002232 201.63854334151418,71.69242052410378 202.99613551098744,73.2377648021213 203.31386984852304,73.66381766381802 203.5377281317875,73.9959944712421 203.87712617415582,74.56647203181862 204.16597557191648,75.10806465261918 205.36470057262144,77.59216947335752 205.9568418380302,78.71146088967885 206.71507150715047,80.03294688443191 207.1266818989592,80.66119432456087 207.4227525316641,81.08002595131333 207.77659304391986,81.52774251784176 208.18098220078434,81.9754590843702 210.07294575611445,83.83853769992382 211.5677413895233,85.4127669177173 212.03712166088394,85.9399170686299 212.49928069730035,86.54650080392662 212.73758145045332,86.92200502101515 212.9469972638293,87.3191729429354 213.14919184226102,87.7813319793518 213.61135087867743,88.93672957039283 213.80632422216596,89.37000366703327 214.03018250543042,89.76717158895403 214.3840230176862,90.28710050492236 214.76674846971898,90.74203830639505 214.9833855180392,90.95867535471527 215.31556232546328,91.24030351753115 215.8499337113201,91.61580773461968 216.81757919381738,92.2223914699164 217.25807452540104,92.5401258074525 217.6407999774338,92.90118755465303 217.82133085103382,93.125045837917 218.0307466644098,93.40667400073339 218.21127753801085,93.70274463343777 218.37736594172236,94.02770020591811 218.5217906406032,94.36709824828642 218.63733039970705,94.69205382076676 218.74564892386664,95.15421285718317 218.88285238780324,96.0424247552963 219.02727708668306,96.81509689430506 219.30890524949945,97.95605201545811 219.51832106287543,98.64929057008273 219.77106428591586,99.38585653437129 220.05269244873224,100.10798002877237 220.3632055513246,100.8228822882287 220.69538235874867,101.53056331274182 221.0492228710055,102.22380186736643 221.39584214831805,102.83038560266316 221.89410735945364,103.66082762122385 222.32016022115087,104.31073876618453 222.77509802262304,104.95342867620096 223.30946940847986,105.66110970071355 223.80051338467223,106.26769343601028 224.73205269244932,107.31477250289119 225.27364531324935,107.87080759357974 225.88022904854557,108.44128515415626 226.4651490790111,108.95399283518086 226.9778567600352,109.37282446193332 227.512228145892,109.76277114890983 228.05382076669207,110.12383289611037 228.38599757411612,110.32602747454263 228.8409353755893,110.56432822769456 230.24185495472602,111.19257566782301 231.24560661194351,111.71250458379185 231.77997799780033,111.97246904177602 234.26408281853816,113.07731798820937 235.91052438577208,113.7200078982258 236.56043553073275,114.01607853093017 237.08758568164532,114.32659163352253 237.5064173083973,114.62988350117064 237.94691263998197,115.03427265803512 238.27186821246283,115.42421934501164 238.4596203210071,115.7563961524357 238.56071761022244,116.08135172491605 238.5823813150552,116.24021889368434 238.56793884516668,116.44241347211658 238.4812840258388,116.73848410482096 238.37296550167818,116.94067868325321 238.18521339313392,117.1862006713494 237.25367408535786,118.13940368395818 236.8709486333251,118.61600519026257 236.69763899466932,118.868748413303 236.53155059095678,119.16481904600737 236.40156836196445,119.43922597387952 236.2860286028606,119.75696031141561 236.20659501847592,120.09635835378393 236.17048884375674,120.29855293221617 236.14160390398078,120.82570308312876 236.1632676088125,121.28064088460143 236.25714366308463,122.01720684888998Z"/>
    <path d="M172.8402583848128,3.1484584355875027 172.7608248004292,3.625059941891894 172.6597275112128,4.982652111365164 172.5875151617724,5.314828918789748 172.52974528222046,5.459253617669556 172.42864799300511,5.647005726213819 172.24089588446085,5.863642774534044 171.99537389636467,6.05861611802204 171.69208202871553,6.224704521734589 170.93385235959525,6.556881329158659 170.4861357930663,6.787960847366865 170.10341034103456,7.033482835463051 169.87233082282583,7.206792474119333 169.66291500944988,7.394544582663596 169.33795943697004,7.755606329864142 169.09965868381707,8.152774251784383 169.02022509943345,8.333305125384397 168.94079151504877,8.57160587853685 168.89746410538535,8.824349101577283 168.88302163549685,9.01932244506528 168.92634904516132,9.337056782601369 168.99134015965748,9.553693830921594 169.0491100392094,9.690897294857669 169.22964091280943,9.958082987786081 169.48238413584986,10.210826210826514 169.80011847338645,10.44190572903472 170.19006516036245,10.651321542410697 171.4754449803953,11.214577868043486 171.94482525175596,11.46732109108392 172.2192321796281,11.66951566951565 172.43586922794833,11.878931482892142 172.60917886660513,12.095568531212367 172.75360356548492,12.326648049420571 172.86914332458878,12.586612507404737 172.9557981439177,12.861019435276885 172.9991255535811,13.106541423373072 173.02078925841283,13.503709345293824 173.01356802346962,13.908098502158312 172.91247073425325,15.236805731855622 172.85470085470132,15.648416123663843 172.7608248004292,16.03836281064035 172.6741699811013,16.305548503568765 172.16868353502042,17.598149558545863 171.85817043242807,18.681334800146985 171.74263067332421,19.006290372627323 171.5909847395002,19.309582240275432 171.4754449803953,19.475670643987467 171.33824151645973,19.63453781275577 171.16493187780296,19.786183746579823 170.9049674198193,19.945050915348126 170.54390567261925,20.082254379284198 170.21895010013841,20.147245493780368 169.80733970832966,20.17613043355633 169.32351696708156,20.154466728724103 168.88302163549685,20.089475614228444 168.2836591351449,19.966714620180355 167.69151786973612,19.79340498152407 167.10659783927161,19.59843163803556 166.5216778088071,19.374573354771602 165.57569603114155,18.955741728019134 164.80302389213279,18.544131336210913 164.38419226538085,18.2769456432825 164.08090039773273,18.05308736001803 163.58263518659612,17.612592028433845 163.11325491523544,17.099884347409244 161.30072494429,14.716876815886774 160.88189331753705,14.10307184564631 160.57138021494467,13.568700459789996 159.46653126851186,11.46732109108392 158.8743900031031,10.434684494090472 158.47722208118284,9.871428168458197 157.69732870722984,9.012101210121033 157.41570054441345,8.658260697864735 157.1773997912615,8.297198950664702 157.00409015260573,7.9578009082963845 156.8380017488932,7.54619051648765 156.6646921102374,7.062367775239525 156.46249753180467,6.390792925446624 156.35417900764506,5.957518828806175 156.28196665820465,5.560350906885934 156.23863924854018,5.1920679247416555 156.1664268991008,3.9355730444842503 156.05810837494016,3.321768074243785 156.86688668866915,3.256776959747615 157.53124030351833,3.1556796705312364 158.28224873769435,3.191785845251445 158.542213195679,3.1773433753634643 158.95382358748674,3.1267947307552753 159.95757524470423,2.953485092098993 160.1453273532485,2.9607063270432397 160.61470762460914,3.061803616259105 160.78079602832065,3.061803616259105 160.87467208259278,3.0329186764831437 161.34405235395346,2.8018391582749382 162.06617584835453,2.57798087501098 162.26837042678628,2.4696623508508675 162.4344588304988,2.3541225917465085 162.56444105949114,2.2169191278104345 162.6438746438748,2.0869368988180947 162.66553834870652,1.942512199938287 162.62221093904307,1.5814504527377418 162.67275958365076,1.4803531635218765 162.7666356379229,1.4153620490257064 163.2432371442278,1.314264759809328 163.488759132324,1.2059462356492157 163.61874136131632,1.1770612958732543 163.99424557840382,1.1553975910415397 164.46362584976447,1.2203887055371965 164.61527178358853,1.2276099404814433 165.2074130489973,1.0615215367694082 166.17505853149456,0.9098756029453535 166.57944768835904,0.8304420185612028 166.89718202589566,0.7221234944010906 167.3521198273678,0.42605286169671525 167.61208428535147,0.2960706327043753 168.34865024964105,0.06499111449616998 168.56528729796128,0.021663704832227695 168.7530394065045,0 168.96967645482474,0.028884939776474626 169.2440833826979,0.1372034639365869 169.9012157626018,0.49104397619288526 170.21172886519417,0.6860173196808821 170.66666666666734,1.054300301825161 171.50432992017127,1.8919635553300977 171.85094919748383,2.2169191278104345 172.0531437759166,2.361343826690755 172.22645341457235,2.440777411074906 172.515302812333,2.498547290626829 172.73193986065323,2.498547290626829 173.06411666807728,2.4552198809628867 172.9196919691975,2.8451665679388807 172.8402583848128,3.1484584355875027Z"/>
  </g>
</svg>