<?xml version="1.0" encoding="UTF-8" standalone="no"?>
<svg viewBox="0 0 256 249.9892901276949" xmlns="http://www.w3.org/2000/svg">
  <style>
    g.zone {
      fill: lightgray;
      stroke-width: 2;
      stroke-linecap: square;
      stroke-linejoin: bevel;
      stroke-miterlimit: 3;
      stroke-opacity: 0.8;
      stroke: black;
      fill-opacity: 0.3;
    }
  </style>
  <g class="zone" id="zone">
    <path d="M55.549269989474055,241.17826902833164 54.97514760400945,240.79161517689644 54.22527346789346,240.3580941919541 53.38166506476318,239.94800677376617 52.38573847773427,239.5262025722002 51.56556364135673,239.20984942102655 50.69852167147205,238.94036340336004 49.936930751980526,238.74117808595426 48.95272094832715,238.51855920179491 46.4921964391962,238.08503821685255 45.402535585153,237.9444368163303 43.012311776283596,237.71010114879456 41.840633438601635,237.55778296489592 38.52478374296321,236.93679344592502 37.517140372557094,236.77275847864917 36.54464735228258,236.67902421163487 35.85335713304928,236.6673074282577 35.20893404732478,236.69074099501125 34.529360611470345,236.77275847864917 33.486566890934284,236.98366057943215 32.6195249210496,237.26486338047584 31.951668268570703,237.54606618151874 30.28788502906289,238.3428074511427 29.420843059179873,238.74117808595426 28.4600668222809,239.11611515401225 25.940958396265604,240.01830747402687 25.366836010800995,240.2643599249398 24.88644789235234,240.53384594260632 24.42949334065643,240.86191587715714 24.01940592246766,241.24856972859234 23.609318504280555,241.72895784704184 22.54309121699009,243.1584054190131 21.875234564511192,243.9668634720126 20.914458327612216,244.96279005904233 19.89509817383056,245.9001327291869 18.559384868872762,246.97807679985374 17.012769463133644,248.06773765389778 15.70048972493025,248.8879124902745 15.102933772712902,249.20426564144813 14.552244954002697,249.4503180923619 14.001556135292493,249.63778662639047 13.415716966452345,249.7901048102891 12.865028147742143,249.8838390773034 12.197171495263243,249.95413977756496 11.646482676553038,249.9892901276949 10.966909240698602,249.97757334431853 10.35763650510405,249.9307062108114 9.78351411963944,249.83697194379627 8.90475536637922,249.59091949288333 8.400933681176161,249.36830060872398 7.97912947961019,249.13396494118743 7.604192411553029,248.8996292736517 7.182388209987058,248.57155933910084 6.385646940363926,247.80996841960766 5.975559522175157,247.3061467344046 5.553755320609186,246.72030756556444 5.249118952813575,246.16961874685342 5.026500068653387,245.66579706165118 4.850748318000344,245.16197537644814 4.721863700856111,244.6112865577379 4.674996567348966,244.09574808915767 4.698430134103371,243.63879353746174 4.792164401117661,243.18183898576666 4.909332234884691,242.84205226783862 5.085083985537735,242.47883198315782 5.31941965307346,242.09217813172262 5.916975605290809,241.37745434573742 7.10037072634997,240.13547530779474 7.510458144537074,239.58478648908454 7.62762597830577,239.3270172547944 7.6979266785673195,239.03409767037434 7.6979266785673195,238.72946130257705 7.62762597830577,238.4248249347798 7.463591011029929,238.10847178360615 7.240972126871406,237.83898576593964 6.994919675958478,237.59293331502587 6.690283308161201,237.37031443086653 6.069293789189447,236.98366057943215 4.358643416174488,236.15176895967824 3.550185363174153,235.70653119135955 2.6948601766666727,235.10897523914218 1.9918531740578307,234.4528353700405 1.6637832395078147,234.0778983019825 1.3942972218404814,233.7029612339245 1.1365279875520158,233.28115703235852 0.9139091033918276,232.847636047417 0.6561398691016969,232.23836331182247 0.39837063481156615,231.53535630921363 0.19918531740578307,230.87921644011195 0.08201748363875278,230.34024440477893 0,229.68410453567722 0.023433566754405093,229.13341571696702 0.14060140052143538,228.55929333150326 0.328069934551681,228.0203212961694 0.7381573527387846,227.2118632431691 1.2654126046962486,226.34482127328525 1.734083939769365,225.74726532106789 2.1793217080880765,225.30202755274917 2.683143393291135,224.95052405144475 3.245548995376877,224.72790516728458 3.6556364135656456,224.6458876836475 3.9485559979857188,224.6107373335167 4.651563000594561,224.63417090027028 5.29598608632072,224.77477230079253 5.98727630555236,225.03254153508183 6.596549041146911,225.33717790287912 7.9439791294802475,226.0987688223723 8.682136482219033,226.48542267380668 9.33827635132073,226.76662547485037 10.111584054191121,227.0126779257633 10.966909240698602,227.17671289303914 11.962835827727517,227.23529680992266 12.970479198133635,227.17671289303914 14.001556135292493,227.00096114238693 15.138084122842844,226.6611744244589 15.7707904251918,226.4034051901696 16.36834637740915,226.12220238912587 17.57517506522105,225.45434573664699 20.293468808642128,223.7788457137628 21.07849329488806,223.36875829557485 21.922101698018334,223.02897157764681 22.63682548400438,222.82978626024104 23.292965353106077,222.6891848597196 24.08970662272921,222.5837338093281 25.999542313149952,222.41969884205224 26.901734633164576,222.3025310082844 27.885944436816292,222.1267792576322 28.846720673715264,221.89244359009646 29.772346560484294,221.59952400567556 30.7331227973816,221.24802050437114 34.142706760034315,219.75998901551637 35.361252231223425,219.29131768044323 36.661815186049616,218.91638061238524 39.637878163760824,218.24852395990717 40.44633621676115,218.00247150899426 41.12590965261559,217.7681358414577 41.93436770561593,217.42834912353047 42.64909149160197,217.07684562222605 43.270081010573726,216.737058904298 43.832486612659466,216.3738386196172 44.24257403084824,216.05748546844274 44.523776831892775,215.77628266739904 44.79326284955844,215.40134559934103 44.96901460021149,215.06155888141382 44.910430683327135,214.7100553801094 44.7581124994285,214.3234015286742 44.53549361526831,213.93674767723985 44.266007597602645,213.58524417593543 41.75861595496455,210.94896791615227 38.65366836010911,207.45736646986163 37.93894457412306,206.69577555036844 37.07190260423838,205.8990342807453 36.06425923383227,205.14916014462932 35.34953544784622,204.7039223763106 34.85743054602036,204.4344363586441 33.8029200421071,203.96576502357098 33.240514440019695,203.7782964895424 32.65467527117955,203.61426152226656 31.91651791844076,203.46194333836792 31.131493432194834,203.3330587212237 29.40912627580267,203.16902375394784 27.932811570323434,203.1104398370635 26.725982882511534,203.14559018719427 25.683189161975474,203.25104123758578 24.60524509130947,203.40335942148442 21.68776603048261,203.89546432331028 20.76214014371358,204.01263215707814 19.531877889148937,204.08293285733967 18.606252002379907,204.0712160739625 17.680626115612544,203.9774818069482 16.895601629364947,203.87203075655668 15.313835873495886,203.54396082200586 14.435077120234002,203.29790837109292 13.743786901002363,203.05185592018 13.239965215799304,202.82923703602063 12.771293880727852,202.5714678017305 12.361206462539084,202.27854821731043 11.99798617785746,201.90361114925244 11.763650510321733,201.59897478145515 11.529314842784343,201.1537370131356 11.376996658885705,200.75536637832406 11.259828825118674,200.1695272094839 11.248112041741473,199.67742230765722 11.294979175248617,199.25561810609207 11.388713442262908,198.83381390452695 11.576181976291489,198.30655865257032 11.880818344088764,197.6504187834686 12.25575541214759,197.0059956977441 12.689276397089099,196.36157261201961 13.087647031900666,195.83431736006298 13.98983935191529,194.8032404229033 14.833447755045567,193.9713488031494 17.200237997162226,191.78031031168496 19.110073687582968,189.8118907043807 19.88338139045336,189.0620165682647 20.363769508902013,188.6636459334523 21.008192594626507,188.19497459838 21.816650647626844,187.6794361298006 22.648542267381583,187.1990480113511 24.417776557279225,186.30857247471286 26.08155979678704,185.58213190535042 27.34697240148329,185.10174378690178 31.56501441713634,183.5902787312926 34.55279417822309,182.4537507437414 35.49013684836932,182.14911437594415 36.310311684745194,181.938212275162 37.03675225410844,181.79761087463973 37.93894457412306,181.69215982424822 39.77847956428226,181.59842555723395 41.79376630509449,181.59842555723395 43.77390269577512,181.68044304087186 46.421895738936314,181.87962835827764 59.2049064030397,183.27392558011812 60.950707126184604,183.53169481440824 61.78259874593768,183.68401299830688 62.75509176621386,183.89491509908987 63.86818618701147,184.19955146688716 64.70007780676454,184.46903748455367 65.63742047691078,184.84397455261166 66.2935603460108,185.1720444871625 67.17231909927268,185.68758295574193 68.37914778708459,186.49604100874225 71.3434939814186,188.73394663371386 72.84324225365057,189.80017392100348 74.14380520847676,190.69064945764174 75.65527026408594,191.61627534440993 78.50244862465125,193.25662501716334 80.27168291455055,194.2174012540623 81.10357453430363,194.58062153874394 81.54881230262235,194.72122293926537 81.99405007094106,194.8032404229033 82.0526339878254,194.7915236395261 82.13465147146415,194.72122293926537 82.33383678886995,194.33456908783018 82.47443818939138,193.91276488626505 82.66190672341996,193.01057256625043 82.837658474073,192.40129983065586 83.03684379147879,191.86232779532287 83.30632980914444,191.3585061101198 83.66955009382607,190.86640120829395 84.05620394526044,190.49146414023596 84.47800814682641,190.22197812256863 84.92324591514512,190.04622637191642 85.26303263307234,189.9759256716557 85.69655361801551,189.96420888827933 86.03634033594273,190.01107602178647 86.41127740399989,190.11652707217797 86.9971165728417,190.37429630646727 88.32111309442064,191.12417044258325 89.05927044716108,191.49910751064124 89.82086136665261,191.79202709506214 90.51215158588592,191.96777884571435 91.16829145498761,192.0029291958443 91.54322852304477,191.96777884571435 91.9181655911036,191.89747814545365 92.58602224358083,191.65142569453988 93.10156071216109,191.3585061101198 93.48821456359546,191.03043617556895 93.80456771476993,190.65549910751096 94.05062016568286,190.21026133919224 94.1912215662043,189.78845713762712 94.28495583321859,189.30806901917762 94.308389399973,188.85111446748172 94.23808869971144,187.33964941187253 94.26152226646585,186.6483591926409 94.32010618335019,186.20312142432218 94.42555723374169,185.8281843562642 94.54272506750873,185.55869833859686 94.71847681816176,185.230628404046 94.91766213556754,184.94942560300314 95.25744885349476,184.5979221016987 95.59723557142198,184.3050025172778 96.19479152363934,183.90663188246626 96.90951530962538,183.49654446427832 97.50707126184273,183.20362487985741 98.11634399743728,182.94585564556726 98.81935100004613,182.67636962790078 99.51064121927776,182.47718431049498 100.11991395487232,182.34829969334993 100.70575312371246,182.2779989930892 101.31502585930701,182.25456542633563 101.93601537827877,182.2897157764664 102.63902238088761,182.3717332601035 103.38889651700359,182.52405144400214 103.98645246922094,182.68808641127796 104.66602590507537,182.9224220788137 105.21671472378559,183.15675774635025 105.91972172639443,183.51997803103188 106.42354341159748,183.82461439882832 107.4429035653808,184.57448853494515 108.6614490365699,185.65243260561198 109.39960638930869,186.41402352510434 110.02059590828044,187.1990480113511 110.24321479243898,187.55055151265552 110.47755045997636,188.04265641448137 110.77047004439643,188.85111446748172 110.88763787816346,189.39008650281554 111.00480571193216,190.10481028880076 111.47347704700528,194.6977893725118 111.74296306467095,196.78337681358477 111.90699803194678,197.61526843333866 112.11790013272977,198.42372648633818 112.3873861503971,199.20875097258494 112.66858895143997,199.84145727493305 113.21927777015019,200.76708316170127 113.74653302210598,201.43493981417933 114.39095610783214,202.07936289990465 116.07817291409269,203.52052725525226 116.87491418371583,204.28211817474548 117.51933726944031,205.02027552748424 118.44496315620935,206.2856881321805 118.80818344089097,206.73092590049922 119.08938624193384,206.97697835141213 119.40573939310832,207.18788045219512 119.68694219415119,207.34019863609376 119.99157856194847,207.46908325323884 120.06187926221001,207.97290493844187 120.08531282896276,208.40642592338338 119.97986177857126,209.35548537690516 119.92127786168692,209.57810426106536 119.71037576090559,209.98819167925328 119.61664149388965,210.23424413016622 119.48775687674541,210.9841182662822 119.24170442583248,211.96832806993476 119.11281980868658,212.37841548812352 118.87848414115086,212.87052038994938 118.3746624559478,213.71412879308048 118.15204357178928,214.37026866218136 117.94114147100629,215.14357636505173 117.847407203992,215.28417776557316 117.54277083619472,215.63568126687758 117.1912673348903,216.36212183624002 117.0623827177444,216.72534212092162 116.96864845073011,217.322898073139 116.86319740033862,217.61581765755906 116.72259599981719,217.85015332509562 116.33594214838283,218.34225822692147 116.0898896974699,218.7757792118638 116.00787221383113,219.03354844615393 115.9727218637012,219.38505194745753 114.68387569225222,219.5256533479798 113.67623232184609,219.56080369810974 112.77404000183147,219.6896883152548 111.8249805483097,219.70140509863202 110.71188612751209,219.87715684928423 109.8331273742502,220.1114925168208 109.58707492333727,220.13492608357436 109.05981967138148,220.12320930019715 108.50913085267128,220.21694356721144 107.993592384091,220.38097853448727 107.51320426564236,220.65046455215378 107.04453293056923,221.0019680534582 106.47041054510463,221.54094008879204 105.82598745938013,221.06055197034254 105.41590004119303,220.826216302806 105.05267975651141,220.65046455215378 104.36138953727976,220.39269531786366 102.0883335621774,219.65453796512486 101.35017620943862,219.3499015973276 100.61201885669817,219.01011487939954 99.29973911849477,218.28367431003713 97.44848734495838,217.111995972356 96.83921460936548,216.79564282118235 96.30024257403082,216.59645750377658 95.74955375532062,216.4792896700079 95.06998031946618,216.42070575312437 94.70676003478457,216.4558561032543 94.15607121607435,216.573023937023 93.61709918074135,216.7722092544288 93.23044532930533,216.99482813858813 92.84379147787097,217.322898073139 92.5391551100737,217.68611835781977 92.26966909240802,218.17822325964647 92.10563412513218,218.7640624284866 92.05876699162503,219.39676873083474 92.10563412513218,219.9005904160378 92.2345187422764,220.4395624513708 92.49228797656654,221.1660030207332 93.26559567943693,222.84150304361822 93.558515263857,223.579660396357 93.73426701450839,224.20064991532794 93.78113414801552,224.76305551741535 93.68739988100124,225.24344363586482 93.48821456359546,225.66524783742997 93.21872854592979,225.99331777198083 92.49228797656654,226.77834225822758 92.3399697926679,226.97752757563336 92.18765160876927,227.24701359329987 92.11735090850938,227.42276534395208 92.07048377500223,227.70396814499577 92.07048377500223,227.90315346240155 92.14078447526212,228.2195066135752 92.31653622591516,228.64131081514034 92.52743832669648,228.9693807496912 92.78520756098662,229.29745068424205 93.13671106229104,229.66067096892365 93.96860268204577,230.3636779715325 96.42912719117672,232.0391779944167 97.46020412833558,232.847636047417 98.11634399743728,233.4217584328808 98.70218316627742,234.00759760172096 99.19428806810494,234.59343677056194 99.54579156940936,235.09725845576497 99.92072863746652,235.78854867499663 100.1081971714951,236.30408714357688 100.22536500526381,236.90164309579424 100.2487985720182,237.37031443086653 100.17849787175666,237.93272003295394 100.03789647123523,238.38967458464984 99.7684104535679,238.91692983660647 99.41690695226347,239.3621676049252 99.11227058446619,239.64337040596888 98.77248386653898,239.88942285688182 98.31552931484306,240.13547530779474 97.89372511327709,240.2995102750706 97.40162021145123,240.44011167559202 97.02668314339407,240.51041237585272 96.54629502494376,240.5455627259835 95.99560620623355,240.53384594260632 95.45663417090054,240.4752620257228 94.92937891894475,240.3698109753313 94.308389399973,240.20577600805547 93.49993134697266,239.95972355714252 92.22280195890087,239.50276900544662 91.41434390590054,239.18641585427298 90.28953270172572,238.64744381893914 89.69197674950837,238.27250675088115 89.24673898118967,237.90928646620034 88.89523547988524,237.5109158313888 88.57888232871076,237.0188109295621 88.33282987779783,236.46812211085188 88.168794910522,235.95258364227246 87.75870749233489,234.15991578561957 87.58295574168184,233.56235983340224 87.40720399103047,233.1054052817063 87.14943475674035,232.6718842967648 86.77449768868152,232.26179687857604 86.51672845439138,232.06261156117026 86.24724243672571,231.89857659389526 85.74342075152266,231.72282484324305 85.45050116710259,231.67595770973506 85.15758158268085,231.67595770973506 84.78264451462368,231.7345416266194 84.38427387981211,231.87514302714084 84.0210535951305,232.09776191130103 83.65783331044886,232.41411506247468 83.35319694265159,232.80076891390988 83.04856057485432,233.30459059911212 82.81422490731859,233.82012906769236 82.36898713899988,234.94494027186636 82.13465147146415,235.42532839031583 81.87688223717403,235.8354158085046 81.5136619524924,236.29237036019967 81.11529131768084,236.72589134514203 80.67005354936212,237.1242619799536 78.77193464231858,238.600576685432 78.16266190672404,239.1629822875194 77.8814591056795,239.47933543869306 77.63540665476657,239.8191221566211 76.6863472012448,241.42432147924455 76.42857796695466,241.7641081971718 76.08879124902745,242.1273284818534 75.73728774772303,242.43196484965068 75.31548354615872,242.71316765069355 74.83509542770841,242.97093688498367 74.31955695912814,243.17012220238948 73.60483317314376,243.35759073641887 72.89010938715772,243.46304178680953 72.11680168428732,243.5216257036939 69.78516179230228,243.5919264039546 69.15245548995333,243.67394388759251 68.56661632111317,243.8028285047376 67.98077715227302,244.01373060551975 67.38322120005567,244.29493340656344 66.79738203121387,244.64643690786787 65.07501487482337,245.74781454528826 64.59462675637305,246.0173005629556 63.950203670648555,246.32193693075206 63.39951485193835,246.52112224815784 62.75509176621386,246.6617236486801 62.22783651425806,246.70859078218726 61.700581262300595,246.68515721543366 60.97414069293901,246.53283903153505 60.34143439059005,246.2985033639985 59.76731200512711,245.97043342944764 59.24005675316965,245.5603460112597 58.85340290173528,245.16197537644814 58.51361618380806,244.74017117488216 57.587990297039035,243.3458739530417 56.990434344821686,242.52569911666498 56.27571055883564,241.7641081971718 55.549269989474055,241.17826902833164Z"/>
    <path d="M132.65742139228317,144.1164355348076 132.41136894137023,144.4796558194884 132.23561719071887,144.87802645429997 132.1535997070801,145.3349810059959 132.1770332738345,145.803652341069 132.35278502448588,146.50665934367703 133.05579202709472,148.20559293331561 133.31356126138485,148.99061741956154 133.45416266190796,149.7873586891855 133.4893130120379,150.19744610737345 133.4658794452835,150.68955100920013 133.3721451782692,151.33397409492463 132.97377454345764,152.98604055105523 132.78630600942907,153.88823287106985 132.493386425009,156.16128884617223 132.32935145773314,157.02833081605607 132.1887500572117,157.45013501762122 132.00128152318146,157.83678886905642 131.7317955055158,158.22344272049077 131.46230948784847,158.50464552153448 130.74758570186242,159.09048469037546 128.52139686026885,160.63710009611458 127.4434527896012,161.42212458236133 126.38894228568793,162.24229941873804 124.26820449448587,163.97638335850658 123.53004714174541,164.53878896059314 122.53412055471651,165.17149526294128 121.86626390223927,165.49956519749213 121.37415900041175,165.68703373152152 120.85862053183315,165.85106869879655 120.35479884663009,165.9799533159416 119.73380932765834,166.0854043663331 119.18312050894814,166.14398828321663 118.65586525699233,166.1557050665938 117.85912398736754,166.14398828321663 115.70323584603386,165.93308618243447 114.57842464186072,165.9096526156809 113.43017987093316,166.00338688269517 110.82905396128078,166.34317360062323 109.45819030619305,166.43690786763753 108.29822875188829,166.41347430088396 107.07968328069919,166.2494393336081 104.08018673623523,165.6050162478836 102.80305734816345,165.24179596320198 101.91258181152436,164.89029246189756 101.03382305826413,164.40990434344891 100.14334752162672,163.81234839123073 98.17492791432163,162.31260011899877 97.3899034280757,161.7501945169122 96.44084397455227,161.1643553480712 95.50350130440769,160.7191175797525 94.56615863426312,160.39104764520164 93.64053274749409,160.1684287610423 92.60945581033523,159.99267701039008 90.34811661861008,159.69975742596918 89.57480891573968,159.55915602544775 88.77806764611655,159.34825392466476 87.98132637649341,159.0436175568683 87.13771797336314,158.61009657192596 86.4347109707543,158.15314202023006 85.63796970113117,157.59073641814348 83.2477458922601,155.77463499473703 82.29868643873833,154.98961050849027 80.95125635040499,153.6656139869105 80.36541718156485,153.16179230170744 79.68584374570875,152.76342166689588 79.31090667765159,152.59938669962088 78.92425282621723,152.4705020824758 78.4438647077669,152.36505103208432 77.96347658931825,152.2947503318236 77.4713716874924,152.28303354844638 76.95583321891213,152.30646711519995 75.93647306512881,152.44706851572224 74.23753947549105,152.8454391505338 73.47594855599786,152.97432376767887 72.57375623598324,153.06805803469317 71.64813034921588,153.07977481806952 70.95684012998423,153.021190901186 70.28898347750534,152.91573985079452 67.96906036889582,152.32990068195355 66.92626664835976,152.15414893130134 66.4107281797795,152.11899858117138 65.8717561444465,152.11899858117138 63.50496590232984,152.31818389857716 62.262986864388,152.31818389857716 60.96242390956181,152.1775824980549 58.103528765619295,151.67376081285184 57.38880497963325,151.6034601125911 56.74438189390876,151.58002654583754 56.029658107922714,151.61517689596832 55.27978397180672,151.72062794635983 52.5146230948785,152.37676781546068 51.51869650784958,152.5525195661129 51.00315803926932,152.61110348299724 50.34701817016763,152.64625383312801 49.89006361847338,152.6345370497508 49.43310906677746,152.57595313286646 48.87070346469006,152.44706851572224 48.413748912994144,152.25959998169282 47.92164401116829,151.97839718064913 47.417822325965226,151.61517689596832 46.45704608906625,150.77156849283722 43.85592017941387,148.25246006682275 43.46926632797951,147.9126733488947 43.04746212641354,147.63147054785182 42.754542541993466,147.467435580576 42.3561719071819,147.32683418005456 41.922650922238724,147.23309991304026 41.582864204311505,147.20966634628587 40.66895510091968,147.24481669641662 38.97002151128192,147.44400201382243 38.59508444322476,147.43228523044604 38.30216485880469,147.3737013135617 38.079545974644496,147.26825026317022 37.950661357500266,147.1627992127787 37.84521030710877,147.03391459563366 37.73975925671728,146.86987962835863 37.610874639571385,146.40120829328634 37.5522907226887,145.76850199093823 37.564007506064236,145.17094603872087 37.62259142294859,144.53823973637276 38.0912627580217,142.04256487711103 38.37246555906457,139.2188200832993 38.513066959586006,138.50409629731408 38.770836193876136,137.66048789418298 38.99345507803633,137.16838299235712 39.25122431232646,136.68799487390763 39.591011030253675,136.1724564053282 40.422902650006755,135.00077806764625 40.83299006819552,134.2977710650374 41.17277678612274,133.58304727905218 41.91093413886319,131.70836193876224 42.180420156528854,131.157673120052 42.41475582406625,130.74758570186324 42.76625932537067,130.24376401666018 43.17634674355777,129.7633758982107 43.68016842876083,129.318138129892 44.230857247471036,128.91976749508044 44.6409446656598,128.68543182754388 45.004164950341426,128.52139686026885 45.402535585153,128.3807954597466 45.87120692022611,128.2753444093551 46.28129433841321,128.22847727584795 46.70309853997919,128.22847727584795 47.12490274154516,128.2753444093551 47.53499015973226,128.35736189299303 48.27314751247271,128.61513112728315 49.12847269898019,129.06036889560187 50.1243992860091,129.75165911483433 51.56556364135673,130.91162066913827 52.15140281019688,131.3451416540806 52.877843379560126,131.8020962057765 53.75660213282035,132.23561719071887 54.20183990114072,132.38793537461666 54.67051123621217,132.51681999176174 55.09231543777815,132.59883747539965 55.60785390635841,132.63398782553043 56.08824202480706,132.63398782553043 56.56863014325571,132.57540390864608 57.154469312097525,132.45823607487822 57.51768959677748,132.3527850244867 58.15039589912644,132.1067325735738 58.87683646848802,131.75522907226937 59.49782598745978,131.40372557096495 61.48967916151761,130.1500297496459 62.22783651425806,129.7633758982107 62.9191267334897,129.47045631379063 63.57526660259139,129.25955421300765 64.26655682182303,129.107236029109 66.4341617465339,128.8611835781961 67.35978763330127,128.69714861092106 67.88704288525874,128.54483042702245 68.37914778708459,128.35736189299303 68.80095198865057,128.16989335896443 69.28134010709921,127.90040734129711 69.83202892580942,127.53718705661632 70.19524921049104,127.24426747219624 71.96448350038868,125.58048423268843 72.45658840221621,125.17039681449965 72.96041008741926,124.79545974644167 74.02663737470807,124.15103666071717 75.98334019863596,123.16682685706462 76.60432971760771,122.82704013913741 77.30733672021655,122.38180237081787 77.81115840541962,121.9951485193835 78.32669687399988,121.54991075106479 78.6782003753043,121.15154011625323 79.123438143623,120.58913451416582 80.07249759714477,119.27685477596242 80.4357178818264,118.8199002242665 80.9629731337822,118.23406105542637 81.49022838573966,117.70680580346973 82.0526339878254,117.19126733488947 83.01341022472438,116.42967641539711 84.00933681175329,115.79697011304899 84.87637878163797,115.36344912810665 85.60281935100122,115.10567989381735 87.04398370634885,114.70730925900494 87.6415396585662,114.4846903748456 87.87587532610192,114.36752254107773 88.14536134376925,114.16833722367195 88.2976795276679,114.01601903977331 88.41484736143492,113.8519840724983 88.50858162845088,113.62936518833811 88.52029841182642,113.3012952537881 88.40313057805939,112.9029246189757 88.22737882740634,112.61000503455563 87.99304315987062,112.48112041741057 87.55952217492911,112.35223580026549 87.13771797336314,112.28193510000477 86.73934733855157,112.2702183166284 85.93088928555123,112.38738615039627 85.08728088242096,112.61000503455563 84.10307107876758,112.96150853586005 81.68941370314545,113.89885120600545 80.78722138313083,114.19177079042552 79.84987871298459,114.46125680809202 79.04142065998425,114.62529177536786 78.29154652386826,114.71902604238215 77.55338917112948,114.73074282575935 76.96755000228933,114.69559247562859 76.39342761682472,114.59014142523709 75.79587166460738,114.44954002471565 74.58904297679547,114.01601903977331 71.29662684791145,112.56313790104848 69.480525424505,111.66094558103386 68.37914778708459,111.00480571193216 67.59412330083866,110.43068332646838 66.85596594809822,109.78626024074389 66.24669321250366,109.11840358826498 65.68428761041793,108.41539658565615 65.1921827085904,107.68895601629373 62.555906448808074,103.40061330037996 62.32157078127235,102.92022518193048 62.1575358139965,102.45155384685819 62.087235113734955,101.92429859490156 62.11066868048936,101.46734404320564 62.23955329763359,101.03382305826413 62.43873861503938,100.62373564007537 62.731658199461116,100.24879857201738 63.118312050895476,99.90901185409015 63.56354981921419,99.63952583642282 64.05565472104004,99.42862373564067 64.60634353975026,99.27630555174203 65.27420019222915,99.18257128472774 66.04750789509788,99.17085450135055 66.78566524783832,99.22943841823489 67.6058400842142,99.34660625200276 69.67971074191078,99.72154332006075 70.32413382763528,99.80356080369866 70.99199048011418,99.83871115382861 71.75358139960737,99.79184402032146 72.46830518559175,99.6629594031764 73.20646253833219,99.4051901688871 73.71028422353525,99.15913771797334 74.14380520847676,98.86621813355326 74.57732619341827,98.50299784887247 74.97569682822984,98.04604329717657 75.24518284589718,97.63595587898779 75.4795185134329,97.21415167742265 75.67870383083869,96.7220467755968 76.22939264954888,95.02311318595821 76.47544510046181,94.37869010023371 76.89724930202779,93.6522495308713 77.10815140281078,93.3710467298276 77.4713716874924,92.96095931163966 77.95175980594105,92.51572154332011 78.50244862465125,92.10563412513218 79.04142065998425,91.76584740720412 80.62318641585497,90.84022152043593 81.59567943612949,90.19579843471143 82.20495217172405,89.69197674950837 82.57988923978287,89.31703968145038 83.66955009382607,88.05162707675413 84.29053961279783,87.43063755778321 84.6889102476094,87.13771797336314 85.06384731566655,86.91509908920378 85.40363403359378,86.76278090530515 85.82543823515975,86.62217950478288 86.22380886997131,86.55187880452216 86.59874593803013,86.51672845439222 86.95024943933456,86.54016202114579 87.40720399103047,86.63389628816007 87.71184035882608,86.75106412192794 88.02819351000056,86.92681587258015 88.30939631104509,87.13771797336314 88.56716554533357,87.40720399102963 88.7312005126094,87.61810609181262 88.93038583001518,87.95789280973985 89.12957114742098,88.4617144949429 89.24673898118967,88.9421026133924 89.516224998857,90.45356766900157 89.66854318275396,90.94567257082743 89.90287885029136,91.5197949562912 90.23094878484137,92.12906769188575 90.5004348025087,92.51572154332011 90.87537187056587,92.97267609501603 91.32060963888625,93.40619707995837 91.62524600668186,93.6639663142485 92.14078447526212,94.02718659892929 92.58602224358083,94.27323904984222 93.04297679527674,94.4841411506252 93.57023204723421,94.65989290127742 93.96860268204577,94.7536271682917 94.48414115062437,94.82392786855242 94.89422856881315,94.81221108517606 95.22229850336483,94.76534395166891 95.60895235479919,94.6481761179002 95.9370222893492,94.46070758387164 96.15964117350939,94.26152226646585 96.46427754130667,93.86315163165429 97.1555677605383,92.52743832669732 97.54222161197266,91.90644880772639 97.96402581353864,91.34404320563898 99.18257128472774,89.87944528353695 100.55343493981383,88.03991029337776 101.09240697514849,87.44235434116041 101.65481257723422,86.9736830060873 102.14691747906176,86.64561307153645 102.67417273101755,86.36441027049358 103.23657833310496,86.1652249530878 103.9161517689594,86.02462355256553 104.64259233832264,85.95432285230481 105.28701542404713,85.96603963568201 105.84942102613454,86.01290676918916 106.56414481212059,86.11835781957981 108.7669000869614,86.58702915465294 109.66909240697602,86.73934733855157 110.79390361114918,86.83308160556587 111.57892809739677,86.79793125543509 112.28193510000561,86.66904663829003 112.9380749691073,86.44642775413067 113.39502952080156,86.22380886997131 114.90649457641074,85.29818298320312 115.4454666117454,85.04041374891298 115.94928829694679,84.8529452148844 116.6405785161801,84.67719346423219 117.1912673348903,84.5834591972179 117.75367293697771,84.51315849695635 118.64414847361513,84.47800814682641 119.90956107831138,84.52487528033356 121.11638976612161,84.65375989747862 122.83875692251378,84.91152913176875 124.20962057760153,85.20444871618882 125.17039681450049,85.48565151723253 125.82653668360219,85.76685431827539 126.59984438647092,86.20037530321774 127.13881642180392,86.6104627214065 127.75980594077568,87.19630189024666 128.3104947594859,87.86415854272555 129.83367659847227,90.18408165133424 130.93505423589266,91.64867957343627 131.95441438967433,92.86722504462453 132.62227104215322,93.51164813034987 133.30184447800931,94.01546981555292 133.92283399697942,94.34353975010293 134.6961416998498,94.65989290127742 136.62941095702328,95.31603277037911 137.35585152638654,95.63238592155275 138.07057531237092,95.99560620623438 138.69156483134267,96.37054327429237 139.35942148382156,96.85093139274103 139.9686942194161,97.34303629456772 140.60140052176342,97.94059224678507 141.22239004073518,98.59673211588677 141.96054739347395,99.45205730239424 142.73385509634267,100.42455032266959 143.36656139869163,101.30330907593064 143.78836560025593,101.94773216165514 144.15158588493756,102.58043846400325 145.46386562314095,105.11126367339492 145.81536912444537,105.65023570872876 146.1668726257498,106.10719026042383 146.63554396082293,106.58757837887333 147.0690649457644,106.95079866355495 147.57288663096747,107.32573573161294 149.3186873541124,108.4856972859177 149.8693761728226,108.90750148748283 150.43178177491,109.42303995606227 150.970753810243,109.97372877477247 151.49800906220045,110.58300151036703 153.2672433520981,112.82090713533862 153.94681678795422,113.64108197171532 154.34518742276578,114.07460295665766 154.80214197446168,114.4964071582228 155.20051260927326,114.82447709277365 155.61060002746203,115.11739667719372 156.03240422902633,115.37516591148385 156.4659252139695,115.586068012266 157.3446839672297,115.91413794681685 158.4109112545202,116.1484736143534 159.5005721085634,116.27735823149847 160.42619799533242,116.28907501487484 161.2463728317083,116.2539246647449 162.18371550185452,116.16019039773062 164.42162112682527,115.85555402993333 165.37068058034706,115.77353654629542 165.94480296581168,115.76181976291821 166.49549178452187,115.79697011304899 167.3625337544049,115.93757151357042 167.9249393564923,116.12504004759984 168.41704425831816,116.3593757151364 168.88571559339127,116.67572886631004 169.28408622820282,117.02723236761446 169.5887225960001,117.39045265229525 169.94022609730453,117.9294246876291 170.17456176484026,118.42152958945495 170.3385967321161,118.96050162478878 170.42061421575318,119.4057393931075 170.4440477825076,119.74552611103555 170.42061421575318,120.36651563000646 170.3503135154933,120.7766030481944 170.2331456817246,121.16325689962959 169.95194288068174,121.79596320197771 169.53013867911577,122.39351915419506 169.30751979495724,122.62785482173163 168.92086594352122,122.97935832303605 168.35846034143546,123.36601217447041 167.53828550505793,123.77609959265918 166.76497780218753,124.04558561032567 165.85106869879738,124.24477092773147 165.00746029566542,124.33850519474575 162.27744976886882,124.52597372877517 160.98860359741983,124.6665751292966 159.45370497505624,124.90091079683316 157.4735685843756,125.28756464826836 154.0522678383457,126.06087235113792 152.25959998169364,126.50611011945662 151.63861046272189,126.70529543686241 151.14650556089603,126.90448075426819 150.65440065907018,127.13881642180475 150.30289715776576,127.33800173921054 149.9982607899685,127.56062062336989 149.71705798892395,127.81838985766002 149.51787267151818,128.02929195844217 149.3069705707352,128.32221154286307 149.17808595359094,128.56826399377601 149.0492013364467,128.88461714494966 148.97890063618516,129.23612064625408 148.95546706943077,129.51732344729777 149.0140509863151,130.07972904938435 149.17808595359094,130.6187010847182 149.4358551878811,131.20454025355917 150.19744610737428,132.68085495903756 150.4083482081556,133.2081102109942 150.52551604192428,133.6416311959357 150.57238317543144,134.1103025310088 150.5372328253015,134.54382351595032 150.39663142478005,134.91876058400916 150.2443132408814,135.16481303492208 150.1154286237355,135.3054144354435 149.9045265229542,135.49288296947293 149.6936244221712,135.621767586618 149.44757197125827,135.72721863700866 149.09606846995385,135.83266968740014 148.42821181747496,135.93812073779165 146.90502997848859,136.03185500480595 146.03798800860557,136.1490228385738 145.24124673898078,136.3364913726032 144.5148061696192,136.6411277404005 144.01098448441613,136.910613758067 143.5657467160974,137.21525012586426 141.03492150670493,139.16023616641496 139.99212778616885,139.91011030253176 139.18366973316853,140.43736555448757 138.16430957938687,141.04663829008211 137.35585152638654,141.45672570827088 134.96562771751547,142.48780264543058 134.110302531008,142.9213236303721 133.61819762918213,143.22595999816937 133.10265916060354,143.62433063298093 132.9269074099505,143.78836560025678 132.65742139228317,144.1164355348076Z"/>
    <path d="M209.75385601171672,162.54693578653533 209.33205181015242,162.31260011899877 208.81651334157218,162.14856515172374 207.07071261842725,161.8087784337957 206.19195386516537,161.4572749324913 205.31319511190515,161.0003203807962 203.590827955513,160.46134834546237 202.46601675133985,159.96924344363651 202.04421254977387,159.82864204311423 201.70442583184666,159.77005812623074 201.35292233054224,159.77005812623074 200.26326147649903,159.93409309350574 199.82974049155587,159.92237631012935 199.5368209071358,159.85207560986782 198.82209712114974,159.58258959220132 198.50574396997692,159.5005721085634 198.09565655178815,159.46542175843345 196.99427891436775,159.43027140830267 196.3615726120188,159.3248203579112 195.91633484370007,159.16078539063616 195.31877889148274,158.83271545608534 195.00242574030824,158.69211405556388 193.72529635223646,158.24687628724433 193.29177536729495,158.1179916700993 192.92855508261334,158.07112453659212 192.1318138129902,158.04769096983856 191.07730330907694,157.8953727859399 190.22197812256945,157.84850565243278 189.87047462126503,157.77820495217208 189.2612018856705,157.52043571788192 188.8745480342361,157.274383266969 188.59334523319157,156.98146368254893 188.4175934825402,156.67682731475165 188.35900956565587,156.4424916472151 188.3824431324086,156.19643919630218 188.67536271683034,155.54029932720047 188.8393976841045,154.7904251910845 189.1440340519018,153.71248112041764 189.2963522358004,153.31411048560608 189.54240468671335,152.83372236715658 189.7064396539892,152.58766991624367 190.17511098906232,151.97839718064913 191.0187193921926,151.02933772712734 191.52254107739566,150.36148107464928 191.87404457870008,149.74049155567835 192.1318138129902,148.9203167193008 192.28413199688885,148.54537965124283 192.4716005309174,148.18215936656205 192.69421941507593,147.83065586525763 192.96370543274327,147.50258593070677 193.3152089340477,147.15108242940235 193.6549956519749,146.86987962835863 194.02993272003374,146.62382717744572 194.41658657146812,146.42464186003994 194.80324042290246,146.2723236761413 195.56483134239565,146.04970479198192 196.57247471280178,145.8856698247061 197.70900270035213,145.83880269119896 198.82209712114974,145.8856698247061 199.9117579751946,145.99112087509758 203.95404824019462,146.6472607441993 204.73907272644055,146.70584466108363 205.4655132958038,146.67069431095285 205.9107510641225,146.60039361069215 206.29740491555685,146.49494256030064 206.62547485010856,146.3543411597792 206.84809373426708,146.22545654263413 207.1058629685572,146.0028376584748 207.26989793583303,145.7919355576918 207.38706576960007,145.5458831067789 207.43393290310888,145.29983065586595 207.42221611973167,144.90146002105354 207.3167650693402,144.53823973637276 207.15273010206434,144.32733763558977 206.77779303400717,143.98755091766256 206.26225456542693,143.63604741635814 204.56332097578917,142.6635543960828 203.83688040642593,142.1714494942561 203.05185592018,141.53874319190882 201.25918806352794,140.00384456954606 200.4624467939048,139.37113826719795 199.18531740583137,138.45722916380612 195.88118449357015,136.23104032221173 193.18632431690347,134.21575358140032 192.82310403222183,133.92283399697942 192.5653347979317,133.6533479793129 192.3075655636416,133.32527804476206 192.120097029613,132.96205776008128 191.97949562909156,132.5402535585153 191.8974781454528,132.05986544006666 191.86232779532287,131.47402627122565 191.8974781454528,130.9584878026454 191.96777884571435,130.4195157673124 192.17868094649734,129.23612064625408 192.2255480800045,128.69714861092106 192.17868094649734,128.2987779761095 192.10838024623578,127.99414160831223 191.97949562909156,127.67778845713775 191.82717744519292,127.36143530596411 191.51082429401845,126.89276397089182 191.15932079271403,126.42409263581871 188.26527529864157,122.99107510641241 187.80832074694564,122.55755412147008 187.40995011213408,122.22948418692006 186.0976703739307,121.36244221703538 185.67586617236472,121.03437228248453 185.31264588768477,120.64771843105017 185.05487665339464,120.21419744610782 184.93770881962593,119.88612751155698 184.87912490274158,119.49947366012178 184.8674081193644,119.06595267518027 184.93770881962593,118.59728134010716 185.05487665339464,118.12861000503487 185.25406197080042,117.57792118632467 185.5352647718433,116.98036523410731 185.85161792301776,116.40624284864354 186.2148382076994,115.85555402993333 186.6249256258865,115.3165819945995 187.02329626069806,114.8713442262808 187.52711794590113,114.35580575770052 188.10124033136572,113.8519840724983 188.67536271683034,113.3950295208024 190.7961005080324,111.83669733168607 191.19447114284395,111.49691061375802 191.48739072726403,111.18055746258437 191.6631424779171,110.93450501167145 191.79202709506131,110.68845256075852 191.87404457870008,110.43068332646838 191.8974781454528,110.20806444230902 191.88576136207726,109.97372877477247 191.83889422856845,109.65737562359882 191.75687674493136,109.39960638930869 191.61627534440993,109.17698750514934 191.39365646024976,108.90750148748283 191.05386974232252,108.579431552932 190.81953407478682,108.40367980227978 190.47974735685958,108.18106091812042 189.7298732207436,107.829557416816 189.21433475216332,107.65380566616379 188.67536271683034,107.51320426564152 187.77317039681571,107.34916929836652 186.85926129342388,107.32573573161294 186.46089065861233,107.34916929836652 185.95706897340926,107.4429035653808 185.58213190535042,107.5483546157723 185.26577875417763,107.67723923291736 184.84397455261166,107.91157490045309 184.4690374845528,108.21621126825036 184.16440111675556,108.54428120280122 183.91834866584261,108.94265183761279 183.6722962149297,109.55192457320733 183.2622087967409,111.22742459609151 182.9341388621909,112.16476726623692 182.55920179413206,112.94979175248368 182.20769829282764,113.61764840496174 181.89134514165485,114.1097533067876 181.5515584237276,114.54327429172994 181.22348848917594,114.83619387615002 180.84855142111877,115.08224632706377 180.46189756968275,115.26971486109235 180.00494301798685,115.39859947823743 179.55970524966813,115.46890017849815 179.07931713121948,115.45718339512177 178.66922971303072,115.38688269486022 178.25914229484195,115.24628129433879 178.0013730605518,115.11739667719372 177.74360382626168,114.95336170991871 177.49755137534873,114.73074282575935 177.31008284132017,114.51984072497638 177.13433109066878,114.26207149068624 177.0171632569001,114.01601903977331 176.935145773263,113.75824980548317 176.88827863975587,113.50048057119388 176.87656185637866,113.10210993638148 176.94686255663854,112.6451553846864 177.09918074053718,112.15305048285971 177.61471920911745,110.8876378781643 177.86077166003037,110.1377637420483 178.02480662730622,109.43475673943946 178.0951073275661,108.72003295345343 178.0951073275661,108.2747951851347 178.05995697743614,107.87642455032315 177.98965627717627,107.47805391551158 177.87248844340758,107.06796649732281 177.72017025950893,106.70474621264202 177.5444185088559,106.38839306146754 177.3335164080746,106.08375669367027 177.1108975239144,105.81427067600376 176.65394297221846,105.42761682456857 176.12668772026268,105.12298045677213 175.56428211817527,104.91207835598914 174.93157581582798,104.7714769554677 174.36917021374057,104.72460982196056 173.79504782827595,104.74804338871414 173.23264222618855,104.83006087235123 171.48684150304365,105.1464140235257 170.8775687674491,105.20499794040921 170.3268799487389,105.20499794040921 169.63558972950725,105.1464140235257 169.00288342715996,105.00581262300344 168.3936106915654,104.79491052222127 167.84292187285521,104.50199093780037 167.45626802142084,104.23250492013388 167.04618060323207,103.88100141882946 166.7415442354348,103.5646482676558 166.43690786763753,103.18971119959781 166.0854043663331,102.67417273101755 165.2183623964484,101.22129159229272 164.83170854501407,100.612018856699 164.39818756007256,100.03789647123439 163.92951622499942,99.49892443590139 163.32024348940487,98.9248020504376 162.60551970341882,98.38583001510378 161.86736235068005,97.92887546340786 160.074694494028,96.95638244313253 159.55915602544775,96.59316215845173 159.18421895739058,96.28852579065446 158.73898118907022,95.81985445558217 158.25859307062154,95.19886493661042 157.8953727859399,94.55444185088592 157.5438692846355,93.76941736463915 157.27438326696983,92.96095931163966 157.16893221657836,92.4454208430594 157.1220650830712,92.03533342487063 157.11034829969398,91.28545928875464 157.23923291683823,90.60588585289938 157.3446839672297,90.30124948510293 157.49700215112836,90.00832990068203 157.6727539017814,89.73884388301552 157.88365600256273,89.50450821547896 158.12970845347732,89.29360611469681 158.4109112545202,89.1061375806674 158.70383083894026,88.95381939676876 159.03190077349194,88.82493477962453 159.535722458695,88.69605016247947 160.1801455444195,88.62574946221791 160.9065861137811,88.62574946221791 161.63302668314432,88.69605016247947 162.87500572108615,88.96553618014596 165.72218408165148,89.82086136665345 166.83527850244909,90.11378095107351 168.01867362350657,90.34811661861008 168.83884845988413,90.40670053549358 169.33095336171,90.38326696874002 169.75275756327594,90.3246830518565 170.1394114147103,90.219232001465 170.51434848276915,90.05519703418916 170.8072680671892,89.86772850016058 171.0884708682321,89.62167604924765 171.29937296901508,89.34047324820395 171.4282575861593,89.05927044716024 171.48684150304365,88.7429172959866 171.47512471966644,88.35626344455142 171.38139045265217,87.85244175934835 171.10018765160928,86.57531237127573 171.02988695134775,86.13007460295702 170.98301981784059,85.43878438372538 170.98301981784059,81.57224586937674 171.02988695134775,80.82237173326077 171.11190443498649,80.28339969792692 171.25250583550792,79.7678612293475 171.43997436953651,79.26403954414444 172.13126458876815,77.61197308801383 172.43590095656543,76.5926129342305 172.49448487344978,76.12394159915823 172.50620165682696,75.70213739759309 172.4124673898127,74.19067234198391 172.45933452331982,73.4759485559987 172.62336949059568,72.71435763650551 173.220925442813,70.99199048011418 173.4201107602188,70.27726669412813 173.56071216074022,69.36335759073714 173.57242894411743,68.6486338047511 173.47869467710314,67.85189253512796 173.02174012540723,65.7545883106778 172.6702366241028,63.43466520206913 172.50620165682696,62.54418966543087 172.2249988557841,61.267060277358254 171.80319465421812,59.72044487161913 171.62744290356508,59.146322486155356 171.34624010252222,58.39644835003937 170.8775687674491,57.4356721131404 170.3503135154933,56.556913359879346 169.6707400796372,55.64300425648835 168.75683097624704,54.600210535951454 167.78433795597087,53.66286786580689 166.98759668634773,53.041878346835134 166.50720856789908,52.74895876241506 166.12055471646303,52.54977344500928 165.26522952995558,52.2568538605892 164.71454071124535,52.127969243444134 164.1404183257824,52.03423497642985 163.05075747173754,51.94050070941473 162.3477504691287,51.952217492791924 161.63302668314432,51.99908462629907 160.95345324728822,52.11625246006694 160.42619799533242,52.245137077212 159.59430637557767,52.561490228385644 156.84086228202665,53.95578745022696 155.62231681083924,54.67051123621217 155.09506155888175,55.033731520893795 154.52093917341716,55.47896928921251 152.61110348299806,57.17790287885026 151.59174332921475,58.138679115749234 150.5372328253015,59.24005675316965 150.1154286237355,59.63842738798121 149.83422582269264,59.8493294887642 149.471005538011,60.08366515630075 149.0492013364467,60.28285047370654 148.6742642683879,60.41173509085077 147.95954048240185,60.56405327474941 147.3502677468073,60.64607075838733 145.4990159732709,60.786672158909596 143.16737608128585,60.84525607579311 141.62076067554673,60.786672158909596 140.30848093734335,60.63435397501096 138.96105084901,60.3883015240972 138.211176712894,60.177399423315045 137.64877111080662,59.98993088928563 136.58254382351615,59.54469312096692 135.73893542038587,59.099455352648214 135.15309625154572,58.72451828459022 134.6727081330954,58.38473156666217 133.77051581308078,57.63485743054618 132.9386241933277,56.80296581079227 132.1887500572117,55.889056707401274 131.48574305460286,54.82282942011081 130.93505423589266,53.78003569957475 130.5132500343267,52.819259462675774 130.1851800997767,51.94050070941473 129.93912764886375,51.143759439791594 129.77509268158792,50.35873495354483 129.68135841457362,49.69087830106676 129.6696416311964,48.87070346469006 129.72822554808076,48.17941324545759 129.8805437319794,47.35923840908088 130.32578150029812,45.59000411918157 130.38436541718247,45.086182433979346 130.4077989839352,44.699528582544154 130.38436541718247,44.137122980456745 130.26719758341378,43.51613346148582 130.0562954826308,42.883427159137696 129.7633758982107,42.274154423543976 129.3298549132692,41.61801455444228 128.66199826079028,40.83299006819552 126.71701222023961,39.13405647855776 126.10773948464507,38.58336765984756 125.36958213190627,37.821776740354366 123.82296672616715,36.11112636733941 123.16682685706546,35.443269714861344 122.56927090484811,34.927731246281915 121.9717149526291,34.50592704471594 121.3390086502818,34.13098997665795 120.74145269806445,33.84978717561508 119.87441072817977,33.5334340244406 119.06595267517943,33.31081514028124 118.17547713854202,33.146780173006235 117.47247013593318,33.05304590599111 116.88663096709303,33.01789555586117 115.9961554304556,33.01789555586117 115.23456451096241,33.05304590599111 114.43782324133929,33.13506338962903 112.79747356858421,33.42798297404911 110.25493157581617,34.00210535951371 109.3175889056716,34.15442354341152 108.83720078722129,34.177857110165924 108.1927777014968,34.177857110165924 107.60693853265664,34.11927319328158 106.86878117991786,34.00210535951371 103.69353288480087,33.39283262391916 103.03739301569917,33.240514440020526 102.17035104581448,32.982745205730396 101.16270767540837,32.6078081376724 98.13977756419169,31.354112316353355 95.55036843791484,30.428486429585156 94.65989290127742,30.01839901139639 93.95688589866857,29.561444459701306 93.39448029658116,29.045905991121046 92.93752574488525,28.506933955788046 92.4571376264366,27.745343036294855 92.08220055837778,26.995468900178867 91.67211314019067,25.964391963019178 90.6058858529002,23.082063252323092 90.33639983523287,22.168154148931265 90.23094878484137,21.558881413337545 90.20751521808863,21.01990937800371 90.26609913497299,20.469220559293507 90.39498375211721,20.000549224221224 90.65275298640735,19.46157718888739 90.96910613758183,18.96947228706153 91.33232642226179,18.559384868872762 91.90644880772639,18.032129616916134 92.75005721085667,17.446290448075985 93.64053274749409,16.97761911300287 94.70676003478457,16.508947777930587 95.90187193921926,16.087143576365445 97.10870062703115,15.735640075061026 98.49128106549611,15.419286923887379 100.35424962240803,15.102933772712902 101.5376447434672,14.997482722321408 102.13520069568455,14.985765938945038 102.59215524738046,15.02091628907498 103.17799441622061,15.114650556090103 103.55293148427943,15.208384823104394 104.19735457000392,15.419286923887379 107.45462034875801,16.62611561169845 109.43475673943864,17.387706531191636 109.90342807451175,17.5048743649595 110.21978122568623,17.551741498466647 110.51270081010631,17.551741498466647 110.89935466154067,17.49315758158313 111.33287564648384,17.352556181060862 111.75467984804814,17.106503730147935 112.11790013272977,16.778433795597085 112.39910293377264,16.46208064442344 112.68030573481718,16.01684287610473 112.9380749691073,15.52473797427804 113.14897706988863,14.985765938945038 113.6879491052233,13.450867316582288 113.91056798938182,12.947045631379229 114.18005400704915,12.4315071627998 114.53155750835357,11.91596869421954 114.89477779303519,11.517598059407973 115.28143164446956,11.177811341480755 115.71495262941107,10.920042107190625 116.12504004759984,10.756007139914784 116.5351274657886,10.662272872900493 116.96864845073011,10.62712252277055 117.35530230216447,10.63883930614692 117.8356904206148,10.697423223031269 118.3043617556879,10.802874273422761 120.29621492974574,11.376996658886538 121.11638976612161,11.552748409538749 121.62021145132468,11.599615543045893 122.08888278639779,11.587898759668692 122.63957160510799,11.505881276031603 123.01450867316682,11.412147009016481 123.2019772071954,11.283262391871416 123.47146322486273,11.025493157582117 123.71751567577566,10.732573573161211 123.90498420980424,10.416220421987566 124.63142477916583,8.846171449494873 125.24069751476038,7.322989610508493 125.35786534852907,6.9480525424505 125.40473248203622,6.444230857247441 125.27584786489199,5.260835736189946 125.26413108151479,4.768730834363256 125.31099821502193,4.28834271591377 125.51018353242772,3.1752482951169916 125.52190031580491,2.8354615771889407 125.49846674905051,2.612842693029585 125.41644926541342,2.343356675363084 125.28756464826752,2.050437090943011 124.56112407890595,1.0193601537833203 124.46738981189165,0.84360840313111 124.4205226783845,0.6092727355945518 124.50254016202159,0.42180420156597126 124.77202617968892,0.24605245091376074 125.10009611423894,0.15231818389863794 125.66250171632635,0.08201748363792025 126.75216257036955,0.023433566753572565 128.59169756052876,0 147.0456313790117,0.011716783377202547 171.40482401940656,0.07030070026155022 180.16897798526267,0.04686713350714513 183.2622087967409,0.07030070026155022 184.44560391780007,0.10545105039149281 185.73445008924907,0.18746853402941305 186.88269486017663,0.35150350130442104 187.69115291317695,0.5389720353338341 188.4175934825402,0.8084580530003348 188.73394663371303,0.9724930202761753 189.09716691839463,1.2185454711891035 189.49553755320622,1.5817657558698945 189.77674035425073,1.9332692571743155 190.02279280516368,2.366790242116657 190.57348162387387,3.5853357133049277 190.94841869193104,4.171174882145907 191.14760400933682,4.417227333058835 191.49910751064124,4.768730834363256 191.93262849558442,5.108517552291307 192.37786626390312,5.378003569957808 192.9871389994977,5.670923154377881 193.80731383587354,5.952125955421585 194.47517048835246,6.104444139320223 196.51389079591743,6.514531557508992 197.27548171541062,6.702000091537572 197.77930340061368,6.866035058813412 198.2362579523096,7.0535035928419925 198.55261110348405,7.217538560117833 198.798663554397,7.393290310770044 199.04471600530994,7.639342761682972 199.17360062245416,7.850244862465125 199.2556181060929,8.014279829740966 199.3142020229756,8.412650464552533 199.30248523960006,8.635269348711887 199.2321845393385,8.904755366378389 198.98613208842556,9.396860268205078 198.6814957206283,9.78351411963944 198.30655865257114,10.158451187697434 197.75586983386094,10.62712252277055 196.3967229621504,11.658199459929408 195.92805162707728,12.068286878118178 195.62341525928,12.372923245915453 195.28362854135278,12.783010664104221 195.0492928738154,13.146230948785012 194.80324042290246,13.650052633988071 194.66263902238103,14.107007185683985 194.59233832212115,14.73971348803211 194.6392054556283,15.348986223625829 194.7446565060198,15.911391825713237 195.14302714083135,17.446290448075985 195.24847819122118,18.00869605016256 195.30706210810553,18.559384868872762 195.34221245823713,19.789647123438236 195.20161105771402,22.871161151540107 195.23676140784565,24.42949334065643 195.31877889148274,25.425419927686175 195.43594672525143,26.269028330816454 195.88118449357015,28.20229758799077 195.98663554396163,28.81157032358532 196.02178589409158,29.526294109570532 195.96320197720723,30.346468945947237 195.7171495262943,31.412696233237703 195.13131035745414,33.2522312233969 194.9555586068011,33.95523822600574 194.83839077303406,34.787129845759644 194.73293972264258,36.80241658657188 194.58062153874394,37.821776740354366 194.2174012540623,39.43869284635504 193.59641173509056,41.59458098768871 193.1394571833963,42.95372785939925 192.659069064946,44.07853906357323 192.20211451325008,44.910430683327135 190.8078172914096,47.124902741544325 190.31571238958375,48.05052862831252 190.10481028880076,48.61293423039993 189.97592567165654,49.069888782095845 189.90562497139499,49.70259508444313 189.91734175477217,50.25328390315417 190.11652707217797,52.02251819305265 190.21026133919224,54.260423818024236 190.32742917296096,54.857979770241585 190.4680305734824,55.385235022198216 190.63206554075822,55.807039223763354 191.58112499428,57.798892397822016 191.79202709506131,58.38473156666217 192.120097029613,59.52125955421335 192.37786626390312,60.271133690329336 192.81138724884462,61.220193143851105 193.3386425008021,62.075518330358584 193.9713488031494,62.89569316673529 195.29534532473,64.44230857247524 195.62341525928,64.89926312417116 195.95148519383002,65.50853585976488 196.13895372786027,66.0475078950987 196.20925442812015,66.45759531328665 196.23268799487457,66.80909881459107 196.22097121149736,67.20746944940264 196.1741040779902,67.59412330083784 196.02178589409158,68.17996246967881 195.44766350862864,69.90232962607014 195.34221245823713,70.42958487802677 195.33049567485992,70.89825621309906 195.3890795917443,71.41379468167932 195.51796420888851,71.80044853311368 195.78745022655585,72.2574030848096 196.02178589409158,72.5386058858533 196.22097121149736,72.73779120325908 196.13895372786027,72.85495903702694 196.08036981097592,73.06586113780993 196.0686530275987,73.54624925625942 196.15067051123748,74.05007094146248 196.32642226188884,74.49530870978118 196.7482264634548,75.19831571239003 196.97084534761333,75.67870383083951 197.09972996475923,75.86617236486809 197.27548171541062,76.0419241155203 197.54496773307795,76.24110943292608 198.35342578607828,76.63948006773765 199.95862510870174,77.82287518879598 202.091079683281,79.66241017895601 202.53631745159973,80.11936473065192 202.8643873861514,80.58803606572421 202.98155521991845,80.70520389949206 203.22760767083136,80.8692388667679 203.8134468396732,81.1270081010572 204.08293285733885,81.30275985170941 204.53988740903475,81.74799762002895 204.6219048926735,81.91203258730397 204.73907272644055,82.26353608860839 204.89139091033917,82.47443818939138 205.05542587761502,82.61503958991281 205.73499931346947,83.03684379147795 204.2704013913691,83.18916197537659 203.14559018719427,83.43521442628952 202.44258318458543,83.64611652707251 201.69270904846945,83.9273193281162 201.04828596274496,84.22023891253627 200.48588036065755,84.52487528033356 200.087509725846,84.79436129800006 199.63055517415006,85.14586479930448 199.2321845393385,85.53251865073968 198.96269852167117,85.87230536866689 198.74007963751265,86.25895922010208 198.59947823699122,86.58702915465294 198.50574396997692,86.99711657284087 198.4588768364681,87.43063755778321 198.48231040322253,87.88759210947913 198.54089432010687,88.28596274429069 198.78694677101979,89.12957114742098 199.18531740583137,90.13721451782709 200.74364959494767,93.69911666437844 201.0834363128749,94.62474255114664 201.30605519703508,95.38633347063983 201.45837338093372,96.13620760675582 201.6224083482079,97.21415167742265 202.091079683281,101.66652936061143 202.25511465055686,102.47498741361177 202.45429996796264,103.07254336582912 202.6183349352385,103.44748043388711 202.81752025264427,103.81070071856873 203.35649228797726,104.54885807130835 203.70799578928168,104.92379513936635 205.45379651242658,106.56414481211975 206.09821959815108,107.2788685981058 206.37942239919562,107.68895601629373 206.60204128335414,108.05217630097536 206.77779303400717,108.45054693578692 206.89496086777422,108.83720078722212 206.98869513478851,109.43475673943946 207.0121287015429,109.87999450775818 206.95354478465856,110.5947182937434 206.85981051764426,111.1454071124536 206.6840587669929,111.86013089843964 206.4497230994555,112.58657146780206 206.21538743191977,113.12554350313589 205.65298182983238,114.27378827406343 205.4655132958038,114.80104352602007 205.40692937891944,115.11739667719372 205.40692937891944,115.44546661174456 205.45379651242658,115.75010297954185 205.54753077944088,116.05473934733912 205.73499931346947,116.44139319877348 205.96933498100685,116.83976383358505 206.64890841686127,117.75367293697688 208.34784200649904,119.75724289441192 209.191450409631,120.63600164767296 209.7069888782096,121.03437228248453 210.25767769691979,121.35072543365901 210.79664973225445,121.56162753444116 212.42528262163066,122.06544921964422 212.97597144034086,122.31150167055715 213.47979312554392,122.62785482173163 213.84301341022555,122.93249118952806 214.26481761178985,123.41287930797756 215.35447846583472,124.99464506384744 215.82314980090618,125.56876744931122 216.2918211359793,126.01400521763077 217.04169527209527,126.56469403634098 217.68611835781977,126.96306467115254 218.30710787679152,127.24426747219624 218.89294704563167,127.43173600622482 219.6896883152548,127.58405419012347 220.93166735319664,127.71293880726853 222.22051352464732,127.75980594077568 223.63824431324053,127.75980594077568 225.22001006911125,127.68950524051496 225.51292965353133,127.7363723740221 225.7003981875599,127.80667307428281 225.9113002883429,127.95899125818146 226.2628037896473,128.2753444093551 227.5868003112279,129.6579248478192 228.0203212961694,130.03286191587722 228.4069751476038,130.2203304499066 229.40290173463436,130.46638290081955 229.84813950295307,130.67728500160254 230.58629685569187,131.1811066868056 231.25415350817076,131.70836193876224 231.52363952583642,132.00128152318229 231.78140876012657,132.45823607487822 231.96887729415513,132.62227104215322 232.1680626115609,132.7160053091675 232.73046821364832,132.85660670968977 233.0351045814456,132.97377454345764 233.50377591651872,133.29012769463128 233.99588081834457,133.71193189619726 234.24193326925752,133.88768364684947 235.05039132225784,134.30948784841462 235.77683189161942,134.61412421621188 236.14005217630105,134.83674310037125 236.29237036019967,134.97734450089268 236.42125497734557,135.1413794681685 236.8313423955327,135.9732710879216 237.14769554670715,136.39507528948755 238.12018856698333,137.25040047599504 239.30358368804085,138.41036203029896 239.85427250675104,138.84388301524132 240.97908371092586,139.64062428486443 241.564922879766,139.99212778616885 242.05702778159184,140.21474667032822 243.1115382855051,140.56625017163265 243.67394388759251,140.788869055792 244.0723145224041,140.9880543731986 244.318366973317,141.1755229072272 244.9627900590415,141.8316627763289 245.2908599935932,142.2769005446476 245.41974461073744,142.5463865623141 245.607213144766,143.14394251453228 245.78296489541904,143.51887958259027 246.14618518010067,144.16330266831477 246.65000686530374,144.91317680443075 246.82575861595512,145.12407890521374 247.0249439333609,145.31154743924233 248.05602087052142,146.0028376584748 248.20833905442007,146.1668726257498 248.29035653805715,146.29575724289487 248.3489404549415,146.54180969380778 248.3372236715643,146.94018032861936 248.05602087052142,148.4867957343593 247.84511876973843,149.08435168657667 247.85683555311564,149.27182022060524 247.92713625337552,149.4358551878811 248.1380383541585,149.65847407204043 248.8058950066374,149.99826078996765 249.69637054327484,150.67783422582292 250.12989152821635,151.06448807725812 250.41109432926086,151.38084122843176 250.5634125131595,151.65032724609827 250.77431461394082,152.1892992814321 250.9852167147238,152.61110348299724 252.20376218591292,154.7669916243309 252.5786992539701,155.3411140097947 253.08252093917315,155.85665247837494 253.2699894732034,156.09098814591067 254.18389857659355,157.7196210352877 254.383083894001,158.2117259371144 254.91033914595678,160.07469449402717 255.07437411323264,160.49649869559315 255.28527621401562,160.80113506338958 255.4844615314214,160.96517003066543 255.75394754908706,161.0706210810569 256,161.0823378644333 255.84768181610136,161.14092178131764 255.6953636322027,161.24637283170912 255.5664790150585,161.363540665477 255.4375943979126,161.5510091995064 255.33214334752276,161.8439287839265 255.30870978076837,162.37118403588312 255.27355943063841,162.60551970341967 255.21497551375407,162.7344043205639 255.07437411323264,162.94530642134688 254.53540207789797,163.42569453979638 254.05501395944933,163.90608265824585 253.34029017346327,164.48020504370965 252.55526568721734,165.30037988008633 251.58277266694117,165.93308618243447 251.1961188155068,166.2494393336081 250.93834958121667,166.6243764016661 250.59856286328946,167.38596732115928 250.4345278960136,167.64373655544944 250.30564327886938,167.78433795597087 250.07130761133197,167.97180649000026 249.19254885807177,168.44047782507255 248.86447892352174,168.6982470593627 248.70044395624592,168.92086594352205 248.40752437182584,169.54185546249298 247.80996841960848,170.32687994873973 247.5756327520711,170.74868415030485 247.2358460341439,171.6274429035659 247.2358460341439,171.8266282209717 247.28271316765102,172.01409675500028 247.62249988557824,172.670236624102 247.6693670190854,172.9280058583921 247.63421666895545,173.08032404229075 247.5639159686939,173.2092086594358 247.43503135154967,173.37324362671083 247.0483775001153,173.72474712801525 246.90777609959386,174.00594992905894 246.88434253283947,174.35745343036336 247.0132271499837,175.31822966726233 246.98979358323095,175.41196393427663 246.90777609959386,175.56428211817527 246.70859078218808,175.74003386882748 246.41567119776633,175.84548491921896 245.6306467115204,175.92750240285605 244.79875509176733,176.06810380337834 244.56441942422995,176.0915373701319 244.23634948967992,176.06810380337834 243.45132500343234,175.95093596960962 241.9984438647075,175.66973316856675 240.82676552702722,175.55256533479806 240.49869559247554,175.48226463453736 240.20577600805547,175.35338001739228 239.88942285688097,175.09561078310298 239.0692480205051,174.2285688132183 238.87006270309934,173.98251636230538 238.7177445192007,173.73646391139243 238.5888599020548,173.4669778937251 238.4131081514034,172.7405373243627 238.33109066776632,172.5765023570877 238.17877248386768,172.50620165682696 237.61636688178027,172.3773170396819 237.44061513112723,172.2718659892904 237.27658016385305,172.13126458876897 236.8664927456643,171.60400933681234 236.43297176072113,171.13533800173923 236.14005217630105,170.71353380017408 235.99945077577962,170.631516316537 235.62451370772246,170.57293239965264 235.4487619570694,170.47919813263837 235.28472698979357,170.28001281523257 235.02695775550345,169.85820861366662 234.75747173783776,169.5887225960001 234.47626893679322,169.4129708453479 234.136482218866,169.28408622820282 233.86699620120035,169.21378552794212 233.62094375028576,169.20206874456574 233.17570598196704,169.2372190946957 232.34381436221398,169.51842189573938 231.06668497414051,169.85820861366662 230.31681083802454,170.16284498146388 228.74676186553268,170.95958625108702 228.18435626344527,171.28765618563787 227.5868003112279,171.70946038720385 227.27044716005344,172.00237997162392 226.7900590416048,172.58821914046405 226.4502723236759,172.93972264176847 226.21593665614017,173.1389079591751 225.8995835049657,173.3029429264501 225.47777930340138,173.42011076021797 224.68103803377826,173.4786946771023 224.13034921506804,173.5841457274938 221.79870932308134,174.1934184630875 220.74419881916808,174.5800723145227 220.38097853448645,174.76754084855213 219.86544006590785,175.10732756647934 219.70140509863202,175.18934505011728 219.3381848139504,175.02531008284143 219.1389994965446,174.8729918989428 218.36569179367586,173.80676461165316 218.20165682640004,173.43182754359518 218.09620577600853,172.90457229163854 217.9321708087327,172.5413520069569 217.88530367522557,172.13126458876897 217.85015332509562,172.00237997162392 217.7447022747041,171.90864570460963 217.45178269028406,171.83834500434807 217.33461485651534,171.79147787084094 217.22916380612386,171.67431003707307 217.11199597235682,171.4751247196673 217.0299784887181,171.27593940226149 216.98311135521092,171.0767540848557 216.92452743832658,170.2331456817246 216.8542267380667,169.76447434665232 216.8542267380667,169.21378552794212 216.80735960455957,168.97944986040557 216.59645750377658,168.53421209208685 215.99890155155921,167.5617190718115 215.81143301753065,167.39768410453567 215.6473980502548,167.29223305414502 214.85065678063165,166.95244633621695 214.47571971257284,166.76497780218838 214.03048194425412,166.47205821776745 213.66726165957252,166.1908554167246 213.4329259920368,165.93308618243447 213.2220238912538,165.61673303126 212.89395395670377,164.7731246281297 212.77678612293508,164.56222252734756 212.61275115565925,164.35132042656457 212.30811478786197,164.07011762552088 211.96832806993476,163.82406517460794 211.65197491876026,163.64831342395573 210.7380658153701,163.35539383953565 210.39827909744122,163.2147924390134 210.1756602132827,163.03904068836118 209.92960776236978,162.71097075381033 209.75385601171672,162.54693578653533Z"/>
  </g>
</svg>