<?xml version="1.0" encoding="UTF-8" standalone="no"?>
<svg viewBox="0 0 256 146.4386859824502" xmlns="http://www.w3.org/2000/svg">
  <style>
    g.zone {
      fill: lightgray;
      stroke-width: 2;
      stroke-linecap: square;
      stroke-linejoin: bevel;
      stroke-miterlimit: 3;
      stroke-opacity: 0.8;
      stroke: black;
      fill-opacity: 0.3;
    }
  </style>
  <g class="zone" id="zone">
    <path d="M105.6176290552962,121.60130585594698 104.23342175066311,121.52295449908029 102.58804325647931,121.52295449908029 96.39828606406832,122.12364823505206 87.96245664150362,122.30646806773976 86.10814119567408,122.43705366251696 84.01877167925005,122.72434197102568 81.64211385431543,123.19445011222025 78.92593348296158,123.87349520505872 67.564986737401,127.21648643133867 65.34503162619976,127.81718016731044 62.158743113649486,128.52234237910508 58.659049173639865,129.01856763925585 55.60334625586679,129.25362170985406 54.062436237504016,129.22750459089787 52.913283003469125,129.12303611507684 52.05141807794481,128.94021628238914 51.137318914508135,128.6006937359699 50.43215670271349,128.20893695164017 49.80534584778739,127.7388288104456 48.94348092226308,126.7463782901441 48.5256070189753,126.04121607834945 48.18608447255607,125.33605386655665 47.74209345031582,123.8212609671482 47.036931238524886,120.50438685982259 46.74964293001431,119.6164048153421 46.22730055090923,118.62395429504059 45.52213833911458,117.78820648847059 45.10426443583052,117.42256682309518 44.58192205672544,117.05692715772163 43.22383187104851,116.50846765966037 42.04856151805744,116.24729647010597 42.38808406447667,116.06447663742011 44.55580493776925,115.516017139357 44.97367884105332,115.30708018771496 45.20873291165154,115.09814323607293 45.39155274433739,114.81085492756421 45.57437257702695,114.31462966741346 45.60048969597942,113.94899000203804 45.52213833911458,113.47888186084347 45.60048969597942,113.26994490920143 46.77576004897049,112.25137726994375 47.036931238524886,111.88573760456833 47.35033666598794,111.25892674964223 47.794327688228186,110.7104672515791 47.95103040195785,110.44929606202656 48.00326463987022,110.00530503978632 47.74209345031582,109.16955723321634 47.480922260765134,108.72556621097608 47.11528259538972,108.38604366455685 45.33931850642873,107.52417873903069 43.720057131197414,106.6361966945502 43.32830034686953,106.37502550499765 43.01489491940648,106.0093858396241 42.28361558865566,104.9385839624559 40.61211997551568,100.73372781064978 40.011426239542054,99.66292593348157 39.07120995715291,98.40930422362567 38.418281983270624,96.99897980004009 38.15711079371623,96.34605182615596 36.77290348908312,93.94327688226701 36.51173229953244,93.60375433584778 35.96327280147118,93.18588043256372 35.20587635176417,92.45460110181475 34.39624566415222,91.27933074882553 33.82166904713477,90.75698836971858 33.01203835951911,89.76453784941708 32.04570495817378,89.05937563762429 30.948785962047545,88.71985309120507 29.486227300553313,88.14527647418761 28.12813711487639,87.36176290552814 26.7178126912871,86.31707814731612 24.602326055906882,84.2538257498464 23.923280963068418,83.67924913282896 23.061416037544106,83.1830238726782 21.285451948583116,82.53009589879592 20.763109569478036,82.26892470924153 20.37135278514644,81.9294021628223 19.61395633544314,80.96306876147696 19.24831667006773,80.25790654968232 18.804325647827483,78.61252805549853 18.125280554989022,76.81044684758136 17.890226484390805,75.21730259130622 17.864109365438335,74.3032034278714 17.759640889613607,73.88532952458547 17.446235462150558,73.31075290756803 16.532136298713883,72.39665374413322 16.29708222811938,71.92654560293678 16.19261375229465,71.24750051009832 16.349316466028032,70.17669863293197 16.349316466028032,69.86329320546707 15.774739849010585,68.3746174250148 15.826974086922949,68.1395633544166 15.983676800652619,67.93062640277455 17.62905529484012,66.54641909814146 17.78575800856979,66.28524790858891 17.759640889613607,66.05019383799069 17.498469700062923,65.86737400530484 15.826974086922949,65.37114874515223 14.390532544381191,64.74433789022613 13.476433380944513,64.2742297490297 11.622117935114979,63.12507651499667 10.890838604367865,62.75943684962125 10.133442154664568,62.47214854111253 9.558865537647122,62.34156294633719 8.723117731075279,62.2632115894705 6.111405835546159,62.2632115894705 5.223423791065664,62.080391756782795 4.361558865537639,61.81922056723025 1.384207304633106,60.19995919200079 0.6790450928384621,59.57314833707283 0.07835135686854587,58.737400530502846 0,58.24117527035209 0.15670271373338027,57.92776984288904 1.253621709855908,57.17037339318389 2.637829014489014,55.73393185064213 3.9436849622535743,54.92430116302647 5.32789226688668,53.27892266884268 5.745766170170746,52.88716588451294 7.051622117935306,52.07753519689728 8.618649255254264,51.424607223015 8.932054682717313,51.215670271372964 9.167108753315526,50.902264843908064 9.872270965110172,49.46582330136631 10.211793511529402,49.07406651703656 10.603550295857286,48.81289532748402 11.230361150787095,48.551724137929625 13.215262191390117,47.95103040195785 13.815955927363746,46.488471740459914 13.763721689451382,46.070597837175846 12.875739644970887,44.19016527239199 12.692919812285036,43.145480514179965 12.45786574168682,42.80595796776073 11.987757600490392,42.361966945520486 11.831054886757011,41.5262191389505 11.439298102429127,40.377065904917465 10.446847582127617,38.54886757804411 9.846153846153989,37.660885533563615 9.71556825137679,37.29524586819006 9.767802489289155,36.98184044072516 10.159559273617038,36.19832687206568 10.786370128546848,34.579065496836215 11.256478269743276,33.84778616608724 12.483982860643003,32.803101407875225 13.868190165272397,31.889002244438547 14.54723525811086,31.575596816975498 15.35686594572652,31.41889410324397 16.140379514385998,31.41889410324397 17.054478677822676,31.60171393593168 18.1513976739452,32.07182207712625 18.699857172006467,32.15017343399294 19.013262599469517,32.097939196082436 19.587839216486962,31.86288512548422 20.945929402163884,30.948785962047545 21.363803305447952,30.73984901040551 22.251785349928447,30.452560701896786 24.027749438889437,30.165272393388065 25.203019791880507,29.799632728014508 25.673127933076938,29.56457865741629 26.378290144867872,28.96388492144452 26.79616404815565,28.702713731890125 27.919200163234358,28.310956947560385 28.441542542339437,28.20648847173937 29.381758824728585,28.18037135278504 30.71373189145304,28.310956947560385 34.21342583146266,28.49377678024809 34.683533972659085,28.441542542337583 34.99693940012214,28.310956947560385 35.36257906549755,27.97143440114301 35.59763313609576,27.396857784125565 35.59763313609576,27.03121811875015 35.41481330340991,26.169353193225838 35.36257906549755,24.471740461129684 35.36257906549755,23.427055702917663 35.467047541318564,22.956947561721233 35.70210161191678,22.512956539480985 36.11997551520084,21.964497041419722 37.634768414611145,20.42358702305695 38.00040807998285,19.82289328708332 38.444399102223095,18.6476229340941 38.444399102223095,18.17751479289953 38.28769638849343,17.65517241379259 38.026525198939034,17.31564986737336 37.03407467863752,16.479902060803372 36.95572332177269,16.218730871250834 37.03407467863752,15.85309120587542 37.1907773923709,15.565802897366696 38.15711079371623,14.338298306466971 39.07120995715291,13.34584778616546 40.7165884513367,13.189145072433936 41.70903897163821,13.189145072433936 42.62313813507489,13.450316261986476 43.4850030605992,13.789838808405708 43.82452560701843,13.789838808405708 44.32075086717104,13.685370332584691 46.09671495613203,15.252397469903649 46.54070597837228,15.539685778412371 46.98469700061253,15.696388492143896 49.49194042032434,16.009793919606945 51.92083248316761,16.035911038563125 52.756580289735744,16.19261375229465 53.27892266884454,16.427667822892865 53.905733523770635,16.819424607222604 56.15180575392805,18.543154458273087 56.856967965722696,18.908794123648498 57.53601305856116,19.143848194244857 57.92776984288904,19.16996531320104 58.52846357886267,19.013262599469517 60.043256478269264,18.17751479289953 60.69618445215154,17.916343603345133 61.192409712304155,17.811875127524115 62.210977351561844,17.759640889613607 63.151193633950996,18.04692919812233 63.80412160783698,18.36033462558538 65.08386043664537,19.16996531320104 65.76290552948383,19.770659049172814 66.15466231381542,20.29300142827975 66.62477045500813,21.102632115893556 66.9381758824749,21.833911446642524 67.64333809426583,24.39338910426485 67.87839216486405,25.020199959190947 68.34850030606047,25.751479289939915 68.79249132830073,26.012650479494315 69.26259946949715,26.11711895531533 71.45643746174221,26.169353193225838 71.9787798408473,26.091001836359148 74.04203223831885,25.43807386247687 74.66884309324496,25.33360538665585 75.06059987757655,25.35972250561018 77.12385227504441,25.96041624158195 79.50051009997902,26.11711895531533 81.72046521118027,26.561109977555578 82.79126708835032,27.03121811875015 84.35829422566928,28.20648847173937 85.03733931850773,28.546011018158598 85.7163844113462,28.546011018158598 87.12670883493178,28.02366863905352 87.64905121403686,27.919200163230645 88.04080799836845,27.945317282186828 88.85043868598412,28.10201999591835 90.18241175270485,28.59824525606911 90.88757396449579,28.781065088756815 91.90614160375348,28.937767802488338 93.44705162211626,29.042236278309357 93.13364619465321,28.28483982860606 92.92470924301118,27.449092022036073 92.84635788614634,26.63946133442041 92.95082636196736,26.091001836359148 93.34258314629524,25.464190981431194 94.17833095286709,24.523974699040192 94.85737604570555,23.975515200978926 95.53642113854401,23.60987553560537 96.37216894511214,23.40093858396148 97.12956539481915,23.40093858396148 98.1742501530293,23.557641297693007 100.00244847990267,24.027749438889437 100.78596204856214,24.00163231993511 101.28218730871104,23.87104672515791 102.17016935319154,23.5054070597825 102.90144868394236,22.930830442766908 103.34543970618262,22.695776372168694 105.27810650887697,22.147316874107428 107.96816976127465,20.94592940216203 108.43827790246736,20.867578045297197 109.61354825545844,20.972046521118212 110.73658437053714,20.972046521118212 111.78126912874731,20.919812283207705 112.77371964905254,20.789226688430507 113.8184044072627,20.55417261783229 115.35931442562547,20.057947357681535 115.90777392369044,19.849010406039504 116.43011630279553,19.535604978574597 116.8479902060796,19.03937971842384 117.00469291981298,18.69985717200461 117.08304427667781,18.255866149764362 117.08304427667781,17.916343603345133 116.76963884921476,16.92389308304362 116.7174046113024,16.558253417670063 116.69128749234993,16.140379514384144 116.82187308712341,15.826974086921094 117.03081003876916,15.618037135277206 117.31809834727602,15.461334421545681 118.57172005713193,14.965109161394926 119.22464803101421,14.599469496021367 119.69475617221065,14.129361354824939 119.8775760048965,13.737604570495199 119.92981024280886,13.34584778616546 119.90369312385268,12.954091001835721 119.30299938787904,11.543766578248288 119.09406243623701,10.864721485411682 119.09406243623701,10.394613344215253 119.32911650683523,9.793919608243481 119.64252193429827,9.402162823913741 120.47826974087012,8.64476637420859 121.34013466639443,7.573964497040388 121.7580085696785,7.182207712710649 122.59375637625034,6.816568047337092 124.81371148745158,6.268108549275827 125.38828810446903,5.9547031218109225 126.01509895939512,4.857784125688395 126.69414405223358,3.9698020812079005 127.08590083656517,3.578045296878161 127.84329728626848,2.9773515609063894 128.07835135686668,2.6900632523976666 128.2089369516439,2.2721893491117453 128.15670271373153,1.3580901856769243 128.23505407059636,0.8879820444804948 128.5745766170156,0.2611711895525409 128.940216282391,0 130.48112630075377,0.3656396653735573 132.77943276882357,0.7312793307489702 133.7196490512127,0.8096306876138046 135.4956131401737,0.7312793307489702 136.2791267088332,0.8879820444804948 137.24546011018222,1.3319730667207423 138.60355029585915,2.2983064680679273 139.83105488675886,3.0557029177712236 141.0585594776586,4.152621913895607 141.34584778616545,4.544378698225346 142.36441542542315,6.529279738828369 143.14792899408263,7.4694960212193715 143.5658028973667,8.122423995103507 143.77473984900874,8.670883493164771 143.85309120587726,9.219342991226036 143.87920832482973,10.316261987348563 143.95755968169829,11.09977555600804 143.87920832482973,11.569883697204471 143.51356865945803,12.248928790042932 142.9389920424406,13.032442358702411 142.547235258109,13.659253213630365 142.02489287900391,14.782289328707218 141.65925321362852,16.114262395429815 141.5547847378075,17.02836155886464 141.71148745154088,18.56927157722927 142.20771271168977,19.065496837380024 142.9389920424406,19.666190573351795 144.66272189348922,20.580289736788473 146.0991634360347,21.572740257089983 146.96102836155902,21.886145684553032 147.7184248112623,21.99061416037405 148.68475821260765,21.93837992246354 149.78167720873387,21.677208732911 151.5054070597825,21.102632115893556 152.18445215262096,20.763109569474324 153.46419098143306,19.90124464395001 155.5535604978571,18.934911242602826 157.06835339726368,17.864109365434626 157.93021832279172,17.367884105283867 158.40032646398814,17.132830034685654 159.3144256274211,16.871658845133112 160.0718220771281,16.741073250355914 161.35156090593648,16.6366047745349 163.20587635176602,16.218730871250834 164.27667822893235,16.088145276473636 166.2615792695354,16.088145276473636 169.02999387879788,16.32319934707185 171.30218322791148,16.297082228115666 171.87675984492893,16.401550703936685 172.63415629463225,16.688839012445406 173.65272393388992,17.341766986329542 174.09671495613017,17.550703937971576 175.4548051418071,18.673740053050285 176.02938175882454,19.352785145888745 176.63007549479445,20.29300142827975 176.91736380330505,20.580289736788473 179.00673331972908,21.70332585186718 181.09610283615683,23.165884513363267 182.24525607018802,23.79269536829122 185.45766170169446,25.17690267292247 188.8267700469269,26.29993878800118 190.62885125484405,27.03121811875015 191.62130177514558,27.16180371352735 194.15466231381356,27.03121811875015 196.1395633544166,26.587227096509903 197.9938788002424,26.378290144867872 199.58702305651755,26.064884717404823 203.13895123443953,25.229136910834836 204.02693327892,24.96796572128044 205.67231177310754,24.210569271577143 207.3438073862475,23.348704346050972 207.57886145684571,23.06141603754225 207.50051009997716,22.695776372168694 207.52662721893336,22.539073658437168 207.94450112221742,22.19955111201794 209.79881656804696,21.33768618649177 212.07100591715684,20.42358702305695 212.7761681289515,20.005713119771027 213.08957355641454,19.718424811262302 213.32462762701275,19.378902264843074 213.71638441134434,18.308100387674873 213.95143848194255,17.864109365434626 215.23117731075095,16.375433584982357 216.61538461538404,14.495001020200352 217.68618649255038,12.510099979595473 217.7906549683714,12.039991838399043 217.7906549683714,11.64823505407116 217.5556008977732,11.204244031829058 216.8243215670261,10.36849622525907 216.7982044480699,10.10732503570653 216.98102428075947,9.924505203018823 219.72332177106577,9.402162823913741 221.26423178942855,9.24546011018036 222.04774535808804,9.297694348092724 223.61477249540698,9.767802489287298 224.94674556212772,10.081207916752204 225.44297082228033,10.159559273617038 226.01754743929777,10.10732503570653 228.1591511936342,9.663334013466283 230.01346663946,9.741685370332972 230.19628647214586,9.663334013466283 230.19628647214586,9.532748418689085 231.08426851662637,9.97673944092933 231.97225056110685,10.577433176902959 232.70352989185767,11.204244031829058 233.22587227096275,11.778820648846503 233.4348092226048,12.196694552132424 233.61762905529434,12.666802693326998 233.77433176902403,14.259946949602137 233.90491736380122,14.834523566619582 234.16608855335562,15.382983064680847 234.58396245663968,15.905325443785928 235.0540705978361,16.297082228115666 235.62864721485357,16.66272189349108 236.98673740053047,17.289532748419035 237.4829626606794,17.5768210569259 240.7476025300945,20.501938379921782 241.55723321771015,21.102632115893556 243.0197918792081,21.912262803509215 244.35176494592884,23.19200163231945 245.73597225055823,24.106100795756127 247.90369312385081,24.96796572128044 251.03774739848873,26.50887573964507 251.79514384819203,26.69169557233092 252.52642317894285,26.77004692919761 253.25770250968998,26.69169557233092 253.91063048357225,26.534992858599395 255.32095490716154,27.736380330544794 255.92164864313145,28.467659661293766 255.9738828810438,28.6765966129358 256,29.01611915935503 255.8694144052228,29.27729034890757 255.45154050193503,29.87798408487934 255.26872066924918,30.34809222607577 255.29483778820534,31.183840032645758 255.16425219342815,32.019587839215745 255.00754947969477,32.33299326667879 254.56355845745452,32.803101407875225 254.2240359110353,33.4560293817575 253.67557641297404,34.23954295041698 253.5972250561092,34.50071413997138 253.51887369924435,35.4148133034062 252.89206284431455,36.77290348908312 252.4480718220743,37.21689451132337 251.79514384819203,37.713119771474126 250.12364823505206,38.574984697000296 249.02672923892953,39.593552336257986 247.95592736175948,40.42930014282798 246.70230565190727,41.082228116710255 245.97102632115644,41.55233625790668 244.7957559681691,42.5447867782082 242.54968373801168,44.08569679657097 241.740053050396,44.81697612731994 241.32217914711194,45.3132013874707 240.59089981636112,46.3840032646389 239.67680065292814,47.846561926136836 239.3633952254614,48.78677820852784 238.9977555600897,50.6672107733117 238.9977555600897,51.398490104058816 239.20669251173172,52.3125892674955 239.5984492960596,53.20057131197599 240.04244031829984,53.93185064272496 240.40807998367526,54.3236074270547 241.45276474188913,55.21158947153519 242.21016119159245,55.968985921240346 244.87410732503392,59.390328504385124 246.07549479697747,60.382779024688496 247.45970210161056,61.92368904305127 249.49683738012595,63.464599061415896 250.12364823505206,64.11752703529818 251.24668435013078,66.3113650275451 251.76902672923586,67.82615792695354 251.9518465619254,68.74025709038835 251.82126096714822,69.445419302183 251.4556213017728,70.0722301571091 251.06386451744493,70.51622117934934 250.09753111609587,71.24750051009832 249.10508059579436,72.13548255457881 247.38135074474573,73.3629871454804 247.09406243623516,73.67639257294344 246.6761885329511,74.3554376657819 246.36278310548803,74.66884309324496 245.89267496429161,74.90389716384317 244.6651703733919,75.08671699653088 243.96000816159724,75.40012242399392 243.41154866353597,75.79187920832366 242.47133238114682,76.83656396653569 241.92287288308185,77.33278922668644 241.34829626606813,77.72454601101619 240.2252601509894,78.32523974698981 239.9902060803912,78.61252805549853 239.67680065292814,79.44827586206851 238.89328708426868,80.88471740461027 238.2142419914302,82.71291573148177 237.79636808814243,83.3658437053659 237.24790859008118,83.96653744133768 236.20322383187101,84.59334829626563 235.00183635992374,85.58579881656715 234.27055702917664,86.02978983880739 232.2856559885736,86.7871862885107 230.14405223423722,87.72740257090355 227.06223219750794,88.90267292389277 226.04366455825024,89.37278106508734 225.07733115690493,89.94735768210478 222.98796164048088,91.30544786778171 220.42848398286043,93.21199755151804 219.59273617628858,93.99551112017753 218.4435829422537,95.43195266272113 218.077943276882,96.34605182615596 217.92124056314861,97.20791675168212 217.94735768210478,97.54743929810135 218.23464599061165,98.22648439093982 218.3129973474802,98.67047541318007 218.20852887165918,99.32340338706234 217.86900632523995,100.0807998367675 217.58171801672938,100.62925933482876 217.34666394613117,100.8904305243813 216.8243215670261,101.36053866557774 216.11915935523143,101.80452968781798 215.93633952254558,102.35298918587924 215.75351968985973,102.56192613752128 213.97755560089504,103.89389920424202 213.6380330544758,104.20730463170692 213.3768618649251,104.67741277290149 212.43664558253226,107.28912466843433 211.94042032238335,108.09875535604813 211.80983472760616,108.80391756784277 211.80983472760616,111.67680065292629 211.7314833707376,112.8781881248717 211.54866353805176,113.58335033666448 210.63456437461508,115.67271985309037 210.45174454192923,116.5868190165252 210.47786166088542,117.7359722505601 210.63456437461508,118.41501734339855 210.84350132625713,118.91124260354931 211.3919608243221,119.82534176698412 212.93287084268488,121.810242807589 213.29851050805658,122.43705366251696 213.42909610283377,122.8288104468467 213.42909610283377,123.03774739848873 213.29851050805658,123.42950418281848 212.43664558253226,124.6570087737182 212.04488879820437,125.30993674760047 211.78371760864997,126.19791879208097 211.78371760864997,126.7986125280546 211.94042032238335,127.11201795551764 212.2538257498464,127.45154050193688 212.82840236686386,127.81718016731044 214.21260967149325,128.52234237910508 214.57824933686865,128.8096306876138 214.89165476433172,129.27973882880838 215.1789430728423,130.01101815955735 215.38788002448433,131.05570291776937 215.23117731075095,133.01448683941805 214.9961232401527,133.3540093858373 214.5521322179125,133.6674148133022 212.3844113446236,134.5031626198722 211.67924913282897,134.86880228524575 211.23525811058872,135.23444195062115 209.95551928177662,136.4880636604752 208.9630687614751,138.13344215466086 207.60497857579819,139.67435217302364 206.03795143847924,141.71148745153903 204.94103244235671,143.33074882676848 204.62762701489365,144.03591103856127 204.47092430116027,144.71495613139973 204.3142215874306,145.94246072229947 204.39257294429544,146.4386859824502 201.5719240971206,145.94246072229947 198.96021220159145,145.34176698632768 195.06876147725023,144.27096510915948 186.08447255662057,141.5809018567618 183.81228320750697,141.03244235870056 181.67067945317055,140.64068557437082 178.92838196286425,140.32728014690775 175.2197510712089,140.14446031422005 171.45888594164487,140.14446031422005 167.1234441950597,140.4056315037726 165.55641705774445,140.45786574168312 163.7543358498273,140.3533972658621 162.00448887981878,140.03999183839903 160.2024076719016,139.49153234033778 158.4264435829406,138.7080187716783 157.1728218730847,138.02897367883983 152.94184860232426,135.4956131401737 150.09508263619693,133.98082024076524 148.6064068557428,133.38012650479348 146.93491124260282,132.93613548255323 145.6029381758821,132.7794327688217 144.0359110385631,132.75331564986553 138.2901448683924,133.3540093858373 136.07018975719114,133.432360742704 133.8502346459899,133.30177514792678 131.78698224852204,132.93613548255323 130.4550091817976,132.54437869822348 129.01856763925585,132.04815343807275 124.0301979187921,129.93266680269252 122.30646806773976,129.25362170985406 117.3442154662322,127.7388288104456 115.72495409100088,127.13813507447384 114.62803509487836,126.64190981432122 113.53111609875583,125.98898184043894 110.00530503978632,123.61232401550618 108.75168332993412,122.8288104468467 107.10630483574663,122.07141399714155 105.6176290552962,121.60130585594698Z"/>
  </g>
</svg>