<?xml version="1.0" encoding="UTF-8" standalone="no"?>
<svg viewBox="0 0 256 95.55829324221038" xmlns="http://www.w3.org/2000/svg">
  <style>
    g.zone {
      fill: lightgray;
      stroke-width: 2;
      stroke-linecap: square;
      stroke-linejoin: bevel;
      stroke-miterlimit: 3;
      stroke-opacity: 0.8;
      stroke: black;
      fill-opacity: 0.3;
    }
  </style>
  <g class="zone" id="zone">
    <path d="M238.49287352187508,52.245132862731666 238.63099680769827,52.85517737511851 238.8151611887958,53.37313969695658 239.09140776044376,53.94865338788722 239.88561665392731,55.44498898430885 240.08129130884387,55.89388966323452 240.21941459466865,56.319769794523815 240.3460276066728,56.872262937818086 240.4035789757662,57.42475608111153 240.49566116631496,59.32395126118445 240.57623308304474,60.27930398813 240.8064385594183,61.69506766782105 241.03664403579023,62.6849512162228 241.33591115507457,63.651814216987354 241.65819882199526,64.51508475338332 242.038037858011,65.28627309923132 242.57902072748624,66.1725641832653 243.98327413335747,68.07175936333822 244.60482891956414,69.06164291173997 245.15732206285676,70.17813947214668 246.04361314689075,72.4111325929593 246.45798300436184,73.32044422463048 247.0104761476561,74.3448585944876 247.64354120768016,75.28870104761496 248.55285283935214,76.46274897711508 249.64632885212004,77.68283800188877 250.6131918528854,78.64970100265332 253.3065959264427,81.18196124275028 254.20439728429568,82.09127287442143 254.8144417966817,82.75886875590167 255.25183220179082,83.29985162537693 255.58563014253053,83.7947933995778 255.82734589272147,84.26671462614148 255.95395890472562,84.65806393597458 256,84.93431050762172 256,85.25659817454324 255.93093835708925,85.54435502000855 255.7928150712661,85.7745604963813 255.58563014253053,85.99325569893504 255.35542466615695,86.1313789847582 255.07917809451064,86.22346117530698 254.80293152286433,86.26950227058136 254.36554111775683,86.28101254440037 253.95117126028575,86.23497144912598 253.4332089384485,86.1313789847582 252.8692055213352,85.93570432984166 252.05197608021365,85.55586529382674 250.6247021267044,84.70410503124897 250.19882199541428,84.47389955487623 249.63481857830266,84.25520435232248 249.0708151611894,84.14010161413651 248.6449350299009,84.14010161413651 248.1615035295174,84.20916325704809 247.8046850411413,84.31275572141587 247.36729463603385,84.49692010251341 247.04500696911148,84.68108448361177 246.63063711164202,84.9688413290771 246.2853288970833,85.29112899599862 245.96304123016097,85.65945775819452 245.68679465851466,86.11986871094001 245.5256508250535,86.5342385684103 245.4680994559601,87.00615979497398 245.5256508250535,87.43203992626246 245.69830493233204,87.85792005755177 245.986061777799,88.29531046265924 247.3903151836702,89.91825907108503 247.96582887460085,90.66642686929585 248.29962681534218,91.1958994649521 248.65644530371827,91.90953644170753 248.82909941099845,92.3814576682704 248.94420214918523,92.84186862101589 249.00175351827698,93.2101973832118 249.00175351827698,93.52097477631432 248.9672226968216,93.82024189559864 248.87514050627283,94.14252956252017 248.73701722044967,94.3957555865301 248.5413425655331,94.62596106290204 248.31113708915956,94.81012544400039 248.06942133896862,94.93673845600536 247.40182545748922,95.1669439323773 246.50402409963624,95.31657749201945 245.56018164650888,95.37412886111285 234.17652083989037,95.37412886111285 206.85113079447936,95.512252146936 201.6830178499177,95.4892315992988 195.45595971404188,95.50074187311782 191.63454880625966,95.55829324221038 191.0820556629654,95.5352726945732 190.41445978148434,95.45470077784343 189.78139472146032,95.28204667056407 189.33249404253382,95.05184119419133 189.0447371970685,94.79861517018139 188.86057281597095,94.53387887235326 188.7339598039668,94.23461175306893 188.38865158940808,92.79582752574152 188.11240501776015,92.07068027516789 187.89370981520722,91.66782069151579 187.62897351737828,91.2879816555017 187.31819612427495,90.91965289330578 186.88080571916745,90.49377276201649 186.3973742187856,90.12544399982059 185.84488107549132,89.75711523762467 185.08520300346314,89.33123510633538 183.00184344229186,88.22624881974767 182.31122701317443,87.81187896227738 181.70118250078679,87.38599883098809 178.25961062901865,84.80769749561675 177.4423811878971,84.16312216177371 176.68270311586727,83.47250573265629 176.22229216312178,82.95454341081822 175.7618812103779,82.2524167078826 175.38204217436382,81.4466975405784 175.09428532889686,80.59493727800063 174.93314149543733,79.84676947978981 174.89861067398033,79.34031743177074 174.92163122161833,78.7187626455649 175.19787779326464,76.79654691785478 175.22089834090266,76.03686884582578 175.12881615035388,75.16208803561 174.78350793579517,73.42403668899826 174.40366889977943,71.96223191403281 174.12742232813312,71.14500247291042 173.7936243873934,70.37381412706324 173.16055932736938,69.22278674520031 171.84838811204528,67.19697855312324 170.52470662290384,65.28627309923132 169.0859223955756,63.28348545479063 168.32624432354743,62.28209163257069 167.65864844206638,61.45335191763011 167.1176655725911,60.83179713142427 166.42704914347368,60.10664988085065 165.69039161908188,59.427543725552226 165.17242929724463,58.99015332044474 164.44728204667018,58.44917045096948 163.80270671282878,58.023290319680186 163.04302864079895,57.608920462209895 162.26033002113277,57.252101973832175 161.2128951036376,56.837732116361884 160.34962456724165,56.53846499707756 158.80724787554564,56.055033496695685 157.1037273503901,55.61764309158821 156.01025133762056,55.39894788903364 154.81318286048327,55.23780405557329 153.32835753788063,55.15723213884271 151.99316577492016,55.19176296029891 150.93422058360767,55.318375972303876 149.78319320174475,55.571601996313 149.10408704644632,55.79029719886756 148.33289870059912,56.101074591970075 147.74587473584785,56.42336225889159 147.20489186637258,56.780180747268496 146.8480733779965,57.090958140371825 146.47974461579977,57.45928690256773 144.8222651859186,59.40452317791503 143.94748437570365,60.27930398813 143.40650150622676,60.72820466705649 142.7734364462027,61.18861561980117 141.95620700508115,61.70657794163923 141.01236455195377,62.23605053729631 139.88435771772888,62.78854368059057 138.85994334787173,63.24895463333525 138.00818308529315,63.57124230025677 137.17944337035257,63.824468324265894 136.1780495481318,64.05467380063864 135.41837147610363,64.15826626500642 134.57812148734405,64.2158176340998 133.6457893080357,64.19279708646262 132.37965918798596,64.06618407445765 131.38977563958423,63.88201969335928 130.53801537700727,63.68634503844274 128.5237174587484,63.14536216896747 124.56418326514138,61.95980396564917 123.56278944292063,61.71808821545824 122.61894698979327,61.54543410817888 121.41036823883859,61.407310822355726 119.7759093565938,61.32673890562514 118.11842992671264,61.32673890562514 116.2077244728199,61.44184164381111 115.51710804370411,61.4648621914483 114.72289915021891,61.418821096173914 113.95171080437008,61.28069781035076 113.15750191088489,61.03898206015982 112.37480329121868,60.69367384560111 111.82231014792443,60.39440672631678 109.9576457893077,59.277910165910065 108.70302594307864,58.61031428442983 108.0469403354166,58.345577986601704 107.31028281102479,58.14990333168515 106.72325884627514,58.080841688773575 106.03264241715772,58.06933141495457 103.50038217705995,58.3340677127827 102.52200890247721,58.3685985342389 101.54363562789446,58.3110471651455 100.63432399622411,58.14990333168515 100.04730003147283,57.977249224405796 99.41423497144879,57.758554021852056 97.21577267209237,56.826221842543696 96.45609460006256,56.52695472325937 94.26914257452513,55.85935884177914 93.5555055977697,55.59462254395101 93.07207409738783,55.375927341396455 92.58864259700596,55.08817049593113 91.03475563149094,54.04073557843681 90.4822624881983,53.695427363878096 89.75711523762386,53.36162942313757 89.10102962996345,53.15444449440283 88.4909851175758,53.11991367294664 87.76583786700299,53.11991367294664 85.03790297198867,53.38464997077477 81.32008452857424,53.46522188750535 80.50285508745104,53.52277325659874 79.83525920597162,53.603345173328506 78.79933456229548,53.79901982824506 77.62528663279619,54.075266399892186 76.05988939346216,54.51265680499967 72.33056067622873,55.629153365406395 71.35218740164598,55.89388966323452 70.23569084123844,56.14711568724446 68.81992716154821,56.37732116361721 67.58832786295552,56.50393417562218 66.65599568364716,56.52695472325937 66.12652308799092,56.49242390180317 65.74668405197681,56.44638280652879 65.21721145631894,56.29674924688662 64.77982105121144,56.066543770513874 64.42300256283373,55.77878692504856 64.05467380063864,55.329886246122065 63.83597859808408,54.904006114833585 63.67483476462455,54.46661570972528 63.36405737152121,52.993300660941664 63.22593408569806,52.4868486129226 63.04176970459888,52.0609684816333 62.77703340677157,51.64659862416301 62.43172519221286,51.31280068342249 62.05188615619876,51.08259520705056 61.476372465266486,50.87541027831501 61.038982060159,50.80634863540343 60.624612202689526,50.86390000449682 60.164201249944036,50.99051301650097 59.86493413065971,51.105615754687754 59.531136189920005,51.27826986196711 58.921091677532345,51.738680814711785 57.90818758149422,52.728564363113534 57.43626635492972,53.13142394676564 56.78018074726931,53.545793804235934 56.30825952070481,53.75297873297067 55.92842048469072,53.89110201879464 55.19176296029891,54.08677667371119 54.4551054359071,54.213389685716166 53.64938626860289,54.30547187626493 51.39337260015307,54.48963625736248 49.735893170271915,54.75437255519142 47.61800278764525,55.19176296029891 46.6166089654245,55.433478710489844 45.960523357762455,55.65217391304358 45.33896857155742,55.939930758509725 45.051211726092106,56.13560541342627 44.76345488062515,56.4003417112544 44.52173913043421,56.72262937817592 44.39512611843006,56.99887594982305 44.28002338024328,57.51683827166112 44.2570028326069,58.79447866552819 44.187941189694506,59.41603345173322 44.09585899914573,59.77285194011094 43.95773571332258,60.17571152376304 43.77357133222503,60.56706083359614 43.57789667730849,60.900858774335845 43.27862955802416,61.32673890562514 43.02540353401422,61.626006024909465 42.71462614091089,61.94829369183099 42.34629737871416,62.27058135875251 41.97796861651908,62.53531765658063 41.60963985432235,62.765523132952566 41.17224944921487,62.98421833550712 40.700328222652004,63.179892990423674 40.05575288880897,63.38707791915841 39.27305426914277,63.548221752619575 38.49035564947658,63.64030394316835 37.65010566071699,63.66332449080554 36.729283755226,63.62879366934934 36.10772896902097,63.58275257407496 33.886246122026535,63.294995728609635 33.01146531181157,63.21442381187905 32.1366845015966,63.16838271660467 30.375612607346024,63.133851895149284 29.719526999685616,63.09932107369309 29.19005440402936,63.030259430781506 28.68360235600948,62.926666966413734 28.32678386763176,62.823074502045955 27.716739355244105,62.54682793039882 27.394451688323404,62.32813272784508 27.175756485768844,62.13245807292853 26.980081830852292,61.91376287037479 26.76138662829937,61.57996492963508 26.519670878108435,61.050492333978006 26.393057866102648,60.56706083359614 26.335506497009256,60.24477316667462 26.266444854098495,59.57717728519439 26.197383211186096,58.299536891327314 26.128321568275336,57.80459511712644 25.967177734814168,57.29814306910656 25.783013353716626,56.987365676004046 25.63337979407446,56.7916910210875 25.288071579515748,56.457893080347795 24.896722269682652,56.17013623488165 24.286677757294992,55.82482802032294 22.456544220133654,54.89249584101458 21.90405107683939,54.535677352637684 21.432129850276525,54.13281776898558 21.006249718988048,53.68391709005909 20.61490040915495,53.177465042040026 19.279708646194486,51.11712602850594 18.78476687199361,50.42650959938852 18.209253181061335,49.73589317027109 17.5761881210373,49.10282811024706 17.092756620655432,48.68845825277677 16.60932512027356,48.33163976439905 15.52735938132304,47.64102333528163 14.606537475832049,47.146081561080756 12.465626545569016,46.12166719122362 11.222516973157326,45.48860213119959 9.657119733824933,44.602311047165614 7.792455375208215,43.4627939391217 6.526325255158514,42.63405422418112 5.582482802032785,41.95494806888188 4.845825277640975,41.33339328267604 4.0976574794301595,40.60824603210323 3.5912054314102786,40.00971179353458 3.130794478664784,39.39966728114774 2.7509554426506915,38.7896227687609 2.44017804954736,38.22561935164845 2.1639314779010443,37.558023470168216 1.9682568229844954,36.947978957780556 1.8186232633423323,36.29189335011933 1.5538869655133867,34.72649611078694 1.4618047749646148,34.33514680095303 1.300660941505082,33.89775639584554 1.1164965604059027,33.494896812194256 0.8517602625785927,33.06901668090496 0.5064520480198806,32.66615709725286 0,32.17121532305198 0.1266130120041523,31.52663998920894 0.2992671192843262,31.008677667370875 0.4949417742008752,30.651859178993973 0.9553527269463699,29.926711928420353 1.2431095724116907,29.28213659457813 1.668989703700169,28.476417427273926 2.129400656445664,27.509554426510185 2.256013668449816,27.290859223955625 2.4171575019109848,27.129715390495274 2.589811609189523,27.01461265230931 2.8430376331994633,26.91102018794153 3.3494896812193438,26.807427723573756 3.867452003056594,26.78440717593656 4.178229396159925,26.830448271210948 5.029989658738518,27.026122926127496 5.501910885301383,27.072164021401882 7.493188255923889,26.830448271210948 7.953599208667748,26.818937997392762 8.310417697045466,26.88799964030434 8.713277280697568,27.0376331999465 9.093116316711662,27.313879771592816 10.2096128771192,28.533968796367315 10.474349174946509,28.787194820377255 10.739085472775455,28.994379749111992 10.957780675330016,29.120992761116963 11.17647587788294,29.201564677847546 11.625376556809428,29.31666741603351 11.959174497549135,29.362708511307897 12.68432174812194,29.328177689852517 13.582123105974919,29.15552358257316 14.525965559102284,29.02891057056819 15.11298952385193,28.856256463288833 16.367609370082626,28.372824962906147 16.74744840609672,28.29225304617638 17.28843127557198,28.234701677082988 18.577581943258057,28.131109212715213 19.26819837237548,28.108088665078018 19.65954768220858,28.14261948653422 20.64943123061033,28.32678386763176 22.168787374668334,28.39584551054416 22.50258531540804,28.372824962906147 22.870914077604766,28.246211950901994 23.4349174947164,27.935434557798665 23.78022570927511,27.7858009981565 24.52839350748593,27.567105795602757 25.564318151162066,27.164246211951472 26.54269142574481,26.934040735578726 27.394451688323404,26.600242794838202 28.188660581808605,26.462119509015043 29.09797221347895,26.485140056652238 29.45479070185667,26.427588687558845 29.684996178228598,26.300975675554692 30.099366035699706,25.932646913358788 30.364102333528653,25.73697225844142 31.43455779866017,25.172968841328967 31.97554066813543,24.931253091138032 33.26469133582151,24.505372959848735 33.72510228856537,24.252146935839612 34.23155433658525,23.84928735218751 34.46175981295881,23.71116406636435 35.54372555190933,23.29679420889406 35.79695157591764,23.101119553976694 35.98111595701682,22.813362708511374 36.10772896902097,22.398992851041083 36.23434198102676,21.70837642192366 36.32642417157553,21.501191493188102 36.52209882649208,21.34004765972775 37.33932826761366,20.96020862371284 37.834270041814534,20.660941504428518 38.110516613460845,20.350164111326002 38.409783732745176,19.820691515669747 38.51337619711295,19.717099051301968 38.63998920911874,19.64803740839039 38.87019468549067,19.613506586934193 39.180972078594,19.65954768220858 40.23991726990651,19.981835349130098 41.56359875904797,20.26959219459542 42.61103367654311,20.568859313879745 43.16352681983738,20.603390135335943 43.92320489186556,20.557349040061556 44.68288296389538,20.361674385145008 45.31594802391942,20.085427813497876 45.67276651229713,19.97032507531191 46.07562609594924,19.901263432399514 46.88134526325181,19.832201789487936 47.04248909671298,19.774650420394543 47.203632930174145,19.613506586934193 47.30722539454192,19.164605908007704 47.38779731127169,18.94591070545396 47.75612607346841,18.312845645429928 47.836697990198175,18.232273728699344 48.04388291893373,18.42794838361589 48.14747538330151,18.577581943258057 48.22804730003128,19.037992896002734 48.63090688368338,19.91277370621852 48.63090688368338,20.085427813497876 48.37768085967344,20.695472325884715 48.65392743131975,20.845105885526877 48.86111236005531,20.91416752843846 49.04527674115449,20.948698349894656 49.402095229530566,20.91416752843846 49.609280158266124,20.83359561170787 50.184793849196765,20.499797670968167 50.46104042084472,20.373184658963197 51.46243424306384,19.993345622949104 51.62357807652501,19.958814801492906 51.75019108853079,19.958814801492906 51.85378355289857,20.027876444404484 51.96888629108372,20.212040825502847 52.30268423182342,21.282496290634363 52.4062766961912,21.489681219369917 52.61346162492676,21.719886695742662 52.93574929184909,21.86952025538401 53.16595476822102,21.915561350659214 53.453711613686345,21.915561350659214 55.1802526864799,21.777438064835238 56.112584865788264,21.742907243379857 57.056427318915624,21.881030529203013 58.241985522233925,21.950092172114594 59.22035879681667,21.961602445933597 59.531136189920005,22.019153815026172 59.77285194011094,22.145766827031142 60.48648891686474,22.640708601232017 60.91236904815485,22.84789352996757 61.510903286723504,23.04356818488412 63.12234162133028,23.45793804235441 63.46764983588899,23.59606132817757 63.78993750280969,23.757205161638737 64.1927970864618,24.079492828560255 64.83737242030483,24.793129805314873 65.55100939706027,25.39166404388271 65.7927251472512,25.690931163167036 66.05746144507852,26.15134211591253 66.25313609999506,26.38154759228446 66.47183130254963,26.50816060428943 67.24301964839681,26.79591744975475 68.04873881570103,27.233307854863053 68.83143743536722,27.55559552178457 69.38393057866149,27.946944831617667 69.56809495975902,28.01600647452925 69.77527988849458,28.03902702216644 70.465896317612,27.969965379254862 71.08745110381703,27.866372914887084 71.35218740164598,27.774290724338314 72.48019423587088,27.290859223955625 73.02117710534615,27.152735938132466 73.44705723663463,27.095184569039077 73.83840654646772,27.11820511667627 74.93188255923725,27.359920866868023 75.62249898835468,27.452003057416793 76.47425925093327,27.440492783597787 76.86560856076636,27.46351333123498 77.45263252551601,27.62465716469615 77.76340991861935,27.65918798615153 78.2928825142756,27.613146890877143 79.65109482487244,27.33690031923083 80.14603659907331,27.30236949777463 80.52587563508904,27.382941414505215 80.82514275437337,27.532574974147376 80.96326604019653,27.647677712333344 81.33159480239162,28.119598938897024 81.66539274313295,28.36131468908796 81.89559821950489,28.45339687963673 82.1603345173322,28.52245852254831 82.60923519625868,28.545479070185504 82.9775639584554,28.48792770109293 83.18474888719096,28.39584551054416 83.3574029944695,28.26923249853919 83.7372420304836,27.900903736343285 84.26671462614148,27.532574974147376 84.6695742097936,27.348410593049017 85.22206735308622,27.152735938132466 85.91268378220364,27.0376331999465 87.12126253315995,26.91102018794153 88.15718717683609,26.715345533024983 89.56144058270732,26.588732521020013 89.95278989254041,26.6347736162944 90.66642686929585,26.91102018794153 91.3225124769579,27.11820511667627 92.48505013263818,27.774290724338314 93.29076929994238,28.131109212715213 93.61305696686308,28.211681129445797 93.90081381232841,28.188660581808605 94.43028640798467,27.992985926892054 95.77698844476413,27.348410593049017 96.75536171934688,27.060653747583697 97.4574884222833,26.89950991412253 97.1236904815436,25.95566746099598 96.96254664808244,25.172968841328967 96.90499527898903,24.735578436221484 96.85895418371466,23.503979137628797 96.7438514455295,22.387482577222077 96.76687199316588,21.938581898296405 96.81291308844027,21.754417517198043 97.0431185648122,21.132862730992198 97.22728294591137,20.764533968796293 98.49341306595944,19.37179083674326 98.65455689942061,19.17611618182671 98.78116991142477,18.85382851490519 98.82721100669914,18.439458657434898 98.79268018524377,18.105660716694373 98.59700553032722,17.47259565667034 97.99847129175856,16.01079088170491 97.84883773211641,15.74605458387678 97.5035295175577,15.297153904950292 97.37691650555354,15.020907333303159 97.31936513646015,14.675599118744445 97.29634458882214,13.927431320534449 97.20426239827337,13.490040915426965 97.20426239827337,13.317386808147608 97.29634458882214,13.190773796142638 97.4574884222833,13.098691605593048 98.45888224450407,12.776403938672347 99.14949867362148,12.408075176475625 99.63293017400335,12.212400521559076 100.56526235331171,11.936153949912761 100.84150892495803,11.821051211725978 101.4170226158903,11.452722449530073 101.68175891371762,11.187986151701944 101.7968616519044,10.992311496785396 101.8544130209978,10.704554651320075 101.7853513780854,10.221123150937387 101.7968616519044,10.059979317477037 101.87743356863416,9.79524301964891 102.15368014028212,9.300301245448033 102.46445753338381,8.862910840339731 103.06299177195247,8.264376601771897 103.41981026033018,7.988130030124764 103.7190773796145,7.815475922845408 103.97230340362445,7.74641427993383 104.35214243963854,7.711883458477631 104.62838901128485,7.700373184659443 105.00822804730059,7.74641427993383 105.22692324985351,7.965109482487571 105.49165954768246,8.183804685041313 106.30888898880403,8.632705363967803 106.9419540488297,9.070095769075285 107.11460815610823,9.139157411986865 107.43689582302893,9.231239602535636 107.86277595431905,9.25426015017283 108.4267793714307,9.162177959624058 109.40515264601507,8.828380018884351 110.18785126568126,8.333438244683476 111.10867317117062,7.90755811339418 111.77626905265004,7.435636886830498 112.15610808866576,7.2169416842767555 112.36329301740132,7.1133492199089785 112.76615260105179,6.9982464817230134 113.09995054179312,6.940695112629623 113.66395395890477,6.894654017355236 114.48118340002797,6.710489636257693 114.95310462659084,6.652938267164302 115.8278854368058,6.652938267164302 117.04797446157949,6.756530731532079 117.75010116451591,6.733510183894886 118.12994020053002,6.756530731532079 118.38316622453995,6.81408210062547 118.6363922485499,6.91767456499243 119.08529292747637,7.205431410458568 119.28096758239293,7.29751360100734 119.87950182096158,7.792455375208215 120.13272784497153,8.091722494492542 120.39746414279882,8.506092351962833 120.52407715480462,8.632705363967803 121.44489906029398,9.127647138168678 122.36572096578496,9.772222472010897 122.8721730138032,10.04846904365803 124.28793669349507,10.658513556044872 125.77276201609607,11.153455330245746 126.56697090958126,11.475742997167265 127.00436131468875,11.533294366260657 128.0057551369095,11.48725327098627 128.99563868531126,11.280068342250717 129.81286812643282,11.187986151701944 130.51499482936927,11.049862865878787 132.08039206870166,10.681534103682882 132.47174137853474,10.566431365496099 133.1968886291092,10.232633424756393 133.933546153501,9.852794388741483 134.03713861786878,9.726181376736513 134.00260779641175,9.565037543276162 134.01411807023078,9.495975900364583 134.1982824513283,9.346342340722419 135.0155118924515,8.966503304707508 136.01690571467063,8.563643721056224 136.32768310777396,8.379479339957863 136.46580639359712,8.252866327952892 136.5693988579649,8.103232768310729 136.74205296524508,7.6313115417470465 136.84564542961286,7.435636886830498 137.4096488467245,6.779551279169271 138.01969335911215,5.95081156422869 138.49161458567502,5.076030754012904 138.5376556809494,4.86884582527735 138.5376556809494,4.696191717998811 138.43406321658162,4.500517063081444 138.11177554966093,4.13218830088554 138.1002652758419,4.017085562699575 138.18083719257334,3.936513645968991 139.389415943528,3.706308169597061 140.0685220988264,3.6372465266846645 140.41383031338512,3.6602670743226753 141.10444674250255,3.8674520030574118 141.6914707072522,4.005575288881388 141.91016590980675,4.040106110336768 142.1633919338167,4.017085562699575 143.10723438694407,3.821410907783026 143.92446382806563,3.855941729239224 144.0050357447954,3.821410907783026 144.0050357447954,3.7638595386896347 144.3963850546285,3.9595341936061836 144.7877343644616,4.22427049143513 145.11002203138395,4.500517063081444 145.34022750775586,4.753743087091385 145.43230969830464,4.937907468189747 145.51288161503604,5.1450923969244835 145.5819432579468,5.847219099860912 145.67402544849557,6.192527314419625 145.83516928195675,6.457263612247752 146.1459466750601,6.745020457713073 146.4912548896188,6.952205386448628 146.99770693763867,7.182410862821375 147.2164021401916,7.309023874825527 148.7587788318876,8.678746459242188 149.01200485589754,8.862910840339731 149.6565801897406,9.219729328717449 150.16303223775884,9.726181376736513 150.7615664763275,10.14055123420762 151.80900139382263,10.566431365496099 153.19023425205748,11.245537520795336 153.6046041095286,11.337619711344107 154.07652533609144,11.349129985162296 154.47938491974355,11.245537520795336 154.75563149138986,11.118924508790366 155.0548986106742,10.865698484780426 155.31963490850313,10.520390270221714 156.21743626635447,8.540623173418213 156.33253900454127,8.1953149588595 156.63180612382558,7.0442875769974 156.81597050492314,6.5838766242527225 157.0231554336587,6.250078683512198 157.310912279124,5.95081156422869 158.09361089879022,5.363787599478225 158.58855267299109,4.845825277640157 158.89933006609442,4.581088979812029 159.25614855447213,4.362393777258287 160.43019648397143,3.77536981250864 160.68342250798136,3.614225979047472 160.9136279843533,3.407041050312735 161.04024099635907,3.2458972168515667 161.14383346072685,3.0502225619350174 161.4315903061922,2.129400656445664 161.7193471516575,1.4272739535092342 161.92653208039306,1.0359246436761362 162.14522728294597,0.8057191673033889 162.34090193786253,0.7136369767546171 162.5135560451427,0.6906164291174242 163.53797041499982,0.8057191673033889 164.26311766557265,0.6675958814802312 164.56238478485696,0.6445753338430383 164.8731621779603,0.7136369767546171 165.44867586889094,0.9668630007645574 165.63284024998848,1.001393822219938 165.84002517872403,0.9898835484017504 167.25578885841426,0.8517602625785927 168.46436760937058,0.61004451238684 168.72910390719952,0.5064520480198806 169.13196349084998,0.21869520255374195 169.37367924104092,0.13812328582397554 170.82397374218817,0 171.66422373094775,0.21869520255374195 172.09010386223622,0.42588013128929636 172.44692235061396,0.6791061552992367 173.4368058990157,1.5078458702398185 174.48424081651083,2.1639314779010443 174.70293601906377,2.371116406636599 174.88710040016295,2.6243424306465393 175.10579560271586,3.015691740479637 175.4050627220002,3.717818443415249 175.71584011510353,4.212760217616124 175.94604559147547,4.465986241626064 176.29135380603418,4.753743087091385 176.70572366350527,4.99545883728232 176.9934805089706,5.099051301650097 177.66107639045,5.271705408929453 177.97185378355334,5.409828694753429 178.21356953374428,5.6515444449443635 178.581898295941,6.250078683512198 178.78908322467493,6.422732790791554 179.06532979632289,6.514814981341144 179.3530866417882,6.526325255159332 180.28541882109656,6.480284159884945 181.7702441436992,6.273099231149391 182.0464907153455,6.273099231149391 182.25367564408106,6.319140326424595 184.00323726451262,7.251472505732954 185.07369272964414,7.665842363203245 185.4880625871136,7.873027291938799 186.04055573040787,8.241356054134704 186.63908996897652,8.793849197428154 186.90382626680548,8.966503304707508 187.1685625646328,9.058585495256281 187.997302279575,9.231239602535636 188.7109392563288,9.495975900364583 189.516658423633,9.864304662560487 190.402949507667,10.163571781844814 190.6676858054943,10.290184793848967 191.38132278224973,10.704554651320075 192.62443235466142,11.280068342250717 192.9812508430375,11.521784092441651 193.47619261723838,11.970684771368141 194.07472685580703,12.592239557573986 194.39701452272936,12.983588867407084 195.0876309518468,13.96196214198983 195.45595971404188,14.364821725641933 195.91637066678737,14.790701856931229 195.44444944022285,15.239602535857719 195.0761206780278,15.65397239332801 194.81138438019883,16.01079088170491 194.59268917764592,16.379119643900815 194.42003507036574,16.816510049009114 194.32795287981696,17.207859358842214 194.30493233218058,17.587698394856307 194.350973427455,17.979047704689403 194.44305561800374,18.358886740704314 194.6272199991013,18.842318241086183 194.8574254754732,19.26819837237548 195.22575423766995,19.797670968032556 195.61710354750304,20.235061373140038 196.0314734049725,20.603390135335943 196.45735353626262,20.90265725462027 197.02135695337427,21.21343464772278 197.3551548941156,21.35155793354594 198.04577132323303,21.47817094555091 198.72487747853145,21.501191493188102 199.27737062182572,21.44364012409553 200.12913088440268,21.259475742997168 202.89159660087236,20.407715480419395 204.99797670968002,19.855222337125127 207.36909311631663,19.199136729463902 207.9446068072489,19.095544265096123 208.56616159345393,19.04950316982174 209.08412391529282,19.07252371745893 209.5790656894937,19.153095634189516 210.2466615709731,19.348770289106064 211.10993210736908,19.694078503664777 213.71125399037922,21.02927026662524 216.232003956658,22.134256553212953 217.26792860033248,22.652218875051023 218.1196888629111,23.147160649251898 218.89087720875992,23.665122971089968 221.80297648487013,25.817544175172007 222.50510318780655,26.25493458027949 223.0921271525562,26.542691425745627 223.69066139112485,26.738366080662175 224.31221617733152,26.853468818848143 224.97981205881095,26.89950991412253 226.5797401195987,26.89950991412253 227.28186682253514,26.92253046175972 228.19117845420712,27.026122926127496 228.93934625241795,27.17575648576966 229.86016815790728,27.46351333123498 230.7004181466669,27.831842093430886 231.56368868306285,28.29225304617638 232.02409963580834,28.591520165460707 232.5765927791026,28.982869475293803 233.43986331549857,29.742547547322808 233.94631536351844,30.28353041679807 234.36068522098955,30.789982464817133 235.09734274538135,31.860437929949466 236.6282091632584,34.40420844386542 237.46845915201797,35.681848837732495 238.49287352187508,37.02855087451114 239.45973652263885,38.087496065824475 239.97769884447771,38.57092756620716 240.55321253540836,39.04284879277002 241.04815430960923,39.388157007328736 241.61215772672088,39.73346522188745 242.47542826311846,40.13632480553955 244.58180837192612,40.94204397284294 245.14581178903939,41.218290544490074 245.67528438469566,41.54057821141159 246.18173643271552,41.95494806888188 246.56157546872961,42.38082820017118 246.81480149273958,42.79519805764147 247.0104761476561,43.347691200935735 247.0565172429305,43.62393777258205 247.0795377905669,44.072838451508545 247.03349669529248,44.52173913043503 246.94141450474373,44.92459871408713 246.7802706712842,45.38500966683181 246.59610629018502,45.753338429027714 246.34288026617506,46.15619801267982 246.06663369452875,46.48999595341953 245.62924328942125,46.881345263252626 245.0307090508526,47.27269457308572 244.50123645519636,47.514410323277474 242.72865428712842,48.193516478575894 241.8768940245498,48.5733555145908 241.00211321433486,49.03376646733548 240.13884267793725,49.597769884447935 239.72447282046778,49.92005755136945 239.36765433209007,50.25385549210916 239.1029180342611,50.530102063756296 238.86120228407017,50.86390000449682 238.67703790297264,51.22071849287372 238.57344543860486,51.519985612158045 238.49287352187508,51.92284519581015 238.49287352187508,52.245132862731666Z"/>
  </g>
</svg>