<?xml version="1.0" encoding="UTF-8" standalone="no"?>
<svg viewBox="0 0 256 248.5911871863606" xmlns="http://www.w3.org/2000/svg">
  <style>
    g.zone {
      fill: lightgray;
      stroke-width: 2;
      stroke-linecap: square;
      stroke-linejoin: bevel;
      stroke-miterlimit: 3;
      stroke-opacity: 0.8;
      stroke: black;
      fill-opacity: 0.3;
    }
  </style>
  <g class="zone" id="zone">
    <path d="M83.96067917783847,235.76215027153333 83.0631745377067,235.09342132398433 82.11287550697719,234.49508489722857 80.88100639307216,233.84395407987878 79.8075204509529,233.35120643431603 78.68124011823836,232.87605691895126 77.44937100433084,232.40090740358775 76.14710936962881,231.99615040901875 74.45768887055827,231.55619715405126 72.50429641850648,231.15144015948223 69.82938062830793,230.711486904516 68.19275451983265,230.50030934213123 64.60273595930558,230.14834673815872 62.84292293943804,229.91957104557596 57.86265209321519,228.98687014504694 56.34921289612966,228.74049632226493 55.31092321440889,228.63490754107318 54.27263353268811,228.5821131504767 53.287138241562594,228.59971128067593 52.477624252424576,228.65250567127245 51.45693270090055,228.79329071286145 50.66501684196179,228.9692720148477 49.925895373615774,229.1628514470332 48.993194473088,229.4796177906097 47.99010105176323,229.90197291537672 45.491166563552184,231.098645768887 44.18890492885266,231.6969821956415 42.745858252561625,232.26012236199875 38.9622602598478,233.61517838729606 38.09995188011203,233.9847391214678 37.378428541967764,234.3894961160368 36.692101464219505,234.88224376159957 36.07616690726574,235.4629820581561 35.46023235031448,236.1845053963016 33.85880250223519,238.33147728053888 32.85570908091042,239.5457482642459 31.412662404619393,241.04158933113345 29.881625077337112,242.44943974702596 28.825737265417093,243.32934625695975 27.417886849522063,244.40283219907775 25.042139272703263,246.0570564377523 24.074242111776993,246.65539286450806 23.018354299856973,247.25372929126257 22.191242180519705,247.64088815563233 21.52251323297069,247.90486010861233 20.51941981164592,248.2040283219896 19.639513301713404,248.3800096239771 18.689214270983882,248.5207946655661 17.492541417474857,248.5911871863606 16.471849865953338,248.5735890561626 15.556747095622319,248.5031965353681 14.694438715886552,248.36241149377784 13.779335945555532,248.1160376709971 12.987420086616767,247.81686945761984 12.283494878669252,247.48250498384533 11.68515845191474,247.13054237987157 10.963635113770476,246.60259847391157 10.224513645424459,245.96906578675978 9.590980958273947,245.31793496940878 8.975046401320185,244.56121537086602 8.447102495360173,243.8220939025225 7.954354849798664,242.99498178318524 7.6727847666181574,242.39664535643072 7.426410943838653,241.78071079947696 7.197635251255898,241.0239912009342 7.056850209666895,240.26727160239142 7.021653949268394,239.73932769643142 7.056850209666895,239.05300061868314 7.144840860658147,238.5426548429224 7.3032240324463995,238.03230906716038 7.496803464633154,237.55715955179687 7.83116793840641,236.9764212552416 8.183130542381418,236.48367360967885 8.887055750326432,235.65656149034157 10.541279989000966,233.9319447308713 11.19241080635323,233.08723448133603 11.403588368736735,232.70007561696502 11.526775280126486,232.34811301299126 11.579569670721737,232.01374853921675 11.561971540524988,231.5737952842505 11.403588368736735,231.116243899085 11.104420155359477,230.60589812332424 10.629270639994719,230.0955523475622 10.048532343439456,229.63800096239672 9.115831442909187,229.05726266584145 6.5465044339036345,227.80779542173593 5.631401663572615,227.31504777617317 4.6811026328455965,226.6991132192194 3.7659998625145774,226.0127861414724 2.991682133772561,225.25606654292963 2.2877569258275474,224.4113562933931 1.7070186292722855,223.49625352306208 1.1614765931130242,222.3875713205468 0.5983364267545123,220.87413212346127 0.29916821337725613,219.88863683233575 0.12318691139225306,219.07912284319775 0,218.09362755207223 0.017598130199250557,217.4424967347212 0.08799065099375195,216.9145528287612 0.26397195298125586,216.22822575101293 0.4927476455640106,215.59469306386117 0.9151027703310189,214.69718842372941 1.302261634702027,214.04605760637838 2.2877569258275474,212.5502165394921 2.815700831787558,211.93428198253835 3.2732522169530673,211.51192685777133 4.029971815495833,210.98398295181133 4.87468206502985,210.64961847803556 5.490616621983612,210.5264315666458 5.930569876949871,210.47363717604932 6.986457688869893,210.50883343644657 7.954354849798664,210.72001099883133 8.992644531519435,211.10716986320108 9.907747301850454,211.5647212483666 11.931532274696744,212.70859971128036 13.040214477212018,213.28933800783562 14.025709768337538,213.71169313260387 15.187186361450562,214.08125386677565 16.471849865953338,214.32762768955766 17.96769093283962,214.41561834055014 19.48113012992515,214.32762768955766 21.029765587406683,214.06365573657763 22.736784216676465,213.55330996081562 23.687083247405987,213.16615109644587 24.584587887537754,212.7437959716776 26.397195298000543,211.74070255035284 30.479961504091627,209.22416993194378 31.6590362274014,208.60823537499127 32.92610160170493,208.09788959922926 33.9995875438242,207.79872138585202 34.985082834949715,207.5875438234685 36.18175568845874,207.42916065168026 39.05025091084155,207.18278682889826 40.40530693613883,207.006805526912 41.88354987282586,206.742833573932 43.326596549116886,206.39087096995948 44.716848834812666,205.95091771499196 46.1598955111012,205.42297380903196 51.280951398913054,203.18801127380218 53.11115693957509,202.48408606585465 55.064549391626876,201.92094589949738 59.53447446208897,200.91785247817387 60.74874544579725,200.5482917440021 61.76943699731876,200.19632914002835 62.98370798102704,199.6859833642676 64.05719392314631,199.15803945830757 64.98989482367658,198.64769368254557 65.8346050732106,198.10215164638757 66.45053963016436,197.6270021310228 66.87289475493387,197.20464700625453 67.27765174950163,196.6415068398973 67.54162370248288,196.14875919433453 67.45363305148913,195.6032171581765 67.22485735890638,195.02247886162 66.89049288513063,194.44174056506475 66.48573589056286,193.91379665910472 62.71973602804829,189.95421736440466 58.05623152540194,184.70997456520178 56.98274558328267,183.56609610228801 55.680483948580644,182.369423248779 54.16704475149511,181.24314291606447 52.72399807520408,180.36323640613196 51.17536261772255,179.62411493778717 50.36584862858453,179.32494672440993 49.48594211864951,179.06097477142993 48.58843747851775,178.83219907884717 47.35656836461272,178.6034233862644 44.76964322540792,178.30425517288717 43.36179280951539,178.21626452189466 41.95394239362036,178.18106826149616 40.14133498315757,178.23386265209265 38.57510139547679,178.3922458238809 36.956073417200756,178.62102151646366 32.57413899773242,179.36014298480717 30.72633532687113,179.57132054719193 28.948924176806845,179.65931119818444 26.960335464356554,179.53612428679344 25.37650374647652,179.32494672440993 23.82786828899499,179.02577851103268 22.332027222108707,178.65621777686093 21.047363717605933,178.2514607822919 20.061868426480412,177.84670378772165 19.181961916547895,177.37155427235814 18.56602735959413,176.93160101739187 18.02048532343487,176.36846085103463 17.474943287275607,175.5765449920946 17.0877844229046,174.64384409156432 16.946999381315596,174.06310579500908 16.894204990720347,173.62315254004156 16.911803120919597,172.70804976971178 17.10538255310385,171.75775073898353 17.52773767787336,170.649068536467 18.02048532343487,169.66357324534272 18.829999312572888,168.3613116106407 19.657111431910153,167.25262940812544 20.149859077474165,166.63669485117165 21.01216745720743,165.70399395064265 21.768887055750195,164.9472743520999 25.834055131642028,161.16367635938605 28.70255035402484,158.20719048601075 29.600054994156608,157.32728397607698 30.902316628858635,156.2361999037597 32.06379322197166,155.44428404481968 34.017185674023445,154.28280745170792 36.09376503746499,153.2269196397879 37.83597992713327,152.41740565064862 40.088540592562325,151.50230288031887 47.40936275520797,148.8625833505188 52.30164295043707,147.01477967965877 53.515913934145345,146.62762081528777 54.53660548566687,146.38124699250702 56.52519419811716,146.0644806489305 58.58417543136195,145.90609747714225 61.13590431016826,145.87090121674498 64.40915652711882,145.9236956073415 67.27765174950163,146.08207877912974 72.62748332989624,146.5748264246925 87.76187530074905,148.24664879356504 89.62727710180708,148.4754244861478 92.1790059806159,148.8801814807168 94.85392177081195,149.4785179074713 96.77211796246773,150.0416580738286 97.79280951398925,150.4112188080016 98.77830480511477,150.8335739327686 99.57022066405354,151.23833092733886 100.59091221557756,151.8190692238941 102.7026878394176,153.2269196397879 108.91482779954548,157.85522788203698 110.86822025159978,159.19268577713626 112.89200522444607,160.49494741183705 117.90747233106492,163.38104076441786 120.56478999106422,164.8240874407089 121.30391145940774,165.17605004468263 122.04303292775126,165.45762012786065 122.69416374510352,165.63360142984814 123.22210765106352,165.70399395064265 124.4363786347693,166.95346119474817 124.78834123874431,167.39341444971444 124.99951880112782,167.78057331408544 125.36907953529958,168.74847047501171 125.59785522788232,169.17082559977996 125.82663092046508,169.4171994225607 126.33697669622585,169.73396576613723 127.55124767993412,170.27950780229523 128.74792053344314,170.77225544785802 130.33175225132317,171.51137691620278 131.9859764899977,172.1097133429573 133.446621296488,172.9016292018973 134.62569601979777,173.35918058706156 135.41761187873902,173.55276001924705 136.4559015604598,173.69354506083732 137.58218189317432,173.71114319103532 139.23640613184887,173.57035814944632 139.6763593868151,173.60555440984356 140.11631264178138,173.72874132123457 140.52106963635163,173.93991888361808 140.9962191517164,174.29188148759184 141.47136866707865,174.7846291331546 141.85852753144965,175.3125730391146 142.24568639582066,175.99890011686162 142.54485460919793,176.65003093421262 142.75603217158144,177.30116175156363 142.86162095277442,177.91709630851614 142.93201347356893,179.06097477142993 142.84402282257517,179.69450745858168 142.6328452601917,180.3984326665292 142.31607891661517,181.08475974427623 141.9817144428419,181.64789991063347 141.5241630576764,182.21104007699074 141.1722004537014,182.5630026809645 140.41548085515862,183.038152196328 138.14532205953034,184.28761944043353 138.5148827937046,185.32590912215554 138.7612566164841,186.46978758506808 138.7964528768826,187.26170344400808 138.95483604867084,187.6488623083791 139.2892005224441,188.1592080841411 139.94033133979636,188.89832955248463 140.45067711555714,189.37347906784814 141.2425929744959,189.9894136248019 141.4185742764834,190.1829930569874 141.5593593180724,190.4645631401654 141.66494809926542,191.04530143672193 141.64734996906614,191.8900116862572 141.40097614628414,193.0514882793702 141.54176118787316,194.336151783873 141.4889667972779,195.83199285075926 141.5945555784709,196.32474049632202 141.78813501065517,196.79989001168553 142.66804152058768,198.17254416718205 141.89372379184817,198.2957310785718 140.9610228913179,198.55970303155183 140.4682752457564,198.77088059393657 139.86993881900187,199.15803945830757 139.34199491304184,199.61559084347184 138.99003230906686,200.07314222863735 138.63806970509435,200.6890767855911 138.42689214271084,201.34020760294212 138.3037052313186,201.9913384202919 138.2685089709226,202.6424692376429 138.32130336151783,203.2408056643974 138.47968653330608,204.03272152333744 138.91963978827235,205.29978689764096 140.08111638138539,207.81631951605127 140.52106963635163,208.92500171856653 140.78504158933038,209.85770261909556 140.8554341101249,210.56162782704305 140.8202378497289,210.94878669141409 140.7146490685359,211.4239362067776 140.41548085515862,212.05746889392935 140.01072386059087,212.5502165394921 138.91963978827235,213.72929126280314 138.5148827937046,214.2924314291604 138.4092940125116,214.5740015123384 138.3037052313186,214.97875850690866 138.32130336151783,215.57709493366318 138.49728466350535,216.21062762081493 138.81405100708184,216.80896404756945 139.2540042620481,217.38970234412596 139.88753694919862,218.05843129167496 141.1370041933054,219.114319103595 144.83261153502548,221.63085172200405 146.38124699250702,222.84512270571233 147.36674228363253,223.70743108544684 148.24664879356504,224.58733759537935 148.98577026191106,225.4672441053131 149.51371416787106,226.2239637038559 150.07685433422708,227.26225338557666 150.35842441740508,228.0365711143187 150.5344057193926,228.93407575445045 150.5696019797911,229.63800096239672 150.46401319859808,230.48271121193324 150.25283563621457,231.16903828968148 149.84807864164432,231.9609541486215 149.32013473568432,232.6296830961705 148.8625833505188,233.05203822093878 148.35223757475805,233.42159895511054 147.66591049700978,233.7911596892823 147.03237780985677,234.0375335120643 146.29325634151326,234.2487110744478 145.73011617515724,234.35429985563957 145.00859283701047,234.40709424623606 144.1814807176732,234.3894961160368 143.3719667285352,234.3015054650443 142.58005086959642,234.14312229325606 141.64734996906614,233.89674847047405 140.43307898535787,233.5271877363023 138.5148827937046,232.84086065855402 137.30061180999633,232.3657111431905 135.6111913109233,231.55619715405126 134.7136866707915,230.993056987694 134.0449577232425,230.44751495153596 133.51701381728247,229.84917852478145 133.04186430191774,229.1100570564367 132.67230356774598,228.28294493709944 132.42592974496395,227.50862720835866 131.8099951880127,224.8161132879621 131.54602323503144,223.91860864783035 131.2820512820527,223.23228157008208 130.8948924176817,222.58115075273233 130.33175225132317,221.96521619577854 129.94459338695216,221.6660479824013 129.53983639238442,221.41967415962054 128.78311679384163,221.15570220664054 128.3431635388754,221.08530968584478 127.90321028390662,221.08530968584478 127.34007011755061,221.17330033683854 126.7417336907961,221.38447789922205 126.19619165463683,221.71884237299778 125.65064961847757,222.1939918883613 125.19309823331207,222.77473018491781 124.73554684814656,223.53144978345932 124.38358424417405,224.30576751220136 123.71485529662503,225.99518801127314 123.36289269265254,226.71671134941866 122.97573382828152,227.33264590637242 122.43019179212226,228.01897298411942 121.83185536536774,228.67010380147045 121.16312641781873,229.26844022822496 118.31222932563517,231.48580463325675 117.39712655530415,232.33051488279327 116.97477143053464,232.80566439815678 116.60521069636289,233.31601017391878 115.17976215027112,235.7269540111361 114.7926032859001,236.23729978689684 114.28225751013935,236.78284182305612 113.75431360417933,237.2403932082216 113.12078091702882,237.66274833298863 112.39925757888206,238.04990719735963 111.62493985014004,238.3490754107369 110.55145390802326,238.63064549391615 109.477967965904,238.78902866570314 108.31649137279098,238.8770193166969 104.81446346325765,238.98260809788866 103.86416443252813,239.10579500927966 102.98425792259562,239.29937444146515 102.10435141266309,239.61614078504041 101.20684677253132,240.03849590980866 100.32694026259631,240.5664398157687 97.740015123394,242.2206640544432 97.01849178524724,242.62542104901348 96.20897779610922,243.03017804358248 95.39946380697121,243.32934625695975 94.46676290644093,243.55812194954248 93.67484704750217,243.646112600535 92.86533305836166,243.646112600535 91.73905272564713,243.45253316835075 90.82394995531861,243.118168694575 90.27840791915935,242.854196741595 89.7680621433986,242.55502852821772 88.97614628445733,241.9390939712652 88.39540798790206,241.3407575445107 87.8850622121413,240.7072248573577 86.49480992644553,238.6130473637169 85.59730528631376,237.38117824981063 84.78779129717574,236.50127173987684 83.96067917783847,235.76215027153333Z"/>
    <path d="M199.43960954148685,89.32810888842984 198.99965628652058,89.92644531518434 198.6652918127448,90.55997800233736 198.50690864095657,91.22870694988637 198.48931051075732,91.91503402763463 198.57730116175108,92.46057606379264 198.78847872413456,93.16450127173891 199.8443665360546,95.71623015054647 200.2315254004256,96.89530487385623 200.4427029628116,98.09197772736651 200.49549735340688,98.70791228431902 200.46030109300835,99.44703375266378 200.31951605141936,100.41493091359006 199.72117962466484,102.89626727160186 199.43960954148685,104.25132329689914 198.99965628652058,107.66536055544121 198.75328246373857,108.96762219014198 198.54210490135506,109.60115487729375 198.26053481817456,110.18189317385026 197.85577782360681,110.76263147040552 197.45102082903654,111.18498659517378 196.3775348869173,112.06489310510754 193.0338901491722,114.3878462913311 191.41486217089368,115.56692101464212 189.83103045301365,116.79879012854839 186.64576888705682,119.4033133979512 185.53708668453905,120.24802364748646 184.04124561765278,121.19832267821474 183.03815219633051,121.6910703237775 182.2990307279845,121.97264040695676 181.52471299924497,122.21901422973751 180.7679934007022,122.41259366192301 179.83529250017193,122.57097683371127 179.00818038083466,122.65896748470377 178.2162645218959,122.67656561490301 177.01959166838438,122.65896748470377 173.7815357118298,122.34220114112851 172.09211521275927,122.30700488073126 170.36749845329024,122.44778992232025 166.46071354918666,122.95813569808227 164.40173231594187,123.09892073967127 162.6595174262736,123.06372447927403 160.82931188561156,122.81735065649202 156.32419055475344,121.84945349556575 154.40599436310018,121.30391145940649 153.06853646799965,120.77596755344648 151.74867670310087,120.05444421530221 150.41121880800284,119.15693957516919 147.45473293462626,116.90437890974015 146.2756582113165,116.05966866020488 144.85020966522222,115.17976215027112 143.44235924932968,114.5110332027221 142.03450883343717,114.01828555715934 140.64425654774138,113.68392108338483 139.09562109025984,113.41994913040483 135.69918196191702,112.97999587543731 134.537705368804,112.76881831305381 133.34103251529498,112.45205196947731 132.14435966178596,111.99450058431304 130.87729428748244,111.34336976696203 129.8214064755624,110.65704268921377 128.62473362205338,109.8123324396785 125.03471506152381,107.08462225888469 123.60926651543204,105.90554753557367 121.58548154258574,103.91695882312463 120.70557503265323,103.16023922458187 119.6848834811292,102.56190279782736 119.1217433147732,102.3155289750466 118.54100501821793,102.12194954286109 117.81948168007116,101.96356637107284 117.0979583419269,101.85797758988109 116.35883687358339,101.84037945968184 115.58451914484137,101.87557572007908 114.05348181755659,102.08675328246385 111.50175293875029,102.68508970921836 110.35787447583651,102.87866914140386 109.00281845053924,103.01945418299286 107.61256616484596,103.03705231319087 106.57427648312519,102.94906166219836 105.57118306180041,102.7906784904101 102.08675328246385,101.91077198047634 100.52051969478306,101.64680002749634 99.74620196604104,101.59400563690109 98.93668797690303,101.59400563690109 95.38186567677195,101.89317385027834 93.51646387571392,101.89317385027834 91.56307142366212,101.68199628789358 87.26912765518755,100.92527668935082 86.19564171306827,100.81968790815907 85.227744552142,100.78449164776181 84.15425861002272,100.83728603835831 83.02797827730821,100.99566921014657 78.87481955042261,101.98116450127084 77.37897848353634,102.24513645425084 76.60466075479432,102.3331271052446 75.6191654636688,102.3859214958411 74.93283838592303,102.36832336564184 74.24651130817477,102.2803327146481 73.40180105863826,102.08675328246385 72.71547398089,101.80518319928458 71.97635251254647,101.38282807451633 71.21963291400371,100.83728603835831 69.77658623771268,99.57022066405354 65.8698013336091,95.78662267134096 65.28906303705384,95.27627689557896 64.65553034990083,94.85392177081195 64.21557709493457,94.60754794802995 63.61724066818005,94.39637038564643 62.96610985082779,94.25558534405744 62.45576407506703,94.22038908365893 61.083109919570504,94.27318347425543 58.5313810407642,94.57235168763269 57.96824087440819,94.5547535574347 57.52828761944193,94.46676290644093 57.193923145666176,94.30837973465269 57.00034371348192,94.14999656286443 56.841960541693666,93.95641713067893 56.683577369905414,93.71004330789818 56.489997937718655,93.0061180999519 56.402007286727404,92.05581906922363 56.419605416924156,91.15831442909187 56.50759606791791,90.2080153983636 57.21152127586542,86.45961366604702 57.63387640063243,82.21846428816893 57.845053963015935,81.14497834605092 58.232212827386945,79.87791297174614 58.5665773011627,79.13879150340263 58.95373616553371,78.41726816525711 59.46408194129447,77.64295043651634 60.71354918539875,75.88313741664881 61.32948374235251,74.82724960472878 61.83982951811327,73.75376366261077 62.94851172063104,70.93806283082445 63.3532687151988,70.11095071148719 63.705231319173805,69.49501615453343 64.23317522513382,68.73829655599066 64.84910978208508,68.01677321784514 65.60582938062784,67.34804427029613 66.43294149996511,66.74970784354161 67.04887605691887,66.39774523956787 67.59441809307813,66.1513714167871 68.19275451983265,65.94019385440235 68.89667972778017,65.7818106826141 69.51261428473143,65.7114181618196 70.14614697188443,65.7114181618196 70.77967965903746,65.7818106826141 71.39561421598872,65.9049975940051 72.50429641850648,66.29215645837611 73.78895992300926,66.96088540592513 75.28480098989554,67.99917508764715 77.44937100433084,69.74138997731418 78.32927751426335,70.39252079466519 79.42036158658188,71.07884787241346 80.74022135148066,71.72997868976447 81.40895029903217,71.95875438234597 82.11287550697719,72.15233381453147 82.7464081941302,72.27552072592248 83.52072592287222,72.32831511651898 84.24224926101648,72.32831511651898 84.96377259916075,72.24032446552523 85.84367910909576,72.06434316353898 86.38922114525252,71.90595999175072 87.33952017598205,71.53639925757896 88.43060424829807,71.00845535161896 89.36330514882833,70.48051144565895 92.35498728260089,68.59751151440166 93.46366948511867,68.01677321784514 94.50195916683944,67.57681996287889 95.48745445796496,67.26005361930238 96.52574413968573,67.03127792671962 99.78139822643955,66.66171719254787 101.17165051213283,66.41534336976711 101.9635663710741,66.18656767718436 102.7026878394176,65.9049975940051 103.33622052657061,65.6234275108271 104.05774386471488,65.21867051625684 104.88485598405215,64.67312848009882 105.43039802021141,64.23317522513257 108.08771568020822,61.734240736921514 108.82683714855423,61.11830617996775 109.58355674709699,60.55516601361049 111.18498659517378,59.587268852684225 114.12387433835109,58.10902591599594 115.05657523888136,57.59868014023518 116.11246305080138,56.92995119268492 116.86918264934415,56.34921289612966 117.64350037808616,55.680483948580644 118.17144428404617,55.08214752182613 118.84017323159519,54.23743727228961 120.26562177768696,52.26644669003857 120.81116381384622,51.58011961229031 121.603079672785,50.70021310235779 122.39499553172627,49.90829724341777 123.23970578126028,49.13397951467576 124.6827524575513,47.99010105176323 126.17859352443759,47.039802021034966 127.48085515913961,46.38867120368395 128.57193923145815,46.001512339314196 130.73650924589344,45.40317591255843 131.6340138860252,45.068811438783925 131.9859764899977,44.89283013679767 132.39073348456796,44.59366192342041 132.61950917715072,44.36488623083766 132.79549047913574,44.11851240805691 132.93627552072724,43.78414793428115 132.95387365092398,43.291400288719636 132.77789234893896,42.69306386196388 132.5139203959577,42.253110606997616 132.1619577919852,42.059531174812115 131.51082697463545,41.865951742626606 130.87729428748244,41.76036296143486 130.27895786072793,41.742764831236855 129.06468687701965,41.91874613322311 127.79762150271613,42.253110606997616 126.31937856602659,42.781054512957624 122.69416374510352,44.18890492885141 121.33910771980624,44.62885818381766 119.93125730391121,45.033615178386675 118.71698632020293,45.27998900116868 117.5907059874884,45.42077404275768 116.48202378497314,45.43837217295693 115.60211727504063,45.38557778236043 114.73980889530485,45.22719461057218 113.84230425517309,45.01601704818867 112.0296968447103,44.36488623083766 107.08462225888594,42.18271808620312 104.35691207809214,40.82766206090584 102.7026878394176,39.84216676978032 101.52361311610784,38.9798583900458 100.41493091359006,38.01196122911953 99.49982814325904,37.00886780779476 98.65511789372502,35.952979995874735 97.915996425379,34.86189592355746 93.95641713068018,28.420980270845583 93.60445452670767,27.699456932700066 93.35808070392567,26.995531724753803 93.25249192273266,26.203615865813788 93.28768818313117,25.517288788065525 93.48126761531542,24.86615797071576 93.78043582869267,24.250223413761997 94.22038908366143,23.687083247404736 94.8011273802167,23.176737471643975 95.46985632776571,22.77198047707372 96.20897779610922,22.455214133498462 97.0360899154465,22.226438440915707 98.03918333677126,22.085653399326702 99.20065992988178,22.068055269127452 100.30934213239956,22.156045920121205 101.54121124630458,22.33202722210746 104.6560802914694,22.89516738846472 105.62397745239566,23.018354299855723 106.62707087372044,23.071148690450972 107.77094933663422,23.000756169656473 108.84443527875098,22.807176737470968 109.95311748126875,22.42001787310121 110.70983707981152,22.050457138928202 111.36096789716129,21.610503883961943 112.01209871451104,21.064961847803932 112.61043514126555,20.37863477005567 113.01519213583582,19.762700213101905 113.36715473980833,19.12916752595014 113.66632295318558,18.39004605760663 114.49343507252284,15.838317178799075 114.8629958066946,14.870420017872805 115.49652849384762,13.779335945555532 115.81329483742412,13.356980820787273 116.35883687358339,12.741046263834761 117.08036021172765,12.072317316284497 117.90747233106492,11.456382759331985 118.71698632020293,10.946036983569975 121.09273389702423,9.555784697875445 122.55337870351201,8.587887536949177 123.46848147384303,7.83116793840641 124.03162164020155,7.268027772049149 125.66824774867683,5.36742971059261 126.6009486492071,4.434728810063591 127.19928507596161,3.994775555097332 127.76242524231762,3.660411081322825 128.27277101807837,3.4316353887400703 128.90630370523138,3.220457826355316 129.5046401319859,3.1148690451635637 130.06778029834442,3.062074654568313 130.59572420430442,3.0972709149655637 131.2820512820527,3.2380559565545664 131.7396026672157,3.41403725854082 132.21475218258047,3.678009211520825 132.63710730734996,3.994775555097332 133.02426617171847,4.39953254966634 133.27063999450047,4.716298893242847 133.56980820787774,5.2266446690036075 133.86897642125498,5.9833642675463725 134.0449577232425,6.704887605691887 134.44971471781275,8.975046401320185 134.678490410393,9.714167869663699 135.03045301436802,10.576476249398217 135.52320065992953,11.491579019729235 135.92795765449978,12.072317316284497 136.4910978208558,12.758644394032762 137.1598267684073,13.409775211383774 137.61737815357031,13.796934075754782 138.39169588231235,14.342476111912793 139.06042482986135,14.712036846084551 139.74675190760962,15.028803189661058 140.53866776655087,15.292775142641064 141.1370041933054,15.433560184230066 141.91132192204492,15.539148965421818 142.52725647899868,15.521550835223819 143.0200041245627,15.451158314429318 143.60074242111796,15.275177012441812 144.09349006667946,14.993606929263807 144.4278545404552,14.694438715886552 144.88540592562072,14.09610228913204 145.9236956073415,12.089915446483747 146.50443390389677,11.157214545954728 147.13796659104977,10.312504296418211 148.9681721317118,8.112738021584416 151.0271533649541,5.34983158039461 151.8366673540946,4.452326940262841 152.68137760362862,3.7484017323153265 153.42049907197466,3.2556540867525667 154.2124149309134,2.8332989619855584 155.05712518044993,2.5341307486083022 156.07781673197144,2.3229531862235473 157.16890080428996,2.2173644050317955 158.13679796521623,2.234962535231046 158.98150821475275,2.3053550560255474 160.05499415687203,2.4637382278125504 163.3634426342211,3.167663435760065 164.7184986595184,3.39643912834282 166.40791915858892,3.5372241699318225 167.58699388190118,3.484429779335321 168.6428816938212,3.290850347149817 169.62837698494673,2.9564858733753105 170.3147040626925,2.6221213996008035 172.58486285832078,1.2318691139062752 173.86952636282356,0.6687289475490136 174.7846291331546,0.38715886437100805 175.5941431222926,0.22877569258275474 176.4388533718291,0.10558878119175208 177.7587131367304,0 179.51852615659544,0.03519626039725069 181.31353543685896,0.19357943218550402 183.8476661854685,0.545542036158011 186.13542311129356,0.9854952911255203 187.6488623083791,1.4078504158925287 188.98632020347964,1.9357943218525395 190.14779679659014,2.586925139203553 190.95731078572817,3.202859696157316 191.89001168625845,4.0827662060898335 192.7171238055957,5.085859627414604 195.00488073142324,8.570289406749925 196.6591049700978,10.77005568158372 198.19014229738008,12.600261222244509 199.19323571870484,13.568158383172028 200.21392727022885,14.324877981714794 201.14662817075663,14.817625627276303 202.30810476386964,15.292775142641064 205.21179624664845,16.278270433766583 206.30288031896697,16.753419949130095 207.37636626108375,17.298961985289356 208.30906716161402,17.862102151646617 209.3121605829388,18.58362548979088 210.22726335326982,19.322746958135646 211.17756238399684,20.220251598267414 212.1102632845271,21.205746889392934 213.21894548704236,22.49041039389571 214.3804220801529,23.95105520038474 215.33072111088242,25.270914965284767 215.96425379803293,26.238812126211037 216.5097958341922,27.18911115693931 218.48078641644324,30.990307279851134 219.00873032240324,31.799821268990403 219.53667422836324,32.486148346737416 220.24059943631076,33.20767168488293 220.89173025366054,33.753213721042194 221.6484498522033,34.31635388739945 224.27057125180409,36.05856877706774 225.09768337114136,36.692101464219505 225.94239362067788,37.46641919296027 226.7519076098159,38.29353131229753 227.54382346875715,39.208634082628556 230.20114112875396,42.56987695057412 231.221832680278,43.8017460644804 231.8201691070325,44.452876881831415 232.50649618478076,45.08640956898317 233.10483261153527,45.57915721454594 233.72076716848903,46.01911046951219 234.35429985563957,46.4062693338832 235.00543067299182,46.723035677458455 236.3252904378906,47.21578332302122 237.92672028596988,47.567745926994974 239.56334639444518,47.76132535918048 240.95359868014094,47.77892348937848 242.18546779404596,47.726129098783225 243.593318209941,47.58534405719423 246.9545610778853,47.12779267202872 248.3800096239771,47.004605760637716 249.24231800371285,46.98700763043846 250.06943012305013,47.039802021034966 251.37169175774966,47.25097958341847 252.21640200728618,47.532549666597724 252.9555234756297,47.884512270571484 253.6594486835772,48.35966178593499 254.25778511033172,48.887605691895004 254.7153364954972,49.433147728053015 255.24328040145724,50.24266171719228 255.59524300542975,50.9817831855358 255.84161682821176,51.79129717467506 255.9648037396015,52.46002612222408 256,52.970371897986084 255.9648037396015,53.903072798515105 255.859214958411,54.519007355467615 255.68323365642348,55.09974565202413 255.2608785316565,56.0500446827524 254.62734584450348,56.947549322884164 254.29298137073022,57.299511926857924 253.71224307417245,57.82745583281793 252.86753282463843,58.4081941293732 251.6356637107309,59.02412868632696 250.47418711761787,59.42888568089597 249.10153296212385,59.72805389427322 247.83446758781784,59.86883893586223 243.73410325153,60.15040901904148 241.79830892967746,60.36158658142499 239.49295387365066,60.71354918539875 236.51886987007734,61.29428748195526 231.38021585206624,62.45576407506703 228.68770193167094,63.12449302261604 227.75500103114067,63.4236612359933 227.01587956279715,63.72282944937056 226.27675809445364,64.07479205334431 225.74881418849364,64.37396026672157 224.9744964597516,64.98989482367408 224.65773011617512,65.3066611672506 224.32336564240185,65.74661442221685 224.11218808001584,66.09857702619061 223.9186086478316,66.59132467175337 223.77782360624258,67.08407231731613 223.74262734584408,67.50642744208439 223.77782360624258,68.3159414312224 224.0593936894206,69.30143672234792 224.4465525537916,70.18134323228169 225.59043101670537,72.39870763731348 225.90719736027938,73.19062349625351 226.08317866226687,73.84175431360326 226.1535711830614,74.70406269333903 226.04798240187088,75.3375953804908 225.81920670928812,75.88313741664881 225.57283288650612,76.23510002062257 225.3616553241226,76.44627758300607 225.02729085034687,76.69265140578807 224.7281226369696,76.86863270777432 223.93620677803085,77.13260466075432 222.93311335670606,77.29098783254258 220.64535643087854,77.43177287413158 219.343094796179,77.60775417611784 218.14642194266747,77.8893242592971 217.05533787035145,78.34687564446261 216.2986182718087,78.75163263903161 215.62988932425966,79.20918402419713 211.8286932013466,82.13047363717519 210.2624596136658,83.25675396989095 208.69622602598503,84.25984739121448 207.51715130267525,84.96377259916075 206.30288031896697,85.57970715611451 202.7128617584374,87.12834261359728 201.74496459751114,87.5858939987628 201.05863751976287,87.9906509933318 200.51309548360612,88.36021172750357 199.82676840585785,88.92335189386083 199.43960954148685,89.32810888842984Z"/>
  </g>
</svg>