<?xml version="1.0" encoding="UTF-8" standalone="no"?>
<svg viewBox="0 0 248.14723926380213 256" xmlns="http://www.w3.org/2000/svg">
  <style>
    g.zone {
      fill: lightgray;
      stroke-width: 2;
      stroke-linecap: square;
      stroke-linejoin: bevel;
      stroke-miterlimit: 3;
      stroke-opacity: 0.8;
      stroke: black;
      fill-opacity: 0.3;
    }
  </style>
  <g class="zone" id="zone">
    <path d="M230.47187272538017,232.0158053447022 230.77799729645292,232.58812519496743 231.23052927108108,233.187064573151 232.32192991577307,234.33170427368145 233.21368410106928,235.17021940314012 233.8126234792547,235.67599043360678 234.31839450972137,236.06197358843727 236.24831028387106,237.2864718727255 237.11344494124899,237.89872101486915 240.01497348445358,240.21461994384936 240.53405427888032,240.69377144639674 240.88010814183147,241.0797546012263 241.14630342102396,241.45242799209672 241.41249870021642,241.91826973068498 241.6254549235723,242.43735052511173 241.7585525631676,242.92981179161922 241.85172091088637,243.6352292814807 241.82510138296618,245.21909119267923 241.85172091088637,245.72486222314586 241.9315794946432,246.12415514193555 241.25278153270094,246.4835187688468 240.5473640428404,246.9493605074341 240.16138088800895,247.3220338983045 239.69553914942261,247.89435374856976 239.40272434230994,248.16054902776318 238.07174794634378,248.905895809504 236.7673910782978,249.8109597587603 236.32816886762976,250.01060621815512 234.9838827077035,250.36996984506544 234.1054382863674,250.75595299989595 233.41333056046506,250.95559945929077 233.04065716959371,251.0487678070086 232.76115212644112,251.06207757096777 231.44348549443507,251.00883851512927 230.55173130913886,251.00883851512927 230.0459602786722,251.11531662680625 229.51356972028537,251.3149630862011 229.11427680149572,251.42144119787807 228.30238119995818,251.5678486014344 227.79661016948964,251.60777789331377 227.11781220754742,251.58115836539451 226.11957991057423,251.30165332224195 225.88000415930006,251.2750337943227 225.49402100447048,251.2750337943227 225.10803784964094,251.3282728501612 224.81522304252826,251.42144119787807 223.97670791306865,251.76749506082925 223.61734428615927,251.8739731725072 223.32452947904662,251.88728293646633 222.5658729333457,251.7941145887485 222.25974836227482,251.80742435270858 221.99355308308046,251.8739731725072 221.43454299677532,252.1268586877405 221.14172818966264,252.20671727149823 220.27659353228472,252.32650514713532 219.5844858063843,252.35312467505457 219.13195383175614,252.47291255069166 218.5463242175308,252.725798065925 217.93407507538717,253.05854216491605 217.5614016845158,253.33804720806862 217.10886970988767,253.72403036289913 216.5498596235825,254.24311115732493 216.39014245606703,254.4294478527606 216.23042528854967,254.76219195175167 216.11063741291446,255.30789227409767 216.00415930123557,255.5075387334925 215.7778933139215,255.70718519288732 215.47176874285063,255.84028283248358 214.8728293646652,255.93345118020142 213.64833108037791,256 213.30227721742676,255.97338047208075 213.10263075803098,255.92014141624225 212.7965061869601,255.77373401268594 212.26411562857328,255.34782156597703 211.9446812935423,255.13486534262208 210.9597587605273,254.6424040761146 210.26765103462498,254.21649162940568 209.841738587917,254.07008422584934 209.62878236456115,254.04346469793012 209.33596755744847,254.0567744618902 208.52407195591096,254.2298013933658 208.0449204533626,254.2830404492043 207.0599979203476,254.21649162940568 206.34127066652698,254.09670375376956 205.94197774773733,253.9369865862531 205.64916294062465,253.71072059893905 205.31641884163358,253.24487886035078 205.10346261827962,252.73910782988415 205.356348133512,252.37974420297382 205.58261412082607,252.02038057606256 205.86211916397863,251.3282728501612 205.95528751169743,250.92897993137152 206.03514609545422,250.40989913694477 206.03514609545422,249.47821565976923 205.98190703961572,248.9990641572209 205.88873869189882,248.55984194655284 205.62254341270636,247.8278049287721 205.39627742539227,247.45513153790168 205.1700114380782,247.17562649474817 204.90381615888384,246.90943121555568 204.63762087969135,246.70978475616087 204.3581158365388,246.56337735260453 203.95882291774913,246.4169699490482 203.58614952687776,246.32380160133036 203.1735468441299,246.2572527815327 202.69439534158155,246.2971820734111 201.98897785171914,246.4835187688468 201.4565872933342,246.69647499220076 201.05729437454454,246.9493605074341 200.56483310803608,247.3353436622646 199.6065301029413,248.1871685556824 198.91442237703896,248.69293958614907 198.488509930331,248.91920557346313 198.06259748362115,249.10554226889883 197.6233752729531,249.22533014453592 197.19746282624325,249.30518872829364 196.6783820318184,249.34511802017204 196.27908911302873,249.34511802017204 195.34740563585223,249.2120203805758 194.24269522720016,248.87927628158474 193.6437558490166,248.65301029427067 192.97826765103449,248.34688572319791 192.49911614848614,248.06738068004532 192.04658417385798,247.74794634501342 191.7005303109068,247.41520224602235 191.40771550379415,247.04252885515194 191.18144951648006,246.6432359363623 191.0084225850045,246.21732348965338 190.58251013829653,244.72662992617174 190.35624415098243,244.12769054798724 190.0235000519895,243.54206093376285 189.58427784132144,243.0762191951746 189.17167515857167,242.79671415202202 188.65259436414493,242.5438286367887 188.0270354580412,242.33087241343472 186.53634189456145,241.91826973068498 185.77768534886053,241.66538421545164 185.0456483310798,241.34594988041974 184.2869917853789,240.90672766975166 183.68805240719533,240.46750545908267 183.1689716127686,239.98835395653526 182.72974940209866,239.49589269002777 181.50525111781138,237.97857959862688 181.09264843506162,237.56597691587808 180.68004575231186,237.19330352500765 180.2807528335222,236.91379848185508 179.84153062285415,236.63429343870158 178.07133201621994,235.7558490173645 177.31267547051903,235.3299365706556 176.4874701050214,234.75761672039036 175.67557450348198,234.05219923052888 175.249662056774,233.62628678381998 174.85036913798436,233.1471352812726 174.5575543308717,232.73453259852283 174.31797857959754,232.321929915774 174.13164188416184,231.86939794114588 174.02516377248486,231.49672455027545 173.71903920141398,230.0592700426323 173.50608297805812,229.52687948424642 173.27981699074402,229.18082562129524 173.09348029531026,228.96786939794126 172.80066548819758,228.68836435478775 172.5078506810849,228.4887178953929 172.10855776229525,228.27576167203895 171.7092648435056,228.1160445045225 170.89736924196617,227.91639804512863 169.7261100135174,227.8232296974108 168.23541645003576,227.83653946136994 166.837891234271,227.92970780908777 165.74649058957903,228.062805448684 164.69501923676734,228.27576167203895 162.53883747530355,228.7948424664657 161.44743683061157,228.9944889258605 160.2362483102825,229.11427680149666 158.91858167827644,229.11427680149666 158.11999584069713,229.0344182177389 157.3347197670779,228.91463034210182 156.0969117188305,228.6218155349901 155.3515649370897,228.3689300197568 154.4598107517935,228.03618592076478 153.23531246750431,227.4505563065404 152.436726629925,227.01133409587138 151.91764583549826,226.69189976083945 151.4251845689917,226.34584589788923 150.83955495476638,225.85338463138174 150.5201206197354,225.53395029634984 150.14744722886405,225.09472808568177 149.85463242175138,224.66881563897286 149.5618176146406,224.10980555266678 149.32224186336643,223.4043880628053 149.24238327960774,222.95185608817715 149.18914422376923,222.3662264739518 149.20245398772934,221.63418945617107 149.30893209940632,219.66434439014205 149.34886139128474,218.30674846625757 149.29562233544624,217.36175522512193 149.14921493189084,216.43007174794639 148.88301965269648,215.55162732660932 148.7099927212228,215.17895393573892 148.43048767806832,214.71311219715065 148.21753145471433,214.40698762607883 147.8847873557233,214.06093376312768 147.17936986586085,213.4486846209831 146.39409379224165,213.06270146615353 145.675366538421,212.83643547883946 144.9699490485586,212.74326713112163 144.14474368306097,212.7565768950817 143.30622855360136,212.9162940625972 142.53426224394224,213.19579910574976 141.855464282,213.52854320474177 140.47124883019535,214.38036809815958 139.9521680357686,214.67318290527132 139.27337007382638,214.95268794842482 138.68774045960103,215.1124051159403 137.9157741499419,215.20557346365814 137.44993241135367,215.2188832276173 136.97078090880723,215.1656441717788 136.1988145991462,215.00592700426333 135.1872725382129,214.65987314131218 134.49516481231058,214.34043880628025 133.55017157117587,213.84797753977276 132.01954871581393,212.9296038265573 130.4090672766971,211.81158365394606 129.77019860663327,211.31912238743857 129.03816158885255,210.69356348133482 128.3859831548286,210.054694811271 127.84028283248357,209.44244566912735 125.73734012685829,206.70063429343824 123.39482166995883,203.89227409795149 122.8491213476119,203.30664448372616 122.18363314962976,202.69439534158252 121.55807424352602,202.2684828948736 121.01237392118098,201.9623583238018 120.22709784755988,201.656233752729 119.74794634501342,201.53644587709192 119.12238743890968,201.44327752937505 118.16408443381488,201.4033482374957 117.37880836019376,201.5098263491727 116.66008110637314,201.72278257252762 116.0877612561079,201.9623583238018 115.75501715711682,202.201934075075 115.43558282208586,202.4814391182276 115.03628990329621,202.94728085681584 114.79671415202203,203.49298117916183 114.67692627638495,204.09192055734633 114.69023604034504,204.83726733908713 114.83664344390043,205.55599459290775 114.99636061141591,206.06176562337535 115.22262659872999,206.6074659457204 115.51544140584265,207.2330248518251 116.32733700738207,208.6172403036288 118.9892897993125,212.7565768950817 119.57491941353783,213.874597067692 120.0008318602458,214.92606842050463 120.26702713944016,215.91099095351964 120.42674430695564,216.74950608297735 120.58646147447112,217.84090672766933 120.85265675366361,220.32983258812513 120.9192055734622,221.1550379536237 120.93251533742229,221.9403140272429 120.9058958095021,222.64573151710533 120.8260372257453,223.24467089528886 120.59977123843123,224.16304460850526 120.26702713944016,224.9083913902461 119.78787563689181,225.61380888010757 119.09576791098948,226.3591556618484 118.33711136529045,226.98471456795212 117.37880836019376,227.6502027659352 113.2128522408235,230.15243839035014 111.84194655297894,230.88447540813087 111.09659977123812,231.21721950712288 110.15160653010152,231.5898928979933 108.44795674326589,232.1222834563792 107.70260996152507,232.28200062389467 106.97057294374434,232.41509826349187 106.05219923052795,232.4949568472496 105.29354268482892,232.50826661120874 102.99095351980786,232.321929915774 101.99272122283277,232.29531038785478 100.99448892585957,232.34854944369326 98.75844858063711,232.56150566704724 97.8001455755423,232.62805448684583 96.49578870749635,232.64136425080594 95.25798065924897,232.56150566704724 93.55433087241335,232.30862015181393 90.70604138504724,231.72299053758954 89.08225018196842,231.32369761879988 87.79120307788254,230.88447540813087 87.24550275553561,230.63158989289755 86.72642196110887,230.35208484974498 85.76811895601406,229.71321617968115 84.91629406259625,228.9944889258605 83.31912238743762,227.47717583445962 82.66694395341558,226.97140480399298 82.22772174274563,226.7318290527188 81.82842882395597,226.59873141312258 81.42913590516632,226.54549235728408 81.00322345845835,226.55880212124322 80.5640012477903,226.66528023292022 80.16470832900065,226.82499740043664 79.80534470208939,227.0512633877507 79.44598107517812,227.3307684309033 79.13985650410724,227.6502027659352 78.82042216907439,228.0761152126441 78.56753665384201,228.52864718727227 78.36789019444623,228.9944889258605 78.20817302693075,229.5801185400849 78.14162420713215,230.08588957055156 78.10169491525376,230.6182801289384 78.11500467921385,231.12405115940504 78.26141208276924,232.33523967973318 78.6873245294772,234.34501403764156 78.87366122491288,235.51627326609128 78.92690028075137,236.4213372153476 78.87366122491288,237.19330352500765 78.75387334927579,237.67245502755506 78.6207757096805,238.04512841842546 78.34127066652793,238.52427992097287 78.07507538733357,238.87033378392402 77.7556410523026,239.17645835499584 77.42289695331152,239.44265363418927 76.98367474264158,239.72215867734184 76.46459394821483,239.97504419257518 75.7991057502327,240.20131017988925 75.09368826037216,240.3477175834456 74.37496100654965,240.4009566392841 73.61630446084872,240.3477175834456 73.04398461058538,240.21461994384936 72.52490381615864,240.00166372049443 72.019132785692,239.72215867734184 70.927732141,239.00343142352028 70.54174898616856,238.80378496412544 70.18238535925919,238.6573775605691 69.70323385671084,238.53758968493298 69.1841530622841,238.47104086513437 68.69169179577754,238.47104086513437 68.09275241759211,238.52427992097287 67.58698138712546,238.6174482686907 67.0545908287405,238.7771654362062 66.50889050639357,238.9901216595611 66.00311947592692,239.22969741083435 65.05812623479221,239.77539773318034 62.54258084641718,241.38587917229907 61.783924300716265,241.81179161900798 61.131745866694224,242.1179161900798 60.31985026515481,242.41073099719247 59.73422065092947,242.5438286367887 59.01549339710885,242.65030674846568 58.416554018923414,242.65030674846568 57.47156077778871,242.5438286367887 56.53987730061221,242.30425288551453 55.27544972444464,241.82510138296712 54.157429551834355,241.26609129666198 53.42539253405363,240.78693979411457 52.8264531558682,240.25454923572775 52.60018716855412,239.98835395653526 52.38723094520014,239.6423000935841 52.24082354164475,239.2829364666738 52.17427472184616,239.03005095143953 52.14765519392597,238.75054590828694 52.160964957886065,238.35125298949728 52.24082354164475,237.96526983466774 52.38723094520014,237.57928667983722 52.58687740459592,237.23323281688607 52.839762919828296,236.87386918997575 53.17250701881936,236.50119579910535 53.55849017365082,236.15514193615417 54.21066860767285,235.6626806696476 55.222210668606145,235.05043152750304 59.747530414889575,232.68129354268433 60.79900176770127,232.08235416449983 61.67744618903927,231.53665384215387 62.60912966621577,230.84454611625247 63.287927628158,230.2322969741079 63.82031818654295,229.593428304045 64.05989393781712,229.2074451492145 64.1929915774143,228.92794010606193 64.31277945305139,228.5685764791516 64.3527087449298,228.32900072787743 64.33939898096969,227.83653946136994 64.2063013413744,227.37069772278264 63.940106062180035,226.91816574815448 63.59405219922888,226.50556306540471 63.128210460642514,226.10627014661506 62.60912966621577,225.74690651970477 60.745762711862774,224.58895705521417 60.133513569719135,224.10980555266678 59.64105230321258,223.64396381407852 59.17521056462433,223.045024435895 58.869085993551565,222.4460850577105 58.69605906207599,221.79390662368658 58.64282000623749,221.11510866174433 58.73598835395627,220.0636373089317 58.98887386918865,218.69273162108715 59.26837891234123,217.7477383799515 59.60112301133229,216.96246230633227 60.01372569408205,216.2570448164708 60.54611625246889,215.55162732660932 61.23822397837122,214.76635125298915 62.86201518144815,213.06270146615353 63.3278569200364,212.5036913798484 63.67391078298756,212.03784964126012 64.01996464593873,211.43891026307566 64.23292086929271,210.933139232609 64.33939898096969,210.4406779661015 64.37932827284999,209.80180929603767 64.2994696890913,209.45575543308746 64.09982322969552,209.01653322241845 63.86024747842324,208.63055006758793 63.60736196318897,208.33773526047622 63.234688572319506,208.0049911614842 62.68898824997257,207.60569824269456 61.53103878548389,206.9269002807523 59.80076947072806,206.11500467921385 55.92762815846857,204.46459394821673 54.450244358947025,203.94551315379 52.34730165332174,203.38650306748482 51.508786523862135,203.12030778829143 50.71020068628471,202.78756368930036 50.058022252260784,202.3882707705107 49.68534886138943,202.0555266715187 49.39253405427865,201.66954351668912 49.20619735884297,201.2835603618586 49.09971924716598,200.8177186232713 49.086409483205884,200.3119475928037 49.16626806696457,199.7928667983779 49.36591452635846,199.18061765623332 49.65872933347112,198.64822709784744 50.00478319642229,198.11583653946153 50.36414682333355,197.6499948008733 51.13611313299267,196.78486014349537 51.66850369137951,196.22585005719023 52.094416138087475,195.85317666631983 52.60018716855412,195.45388374753017 53.06602890714237,195.1610689404175 53.53187064573062,194.93480295310343 54.37038577518834,194.66860767391094 55.32868878028314,194.50889050639452 56.39346989705682,194.42903192263677 58.5762711864389,194.40241239471752 59.80076947072806,194.28262451908043 60.35977955703321,194.17614640740345 60.85224082353976,194.0297390038471 61.29146303420971,193.85671207237152 61.70406571695946,193.63044608505746 62.196526983466015,193.25777269418705 62.622439430173976,192.8052407195589 62.98180305708524,192.24623063325376 63.554122907350475,191.12821046064252 63.90017677030164,190.52927108245802 64.32608921701149,189.97026099615195 64.73869189975936,189.53103878548387 65.3376312779448,189.02526775501724 66.04304876780532,188.55942601642897 66.84163460538464,188.13351356972007 67.56036185920716,187.82738899864825 71.88603514609481,186.27014661536802 72.59145263595533,186.0705001559732 73.31017988977786,185.93740251637695 73.93573879588159,185.9107829884577 74.64115628574213,185.95071228033706 77.20994072995566,186.40324425496522 78.15493397109225,186.4964126026821 79.28626390766263,186.5097223666422 80.43090360819312,186.36331496308586 81.26941873765082,186.15035873973187 82.30758032650432,185.77768534886147 84.19756680877562,184.9524799833629 85.36882603722441,184.36685036913758 86.2871997504408,183.79453051887234 86.93937818446473,183.24883019652634 87.48507850680978,182.6232712904226 87.95092024539802,181.89123427264187 88.2570448164708,181.26567536653815 88.56316938754166,180.45377976499967 89.65457003223365,177.12633877508523 89.84090672766933,176.32775293750592 89.88083601954773,176.00831860247493 89.86752625558763,175.67557450348292 89.78766767183083,175.249662056774 89.58802121243507,174.71727149838813 89.2286575855238,174.17157117604214 88.62971820734026,173.58594156181775 88.04408859311492,173.1334095871896 87.41852968701119,172.77404596027833 86.64656337735207,172.37475304148867 84.29073515649252,171.2833523967967 83.4389102630747,170.8175106582094 82.78673182905267,170.40490797545962 82.16117292294894,169.93906623687232 81.53561401684331,169.36674638660708 81.02984298637665,168.78111677238175 80.5640012477903,168.07569928252028 80.17801809295885,167.29042320890105 79.84527399396778,166.3454299677654 79.6190080066537,165.3738171987105 79.41936154725981,164.05615056670445 79.20640532390395,162.0863055006754 79.09992721222696,160.6887802849116 79.08661744826686,159.79702609961538 79.17978579598565,158.05344702090042 79.13985650410724,157.26817094728025 79.03337839242836,156.8688780284906 78.90028075283307,156.56275345741878 78.6340854736387,156.11022148279062 78.36789019444623,155.77747738379955 78.07507538733357,155.52459186856623 77.55599459290681,155.15191847769583 77.09015285432046,154.8857231985024 76.6775501715707,154.68607673910756 75.89227409795149,154.39326193199489 73.31017988977786,153.55474680253718 72.47166476032014,153.20869293958603 71.63314963086053,152.82270978475552 70.54174898616856,152.23708017053113 68.30570864094798,150.82624519080818 67.34740563585318,150.3071643963814 66.86825413330483,150.12082770094574 66.41572215867667,150.00103982530865 65.80347301653303,149.90787147759175 65.244462930226,149.88125194967253 64.57897473224386,148.84309036081902 64.43256732868848,148.48372673390872 64.3527087449298,148.1110533430383 64.3926380368082,146.9797234064679 64.2861599251312,146.008110637413 64.47249662056689,145.129666216075 64.48580638452698,144.49079754601212 64.40594780076829,144.05157533534313 64.2994696890913,143.83861911198915 64.16637204949411,143.6922117084328 63.56743267131057,143.22636996984457 63.18144951648101,142.86700634293425 62.68898824997257,142.3079962566291 62.43610273474019,141.9220131017986 62.3163148591031,141.62919829468592 62.28969533118291,141.03025891650145 62.103358635749125,140.16512425912447 61.82385359259466,139.37984818550433 63.54081314339038,138.43485494436865 64.04658417385703,138.1154206093377 64.47249662056689,137.70281792658793 64.72538213580115,137.38338359155603 64.97826765103353,136.95747114484712 65.15129458250911,136.62472704585605 65.31101175002459,136.19881459914714 65.40418009774338,135.70635333263965 65.44410938962177,135.30706041385 65.43079962566168,134.86783820318195 65.35094104190489,134.2955183529167 65.2311531662678,133.8163668503693 65.04481647083212,133.35052511178105 64.69876260788095,132.71165644171722 64.24623063325281,132.08609753561348 63.83362795050305,131.68680461682382 63.620671727149066,131.5537069772276 63.3145471560763,131.39398980971208 62.98180305708524,131.30082146199425 62.64905895809417,131.274201934075 61.3979411458867,131.380680045752 60.54611625246889,131.36737028179286 59.76084017884967,131.26089217011491 59.161900800664235,131.11448476655858 58.27014661536803,130.76843090360836 57.165436206715945,130.16949152542387 55.91431839450848,129.7169595507957 54.7164396381395,129.15794946448963 53.34553395029494,128.5856296142244 52.89300197566679,128.3726733908704 52.507018820837224,128.13309763959623 52.33399188936165,127.94676094416151 52.21420401372456,127.74711448476667 51.88145991473349,126.89528959134887 51.72174274721801,126.6024747842362 51.45554746802364,126.26973068524514 50.53717375480913,125.32473744410947 50.68358115836452,125.16502027659305 50.869917853800196,124.79234688572264 51.029635021315684,124.31319538317524 51.24259124466966,123.28834355828184 51.442237704065434,122.59623583237952 51.66850369137951,121.98398669023588 51.97462826245039,121.41166683997064 52.187584485806255,121.09223250493872 52.53363834875553,120.69293958614907 52.8264531558682,120.42674430695659 53.17250701881936,120.20047831964251 53.53187064573062,120.01414162420683 53.904544036600086,119.89435374856974 54.197358843712756,119.84111469273125 54.583341998544206,119.814495164812 55.16897161276765,119.90766351252985 55.71467193511459,120.08069044400543 56.31361131329813,120.37350525111715 57.67120723718259,121.14547156077722 58.36331496308492,121.50483518768847 59.08204221690744,121.81095975876029 59.69429135905108,121.99729645419502 60.39970884891161,122.13039409379222 61.07850681085573,122.13039409379222 61.75730477279796,122.02391598211523 62.515961318496984,121.7444109389617 63.101590932722324,121.41166683997064 63.54081314339038,121.03899344910023 63.90017677030164,120.61308100239133 64.2196111053326,120.00083186024769 64.40594780076829,119.34865342622375 64.45918685660678,118.81626286783786 64.45918685660678,118.31049183737122 64.3926380368082,116.56691275865624 64.41925756472838,116.0611417281896 64.48580638452698,115.55537069772295 64.64552355204246,115.03628990329621 64.85847977539645,114.57044816470795 65.1646043464692,114.13122595403989 65.55058750129876,113.73193303525024 65.93657065612832,113.39918893625823 66.37579286679828,113.09306436518641 67.42726421960997,112.48081522304277 68.79816990745454,111.85525631693808 70.049287719662,111.40272434230994 71.0741395445554,111.17645835499586 72.08568160548869,111.08329000727896 73.13715295830228,111.10990953519821 74.21524383903416,111.25631693875455 75.18685660808906,111.48258292606862 76.37142560049794,111.88187584485829 77.39627742539133,112.36102734740568 78.47436830612322,113.01320578142867 79.39274201933962,113.70531350733098 80.77695747114427,114.92981179161922 81.61547260060199,115.79494644899617 82.32089009046442,116.68670063429333 82.68025371737379,117.29894977643697 82.93313923260806,117.87126962670222 83.17271498388223,118.56337735260453 83.30581262347752,119.17562649474912 83.49214931891319,120.40012477903734 83.97130082146154,125.20494956847239 84.27742539253242,127.5740875532911 84.46376208796809,128.51908079442674 84.70333783924227,129.4374545076422 85.00946241031504,130.32920869293935 85.328896745346,131.04793594676093 85.95445565144973,132.09940729957358 86.2605802225225,132.51200998232238 86.73973172506896,133.05771030466838 87.49838827076988,133.77643755848996 89.2020380576055,135.22720183009224 90.10710200686181,136.09233648747016 90.83913902464253,136.93085161692787 91.97046896121292,138.474784236248 92.39638140792276,138.95393573879542 92.9820110221481,139.3931579494644 93.55433087241335,139.6859727565771 93.80721638764572,139.73921181241556 94.24643859831377,139.79245086825406 94.60580222522503,139.7658313403348 94.88530726837762,139.69928252053623 95.12488301965178,139.6061141728184 95.40438806280436,139.4330872413428 95.57741499427993,139.27337007382732 95.75044192575552,139.04710408651326 95.8835395653527,138.74097951544144 95.97670791306959,138.40823541644943 96.21628366434376,136.50493917021896 96.38931059581935,135.6264947488819 96.69543516689022,134.58833316002935 97.05479879380148,133.6832692107721 97.73359675574372,132.28574399500832 99.14443173546667,129.7701986066342 100.14266403244176,127.85359259644366 100.79484246646379,126.80212124363102 101.40709160860932,126.0700842258503 102.00603098679287,125.48445461162497 102.89778517209096,124.80565664968273 103.76291982946698,124.28657585525599 104.5615056670463,123.92721222834568 105.5863574919397,123.62108765727291 106.5047312051561,123.42144119787808 107.60944161380819,123.2750337943227 108.90048871789405,123.2084849745241 110.41780180929588,123.2617240303626 111.93511490069582,123.46137048975743 113.37256940833898,123.76749506082925 115.1826973068516,124.31319538317524 116.1410003119464,124.6592492461264 117.55183529166935,125.23156909639164 121.63793282728471,127.0683165228235 123.7674950608283,127.97338047208075 125.25818862430994,128.55901008630514 130.07632317770603,130.34251845689946 132.15264635541112,131.22096287823652 133.17749818030453,131.72673390870315 134.2955183529148,132.36560257876698 135.37360923364858,133.07102006862848 136.54486846209736,133.92284496204627 137.42331288343536,134.60164292398852 138.32837683269167,135.37360923364858 141.0568784444207,137.83591556618512 141.72236664240282,138.38161588853018 142.21482790891127,138.70105022356208 142.78714775917462,138.9672455027555 143.05334303836898,139.03379432255315 143.21306020588446,138.94062597483625 143.39939690132016,138.7675990433607 143.62566288863422,138.474784236248 143.8519288759483,137.98232296974052 143.9450972236652,137.34345429967763 143.9184776957469,136.74451492149313 143.81199958406802,136.1588853072678 143.54580430487553,135.4135385255279 143.25298949776285,134.8811479671411 142.70728917541783,134.14911094936036 142.1083497972324,133.51024227929653 141.36300301549156,132.81813455339514 140.48455859415546,132.11271706353273 139.56618488093906,131.47384839346984 138.54133305604566,130.834979723406 134.3354476447951,128.38598315482957 131.58032650514588,126.64240407611459 129.33097639596522,125.28480815223014 128.83851512945677,124.95206405323907 128.39929291878872,124.61931995424706 128.07985858375775,124.29988561921608 127.89352188832207,124.03369034002266 127.74711448476478,123.78080482478934 127.6539461370479,123.50129978163677 127.560777789331,123.02214827908936 127.50753873349251,121.61131329936546 127.32120203805682,120.81272746178615 127.25465321825823,120.66632005822981 127.06831652282256,120.38681501507725 126.56254549235591,119.8677342206505 126.20318186544654,119.60153894145803 125.79057918269679,119.3885827181031 125.33804720806863,119.21555578662752 124.79234688572168,119.08245814703128 123.70094624102971,118.9493605074341 120.93251533742229,118.74971404803927 119.814495164812,118.58999688052378 119.09576791098948,118.4169699490482 118.16408443381488,118.08422585005714 117.43204741603226,117.71155245918672 116.79317874597032,117.25902048455858 116.26078818758347,116.75324945409193 115.84818550483372,116.24747842362433 115.52875116980276,115.66184880939994 115.27586565456848,115.03628990329621 115.14276801497319,114.46397005303096 115.0629094312145,113.79848185504788 115.04959966725441,113.1463034210249 115.19600707081169,111.08329000727896 115.2093168347699,110.20484558594096 115.12945825101309,109.45949880420109 114.95643131953751,108.70084225850016 114.66361651242485,107.99542476863869 114.27763335759528,107.35655609857486 113.70531350733005,106.69106790059273 112.85348861391223,105.91910159093266 111.77539773318034,105.13382551731249 111.00343142351933,104.66798377872519 110.47104086513438,104.3884787355726 109.3796402204424,103.93594676094351 108.78070084225696,103.74961006550878 108.16845170011332,103.61651242591255 106.97057294374434,103.45679525839611 105.74607465945707,103.40355620255762 104.42840802745101,103.45679525839611 101.73983570760039,103.68306124571019 100.70167411874691,103.69637100967029 100.03618592076477,103.66975148175104 99.30414890298404,103.60320266195245 98.49225330144463,103.45679525839611 97.73359675574372,103.25714879900129 96.8551523344076,102.93771446397031 96.05656649682828,102.53842154518065 95.29790995112737,102.04596027867316 94.59249246126494,101.42040137256942 94.11334095871848,100.82146199438493 93.76728709576733,100.16928356036195 93.55433087241335,99.49048559841972 93.51440158053305,99.05126338775072 93.52771134449316,98.71851928875965 93.59426016429174,98.34584589788925 93.67411874804854,98.07965061869582 93.78059685972742,97.8134553395024 93.9935530830814,97.45409171259209 94.45939482166965,96.9083913902461 95.08495372777338,96.40262035977945 95.8303005095142,95.96339814911045 96.73536445877052,95.52417593844238 99.01133409587138,94.59249246126589 101.34054278881074,93.35468441301852 102.15243839035014,92.9820110221481 102.83123635229238,92.72912550691478 103.49672455027451,92.5560985754392 104.13559322033834,92.42300093584296 104.81439118228057,92.31652282416502 105.66621607569839,92.24997400436737 106.3583238016007,92.23666424040728 107.91556618487905,92.31652282416502 109.56597691587807,92.52947904751996 110.92357283976253,92.83560361859178 112.08152230425122,93.22158677342227 113.09306436518641,93.63418945617109 114.42404076115068,94.27305812623491 116.76655921805013,95.48424664656304 118.0309867942177,96.04325673286912 119.10907767494959,96.4425496516588 120.42674430695564,96.77529375064985 121.51814495164763,96.94832068212544 122.95559945929078,97.08141832172167 127.32120203805682,97.334303836955 128.75865654569998,97.36092336487425 129.37090568784362,97.30768430903575 129.96984506602715,97.18789643339866 130.502235624414,97.02817926588318 131.18103358635622,96.76198398668976 131.84652178433836,96.3760008318602 132.57855880212097,95.91015909327194 134.92107725902042,94.12665072267858 135.69304356867954,93.60756992825183 136.2520536549847,93.27482582926078 136.93085161692693,92.92877196630961 137.71612769054616,92.6093376312777 138.66112093168275,92.32983258812511 139.44639700530198,92.18342518456879 140.85723198502492,92.05032754497255 142.58750129978074,91.99708848913406 144.01164604346377,92.0103982530932 145.19621503587265,92.13018612873029 146.6869085993543,92.40969117188287 154.3267131121963,94.33960694603256 154.95227201830005,94.45939482166965 155.5645211604437,94.53925340542739 156.03036289903193,94.56587293334664 156.4828948736601,94.53925340542739 157.1084537797638,94.41946552979125 157.58760528231215,94.23312883435557 158.05344702090042,93.98024331912225 158.46604970364828,93.66080898409034 158.89196215035813,93.24820630134153 159.2113964853891,92.86222314651101 160.1031506706872,91.61110533430355 160.47582406155666,91.14526359571529 160.88842674430643,90.7326609129665 161.40750753873317,90.34667775813598 162.0863055006754,90.01393365914491 162.80503275449604,89.78766767183083 163.65685764791382,89.6545700322346 164.53530206925186,89.62795050431535 165.1874805032739,89.66787979619374 165.95944681293489,89.78766767183083 166.66486430279542,89.94738483934727 167.6630965997705,90.25350941041908 169.07393157949346,90.81251949672424 172.13517729021356,92.19673494852888 173.34636581054264,92.64926692315704 174.29135905167922,92.94208173026875 175.249662056774,93.16834771758283 175.98169907455474,93.28813559321992 176.86014349589087,93.35468441301852 177.47239263803638,93.32806488509927 177.96485390454293,93.26151606530067 178.3375272954143,93.18165748154293 178.90984714567765,92.9820110221481 179.50878652386308,92.72912550691478 179.08287407715324,92.6093376312777 178.57710304668657,92.32983258812511 178.2576687116556,92.10356660081105 177.91161484870446,91.75751273785988 177.4857024019946,91.41145887490872 176.6072579806585,90.81251949672424 176.24789435374723,90.32005823021673 175.72881355932049,89.84090672766933 175.4226889882496,89.49485286471817 175.249662056774,89.10886970988861 175.20973276489374,88.7228865550581 175.28959134865244,88.44338151190553 175.5158573359665,88.2570448164708 176.4076115212627,87.8178226058018 177.3792242903176,87.19226369969806 177.76520744514906,87.00592700426333 178.3375272954143,86.81959030882764 179.74836227513725,86.48684620983659 180.25413330560392,86.44691691795724 181.59841946552828,86.60663408547367 182.1308100239151,86.61994384943281 182.76967869397893,86.48684620983659 184.0207965061864,86.11417281896617 184.31361131329908,86.07424352708682 184.65966517625023,86.08755329104692 185.67120723718355,86.18072163876477 186.48310283872294,86.35374857024034 187.93386711032431,86.8462098367469 189.45118020172424,87.41852968701214 190.09004887178807,87.60486638244781 191.26130810023875,87.7778933139234 192.51242591244622,87.8178226058018 191.56743267130963,87.44514921493138 190.56920037433642,86.92606842050559 188.61266507226654,86.313819278361 187.33492773214076,85.75480919205586 186.8557762295924,85.59509202453943 186.46979307476286,85.52854320474178 186.0705001559732,85.52854320474178 184.83269210772582,85.71487990017651 184.3402308412174,85.70157013621736 184.00748674222632,85.62171155245868 183.1955911406869,85.31558698138686 182.83622751377754,85.22241863366901 182.37038577518928,85.18248934179061 181.1192679629818,85.14256004991127 180.4005407091593,85.02277217427418 179.89476967869265,84.83643547883945 179.2159717167504,84.46376208796904 178.85660808983914,84.30404492045356 177.4058438182378,83.79827388998596 176.91338255173125,83.65186648642963 176.50077986898148,83.59862743059114 175.5957159197252,83.57200790267188 174.3978371633562,83.39898097119631 173.50608297805812,83.3590516793179 173.13340958718865,83.29250285951932 172.521160445045,83.06623687220524 172.02869917853656,82.78673182905267 171.6693355516272,82.48060725798085 171.42975980035303,82.13455339502968 171.32328168867602,81.81511905999777 171.32328168867602,81.5356140168452 171.6693355516272,80.72371841530578 171.855672247061,79.87189352188797 172.20172611001215,78.64739523759975 172.37475304148774,78.1948632629716 172.5610897369234,77.82218987210119 172.93376312779287,77.23656025787679 173.46615368617972,76.57107205989371 174.47769574711302,75.43974212332333 174.90360819382286,74.84080274513884 175.30290111261252,74.13538525527737 175.5957159197252,73.20370177810086 175.76874285120076,72.77778933139196 175.98169907455474,72.36518664864315 176.23458458978712,71.96589372985349 176.5407091608599,71.59322033898309 176.83352396797255,71.28709576791127 177.21950712280213,70.95435166891924 177.64541956951197,70.66153686180658 178.04471248830163,70.4485806384526 178.48393469896968,70.24893417905777 179.02963502131473,70.0625974836221 179.495476759903,69.94280960798595 180.64011646043346,69.75647291255028 181.93116356451932,69.70323385671178 183.1955911406869,69.75647291255028 184.43339918893616,69.87626078818737 185.77768534886053,70.08921701154229 188.18675262555857,70.5018196942911 189.18498492253178,70.63491733388733 190.06342934386979,70.68815638972677 190.9152542372876,70.63491733388733 191.39440573983404,70.54174898617045 191.8203181865439,70.40865134657327 192.23292086929365,70.19569512321928 192.53904544036453,69.9561193719451 192.7386918997603,69.74316314859112 192.8984090672758,69.47696786939771 192.97826765103449,69.09098471456814 192.97826765103449,68.75824061557613 192.92502859519408,68.43880628054421 192.8052407195589,68.15930123739165 192.48580638452603,67.82655713840057 192.05989393781806,67.46719351149027 191.64729125506832,67.20099823229684 189.97026099615098,66.25600499116119 188.8921701154191,65.53727773733962 188.0004159301229,64.81855048351899 185.9640220442962,63.074971404804025 185.0589580950399,62.35624415098245 183.60819382343666,61.31808256212896 179.85484038681423,58.78922740979477 176.79359467609416,56.499948008734755 176.3809919933444,56.167203909742746 176.08817718623175,55.861079338670926 175.79536237911907,55.488405947800516 175.58240615576509,55.075803265051704 175.4226889882496,54.596651762503356 175.32952064053083,54.050951440158315 175.28959134865244,53.385463242175234 175.32952064053083,52.799833627949894 175.4093792242895,52.187584485806255 175.64895497556367,50.84329832588095 175.70219403140217,50.23104918373731 175.67557450348198,49.884995320786146 175.6090256836834,49.55225122179414 175.4759280440881,49.17957783092467 175.31621087657263,48.833523967973505 175.03670583341815,48.380991993345354 174.4910055110731,47.64895497556368 171.20349381303893,43.74919413538494 170.45814703129813,43.07039617344271 170.00561505666997,42.724342310491544 168.60808984090522,41.80596859727514 168.26203597795407,41.52646355412257 167.9692211708414,41.246958510969996 167.76957471144752,40.98076323177658 167.55661848809353,40.59478007694702 167.42352084849634,40.22210668607661 167.35697202869775,39.782884475407606 167.34366226473765,39.29042320890105 167.39690132057805,38.89113029011139 167.47675990433484,38.491837371321736 167.63647707185032,37.97275657689499 168.10231881043856,36.92128522408235 168.46168243734982,36.26910679005937 168.807736300301,35.736716231672524 169.6063221378803,34.72517417073923 170.07216387646855,34.23271290423173 170.6844130186122,33.64708329000734 171.6693355516272,32.84849745242802 174.07840282832336,31.07829884579381 174.5309348029515,30.6923156909633 174.78382031818578,30.426120411770828 175.11656441717685,29.960278673182575 175.30290111261252,29.481127170635176 175.32952064053083,29.228241655401852 175.30290111261252,28.828948736612194 175.22304252885382,28.48289487366103 175.12987418113693,28.230009358427704 175.75543308724068,28.429655817822535 176.32775293750592,28.669231569095764 176.84683373193266,28.94873661224928 177.63210980555186,29.507746698554424 177.84506602890585,29.600915046272263 178.11126130809834,29.64084433815066 178.28428823957393,29.62753457419151 178.53717375480818,29.534366226473672 178.97639596547623,29.214931891441754 179.176042424872,29.015285432046927 179.4422377040645,28.509514401580276 179.57533534366166,28.389726525943193 179.74836227513725,28.363106998023945 180.99948008734472,28.416346053862437 181.2523656025771,28.37641676198404 181.54518040968978,28.2965581782263 181.9577830924395,28.07029219091222 182.3970053031076,27.710928564000962 182.82291774981744,27.218467297493465 183.70136217115356,26.08713736092308 184.1272746178634,25.634605386294925 184.26037225746057,25.528127274617937 184.59311635645165,25.34179057918226 185.1787459706751,24.72954143703862 185.69782676510184,24.316938754288866 185.7909951128206,24.19715087865178 186.0305708640929,23.717999376104377 186.24352708744877,23.451804096911903 186.52303213060134,23.238847873556978 186.78922740979382,23.13236976187999 187.9604866382445,22.972652594363556 188.30654050119566,22.972652594363556 188.53280648850975,22.99927212228375 190.54258084641623,24.915878132473352 191.08828116876316,25.47488821877944 191.7138400748669,26.24685452843951 191.91348653426078,26.566288863470483 192.13975252157488,27.005511074139484 192.36601850888894,27.67099927212256 192.47249662056592,28.34979723406479 192.48580638452603,29.081834251845518 192.39263803680913,29.920349381304177 192.12644275761667,31.10491837371306 191.8602474784223,31.93012373921162 191.59405219922982,32.54237288135621 190.955183529166,33.84672974940217 190.76884683373032,34.32588125194957 190.67567848601342,34.92482063013406 190.7022980139317,35.417281896641555 190.7954663616505,35.763335759591776 190.98180305708618,36.20255797026078 191.31454715607725,36.76156805656592 191.60736196318993,37.17417073931567 193.32432151398373,39.29042320890105 194.60205885411142,40.714567952584105 195.37402516377242,41.393365914526335 196.06613288967287,41.83258812519439 196.79816990745547,42.12540293230706 198.64822709784647,42.6977227825723 199.27378600395022,42.97722782572487 199.84610585421547,43.33659145263613 200.25870853696523,43.68264531558635 200.64469169179478,44.1085577622962 201.08391390246283,44.69418737652059 201.97566808776094,46.025163772485804 202.3483414786304,46.5043152750332 202.66777581366136,46.850369137984366 203.04044920453273,47.183113236976375 203.65269834667637,47.64895497556368 204.3847353644571,48.128106478111086 205.0768430903594,48.487470105022346 205.71571176042326,48.71373609233642 206.28803161068848,48.86014349589276 207.0599979203476,48.993241135488994 207.83196423000862,49.073099719246734 208.79026723510344,49.139648539045325 210.0680045752311,49.16626806696457 211.9180617656221,49.152958303004475 213.18248934178968,49.08640948320683 213.51523344078075,49.139648539045325 213.7281896641347,49.219507122803066 213.96776541540888,49.39253405427865 214.36705833419856,49.751897681188964 215.87106166164028,51.32244982842835 216.36352292814684,51.748362275137254 216.80274513881488,51.96131849849218 217.93407507538717,52.24082354164475 218.43984610585383,52.480399292918925 219.27836123531154,53.05271914318416 220.03701778101245,53.65165852136865 220.34314235208333,53.98440262035972 220.63595715919598,54.503483414786466 220.84891338254997,54.6898201102212 221.07517936986406,54.79629822189819 221.7140480399279,54.95601538941462 222.06010190287904,55.08911302901085 222.5924924612659,55.44847665592117 223.15150254757103,55.92762815846952 223.4310075907236,56.127274617864344 224.34938130394,56.60642612041175 225.17458666943762,56.952479983362906 225.58718935218738,57.20536549859624 225.76021628366297,57.36508266611172 225.90662368722025,57.551419361547396 226.3724654258066,58.4964126026821 226.73182905271787,58.97556410523045 227.83653946136994,59.94717687428535 229.1808256212943,61.26484350629046 229.80638452739805,61.75730477279796 231.0841218675257,62.66236872205427 231.74961006550782,63.06166164084392 232.308620151813,63.314547156077246 233.50649890818195,63.71384007486691 234.14536757824578,63.96672559010023 234.59789955287394,64.19299157741526 234.8774045960265,64.40594780076924 235.60944161380723,65.15129458251006 235.9821150046786,65.65706561297671 236.12852240823398,65.96319018404853 236.34147863158796,66.6419881459917 236.54112509098374,67.06790059270061 236.95372777373348,67.79993761048132 237.52604762399872,68.65176250389914 237.72569408339263,68.89133825517331 237.9519600707067,69.1042944785273 239.12321929915737,69.88957055214746 239.29624623063293,70.0759072475822 239.38941457834983,70.22231465113853 239.45596339814844,70.5018196942911 239.44265363418833,70.95435166891924 239.12321929915737,72.71124051159431 238.8836435478832,73.39003847353655 238.89695331184328,73.60299469689052 238.9768118956001,73.7893313923262 239.21638764687427,74.04221690755952 239.97504419257518,74.4282000623891 240.98658625350848,75.20016637204915 241.47904752001503,75.63938858271815 241.7984818550479,75.99875220962848 241.97150878652346,76.3048767807003 242.21108453779576,76.91712592284487 242.45066028906993,77.39627742539228 243.83487574087457,79.84527399396872 244.26078818758253,80.4974524279917 244.83310803784778,81.08308204221704 245.04606426120364,81.34927732140952 246.08422585005525,83.19933451180148 246.31049183737122,83.75834459810757 246.90943121555475,85.874597067692 247.09576791099042,86.35374857024034 247.3353436622646,86.69980243319056 247.56160964957868,86.88613912862624 247.86773422064957,87.00592700426333 248.14723926380213,87.01923676822247 247.97421233232654,87.08578558802107 247.80118540085095,87.20557346365815 247.65477799729558,87.3386711032544 247.5083705937383,87.55162732660932 247.3885827181031,87.88437142560038 247.3619631901829,88.48331080378487 247.3220338983045,88.74950608297829 247.25548507850593,88.89591348653369 247.09576791099042,89.13548923780786 246.4835187688449,89.68118956015385 245.93781844649985,90.22688988249983 245.12592284496043,90.87906831652282 244.23416865966422,91.81075179369837 243.12945825101215,92.52947904751996 242.6902360403441,92.88884267443026 242.39742123323143,93.31475512113917 241.95819902256338,94.29967765415417 241.6786939794108,94.63242175314524 241.30602058853944,94.9119267962978 240.29447852760615,95.4576271186438 240.04159301237377,95.67058334199872 239.8951856088165,95.87022980139355 239.52251221794702,96.62888634709353 238.9768118956001,97.30768430903575 238.7106166164076,97.73359675574466 238.23146511385926,98.8383071643958 238.19153582198086,99.07788291566997 238.20484558594097,99.31745866694413 238.29801393365784,99.59696371009672 238.64406779660902,100.24914214411969 238.68399708848742,100.40885931163518 238.6706873245292,100.56857647915162 238.51097015701183,100.87470105022344 238.03181865446538,101.32723302485158 237.8454819590297,101.62004783196426 237.7922429031912,101.81969429135908 237.7922429031912,102.09919933451165 237.92534054278838,102.96433399188956 237.92534054278838,103.25714879900129 237.7390038473527,103.54996360611395 237.59259644379733,103.66975148175104 237.40625974836163,103.74961006550878 237.06020588541048,103.82946864926652 236.36809815950815,103.88270770510502 235.42310491837344,104.04242487262145 234.89071435998662,104.0557346365806 233.69283560361762,103.88270770510502 232.24207133201438,103.5898928979933 230.91109493605012,103.45679525839611 230.53842154517875,103.37693667463837 230.25891650202618,103.25714879900129 229.89955287511683,102.99095351980881 228.91463034210182,101.95279193095531 228.68836435478775,101.67328688780275 228.51533742331216,101.39378184465018 228.36893001975488,101.0876572735774 228.169283560361,100.26245190807884 228.0761152126441,100.07611521264411 227.90308828116852,99.99625662888637 227.2642196111047,99.84984922533003 227.0645731517089,99.73006134969295 226.87823645627515,99.57034418217746 226.41239471768688,98.97140480399298 225.91993345117845,98.43901424560613 225.58718935218738,97.95986274305874 225.4274721846719,97.86669439534184 225.00155973796393,97.80014557554325 224.80191327856815,97.69366746386626 224.61557658313248,97.46740147655218 224.3227617760198,96.98824997400384 224.01663720494895,96.68212540293202 223.69720286991608,96.48247894353719 223.3112197150865,96.33607153998085 223.00509514401566,96.25621295622311 222.72559010086118,96.24290319226397 222.21981907039452,96.28283248414236 221.27482582925984,96.60226681917428 219.8240615576566,96.98824997400384 218.97223666423878,97.334303836955 217.18872829364636,98.2393677862113 216.5498596235825,98.61204117708172 215.87106166164028,99.09119267963007 215.51169803472902,99.42393677862113 214.965997712384,100.08942497660327 214.58001455755252,100.48871789539292 214.31381927836006,100.71498388270794 213.9544556514488,100.90132057814267 213.47530414890232,101.03441821773892 212.57024019964604,101.1009670375375 211.9446812935423,101.22075491317459 209.069772278256,101.99272122283466 208.27118644067667,102.27222626598723 207.76541541021004,102.51180201726046 207.0999272122279,102.95102422792947 206.91359051679223,103.0441925756473 206.88697098887204,103.24383903504213 206.88697098887204,103.56327337007404 206.96682957263073,103.81615888530737 207.80534470208843,104.4949568472496 207.9517521056457,104.66798377872519 208.05823021732272,104.85432047415992 208.1114692731612,105.0938962254341 208.1247790371213,105.58635749194158 208.1780180929598,105.86586253509415 208.53738171986916,106.85078506810821 208.67047935946636,107.13029011126078 208.81688676302363,107.3299365706556 208.9233648747006,107.42310491837345 209.2294894457715,107.55620255796968 209.9349069356339,107.99542476863869 210.8133513569719,108.3680981595091 211.85151294582352,109.00696682957198 212.25080586461317,109.36633045648324 212.51700114380753,109.7523136113128 212.58354996360424,109.93865030674849 212.59685972756432,110.08505771030482 212.45045232400895,110.7239263803677 212.45045232400895,110.92357283976253 212.51700114380753,111.13652906311746 212.8098159509183,111.60237080170477 213.44868462098214,112.34771758344559 213.8612873037319,113.01320578142867 214.16741187480466,113.70531350733098 214.39367786211875,114.5438286367887 214.67318290527132,114.96974108349761 214.7929707809084,115.31579494644878 214.8462098367469,115.66184880939994 214.859519600707,116.0611417281896 214.7397317250699,117.23240095663932 214.72642196110982,117.72486222314588 214.7530414890281,118.58999688052378 214.859519600707,119.24217531454677 214.89944889258538,120.04076115212608 215.07247582406097,120.54653218259273 215.61817614640603,121.41166683997064 215.8045128418417,121.89081834251805 215.7512737860032,121.99729645419502 215.5383175626492,122.11708432983211 215.51169803472902,122.39658937298469 215.43183945097033,122.58292606842036 214.9260684205037,123.12862639076636 214.26058022252155,123.7009462410316 213.27565768950657,124.25995632733674 213.04939170219248,124.48622231465082 212.996152646354,124.64593948216725 212.996152646354,124.75241759384424 213.12925028595117,125.47114484766581 213.08932099407278,125.87043776645547 212.9695331184357,126.18987210148644 212.66340854736293,126.73557242383244 212.41052303212865,127.29458251013853 212.1443277529362,128.14640740355634 211.98461058542068,128.43922221066805 211.0529271082442,129.31766663200605 210.34750961838367,130.1428719975046 209.9748362275123,130.27596963710087 209.53561401684425,130.51554538837408 209.1363210980546,130.7817406675675 208.8701258188621,131.0080066548816 208.28449620463678,131.67349485286468 207.68555682645135,132.57855880212097 206.96682957263073,133.93615472600544 205.51606530102748,137.01071020068562 203.90558386191063,140.09857543932588 203.4131225954022,141.21659561193712 203.08037849641113,142.18820838099202 202.92066132889565,142.93355516273283 202.86742227305714,143.39939690132016 202.85411250909704,143.8519288759483 202.90735156493554,144.54403660185062 203.00051991265434,144.96994904855953 203.1469273162097,145.4224810231877 203.3465737756055,145.87501299781584 203.61276905479798,146.34085473640408 204.2383279609017,147.23260892170126 205.3430383695538,148.5768950816256 205.68909223250304,149.0826661120932 205.90204845585893,149.5085785588021 206.0617656233744,149.89456171363167 206.1815534990115,150.3071643963814 206.56753665384107,152.43672662992594 206.84704169699364,153.50150774669868 207.08661744826782,154.15368618072168 207.37943225538046,154.84579390662304 207.69886659041146,155.48466257668687 208.1247790371213,156.20338983050846 209.0830820422161,157.49443693459432 209.74857024019823,158.29302277217366 210.62701466153624,159.2513257772694 211.42560049911555,160.00998232296936 213.51523344078075,161.72694187376507 214.07424352708588,162.28595196007024 214.48684620983565,162.7917229905378 214.965997712384,163.59030882811618 215.52500779868913,164.8946656961631 216.20380576063135,165.95944681293489 216.5099303317041,166.518456899241 217.10886970988767,167.94260164292405 217.6279505043144,168.99407299573667 218.00062389518388,169.64625142975964 218.37329728605522,170.13871269626716 219.01216595611905,170.84413018612864 219.33160029115004,171.1369449932413 220.99532078610724,172.0420089424976 221.52771134449222,172.38806280544878 222.03348237496076,172.7607361963192 222.75220962878137,173.41291463034216 223.4443173546837,174.1981907039614 224.1896641364245,175.32952064053177 224.80191327856815,176.4608505771031 225.36092336487332,177.6853488613913 225.70697722782447,178.63034210252698 225.84007486742163,179.12280336903353 225.94655297909864,179.7350525111781 225.99979203493714,180.7465945721114 225.91993345117845,181.75813663304564 225.4274721846719,185.5514193615474 225.3076843090348,186.7626078818755 225.2810647811165,187.44140584381776 225.3076843090348,188.12020380575999 225.3742331288334,188.77238223978392 225.49402100447048,189.39794114588764 225.85338463138174,190.52927108245802 226.3724654258066,191.68722054694766 228.2225226161995,195.3873349277316 230.35208484974498,199.1007590724756 230.87116564416982,200.0590620775704 231.28376832691958,200.89757720702906 231.69637100966935,201.89580950400318 231.90932723302333,202.64115628574402 232.02911510866042,203.42643235936325 232.06904440053881,204.2649474888219 232.0424248726205,206.02183633149602 232.0557346365806,206.780492877196 232.1355932203374,207.55245918685605 232.28200062389467,208.20463762087903 232.54819590308716,209.08308204221703 232.90755952999842,209.948216699594 234.59789955287394,213.2756576895075 235.02381199958378,214.23396069460327 235.40979515441336,215.2854320474159 235.66268066964574,216.21711552459146 235.91556618488,217.5214723926374 236.19507122803256,219.43807840282795 236.38140792346826,221.07517936986594 236.43464697930673,222.11334095871848 236.35478839554804,223.1914318394504 236.24831028387106,223.71051263387713 236.1152126442739,224.17635437246537 235.8223978371631,224.86846209836676 235.32993657065467,225.62711864406768 234.97057294374528,226.06634085473573 234.51804096911525,226.53218259332397 233.63959654777915,227.3307684309033 231.69637100966935,228.92794010606193 231.23052927108108,229.38047208069008 230.91109493605012,229.7664552355206 230.55173130913886,230.36539461370506 230.40532390558346,230.92440470001023 230.35208484974498,231.25714879900127 230.35208484974498,231.66975148175104 230.47187272538017,232.0158053447022Z"/>
    <path d="M107.84901736508235,68.0128938338353 107.63606114172649,68.38556722470572 107.5295830300495,68.73162108765689 107.4630342102509,69.13091400644655 107.4896537381711,69.66330456483338 107.68930019756498,70.46189040241175 108.4878860351443,72.3918061765624 108.78070084225696,73.2835603618586 108.94041800977433,74.18862431111586 108.98034730165274,74.65446604970316 108.96703753769263,75.10699802433132 108.84724966205555,75.94551315378997 108.3947176874274,77.82218987210119 108.18176146407342,78.84704169699458 107.84901736508235,81.42913590516821 107.66268066964668,82.41405843818225 107.5029635021312,82.89320994072966 107.29000727877532,83.33243215139866 106.98388270770444,83.77165436206671 106.67775813663168,84.09108869709863 105.86586253509226,84.75657689508171 103.33700738275903,86.51346573775582 102.11250909846986,87.40521992305298 100.91463034210088,88.33690340022854 98.50556306540473,90.30674846625759 97.66704793594512,90.94561713632046 96.53571799937474,91.66434439014205 95.77706145367571,92.03701778101245 95.21805136736867,92.24997400436737 94.63242175314524,92.4363106998021 94.06010190287999,92.58271810335845 93.35468441301757,92.70250597899553 92.72912550691383,92.76905479879318 92.13018612873029,92.78236456275327 91.2251221794721,92.76905479879318 88.77612561089565,92.52947904751996 87.49838827076988,92.5028595196007 86.19403140272391,92.6093376312777 83.23926380368081,92.9953207861082 81.68202142040059,93.10179889778519 80.36435478839452,93.07517936986594 78.98013933658987,92.88884267443026 75.57283976291862,92.15680565664954 74.12207549131728,91.74420297389979 73.11053343038208,91.34491005511012 72.11230113340888,90.79920973276508 71.10075907247558,90.1204117708219 68.86471872725312,88.41676198398628 67.97296454195691,87.7778933139234 66.89487366122313,87.11240511594032 65.83009254445133,86.60663408547367 64.76531142767955,86.23396069460325 63.71384007486596,85.98107517936994 62.54258084641718,85.7814287199751 59.97379640220365,85.44868462098309 59.095351980865644,85.2889674534676 58.190288031609334,85.04939170219343 57.28522408235303,84.70333783924322 56.32692107725823,84.21087657273571 55.52833523967891,83.69179577830897 54.62327129042261,83.05292710824608 51.9080794426518,80.98991369449921 50.829988561919905,80.09815950920205 49.29936570655987,78.59415618176125 48.63387750857773,78.02183633149602 47.861911198916715,77.56930435686786 47.435998752208754,77.38296766143313 46.9967765415407,77.23656025787679 46.45107621919376,77.1167723822397 45.90537589684872,77.03691379848196 45.346365810543574,77.02360403452187 44.760736196318234,77.05022356244112 43.602786731827656,77.20994072995755 41.67287095767796,77.6624727045857 40.80773630030005,77.80888010814203 39.78288447540666,77.91535821981903 38.731413122594965,77.92866798377817 37.94613704897574,77.86211916398052 37.18748050327483,77.74233128834344 34.5521472392627,77.07684309036037 33.367578246853824,76.87719663096553 32.781948632628485,76.83726733908713 32.169699490484845,76.83726733908713 29.48112717063423,77.06353332640121 28.070292190911275,77.06353332640121 26.592908391389727,76.90381615888478 23.345325985233966,76.33149630861953 22.533430383694554,76.2516377248618 21.801393365913828,76.22501819694256 20.989497764374416,76.26494748882189 20.137672870956603,76.38473536445898 16.996568576477834,77.13008214619886 15.86523863990745,77.32972860559369 15.279609025682113,77.39627742539228 14.534262243941292,77.43620671727162 14.015181449516438,77.42289695331152 13.496100655089693,77.35634813351294 12.857231985025862,77.20994072995755 12.338151190599117,76.99698450660262 11.779141104293974,76.6775501715707 11.206821254028734,76.26494748882189 10.115420609336748,75.30664448372615 7.160653010293656,72.4450452324009 6.721430799625599,72.05906207757039 6.2422792970772525,71.73962774253941 5.909535198086186,71.55329104710374 5.457003223458033,71.39357387958826 4.964541956949589,71.28709576791127 4.578558802120028,71.26047623999106 3.5403972132665382,71.30040553187041 1.6104814391168383,71.52667151918449 1.1845689924088783,71.51336175522535 0.8518248934178115,71.44681293542675 0.5989393781835417,71.32702505978966 0.4525319746281533,71.20723718415258 0.33274409899106666,71.06082978059624 0.21295622335398004,70.8744930851615 0.06654881979670019,70.34210252677562 0,69.62337527295404 0.013309763958205179,68.94457731101181 0.0798585837567968,68.22585005719023 0.6122491421436383,65.39087033378328 0.9316834771746084,62.183217219506865 1.0914006446900935,61.3713216179684 1.3842154518027616,60.41301861287265 1.6371009670370316,59.854008526567505 1.9299157741496997,59.30830820422152 2.3158989289792613,58.72267858999712 3.2608921701139666,57.39170219403097 3.7267339087022164,56.59311635645165 4.112717063531778,55.781220754913186 4.951232192991385,53.65165852136865 5.257356764062258,53.02609961526492 5.5235520432566245,52.560257876676665 5.922844962046283,51.98793802641143 6.3886867006326415,51.442237704065434 6.961006550897881,50.93646667359879 7.586565457001616,50.483934698970636 8.052407195589867,50.21773941977721 8.465009878339622,50.031402724342485 8.917541852967775,49.87168555682605 9.449932411354615,49.751897681188964 9.915774149940974,49.69865862535047 10.39492565248932,49.69865862535047 10.874077155037668,49.751897681188964 11.339918893624025,49.8450660289068 12.178434023083632,50.13788083601947 13.15004679213853,50.64365186648612 14.281376728708914,51.428927940106284 15.918477695745946,52.7465945721114 16.583965893728077,53.239055838618896 17.409171259227588,53.758136633045645 18.407403556200787,54.25059789955314 18.913174586669328,54.42362483102777 19.445565145054278,54.57003223458411 19.924716647602626,54.66320058230195 20.510346261827962,54.70312987418129 21.056046584173007,54.70312987418129 21.601746906518056,54.6365810543827 22.267235104502078,54.503483414786466 22.679837787249944,54.38369553914938 23.398565041072462,54.104190495996804 24.223770406570083,53.70489757720715 24.929187896432506,53.30560465841749 27.191847769573272,51.881459914734435 28.030362899032877,51.442237704065434 28.815638972652096,51.10949360507437 29.56098575439292,50.869917853800196 30.34626182801214,50.69689092232461 32.80856816054868,50.417385879172045 33.86003951336038,50.23104918373731 34.458978891545804,50.05802225226173 35.017988977850955,49.8450660289068 35.497140480399295,49.63210980555282 36.042840802744344,49.32598523448006 36.66839970884808,48.913382551731246 37.081002391597835,48.58063845274018 39.09077674950433,46.69065197046888 39.64978683581136,46.22481023188063 40.22210668607661,45.798897785171725 41.433295206403784,45.066860767391 43.65602578766615,43.94884059477977 44.36144327752858,43.56285743995021 45.160029115107896,43.057086409482615 45.732348965373134,42.61786419881456 46.31797857959847,42.112093168347904 46.71727149838813,41.65956119371975 47.223042528854776,41.020692523655924 48.30113340958666,39.52999896017428 48.71373609233642,39.01091816574753 49.31267547051996,38.3454299677654 49.9116148487054,37.746490589580915 50.55048351876734,37.160860975355575 51.641884163459316,36.29572631797861 52.773214100029705,35.57699906415704 53.7581366330447,35.084537797649546 54.583341998544206,34.79172299053782 56.22044296558124,34.339191015908725 56.89924092752347,34.086305500675394 57.165436206715945,33.95320786107916 57.47156077778871,33.726941873765085 57.64458770926429,33.5539149422895 57.777685348859585,33.36757824685477 57.88416346053847,33.1146927316205 57.89747322449667,32.742019340751035 57.76437558490138,32.28948736612193 57.5647291255056,31.956743267130868 57.29853384631313,31.810335863574533 56.806072579806575,31.6639284600182 56.32692107725823,31.584069876260457 55.874389102630076,31.570760112301308 54.95601538941367,31.703857751897544 53.99771238431887,31.956743267130868 52.87969221170669,32.35603618592052 50.13788083601947,33.420817302693266 49.11302901112608,33.75356140168433 48.04824789435239,34.05968597275615 47.12987418113599,34.24602266819183 46.27804928771818,34.35250077986882 45.439534158260464,34.365810543828914 44.77404596027833,34.32588125194957 44.121867526254405,34.20609337631248 43.443069564312175,34.046376208797 42.07216387646762,33.5539149422895 38.3321202038053,31.903504211292372 36.26910679005842,30.87865238639898 35.017988977850955,30.133305604658158 34.12623479255474,29.481127170635176 33.28771966309513,28.74909015285445 32.59561193719281,27.990433607153534 31.956743267130868,27.191847769574217 31.397733180823835,26.36664240407565 28.403036289902342,21.49526879484201 28.136841010709865,20.94956847249602 27.950504315274188,20.417177914110123 27.870645731515502,19.818238535925634 27.897265259435695,19.299157741498888 28.04367266299108,18.80669647499234 28.269938650305157,18.340854736404086 28.60268274929812,17.914942289695183 29.041904959966175,17.52895913486562 29.547675990432822,17.222834563792855 30.106686076737965,16.98325881251963 30.7322449828417,16.810231881044047 31.49090152854262,16.703753769367058 32.369345949878735,16.69044400540696 33.207861079338336,16.75699282520555 34.139544556512945,16.89009046480179 36.495372777372495,17.316002911510694 37.22740979515322,17.409171259228533 37.986066340854144,17.449100551106934 38.85120099823205,17.395861495268438 39.663096599769574,17.249454091712103 40.501611729229175,16.95663928460038 41.07393157949442,16.677134241446865 41.566392846000966,16.344390142455797 42.05885411250752,15.931787459706987 42.511386087135676,15.412706665280242 42.81751065820844,14.946864926691992 43.083705937400914,14.467713424144591 43.30997192471499,13.908703337839448 43.93553083081873,11.978787563688803 44.215035873971296,11.246750545908078 44.69418737651964,10.421545180409513 44.93376312779382,10.102110845377599 45.346365810543574,9.636269106790294 45.892066132888615,9.1304980763227 46.51762503899236,8.664656337735396 47.12987418113599,8.278673182904889 48.9266923156904,7.227201830092247 50.03140272434059,6.495164812311523 50.72351045024292,5.922844962046283 51.14942289695277,5.4969325153373765 52.38723094520014,4.059478007694229 53.092648435062564,3.3540605178327514 53.545180409690715,3.0213164188416846 53.97109285639868,2.7684309036083605 54.35707601122824,2.595403972132779 54.836227513776585,2.4356868046163482 55.288759488404736,2.3558282208586054 55.71467193511459,2.315898928980207 56.11396485390425,2.342518456899455 56.63304564833099,2.4489965685764448 56.97909951128027,2.5820942081726823 57.33846313819153,2.7817406675675116 57.65789747322439,3.0213164188416846 57.95071228033516,3.327440989913504 58.137048975770846,3.567016741187677 58.36331496308492,3.952999896017239 58.589580950399,4.525319746282479 58.72267858999618,5.071020068628471 59.02880316106894,6.787979619424191 59.201830092542636,7.346989705729334 59.468025371737,7.999168139752316 59.840698762606465,8.691275865654644 60.14682333367923,9.1304980763227 60.57273578038719,9.649578870749444 61.07850681085573,10.142040137256942 61.424560673805004,10.43485494436961 62.01019028803034,10.84745762711842 62.515961318496984,11.126962670270991 63.03504211292373,11.366538421545165 63.63398149110917,11.566184880939995 64.08651346573731,11.672662992616983 64.67214307996076,11.752521576374725 65.13798481854901,11.739211812415576 65.51065820942037,11.68597275657708 65.94988042008842,11.552875116979898 66.32255381095788,11.339918893625917 66.57543932619217,11.11365290631184 66.92149318914332,10.661120931683687 67.70676926276255,9.143807840282797 68.1459914734306,8.438390350421319 68.62514297597895,7.799521680357487 70.0093584277836,6.135801185400263 71.56660081106195,4.046168243735078 72.17884995320748,3.367370281792848 72.81771862326941,2.8349797234060063 73.37672870957645,2.462306332535596 73.97566808775998,2.1428719975046255 74.61453675782383,1.9166060101905489 75.38650306748295,1.7568888426741183 76.21170843298245,1.6770302589163757 76.94374545076317,1.6903400228764722 77.58261412082702,1.7435790787149672 78.39450972236642,1.8633669543511082 80.89674534678136,2.3957575127379496 81.92159717167476,2.5687844442135312 83.19933451180053,2.675262555890521 84.09108869709863,2.635333264011177 84.88967453467795,2.488925860454843 85.63502131641877,2.236040345221519 86.15410211084362,1.983154829988195 87.87106166163935,0.9316834771755541 88.48331080378487,0.6388686700628858 89.05563065404822,0.42591244670890577 89.84090672766933,0.22626598731407666 90.46646563377307,0.11978787563708664 91.1053343038369,0.0399292918783984 92.11687636477019,0 93.55433087241335,0.05323905583849501 94.92523656025601,0.19964645939482914 96.8817718623259,0.4924612665074974 98.43901424560613,0.825205365498564 99.53041489029812,1.1446397005304798 100.27576167203894,1.4640740355614499 101.15420609337505,1.9565353020689473 101.76645523551869,2.422377040657197 102.47187272538112,3.0878652386393304 103.09743163148485,3.846521784340249 104.82770094624067,6.481855048351426 106.07881875844814,8.14557554330865 107.23676822293682,9.529790995112359 107.99542476863775,10.261828012894028 108.76739107829876,10.834147863159268 109.4728085681593,11.206821254028734 110.3512529894973,11.566184880939995 112.54736404283946,12.311531662680816 113.37256940833898,12.67089528959113 114.1844650098765,13.083497972340885 114.88988249973892,13.50941041904979 115.64853904543985,14.055110741394836 116.34064677134216,14.614120827700926 117.0593740251628,15.292918789643156 117.76479151502522,16.038265571383977 118.60330664448293,17.009878340438874 119.48175106581904,18.11458874909001 120.20047831964156,19.112821046064155 120.67962982218802,19.84485806384488 121.09223250493778,20.563585317666455 122.58292606841943,23.438494332951805 122.98221898720908,24.05074347509639 123.38151190599874,24.56982426952219 123.91390246438557,25.115524591868184 124.40636373089212,25.528127274617937 124.97868358115737,25.954039721326843 126.96183841114556,27.271706353332906 127.5873973172493,27.750857855880305 128.22626598731313,28.336487470104696 128.83851512945677,28.96204637620843 129.4374545076422,29.65415410211076 131.4472288655487,32.19631901840504 132.2191951752097,33.128002495580596 132.67172714983786,33.62046376208809 133.1908079442646,34.099615264635496 133.64333991889276,34.472288655505906 134.109181657481,34.80503275449697 134.58833316002747,35.09784756160964 135.0807944265359,35.33742331288287 136.07902672350912,35.71009670375328 137.2902152438382,35.9762919829467 138.52802329208555,36.12269938650303 139.57949464489914,36.136009150462186 140.51117812207374,36.096079858583785 141.57595923884745,35.98960174690679 144.11812415514078,35.643547883955634 145.19621503587265,35.55037953623779 145.8483934698966,35.5370697722777 146.4739523760003,35.57699906415704 147.45887490901342,35.736716231672524 148.09774357907727,35.949672455027454 148.6567536653824,36.21586773422087 149.18914422376923,36.57523136113119 149.6416761983974,36.97452427992084 149.98773006134857,37.387126962669655 150.38702298013823,37.99937610481424 150.65321825933069,38.55838619111938 150.83955495476638,39.17063533326397 150.93272330248325,39.676406363730614 150.95934283040347,40.06238951856112 150.93272330248325,40.7678070084226 150.85286471872647,41.2336487470099 150.7197670791293,41.6728709576789 150.4003327440983,42.39159821150048 149.92118124154996,43.07039617344271 149.66829572631758,43.33659145263613 149.22907351564766,43.73588437142579 148.5902048455857,44.175106582093846 147.6585213684092,44.64094832068209 146.7800769470712,44.94707289175391 145.74191535821961,45.17333887906799 144.78361235312292,45.27981699074498 141.68243735052442,45.492773214099905 140.21836331496297,45.652490381615394 138.47478423624707,45.91868566080881 136.2254341270664,46.35790787147781 132.3389830508468,47.23635229281487 130.30258916502012,47.74212332328152 129.59717167515768,47.9683893105956 129.03816158885255,48.19465529790968 128.4791515025474,48.460850577103095 128.07985858375775,48.687116564417174 127.73380472080657,48.9400020796505 127.41437038577372,49.23281688676317 127.18810439845964,49.47239263803639 126.94852864718547,49.805136737028405 126.80212124363008,50.084641780180974 126.6557138400747,50.44400540709129 126.575855256316,50.84329832588095 126.54923572839581,51.162732660912866 126.6157845481944,51.80160133097575 126.80212124363008,52.413850473120334 127.09493605074275,53.079338671103415 127.96007070812065,54.75636893001979 128.19964645939294,55.35530830820428 128.33274409899013,55.84776957471083 128.3859831548286,56.38016013309767 128.3460538629502,56.87262139960422 128.18633669543473,57.29853384631407 128.01330976395914,57.57803888946665 127.86690236040187,57.73775605698213 127.62732660912958,57.95071228033706 127.38775085785542,58.09711968389339 127.10824581470284,58.21690755952953 126.70895289591319,58.33669543516662 125.95029635021227,58.456483310803705 124.22002703545645,58.56296142248069 123.23510450244335,58.696059062076934 122.7426432359349,58.802537173754864 122.18363314962976,58.96225434127035 121.35842778413215,59.32161796818161 120.67962982218802,59.73422065093042 120.18716855568147,60.080274513881584 118.41696994904726,61.47779972964539 116.9662056774459,62.54258084641718 116.10107102006799,63.14152022460167 114.92981179161733,63.88686700634249 114.29094312155539,64.2595403972129 113.37256940833898,64.72538213580115 110.65737756056816,65.89664136425088 109.92534054278744,66.24269522720203 109.4062597483607,66.54881979827385 108.75408131433866,67.01466153686117 108.4080274513875,67.30747634397383 108.18176146407342,67.56036185920716 107.84901736508235,68.0128938338353Z"/>
  </g>
</svg>