<?xml version="1.0" encoding="UTF-8" standalone="no"?>
<svg viewBox="0 0 201.80593378242696 256" xmlns="http://www.w3.org/2000/svg">
  <style>
    g.zone {
      fill: lightgray;
      stroke-width: 2;
      stroke-linecap: square;
      stroke-linejoin: bevel;
      stroke-miterlimit: 3;
      stroke-opacity: 0.8;
      stroke: black;
      fill-opacity: 0.3;
    }
  </style>
  <g class="zone" id="zone">
    <path d="M119.76264870287989,209.86594047107135 119.61588075103846,209.74363384453684 118.41727581099757,209.75586450719072 118.05035593139313,209.71917251922994 117.70789737709647,209.64578854330924 117.42659213606578,209.46232860350702 115.86106731642045,208.0802637236639 115.71429936457902,207.8845731212078 115.61645406334966,207.62772920548488 115.55530075008372,207.23634800057354 115.57976207538975,206.8205054703553 115.3963021355884,206.36797095217628 115.3351488223207,206.03774306053265 115.2373035210931,205.90320577134423 114.91930629210248,205.70751516888814 114.6746930390317,205.49959390377902 114.30777315942727,205.12044336152158 114.01423725574442,204.72906215661024 113.85523864124912,204.47221824088643 113.76962400267539,204.27652763843122 113.76962400267539,204.12975968658978 113.81854665328919,203.88514643351988 113.79408532798142,203.7995317949453 113.61062538818007,203.73837848167847 111.99617791792093,203.55491854187625 111.53141273708889,203.55491854187625 110.50403707419545,203.70168649371766 110.1493478572449,203.70168649371766 109.83135062825428,203.59161052983617 109.58673737518524,203.44484257799473 109.26874014619462,203.16353733696405 109.13420285700535,202.93115474654803 109.10974153169931,202.7354641440928 109.21981749558081,202.06277769815162 109.19535617027304,201.95270173427014 109.10974153169931,201.91600974630933 109.66012135110509,201.6347045052795 110.74865032726449,200.90086474607065 111.47025942382119,200.60732884238692 111.76379532750404,200.5094835411593 113.10916821938636,200.44833022789163 113.5861640628723,200.3994075772778 113.87969996655688,200.3260236013571 113.98977593043838,200.2893316133963 114.11208255697204,200.19148631216868 114.16100520758584,200.02025703502036 114.11208255697204,199.86125842052505 113.83077731594308,199.48210787826673 113.76962400267539,199.35980125173222 113.76962400267539,198.34465625149352 113.97754526778449,197.90435239596752 114.38115713534884,197.36620323921477 114.47900243657647,197.17051263675867 114.49123309923036,197.01151402226336 114.33223448473504,196.5712101667382 114.35669581004281,196.0697529979454 114.43007978596266,195.81290908222246 114.74807701495328,195.2869905881227 114.91930629210248,194.68768811810227 114.60130906311186,194.69991878075615 114.25885050881345,194.63876546748847 113.9163919545168,194.52868950360696 113.54947207491237,194.34522956380474 113.02355358081263,194.02723233481413 112.43648177344521,193.58692847928899 111.82494864077174,192.9753953466155 111.59256605035485,192.7797047441594 111.09110888156287,192.49839950312958 109.21981749558081,191.83794371984143 108.730590989441,191.72786775595992 107.82552195308294,191.59333046677153 107.27514213367716,191.458793177584 106.96937556734044,191.4221011896232 106.24776647078373,191.51994649085083 105.92976924179484,191.6177917920793 105.55061869953653,191.78902106922763 105.00023888012902,192.19263293679285 104.7311643017522,192.33940088863426 104.24193779561412,192.5106301657826 103.7160193015144,192.74301275619948 102.88433424107791,192.93870335865472 102.59079833739332,193.03654865988233 102.18718646982897,193.26893125029835 101.31880942143259,193.9660790215473 101.15981080693727,194.02723233481413 100.96412020448031,194.00277100950723 100.8540442405988,193.9416176962404 100.78066026467896,193.86823372031967 100.71950695141126,193.67254311786357 100.78066026467896,193.36677655152684 101.01304285509411,192.7797047441594 101.025273517748,192.6084754670111 100.97635086713419,192.44947685251577 100.76842960202508,192.20486359944587 100.30366442119303,191.83794371984143 100.02235918016233,191.5566384788116 99.27628875830132,190.96956667144417 99.00721417992452,190.84726004490966 98.01653050499273,190.68826143041434 97.72299460130814,190.70049209306822 97.6496106253883,190.72495341837512 97.55176532416068,190.84726004490966 97.4294586976253,190.87172137021656 97.11146146863467,190.83502938225575 96.67115761310866,190.67603076776047 95.42363002245396,189.9054990205917 95.14232478142499,189.75873106875025 94.72648225120503,189.59973245425493 94.32287038364068,189.26950456261045 93.76025990158101,188.9270460083129 93.28326405809509,188.57235679136238 92.72065357603542,188.30328221298555 92.1702737566279,188.20543691175794 91.92566050355887,188.10759161053033 91.76666188906356,187.97305432134192 91.66881658783595,187.7895943815397 91.52204863599452,187.6672877550043 91.24074339496381,187.5205198031629 90.8615928527055,187.22698389947917 90.43351965983338,187.06798528498388 90.1155224308445,186.5909894414988 89.99321580430912,186.4809134776173 89.84644785246769,186.4319908270035 89.35722134632788,186.4319908270035 88.97807080406956,186.1873775739336 88.56222827385132,186.05284028474517 88.09746309301927,185.9427643208637 88.0240791170977,185.85714968228996 87.90177249056404,185.60030576656615 87.18016339400907,185.0132339591996 86.82547417705679,184.67077540490206 86.66647556256149,184.57293010367445 86.45855429745237,184.52400745305977 86.2873250203049,184.53623811571364 84.44049495962888,185.0010032965457 83.40088863408329,184.9887726338927 83.0584300797849,185.0132339591996 82.75266351344816,185.09884859777418 82.04328507954708,185.36792317615013 81.67636519994265,185.42907648941784 81.35836797095203,185.42907648941784 81.05260140461529,185.36792317615013 80.37991495867239,185.09884859777418 79.58492188619758,184.8909273326642 78.39854760880883,184.30385552529762 78.15393435573978,184.20601022407 77.75032248817544,184.14485691080233 76.27041230710384,183.9980889589609 75.07180736706293,183.79016769385177 74.32573694520019,183.60670775404958 73.51851321007149,183.33763317567275 73.20051598108087,183.12971191056363 72.49113754717804,182.4814867899294 71.01122736610645,181.3195738378484 70.03277435382856,180.83034733170945 69.37231857054128,180.42673546414423 68.56509483541083,180.023123596579 68.24709760642021,179.790741006163 67.75787110028213,179.33820648798482 67.52548850986524,179.03243992164724 67.40318188332985,178.7633653432713 67.21972194352851,178.09067889732924 66.97510869045948,177.69929769241793 66.669342124121,177.3568391381204 66.36357555778427,177.05107257178366 66.02111700348762,176.79422865606074 65.66642778653707,176.57407672829774 66.32688356982435,176.1826955233864 66.96287802780559,175.75462233051428 69.3478572452335,173.9689455831068 69.98385170321474,173.56533371554158 70.49753953466059,173.28402847451176 71.23137929386945,172.94156992021425 72.07529501695981,172.64803401653052 72.91921074005018,172.4645740767283 73.87320242702204,172.3422674501938 75.26749796951816,172.25665281161918 76.64956284936216,172.23219148631227 77.61578519898616,172.26888347427308 78.45970092207652,172.3667287755007 79.82953513926661,172.62357269122361 82.33682098322993,173.28402847451176 87.1557020687013,174.45817208924575 87.66938990014715,174.54378672782036 88.28092303282236,174.6049400410872 88.6967655630406,174.59270937843417 89.18599206917867,174.51932540251346 89.60183459939691,174.40924943863195 89.96875447900133,174.23802016148275 90.36013568391354,174.00563757106673 90.73928622617186,173.69987100473 91.04505279250859,173.39410443839327 91.33858869619144,173.03941522144186 92.15804309397576,171.88973293201477 92.50050164827242,171.46165973914265 92.78180688930311,171.1681238354598 93.17318809421357,170.85012660646916 93.65018393769951,170.56882136543933 94.20056375710702,170.34866943767634 94.88548086570033,170.16520949787412 95.57039797429537,170.07959485929953 96.2308537575844,170.0673641966465 96.97692417944714,170.1162868472603 97.79637857722973,170.26305479910172 98.5669103243985,170.47097606421084 99.23959677033966,170.69112799197387 100.03458984281622,170.9968945583106 102.6764129759688,172.1954994983515 103.63040466293891,172.5991113659167 104.60885767521856,172.94156992021425 105.50169604892272,173.19841383593717 106.35784243466523,173.3818737757394 107.00606755530036,173.46748841431398 107.6909846638954,173.49194973962088 108.42482442310427,173.4307964263532 109.09751086904542,173.27179781185788 109.58673737518524,173.10056853470954 109.99034924274959,172.91710859490735 109.5989680378374,172.80703263102583 109.13420285700535,172.5501887153029 108.8406669533225,172.3422674501938 108.52266972433188,172.02427022120318 108.13128851941968,171.70627299221255 107.38521809755868,171.2170464860736 106.99383689264647,170.70335865462687 106.51684104916055,170.26305479910172 106.23553580813157,169.94505757011112 106.1009985189423,169.6637523290813 106.03984520567461,169.32129377478375 106.07653719363627,169.03998853375393 106.2110744828238,168.8687592566056 106.41899574793293,168.74645263007022 107.1406048444879,168.4039940757727 108.03344321819206,167.82915293105916 108.38813243514434,167.6579236539108 108.91405092924408,167.48669437676162 110.2105011705126,167.1809278104249 110.67526635134465,167.14423582246408 111.91056327934547,167.29100377430638 112.39978978548528,167.3032344369594 112.98686159285272,167.1809278104249 114.13654388227981,166.83846925612735 114.40561846065663,166.80177726816657 114.72361568964725,166.81400793082045 115.65314605131132,166.89962256939506 116.39921647317408,167.05862118389035 117.73235870240251,167.51115570206852 119.12665424489865,168.03707419616828 119.71372605226608,168.20830347331747 120.79002436577333,168.36730208781276 121.93970665520042,168.4039940757727 121.0713296068023,168.06153552147518 120.1540299077921,167.5845396779901 118.35612249772987,167.02192919592957 117.18197888299675,166.50824136448372 116.74167502747073,166.36147341264143 116.38698581052019,166.3003200993746 116.02006593091576,166.3003200993746 114.88261430414255,166.47154937652294 114.43007978596266,166.45931871386992 114.12431321962592,166.38593473794833 113.37824279776318,166.1046294969185 113.04801490612041,166.0190148583439 112.61994171324828,165.982322870384 111.47025942382119,165.9456308824232 110.80980364053218,165.8355549185417 110.34503845970013,165.66432564139336 109.72127466437279,165.32186708709585 109.39104677272827,165.1750991352544 108.05790454349983,164.71033395442151 107.60537002532168,164.5757966652331 107.22621948306336,164.5268740146193 106.39453442262689,164.5024126893124 105.2937747838136,164.34341407481708 104.40093641010944,164.29449142420327 104.03401653050501,164.22110744828257 103.39802207252377,163.95203286990574 102.99441020495942,163.6951889541828 102.70087430127484,163.38942238784608 102.56633701208729,163.18150112273696 102.48072237351182,162.94911853232094 102.46849171085968,162.63112130333033 102.7864889398503,161.88505088146758 102.95771821699776,161.10228847164493 103.22679279537456,160.14829678467393 103.43471406048369,159.5612249773065 103.69155797620661,159.05976780851364 103.8627872533558,158.80292389279072 104.35201375949563,158.16692943480948 105.23262147054591,157.1762457598777 105.75853996464565,156.47909798862963 106.12545984425007,155.83087286799537 106.39453442262689,154.97472648225113 106.5535330371222,154.5833452773398 106.74922363957744,154.20419473508235 106.98160622999258,153.83727485547792 107.26291147102329,153.4948163011804 107.62983135062771,153.12789642157597 107.98452056757826,152.83436051789226 108.37590177249045,152.57751660216934 108.7795136400548,152.36959533706022 109.18312550761915,152.2105967225649 109.97811858009571,151.97821413214888 111.02995556829518,151.80698485499968 112.2163298456822,151.75806220438588 113.37824279776318,151.80698485499968 114.51569442453813,151.9170608188812 118.73527303998819,152.60197792747624 119.55472743777077,152.66313124074392 120.3130285222874,152.62643925278314 120.77779370311944,152.55305527686244 121.1814055706838,152.44297931298092 121.52386412498218,152.2962113611395 121.75624671539734,152.1616740719511 122.02532129377416,151.92929148153507 122.19655057092335,151.70913955377208 122.31885719745699,151.45229563804915 122.36777984807254,151.19545172232623 122.35554918541865,150.7796091921071 122.24547322153715,150.40045864984967 122.07424394438796,150.18030672208667 121.6828627394775,149.8256175051361 121.14471358272387,149.4586976255317 119.37126749796943,148.443552625293 118.6129664134528,147.9298647938463 117.7935120156702,147.269409010559 115.92222062968814,145.6671922029529 115.09053556925167,145.00673641966475 113.7573933400215,144.05274473269287 110.30834647174021,141.7289188285318 107.49529406144018,139.6252448521337 107.11614351918186,139.3194782857961 106.84706894080504,139.03817304476627 106.57799436242823,138.69571449046873 106.382303759973,138.3165639482113 106.23553580813157,137.8762600926853 106.14992116955611,137.37480292389333 106.1132291815962,136.763269791219 106.14992116955611,136.22512063446536 106.2233051454777,135.6625101524057 106.4434570732407,134.427213224404 106.49237972385451,133.86460274234435 106.4434570732407,133.4487602121261 106.37007309731912,133.1307629831355 106.23553580813157,132.80053509149099 106.07653719363627,132.47030719984735 105.74630930199176,131.9810806937084 105.37938942238733,131.49185418756858 102.35841574697818,127.90827003009889 101.88141990349224,127.45573551191987 101.46557737327402,127.11327695762321 100.09574315608391,126.20820792126516 99.6554393005579,125.86574936696763 99.27628875830132,125.46213749940328 99.00721417992452,125.00960298122426 98.88490755338913,124.66714442692673 98.82375424012143,124.26353255936151 98.81152357746754,123.81099804118335 98.88490755338913,123.32177153504354 99.00721417992452,122.83254502890459 99.21513544503362,122.25770388419105 99.50867134871648,121.63394008886368 99.83889924036099,121.03463761884323 100.2180497826193,120.45979647412969 100.64612297548969,119.89718599206915 101.06196550570792,119.43242081123712 101.58788399980766,118.89427165448349 102.18718646982897,118.36835316038463 102.7864889398503,117.89135731689869 105.00023888012902,116.26467918398566 105.41608141034726,115.90998996703425 105.72184797668399,115.57976207539062 106.00315321771468,115.1516888825185 106.1009985189423,114.88261430414255 106.13769050690397,114.68692370168645 106.14992116955611,114.4423104486174 106.1132291815962,114.087621231666 106.02761454302247,113.79408532798229 105.90530791648708,113.56170273756626 105.70961731403185,113.30485882184334 105.39162008504123,112.9746309301997 105.14700683197044,112.76670966509057 104.7923176150199,112.52209641202067 104.40093641010944,112.31417514691155 103.88724857866359,112.08179255649553 103.05556351822537,111.81271797811871 101.99149586737374,111.6047967130096 101.04973484305577,111.54364339974191 100.60943098752976,111.56810472504881 100.07128183077614,111.64148870097038 99.69213128851956,111.75156466485102 99.33744207156728,111.87387129138641 98.897138216043,112.10625388180243 98.49352634847865,112.39978978548615 98.07768381825869,112.8278629783574 97.82083990253577,113.24370550857564 97.56399598681283,113.87969996655688 97.13592279394071,115.62868472600442 96.79346423964405,116.60713773828319 96.40208303473186,117.42659213606665 96.03516315512742,118.12373990731471 95.70493526348466,118.63742773876056 95.26463140795865,119.1633462328603 94.81209688978049,119.53026611246473 94.40848502221614,119.76264870288075 93.95595050403624,119.93387798002995 93.49118532320419,120.03172328125757 93.03865080502604,120.05618460656447 92.53719363623233,120.00726195595067 92.10912044336021,119.89718599206915 91.64435526252817,119.68926472696005 91.2040514070039,119.37126749796943 90.98389947924089,119.1388849075534 90.78820887678566,118.88204099183048 90.58028761167654,118.45396779895835 90.50690363575497,118.18489322058241 90.47021164779504,117.9035879795517 90.48244231044893,117.46328412402657 90.60474893698257,116.9006736419669 91.32635803353755,115.05384358129088 91.55874062395444,114.27108117146821 91.70550857579586,113.51278008695246 91.74220056375579,113.01132291815962 91.74220056375579,112.54655773732757 91.70550857579586,112.13071520710933 91.57097128660833,111.49472074912809 91.28966604557763,110.79757297788004 91.10620610577628,110.46734508623553 90.87382351535939,110.1615785198988 90.40905833452734,109.70904400171976 89.87090917777373,109.35435478476921 89.25937604510025,109.08528020639241 88.66007357507894,108.9262815918971 87.98738712913777,108.84066695332336 87.41254598442423,108.85289761597639 86.66647556256149,108.950742917204 84.68510821269791,109.29320147150153 84.06134441737056,109.34212412211534 83.3886579714294,109.32989345946231 82.59366489895285,109.21981749558081 81.92097845301168,109.0363575557786 81.30944532033821,108.76728297740179 80.63675887439706,108.32697912187665 80.04968706702962,107.8132912904308 79.57269122354369,107.23845014571725 79.20577134393926,106.70030098896362 78.3007023075812,105.1836988199321 77.89709044001685,104.54770436195173 77.37117194591713,103.8505565907028 76.79633080120357,103.21456213272155 76.14810568056845,102.6519516506619 75.45095790932125,102.15049448186906 74.80273278868611,101.74688261430384 73.16382399311921,100.86627490325355 72.56452152309963,100.4871243609961 72.1976016434952,100.1935884573124 71.81845110123689,99.85112990301486 71.53714586020618,99.54536333667814 71.19468730590953,99.12952080645903 70.7788447756913,98.45683436051787 70.48530887200671,97.88199321580433 70.20400363097775,97.16038411924936 70.00831302852252,96.5610816492289 69.86154507667935,95.80278056471315 69.82485308871944,95.1667861067319 69.87377573933324,94.56748363671144 69.97162104056086,94.10271845587853 70.13061965505617,93.67464526300728 70.35077158281918,93.29549472074896 70.64430748650202,92.95303616645144 70.9989967034543,92.65950026276859 71.39037790836477,92.42711767235258 71.95298839042442,92.20696574458957 72.3688309206444,92.10912044336196 73.04151736658557,92.03573646744037 73.53074387272363,92.02350580478735 74.05666236682337,92.04796713009426 75.10849935502286,92.21919640724259 76.14810568056845,92.47604032296638 79.69499785007908,93.51564664851198 80.68568152501086,93.748029238928 81.50513592279344,93.8581052028095 82.33682098322993,93.89479719076942 82.74043285079428,93.8581052028095 83.1685060436664,93.7724905642349 83.53542592327082,93.6624146003534 83.8289618269554,93.52787731116499 84.29372700778745,93.20988008217523 84.53834026085649,92.94080550379843 84.68510821269791,92.7084229133824 84.79518417657941,92.4026563470448 84.84410682719323,92.06019779274814 84.78295351392553,91.4486646600738 84.44049495962888,89.8953705030815 84.33041899574738,88.95360947876352 84.30595767044134,88.10969375567316 84.31818833309349,84.67287755004577 84.36711098370729,83.8901151402231 84.45272562228276,83.32750465816257 84.59949357412418,82.78935550140982 84.79518417657941,82.26343700731007 85.51679327313438,80.53891357316944 85.70025321293747,79.951841765802 85.8470211647789,79.40146194639536 87.98738712913777,79.7683818259998 89.43060532224945,79.80507381396058 91.11843676842844,79.9763030911089 92.15804309397576,80.20868568152493 93.0508814676782,80.33099230806032 93.91925851607633,80.51445224786254 95.6193206249092,80.94252544073379 97.00138550475317,81.41952128421973 97.27046008312999,81.41952128421973 97.97983851703107,81.19936935645671 98.37121972194328,81.12598538053601 98.6892169509339,81.10152405522909 99.09282881849825,81.15044670584291 99.59428598729194,81.28498399503131 99.96120586689638,81.44398260952663 100.2180497826193,81.60298122402193 100.73173761406515,82.00659309158715 101.1475801442834,82.23897568200317 101.60011466246155,82.3857436338446 102.2850317710566,82.50805026037912 103.25125412068235,82.56920357364682 105.03693086809068,82.4713582724192 105.53838803688264,82.4713582724192 107.01829821795424,82.67927953752832 109.53781472457143,82.91166212794434 109.88027327886809,82.88720080263744 110.34503845970013,82.76489417610291 110.61411303807695,82.74043285079601 111.0666475562551,82.77712483875592 111.62925803831651,82.93612345325124 111.91056327934547,82.97281544121203 112.55878839998059,82.87497013998355 113.50054942429857,82.88720080263744 114.35669581004281,82.80158616406284 114.85815297883478,82.80158616406284 115.26176484639913,82.85050881467664 115.66537671396522,82.94835411590513 116.63159906358922,83.35196598346948 117.56112942525331,83.59657923653938 117.25536285891658,83.15627538101424 116.79059767808454,82.67927953752832 114.56461707515193,80.75906550093157 112.8890162916251,79.52376857292988 111.94725526730713,79.04677272944483 111.58033538770269,78.71654483780031 111.42133677320739,78.47193158473128 111.21341550809827,78.01939706655224 110.87095695379988,77.48124790979863 110.58965171277092,76.82079212651135 110.51626773684933,76.41718025894613 110.50403707419545,75.95241507811409 110.55295972480926,75.64664851177648 110.66303568869075,75.45095790932125 111.05441689360296,75.68334049973727 111.45802876116731,75.86680043953949 111.93502460465324,76.03802971668868 112.28971382160378,76.12364435526241 112.74224833978194,76.19702833118312 113.30485882184334,76.23372031914391 114.35669581004281,76.20925899383701 115.51860876212206,76.02579905403479 116.38698581052019,75.78118580096489 117.21867087095666,75.47541923462815 119.1755768955142,74.63150351153779 119.78711002818766,74.43581290908256 120.3619511729012,74.28904495724026 121.08356026945617,74.17896899335963 121.91524532989264,74.11781568009194 124.45922316181762,74.09335435478503 125.20529358367862,74.05666236682424 125.96359466819524,73.97104772825051 126.78304906597783,73.79981845110132 127.52911948784057,73.5674358606853 129.37594954851662,72.91921074005104 131.96885003105365,72.16090965553528 132.64153647699482,71.91629640246536 133.26530027232215,71.64722182408856 133.8890640676495,71.34145525775182 134.79413310400756,70.81553676365209 135.601356839138,70.25292628159242 137.20357364674325,69.09101332951144 137.75395346615076,68.72409344990702 138.4877932253596,68.28378959438187 139.17271033395468,67.92910037743046 140.06554870765885,67.54994983517302 140.7749271415599,67.317567244757 141.63107352730418,67.09741531699399 142.49945057570056,66.93841670249869 143.58797955185997,66.82834073861719 144.59089388944562,66.79164875065726 146.27872533562635,66.80387941331027 148.13778605895453,66.86503272657797 149.2018537098079,66.93841670249869 150.03353877024438,67.0607233290332 150.8285318427209,67.26864459414318 151.25660503559303,67.4521045339454 151.56237160192978,67.61110314843984 151.95375280684024,67.88017772681665 152.24728871052483,68.14925230519347 152.7976685299306,68.74855477521392 153.75166021690245,69.97162104056173 154.3998853375376,70.74215278773137 154.986957144905,71.28030194448412 155.6229516028845,71.75729778797006 156.07548612106442,72.03860302899989 156.82155654292544,72.42998423391123 158.1057761215418,72.98036405331787 158.99861449524596,73.29836128230849 159.65907027853322,73.49405188476459 161.0533658210311,73.81204911375521 161.8238975681999,73.92212507763584 162.47212268883501,73.97104772825051 163.80526491806344,73.99550905355743 165.38302040036265,73.88543308967591 167.26654244899862,73.64081983660601 168.6486073288426,73.38397592088309 169.87167359418953,73.04151736658557 170.31197744971556,72.87028808943724 170.8256652811614,72.63790549902033 171.19258516076582,72.4177535712582 171.48612106444867,72.20983230614908 171.71850365486557,71.98968037838608 171.9019635946669,71.76952845062395 172.04873154651008,71.53714586020706 172.1343461850838,71.30476326979104 172.18326883569762,71.03568869141509 172.18326883569762,70.76661411303827 172.1343461850838,70.47307820935455 172.01203955854842,70.11838899240402 171.77965696813325,69.64139314891808 171.38827576322106,69.01762935359073 170.9357412450429,68.4060962209164 169.33352443743766,66.43695953370585 168.6486073288426,65.55635182265557 167.92699823228588,64.51674549710998 167.47446371410774,63.758444412594216 166.85069991878038,62.54760880989943 166.56939467774967,61.89938368926517 166.26362811141294,61.03100664086791 166.14132148487755,60.57847212268888 166.06793750895773,60.12593760450985 166.06793750895773,59.78347905021233 166.11686015957153,59.44102049591567 166.22693612345302,59.13525392957807 166.3981654006022,58.84171802589435 166.63054799101738,58.57264344751841 166.92408389470197,58.315799531795484 167.2787731116525,58.107878266685496 167.64569299125694,57.93664898953717 168.07376618412906,57.80211170034876 168.5385313649611,57.704266399121146 169.22344847355615,57.60642109789353 170.09182552195253,57.55749844727885 171.3148917873012,57.56972910993274 172.2933447995791,57.63088242320043 172.96603124552027,57.72872772442805 173.56533371554158,57.85103435096257 175.53447040275128,58.3891835077162 175.9136209450096,58.45033682098302 176.3294634752278,58.47479814628992 176.68415269217837,58.43810615833 176.96545793320905,58.376952845062306 177.47914576465493,58.156800917300174 177.89498829487314,57.838803688309554 178.06621757202234,57.64311308585345 178.28636949978537,57.31288519420981 178.48206010224058,56.872581338684675 178.5921360661221,56.432277483158664 178.6410587167359,55.9797429649805 178.67775070469582,54.65883139840422 178.72667335530963,54.05952892838376 178.82451865653724,53.447995795709424 178.97128660837868,52.88538531364977 179.25259184940936,52.17600687974782 179.58281974105387,51.57670440972736 179.96197028331218,50.977401939706915 180.74473269313486,49.888872963546646 181.11165257273927,49.26510916821929 181.35626582580832,48.61688404758503 181.4785724523437,47.858582963069274 181.50303377764973,47.45497109550405 181.4785724523437,46.843437962830585 181.35626582580832,45.877215613205706 181.2094978739669,45.22899049257058 180.57350341598567,42.77062729922108 180.30442883760884,41.29071711815035 180.2188141990351,40.471262720366894 180.19435287372735,39.74965362381192 180.2188141990351,39.01581386460307 180.31665950026272,37.76828627394749 180.31665950026272,37.14452247862013 180.2677368496489,36.76537193636269 180.18212221107345,36.37399073145136 180.0475849218859,35.982609526540024 179.86412498208284,35.56676699632179 179.46051311451848,34.88184988772674 178.89790263245882,34.12354880321098 178.32306148774526,33.47532368257585 176.81868998136764,31.885337537623617 176.43953943910932,31.432803019444588 176.035927571545,30.882423200037948 175.71793034255435,30.380966031245983 175.42439443886977,29.83058621183934 174.34809612536426,27.629066934212766 173.89556160718436,26.87076584969701 173.47971907696612,26.283694042329575 172.99049257082805,25.684391572309124 172.51349672734213,25.17070374086327 171.84081028140096,24.546939945535048 171.143662510152,23.9720988008215 170.18967082318017,23.28718169222732 169.21121781090227,22.638956571592193 166.16578281018533,20.76766518561013 163.98872485786654,19.507906932301534 162.71673594190406,18.822989823706486 161.71382160431838,18.345993980220555 160.64975395346502,17.905690124695415 159.8547608809902,17.636615546318602 158.99861449524596,17.40423295590258 156.23448473555973,16.75600783526832 155.3783383498155,16.499163919545396 154.5588839520329,16.19339735320866 153.64158425302097,15.802016148297328 150.91414648129464,14.554488557641749 147.44063828770734,13.086809039224036 146.3521093115462,12.536429219817393 145.3736562992683,11.961588075103846 140.75046581625216,8.879461086426994 139.94324208112346,8.231235965792736 139.57632220151902,7.888777411495211 139.16047967130078,7.436242893316185 138.72017581577478,6.861401748602638 138.389947924132,6.323252591849882 137.97410539391203,5.516028856719444 137.68056949022917,4.843342410778281 137.46041756246618,4.219578615450927 137.26472696001096,3.4612775309351664 137.17911232143723,2.7396684343793267 137.20357364674325,2.2259806029334746 137.32588027327864,1.7122927714876224 137.5704935263477,1.2475275906547092 137.86402943003228,0.9050690363580537 138.31656394821042,0.5993024700204506 138.79355979169637,0.39138120491133244 139.4907075629453,0.20792126510911818 140.2367779848063,0.09784530122761584 141.36199894892735,0.02446132530690396 142.9764464191865,0 144.87219913047633,0.0122306626538865 152.52859395155377,0.17122927714919678 160.23391142324678,0.24461325306990864 172.53795805264815,0.30576656633673405 180.1698915484213,0.2690745783768126 180.58573407863955,0.8316850604364727 180.8670393196685,1.3086809039224037 180.98934594620388,1.626678132913024 181.11165257273927,2.311595241508073 181.22172853661905,2.6295924704986935 181.55195642826357,3.3022789164398563 181.9066456452141,3.840428073192612 182.3469495007401,4.292962591371639 183.8880129950794,5.638335483254833 184.16931823610835,5.944102049591567 184.5362381157128,6.4455592183844015 184.731928718168,6.641249820839634 185.77153504371535,7.509626869236897 186.49314414027032,8.21900530313885 187.53275046581592,9.124074339496904 187.85074769480653,9.490994219101331 188.22989823706484,9.98022072524028 188.5234341407477,10.591753857914616 188.86589269504435,11.557976207539497 188.95150733361982,11.98604940041075 189.06158329750133,13.282499641680136 189.14719793607506,13.563804882709967 189.26950456261045,13.771726147819084 189.48965649037345,13.99187807558209 189.8198843820162,14.224260665998111 192.53509149108862,15.704170847068843 193.12216329845606,16.18116669055477 193.5869284792881,16.694854522000625 193.7581577564373,17.012851750991246 193.8804643829727,17.416463618556467 194.27184558788315,19.27552434188551 194.44307486503234,19.838134823945172 195.15245329893344,21.12235440256067 195.26252926281495,21.40365964359137 195.38483588935034,21.92957813769024 195.4582198652719,22.113038077492455 196.1186756485592,22.797955186087503 196.30213558836053,23.067029764464316 196.387750226936,23.28718169222732 196.41221155224204,23.72748554775246 196.3388275763222,24.082174764703 196.17982896182687,24.314557355119025 195.73952510630087,24.718169222684242 195.64167980507327,25.036166451674863 195.61721847976722,25.366394343318504 195.66614113038102,25.757775548229834 195.75175576895475,25.990158138645857 196.03306100998546,26.61392193397408 196.08198366059926,26.919688500310816 196.00859968467768,27.323300367875163 195.60498781711334,28.17944675361941 195.53160384119175,28.411829344035432 195.4582198652719,28.93774783813517 195.4582198652719,29.35359036835341 195.58052649180556,29.74497157326474 195.8496010701824,30.283120730017497 196.28990492570838,31.02919115188024 196.7669007691943,31.75080024843521 197.29281926329406,32.79040657398167 197.70866179351228,33.291863742773636 197.8676604080076,33.524246333190526 198.08781233576886,34.09908747790407 198.34465625149178,35.4689216950933 198.5648081792548,37.25459844250164 198.63819215517637,37.499211695571546 198.93172805885922,38.13520615355192 199.0662653480485,38.661124647651654 199.11518799866232,39.00358320194918 199.0540346853946,39.46834838278122 198.956189384167,39.835268262385654 198.69934546844408,40.32449476852547 198.44250155272115,40.7158759734368 198.51588552864098,40.82595193731831 198.58926950456257,41.963403564091514 198.71157613109622,42.52601404615204 198.736037456404,42.746165973914174 198.71157613109622,43.61454302231144 198.5770388419087,44.15269217906506 198.54034685394876,44.67861067316394 198.5648081792548,45.00883856480844 198.71157613109622,45.62037169748191 198.61373082986862,46.37867278199854 198.63819215517637,46.81897663752368 198.7727294443639,47.320433806316515 199.0662653480485,47.93196693898998 199.42095456499905,48.335578806555205 199.59218384214824,48.470116095743606 199.72672113133578,48.50680808370353 199.67779848072198,48.58019205962424 199.6533371554142,48.70249868615963 199.66556781806807,49.10611055372398 199.75118245664356,49.36295446944778 200.04471836032639,49.962256939468226 200.06917968563243,50.14571687927044 200.09364101094022,50.58602073479558 200.14256366155402,50.806172662557714 200.41163823993082,51.40547513257817 201.0720940232181,52.38392814485693 201.1944006497535,52.62854139792684 201.2922459509811,52.97099995222437 201.37786058955484,53.68037838612632 201.47570589078418,53.92499163919536 201.75701113181316,54.46314079594898 201.80593378242696,54.76890736228572 201.76924179446704,55.05021260331555 201.67139649323943,55.331517844346244 201.524628541398,55.60059242272219 201.3533992642488,55.80851368783131 200.92532607137667,56.08981892886201 199.702259806028,56.73804404949627 199.38426257703912,56.97042663991229 199.16411064927613,57.227270555635215 198.82165209497774,57.704266399121146 198.68711480579017,57.973340977497955 198.60150016721647,58.242415555873905 198.5036548659871,58.75610338732062 198.36911757679957,59.196407242845765 198.38134823945344,59.48994314652948 198.46696287802718,59.7223257369455 198.68711480579017,59.979169652668425 199.0662653480485,60.26047489369826 199.2252639625438,60.46839615880737 199.31087860111754,60.76193206249109 199.33533992642532,61.043237303520925 199.26195595050373,61.37346519516543 198.956189384167,62.02169031579969 198.7727294443639,62.73106874970164 198.58926950456257,62.93899001481076 198.19788829965037,63.24475658114749 198.16119631169045,63.318140557068205 198.16119631169045,63.4649085089105 198.21011896230425,63.61167646075192 198.33242558883964,63.733983087287314 199.09072667335454,64.18651760546547 199.2741866131576,64.38220820792156 199.35980125173134,64.5778988103768 199.61664516745427,65.59304381061635 199.92241173379102,66.37580622043902 199.94687305909878,66.59595814820116 199.91018107113885,66.88949405188487 199.702259806028,67.80679375089595 199.57995317949437,68.23486694376807 199.39649323969127,68.71186278725312 199.33533992642532,69.10324399216447 199.37203191438525,70.74215278773137 199.54326119153444,71.47599254694023 199.56772251684046,72.02637236634688 199.54326119153444,72.72352013759495 199.56772251684046,73.49405188476459 199.50656920357278,73.98327839090354 199.44541589030507,75.42649658401434 199.39649323969127,75.54880321054887 199.21303329988993,75.76895513831187 198.7849601070178,76.14810568056932 198.69934546844408,76.28264296975772 198.63819215517637,76.45387224690691 198.58926950456257,76.86971477712515 198.6259614925225,77.06540537958038 198.7238067937501,77.3956332712249 198.6748841431363,77.88485977736384 198.71157613109622,78.22731833166137 198.60150016721647,78.7043141751473 198.47919354068108,79.05900339209784 198.36911757679957,79.65830586211828 198.5036548659871,80.52668291051555 198.5036548659871,81.02814007930839 198.66265348048242,81.57851989871503 198.7238067937501,82.3368209832308 198.99288137212693,82.91166212794434 198.94395872151313,83.03396875447886 198.736037456404,83.30304333285567 198.7238067937501,83.694424537767 198.66265348048242,83.7555778510347 198.51588552864098,83.8289618269554 198.44250155272115,83.96349911614381 198.54034685394876,84.31818833309435 198.60150016721647,84.78295351392727 198.46696287802718,85.25994935741234 198.4547322153733,85.41894797190764 198.54034685394876,85.60240791170986 198.74826811905788,85.92040514070048 199.45764655295898,86.40963164683943 199.62887583010817,86.56863026133473 199.7634131192957,86.81324351440465 199.80010510725737,87.04562610482067 199.7144904686819,87.36362333381129 199.69002914337585,87.97515646648563 199.51879986622666,88.67230423773368 199.31087860111754,89.05145477999113 198.88280540824542,89.51621996082405 198.8338827576316,89.83421718981467 198.7238067937501,90.12775309349752 198.63819215517637,90.2011370694191 198.22234962495816,90.225598394726 197.8676604080076,90.34790502126052 197.3784339018678,90.73928622617186 197.29281926329406,90.88605417801328 197.26835793798628,91.02059146720168 197.81873775739206,93.76025990158188 197.81873775739206,94.22502508241392 197.72089245616445,94.87325020304819 197.72089245616445,95.08117146815731 197.7575844441261,95.19124743203881 197.85542974535372,95.31355405857332 198.23458028761203,95.54593664898934 198.32019492618576,95.64378195021783 198.29573360087798,95.71716592613855 198.22234962495816,95.79054990205925 198.21011896230425,95.92508719124766 198.22234962495816,96.21862309493137 198.28350293822584,96.69561893841644 198.28350293822584,96.92800152883333 198.22234962495816,97.12369213128856 198.11227366107664,97.31938273374466 197.87989107065974,97.55176532416068 197.3784339018678,97.91868520376511 196.46113420285585,98.39568104725105 196.20429028713292,98.55467966174548 195.93521570875612,98.7992929148154 195.4582198652719,99.37413405952894 195.22583727485502,99.60651664994496 194.18623094930942,100.3036644211939 193.78261908174508,100.62166165018365 193.08547131049613,101.26988677081877 192.66962878027792,101.5267306865417 189.79542305671018,98.78706225216237 189.09827528546123,98.16329845683416 188.2910515503308,97.56399598681371 187.56944245377582,97.19707610720927 187.0435239596761,97.01361616740706 186.43199082700264,96.89130954087254 185.75930438106147,96.81792556495182 185.00100329654484,96.80569490229794 184.23047154937606,96.84238689025874 183.30094118771197,96.94023219148634 182.53040944054146,97.08700014332777 181.71095504275885,97.28269074578387 181.2094978739669,97.46615068558609 180.72027136782708,97.69853327600211 180.27996751230106,97.95537719172503 179.8885863073906,98.21222110744883 179.5583584157461,98.49352634847865 179.25259184940936,98.7992929148154 178.98351727103255,99.14175146911292 178.81228799388336,99.44751803544965 178.72667335530963,99.66766996321266 178.65328937938978,99.98566719220328 178.65328937938978,100.49935502364913 178.7878266685773,101.15981080693727 179.25259184940936,102.62749032535498 179.31374516267707,103.05556351822712 179.30151450002316,103.54479002436607 179.15474654818175,104.10740050642572 179.03243992164636,104.36424442214951 178.82451865653724,104.69447231379316 178.6410587167359,104.92685490420918 178.3719841383591,105.17146815727908 177.85829630691325,105.5139267115766 177.35683913811954,105.74630930199262 176.83092064401978,105.94199990444787 176.19492618603854,106.11322918159706 175.47331708948357,106.25999713343849 174.18909751086895,106.43122641058768 173.1127991973617,106.52907171181529 172.1465768477377,106.59022502508212 169.54144570254678,106.68807032631061 168.0370741961674,106.83483827815203 167.51115570206767,106.92045291672663 166.97300654531577,107.05499020591503 165.05279250871817,107.77659930247 164.24556877358947,107.99675123023302 163.70741961683584,108.09459653146062 163.15703979742833,108.15574984472832 162.10520280923058,108.15574984472832 160.97998184510953,107.98452056757912 157.9834694950064,107.27514213367716 155.72079690411388,106.85929960345894 154.95026515694335,106.67583966365672 154.41211600019147,106.51684104916141 153.72719889159643,106.24776647078546 153.164588409535,105.95423056710175 152.6875925660491,105.64846400076415 152.2595193731787,105.2937747838136 151.90483015622644,104.92685490420918 151.56237160192978,104.51101237399094 151.19545172232534,103.97286321723732 150.80407051741315,103.27571544598925 149.83784816778913,101.2821174334718 149.27523768572948,100.18135779465851 148.77378051693577,99.32521140891514 148.1989393722222,98.43237303521097 147.41617696239956,97.33161339639769 146.48664660073547,96.1207777937029 145.75280684152662,95.2279394199996 145.17796569681306,94.60417562467137 144.65204720271333,94.10271845587853 144.15059003392136,93.6868759256603 143.67359419043544,93.35664803401666 143.086522383068,93.01418947971914 141.924609430987,92.46380966031249 139.52739955090522,91.5342792986484 139.0504037074193,91.3141273708854 138.52448521331954,90.99613014189478 138.0230280445276,90.61697959963733 137.6194161769615,90.225598394726 137.22803497205103,89.7852945392 136.55534852610987,88.92914815345662 136.07835268262394,88.43992164731768 135.82150876690102,88.23200038220855 135.51574220056253,88.03630977975244 134.91643973054295,87.76723520137651 134.34159858582942,87.59600592422731 133.64445081458047,87.437007309732 130.75801442835885,86.99670345420685 129.08241364483203,86.80101285175076 126.06143996942286,86.53193827337482 123.65199942668717,86.2873250203049 122.31885719745699,86.20171038173031 121.19363623333768,86.18947971907728 120.17849123309813,86.2384023696911 119.06550093163268,86.36070899622561 118.17266255792852,86.54416893602783 117.59782141321497,86.69093688787012 116.3747551478663,87.13124074339527 115.82437532846053,87.3758539964643 115.2250728584392,87.69385122545492 114.69915436433946,88.03630977975244 114.30777315942727,88.32984568343616 113.94085327982458,88.6600735750798 113.6350867134861,89.01476279203122 113.40270412307095,89.34499068367485 113.23147484592175,89.68744923797237 113.12139888204025,90.005446466963 113.02355358081263,90.44575032248814 112.99909225550486,90.78820887678566 113.02355358081263,91.2652047202716 113.15809087000018,91.97458315417354 113.42716544837698,92.80626821461001 113.7573933400215,93.61349194973958 115.38407147293452,97.33161339639769 115.66537671396522,98.07768381826043 115.90998996703425,98.86044622808309 116.13014189479726,99.87559122832178 116.30137117194472,101.00081219244197 116.79059767808454,105.64846400076415 116.96182695523373,106.49237972385451 117.16974822034285,107.11614351918186 117.34097749749205,107.50752472409319 117.54889876260117,107.8866752663515 118.11150924466082,108.65720701352116 118.47842912426526,109.04858821843249 120.3007978596335,110.76088098991924 120.97348430557467,111.50695141178198 121.26702020925926,111.93502460465324 121.49940279967441,112.31417514691155 121.6828627394775,112.7300176771298 121.80516936601114,113.13362954469501 121.90301466723876,113.75739334002236 121.92747599254653,114.2221585208544 121.86632267927884,114.96822894271628 121.76847737805123,115.54307008742983 121.58501743824988,116.28914050929257 121.3404041851791,117.04744159380833 121.09579093211006,117.61005207586886 120.50871912474263,118.80865701590976 120.33748984759343,119.2489608714349 120.26410587167359,119.57918876307853 120.23964454636581,119.92164731737607 120.27633653432574,120.25187520902057 120.3619511729012,120.56987243801032 120.53318045005041,120.97348430557554 120.83894701638714,121.48717213702139 121.54832545028822,122.44116382399325 123.32177153504267,124.53260713773832 124.04338063159938,125.29090822225409 124.56929912569912,125.74344274043311 125.00960298122338,126.03697864411683 125.41321484878773,126.23266924657206 125.87798002962153,126.41612918637428 127.57804213845439,126.94204768047402 128.15288328316794,127.19889159619694 128.67880177726767,127.52911948784144 129.05795231952598,127.8471167168312 129.49825617505024,128.34857388562403 130.6357078018252,129.99971334384395 131.1249343079633,130.5990158138644 131.4429315369539,130.91701304285505 131.79762075390445,131.21054894653875 132.8494577421039,131.93215804309372 133.59552816396666,132.31130858535204 134.3293679231755,132.54369117576806 135.3078209354534,132.72715111557028 136.45750322488053,132.83722707945176 138.56117720127946,132.89838039271947 139.77201280397426,132.8739190674117 141.08069370789667,132.80053509149099 141.924609430987,132.72715111557028 142.52391190100835,132.61707515168877 143.12321437102793,132.48253786250035 143.51459557594012,132.33576991065894 143.88151545554456,132.1645406335106 144.1872820218813,131.9566193684015 144.48081792556414,131.6753141273708 144.67650852801935,131.41847021164787 145.03119774497165,130.7457837657067 145.50819358845757,129.4860255123981 145.78949882948655,128.87449237972376 146.14418804643708,128.336343222971 146.5722612393092,127.89603936744588 146.8535664803399,127.70034876498977 147.20825569729044,127.51688882518756 147.57517557689488,127.39458219865304 147.85648081792556,127.34565954803924 148.2723233481438,127.33342888538535 148.66370455305426,127.37012087334614 149.06731642062036,127.45573551191987 149.4831589508386,127.59027280110827 149.88677081840294,127.76150207825746 150.3882279871949,128.0305766566334 151.17099039701756,128.56872581338703 154.6689599159144,131.6019301514501 155.68410491615222,132.40915388657965 156.5769432898564,133.0696096698678 157.49424298886834,133.68114280254213 158.22808274807718,134.1336773207203 158.90076919401835,134.4883665376717 159.83029955568244,134.91643973054295 160.91882853184183,135.33228226076207 161.8605895561598,135.589126176485 162.82681190578555,135.74812479098028 163.68295829152805,135.82150876690102 164.62471931584602,135.8092781042471 165.51755768955022,135.69920214036648 166.36147341264055,135.47905021260348 167.1075438345033,135.18551430891978 167.59677034064313,135.47905021260348 168.2083034733166,135.7725861162872 168.89322058191163,135.96827671874243 169.7860589556158,136.12727533323775 169.96951889541714,136.20065930915845 170.1162868472603,136.34742726100075 170.56882136543848,137.1301896708234 171.05804787157828,137.68056949023006 171.63288901629184,138.64679183985493 172.3667287755007,139.6986288280544 172.73364865510513,140.42023792460938 173.1127991973617,140.9094644307492 173.52864172757992,141.69222684057186 173.65094835411531,141.8267641297594 173.98117624575983,142.0469160575224 174.16463618556116,142.23037599732461 174.6294013663932,142.97644641918737 174.72724666762258,143.2332903349103 174.89847594477004,143.526826238594 175.02078257130543,143.91820744350534 175.16755052314684,144.16282069657439 175.59562371601896,144.5908938894465 176.04815823419713,145.27581099804155 176.41507811380154,145.55711623907138 177.00214992116898,146.13195738378494 177.63814437915022,146.53556925135015 177.96837227079473,146.84133581768688 178.38421480101297,147.3672543117866 178.6899813673497,148.13778605895538 178.7878266685773,148.26009268549078 178.99574793368643,148.40686063733222 180.2677368496489,148.96947111939275 180.95265395824396,149.17739238450184 182.2491041995125,149.38531364961096 182.98294395872134,149.4586976255317 184.23047154937606,149.6666188906408 184.707467392862,149.71554154125462 185.14777124838625,149.7033108786016 185.88161100759513,149.59323491472009 186.40752950169485,149.4342363002248 187.0435239596761,149.15293105919494 187.67951841765733,149.01839377000655 188.4255888395201,149.00616310735265 188.81697004443055,149.05508575796648 189.25727389995654,149.14070039654106 188.4989728154399,150.15584539677977 188.27882088767865,150.51053461373115 188.00974630930185,151.07314509579084 187.8140557068466,151.70913955377208 187.5939037790836,152.07605943337649 187.33705986336068,152.38182599971321 186.56652811619017,152.96889780708065 186.3463761884289,153.23797238545748 186.113993598012,153.76389087955636 185.88161100759513,154.50996130141908 185.8326883569813,154.73011322918208 185.8326883569813,155.09703310878652 185.9183029955568,155.39056901246937 186.15068558597193,155.73302756676688 186.49314414027032,156.0021021451437 186.90898667048856,156.16110075963903 187.23921456213307,156.1977927475998 187.4838278152021,156.17333142229202 188.43781950217397,155.940948831876 189.04935263484742,155.7697195547277 189.19612058668886,155.7574888920738 189.35511920118415,155.7819502173807 189.52634847833338,155.8675648559553 189.8198843820162,156.12440877167822 189.97888299651152,156.39348335005505 190.35803353876983,157.23739907314538 190.7004920930665,157.73885624193824 190.71272275572036,157.97123883235426 190.56595480387895,158.64392527829543 190.57818546653283,158.94969184463216 190.63933877980054,159.15761310974128 190.92064402082949,159.72022359180178 191.00625865940495,160.05045148344544 191.01848932205712,160.36844871243605 190.9084133581756,160.77206058000127 190.71272275572036,161.1389804596057 190.46810950265134,161.48143901390324 190.38249486407761,161.56705365247694 189.42850317710574,161.59151497778387 188.2910515503308,161.75051359227916 187.0435239596761,161.79943624289385 186.72552673068546,161.86058955616068 186.02837895943827,162.0440494959629 185.00100329654484,162.25197076107202 184.731928718168,162.3742773876074 184.49954612775286,162.5332760021027 183.8880129950794,163.15703979743006 183.5333237781271,163.4383450384599 183.20309588648436,163.6218049782621 182.16348956093702,164.13549280970796 181.50303377764973,164.41679805073866 181.08719124743152,164.5513353399262 179.91304763269665,164.7470259423823 179.48497443982626,164.8571019062638 178.70221203000358,165.16286847260054 177.84606564425934,165.55424967751185 176.64746070421845,165.90893889446326 175.71793034255435,166.33701208733453 174.51932540251173,167.07085184654338 172.9048779322526,167.73130762983152 172.61134202856974,167.96369022024754 172.44011275142054,168.24499546127737 172.3667287755007,168.52630070230808 172.31780612488689,169.18675648559537 172.2444221489653,169.39467775070446 172.1343461850838,169.56590702785368 171.53504371506247,170.1162868472603 171.03358654627053,170.61774401605314 170.28751612440777,171.2170464860736 169.4680617266252,172.07319287181699 169.54144570254678,172.31780612488689 169.8349816062296,173.6509483541162 169.96951889541714,173.9934069084137 170.10405618460643,174.15240552290902 170.23859347379397,174.25025082413663 170.7155893172799,174.40924943863195 171.58396636567804,174.54378672782036 172.0731928718161,174.5560173904734 172.78257130571893,174.47040275189966 173.1127991973617,174.34809612536426 173.6142563661554,174.07902154698743 173.80994696861063,174.00563757106673 173.98117624575983,174.00563757106673 174.17686684821507,174.09125220964134 174.29917347475046,174.23802016148275 174.34809612536426,174.36032678801814 174.4826334145518,174.9596292580386 174.77616931823638,175.44885576417755 175.10639720987916,176.1582341980795 175.32654913764216,176.46400076441623 175.98700492092942,177.18560986097208 176.1826955233864,177.47914576465578 176.2316181740002,177.67483636711103 176.24384883665408,177.93168028283395 176.12154221011872,178.5921360661221 176.36615546318774,178.5432134155083 176.63523004156457,178.616597391429 176.85538196932757,178.7878266685782 177.2712244995458,179.22813052410334 177.65037504180412,179.46051311451936 178.02952558406068,179.57058907840084 178.7389040179635,179.63174239166767 179.70512636758752,179.55835841574697 180.85480865701462,179.37489847594475 181.23395919927293,179.38712913859865 181.57641775357132,179.49720510248014 182.66494672973073,180.0598155845398 183.14194257321665,180.243275524342 183.63116907935472,180.31665950026272 184.5362381157128,180.30442883760972 184.9765419712388,180.36558215087655 185.9183029955568,180.63465672925335 186.65214275476563,180.96488462089698 186.93344799579458,181.1483445606992 187.23921456213307,181.405188476423 187.50828914050814,181.67426305479893 187.66728775500346,181.90664564521495 187.76513305623106,182.20018154889868 187.83851703215265,182.98294395872134 187.93636233338026,183.52109311547497 188.02197697195572,183.7167837179302 188.14428359848938,183.8023983565048 188.32774353829245,183.81462901915867 189.13496727342115,183.6800917299703 190.44364817734356,183.63116907935648 190.7616454063342,183.5577851034349 191.27533323778005,183.36209450097965 191.72786775595992,183.26424919975204 192.4005542019011,183.16640389852355 193.41569920214064,183.10525058525673 193.74592709378342,183.00740528402824 194.45530552768625,182.6527160670777 195.04237733505192,182.4937174525824 195.56829582915168,182.4570254646216 196.46113420285585,182.579332091157 196.82805408246028,182.5548707658501 197.03597534756938,182.4814867899294 197.3662032392139,182.31025751278017 198.08781233576886,181.77210835602742 198.82165209497774,182.5548707658501 198.8583440829394,182.61602407911693 198.87057474559154,182.68940805503848 198.7727294443639,182.76279203095922 198.36911757679957,182.90955998280063 198.10004299842277,183.09301992260285 197.94104438392745,183.26424919975204 197.56189384166913,183.81462901915867 197.4151258898277,183.973627633654 196.8158234198081,184.1815488987631 196.4489035402037,184.41393148917913 196.24098227509458,184.65854474224818 195.95967703406387,185.14777124838798 195.8496010701824,185.25784721226862 195.58052649180556,185.34346185084323 195.21360661220115,185.36792317615013 194.76107209402298,185.380153838804 194.43084420237847,185.3312311881902 194.39415221441854,185.53915245329932 194.29630691319093,185.75930438106147 193.90492570827874,186.29745353781507 193.4401605274467,187.06798528498388 193.25670058764535,187.5939037790836 193.13439396110996,187.8385170321535 192.93870335865472,188.08313028522343 192.70632076823782,188.29105155033253 192.2415555874058,188.49897281544165 191.9602503463751,188.56012612870848 190.1011896230469,188.41335817686706 189.56304046629327,188.45005016482784 188.89035402035213,188.57235679136238 188.63351010462918,188.7191247432038 188.4500501648261,188.9637379962737 188.36443552625238,189.18388992403584 188.242128899717,189.78319239405715 188.10759161052945,190.2234962495823 188.02197697195572,190.40695618938452 187.89967034542033,190.56595480387983 187.63059576704353,190.70049209306822 187.16583058621148,190.82279871960276 186.70106540537944,190.87172137021656 186.15068558597193,190.82279871960276 185.9183029955568,190.83502938225575 185.66145907983383,190.89618269552346 185.52692179064456,190.98179733409805 185.45353781472474,191.10410396063259 185.45353781472474,191.25087191247488 185.50246046533854,191.4098705269693 185.62476709187217,191.59333046677153 185.97945630882447,191.94801968372295 186.49314414027032,192.30270890067348 186.67660408007166,192.5350914910895 186.98237064640838,193.48908317806135 186.9946013090623,193.67254311786357 186.92121733314244,193.8315417323589 186.78668004395317,193.9293870335865 186.48091347761644,194.039462997468 184.89092733266332,194.40638287707245 184.0470116095747,194.67545745544925 183.57001576608877,194.9200707085183 183.105250585255,195.2747599254697 182.90955998279978,195.34814390139042 182.49371745258154,195.44598920261802 182.2857961874724,195.53160384119263 182.13902823563097,195.65391046772714 181.74764703071878,196.11867564856007 181.53972576560966,196.28990492570838 180.34112082556877,197.02374468491723 179.65620371697372,197.29281926329406 179.4972051024784,197.39066456452167 179.24036118675548,197.6475084802446 179.10582389756794,197.92881372127442 179.08136257226016,198.13673498638354 179.13028522287397,198.71157613109796 179.13028522287397,199.2741866131576 179.08136257226016,199.70225980602973 178.92236395776487,199.99579570971258 178.70221203000358,200.20371697482258 178.43313745162678,200.33825426401012 177.12445654770437,200.68071281830763 176.1093115474648,200.81525010749604 175.71793034255435,200.83971143280294 174.89847594477004,200.77855811953611 174.39701877597807,200.65625149300072 173.9934069084137,200.5094835411593 173.35741245043246,200.19148631216868 172.37895943815283,199.65333715541593 172.1343461850838,199.54326119153444 171.73073431751945,199.43318522765293 171.13143184749813,199.34757058907834 170.8134346185075,199.2497252878507 170.51989871482468,199.1029573360093 169.77382829296192,198.61373082986947 169.48029238927907,198.46696287802806 169.2356791362083,198.40580956476035 168.95437389517934,198.36911757680045 168.5385313649611,198.35688691414654 167.3276957622663,198.46696287802806 166.8262385934726,198.46696287802806 166.43485738856214,198.41804022741425 165.63986431608558,198.25904161291894 165.11394582198585,198.21011896230513 164.89379389422285,198.23458028761203 164.63694997849993,198.33242558883964 164.4290287133908,198.55257751660264 164.159954135014,199.0051120347808 163.87864889398503,199.28641727581152 163.58511299030044,199.46987721561374 163.09588648416238,199.67779848072283 162.65558262863635,199.98356504705959 162.4232000382212,200.11810233624797 161.35913238736785,200.3749462519709 160.845444555922,200.4605608905455 160.27060341120844,200.47279155319853 159.7324542544548,200.3994075772778 159.4144570254642,200.2771009507433 158.7050785915631,199.89795040848497 158.36262003726472,199.66556781806895 157.9345468443926,199.21303329988993 157.78777889255116,198.9806507094739 157.68993359132355,198.77272944436478 157.66547226601577,198.44250155272115 157.836701543165,197.83096842004682 157.91008551908655,197.15828197410565 157.9834694950064,196.95036070899653 158.22808274807718,196.5712101667382 158.28923606134313,196.3632889016291 158.31369738665092,196.10644498590617 158.301466723997,195.5438345038465 156.9560938321147,195.81290908222246 156.09994744637046,195.92298504610395 154.95026515694335,195.99636902202468 154.36319334957594,195.94744637141085 153.59266160240713,195.71506378099483 153.05451244565353,195.62944914242024 152.85882184319829,195.49491185323183 152.2105967225649,194.90784004586527 152.00267545745578,194.74884143136995 150.66953322822562,194.0883856480818 150.25369069800738,193.9660790215473 149.6421575653339,193.59915914194286 149.3486216616493,193.48908317806135 148.63924322774824,193.39123787683374 147.85648081792556,193.18331661172462 147.37948497443963,193.12216329845694 145.03119774497165,193.13439396111082 143.97936075677217,193.20777793703152 143.42898093736466,193.17108594907074 142.0469160575224,192.96316468396162 142.23037599732376,193.23223926233842 142.34045196120525,193.44016052744755 142.41383593712683,193.67254311786357 142.46275858774064,193.9905403468542 142.47498925039451,194.45530552768625 142.36491328651303,195.433758539965 142.35268262385915,195.88629305814317 142.37714394916517,196.68128613061972 142.47498925039451,197.28058860064016 142.51168123835444,198.01442835984903 142.57283455162215,198.23458028761203 142.71960250346356,198.56480817925566 143.12321437102793,199.17634131193 143.24552099756332,199.43318522765293 143.33113563613705,199.64110649276205 143.33113563613705,199.76341311929656 143.09875304572188,199.92241173379188 143.07429172041412,200.1792556495148 143.0253690698003,200.3015622760502 142.81744780469117,200.570636854427 142.5361425636605,200.85194209545685 141.924609430987,201.37786058955658 141.01954039462896,201.89154842100243 140.81161912951984,202.09946968611155 140.76269647890604,202.24623763795384 140.76269647890604,202.34408293918145 140.88500310544143,203.0045387224696 140.8483111174815,203.37145860207403 140.73823515360002,203.66499450575688 140.4569299125693,204.1664516745497 140.2245473221524,204.68013950599644 139.97993406908338,205.4629019158191 139.83316611724194,205.73197649419504 138.9770197314977,206.53920022932547 138.32879461086432,207.29750131384125 137.98633605656593,207.41980794037576 137.58272418900157,207.6399598681379 137.21580430939713,207.8845731212078 136.9711910563281,208.09249438631693 136.43304189957448,208.70402751899127 135.88266208016697,209.53571257942772 135.22220629687968,210.78324017008245 133.8890640676495,213.60852324303636 132.40915388657965,216.44603697864417 131.95661936839974,217.47341264153675 131.650852802063,218.36625101524092 131.5040848502216,219.05116812383596 131.4551621996078,219.47924131670723 131.4429315369539,219.89508384692544 131.4918541875677,220.53107830490669 131.5774688261432,220.92245950981803 131.71200611533072,221.33830204003627 131.8954660551338,221.7541445702545 132.14007930820284,222.18221776312663 132.71492045291637,223.0016721609101 133.73006545315593,224.2369690889109 134.04806268214483,224.7017342697438 134.24375328460178,225.09311547465515 134.39052123644322,225.44780469160568 134.5005972003247,225.826955233864 134.85528641727527,227.78386125842067 135.01428503177058,228.43208637905494 135.19774497157366,229.00692752376847 135.45458888729658,229.67961396971052 135.7725861162872,230.35230041565165 136.07835268262394,230.92714156036521 136.49419521284216,231.56313601834646 137.41149491185237,232.73727963308045 138.58563852658725,234.04596053700286 139.3194782857961,234.74310830825092 141.23969232239196,236.32086379055013 141.7533801538378,236.83455162199598 142.13253069609613,237.2993168028289 142.57283455162215,238.03315656203688 143.086522383068,239.23176150207865 143.71028617839536,240.21021451435655 143.99159141942604,240.72390234580328 144.54197123883182,242.0325832497257 145.01896708231774,242.99880559935056 145.3614256366144,243.59810806937102 145.70388419091282,244.05064258755004 146.29095599828023,244.6988677081843 146.58449190196308,244.9679422865611 148.11332473364848,245.7996273469976 148.60255123978658,246.1176245759882 149.06731642062036,246.46008313028574 149.72777220390762,247.05938560030617 150.09469208351206,247.4507668052175 150.4616119631165,247.91553198604956 150.37599732454277,248.00114662462414 150.07023075820427,248.17237590177248 149.1529310591941,248.61267975729763 148.82270316754958,248.7227557211791 148.29678467344985,248.80837035975372 147.783096842004,248.83283168506063 146.87802780564593,248.77167837179294 146.4744159380816,248.78390903444682 146.09526539582328,248.83283168506063 145.5938082270313,248.96736897424904 145.2024270221191,249.12636758874436 144.4441259376042,249.5055181310018 143.44121160001853,249.87243801060623 141.69222684057013,250.63073909512198 141.36199894892735,250.75304572165737 140.3590846113417,251.02212030003332 139.95547274377734,251.19334957718252 139.64970617743887,251.41350150494463 139.28278629783443,251.82934403516288 139.0748650327253,252.1228799388466 138.67125316516098,252.86895036070933 138.50002388801178,253.11356361377838 138.31656394821042,253.2970235535806 137.98633605656593,253.50494481868972 137.21580430939713,253.77401939706652 136.84888442979272,253.94524867421572 136.65319382733747,254.05532463809635 136.4697338875344,254.21432325259167 136.34742726100075,254.41001385504777 136.21288997181148,254.92370168649362 136.05389135731616,255.36400554201876 135.85820075486092,255.7309254216232 135.67474081505785,256 135.6135875017919,255.9755386746931 135.50351153791038,255.84100138550468 135.36897424872112,255.53523481916795 135.07543834503826,254.15316993932484 134.96536238115675,253.98194066217565 134.79413310400756,253.85963403564114 134.65959581482002,253.82294204768033 134.5005972003247,253.84740337298723 134.21929195929403,253.95747933686874 133.97467870622498,254.10424728871104 133.38760689885754,254.56901246954308 133.0451483445609,255.0704696383359 132.8249964167979,255.24169891548425 132.51922985046116,255.33954421671186 132.09115665758904,255.37623620467264 131.69977545267682,255.25392957813813 130.78247575366663,254.7524724093453 130.4155558740622,254.38555252974086 130.08532798241768,253.7862500597204 129.9630213558823,253.6150207825712 129.85294539200254,253.52940614399748 129.63279346423954,253.48048349338282 129.42487219913042,253.50494481868972 129.1191056327937,253.5905594572643 128.70326310257545,253.79848072237343 128.37303521093094,254.09201662605716 127.90827003009889,254.65462710811767 127.7370407529497,254.7891643973052 127.57804213845439,254.8625483732268 126.4772824996411,255.1193922889497 125.2297549089864,255.46185084324725 124.56929912569912,255.44962018059337 124.15345659547914,255.35177487936573 123.90884334241011,255.24169891548425 123.41961683627028,254.94816301180052 122.6001624384877,254.54455114423618 121.96416798050646,254.11647795136406 121.60947876355591,253.8107113850273 121.1202522574161,253.2236395776599 120.91233099230698,253.05241030051155 120.50871912474263,252.74664373417394 119.93387798002908,252.4286465051842 119.68926472696005,252.257417228035 119.55472743777077,252.11064927619358 119.44465147388927,251.9149586737375 119.24896087143404,251.3523481916778 119.15111557020641,251.19334957718252 118.85757966652358,251.09550427595488 118.44173713630533,250.89981367349878 117.65897472648093,250.36166451674603 116.96182695523373,249.98251397448772 116.87621231665827,249.87243801060623 116.80282834073843,249.7256700587648 116.7661363527785,249.49328746834877 116.83952032869834,249.29759686589267 117.18197888299675,248.75944770913992 117.24313219626269,248.58821843199073 117.25536285891658,248.4047584921885 117.20644020830278,248.18460656442636 116.99851894319366,247.69538005828656 116.75390569012461,247.25507620276142 116.61936840093534,247.08384692561307 116.42367779848011,246.93707897377078 115.83660599111268,246.61908174478103 114.91930629210248,246.0197792747597 113.97754526778449,245.48163011800696 113.78185466532926,245.29817017820474 113.42716544837698,244.91901963594643 113.32932014714937,244.8578663226796 113.17032153265406,244.82117433471882 112.80340165304963,244.84563566002572 111.97171659261316,245.20032487697713 110.62634370073083,245.59170608188847 109.55004538722358,245.55501409392767 108.87735894128242,245.59170608188847 108.60828436290561,245.54278343127467 108.38813243514434,245.40824614208626 108.14351918207356,245.12694090105643 107.96005924227222,244.8089436720658 108.10682719411365,244.64994505757048 108.26582580860895,244.42979312980748 108.37590177249045,244.22187186469836 108.4492857484103,243.98948927428233 108.48597773637196,243.74487602121243 108.47374707371807,242.87649897281517 108.49820839902411,242.38727246667622 108.7183603267871,241.50666475562593 108.69389900148107,241.2987434905168 108.60828436290561,241.11528355071462 108.19244183268738,240.63828770722867 108.05790454349983,240.39367445415877 108.02121255553992,240.05121589986126 108.16798050738134,239.46414409249468 108.30251779656888,239.24399216473168 108.43705508575815,239.13391620085017 108.65720701351941,239.04830156227644 109.62342936314516,238.8159189718604 109.90473460417586,238.70584300797893 110.1493478572449,238.5468443934836 110.33280779704624,238.3633844536814 110.46734508623553,238.15546318857227 110.56519038746313,237.81300463427476 110.65080502603686,236.93239692322447 110.65080502603686,236.46763174239157 110.60188237542306,235.9050212603319 110.47957574888942,235.31794945296446 110.44288376092776,234.92656824805314 110.35726912235403,234.7308776455979 109.83135062825428,234.22942047680507 109.6478906884512,233.93588457312134 109.57450671253136,233.70350198270532 109.56227604987747,233.48335005494232 109.61119870049127,233.06750752472408 109.73350532702666,232.77397162104037 109.91696526682802,232.50489704266442 110.1493478572449,232.26028378959452 110.3205771343941,232.1257465004061 110.76088098991838,231.917825235297 111.739334002198,231.70990397018787 111.95948592995927,231.62428933161328 112.10625388180243,231.51421336773265 112.20409918303005,231.31852276527655 112.26525249629775,230.7681429458699 112.33863647221759,230.5479910181069 112.7300176771298,230.03430318666105 112.8767856289712,229.74076728297734 112.8890162916251,229.55730734317513 112.81563231570352,229.3004634274522 112.42425111079132,228.55439300559033 112.36309779752536,228.3097797525204 112.41202044813917,228.0651664994505 112.7300176771298,227.46586402943004 112.80340165304963,227.14786680043943 112.79117099039574,226.92771487267729 112.57101906263448,225.92480053509163 112.55878839998059,225.7168792699825 112.59548038794051,225.5334193301803 113.48831876164468,225.06865414934825 113.81854665328919,224.95857818546673 114.09985189431815,224.98303951077364 114.7847690029132,225.11757679996205 115.15168888251763,225.12980746261508 115.31068749701294,225.10534613730817 115.48191677416213,225.04419282404135 115.86106731642045,224.79957957097145 116.05675791887568,224.77511824566452 116.59490707562931,224.89742487219905 117.25536285891658,225.12980746261508 117.51220677463951,225.15426878792198 117.75682002771029,225.09311547465515 118.25827719650225,224.84850222158525 118.67411972672049,224.53050499259462 118.88204099182961,224.26143041421867 118.95542496775118,224.0535091491087 118.97988629305722,223.3930533658214 119.0532702689788,223.0995174621377 119.23673020878014,222.84267354641477 119.71372605226608,222.45129234150343 120.01949261860281,222.10883378720592 120.17849123309813,221.7786058955614 120.38641249820724,221.10591944962025 120.71664038985175,220.4454636663321 120.76556304046555,220.21308107591608 120.79002436577333,219.85839185896555 120.80225502842548,218.75763222015226 120.93679231761475,217.8281018584873 121.08356026945617,217.30218336438756 121.14471358272387,216.8251875209025 121.1202522574161,216.71511155702098 121.04686828149626,216.5805742678326 120.58210310066421,216.12803974965357 120.39864316086113,215.87119583393064 120.32525918494129,215.6021212555538 120.3619511729012,215.2841240265632 120.43533514882105,215.06397209880106 120.56987243801032,214.84382017103806 121.46271081171449,214.04882709856238 122.06201328173407,213.30275667669963 122.22101189622938,212.9602981224021 122.25770388419105,212.72791553198607 122.09870526969573,211.6271558931728 121.98862930581423,211.34585065214296 121.89078400458662,211.26023601356837 121.2792508719114,210.97893077253855 120.81448569107937,210.62424155558713 120.21518322105979,210.2328603506758 119.76264870287989,209.86594047107135Z"/>
    <path d="M74.05666236682337,53.87606898858155 73.13936266781317,54.108451578997574 72.3076776073767,54.450910133295096 69.55577851034262,55.8452056757921 68.28378959438187,56.591276097653974 67.73340977497436,56.97042663991229 67.13410730495305,57.435191820744336 65.14050929243733,59.20863790549878 64.07644164158397,60.21155224308445 62.97568200277068,61.361234532511546 62.53537814724467,61.77707706272978 62.24184224356183,61.997228990492786 61.86269170130351,62.241842243562694 61.165543930054575,62.53537814724554 60.66408676126261,62.669915436433946 59.966938990013674,62.79222206296934 58.35249151975454,62.93899001481076 56.16320290478185,63.02460465338536 55.28259519373157,63.03683531603838 54.132912904304476,63.00014332807845 52.750848024460495,62.87783670154307 52.01700826525163,62.77999140031545 51.18532320481516,62.620992785820135 50.39033013233861,62.425302183364906 49.815488987625066,62.25407290621571 48.66580669819797,61.789307725383665 47.52835507142476,61.21446658067012 46.9168219387513,60.82308537575879 46.41536476995759,60.46839615880737 45.473603745639615,59.68563374898471 44.605226697243225,58.81725670058745 43.82246428742056,57.863265013616456 43.0886245282117,56.750274712149285 42.51378338349816,55.66174573598988 42.07347952797215,54.65883139840422 41.73102097367549,53.74153169939314 41.474177057952566,52.90984663895667 41.302947780803365,52.09039224117321 41.20510247957575,51.39324446992515 41.192871816921866,50.53709808418177 41.25402513018956,49.81548898762593 41.41302374468487,48.959342601882554 41.87778892551692,47.11251254120653 41.938942238784605,46.58659404710766 41.96340356409064,46.18298217954244 41.938942238784605,45.595910372175005 41.81663561224922,44.94768525154075 41.596483684486216,44.287229468252605 41.29071711814948,43.65123501027223 40.838182599971326,42.96631790167718 40.14103482872239,42.14686350389373 38.11074482824501,40.37341741913928 37.47475037026377,39.798576274425734 36.704218623094995,39.00358320194918 34.90631121303277,37.022215852085615 33.98901151402257,36.15383880368835 33.36524771869348,35.67684296020242 32.741483923366125,35.28546175529109 32.11772012803877,34.96746452630047 31.5061869953653,34.71062061057754 30.686732597582715,34.441546032200726 29.965123501026007,34.25808609239938 29.194591753857228,34.12354880321098 28.154985428311637,34.00124217667559 27.237685729299695,33.97678085136869 26.589460608666307,34.00124217667559 25.855620849457452,34.05016482728939 25.01170512636709,34.14801012851788 23.5807175959093,34.417084706893824 20.92666380010457,35.016387176915146 19.948210787826675,35.17538579140959 18.933065787587118,35.19984711671736 18.32153265491365,35.15092446610268 17.697768859586294,35.06530982752895 14.077492714155818,34.380392718933905 12.756581147579528,34.037934164636376 11.43566958100324,33.560938321150445 8.280158616406544,32.252257417228044 5.821795423057047,31.38388036883078 4.880034398739072,30.98026850126643 4.403038555253142,30.71119392288962 3.913812049113324,30.380966031245983 3.4612775309351664,29.98958482633465 3.1799722899044673,29.69604892265093 2.8497443982599604,29.280206392432696 2.4583631933494967,28.668673259758357 2.1648272896649114,28.1305241030056 1.8712913859820637,27.49452964502436 0.41584253021823636,23.61740958387096 0.22015192776300468,22.98141512588972 0.09784530122761584,22.455496631789977 0,21.80727151115572 0.012230662652148418,21.232430366442173 0.12230662653365076,20.64535855907474 0.29353590368284754,20.16836271558968 0.5259184940997387,19.72805886006454 0.7949930724765514,19.32444699249932 1.1741436147331281,18.896373799627195 1.602216807605251,18.492761932062848 2.201519277626571,18.02799675122993 2.6540537958047286,17.734460847547087 3.228894940518275,17.416463618556467 3.913812049113324,17.08623572691196 4.696574458935989,16.75600783526832 5.4915675314125405,16.462471931584602 7.203860302899294,15.94878410013875 8.206774640484964,15.704170847068843 9.221919640724519,15.508480244613612 11.019827050785002,15.239405666236799 11.82705078591544,15.178252352969103 12.450814581242794,15.166021690316086 13.050117051262376,15.214944340929895 13.67388084659147,15.337250967464414 14.603411208255558,15.618556208495113 20.192824040895715,17.70999952224018 20.669819884381646,17.820075486120814 21.048970426639958,17.84453681142772 21.342506330322806,17.832306148774702 21.72165687258112,17.75892217285399 22.16196072810539,17.587692895704794 22.4921886197499,17.379771630595673 22.871339162008216,17.03731307629815 23.238259041612643,16.59700922077301 23.45841096937565,16.242320003822467 23.72748554775246,15.728632172375747 23.947637475513726,15.166021690316086 24.510247957575125,13.563804882709967 24.742630547990277,13.037886388610227 25.023935789020978,12.499737231857472 25.390855668625406,11.961588075103846 25.77000621088372,11.54574554488561 26.173618078448072,11.191056327935067 26.62615259662623,10.921981749558256 27.05422578949835,10.750752472409058 27.482298982370473,10.652907171181443 27.93483350054863,10.616215183221522 28.338445368112982,10.62844584587454 28.839902536906685,10.689599159142233 29.329129043046503,10.799675123023736 31.408341694137686,11.398977593044187 32.264488079880195,11.5824375328464 32.79040657397993,11.631360183460208 33.27963308011975,11.619129520806322 33.8544742248333,11.533514882232593 34.23362476709161,11.435669581004108 34.55162199608223,11.680282834074017 35.45669103244028,12.169509340212965 36.60637332186738,12.842195786154996 36.875447900242456,13.099039701877922 37.68267163537289,14.004108738235107 37.82943958721432,14.334336629879614 37.866131575174236,14.578949882948653 37.853900912522086,15.349481630118301 37.75605561129447,15.887630786871057 37.780516936600506,16.31570397974318 37.853900912522086,16.535855907505315 38.049591514977315,16.853853136495935 38.25751278008644,17.025082413645134 39.13812049113672,17.636615546318602 39.4316563948213,17.930151450002317 39.78634561177184,18.394916630834363 39.957574888921044,18.51722325736975 40.38564808179143,18.663991209211176 41.584253021832325,18.884143136974178 41.84109693755699,18.96975777554878 42.01232621470445,19.067603076776393 42.15909416654588,19.23883235392472 42.37924609430888,19.776981510678347 42.85624193779481,20.351822655391892 43.01524055229012,20.584205245807915 43.25985380535916,21.354736992976694 43.565620371697634,22.626725908939175 43.895848263340405,23.788638861019287 43.98146290191587,23.9720988008215 44.20161482967713,24.302326692466007 44.238306817638794,24.41240265634751 44.1771535043711,24.546939945535048 43.895848263340405,24.803783861258843 43.71238832353906,25.072858439634786 43.492236395776054,25.57431560842762 43.34546844393463,26.014619463952762 43.12531651617162,26.491615307438693 43.01524055229012,27.45783765706357 43.00300988963623,28.093832115044812 42.72170464860727,28.986670488748977 42.61162868472577,29.561511633462526 42.62385934737966,29.86727819979926 42.6972433232995,30.038507476948457 42.78285796187497,30.14858344082909 43.16200850413154,30.454350007166692 43.21093115474535,30.55219530839431 46.672208685680516,30.319812717978287 48.27442549328751,30.319812717978287 48.75142133677344,30.34427404328519 49.167263866991675,30.417658019205902 49.70541302374356,30.55219530839431 52.12708422913314,31.35941904352388 54.132912904304476,32.08102814007972 54.92790597678103,32.411256031723354 55.45382447088077,32.71702259806009 55.71066838660369,32.94940518847611 56.02866561559431,33.34078639338831 56.54235344704016,34.05016482728939 56.713582724189365,34.355931393627 56.72581338684151,34.61277530934993 56.358893507237084,35.32215374325188 56.26104820600947,35.750226936124 56.28550953131724,36.15383880368835 56.358893507237084,36.37399073145136 56.517892121732395,36.69198796044198 56.713582724189365,37.00998518943173 56.945965314604514,37.315751755769334 57.435191820744336,37.817208924562166 58.20572356791311,38.52658735846325 58.79279537528054,39.26042711767211 59.15971525488497,39.639577659930424 59.57555778510321,39.957574888921044 60.04032296593525,40.23888012995087 61.61807844823447,40.97271988915973 62.29076489417563,41.25402513018956 62.97568200277068,41.461946395298675 63.57498447279026,41.584253021834066 64.03974965362404,41.63317567244788 64.94481868998037,41.645406335100894 65.54412116000168,41.743251636329376 65.99665567817983,41.8900195881708 66.40026754574592,42.06124886531913 66.6815727867749,42.256939467775226 66.92618603984393,42.50155272084514 67.2319526061824,42.88070326310258 67.37872055802383,43.162008504132416 67.51325784721136,43.54115904639073 67.70894844966833,44.385074769481086 68.24709760642021,45.436911757679695 68.3204815823418,45.718216998710396 68.50394152214314,47.039128565285814 68.60178682337076,47.28374181835572 68.77301610051995,47.516124408771745 69.06655200420454,47.78519898714856 69.42124122115509,48.00535091491069 69.77593043810562,48.1398882040991 70.81553676365121,48.42119344512893 71.40260857101865,48.67803736085273 71.90406573981062,48.98380392718946 72.72352013759495,49.55864507190301 72.95590272801009,49.754335674359105 73.09044001719937,49.937795614161324 73.16382399311921,50.133486216616554 73.20051598108087,50.37809946968646 73.27389995700071,51.491089771152765 73.2861306196546,52.261621518322414 73.40843724618999,52.68969471119367 73.57966652333745,52.99546127753127 73.76312646314052,53.17892121733348 74.11781568009107,53.43576513305641 74.74157947541843,53.778223687353936 74.05666236682337,53.87606898858155Z"/>
  </g>
</svg>