<?xml version="1.0" encoding="UTF-8" standalone="no"?>
<svg viewBox="0 0 256 168.3915036222951" xmlns="http://www.w3.org/2000/svg">
  <style>
    g.zone {
      fill: lightgray;
      stroke-width: 2;
      stroke-linecap: square;
      stroke-linejoin: bevel;
      stroke-miterlimit: 3;
      stroke-opacity: 0.8;
      stroke: black;
      fill-opacity: 0.3;
    }
  </style>
  <g class="zone" id="zone">
    <path d="M65.15124932235977,127.96845892267493 64.36903060470263,127.61519885663573 63.73820905820297,127.45118525454606 63.06953821891573,127.37548666896643 62.27470307032641,127.42595239268618 61.47986792173888,127.60258242570534 60.77334778966048,127.86752747523451 60.14252624316261,128.20817111034424 58.57808880784653,129.15440343009192 57.94726726134866,129.4319649105506 57.404760731359914,129.59597851264024 56.67300773742074,129.72214282194054 55.92863831255296,129.72214282194054 55.18426888768519,129.60859494357064 54.47774875560679,129.4067320486907 53.67029717608887,129.09132127544177 53.014242767730224,128.77591050219286 52.01754472426187,128.23340397220412 51.28579173032448,127.79182888965488 50.02414863732695,126.95914444827709 49.40594352175947,126.50495293479837 48.21999901434247,125.54610418412028 47.58917746784281,124.94051549948229 46.970972352275325,124.25922822926375 44.97757626534041,121.66024345768996 42.44167364841675,118.6449164654277 42.050564289587285,118.24119067566875 41.60898920703806,117.86269774776966 41.01601695332956,117.45897195801071 40.49874328520159,117.16879404662164 39.86792173870193,116.91646542802197 39.46419594894387,116.80291754965207 38.89645655709435,116.68936967128215 38.21516928687672,116.6389039475624 37.63481346409861,116.65152037849279 36.96614262480958,116.7524518259323 36.562416835051515,116.8659997043022 35.90636242669287,117.13094475383139 35.098910847174956,115.97023310827426 34.909664383224516,115.78098664432473 33.83726775417742,114.9861514957363 33.20644620767955,114.72120644620712 32.222364595141585,114.67074072248735 30.910255778424293,114.69597358434724 29.471982652408506,114.60765856783722 28.765462520330104,114.51934355132809 27.655216598491844,114.29224779458828 25.95199842294688,113.80020698831929 24.866985362969398,113.39648119856034 24.072150214381868,112.98013897787189 23.83243802671167,112.9675225469415 23.453945098812593,113.05583756345152 23.226849342072786,113.0810704253114 22.987137154404383,113.03060470159164 22.823123552314723,112.94228968508162 22.659109950225062,112.80350894485184 22.394164900695884,112.46286530974302 21.91474052535729,112.09698881277343 20.72879601794029,110.84796215070719 20.060125178651255,110.2297570351388 19.870878714702613,109.97742841653913 19.79518012912208,109.69986693607956 19.92134443842237,108.08496377704373 20.072741609581644,107.15134788822641 20.17367305702116,106.8107042531167 20.274604504460676,106.64669065102703 20.438618106550337,106.49529347986777 21.246069686068253,105.92755408801914 21.574096890247578,105.76354048592948 22.141836282097096,105.58691045290944 22.45724705534603,105.3850475580304 22.570794933715934,105.25888324873101 22.633877088364287,105.10748607757084 22.62126065743569,104.9182396136213 22.54556207185516,104.61544527130185 22.10398698930593,103.73229510620429 21.34700113350777,102.11739194716846 21.18298753141811,101.90291262135904 20.627864570500773,101.34778966043991 20.337686659110823,101.03237888719097 20.161056626090772,100.7548174067314 19.94657730028135,100.27539303139281 19.16435858262421,99.30392784978524 18.760632792864353,98.6478734414266 18.470454881474403,98.24414765166763 18.180276970086243,97.94135330934908 17.612537578236726,97.44931250308011 17.43590754521847,97.2222167463403 17.29712680498779,96.8689566803011 17.208811788478663,96.28860085752298 17.13311320289813,96.07412153171356 16.96909960080847,95.87225863683364 16.552757380120017,95.46853284707467 16.46444236361089,95.3171356759154 16.37612734709997,95.0900399191756 16.275195899660453,94.29520477058806 16.30042876152123,93.65176679315891 16.224730175940696,93.44990389827989 16.010250850131275,93.28589029619022 15.076634961313067,92.844315213641 14.307032674586312,92.57937016411182 13.890690453896068,92.49105514760178 13.524813956927375,92.4784387166723 12.591198068109165,92.65506874969145 12.212705140210085,92.69291804248172 11.619732886501586,92.7055344734112 10.988911340003716,92.66768518062185 10.988911340003716,92.37750726923278 10.925829185353571,91.98639791040331 10.76181558326391,91.44389138041457 10.446404810014975,90.9392341432161 10.181459760485797,90.62382336996717 9.903898280026233,90.3462618895076 9.348775319107105,89.91730323788876 8.654871617959088,89.50096101719942 7.923118624021704,89.12246808930034 5.690010349416593,88.08792075304261 4.756394460598383,87.57064708491464 4.01202503573061,87.07860627864567 3.3685870583023525,86.5487161795864 2.8386969592439986,86.00620964959856 2.346656152975015,85.35015524123992 1.8924646394954014,84.542703661722 1.6275195899662247,83.86141639150348 1.3625745404370477,82.96564979547553 1.1859445074187918,81.99418461386796 0.9714651816075797,80.34143216204185 0.8074515795197114,78.65083041742638 0.7569858557981606,77.80552954511819 0.7569858557981606,77.1999408604802 0.8453008723090815,75.5471884086541 0.8074515795197114,74.80281898378543 0.7065201320784028,74.42432605588635 0.5803558227799046,74.13414814449729 0.32802720417932246,73.70518949287846 0,73.31408013404989 0.6182051155692747,72.73372431127088 1.122862352768646,72.35523138337179 1.6401360208966123,72.06505347198274 2.1952589818157415,71.88842343896269 2.7882312355242407,71.78749199152317 3.3559706273719647,71.80010842245356 3.620915676901142,71.77487556059369 4.567147996649739,71.522546941994 5.765708934997125,71.33330047804445 6.787639840324463,71.32068404711407 7.759105021932043,71.18190330688428 8.844118081909526,71.14405401409492 10.231925484205556,70.99265684293475 10.269774776994925,70.61416391503656 10.358089793505847,70.336602434577 10.623034843035024,69.86979449016789 11.039377063723474,69.33990439110954 11.190774234882747,69.08757577250985 11.30432211325265,68.77216499926092 11.405253560692167,68.12872702183266 11.544034300922846,67.73761766300319 11.922527228821926,66.95539894534515 12.250554433001248,66.57690601744608 12.351485880440764,66.4255088462868 12.578581637180571,65.5928244049081 12.818293824848972,64.8863042728306 13.423882509487859,63.851756936572876 13.663594697156261,63.29663397565375 14.01685476319636,61.94667586614709 14.155635503425245,61.139224286629165 14.256566950866553,60.87427923709999 14.483662707604568,60.43270415455166 14.546744862254712,60.192991966881465 14.660292740624616,59.17106106155413 14.635059878765635,58.70425311714592 14.5593612931851,58.16174658715718 15.127100685032824,58.23744517273682 15.467744320142534,58.212212310876936 15.73268936967171,58.14913015622679 15.959785126411518,58.060815139716766 16.186880883151325,57.934650830417375 16.388743778030356,57.74540436646783 16.50229165640026,57.60662362623805 16.67892168942031,57.24074712926936 16.767236705929438,56.92533635601953 16.994332462669245,55.12118673303415 17.158346064758906,54.28850229165635 17.334976097778952,53.63244788329771 17.6377704400975,52.8123798728503 18.003646937066193,51.9796954314725 18.432605588685032,51.12177812823393 19.769947267261305,48.73727268247044 20.7161795870099,46.920506628554676 21.119905376767964,46.23921935833615 21.498398304667045,45.709329259277794 21.91474052535729,45.2299048839392 22.28061702232598,44.85141195604012 22.886205706964866,44.34675471884075 23.327780789514094,44.031343945591814 23.895520181361817,43.66546744862222 24.3875609876308,43.425755260952926 24.904834655758766,43.198659504214014 25.586121925978187,42.9841801784046 26.74683357153441,42.71923512887452 28.096791681041072,42.55522152678576 29.44674979054773,42.517372233995495 30.746242176334633,42.59307081957513 32.18451530235221,42.807550145384546 33.57232270464824,43.13557734956387 34.97274653787466,43.56453600118271 35.881129564832094,43.89256320536203 37.218471243408366,44.43506973535077 41.091715538910094,46.176137203686004 43.11034448770399,47.034054506924576 44.523384751860796,47.58917746784281 49.683505002219036,49.51949140012848 51.058695973584676,50.112463653836976 52.03016115519226,50.59188802917557 52.82499630377979,51.0334631117248 53.607215021438726,51.525503917992886 55.22211818047456,52.67359913262052 56.054802621853256,53.31703711004877 56.91271992509093,54.04879010398705 59.80188260805289,56.647774875560856 60.2686905524629,57.00103494160006 60.89951209896076,57.35429500763926 61.353703612438586,57.518308609728024 61.542950076389026,57.429993593218896 61.71958010940907,57.265979991129235 61.934059435218494,56.988418510669675 62.11068946823675,56.63515844463047 62.173771622886896,56.40806268789156 62.236853777537036,55.80247400325268 62.19900448474767,55.23473461140405 62.06022374451699,54.603913064905285 61.85836084963796,54.08663939677732 61.58079936917839,53.58198215957795 61.06352570105043,52.88807845842993 60.49578630920091,52.28248977379105 59.78926617712251,51.626435365433295 58.95658173574561,50.95776452614427 57.83371938297876,50.17554580848623 53.78384505445877,47.816273224582616 50.516189443595934,45.772411413927045 48.38401261643213,44.48553545907053 47.702725346212716,44.00611108373194 47.34946528017441,43.70331674141249 47.134985954364986,43.463604553743195 46.970972352275325,43.2238923660739 46.84480804297504,42.97156374747421 46.75649302646591,42.681385836085155 46.70602730274615,42.20196146074656 46.68079444088538,41.15479769355844 46.60509585530664,40.700606180079724 46.47893154600634,40.24641466660101 46.35276723670605,40.006702478931714 46.16352077275741,39.754373860332024 45.64624710462765,39.26233305406394 45.292987038589345,39.022620866393744 44.88926124882949,38.83337440244421 44.47291902814104,38.70721009314481 43.943028929082686,38.58104578384542 43.047262333053844,38.480114336405 40.42304469962106,38.290867872455465 39.363264501504354,38.13947070129619 38.68197723128493,37.97545709920653 38.02592282292628,37.74836134246762 37.33201912177827,37.4203341382883 36.675964713419624,37.01660834852934 36.146074614361275,36.549800404120234 35.71711596274243,36.07037602878164 35.33862303484335,35.46478734414275 35.098910847174956,34.87181509043425 34.93489724508529,34.22837711300599 34.859198659504756,33.597555566507225 34.84658222857437,32.979350450938846 34.98536296880505,31.023803656794197 34.997979399733644,30.191119215415505 34.89704795229413,29.358434774037708 34.720417919275874,28.651914641959305 34.581637179045195,28.31127100685049 34.367157853235774,27.89492878616114 34.114829234636986,27.491202996402183 33.812034892316646,27.1127100685031 33.19382977674916,26.494504952934726 32.3232960425811,25.787984820856323 31.515844463063182,25.245478290868476 30.50652998866623,24.677738899019857 29.471982652408506,24.248780247400123 28.601448918240443,24.009068059730826 27.491202996402183,23.819821595781285 26.36834064363533,23.744123010201648 25.270711152729252,23.769355872061524 21.91474052535729,24.02168449066121 20.93065891281932,24.02168449066121 19.92134443842237,23.93336947415119 18.84894780937348,23.718890148341767 18.155044108225468,23.517027253462736 17.59992114730813,23.30254792765332 17.082647479178373,23.06283573998312 16.603223103839774,22.785274259524456 15.821004386182633,22.204918436745448 15.455127889212147,21.864274801636633 15.215415701543746,21.574096890247578 14.93785422108418,21.195603962348496 14.723374895274763,20.791878172588643 14.584594155044083,20.451234537479827 14.471046276675972,20.034892316791378 14.433196983884809,19.61855009610203 14.445813414815197,19.303139322853095 14.508895569465343,18.949879256813894 14.635059878765635,18.571386328914812 14.81168991178389,18.21812626287561 15.026169237593308,17.927948351486556 15.253264994333115,17.675619732886872 15.606525060373214,17.347592528707548 15.921935833622149,17.10788034103825 16.401360208960742,16.817702429649195 17.486373268938227,16.275195899660453 19.643782957962806,15.392045734562002 22.10398698930593,14.092553348775995 23.125917894633268,13.67621112808665 24.046917352521092,13.423882509486964 24.892218224830174,13.272485338327689 25.95199842294688,13.171553890888173 27.037011482924363,13.171553890888173 28.084175250110682,13.234636045537423 29.345818343108213,13.386033216697593 30.430831403085698,13.600512542507012 31.46537873934342,13.890690453896068 32.46207678280999,14.25656695086476 33.24429550046892,14.597210585974471 36.24700606180079,16.123798728500283 37.42033413828919,16.666305258489025 38.55581292198643,17.095263910107864 39.640825981963914,17.398058252427305 40.97816766054019,17.62515400916711 42.34074220097724,17.751318318466506 46.81957518111606,18.003646937066193 47.601793898773195,18.016263367995684 48.283081168990826,17.978414075206313 48.838204129909954,17.89009905869629 49.31762850524855,17.763934749396896 49.92321718988744,17.53683899265709 50.314326548716906,17.347592528707548 51.56335321078405,16.55275738011912 54.023557242127175,14.710758464344375 54.67961165048582,14.294416243655027 55.34828248977485,13.928539746686335 56.09265191464262,13.600512542507012 56.8370213395104,13.348183923907326 57.46784288600827,13.196786752748054 58.38884234389609,13.05800601251827 59.78926617712251,12.957074565078754 61.25277216499907,12.919225272288488 62.29993593218718,12.944458134148368 63.422798284954034,13.05800601251827 64.83583854911085,13.322951062047448 67.42220688975426,14.004238332265972 72.39308067616206,15.215415701542849 72.92297077522042,15.303730718052874 73.55379232172008,15.366812872702123 73.98275097333891,15.35419644177263 74.4874082105365,15.278497856192994 74.91636686215533,15.164949977823092 75.29485979005442,14.988319944803042 75.69858557981426,14.748607757133744 76.08969493864373,14.433196983884809 76.40510571189267,14.117786210635874 76.70790005421122,13.751909713666286 77.5532009265203,12.565965206249286 77.9064609925586,12.124390123700062 78.19663890394855,11.821595781381514 78.60036469370662,11.493568577202192 79.0924054999756,11.203390665813135 79.76107633926463,10.938445616283062 80.5054457641324,10.76181558326391 81.22458232714119,10.686116997684273 81.90586959735883,10.686116997684273 82.67547188408737,10.76181558326391 83.50815632546427,10.913212754423183 84.44177221428248,11.17815780395236 85.27445665566118,11.480952146271804 86.05667537331833,11.808979350451127 88.95845448721067,13.121088167168416 90.1065497018383,13.550046818787255 91.00231629786714,13.827608299245922 91.91069932482458,14.042087625055341 92.6046030259726,14.155635503425245 93.43728746734949,14.21871765807539 94.18165689221905,14.180868365285123 94.64846483662727,14.105169779705488 95.02695776452634,13.991621901335584 95.53161500172571,13.814991868316431 95.94795722241417,13.62574540436689 95.54423143265431,13.512197525996987 95.06480705731572,13.24725247646781 94.76201271499717,13.032773150658391 94.43398551081785,12.704745946479068 94.03025972105799,12.376718742299747 93.19757527968109,11.808979350451127 92.85693164457138,11.342171406042022 92.2387265290039,10.76181558326391 92.07471292691423,10.559952688383982 91.96116504854433,10.35808979350495 91.8854664629638,10.080528313045386 91.87285003203341,9.8281996944457 91.91069932482458,9.626336799566669 92.04948006505346,9.449706766547516 92.26395939086288,9.323542457247225 93.12187669410055,8.894583805628388 93.92932827361848,8.377310137499524 94.16904046128867,8.25114582820013 94.83771130057771,8.024050071460323 96.0362722389233,7.733872160071267 96.65447735449257,7.6707900054211215 97.8025725691202,7.8095707456509045 98.2819969444588,7.834803607510783 98.88758562909769,7.746488591001655 99.99783155093415,7.405844955891945 100.37632447883323,7.330146370312308 101.07022817998124,7.342762801242696 101.9533783450797,7.4436942486822115 102.81129564831737,7.658173574491631 105.37243112710001,8.591789463308944 105.81400620964924,8.730570203538726 106.54575920358842,8.869350943768508 107.08826573357716,8.932433098418654 108.27421024099415,8.970282391208023 108.65270316889324,9.071213838648436 110.0026612783999,9.310926026317734 110.39377063722758,9.41185747375725 110.91104430535734,9.613720368636281 111.26430437139564,9.8281996944457 111.66803016115549,10.320240500714684 111.90774234882389,10.509486964664225 112.27361884579437,10.660884135824395 113.25770045833055,10.976294909073328 113.59834409344026,11.165541373022869 113.96422059040896,11.430486422552045 114.29224779458828,11.73328076487149 114.46887782760832,11.960376521611296 114.59504213690862,12.187472278350207 114.94830220294692,13.09585530530764 115.17539795968673,13.436498940417351 115.42772657828552,13.714060420876915 115.81883593711498,14.016854763195463 116.29826031245358,14.332265536445293 116.70198610221344,14.534128431324325 117.55990340545111,14.900004928293914 117.90054704055903,15.152333546892704 118.58183431077845,16.237346606870187 118.80893006751826,16.716770982208782 118.85939579123801,16.96909960080847 118.85939579123801,17.56207185451697 118.93509437681676,18.06672909171544 118.9981765314669,18.975112118673774 119.04864225518666,19.18959144448319 119.13695727169758,19.404070770292613 119.26312158099608,19.61855009610203 119.37666945936598,19.744714405401425 119.50283376866628,19.79518012912118 119.79301168005443,19.858262283771328 119.90655955842433,19.933960869350965 119.96964171307448,20.110590902371015 120.02010743679423,20.552165984919345 120.1967374698143,20.943275343748812 120.3102853481842,21.51101473559743 120.44906608841308,21.839041939776756 121.31959982258114,23.06283573998312 121.53407914839056,23.226849342072786 121.93780493815042,23.390862944162446 121.89995564535926,23.592725839042373 121.89995564535926,23.895520181361817 121.97565423093978,24.135232369031115 122.6695579320878,24.702971760879734 122.95973584347776,25.03099896505906 123.04805085998689,25.270711152728357 123.08590015277625,25.901532699226227 123.12374944556741,26.078162732246273 123.31299590951606,26.58281996944475 123.38869449509659,26.847765018973927 123.59055738997563,27.276723670592766 123.7293381302063,27.465970134542303 123.83026957764582,27.55428515105233 124.12044748903398,27.680449460351724 124.78911832832301,28.096791681041072 125.6218027697017,28.450051747080273 126.60588438223787,29.055640431718263 126.8203637080473,29.23227046473831 127.08530875757647,29.522448376127368 127.23670592873754,29.762160563796666 127.31240451431628,30.001872751465964 127.29978808338589,30.178502784486014 127.1736237740874,30.683160021684486 127.1736237740874,30.872406485634027 127.23670592873754,31.074269380513954 127.51426740919531,31.515844463062283 128.1198560938342,32.22236459514069 128.51096545266367,32.853186141639455 128.80114336405362,33.5092405499981 129.01562268986305,34.30407569858563 130.44127938494844,34.51855502439505 131.00901877679794,34.55640431718531 132.09403183677543,34.48070573160568 134.5163865753292,34.46808930067529 135.00842738159818,34.531171455325435 135.81587896111608,34.745650781134856 136.54763195505348,34.84658222857437 136.85042629737382,34.96013010694428 137.4812478438717,35.33862303484335 137.91020649549054,35.46478734414275 139.28539746685797,36.146074614361275 139.49987679266738,36.310088216450936 140.16854763195462,36.91567690108892 140.37041052683367,37.054457641318706 140.92553348775277,37.14277265782873 141.7203686363403,37.38248484549803 142.3259573209792,37.43295056921779 143.5119018283962,37.35725198363815 144.39505199349466,37.24370410526825 145.7828593957907,36.96614262480958 145.79547582672106,37.54649844758769 145.7702429648603,37.81144349711687 145.70716081021195,38.02592282292628 145.45483219161136,38.41703218175576 145.3791336060326,38.63151150756517 145.3034350204521,39.32541520871319 145.12680498743205,39.956236755211954 145.1520378492928,40.296880390320766 145.25296929673232,40.51135971613019 145.4043664678916,40.751071903799485 145.84594155044084,41.21787984820859 146.19920161648093,41.45759203587789 146.93095461041833,41.848701394707355 147.25898181459763,41.97486570400675 147.81410477551677,42.05056428958639 148.40707702922526,42.0379478586569 148.9369671282836,41.94963284214687 150.0345966191915,41.684687792617694 150.2743088068599,41.54590705238791 150.7285003203395,41.230496279138976 151.23315755753708,41.01601695332956 151.53595189985742,40.82677048938002 151.82612981124558,40.53659257799006 152.10369129170513,40.06978463358186 152.31817061751457,39.842688876842054 152.58311566704373,39.74175742940253 152.81021142378356,39.716524567542656 153.3527179537723,39.76699029126242 154.1727859642206,39.93100389335208 154.57651175397865,39.98146961707183 155.09378542210843,39.98146961707183 156.34281208417556,39.86792173870193 156.7717707357944,39.88053816963232 157.1502636636935,39.93100389335208 157.6170716081017,40.132866788231105 158.38667389483024,40.63752402543048 158.6894682371488,40.788921196589754 159.0174954413281,40.88985264402927 159.63570055689738,40.97816766053929 160.05204277758583,41.0917155389092 160.30437139618462,41.2052634172791 161.31368587058336,41.76038637819733 162.15898674289065,42.16411216795629 162.52486323985934,42.2776600463262 162.90335616775843,42.36597506283622 163.7486570400675,42.429057217485465 164.42994431028512,42.36597506283622 165.2878616135228,42.25242718446631 166.46118969000943,41.94963284214687 166.82706618697992,41.77300280912772 167.05416194371793,41.5585234833174 167.21817554580758,41.25572914099886 167.28125770045773,40.624907594500094 167.23079197673798,39.48942881080285 167.33172342417748,39.21186733034329 167.58405204277807,38.92168941895423 167.81114779951608,38.770292247794956 168.51766793159447,38.49273076733539 169.75407816273125,37.73574491153723 169.96855748854065,37.55911487851808 170.37228327830053,37.07969050317858 170.5236804494598,36.95352619387919 170.7381597752692,36.86521117736917 171.16711842688804,36.76427972992965 171.36898132176708,36.68858114435002 171.84840569710747,36.32270464738043 172.34044650337646,36.07037602878164 173.2109802375427,35.79281454832207 174.85111625843933,35.41432162042299 175.16652703168828,35.30077374205309 175.30530777191896,35.199842294613575 175.38100635749768,35.03582869252391 175.3683899265673,34.84658222857437 175.09082844610953,33.925582770686546 175.015129860529,33.799418461387155 174.86373268936973,33.6227884283671 174.24552757380044,33.181213345818776 173.90488393869254,32.815336848849185 173.8165689221816,32.62609038489965 173.77871962939224,32.46207678280999 173.8165689221816,32.3232960425802 173.91750036962114,32.22236459514069 174.09413040264118,32.14666600956105 174.27076043566123,32.10881671677078 174.51047262332963,32.09620028584129 175.07821201517913,32.14666600956105 175.55763639051773,32.09620028584129 176.03706076585632,31.970035976541897 176.3146222463159,31.831255236312117 176.4407865556162,31.667241634222453 176.5291015721253,31.477995170272916 176.6678823123542,31.023803656794197 176.7940466216545,30.405598541224922 176.88236163816362,30.178502784486014 177.07160810211406,29.926174165886327 177.33655315164324,29.774776994727052 178.03045685279125,29.648612685427658 178.58557981371038,29.61076339263739 180.50327731506476,29.762160563796666 180.7934552264547,29.699078409147415 181.2728796017933,29.484599083337997 181.5125917894635,29.27011975752858 181.71445468434254,29.017791138928892 181.84061899364283,28.765462520329205 182.02986545759148,28.222955990340466 182.50928983293008,27.428120841752936 182.91301562268993,26.872997880833804 183.01394707012943,26.645902124094896 183.05179636291882,26.431422798285475 183.39243999802852,26.481888522005235 183.85924794243672,26.469272091074846 184.2377408703358,26.444039229214965 184.51530235079537,26.355724212704942 184.62885022916527,26.242176334335937 184.91902814055524,25.737519097136563 185.22182248287376,25.40949189295724 185.51200039426374,25.245478290868476 186.1302055098312,25.03099896505906 186.2816026809905,24.866985362969398 186.67271203981994,24.299245971120776 186.83672564190962,24.122615938100726 187.11428712236918,23.93336947415119 187.60632792863817,23.744123010201648 187.63156079049713,23.66842442462201 187.58109506677738,23.567492977182493 186.91242422749013,22.835739983244213 186.6096298851698,22.608644226504406 186.44561628308014,22.432014193485255 186.34468483564063,22.26800059139559 186.2689862500619,22.078754127446054 186.2689862500619,21.952589818146656 186.31945197378164,21.788576216056995 186.77364348725948,20.98112463653818 187.02597210586006,20.690946725149125 187.21521856980868,20.59001527770961 187.39184860282873,20.6026317086391 188.22453304420566,21.107288945838473 188.60302597210472,21.233453255137867 188.89320388349466,21.271302547928133 189.1076832093041,21.208220393277987 190.67212064462018,20.59001527770961 191.01276427972988,20.526933123059464 191.64358582622776,20.501700261199584 191.79498299738702,20.451234537479827 191.90853087575692,20.362919520969804 192.12301020156636,20.072741609580746 192.33748952737577,19.59331723424215 192.4131881129563,18.798482085653724 192.5519688531852,18.281208417524862 192.5393524222566,18.104578384505707 192.45103740574567,17.978414075206313 191.84544872110678,17.637770440096606 191.54265437878823,17.385441821497814 191.27770932925907,17.019565324528227 190.97491498693873,16.477058794539484 190.83613424670983,16.262579468730067 190.69735350648094,16.123798728500283 190.25577842393173,15.79577152432096 190.09176482184205,15.644374353161687 189.99083337440254,15.417278596422777 190.02868266719193,15.202799270612461 190.1800798383512,15.01355280666292 190.407175595091,14.836922773643769 190.70996993740954,14.647676309694228 191.0001478487995,14.521512000394834 191.37864077669857,14.395347691094543 192.09777733970736,14.21871765807539 193.0061603666648,14.054704055985729 193.32157113991374,13.966389039475704 193.5865161894429,13.8528411611058 193.8388448080417,13.65097826622677 194.38135133803044,13.070622443447762 194.74722783500093,12.755211670198827 195.79439160218726,12.162239416490328 196.8163225075146,11.758513626731368 197.2578975900638,11.493568577202192 197.43452762308385,11.30432211325265 197.6237740870325,11.026760632793087 197.69947267261304,10.723966290473642 197.69947267261304,10.459021240944466 198.07796560051213,10.484254102804345 198.53215711399173,10.408555517224709 198.82233502537989,10.282391207925313 199.07466364398047,10.080528313045386 199.44054014094917,9.676802523286426 199.66763589768897,9.24784387166759 199.7685673451285,8.705337341678847 199.78118377605708,7.960967916811074 199.81903306884826,7.7717214528615335 199.91996451628776,7.519392834261848 200.13444384209717,7.203982061012914 200.7274160958057,6.623626238233905 201.1816076092835,6.030653984525406 201.6610319846239,5.538613178256422 201.83766201764215,5.311517421517512 201.98905918880322,4.996106648267681 202.19092208368224,4.1255729141005135 202.266620669261,3.911093588291094 202.41801784042204,3.6587649696914086 203.22546941993997,2.573751909713925 203.56611305504788,2.2078754127452327 203.7932088117877,2.006012517865305 204.05815386131687,1.8293824848461524 204.32309891084606,1.7032181755458613 204.58804396037522,1.6275195899662247 206.30387856685238,1.3878074022969267 206.80853580404994,1.3751909713674353 207.14917943915967,1.4382731260166846 207.90616529495782,1.8041496229862735 208.32250751564627,1.9429303632151593 208.5117539795967,1.955546794145547 209.05426050958545,1.9050810704257892 209.3696712828344,1.9050810704257892 210.59346508304074,2.1826425508853537 210.99719087280062,2.2331082746051116 211.27475235326017,2.2331082746051116 211.72894386673798,2.119560396235208 212.85180621950485,1.766300330196007 213.8611206939036,1.3373416785771688 214.47932580947108,1.021930905328234 214.88305159923092,0.8579173032385727 215.8671332117689,0.605588684638887 216.6998176531458,0.2901779113899523 217.633433541964,0.07569858558053322 217.73436498940353,0 217.69651569661414,0.06308215465014554 217.78483071312328,0.17663003302004893 218.02454290079348,0.6812872702185239 218.30210438125303,1.476122418806951 218.42826869055153,1.715834606476249 218.54181656892143,1.8672317776355225 218.65536444729133,1.9050810704257892 218.75629589473087,1.8672317776355225 218.89507663496153,1.6906017446163701 218.94554235868128,1.4635059878765633 219.08432309891018,1.4508895569470721 219.18525454634968,1.5139717115963212 219.48804888867002,1.8293824848461524 220.32073333004695,2.2583411364649906 220.4847469321366,2.3845054457643853 220.5982948105065,2.51066975506378 220.63614410329586,2.611601202504192 220.6109112414369,2.7251490808740955 220.3585826228363,2.9648612685433933 220.15671972795727,3.2928884727218195 219.72776107633842,3.6082992459716507 219.61421319796852,3.810162140850682 219.5385146123898,4.075107190380756 219.57636390517916,4.251737223399908 219.74037750726882,4.403134394559181 220.03055541865697,4.516682272929085 220.3711990537667,4.567147996648843 220.8380069981767,4.466216549209327 221.96086935094354,4.04987432851998 222.09965009117244,3.8858607264312153 222.20058153861194,3.532600660392014 222.27628012419248,3.3685870583023525 222.38982800256238,3.2424227490020616 222.56645803558243,3.116258439702667 222.85663594697058,3.0027105613327634 223.61362180276876,2.8134640973832235 224.11827903996812,2.624217633433683 224.6355527080961,2.371889014834894 225.01404563599516,2.2835739983248695 225.3294564092441,2.2709575673944817 226.18737371248358,2.434971169484143 227.09575673944101,2.485436893203901 227.44901680547932,2.460204031344022 227.97890690453767,2.371889014834894 228.37001626336715,2.245724705534603 228.6728106056857,2.0690946725154507 228.8872899314969,1.8672317776355225 229.17746784288505,1.476122418806951 229.32886501404434,1.3751909713674353 229.5054950470644,1.3373416785771688 229.9470701296136,1.34995810950666 230.21201517914278,1.324725247646781 231.09516534424122,1.110245921837362 231.32226110097923,1.021930905328234 231.51150756492967,0.8453008723081851 231.68813759794972,0.27756148045956464 231.76383618352847,0.17663003302004893 231.86476763096798,0.11354787836990338 232.00354837119866,0.07569858558053322 232.2054112660777,0.07569858558053322 233.2525750332658,0.23971218767019445 234.41328667882203,0.7317529939382816 234.6908481592816,0.895766596027943 235.2838204129901,1.4887388497364422 235.7506283573983,1.8924646394954014 235.9903405450685,2.2709575673944817 236.3688334729676,3.3685870583023525 236.4823813513375,3.9237100192205854 236.4697649204071,4.23912079246952 236.3688334729676,4.592380858508721 236.16697057808855,4.970873786407802 235.8515598048396,5.437681730816907 235.7632447883287,5.677393918486205 235.7632447883287,5.866640382435745 235.80109408111807,6.030653984525406 235.92725839041836,6.245133310334825 236.05342269971865,6.37129761963422 237.36553151643594,7.3049135084524295 238.04681878665357,7.6707900054211215 238.53885959292253,7.834803607510783 239.96451628800796,8.200680104480371 240.78458429845625,8.301611551919887 241.51633729239543,8.339460844710155 241.98314523680364,8.314227982850275 242.26070671726322,8.213296535409864 242.63919964516228,7.897885762160929 242.80321324725196,7.822187176581291 243.27002119166016,8.46562515400955 243.698979843279,8.982898822138411 244.1531713567586,9.437090335617128 244.6325957320972,9.802966832585822 245.44004731161513,10.244541915135047 247.6100734315701,11.190774234882747 249.51515450199588,12.263170863929844 250.22167463407249,12.69212951554868 250.68848257848248,13.045389581587882 250.96604405894206,13.335567492977836 251.1300576610317,13.638361835296383 251.16790695382107,13.915923315755947 251.09220836824056,14.206101227145002 250.9155783352223,14.45842984574469 250.14597604849374,15.228032132473237 249.89364742989497,15.56867576758205 249.81794884431443,15.757922231531591 249.80533241338404,15.959785126410623 249.86841456803418,16.199497314080816 249.99457887733448,16.388743778030356 250.30998965058342,16.70415455127929 250.9155783352223,17.070031048247984 251.57163274357916,17.372825390567428 253.42624809028518,18.155044108225468 254.30939825538363,18.596619190774692 254.90237050909212,19.01296141146314 255.11684983490156,19.214824306343072 255.38179488443072,19.568084372382273 255.60889064117052,20.060125178651255 255.7602878123298,20.53954955398985 255.8990685525587,21.18298753141811 255.9747671381392,21.864274801636633 256,22.570794933715035 255.9747671381392,23.252082203932662 255.92430141441946,23.781972302991914 255.81075353604956,24.463259573210436 255.6467399339599,25.081464688778816 255.47010990093986,25.56088906411741 255.23039771327146,26.040313439456007 255.04115124932102,26.31787491991557 254.76358976886144,26.60805283130463 254.46079542654292,26.835148588044436 254.14538465329397,26.986545759203707 253.81735744911464,27.062244344783345 253.5145631067961,27.10009363757361 253.0477551623861,27.087477206643225 252.51786506332775,27.024395051993974 251.92489280961925,26.91084717362407 250.72633187127187,26.55758710758487 250.10812675570438,26.305258488985185 249.628702380364,26.078162732246273 249.1618944359558,25.762751958996443 248.7834015080567,25.39687546202775 248.442757872947,24.930067517618646 247.8245527573795,23.908136612291308 247.44605982948042,23.47917796067247 247.2441969346014,23.31516435858281 246.96663545414182,23.163767187423534 246.38627963136372,22.961904292543608 245.83115667044459,22.88620570696397 245.06155438371604,22.86097284510409 239.92666699521857,22.974520723473994 239.3084618796511,22.949287861614117 237.93327090828367,22.785274259524456 237.36553151643594,22.734808535804696 236.8230249864472,22.785274259524456 236.54546350598764,22.86097284510409 236.3562170420372,22.949287861614117 236.02818983785787,23.21423291114329 235.78847765018946,23.617958700902253 235.6370804790302,24.109999507171235 235.39736829136,25.58612192597729 235.18288896555057,26.355724212704942 234.16095806022324,28.87901039869911 233.82031442511354,29.560297668917634 233.44182149721445,30.165886353555624 233.0128628455956,30.683160021684486 232.5460549011874,31.112118673303325 229.08915282637594,33.57232270464735 228.6728106056857,33.97604849440631 228.48356414173705,34.22837711300599 228.31955053964737,34.50593859346556 227.96629047360906,34.49332216253517 226.76772953526168,34.63210290276495 226.5154009166611,34.61948647183456 226.25045586713193,34.56902074811481 225.88457937016324,34.430240007885025 225.1149770834347,34.013897787196576 224.47153910600642,33.73633630673701 221.12818490956485,32.525158937460134 219.8917746784281,31.970035976541897 218.92030949682052,31.654625203292067 217.84791286777343,31.200433689813348 217.11615987383425,30.99857079493432 216.2077768468768,30.897639347493907 215.8545167808385,30.834557192844656 215.55172243851817,30.721009314474752 214.97136661574007,30.329899955645285 214.65595584249112,30.191119215415505 213.2555320092647,29.888324873096956 212.12005322556746,29.572914099847125 210.68178009955167,29.371051204968094 209.92479424375352,29.345818343108213 208.6379182888952,29.459366221478117 206.82115223498033,29.560297668917634 205.82445419151378,29.762160563796666 204.8656054408348,29.913557734956836 204.42403035828556,30.03972204425623 203.8815238282986,30.317283524715794 203.08668867970928,30.885022916564417 202.4937164260008,31.17520082795347 201.86289487950293,31.566310186782044 201.2825390567248,31.831255236312117 201.01759400719564,31.995268838401778 199.59193731210843,33.09289832930875 199.04943078211969,33.71110344487713 198.87280074909964,33.84988418510691 198.40599280469144,34.076979941846716 197.69947267261304,34.27884283672575 197.33359617564435,34.06436351091633 196.65230890542492,33.748952737667395 196.26119954659725,33.61017199743761 195.65561086195837,33.471391257207834 195.05002217731948,33.3956926716282 194.3056527524517,33.37045980976831 193.7126804987432,33.383076240697804 192.94307821201465,33.471391257207834 192.09777733970736,33.6227884283671 191.29032576018946,33.82465132324703 190.1800798383512,34.17791138928624 189.3473953969743,34.48070573160568 188.31284806071656,34.89704795229413 187.77034153072782,35.161993001823305 187.07643782957982,35.56571879158226 186.63486274703058,35.881129564832094 186.2437533882011,36.22177319994091 185.9157261840218,36.57503326598011 185.5498496870531,37.054457641318706 185.3101374993829,37.43295056921779 185.00734315706435,38.038539253856676 184.08634369917652,40.120250357301614 183.79616578778658,40.700606180079724 183.32935784337838,41.45759203587789 182.18126262875074,42.99679660933409 181.79015326992308,43.61500172490247 181.46212606574375,44.29628899512099 180.64205805529545,46.36538366763554 180.31403085111612,46.97097235227443 179.94815435414742,47.488246020403295 179.41826425508728,48.04336898132153 178.83790843230918,48.53540978759051 175.69641713074662,50.95776452614427 173.3749938396324,52.67359913262052 172.3909122270962,53.46843428120805 171.82317283524668,53.9983243802673 171.34374845990808,54.51559804839616 170.92740623921964,55.03287171652502 170.57414617317954,55.52491252279311 170.08210536691055,56.370213395101295 168.99709230693307,58.52762308412587 168.32842146764585,59.70095116061338 167.3191069932471,61.290621457789335 165.25001232073345,64.21763343354156 164.88413582376475,64.82322211818045 164.54349218865505,65.4918929574686 164.2280814154061,66.32457739884639 164.01360208959667,67.20772756394484 163.92528707308577,68.01517914346276 163.82435562564623,69.68054802621835 163.72342417820673,70.36183529643688 163.54679414518668,70.89172539549523 163.29446552658789,71.32068404711407 162.95382189147819,71.68656054408366 162.48701394706998,72.01458774826298 161.95712384801163,72.29214922872166 160.75856290966422,72.8094228968505 160.11512493223597,73.13745010102983 159.50953624759708,73.49071016706904 159.10581045783903,73.78088807845809 158.5380710659895,74.27292888472708 158.0964959834403,74.75235326006568 157.7306194864716,75.26962692819453 157.45305800601201,75.79951702725289 157.30166083485275,76.22847567887263 157.21334581834364,76.65743433049145 157.17549652555246,77.11162584397017 157.20072938741325,77.4396530481495 157.27642797299197,77.7929131141887 157.41520871322265,78.15878961115739 157.5792223153123,78.46158395347683 157.78108521019135,78.7517618648659 158.03341382879015,79.01670691439507 158.3235917401801,79.26903553299475 159.05534473411748,79.74845990833334 159.86279631363718,80.15218569809231 161.9823567098706,81.07318515598013 162.52486323985934,81.38859592922996 163.00428761519794,81.74185599526827 163.54679414518668,82.2969789561874 163.93790350401616,82.8899512098959 164.2280814154061,83.57123848011442 164.36686215563498,84.25252575033205 164.40471144842437,84.94642945148097 164.39209501749576,85.65294958355936 164.21546498447572,87.9743728746736 164.07668424424682,88.90798876349092 163.79912276378727,89.84160465230913 162.91597259868882,92.09994578877323 162.25991819033018,94.32043763244795 162.05805529545114,94.81247843871603 161.8561924005721,95.17835493568562 161.6290966438323,95.46853284707467 161.3641515943031,95.74609432753424 161.0487408210542,95.99842294613393 160.70809718594447,96.20028584101296 160.34222068897577,96.35168301217223 159.95111133014632,96.46523089054213 159.39598836922718,96.56616233798165 158.6642353752898,96.60401163077192 157.945098812281,96.56616233798165 157.17549652555246,96.45261445961265 156.12833275836616,96.23813513380323 155.09378542210843,95.93534079148378 154.0718545167811,95.59469715637407 153.04992361145375,95.2035877975455 152.05322556798538,94.78724557685615 151.14484254102794,94.34567049430783 150.40047311616019,93.95456113547836 149.4290079345526,93.36158888176986 148.78556995712435,92.89478093736075 148.10428268690492,92.31442511458263 147.54915972598758,91.75930215366351 147.09496821250798,91.22941205460515 144.23103839140498,87.48233206840462 143.41097038095668,86.3216204228475 142.65398452515853,85.05997732985087 140.72367059287376,81.38859592922996 139.68912325661603,79.58444630624369 138.99521955546803,78.60036469370662 137.63264501503096,77.0990094130398 137.14060420876197,76.48080429747141 136.72426198807352,75.84998275097354 136.42146764575497,75.25701049726504 136.13128973436503,74.53787393425625 135.82849539204648,73.69257306194896 135.47523532600638,72.51924498546146 135.28598886205774,71.76225912966329 135.15982455275744,71.06835542851528 135.08412596717693,70.42491745108703 134.95796165787843,68.22965846927218 134.768715193928,67.15726184022508 134.5163865753292,66.52644029372631 134.20097580208025,65.88300231629806 131.57675816864568,61.31585431964922 131.26134739539674,60.71026563501033 131.03425163865694,60.180375535951974 130.8702380365673,59.663101867823116 130.7314572963384,59.09536247597449 130.34034793750894,56.2440490858019 130.0375535951904,54.767926666994946 129.69690996008066,53.56936572864846 129.1922527228813,52.080626878912014 128.85160908777337,51.23532600660383 128.54881474545303,50.65497018382572 128.29648612685426,50.28909368685613 128.03154107732507,49.97368291360719 127.71613030407613,49.69612143314763 127.26193879059653,49.40594352175857 126.89606229362784,49.24192991966891 126.60588438223787,49.15361490315889 126.07599428317953,49.065299886648866 125.65965206249108,49.052683455719375 125.11714553250233,49.10314917943913 124.70080331181389,49.27977921245918 124.25922822926466,49.53210783105797 124.03213247252485,49.69612143314763 123.69148883741514,49.998915775467076 123.09851658370664,50.71805233847497 122.65694150115742,51.399339608693495 122.11443497116868,52.39603765216095 120.76447686166202,55.247351042334444 119.07387511704744,58.52762308412587 118.60706717263743,59.58740328224348 118.2916563993885,60.508402740131295 118.10240993543985,61.42940219801912 118.07717707357908,61.87097728056745 118.07717707357908,62.31255236311667 118.16549209009,62.95599034054493 118.27903996845811,63.347099699374404 118.44305357054778,63.78867478192273 118.79631363658787,64.44472919028138 119.38928589029638,65.29003006258957 120.43644965748449,66.56428958651568 120.76447686166202,67.04371396185518 120.96633975654284,67.44743975161414 121.11773692770211,67.81331624858284 121.23128480607201,68.2044256074123 121.5971613030407,70.22305455620709 121.86210635256988,71.23236903060494 122.0892021093097,71.85057414617332 122.36676358976925,72.50662855453106 122.6695579320878,73.11221723916995 123.07328372184766,73.79350450938848 123.9816667488051,75.01729830959485 124.61248829530297,75.77428416539301 125.44517273668166,76.68266719235135 126.20215859247982,77.40180375535924 128.18293824848433,79.02932334532545 128.62451333103357,79.47089842787469 128.9525405352129,79.84939135577376 129.44458134148186,80.56852791878165 129.6590606672913,80.9848701394701 130.08801931891014,82.03203390665823 130.65575871075785,82.92780050268617 130.9585530530782,83.45769060174452 131.58937459957608,84.92119658962108 131.96786752747514,85.70341530727912 132.24542900793472,86.23330540633748 132.56083978118366,86.72534621260645 133.29259277512102,87.57064708491464 133.6963185648809,87.94914001281373 134.0243457690602,88.15100290769276 134.9958109506678,88.65566014489123 135.77802966832493,89.13508452023072 136.59809767877323,89.77852249765898 137.31723424178202,90.51027549159726 137.85974077177076,91.21679562367567 138.45271302547928,92.18826080528325 139.09615100290753,93.46252032920937 139.41156177615647,94.15642403035828 139.66389039475703,94.82509486964642 139.86575328963607,95.51899857079444 139.95406830614522,95.98580651520354 140.00453402986497,96.45261445961265 140.01715046079536,97.05820314425063 139.94145187521482,98.01705189492873 139.47464393080662,101.61273470996998 139.3610960524367,102.76082992459672 139.33586319057773,103.40426790202497 139.3610960524367,104.04770587945323 139.42417820708684,104.6659109950225 139.53772608545677,105.25888324873101 139.87836972056647,106.3312798777781 140.37041052683367,107.42890936868507 142.12409442610019,110.93627716721632 144.14272337489587,114.45626139667795 144.63476418116306,115.36464442363537 145.02587353999252,116.1594795722238 145.416982898822,117.1057118919715 145.618845793701,117.8122320240499 145.7323936720709,118.55660144891768 145.7702429648603,119.35143659750611 145.7450101030013,121.0168054802617 145.7576265339317,121.73594204326959 145.83332511951045,122.46769503720787 145.97210585974113,123.08590015277625 146.2244344783399,123.91858459415495 146.56507811344963,124.73865260460235 148.16736484155507,127.89276033709439 148.57109063131492,128.80114336405273 148.9369671282836,129.7978414075202 149.17667931595201,130.68099157261773 149.4163915036222,131.9174018037545 149.6813365531514,133.73416785767026 149.85796658617144,135.28598886205685 149.8958158789608,136.5223990931936 149.7948844315213,137.49386427480118 149.60563796757086,138.22561726873946 149.4290079345526,138.66719235128778 149.2145286087432,139.08353457197714 148.68463850968482,139.8152875659154 148.09166625597453,140.4587255433437 147.25898181459763,141.21571139914184 145.416982898822,142.72968311073816 145.0511064018533,143.07032674584698 144.73569562860436,143.42358681188617 144.42028485535363,143.90301118722567 144.25627125326398,144.30673697698464 144.16795623675486,144.78616135232323 144.14272337489587,145.36651717510134 144.25627125326398,145.65669508649128 144.44551771721441,146.02257158345998 144.8113942141831,146.56507811344872 145.70716081021195,147.5491597259867 146.8552560248378,148.64678921689367 147.4229954166873,149.12621359223226 147.90241979202588,149.49209008920184 149.73180227687115,150.65280173475898 150.55187028731945,151.23315755753708 153.07515647331272,153.2391700754024 153.7942930363215,153.88260805283065 154.26110098072974,154.4251145828194 154.56389532305008,154.92977182001786 154.82884037257924,155.53536050465675 154.9928539746689,156.20403134394488 155.05593612931904,156.91055147602327 155.03070326745828,158.33620817110958 155.1190182839674,159.0301118722576 154.47558030653914,159.3707555073673 153.8069094672519,159.81233058991563 153.4410329702814,160.16559065595484 152.999457887734,160.7080971859436 152.72189640727441,160.96042580454326 151.46025331427688,161.66694593662166 150.22384308314014,162.52486323985934 149.8075008624517,162.71410970380887 148.53324133852377,163.0547533389177 147.52392686412682,163.47109555960705 146.6912424227481,163.69819131634685 146.31274949484904,163.72342417820673 145.1772707111518,163.66034202355658 144.33196983884451,163.66034202355658 143.85254546350592,163.76127347099612 143.34788822630654,163.95051993494565 142.96939529840745,164.05145138238515 142.1997930116807,164.19023212261493 141.7203686363403,164.2280814154052 141.07693065891206,164.20284855354532 140.13069833916526,163.93790350401616 139.90360258242544,163.9126706421563 139.53772608545677,163.9126706421563 139.17184958848807,163.96313636587604 138.8942881080285,164.05145138238515 138.09945295943916,164.3794785865645 137.75880932433125,164.4804100340049 137.4812478438717,164.4930264649344 136.7621112808629,164.40471144842437 136.47193336947475,164.41732787935476 136.21960475087417,164.4804100340049 135.68971465181582,164.7201222216742 135.41215317135624,164.79582080725382 134.59208516090794,164.90936868562372 133.9360307525511,164.93460154748362 133.6710857030201,164.99768370213286 133.30520920605142,165.13646444236264 132.76270267606267,165.3887930609623 132.371593317235,165.60327238677175 132.01833325119492,165.8682174363009 131.05948450051773,166.7261347395386 130.90808732935844,166.90276477255864 130.7566901581974,167.21817554580758 130.64314227982928,167.73544921393645 130.4665122468092,168.0003942634656 130.32773150657854,168.11394214183554 130.16371790448886,168.20225715834556 129.6590606672913,168.31580503671546 128.20817111034512,168.3915036222951 127.79182888965488,168.31580503671546 127.50165097826672,168.17702429648568 126.99699374106734,167.77329850672672 126.69419939874881,167.5714356118468 125.7605835099306,167.10462766743768 125.10452910157194,166.70090187767872 124.70080331181389,166.56212113744894 124.49894041693305,166.53688827558906 124.2213789364735,166.54950470651946 123.35084520230723,166.7261347395386 122.85880439603824,166.76398403232886 121.86210635256988,166.67566901581884 121.4836134246708,166.6125868611696 121.19343551328265,166.52427184465958 120.86540830910332,166.3476418116395 120.65092898329391,166.1331624858301 120.34813464097357,165.6663545414219 120.20935390074467,165.3004780444523 120.44906608841308,164.9598344093435 120.6635454142225,164.61919077423377 120.89064117096231,164.08930067517542 120.99157261840182,163.71080774727633 121.07988763491274,163.20615051007786 121.10512049677172,162.4743975161396 121.02942191119298,161.6543295056913 120.95372332561244,161.33891873244235 120.80232615445318,160.87211078803324 120.63831255236352,160.5567000147843 120.4238332265541,160.2160563796746 120.1967374698143,159.92587846828553 119.9317924202851,159.69878271154664 119.66684737075593,159.5221526785266 119.33882016657661,159.3707555073673 118.92247794588816,159.2572076289974 118.49351929426932,159.16889261248738 118.0519442117201,159.16889261248738 117.25710906313077,159.3707555073673 116.75245182593319,159.57261840224635 116.37395889803412,159.81233058991563 115.90715095362411,160.17820708688524 114.99876792666669,160.98565866640314 114.56980927504785,161.31368587058247 114.20393277807915,161.54078162732137 113.80020698831929,161.74264452220132 113.39648119856123,161.89404169336058 112.98013897787278,162.00758957173048 112.6016460499737,162.07067172638062 112.09698881277433,162.0959045882405 111.70587945394486,162.07067172638062 111.26430437139564,162.00758957173048 110.65871568675854,161.8814252624311 109.62416835050081,161.54078162732137 109.08166182051208,161.31368587058247 108.48868956680357,161.01089152826302 108.04711448425435,160.73333004780346 107.73170371100541,160.48100142920467 107.42890936868507,160.16559065595484 107.1639643191559,159.81233058991563 107.01256714799662,159.5221526785266 106.84855354590697,159.11842688876763 106.4448277561489,157.7053866246108 106.23034843033948,157.1376472327622 105.91493765708876,156.58252427184397 105.49859543640031,156.14094918929473 105.10748607757084,155.87600413976557 104.61544527130185,155.63629195209626 104.02247301759336,155.43442905721724 102.60943275343834,155.04331969838776 101.89029619042955,154.80360751071848 101.19639248928154,154.50081316839902 100.47725592627275,154.08447094771057 99.90951653442502,153.6681287270212 99.41747572815603,153.21393721354252 99.0011335074658,152.7471292691334 97.84042186190958,151.3088561431167 97.44931250308011,150.91774678428814 97.05820314425063,150.56448671824896 96.67971021635155,150.29954166871977 96.2633679956631,150.0345966191897 94.58538268197712,149.2019121778119 93.86624611896833,148.79818638805293 93.08402740131119,148.25567985806418 92.31442511458263,147.58700901877606 91.91069932482458,147.1832832290171 91.53220639692549,146.72909171553837 91.25464491646594,146.33798235670892 91.02754915972612,145.94687299788035 90.85091912670607,145.5179143462615 90.74998767926655,145.1646542802223 90.4598097678784,143.80207973978526 90.3462618895085,143.4992853974667 90.19486471834743,143.19649105514728 89.96776896160942,142.86846385096794 89.67759105021946,142.57828593957888 89.4000295697599,142.37642304469895 89.0593859346502,142.17456014981994 88.6808930067529,142.01054654773026 88.31501650978241,141.88438223842996 87.46971563747513,141.7203686363403 86.40993543935842,141.66990291262056 84.75718298753142,141.7203686363403 83.62170420383418,141.80868365285033 82.62500616036762,141.96008082400962 79.86200778670415,142.60351880143878 78.82746045044642,142.7927652653883 78.18402247301817,142.86846385096794 77.36395446256986,142.9189295746877 76.11492780050271,142.88108028189743 75.37055837563494,142.7927652653883 74.4874082105365,142.62875166329866 73.75565521659911,142.4395051993491 72.77157360406115,142.0988615642394 71.81272485338395,141.70775220541083 71.0431225666554,141.32925927751174 70.28613671085724,140.9129170568224 69.55438371691986,140.44610911241418 68.77216499926092,139.8152875659154 68.1918091764828,139.19708245034704 67.77546695579436,138.59149376570815 67.47267261347402,137.93543935735042 67.29604258045397,137.27938494899178 67.20772756394484,136.5097826622632 67.22034399487522,135.8158789611152 67.32127544231474,133.9486471834797 67.35912473510412,132.66177122862317 67.30865901138435,131.7660046325952 67.16987827115547,130.88285446749768 66.91754965255488,130.05017002611987 66.75353605046702,129.69690996008066 66.48859100093605,129.25533487753145 66.1857966586175,128.8516090877725 65.85776945443818,128.52358188359315 65.44142723374974,128.15770538662446 65.15124932235977,127.96845892267493Z"/>
  </g>
</svg>