<?xml version="1.0" encoding="UTF-8" standalone="no"?>
<svg viewBox="0 0 183.33337663181092 256" xmlns="http://www.w3.org/2000/svg">
  <style>
    g.zone {
      fill: lightgray;
      stroke-width: 2;
      stroke-linecap: square;
      stroke-linejoin: bevel;
      stroke-miterlimit: 3;
      stroke-opacity: 0.8;
      stroke: black;
      fill-opacity: 0.3;
    }
  </style>
  <g class="zone" id="zone">
    <path d="M34.234201467818366,197.18334740533902 34.0346820809241,196.93394817172208 33.66889653828678,196.39358316555183 33.43612392024366,196.11093070078604 32.75443268169052,195.42092615444597 32.56322660258493,195.27128661427557 32.38864713905319,195.1632136130415 31.49080989803194,194.74754822368033 30.97538481522303,194.44826914333953 30.784178736117454,194.35682275768048 30.14405403650066,194.14067675521238 29.562122491394053,193.874650906021 29.046697408586326,193.68344482691424 28.448139247904706,193.55874521010577 28.256933168799126,193.49223874780807 28.065727089692366,193.3675391309996 27.633435084756165,192.96850035721283 27.234396310968815,192.70247450802148 26.935117230629185,192.55283496785106 26.161979606417002,192.25355588751086 24.898356822757247,191.58017795674522 24.748717282586842,191.54692472559577 24.54919789569376,191.54692472559577 23.61810742352366,191.68825095797925 23.07774241735341,191.7215041891281 22.670390335779732,191.72981749691502 22.420991102162784,191.67162434240424 22.329544716502568,191.61343118789407 22.246411638631038,191.53029811002133 21.980385789439076,191.09800610508574 21.80580632590733,190.923426641554 21.581347015651723,190.82366694810685 21.099175163992843,190.69896733129838 20.89134246931225,190.6241475612132 20.666883159056642,190.4994479444047 20.417483925439694,190.31655517308604 20.259531077481782,190.15860232512873 20.10157822952505,189.95076963044755 19.951938689354645,189.70137039683058 19.852178995908105,189.4852243943625 20.475677079949882,189.22751185295863 20.841462622588388,189.02799246606494 21.814119633694837,188.5624472299799 22.495810872247986,188.15509514840562 22.678703643566056,188.08027537832044 22.844969799311478,188.03870883938467 23.07774241735341,188.00545560823582 23.385334805481726,187.9971423004483 23.742807040332725,188.03039553159715 24.283172046501793,188.09690199389485 24.665584204715316,188.18003507176758 25.197635903098057,188.38786776644815 25.46366175228884,188.44606092095893 25.663181139183106,188.43774761317144 25.920893680586378,188.37955445866123 26.51113853348049,188.14678184061873 27.309216081054018,187.74774306683136 27.633435084756165,187.65629668117174 28.14054685977757,187.54822367993768 28.448139247904706,187.4235240631292 28.647658634798972,187.28219783074633 29.17139702539421,186.80833928687434 29.76164187828714,186.4259271286614 29.986101188542747,186.23472104955525 30.152367344286986,186.03520166266156 30.285380268883557,185.81905566019347 30.376826654542594,185.61953627330038 30.41007988569144,185.46989673312999 30.41839319347895,185.12905111385342 30.318633500032405,184.29772033513044 30.30200688445739,183.93193479249194 30.318633500032405,183.20036370721613 30.3851399623301,182.95927778138608 30.55140611807434,182.6849386244078 30.784178736117454,182.41891277521583 31.40767682015923,181.9034876924075 31.773462362797737,181.65408845879057 31.90647528739313,181.51276222640766 31.989608365265838,181.3880626095992 32.13924790543624,181.03059037474878 32.42190037020204,180.1078132103656 32.446840293563376,179.8833539001106 32.42190037020204,179.51756835747267 32.47178021692472,179.318048970579 32.56322660258493,179.20166266155744 32.837565759563226,178.93563681236608 32.96226537637111,178.77768396440874 33.045398454243816,178.603104500877 33.17841137883921,178.22069234266408 33.43612392024366,177.69695395206884 33.52757030590388,177.58888095083478 33.968175618626404,177.19815548483496 34.234201467818366,176.83236994219644 34.36721439241376,176.5829707085795 34.6083003182432,176.03429239462233 34.70806001168974,175.66019354419691 34.77456647398862,175.49392738845268 34.90757939858401,175.35260115606977 35.30661817237136,175.00344222900569 35.4063778658179,174.8704293044103 35.464571020328094,174.72910307202739 35.52276417483946,174.45476391504852 35.730596869520056,173.95596544781463 35.846983178540434,173.74813275313403 36.20445541339143,173.24102097811263 36.329155030200496,172.96668182113433 36.51204780151975,172.2849905825812 36.67000064947648,171.49522634279398 36.270961875690304,171.42040657270937 35.938429564200646,171.32896018704974 35.622523868286,171.17100733909243 35.23179840228616,170.89666818211356 35.082158862115755,170.82184841202834 34.37552770020127,170.62232902513466 32.79599922062687,170.439436253816 32.47178021692472,170.439436253816 31.948041826329483,170.4976294083262 31.781775670585244,170.48931610053927 31.63213613041484,170.45606286939042 31.482496590244434,170.38955640709273 30.97538481522303,170.03208417224175 30.734298889393592,169.90738455543325 30.526466194713,169.83256478534807 30.376826654542594,169.79931155419922 30.19393388322334,169.7909982464117 29.345976488925952,169.840878093135 28.606092095862618,169.95726440215654 27.52536208352212,170.23991686692233 26.84367084496897,170.45606286939042 26.685717997012237,170.53088263947564 26.56933168799068,170.62232902513466 26.519451841268,170.7220887185818 26.51113853348049,170.83847502760278 26.59427161135202,171.05462103007088 26.768851074884946,171.25414041696456 27.043190231863235,171.52847957394343 27.40897577450174,171.82775865428366 27.533675391309625,171.9940248100279 27.57524193024598,172.11872442683637 27.57524193024598,172.17691758134714 27.52536208352212,172.27667727479368 27.400662466714234,172.3598103526664 27.226083003182488,172.40137689160215 26.92680392284168,172.40969019938967 26.527765149054325,172.3598103526664 26.11209975969314,172.24342404364484 25.031369747352638,171.84438526985807 24.61570435799145,171.6531791907519 23.792686887055407,171.02968110670955 23.51003442228961,170.73871533415624 23.210755341949984,170.33136325258195 23.094369032928427,170.23160355913484 22.95304280054553,170.15678378905022 22.53737741118316,170.01545755666731 21.48158732220518,169.74111839968845 21.090861856205336,169.6579853218163 20.276157693056795,169.5748522439436 19.818925764759257,169.483405858284 19.636032993440004,169.4917191660715 19.40326037539807,169.59979216730554 18.646749366759718,170.081964018965 18.239397285184857,170.24823017470925 17.85698512697252,170.33136325258195 16.942521270377437,170.38955640709273 16.36890303305834,170.47268948496486 15.762031564590394,170.66389556407103 15.005520555952044,170.96317464441125 14.781061245696437,171.0130544911345 14.523348704293163,171.03799441449644 14.14924985386715,171.0047411833476 13.741897772293472,170.90498148990105 11.863090212378264,170.04871078781616 11.480678054165926,169.89075793985884 11.281158667272841,169.82425147756055 11.089952588166081,169.79931155419922 10.915373124634336,169.81593816977363 10.275248425017542,169.9988309410923 9.801389881144987,170.04871078781616 9.593557186464395,170.03208417224175 9.452230954081497,169.9905176333054 9.186205104890716,169.840878093135 9.028252256932802,169.69955186075208 8.90355264012492,169.53328570500784 8.49620055855006,168.785088004157 8.446320711826198,168.5689420016889 8.36318763395467,167.82905760862496 8.296681171656974,167.59628499058303 8.180294862635417,167.39676560368937 7.789569396635571,166.88965382866797 7.348964083911864,166.19133597454038 7.107878158082423,165.90037020198767 6.866792232252982,165.6925375073065 6.642332921997375,165.54289796713667 6.085341300253291,165.26024550237088 5.8110021432738215,165.07735273105163 5.037864519061637,164.27927518347752 5.129310904721854,163.9633694875629 5.154250828083195,163.79710333181805 5.145937520295687,163.6142105604988 4.929791517827588,162.74131324283948 4.830031824381044,162.4004676235635 4.688705591998147,162.09287523543577 4.539066051827742,161.8351626940313 4.389426511657337,161.64395661492514 4.040267584593846,161.3280509190105 3.9488211989348105,161.20335130220204 3.8989413522109486,161.06202506981913 3.8407481977007603,160.6131064493085 3.807494966551913,160.07274144313826 3.824121582125746,159.91478859518094 3.915567967785963,159.55731636032993 3.932194583359796,159.12502435539432 3.6661687341690152,158.11911411313903 3.5664090407224722,157.41248295122455 3.3918295771895455,156.72247840488447 3.341949730466865,156.39825940118232 3.134117035786272,156.0241605507569 2.992790803403374,155.69994154705475 2.527245567318326,155.03487692407603 2.4108592582967687,154.84367084496986 2.3027862570627184,154.61921153471485 2.1365201013184802,154.1786062219917 1.970253945573061,153.871013833864 1.9203740988503801,153.7296876014811 1.8372410209776704,153.12281613301315 1.862180944339011,152.98980320841716 1.9037474832753658,152.93161005390698 2.8015847242966143,152.8900435149706 3.19231019029646,152.83185036045984 3.533155809572443,152.75703059037465 3.807494966551913,152.6655842047156 4.0984607391052155,152.52425797233272 4.322920049359642,152.3663051243748 4.4725595895300465,152.21666558420497 4.588945898551604,152.05871273624766 4.688705591998147,151.89244658050285 4.7635253620833495,151.69292719360917 4.796778593232197,151.501721114503 4.81340520880603,151.28557511203488 4.796778593232197,151.08605572514122 4.697018899785654,150.71195687471578 4.605572514125437,150.49581087224828 4.430993050593692,150.20484509969498 4.040267584593846,149.7226732480355 2.1531467168923135,147.89374553484475 0.8063908553610315,146.6384360589725 0.5237383905952361,146.33915697863227 0.34084561927598345,146.11469766837726 0.14132623238289774,145.79879197246203 0.016626615573833114,145.45794635318606 0,145.24180035071797 0.016626615573833114,145.10047411833506 0.058193154510187986,144.93420796259022 0.13301292459539046,144.78456842241982 0.2826524647657955,144.60998895888807 0.49048515944638843,144.46034941871827 0.7648243164246766,144.34396310969672 1.0225368578291316,144.29408326297343 1.2968760148074199,144.26083003182458 1.6709748652334324,144.25251672403706 3.458336039488422,144.31070987854787 4.056894200168861,144.2857699551865 4.6720789764231325,144.23589010846266 5.387023446125128,144.1361304150161 6.060401376890769,143.9864908748457 6.667272845358715,143.80359810352704 7.274144313826661,143.57913879327143 7.839449243358252,143.338052867442 8.595960251996603,142.95564070922907 9.078132103656666,142.68130155225077 9.618497109825734,142.30720270182536 10.183802039358506,141.8416574657403 10.599467428719693,141.43430538416604 11.971163213612314,139.9711632136132 12.370201987399668,139.6136909787622 12.819120607910882,139.28947197506005 13.36779892186746,138.99019289471983 13.88322400467637,138.79067350782617 14.531662012079488,138.63272065986882 15.229979866207652,138.5412742742092 15.944924335909647,138.5412742742092 16.576735727738935,138.59115412093308 17.23348704292956,138.69922712216652 18.114697668376976,138.89043320127328 19.769045918035392,139.30609859063446 21.124115087354184,139.6801974410599 21.930505942715214,139.9711632136132 22.603883873482037,140.30369552510226 23.069429109565903,140.58634798986807 23.551600961225965,140.93550691693216 24.03377281288485,141.35948561408082 24.432811586672198,141.79177761901704 24.698837435864164,142.14093654608052 24.97317659284245,142.56491524322922 25.746314217054636,143.94492433590995 25.92920698837389,144.21095018510132 26.145352990841985,144.47697603429268 26.33655906994875,144.65155549782443 26.56933168799068,144.80119503799483 26.768851074884946,144.87601480807945 27.068130155224576,144.9258946548033 27.433915697863082,144.90095473144137 27.758134701565233,144.78456842241982 28.173800090926417,144.59336234331366 29.1630837176067,144.052997337144 29.68682210820312,143.78697148795263 30.152367344286986,143.60407871663338 30.592972657010694,143.46275248425047 31.025264661946895,143.36299279080333 31.540689744754623,143.29648632850564 33.25323114892441,143.1884133272716 33.893355848541205,143.1302201727608 34.45034747028647,143.02214717152737 34.93251932194535,142.86419432356945 35.43963109696675,142.62310839774 35.92180294862563,142.29057608625092 36.30421510683915,141.94973046697436 37.11060596220018,141.14333961161273 37.51795804377387,140.81912060791058 37.78398389296583,140.66948106774078 38.12482951224181,140.51984152757038 38.490615054880315,140.41176852633632 38.89796713645517,140.34526206403862 39.629538221731,140.31200883288977 40.402675845943186,140.36188867961306 41.2090667013054,140.48658829642153 43.65317919075102,140.968760148081 44.47619666168706,141.07683314931504 45.091381437942516,141.11008638046388 45.67331298304794,141.1183996882514 46.38825745274993,141.07683314931504 47.02838215236673,141.00201337922985 48.59959732415362,140.75261414561288 49.09839579138752,140.71104760667654 49.630447489770255,140.6944209911021 51.592388127556994,140.73598753003847 53.75384815223681,140.71936091446403 54.452166006364976,140.73598753003847 55.28349678508735,140.81080730012368 56.405793336364205,141.01032668701734 56.88796518802309,141.07683314931504 57.2620640384491,141.07683314931504 57.61122296551259,141.02695330259178 57.83568227576819,140.968760148081 58.01026173929994,140.88562707020887 58.43424043644863,140.6196012210175 58.71689290121443,140.34526206403862 58.98291875040521,139.94622329025128 59.157498213936954,139.51393128531566 59.257257907384684,139.01513281808175 59.27388452295851,138.53296096642228 59.23231798402216,138.05910242254973 59.132558290575616,137.64343703318855 59.007858673767736,137.3275313372739 58.82496590244848,137.04487887250752 58.617133207767885,136.80379294667807 58.39267389751228,136.62921348314634 58.110021432746485,136.48788725076344 57.73592258232047,136.3881275573163 57.38676365525698,136.34656101838053 57.38676365525698,136.27174124829534 57.2620640384491,135.93920893680627 57.23712411508657,135.78125608884835 57.22881080730025,135.29908423718948 57.28700396181044,134.91667207897655 57.2620640384491,134.65895953757268 57.1872442683639,134.40956030395574 57.01266480483215,134.1601610703388 56.954471650320784,133.96064168344512 56.94615834253445,133.77774891212587 56.996038189257135,133.34545690718966 56.9794115736833,133.2456972137431 56.838085341300406,132.84665843995577 56.68844580113,132.52243943625422 56.572059492108444,132.34785997272186 56.34760018185283,132.11508735467993 56.21458725725744,131.9405078911476 56.106514256023395,131.76592842761585 56.03169448593819,131.59134896408412 55.96518802364049,131.31700980710522 55.8238617912576,130.3110995648505 55.715788790023545,129.84555432876547 55.715788790023545,129.67928817302064 55.78229525232124,129.5130220172764 55.890368253555295,129.40494901604237 56.46398649087439,129.005910242255 57.1872442683639,128.39072546600013 57.81905566019318,127.9251802299151 57.98532181593742,127.75891407417026 58.43424043644863,127.10216275897905 58.68363967006558,126.68649736961787 59.082678443852934,126.22095213353282 59.4068974475539,125.87179320646874 59.93063583815032,125.18178866012866 60.08027537831955,124.87419627200094 60.15509514840475,124.64142365395901 60.15509514840475,124.4169643437034 60.08858868610705,123.9929856465547 60.113528609469576,123.81009287523545 60.24654153406497,123.65214002727814 60.68714684678749,123.36948756251233 60.953172695979454,123.1284016366829 61.04461908163849,122.99538871208692 61.11943885172369,122.83743586412959 61.24413846853275,122.39683055140648 61.851009937000704,122.01441839319355 62.15028901734033,121.88971877638507 62.34149509644709,121.86477885302374 62.50776125219133,121.87309216081064 62.71559394687192,121.91465869974701 62.956679872702544,121.9894784698322 63.20607910631949,122.10586477885317 63.380658569851235,122.23887770344915 63.555238033382984,122.43839709034224 63.812950574787436,122.83743586412959 64.28680911865881,123.33623433136349 64.46138858219055,123.45262064038445 64.59440150678712,123.4858738715333 64.77729427810638,123.4941871793208 65.38416574657315,123.4858738715333 65.74995128921165,123.5523803338316 66.0741702929138,123.69370656621449 66.40670260440346,123.93479249204393 66.53971552899885,124.00961226212912 66.7309216081056,124.05117880106549 67.45417938559393,124.10937195557567 67.77008508150857,124.2008183412353 67.9446645450415,124.32551795804378 68.26057024095614,124.66636357732035 68.55153601350827,124.85756965642652 68.76768201597636,124.97395596544807 69.71539910372148,125.23998181463945 70.28901734104058,125.25660843021387 70.52178995908251,125.30648827693715 70.62154965252905,125.38130804702234 70.68805611482675,125.46444112489446 70.7213093459756,125.55588751055409 70.77118919269945,125.85516659089431 70.82938234720964,126.00480613106471 70.93745534844369,126.2043255179584 71.06215496525276,126.35396505812821 71.6773397415082,126.87770344872403 71.91011235955014,127.01902968110693 72.21770474767727,127.17698252906425 72.48373059686924,127.27674222251079 72.69156329154984,127.30999545366024 73.54783399363473,127.2185490680006 74.45398454244348,127.23517568357502 74.60362408261271,127.60927453400045 74.894589855166,128.04987984672357 75.48483470806012,128.69831785412788 76.2413457166973,129.42157563161678 76.6154445671233,129.7374813275314 76.93135026303794,129.97856725336146 78.13677989218633,130.74339156978672 78.67714489835659,131.12580372799906 80.48944599597291,132.57231928297747 80.81366499967507,132.8715983633177 81.1212573878022,133.2290705981687 81.27921023576012,133.47846983178565 81.43716308371684,133.8026888354878 81.54523608495089,134.12690783918936 81.60342923946226,134.40124699616823 81.64499577839862,134.8667922322533 81.6283691628236,135.80619601221028 81.65330908618495,136.1553549392738 81.6865623173338,136.27174124829534 81.82788854971669,136.47126063518903 82.03572124439846,136.69571994544404 82.71741248295042,137.31090472169947 83.09151133337645,137.66837695654988 83.67344287848304,138.36669481067747 84.28862765473733,139.2395921283368 85.81827628758785,141.58394492433587 86.10092875235365,142.08274339156975 86.36695460154561,142.65636162888885 87.4975644606088,145.65746574007915 87.75527700201324,146.46385659544077 87.98804962005518,147.3450672208876 88.12937585243807,148.18471130739746 88.17094239137444,148.7832694680785 88.16262908358692,149.24050139637603 88.08780931350172,149.7226732480355 87.92985646554499,150.22147171526942 87.66383061635302,150.76183672143966 87.2232253036305,151.47678119114107 86.82418652984315,152.01714619731132 86.44177437163081,152.45775151003443 86.11755536792866,152.74871728258773 85.72682990192882,153.0147431317791 85.2779112814176,153.25582905760854 84.76248619860988,153.46366175228974 83.52380333831265,153.8876404494384 83.00837825550373,154.13703968305538 82.74235240631295,154.31993245437462 82.52620640384485,154.55270507241715 82.39319347924946,154.7854776904591 82.33500032473809,154.97668376956582 82.3433136325256,155.2260830031828 82.42644671039831,155.4588556212253 82.58439955835505,155.6666883159059 82.75897902188679,155.82464116386322 83.17464441124915,156.05741378190575 84.18886796129078,156.49801909462886 84.67935312073716,156.7474183282458 85.05345197116317,156.98019094628833 85.36935766707782,157.26284341105412 85.56887705397091,157.55380918360743 85.61044359290726,157.6785088004159 85.64369682405611,157.85308826394765 85.61875690069476,158.14405403650096 85.47743066831187,158.48489965577753 85.34441774371648,158.69273235045813 85.14489835682221,158.95875819964948 84.65441319737582,159.50743651360665 84.22212119243963,159.93141521075535 83.73994934078074,160.3221406767552 83.32428395141838,160.57153991037214 82.85873871533333,160.7544326816914 82.40982009482329,160.86250568292544 81.9858413976746,160.8957589140743 81.6283691628236,160.87913229849988 81.23764369682375,160.8126258362022 80.86354484639774,160.6962395271806 80.5476391504831,160.56322660258522 79.95739429759017,160.21406767552114 78.76859128401561,159.36611028122377 78.17834643112269,159.00032473858585 77.52990842371838,158.6844190426706 76.91472364746294,158.49321296356445 76.59050464376196,158.43501980905367 76.3161654867825,158.41007988569234 75.76748717282592,158.43501980905367 75.31025524452838,158.51815288692637 74.32097161784691,158.78417873611775 73.83879976618803,158.85899850620294 73.39819445346433,158.85899850620294 73.14048191206105,158.82574527505352 72.85782944729408,158.76755212054331 72.34240436448634,158.57634604143655 71.79372605052859,158.27706696109635 71.28661427550837,157.91128141845843 70.75456257712563,157.41248295122455 70.33058387997575,156.92199779177756 69.96479833733842,156.41488601675675 69.65720594921011,155.92440085730976 69.15009417418989,155.04319023186352 68.90900824835926,154.67740468922563 68.68454893810484,154.39475222445924 68.37695654997651,154.11209975969342 67.98623108397668,153.83776060271515 67.47080600116894,153.59667467688513 66.83899460933966,153.41378190556645 66.26537637202055,153.3140222121193 65.7832045203605,153.28908228875798 65.23452620640393,153.3140222121193 64.72741443138251,153.39715528999145 64.17042280963844,153.53848152237492 63.555238033382984,153.76294083262994 62.89848671819117,154.05390660518324 62.200168864064196,154.41137884003365 61.65149055010644,154.75222445931024 61.21919854517024,155.05981684743796 60.87835292589425,155.34246931220375 60.57907384555344,155.64174839254397 60.279794765213815,155.99090731960806 59.93894914593665,156.5312723257777 59.77268299019241,156.8804312528418 59.44846398649026,157.64525556926705 59.34039098525621,157.84477495616073 59.207378060660815,158.0193544196925 59.05773852049041,158.1689939598623 58.866532441384834,158.30200688445828 58.65038643891673,158.40176657790482 58.37604728193727,158.4599597324156 57.99363512372493,158.47658634799004 57.58628304215125,158.40176657790482 57.1872442683639,158.2438137299475 56.788205494576545,158.00272780411805 56.447359875300556,157.71176203156475 56.17302071832109,157.43742287458588 55.18373709164081,156.2236799376506 54.784698317853454,155.7997012405013 54.54361239202401,155.56692862245936 54.277586542833234,155.35909592777818 54.04481392479012,155.20114307982087 53.78710138338566,155.06813015522548 53.54601545755622,154.96837046177833 53.22179645385407,154.8852373839062 52.905890757939424,154.84367084496986 52.58998506202479,154.84367084496986 52.25745275053513,154.90186399948064 51.933233746832975,155.00162369292718 51.65889458985469,155.13463661752317 51.39286874066391,155.3092160810549 51.15178281483328,155.525362083523 50.902383581216334,155.83295447165074 50.72780411768459,156.13223355199094 50.5947911930892,156.43982594011808 50.42021172955746,157.01344417743718 50.20406572708936,158.27706696109635 50.095992725855304,158.76755212054331 49.938039877897396,159.2497239722028 49.713580567642964,159.70695590050033 49.43924141066468,160.11430798207462 49.09839579138752,160.52166006364888 48.72429694096268,160.87913229849988 47.80151977658009,161.72708969279725 47.502240696239284,162.02636877313807 47.29440800155869,162.28408131454194 47.15308176917579,162.48360070143562 46.961875690069036,162.88263947522236 46.870429304409996,163.1985451711376 46.828862765473644,163.49782425147782 46.828862765473644,163.8469831785413 46.878742612196326,164.17120218224346 46.97850230564405,164.51204780152005 47.13645515360078,164.85289342079662 47.31103461713253,165.1272325777749 47.52718061960063,165.37663181139186 47.80983308436642,165.6260310450088 48.11742547249474,165.82555043190249 48.366824706111686,165.92531012534903 48.64947717087748,166.0001298954342 48.99032279015346,166.058323049945 49.35610833279197,166.07494966551943 49.7302071832168,166.04169643437058 50.095992725855304,165.97518997207288 50.66961096317441,165.80061050854056 51.259855816067336,165.52627135156226 51.808534130025095,165.21036565564762 53.18022991491772,164.32915503020078 53.512762226407375,164.14626225888153 53.945054231343576,163.93842956420093 54.32746638955591,163.78879002403053 54.73481847113077,163.67240371500958 55.15048386049196,163.60589725271188 55.557835942066816,163.57264402156304 56.05663440930071,163.58927063713745 56.621939338832306,163.65577709943514 57.129051113852526,163.77216340845612 57.57796973436374,163.913489640839 58.051828278235114,164.08806910437136 58.60050659219287,164.34578164577522 60.32967461193649,165.27687211794532 60.87835292589425,165.54289796713667 61.2025719295964,165.66759758394517 61.56835747223491,165.7756705851792 61.93414301487223,165.85880366305133 62.274988634149395,165.9086835097746 62.63246086900039,165.93362343313652 63.039812950574074,165.92531012534903 63.45547833993644,165.88374358641326 63.846203805936284,165.80892381632805 64.51958173670192,165.60109112164747 66.04923036955246,165.02747288432835 66.39007598882844,164.92771319088124 66.7974280704033,164.83626680522218 67.17152692082813,164.79470026628584 67.49574592453028,164.79470026628584 67.82827823601994,164.8279534974347 68.11093070078574,164.90277326751988 68.31876339546633,164.99421965317953 68.48502955121057,165.08566603883915 68.63466909138097,165.2020523478601 68.75105540040254,165.31843865688165 68.84250178606156,165.45976488926456 68.93394817172178,165.66759758394517 68.98382801844447,165.8504903552644 69.00045463401948,166.0666363577319 69.00045463401948,166.29109566798752 68.95888809508313,166.61531467168967 68.62635578359347,167.87893745534885 68.54322270572194,168.37773592258273 68.53490939793443,168.66038838734852 68.55153601350827,168.95135415990123 68.74274209261502,170.19003702019907 68.77599532376387,170.78028187309258 68.75105540040254,171.15438072351802 68.69286224589116,171.48691303500706 68.59310255244462,171.8610118854325 68.44346301227421,172.26005065921925 68.26057024095614,172.6507761252191 68.01948431512552,173.0830681301553 66.47320906670116,175.518867311814 66.09911021627514,176.06754562577117 65.24283951419025,177.2314087159838 64.87705397155293,177.79671364551538 64.63596804572231,178.22069234266408 64.46138858219055,178.58647788530257 63.896083652658966,179.91660713125944 63.72981749691473,180.20757290381275 63.56355134117049,180.44865882964217 63.297525491978526,180.731311294408 62.96499318048887,180.99733714359934 62.6407741767879,181.21348314606746 61.45197116321335,181.9034876924075 61.02799246606465,182.1861401571739 60.63726700006481,182.49373254530104 60.13015522504341,182.94265116581167 59.6895499123197,183.3915697863223 59.298824446319855,183.84880171461984 58.94135221146885,184.33097356627928 58.72520620900194,184.6967591089172 58.55062674546901,185.06254465155573 58.400987205299785,185.43664350198114 58.30122751185206,185.81905566019347 58.234721049554366,186.15990127947006 58.193154510619195,186.50074689874663 58.15990127946917,187.59810352666096 58.12664804832032,187.81424952912906 58.06845489381013,188.063648762746 57.977008508151094,188.27979476521412 57.802429044619345,188.53750730661855 57.62784958108642,188.72871338572475 57.36182373189564,188.94485938819284 56.9045918035981,189.2191985451711 55.632655712150836,189.80113009027772 55.075664090406754,190.10872247840487 54.54361239202401,190.5077612521922 53.45456907189718,191.47210495551116 53.00565045138597,191.7880106514258 52.77287783334403,191.92102357602118 52.55673183087594,192.0124699616808 52.28239267389765,192.08728973176602 52.07455997921588,192.11222965512795 51.77528089887625,192.09560303955354 51.47600181853544,192.02909657725525 51.13515619925945,191.87945703708542 50.8109371955573,191.67993765019176 50.528284730791505,191.45547833993675 50.229005650450695,191.16451256738344 49.40598817951465,190.2001688640645 49.14827563811138,189.93414301487311 48.77417678768536,189.6348639345329 48.34188478274916,189.40209131649038 48.100798856919724,189.31064493083073 47.77657985321757,189.2191985451711 47.4440475417291,189.16100539066093 47.09488861466443,189.1443787750865 46.737416379813425,189.15269208287341 46.37994414496243,189.19425862180978 46.11391829577165,189.25245177631996 45.773072676495666,189.36052477755402 45.27427420926177,189.59329739559655 44.866922127686905,189.86763655257542 44.68402935636765,190.03390270832026 44.46788335389955,190.2666753263622 44.32655712151666,190.46619471325585 44.21848412028261,190.67402740793705 44.11872442683607,190.90680002597898 44.060531272325875,191.10631941287266 44.01065142560201,191.47210495551116 44.01065142560201,191.87945703708542 44.10209781126105,192.66922127687204 44.12703773462357,193.04332012729745 44.10209781126105,193.5005520555956 43.99402481002818,193.97441059946755 43.82775865428276,194.40670260440376 43.57835942066581,194.82236799376494 43.304020263687526,195.1465869974671 43.079560953431915,195.35441969214827 42.89666818211266,195.48743261674366 42.614015717346874,195.6536987724885 42.356303175943594,195.77008508150945 42.00714424887892,195.8781580827435 41.64967201402793,195.9446645450412 41.26725985581559,195.97791777619005 40.868221082028235,195.99454439176506 39.388452295901565,195.95297785282872 38.7649542118586,195.96129116061562 38.099889588880465,196.0277976229139 37.41819835032732,196.16912385529682 36.71988049620034,196.41852308891376 36.021562642073356,196.76768201597724 35.41469117360541,197.1667207897646 34.76625316620111,197.69877248814734 34.234201467818366,197.18334740533902Z"/>
    <path d="M87.59732415405533,75.52640124699647 87.5058777683963,76.07507956095364 87.38949145937474,77.63798142495303 87.30635838150204,78.02039358316595 87.23985191920434,78.1866597389102 87.12346561018396,78.4028057413783 86.90731960771586,78.65220497499524 86.62466714295006,78.87666428525026 86.2755082158854,79.06787036435702 85.40261089822667,79.45028252256935 84.88718581541775,79.71630837176073 84.44658050269523,79.99896083652652 84.18055465350326,80.1984802234202 83.93946872767383,80.4146262258883 83.565369877249,80.83029161525008 83.29103072026953,81.28752354354762 83.19958433461049,81.49535623822821 83.10813794895027,81.7696953952071 83.0582581022276,82.06066116776039 83.04163148665258,82.28512047801541 83.09151133337645,82.65090602065332 83.16633110346164,82.90030525427028 83.23283756575934,83.0582581022276 83.44067026043993,83.36585049035531 83.73163603299324,83.65681626290862 84.09742157563174,83.9228421121 84.54634019614177,84.16392803792944 86.02610898226844,84.81236604533373 86.5664739884387,85.10333181788704 86.88237968435334,85.33610443592897 87.1317789179703,85.57719036175901 87.33129830486456,85.82658959537595 87.4975644606088,86.09261544456733 87.63057738520418,86.39189452490754 87.73033707865191,86.70780022082218 87.78021692537459,86.99045268558798 87.80515684873593,87.44768461388611 87.79684354094961,87.91322984997116 87.68045723192805,89.4428784828217 87.61395076963035,89.91673702669365 87.5058777683963,90.36565564720428 87.40611807494976,90.67324803533201 86.82418652984315,92.1613301292462 86.46671429499216,93.40832629733093 86.33370137039677,93.78242514775636 86.15912190686502,94.13158407481984 86.02610898226844,94.32279015392601 85.86815613431172,94.50568292524527 85.66863674741745,94.68026238877701 85.36935766707782,94.86315516009626 84.95369227771663,95.02110800805359 84.57959342729062,95.09592777813879 84.10573488341807,95.12918100928763 83.54874326167398,95.10424108592571 83.04163148665258,95.02942131584109 82.35162694031311,94.8880950834582 81.66993570175995,94.68857569656451 80.70559199844101,94.35604338507545 80.04052737546289,94.09001753588349 79.23413652010066,93.72423199324557 78.57738520491004,93.383386373969 77.93726050529325,92.99266090796915 77.51328180814455,92.68506851984142 77.06436318763333,92.30265636162909 76.69857764499602,91.93687081899058 76.05845294537922,91.15541988699088 74.72832369942178,89.40962525167285 74.17133207767769,88.64480093524699 73.83048645840053,88.13768916022617 73.47301422354953,87.52250438397131 72.20107813210345,85.10333181788704 71.5193868935503,83.91452880431248 71.06215496525276,83.26609079690878 70.16431772423151,82.2768071702279 69.84009872052935,81.86945508865364 69.56575956355107,81.45378969929244 69.36624017665798,81.06306423329261 69.17503409755122,80.58920568942004 68.97551471065813,80.03221406767597 68.74274209261502,79.25907644346319 68.61804247580714,78.76027797622929 68.53490939793443,78.30304604793176 68.48502955121057,77.87906735078306 68.40189647333904,76.43255179580464 68.27719685652998,75.72592063389015 68.11093070078574,75.31025524452838 67.90309800610514,74.88627654737968 66.17392998636035,71.87685912840189 65.96609729167974,71.47782035461454 65.81645775150935,71.12866142755104 65.7083847502753,70.78781580827447 65.61693836461626,70.41371695784905 65.39247905436065,68.76768201597754 65.2095862830414,67.78671169708417 64.93524712606312,66.77248814704197 64.66090796908482,65.95778398389284 64.45307527440423,65.39247905436125 64.22030265636111,64.9269338182762 64.01246996168052,64.61102812236155 63.771384035851085,64.34500227317018 63.48041826329778,64.12054296291517 63.089692797297936,63.92102357602149 62.790413716957126,63.83789049814937 62.358121712020925,63.79632395921301 61.95908293823475,63.82126388257495 62.399688250957276,63.305838799766626 62.94005325712753,62.79872702474522 63.06475287393659,62.615834253425966 63.247645645254664,62.04221601610746 63.40559849321258,61.69305708904338 63.596804572319336,61.35221146976681 63.67162434240454,61.15269208287372 63.69656426576588,60.86172631032042 63.61343118789317,60.4211209975973 63.62174449568068,60.33798791972459 63.65499772682953,60.26316814963998 63.78801065142491,60.146781840618424 64.40319542768037,59.79762291355493 64.81886081704155,59.44015067870393 65.01006689614832,59.24894459959776 65.15139312853121,59.06605182827851 65.18464635968006,58.9829187504058 65.20127297525508,58.80833928687406 65.33428589985047,58.73351951678885 65.3592258232118,58.69195297785309 65.3509125154243,58.59219328440596 65.25115282197775,58.36773397415094 64.91030720270177,57.82736896798069 64.80223420146773,57.511463272066045 64.77729427810638,57.01266480483215 64.70247450802118,56.51386633759825 64.70247450802118,55.84048840683261 64.77729427810638,55.02578424368407 64.76898097031888,54.77638501006712 64.7107878158075,54.47710592972691 64.61102812236096,54.26095992725881 64.48632850555308,54.07806715593956 64.34500227317018,53.554328765344316 64.15379619406342,53.122036760408115 63.896083652658966,52.706371371046345 63.49704487887161,52.240826134961296 63.31415210755354,51.94986036240858 63.27258556861719,51.8168474378126 63.27258556861719,51.69214782100413 63.35571864648872,51.35961550951506 63.36403195427622,51.2432292004935 63.330778723127374,51.126842891472535 63.23933233746834,50.960576735727706 63.039812950574074,50.73611742547269 62.80704033253214,50.56985126972786 62.25004871078806,50.22069234266437 61.7013703968303,49.98791972462185 61.26076508410659,49.713580567642964 61.06955900500101,49.63044748977085 61.003052542703315,49.57225433526007 60.911606157043096,49.4475547184516 60.82847307917039,49.27297525491985 60.60401376891596,48.657790478664985 60.570760537767114,48.48321101513324 60.56244722997961,48.17561862700552 60.52919399883076,48.02597908683511 60.46268753653307,47.90959277781415 60.37124115087285,47.80151977658009 59.847502760277614,47.3775410794314 59.805936221341256,47.26946807819735 59.78930960576742,47.09488861466561 59.814249529128766,46.89536922777193 59.88075599142646,46.870429304409996 60.412807689809206,46.529583685133424 60.96148600376696,46.30512437487841 61.45197116321335,46.147171526921085 62.865233487042325,45.773072676495666 63.34740533870239,45.681626290836036 64.01246996168052,45.61511982853834 64.27849581087249,45.53198675066563 64.47801519776557,45.40728713385716 64.64428135350981,45.257647593687345 65.18464635968006,44.63414950964498 65.40910566993567,44.42631681496438 65.83308436708435,44.12703773462357 66.2321231408717,43.894265116581046 67.34610638435989,43.328960187049454 67.87815808274263,43.11281418458136 68.78430863155138,42.871728258751915 69.3745534844443,42.67220887185824 69.69045918035896,42.6472689484969 69.86503864389188,42.655582256283815 70.05624472299746,42.705462103007086 70.2973306488269,42.796908488666716 70.49685003572117,42.92160810547519 70.68805611482675,43.11281418458136 70.870948886146,43.41209326492217 70.98733519516756,43.553419497305065 71.11203481197661,43.61992595960276 71.3780606611674,43.66149249853911 71.47782035461394,43.719685653049304 71.68565304929453,44.018964733389524 71.99324543742286,44.35149704487918 72.28421120997615,44.7255958953046 72.40059751899653,44.825355588751144 72.5252971358056,44.90017535883635 72.92433590959295,44.99162174449597 73.032408910827,45.041501591219244 73.0906020653372,45.15788790024021 73.21530168214507,45.67331298304853 73.30674806780529,45.86451906215529 73.41482106903933,46.03909852568704 73.55614730142223,46.21367798921878 74.17133207767769,46.86211599662308 74.39579138793212,47.02838215236732 74.57037085146386,47.10320192245252 74.80314346950698,47.15308176917579 75.63447424822935,47.2362148470485 76.5406247970381,47.419107618367164 77.28882249788894,47.52718061960122 77.6213548093786,47.5188673118143 78.21159966227154,47.419107618367164 78.64389166720774,47.385854387218316 78.86003766967583,47.335974540495044 78.9764239786974,47.28609469377177 79.06787036435642,47.211274923686574 79.18425667337799,47.02838215236732 79.18425667337799,46.84548938104866 79.10112359550527,46.30512437487841 79.10112359550527,46.13054491134666 79.13437682665412,46.00584529453819 79.25076313567568,45.82295252321894 79.55004221601531,45.54030005845314 79.64980190946304,45.34909397934697 79.65811521724936,45.249334285899835 79.63317529388802,45.14957459245329 79.41702929141992,44.742222510879024 79.35883613690973,44.56764304734728 79.35052282912223,44.41800350717688 79.37546275248357,44.26836396700647 79.67474183282438,43.5783594206664 79.8410079885686,43.31233357147503 80.18185360784578,42.88835487432634 80.41462622588772,42.41449633045438 80.50607261154792,42.2897967136459 80.66402545950466,42.15678378904992 81.29583685133395,41.81593816977335 81.52860946937706,41.641358706241604 81.7031889329088,41.43352601156101 81.97752808988709,40.81834123530555 82.16042086120635,40.55231538611418 82.43476001818463,40.32785607585917 83.1247645645253,39.87893745534854 83.68175618626937,39.297005910242525 84.18886796129078,38.88965382866826 84.52971358056676,38.54880820939169 84.88718581541775,38.24121582126396 84.97863220107797,38.12482951224299 85.06176527895069,37.91699681756181 85.09501851009954,37.468078197051774 85.14489835682221,37.27687211794501 85.19477820354608,37.168799116710964 85.30285120478013,37.05241280769 85.46080405273686,36.927713190881526 85.56887705397091,36.88614665194517 85.39429759043917,36.877833344158255 85.20309151133358,36.80301357407305 85.06176527895069,36.68662726505149 84.91212573878028,36.47048126258398 84.79573942975873,36.17120218224317 84.4216405793339,34.84938624407382 84.28031434694981,34.50022731700974 83.6318763395467,33.344677534584626 83.49886341495012,33.17841137884039 83.14139118009912,32.81262583620188 82.87536533090834,32.405273754627615 82.01078132103594,30.87562512177708 81.86114178086554,30.57634604143686 81.7115022406963,30.19393388322393 81.60342923946226,30.00272780411776 81.40390985256799,29.778268493862747 81.09631746444086,29.503929336883868 80.46450607261157,29.021757485224395 79.99064752873902,28.780671559394953 79.8410079885686,28.62271871143763 79.79112814184593,28.506332402416074 79.78281483405843,28.373319477820683 79.93245437422883,27.949340780671992 80.12366045333441,26.926803922842268 80.14860037669693,26.635838150288965 80.10703383776057,26.419692147820864 80.04052737546289,26.3033058387999 79.93245437422883,26.186919529778933 79.20088328895181,25.696434370331954 79.05955705656892,25.563421445736562 78.93485743976103,25.413781905566157 78.68545820614409,25.047996362928245 78.36955251022945,24.51594466454491 78.19497304669652,24.158472429694502 78.02039358316478,23.634734039098674 77.91232058193073,23.45184126777942 77.73774111839899,23.227381957524408 77.34701565239914,22.820029875950137 77.1059297265697,22.628823796843967 76.70689095278235,22.437617717737208 75.7425472494634,22.10508540624814 75.3268818601022,21.922192634928887 74.76989023835813,21.5730337078654 73.82217315061301,20.89134246931225 73.51458076248588,20.608690004546453 72.88276937065659,19.97687861271717 72.35071767227384,19.51133337663212 72.12625836201825,19.29518737416402 71.92673897512516,18.9959082938238 71.6773397415082,18.480483211015482 71.585893355848,18.364096901993925 71.41962720010376,18.231083977398534 71.2201078132095,18.10638436059006 70.70468273040176,17.89023835812196 70.13106449308266,17.59095927778174 69.95648502955092,17.466259660973265 69.60732610248742,17.166980580632455 69.27479379099776,16.942521270377437 69.05864778852967,16.85938819250532 68.65960901474232,16.759628499058184 68.51828278235942,16.693122036760492 68.38526985776403,16.576735727739525 68.20237708644477,16.252516724037374 68.06105085406188,16.094563876080052 67.81165162044493,15.878417873611951 67.3710463077224,15.545885562122885 67.0135740728714,15.31311294408036 66.78080145482829,15.196726635058804 66.49814899006249,15.105280249399177 66.04091706176496,15.005520555952634 65.7832045203605,14.897447554718584 65.48392544002087,14.664674936676061 64.66090796908482,13.80009092680425 64.16210950185092,13.334545690719203 63.93765019159532,13.226472689485153 63.72981749691473,13.193219458336305 63.596804572319336,13.20153276612322 64.40319542768037,13.135026303825526 65.01838020393582,13.018639994804559 65.48392544002087,12.869000454634154 65.87465090602072,12.66116775995356 66.1406767552115,12.420081834123529 66.34850944989209,12.12080275378331 66.51477560563751,11.788270442294245 66.96369422614754,10.649347275443555 67.1465869974668,10.316814963953897 67.38767292329624,10.009222575826762 67.68695200363705,9.759823342209813 67.99454439176418,9.593557186464984 68.34370331882766,9.493797493018441 68.53490939793443,9.46885756965651 68.81756186270023,9.46885756965651 69.17503409755122,9.527050724167289 69.54081964018972,9.643437033188256 69.9398584139759,9.818016496720002 70.3721504189121,10.084042345911964 70.98733519516756,10.549587581996422 73.06566214197585,12.37020198740026 73.98843930635843,13.093459764889172 74.67013054491159,13.575631616548643 75.31025524452838,13.99129700591042 75.94206663635767,14.332142625186993 76.57387802818695,14.623108397739706 77.31376242125029,14.905760862506092 77.95388712086708,15.080340326037836 78.61063843605889,15.188413327271887 79.19256998116431,15.238293173995158 79.8326946807811,15.229979866207652 80.43956614924905,15.155160096123039 81.01318438656816,15.005520555952634 81.52029616158956,14.806001169058959 81.82788854971669,14.573228551016435 81.96921478209958,14.406962395272195 82.07728778333363,14.240696239527367 82.135480937845,13.999610313697335 82.10222770669615,13.700331233357117 81.99415470546211,13.401052153016897 81.85282847307921,13.143339611613033 80.93005130869662,11.813210365655584 80.63908553614331,11.331038513996113 80.51438591933426,11.073325972592247 80.41462622588772,10.782360200038946 80.36474637916503,10.566214197570845 80.35643307137752,10.350068195103335 80.4063129181002,9.93440280574156 80.6972786906535,8.945119179061274 81.16282392673855,6.883418847827406 81.3290900824828,6.334740533870239 81.6283691628236,5.594856140806902 81.92764824316441,4.996297980125873 82.39319347924946,4.156653893615994 83.37416379814223,2.6020653374035283 83.79814249529093,1.961940637786735 84.05585503669539,1.621095018510161 84.37176073261003,1.2719360914466702 84.61284665843947,1.0474767811910628 84.95369227771663,0.7897642397871983 85.26959797363128,0.6151847762554531 85.70188997856748,0.4239786971486932 86.15080859907751,0.2743391569788789 86.77430668311929,0.14132623238289774 87.28141845814069,0.06650646229828594 87.91322984996998,0.008313307787507253 88.39540170163004,0 89.05215301682067,0.033253231148847616 89.65071117750229,0.12469961680847393 90.29083587711908,0.2826524647657955 91.12216665584145,0.5819315451066054 92.25277651490464,1.080730012340501 93.15061375592589,1.5296486328505348 94.00688445801077,1.9951938689355828 94.70520231213894,2.4524257972331234 95.09592777813879,2.76001818536085 95.49496655192496,3.117490420211848 95.8108722478396,3.4666493472753386 96.0270182503077,3.7409885042542177 96.72533610443587,4.780151977658364 97.83931934792403,6.675586153146813 98.1801649672012,7.132818081444354 98.4711307397545,7.423783853997657 98.79534974345665,7.6648697798270975 99.16944859388148,7.864389166720773 99.58511398324266,8.022342014678095 99.91764629473232,8.105475092550805 100.29174514515833,8.163668247060993 100.6907839189445,8.205234785997348 101.1895823861784,8.221861401571772 102.33681886081659,8.188608170422924 103.4923686432423,8.080535169188874 104.22393972851813,7.939208936805976 104.68117165681568,7.789569396635571 104.94719750600764,7.63161654867825 105.19659673962458,7.41547054621074 105.28804312528362,7.282457621614759 105.31298304864495,7.132818081444354 105.56238228226191,7.141131389231861 106.52672598558085,7.099564850295506 106.75118529583646,7.124504773657438 107.05046437617727,7.19932454374264 107.76540884587926,7.432097161785164 107.91504838604848,7.5069169318697755 108.09794115736774,7.673183087614604 108.40553354549606,8.113788400337722 108.62167954796416,8.36318763395467 109.10385139962304,8.770539715528939 109.31999740209113,8.845359485614141 109.58602325128192,8.853672793401648 110.00168864064429,8.79547963889087 111.97194258621735,8.438007404039872 112.2213418198343,8.371500941742177 112.82821328830224,8.155354939274076 113.53484445021672,7.9724621679548235 113.85075014613255,7.9308956290190595 114.35786192115278,7.9308956290190595 114.47424823017434,7.947522244593483 114.60726115476973,8.005715399103671 114.74858738715263,8.138728323699652 114.93979346625939,8.479573942976227 115.02292654413209,8.579333636422769 115.18919269987633,8.695719945444326 115.38039877898309,8.753913099954515 115.49678508800346,8.762226407742022 115.64642462817388,8.73728648438009 115.75449762940792,8.670780022082395 115.97064363187602,8.471260635188719 116.07040332532256,8.41306748067794 116.1701630187691,8.3881275573166 116.311489251152,8.379814249529092 116.5276352536201,8.404754172891025 116.89342079625861,8.512827174125075 116.93498733519496,8.637526790933547 117.14282002987555,9.460544261869595 117.1095667987267,9.55199064752863 117.01812041306768,9.693316879911528 116.71884133272687,10.04247580697561 116.64402156264165,10.175488731570999 116.63570825485415,10.275248425018132 116.65233487042917,10.674287198804896 116.6772747937905,10.790673507826453 116.80197441059957,10.965252971358197 117.00149379749266,11.131519127103026 117.49197895693905,11.44742482301767 117.94089757745026,11.622004286549416 117.98246411638543,11.66357082548577 117.99077742417295,11.705137364421534 117.91595765408773,11.929596674677141 117.6748717282583,12.303695525102563 117.44209911021636,12.8274339156978 117.23426641553459,13.15165291939995 117.15944664545057,13.392738845229982 117.08462687536537,13.833344157953098 117.00980710528016,14.032863544846775 116.70221471715185,14.515035396506246 116.33642917451452,14.814314476846466 116.25329609664182,14.905760862506092 116.18678963434412,15.022147171527058 116.14522309540777,15.138533480548025 116.13690978762025,15.338052867441702 116.16184971098278,15.74540494901597 116.1036565564714,16.077937260505628 116.11196986425892,16.252516724037374 116.28654932779067,16.743001883483764 116.33642917451452,17.15035396505803 116.41124894459973,17.47457296876018 116.61908163928032,17.931804897058313 116.72715464051437,18.114697668376976 116.90173410404611,18.305903747483143 117.15113333766307,18.488796518802395 117.383905955705,18.596869520036446 117.6083652659606,18.655062674547224 117.84113788400253,18.66337598233414 118.16535688770469,18.61349613561087 118.63090212378974,18.630122751185294 119.20452036110883,18.522049749951243 119.46223290251329,18.50542313437682 119.84464506072563,18.580242904462022 120.33513022017202,18.729882444632427 120.82561537961959,18.821328830292053 121.34935377021482,18.97096837046187 121.52393323374656,19.062414756121495 121.6153796194056,19.145547833993614 121.70682600506582,19.27024745080209 121.88971877638507,19.602779762291746 122.0559849321293,19.852178995908695 122.1889978567247,19.985191920504086 122.36357732025645,20.118204845100067 123.15334156004364,20.608690004546453 123.26141456127769,20.650256543482808 123.59394687276735,20.708449697992997 123.79346625966043,20.774956160291282 124.28395141910683,21.057608625057078 124.40033772812839,21.065921932843995 124.58323049944764,21.040982009482654 125.18178866012808,20.80820939144013 125.46444112489387,20.7832694680782 126.09625251672315,20.774956160291282 125.97155289991528,21.04929531726957 125.61408066506428,21.697733324673873 125.29817496914963,22.603883873482037 125.2732350457883,22.72858349029051 125.2732350457883,22.89484964603534 125.31480158472347,23.127622264077864 125.38130804702234,23.252321880885745 125.92167305319141,23.925699811651977 126.26251867246857,24.266545430927962 126.49529129051051,24.43281158667279 127.22686237578752,24.81522374488572 127.44300837825563,24.973176592843043 127.57602130285102,25.10618951743843 127.68409430408506,25.27245567318326 127.83373384425546,25.57173475352348 127.933493537702,26.03727998960853 127.96674676885085,26.386438916672017 128.0665064622974,26.46125868675722 128.7149444697017,26.885237383905913 129.01422355004132,27.02656361628881 129.55458855621157,27.209456387608064 130.53555887510555,27.44222900565059 130.72676495421112,27.508735467948284 130.80989803208382,27.558615314671556 130.83483795544515,27.60018185360791 130.83483795544515,27.65837500811869 130.76833149314749,27.749821393778316 130.48567902838167,27.965967396246416 129.2802493992333,28.539585633564922 128.59024485289262,28.780671559394953 127.82542053646796,28.946937715139192 127.5677079950635,29.021757485224395 127.16035591348982,29.22127687211807 126.72806390855362,29.537182568032716 125.68058712736197,29.969474572968913 124.92407611872362,30.19393388322393 124.38371111255455,30.260440345522216 124.25069818795798,30.293693576671064 123.93479249204334,30.484899655777234 123.50250048710714,30.85068519841515 122.92056894200171,31.51574982139387 122.9787620965119,31.590569591479074 123.13671494446982,31.923101902968142 123.29466779242654,32.38864713905319 123.4027407936606,32.60479314152129 123.51081379489464,32.72117945054226 123.58563356497984,32.72117945054226 123.69370656621389,32.621419757095715 123.73527310515026,32.52166006364917 123.74358641293776,32.43852698577646 123.80177956744795,32.42190037020204 123.85997272195813,32.43852698577646 124.10105864778876,32.67961291160649 124.70793011625553,33.003831915308055 124.81600311748957,33.10359160875519 124.85756965642592,33.19503799441481 124.8409430408521,33.26985776450002 124.67467688510668,33.427810612457336 124.54166396051129,33.643956614924846 124.31720465025568,33.79359615509525 124.23407157238415,33.885042540754874 124.16756511008646,34.03468208092528 124.13431187893761,34.15938169773376 124.13431187893761,34.22588816003145 124.16756511008646,34.29239462232915 124.267324803533,34.37552770020127 124.4086510359159,34.44203416249955 124.54997726829879,34.4752873936484 124.71624342404303,34.4752873936484 124.93238942651112,34.43372085471204 125.64733389621313,34.184321621095094 125.78866012859602,34.09287523543547 125.83853997531989,34.00142884977584 125.90504643761759,33.75202961615889 125.96323959212776,33.66058323049986 126.08793920893683,33.55251022926581 126.32071182697877,33.45275053581868 126.81951029421266,33.3280509190102 127.15204260570232,33.20335130220173 127.43469507046811,33.05371176203192 127.60927453399987,33.003831915308055 127.95012015327585,32.97057868415921 128.5154250828086,33.078651685393254 129.11398324348906,33.1119049165421 129.55458855621157,33.07033837760634 129.8372410209774,32.995518607521134 130.0035071767228,32.920698837435936 130.19471325582836,32.80431252841497 130.2944729492761,32.704552834967835 130.48567902838167,32.446840293563966 130.5854387218282,32.38033383126627 130.7018250308498,32.35539390790434 130.99279080340307,32.36370721569126 131.16737026693482,32.34708060011683 131.74930181204144,32.20575436773394 131.89894135221064,32.14756121322375 131.97376112229585,32.08936805871297 132.04026758459355,31.98129505747892 132.10677404689244,31.74020913164889 132.16496720140262,31.615509514840415 132.2231603559128,31.565629668117143 132.297980125998,31.532376436968296 132.48087289731725,31.52406312918138 133.11268428914656,31.615509514840415 133.97726829901896,31.98129505747892 134.17678768591202,32.11430798207431 134.5093199974017,32.45515360135089 134.78365915438,32.68792621939341 134.87510554004018,32.79599922062746 135.00811846463557,33.03708514645749 135.2242644671037,33.69383646164871 135.29908423718888,34.059622004286624 135.2907709294014,34.267454698967214 135.26583100604003,34.39215431577569 135.14113138923096,34.67480678054208 134.8834188478277,35.05721893875442 134.82522569331633,35.256738325648094 134.84185230889133,35.41469117360541 134.90004546340154,35.53939079041388 135.10787815808212,35.74722348509448 135.9558355523795,36.337468337988 136.32993440280552,36.52867441709417 136.65415340650767,36.63674741832822 137.6683769565493,36.89445995973268 138.0175358836128,36.93602649866844 138.55790088978304,36.96927972981788 138.92368643242156,36.952653114243454 139.1065792037408,36.88614665194517 139.35597843735775,36.67831395726458 139.4640514385918,36.628434110541306 139.77164382671893,37.05241280769 140.05429629148472,37.39325842696657 140.35357537182554,37.69253750730679 140.66948106774018,37.93362343313623 141.20153276612294,38.22458920568953 142.2656361628884,38.67350782620016 142.78106124569732,38.922907059817106 144.17769695395128,39.729297915178726 144.4852893420796,39.937130609859324 144.76794180684539,40.17821653568876 144.87601480807945,40.31122946028474 144.95083457816466,40.46086900045456 144.975774501526,40.60219523283745 144.95914788595098,40.76014808079537 144.9092680392283,40.85990777424191 144.80950834578175,41.001234006624806 144.30239657076035,41.50834578164621 144.16107033837744,41.69123855296487 144.10287718386726,41.79931155419892 144.07793726050474,41.95726440215624 144.08625056829226,42.057024095603374 144.1361304150161,42.18172371241185 144.22757680067514,42.30642332922032 144.35227641748304,42.4311229460288 144.6931220367602,42.655582256283815 145.24180035071677,42.92160810547519 146.32253036305727,43.37052672598581 146.81301552250366,43.603299344028336 147.17880106514215,43.80281873092201 147.51133337663182,44.068844580113385 147.7025394557374,44.2933038903684 147.81061245697146,44.48450996947457 147.97687861271686,44.916801974410774 148.0600116905884,45.28258751704868 148.10989153731225,45.59017990517641 148.15977138403613,46.34669091381476 148.1265181528861,46.97018899785713 148.03507176722707,47.5936870818995 147.89374553484416,48.109112164707824 147.7025394557374,48.54140416964343 147.46976683769546,48.88224978892001 147.2037409885035,49.123335714750034 147.0457881405468,49.206468792622154 146.87120867701503,49.27297525491985 146.52204974995155,49.33116840943063 146.21445736182324,49.32285510164312 145.86529843475972,49.28128856270736 145.1254140416964,49.11502240696253 144.42709618756822,48.873936481133086 143.87010456582414,48.59959732415421 143.60407871663338,48.40839124504804 143.3546794830164,48.150678703643585 143.1801000194835,47.90127947002664 142.8226277846325,47.31103461713312 142.59816847437807,47.0117555367929 142.45684224199516,46.88705591998442 142.29888939403725,46.77898291875037 142.115996622718,46.69584984087825 141.9164772358249,46.62934337858056 141.45924530752737,46.55452360849535 140.95213353250597,46.537896992920935 137.56861726310277,46.612716763006134 137.16126518152907,46.59609014743171 136.25511463272034,46.48801714619766 135.8810157822955,46.454763915048815 135.5235435474445,46.48801714619766 135.2907709294014,46.55452360849535 135.14113138923096,46.64596999415498 135.03305838799693,46.745729687601525 134.94161200233788,46.85380268883557 134.84185230889133,47.036695460154824 134.7420926154448,47.36091446385698 134.5841397674869,48.33357147496284 134.442813535104,48.84068324998365 133.76943560433836,50.50334480743017 133.54497629408274,50.95226342794079 133.2955770604658,51.35130220172755 133.0129245957,51.69214782100413 132.70533220757287,51.97480028576992 130.4274858738715,53.595895304280084 130.15314671689202,53.86192115347146 130.02844710008412,54.028187309216285 129.9203740988501,54.21108008053554 129.68760148080815,54.20276677274803 128.89783724102097,54.29421315840766 128.73157108527553,54.28589985062015 128.55699162174378,54.2526466194713 128.31590569591435,54.16120023381168 127.80879392089294,53.886861076833384 127.38481522374425,53.70396830551413 125.18178866012808,52.90589075794002 124.36708449697954,52.540105215302106 123.72695979736274,52.33227252062092 123.02032863544825,52.0329934402807 122.5381567837882,51.89998051568531 121.93959862310776,51.83347405338702 121.64031954276813,51.766967591089326 121.45742677144888,51.68383451321721 121.06670130544903,51.434435279600265 120.75910891732072,51.32636227836621 120.08573098655506,51.18503604598332 119.12970059102364,50.93563681236637 118.29836981230126,50.827563811132315 117.8910177307264,50.81093719555789 116.9516139507688,50.8857569656431 115.75449762940792,50.95226342794079 115.09774631421729,51.085276352536184 114.46593492238682,51.18503604598332 114.17496914983353,51.26816912385544 113.8174969149837,51.45106189517468 113.29375852438729,51.82516074560011 112.90303305838745,52.016366824706274 112.48736766902626,52.27407936611014 112.10495551081392,52.448658829642476 111.93037604728218,52.55673183087653 110.99097226732457,53.27998960836544 110.63350003247358,53.68734168993971 110.51711372345201,53.77878807559934 110.20952133532488,53.92842761576974 109.74397609923983,54.06144054036513 109.50289017341039,53.92011430798223 109.1537312463469,53.7538481522374 108.87939208936743,53.65408845879086 108.55517308566527,53.56264207313124 107.89842177047466,53.47119568747161 107.5076963044748,53.46288237968469 107.11697083847497,53.47119568747161 106.60985906345356,53.52938884198239 106.23576021302873,53.587581996493164 105.40442943430517,53.79541469117376 104.24056634409314,54.194453464961114 103.36766902643323,54.56023900759902 102.90212379034818,54.80963824121597 102.38669870754046,55.17542378385389 101.9793466259656,55.57446255764124 101.6966941611998,55.948561408066666 101.38078846528516,56.538806260960186 100.77391699681722,57.9105020458534 100.58271091771046,58.29291420406574 100.27511852958332,58.791712671299635 99.51860752094497,59.805936221341845 99.30246151847687,60.146781840618424 99.0447489770736,60.662206923426744 98.50438397090335,62.025589400532446 98.21341819835004,62.532701175553846 97.94739234915808,62.873546794830425 97.63979996103095,63.18113918295815 97.31558095732879,63.45547833993644 95.245567318308,65.05163343508467 93.71591868545748,66.18224329414844 93.25868675715994,66.53971552899944 92.62687536533065,67.12164707410545 92.3774761317137,67.39598623108434 92.1031369747354,67.7368318503609 91.87036435669229,68.06105085406247 91.6625316620117,68.41020978112655 90.83120088328815,70.03961810742362 90.18276287588503,71.15360135091238 89.57589140741709,72.07637851529556 88.67805416639584,73.31506137559279 88.2291355458858,74.00506592193285 87.85503669545979,74.72832369942236 87.68877053971555,75.17724231993239 87.59732415405533,75.52640124699647Z"/>
    <path d="M160.56322660258465,212.10573488341896 160.85419237513796,213.71851659414162 161.07865168539237,214.63298045073728 161.21166460998893,215.05695914788598 161.35299084237184,215.42274469052447 161.65226992271147,216.03792946677933 161.95154900305226,216.53672793401324 162.23420146781808,216.93576670780058 162.78287978177582,217.5925180229918 163.07384555432796,217.88348379554452 163.39806455803011,218.17444956809783 164.49542118594442,218.99746703903386 164.8944599597318,219.32168604273602 165.27687211794532,219.70409820094835 165.53458465934858,220.04494382022492 165.78398389296552,220.47723582516113 165.86711697083825,220.68506851984174 165.94193674092344,220.9594076768206 166.00012989543364,221.40832629733063 166.00844320322113,222.3144768461388 166.0500097421575,222.55556277196882 166.09988958888016,222.72182892771306 166.22458920568923,222.94628823796867 166.39916866922098,223.14580762486236 166.57374813275274,223.28713385724524 166.80652075079584,223.42014678184063 167.00604013768893,223.49496655192584 167.25543937130587,223.56978632201105 167.75423783853978,223.6196661687343 168.2862895369225,223.58641293758546 168.85159446645412,223.47002662856391 169.34207962590048,223.32038708839409 169.81593816977306,223.14580762486236 172.11872442683577,222.09833084367128 172.7172825875162,221.86555822562877 173.2327076703251,221.6826654543095 173.9393388322396,221.48314606741584 175.59368708189922,221.08410729362907 177.43092810287686,220.51048905630998 177.99623303240847,220.39410274728843 178.61973111645142,220.32759628499073 178.97720335130242,220.3192829772038 179.40118204845112,220.34422290056514 180.14106644151445,220.4522959017992 180.8809508345778,220.66012859647978 181.54601545755594,220.9427810612456 182.13626031045004,221.27531337273524 182.42722608300335,221.48314606741584 182.66831200883277,221.69097876209642 182.85951808793837,221.8904981489901 183.06735078262014,222.16483730596897 183.17542378385417,222.36435669286266 183.26687016951323,222.58881600311767 183.31675001623708,222.80496200558576 183.33337663181092,223.0294213158408 183.30012340066207,223.328700396181 183.24193024615187,223.54484639864913 183.15048386049168,223.77761901669163 182.97590439695992,224.06027148145742 182.80963824121568,224.26810417613862 182.57686562317255,224.50087679418115 182.20276677274774,224.80015587452135 181.72890822887518,225.11606157043602 180.1743196726633,225.99727219588223 179.6007014353442,226.35474443073323 179.1019029681103,226.6955900500098 178.68623757874911,227.02812236149887 178.22900565045157,227.45210105864817 177.77177372215286,227.92595960252012 176.55803078521814,229.43066831200872 176.0924855491331,229.95440670260456 175.59368708189922,230.44489186205095 175.11982853802664,230.81899071247636 174.6542833019416,231.12658310060408 174.1471715269202,231.37598233422105 173.59017990517611,231.58381502890163 172.55932973955947,231.87478080145493 172.15197765798462,232.01610703383784 171.71137234526208,232.22393972851842 171.29570695589973,232.5065921932848 171.08787426121913,232.68948496460348 170.8634149509647,232.9305708904335 170.51425602390003,233.40442943430548 170.33967656036828,233.7286484380076 170.1983503279854,234.02792751834784 170.081964018965,234.34383321426247 169.95726440215594,234.75949860362425 169.86581801649692,235.20841722413488 169.78268493862421,235.74046892251764 169.64967201402882,237.5693966357084 169.53328570500724,238.6584399558358 169.38364616483685,239.66435019809052 169.2173800090926,240.48736766902655 168.992920698837,241.3186984477495 168.76014808079506,242.05026953302593 168.51074884717812,242.69870754043023 167.93713060985903,244.07871663311036 167.72929791517842,244.63570825485505 167.56303175943302,245.16775995323778 167.44664545041263,245.67487172825918 167.3551990647524,246.3981295057481 167.23049944794454,248.22705721893885 167.23049944794454,248.77573553289602 167.29700591024223,249.29947392349186 167.41339221926262,249.74007923621497 167.57134506722053,250.10586477885346 167.82074430083748,250.52984347600216 168.10339676560326,250.88731571085316 168.34448269143272,251.1284016366826 168.6271351561985,251.38611417808707 169.691238552964,252.1925050334481 170.09859063453885,252.54166396051218 170.38955640709216,252.8326297330649 171.10450087679413,253.6390205884265 171.4287198804963,253.96323959212864 171.852698577645,254.2708319802558 172.26005065921868,254.50360459829832 172.66740274079353,254.68649736961757 173.98090537117596,255.2185490680003 174.3633175293883,255.39312853153206 174.55452360849506,255.50120153276612 174.6709099175166,255.60927453400015 174.7207897642393,255.70072091965977 174.7207897642393,255.75060076638306 174.62934337858027,255.84204715204268 174.47139053062236,255.90855361434038 174.02247191011233,255.97506007663867 173.3823472104955,256 171.46197311164514,256 166.2495291290506,255.8586737676171 163.52276417483915,255.81710722868135 144.66818211339884,255.775540689745 144.0529973371434,255.75060076638306 143.67058517893108,255.7173475352342 143.2549197895687,255.63421445736208 142.9972072481654,255.55108137948997 142.78937455348364,255.45132168604283 142.6064817821656,255.30168214587303 142.49840878093153,255.14372929791512 142.44852893420767,254.9940897577453 142.44021562642016,254.75300383191527 142.48178216535652,254.53685782944774 142.56491524322922,254.29577190361772 142.73118139897346,253.9216730531923 143.24660648178238,253.01552250438414 143.65395856335604,252.35045788140542 144.10287718386726,251.67707995063978 144.6266155744625,250.95382217315085 145.21686042735544,250.23887770344885 145.7572254335257,249.64031954276842 147.44482691433413,247.94440475417306 147.80229914918513,247.51211274923685 148.03507176722707,247.16295382217336 148.19302461518498,246.85536143404565 148.30941092420534,246.58102227706735 148.38423069429055,246.31499642787597 148.44242384880192,246.03234396310958 148.47567707995077,245.51691888030126 148.45073715658825,244.64402156264197 148.45073715658825,244.33642917451482 148.5006170033121,243.98727024745074 148.60037669675864,243.6713645515361 148.76664285250288,243.33883224004703 148.9911021627585,243.01461323634487 149.30700785867313,242.64051438591946 150.01363902058762,241.8840033772817 150.3627979476523,241.44339806455798 150.5041241800352,241.21062544651548 150.60388387348175,240.99447944404795 150.67870364356693,240.77833344157986 150.71195687471578,240.55387413132425 150.7036435669283,240.20471520426076 150.59557056569423,239.8804962005586 150.41267779437499,239.6061570435803 150.15496525297053,239.35675780996337 149.87231278820474,239.17386503864412 149.51484055335374,238.99097226732488 147.96856530492937,238.40904072221886 147.2868740663762,238.0931350263042 146.9792816782491,237.90192894719746 146.69662921348328,237.66915632915493 146.43891667207882,237.40313047996355 146.2643372085471,237.1537312463466 146.08975774501533,236.80457231928312 145.9983113593551,236.4387867766452 145.95674482041878,236.09794115736864 145.93180489705742,235.1502240696241 145.89023835812108,234.87588491264523 145.82373189582339,234.60154575566693 145.6242125089303,234.0694940572842 144.96746119373847,232.72273819575233 144.83444826914308,232.36526596090192 144.75131519127038,232.05767357277418 144.7014353445477,231.75839449243398 144.68480872897268,231.43417548873182 144.70974865233404,231.10995648502967 144.7762551146329,230.81067740468944 144.8926414236533,230.4781450932004 145.1171007339089,230.01259985711533 145.30830681301566,229.70500746898762 145.66577904786664,229.21452230954122 147.212054296291,227.3357147496266 147.59446645450336,226.9200493602654 148.40085730986556,226.11365850490378 148.74170292914155,225.73124634669085 148.95784893160965,225.45690718971258 149.11580177956756,225.1825680327337 149.24050139637544,224.9082288757554 149.31532116646065,224.6089497954146 149.356887705397,224.31798402286188 149.356887705397,223.98545171137224 149.34026108982198,223.72773916996837 149.25712801195047,223.29544716503216 148.89965577709947,222.031824381373 148.7832694680779,221.43326622069256 148.76664285250288,221.13398714035233 148.7915827758654,220.86796129116098 148.82483600701426,220.6684419042673 148.9079690848858,220.41072936286284 149.03266870169486,220.14470351367146 149.24050139637544,219.8204845099699 150.35448463986478,218.48204195622554 150.59557056569423,218.14119633694898 150.84496979931117,217.7255309475872 151.05280249399178,217.32649217380043 151.23569526531102,216.89420016886424 151.62642073131087,215.64720400077948 151.76774696369378,215.27310515035407 151.95895304280054,214.8657530687798 152.13353250633227,214.56647398843958 152.37461843216172,214.26719490809936 152.64064428135367,214.0094823666949 153.0729362862887,213.68526336299277 153.82113398713955,213.19477820354638 154.06221991297016,213.0118854322271 154.32824576216095,212.77079950639768 154.53607845684155,212.4964603494188 154.69403130479944,212.19718126907858 154.7854776904585,211.9145288043128 154.76053776709713,211.53211664609987 154.64415145807558,211.15801779567443 154.5111385334802,210.9335584854194 154.30330583879962,210.68415925180247 153.56342144573628,209.94427485873913 153.2225758264591,209.5618627005262 152.9316100539058,209.17945054231387 152.28317204650267,208.2732999935051 151.8758199649278,207.80775475742064 151.59316750016202,207.56666883159062 151.29388841982123,207.40040267584638 150.96135610833275,207.28401636682483 150.62051048905556,207.22582321231405 150.32123140871596,207.22582321231405 150.03026563616265,207.25076313567598 149.69773332467298,207.32558290576117 149.40676755211967,207.41702929142082 149.11580177956756,207.53341560044177 148.7915827758654,207.6996817561866 148.25953107748268,208.0488406832501 147.96856530492937,208.29823991686703 147.72747937909992,208.53101253490956 147.24530752743985,209.07969084886673 146.8462687536525,209.65330908618583 146.01493797493015,210.9917516399302 145.7738520491007,211.32428395141926 145.5577060466326,211.5736831850362 145.2667402740793,211.83139572644066 145.03396765603617,211.9810352666105 144.86770150029193,212.0641683444826 144.51854257322844,212.18055465350415 144.09456387607975,212.25537442358936 142.24900954731459,212.33850750146146 141.74189777229319,212.39670065597227 140.253815678379,212.60453335065284 139.21465220497484,212.67935312073806 138.5246476586342,212.67935312073806 137.6766902643368,212.6377865818017 136.99499902578367,212.571280119504 136.28836786386918,212.46320711826996 135.42378385399678,212.29694096252513 132.57231928297747,211.65681626290834 131.7243618886789,211.41573033707888 130.82652464765883,211.11645125673866 129.94531402221142,210.75066571410017 129.2137429369356,210.38488017146224 128.89783724102097,210.18536078456856 128.61518477625515,209.97752808988798 128.3574722348507,209.75306877963237 128.11638630902127,209.50366954601543 127.78385399753161,209.0547509255054 127.5677079950635,208.61414561278167 127.44300837825563,208.14860037669663 127.39312853153176,207.67474183282468 127.4263817626806,207.10943690329307 127.53445476391465,206.48593881925072 127.82542053646796,205.21400272780403 128.03325323114856,204.49074495031513 128.24108592582914,203.89218678963468 128.88121062544593,202.27109177112453 129.5047087094889,200.41722413457185 129.7956744820422,199.72721958823178 130.09495356238182,199.12034811976383 130.46073910502034,198.50516334350837 131.8656881210618,196.40189647333935 132.3644865882957,195.56225238682887 132.70533220757287,194.88056114827572 133.0046112879125,194.2238098330845 133.25401052152944,193.5836851334677 133.41196336948735,193.0765733584469 133.5200363707214,192.55283496785106 133.56160290965775,192.0623498084047 133.56991621744407,191.50535818666 133.5283496785089,191.03981295057497 133.4452166006362,190.5077612521922 133.33714359940214,190.0671559394691 133.17919075144425,189.6348639345329 132.96304474897732,189.19425862180978 132.78015197765808,188.88666623368206 132.57231928297747,188.6372670000651 132.2314736637003,188.30473468857605 131.91556796778568,188.08027537832044 131.65785542638122,187.92232253036312 131.26712996038137,187.73111645125695 130.16977333246703,187.28219783074633 129.6460349418718,187.04111190491687 129.11398324348906,186.72520620900164 128.62349808404147,186.36773397415124 128.18289277131896,185.95206858478946 127.37650191595793,185.07085795934265 126.93589660323421,184.6302526466195 126.43709813600032,184.1896473338964 125.09865558225654,183.0507241670457 124.267324803533,182.28589985062044 123.53575371825599,181.52107553419518 122.84574917191651,180.68974475547222 122.49659024485302,180.21588621159967 122.16405793336337,179.71708774436576 121.85646554523622,179.20997596934495 121.56549977268293,178.6779242709622 121.07501461323653,177.64707410534558 120.20211729557663,175.57706046632478 119.79476521400295,174.66259660972912 119.44560628693827,173.98090537117656 119.07150743651344,173.41560044164436 118.71403520166244,172.98330843670877 117.74137819055599,171.91089173215576 116.68558810157802,170.69714879521987 116.07871663311008,170.05702409560308 115.29726570111038,169.3503929336886 113.82581022277003,168.18652984347597 113.4600246801327,167.85399753198692 113.11917906085554,167.5048386049234 112.67026044034552,166.9811002143276 112.11326881860025,166.28278236020003 111.52302396570731,165.4847048126259 111.04085211404843,164.78638695849833 109.71072286809098,162.71637331947812 109.33662401766497,162.04299538871248 109.06228486068669,161.43612392024454 107.12528414626247,156.8139247905435 106.7013054491126,155.91608754952284 106.2773267519639,155.10138338637432 105.48756251217789,153.75462752484245 104.62297850230549,152.4328115866731 103.72514126128424,151.18581541858833 103.35935571864573,150.7368967980777 102.92706371371071,150.24641163863134 102.10404624277467,149.4317074754822 100.41644476196622,147.93531207378052 98.5376372020522,146.10638436058977 98.0471520426058,145.67409235565415 97.49847372864805,145.24180035071797 94.28953692277658,143.02214717152737 92.76820159771354,141.99961031369764 87.2232253036305,138.50802104306035 85.90140936546057,137.66837695654988 85.42755082158801,137.33584464506083 84.92875235435412,136.9534324868485 84.61284665843947,136.6790933298696 84.30525427031233,136.35487432616745 84.11404819120557,136.11378840033802 83.99766188218402,135.92258232123186 83.82308241865228,135.5318568552314 83.73994934078074,135.11619146587023 83.74826264856706,134.65064622978517 83.85633564980112,134.1684743781257 84.07248165226922,133.64473598753048 84.38007404039753,133.13762421250905 84.60453335065196,132.84665843995577 84.79573942975873,132.6471390530627 85.14489835682221,132.3811132038713 85.50237059167321,132.20653374033898 85.92634928882191,132.11508735467993 86.34201467818427,132.09846073910492 86.73274014418412,132.12340066246685 87.36455153601341,132.2314736637009 88.91082678443777,132.53906605182863 89.68396440865114,132.74689874650923 90.35734233941677,132.98798467233865 90.93096057673587,133.27063713710504 91.47132558290494,133.62810937195545 92.41072936286255,134.31811391829612 92.72663505877719,134.5259466129767 93.22543352601109,134.8002857699556 93.75748522439383,135.04137169578502 95.68617263103172,135.8145093199978 96.1766577904781,136.0389686302528 96.71702279664835,136.3216210950186 97.07449503149935,136.5294537896992 97.55666688315823,136.85367279340136 99.10294213158379,138.09235565369917 100.47463791647641,139.05669935701752 101.00668961485916,139.4723647463793 101.63850100668962,140.02935636812398 103.07670325387994,141.43430538416604 103.4840553354548,141.7668376956551 103.80827433915695,141.9829836981232 104.29044619081583,142.24900954731459 104.79755796583723,142.46515554978268 107.30817691758054,143.37961940637777 108.05637461843139,143.6872117945055 108.71312593362319,143.9781775670588 109.44469701889902,144.3356498019098 110.21783464311238,144.76794180684539 110.76651295706897,145.10878742612198 111.56459050464368,145.6408391245047 112.32110151328202,146.20614405403688 112.97785282847265,146.75482236799405 115.12268623757863,148.70013639020578 116.85185425732226,150.10508540624784 117.74137819055599,150.9281028771839 118.8221082028965,152.0088328895244 119.52873936481099,152.81522374488543 120.75079560953438,154.43631876339558 122.31369747353376,156.21536662986307 122.67948301617109,156.70585178931006 122.93719555757555,157.0882639475224 123.32792102357539,157.7450152627136 123.66045333506504,158.36851334675598 125.04046242774518,161.22829122556337 125.72215366629833,162.51685393258447 126.59505098395705,164.03818925764747 127.0689095278296,164.761447035137 127.40975514710678,165.24361888679647 127.81710722868046,165.7590439696048 128.2826524647655,166.2744690524131 130.46073910502034,168.4193024615185 132.18159381697646,170.23160355913484 132.7219588231467,170.83847502760278 133.25401052152944,171.53679288173035 133.5283496785089,171.96908488666654 133.76943560433836,172.42631681496408 134.0022082223803,172.95836851334684 134.53425992076302,174.28849775930368 134.75871923101863,174.7872962265376 135.0164317724231,175.2445281548357 135.42378385399678,175.84308631551616 135.86438916672049,176.36682470611197 136.11378840033743,176.61622393972894 136.49620055854976,176.9404429434305 137.11138533480522,177.37273494836668 138.22536857829456,178.07105280249425 138.7324803533148,178.43683834513217 139.1730856660385,178.85250373449395 139.38091836071908,179.1102162758978 139.62200428654853,179.43443527959997 139.8298369812303,179.77528089887653 140.02104306033587,180.14937974930197 140.1873092160813,180.54010521530182 140.3203221406767,180.91420406572723 140.44502175748457,181.44625576410996 140.60297460544248,182.46879262193968 140.76924076118672,183.35831655517345 141.09345976488888,184.67181918555588 141.33454569071833,185.46989673312999 141.6255114632716,186.31785412742738 141.94973046697376,187.14918490615094 142.30720270182476,187.97220237708638 142.6896148600371,188.78690654023552 143.09696694161195,189.58498408780963 143.49600571539932,190.2833019419372 144.06962395271722,191.23933233746862 144.5601091121648,191.98753003831948 145.08384750276005,192.7274144313828 145.69903227901548,193.54211859453136 146.2643372085471,194.24043644865893 147.33675391310007,195.4458660778073 147.96025199714185,196.08599077742412 148.65856985126885,196.74274209261532 149.33194778203566,197.33298694550885 149.9221926349286,197.81515879716832 150.53737741118405,198.26407741767895 151.16087549522584,198.67974280704072 151.54328765343817,198.91251542508323 152.06702604403458,199.18685458206153 153.67980775475664,199.91011235955045 154.83535753718235,200.50867052023148 155.4505423134378,200.80794960057167 158.3103201922446,202.07988569201837 160.20575436773365,202.8197700850817 160.9539520685845,203.16061570435826 161.56082353705244,203.51808793920927 162.04299538871132,203.86724686627275 162.55010716373272,204.3327921023578 162.92420601415873,204.78171072286844 163.14035201662682,205.16412288108077 163.24842501786088,205.4800285769954 163.28167824900973,205.78762096512312 163.23179840228588,206.12846658439972 163.08215886211545,206.45268558810187 162.824446320711,206.81015782295285 161.75202961615918,207.90751445086718 161.41949730466953,208.30655322465455 161.1119049165424,208.74715853737766 160.84587906735044,209.23764369682405 160.68792621939252,209.6283691628239 160.5964798337335,209.9276482431647 160.49672014028695,210.4929531726963 160.4717802169256,211.19127102682387 160.56322660258465,212.10573488341896Z"/>
    <path d="M180.72299798661987,105.98636097941178 180.69805806325854,106.2108202896668 180.50685198415297,107.05877768396478 180.49853867636546,107.20841722413459 180.50685198415297,107.42456322660269 180.55673183087563,107.62408261349637 180.63155160096085,107.79866207702811 181.07215691368455,108.65493277911301 181.18854322270494,108.9458985516663 181.26336299279012,109.2285510164321 181.33818276287533,109.62758979021886 181.3963759173867,110.10144833409142 181.42962914853555,110.66675326362301 181.42131584074804,111.14061180749498 181.3797493018117,111.5978437357931 181.26336299279012,112.12989543417585 180.73962460219488,113.67617068260081 180.44034552185408,114.76521400272823 180.3239592128337,115.10605962200421 180.13275313372694,115.53003831915349 179.84178736117366,115.96233032408911 179.43443527959997,116.41124894459973 178.97720335130242,116.83522764174842 178.01285964798348,117.64993180489697 176.12573878028195,119.14632720659864 175.92621939338767,119.27934013119463 175.7267000064946,119.38741313242868 175.2944080015584,119.52042605702407 175.05332207572894,119.56199259596042 174.6709099175166,119.58693251932236 174.2303046047929,119.57030590374794 173.82295252321805,119.52042605702407 173.04981489900587,119.36247320906675 171.20426057024068,118.85536143404593 170.7137754107943,118.77222835617323 170.2149769435604,118.73897512502438 169.4168993959857,118.74728843281189 166.81483405858216,118.92186789634363 166.07494966551883,119.00500097421575 164.49542118594442,119.24608690004578 163.78879002402994,119.31259336234348 163.4230044813926,119.32090667013098 163.1154120932643,119.29596674676905 162.8327596284985,119.24608690004578 162.5417938559452,119.16295382217307 162.31733454569078,119.06319412872652 162.1011885432227,118.93018120413055 161.9016691563284,118.77222835617323 161.69383646164783,118.57270896928014 160.68792621939252,117.31739949340789 159.3910502045851,115.78775086055735 159.08345781645798,115.38039877898309 158.834058582841,114.99798662077016 158.65116581152176,114.64051438591976 158.3103201922446,113.85075014613255 158.18562057543673,113.64291745145196 158.0359810352663,113.4600246801327 157.82814834058573,113.27713190881346 157.55380918360743,113.12749236864364 157.27115671884044,113.0194193674096 156.43982594011808,112.77833344157956 156.18211339871362,112.67857374813302 155.99090731960686,112.56218743911145 155.7997012405013,112.40423459115414 155.6500617003309,112.2296551276224 155.525362083523,111.99688250957988 155.43391569786277,111.70591673702657 155.3757225433526,111.39832434889944 155.35078261999007,111.09904526855921 155.34246931220375,110.50880041566569 155.39234915892644,109.96012210170852 155.56692862245816,108.57179970124089 155.60849516139453,107.4328765343902 155.64174839254338,107.01721114502843 155.77476131713996,106.38539975319854 156.12392024420345,105.3545495875819 156.24861986101132,104.93057089043322 156.4647658634794,103.79164772358253 156.5229590179908,103.60875495226387 156.62271871143733,103.40923556537018 156.7972981749691,103.20971617847651 157.09657725530872,103.01851009937033 157.47067610573473,102.89381048256186 157.94453464960728,102.80236409690224 158.6677924270956,102.75248425017897 159.51574982139297,102.72754432681704 161.5940767682013,102.79405078911473 162.01805546534996,102.79405078911473 162.4586607780737,102.73585763460454 162.6083003182441,102.68597778788067 162.74131324283948,102.61115801779607 162.85769955185984,102.51971163213645 162.93251932194505,102.41163863090239 162.99071247645642,102.26199909073199 163.00733909203026,102.09573293498775 162.97408586088142,101.75488731571117 162.7662531662008,100.74897707345588 162.70806001169063,100.21692537507313 162.72468662726448,99.73475352341366 162.77456647398833,99.48535428979672 162.84938624407351,99.27752159511613 162.97408586088142,99.01149574592475 163.1154120932643,98.77872312788223 163.28167824900973,98.56257712541412 163.49782425147782,98.34643112294603 163.73059686951976,98.16353835162737 163.9633694875617,98.02221211924387 164.29590179905136,97.87257257907406 164.5619276482433,97.78943950120194 164.91939988309431,97.72293303890365 165.30181204130665,97.69799311554232 165.7590439696042,97.70630642332922 167.17230629343317,97.78112619341444 167.69604468402957,97.76449957784001 168.7019549262837,97.70630642332922 169.1259336234324,97.70630642332922 169.4335260115607,97.73124634669117 169.75774501526286,97.78943950120194 170.048710787815,97.87257257907406 170.40618302266597,98.03052542703138 170.74702864194316,98.22173150613754 171.04630772228276,98.44619081639316 171.49522634279398,98.8286029746055 171.97739819445286,99.28583490290303 172.4346301227504,99.77632006235001 172.81704228096393,100.24186529843506 173.68993959862266,101.48054815873229 173.91439890887827,101.72163408456233 174.17211145028273,101.89621354809407 174.429823991686,102.00428654932813 174.82886276547336,102.07910631941333 175.19464830811185,102.09573293498775 176.38345132168521,102.04585308826388 176.84068324998395,102.07079301162582 177.24803533155762,102.13729947392352 177.64707410534498,102.24537247515757 178.0876794180687,102.41163863090239 178.5116581152174,102.6360979411574 178.8774436578547,102.88549717477436 179.2349158927057,103.201402870689 179.62564135870554,103.62538156783829 179.98311359355654,104.08261349613582 180.3239592128337,104.58972527115664 180.54010521530182,104.98876404494399 180.6648048321097,105.33792297200748 180.72299798661987,105.65382866792271 180.72299798661987,105.98636097941178Z"/>
  </g>
</svg>