<?xml version="1.0" encoding="UTF-8" standalone="no"?>
<svg viewBox="0 0 256 146.65415401600941" xmlns="http://www.w3.org/2000/svg">
  <style>
    g.zone {
      fill: lightgray;
      stroke-width: 2;
      stroke-linecap: square;
      stroke-linejoin: bevel;
      stroke-miterlimit: 3;
      stroke-opacity: 0.8;
      stroke: black;
      fill-opacity: 0.3;
    }
  </style>
  <g class="zone" id="zone">
    <path d="M180.42947833287448,79.63345293955355 180.65912227435953,79.50979850952285 181.86033673751132,79.10350538228055 182.19597019044946,78.90919127794695 183.07921611923948,78.078940104886 184.33342533811782,76.70107645597695 184.63372895390577,76.4714325144919 185.09301683687588,76.18879381727903 185.69362406845178,75.94148495721889 186.45321556720984,75.74717085288529 187.05382279878575,75.64118134143094 188.71432514490763,75.44686723709734 189.45625172508934,75.25255313276374 190.48081700248514,74.72260557549073 191.9470052442722,73.87468948385343 195.0207010764571,72.53215567209583 196.3985647253674,72.07286778912572 196.68120342257902,71.86088876621703 196.9285122826404,71.45459563897347 197.08749654982006,71.27794645321623 197.72343361854868,71.03063759315607 198.04140215291298,70.97764283742828 198.4830251173067,71.01297267457973 199.13662710460918,71.17195694176188 200.2671818934581,71.61357990615562 200.86778912503397,71.80789401048922 201.60971570521818,71.93154844051993 202.1043334253385,72.12586254485353 202.58128622688494,72.53215567209583 203.99447971294543,74.12199834391484 204.66574661882424,74.77560033121729 204.98371515318854,74.96991443555089 205.40767319900593,75.12889870273304 206.39690863924903,75.32321280706664 207.31548440518924,75.39387248136954 208.5343637869174,75.57052166712678 209.64725365718996,75.95914987579398 210.72481369031232,76.45376759591554 211.18410157328242,76.6127518630977 212.7739442451014,76.38310792161265 213.88683411537397,76.3477780844612 214.99972398564904,76.20645873585539 215.52967154292202,76.20645873585539 215.95362958873943,76.25945349158194 216.57190173889168,76.48909743306699 217.45514766767917,76.98371515318854 219.92823626828567,77.8846260005524 222.17168092740965,78.3439138835225 223.0372619376208,78.5558929064312 223.58487441347015,78.71487717361335 224.60943969086597,79.138835219432 225.73999447971485,79.42147391664486 226.2522771184115,79.50979850952285 227.4181617444106,79.56279326525065 229.11399392768521,80.02208114822075 229.27297819486736,80.8699972398568 229.62627656638188,81.91222743582772 230.05023461220176,82.7954733646152 231.26911399392742,85.09191277946572 231.56941760971537,85.78084460391962 231.78139663262658,86.43444659122332 231.97571073695892,87.28236268286062 232.0640353298382,88.13027877449667 232.20535467844397,91.04499033949818 232.32900910847343,92.51117858128649 232.68230747999044,94.6839635661063 233.03560585150493,96.20314656362241 233.49489373447503,97.68699972398706 233.98951145459532,99.0118686171683 234.57245376759738,100.19541816174501 235.40270494065834,101.55561689207897 237.55782500690054,104.47032845708048 238.51173060999346,105.98951145459658 239.35964670162824,107.70300855644629 240.7198454319622,111.13000276014445 241.3557825006908,112.52553132762985 242.20369859232812,114.0977090808725 243.17526911399486,115.54623240408571 244.57079768148154,117.34805409881467 246.24896494617727,119.22053546784528 247.7328181065432,120.70438862820993 251.86640905327158,124.5906707148782 253.2442727021819,125.9861992823636 254.18051338669594,127.01076455975816 254.85178029257725,127.8410157328191 255.3640629312739,128.60060723157716 255.73502622136476,129.32486889318375 255.9293403256971,129.92547612475965 256,130.34943417057832 256,130.84405189069986 255.8940104885469,131.28567485509362 255.6820314656382,131.63897322660938 255.3640629312739,131.97460667954877 255.0107645597569,132.18658570245748 254.5868065139395,132.32790505106325 254.1628484681221,132.39856472536616 253.4915815622433,132.41622964394253 252.8556444935147,132.34556996963963 252.06072315760645,132.18658570245748 251.1951421473928,131.88628208666952 249.94093292851443,131.3033397736687 247.75048302511954,129.99613579906256 247.09688103781457,129.6428374275468 246.23130002760342,129.3072039746074 245.36571901738978,129.13055478885016 244.7121170300873,129.13055478885016 243.9701904499031,129.2365443003045 243.42257797405628,129.39552856748665 242.75131106817747,129.67816726469826 242.25669334805465,129.96080596191112 241.62075627932856,130.40242892630485 241.09080872205556,130.89704664642642 240.59619100193277,131.46232404085086 240.17223295611535,132.16892078388236 239.92492409605396,132.80485785260973 239.8365995031747,133.52911951421632 239.92492409605396,134.18272150151878 240.1898978746892,134.83632348882247 240.63152083908545,135.50759039470128 242.78664090532766,137.99834391388413 243.66988683411515,139.14656362130938 244.1821694728143,139.959149875794 244.72978194866116,141.0543748274927 244.99475572729892,141.77863648909803 245.17140491305742,142.48523323212956 245.25972950593416,143.050510626554 245.25972950593416,143.5274634280992 245.20673475020763,143.9867513110693 245.06541540160183,144.48136903119087 244.85343637869312,144.86999723985807 244.55313276290516,145.22329561137255 244.19983439138815,145.5059343085854 243.82887110129732,145.70024841291902 242.804305823904,146.0535467844335 241.4264421749937,146.28319072591856 239.9779188517805,146.3715153187978 222.5073143803478,146.3715153187978 180.57079768148026,146.5834943417065 163.08252829147122,146.56582942313142 157.21777532431798,146.65415401600941 156.157880209772,146.60115926028286 154.9566657466202,146.40684515594927 154.37372343361812,146.230195970192 153.82611095777128,145.9652221915555 153.4021529119514,145.64725365719121 153.04885454043688,145.22329561137255 152.88987027325473,144.9229919955846 152.71322108749624,144.4637041126145 152.2362682859523,142.41457355782666 151.81231024013238,141.30168368755284 151.47667678719424,140.6834115374006 151.07038365995066,140.10046922440105 150.59343085840422,139.53519182997658 150.04581838255737,139.00524427270358 149.18023737234373,138.31631244824842 148.33232128070642,137.75103505382398 147.16643665470733,137.0974330665203 143.96908639249295,135.4016008832469 142.90919127794695,134.76566381451957 141.9729505934304,134.11206182721588 136.69113993927672,130.1551200662447 135.43693072039838,129.1658846260016 134.27104609439678,128.10598951145562 133.45845983991217,127.15208390836395 132.85785260833626,126.233508142425 132.41622964394253,125.3325972950599 131.93927684239605,124.0607231576052 131.67430306375832,123.03615788021064 131.55064863372885,122.08225227711898 131.5329837151525,121.30499585978583 131.6036433894554,120.47474468672488 131.93927684239605,118.33728953905653 132.00993651669896,117.52470328457193 132.02760143527533,116.69445211151097 131.93927684239605,115.66988683411641 131.35633452939652,112.68451559481201 130.77339221639446,110.4410709356893 130.20811482197126,108.83356334529519 129.3778636489103,107.12006624344549 128.6006072315759,105.79519735026298 127.6113717913328,104.25834943417178 124.82031465636199,100.19541816174501 121.90560309136174,96.18548164504605 120.65139387248088,94.59563897322705 119.59149875793487,93.35909467292379 118.88490201490588,92.61716809274209 117.78967706320717,91.53960805961974 116.60612751863172,90.53270770080154 115.77587634557077,89.89677063207418 114.87496549820692,89.27849848192193 114.11537399944886,88.83687551752818 113.33811758211445,88.41291747170953 112.13690311896265,87.86530499586017 109.98178305271794,87.03505382279923 106.83742754623263,86.02815346398103 104.22301959702033,85.35688655810222 102.13855920507852,84.95059343085866 99.87744962738071,84.70328457079852 97.59867513110656,84.65028981507072 95.5672094948938,84.77394424510142 94.52497929892415,84.93292851228357 93.42975434722544,85.16257245376862 91.94590118686205,85.62186033673872 90.95666574661894,86.01048854540467 90.03808998067873,86.48744134695113 89.19017388904143,87.03505382279923 88.62489649461823,87.47667678719422 87.91829975158673,88.18327353022448 85.37455147667733,91.16864476952888 84.03201766491972,92.51117858128649 83.20176649185626,93.20011040574164 82.2301959701895,93.9067071487719 80.97598675131115,94.7016284846814 79.52746342809795,95.51421473916726 77.79630140767314,96.36213083080456 76.22412365443049,97.0687275738348 74.91691967982308,97.56334529395636 73.64504554236838,97.95197350262231 72.10819762627592,98.30527187413806 70.94231300027683,98.4642561413202 69.65277394424577,98.55258073419947 68.22191553960891,98.51725089704802 66.2787744962729,98.32293679271442 64.75959149875679,98.04029809550156 63.4523875241519,97.7399944797136 60.36102677339314,96.90974330665266 54.28429478332872,95.09025669334859 52.74744686723626,94.71929340325775 51.298923544023054,94.45431962462125 49.4441070935688,94.24234060171256 46.93568865580959,94.11868617168184 44.39194038090019,94.11868617168184 41.459563897321075,94.2953353574391 40.39966878277758,94.33066519459055 39.180789401049424,94.26000552028765 37.99723985647147,94.04802649737894 36.77836047474331,93.6770632072881 35.57714601159151,93.1471156500151 34.7292299199542,92.687827767045 31.867513110680495,90.97433066519528 29.942036985923345,89.94976538780074 28.935136627103887,89.54347226055843 27.804581838254986,89.24316864477048 26.903670990891133,89.13717913331614 25.84377587634513,89.11951421473978 21.957493789675613,89.52580734198209 20.45597571073586,89.57880209770988 18.954457631796107,89.49047750483064 17.558929064311958,89.24316864477048 16.658018216945596,88.97819486613398 15.686447695278844,88.64256141319458 12.312448247308486,87.21170300855773 11.146563621306878,86.75241512558763 7.790229091912875,85.72784984819307 6.6950041402141665,85.32155672095077 5.953077560032466,84.98592326801011 5.211150979850766,84.54430030361637 2.8263869721210026,82.93679271322226 1.978470880486208,82.40684515594926 0.865581010211147,81.89456251725136 0,81.5942589014634 0.9185757659402044,81.15263593706966 1.3955285674841487,80.81700248413026 1.854816450454251,80.30471984543236 2.4200938448799576,79.42147391664486 2.755727297818103,79.0151807894013 3.073695832182406,78.76787192934115 4.098261109578215,78.16726469776525 4.274910295334209,77.95528567485529 4.57521391112216,77.49599779188645 5.370135247032917,77.0013800717649 6.094396908638265,76.25945349158194 6.589014628761072,75.83549544576329 7.030637593154822,75.55285674855169 8.019873033397927,75.11123378415795 8.373171404912423,74.8815898426729 8.814794369306174,74.45763179685423 9.079768147943929,74.05133866961194 9.238752415126081,73.55672094949038 9.291747170852627,73.18575765939953 9.291747170852627,72.76179961358088 9.203422577973376,71.68423958045852 9.026773392214873,70.71266905879178 8.63814518355018,69.70576869997358 8.514490753518222,69.28181065415492 8.355506486336072,67.74496273806247 8.42616616063897,66.79105713497206 8.355506486336072,66.56141319348701 8.090532707700826,66.0491305547891 7.966878277668869,65.67816726469826 7.896218603365969,65.20121446315306 7.931548440518674,64.83025117306096 8.037537951971768,64.5652773944257 8.620480264973827,63.5230471984548 8.832459287882525,63.311068175546104 9.30941208942898,63.01076455975815 9.521391112337678,62.81645045542455 9.698040298096183,62.55147667678805 9.96301407673143,61.95086944521215 10.210322936792833,61.59757107369639 10.510626552580783,61.244272702180645 11.164228539883231,60.71432514490764 11.464532155671183,60.21970742478609 11.623516422853333,59.795749378968694 11.711841015732587,59.26580182169569 11.800165608611838,58.329561137179134 11.976814794367831,57.16367651117878 12.065139387247083,56.086116478057676 12.18879381727904,55.096881037814576 12.63041678167279,53.630692796026274 12.824730886005137,52.46480817002592 13.00138007176364,52.07617996135872 13.601987303339541,51.10460943969196 14.820866685067697,49.42644217499371 15.032845707976396,49.0378139663265 15.156500138005843,48.6491857576593 15.29781948661164,47.3243168644768 15.244824730885094,46.54706044714365 15.156500138005843,45.96411813414284 14.520563069279746,44.23295611371804 13.548992547612995,42.890422301960434 12.683411537399337,41.28291471156508 12.171128898702689,39.834391388353126 11.959149875793988,38.827491029533675 11.853160364338384,38.191553960806324 11.764835771459133,36.07176373171431 11.58818658570314,34.23461219983516 11.60585150427698,33.863648909743056 11.694176097156234,33.38669610819785 12.100469224399788,32.30913607507676 12.330113165884839,31.86751311068175 14.273254209218342,29.730057963014644 14.520563069279746,29.429754347226694 14.714877173612091,28.93513662710514 14.785536847914992,28.44051890698359 14.732542092188444,27.786916919679886 14.432238476400494,26.815346398013137 13.51366271046029,24.57190173889043 13.284018768975239,24.16560861164813 12.754071211702236,23.476676787192975 12.55975710736989,23.05271874137432 12.471432514490639,22.52277118410132 12.436102677337933,21.37455147667732 12.294783328732134,20.70328457079852 12.294783328732134,20.438310792162017 12.436102677337933,20.243996687828417 12.683411537399337,20.102677339221362 14.220259453491796,19.608059619101066 15.2801545680378,19.042782224675356 16.0220811482195,18.742478608887406 17.452939552856353,18.31852056307001 17.87689759867375,18.141871377311507 18.76014352746376,17.576593982887054 19.166436654704803,17.170300855644754 19.378415677613503,16.746342809826103 19.43141043334256,16.428374275463053 19.325420921886955,15.6864476952801 19.34308584046331,15.43913883521995 19.466740270492757,15.03284570797765 19.767043886280707,14.485233232128296 20.15567209494791,13.884626000552394 20.491305547888565,13.478332873310094 21.374551476676064,12.59508694452134 21.99282362682832,12.15346398012759 22.434446591222066,11.959149875793988 22.98205906707142,11.85316036433964 23.688655810100418,11.81783052718819 24.271598123102475,11.88849020149109 24.607231576040622,12.22412365443049 25.013524703284176,12.55975710736989 26.267733922162527,13.248688931825043 27.239304443831788,13.919955837703844 27.504278222467033,14.025945349158194 27.998895942587332,14.167264697763994 28.652497929892288,14.202594534915443 29.518078940103436,14.061275186309643 31.0195970190457,13.548992547612995 32.220811482197504,12.789401048854941 33.634004968258004,12.135799061551237 34.658570245651305,11.411537399944635 35.24151255865336,11.075903947005235 35.559481093017666,10.916919679823083 36.17775324316741,10.740270494065834 36.69003588186657,10.651945901186583 37.555616892077715,10.581286226883682 38.809826110958575,10.298647529672085 39.53408777256392,10.210322936792833 40.876621584321526,10.210322936792833 42.74910295335213,10.369307203974984 43.82666298647448,10.333977366823534 44.40960529947403,10.369307203974984 44.79823350814124,10.457631796854235 45.18686171680844,10.616616064035133 45.87579354126359,11.058239028430137 46.176097157051544,11.199558377035936 47.09467292299175,11.959149875793988 47.48330113165895,12.41843775876409 47.88959425889999,13.054374827491442 48.08390836323485,13.248688931825043 49.497101849295355,14.008280430583097 50.91029533535836,14.997515870824946 51.68755175269026,15.421473916643597 53.860336737511325,16.3577146011589 56.13911123378297,17.117306099916952 57.35799061551113,17.611923820038506 58.02925752138993,17.700248412917755 59.566105437482385,17.629588738614856 61.08528843499849,17.311620204250556 62.33949765387684,17.170300855644754 63.41705768699919,16.958321832736058 65.8194866133028,16.393044438311605 66.4200938448787,16.2163952525531 67.53298371515376,15.70411261385645 68.66353850400267,15.121170300855647 68.82252277118482,14.926856196522046 68.76952801545576,14.679547336461898 68.7871929340321,14.573557825007548 69.06983163124372,14.343913883522497 70.32404085012458,13.760971570521694 71.86088876621452,13.142699420370695 72.33784156776098,12.860060723157842 72.54982059066967,12.66574661882424 72.70880485785182,12.43610267733919 72.97377863648958,11.711841015732587 73.13276290367173,11.411537399944635 73.99834391388288,10.404637041126433 74.93458459839944,9.13276290367173 75.65884626000478,7.790229091912875 75.72950593430768,7.472260557548571 75.72950593430768,7.207286778913326 75.57052166712553,6.90698316312412 75.07590394700523,6.3417057686996685 75.05823902842889,6.1650565829424195 75.18189345846083,6.041402152911718 77.03670990891509,5.688103781397221 78.07894010488474,5.5821142699416155 78.60888766215774,5.617444107094321 79.66878277670375,5.9354126414573685 80.5696936240676,6.147391664367323 80.90532707700825,6.20038642009387 81.29395528567545,6.1650565829424195 82.74247860888866,5.864752967154469 83.99668782776702,5.917747722882272 84.12034225779647,5.864752967154469 84.12034225779647,5.776428374275217 84.72094948937236,6.076731990063168 85.32155672094827,6.483025117306723 85.81617444107107,6.90698316312412 86.16947281258557,7.295611371791323 86.31079216119137,7.578250069004176 86.43444659122332,7.896218603367224 86.54043610267642,8.97377863648958 86.68175545128221,9.503726193762581 86.92906431134362,9.910019321004881 87.40601711289007,10.351642285398631 87.93596467016307,10.669610819762935 88.71322108749749,11.022909191278687 89.04885454043563,11.217223295611033 91.41595362958904,13.319348606127944 91.80458183825624,13.601987303339541 92.79381727849935,14.149599779188895 93.57107369583125,14.926856196522046 94.48964946177145,15.562793265250653 96.0971570521668,16.2163952525531 98.21694728125881,17.258625448524008 98.85288434998742,17.399944797129805 99.57714601159276,17.417609715704902 100.19541816174501,17.258625448524008 100.61937620756241,17.064311344190404 101.07866409053251,16.675683135523204 101.48495721777607,16.1457355782502 102.86282086668386,13.10736958321799 103.03947005244237,12.577422025944989 103.49875793541247,10.810930168368733 103.78139663262407,10.104333425338483 104.09936516698838,9.592050786640579 104.54098813138212,9.13276290367173 105.74220259453392,8.231852056306625 106.50179409329198,7.436930720397122 106.97874689483844,7.030637593154822 107.52635937068779,6.6950041402154215 109.32818106541549,5.79409329285157 109.71680927408269,5.546784432790166 110.07010764559719,5.228815898427118 110.26442174993205,4.981507038365715 110.4234060171142,4.681203422577764 110.86502898150795,3.2680099365172626 111.3066519459017,2.1904499033949065 111.624620480266,1.5898426718190053 111.96025393320414,1.2365443003032524 112.2605575489921,1.0952249516974533 112.52553132762985,1.0598951145460036 114.0977090808725,1.2365443003032524 115.21059895114506,1.0245652773945537 115.66988683411516,0.989235440243104 116.14683963566162,1.0952249516974533 117.03008556444911,1.4838531603646559 117.31272426166072,1.536847916091203 117.63069279602502,1.5191829975161057 119.62682859508757,1.3248688931825043 121.46398012696798,0.989235440243104 121.94093292851193,0.8302511730609524 122.68285950869362,0.33563345293940045 122.93016836875503,0.24730886006140357 125.10295335357358,0 125.4562517250906,0.03532983715144977 126.42782224675734,0.28263869721285334 126.8694452111511,0.4592878829701022 127.2227435826656,0.6536019873037036 127.77035605851495,1.0422301959709062 129.28953905603106,2.3141043334256084 130.89704664642642,3.3210046922438097 131.23268009936456,3.6389732266081127 131.51531879657867,4.027601435275315 131.8509522495168,4.628208666851217 132.3102401324869,5.705768699972317 132.78719293403336,6.46536019873037 133.14049130554787,6.853988407397573 133.67043886282087,7.295611371791323 134.30637593154947,7.666574661882173 134.74799889594323,7.825558929064324 135.77256417333652,8.090532707700826 136.24951697488297,8.30251173061078 136.62048026497382,8.673475020701629 137.18575765939954,9.592050786640579 137.50372619376134,9.85702456527708 137.78636489097545,9.963014076732684 138.08666850676337,10.016008832459232 138.95224951697455,9.998343913884133 140.1004692243998,9.927684239581234 142.078940104886,9.627380623792028 142.3969086392503,9.609715705216932 142.7502070107648,9.68037537951983 143.19182997515856,9.874689483853432 145.5059343085854,11.128898702733037 147.14877173613095,11.764835771460389 147.78470880485705,12.082804305824691 148.63262489649438,12.648081700249142 149.55120066243458,13.495997791885193 149.95749378967813,13.760971570521694 150.36378691691917,13.902290919127493 151.63566105437638,14.167264697763994 152.73088600607258,14.573557825007548 153.96743030637708,15.138835219432 155.50427822246704,15.6864476952801 156.82914711565078,16.428374275463053 158.7369583218341,17.311620204250556 159.28457079768094,17.682583494341404 160.044162296439,18.371515318796558 160.9627380623792,19.325420921888213 161.45735578250202,19.926028153464113 162.517250897048,21.427546232403866 163.08252829147122,22.04581838255612 163.78912503450272,22.699420369859823 163.06486337289485,23.388352194314976 162.49958597847166,24.024289263042327 162.00496825834887,24.71322108749748 161.68699972398707,25.278498481921932 161.43969086392565,25.96743030637583 161.33370135247006,26.550372619376635 161.33370135247006,27.133314932377438 161.40436102677296,27.73392216395334 161.61634004968417,28.493513662711393 161.98730333977502,29.270770080044542 162.42892630416875,29.995031741651147 163.06486337289485,30.772288158984296 163.71846536019981,31.425890146288 164.24841291747282,31.8321832735303 165.1316588462603,32.37979574937965 165.87358542644202,32.73309412089415 165.18465360198687,33.08639249240991 164.37206734750225,33.77532431686506 163.55948109301767,34.35826662986461 163.223847640077,34.78222467568326 162.517250897048,36.00110405741142 162.3052718741368,36.23074799889647 162.0932928512281,36.372067347502266 159.7968534363801,37.39663262489682 158.33066519459055,37.69693624068477 156.5111785812865,38.15622412365487 155.96356610543714,38.421197902291375 155.64559757107284,38.70383659950297 155.4159536295903,39.07479988959508 155.0273254209231,40.258349434170526 155.0273254209231,40.69997239856553 155.22163952525543,41.42423406017213 155.25696936240814,41.75986751311154 155.20397460667908,42.095500966050935 154.7800165608617,43.36737510350564 154.72702180513514,43.84432790505209 154.79768147943804,44.21529119514294 154.90367099089113,44.51559481093089 155.18630968810524,44.88655810102174 156.1225503726193,45.593154844051995 156.7231576041952,45.92878829699139 158.2423406017113,46.60005520287145 159.49654982059215,47.20066243444735 159.88517802925685,47.5009660502353 160.1148219707419,47.8542644217498 160.20314656362115,48.13690311896265 160.2208114821975,48.59619100193275 159.95583770355975,50.45100745238826 159.5495445763187,52.94176097157112 159.3022357162573,54.00165608611712 159.0902566933486,54.655258073420825 159.0549268561959,54.95556168920878 159.07259177477223,55.34418989787472 159.1962462048042,55.76814794369338 159.42589014628925,56.20977090808712 159.81451835495395,56.75738338393648 160.7860888766232,58.09991719569533 161.29837151531987,58.61219983439199 161.84598399116922,59.03615788021064 162.85288434998617,59.61910019321019 164.01876897598777,60.69666022633254 165.09632900911012,61.36792713221134 165.43196246204826,61.668230747999296 166.45652773944408,62.9754347226067 167.53408777256394,64.0353298371527 167.72840187689877,64.40629312724356 167.97571073695767,65.1128898702738 168.18768975986887,65.55451283466756 168.80596191001862,66.47308860060777 169.68920783880864,67.56831355230521 170.57245376759613,68.23958045818401 171.13773116202185,68.80485785260846 171.8973226607799,69.44079492133707 172.35661054375,69.93541264145738 172.76290367099105,70.53601987303452 172.97488269389973,70.67733922164032 173.78746894838685,71.01297267457973 174.12310240132499,71.20728677891333 174.4410709356893,71.45459563897347 174.77670438862995,71.80789401048922 175.0416781672652,72.23185205630789 175.1476676787208,72.54982059067093 175.13000276014446,72.77946453215598 174.9710184929623,73.38007176373188 174.9710184929623,73.73337013524764 175.0416781672652,74.06900358818703 175.182997515871,74.36930720397498 175.3949765387797,74.66961081976294 176.08390836323485,75.30554788849028 176.33121722329625,75.67651117858239 176.3842119790228,75.95914987579398 176.26055754899335,76.55975710736989 176.22522771184066,76.93072039746075 176.33121722329625,77.23102401324995 176.54319624620496,77.548992547613 177.3381175821157,78.22025945349179 178.30968810378246,78.76787192934115 179.13993927684342,79.2801545680378 179.86420093844876,79.58045818382575 180.2704940656923,79.65111785812991 180.42947833287448,79.63345293955355Z"/>
  </g>
</svg>