<?xml version="1.0" encoding="UTF-8" standalone="no"?>
<svg viewBox="0 0 221.10903426791594 256" xmlns="http://www.w3.org/2000/svg">
  <style>
    g.zone {
      fill: lightgray;
      stroke-width: 2;
      stroke-linecap: square;
      stroke-linejoin: bevel;
      stroke-miterlimit: 3;
      stroke-opacity: 0.8;
      stroke: black;
      fill-opacity: 0.3;
    }
  </style>
  <g class="zone" id="zone">
    <path d="M181.18380062305508,119.32710280373722 184.87227414330636,120.8722741433028 186.16822429907012,121.27102803738288 189.50778816199602,121.66978193146295 190.65420560748154,122.01869158878478 193.54517133956557,123.81308411214864 196.28660436137847,125.8566978193143 200.22429906542447,128.09968847352002 203.1651090342703,130.89096573208758 204.062305295954,132.08722741433135 206.00623052959966,135.42679127725725 206.80373831775978,136.27414330217917 207.25233644860165,136.52336448598098 207.45171339564166,136.52336448598098 207.80062305296704,137.1214953271011 208.49844236760362,139.21495327102852 208.54828660436542,139.81308411214863 208.44859813084892,140.2616822429905 206.20560747663967,143.2523364485981 204.9096573208759,145.6448598130856 204.51090342679584,146.69158878504754 204.16199376947756,148.88473520249147 203.56386292835037,150.33021806853705 202.9158878504685,151.17757009345897 201.22118380062463,152.8722741433028 200.92211838006813,153.3707165109029 200.82242990654458,153.81931464174474 201.17133956386994,154.6168224299049 202.31775700934838,155.86292834891043 202.86604361371377,156.71028037383235 203.26479750779384,157.9065420560761 203.7632398753904,160.04984423676177 204.3613707165176,161.04672897196195 204.9096573208759,161.54517133956557 205.6074766355196,161.94392523364564 208.74766355140545,162.89096573208758 209.7445482866056,163.68847352024773 210.3426791277328,164.3862928348914 210.64174454828932,164.9844236760115 210.74143302181287,165.53271028037338 210.64174454828932,168.3738317757027 210.9906542056147,169.3707165109029 211.78816199377482,170.9158878504685 211.83800623053662,171.6137071651086 211.538940809973,172.3613707165105 211.23987538940943,172.71028037383235 210.39252336448752,173.1588785046742 208.5981308411272,173.7570093457943 205.40809968847955,174.55451713395797 204.062305295954,175.05295950155806 203.56386292835037,175.5015576323999 203.51401869159568,176.1495327102818 203.81308411215218,176.94704049844194 204.56074766355763,178.34267912772572 206.95327102804512,181.48286604361513 207.90031152648353,182.33021806853705 209.89408099689095,183.82554517134085 211.63862928349658,185.32087227414465 215.37694704050256,189.0093457943924 218.16822429907012,191.4018691588799 218.66666666667376,191.90031152647998 218.86604361371377,192.44859813084184 218.76635514019023,192.8971962616837 218.31775700934838,193.79439252336385 217.47040498442647,194.7414330218058 216.3738317757027,195.7383177570095 213.88161993769873,197.3831775700951 210.29283489097102,199.02803738317718 208.1993769470471,200.2741433021827 205.20872274143952,202.66666666666666 203.21495327103207,204.61059190031233 201.57009345795,206.5046728971962 200.62305295950455,208.2492211838018 200.0747663551462,210.04361370716566 199.8255451713444,211.68847352025128 199.77570093458263,212.68535825545146 200.02492211838444,214.031152647977 200.57320872274275,215.77570093457908 201.27102803738643,216.92211838006105 202.16822429907012,217.81931464174474 202.816199376952,218.26791277258658 204.062305295954,218.9158878504685 208.9470404984455,220.76012461059057 211.98753894081486,222.5046728971962 216.4236760124645,225.6448598130856 218.2679127725937,227.28971962616765 219.61370716511215,228.58566978193144 220.4112149532723,229.68224299065517 220.76012461059767,230.42990654205707 221.10903426791594,231.92523364486087 221.10903426791594,232.8722741433028 220.9595015576377,234.31775700934483 220.6105919003194,235.96261682243045 220.21183800623226,237.20872274143244 219.4143302180721,238.654205607478 218.51713395638842,239.4018691588799 216.7227414330281,239.90031152647998 214.42990654205707,240.04984423676177 201.27102803738643,239.45171339563814 196.93457943925327,239.35202492211812 195.38940809969478,239.05295950155806 191.7009345794435,237.60747663551604 191.30218068536342,237.50778816199602 191.00311526479982,237.60747663551604 190.85358255452158,237.9065420560761 190.80373831775978,238.654205607478 191.25233644860165,242.14330218068568 191.15264797508516,244.73520249221323 190.85358255452158,245.8816199376952 189.40809968847955,249.71962616822472 189.2585669781942,250.46728971962662 189.20872274143952,251.41433021806856 189.5576323987578,252.56074766355053 190.35514018691794,253.85669781931432 191.6510903426817,255.15264797507808 192.847352024929,256 188.9595015576377,255.80062305295996 183.77570093458263,255.90031152647998 178.09345794393099,255.55140186915816 175.30218068536342,255.20249221183985 170.9158878504685,254.30529595015616 164.1869158878549,252.3613707165105 159.90031152648353,250.76635514018668 156.76012461059767,249.1214953271046 155.81308411215218,249.07165109034284 153.86915887850654,249.4704049844229 153.12149532710816,249.4704049844229 152.47352024922628,249.32087227414465 151.4766355140261,248.67289719626277 150.13084112150057,247.07788161993895 148.2367601246167,245.6323987538934 143.55140186916523,240.69781931464365 140.6604361370741,238.0062305295961 139.96261682243045,236.80996884735237 139.86292834891395,235.7133956386286 140.3613707165176,229.7819314641752 140.9595015576377,226.09345794392746 141.35825545171775,224.7476635514019 141.75700934579783,224.09968847352002 142.4049844236797,223.5015576323999 145.59501557632737,221.2585669781942 146.89096573209113,220.61059190031233 149.13395638630038,219.91277258566865 150.13084112150057,219.36448598131034 150.5794392523424,218.9657320872267 150.97819314642248,218.3676012461066 151.07788161993895,217.71962616822472 150.97819314642248,216.97196261682282 150.62928348910418,215.72585669782083 148.98442367601504,212.58566978193144 145.99376947040744,206.20560747663615 145.34579439252556,205.35825545171423 143.15264797508516,203.16510903426675 142.00623052959966,201.91900311526476 141.30841121495598,200.82242990654103 140.46105919003406,198.92834890965716 137.37071651090997,195.09034267912762 135.77570093458263,192.4984423676001 134.6292834890971,190.90342679127627 133.48286604361869,189.70716510903605 131.23987538940943,187.7632398753904 130.54205607477283,186.8660436137067 129.99376947040744,185.4704049844229 129.64485981308914,183.17757009345897 129.34579439252556,182.33021806853705 128.69781931464365,181.53271028037338 127.0529595015616,179.93769470404953 126.70404984424331,179.33956386292945 126.35514018691794,178.44236760124573 125.95638629283788,175.30218068535987 126.05607476636143,172.76012461059057 125.75700934579784,171.96261682243045 124.90965732087591,171.31464174454854 121.22118380062464,169.57009345794293 118.18068535826234,168.52336448598098 116.5358255451732,168.17445482865915 115.09034267913117,168.1246105919009 111.40186915887989,168.82242990654103 109.90654205607609,168.97196261682282 107.56386292835036,169.02180685358107 105.07165109034639,168.8722741433028 105.07165109034639,167.72585669782083 104.82242990654457,166.18068535825526 104.37383177570273,164.53582554516964 103.97507788162265,163.6386292834895 103.22741433022429,162.44236760124573 102.28037383177882,161.19626168224374 100.03738317757664,159.1028037383163 98.19314641744747,157.70716510903605 95.40186915887989,156.06230529595047 85.23364485981686,151.32710280373723 80.44859813084184,148.73520249221323 78.50467289720328,147.4890965732077 76.16199376947756,145.7445482866056 74.56697819315019,144.29906542056005 72.87227414330636,142.55451713395797 70.9283489096607,139.96261682243045 69.13395638629329,136.77258566978279 67.78816199377484,133.18380062305152 66.84112149532935,129.59501557632382 66.34267912773281,126.70404984423622 65.69470404985093,122.21806853582481 64.74766355140544,112.04984423675823 64.64797507788188,107.7632398753904 64.99688473520726,101.23364485981331 64.8971962616837,98.79127725856758 64.44859813084184,96.79750778816015 63.30218068536342,94.5046728971962 62.25545171340146,93.00934579439239 61.30841121495599,92.06230529595045 58.91588785046848,90.36760124610662 56.67289719626632,89.12149532710109 52.68535825545853,87.52647975077726 43.01557632399204,84.38629283489139 38.28037383177881,82.39252336448396 33.69470404985092,80.04984423675823 29.757009345797837,77.65732087227427 24.274143302186246,74.16822429906658 22.230529595017032,72.97196261682282 20.137071651093123,71.97507788161911 18.392523364487502,71.376947040499 16.598130841127187,70.97819314641539 14.35514018691794,70.67912772585534 12.809968847352357,70.6292834890971 10.317757009348377,66.74143302180579 9.76947040499005,65.39563862928378 9.470404984426457,64 9.619937694704712,59.763239875390404 9.221183800624642,56.124610591900904 9.919003115268307,52.834890965729706 9.968847352030085,50.44236760124574 9.669781931466492,48.79750778816014 9.27102803738642,48 8.772585669782792,47.45171339563813 6.529595015580627,45.707165109032516 5.084112149538602,44.36137071651051 3.239875389409424,42.2679127725866 2.292834890971028,40.82242990654103 1.8442367601291783,39.72585669781729 1.7445482866056192,37.48286604361159 1.046728971969038,34.242990654205705 0,31.252336448598097 7.227414330224291,27.314641744548553 8.573208722742757,26.417445482864853 9.570093457950016,25.420560747661135 11.214953271032076,23.227414330217208 12.461059190034065,20.984423676011502 13.15887850467773,18.84112149532581 13.5576323987578,16.498442367600088 16.84735202492192,16.249221183798273 18.19314641744747,16.34890965731829 21.682242990658708,17.345794392522006 24.82242990654457,18.09345794392391 25.769470404990052,18.49221183800398 26.816199376952007,19.23987538940588 28.411214953272285,20.984423676011502 29.15887850467773,21.582554517131605 30.30529595015616,21.981308411215217 31.65109034268171,22.130841121493475 33.04672897196904,22.130841121493475 36.28660436137138,21.383177570091572 39.775700934582616,21.183800623051535 46.4548286604415,20.18691588785136 48.29906542056359,19.688473520247733 51.788161993774835,18.292834890963945 53.53271028038045,17.99376947040389 61.30841121495599,18.741433021805793 65.59501557632737,19.83800623052953 67.2897196261712,20.087227414327803 68.98442367601504,20.087227414327803 70.13084112150055,19.83800623052953 71.52647975078081,19.090342679127627 72.72274143302809,18.043613707165672 73.61993769470472,16.84735202492192 76.31152647975581,12.560747663550542 76.61059190031231,11.613707165108604 76.85981308411414,10.06853582554302 76.76012461059766,6.878504672895375 76.85981308411414,3.887850467287767 77.20872274143952,2.9408099688458296 77.80685358255961,2.1433021806856893 78.45482866044149,1.5451713395620426 79.30218068536342,0.9968847352001753 80.39875389408715,0.5981308411201052 81.99376947040743,0.19937694704003506 84.43613707165672,0 88.02492211838444,0.09968847352001753 90.36760124611015,4.037383177569564 92.61059190031231,6.878504672895375 95.3520249221252,9.619937694704712 102.52959501558063,15.750778816198185 105.91900311526831,18.99065420560761 108.6604361370741,22.130841121493475 113.54517133956558,28.66043613707056 114.49221183801106,29.707165109032513 115.78816199377484,30.753894080994467 117.28348909657863,31.70093457943995 119.07788161993895,32.498442367600084 121.42056074766468,32.84735202492192 123.1651090342703,32.64797507788189 124.71028037383589,32.14953271027826 126.1557632398779,31.15264797507808 127.0529595015616,30.056074766354346 127.70093457944348,28.56074766355054 132.83489096573678,32.79750778816014 136.1246105919009,35.93769470404955 141.15887850467772,41.07165109034285 144.00000000000708,45.158878504670646 145.99376947040744,48.7476635514019 148.73520249221323,51.78816199376775 150.8785046728989,55.07788161993541 151.8255451713444,56.02492211838089 154.61682242991196,58.467289719626635 155.91277258567575,59.36448598130679 156.76012461059767,60.06230529595045 157.50778816199602,61.109034267912406 158.90342679128335,64 159.75077881620527,65.29595015576378 160.5981308411272,66.24299065420571 163.19003115265474,68.58566978193143 166.52959501558064,72.02492211838089 167.42679127726433,72.67289719626278 168.3738317757027,73.12149532710109 170.01869158879185,73.66978193146295 171.86292834891395,74.01869158878478 173.10903426791594,74.1183800623048 177.04672897196903,73.57009345794293 178.64174454828932,73.76947040498297 179.68847352025128,74.1183800623048 180.5358255451732,74.61682242990489 181.48286604361869,75.31464174454855 184.67289719626632,78.80373831775624 188.6105919003194,81.64485981308206 190.95327102804512,83.14018691588586 191.90031152648353,83.93769470404955 190.90342679128335,84.38629283489139 190.05607476636143,85.08411214953152 189.45794392524132,86.03115264797346 187.81308411215218,89.07165109034284 187.4143302180721,90.06853582554302 187.31464174455564,91.7632398753904 187.1152647975156,92.56074766355054 185.27102803738643,95.35202492211812 184.32398753894802,96.99688473520372 183.42679127726433,99.23987538940942 183.12772585670072,100.58566978193143 183.02803738318426,101.93146417445344 183.07788161993895,104.22429906542092 183.2274143302243,105.66978193146295 183.5264797507808,106.86604361370671 184.22429906542447,108.2118380062287 186.61682242991196,110.70404984423622 187.26479750779384,111.60124610591993 187.51401869159568,112.59813084112011 187.4143302180721,113.29595015576378 186.86604361371377,114.39252336448396 186.11838006230835,115.33956386292944 182.3302180685406,118.28037383177526 180.785046728975,119.17757009345897 181.18380062305508,119.32710280373722Z"/>
  </g>
</svg>