<?xml version="1.0" encoding="UTF-8" standalone="no"?>
<svg viewBox="0 0 256 95.54678296839138" xmlns="http://www.w3.org/2000/svg">
  <style>
    g.zone {
      fill: lightgray;
      stroke-width: 2;
      stroke-linecap: square;
      stroke-linejoin: bevel;
      stroke-miterlimit: 3;
      stroke-opacity: 0.8;
      stroke: black;
      fill-opacity: 0.3;
    }
  </style>
  <g class="zone" id="zone">
    <path d="M206.7590486039306,51.87680410053495 206.90868216357276,51.796232183804364 207.69138078323897,51.531495885976234 207.91007598579188,51.40488287397126 208.48558967672415,50.863900004496 209.30281911784573,49.96609864664384 209.4984937727623,49.816465087001674 209.79776089204663,49.63230070590332 210.1891102018797,49.47115687244297 210.68405197608058,49.344543860437994 211.07540128591367,49.27548221752642 212.15736702486421,49.14886920552144 212.64079852524608,49.022256193516476 213.30839440672713,48.67694797895776 214.26374713367187,48.1244548356635 216.26653477811337,47.24967402544853 217.16433613596635,46.950406906164204 217.34850051706388,46.81228362034105 217.50964435052506,46.5475473225121 217.6132368148912,46.432444584326134 218.0276066723623,46.271300750865784 218.23479160109787,46.23676992940959 218.52254844656318,46.25979047704678 218.94842857785167,46.36338294141456 219.68508610224347,46.65113978687988 220.07643541207656,46.77775279888485 220.55986691246008,46.85832471561543 220.88215457938077,46.984937727620405 221.1929319724841,47.24967402544853 222.11375387797347,48.28559866912467 222.55114428308096,48.71147880041315 222.75832921181652,48.838091812418114 223.03457578346283,48.94168427678589 223.67915111730585,49.06829728879086 224.2776853558745,49.11433838406525 225.0718942493597,49.22944112225121 225.7970414999325,49.48266714626115 226.49916820286896,49.804954813182675 226.79843532215327,49.90854727755045 227.8343599658294,49.758913717908285 228.5595072164022,49.73589317027109 229.28465446697666,49.643810979722325 229.62996268153537,49.643810979722325 229.9062092531817,49.6783418011777 230.30906883683377,49.82797536081986 230.88458252776442,50.15026302774138 232.4960208623712,50.73728699249103 233.95782563733746,51.03655411177536 234.52182905444909,51.174677397598515 234.8786475428268,51.278269861966294 235.54624342430785,51.55451643361343 236.28290094869968,51.738680814711785 236.61669888943936,51.796232183804364 237.37637696146757,51.83076300526056 238.48136324805608,52.13003012454489 238.58495571242386,52.682523267838334 238.8151611887958,53.36162942313757 239.09140776044376,53.93714311406821 239.88561665392731,55.433478710489844 240.08129130884387,55.88237938941551 240.21941459466865,56.30825952070481 240.3460276066728,56.86075266399908 240.4035789757662,57.413245807292526 240.49566116631496,59.31244098736544 240.57623308304474,60.267793714311 240.8064385594183,61.683557394002044 241.03664403579023,62.67344094240379 241.33591115507457,63.64030394316835 241.65819882199526,64.5035744795643 242.038037858011,65.27476282541232 242.57902072748624,66.1610539094463 243.98327413335747,68.0602490895192 244.60482891956414,69.05013263792095 245.15732206285676,70.16662919832768 246.04361314689075,72.3996223191403 246.45798300436184,73.30893395081146 247.0104761476561,74.3333483206686 247.64354120768016,75.27719077379597 248.55285283935214,76.45123870329607 249.64632885212004,77.67132772806976 250.6131918528854,78.63819072883432 253.3065959264427,81.17045096893126 254.20439728429568,82.07976260060244 254.8144417966817,82.74735848208266 255.25183220179082,83.28834135155792 255.58563014253053,83.7832831257588 255.82734589272147,84.25520435232248 255.95395890472562,84.64655366215558 256,84.9228002338027 256,85.24508790072423 255.93093835708925,85.53284474618955 255.7928150712661,85.7630502225623 255.58563014253053,85.98174542511605 255.35542466615695,86.1198687109392 255.07917809451064,86.21195090148797 254.80293152286433,86.25799199676236 254.36554111775683,86.26950227058136 253.95117126028575,86.22346117530698 253.4332089384485,86.1198687109392 252.8692055213352,85.92419405602264 252.05197608021365,85.54435502000774 250.6247021267044,84.69259475742996 250.19882199541428,84.46238928105721 249.63481857830266,84.24369407850348 249.0708151611894,84.12859134031751 248.6449350299009,84.12859134031751 248.1615035295174,84.19765298322909 247.8046850411413,84.30124544759687 247.36729463603385,84.48540982869442 247.04500696911148,84.66957420979277 246.63063711164202,84.9573310552581 246.2853288970833,85.2796187221796 245.96304123016097,85.64794748437552 245.68679465851466,86.10835843712101 245.5256508250535,86.5227282945913 245.4680994559601,86.99464952115498 245.5256508250535,87.42052965244346 245.69830493233204,87.84640978373275 245.986061777799,88.28380018884025 247.3903151836702,89.90674879726602 247.96582887460085,90.65491659547683 248.29962681534218,91.18438919113309 248.65644530371827,91.89802616788853 248.82909941099845,92.3699473944514 248.94420214918523,92.83035834719689 249.00175351827698,93.1986871093928 249.00175351827698,93.5094645024953 248.9672226968216,93.80873162177964 248.87514050627283,94.13101928870115 248.73701722044967,94.3842453127111 248.5413425655331,94.61445078908302 248.31113708915956,94.79861517018139 248.06942133896862,94.92522818218636 247.67807202913554,95.07486174182851 247.25219189784704,95.18996448001448 246.23928780180893,95.32808776583764 245.00768850321623,95.37412886111203 234.17652083989037,95.36261858729384 206.85113079447936,95.500741873117 195.45595971404188,95.4892315992988 191.4964255204365,95.54678296839138 191.0820556629654,95.5237624207542 190.54107279349014,95.46621105166162 190.04613101928925,95.35110831347484 189.65478170945616,95.21298502765168 189.24041185198504,94.97126927746075 189.0447371970685,94.78710489636238 188.91812418506436,94.61445078908302 188.81453172069658,94.41877613416648 188.6994289825098,94.11950901488215 188.38865158940808,92.7843172519225 188.11240501776015,92.05917000134889 187.89370981520722,91.65631041769677 187.62897351737828,91.27647138168268 187.31819612427495,90.90814261948678 186.96137763589886,90.56283440492807 186.3973742187856,90.11393372600158 185.84488107549132,89.74560496380568 185.08520300346314,89.31972483251639 183.00184344229186,88.21473854592867 182.31122701317443,87.80036868845838 181.48248729823385,87.21334472370873 178.25961062901865,84.79618722179774 177.25821680679792,84.00197832831255 176.53306955622512,83.29985162537693 176.22229216312178,82.9430331369992 175.95755586529447,82.55168382716612 175.66979901982913,82.05674205296523 175.38204217436382,81.43518726675939 175.16334697180926,80.82514275437255 174.9676723168927,80.05395440852455 174.91012094779933,79.53599208668648 174.89861067398033,78.92594757429964 174.9676723168927,78.2583516928194 175.19787779326464,76.78503664403578 175.22089834090266,76.30160514365392 175.19787779326464,75.63400926217368 175.0137134121671,74.51751270176696 174.70293601906377,73.06721820062053 174.40366889977943,71.95072164021381 174.12742232813312,71.13349219909142 173.7936243873934,70.36230385324423 173.27566206555454,69.39544085247967 172.74618946989827,68.5321703160829 172.06708331459987,67.50775594622576 170.52470662290384,65.27476282541232 169.38518951485992,63.68634503844274 168.32624432354743,62.27058135875169 167.65864844206638,61.44184164381111 166.65725461984724,60.33685535722339 165.9436176430918,59.63472865428696 165.43716559507192,59.19733824917948 164.90769299941567,58.771458117890184 164.26311766557265,58.2995368913265 163.29625466480888,57.735533474214044 162.5135560451427,57.355694438199954 161.56971359201535,56.964345128366034 159.57843622139282,56.27372869924943 158.41589856571255,55.93993075850891 157.3684636482174,55.66368418686177 156.49368283800243,55.46800953194522 155.74551503979163,55.341396519940254 154.81318286048327,55.226293781754286 153.99595341936168,55.1687424126609 153.05211096623432,55.1457218650237 151.99316577492016,55.1802526864799 151.19895688143498,55.26082460321049 150.34719661885802,55.42196843667084 149.6450699159216,55.594622543950194 148.83935074861736,55.87086911559733 148.33289870059912,56.08956431815107 147.86097747403463,56.34279034216101 147.41207679510813,56.61903691380733 147.04374803291304,56.90679375927346 146.38766242525102,57.53985881929749 144.8222651859186,59.393012904096025 143.94748437570365,60.267793714311 143.40650150622676,60.71669439323748 142.9921316487573,61.02747178634082 142.31302549345887,61.476372465266486 141.48428577851828,61.97131423946736 140.5289330515719,62.466256013668236 139.36639539588998,63.01874915696251 138.38802212130724,63.42160874061379 137.45568994199888,63.74389640753531 136.75356323906408,63.92806078863367 135.79821051211772,64.10071489591303 134.84285778517136,64.1927970864618 133.95656670113738,64.20430736028081 132.63288521199593,64.08920462209402 131.73508385414294,63.939571062451854 130.81426194865358,63.74389640753531 128.5237174587484,63.13385189514847 124.56418326514138,61.948293691830166 123.56278944292063,61.70657794163923 122.61894698979327,61.533923834359875 121.41036823883859,61.39580054853672 119.7759093565938,61.315228631806136 118.11842992671264,61.315228631806136 116.2077244728199,61.4303313699921 115.51710804370411,61.45335191762929 114.72289915021891,61.40731082235491 113.95171080437008,61.26918753653175 113.15750191088489,61.02747178634082 112.37480329121868,60.682163571782105 111.82231014792443,60.382896452497775 109.9576457893077,59.26639989209106 108.70302594307864,58.59880401061083 108.0469403354166,58.3340677127827 107.31028281102479,58.138393057866146 106.72325884627514,58.06933141495457 106.03264241715772,58.05782114113556 103.50038217705995,58.32255743896369 102.52200890247721,58.35708826041989 101.54363562789446,58.2995368913265 100.63432399622411,58.138393057866146 100.04730003147283,57.96573895058679 99.41423497144879,57.74704374803305 97.21577267209237,56.81471156872469 96.45609460006256,56.515444449440366 94.26914257452513,55.847848567960135 93.5555055977697,55.583112270132006 93.07207409738783,55.36441706757745 92.58864259700596,55.076660222112125 91.03475563149094,54.0292253046178 90.4822624881983,53.68391709005909 89.75711523762386,53.350119149318566 89.10102962996345,53.142934220583825 88.4909851175758,53.10840339912763 87.76583786700299,53.10840339912763 85.03790297198867,53.37313969695576 81.32008452857424,53.453711613686345 80.50285508745104,53.51126298277973 79.83525920597162,53.5918348995095 78.79933456229548,53.78750955442605 77.62528663279619,54.06375612607318 76.05988939346216,54.501146531180666 72.33056067622873,55.61764309158739 71.35218740164598,55.88237938941551 70.23569084123844,56.13560541342545 68.81992716154821,56.365810889798205 67.58832786295552,56.49242390180317 66.65599568364716,56.515444449440366 66.12652308799092,56.480913627984165 65.74668405197681,56.43487253270978 65.21721145631894,56.28523897306762 64.77982105121144,56.05503349669487 64.42300256283373,55.76727665122955 64.05467380063864,55.31837597230306 63.83597859808408,54.89249584101458 63.67483476462455,54.45510543590628 63.36405737152121,52.98179038712266 63.22593408569806,52.475338339103594 63.04176970459888,52.049458207814304 62.77703340677157,51.63508835034401 62.43172519221286,51.30129040960349 62.05188615619876,51.07108493323155 61.476372465266486,50.863900004496 61.038982060159,50.794838361584425 60.624612202689526,50.852389730677814 60.164201249944036,50.97900274268196 59.86493413065971,51.09410548086875 59.531136189920005,51.266759588148105 58.921091677532345,51.72717054089278 57.90818758149422,52.717054089294535 57.43626635492972,53.11991367294664 56.78018074726931,53.53428353041693 56.30825952070481,53.74146845915166 55.92842048469072,53.87959174497564 55.19176296029891,54.075266399892186 54.4551054359071,54.20187941189716 53.64938626860289,54.29396160244593 51.39337260015307,54.47812598354347 49.735893170271915,54.74286228137242 47.61800278764525,55.1802526864799 46.6166089654245,55.42196843667084 45.960523357762455,55.64066363922458 45.33896857155742,55.92842048469072 45.051211726092106,56.12409513960727 44.76345488062515,56.38883143743539 44.52173913043421,56.71111910435691 44.39512611843006,56.987365676004046 44.28002338024328,57.505327997842116 44.2570028326069,58.78296839170919 44.187941189694506,59.404523177914214 44.09585899914573,59.76134166629193 43.95773571332258,60.164201249944036 43.77357133222503,60.55555055977713 43.57789667730849,60.88934850051684 43.27862955802416,61.315228631806136 43.02540353401422,61.61449575109046 42.71462614091089,61.936783418011984 42.34629737871416,62.2590710849335 41.97796861651908,62.52380738276163 41.60963985432235,62.75401285913356 41.17224944921487,62.97270806168812 40.700328222652004,63.16838271660467 39.91762960298581,63.4100984667956 39.12342070950061,63.559732026437764 38.24863989928564,63.64030394316835 37.35083854143266,63.65181421698654 36.10772896902097,63.57124230025595 33.886246122026535,63.28348545479063 33.01146531181157,63.202913538060045 29.984263297512925,63.09932107369227 29.19005440402936,63.01874915696251 28.68360235600948,62.91515669259473 28.00449620071106,62.68495121622198 27.47502360505317,62.37417382311946 27.24481812868124,62.1900094420211 27.037633199945684,61.97131423946736 26.864979092667145,61.74110876309543 26.669304437750597,61.39580054853672 26.47362978283405,60.866327952879644 26.335506497009256,60.23326289285561 26.266444854098495,59.56566701137538 26.197383211186096,58.288026617508315 26.128321568275336,57.79308484330743 25.967177734814168,57.28663279528755 25.713951710804228,56.87226293781726 25.357133222426512,56.50393417562136 24.896722269682652,56.15862596106265 24.286677757294992,55.813317746503934 22.456544220133654,54.88098556719557 21.90405107683939,54.52416707881868 21.432129850276525,54.121307495166576 21.006249718988048,53.672406816240084 20.61490040915495,53.16595476822102 19.279708646194486,51.10561575468694 18.78476687199361,50.41499932556951 18.209253181061335,49.72438289645209 17.5761881210373,49.091317836428054 17.092756620655432,48.67694797895776 16.60932512027356,48.320129490580044 15.52735938132304,47.629513061462625 14.606537475832049,47.13457128726175 12.465626545569016,46.110156917404616 11.222516973157326,45.477091857380586 9.657119733824933,44.59080077334661 7.792455375208215,43.4512836653027 6.526325255158514,42.622543950362115 5.582482802032785,41.94343779506288 4.845825277640975,41.321883008857036 4.0976574794301595,40.596735758284225 3.5912054314102786,39.99820151971558 3.130794478664784,39.388157007328736 2.7509554426506915,38.778112494941894 2.44017804954736,38.21410907782944 2.1639314779010443,37.54651319634921 1.9682568229844954,36.93646868396155 1.8186232633423323,36.280383076300325 1.5538869655133867,34.714985836967934 1.4618047749646148,34.32363652713402 1.300660941505082,33.886246122026535 1.1164965604059027,33.48338653837525 0.8517602625785927,33.05750640708595 0.5064520480198806,32.65464682343385 0,32.159705049232976 0.1266130120041523,31.515129715389936 0.2992671192843262,30.99716739355187 0.4949417742008752,30.640348905174967 0.9553527269463699,29.915201654601347 1.2431095724116907,29.270626320759124 1.668989703700169,28.46490715345492 2.129400656445664,27.49804415269118 2.256013668449816,27.27934895013662 2.4171575019109848,27.11820511667627 2.589811609189523,27.003102378490304 2.8430376331994633,26.89950991412253 3.3494896812193438,26.79591744975475 3.867452003056594,26.77289690211756 4.178229396159925,26.81893799739194 5.029989658738518,27.014612652308493 5.501910885301383,27.06065374758288 7.493188255923889,26.81893799739194 7.953599208667748,26.807427723573756 8.310417697045466,26.876489366485334 8.713277280697568,27.026122926127496 9.093116316711662,27.302369497773814 10.2096128771192,28.52245852254831 10.474349174946509,28.77568454655825 10.739085472775455,28.982869475292986 10.957780675330016,29.109482487297957 11.17647587788294,29.19005440402854 11.625376556809428,29.305157142214508 11.959174497549135,29.35119823748889 12.68432174812194,29.31666741603351 13.582123105974919,29.144013308754158 14.525965559102284,29.017400296749187 15.11298952385193,28.84474618946983 16.367609370082626,28.36131468908714 16.74744840609672,28.280742772357375 17.28843127557198,28.223191403263986 18.577581943258057,28.119598938896207 19.26819837237548,28.096578391259015 19.65954768220858,28.131109212715213 20.64943123061033,28.315273593812755 22.168787374668334,28.384335236725153 22.50258531540804,28.36131468908714 22.870914077604766,28.234701677082988 23.4349174947164,27.92392428397966 23.78022570927511,27.774290724337494 24.52839350748593,27.555595521783754 25.564318151162066,27.152735938132466 26.54269142574481,26.92253046175972 27.394451688323404,26.588732521019196 28.188660581808605,26.450609235196037 29.09797221347895,26.473629782833232 29.45479070185667,26.41607841373984 29.684996178228598,26.289465401735686 30.099366035699706,25.92113663953978 30.364102333528653,25.725461984622417 31.43455779866017,25.16145856750996 31.97554066813543,24.919742817319026 33.26469133582151,24.49386268602973 33.72510228856537,24.24063666202061 34.23155433658525,23.837777078368504 34.46175981295881,23.699653792545348 35.54372555190933,23.285283935075057 35.79695157591764,23.08960928015769 35.98111595701682,22.801852434692368 36.10772896902097,22.387482577222077 36.23434198102676,21.696866148104654 36.32642417157553,21.4896812193691 36.52209882649208,21.32853738590875 37.33932826761366,20.94869834989384 37.834270041814534,20.649431230609512 38.110516613460845,20.338653837506996 38.409783732745176,19.80918124185074 38.51337619711295,19.705588777482966 38.63998920911874,19.636527134571384 38.87019468549067,19.601996313115187 39.180972078594,19.648037408389573 40.23991726990651,19.97032507531109 41.56359875904797,20.258081920776412 42.61103367654311,20.55734904006074 43.16352681983738,20.591879861516937 43.92320489186556,20.54583876624255 44.68288296389538,20.350164111326002 45.31594802391942,20.07391753967887 45.67276651229713,19.958814801492906 46.07562609594924,19.889753158580508 46.88134526325181,19.82069151566893 47.04248909671298,19.763140146575537 47.203632930174145,19.601996313115187 47.30722539454192,19.1530956341887 47.38779731127169,18.934400431634955 47.75612607346841,18.30133537161092 47.836697990198175,18.220763454880338 48.04388291893373,18.41643810979689 48.14747538330151,18.56607166943905 48.22804730003128,19.026482622183728 48.63090688368338,19.901263432399514 48.63090688368338,20.07391753967887 48.37768085967344,20.68396205206571 48.65392743131975,20.83359561170787 48.86111236005531,20.902657254619452 49.04527674115449,20.93718807607565 49.402095229530566,20.902657254619452 49.609280158266124,20.82208533788887 50.184793849196765,20.48828739714916 50.46104042084472,20.36167438514419 51.46243424306384,19.981835349130098 51.62357807652501,19.9473045276739 51.75019108853079,19.9473045276739 51.85378355289857,20.016366170585478 51.96888629108372,20.20053055168384 52.30268423182342,21.270986016815357 52.4062766961912,21.47817094555091 52.61346162492676,21.70837642192366 52.93574929184909,21.858009981565004 53.16595476822102,21.904051076840208 53.453711613686345,21.904051076840208 55.1802526864799,21.76592779101623 56.112584865788264,21.73139696956085 57.056427318915624,21.86952025538401 58.241985522233925,21.93858189829559 59.22035879681667,21.950092172114594 59.531136189920005,22.007643541207166 59.77285194011094,22.134256553212136 60.48648891686474,22.62919832741301 60.91236904815485,22.836383256148565 61.510903286723504,23.032057911065117 63.12234162133028,23.446427768535408 63.46764983588899,23.584551054358563 63.78993750280969,23.74569488781973 64.1927970864618,24.067982554741253 64.83737242030483,24.781619531495867 65.55100939706027,25.380153770063703 65.7927251472512,25.67942088934803 66.05746144507852,26.139831842093525 66.25313609999506,26.370037318465453 66.47183130254963,26.496650330470423 67.24301964839681,26.784407175935744 68.04873881570103,27.221797581044047 68.83143743536722,27.544085247965565 69.38393057866149,27.935434557798665 69.56809495975902,28.004496200710243 69.77527988849458,28.027516748347434 70.465896317612,27.958455105435856 71.08745110381703,27.854862641068078 71.35218740164598,27.76278045051931 72.48019423587088,27.27934895013662 73.02117710534615,27.141225664313463 73.44705723663463,27.08367429522007 73.83840654646772,27.106694842857262 74.93188255923725,27.348410593049017 75.62249898835468,27.440492783597787 76.47425925093327,27.428982509778784 76.86560856076636,27.452003057415975 77.45263252551601,27.613146890877143 77.76340991861935,27.647677712332523 78.2928825142756,27.60163661705814 79.65109482487244,27.325390045411822 80.14603659907331,27.290859223955625 80.52587563508904,27.37143114068621 80.82514275437337,27.521064700328374 80.96326604019653,27.636167438514338 81.33159480239162,28.108088665078018 81.66539274313295,28.349804415268956 81.89559821950489,28.441886605817725 82.1603345173322,28.510948248729306 82.60923519625868,28.533968796366498 82.9775639584554,28.476417427273926 83.18474888719096,28.384335236725153 83.3574029944695,28.257722224720183 83.7372420304836,27.88939346252428 84.26671462614148,27.521064700328374 84.6695742097936,27.33690031923001 85.22206735308622,27.141225664313463 85.91268378220364,27.026122926127496 87.12126253315995,26.89950991412253 88.15718717683609,26.703835259205977 89.56144058270732,26.577222247201007 89.95278989254041,26.623263342475394 90.66642686929585,26.89950991412253 91.3225124769579,27.106694842857262 92.48505013263818,27.76278045051931 93.29076929994238,28.119598938896207 93.61305696686308,28.20017085562679 93.90081381232841,28.1771503079896 94.43028640798467,27.981475653073048 95.77698844476413,27.33690031923001 96.75536171934688,27.04914347376469 97.4574884222833,26.887999640303523 97.1236904815436,25.944157187176977 96.96254664808244,25.16145856750996 96.90499527898903,24.724068162402478 96.85895418371466,23.49246886380979 96.7438514455295,22.37597230340307 96.76687199316588,21.9270716244774 96.81291308844027,21.74290724337904 97.0431185648122,21.12135245717319 97.22728294591137,20.753023694977287 98.49341306595944,19.360280562924252 98.65455689942061,19.164605908007704 98.78116991142477,18.842318241086183 98.82721100669914,18.42794838361589 98.79268018524377,18.094150442875367 98.59700553032722,17.461085382851337 97.99847129175856,15.999280607885904 97.84883773211641,15.734544310057775 97.5035295175577,15.285643631131286 97.37691650555354,15.009397059484153 97.31936513646015,14.664088844925441 97.29634458882214,13.915921046715443 97.20426239827337,13.478530641607959 97.20426239827337,13.305876534328604 97.29634458882214,13.179263522323634 97.4574884222833,13.087181331774044 98.45888224450407,12.764893664853343 99.14949867362148,12.39656490265662 99.63293017400335,12.20089024774007 100.56526235331171,11.924643676093755 100.84150892495803,11.809540937906972 101.4170226158903,11.441212175711067 101.68175891371762,11.17647587788294 101.7968616519044,10.98080122296639 101.8544130209978,10.693044377501069 101.7853513780854,10.209612877118381 101.7968616519044,10.04846904365803 101.87743356863416,9.783732745829903 102.15368014028212,9.288790971629028 102.46445753338381,8.851400566520727 103.06299177195247,8.252866327952892 103.41981026033018,7.976619756305759 103.7190773796145,7.803965649026402 103.97230340362445,7.7349040061148235 104.35214243963854,7.700373184658625 104.62838901128485,7.688862910840438 105.00822804730059,7.7349040061148235 105.22692324985351,7.953599208668566 105.49165954768246,8.172294411222307 106.30888898880403,8.621195090148797 106.9419540488297,9.058585495256281 107.11460815610823,9.127647138167859 107.43689582302893,9.219729328716632 107.86277595431905,9.242749876353825 108.4267793714307,9.150667685805052 109.40515264601507,8.816869745065347 110.18785126568126,8.32192797086447 111.10867317117062,7.896047839575174 111.77626905265004,7.4241266130114925 112.15610808866576,7.20543141045775 112.36329301740132,7.101838946089973 112.76615260105179,6.986736207904008 113.09995054179312,6.929184838810617 113.66395395890477,6.883143743536231 114.48118340002797,6.6989793624386875 114.95310462659084,6.641427993345296 115.8278854368058,6.641427993345296 117.04797446157949,6.745020457713073 117.75010116451591,6.721999910075881 118.12994020053002,6.745020457713073 118.38316622453995,6.8025718268064645 118.6363922485499,6.9061642911734245 119.08529292747637,7.193921136639562 119.28096758239293,7.286003327188334 119.87950182096158,7.78094510138921 120.13272784497153,8.080212220673536 120.39746414279882,8.494582078143827 120.52407715480462,8.621195090148797 121.44489906029398,9.116136864349672 122.36572096578496,9.760712198191893 122.8721730138032,10.036958769839027 124.28793669349507,10.647003282225866 125.77276201609607,11.14194505642674 126.56697090958126,11.46423272334826 127.00436131468875,11.521784092441651 128.0057551369095,11.475742997167265 128.99563868531126,11.26855806843171 129.81286812643282,11.17647587788294 130.51499482936927,11.038352592059782 132.08039206870166,10.670023829863876 132.47174137853474,10.554921091677095 133.1968886291092,10.221123150937387 133.933546153501,9.841284114922477 134.03713861786878,9.714671102917507 134.00260779641175,9.553527269457156 134.01411807023078,9.484465626545576 134.1982824513283,9.334832066903415 135.0155118924515,8.954993030888504 136.01690571467063,8.552133447237217 136.32768310777396,8.367969066138857 136.46580639359712,8.241356054133886 136.5693988579649,8.091722494491723 136.74205296524508,7.619801267928041 136.84564542961286,7.4241266130114925 137.4096488467245,6.768041005350266 138.01969335911215,5.939301290409684 138.49161458567502,5.064520480193899 138.5376556809494,4.857335551458345 138.5376556809494,4.684681444179806 138.43406321658162,4.489006789262439 138.11177554966093,4.120678027066535 138.1002652758419,4.00557528888057 138.18083719257334,3.9250033721499853 139.389415943528,3.6947978957780556 140.0685220988264,3.625736252865659 140.41383031338512,3.64875680050367 141.10444674250255,3.8559417292384066 141.6914707072522,3.994065015062382 141.91016590980675,4.028595836517763 142.1633919338167,4.00557528888057 143.10723438694407,3.8099006339640207 143.92446382806563,3.844431455420219 144.0050357447954,3.8099006339640207 144.0050357447954,3.752349264870629 144.3963850546285,3.9480239197871785 144.7877343644616,4.212760217616124 145.11002203138395,4.489006789262439 145.34022750775586,4.74223281327238 145.43230969830464,4.926397194370741 145.51288161503604,5.1335821231054775 145.5819432579468,5.835708826041907 145.67402544849557,6.1810170406006195 145.83516928195675,6.445753338428747 146.1459466750601,6.733510183894068 146.4912548896188,6.940695112629623 146.99770693763867,7.17090058900237 147.2164021401916,7.297513601006522 148.7587788318876,8.667236185423183 149.01200485589754,8.851400566520727 149.6565801897406,9.208219054898445 150.16303223775884,9.714671102917507 150.7615664763275,10.129040960388615 151.80900139382263,10.554921091677095 153.19023425205748,11.23402724697633 153.6046041095286,11.326109437525103 154.07652533609144,11.33761971134329 154.47938491974355,11.23402724697633 154.75563149138986,11.10741423497136 155.0548986106742,10.85418821096142 155.31963490850313,10.508879996402708 156.21743626635447,8.529112899599207 156.33253900454127,8.183804685040496 156.63180612382558,7.032777303178394 156.81597050492314,6.572366350433717 157.0231554336587,6.238568409693193 157.310912279124,5.939301290409684 158.09361089879022,5.3522773256592195 158.58855267299109,4.8343150038211515 158.89933006609442,4.569578705993024 159.25614855447213,4.350883503439282 160.43019648397143,3.7638595386896347 160.68342250798136,3.602715705228466 160.9136279843533,3.3955307764937297 161.04024099635907,3.234386943032561 161.14383346072685,3.0387122881160122 161.4315903061922,2.1178903826266584 161.7193471516575,1.4157636796902289 161.92653208039306,1.0244143698571309 162.14522728294597,0.7942088934843835 162.34090193786253,0.7021267029356117 162.5135560451427,0.6791061552984188 163.53797041499982,0.7942088934843835 164.26311766557265,0.6560856076612258 164.56238478485696,0.6330650600240328 164.8731621779603,0.7021267029356117 165.44867586889094,0.9553527269455521 165.63284024998848,0.9898835484009325 165.84002517872403,0.978373274582745 167.25578885841426,0.8402499887595873 168.46436760937058,0.5985342385678345 168.72910390719952,0.4949417742008752 169.13196349084998,0.20718492873473654 169.37367924104092,0.12661301200497016 170.60527853963362,0 170.88152511128155,0 171.66422373094775,0.20718492873473654 172.09010386223622,0.4143698574702909 172.44692235061396,0.6675958814802312 173.4368058990157,1.4963355964208132 174.48424081651083,2.1524212040820387 174.70293601906377,2.3596061328175932 174.88710040016295,2.6128321568275337 175.10579560271586,3.0041814666606315 175.4050627220002,3.706308169596243 175.71584011510353,4.2012499437971185 175.94604559147547,4.454475967807059 176.29135380603418,4.74223281327238 176.70572366350527,4.983948563463315 176.9934805089706,5.087541027831092 177.66107639045,5.260195135110448 177.97185378355334,5.398318420934423 178.21356953374428,5.640034171125358 178.5243469268476,6.169506766781614 178.75455240321955,6.388201969335356 178.9732476057741,6.480284159884945 179.3530866417882,6.514814981340326 180.28541882109656,6.46877388606594 181.7702441436992,6.261588957330385 181.97742907243472,6.250078683512198 182.20763454880665,6.296119778786584 182.495391394272,6.422732790791554 184.00323726451262,7.239962231913949 185.07369272964414,7.65433208938424 185.4880625871136,7.861517018119794 186.04055573040787,8.2298457803157 186.63908996897652,8.782338923609148 186.90382626680548,8.954993030888504 187.1685625646328,9.047075221437275 187.997302279575,9.219729328716632 188.7109392563288,9.484465626545576 189.516658423633,9.852794388741483 190.51805224585212,10.209612877118381 191.38132278224973,10.693044377501069 192.62443235466142,11.26855806843171 192.9812508430375,11.510273818622647 193.47619261723838,11.959174497549135 194.07472685580703,12.58072928375498 194.39701452272936,12.972078593588078 195.0876309518468,13.950451868170823 195.45595971404188,14.353311451822927 195.91637066678737,14.779191583112222 195.44444944022285,15.228092262038713 195.0761206780278,15.642462119509004 194.75383301110546,16.091362798435494 194.54664808237152,16.4596915606314 194.38550424891037,16.90859223955707 194.31644260599796,17.28843127557198 194.31644260599796,17.66827031158689 194.36248370127234,18.059619621419987 194.50060698709714,18.554561395620862 194.74232273728808,19.061013443639926 195.0300795827534,19.53293467020361 195.44444944022285,20.039386718222673 195.87032957151297,20.465266849511966 196.21563778607168,20.730003147340096 196.79115147700233,21.08682163571781 197.2745829773842,21.317027112089743 196.8256822984577,21.54723258846249 196.29620970280146,21.99613326738898 195.76673710714522,22.37597230340307 195.54804190459063,22.652218875050206 195.0876309518468,23.446427768535408 194.949507666022,23.59606132817757 194.81138438019883,23.688143518726342 193.31504878377885,24.355739400206573 192.35969605683246,24.55141405512312 191.17413785351417,24.85068117440745 190.81731936513646,25.023335281686805 190.6101344364009,25.207499662784347 190.46050087676036,25.4492154129761 190.20727485275043,26.22040375882329 190.20727485275043,26.50816060428943 190.3338878647546,26.980081830853113 190.35690841239258,27.198777033406852 190.3223775909356,27.417472235960595 190.04613101928925,28.246211950901177 190.01160019783387,28.55698934400451 190.05764129310828,28.798705094195444 190.12670293601903,28.994379749111992 190.3108673171182,29.236095499302927 190.92091182950423,29.696506452047604 191.31226113933732,29.915201654601347 192.3021446877391,30.352592059709647 193.1193741288623,30.743941369542746 193.3726001528706,30.939616024459294 193.52223371251276,31.169821500831226 193.57978508160616,31.353985881929585 193.59129535542516,31.653253001213912 193.41864124814498,32.86183175216941 193.15390495031767,34.48478036059519 192.9927611168565,35.175396789712615 192.85463783103336,35.60127692100191 192.83161728339533,35.796951575918456 192.84312755721433,36.05017759992758 192.92369947394573,36.326424171574715 193.07333303358791,36.61418101704003 193.3265590575962,36.97099950541775 193.95962411762187,37.84578031563354 194.29342205836159,38.17957825637324 194.6502405467393,38.455824828020376 195.3063261543997,38.83566386403447 196.06600422642953,39.5377905669709 196.76813092936595,39.975180972078384 196.9868261319189,40.170855626994936 197.65442201339994,41.02261588957352 198.35654871633471,41.71323231869095 198.48316172834052,41.95494806888188 198.64430556180005,42.415359021626564 198.78242884762483,42.70311586709188 199.1852884312753,43.301650105660535 199.7608021222076,44.01528708241515 200.3363158131382,44.452677487522635 200.70464457533495,44.82100624971854 201.19958634953582,45.23537610718965 201.49885346882016,45.55766377411035 201.76358976664747,45.949013083944266 201.90171305247063,46.04109527449304 202.43118564812852,46.25979047704678 202.64988085068143,46.38640348905175 202.85706577941698,46.5475473225121 203.07576098197154,46.77775279888485 203.24841508925007,47.05399937053198 203.31747673216248,47.261184299266716 203.30596645834348,47.41081785890888 203.2023739939757,47.80216716874198 203.2023739939757,48.03237264511473 203.24841508925007,48.251067847668466 203.34049727979885,48.44674250258502 203.478620565622,48.64241715750157 203.9275212445485,49.05678701497186 204.08866507800968,49.29850276516361 204.12319589946506,49.48266714626115 204.04262398273528,49.87401645609425 204.01960343509728,50.11573220628519 204.08866507800968,50.311406861202556 204.22678836383284,50.51859178993729 204.74475068567173,50.955982195044776 205.37781574569576,51.31280068342249 205.918798615171,51.646598624162195 206.39071984173387,51.842273279078746 206.65545613956283,51.88831437435395 206.7590486039306,51.87680410053495Z"/>
  </g>
</svg>