<?xml version="1.0" encoding="UTF-8" standalone="no"?>
<svg viewBox="0 0 151.40503781078345 256" xmlns="http://www.w3.org/2000/svg">
  <style>
    g.zone {
      fill: lightgray;
      stroke-width: 2;
      stroke-linecap: square;
      stroke-linejoin: bevel;
      stroke-miterlimit: 3;
      stroke-opacity: 0.8;
      stroke: black;
      fill-opacity: 0.3;
    }
  </style>
  <g class="zone" id="zone">
    <path d="M71.3501985746144,237.8107828736194 71.37805342473229,238.13111364996428 71.44769055002504,238.3539524508995 71.60089222566752,238.64642837712847 71.82373102660274,238.9528317284144 72.36690060388385,239.46814645557862 73.48109460856395,240.31771938414664 73.84320766008469,240.69375986072535 74.13568358631268,241.11158261247988 74.88776453947007,242.50432511832804 75.06882106523044,243.0057124204333 75.30558729122461,244.07812414993654 75.41700669169222,244.32881780098967 75.62591806757048,244.6073663021597 76.15516021979265,245.094826179206 76.71225722213072,245.45693923072673 77.40862847505628,245.80512485718953 78.85708068113725,246.37614928458655 79.30275828300968,246.65469778575655 79.77629073499803,247.00288341221835 78.96850008160683,248.3399162178327 78.20249170338852,249.52374734780457 75.91839399379846,252.7549099613723 75.51449866710287,253.42342636418 75.06882106523044,254.32870899298183 74.42815951254066,254.41227354333253 74.01033676078612,254.41227354333253 73.45323975844606,254.30085414286492 73.11898155704321,254.14765246722146 72.72901365540459,253.86910396605143 72.06049725259692,253.24236983841962 70.44491594581453,251.62678853163524 69.5674881671286,250.9164898536527 68.96860888961369,250.54044937707403 67.56193895870759,249.8022958489736 67.07447908166029,249.63516674827218 66.64272890484679,249.60731189815527 65.97421250204111,249.71873129862288 64.55361514607408,250.16440890049435 64.05222784396982,250.41510255154748 63.174800065285865,250.98612697894546 62.561993362712,251.19503835482274 61.78205755943672,251.3482400304662 59.91578260159923,251.64071595669418 58.77373374680322,251.96104673303907 58.48125782057523,251.94711930798013 57.57597519177339,251.82177248245455 56.8517490887339,251.86355475762943 56.60105543768078,251.91926445786322 56.12752298569242,252.1281758337405 55.208312931831635,252.3231597845598 55.02725640607127,252.44850661008638 54.9297644306626,252.6434905609047 55.01332898101232,253.33986181382926 54.97154670583746,253.6184103149983 54.81834503019498,253.86910396605143 54.567651379141864,254.1337250421625 54.24732060279599,254.35656384309874 53.857352701159336,254.565475218976 52.46461019531019,254.9972253957885 51.55932756650835,255.44290299765996 51.37827104074798,255.49861269789375 51.05794026440409,255.49861269789375 50.152657635602246,255.30362874707544 49.79054458408151,255.28970132201647 47.85463250095127,255.62395952342033 47.06076927261902,255.72145149882996 46.559381970512774,255.74930634894687 45.1109297644318,255.67966922365412 43.82960665905028,255.87465317447345 42.26973505249972,256 41.991186551330685,255.30362874707544 41.64300092486889,254.5933300690929 38.746096512703,249.55160219792148 38.397910886241206,248.8830857951138 38.14721723518809,248.29813394265784 37.96616070942772,247.72710951525983 37.81295903378524,247.10037538762802 37.38120885697175,243.952777324411 37.04695065556891,242.32326859256767 36.670910178989224,241.00016321201227 36.21130515205982,239.63527555628002 35.86311952559803,238.68821065230333 35.54278874925215,238.0336216745546 35.20853054784931,237.4904520972735 34.832490071269625,237.0308470703441 34.48430444480783,236.72444371905718 33.982917142701595,236.4041129427123 33.42582014036352,236.1673467167181 32.882650563082414,236.0559273162505 32.214134160274746,236.01414504107464 31.68489200805259,236.0559273162505 32.42304553615103,235.1924269626245 33.32832816495287,234.34285403405647 33.53723954083113,234.03645068276953 33.84364289211609,233.0754583537349 34.10826396822815,232.49050650127793 34.42859474457403,231.91948207387992 34.55394157010059,231.58522387247706 34.59572384527545,231.09776399542977 34.45644959468994,230.35961046733033 34.47037701974889,230.22033621674484 34.5260867199827,230.09498939121926 34.74892552091793,229.90000544039995 35.77955497524633,229.315053587944 36.47592622816991,228.71617431042907 37.00516838039207,228.14514988303105 37.08873293074377,227.95016593221175 37.116587780861664,227.68554485610068 37.36728143191281,227.5044883303403 37.3951362820307,227.37914150481473 37.14444263097757,226.8081170774167 36.629127903814364,226.01425384908248 36.448071378053996,225.48501169686034 36.406289102879136,224.64936619335126 36.29486970240954,223.96692236548563 36.26701485229363,223.0616397366838 36.28094227735257,222.54632500952056 36.406289102879136,221.32071160437383 36.39236167782019,220.9028888526193 36.33665197758638,220.54077580109856 36.21130515205982,220.17866274957782 35.918829225831836,219.7329851477064 35.68206299983766,218.85555736902242 35.361732223491785,218.13133126598095 34.9299820466783,217.43496001305638 34.26146564387063,216.6550242097811 33.95506229258568,216.1675643327348 33.88542516729292,215.94472553179858 33.88542516729292,215.7358141559213 34.0386268429354,215.06729775311462 34.024699417876455,214.91409607747116 33.95506229258568,214.71911212665185 33.67651379141466,214.31521679995626 33.25869103966012,213.93917632337656 32.172351885099886,213.2706599205699 31.2531418312391,212.88069201893225 30.51498830313868,212.42108699200185 30.19465752679478,212.28181274141733 30.083238126327167,212.1843207660077 29.930036450682714,211.9754093901304 29.790762200097205,211.68293346390243 29.414721723519502,210.652304009575 29.359012023285693,210.35982808334703 29.345084598226748,209.84451335618283 29.28937489799294,209.5938197051297 29.177955497525325,209.39883575431136 29.02475382188087,209.217779228551 28.258745443664537,208.6188999510361 28.133398618137974,208.46569827539264 28.07768891790417,208.32642402480812 28.049834067788254,208.1314400739888 28.091616342963114,207.69968989717628 28.28660029378243,207.60219792176665 28.899406996354312,207.19830259507106 29.3311571731678,206.9754637941348 30.584625428431433,206.51585876720443 33.35618301507076,205.79163266416396 34.010771992819485,205.66628583863738 34.95783689679619,205.59664871334462 35.45922419890045,205.4573744627601 35.83526467548014,205.2623905119418 36.113813176649174,205.02562428594663 36.517708503346746,204.60780153419208 37.08873293074377,203.9114302812685 37.46477340732345,203.5632446548067 38.17507208530598,203.06185735270046 38.843588488113646,202.6718894510628 40.70986344594915,201.72482454708611 41.60121864969205,201.36271149556538 43.119307981067756,200.9588161688698 44.10815516021932,200.62455796746596 44.63739731244147,200.58277569229108 44.92987323867143,200.59670311734905 45.250204015015335,200.68026766769975 45.65409934171093,200.83346934334324 45.988357543115754,201.0423807192205 46.30868831945965,201.36271149556538 46.61509167074658,201.86409879767163 46.81007562156589,202.1008650236658 47.01898699744416,202.21228442413343 47.46466459931462,202.28192154942616 47.63179370001603,202.37941352483483 47.979979326477824,202.8808008269401 48.495294053643015,203.43789782928016 48.982753930690315,204.06463195691197 49.17773788150765,204.2317610576134 49.38664925738591,204.35710788313995 50.05516566019358,204.5103095587834 50.23622218595395,204.59387410913413 50.333714161362614,204.78885805995245 50.5426255372389,205.65235841357844 50.69582721288335,205.97268918992432 50.87688373864372,206.2651651161523 51.113649964637894,206.55764104238028 52.1442794189663,207.6439801969425 52.520319895544006,207.92252869811153 52.812795821771985,208.04787552363808 53.20276372341061,208.1314400739888 54.59550622925778,208.2707143245743 56.11359556063348,208.57711767586025 57.36706381589711,208.75817420162062 57.92416081823716,208.74424677656265 58.913007997388725,208.57711767586025 59.6372341004302,208.52140797562643 59.999347151950936,208.43784342527573 60.19433110277025,208.35427887492503 60.34753277841273,208.22893204939845 60.54251672923204,207.92252869811153 60.54251672923204,207.61612534682558 60.40324247864653,206.71084271802374 60.40324247864653,206.41836679179576 60.45895217888034,206.20945541591848 60.65393612969965,205.90305206463157 61.15532343180392,205.42951961264322 61.32245253250732,205.10918883629833 61.33637995756429,204.9420597355959 61.29459768238943,204.7749306348945 60.93248463086869,204.09248680702888 60.83499265546002,203.8000108808009 60.821065230401075,203.54931722974777 60.862847505575935,203.29862357869465 61.36423480768218,202.14264729884067 61.642783308851214,201.6969696969692 62.21380773625022,200.9866710189867 62.60377563788687,200.19280779065346 62.75697731353132,199.98389641477618 63.02159838964141,199.76105761383997 64.08008269408573,199.19003318644195 64.47005059572436,198.89755726021397 64.76252652195234,198.54937163375217 65.22213154888175,197.51874217942378 65.52853490016868,197.07306457755232 65.98813992709808,196.69702410097364 67.14411620695304,195.94494314781525 68.0772536858708,194.97002339372165 68.92682661443884,194.28757956585602 69.49785104183586,193.71655513845803 70.1385125945276,193.14553071106002 70.30564169522903,192.8948370600069 70.37527882052179,192.7416353843644 70.41706109569664,192.4630868831944 70.44491594581453,191.8363527555626 70.57026277133912,191.4881671291008 70.72346444698357,191.26532832816457 70.87666612262605,191.12605407758005 71.05772264838642,191.00070725205347 71.23877917414679,190.93107012676074 70.9463032479188,190.91714270170277 70.6259724715749,190.79179587617622 70.38920624558072,190.5968119253569 70.1385125945276,190.23469887383715 69.94352864370829,189.7333115717309 69.31679451607747,187.51885098743261 69.0800282900813,186.93389913497566 67.99368913552108,184.9979870518464 67.77085033458387,184.71943855067738 67.17197105706896,184.10663184810352 66.7262934551985,183.4241880202379 65.27784124911555,180.86154180947682 65.02714759806243,180.36015450737156 64.77645394701129,179.7194929546808 64.59539742125092,179.3991621783359 64.2611392198461,179.02312170175722 63.745824492682885,178.56351667482681 62.687340188238565,177.75572602143464 61.89347695990434,177.35183069473905 61.642783308851214,177.08720961862795 61.559218758501494,176.89222566780865 61.54529133344255,176.66938686687342 61.79598498449567,175.9590881888909 62.11631576083957,174.24601490669687 62.158098036016405,173.75855502964956 62.088460910723654,173.39644197812882 61.977041510256036,173.2014580273105 61.79598498449567,173.00647407649217 60.570371579347956,172.18475599804106 60.333605353353775,171.9619171971058 60.12469397747749,171.7112235460527 59.52581469996258,170.8198683423098 59.09406452314909,170.05385996409348 58.88515314727083,169.608182362222 58.6623143463356,168.8978836842385 58.50911267069313,168.57755290789362 58.2862738697579,168.25722213154873 57.88237854306032,167.78368967956038 57.35313639083816,167.2683749523962 56.93531363908362,166.9758990261682 56.15537783580834,166.6277133997064 54.77656275501815,166.168108372776 54.26124802785493,165.95919699689873 53.592731625047264,165.5692290952611 52.42282792013533,164.77536586692787 51.392198465806935,163.98150263859364 49.98552853490082,162.60268755780442 48.82955225504586,161.58598552853496 48.45351177846618,161.08459822642874 47.96605190142086,160.09575104727716 47.8128502257764,159.90076709645786 47.63179370001603,159.73363799575642 47.200043523202545,159.46901691964536 46.336543169577546,159.10690386812462 45.37555084054189,158.60551656601936 45.08307491431391,158.39660519014208 44.498123061857946,157.89521788803583 43.941026059517895,157.51917741145715 43.57891300799716,157.37990316087263 42.91039660518949,157.2127740601702 42.673630379195316,157.1013546597026 42.45079157826009,156.90637070888428 42.144388226973156,156.36320113160318 41.90762200097898,156.0985800554921 41.48979924922444,155.73646700397137 40.751645721125996,155.1793700016323 40.152766443611085,154.78940209999465 39.76279854197245,154.59441814917534 39.2892660899841,154.44121647353188 38.52325771176777,154.27408737283045 38.091507534954275,154.09303084707008 37.59012023285001,153.70306294543244 36.21130515205982,152.25461073935048 35.37565964855073,151.47467493607522 34.99961917197105,151.29361841031485 34.651433545509256,151.23790871008103 34.42859474457403,151.251836135139 35.77955497524633,151.14041673467136 36.81018442957473,150.94543278385305 37.29764430662203,150.80615853326753 37.74332190849249,150.6390294325661 38.356128611066346,150.26298895598742 38.69038681246919,149.94265817964154 39.03857243893098,149.44127087753628 39.317120940101994,148.88417387519723 39.95778249279177,147.1989554431201 40.180621293727,146.75327784124866 40.50095207007288,146.2518905391434 40.77950057124191,145.9037049126816 41.16946847288054,145.56944671127778 41.656928349925856,145.26304335999086 42.074751101680405,145.1098416843474 42.53435612861178,145.01234970893873 42.854686904955685,144.99842228387976 43.620695283173994,145.06805940917252 44.052445459985506,145.1655513845822 44.498123061857946,145.33268048528362 45.41733311571676,145.792285512213 46.057994668408504,146.21010826396756 46.559381970512774,146.6000761656052 49.91589140960807,149.53876285294595 51.04401283934514,150.4719003318647 51.83787606767937,151.07077960937863 53.24454599858548,152.05962678853118 54.344812578206636,152.7420706163968 55.389369457592004,153.2852401936779 56.41999891192041,153.74484522060828 57.743104292476794,154.2044502475377 58.6623143463356,154.4272890484739 59.58152440019639,154.5804907241174 60.72357325499241,154.6640552744681 61.907404384963286,154.62227299929225 62.8266144388221,154.48299874870773 63.60655024209738,154.27408737283045 64.4561231706654,153.93982917142662 65.01322017300546,154.27408737283045 65.70959142592905,154.60834557423428 66.48952722920433,154.83118437516953 67.50622925847378,155.0122409009299 67.71514063435006,155.0958054512806 67.88226973505347,155.262934551983 68.39758446221667,156.1542897557259 68.95468146455673,156.7810238833577 69.60927044230544,157.8812904629779 70.44491594581453,159.0790490180077 70.86273869756907,159.90076709645786 71.29448887438059,160.4578640987979 71.76802132636894,161.3492193025408 71.90729557695445,161.50242097818327 72.28333605353413,161.7531146292364 72.49224742941041,161.96202600511367 73.02148958163258,162.8115989336817 73.13290898210217,163.10407485990967 73.3278929329195,163.43833306131353 73.46716718350501,163.88401066318497 73.63429628420643,164.162559164354 74.12175616125373,164.6500190414013 74.63707088841694,165.4299548446766 75.05489364017149,165.75028562102148 75.72341004297915,166.4048745987702 76.44763614602063,166.86447962570057 76.8236766226003,167.21266525216237 77.29720907458866,167.8115445296773 77.64539470105045,168.68897230836123 77.75681410151806,168.82824655894674 77.99358032751223,168.99537565964815 79.44203253359518,169.63603721233892 80.22196833687046,169.8728034383331 81.69827539306932,170.10956966432727 82.53392089657842,170.193134214678 83.95451825254347,170.42990044067216 84.49768782982457,170.48561014090598 84.99907513192883,170.471682715848 85.83472063543793,170.34633589032146 86.43359991295284,170.1652793645611 87.15782601599432,169.8449485882162 87.88205211903579,169.69174691257274 88.73162504760383,169.67781948751377 89.17730264947429,169.7335291877476 89.67868995158052,169.83102116315726 88.81518959795355,170.98699744301123 88.5644959469024,171.39089276970782 88.25809259561547,172.0315543223976 88.03525379468024,172.75578042543907 87.78456014362712,173.1736031771936 87.49208421739914,173.5217888036554 86.61465643871321,174.19030520646305 86.36396278766206,174.49670855775 86.09934171155,175.0955878352639 85.83472063543793,175.94516076383195 85.77901093520413,176.19585441488508 85.77901093520413,176.6136771666396 85.87650291061478,176.94793536804247 86.14112398672486,177.33790326968008 86.44752733801178,177.5885969207332 86.87927751482528,177.7975082966105 87.25531799140497,177.8532179968443 87.65921331810056,177.83929057178534 88.74555247266277,177.57466949567427 89.44192372558635,177.37968554485593 89.60905282628777,177.365758119797 89.79010935204813,177.3936129699139 89.98509330286745,177.49110494532357 90.20793210380269,177.65823404602597 90.3750612045041,177.86714542190325 90.93215820684415,179.05097655187413 91.3221261084808,179.62200097927212 91.33605353353975,179.8866220553832 91.16892443283834,180.65263043359954 91.18285185789728,181.00081606006134 91.25248898319003,181.2375822860555 91.57281975953393,181.87824383874627 91.68423916000154,182.36570371579356 91.65638430988562,182.7556716174312 91.55889233447499,183.0760023937761 91.33605353353975,183.49382514553065 90.91823078178521,184.03699472281176 90.87644850661034,184.19019639845422 90.87644850661034,184.3991077743315 90.93215820684415,184.60801915020878 91.18285185789728,184.95620477667154 91.40569065883251,185.15118872748988 92.39453783798407,185.7779228551217 92.90985256514927,186.04254393123276 93.34160274196276,186.0843262064086 94.2747402208805,186.0007616560579 94.6786355475761,186.05647135629172 94.91540177357028,186.15396333170136 95.33322452532482,186.48822153310422 95.569990751319,186.61356835863077 95.83461182743108,186.71106033404044 96.23850715412667,186.79462488439114 96.50312823023873,186.7806974593332 96.62847505576332,186.73891518415732 96.85131385670053,186.59964093357283 97.4919754093903,186.0843262064086 98.09085468690522,185.8057777052386 98.39725803819213,185.72221315488787 98.80115336488774,185.66650345465408 99.10755671617467,185.66650345465408 99.28861324193504,185.70828572982893 99.58108916816302,185.9171971057062 100.3610249714383,186.93389913497566 100.75099287307495,187.76954463848475 100.98775909906912,188.14558511506442 101.28023502529712,188.41020619117552 101.60056580164299,188.60519014199383 101.97660627822268,188.68875469234553 102.6869049562052,188.6748272672866 103.73146183559057,188.99515804363148 105.26347859202521,189.16228714433387 105.43060769272664,189.23192426962567 105.5280996681353,189.31548881997637 105.65344649366186,189.46869049561982 105.91806756977394,189.90044067243332 106.05734182035746,190.02578749795987 106.18268864588403,190.0814971981937 106.51694684728885,190.09542462325163 108.56427833088473,189.91436809749126 108.96817365758032,189.91436809749126 109.45563353462762,190.01186007290093 110.24949676296185,190.45753767477237 110.54197268918983,190.68037647570858 110.75088406506809,190.9728524019366 110.84837604047677,191.33496545345733 110.90408574071057,192.21239323214127 111.02943256623713,192.5466514335451 111.30798106740616,192.93661933518274 111.73973124421966,193.4101517871711 111.73973124421966,193.70262771339907 111.65616669386796,194.0368859148029 111.44725531799168,194.34328926608984 111.25227136717236,194.55220064196712 110.76481149012506,194.8446765681951 109.63669006038799,195.29035417006654 108.480713780535,195.94494314781525 108.07681845383743,196.29312877427705 107.47793917632252,196.93379032696782 107.19939067515348,197.15662912790305 106.9069147489255,197.2819759534296 106.5587291224637,197.37946792883926 105.5559545182532,197.56052445459963 104.76209128991897,197.75550840541794 104.34426853816443,197.89478265600346 104.02393776181854,198.03405690658798 103.68967956041571,198.24296828246526 103.43898590936259,198.43795223328357 103.27185680866116,198.64686360916085 103.2300745334863,198.883629835156 103.34149393395391,199.13432348620816 103.52255045971428,199.30145258690956 104.01001033676158,199.6635656384303 104.16321201240406,199.81676731407376 104.31641368804654,200.05353354006795 104.65067188945136,200.65241281758287 104.94314781567934,201.05630814427946 105.27740601708219,201.33485664544847 105.94592241988985,201.71089712202817 106.04341439530049,201.8501713726127 106.05734182035746,202.045155323431 105.90414014471499,202.61617975082902 105.82057559436329,203.49360752951395 105.58380936836912,204.02284968173612 105.34704314237493,204.343180458081 105.22169631684838,204.44067243349065 105.05456721614695,204.49638213372447 104.35819596322337,204.52423698384138 103.98215548664369,204.59387410913413 102.2551547793917,205.27631793699973 102.01838855339753,205.3459550622925 101.69805777705166,205.30417278711664 101.28023502529712,205.16489853653212 100.3610249714383,204.60780153419208 100.19389587073688,204.59387410913413 100.04069419509243,204.64958380936793 99.81785539415719,204.84456776018723 99.59501659322197,205.15097111147318 99.17719384146743,205.9169794896905 99.12148414123361,206.09803601545087 99.12148414123361,206.2373102660354 99.20504869158334,206.44622164191267 99.31646809205095,206.62727816767304 99.49752461781132,206.82226211849135 99.83178281921614,207.07295576954448 100.56993634731458,207.88074642293665 100.62564604754839,207.9921658234043 100.61171862249142,208.06180294869702 100.05462162015137,208.28464174963227 99.74821826886443,208.49355312550952 99.56716174310408,208.68853707632886 99.13541156629059,209.31527120396066 98.96828246558916,209.49632772972103 98.28583863772452,209.73309395571522 97.96550786137865,209.9141504814746 97.63124965997581,210.27626353299533 97.31091888362994,210.83336053533537 97.18557205810338,210.95870736086096 96.87916870681644,211.0561993362706 96.4613459550619,211.0840541863875 95.94603122789869,211.09798161144647 95.569990751319,211.04227191121265 95.52820847614414,211.27903813720684 95.41678907567653,211.52973178825897 94.97111147380409,212.1425384908328 94.44186932158193,213.01996626951677 94.14939339535395,213.82775692290895 93.92655459441872,214.12023284913693 93.71764321854046,214.3291442250142 93.53658669278009,214.45449105054075 93.20232849137724,214.60769272618424 92.75665088950481,214.71911212665185 90.63968228061617,214.55198302595042 90.02687557804232,214.59376530112627 89.26086719982598,214.7330395517108 88.968391273598,214.90016865241222 88.75947989771974,215.17871715358223 88.66198792231107,215.42941080463436 88.52271367172555,216.11185463250098 88.36951199608309,216.61324193460624 88.27202002067442,216.82215331048351 88.13274577008892,217.00320983624388 87.82634241880199,217.15641151188734 87.29710026657982,217.29568576247186 86.76785811435767,217.35139546270568 86.14112398672486,217.29568576247186 85.87650291061478,217.30961318752983 85.58402698438678,217.37925031282256 85.43082530874233,217.47674228823223 85.34726075839261,217.61601653881675 85.34726075839261,217.78314563951915 85.40297045862641,217.96420216527855 85.54224470920994,218.1731135411558 85.94614003590752,218.57700886785238 86.53109188836349,218.980904194548 86.74000326423977,219.24552527065907 87.08818889070156,220.33186442522128 87.10211631576051,220.54077580109856 87.01855176541079,220.72183232685893 86.86535008976634,220.83325172732654 86.51716446330454,220.9585985528531 84.70659920570085,221.37642130460765 83.74560687666718,221.68282465589456 83.20243729938608,221.9613731570636 82.67319514716195,222.3652684837602 82.45035634622671,222.44883303411092 81.97682389423836,222.56025243457853 81.74005766824419,222.65774440998817 81.57292856754276,222.7970186605727 81.12725096567033,223.32626081279585 80.89048473967615,223.52124476361416 79.5255970839449,224.35689026712325 78.74566128066962,224.6632936184102 78.49496762961849,224.83042271911162 78.21641912844747,225.15075349545648 78.10499972797986,225.45715684674343 78.16070942821366,226.71062510200707 78.13285457809775,227.11452042870366 78.04929002774605,227.5044883303403 77.81252380175187,227.85267395680307 77.43648332517219,228.1033676078552 75.86268429356466,228.52119035960976 74.7067080137097,228.67439203525322 74.26103041183924,228.70224688537013 73.46716718350501,228.6465371851363 72.91007018116495,228.5351177846687 72.39475545400174,228.3679886839663 71.8376584516617,228.1033676078552 72.04656982753995,228.47940808443488 72.79865078069734,229.593602089113 73.10505413198428,230.33175561721345 73.18861868233597,230.6103041183825 73.20254610739295,231.19525597083944 73.3278929329195,231.8637723736461 73.3278929329195,232.25374027528375 73.25825580762675,232.8665469778576 73.13290898210217,233.3540068549039 72.85436048093115,234.00859583265265 72.26940862847519,235.01137043686413 71.9769327022472,235.624177139437 71.50340025025885,237.07262934551895 71.3501985746144,237.8107828736194Z"/>
    <path d="M64.42826832054949,84.14950220336179 64.73467167183445,84.46983297970768 65.58424460040249,85.70937380991235 65.87672052663046,85.94614003590654 66.65665632990574,86.44752733801178 66.92127740601781,86.69822098906491 67.01876938142648,86.96284206517599 67.04662423154437,87.61743104292471 67.01876938142648,88.02132636962031 67.06055165660135,88.18845547032272 67.1858984821279,88.35558457102414 67.65943093411626,88.60627822207726 67.81263260976071,88.77340732277868 67.92405201022832,89.59512540122981 67.93797943528728,90.04080300310126 68.021543985637,90.24971437897854 68.24438278657419,90.47255317991376 68.49507643762534,90.62575485555723 68.7039878135036,90.70931940590793 69.03824601490645,90.69539198084998 69.5953430172465,90.57004515532341 70.93237582285985,90.02687557804232 71.82373102660274,89.58119797617087 72.84043305587221,89.35835917523563 73.27218323268569,89.21908492465013 74.33066753713001,88.70377019748692 75.19416789075699,88.11881834502996 75.59806321745259,87.9377618192696 76.36407159566892,87.77063271856818 77.29720907458866,87.43637451716434 77.86823350198569,87.31102769163778 78.0910723029209,87.31102769163778 78.42533050432573,87.36673739187158 78.59245960502716,87.46422936728125 78.73173385561266,87.63135846798366 78.82922583102133,87.85419726891888 79.0102823567817,88.71769762254488 79.05206463195655,89.09373809912357 79.12170175724931,90.18007725368578 79.0938469071334,92.04635221152228 79.1495566073672,92.42239268810197 79.35846798324349,93.20232849137724 79.45595995865216,93.84299004406702 79.44203253359518,94.95718404874613 79.5255970839449,95.94603122789869 79.42810510853624,97.35270115880479 79.49774223382899,98.00729013655351 79.65094390947147,98.46689516348391 79.88771013546564,98.8707904901795 80.16625863663666,99.16326641640848 80.77906533920854,99.59501659322098 80.97404929002785,99.77607311898134 81.15510581578822,100.06854904520932 81.22474294108098,100.34709754637936 81.21081551602202,100.7649202981339 81.08546869049547,101.1966704749464 80.932267014853,101.41950927588262 80.361242587454,102.04624340351444 79.92949241064248,102.6311952559704 79.66487133453042,103.13258255807665 79.63701648441253,103.46684075947948 79.70665360970527,103.68967956041571 79.8737827104067,103.89859093629298 80.83477503944235,104.51139763886584 81.08546869049547,104.72030901474312 81.25259779119689,104.90136554050349 81.53114629236791,105.54202709319425 81.99075131929732,106.46123714705405 82.14395299493978,106.64229367281442 82.51999347151947,106.9626244491593 82.67319514716195,107.12975354986072 82.75675969751364,107.38044720091385 82.75675969751364,107.79826995266839 82.45035634622671,108.92639138240546 82.26929982046634,109.39992383439382 81.99075131929732,109.8038191610904 81.25259779119689,110.61160981448259 81.08546869049547,110.77873891518401 80.51444426309845,110.98765029106129 79.77629073499803,111.34976334258202 79.0102823567817,111.83722321962931 78.63424188020201,112.1575539959742 78.28605625374023,112.505739622436 77.9796529024533,112.89570752407363 77.78466895163398,113.24389315053543 77.68717697622532,113.49458680158854 77.60361242587558,113.85669985310928 77.58968500081664,114.14917577933726 77.61753985093256,114.56699853109181 77.75681410151806,115.19373265872362 78.28605625374023,116.8650236657418 78.35569337903297,117.3524835427891 78.35569337903297,117.7842337196016 78.21641912844747,118.45275012240927 77.92394320221949,119.05162939992418 77.50612045046495,119.56694412708738 77.01866057341765,119.95691202872503 76.47549099613654,120.27724280506992 75.90446656873952,120.51400903106409 75.09667591534833,120.76470268211722 74.14961101136964,120.97361405799448 73.02148958163258,121.14074315869591 71.29448887438059,121.30787225939832 70.19422229476142,121.37750938469009 67.22768075730474,121.48892878515869 65.51460747510973,121.65605788586011 64.91572819759482,121.75354986126976 64.30292149502293,121.90675153691323 62.11631576083957,122.72846961536337 61.50350905826769,122.90952614112373 60.5842990044069,123.0905826668841 59.77650835101571,123.17414721723482 58.75980632174625,123.16021979217686 57.645612317066146,123.0070181165334 54.06626407703562,122.15744518796537 50.79331918829202,121.51678363527559 49.99945595995977,121.29394483433937 49.37272183232697,121.0571786083452 48.71813285457824,120.73684783200031 48.03568902671163,120.30509765518681 47.54822914966631,119.90120232849122 47.14433382296874,119.48337957673668 46.75436592133209,119.00984712474832 46.336543169577546,118.39704042217447 45.890865567705106,117.60317719384123 44.790598988085925,115.33300690930814 44.149937435396154,114.07953865404451 43.57891300799716,113.1046188999509 42.924324030248435,112.08791687068144 42.032968826505545,110.83444861541781 40.974484522061225,109.45563353462762 40.13883901855214,108.43893150535915 39.48425004080342,107.72863282737563 38.885370763288506,107.15760839997763 38.314346335891486,106.68407594798927 37.77117675861038,106.30803547141059 37.10266035580271,105.91806756977294 35.77955497524633,105.29133344214112 33.04977966378384,104.23284913769682 32.50661008650273,103.98215548664369 31.907730808987818,103.62004243512295 31.3367063815908,103.18829225831045 30.877101354659416,102.742614656439 30.43142375278896,102.24122735433276 29.665415374572625,101.26630760023916 29.28937489799294,100.86241227354355 28.829769871063537,100.47244437190591 28.356237419075185,100.17996844567793 27.63201131603371,99.88749251944895 26.657091561939115,99.63679886839682 25.33398618138273,99.40003264240265 22.395299494043954,98.98220989064811 14.470594635764586,98.21620151243079 13.063924704858477,98.14656438713902 11.462270823133057,98.14656438713902 10.682335019857776,97.65910451009172 10.48735106903846,97.4919754093903 10.306294543278092,97.24128175833718 10.167020292694563,96.82345900658264 10.069528317283917,96.62847505576431 9.526358740002811,96.09923290354116 9.206027963658915,95.89032152766389 8.509656710733355,95.58391817637795 8.217180784505372,95.38893422555863 8.077906533921844,95.24965997497411 7.687938632283213,94.69256297263506 7.158696480061055,94.14939339535395 4.623905119417877,91.96278766117157 2.7158478864055255,90.55611773026448 1.7548555573698765,90.08258527827613 1.378815080790193,89.79010935204813 1.0724117295032636,89.41406887546944 0.8077906533931739,88.84304444807144 0.30640335128692947,88.00739894456235 0.0974919754106471,87.47815679234019 0,86.87927751482528 0.013927425058946615,86.30825308742727 0.08356455035170048,86.05755943637415 0.18105652576036838,85.91828518578963 0.6267341276328056,86.18290626190071 1.0863391545622103,86.39181763777798 1.6295087318433152,86.5868015885973 2.033404058538913,86.68429356400597 2.5487187857021247,86.76785811435667 3.189380338393877,86.80964038953252 4.3871388934237014,86.78178553941562 5.710244273978108,86.57287416353834 6.6990914531316506,86.29432566236832 7.646156357108353,85.94614003590654 9.87454436646658,84.98514770687089 10.570915619390162,84.76230890593565 11.225504597138881,84.59517980523324 12.047222675589023,84.46983297970768 12.994287579565725,84.40019585441492 15.891191991731619,84.37234100429801 16.740764920297675,84.33055872912216 17.604265273924653,84.2330667537135 18.704531853543834,83.99630052771833 21.49001686524211,83.03530819868367 24.442630977639833,82.17180784505769 25.347913606441676,81.83754964365384 26.058212284424204,81.53114629236691 26.935640063108153,81.07154126543752 27.79914041673513,80.54229911321437 30.403568902671065,78.67602415537786 31.280996681355013,78.10499972797986 32.38126326097617,77.49219302540699 33.37011044012773,77.03258799847659 34.47037701974889,76.65654752189789 35.44529677384349,76.40585387084478 36.72661987922303,76.18301506990954 38.007942984604554,76.08552309449989 39.33104836515896,76.05766824438298 40.73771829606705,76.07159566944094 43.71818725858267,76.1969424949675 44.5677601871507,76.29443447037715 45.166639464665614,76.39192644578682 45.65409934171093,76.51727327131239 46.16941406887612,76.69832979707276 46.64294652086447,76.92116859800898 46.97720472226732,77.14400739894421 47.63179370001603,77.68717697622532 48.16103585223819,78.28605625374023 49.79054458408151,80.33338773733709 50.41727871171432,80.97404929002785 51.016157989227246,81.46150916707417 51.89358576791317,82.03253359447217 53.021707197650244,82.60355802187019 54.20553832762113,83.10494532397543 55.52864370817751,83.56455035090583 56.475708612154214,83.8291714270169 57.40884609107197,84.02415537783622 58.14699961917239,84.13557477830383 59.177629073500796,84.2330667537135 60.375387628528635,84.2609216038304 61.573146183558464,84.2052119035956 62.71519503835448,84.10771992818694 64.19150209455334,83.92666340242657 64.42826832054949,84.14950220336179Z"/>
    <path d="M151.32147326043173,50.36156901147952 151.05685218432166,50.50084326206404 150.17942440563573,50.723682063000254 149.84516620423287,50.932593438877525 149.4134160274194,51.33648876557312 148.91202872531315,51.601109841684206 148.5499156737944,51.69860181709386 147.81176214569396,51.79609379250352 147.53321364452492,51.93536804308804 147.07360861759355,52.36711821990054 146.948261792067,52.53424732060295 146.80898754148345,52.910287797181645 146.78113269136557,53.38382024916999 146.7114955660728,53.53702192481346 146.58614874054823,53.64844132528108 146.40509221478786,53.759860725749675 145.88977748762267,53.88520755127624 145.7365758119802,53.968772101626946 145.63908383656954,54.23339317773803 145.45802731080917,54.428377128556356 145.3605353354005,54.58157880419982 145.31875306022565,54.74870790490223 145.33268048528458,55.138675806538885 145.29089821010777,55.31973233229925 145.15162395952422,55.61220825852822 144.7338012077697,56.05788586039967 143.99564767966928,56.628910287796685 143.8703008541427,56.823894238616006 143.85637342908376,56.94924106414256 143.07643762580847,57.436700941188874 142.2965018225332,57.85452369294342 141.6279854197275,58.35591099504966 140.4580817148136,58.89908057232978 140.16560578858562,58.982645122681475 139.87312986235764,59.01049997279838 138.71715358250268,58.913007997388725 137.54724987759073,58.60660464610179 136.60018497361403,58.53696752080904 136.043087971274,58.43947554540037 134.44143408954855,58.45340297045833 133.38294978510424,58.62053207116074 132.9929818834656,58.592677221043836 132.70050595723762,58.523040095751085 131.87878787878748,58.2305641695231 131.27990860127258,58.14699961917239 129.9010935204824,57.77095914259271 127.6866329361831,57.49241064142367 126.75349545726534,57.18600729013674 125.31897067624135,56.99102333931742 124.28834122191294,56.768184538382194 122.68668734018752,56.294652086393846 122.22708231325812,56.197160110984186 121.89282411185528,56.18323268592524 121.6560578858611,56.22501496110109 121.32179968445628,56.35036178662765 120.77863010717518,56.67069256297254 120.54186388118099,56.768184538382194 120.31902508024577,56.823894238616006 119.98476687884292,56.7960393884991 118.64773407322758,56.50356346227112 117.08786246667702,56.22501496110109 116.54469288939592,56.16930526086728 115.30515205919124,56.085740710516575 114.91518415755459,56.01610358522382 112.58930417278769,55.47293400794271 112.1296991458563,55.31973233229925 110.94586801588542,54.818345030193996 110.58375496436469,54.72085305478533 109.53919808497932,54.72085305478533 109.28850443392619,54.73478047984328 109.09352048310689,54.79049018007709 108.92639138240546,54.94369185572056 108.57820575594367,55.528643708176524 108.29965725477463,55.904684184756206 108.03503617866257,56.09966813557453 107.68685055220078,56.197160110984186 107.40830205103174,56.16930526086728 106.5587291224637,56.03003101028277 105.51417224307636,55.97432131004797 104.73423643980108,55.83504705946345 103.80109896088332,55.58435340841132 102.97938088243318,55.500788858059614 101.83733202763716,55.23616778194854 101.53092867635023,55.23616778194854 101.2523801751812,55.04118383113021 100.8484848484856,54.58157880419982 100.51422664708078,53.88520755127624 100.3610249714383,53.31418312387823 100.3331701213204,52.81279582177297 100.44458952178802,51.94929546814599 100.2774604210866,51.252924215222414 100.24960557097069,50.87688373864273 100.29138784614554,50.27800446112881 100.44458952178802,49.665197758554946 100.47244437190591,48.676350579402396 100.44458952178802,48.425656928350264 100.30531527120449,47.7849953756595 100.2217507208528,46.48974484522101 100.15211359556004,46.36439801969445 99.97105706979967,46.447962570045156 99.58108916816302,46.517599695337914 98.3554757630153,46.50367227027896 97.29699145857099,46.64294652086348 96.30814427941942,46.907567596975554 95.48642620096928,47.060769272618025 95.23573254991616,47.14433382296973 94.5672161471085,47.436809749197714 94.03797399488633,47.59001142484117 93.7037157934815,47.63179370001603 93.23018334149316,47.59001142484117 92.67308633915509,47.46466459931462 92.31097328763435,47.33931777378805 91.78173113541219,47.07469669767698 91.53103748435908,46.97720472226732 90.402916054622,46.949349872150414 89.55334312605396,46.75436592133209 89.23301234970809,46.71258364615624 88.84304444807144,46.71258364615624 88.5366410967845,46.768293346390045 88.23023774549758,46.87971274685865 87.71492301833436,47.158261248027685 87.43637451716533,47.269680648495296 85.91828518578963,47.687503400249845 85.19405908274815,47.79892280071845 84.90158315652018,47.74321310048464 84.2609216038304,47.506446874490464 83.8570262771348,47.46466459931462 83.39742125020342,47.49251944943152 81.8514770687118,47.715358250367736 81.37794461672345,47.70143082530879 81.01583156520272,47.60393884989913 80.09662151134391,47.17218867308663 79.48381480877005,47.018986997443164 79.38632283336138,46.08584951852442 79.35846798324349,45.26413144007428 79.38632283336138,44.42848593656519 79.49774223382899,43.00788858059915 79.49774223382899,42.29758990261662 79.44203253359518,41.86583972580412 79.34454055818453,41.42016212393267 79.19133888254207,40.974484522061225 78.9824275066638,40.50095207007288 78.5228224797344,39.72101626679759 77.88216092704462,38.8575159131716 77.2275719492959,38.119362385071184 75.51449866710287,36.30879712746849 74.7624177139435,35.37565964854974 74.10782873619478,34.33110276916338 72.89614275610602,31.838093683695064 72.18584407812348,30.59855285349038 71.71231162613513,29.930036450682714 71.15521462379706,29.24759262281709 70.61204504651596,28.662640770361126 70.04102061911696,28.11947119308002 68.80147978891227,27.11669658886852 67.96583428540319,26.517817311354598 66.85164028072506,25.779663783254176 62.659485338120675,23.217017572493106 60.90462978075278,22.214242968282594 59.45617757466983,21.434307165007315 58.02165279364583,20.751863337141693 56.50356346227013,20.180838909743684 55.22224035689058,19.818725858222948 52.07464229367354,19.080572330123516 50.43120613677128,18.551330177901356 49.12202818127384,17.994233175562297 46.01621239323167,16.57363581959625 42.50650127849389,15.09732876339739 41.09983134758779,14.428812360589724 39.97170991785072,13.774223382841004 35.16674827267247,10.598770469507064 33.96898971764264,9.74919754093903 33.10548936401764,8.983189162722695 32.38126326097617,8.147543659213607 31.977367934280572,7.576519231815599 31.629182307818784,6.991567379359633 31.280996681355013,6.281268701376117 30.94673847995217,5.515260323159783 30.696044828899048,4.804961645177256 30.47320602796382,3.9414612915512643 30.389641477612116,3.412219139329106 30.37571405255515,2.8133398618141934 30.445351177845925,2.2701702845330884 30.584625428431433,1.8523475327785444 30.821391654425607,1.4205973559650538 31.155649855830433,1.030629454328403 31.670964582993644,0.6824438278656232 32.214134160274746,0.4456776018714476 33.00799738860898,0.23676622599417563 33.85757031717503,0.1114194004676145 35.138893422556556,0.027854850116903626 36.30879712746849,0 39.136064414341625,0.013927425058946615 50.821174038409914,0.23676622599417563 70.63989989663187,0.34818562646179013 82.95174364833296,0.29247592622798285 103.94037321146882,0.37604047657968337 145.93155976279752,0.29247592622798285 146.7114955660728,1.2673956803225785 146.97611664218488,1.7130732821940262 147.226810293238,2.1866057341823772 147.40786681899837,2.646210761111782 147.51928621946598,3.0779609379252726 147.56106849464084,3.48185626462087 147.53321364452492,3.8578967412005536 147.38001196888047,4.289646918013054 147.07360861759355,4.693542244709642 146.66971329089796,5.055655296230378 145.513737011043,5.87737337468052 145.06805940917252,6.239486426201256 144.70594635765178,6.643381752896854 144.51096240683248,7.061204504651398 144.46918013165762,7.367607855938327 144.48310755671656,7.757575757575967 144.5666721070663,8.175398509330511 144.91485773353006,9.387084489418294 144.97056743376385,9.777052391055934 144.9566400087049,10.153092867635618 144.8730754583532,10.52913334421431 144.7338012077697,10.919101245851952 144.05135737990307,12.214351776290444 143.8703008541427,12.646101953103935 143.74495402861615,13.063924704858477 143.71709917850023,13.439965181437172 143.7588814536751,13.774223382841004 143.8981557042606,14.136336434361741 144.5666721070663,15.222675588922963 144.74772863282666,15.612643490560602 144.8452206082373,16.01653881725719 144.8173657581194,16.49007126924554 144.70594635765178,16.921821446058043 144.52488983189141,17.325716772754628 143.48033295250605,19.13628203035732 142.4636309232366,21.127903813720387 142.19900984712453,21.726783091235298 142.01795332136416,22.22817039334055 141.90653392089655,22.729557695446797 141.8647516457217,23.272727272726915 141.87867907077865,23.774114574833156 141.9483161960714,24.219792176704605 142.11544529677283,24.651542353517105 142.35221152276898,25.01365540503784 142.7282519993467,25.403623306675485 143.2435667265119,25.793591208313124 145.09591425928843,27.074914313693657 147.1153908927704,28.384092269191097 147.58892334475874,28.76013274576979 147.9788912463954,29.136173222349477 148.4106414232089,29.748979924922345 148.74489962461172,30.45927860290487 148.95381100049,31.183504705946344 148.9816658506059,31.76845655840231 148.9259561503721,32.047005059572335 148.80060932484554,32.325553560742364 148.61955279908517,32.54839236167759 148.36885914803403,32.743376312496906 147.7699798705191,33.04977966378284 146.32152766443616,33.579021816006 145.80621293727296,33.80186061694123 145.31875306022565,34.12219139328611 144.90093030847112,34.5260867199827 144.51096240683248,35.152820847614514 143.8145911539089,36.75447472933993 142.77003427452354,38.81573363799575 142.33828409771004,39.386758065393764 141.55834829443475,40.06920189325938 141.36336434361544,40.31989554431251 141.26587236820677,40.584516620423585 141.196235242914,40.904847396768474 141.18230781785508,41.58729122463409 141.30765464338162,42.200097927207956 141.5165660192599,42.74326750448807 141.82296937054485,43.21679995647642 142.1711549970086,43.57891300799716 142.60290517382012,43.843534084108235 144.1070670801369,44.41455851150624 145.20733365975804,44.9438006637284 146.1961808389096,45.55660736630226 146.5722213154893,45.849083292530246 146.89255209183318,46.15548664381718 147.07360861759355,46.40618029486931 147.26859256841286,46.78222077144899 147.96496382133645,48.96882650563038 148.15994777215576,49.33093955715112 148.34100429791613,49.51199608291149 148.661335074262,49.734834883847704 149.20450465154312,49.95767368478293 149.5526902780049,50.04123823513364 150.1515695555198,50.1387302105433 151.40503781078345,50.22229476089401 151.32147326043173,50.36156901147952Z"/>
  </g>
</svg>