<?xml version="1.0" encoding="UTF-8" standalone="no"?>
<svg viewBox="0 0 186.51841807909426 256" xmlns="http://www.w3.org/2000/svg">
  <style>
    g.zone {
      fill: lightgray;
      stroke-width: 2;
      stroke-linecap: square;
      stroke-linejoin: bevel;
      stroke-miterlimit: 3;
      stroke-opacity: 0.8;
      stroke: black;
      fill-opacity: 0.3;
    }
  </style>
  <g class="zone" id="zone">
    <path d="M133.52497175141085,152.44293785310757 133.7949529190199,154.79563088512265 134.5856120527287,158.8453483992471 134.89416195856603,160.04097928436946 135.2027118644061,161.02448210922796 135.53054613935893,161.87299435028334 135.9548022598866,162.77935969868253 136.51404896421744,163.80143126177072 137.24685499058245,164.91992467043374 138.0182297551785,165.96128060263746 138.84745762711836,166.9062146892663 139.52241054613683,167.58116760828614 140.27450094161736,168.25612052730733 142.82003766478073,170.16527306968055 143.74568738229544,170.9173634651611 144.63276836158187,171.80444444444475 145.230583804141,172.59510357815495 145.80911487758735,173.597890772129 146.00195856873702,174.0800000000005 146.1755178907712,174.71638418079203 146.31050847457436,175.75774011299436 146.32979284368986,177.85973634651592 146.42621468926473,178.4189830508481 146.54192090395236,178.80467043314476 146.8311864406769,179.3253483992473 147.23615819208905,179.78817325800466 147.64112994350123,180.1160075329575 148.1810922787193,180.4245574387948 148.64391713747526,180.598116760829 149.2224482109216,180.77167608286317 150.37951035781433,180.88738229755216 151.61370998116635,180.81024482109285 152.92504708097772,180.5402636534838 154.06282485875488,180.19314500941684 155.16203389830378,179.78817325800466 160.50380414312406,177.35834274953027 161.89227871939474,176.81838041431357 163.08790960451847,176.3941242937859 164.72708097928268,175.93129943502854 168.56467043314467,175.0056497175152 172.82651600753158,173.67502824858832 174.13785310734295,173.4050470809793 175.58418079096018,173.25077212806065 176.41340866290003,173.23148775894649 177.39691148775856,173.2893408662903 179.11322033898207,173.5400376647838 180.82952919020562,174.02214689265531 182.37227871939498,174.67781544256098 183.74146892655287,175.44919020715705 184.4164218455741,175.93129943502854 184.97566854990492,176.41340866290003 185.41920903954536,176.87623352165738 185.9013182674196,177.51261770244892 186.15201506591313,177.97544256120628 186.3641431261756,178.49612052730745 186.47984934086597,178.99751412429447 186.51841807909426,179.51819209039562 186.44128060263495,180.21242937853097 186.3062900188318,180.71382297551799 186.0941619585666,181.25378531073468 185.6891902071544,181.90945386064035 185.30350282485776,182.39156308851324 184.7635404896397,182.9315254237299 183.89574387947155,183.62576271186526 182.79653483992266,184.35856873823028 179.19035781544142,186.40271186440663 177.85973634651455,187.2319397363465 176.70267419962184,188.0225988700567 175.73845574387883,188.79397363465137 174.67781544256098,189.77747645951126 173.6171751412404,190.87668549905877 170.80165725047073,194.367156308851 169.72173258003735,195.5820715630889 168.56467043314467,196.7198493408661 167.46546139359577,197.5876459510356 166.3855367231624,198.30116760828648 165.2091902071542,198.8796986817328 163.91713747645835,199.36180790960432 161.5258757062136,200.03676082862552 160.5809416195834,200.36459510357835 159.55887005649657,200.84670433144984 158.59465160075084,201.5023728813569 158.11254237287935,201.9266290018832 157.59186440677954,202.48587570621544 156.78192090395245,203.58508474576294 156.37694915254028,204.33717514124348 156.04911487758744,205.0314124293788 155.77913370998115,205.76421845574382 155.4898681732566,206.7284369114882 155.27774011299414,207.7697928436919 155.08489642184443,209.00399246704393 154.77634651600712,213.2465536723167 154.5063653483981,215.77280602636594 154.15924670432975,218.1062146892655 153.7735593220331,220.01536723163872 153.25288135593055,221.9438041431261 152.71291902071522,223.64082862523549 152.1343879472689,225.14500941619653 150.803766478342,228.3462146892656 150.3216572504705,229.6382674199628 149.9359698681711,230.87246704331483 149.6659887005648,232.04881355932307 149.4538606402996,233.72655367231692 149.1645951035778,237.9691148775897 149.1645951035778,239.2418832391714 149.31887005649648,240.45679849340928 149.58885122410274,241.47887005649744 149.95525423728662,242.32738229755282 150.53378531073298,243.31088512241135 151.18945386063865,244.1401129943512 151.74870056496948,244.69935969868203 152.40436911487518,245.2971751412439 154.87276836157923,247.1677589453861 155.81770244820945,247.9777024482118 156.49265536723064,248.65265536723163 158.15111111111037,250.5232391713752 158.9032015065909,251.27532956685573 159.8867043314494,251.98885122410522 160.8316384180769,252.5288135593219 161.77657250470713,252.9530696798496 164.82350282485754,254.18726930320162 165.7105838041412,254.5922410546138 166.1541242937844,254.8429378531073 166.42410546139342,255.0936346516008 166.53981167608106,255.30576271186465 166.53981167608106,255.42146892655364 166.3276836158186,255.6335969868175 165.9612806026347,255.78787193973616 164.91992467043238,255.94214689265618 163.43502824858683,256 158.98033898305022,256 146.8890395480207,255.67216572504717 140.5637664783419,255.5757438794737 96.82681732580008,255.47932203389882 95.39977401129835,255.42146892655364 94.51269303201468,255.34433145009433 93.54847457626893,255.151487758946 92.9506591337098,254.95864406779768 92.46854990583557,254.72723163841832 92.04429378531061,254.38011299435132 91.79359698681711,254.01370998116744 91.67789077212674,253.66659133710044 91.65860640301123,253.10734463276825 91.75502824858607,252.6059510357826 91.94787193973578,252.0467043314504 92.33355932203243,251.17890772128086 93.52919020715616,249.07691148775933 94.47412429378365,247.5341619585686 95.51548022598871,245.97212806026374 96.73039548022523,244.29438794726988 98.0995856873804,242.63593220339015 99.35306967984795,241.24745762711947 103.26779661016926,237.313446327684 104.0970244821091,236.31065913370998 104.63698681732443,235.50071563088562 105.0033898305083,234.78719397363477 105.27337099811459,234.1508097928446 105.44693032014877,233.53370998116858 105.58192090395465,232.87804143126155 105.65905838041398,231.68241054613918 105.60120527306742,229.65755178907696 105.60120527306742,228.94403013182747 105.71691148775778,228.13408662900176 105.94832391713578,227.40128060263675 106.33401129943243,226.62990583804208 106.85468926553497,225.87781544256154 107.58749529189998,225.010018832392 109.22666666666419,223.2551412429388 110.03661016949127,222.23306967984925 110.3644444444441,221.69310734463258 110.5958568738221,221.19171374764693 110.76941619585628,220.69032015065991 110.84655367231561,220.16964218455738 110.82726930320008,219.35969868173302 110.57657250470658,218.6076082862525 110.15231638417889,217.97122410546234 109.55450094161702,217.39269303201598 108.89883239171134,216.9684369114883 108.06960451977149,216.5441807909606 104.48271186440576,215.19427495291959 102.90139359698537,214.46146892655457 102.18787193973589,214.01792843691138 101.5322033898302,213.4779661016947 100.93438794726833,212.8608662900187 100.52941619585616,212.28233521657233 100.124444444444,211.47239171374798 99.91231638417878,210.62387947269397 99.81589453860393,209.83322033898378 99.75804143126012,207.63480225988738 99.66161958568527,206.99841807909584 99.5073446327666,206.3620338983057 99.04451977401062,205.12783427495367 97.52105461393406,202.00376647834256 97.21250470809673,201.17453860640407 97.01966101694703,200.4610169491532 96.9039548022594,199.76677966101786 96.86538606402837,199.01468926553733 96.92323917137219,198.2625988700568 97.07751412429359,197.56836158192147 97.34749529189988,196.79698681732677 97.86817325800241,195.7170621468934 98.31171374764561,195.00354048964255 99.14094161958548,193.86576271186536 102.72783427495119,189.50749529190222 103.61491525423487,188.54327683615924 105.4854990583798,186.67269303201567 106.27615819208862,185.7856120527306 106.77755178907564,185.14922787194047 107.14395480225951,184.51284369114893 107.43322033898131,183.87645951035876 107.6067796610155,183.18222222222204 107.70320150659035,182.50726930320224 107.70320150659035,181.73589453860617 107.66463276835931,181.1380790960457 107.47178907721235,180.13529190207166 106.6425612052725,177.20406779661022 106.37258003766347,175.81559322033954 106.33401129943243,175.1213559322042 106.39186440677899,174.50425612052817 106.46900188323832,174.04143126177084 106.66184557438528,173.44361581920896 106.95111111110982,172.82651600753294 107.43322033898131,172.0744256120538 110.01732580037574,168.9696421845582 110.57657250470658,168.17898305084802 111.15510357815293,167.21476459510365 111.63721280602442,166.2891148775903 112.06146892655211,165.28632768361626 112.9678342749513,162.3936723163845 113.29566854990415,161.52587570621498 113.73920903954735,160.58094161958613 114.14418079095952,159.88670433145077 114.70342749529036,159.19246704331545 115.32052730696773,158.59465160075356 116.32331450093903,157.84256120527306 118.05890772127809,156.70478342749587 118.61815442561165,156.28052730696817 119.2352542372863,155.72128060263734 119.7173634651578,155.08489642184583 120.08376647834167,154.39065913371047 120.29589453860414,153.7349905838048 120.27661016949138,153.0793220338991 120.04519774011064,152.19224105461407 119.85235404896369,151.7872693032019 119.428097928436,151.1894538606414 118.90741996233346,150.572354048964 117.46109227871895,149.1645951035792 116.6704331450074,148.27751412429413 115.9954802259862,147.39043314501046 114.49129943502788,145.28843691148754 113.54636534839766,144.20851224105553 112.89069679849197,143.64926553672333 112.19645951035525,143.26357815442668 111.42508474576195,142.99359698681766 110.63442561205039,142.85860640301314 109.94018832391642,142.85860640301314 109.26523540489522,142.91645951035832 108.49386064029918,143.0900188323925 107.81890772127798,143.30214689265634 107.14395480225951,143.57212806026402 106.39186440677899,143.95781544256204 105.15766478342695,144.76775894538636 104.48271186440576,145.34629001883272 103.92346516007493,145.88625235404942 102.80497175141052,147.1590207156311 101.87932203389582,148.48964218455797 99.95088512240982,151.59442561205356 99.39163841807898,152.36580037664825 98.89024482109197,152.94433145009458 98.21529190207076,153.54214689265646 97.67532956685271,153.88926553672346 97.28964218455606,154.08210922787177 96.47969868173172,154.35209039548081 95.4961958568732,154.525649717515 91.21506591337076,154.7184934086633 90.03871939736254,154.85348399246783 86.58681732579997,155.33559322033932 84.17627118643972,155.5091525423735 82.57566854990381,155.5091525423735 80.60866290018677,155.41273069679866 79.02734463276639,155.25845574387998 77.38817325800218,155.00775894538648 75.38259887005411,154.62207156308847 68.76806026365351,153.13717514124292 66.80105461393373,152.5779284369121 64.71834274952906,151.88369114877673 63.48414312617703,151.38229755178972 62.249943502822255,150.84233521657305 60.591487758945284,149.955254237288 59.897250470808565,149.4731450094165 59.28015065913118,148.991035781545 58.31593220338818,148.00753295668648 57.6602636534825,147.10116760828728 57.15887005649548,146.07909604519773 56.90817325800197,145.19201506591406 56.75389830508331,144.09280602636517 56.77318267419883,143.16715630885184 56.94674199623301,141.89438794727013 57.75668549905735,138.1917890772127 58.12308851223848,136.88045197740132 58.528060263653394,135.6462523540493 59.99367231638342,131.94365348399322 61.51713747645725,127.45039548022693 62.32708097928433,125.46410546139437 63.0213182674183,124.05634651600816 63.86983050847368,122.62930320150643 66.89747645950857,118.09747645951049 67.97740112994194,116.36188323917145 69.250169491525,113.85491525423772 69.92512241054347,112.312165725047 70.46508474576152,110.88512241054664 70.71578154425502,110.03661016949263 70.96647834274853,108.82169491525475 71.06290018832338,107.68391713747756 71.08218455743616,106.39186440678036 70.98576271186406,105.31193973634699 70.79291902071435,104.07774011299496 70.54222222222084,103.05566854990677 70.17581920903697,102.05288135593274 69.67442561205269,101.03080979284455 69.21160075329396,100.2594350282485 68.38237288135412,99.33378531073517 67.59171374764529,98.6781167608295 66.83962335216476,98.19600753295661 66.08753295668423,97.81032015065996 62.75133709980928,96.40256120527376 61.65212806026313,95.86259887005707 60.37935969868007,95.05265536723273 59.434425612052586,94.31984934086636 58.585913370997204,93.50990583804202 56.71532956685501,91.46576271186427 55.69325800376546,90.44369114877608 54.53619585687276,89.4216195856879 51.43141242937854,86.77966101694966 49.502975517889794,85.00549905838095 47.80595103577904,83.23133709981224 46.20534839924588,81.30290018832486 45.39540489642154,80.20369114877597 44.62403013182549,79.04662900188328 43.910508474576,77.87028248587643 43.235555555554804,76.6360828625244 42.09777777777762,74.24482109227968 40.072919020714025,69.4430131826747 39.12798493408654,67.32173258003763 38.31804143125946,65.74041431261861 37.45024482109131,64.42907721280588 36.621016949151446,63.426290018833214 34.364745762709866,60.93860640301364 31.915630885121324,58.123088512241225 30.507871939735114,56.638192090395684 28.695141242936735,54.99902071563148 25.281807909602453,52.29920903954807 24.433295668549817,51.527834274953385 23.642636534838253,50.717890772129046 22.60128060263592,49.502975517891166 21.30922787193734,47.883088512241116 19.940037664782164,46.03178907721307 18.8215442561205,44.41190207156302 15.736045197739058,39.61009416195942 14.868248587568164,38.04806026365454 14.231864406778001,36.640301318268335 9.73860640301309,25.918192090395355 8.75510357815183,23.83548022598932 7.771600753293311,21.94561205273161 5.939585687382155,18.8215442561205 3.9340112994340797,15.755329566855947 1.8512994350266736,12.8626741996242 1.0027871939712971,11.821318267420496 0,10.683540489643315 0.5978154425591267,10.664256120527797 2.487683615816836,10.760677966102646 2.9119397363445243,10.741393596987129 3.374764595103248,10.64497175141228 4.454689265536616,10.259284369115628 6.248135593219477,8.967231638418415 6.460263653481951,8.85152542372942 6.788097928434791,8.735819209040423 7.193069679846961,8.793672316384237 8.42726930319899,9.160075329566741 9.970018832391082,9.507193973635099 10.664256120525057,9.58433145009443 11.011374764593414,9.507193973635099 11.184934086627594,9.372203389830586 11.319924670430737,9.121506591337075 11.416346516005586,8.716534839924906 11.416346516005586,8.369416195857918 11.204218455743112,7.36662900188388 11.069227871937228,6.093860640302186 10.837815442559236,5.457476459510653 10.432843691147065,4.608964218456648 10.413559322031547,4.26184557438829 10.548549905837431,4.0497175141244455 10.760677966099905,3.8954425612057846 10.97280602636512,3.799020715630936 12.20700564971715,3.644745762712275 12.959096045197677,3.4133333333342835 13.383352165722625,3.162636534840774 15.157514124292709,2.0248587570622227 15.71676082862354,1.7741619585687134 16.179585687382264,1.6584557438797176 16.93167608286005,1.581318267420387 18.03088512240894,1.2341996233520294 18.84082862523328,1.0799246704333683 19.207231638417156,0.9642184557443724 19.535065913369994,0.7520903954805283 19.72790960451969,0.5399623352166841 20.036459510357012,0 21.791337099811578,1.31133709981273 23.31480225988541,2.5841054613944245 28.290169491524566,7.096647834274854 32.301318267417976,10.355706214689105 34.364745762709866,12.264858757062333 36.87171374764496,14.771826741997426 38.51088512240916,16.64241054613962 41.34568738229709,20.40286252354089 44.97114877589385,24.529717514124666 45.81966101694648,25.667495291903215 46.41747645950835,26.55457627118689 47.32384180790754,28.07804143126209 48.09521657250359,29.524369114877963 51.29642184557265,36.15819209039547 52.877740112993045,39.14726930320206 54.90259887005389,42.67630885122397 56.00180790960278,44.3540489642192 56.792467043314346,45.47254237288224 57.73740112994183,46.6681732580046 58.8173258003752,47.86380414312696 63.86983050847368,52.839171374764746 67.86169491525158,57.04316384180785 69.11517890771913,58.45092278719406 70.34937853107115,60.070809792844116 70.98576271186406,61.07359698681815 71.54500941619489,62.134237288136006 72.0849717514102,63.36843691148803 73.31917137476222,66.4539359698681 73.83984934086476,67.6109981167608 74.43766478342663,68.67163841808002 75.38259887005411,70.06011299435072 76.40467043314366,71.2750282485886 76.98320150659002,71.85355932203494 77.87028248587369,72.6056497175141 79.29732580037542,73.60843691148814 81.88143126176985,75.2283239171382 83.05777777777531,76.0768361581922 84.07984934086487,77.04105461393657 84.56195856873637,77.63887005649707 85.1212052730672,78.39096045197759 85.60331450094145,79.1816195856878 86.0468549905819,80.04941619585732 86.4325423728813,80.95578154425651 86.74109227871863,81.82357815442603 87.03035781544044,83.05777777777806 87.39676082862431,85.42975517890864 87.78244821092096,87.49318267420053 88.53453860640148,90.54011299435093 89.09378531073231,92.39141242937897 89.76873822975352,94.35841807909601 90.52082862523405,96.28685499058476 91.35005649717391,98.19600753295661 92.23713747645758,100.0858757062157 93.1820715630878,101.93717514124374 94.1077212806025,103.5570621468938 95.43834274952664,105.77476459510434 96.57612052730657,107.5103578154434 97.79103578154307,109.22666666666693 99.2180790960448,111.11653483992463 100.52941619585616,112.73642184557468 103.01709981167573,115.53265536723158 104.46342749529025,117.01755178907712 106.08331450093893,118.54101694915232 107.64534839924653,119.91020715630887 109.01453860640171,121.0287005649719 110.44158192090343,122.0700564971756 111.88790960451794,123.03427495291997 112.77499058380161,123.57423728813666 113.98990583804085,124.21062146892682 117.73107344632524,125.88836158192069 120.41160075329452,127.27683615819275 121.83864406779624,127.97107344632809 128.47246704331238,130.92158192090503 132.86930320150518,132.63789077212854 134.60489642184422,133.42854990583874 136.01265536723042,134.2577777777786 137.1311487758921,135.06772128060294 138.30749529190032,136.1476459510363 139.1752919020712,137.18900188324002 139.67668549905824,138.0760828625237 139.92738229755173,138.8088888888887 139.98523540489555,139.23314500941638 140.00451977401107,139.71525423728926 139.85024482108966,140.42877589453875 139.54169491525235,141.06516007533028 138.94387947269047,141.89438794727013 136.8804519773986,143.9963841807917 135.81981167608075,145.19201506591406 135.08700564971573,146.21408662900225 134.5277589453849,147.17830508474663 133.98779661016684,148.43178907721278 133.659962335214,149.6659887005648 133.54425612052637,150.43736346516087 133.50568738229535,151.1894538606414 133.52497175141085,152.44293785310757Z"/>
  </g>
</svg>