<?xml version="1.0" encoding="UTF-8" standalone="no"?>
<svg viewBox="0 0 256 199.34934979061057" xmlns="http://www.w3.org/2000/svg">
  <style>
    g.zone {
      fill: lightgray;
      stroke-width: 2;
      stroke-linecap: square;
      stroke-linejoin: bevel;
      stroke-miterlimit: 3;
      stroke-opacity: 0.8;
      stroke: black;
      fill-opacity: 0.3;
    }
  </style>
  <g class="zone" id="zone">
    <path d="M254.4012930717779,167.82661082947632 254.42010138858112,168.31562706634244 254.36367643817414,168.89868488722325 253.91227683491314,171.00521636911333 253.89346851810993,171.3437660715591 253.91227683491314,171.83278230842652 254.02512673572704,172.28418191168885 254.1944015869506,172.67915656454292 255.1912423774887,174.61641319520945 255.45455881272292,175.27470428330042 255.62383366394647,175.91418705458818 255.79310851517002,176.81698626111157 255.92476673278983,177.8890603188598 256,179.16802586143535 255.98119168319678,180.24009991918226 255.8871500991834,181.27455734332543 255.62383366394647,182.47828961869078 254.43890970538433,185.97663654397167 253.76181030049014,188.44052604511072 253.49849386525588,189.2116670340156 253.0659025787954,190.1708911909486 252.40761149070443,191.14892366468212 251.4860039673792,192.16457277202207 250.45154654323736,193.12379692895374 248.26978179413712,194.96701197560688 244.00029387995002,198.3525090000725 243.22915289104245,198.82271692013805 242.34516200132094,199.14245830578193 241.57402101241604,199.2929248402023 240.70883843949778,199.34934979061057 239.71199764895968,199.31173315700548 238.79039012563177,199.1988832561889 237.041216662992,198.84152523693993 232.8657703328183,197.69421791198286 231.7560796414663,197.5061347439561 230.62758063331108,197.43090147674593 228.8219822202617,197.44970979354915 222.93497906105196,197.8446844464032 221.26103886562237,198.03276761442862 217.68745867312998,198.57820880170433 216.08875174491055,198.72867533612467 215.2611858055987,198.74748365292788 214.5652780839013,198.6910587025196 213.92579531261353,198.57820880170433 213.26750422452255,198.39012563367757 212.75967967085458,198.16442583204707 212.27066343398712,197.86349276320507 211.81926383072346,197.5061347439561 211.34905591065922,197.05473514069507 209.0732495775456,194.21467930350386 206.13915215634367,190.75394901182807 205.44324443464896,189.8323414885015 204.87899493057134,188.96715891558188 204.46521196091408,188.1584012930719 203.6940709720065,186.3716111968257 203.41194621996905,185.9014032767615 203.07339651752196,185.48762030710424 202.60318859745772,185.07383733744697 201.98251414297317,184.7352876350012 201.3430313716827,184.49077951656747 199.46219969142584,183.94533832929176 198.87914187054503,183.71963852766126 198.44655058408455,183.45632209242433 198.01395929762674,183.09896407317535 197.67540959517964,182.7039894203213 197.39328484314217,182.17735654984878 197.18639335831222,181.5190654617578 197.05473514069507,180.82315774006307 196.99831019028545,180.1460583351702 196.9795018734849,178.81066784218638 197.09235177429883,177.56931893321592 197.48732642715288,174.42833002718402 197.58136801116626,171.85159062522973 197.65660127837643,170.91117478509994 197.95753434721976,169.48174270810273 198.74748365292788,167.14951142458213 199.02960840496536,166.1902872676505 199.5186246418328,163.61354786569618 199.65028285945257,163.19976489604025 199.8759826610831,162.74836529277792 200.27095731393715,162.29696568951556 200.94805671882867,161.86437440305642 201.7944309749464,161.58224965101763 202.86650503269465,161.375358166189 204.50282859451784,161.26250826537373 206.42127690838115,161.20608331496544 211.12335610902872,161.35654984938577 212.0825802659604,161.35654984938577 213.07942105649846,161.22489163176866 213.41797075894556,161.11204173095206 213.71890382778622,160.94276687972985 213.98222026302048,160.73587539490123 214.15149511424403,160.4913672764675 214.28315333186384,160.15281757402042 214.32076996546758,159.77665123796956 214.2455366982574,159.00551024906332 213.7753287781932,156.7297039159497 213.64367056057606,155.52597164058434 213.68128719417982,154.4350892660342 213.7941370949964,153.8708397619566 213.96341194621994,153.4006318418924 214.2455366982574,152.7987657042097 214.5652780839013,152.27213283373717 214.94144441995482,151.78311659686975 215.43046065682225,151.29410036000232 215.95709352729344,150.8803173903464 216.4837263977646,150.56057600470115 217.23605906986896,150.22202630225541 217.83792520755298,150.03394313423 218.64668283006432,149.88347659980832 219.51186540298258,149.82705164940134 220.5463228271244,149.84585996620322 223.74373668356327,150.01513481742677 224.9286606421281,149.97751818382167 227.20446697523906,149.84585996620322 228.16369113217073,149.84585996620322 228.8595988538681,149.9022849166115 229.59312320916928,150.03394313423 230.25141429725758,150.22202630225541 230.8720887517448,150.48534273749098 231.71846300785987,150.93674234075334 232.508412313568,151.51980016163415 233.52406142090928,152.38498273455244 234.61494379545806,153.41944015869427 235.6494012195999,154.52913085004758 236.51458379252082,155.58239659099263 238.4894570567911,158.38483579457744 238.99728161046176,158.93027698185315 239.58033943134257,159.3252516347072 240.1633972522207,159.56975975314091 241.0661964587454,159.73903460436446 241.89376239805995,159.77665123796956 244.58335170082816,159.66380133715296 245.4297259569459,159.70141797075806 246.35133348027114,159.8330761883765 247.21651605319207,160.03996767320515 248.23216516053068,160.39732569245413 249.21019763426557,160.88634192932156 250.01895525677688,161.41297479979409 250.79009624568178,162.03364925427996 251.56123723458936,162.82359855998808 252.35118654029745,163.78282271691972 253.08471089559862,164.7608551906546 253.6489603996762,165.66365439717796 254.04393505253026,166.45360370288742 254.26963485416078,167.11189479097706 254.4012930717779,167.82661082947632Z"/>
    <path d="M44.29358607009046,97.85967232385629 43.804569833223034,99.28910440085217 43.57887003159252,100.37998677540229 43.46602013077594,101.39563588274224 43.3155535963556,103.87833370068316 43.20270369554168,104.74351627360278 42.958195577107965,105.55227389611409 42.63845419146408,106.17294835059866 42.14943795459664,106.73719785467625 41.509955183308875,107.24502240834556 40.72000587759809,107.67761369480604 38.74513261332782,108.54279626772431 37.57901697156619,109.144662405407 36.58217618103079,109.78414517669478 35.98031004334676,110.23554477995712 35.43486885607237,110.72456101682455 34.58849459995731,111.66497685695434 33.96782014547007,112.69943428109617 33.760928660642776,113.16964220116039 33.55403717581281,113.7903166556463 33.42237895819568,114.78715744618303 33.478803908602636,115.61472338549756 33.61046212622244,116.16016457277195 33.760928660642776,116.51752259202092 34.193519947100576,117.25104694732207 34.55087796635088,117.66482991697934 34.96466093600815,118.05980456983339 35.792226875322676,118.66167070751608 36.807875982661294,119.20711189479047 40.15575637352049,120.67416060539277 41.378296965689074,121.33245169348375 42.093013004187014,121.85908456395494 42.657262508264616,122.40452575123066 43.108662111528304,122.96877525530827 43.48482844757915,123.57064139299095 43.78576151641982,124.24774079788381 44.011461318053,124.96245683638175 44.124311218866914,125.60193960766952 44.18073616927388,126.63639703181268 44.16192785247334,127.68966277275771 43.89861141723641,131.1503930644335 43.74814488281607,132.2224671221804 43.50363676438236,133.23811622952036 43.27793696275185,133.93402395121643 41.961354786569885,137.30071265887884 41.15259716405857,140.12196017926686 40.85166409521789,140.96833443538324 40.45668944236384,141.75828374109136 40.15575637352049,142.1908750275505 39.798398354272855,142.60465799720777 39.34699875100917,142.9996326500618 38.66989934611765,143.41341561971907 37.7294835059892,143.77077363896805 36.88310924987146,143.9400484901916 35.811035192123214,144.01528175740177 34.55087796635088,143.95885680699348 33.40357064139247,143.78958195577127 31.84248034677946,143.4698405701274 30.300198368966992,143.01844096686503 28.77672470795773,142.51061641319438 27.25325104694847,141.9275585923149 24.78936154580809,140.8366762177648 22.776871647931397,139.7646021600179 21.685989273382614,139.0686944383218 20.896039967674504,138.485636617441 19.598266108295753,137.33832929248393 18.37572551612717,136.00293879950007 13.654837998679051,129.79619425464645 12.563955624127594,128.19748732642702 11.755198001616275,126.80567188303623 8.877525530821304,121.33245169348375 7.335243553008834,118.64286239071286 6.300786128867007,117.1758136801119 4.269487914187104,114.93762398060336 3.5359635588859533,114.01601645727679 2.915289104401392,113.07560061714835 2.463889501140379,112.19160972742687 2.0312982146799037,111.11953566967861 1.5798986114188909,109.85937844390628 1.0532657409450363,108.11020498126518 0.7711409889075714,106.98170597310997 0.5830578208808129,105.94724854896815 0.47020792006422335,104.9880243920365 0.2821247520401377,101.71537726838612 0,100.11667034016669 2.1065314818900727,99.94739548894314 3.8368966277293013,99.68407905370623 5.7929615751963635,99.7781206377196 6.4700609800905555,99.74050400411451 7.54213503783613,99.60884578649606 10.156491073396847,99.1574461832337 10.64550731026428,99.17625450003692 11.868047902432865,99.43957093527251 12.300639188890667,99.43957093527251 12.545147307324383,99.36433766806233 13.767687899492968,98.76247153037966 15.648519579752534,98.17941370950017 16.175152450223717,97.89728895746137 16.607743736684192,97.59635588861936 16.94629343913129,97.2389978693704 17.153184923958584,96.9004481669233 17.20960987436554,96.52428183087245 17.096759973551624,95.58386599074267 17.228418191168753,95.32054955550707 17.47292630960247,95.15127470428352 18.714275218574265,94.8879582690466 19.353757989862036,94.6058335170078 19.692307692309132,94.53060024979763 20.670340166041328,94.47417529939068 21.89288075820991,94.64345015061288 22.287855411063966,94.6622584674161 23.830137388876434,94.22966718095695 26.350451840423773,93.8346925281029 27.40371758136881,93.62780104327427 28.231283520683338,93.34567629123546 29.416207479245504,92.57453530232924 30.09330688413702,92.23598559988214 32.01175519800301,91.63411946219945 32.914554404525035,91.48365292777912 33.497612225405845,91.5212695613842 34.15590331349683,91.7469693630147 36.055543310556935,92.74381015355279 36.86430093306825,93.2516347072221 38.04922489163309,94.21085886415375 40.230989640730655,96.39262361325399 41.13378884725535,97.2389978693704 41.660421717729214,97.61516420542257 42.111821320990224,97.8220556902512 42.86415399309458,97.97252222467154 43.42840349717219,97.97252222467154 44.29358607009046,97.85967232385629Z"/>
    <path d="M39.32819043420863,75.17684225993693 39.62912350304931,74.06715156858493 40.11813973991674,72.60010285798263 40.513114392770795,71.77253691866945 41.3030636984789,70.4183381088824 41.60399676731958,69.76004702079275 41.84850488575329,68.87605613107127 41.942546469766675,68.04849019175673 41.942546469766675,67.52185732128422 41.77327161854313,66.61905811476085 41.75446330174259,65.8291088090514 41.641613400926,65.45294247300056 41.227830431268735,64.45610168246249 40.21218132393012,62.951436338256435 39.930056571889985,62.44361178458579 40.83285577841468,62.85739475424305 41.58518845051904,63.083094555873565 42.46917934024053,63.21475277349202 43.33436191315881,63.23356109029523 44.2183528028803,63.15832782308507 45.49731834545584,62.98905297186152 47.246491808095605,62.537653368599166 47.79193299537267,62.27433693336358 48.130482697817094,61.954595547718355 48.37499081625081,61.503195944457346 48.46903240026419,60.56278010432756 48.393799133054024,58.870031592094755 48.544265667474356,58.456248622437485 48.92043200352788,58.02365733597835 49.258981705972296,57.797957534347844 50.31224744691733,57.384174564690575 52.15546249357048,56.25567555653537 52.588053780030954,55.86070090368132 53.133494967305346,55.202409815590336 53.396811402542276,55.03313496436679 54.39365219308036,54.7698185291312 54.61935199471086,54.656968628315944 55.40930130041897,54.073910807435134 56.34971714054741,53.64131952097599 57.741532583939545,53.24634486812194 59.75402248181624,52.794945264859585 60.22423040188046,52.62567041363604 60.46873852031418,52.437587245610615 60.54397178752435,52.230695760781984 60.52516347072114,51.94857100874319 60.05495555065691,50.48152229814088 59.77283079861945,50.12416427889191 58.98288149291134,49.57872309161752 58.437440305634276,49.03328190434179 58.24935713761019,48.751157152302994 58.174123870400024,48.50664903387061 58.174123870400024,48.28094923223877 58.28697377121394,48.09286606421335 58.49386525604391,47.96120784659488 58.888839908897964,47.867166262581506 59.2461979281456,47.848357945779625 60.09257218426334,47.9235912129898 60.80728822276128,47.848357945779625 61.52200426125922,47.6602747777542 61.93578723091648,47.45338329292557 62.12387039894324,47.20887517449186 62.25552861656037,46.926750422453054 62.462420101387664,46.2496510175602 62.65050326941442,45.32804349423229 62.78216148703155,44.98949379178653 63.064286239071684,44.61332745573435 63.459260891925744,44.387627654103845 64.49371831606757,44.19954448607842 65.3212842553821,44.14311953567013 68.18014840937386,44.368819337300636 68.61273969583434,44.27477775328859 69.32745573433228,43.95503636764471 69.68481375358257,43.63529498200082 69.98574682242325,43.25912864594864 70.17382999045002,42.882962309896456 70.45595474248748,42.07420468738514 71.17067078098542,40.889280728822975 71.77253691866945,40.06171478950844 71.92300345308978,39.72316508706269 71.97942840349674,39.4034237014188 72.48725295716739,39.47865696862897 73.18316067886211,39.45984865182576 73.74741018293972,39.422232018220676 74.16119315259698,39.29057380060221 74.33046800382053,39.12129894938 74.763059290281,38.36896627727564 75.21445889354202,37.879950040408204 75.6470501800025,37.635441921975826 76.56865770332773,37.31570053633194 76.79435750495824,37.071192417898224 77.37741532583905,36.22481816178182 77.62192344427277,35.96150172654489 78.03570641393003,35.67937697450609 78.76923076923119,35.39725222246729 78.80684740283493,35.28440232165203 78.73161413562475,35.1339357872317 77.73477334508935,34.04305341268157 77.28337374182567,33.70450371023448 77.03886562339196,33.44118727499889 76.88839908897161,33.196679156565175 76.7755491881577,32.91455440452637 76.7755491881577,32.72647123650095 76.85078245536786,32.481963118067235 77.52788186025938,31.278230842700523 77.9040481963129,30.845639556241384 78.18617294835036,30.695173021821045 78.44948938358729,30.71398133862292 79.69083829255642,31.46631401072728 80.25508779663402,31.654397178752703 80.6876790830945,31.710822129161 81.00742046873837,31.616780545147616 83.33965175225896,30.695173021821045 83.8474763059296,30.601131437807666 84.78789214605806,30.563514804202583 85.01359194768855,30.488281536992414 85.1828667989121,30.35662331937395 85.502608184556,29.92403203291481 85.82234957019988,29.20931599441687 85.93519947101646,28.02439203585337 86.14209095584376,27.253251046947135 86.12328263904323,26.989934611711544 85.99162442142342,26.80185144368612 85.08882521489872,26.294026890015477 84.63742561163771,25.917860553964633 84.24245095878366,25.372419366688906 83.79105135551997,24.563661744177587 83.58415987069267,24.2439203585337 83.37726838586538,24.03702887370507 82.7189772977744,23.548012636837633 82.47446917934069,23.32231283520713 82.32400264492034,22.983763132761368 82.3804275953273,22.664021747116145 82.6061273969578,22.381896995077344 82.9446770994049,22.118580559841753 83.39607670266592,21.836455807802952 83.82866798912639,21.64837263977753 84.392917493204,21.460289471750773 85.46499155095225,21.196973036515182 86.81919036073795,20.952464918081464 87.28939828080217,20.820806700463 87.68437293365623,20.65153184923945 88.06053926970708,20.350598780398776 88.8692968922184,19.48541620747916 89.41473807949546,19.01520828741494 90.97582837410847,18.13121739769345 92.49930203511772,17.529351260010763 93.15759312320871,17.13437660715671 93.42090955844564,16.85225185511791 93.7030343104831,16.438468885460644 93.81588421129969,15.987069282198293 93.81588421129969,15.59209462934424 94.3801337153773,15.629711262949323 95.05723312027149,15.51686136213407 95.48982440672928,15.328778194108649 95.8659907427828,15.027845125266637 96.41143193005719,14.42597898758395 96.74998163250429,13.786496216296179 96.90044816692463,12.97773859378486 96.91925648372516,11.868047902432865 97.01329806773855,11.491881566380684 97.23899786936906,11.02167364631646 97.53993093821241,10.64550731026428 98.32988024392051,9.874366321358044 99.00697964881203,8.990375431636556 99.72169568731265,8.256851076335407 99.9850121225469,7.918301373889646 100.21071192418007,7.448093453824087 100.45522004261379,6.338402762472092 100.6809198442443,5.736536624789405 101.00066122988818,5.228712071120097 102.05392697083322,3.8368966277279646 102.43009330688406,3.404305341268826 102.99434281096167,2.915289104401392 103.42693409742215,2.670780985967675 103.87833370068316,2.482697817942253 104.36734993755059,2.3698479171269997 105.40180736169242,2.275806333113621 106.6431562706642,2.0689148482849884 107.3954889427659,2.0501065314831144 107.90331349643654,2.144148115495157 109.03181250459176,2.6895893027708855 109.65248695907631,2.8964807875981817 109.93461171111645,2.915289104401392 110.74336933362777,2.8400558371912235 111.213577253692,2.8400558371912235 113.03798398354192,3.253838806848488 113.63985012122595,3.329072074058657 114.05363309088321,3.329072074058657 114.73073249577473,3.1597972228351088 116.40467269120433,2.633164352362591 117.90933803541306,1.9936815810748194 118.83094555873829,1.5234736610105961 119.43281169642232,1.278965542576879 120.89986040702462,0.9027992065246987 122.14120931599373,0.43259128646047534 123.53302475938587,0.11284990081658965 123.68349129380621,0 123.62706634339925,0.09404158401337923 123.75872456101638,0.26331643523692727 124.11608258026668,1.0156491073399518 124.52986554992394,2.200573065903452 124.71794871794803,2.557931085152422 124.88722356917158,2.7836308867829285 125.05649842039513,2.8400558371912235 125.20696495481546,2.7836308867829285 125.41385643964543,2.5203144515473377 125.48908970685561,2.1817647491002417 125.6959811916829,2.1629564322983676 125.84644772610324,2.25699801631041 126.29784732936692,2.72720593637597 127.53919623833605,3.3666887076637413 127.78370435676976,3.5547718756891635 127.95297920799331,3.7428550437145853 128.00940415840026,3.8933215781362596 127.97178752479653,4.062596429359807 127.59562118874301,4.419954448608777 127.29468811990233,4.908970685474875 126.65520534861456,5.379178605540435 126.48593049739101,5.68011167438111 126.3730805965771,6.075086327236501 126.42950554698405,6.338402762472092 126.67401366541777,6.5641025641025985 127.10660495187557,6.733377415326147 127.61442950554621,6.808610682536315 128.31033722724362,6.658144148115977 129.98427742267322,6.03746969363008 130.1911689075005,5.7929615751977 130.34163544192086,5.266328704725182 130.45448534273743,5.021820586291465 130.62376019396098,4.833737418264707 130.8870766291979,4.645654250239284 131.3196679156557,4.476379399015737 132.44816692381093,4.194254646976935 133.2004995959153,3.9121298949381336 133.9716405848202,3.5359635588872895 134.5358900888978,3.404305341268826 135.006098008962,3.3854970244656153 136.28506355154022,3.630005142899332 137.63926236132593,3.705238410109501 138.16589523179712,3.667621776504417 138.95584453750521,3.5359635588872895 139.53890235838603,3.347880390860531 139.99030196164705,3.0845639556249402 140.3100433472936,2.7836308867829285 140.7426346337514,2.200573065903452 140.9683344353819,2.0501065314831144 141.23165087061884,1.9936815810748194 141.88994195870984,2.0124898978766934 142.2849166115639,1.974873264271609 143.60149878774584,1.6551318786277234 143.94004849019026,1.5234736610105961 144.2221732422304,1.2601572257736688 144.48548967746734,0.4137829696572649 144.59833957828124,0.26331643523692727 144.7488061127016,0.16927485122354805 144.95569759753155,0.11284990081658965 145.25663066637225,0.11284990081658965 145.95253838806696,0.24450811843371686 146.55440452575098,0.3009330688420117 146.89295422819808,0.3761663360521805 148.54808610682446,1.0908823745501208 148.96186907648172,1.3353904929838376 149.84585996620322,2.219381382705326 150.54176768789796,2.8212475203880127 150.89912570714824,3.3854970244656153 151.46337521122587,5.021820586291465 151.63265006244941,5.849386525604658 151.6138417456462,6.319594445668882 151.46337521122587,6.8462273161414 151.16244214238517,7.410476820219002 150.69223422232096,8.106384541915068 150.56057600470115,8.463742561164038 150.56057600470115,8.74586731320284 150.61700095510813,8.990375431636556 150.8050841231349,9.310116817280443 150.99316729116163,9.498199985305865 152.94923223863137,10.890015428697996 153.96488134596999,11.43545661597239 154.69840570127113,11.679964734406106 156.82374549996175,12.225405921681835 158.04628609213034,12.375872456102172 159.1371684666818,12.432297406510466 159.8330761883765,12.394680772905383 160.24685915803377,12.244214238483709 160.8111086621114,11.774006318419485 161.0556167805451,11.661156417604232 161.75152450223985,12.620380574535888 162.3910072735276,13.391521563442124 163.0681066784218,14.06862096833498 163.78282271691972,14.614062155609371 164.9865549922851,15.272353243700353 168.2215854823304,16.68297700389436 171.41899933876925,18.48857541694242 172.41584012930733,19.146866505033405 172.90485636617476,19.541841157887458 173.2998310190288,19.993240761149806 173.4879141870529,20.425832047608946 173.52553082065933,20.839615017266212 173.41268091984273,21.17816471971197 173.14936448460847,21.554331055764152 172.00205715965006,22.701638380722567 171.6258908235992,23.209462934391873 171.51304092278264,23.491587686430677 171.49423260597942,23.79252075527135 171.55065755638904,24.07464550731015 171.71993240760992,24.356770259348952 171.96444052604363,24.638895011387756 172.24656527808378,24.902211446624683 173.14936448460847,25.447652633899075 174.12739695834068,25.899052237161424 177.38123576518916,27.290867680553557 178.20880170450368,27.723458967012693 178.71662625817166,28.04320035265658 179.26206744544874,28.49459995591893 179.69465873190651,29.002424509588238 180.0332084343536,29.623098964074135 180.2400999191836,30.187348468151736 180.4657997208141,30.977297773859846 180.61626625523442,31.936521930791503 180.72911615605102,33.64807875982752 180.69149952244462,34.66372786716614 180.61626625523442,35.45367717287558 180.31533318639376,37.014767467489925 180.0332084343536,37.879950040408204 179.8075086327231,38.40658291088072 179.52538388068297,38.91440746455137 179.16802586143535,39.38461538461559 178.7542428917781,39.779590037469646 178.3216516053176,40.06171478950844 177.81382705164964,40.26860627433708 177.3248108147822,40.362647858350456 176.72294467709818,40.40026449195554 175.989420321797,40.34383954154725 175.23708764969533,40.23098964073199 174.25905517596047,40.005289839101486 172.56630666372766,39.47865696862897 171.2309161707425,38.876790830946284 170.53500844904775,38.40658291088072 169.97075894497016,37.86114172360633 169.4629343912995,37.165234001910264 168.6541767687882,35.82984350892643 168.14635221512023,35.15274410403357 167.82661082947632,34.87061935199477 167.46925281022604,34.626111233561055 167.05546984056878,34.43802806553563 166.60407023730775,34.287561531115294 165.56961281316592,34.118286679891746 164.4223054882075,34.08067004628666 156.7673205495548,34.24994489751021 155.84571302622956,34.21232826390512 153.79560649474644,33.96782014547141 152.94923223863137,33.89258687826124 152.14047461612006,33.96782014547141 151.51980016163282,34.17471163030004 151.18125045918572,34.381603115127334 150.95555065755522,34.60730291675918 150.59819263830758,35.209169054441865 150.37249283667708,35.942693409743015 150.01513481742677,38.143266475645135 149.6953934317829,39.29057380060221 148.17191977077363,43.052237161120004 147.66409521710298,44.06788626845996 147.0998457130254,44.97068547498332 146.4603629417376,45.74182646388956 145.76445522004286,46.381309235177326 140.6109764161343,50.048931011681745 139.99030196164705,50.65079714936443 139.70817720960957,51.02696348541661 139.46366909117586,51.44074645507388 138.9370362207047,51.42193813827067 137.1502461244585,51.6288296230993 136.77407978840498,51.61002130629609 136.37910513555093,51.53478803908592 135.83366394827652,51.327896554257286 134.68635662331812,50.70722209977273 133.72713246638645,50.29343913011546 128.74292851370143,48.4878407170674 126.89971346704827,47.6602747777542 125.45147307324919,47.19006685768865 123.85276614502976,46.51296745279579 122.76188377047829,46.212034383955114 121.40768496069259,46.06156784953344 120.73058555580107,45.91110131511311 120.31680258614381,45.72301814708768 119.43281169642232,45.15876864301008 118.73690397472491,44.91426052457636 117.21343031371565,44.594519138932476 115.05047388141863,44.030269634854875 113.16964220116172,43.78576151642116 112.24803467783381,43.74814488281607 110.12269487914054,43.91741973403962 107.41429725956911,44.06788626845996 105.92844023216627,44.368819337300636 104.49900815516772,44.594519138932476 103.84071706707674,44.7826023069579 103.03195944456809,45.19638527661517 101.84703548600325,46.042759532731566 100.96304459628176,46.47535081919071 100.02262875615332,47.05840864007018 99.15744618323504,47.45338329292557 98.76247153038099,47.697891411359294 96.6371317316877,49.334214973183805 95.82837410917638,50.255822496510376 95.56505767393946,50.46271398133901 94.86914995224473,50.801263683786104 93.81588421129969,51.10219675262678 93.2704430240253,50.782455366982894 92.48049371831719,50.406289030930715 91.85981926382996,50.18058922930021 91.1262949085288,49.97369774447157 89.64043788112596,49.76680625964294 88.75644699140447,49.74799794284107 87.87245610168299,49.76680625964294 86.2925574902641,49.9548894276697 84.26125927558687,50.425097347733924 81.98545294247324,51.17743001983695 79.82249651017622,52.02380427595335 78.3366394827707,52.794945264859585 77.32099037543209,53.49085298655565 76.47461611931435,54.26199397546189 75.70347513040944,55.24002644919542 75.34611711115915,55.80427595327302 74.89471750789814,56.707075159797725 73.5217103813092,59.810447432224535 72.91984424362519,60.97656307398483 72.16751157152349,62.123870398941904 70.68165454411799,64.09874366321351 70.023363456027,65.18962603776363 69.60958048637241,66.03600029388004 68.38703989420382,69.12056424950364 67.8980236573364,70.02336345602833 67.352582470062,70.79450444493457 66.80714128278494,71.37756226581405 66.01719197707683,72.09227830431333 61.014179707588575,75.96679156564504 57.12085812945499,78.86327235324322 56.08640070531316,79.70964660935962 55.08955991477508,80.65006244948941 53.998677540226296,81.89141135845986 53.18991991771498,83.07633531702336 52.64447873043792,84.03555947395503 51.47836308867896,86.40540739108069 50.65079714936443,87.96649768569503 50.01131437807666,87.4962897656308 49.409448240392635,87.12012342957863 47.45338329292557,86.34898244067374 46.512967452794456,85.87877452060818 45.76063478069277,85.38975828374073 45.04591874219483,84.73146719565109 44.76379399015469,84.35530085959891 44.61332745573435,84.01675115715182 44.29358607009046,82.56851076335272 44.124311218866914,82.06068620968341 43.823378150026244,81.42120343839565 43.14627874513205,80.19866284622707 42.71368745867425,79.55918007493929 42.33752112262073,79.12658878848015 41.961354786569885,78.76923076923119 40.4002644919542,77.60311512747089 39.798398354272855,76.96363235618313 39.535081919035925,76.53104106972265 39.32819043420863,76.07964146646164 39.271765483799,75.64705018000116 39.32819043420863,75.17684225993693Z"/>
  </g>
</svg>