<?xml version="1.0" encoding="UTF-8" standalone="no"?>
<svg viewBox="0 0 256 181.51321419582013" xmlns="http://www.w3.org/2000/svg">
  <style>
    g.zone {
      fill: lightgray;
      stroke-width: 2;
      stroke-linecap: square;
      stroke-linejoin: bevel;
      stroke-miterlimit: 3;
      stroke-opacity: 0.8;
      stroke: black;
      fill-opacity: 0.3;
    }
  </style>
  <g class="zone" id="zone">
    <path d="M139.78085409849857,172.64267136504586 138.79285174930897,172.1916268143288 137.48267472103402,171.48284252034375 136.0436278211274,170.94588472187124 135.63553989428655,170.70962329054288 135.27040859132498,170.28005705176545 134.7764074167317,169.42092457420756 134.32536286601464,168.86248846379542 132.9937075258001,167.7456162429726 131.79092205722026,166.41396090275953 131.03918113935748,165.81256816846962 130.43778840506909,165.5118718013239 129.79343904690145,165.25413205805745 126.7864753754534,164.48091282825658 125.66960315462907,164.115781525295 124.87490561288703,163.7291719103938 123.54325027267551,162.80560449702006 123.09220572195845,162.56934306569173 122.51229129960666,162.46195150599814 120.68663478479881,162.4404731940585 118.47436865508976,162.31160332242527 116.71314707609777,162.05386357915881 114.97340380904541,162.11829851497467 111.75165701820714,162.37603825824266 111.2146992197346,162.37603825824266 110.78513298095719,162.29012501048564 110.18374024666575,162.0109069552811 109.79713063176455,161.58134071650213 109.60382582431394,161.19473110160092 108.98095477808592,159.19724809128212 108.76617165869874,158.85359510025867 108.57286685124814,158.72472522862543 108.33660541991827,158.72472522862543 108.03590905277255,158.78916016444282 106.16729591408848,159.4979444584263 105.65181642755253,159.73420588975466 104.57790083060746,160.3570769359827 104.19129121570626,160.50742511955553 103.52546354560202,160.57186005537292 103.18181055457704,160.50742511955553 102.79520093967584,160.37855524792232 102.27972145314294,160.09933719271623 102.75224431579962,158.9609866599538 102.75224431579962,158.63881198086995 102.00050339793685,157.00646027351118 101.85015521436551,156.14732779595482 101.65685040691491,155.86810974074874 101.27024079201371,155.50297843778716 101.11989260844237,155.65332662136004 100.43258662639546,156.8346337780002 100.28223844282412,157.24272170483954 100.08893363537352,158.08037587045777 99.7882372682278,158.38107223760198 99.48754090108208,158.4884637972971 97.98405906535959,158.6173336689303 97.23231814749683,158.74620354056506 96.56649047738954,158.9609866599538 95.38518332074935,159.4764661464882 93.96761473277928,159.84159744944978 92.55004614481227,159.92751069720526 91.51908717174342,159.86307576138788 89.56456078530083,159.3046396509757 87.09455491232532,158.7676818525032 85.11855021394615,158.16628911821326 84.53863579159434,158.08037587045777 84.10906955281693,158.14481080627516 83.87280812148705,158.27368067790837 83.67950331403645,158.46698548535898 83.12106720362429,159.45498783454858 82.60558771709138,160.03490225689885 81.68202030371765,160.59333836731102 80.15706015605552,161.30212266129604 79.79192885309395,161.60281902844025 79.62010235758298,161.98942864334145 79.38384092625311,163.27812735967674 79.1475794949263,164.05134658947765 78.80392650390131,164.58830438795016 78.33140364124768,164.95343569091327 76.31244231898923,165.72665492071414 75.88287608020876,165.9843946639806 74.93783035489538,166.73613558184337 74.07869787734055,167.20865844449852 71.67312694018091,168.00335598623903 70.66364627905168,168.4544005369561 68.66616326873287,169.50683782196305 68.17216209413655,169.87196912492615 67.39894286433415,170.55927510697154 66.96937662555672,170.79553653829836 66.30354895544944,170.90292809799348 64.60676231227635,170.85997147411575 63.12475878849044,171.11771121738218 61.53536370500941,171.74058226361174 59.70970719020157,172.17014850239067 57.77665911569861,172.92188942025192 56.38056883966818,173.32997734709124 55.73621948150053,173.60919540229733 54.68378219649509,174.18910982464914 53.996476214448165,174.42537125597593 53.373605168220145,174.46832787985522 50.53846799228308,174.33945800822048 48.6913331655356,173.99580501719853 47.961070559612466,173.93137008138115 46.672371843277155,173.9743267052589 44.26680090611751,174.1676315127095 43.257320244988286,174.27502307240462 42.54853595100479,174.42537125597593 40.20739994966099,175.32746035741158 39.11200604077628,175.6496350364954 37.350784461784286,175.88589646782376 35.67547613054778,176.20807114690757 34.32234247839662,176.27250608272342 33.6994714321686,176.18659283496794 32.86181726655035,175.97180971557924 32.45372933971256,175.82146153200637 32.045641412871724,175.58520010067804 31.5516402382754,175.19859048577834 31.057639063682135,174.72606762312165 28.974242805604785,172.44936655759525 28.265458511621283,171.93388707106234 27.51371759375851,171.65466901585626 26.847889923651223,171.52579914422304 25.988757446096386,171.54727745616114 22.2730094806618,171.9983220068782 21.392398691167326,171.9124087591227 19.8030036076863,171.54727745616114 19.223089185334498,171.46136420840566 18.25656514808454,171.50432083228338 17.31151942277117,171.69762563973399 16.83899656011448,171.8909304471846 16.516821881032183,172.1057135665733 16.216125513886464,172.4064099337175 15.979864082559645,172.81449786055833 15.120731605001756,174.61867606342653 14.32603406326277,176.12215789915209 13.789076264790232,177.32494336773038 12.929943787232343,178.67807701988306 12.564812484270774,179.34390468998885 12.242637805185423,180.31042872724032 12.006376373858606,181.51321419582013 11.2331571440562,180.9762563973476 10.094806611295278,180.31042872724032 6.894538132396643,178.67807701988306 6.056883966778387,178.14111922141055 5.455491232486949,177.69007467069196 4.725228626563812,177.00276868864657 4.037922644519942,176.12215789915209 3.543921469923622,175.19859048577834 3.221746790838269,174.1676315127095 3.0928769192065695,173.22258578739763 3.1143552311462037,171.97684369494007 3.3291383505333867,170.6237100427874 3.9949660206406743,167.0797885728653 4.102357580335792,165.94143804010287 4.102357580335792,164.95343569091327 3.9520093967644585,163.66473697457795 3.4150515982888705,160.89403473445674 3.243225102777903,159.4979444584263 3.157311855022419,157.71524456749623 3.0713986072669357,152.75375450960559 2.964007047571818,151.07844617836906 2.727745616245001,149.1453981038661 2.47000587297855,147.68487289201983 2.169309505832831,146.35321755180678 0.5799144223518041,140.38224683278693 0.27921805520608506,138.9646782448184 0.04295662387926797,137.0960651061313 0,135.14153871969023 0.12886987163475166,133.50918701233147 0.4080879268408367,131.81240036915685 0.8161758536816734,130.2015269737377 1.2242637805194578,129.04169812903714 1.8900914506267457,127.43082473361801 2.47000587297855,126.29247420085404 3.1358335430827853,125.17560198003123 3.844617837069341,124.18759963084011 4.510445507173577,123.43585871297887 5.197751489220498,122.83446597868895 5.970970719022904,122.31898649215452 6.57236345331129,122.0182901250088 7.173756187599675,121.82498531755974 7.818105545767329,121.67463713398688 8.505411527814251,121.61020219816949 9.729675308333709,121.63168051010913 12.41446430069639,121.95385518919295 13.72464132897133,122.06124674888807 14.927426797551155,122.0182901250088 15.893950834804162,121.88942025337558 16.967866431749233,121.56724557429175 17.95586878093882,121.07324439969696 18.75056632268086,120.45037335346893 19.30900243308998,119.67715412366654 19.6741337360546,118.92541320580528 19.888916855441785,118.13071566406478 20.06074335095275,116.92793019548495 20.125178286771654,115.7895796627225 20.10369997483202,114.13574964342563 19.9963084151369,112.58931118382387 19.37343736890888,108.10034398858839 19.201610873397915,106.25320916184093 19.223089185334498,105.35112006040681 19.30900243308998,104.08389965601114 19.545263864419848,102.90259249936943 19.824481919625935,101.8931118382402 20.382918030038105,100.51849987414941 21.263528819532574,98.95058310260802 22.03674804933498,97.87666750566295 24.76449366557693,94.52605084318992 25.494756271500066,93.38770031042748 26.203540565486623,91.9271750985812 26.56867186844819,90.78882456581876 26.826411611714644,89.5430824733612 26.93380317140976,88.53360181223196 27.148586290796942,85.05411527812572 27.44928265794266,83.14254551556239 27.728500713148748,82.04715160667769 28.093632016110316,80.93027938585335 28.523198254887735,79.89932041278601 28.952764493668205,78.99723131135039 29.61859216377244,77.8374024666483 30.134071650308396,77.06418323684743 30.907290880107748,76.0332242637801 31.444248678583335,75.43183152949018 32.08859803674794,74.80896048326063 33.01216545012168,74.0572195653994 33.785384679924086,73.56321839080307 34.92373521268806,72.94034734457504 36.34130380065506,72.33895461028514 38.102525379647055,71.69460525211748 40.20739994966099,71.0072992700721 41.79679503314201,70.53477640741541 43.94462622703521,70.06225354476024 48.884637972986205,69.2460776910801 50.130380065442246,68.98833794781365 51.676818525044006,68.60172833291244 54.12534608608292,67.76407416729572 59.36605419917963,65.63772128534215 60.869536034902126,65.12224179880772 62.35153955868803,64.69267556002877 65.29406829432021,64.00536957798339 69.03129457169445,63.4254551556331 73.54174007886802,62.95293229297642 102.6448527561045,60.91249265877987 119.09723970131778,59.51640238274944 121.22359258327134,59.409010823054324 123.32846715328527,59.38753251111621 125.60516821881016,59.451967446932066 129.40682943200025,59.6667505663223 131.64057387364892,59.62379394244456 132.41379310344828,59.451967446932066 133.63805688396772,58.979444584276905 134.21797130631953,58.67874821713119 136.19397600469873,57.45448443661325 137.52563134491328,56.8101350784456 138.90024330900408,56.38056883966665 140.4252034566662,56.165785720277945 141.69242386106188,56.144307408338314 142.8522527057655,56.27317727997306 144.16242973404044,56.50943871129988 146.95461028609822,57.21822300528491 148.86618004866156,57.540397684368735 150.69183656347246,57.604832620186116 152.30270995889006,57.45448443661325 153.67732192298084,57.110831445589795 154.77271583186555,56.68126520681238 155.86810974075027,56.1228290964002 158.2736806779099,54.70526050843167 159.4120312106739,54.10386777414176 160.85107811058052,53.4595184159741 164.33056464468524,52.235254635454645 165.6407416729602,51.69829683698211 167.3160500041967,50.839164359425745 168.45440053695762,50.04446681768523 169.42092457421063,49.18533434012887 169.74309925329294,48.77724641328956 170.47336185921606,47.595939256647846 170.7955365383014,46.67237184327411 170.94588472187274,45.77028274184 170.94588472187274,44.73932376877114 170.75257991442214,43.57949492407059 170.4089269234002,42.57001426294136 169.8719691249277,41.47462035405513 169.42092457421063,40.744357748131996 168.90544508767468,40.0570517660866 168.23961741757043,39.24087591240798 166.6287440221498,37.65148082892848 162.698212937328,34.23642923063961 161.28064434935794,32.775904018793334 160.42151187180312,31.72346673378637 159.5409010823056,30.434768017451063 158.91803003607757,29.167547613053863 158.4669854853605,27.835892272840812 158.2307240540337,26.61162849232288 158.12333249433857,25.53771289537628 158.14481080627516,24.012752747712632 158.29515898984954,22.702575719439217 158.68176860475074,19.845960231562515 158.76768185250623,18.19213021226564 158.6602902928111,16.66717006460199 158.05889755851967,12.715160667840582 157.90854937494834,11.276113767932415 157.8655927510721,9.428978941186463 158.01594093464345,7.689235674132577 158.25220236597028,6.422015269736904 158.63881198087148,5.197751489218972 159.1328131554678,4.059400956454998 159.62681433006108,3.157311855020893 160.22820706435252,2.3626143132803796 160.8940347344598,1.718264955112726 161.62429734038292,1.1813071566401898 162.44047319406155,0.7517409178612453 163.66473697457795,0.3221746790838269 165.0393489386718,0.08591324775548369 166.37100427888333,0 168.04631261011983,0.0644349358158497 173.90989176944456,0.579914422350278 175.32746035741462,0.7732192298008793 176.14363621109325,0.9880023491895885 176.83094219313713,1.2242637805179317 177.64711804681573,1.6108733954191345 178.4632939004974,2.1048745700139286 178.95729507509068,2.6633106804260986 179.47277456162664,3.458008222165086 179.7734709287693,4.10235758033274 179.96677573621992,4.875576810135145 180.18155885561015,6.572363453309763 180.3319070391815,10.459937914253794 180.50373353469243,12.307072741001273 180.868864837654,14.197164191626491 181.38434432418995,15.808037587045625 181.74947562715153,16.624213440724247 182.22199848980821,17.44038929440287 182.7804346002204,18.19213021226564 183.31739239869293,18.772044634615916 183.94026344492096,19.287524121150344 184.71348267472334,19.71709035992929 185.3793103448276,19.974830103195742 186.04513801493488,20.1251782867686 187.09757529994337,20.14665659870671 188.10705596107258,20.01778672707348 189.2024498699573,19.674133736051548 190.27636546690238,19.137175937577485 191.02810638476512,18.664653074922327 191.86576055038338,18.020303716754672 192.5745448443669,17.37595435858702 194.27133148754305,15.657689403472766 194.91568084571068,15.099253293060595 195.68890007551005,14.56229549458806 196.46211930531246,14.175685879686858 197.68638308582885,13.810554576725288 198.9965601141038,13.617249769274688 203.59291886903287,13.44542327376372 205.54744525547545,13.252118466313119 206.9435355315059,12.994378723046667 208.2751908717174,12.629247420085099 209.54241127611309,12.070811309672928 210.6163268730612,11.362027015687898 211.34658947898433,10.73915596945988 213.15076768185256,8.720194647201435 214.22468327880068,7.710713986072212 215.44894705931708,6.808624884638107 217.01686383085848,5.949492407080218 218.84252034566632,5.21922980115708 221.09774309925464,4.59635875492906 224.06175014682645,3.9949660206391484 227.1116704421507,3.565399781860204 228.89437033308232,3.47948653410472 229.79645943451644,3.500964846042828 230.89185334340112,3.6083564057379456 232.4168134910663,3.887574460944031 233.55516402382725,4.2312274519674915 234.47873143720096,4.553402131051318 236.99169393405575,5.648796039936024 243.41370920379265,8.913499454652035 246.07701988421874,10.094806611292226 250.80224851078256,11.984898061917445 252.02651229129896,12.586290796207356 253.12190620018671,13.252118466313119 253.87364711804645,13.85351120060303 254.49651816427752,14.476382246832577 254.94756271499458,15.077774981122488 255.22678077020063,15.657689403472766 255.44156388958783,16.34499538551816 255.54895544928294,17.204127863074525 255.46304220152746,17.655172413793103 255.205302458261,18.535783203287576 254.75425790754397,19.609698800234174 253.83069049417023,21.242050507592943 250.437117207821,26.24649718936131 249.36320161087286,28.09363201610879 246.74284755432603,33.76390636798292 243.49962245154813,40.22887826159909 242.91970802919633,41.73236009732311 242.6834465978695,42.82775400620782 242.6834465978695,43.4076684285581 242.79083815756462,43.94462622703216 242.98414296501522,44.39567077774921 243.28483933216094,44.80375870458852 243.58553569930362,45.06149844785497 244.2513633694109,45.42662975081654 244.98162597533403,45.684369494084514 245.8192801409523,45.83471767765737 245.88371507676814,45.98506586122871 245.84075845289192,46.8441983387866 245.75484520513643,47.03750314623567 245.21788740666085,47.896635623793564 245.13197415890536,48.47655004614384 245.23936571860048,49.01350784461638 245.60449702156205,50.10890175350261 245.71188858125717,51.462035405653765 246.0555415722791,52.750734121989076 246.3132813155486,53.43804010403447 246.35623793942483,53.73873647118019 246.3347596274852,54.275694269652725 246.18441144391386,54.941521939760015 246.1414548200346,56.03691584864472 245.69041026931754,57.21822300528491 245.45414883799072,58.76466146488667 245.41119221411145,59.38753251111621 245.49710546186694,60.525883043878665 245.64745364544132,61.08431915429083 245.96962832452363,62.02936487960268 245.99110663646326,62.544844366137106 245.69041026931754,64.41345750482269 245.5400620857462,64.80006711972389 244.98162597533403,65.85250440473087 244.3372766171664,67.8714657269893 244.22988505747125,68.66616326872982 244.46614648880114,70.85695108649924 244.31579830522674,71.54425706854462 243.90771037838897,72.74704253712446 243.52110076348777,73.54174007886496 243.28483933216094,74.35791593254359 243.09153452471034,74.7445255474448 242.64048997399328,75.32443996979507 241.67396593674027,76.2480073831688 241.26587800989944,76.91383505327609 240.9651816427568,77.75148921889281 240.8792683950013,78.54618676063333 240.9651816427568,79.16905780686288 241.1155298263281,79.68453729339578 241.54509606510553,80.73697457840275 241.86727074419088,81.31688900075456 242.55457672623476,81.93976004698257 243.69292725899874,82.54115278127249 244.1439718097158,82.8418491484182 244.61649467237245,83.27141538719562 244.8742344156389,83.65802500209682 244.98162597533403,84.0446346169965 244.8742344156389,84.62454903934831 244.89571272757854,84.96820203037024 245.47562714993035,86.4072489302784 245.71188858125717,87.56707777498049 245.38971390217486,89.52160416142155 245.2608440305401,89.99412702407824 245.02458259921332,90.48812819867304 244.1439718097158,91.62647873143702 243.8647537545097,92.14195821796991 243.80031881869385,92.44265458511563 243.82179713063348,93.2803087507339 243.71440557093837,93.94613642083965 243.4781441396085,94.65492071482468 243.19892608440242,95.17040020135758 242.55457672623476,95.81474955952524 241.54509606510553,96.50205554157063 240.90074670693787,97.16788321167792 240.60005033979522,97.40414464300626 238.47369745784164,98.64988673546382 237.74343485191852,98.97206141454765 237.39978186089658,99.208322845876 237.20647705344598,99.44458427720282 237.0561288698716,99.7023240204708 236.75543250272892,100.77623961741739 236.56212769527832,101.11989260843933 236.862824062421,101.2917191039503 238.13004446681973,101.85015521436246 238.75291551304772,102.15085158150818 239.35430824733612,102.60189613222524 239.9127443577483,103.13885393069776 240.40674553234462,103.82615991274317 240.75039852336656,104.51346589478857 240.9651816427568,105.15781525295621 241.17996476214395,106.14581760214733 241.3947478815342,106.63981877674212 241.75987918449576,107.09086332745918 242.3612719187872,107.56338619011586 243.11301283664693,107.86408255726006 244.8742344156389,108.33660541991674 245.43267052605108,108.42251866767222 246.3132813155486,108.42251866767222 248.07450289453755,108.14330061246613 248.46111250943875,108.14330061246613 248.9121570601558,108.25069217216127 250.2867690242466,108.76617165869568 251.79025085997213,109.43199932880145 252.67086164946662,109.94747881533587 253.50851581508488,110.52739323768616 254.49651816427752,111.10730766003796 255.26973739407686,111.68722208238823 255.93556506418415,112.09531000922755 256,112.33157144055589 255.7852168806128,112.69670274351746 253.8092121822306,114.71566406577591 253.2292977598788,115.48888329557678 253.07894957630745,115.85401459853988 252.90712308079648,116.92793019548495 252.69233996140625,117.61523617753035 252.41312190620016,118.2381072237599 252.11242553905444,118.71063008641505 251.70433761221665,119.16167463713363 251.2962496853758,119.48384931621746 249.94311603322467,120.2355902340787 249.0625052437302,120.9228962161241 248.74033056464484,121.09472271163659 245.79780182901266,121.782028693682 243.99362362614445,122.55524792348287 243.19892608440242,122.79150935481121 240.17048410101475,123.22107559358862 239.61204799060258,123.32846715328375 239.246916687641,123.45733702491697 238.77439382498736,123.7795117040008 237.65752160416304,124.70307911737454 236.068126520682,125.32595016360256 235.23047235506374,125.90586458595436 234.52168806108025,126.48577900830465 234.1136001342394,126.97978018290097 233.8773387029126,127.5167379813735 233.42629415219554,130.02970047822674 233.4048158402559,131.1680510109892 233.27594596862116,131.53318231395076 232.95377128953885,132.09161842436293 232.889336353723,132.41379310344675 232.9108146656596,132.65005453477508 233.08264116117056,132.97222921385892 234.00620857454427,134.132058058561 234.5002097491406,135.05562547193475 234.32838325362965,134.99119053611736 233.684033895462,134.56162429733993 233.19003272086567,134.30388455407197 232.58863998657728,134.11057974662137 232.00872556422547,134.04614481080552 230.41933048074446,134.08910143468327 228.14262941521955,133.89579662723267 226.51027770786231,133.89579662723267 225.62966691836783,134.0031881869278 224.10470677070268,134.3468411779497 222.73009480661187,134.47571104958294 221.8924406409936,134.69049416897317 221.29104790670524,134.94823391223963 220.58226361271866,135.35632183907893 219.33652152026264,136.23693262857492 217.61825656514992,137.03163017031545 216.15773135330363,137.95519758368917 214.33207483849273,138.5780686299172 213.6877254803251,138.70693850155044 213.06485443409707,138.74989512542817 212.27015689235807,138.66398187767268 211.56137259837456,138.40624213440623 210.38006544173132,137.59006628072763 208.8551052940692,136.75241211510937 208.36110411947288,136.34432418827004 207.9530161926351,135.93623626143074 207.24423189864854,135.85032301367525 206.72875241211565,135.87180132561338 205.71927175098642,136.02214950918622 205.18231395251388,136.25841094051455 204.4305730346511,136.7953687389871 203.35665743770605,137.8692843359337 202.79822132729387,138.5565903179791 202.19682859300244,139.60902760298606 202.00352378555183,140.10302877758085 201.93908884973598,140.5540733282979 202.06795872137073,141.45616242973352 201.9605671616756,141.99312022820607 201.74578404228538,142.35825153116764 201.2517828676921,142.85225270576242 200.54299857370555,143.34625388035874 199.94160583941718,143.64695024750296 197.92264451715872,144.26982129373096 197.02055541572463,144.63495259669253 195.7318566993893,145.32225857873945 193.97063512039733,145.8806946891501 193.5625471935565,146.09547780854035 193.39072069804553,146.33173923986868 193.3692423861059,146.54652235925738 193.5410688816199,147.38417652487564 193.60550381743576,148.86618004866003 193.71289537713088,149.5105294068277 193.94915680845767,150.0260088933621 194.59350616662533,150.86366305898036 194.87272422183142,151.35766423357515 195.98959644265577,154.08540984981863 196.35472774561734,155.26671700645883 196.4191626814332,155.88958805268837 196.3332494336777,156.66280728248924 196.09698800235088,157.26420001677917 195.79629163520516,157.62933131974074 193.4336773219248,160.22820706434945 193.0900243308998,160.91551304639486 192.66045809212238,162.07534189109694 192.5745448443669,162.4189948821204 192.53158822049068,163.2566490477371 192.74637133987787,165.34004530581294 192.83228458763335,167.63822468327749 192.93967614732847,168.4544005369561 193.2403725144742,169.91492574880388 193.86324356070222,171.67614732779435 192.55306653242727,171.97684369494007 190.7274100176194,172.51380149341261 187.8278379058665,173.88841345750342 187.22644517157505,174.08171826495402 186.68948737310254,174.12467488883175 186.08809463881414,173.9743267052589 184.75643929859956,173.3944122829086 182.41530329725882,172.08423525463368 181.19103951673935,171.69762563973399 179.8593841765248,171.18214615319957 179.49425287356323,171.11771121738218 178.91433845121446,171.09623290544408 176.70207232150543,171.31101602483278 174.57571943955185,171.69762563973399 171.82649551137027,171.9983220068782 170.7955365383014,172.21310512626843 169.80753418911183,172.57823642923 169.0772715831887,172.96484604412967 168.26109572950702,173.54476046648148 167.5523114355235,174.23206644852687 167.23013675644123,174.46832787985522 166.65022233408942,174.68311099924392 165.9629163520425,174.7690242469994 165.06082725060838,174.6616326873043 164.39499958050416,174.40389294403784 163.77212853427307,173.95284839332078 163.0848225522292,173.0722376038248 162.82708280896276,172.8574544844361 162.26864669855058,172.57823642923 161.55986240456403,172.42788824565713 160.63629499119028,172.49232318147452 158.10185418239894,173.0078026680074 157.11385183320937,173.09371591576289 156.53393741085756,173.02928097994706 155.43854350197284,172.7285846128013 154.7082808960497,172.68562798892359 153.1188858125687,172.70710630086322 151.83018709623337,172.53527980535225 149.7897474620353,172.08423525463368 149.05948485611216,172.04127863075593 148.26478731437317,172.14867019045104 147.25530665324393,172.4064099337175 145.15043208323002,173.30849903515312 144.6564309086337,173.4803255306641 143.73286349525995,173.65215202617506 142.20790334759783,173.80250020974793 141.64946723718566,173.71658696199245 141.30581424616372,173.52328215454185 140.44668176860583,172.90041110831382 139.78085409849857,172.64267136504586Z"/>
  </g>
</svg>