<?xml version="1.0" encoding="UTF-8" standalone="no"?>
<svg viewBox="0 0 190.79951278928277 256" xmlns="http://www.w3.org/2000/svg">
  <style>
    g.zone {
      fill: lightgray;
      stroke-width: 2;
      stroke-linecap: square;
      stroke-linejoin: bevel;
      stroke-miterlimit: 3;
      stroke-opacity: 0.8;
      stroke: black;
      fill-opacity: 0.3;
    }
  </style>
  <g class="zone" id="zone">
    <path d="M126.55006090133989,231.7096224116932 127.48550548112068,232.70742996345925 127.54786845310592,232.83215590742972 127.53227771011127,232.91010962241182 126.90864799025667,233.15956151035277 126.56565164433675,233.39342265529797 126.36297198538418,233.6116930572474 125.87965895249691,234.313276492083 125.6925700365412,234.5159561510356 124.92862362972149,234.7809987819734 124.5700365408047,234.98367844092488 124.19585870889327,235.38903775883003 123.83727161997649,236.01266747868462 123.69695493300915,236.15298416565085 123.35395858708922,236.26211936662557 122.88623629719883,236.2933008526182 122.30937880633482,236.30889159561505 121.8884287454328,236.2465286236298 121.84165651644443,236.51157125456763 121.71693057247396,236.7922046285012 121.21802679658984,237.47819732034105 120.62557856272896,238.4604141291102 120.29817295980591,239.36467722289837 120.04872107186496,239.69208282582144 119.81485992691866,239.92594397076664 119.61218026796607,240.06626065773398 119.23800243605464,240.23775883069393 118.73909866017053,240.3624847746644 116.36930572472704,240.1753958587087 115.6833130328872,240.22216808769818 114.82582216808852,240.37807551766127 114.49841656516546,240.56516443361699 114.26455542021915,240.87697929354428 114.15542021924554,241.15761266747785 113.99951278928134,241.92155907429978 113.82801461632249,242.48282582216805 113.71887941534888,242.71668696711325 113.56297198538468,242.91936662606582 113.21997563946475,243.09086479902578 112.62752740560389,243.24677222898887 112.035079171743,243.3091352009741 111.33349573690631,243.24677222898887 111.03727161997699,243.26236297198463 110.70986601705393,243.34031668696673 110.53836784409286,243.44945188794145 110.44482338611611,243.60535931790454 110.44482338611611,243.79244823386136 110.50718635810135,243.99512789281283 110.66309378806334,244.22898903775803 111.11522533495909,244.6811205846527 111.7700365408052,245.13325213154621 112.00389768574928,245.42947624847665 112.39366626065758,246.6455542021921 112.40925700365445,246.8794153471373 112.34689403166921,247.05091352009725 112.14421437271662,247.20682095006038 111.75444579780833,247.3471376370277 110.08623629719933,247.72131546894025 108.9325213154691,248.0487210718633 108.15298416565251,248.40730816077897 107.49817295980641,248.89062119366622 107.3110840438507,248.98416565164408 106.48477466504352,249.2024360535924 106.26650426309408,249.34275274055975 105.81437271620054,249.88842874543226 105.45578562728376,250.21583434835532 103.9278928136421,251.1512789281361 103.05481120584655,251.494275274056 102.77417783191409,251.68136419001172 102.46236297198568,252.0399512789274 102.33763702801521,252.38294762484733 102.40000000000045,253.7861144945185 102.36881851400894,254.23824604141313 102.27527405602997,254.6747868453098 102.01023142509214,255.06455542021922 101.58928136419013,255.3451887941528 100.27965895249791,255.71936662606532 99.4689403166876,255.87527405602842 98.14372716199851,256 96.9900121802683,255.93763702801476 96.35079171741904,255.78172959805056 95.83629719854028,255.59464068209485 95.02557856272996,255.1892813641897 93.77831912302076,254.50328867235095 93.46650426309458,254.3629719853836 92.9520097442158,254.22265529841627 92.18806333739387,254.11352009744155 91.7827040194887,253.98879415347108 91.40852618757728,253.80170523751536 90.45749086479962,253.17807551766077 89.88063337393562,252.92862362971982 89.41291108404522,252.86626065773459 88.8828258221696,252.85066991473772 87.33934226553107,252.99098660170506 86.7001218026796,252.99098660170506 86.2012180267977,252.92862362971982 85.18781973203481,252.72594397076725 84.51741778319185,252.663580998782 84.23678440925715,252.69476248477463 83.9093788063341,252.8194884287451 83.64433617539629,253.10012180267978 83.30133982947638,253.67697929354378 82.9427527405618,254.03556638246056 82.56857490864816,254.26942752740575 81.94494518879578,254.53447015834357 81.38367844092642,254.92423873325188 81.0874543239971,255.09573690621184 79.21656516443551,255.51668696711275 78.53057247259568,255.56345919610223 77.76662606577374,255.46991473812437 77.25213154689497,255.29841656516442 76.3478684531079,254.81510353227716 75.91132764920903,254.5188794153467 75.36565164433652,253.9420219244816 75.17856272838081,253.64579780755116 75.05383678441034,253.38075517661335 75.02265529841661,252.95980511571244 75.24092570036605,252.18026796589476 75.33447015834501,251.32277710109605 75.42801461632178,251.05773447015824 75.73982947625018,250.57442143727098 75.81778319123006,250.30937880633317 75.84896467722379,249.98197320341012 75.83337393422693,249.26479902557875 74.11839220462954,249.60779537149756 73.02704019488456,249.74811205846493 71.56151035322813,249.84165651644278 70.81315468940306,249.77929354445754 69.8309378806339,249.48306942752708 69.14494518879407,249.37393422655236 68.8954933008531,249.2024360535924 68.06918392204815,248.45408038976845 67.80414129111033,248.25140073081587 66.1047503045076,247.40950060901295 65.57466504263198,247.25359317904986 64.79512789281539,246.78587088915944 64.42095006090175,246.6455542021921 63.51668696711468,246.52082825822163 62.51887941534866,246.2557856272838 61.91084043849092,246.1778319123017 58.91741778319284,246.19342265529858 57.576613885506895,246.28696711327643 56.875030450670195,246.24019488428695 55.113276492084445,245.97515225334914 54.848233861146625,244.99293544457998 54.48964677222985,244.18221680876965 54.00633373934259,243.40267965895197 53.257978075517514,242.52959805115643 52.91498172959981,241.98392204628502 52.83702801461771,241.73447015834296 52.83702801461771,241.50060901339776 52.9929354445797,240.87697929354428 53.008526187576564,240.65870889159484 52.946163215591326,240.4404384896465 52.77466504263247,240.12862362971921 52.40048721071883,239.7076735688183 51.96394640682216,239.39585870889098 50.919366626067756,238.74104750304488 49.890377588308006,238.3045066991471 49.064068209500824,237.79001218026724 48.70548112058626,237.63410475030415 48.58075517661579,237.52496954932943 48.409257003654716,237.29110840438423 48.253349573690514,236.96370280146115 47.83239951279071,235.80998781973204 47.78562728380012,235.5917174177826 47.738855054811744,234.81218026796603 47.62971985383813,234.5159561510356 47.271132764921354,234.11059683313042 46.41364190012266,233.40901339829483 46.3200974421437,233.1127892813644 46.3200974421437,232.73861144945187 46.36686967113429,232.4891595615098 45.867965895250165,232.28647990255723 45.60292326431235,232.08380024360466 44.52716199756422,230.57149817295985 44.35566382460537,230.1661388550547 44.215347137638034,229.4645554202191 43.99707673568859,228.98124238733183 43.93471376370335,228.43556638246045 43.887941534714976,228.2640682095005 43.74762484774764,228.13934226553002 43.35785627283934,228.04579780755105 43.20194884287514,227.98343483556582 43.03045066991629,227.78075517661324 42.84336175396057,227.40657734470182 42.734226552984744,227.03239951278928 42.65627283800264,225.90986601705166 42.562728380025895,225.28623629719817 42.562728380025895,224.55347137636997 42.53154689403217,224.31961023142478 42.32886723507959,223.8362971985386 41.53373934226614,222.51108404384843 41.377831912301936,222.30840438489585 41.08160779537261,222.07454323995066 39.55371498173095,221.37295980511504 38.93008526187635,220.99878197320362 38.322046285018615,220.53105968331323 38.01023142509243,220.18806333739332 37.729598051157744,219.7671132764913 37.29305724726108,218.64457978075478 37.05919610231477,218.27040194884225 36.63824604141497,217.81827040194872 36.06138855054875,217.38172959805095 35.48453105968474,217.08550548112052 34.424360535933474,216.75809987819747 33.97222898903773,216.57101096224062 33.6760048721084,216.33714981729543 33.17710109622428,215.7291108404377 32.92764920828333,215.55761266747885 32.553471376371895,215.37052375152203 31.61802679659111,215.08989037758846 29.544457978076952,214.70012180267906 28.37515225334986,214.23239951278867 27.20584652862498,213.62436053593203 24.914007308161384,212.90718635809958 23.121071863581907,212.14323995127876 22.637758830694647,212.01851400730828 22.076492082827503,211.9717417783188 21.468453105969772,212.03410475030404 20.486236297200605,212.205602923264 20.03410475030486,212.205602923264 19.613154689405057,212.11205846528614 18.56857490864844,211.7378806333736 18.147624847748634,211.6287454323989 17.601948842876137,211.58197320341048 16.136419001219718,211.535200974421 15.51278928136512,211.44165651644315 14.702070645554807,211.17661388550533 13.906942752741358,210.74007308160756 13.485992691839337,210.55298416565185 11.350060901339944,209.82021924482365 10.866747868454901,209.74226552984155 9.806577344703635,209.71108404384893 8.263093788065113,209.4928136418995 7.1249695493317455,209.43045066991425 6.657247259441351,209.3369062119364 5.8465286236310385,208.99390986601645 5.332034104752269,208.6665042630934 4.957856272838624,208.2767356881851 4.7239951278945345,207.87137637027996 4.646041412912433,207.55956151035267 4.677222898903945,207.23215590742961 5.066991473814453,206.35907429963405 5.2852618757616785,205.36126674786803 5.690621193666835,203.92691839220421 5.893300852619413,203.3968331303286 6.220706455542468,202.75761266747824 6.43897685749191,202.4302070645552 7.062606577346507,201.6194884287449 8.18514007308301,200.35663824604103 8.855542021925983,199.46796589524973 9.323264311816377,198.64165651644365 9.666260657736295,197.55030450669867 9.868940316688875,197.05140073081566 10.118392204629826,196.5680876979295 10.414616321559155,196.1003654080391 10.773203410475936,195.66382460414133 11.240925700366331,195.19610231425094 11.693057247259862,194.8219244823384 12.191961023143982,194.49451887941535 12.706455542022752,194.22947624847754 13.22095006090152,194.02679658952496 14.234348355664412,193.7305724725945 15.575152253350357,193.51230207064506 17.087454323995154,193.44993909865983 18.56857490864844,193.51230207064506 20.018514007310213,193.6526187576124 25.39732034104864,194.52570036540797 26.44190012180304,194.60365408039007 27.26820950061022,194.57247259439634 28.17247259439728,194.43215590743011 28.6713763702814,194.2762484774659 29.061144945189696,194.0891595615102 29.341778319124373,193.90207064555446 29.669183922047427,193.59025578562716 29.871863581000007,193.27844092569987 29.965408038976758,193.06017052375154 30.04336175395886,192.48331303288643 29.98099878197362,192.07795371498128 29.903045066991517,191.7973203410477 29.825091352011633,191.6414129110835 29.653593179050564,191.43873325213093 29.15468940316866,190.98660170523738 28.468696711328825,190.518879415347 26.20803897685895,189.22484774665054 25.24141291108444,188.5700365408033 24.196833130330035,187.7281364190015 21.81144945188969,185.68574908647994 20.751278928138422,184.84384896467702 19.051887941535696,183.62777101096154 14.655298416566431,180.66552984165608 11.069427527407479,177.9839220462853 10.58611449452022,177.5941534713759 10.243118148600303,177.23556638246023 9.900121802680385,176.79902557856246 9.650669914739431,176.31571254567632 9.463580998783717,175.75444579780694 9.35444579780789,175.1152253349577 9.307673568819514,174.33568818514001 9.35444579780789,173.6496954933002 9.447990255786854,172.93252131546882 9.728623629721534,171.3578562728377 9.790986601706772,170.64068209500633 9.759805115713045,170.23532277710117 9.681851400730944,169.84555420219178 9.525943970768957,169.40901339829512 9.33885505481324,169.00365408038996 9.011449451887971,168.4735688185143 8.372228989038726,167.61607795371452 4.521315468941957,163.0479902557853 3.648233861146406,162.25286236297185 3.1181485992707736,161.8475030450667 1.481120584653285,160.77174177831856 1.0757612667481289,160.4443361753955 0.7327649208282108,160.11693057247246 0.4989037758841214,159.80511571254516 0.24945188794316847,159.35298416565163 0.09354445797896513,158.91644336175386 0.01559074299686345,158.52667478684558 0,158.10572472594353 0.01559074299686345,157.66918392204576 0.09354445797896513,157.20146163215537 0.24945188794316847,156.5778319123019 0.5144945188809849,155.84506699147366 0.8886723507924141,155.04993909866022 1.5434835566385232,153.91181485992686 2.057978075519508,153.1946406820944 2.650426309380379,152.47746650426305 3.196102314252875,151.90060901339794 3.9132764920842225,151.21461632155922 5.066991473814453,150.2791717417784 7.888915956151467,148.20560292326425 8.4190012180271,147.75347137636962 8.808769792935394,147.3325213154687 9.167356881852175,146.78684531059622 9.29208282582265,146.44384896467741 9.33885505481324,146.19439707673536 9.323264311816377,145.57076735688184 9.229719853837413,145.1654080389767 9.1205846528638,144.86918392204626 9.853349573692011,145.10304506699146 10.523751522534983,145.38367844092502 11.131790499392718,145.71108404384918 12.051644336176643,146.3658952496953 12.301096224117595,146.47503045067003 12.612911084043787,146.5218026796584 12.815590742996365,146.50621193666265 13.111814859927907,146.39707673568793 13.626309378806678,146.0228989037754 13.860170523752982,145.7890377588302 14.171985383679173,145.1965895249693 14.327892813643377,145.05627283800197 14.530572472595955,145.02509135200935 15.996102314252376,145.0874543239946 16.292326431181703,145.04068209500622 16.63532277710162,144.94713763702836 17.11863580998888,144.68209500609055 17.63313032886765,144.26114494518853 18.13203410475177,143.68428745432342 18.740073081609506,142.8735688185142 19.34811205846724,142.140803897686 19.737880633375532,141.7510353227766 20.20560292326593,141.4859926918388 20.891595615103547,140.76881851400745 21.499634591961282,140.28550548112017 21.998538367845402,139.4280146163215 22.279171741780083,139.1473812423868 22.559805115712546,138.9602923264311 22.902801461632464,138.882338611449 24.009744214374322,138.7264311814859 24.430694275274124,138.71084043848904 24.820462850184633,138.74202192448277 27.174665042631254,140.98708891595578 28.03215590742994,141.89135200974394 28.624604141293027,142.68647990255738 28.920828258222354,143.16979293544463 29.15468940316866,143.6998781973203 29.38855054811275,144.58855054811158 29.46650426309485,145.477222898904 29.419732034106477,146.2879415347132 29.263824604142272,147.28574908647923 29.029963459198182,148.23678440925687 28.718148599269778,149.2034104750303 28.406333739343584,149.92058465286274 27.65797807551851,151.44847746650441 27.48647990255966,151.86942752740532 27.37734470158383,152.29037758830734 27.330572472595456,152.71132764920824 27.392935444580694,153.41291108404386 27.626796589527,154.06772228988996 28.07892813642053,154.8628501827034 28.6713763702814,155.68915956151056 31.243848964677465,158.7449451887939 32.16370280146361,159.7115712545673 32.70937880633389,160.19488428745456 33.286236297200105,160.58465286236284 33.909866017052494,160.9120584652859 34.502314250915575,161.14591961023112 36.669427527406484,161.81632155907408 37.40219244823469,162.14372716199713 37.91668696711346,162.45554202192443 38.43118148599445,162.86090133982958 39.00803897685845,163.4689403166873 40.832155907431655,166.0414129110834 41.377831912301936,166.68063337393374 41.81437271620082,167.07040194884314 42.812180267966845,167.80316686967134 43.93471376370335,168.4735688185143 44.94811205846624,168.86333739342263 45.96151035322913,169.09719853836782 47.06845310596877,169.2531059683309 48.54957369062206,169.36224116930563 50.04628501827221,169.39342265529825 52.21339829476311,169.3778319123014 53.88160779537211,169.28428745432353 54.95736906212024,169.19074299634568 56.11108404385047,168.97247259439735 56.98416565164602,168.69183922046267 57.45188794153642,168.4735688185143 57.84165651644471,168.2085261875765 58.21583434835614,167.84993909865972 58.46528623629709,167.52253349573667 58.91741778319284,166.665042630938 59.75931790499466,164.5291108404386 60.10231425091458,163.905481120584 60.554445797808114,163.32862362971997 61.11571254567747,162.86090133982958 61.692570036541476,162.5490864799023 62.347381242387584,162.36199756394657 62.70596833130437,162.3152253349571 63.23605359318,162.3152253349571 63.906455542022975,162.4243605359318 64.59244823386281,162.64263093788014 65.34080389768567,162.9700365408032 66.15152253349598,163.4689403166873 67.30523751522621,164.34202192448177 71.20292326431357,167.75639464068186 72.9334957369078,169.11278928136358 74.21193666260851,170.01705237515174 75.41242387332711,170.79658952496942 76.59732034104886,171.4358099878198 77.7822168087706,171.98148599269118 79.16979293544492,172.5115712545679 80.16760048721095,172.79220462850148 81.29013398294745,173.01047503045092 82.49062119366606,173.11961023142453 83.56638246041419,173.1352009744214 84.82923264311803,173.01047503045092 85.88940316687152,172.76102314250886 86.91839220462906,172.38684531059633 87.1366626065785,172.27771010962272 87.46406820950155,172.02825822168066 87.77588306942773,171.73203410475023 88.00974421437404,171.42021924482293 88.19683313032976,170.9524969549325 88.21242387332663,170.67186358099895 88.15006090134138,170.25091352009693 87.9473812423888,169.68964677222868 87.68233861145099,169.20633373934254 85.95176613885675,166.71181485992636 85.40609013398425,165.80755176613818 85.17222898903795,165.32423873325203 84.98514007308223,164.77856272837954 84.89159561510549,164.3732034104744 84.87600487210862,163.96784409257035 84.96954933008537,163.18830694275263 85.51522533495786,161.33300852618794 86.38830694275342,157.46650426309319 86.85602923264382,155.98538367844102 87.26138855054897,155.04993909866022 87.82265529841833,153.92740560292262 89.0699147381253,151.71352009744223 91.14348355663947,148.5018270401947 91.81388550548243,147.59756394640652 92.40633373934331,146.94275274056042 92.85846528623684,146.5218026796584 93.37295980511561,146.13203410475012 93.93422655298497,145.7890377588302 94.57344701583422,145.477222898904 95.24384896467718,145.22777101096193 96.07015834348437,144.99390986601674 96.91205846528618,144.82241169305678 97.86309378806384,144.68209500609055 99.42216808769922,144.55736906211897 100.84092570036726,144.58855054811158 102.1505481120595,144.76004872107154 103.5069427527423,145.0874543239946 105.06601705237547,145.64872107186395 107.186358099878,146.58416565164475 109.49378806333846,147.75347137636962 111.20876979293584,148.76686967113253 112.06626065773452,149.37490864799025 112.75225334957436,149.9361753958585 113.5161997563963,150.6689403166867 114.06187576126658,151.32375152253283 114.7166869671149,152.21242387332524 115.40267965895252,153.25700365408073 116.1510353227776,154.4730816077951 117.50742996346041,156.8428745432397 117.8192448233866,157.3105968331301 118.30255785627385,157.93422655298357 118.73909866017053,158.3863580998782 119.20682095006092,158.77612667478652 119.70572472594503,159.08794153471382 120.32935444579964,159.38416565164425 120.93739342265515,159.60243605359258 121.56102314250975,159.75834348355679 122.26260657734645,159.8674786845304 123.01096224116931,159.9454323995125 124.33617539586061,159.97661388550512 125.50548112058549,159.9454323995125 127.87527405602897,159.75834348355679 129.46552984165808,159.49330085261897 129.9956151035337,159.35298416565163 130.4945188794156,159.1658952496948 130.99342265529975,158.86967113276438 131.3208282582228,158.5890377588308 131.61705237515213,158.24604141291087 131.67941534713736,158.01218026796568 131.66382460414272,157.79390986601734 131.60146163215748,157.5756394640679 131.33641900121967,157.01437271619966 130.99342265529975,156.5310596833124 130.65042630937984,156.20365408038936 129.71498172959903,155.486479902558 127.7505481120585,154.2080389768573 126.79951278928306,153.5532277710112 125.7705237515233,152.726918392204 125.00657734470137,151.9941534713758 124.36735688185212,151.24579780755184 123.85286236297335,150.481851400731 123.50986601705343,149.71790499391017 123.32277710109771,149.0475030450672 123.26041412911248,148.59537149817257 123.22923264311875,148.0341047503043 123.29159561510399,147.17661388550562 123.46309378806505,146.3347137637027 123.79049939098812,145.18099878197356 124.28940316687002,143.87137637028025 124.94421437271613,142.26552984165647 125.86406820950226,140.25432399512755 127.00219244823563,137.93130328867244 127.29841656516496,137.07381242387376 127.39196102314392,136.57490864798964 127.39196102314392,136.12277710109612 127.29841656516496,135.65505481120573 127.09573690621238,135.14056029232583 126.87746650426294,134.78197320341016 126.53447015834524,134.36102314250925 126.19147381242533,134.0336175395862 125.73934226552957,133.70621193666204 124.97539585870986,133.36321559074324 123.36954933008609,132.8643118148602 122.91741778319256,132.630450669915 122.43410475030531,132.2874543239951 121.91961023142653,131.80414129110784 119.81485992691866,129.59025578562745 115.73008526187557,125.6925700365412 114.5607795371507,124.71035322777092 114.06187576126658,124.36735688185101 113.60974421437305,124.1023142509132 113.14202192448265,123.89963459196062 112.64311814860075,123.71254567600491 112.09744214372824,123.57222898903757 111.53617539585889,123.4786845310597 110.8345919610244,123.41632155907446 109.8679658952499,123.4007308160776 108.27771010962299,123.50986601705232 106.7186358099876,123.75931790499328 105.53373934226586,124.05554202192482 104.83215590743139,124.33617539585839 104.20852618757678,124.64799025578569 103.3510353227781,125.19366626065819 102.7274056029235,125.73934226552957 102.29086479902683,126.2382460414126 101.97904993909842,126.76833130328822 101.8699147381248,127.0489646772229 101.77637028014806,127.45432399512806 101.7607795371512,127.89086479902583 101.8387332521333,128.54567600487195 101.99464068209528,129.07576126674758 102.46236297198568,130.4945188794156 102.61827040194989,131.2428745432396 102.60267965895302,131.99123020706466 102.50913520097627,132.4433617539582 102.36881851400894,132.81753958587072 102.19732034104787,133.16053593179066 101.93227771011004,133.55030450669895 101.66723507917223,133.84652862362938 101.27746650426394,134.17393422655243 100.76297198538516,134.5013398294766 100.26406820950105,134.75079171741754 99.14153471376454,135.14056029232583 98.28404384896587,135.3432399512784 97.36419001218194,135.4991473812426 95.32180267965929,135.7485992691836 93.48209500609144,135.87332521315406 90.1612667478703,135.99805115712564 88.24360535931814,136.18514007308136 87.57320341047516,136.29427527405608 86.88721071863753,136.46577344701603 84.43946406820974,137.38562728379995 83.75347137637212,137.58830694275252 82.72448233861236,137.7909866017051 81.61753958587272,137.88453105968296 80.54177831912459,137.85334957369034 79.43483556638274,137.69744214372724 75.42801461632178,136.7464068209496 72.54372716199951,136.21632155907398 71.56151035322813,135.98246041412878 70.47015834348537,135.63946406820887 69.73739342265715,135.3120584652858 69.2852618757614,135.06260657734484 68.3965895249712,134.43897685749025 68.00682095006292,134.09598051157144 67.55468940316716,133.62825822168105 67.13373934226736,133.08258221680856 66.55688185140114,132.16272838002462 65.04457978075634,129.1069427527402 64.0155907429966,127.15809987819762 63.32959805115897,126.03556638246 62.45651644336341,124.7571254567604 60.772716199757554,122.52764920828206 59.43191230207161,120.9218026796594 58.7771010962255,120.26699147381218 58.200243605359276,119.7524969549334 57.1868453105986,119.00414129110834 56.438489646773526,118.56760048721057 55.31595615103702,118.02192448233806 52.21339829476311,116.82143727161946 51.58976857490851,116.54080389768589 50.872594397077165,116.1510353227765 50.108647990257445,115.62095006090085 49.46942752740598,115.01291108404423 47.894762484775946,113.11084043849003 47.41144945188869,112.64311814859964 47.05286236297191,112.37807551766183 46.647503045068966,112.14421437271662 46.21096224117009,111.9571254567598 45.649695493300726,111.75444579780722 44.74543239951367,111.53617539585889 43.26431181486038,111.27113276492108 40.72302070645583,110.89695493300854 38.587088915956436,110.64750304506647 31.103532277710123,109.94591961023089 29.52886723508009,109.8679658952499 27.767113276492125,109.88355663824565 26.862850182705063,109.32228989037739 26.64457978075562,109.13520097442168 26.44190012180304,108.854567600487 26.285992691841056,108.38684531059661 26.176857490865228,108.16857490864827 25.568818514007493,107.5761266747863 25.210231425092925,107.3422655298411 24.430694275274124,106.99926918392228 24.10328867235107,106.78099878197284 23.94738124238908,106.62509135200975 23.5108404384902,106.00146163215626 22.918392204629328,105.39342265529852 20.08087697929545,102.94567600487183 17.944945188796055,101.37101096224069 16.869183922047927,100.84092570036506 16.510596833131146,100.57588306942723 16.167600487211228,100.18611449451895 15.809013398296662,99.45334957369073 15.37247259439778,98.7673568818509 15.060657734471588,98.09695493300903 14.920341047504248,97.4109622411692 14.920341047504248,96.61583434835575 14.99829476248635,96.33520097442107 15.107429963459962,96.17929354445798 15.606333739344084,96.47551766138841 16.120828258222854,96.7093788063336 16.72886723508059,96.92764920828304 17.180998781974118,97.03678440925667 17.757856272838126,97.13032886723452 18.47503045067169,97.177101096224 19.815834348357633,97.14591961023139 21.296954933008703,96.91205846528618 22.403897685750557,96.60024360535888 23.464068209501825,96.2104750304506 25.958587088918,95.13471376370246 26.738124238734585,94.88526187576151 27.470889159562795,94.6981729598047 28.39074299634672,94.55785627283846 29.450913520097988,94.47990255785636 32.693788063339234,94.44872107186374 33.64482338611467,94.40194884287426 34.61144945188919,94.29281364190064 35.65602923264359,94.0745432399512 36.607064555421246,93.77831912302076 38.96126674787008,92.95200974421469 42.266504263094355,91.9853836784413 43.27990255785724,91.61120584652875 44.07503045067069,91.26820950060883 45.057247259439855,90.75371498173007 46.023873325214375,90.16126674786808 48.93934226553035,88.07210718635817 49.921559074299516,87.43288672350782 50.8570036540803,86.88721071863533 51.93276492082843,86.37271619975655 52.899390986602945,85.99853836784402 54.09987819732155,85.63995127892835 55.362728380025395,85.37490864799052 56.70353227771134,85.21900121802632 58.35615103532348,85.14104750304533 59.712545676006286,85.14104750304533 63.25164433617687,85.2657734470158 64.23386114494603,85.32813641900104 65.13812423873308,85.45286236297152 65.83970767356979,85.60876979293573 66.58806333739486,85.85822168087668 67.36760048721145,86.26358099878183 68.11595615103653,86.87161997563958 68.817539585871,87.6355663824604 70.64165651644421,89.92740560292289 71.3432399512809,90.64457978075535 72.15395858708901,91.2838002436057 73.33885505481297,92.01656516443391 74.88233861144927,92.74933008526212 76.72204628501933,93.43532277710085 78.31230207064624,93.88745432399548 79.341291108406,94.09013398294806 80.65091352009821,94.26163215590691 81.94494518879578,94.32399512789326 83.22338611449649,94.30840438489639 85.10986601705271,94.1524969549333 87.26138855054897,93.87186358099862 88.63337393422643,93.62241169305767 90.05213154689447,93.2638246041409 90.86285018270479,92.99878197320307 91.79829476248557,92.59342265529791 92.40633373934331,92.21924482338649 92.93641900121894,91.76711327649184 93.24823386114514,91.37734470158355 93.46650426309458,90.8940316686963 93.52886723507982,90.44190012180276 93.46650426309458,89.83386114494503 93.31059683313038,89.3817295980515 93.09232643118314,88.88282582216848 92.51546894031692,87.97856272838031 91.93861144945292,87.19902557856263 89.89622411693249,84.6889159561507 88.836053593179,83.31693057247213 87.93179049939194,81.9761266747873 87.15225334957536,80.58855054811187 86.37271619975655,78.9047503045071 86.07649208282723,78.0940316686968 85.82704019488406,77.22095006090125 85.73349573690732,76.64409257003612 85.73349573690732,76.20755176613835 85.79585870889255,75.77101096224169 85.99853836784513,75.24092570036494 86.34153471376504,74.77320341047455 86.7001218026796,74.4457978075515 87.15225334957536,74.1339829476253 87.58879415347202,73.91571254567586 88.1032886723508,73.72862362972015 88.68014616321702,73.58830694275281 89.58440925700408,73.44799025578547 90.30158343483542,73.4012180267971 92.04774665042653,73.37003654080337 93.840682095006,73.47917174177809 95.29062119366777,73.7442143727159 97.9566382460428,74.46138855054836 98.70499390986788,74.53934226552936 99.26626065773502,74.49257003654098 99.95225334957486,74.30548112058416 100.27965895249791,74.1339829476253 100.5914738124241,73.91571254567586 100.91887941534716,73.60389768574856 101.1371498172966,73.33885505481075 101.30864799025767,73.05822168087718 101.51132764920803,72.63727161997515 101.66723507917223,72.0760048721069 101.74518879415433,71.51473812423865 101.80755176613957,69.6750304506697 101.88550548112167,68.77076735688152 101.99464068209528,68.13154689403117 102.181729598051,67.41437271619982 102.54031668696778,66.51010962241165 102.9612667478698,65.74616321559083 103.44457978075707,64.98221680876999 104.44238733252308,63.594640682094564 104.91010962241349,62.79951278928112 105.22192448233967,61.97320341047505 105.37783191230388,61.00657734470164 105.40901339829539,60.49208282582176 105.37783191230388,59.71254567600518 105.22192448233967,58.48087697929395 105.03483556638396,57.65456760048678 104.22411693057364,54.52082825822136 103.95907429963583,53.117661388550175 103.81875761266849,52.18221680876938 103.74080389768639,50.66991473812459 103.91230207064746,47.87917174177798 103.89671132765059,47.34908647990235 103.83434835566536,46.865773447016196 103.66285018270429,46.11741778319112 103.44457978075707,45.57174177831973 103.11717417783179,44.963702801462 102.63386114494675,44.215347137636925 102.08818514007426,43.49817295980558 101.57369062119548,42.92131546894046 99.14153471376454,40.30207064555381 98.36199756394797,39.241900121802544 97.66041412911126,38.02582216808818 96.2884287454338,35.21948842874582 95.44652862362976,33.863093788063004 94.55785627283957,32.740560292326506 93.65359317905029,31.78952496954996 92.8740560292337,31.103532277710123 91.53325213154775,30.058952496954614 89.74031668696828,28.858465286236008 85.85822168087779,26.473081607795663 83.89378806333724,25.31936662606543 82.10085261875777,24.337149817296268 80.99390986601813,23.760292326431152 79.85578562728476,23.23020706455552 78.15639464068204,22.590986601705165 76.72204628501933,22.18562728380001 73.19853836784563,21.35931790499394 71.35883069427555,20.76686967113307 69.89330085261913,20.14323995127958 66.41656516443379,18.552984165651576 61.98879415347302,16.682095006089998 60.60121802679649,15.980511571254405 59.35395858708951,15.247746650426194 54.27137637028041,11.864555420219821 53.195615103532276,11.116199756394746 52.431668696712556,10.492570036541256 51.74567600487272,9.822168087698284 51.246772228990814,9.245310596833168 50.70109622411832,8.481364190012338 50.12423873325209,7.436784409256829 49.7344701583438,6.61047503045076 49.26674786845341,5.378806333739536 49.01729598051245,4.412180267966129 48.923751522533486,3.8197320341052574 48.90816077953884,3.1493300852622848 48.98611449451872,2.5412911084045504 49.18879415347131,1.9800243605362986 49.48501827040285,1.481120584653285 49.90596833130487,1.0601705237512653 50.358099878198395,0.7639464068208299 50.96613885505613,0.49890377588301354 51.85481120584855,0.2650426309378163 52.80584652862398,0.12472594397047644 54.24019488428889,0.03118148599261911 56.29817295980619,0 71.79537149817445,0.2650426309378163 93.98099878197334,0.3897685749082928 107.76321559074422,0.32740560292305454 131.25846528623757,0.4209500609020197 178.26455542021887,0.32740560292305454 178.70109622411775,0.8419001218029316 179.29354445797864,1.652618757613244 179.58976857491018,2.1982947624846325 179.91717417783323,2.962241169305462 180.05749086480057,3.58587088916006 180.08867235079208,4.115956151035693 179.97953714981847,4.568087697929224 179.79244823386276,4.942265529841761 179.5429963459196,5.25408038976906 179.24677222899027,5.534713763702632 177.79683313032848,6.5792935444581415 177.29792935444658,6.984652862363298 176.89257003654143,7.436784409256829 176.674299634592,7.904506699147223 176.62752740560362,8.247503045067141 176.64311814860048,8.684043848964917 176.73666260657723,9.151766138855312 177.12643118148773,10.508160779537011 177.18879415347297,10.944701583434787 177.1732034104761,11.365651644336808 177.07965895249714,11.786601705237718 176.92375152253516,12.223142509135494 176.1598051157132,13.673081607795051 175.95712545676062,14.15639464068231 175.81680876979328,14.624116930572704 175.78562728380177,15.045066991473616 175.83239951279015,15.419244823386153 175.98830694275435,15.82460414129131 176.73666260657723,17.04068209500567 176.9393422655298,17.477222898903445 177.04847746650563,17.929354445798086 177.0172959805119,18.459439707673717 176.89257003654143,18.942752740559868 176.68989037758885,19.394884287454506 175.52058465286396,21.42168087697918 174.3824604141306,23.651157125456432 174.08623629719906,24.321559074299405 173.8835566382465,24.882825822167657 173.758830694276,25.444092570037014 173.71205846528764,26.05213154689364 173.71205846528764,26.473081607795663 173.8056029232644,27.112302070646013 173.9926918392201,27.595615103532165 174.25773447016013,28.00097442143732 174.67868453105993,28.437515225335098 175.25554202192615,28.87405602923287 177.3291108404381,30.308404384896676 179.58976857491018,31.773934226553095 180.1198538367858,32.19488428745401 180.55639464068247,32.615834348356024 181.03970767356972,33.30182704019476 181.30475030450756,33.84750304506725 181.50742996346014,34.346406820950264 181.678928136419,35.11035322777109 181.69451887941585,35.39098660170578 181.66333739342434,35.71839220462883 181.5542021924485,36.03020706455502 181.42947624847804,36.24847746650446 181.27356881851384,36.43556638246018 180.99293544458135,36.65383678440962 180.32253349573838,36.996833130328426 178.70109622411775,37.589281364190406 178.12423873325375,37.83873325213136 177.57856272838126,38.19732034104703 177.11084043849087,38.64945188794167 176.674299634592,39.351035322777264 175.89476248477538,41.14397076735674 174.72545676005052,43.4514007308161 174.24214372716327,44.09062119366645 173.3690621193677,44.85456760048728 173.15079171741826,45.135200974421956 173.04165651644465,45.431425091352395 172.96370280146255,45.790012180268064 172.94811205846568,46.55395858708889 173.08842874543302,47.239951278928736 173.32228989037932,47.84799025578536 173.66528623629705,48.37807551766099 174.05505481120755,48.78343483556615 174.5383678440926,49.07965895249658 176.22216808769846,49.71887941534693 177.45383678441078,50.311327649207804 178.5607795371504,50.99732034104764 178.98172959805245,51.3247259439707 179.34031668696701,51.66772228989062 179.5429963459196,51.94835566382419 179.76126674786903,52.36930572472621 180.5408038976856,54.817052375151796 180.75907429963505,55.22241169305695 180.96175395858762,55.425091352009524 181.18002436053706,55.59658952496949 181.58538367844224,55.799269183922064 182.31814859927044,56.017539585870395 182.9885505481134,56.12667478684512 184.3917174177846,56.23580998781984 184.29817295980564,56.37612667478718 184.0799025578562,56.500852618757655 183.17563946406912,56.71912302070599 182.89500609013444,56.843848964677576 182.59878197320512,57.04652862363015 182.2557856272852,57.40511571254583 181.7568818514011,57.70133982947626 181.30475030450756,57.857247259439355 180.33812423873303,57.9975639464067 180.02630937880684,58.16906211936666 179.5429963459196,58.62119366626019 179.40267965895225,58.80828258221701 179.24677222899027,59.22923264311792 179.21559074299654,59.75931790499355 179.13763702801444,59.930816077953516 178.84141291108511,60.16467722289871 178.1398294762484,60.35176613885553 177.99951278928106,60.46090133982914 177.93714981729582,60.71035322777121 177.73447015834324,60.92862362971954 177.62533495736963,61.100121802679496 177.57856272838126,61.287210718636324 177.59415347137812,61.67697929354461 177.5629719853844,61.848477466504576 177.3291108404381,62.347381242387584 176.92375152253516,62.75274056029274 176.19098660170692,63.314007308160996 175.97271619975749,63.563459196101945 175.94153471376376,63.73495736906191 176.06626065773423,64.0155907429966 176.14421437271633,64.70158343483531 176.09744214372796,65.60584652862349 175.98830694275435,65.8708891595613 175.47381242387337,66.54129110840428 175.36467722289976,66.82192448233896 175.33349573690603,67.13373934226514 175.3490864799029,67.5390986601703 175.6920828258228,68.63045066991529 175.72326431181654,68.9734470158341 175.5829476248492,69.33203410474978 175.22436053593242,69.84652862362965 175.14640682095032,70.04920828258223 175.14640682095032,70.20511571254532 175.1931790499409,70.40779537149791 175.2711327649208,70.51693057247263 175.83239951279015,70.96906211936616 176.11303288672482,71.48355663824603 176.30012180268056,71.9668696711333 176.42484774665104,72.4657734470163 176.4716199756394,72.76199756394674 176.45602923264477,73.10499390986556 176.33130328867207,73.44799025578547 175.78562728380177,74.49257003654098 175.39585870889127,75.05383678440923 175.0372716199767,75.39683313032914 174.3045066991485,75.98928136419002 173.07283800243616,76.87795371498133 172.93252131546882,77.03386114494553 172.88574908648044,77.17417783191176 172.91693057247417,77.28331303288648 173.02606577344778,77.40803897685696 173.41583434835607,77.6263093788064 174.1174177831928,77.93812423873369 174.81900121802727,78.0940316686968 177.2511571254582,78.34348355663775 177.85919610231593,78.327892813642 178.87259439707663,78.23434835566414 179.58976857491018,78.28112058465251 180.32253349573838,78.4058465286241 180.99293544458135,78.67088915956191 182.19342265529997,79.37247259439751 182.62996345919663,79.57515225335008 183.20682095006063,79.73105968331318 184.42289890377612,79.93373934226575 186.49646772229028,80.6509135200971 186.93300852618916,80.86918392204655 187.27600487210685,81.13422655298436 187.40073081607954,81.30572472594432 187.60341047503212,81.77344701583472 187.7593179049941,81.94494518879468 187.9931790499404,82.0852618757609 188.61680876979278,82.25676004872086 188.77271619975699,82.35030450669872 188.9753958587096,82.64652862363026 189.33398294762637,83.0207064555417 189.4742996345937,83.27015834348376 189.61461632155883,83.67551766138891 189.61461632155883,84.09646772228982 189.72375152253466,84.31473812423927 189.98879415347247,84.57978075517708 190.7059683313038,85.04750304506747 190.79951278928277,85.17222898903795 190.7839220462859,85.32813641900104 190.64360535931857,85.59317904993887 189.72375152253466,86.84043848964696 189.19366626065903,87.79147381242349 188.4141291108402,88.82046285018214 187.69695493300887,89.83386114494503 187.24482338611534,90.28599269183967 186.683556638246,90.7381242387332 186.20024360536092,91.0499390986605 185.42070645554213,91.47088915956141 184.9685749086486,91.81388550548132 184.67235079171707,92.15688185140125 184.29817295980564,92.84287454323997 183.9707673568826,93.21705237515252 183.4095006090132,93.57563946406819 181.678928136419,94.41753958587111 180.1198538367858,94.8540803897689 179.76126674786903,94.97880633373937 179.57417783191332,95.11912302070671 179.4650426309375,95.29062119366667 179.35590742996388,95.55566382460448 179.32472594397237,95.86747868453068 179.40267965895225,96.1325213154685 179.5429963459196,96.31961023142532 179.71449451888066,96.42874543239893 181.33593179049907,97.23946406820924 181.78806333739482,97.61364190012178 182.20901339829462,98.12813641900165 182.36492082825882,98.43995127892785 182.47405602923243,98.82971985383725 182.47405602923243,99.32862362972025 182.4116930572472,99.90548112058427 182.27137637027985,100.32643118148629 182.06869671132728,100.66942752740509 181.69451887941585,101.10596833130288 181.10207064555496,101.65164433617537 180.74348355663818,101.9478684531058 180.38489646772362,102.16613885505525 180.08867235079208,102.27527405602886 179.4650426309375,102.44677222898882 179.27795371498178,102.55590742996354 179.1532277710113,102.69622411693088 179.0440925700377,102.91449451887921 178.99732034104932,103.19512789281389 178.99732034104932,103.7719853836779 178.98172959805245,103.89671132764948 178.82582216808825,104.0058465286231 178.4516443361768,103.99025578562734 178.34250913520097,104.05261875761258 178.35809987819783,104.53593179049983 178.2957369062126,104.8633373934229 178.12423873325375,105.31546894031642 177.78124238733383,106.01705237515202 177.42265529841706,107.43580998782006 177.20438489646762,107.95030450669883 176.54957369062151,109.05724725943958 176.30012180268056,109.57174177831945 176.1598051157132,110.00828258221723 176.0818514007311,110.47600487210762 176.14421437271633,110.9904993909864 176.40925700365418,111.97271619975666 176.53398294762465,113.42265529841623 177.0172959805119,114.65432399512744 177.37588306942868,115.74567600487244 177.53179049939067,116.52521315468903 177.65651644336336,117.52302070645506 177.78124238733383,117.95956151035283 178.15542021924526,118.87941534713786 178.2957369062126,119.72131546894079 178.46723507917145,120.14226552984171 178.8881851400735,120.85943970767305 178.93495736906186,121.10889159561512 178.8881851400735,121.57661388550551 178.90377588307035,121.82606577344646 179.44945188794284,123.07332521315455 179.5429963459196,123.33836784409236 179.5429963459196,123.60341047503019 179.43386114494598,123.868453105968 179.2311814859934,124.11790499391006 178.763459196103,124.46090133982887 178.59196102314414,124.63239951278882 178.5295980511589,124.83507917174141 178.57637028014727,124.99098660170561 178.82582216808825,125.20925700365395 179.16881851400817,125.34957369062128 179.74567600487217,125.536662606577 181.22679658952543,125.87965895249691 181.50742996346014,126.11352009744212 181.88160779537156,126.26942752740521 182.58319123020826,126.40974421437255 183.7992691839237,126.42533495736942 184.5476248477466,126.51887941534727 185.3583434835569,126.76833130328822 186.49646772229028,127.28282582216809 187.07332521315428,127.61023142509116 187.43191230207105,127.95322777101107 187.9931790499404,128.70158343483504 188.8038976857507,129.62143727162007 188.95980511571273,129.94884287454312 188.94421437271586,130.19829476248518 188.8038976857507,130.463337393423 188.5388550548129,130.7439707673566 188.0711327649225,131.14933008526174 187.94640682094982,131.28964677222908 187.8372716199762,131.78855054811208 187.63459196102363,132.25627283800247 187.54104750304467,132.708404384896 187.46309378806478,132.8643118148602 187.3383678440943,133.0202192448233 186.9485992691838,133.2228989037759 185.95079171741776,133.55030450669895 185.17125456760118,134.06479902557882 184.4696711327667,134.4545676004871 183.8928136419005,134.82874543239964 183.05091352009865,135.17174177831956 182.89500609013444,135.29646772229003 182.87941534713758,135.35883069427527 182.92618757612817,135.4211936662605 183.12886723508075,135.48355663824574 184.90621193666337,135.5771010962236 185.38952496955062,135.63946406820887 185.857247259441,135.7797807551762 186.4496954933019,136.02923264311826 186.87064555420392,136.29427527405608 187.07332521315428,136.52813641900127 187.104506699148,136.76199756394647 186.9485992691838,137.02704019488428 186.3717417783198,137.66626065773463 185.88842874543252,138.5705237515228 185.2024360535949,139.47478684531097 185.07771010962222,139.78660170523716 184.99975639464233,140.37904993909802 184.87503045066964,140.67527405602956 184.67235079171707,140.9091352009748 184.09549330085306,141.42362971985355 183.7992691839237,141.81339829476184 183.50304506699217,142.42143727161957 183.3783191230217,142.9515225334952 183.26918392204587,143.13861144945201 182.44287454324092,143.91814859926862 181.69451887941585,144.2767356881854 181.38270401948967,144.47941534713797 181.10207064555496,144.8535931790494 180.68112058465294,145.1965895249693 180.49403166869723,145.71108404384918 180.33812423873303,145.96053593179016 179.66772228989007,146.4906211936658 179.48063337393435,146.69330085261836 179.37149817296074,147.08306942752776 179.37149817296074,147.223386114494 179.40267965895225,147.3325213154687 179.5429963459196,147.44165651644343 180.33812423873303,147.83142509135172 180.47844092570037,148.01851400730854 180.5096224116941,148.23678440925687 180.44725943970886,148.45505481120523 180.30694275274152,148.6577344701578 179.6209500609017,149.1566382460408 179.41827040194912,149.37490864799025 179.3091352009755,149.5464068209502 179.27795371498178,149.71790499391017 179.32472594397237,149.96735688185112 179.6209500609017,150.52862362971936 180.32253349573838,151.30816077953708 180.63434835566457,152.00974421437266 180.80584652862342,152.32155907429996 181.41388550548118,152.9919610231418 181.88160779537156,153.64677222898905 182.39610231425254,154.17685749086468 182.62996345919663,154.48867235079197 182.8326431181492,154.87844092570026 182.9105968331313,155.08112058465284 182.9105968331313,155.2526187576128 182.81705237515234,155.61120584652846 182.84823386114607,155.81388550548104 183.50304506699217,156.51546894031665 183.8148599269184,156.93641900121756 183.8928136419005,157.10791717417752 183.84604141291211,157.24823386114485 183.6433617539595,157.37295980511533 183.5654080389774,157.48209500609005 183.62777101096265,157.94981729598044 183.50304506699217,158.23045066991511 183.1444579780754,158.5110840438487 182.28696711327672,158.9788063337391 182.03751522533577,159.2126674786843 181.81924482338633,159.50889159561473 181.69451887941585,159.82070645554202 181.678928136419,160.47551766138812 181.6009744214369,160.81851400730804 181.4450669914749,161.0367844092564 180.99293544458135,161.39537149817318 180.91498172959925,161.5045066991468 180.94616321559076,161.59805115712575 181.18002436053706,161.86309378806357 181.1644336175402,162.09695493300876 181.0552984165666,162.26845310596872 180.71230207064667,162.53349573690653 180.64993909866143,162.6270401948844 180.72789281364354,162.736175395858 181.0552984165666,162.84531059683272 181.5542021924485,162.87649208282534 181.9907429963474,163.15712545676 182.27137637027985,163.42216808769783 182.7235079171756,163.99902557856296 182.94177831912282,164.2952496954934 183.05091352009865,164.51352009744173 183.0665042630955,164.66942752740593 183.03532277710178,164.82533495736902 182.59878197320512,165.2618757612668 182.50523751522616,165.46455542021937 182.55200974421453,165.85432399512766 182.81705237515234,166.60267965895275 182.4896467722293,167.91230207064496 182.50523751522616,168.23970767356911 182.6455542021935,168.70742996345953 182.8326431181492,169.11278928136358 183.19123020706598,169.59610231425083 183.34713763702797,170.1885505481117 183.4562728380038,170.2197320341043 183.7992691839237,170.14177831912332 184.1578562728383,170.2665042630938 184.28258221680878,170.36004872107165 184.40730816077925,170.54713763702736 184.84384896467813,171.40462850182718 185.2803897685748,172.07503045067014 185.84165651644415,172.7454323995131 186.82387332521333,173.63410475030443 187.19805115712697,174.27332521315478 187.29159561510372,174.32009744214315 187.52545676005002,174.32009744214315 187.6501827040205,174.3824604141284 188.44531059683393,175.13081607795345 188.66358099878337,175.4582216808765 188.67917174177802,175.73885505481118 188.32058465286346,176.81461632155933 188.0711327649225,177.20438489646762 187.86845310596993,177.3602923264307 187.15127892813638,177.73447015834324 186.9485992691838,177.93714981729582 186.6056029232661,178.43605359317883 186.41851400730818,178.6387332521314 185.65456760048843,179.24677222898916 184.859439707675,179.71449451887955 184.1266747868468,180.3848964677225 183.5342265529859,180.6967113276487 182.8326431181492,180.89939098660128 182.28696711327672,180.9305724725939 181.49183922046328,180.79025578562656 181.21120584652857,180.83702801461604 181.03970767356972,180.9617539585865 180.44725943970886,181.5542021924485 179.68331303288693,182.16224116930513 179.49622411693122,182.39610231425033 179.4650426309375,182.69232643118076 179.55858708891645,183.03532277710067 179.79244823386276,183.3783191230206 180.1198538367858,183.67454323995102 180.55639464068247,183.86163215590676 182.45846528623778,184.3917174177835 182.86382460414293,184.59439707673496 183.1444579780754,184.8126674786844 183.28477466504273,185.01534713763698 183.39390986601856,185.2336175395853 183.5654080389774,186.12228989037771 183.7213154689416,186.54323995127865 183.70572472594475,186.66796589524913 183.5654080389774,186.7926918392207 183.05091352009865,186.93300852618694 182.16224116930624,186.99537149817328 181.678928136419,186.96419001217956 181.03970767356972,186.85505481120595 179.8859926918395,186.5588306942755 178.98172959805245,186.2470158343482 177.92155907430117,185.67015834348308 176.79902557856246,185.2024360535927 176.37807551766267,185.07771010962222 175.25554202192615,184.84384896467702 174.66309378806307,184.84384896467702 173.43142509135293,185.06211936662535 171.79439707673546,185.21802679658956 171.45140073081777,185.2024360535927 171.2799025578567,185.1244823386117 171.18635809987995,184.9685749086475 171.18635809987995,184.3137637028014 171.0772228989041,183.93958587088886 170.87454323995152,183.6433617539584 170.65627283800208,183.51863580998793 170.422411693058,184.03313032886672 169.75200974421503,185.24920828258217 169.12838002436044,187.07332521315428 169.1127892813658,187.4942752740563 169.2219244823394,188.00876979293506 169.36224116930674,188.2270401948845 169.86114494518864,188.80389768574852 170.32886723507903,189.42752740560312 170.96808769793049,190.06674786845235 171.40462850182718,190.37856272837965 172.77661388550683,191.0957369062121 173.18197320341199,191.39196102314256 173.43142509135293,191.6414129110835 173.71205846528764,192.09354445797814 173.94591961023173,192.63922046284952 174.1485992691843,193.6526187576124 174.16419001218117,194.04238733252072 174.56954933008632,194.33861144945115 175.36467722289976,194.85310596833102 176.12862362971947,195.2428745432393 177.14202192448238,195.58587088915922 178.82582216808825,195.9756394640675 179.34031668696701,196.14713763702747 179.49622411693122,196.24068209500533 179.55858708891645,196.3654080389769 179.51181485992808,196.4901339829474 179.34031668696701,196.67722289890312 178.79464068209674,197.06699147381252 176.37807551766267,198.17393422655326 175.33349573690603,198.53252131546893 173.758830694276,198.87551766138884 173.27551766138873,199.04701583434772 172.54275274056053,199.43678440925711 171.84116930572605,199.95127892813588 170.07941534713808,200.68404384896408 168.45797807551745,201.1829476248471 167.44457978075678,201.30767356881867 167.10158343483687,201.41680876979228 166.60267965895275,201.7286236297196 165.994640682095,202.21193666260686 164.96565164433747,203.3500609013391 164.62265529841756,203.67746650426326 163.6404384896484,203.8957369062116 162.43995127892978,204.3322777101094 161.22387332521433,204.6440925700367 160.72496954933018,204.84677222898927 159.96102314251047,205.23654080389755 158.7137637028013,205.76662606577318 157.32618757612696,206.20316686967095 156.76492082825982,206.3434835566383 156.4219244823399,206.3434835566383 155.6735688185148,206.23434835566357 154.73812423873403,205.9848964677215 154.41071863581098,205.93812423873314 154.0209500609027,205.93812423873314 153.3505481120597,206.00048721071838 153.1166869671134,205.9848964677215 152.60219244823463,205.81339829476266 151.66674786845385,205.36126674786803 151.13666260657823,205.26772228989017 150.62216808769944,205.2989037758828 149.5931790499397,205.47040194884275 148.64214372716205,205.5639464068206 148.17442143727163,205.68867235079108 147.67551766138973,205.9537149817289 147.42606577344878,206.14080389768571 146.94275274056153,206.60852618757613 145.7422655298429,208.21437271619988 145.49281364190196,208.83800243605336 145.29013398294938,209.7578562728373 145.04068209500622,210.2255785627277 144.29232643118115,211.036297198538 143.73105968331402,211.76906211936623 143.07624847746789,212.40828258221657 142.82679658952472,212.72009744214387 142.639707673569,213.10986601705216 142.5617539585869,213.42168087697945 142.54616321559226,214.3415347137634 142.42143727162178,215.01193666260636 142.1408038976871,215.542021924482 141.68867235079358,216.040925700365 141.37685749086518,216.29037758830705 141.01827040195062,216.44628501827015 140.45700365408123,216.539829476248 139.98928136419084,216.50864799025538 139.98928136419084,216.83605359317846 139.89573690621188,217.210231425091 139.6618757612678,217.5532277710109 139.44360535931835,217.7870889159561 138.89792935444586,218.11449451887916 137.635079171742,218.61339829476216 136.34104750304667,219.3461632155904 135.88891595615092,219.73593179049868 135.21851400730793,220.45310596833113 134.90669914738174,220.70255785627208 134.5792935444587,220.84287454323942 134.1895249695504,220.95200974421414 133.06699147381389,221.1546894031667 132.17831912302148,221.37295980511504 131.7105968331311,221.52886723507925 131.3520097442143,221.68477466504234 130.9778319123029,221.91863580998756 130.6971985383682,222.1369062119359 130.51010962241247,222.3707673568811 130.4633373934241,222.63580998782 130.58806333739457,222.91644336175358 130.79074299634718,223.1035322777093 131.33641900121967,223.50889159561444 131.50791717417852,223.6803897685744 131.67941534713736,223.9454323995122 132.053593179051,224.6158343483552 132.38099878197406,225.06796589524984 132.75517661388548,225.37978075517603 133.50353227771058,225.80073081607804 133.6126674786864,225.95663824604114 133.62825822168105,226.17490864798947 133.4567600487222,226.81412911083981 133.36321559074324,227.7963459196101 133.09817295980542,228.38879415347097 132.91108404384968,228.66942752740565 132.69281364190024,228.85651644336136 132.50572472594453,228.9188794153466 131.72618757612796,228.9500609013392 131.21169305724698,229.04360535931707 129.7617539585874,229.63605359317907 129.1069427527413,229.86991473812427 128.74835566382453,229.82314250913478 128.28063337393414,229.6672350791717 127.25164433617658,229.04360535931707 127.06455542022087,229.02801461632131 126.8930572472598,229.09037758830655 126.69037758830723,229.2618757612665 126.48769792935465,229.5113276492075 125.9264311814875,230.5091352009746 125.86406820950226,230.7118148599272 125.89524969549377,230.94567600487127 126.01997563946425,231.22630937880595 126.28501827040208,231.52253349573638 126.55006090133989,231.7096224116932Z"/>
  </g>
</svg>