<?xml version="1.0" encoding="UTF-8" standalone="no"?>
<svg viewBox="0 0 256 247.13886606409486" xmlns="http://www.w3.org/2000/svg">
  <style>
    g.zone {
      fill: lightgray;
      stroke-width: 2;
      stroke-linecap: square;
      stroke-linejoin: bevel;
      stroke-miterlimit: 3;
      stroke-opacity: 0.8;
      stroke: black;
      fill-opacity: 0.3;
    }
  </style>
  <g class="zone" id="zone">
    <path d="M233.12407559572983,199.0994248151223 233.5973705834015,200.28266228430886 234.51766639276946,201.67625308135035 236.38455217748816,203.72719802794117 238.7773212818404,206.0147904683678 239.96055875102886,207.0139687756804 240.95973705834146,207.7764995891572 244.77239112571982,210.1955628594941 246.4815119145455,211.4050944946616 252.21364009860443,215.98027937551674 253.23911257189985,216.92686935086564 253.92276088743012,217.68940016434058 254.44864420706736,218.42563681183458 254.97452752670458,219.34593262120254 255.3952341824181,220.37140509449793 255.65817584223487,221.34428923582962 255.8422350041107,222.7378800328711 255.7896466721451,225.8668857847192 255.8422350041107,226.8660640920318 256,227.65488907148952 254.65899753492224,228.3648315530026 253.26540673788264,229.28512736236868 252.50287592440398,230.02136400986268 251.58258011503975,231.15201314708554 251.00410846343692,231.67789646672463 248.37469186524328,233.15036976171265 245.79786359901522,234.938373048483 244.93015612161287,235.33278553821182 242.77403451109458,235.88496302383186 241.88003286770942,236.20049301561608 240.53903040263168,236.80525883319982 239.17173377157113,237.19967132292868 238.43549712407525,237.38373048480267 237.64667214461753,237.43631881676637 235.28019720624437,237.30484798685615 233.51848808545682,237.30484798685615 232.51930977814422,237.51520131471102 231.467543138866,237.90961380443989 230.6787181594083,238.1199671322948 229.0747740345138,238.4092029580962 228.07559572719745,238.4880854560427 226.7345932621197,238.435497124079 224.76253081347727,237.88331963845897 224.28923582580188,237.83073130649524 223.52670501232694,237.83073130649524 222.76417419885203,237.93590797042268 222.1857025472492,238.1199671322948 220.52917009038538,238.80361544782505 219.81922760887605,239.01396877568183 219.24075595727322,239.04026294166275 217.74198849630244,238.85620377978879 217.13722267872055,238.88249794577158 216.61133935907958,239.01396877568183 215.5069843878395,239.51355792933813 214.92851273623668,239.6713229252293 213.219391947411,239.907970419067 212.0098603122435,239.9605587510307 211.48397699260624,240.03944124897535 210.5373870172555,240.3812654067405 209.0649137222675,241.09120788825356 208.19720624486513,241.6170912078908 207.27691043549717,242.3796220213676 205.85702547247476,243.69433032046254 205.54149548069242,244.0624486442105 205.22596548890635,244.71980279375796 204.88414133114122,246.008216926872 204.62119967132446,246.35004108463713 204.3319638455212,246.58668857847482 203.80608052588394,246.84963023829343 202.93837304848157,247.00739523418648 199.70419063270603,247.13886606409486 199.23089564503067,247.08627773213112 198.75760065735528,246.90221857025716 198.44207066557294,246.71815940838505 196.91700903861934,245.53492193919848 194.81347576006667,244.48315529992027 193.44617912900614,243.64174198849884 192.86770747740331,243.40509449466302 192.36811832374886,243.29991783073368 191.8422350041079,243.29991783073368 189.26540673787983,243.74691865242627 187.60887428101975,243.69433032046254 186.34675431388663,243.53656532457137 185.68940016433916,243.40509449466302 184.90057518488146,243.0895645028788 184.32210353327864,242.6425636811862 183.66474938373113,241.72226787181825 183.24404272802136,240.72308956450564 183.7436318816758,240.01314708299444 184.29580936729582,239.06655710764554 184.66392769104377,238.1988496302413 184.87428101889864,237.41002465078358 185.05834018077448,236.35825801150725 185.11092851273634,235.09613804437416 185.08463434675355,234.28101889893549 184.95316351684704,233.12407559572983 184.795398520954,232.46672144618236 184.47986852917165,231.49383730485067 184.13804437140652,230.8364831553032 183.69104354971395,230.12654067379015 183.21774856203857,229.52177485620638 182.66557107641853,229.04847986853287 182.1133935907985,228.68036154478494 181.42974527526823,228.3648315530026 180.2465078060798,228.04930156121839 179.1684470008225,227.91783073131 177.82744453574477,228.1281840591649 176.7230895645047,228.49630238291095 175.77649958915393,228.94330320460355 174.98767460969623,229.44289235826173 172.38455217748538,231.73048479868837 171.01725554642482,232.72966310600097 170.17584223500523,233.17666392769357 169.33442892358192,233.5447822514415 168.46672144617958,233.78142974527918 167.62530813475624,233.93919474117035 166.59983566146457,234.018077239115 165.52177485620356,233.9917830731341 164.28594905505327,233.80772391126013 163.05012325390297,233.5184880854587 161.78800328676988,233.09778142974892 160.05258833196513,232.41413311421863 158.81676253081483,231.7830731306521 158.10682004930175,231.3623664749423 156.92358258011703,230.3631881676278 156.3188167625314,229.65324568611663 155.9244042728007,229.0747740345138 155.39852095316346,227.83894823336348 154.55710764174387,224.8940016433875 154.1101068200513,223.71076417420093 153.45275267050008,222.55382087099713 152.5850451930977,221.63352506162917 151.76992604765718,221.08134757600914 150.74445357436178,220.58175842235283 149.5086277732115,220.16105176664306 146.56368118323923,219.34593262120254 145.06491372226844,218.84634346754623 143.61873459326324,218.21528348397968 142.11996713229246,217.3475760065773 140.93672966310774,216.47986852917307 139.91125718981232,215.53327855382418 139.04354971240622,214.56039441249249 136.6244864420712,211.56285949055277 135.80936729663068,210.74774034511412 134.99424815119016,210.01150369762013 134.20542317173243,209.4593262120001 133.3377156943301,208.9071487263782 129.84059161873407,207.17173377157158 128.34182415776326,206.33032046015015 126.71158586688597,205.1996713229273 125.10764174198773,203.80608052588582 124.26622843056816,202.96466721446436 123.47740345111043,202.01807723911548 122.89893179950761,201.20295809367497 122.42563681183223,200.38783894823632 122.0575184880843,199.49383730485116 121.84716516022941,198.75760065735716 121.24239934264752,195.9178307313086 121.00575184880984,195.28677074774393 120.69022185702376,194.65571076417737 120.21692686935211,193.9720624486471 119.61216105176649,193.36729663106334 118.84963023829157,192.81511914544146 118.06080525883384,192.39441248973165 116.5094494659012,191.84223500411164 114.66885784716527,191.55299917831022 111.96055875102698,191.50041084634648 108.64749383730306,191.63188167625486 106.67543138866063,191.81594083812882 104.91372226787308,192.07888249794746 99.15529991783134,193.41988496302707 96.99917830731309,193.81429745275594 94.60640920295712,194.05094494659176 92.00328677074627,194.05094494659176 90.42563681183083,193.89317995070058 88.87428101889819,193.6565324568629 87.34921939194834,193.31470829909964 85.85045193097754,192.89400164338798 84.08874281019001,192.26294165982142 82.37962202136433,191.55299917831022 79.72391125718788,190.21199671323248 78.17255546425524,189.2654067378817 77.19967132292543,188.58175842235332 75.62202136400998,187.18816762530997 75.04354971240716,186.5571076417453 74.38619556285967,185.71569433032383 73.86031224322244,184.82169268693679 73.41331142152612,183.92769104355162 73.17666392769216,183.21774856204044 72.96631059983353,182.32374691865527 72.78225143796143,180.71980279375703 72.80854560394424,179.27362366475182 73.01889893179913,175.38208709942694 73.09778142974378,172.70008216927144 72.99260476581634,170.83319638455458 72.70336894001679,168.99260476582054 72.17748562037582,167.25718981101392 71.83566146261441,166.52095316351992 71.28348397699065,165.60065735415196 70.86277732128086,164.99589153656822 70.20542317173339,164.31224322103793 68.81183237469004,163.10271158586855 67.26047658175739,162.34018077239364 65.84059161873499,161.89317995070104 64.44700082169165,161.70912078882708 62.81676253081435,161.73541495480987 61.16023007395052,162.0509449465922 59.63516844700067,162.60312243221225 58.29416598192292,163.2604765817616 55.55957271980183,164.9433032046045 54.53410024650642,165.52177485620544 53.19309778142867,166.07395234182735 52.03615447822302,166.3894823336097 50.51109285127317,166.57354149548365 49.590797041905205,166.59983566146457 48.64420706655818,166.49465899753713 47.119145439604594,166.1791290057548 45.120788824979364,165.49548069022453 43.75349219391882,164.86442070665797 41.886606409203836,163.89153656532628 38.86277732127946,162.07723911257503 35.68118323746952,159.86852917009304 34.419063270336416,158.89564502876135 32.97288414133122,157.65981922761102 31.684470008215325,156.39769926047794 30.60640920295806,155.18816762531043 26.451930977814563,149.77156943303382 21.824157764995686,144.22350041084886 20.351684470007694,142.64585045193343 19.142152834840186,141.6466721446208 17.880032867707083,140.80525883319936 16.696795398518635,140.22678718159653 15.14543960558599,139.70090386195744 13.383730484798452,139.3853738701751 12.016433853737905,139.30649137222858 10.30731306491222,139.4379622021388 8.913722267872615,139.77978635990394 7.546425636812067,140.33196384552397 5.863599013969179,137.9129005751871 5.469186524238451,137.51848808545824 3.234182415775533,135.86195562859626 1.630238290877296,135.15201314708509 0.9991783073126144,134.59983566146505 0.31552999178234087,133.7584223500436 0.05258833196185516,133.17995069844076 0,132.54889071487423 0.2103533278548939,131.65488907148907 0.8677074774023715,129.97206244864617 1.0254724732954101,129.3672966310624 1.0780608052572653,128.00000000000188 0.8414133114195756,126.15940838126781 0.8677074774023715,125.76499589153894 0.9991783073126144,125.58093672966498 1.3147082990949552,125.60723089564777 3.2604765817583288,126.3697617091227 4.075595727195108,126.52752670501387 6.363188167623619,126.5801150369776 12.700082169268178,126.8956450287618 14.225143796218028,126.84305669679809 15.250616269513438,126.63270336894132 15.61873459326137,126.44864420706922 15.93426458504371,126.15940838126781 16.1709120788814,125.79129005751987 16.433853738701885,125.16023007395519 16.775677896467023,123.60887428102069 16.828266228428877,122.60969597370807 16.696795398518635,121.97863599014151 16.302382908791643,121.21610517666659 15.592440427278573,120.37469186524515 13.88331963845289,118.95480690222088 11.569433032045321,117.35086277732265 10.175842235001978,116.61462612982865 7.835661462611613,115.74691865242627 6.994248151192037,115.2736236647509 6.5209531635166575,114.85291700904111 6.10024650780687,114.27444535743828 5.784716516020792,113.48562037798055 5.600657354148694,112.74938373048656 5.62695152013149,111.69761709121022 5.889893179948239,110.46179129005992 6.41577649958921,109.35743631881799 7.125718981098543,108.46343467543282 8.440427280197236,107.17502054231879 10.018077239112676,105.91290057518756 11.122432210352738,105.25554642563822 13.01561216105052,104.38783894823585 14.330320460145474,103.5201314708316 14.908792111748301,102.99424815119251 15.355792933440885,102.49465899753619 15.53985209531672,102.17912900575385 15.645028759244166,101.86359901396965 15.566146261295778,101.5743631881701 15.276910435496234,101.23253903040496 13.80443714050824,99.97041906327186 11.569433032045321,97.78800328677266 9.860312243219637,96.44700082169491 9.360723089565198,96.00000000000233 8.098603122432099,94.34346754314038 7.70419063270137,93.60723089564638 7.546425636812067,93.18652423993659 7.572719802791127,92.84470008217146 7.835661462611613,92.60805258833376 8.545603944124682,92.34511092851514 10.22843056696757,91.92440427280349 11.175020542314593,91.60887428102114 11.622021364007177,91.37222678718346 11.779786359900214,91.18816762530949 11.937551355793254,90.79375513558064 11.911257189810458,90.42563681183456 11.49055053410067,89.61051766639405 11.306491372224835,89.08463434675681 11.359079704190426,87.58586688578603 11.306491372224835,87.29663105998462 11.148726376335533,86.98110106820228 10.833196384549456,86.61298274445434 10.30731306491222,86.19227608874455 8.650780608052129,85.69268693508825 8.282662284304196,85.48233360723336 7.9934264585046515,85.21939194741287 7.677896466718574,84.69350862777563 7.414954806901825,83.56285949055277 7.204601479046931,82.93179950698622 6.915365653243649,82.48479868529364 6.310599835661764,81.82744453574429 6.126540673785929,81.40673788003451 6.179129005751521,81.17009038619682 6.336894001640823,80.9071487263782 7.23089564502599,80.01314708299303 7.572719802791127,79.56614626130045 7.888249794577204,78.80361544782366 8.072308956449302,77.64667214461987 8.282662284304196,77.09449465899984 8.96631059983447,75.83237469186675 10.149548069022918,74.2547247329513 10.202136400984774,73.91290057518616 10.123253903040123,73.46589975349357 9.886606409202432,72.78225143796331 9.597370583399151,72.282662284307 11.464256368117875,71.88824979457814 12.568611339357934,71.46754313886835 14.225143796218028,70.52095316351759 15.329498767461825,69.67953985209614 16.749383730484226,68.41741988496491 17.143796220211218,68.15447822514443 17.77485620377964,67.94412489728954 18.484798685288972,67.97041906327233 19.48397699260532,68.31224322103746 21.377156943303103,69.15365653245891 24.32210353327909,69.86359901397012 26.13640098603222,70.41577649959015 27.056696795396448,70.57354149548131 29.554642563679852,70.8364831553018 31.368940016432983,70.8364831553018 31.737058340180916,70.91536565324645 31.999999999997666,71.09942481512041 32.1577649958907,71.46754313886835 32.236647493835356,72.8085456039461 32.394412489728396,73.57107641742103 32.552177485621435,73.83401807723965 32.84141331142098,74.07066557107733 33.70912078882335,74.35990139687874 35.68118323746952,74.46507806080619 36.943303204598884,74.83319638455413 37.7321281840566,75.22760887428299 39.65160230073718,76.64749383730725 40.51930977814329,77.12078882498076 42.41248972884107,77.85702547247476 43.937551355790916,78.51437962202225 45.6729663105994,78.69843878389621 46.22514379621943,78.82990961380645 46.566967953984566,79.06655710764414 47.30320460147669,80.27608874281165 47.592440427279975,80.48644207066654 48.065735414955356,80.64420706655771 50.747740345110856,81.19638455217961 52.85127362366353,81.03861955628658 53.403451109283566,80.9071487263782 53.929334428924534,80.64420706655771 54.45521774856177,80.30238290879444 54.77074774034411,80.01314708299303 54.954806902216205,79.72391125719162 55.13886606409204,79.09285127362507 55.112571898109245,77.64667214461987 55.1914543960539,77.4363188167631 55.45439605587438,77.14708299096357 55.79622021363952,76.9630238290896 56.16433853738745,76.88414133114308 58.37304847986758,76.48972884141422 58.9778142974532,76.4371405094505 59.424815119145784,76.56861133936074 59.68775677896253,76.80525883319842 60.923582580112836,79.06655710764414 62.764174198848764,81.40673788003451 63.105998356613895,81.77485620378057 63.65817584223393,82.14297452752851 65.6302382908801,82.98438783894994 67.33935907970205,83.93097781429884 67.81265406737742,84.1150369761728 68.39112571898025,84.22021364010025 68.9170090386175,84.19391947411745 70.23171733771618,83.93097781429884 71.15201314708415,83.7995069843886 73.20295809367123,84.08874281019001 74.41248972884247,84.16762530813652 75.1750205423174,84.14133114215373 75.56943303204439,84.03615447822628 75.56943303204439,83.85209531635232 75.77978635989928,83.56285949055277 76.3845521774849,83.14215283484111 77.14708299095983,82.8792111750225 78.69843878389621,82.58997534922109 79.0928512736232,82.40591618734712 79.40838126540554,82.14297452752851 79.69761709120883,81.77485620378057 79.90797041906372,81.32785538208799 80.06573541495302,79.59244042728137 80.19720624486327,79.22432210353531 80.48644207066654,78.82990961380645 82.14297452752663,77.252259654891 83.45768282662159,76.46343467543329 84.58833196384445,75.41166803615508 85.11421528348542,74.88578471651785 85.7715694330329,73.96548890714989 86.00821692687059,73.7288414133122 87.03368940016226,73.12407559572844 88.29580936729536,72.15119145439675 89.29498767460798,71.59901396877673 89.55792933442847,71.36236647493904 89.76828266228335,70.96795398521017 89.79457682826614,70.46836483155387 89.32128184059077,68.44371405094584 89.29498767460798,68.07559572719978 89.37387017255637,67.78635990139837 89.58422350041126,67.57600657354347 90.34675431388618,67.18159408381462 91.37222678718159,66.78718159408575 93.73870172555475,66.55053410024806 95.63188167625253,66.55053410024806 97.49876746097125,66.05094494659176 98.73459326212156,65.81429745275406 99.12900575184855,65.60394412489917 99.97041906327186,64.73623664749493 100.44371405094351,64.42070665571259 101.07477403451193,64.21035332785583 102.1265406737864,64.13147082991118 103.09942481511995,64.28923582580235 103.67789646672277,64.60476581758469 105.04519309777959,65.8668857847178 105.8340180772373,66.78718159408575 107.04354971240855,66.73459326212203 108.09531635168302,66.76088742810296 110.98767460969715,67.3919474116695 111.59244042727904,67.3919474116695 112.95973705833958,67.23418241577833 113.40673788003217,67.28677074774205 113.8011503697629,67.44453574363322 114.32703368940014,67.94412489728954 115.2736236647509,69.23253903040356 115.51027115858484,69.7847165160236 115.58915365653324,70.15283483977153 115.58915365653324,70.49465899753666 115.29991783072995,71.38866064092183 115.2473294987681,71.73048479868697 115.35250616269555,72.17748562037956 115.64174198849508,72.62448644207214 116.06244864420862,72.91372226787355 117.48233360723101,73.64995891536755 117.85045193097895,73.96548890714989 118.58668857847108,74.83319638455413 120.13804437140372,75.83237469186675 121.97863599013965,77.54149548069242 123.5562859490551,78.4092029580948 124.97617091207749,79.53985209531766 125.52834839769753,79.6713229252279 126.29087921117619,79.61873459326418 127.05341002465111,79.48726376335392 128.31552999178422,79.1717337715716 128.63105998356656,78.82990961380645 128.9728841413317,78.35661462613108 129.20953163516938,77.9096138044385 129.36729663105868,77.41002465078218 129.44617912900708,76.88414133114308 129.41988496302426,75.01725554642623 129.47247329498612,73.96548890714989 129.9457682826615,72.0723089564521 129.89317995069965,71.62530813475952 129.7091207888238,71.23089564503066 128.81511914543864,70.20542317173525 128.5258833196391,69.67953985209614 128.44700082169444,68.94330320460215 128.7625308134768,67.68118323747092 129.05176663927634,67.20788824979554 129.3410024650796,66.97124075595785 129.81429745275128,66.78718159408575 131.89153656532488,66.28759244042945 132.4963023829105,66.05094494659176 133.02218570254774,65.70912078882662 133.41659819227473,65.31470829909776 133.705834018078,64.86770747740518 133.9161873459329,64.13147082991118 134.100246507805,62.238290879213395 134.100246507805,61.239112571898914 133.99506984387756,60.029580936731406 133.7321281840608,58.767460969598304 133.65324568611243,57.92604765817686 133.4691865242403,57.50534100246707 132.33853738701745,56.42728019720794 131.94412489728674,55.79622021364139 131.78635990139742,55.29663105998508 131.76006573541463,54.8233360723097 131.8652423993421,53.929334428924534 132.12818405916258,53.29827444535798 132.52259654888957,52.719802793757026 133.02218570254774,52.193919474117926 133.39030402629567,51.904683648316514 134.3368940016427,51.45768282662392 136.44042728019912,51.01068200493134 136.91372226787075,50.82662284305738 137.22925225965682,50.589975349221554 137.43960558751172,50.1692686935099 137.57107641742195,48.98603122432332 137.72884141331127,48.51273623664794 138.57025472473458,47.408381265407876 138.88578471651692,46.777321281841324 138.9120788824997,46.38290879211247 138.75431388660667,45.83073130649244 137.91290057518336,44.226787181596066 137.78142974527685,43.70090386195697 137.8866064092043,43.17502054231786 138.57025472473458,41.886606409203836 138.72801972062388,41.20295809367356 138.7017255546411,40.72966310600005 138.22843056696945,38.573541495481784 138.20213640098663,38.1265406737892 138.28101889893128,37.732128184060336 140.20049301561187,36.732949876747725 140.91043549712495,36.49630238291003 141.51520131470681,36.54889071487376 142.9876746096948,36.83812654067517 143.77649958915254,36.8644207066561 144.11832374691767,36.81183237469237 144.48644207066562,36.680361544784 145.30156121610614,36.1544782251449 145.72226787181592,36.10188989318117 146.87921117502157,36.36483155299979 148.29909613804398,36.8644207066561 148.851273623664,36.917009038619824 149.37715694330498,36.78553820871145 150.45521774856223,36.259654889072344 151.3492193919474,35.576006573542074 151.79622021364,34.99753492194111 151.95398520953302,34.55053410024666 152.00657354149487,33.13064913722426 152.16433853738792,32.49958915365771 152.5587510271149,31.947411668037677 153.58422350041033,31.105998356616233 154.2415776499578,30.369761709122237 154.58340180772294,29.659819227609166 155.03040262941553,28.21364009860397 155.7403451109286,26.793755135579698 155.84552177485602,26.294165981923392 155.89811010682163,25.531635168448467 155.9244042728007,23.165160230075305 156.21364009860397,21.16680361544821 156.52917009038632,20.036154478225352 156.66064092029654,19.01068200493181 156.60805258833096,18.77403451109412 156.45028759244167,18.484798685292706 155.45110928512904,17.51191454396102 155.05669679539832,16.959737058340988 154.898931799509,16.381265406738162 154.97781429745368,15.69761709120789 155.13557929334297,15.224322103534378 155.42481511914625,14.751027115859 157.34428923582684,13.041906327035184 158.632703368939,11.437962202136946 158.97452752670412,10.70172555464295 159.05341002465252,10.202136400986642 158.71158586688736,7.835661462613481 158.4749383730497,7.230895645029727 158.2645850451948,7.046836483155761 156.9498767460961,6.442070665572007 155.9506984387835,5.679539852095213 154.66228430567134,4.83812654067377 153.37387017255543,3.786359901397432 153.34757600657264,3.102711585867158 153.40016433853822,1.6828266228428879 153.50534100246568,1.130649137222857 153.7945768282652,0.552177485621899 154.2415776499578,0.15776499589303875 154.68857847165037,0.026294165982795895 155.5036976170909,0 156.3451109285142,0.10517666392931527 159.18488085455903,0.8677074774042398 159.65817584223439,1.130649137222857 160.60476581758516,1.8405916187359266 161.13064913722238,2.103533278554544 161.9194741166801,2.366474938373161 162.76088742810342,2.471651602300608 164.31224322103606,2.313886606409438 165.3114215283487,2.5242399342662 166.9153656532469,3.207888249794605 168.04601479046977,3.733771569433708 171.14872637633508,6.073952341824073 171.77978635990348,6.49465899753573 173.56778964667382,7.336072308957173 174.75102711585853,7.704190632705107 176.4075595727186,8.019720624487448 178.1166803615443,8.15119145439769 179.95727198028024,8.414133114216307 181.95562859490545,8.519309778143754 184.74281018898841,8.493015612160958 185.71569433032198,8.598192276090273 184.05916187345815,12.095316351684424 180.6409202958105,18.695152013147602 179.90468364831463,20.404272801973285 179.3788003286774,21.903040262942206 178.93179950698482,23.796220213641856 178.82662284305738,24.71651602300795 178.8003286770746,25.610517666393118 178.90550534100203,26.977814297453666 179.08956450287786,27.81922760887511 179.3788003286774,28.713229252260277 180.0098603122421,30.080525883320824 180.69350862777236,31.15858668857996 181.53492193919567,32.28923582580281 183.71733771569674,34.94494658997552 184.40098603122328,35.94412489729 184.82169268693679,36.78553820871145 185.13722267871913,37.548069022186375 185.37387017255682,38.36318816762689 186.13640098603176,42.570254724734106 186.4782251437969,43.96384552177558 186.87263763352763,45.19967132292589 187.42481511914764,46.64585045193295 188.10846343467793,48.09202958093815 188.7658175842254,49.32785538208846 189.65981922761057,50.695152013149 191.631881676253,53.219391947413335 194.1561216105192,56.03286770747908 195.73377156943465,57.531635168448 199.86195562859535,60.92358258011657 200.7822514379633,61.84387838948454 201.46589975349357,62.63270336894225 202.491372226789,64.13147082991118 202.93837304848157,64.99917830731354 203.83237469186673,67.18159408381462 205.01561216105145,69.04847986853147 205.64667214461988,70.15283483977153 206.96138044371483,73.20295809367497 207.75020542317256,74.83319638455413 208.32867707477538,75.93755135579418 208.98603122432286,76.9630238290896 210.5110928512727,78.724732949879 211.35250616269602,79.51355792933673 212.03615447822628,79.93426458504652 214.0608052588343,80.98603122432286 215.6910435497116,81.98520953163734 216.92686935086192,82.93179950698622 218.37304847987085,84.27280197206397 219.47740345111092,85.561216105178 220.58175842235096,87.19145439605717 221.79129005751847,89.32128184059263 222.94823336072412,91.7140509449486 223.55299917830976,93.18652423993659 224.07888249794698,94.79046836483296 224.39441248972932,96.26294165982095 224.49958915365679,97.49876746097125 224.49958915365679,98.99753492194017 224.36811832374653,100.49630238291097 223.39523418241671,107.99013968775931 223.13229252259623,110.9087921117525 223.10599835661716,112.27608874281118 223.1848808545618,113.590797041908 223.36894001643392,114.85291700904111 223.6581758422372,116.0887428101914 224.13147082990884,117.5612161051794 224.73623664749445,119.05998356614833 228.28594905505608,126.21199671323153 229.54806902218544,128.60476581758562 233.64995891536708,135.7041906327051 234.72801972062433,137.86031224322338 235.6220213640095,139.8586688578486 236.20049301561235,141.75184880854826 236.43714050945002,143.3032046014809 236.51602300739467,144.95973705834285 236.46343467543284,148.43056696795608 236.48972884141563,149.929334428925 236.64749383730492,151.4543960558767 236.98931799507005,153.00575184881123 237.46261298274544,154.47822514379922 238.1725554642585,156.18734593262303 238.90879211175064,157.71240755957476 241.0912078882517,161.86688578471825 242.14297452752618,164.1807723911277 242.9580936729667,166.28430566968223 243.5102711585867,168.09860312243538 243.9835661462621,170.35990139687922 244.45686113393748,173.3048479868552 244.87756778964726,176.5390304026326 245.08792111750216,178.95809367296948 245.14050944946774,180.22021364010072 245.0616269515231,181.74527526705245 244.8249794576854,183.13886606409392 244.50944946589934,184.29580936729957 244.14133114215514,185.21610517666565 243.43138866064206,186.50451930978156 242.5899753492225,187.60887428102163 241.9063270336922,188.39769926047933 240.98603122432425,189.3179950698473 239.6187345932637,190.52752670501482 235.77978635990254,193.68282662284568 235.01725554642763,194.3927691043569 234.35990139688016,195.12900575185088 233.70254724732894,196.12818405916536 233.3607230895638,196.96959737058683 233.1766639276917,197.96877567789943 233.12407559572983,199.0994248151223Z"/>
  </g>
</svg>