<?xml version="1.0" encoding="UTF-8" standalone="no"?>
<svg viewBox="0 0 256 173.8487754556222" xmlns="http://www.w3.org/2000/svg">
  <style>
    g.zone {
      fill: lightgray;
      stroke-width: 2;
      stroke-linecap: square;
      stroke-linejoin: bevel;
      stroke-miterlimit: 3;
      stroke-opacity: 0.8;
      stroke: black;
      fill-opacity: 0.3;
    }
  </style>
  <g class="zone" id="zone">
    <path d="M79.39296221296635,120.30718679555305 79.1875596989253,120.61040003056587 79.04084361746798,120.94295648187057 78.97237611278672,121.3244182936615 78.99193825698175,121.71566117754996 79.13865433843907,122.30252550338125 79.72551866427105,123.72078095747568 79.94070225040963,124.37611278798755 80.05807511557714,125.04122569059764 80.08741833186832,125.38356321399918 80.06785618767327,125.79436824208199 79.98960761089586,126.33232720742774 79.65705115959116,127.71145837313277 79.50055400603634,128.46460092461712 79.25602720360658,130.36212891147423 79.1190921942454,131.0859282466667 79.00171932907928,131.43804684216573 78.84522217552306,131.76082222137362 78.62025751728835,132.0835976005808 78.39529285905225,132.31834333091373 77.79864746112274,132.80739693577394 75.94024376265571,134.09849845260405 75.04038512971267,134.7538302831166 74.1600886409647,135.43850532992036 72.38971459137261,136.88610400030598 71.77350704924805,137.35559546097113 70.9421159209863,137.88377335422007 70.38459481144689,138.15764337294172 69.97378978336339,138.31414052649723 69.5434226110876,138.4510755358577 69.12283651090797,138.558667328927 68.60443968975588,138.64669697780192 68.14472930118754,138.69560233828747 67.70458105681423,138.705383410385 67.03946815420345,138.69560233828747 65.23975088831878,138.51954304053828 64.30076796698845,138.49998089634394 63.342222901463046,138.57822947312135 61.17082489588498,138.8618805639405 60.02643946051219,138.94012914071791 59.05811332288927,138.92056699652358 58.04088182478012,138.7836319871624 55.53692736789735,138.24567302181666 54.47079050930336,137.94245978680314 53.727429029915164,137.64902762388715 52.993848622625876,137.24800366790254 52.25048714323906,136.7491689909448 50.60726703090922,135.4971917625034 49.951935200397344,135.02770030183825 49.159668360522915,134.53864669697802 48.377182592747396,134.16696595728462 47.59469682497188,133.893095938563 46.82199212929249,133.70725556871628 45.96125778473956,133.56053948725827 44.073510869979955,133.31601268482783 43.42796011156422,133.1986398196617 42.76284720895482,133.02258052191183 42.097734306345416,132.76827264738523 41.39349711534731,132.40637297978867 40.80663278951533,132.02491116799774 40.141519886905925,131.55541970733256 38.146181179076336,130.03935353226638 37.35391433920329,129.3840217017538 36.22909104802555,128.2787605547704 35.74003744316603,127.85817445459077 35.1727352615277,127.52561800328607 34.85974095441805,127.3886829939256 34.53696557521087,127.28109120085631 34.135941619224894,127.19306155198137 33.7349176632403,127.1343751193983 33.324112635158194,127.12459404730079 32.893745462881036,127.14415619149514 32.04279219042424,127.26152905666196 30.6245367363305,127.59408550796665 29.98876705001228,127.70167730103594 29.235624498527947,127.77992587781335 28.462919802849953,127.78970694991018 27.88583654911549,127.74080158942465 27.328315439574684,127.65277194054971 25.391663164328854,127.1637183356895 24.5211477476784,127.01700225423149 24.090780575401237,126.9876590379403 23.640851258930418,126.9876590379403 21.66507469529588,127.15393726359267 20.62828105299307,127.15393726359267 19.542582050204036,127.03656439842584 17.156000458487384,126.6159782982462 16.559355060557873,126.55729186566315 16.02139609521212,126.53772972146879 15.424750697282608,126.56707293776067 14.798762083061915,126.6551025866356 12.490429068122674,127.2028426240782 11.659037939860927,127.3495587055362 11.228670767583765,127.39846406602243 10.680930730140485,127.4278072823143 10.299468918350945,127.41802621021678 9.918007106560015,127.36912084973055 9.448515645894147,127.26152905666196 9.067053834103218,127.10503190310644 8.656248806021106,126.87028617277349 8.235662705841468,126.56707293776067 7.433614793870902,125.86283574676187 5.26221678829283,123.75990524586439 4.939441409085654,123.47625415504523 4.5873228135859065,123.24150842471298 4.342796011156143,123.10457341535181 4.010239559851444,122.98720055018569 3.648339892254172,122.90895197340828 3.364688801435703,122.88938982921323 2.6017651778538426,122.9187330455051 1.183509723760107,123.08501127115746 0.8705154166504555,123.07523019906063 0.6259886142206929,123.0263248385744 0.44014824437329486,122.93829518969946 0.33255645130469963,122.85026554082452 0.24452680242976269,122.74267374775523 0.1564971535548257,122.60573873839476 0.04890536048484056,122.214495854507 0,121.68631796125808 0.009781072096134127,121.18748328430102 0.05868643258236466,120.6593053910521 0.44992931647081896,118.57593703434827 0.6846750468030576,116.2186986589235 0.8020479119691768,115.62205326099468 1.0172314981077573,114.91781606999588 1.2030718679551553,114.50701104191377 1.4182554540937355,114.10598708592849 1.7019065449122046,113.67561991365201 2.3963626638127864,112.69751270393158 2.73870018721501,112.1106483780996 3.0223512780334794,111.51400298017077 3.638558820158038,109.94903144461904 3.8635234783927523,109.4893210560507 4.059144920337674,109.14698353264848 4.352577083253668,108.72639743246884 4.6949146066545016,108.32537347648356 5.115500706834138,107.95369273679015 5.575211095402481,107.62113628548545 5.917548618804705,107.42551484354122 6.220761853818222,107.28857983418075 6.553318305122922,107.17120696901394 6.9445611890113765,107.083177320139 7.28689871241221,107.0440530317503 7.639017307911958,107.0440530317503 7.991135903411705,107.083177320139 8.333473426812539,107.15164482481958 8.949680968937098,107.36682841095816 9.663699232032728,107.73850915065157 10.495090360294476,108.31559240438673 11.698162228249632,109.28391854200895 12.187215833109157,109.64581820960552 12.793642303136192,110.02728002139646 13.52722271042548,110.38917968899304 13.898903450120276,110.51633362625599 14.290146334007341,110.62392541932527 14.642264929507089,110.69239292400586 15.072632101784249,110.72173614029774 15.473656057768837,110.72173614029774 15.874680013753427,110.6728307798115 16.36373361861434,110.57502005883974 16.66694685362647,110.4869904099648 17.19512474687609,110.28158789592375 17.801551216901736,109.98815573300776 18.319948038053834,109.69472357009175 19.98273029457733,108.64814885569143 20.59893783670189,108.32537347648356 21.176021090436354,108.0808466740538 21.723761127879634,107.90478737630391 22.300844381614095,107.77763343904027 24.110342719596286,107.57223092499922 24.88304741527428,107.43529591563875 25.323195659648963,107.3081419783751 25.734000687731076,107.15164482481958 26.086119283230826,106.99514767126476 26.487143239215413,106.77018301302866 26.946853627783756,106.46696977801584 27.250066862797272,106.22244297558608 28.727008749473374,104.83353073778352 29.137813777556875,104.4911932143813 29.558399877736512,104.17819890727095 30.448477438580625,103.64023994192519 32.08191647881294,102.81862988576027 32.60031329996504,102.53497879494181 33.18717762579703,102.1632980552477 33.60776372597666,101.84052267604052 34.038130898253826,101.46884193634712 34.33156306116982,101.13628548504242 34.70324380086322,100.66679402437656 35.49551064073626,99.57131394948999 35.79872387574978,99.18985213769906 36.23887212012308,98.70079853283954 36.67902036449776,98.26065028846554 37.14851182516224,97.83028311618838 37.95055973713281,97.19451342987087 38.781950865394556,96.66633553662194 39.50575020058771,96.30443586902535 40.112176670614744,96.08925228288747 41.3152485385699,95.75669583158208 41.81408321552695,95.57085546173538 42.00970465747048,95.47304474076361 42.23466931570658,95.30676651511126 42.361823252970225,95.17961257784762 42.4596339739413,95.04267756848715 42.537882550720106,94.85683719863975 42.54766362281624,94.5829671799188 42.44985290184517,94.2504107286134 42.30313682038648,94.00588392618364 42.10751537844294,93.89829213311435 41.74561571084706,93.79070034004506 41.39349711534731,93.732013907462 41.06094066404261,93.72223283536518 40.386046689335686,93.82004355633694 39.681809498337586,94.00588392618364 38.86019944217197,94.29931608909963 36.845298590150115,95.08180185687586 36.09215603866578,95.32632865930562 35.309670270888866,95.55129331754102 34.63477629618195,95.68822832690219 34.00878768196125,95.7664769036796 33.39258013983808,95.77625797577713 32.90352653497856,95.74691475948525 32.424254002215164,95.65888511061031 31.925419325258115,95.5415122454442 30.917968899246492,95.17961257784762 28.16948763993396,93.96675963779494 26.653421464867762,93.2136170863106 25.734000687731076,92.66587704886732 25.078668857219203,92.18660451610462 24.462461315094643,91.64864555075887 23.95384556604007,91.09112444121807 23.48435410537559,90.50426011538607 23.07354907729209,89.89783364535974 20.872807855422835,86.31796125778476 20.6771864134793,85.91693730179948 20.540251404118134,85.52569441791172 20.481564971534382,85.08554617353774 20.501127115729428,84.7040843617468 20.608718908798025,84.34218469415092 20.774997134450373,83.9998471707487 21.019523936881527,83.68685286363835 21.342299316088702,83.40320177281988 21.71398005578211,83.17823711458378 22.12478508386422,83.00217781683459 22.584495472432565,82.87502387957095 23.14201658197337,82.79677530279353 23.787567340387717,82.78699423069601 24.403774882512277,82.83589959118224 25.088449929315335,82.933710312154 26.819699690520114,83.24670461926436 27.35765865586587,83.31517212394495 27.915179765406673,83.34451534023613 28.55094945172489,83.30539105184742 29.14759484965301,83.19779925877813 29.763802391777567,82.98261567264024 30.184388491957204,82.77721315859849 30.546288159553086,82.53268635616872 30.908187827148968,82.2294731211559 31.24074427845367,81.84801130936498 31.465708936689772,81.50567378596276 31.661330378633306,81.15355519046369 31.827608604285654,80.74275016238158 32.287318992854,79.32449470828716 32.49272150689505,78.7865357429414 32.844840102394805,78.18010927291506 33.02089940014468,77.94536354258213 33.324112635158194,77.6030260191806 33.725136591142785,77.23134527948649 34.184846979711125,76.88900775608496 34.63477629618195,76.6053566652658 35.95522102930461,75.83265196958712 36.76705001337131,75.29469300424135 37.27566576242588,74.87410690406172 37.58866006953692,74.56111259695138 38.49829977457609,73.50475681045351 39.016696595728185,72.98635998930212 39.34925304703288,72.74183318687236 39.662247354142536,72.55599281702565 39.945898444961,72.42883887976201 40.29801704046075,72.3114660145952 40.63057349176545,72.25277958201214 40.943567798876494,72.22343636572096 41.236999961792485,72.24299850991531 41.61846177358342,72.32124708669272 41.87276964810931,72.41905780766449 42.13685859473412,72.56577388912248 42.37160432506775,72.74183318687236 42.586787911204944,72.96679784510776 42.72372292056611,73.14285714285764 42.89000114621846,73.4265082336761 43.05627937187081,73.84709433385575 43.15409009284327,74.24811828984103 43.37905475107937,75.50987659037993 43.50620868834163,75.92068161846205 43.70183013028655,76.39995415122475 43.975700149007494,76.90856990027932 44.2006648072436,77.23134527948649 44.51365911435325,77.61280709127743 44.88533985404805,77.974706758874 45.13964772857395,78.18989034501259 45.570014900851106,78.4931035800254 45.94169564054451,78.69850609406646 46.323157452335444,78.87456539181633 46.76330569671013,79.02128147327433 47.095862148014824,79.09953005005174 47.5262293202906,79.1582164826348 47.86856684369282,79.14843541053797 48.14243686241515,79.10931112214926 48.46521224162233,79.0115004011768 48.739082260343274,78.85500324762198 48.92492263019067,78.68872502196963 49.179230504717964,78.35616857066493 49.75631375845242,77.24112635158401 50.0790891376596,76.72272953043262 50.43120773315935,76.25323806976675 51.448439231268495,75.03060405761654 52.59282466663989,73.49497573835669 53.04275398311211,72.99614106139964 53.51224544377658,72.60489817751119 53.92305047186009,72.33102815878955 54.36319871623338,72.09628242845731 54.83269017689925,71.93000420280497 55.39999235853618,71.81263133763815 56.00641882856322,71.75394490505509 56.54437779390897,71.7637259771526 57.01386925457484,71.80285026554132 57.61051465250435,71.89087991441556 59.44935620677772,72.28212279830402 60.20249875826206,72.40927673556766 61.1414816795924,72.48752531234507 61.79681351010567,72.45818209605319 62.383677835937654,72.3505903029839 62.93141787338094,72.1647499331372 63.31287968517048,71.9789095632905 64.57463798570939,71.2062048676118 65.0245673021816,70.99102128147322 65.44515340235984,70.8345241279184 66.0222366560957,70.6878080464604 66.48194704466404,70.60955946968299 66.9514385053299,70.55087303709924 67.69479998471671,70.52152982080806 68.75115577121457,70.56065410919676 69.75860619722481,70.66824590226605 71.19642379551358,70.88342948840463 72.34080923088638,71.12795629083439 73.14285714285694,71.36270202116732 73.69059718030023,71.59744775149956 74.33614793871457,71.95934741909615 74.78607725518539,72.30168494249837 75.3044740763375,72.79073854735789 75.76418446490584,73.34825965689869 77.03572383754226,75.28491193214383 77.95514461467896,76.50754594429404 78.80609788713436,77.5247774424025 79.36361899667517,78.06273640774894 79.9309211783135,78.48332250792858 80.4493179994642,78.75719252664952 81.09486875787994,79.02128147327433 82.7087456539172,79.56902151071762 83.31517212394425,79.83311045734173 83.91181752187236,80.13632369235525 84.43021434302446,80.44931799946559 84.98773545256527,80.85034195545018 85.49635120161985,81.26114698353298 86.02452909486807,81.75998166049004 86.54292591602017,82.30772169793332 87.15913345814334,83.02173996102894 87.80468421655769,83.83356894509635 88.33286210980731,84.56714935238632 88.68498070530568,85.10510831773209 88.98819394031919,85.63328621098101 90.08367401520574,87.74599778397602 90.37710617812174,88.19592710044753 90.67053834103774,88.57738891223777 91.0617812249262,88.97841286822306 91.42368089252207,89.28162610323658 91.8442669927017,89.59462041034692 93.30164673518415,90.56294654796983 93.76135712375249,90.9150651434689 94.23084858441835,91.34543231574536 94.68077790088918,91.8051427043137 95.12092614526387,92.31375845336827 96.59786803193997,94.18194322393352 97.16517021357829,94.86661827073728 97.49772666488299,95.22851793833385 97.87918847667392,95.5806365338329 98.21174492797861,95.85450655255454 98.55408245138085,96.0990333549843 98.9062010468792,96.31421694112288 99.26810071447647,96.49027623887207 100.00168112176576,96.76414625759371 100.89175868261127,96.95976769953793 101.80139838765042,97.06735949260722 102.57410308332982,97.07714056470405 103.25877813013287,97.04779734841287 104.04126389790977,96.96954877163546 105.90944866847434,96.71524089710817 106.70171550834738,96.64677339242759 107.18098804111077,96.63699232033007 107.6406984296791,96.66633553662194 108.36449776487088,96.78370840178806 108.83398922553674,96.94020555534358 109.24479425361885,97.13582699728781 109.6360371375073,97.39991594391192 109.96859358881201,97.69334810682791 110.2229014633393,97.99656134184073 110.51633362625529,98.44649065831224 110.71195506819882,98.85729568639437 110.84889007755999,99.30722500286588 110.91735758223987,99.67890574255928 110.93691972643492,99.96255683337844 110.91735758223987,100.48095365452986 110.85867114965751,100.82329117793138 110.76086042868505,101.14606655713925 110.52611469835281,101.67424445038817 110.17399610285307,102.17307912734522 109.98815573300706,102.36870056928946 109.6653803537985,102.66213273220545 109.19588889313401,102.98490811141262 108.51121384632957,103.32724563481484 107.86566308791383,103.55221029305025 107.10273946433335,103.7184885187026 106.39850227333386,103.79673709548001 104.1195124746872,103.95323424903553 103.04359454399568,104.07060711420165 101.76227409926172,104.26622855614589 100.10927291483574,104.58900393535376 97.25319986245323,105.2345546937688 95.75669583158208,105.6062354334622 95.23829901042998,105.77251365911455 94.82749398234787,105.9387918847669 94.41668895426575,106.13441332671114 94.12325679134976,106.30069155236349 93.86894891682248,106.48653192221019 93.63420318648885,106.70171550834877 93.4679249608365,106.87777480609795 93.29186566308663,107.1223016085284 93.18427387001803,107.32770412256946 93.07668207694944,107.59179306919357 93.01799564436568,107.88522523210956 92.99843350017063,108.11997096244251 93.04733886065686,108.58946242310768 93.18427387001803,109.03939173957919 93.39945745615661,109.5284453444394 94.03522714247482,110.76086042868644 94.2112864402233,111.20100867306043 94.30909716119577,111.5629083406563 94.34822144958449,111.95415122454477 94.31887823329329,112.31605089214065 94.20150536812717,112.62904519925169 94.07435143086353,112.83444771329275 93.96675963779354,112.95182057845886 93.79070034004506,113.10831773201438 93.61464104229519,113.21590952508367 93.40923852825414,113.30393917395791 93.11580636533814,113.39196882283285 92.55828525579734,113.47999847170779 91.2867458831609,113.5582470484852 90.56294654796913,113.65605776945698 89.89783364535835,113.8125549230125 89.29140717533271,114.06686279753978 88.87082107515307,114.29182745577519 88.49914033545966,114.54613533030248 86.38642876246395,116.16979329843727 85.5159133458135,116.79578191265865 84.84101937110658,117.23593015703194 83.99006609865117,117.74454590608653 83.31517212394425,118.08688342948875 81.31983341611466,118.94761777404237 80.60581515301902,119.30951744163825 80.19501012493691,119.56382531616555 79.76464295266115,119.89638176747025 79.61792687120246,120.03331677683141 79.39296221296635,120.30718679555305Z"/>
    <path d="M182.1235624498524,134.45061704810308 181.96706529629756,134.39193061552004 181.82034921483887,134.29411989454826 181.69319527757523,134.14740381309028 181.58560348450663,133.98112558743793 181.44866847514547,133.62900699193816 181.00852023077215,132.07381652848397 180.8422420051184,131.66301150040115 180.07931838153795,130.30344247889047 179.92282122798173,130.10782103694694 179.5022351278021,129.6774538646698 179.18924082069245,129.19818133190708 178.1720093225833,127.39846406602243 177.99595002483343,127.04634547052336 177.81989072708495,126.59641615405185 177.6927367898213,126.37145149581644 177.45799105948768,126.10736254919233 177.09609139189178,125.78458716998446 176.35272991250497,125.21728498834683 175.79520880296417,124.93363389752835 175.6191495052143,124.74779352768165 175.56046307263193,124.61085851832048 175.5506820005344,124.45436136476566 175.72674129828428,123.95552668780861 175.951705956519,122.75245481985276 175.98104917281157,122.41011729645054 175.93214381232534,122.15580942192325 175.85389523554792,122.01887441256278 175.72674129828428,121.88193940320231 174.86600695372996,121.30485614946714 174.69972872807762,121.14835899591232 174.55301264662032,120.97229969816244 174.13242654644068,120.34631108394176 173.82921331142717,119.808352118596 173.68249722996848,119.49535781148565 173.52600007641362,118.9965231345279 173.41840828334503,118.7715584762925 173.2619111297902,118.54659381805709 172.97826003897035,118.2140373667524 172.60657929927694,117.85213769915582 172.31314713636095,117.64673518511476 171.76540709891768,117.40220838268499 170.79708096129477,117.07943300347712 170.4351812936989,116.93271692201913 169.96568983303303,116.65884690329749 169.14407977686878,116.10132579375738 168.42028044167563,115.54380468421657 167.43239215985906,114.57547854659435 166.62056317579098,113.86146028349873 166.35647422916617,113.50934168799897 166.0141367057653,112.8148855690984 165.90654491269532,112.67795055973723 165.77939097543168,112.56057769457111 165.47617774041817,112.3747373247244 164.86975127039253,112.12042945019712 164.1948572956856,111.76831085469806 163.98945478164455,111.62159477324006 163.57864975356244,111.26947617774032 163.187406869674,111.0053872311162 162.9330989951467,110.90757651014444 162.46360753448084,110.79020364497762 162.2973293088285,110.71195506820021 162.14083215527364,110.57502005883974 161.92564856913506,110.19355824704881 161.75937034348271,110.00771787720211 161.46593818056672,109.75341000267481 160.94754135941602,109.36216711878706 160.5269552592364,109.08829710006542 160.25308524051405,108.95136209070425 159.92052878920936,108.84377029763496 159.3825698238636,108.72639743246884 159.0793565888501,108.5992434952052 158.72723799335174,108.32537347648356 157.7589118557288,107.3081419783751 157.17204752989682,106.76040194093183 156.907958583272,106.63324800366819 156.66343178084225,106.59412371527948 156.50693462728742,106.60390478737631 157.45569862071528,106.5256562105989 158.17949795590843,106.38872120123843 158.72723799335174,106.21266190348855 159.18694838192008,105.96813510105878 159.49994268902972,105.68448401023961 159.74446949145948,105.33236541474056 159.9400909334044,104.94112253085281 160.46826882665263,103.60111565353648 160.6834524127912,103.20987276964803 160.96710350360968,102.84797310205215 161.31922209910942,102.55454093913616 161.6811217667053,102.35891949719193 162.0919267947874,102.2415466320258 162.31689145302354,102.21220341573392 162.64944790432824,102.21220341573392 163.07003400450787,102.28067092041451 163.50040117678503,102.417605929775 163.9698926374495,102.62300844381605 164.47850838650407,102.93600275092709 165.20230772169722,103.48374278836967 167.64757574599764,105.62579757765656 168.73327474878667,106.47675085011267 169.53532266075723,107.0440530317503 170.2884652122416,107.53310663661051 171.0318266916284,107.93413059259579 171.7751881710152,108.27646811599733 172.64570358766565,108.60902456730273 173.39884613914998,108.81442708134378 174.1715508348294,108.94158101860742 174.85622588163244,109.00026745119048 175.60936843311677,108.99048637909296 176.3233866962124,108.90245673021872 176.9982806709193,108.72639743246884 177.59492606884885,108.49165170213591 177.95682573644473,108.21778168341427 178.12310396209708,108.02216024147073 178.25025789936072,107.8265387995265 178.318725404042,107.54288770870734 178.2796011156533,107.19076911320829 178.15244717838965,106.83865051770924 177.9861689527373,106.53543728269642 176.90046994994825,104.97046574714399 176.55813242654602,104.40316356550636 176.41141634508733,104.09995033049353 176.2940434799212,103.7576128070913 176.23535704733885,103.50330493256402 176.22557597524133,103.24899705803743 176.2842624078237,102.75994345317721 176.6265999312259,101.59599587361076 177.1743399686692,99.17028999350471 177.4677721315852,98.24108814427119 177.7220800061125,97.6542238184392 178.07419860161224,96.94998662744041 178.85668436938775,95.56107438963855 180.15756695831536,93.5461735376153 180.46078019332887,93.1353685095332 180.82267986092475,92.6952202651592 181.08676880754956,92.43113131853438 181.4682306193405,92.11813701142404 181.82034921483887,91.89317235318863 182.2018110266298,91.6975509112444 182.62239712680943,91.53127268559206 183.04298322698907,91.39433767623159 183.56138004814116,91.27696481106477 184.11890115768057,91.17915409009301 185.1165705115947,91.08134336912124 185.683872693233,91.07156229702372 186.2413938027738,91.09112444121807 187.06300385893803,91.19871623428736 187.91395713139482,91.40411874832841 188.8920643411139,91.75623734382816 190.22229014633268,92.34310166966014 191.66988881671898,93.07668207694944 192.64799602643942,93.65376533068459 193.28376571275626,94.09391357505858 193.71413288503342,94.44603217055763 194.0369082642406,94.73946433347363 194.408589003934,95.15026936155574 194.7802697436288,95.62954189431913 195.3769151415569,96.52940052726146 195.84640660222277,97.29232415084263 196.6973598746796,98.77904710961695 197.0005731096931,99.22897642608847 197.32334848890028,99.6104382378787 197.60699957971875,99.8745271845035 197.9982424636072,100.13861613112762 198.36014213120308,100.32445650097434 198.8491957360626,100.51029687082104 199.45562220608963,100.6472318801822 200.1500783249902,100.72548045695962 200.98146945325337,100.74504260115397 202.3312574026658,100.69613724066843 203.44629962174741,100.57876437550162 204.30703396630037,100.41248614984927 204.84499293164612,100.23642685209938 205.2460168876321,99.97233790547527 205.45141940167315,99.7962786077261 205.55901119474174,99.63978145417057 205.58835441103292,99.44416001222635 205.56879226683927,99.3170060749627 205.48076261796433,99.08226034463047 205.30470332021446,98.76926603752013 205.08951973407588,98.51495816299284 204.69827685018882,98.1726206395906 202.52687884461074,96.71524089710817 202.03782523974982,96.33377908531723 201.51942841859912,95.86428762465137 201.00103159744702,95.26764222672256 200.67825621823985,94.78836969395987 200.46307263210127,94.30909716119716 200.32613762274008,93.80048141214259 200.28701333435137,93.25274137469931 200.32613762274008,92.71478240935355 200.43372941581006,92.18660451610462 200.63913192985115,91.46280518091217 200.9521262369608,90.64119512474724 201.49008520230655,89.36965575211151 201.94001451877875,88.37198639819671 202.65403278187438,86.91460665571427 202.79096779123415,86.55270698811769 202.8789974401091,86.21036946471547 202.89855958430414,85.78000229243901 202.85943529591543,85.56481870630043 202.78118671913802,85.3300729759675 202.6638138539705,85.08554617353774 202.5170977725132,84.87036258739914 202.3606006189584,84.67474114545561 202.1454170328198,84.46933863141456 201.86176594199995,84.26393611737281 201.57811485118148,84.11722003591481 200.43372941581006,83.75532036831893 200.17942154128278,83.63794750315212 199.8566461620742,83.43254498911107 199.46540327818715,83.07064532151448 198.1449585450645,81.68173308371263 195.73881480915418,79.3831811408709 195.01501547396103,78.74741145455269 194.53574294119764,78.40507393115047 194.25209185037917,78.23879570549812 193.8608489664921,78.07251747984577 193.53807358728355,77.96492568677648 193.17617391968767,77.88667710999907 192.7458067474105,77.82799067741601 192.27631528674462,77.79864746112413 191.28842700492805,77.82799067741601 190.54506552554125,77.90623925419342 189.9288579834167,78.02361211935954 189.27352615290482,78.18010927291506 188.8725021969202,78.32682535437306 188.3541053757681,78.58113322890034 187.9726435639772,78.81587895923327 187.55205746379755,79.14843541053797 187.15103350781297,79.57880258281445 186.99453635425814,79.83311045734173 186.88694456118816,80.08741833186902 186.8282581286058,80.3417262063963 186.81847705650827,80.61559622511794 186.88694456118816,81.11443090207499 187.22928208459038,82.16100561647532 187.32709280556284,82.55224850036308 187.36621709395155,82.94349138425083 187.33687387765897,83.27604783555624 187.25862530088156,83.56947999847223 187.17059565200663,83.77488251251329 187.0532227868405,83.99006609865187 186.87716348909063,84.23459290108163 186.51526382149476,84.5573682802888 186.03599128873137,84.85080044320479 185.63496733274678,85.01707866885715 185.06766515110982,85.19313796660703 184.40255224849903,85.33985404806502 183.610285408626,85.45722691323114 181.88881671951876,85.61372406678666 179.18924082069245,85.73109693195278 178.11332289000094,85.84846979711959 177.7220800061125,85.93649944599453 177.27215068964165,86.06365338325747 175.71696022618676,86.64073663699263 175.30615519810465,86.74832843006192 174.8757880258275,86.82657700683933 174.30848584419056,86.88526343942239 173.72162151835855,86.87548236732556 173.0369464715541,86.80701486264498 172.46964428991578,86.69942306957569 170.29824628433772,86.17124517632676 168.4887479463569,85.83868872502207 167.69648110648248,85.64306728307854 167.1878653574293,85.47678905742549 166.72815496886096,85.27138654338444 166.34669315707004,85.05620295724654 165.9750124173766,84.80189508271926 165.6424559660719,84.50846291980326 165.35880487525205,84.21503075688727 165.09471592862863,83.87269323348505 164.86975127039253,83.53035571008283 164.5567569632815,82.97283460054271 163.7840522676035,81.37851984869911 163.33412295113268,80.49822335995113 162.9330989951467,79.81354831314738 162.47338860657837,79.09953005005174 161.84739999235765,78.21923356130377 161.10403851297085,77.25090742368084 160.51717418713886,76.53688916058591 160.05746379857052,76.03805448362817 159.6368776983909,75.63703052764289 159.2358537424063,75.30447407633818 158.85439193061538,75.04038512971407 158.38490046994949,74.76651511099243 157.45569862071528,74.32636686661844 155.5386084896645,73.58300538723162 155.15714667787358,73.40694608948175 154.73656057769395,73.15263821495446 154.33553662170934,72.84942497994165 154.01276124250077,72.5364306728313 153.69976693539112,72.18431207733155 153.16180797004537,71.4996370305278 152.89771902342056,71.21598593970933 152.4966950674346,70.88342948840463 152.06632789515882,70.6486837580717 151.4990257135205,70.462843388225 150.8339128109111,70.30634623466948 148.05608833530738,69.89554120658737 142.84277690749937,69.38692545753278 142.02116685133515,69.32823902494972 141.1897757230734,69.30867688075537 140.39750888319898,69.3184579528522 139.79108241317334,69.36736331333843 139.05750200588264,69.4651740343102 138.46085660795453,69.59232797157384 137.88377335421868,69.74882512512936 137.13063080273434,70.02269514385101 136.58289076529246,70.25744087418325 136.01558858365414,70.56065410919676 135.5265349787946,70.89321056050146 135.13529209490613,71.22576701180616 134.83207885989262,71.56810453520838 134.59733312956038,71.92022313070744 134.44083597600556,72.28212279830402 134.3430252550331,72.71248997058048 134.32346311083805,73.13307607076011 134.36258739922815,73.53410002674539 134.49952240858792,74.12096435257739 134.66580063424027,74.60023688534008 134.92988958086508,75.24578764375512 136.23077216979271,78.21923356130377 136.45573682802882,78.81587895923327 136.65135826997235,79.44186757345398 136.82741756772222,80.25369655752137 136.964352577082,81.15355519046369 137.35559546097045,84.87036258739914 137.49253047033162,85.54525656210608 137.65880869598396,86.04409123906312 137.79574370534513,86.35708554617347 137.96202193099748,86.66029878118698 138.4119512474683,87.27650632331085 138.7053834103843,87.5895006304212 140.16276315286675,88.95885072402871 140.7007221182125,89.55549612195821 140.93546784854612,89.89783364535974 141.12130821839213,90.20104688037326 141.26802429985082,90.53360333167795 141.3658350208219,90.85637871088582 141.4440835975993,91.35521338784288 141.45386466969683,91.89317235318863 141.38539716501694,92.50937989531249 141.26802429985082,93.10602529324132 140.9941542811285,93.98632178198929 140.79853283918496,94.4362510984608 140.2899170901304,95.48282581286114 140.19210636915793,95.74691475948525 140.13341993657556,96.01100370610936 140.11385779238051,96.284873724831 140.1432010086717,96.54896267145581 140.24101172964416,96.88151912276052 140.39750888319898,97.2042945019677 140.80831391128248,97.84006418828591 141.3658350208219,98.55408245138155 142.57868796087456,99.97233790547527 143.28292515187405,100.70591831276526 143.71329232414985,101.03847476406996 144.1730027127182,101.30256371069477 144.6229320291904,101.47862300844395 145.98250105070036,101.89920910862358 146.4422114392687,102.10461162266463 146.86279753944834,102.36870056928946 147.16601077446188,102.62300844381605 147.51812936996023,103.02403239980133 148.42776907500078,104.3444771329233 148.81901195888784,104.823749665686 149.07331983341513,105.07805754021328 149.3569709242336,105.31280327054621 150.11011347571792,105.83120009169761 150.54048064799508,106.07572689412807 150.99040996446593,106.26156726397478 151.38165284835438,106.3789401291409 152.04676575096377,106.50609406640454 152.73144079776822,106.58434264318196 153.67042371909855,106.64302907576501 154.76590379398513,106.66259121996006 155.73422993160804,106.64302907576501 155.54838956176204,106.81908837351489 155.32342490352593,107.16142589691711 155.235395254651,107.40595269934687 155.17670882206724,107.86566308791521 155.13758453367853,107.9732548809845 155.06911702899865,108.0808466740538 154.66809307301403,108.3742788369698 154.33553662170934,108.70683528827449 154.14969625186194,108.85355136973249 153.43567798876632,109.20566996523154 152.58472471630952,109.80231536316104 152.02720360677012,110.25224467963187 151.5381500019092,110.71195506820021 151.40121499254943,110.8586711496582 151.3131853436745,111.02494937531056 151.19581247850837,111.5237840522676 150.99040996446593,112.05196194551654 150.8730370992998,112.22802124326641 150.5796049363838,112.60948305505664 149.82646238489946,113.40174989493038 149.49390593359476,113.78321170672062 149.36675199633112,113.88102242769308 148.7309823100129,114.21357887899778 148.51579872387572,114.41898139303883 148.44733121919444,114.56569747449683 148.44733121919444,114.69285141176047 148.6527337332355,115.23081037710622 148.86791731937407,115.92526649600751 148.88747946356912,116.13066901004856 148.82879303098537,116.24804187521538 148.74076338211043,116.31650937989527 148.53536086806938,116.39475795667337 147.3616322164054,116.5512551102282 147.10732434187813,116.60994154281126 146.56936537653235,116.80556298475548 146.43243036717118,116.90337370572725 146.38352500668495,117.02074657089406 146.39330607878247,117.20658694074076 146.46177358346375,117.42177052687934 146.67695716960094,117.8814809154477 146.7356436021847,118.20425629465487 146.7356436021847,118.34119130401604 146.68673824169846,118.50746952966838 146.55958430443482,118.70309097161191 146.41286822297752,118.80090169258438 145.91403354602048,119.00630420662543 145.6988499598819,119.12367707179155 144.92614526420252,119.68119818133236 144.437091659343,120.08222213731764 144.2121270011069,120.21915714667811 143.79154090092726,120.41477858862234 143.55679517059502,120.49302716539975 143.3611737286515,120.5125893095941 142.20700722118116,120.54193252588598 141.88423184197399,120.58105681427469 141.7081725442241,120.62996217476022 141.45386466969683,120.36587322813611 141.0332785695172,120.03331677683141 139.60524204332594,119.21170672066648 138.81297520345288,118.68352882741756 138.157643372941,118.15535093416933 136.66113934206987,116.87403048943607 135.99602643946048,116.34585259618714 134.92988958086508,115.58292897260529 132.17162724945504,113.72452527413756 129.92198066709955,112.04218087341971 129.61876743208603,111.79765407098925 129.40358384594745,111.57268941275383 129.18840025980887,111.2988193940322 129.03190310625405,110.99560615901937 128.91453024108793,110.64348756351963 128.84606273640665,110.24246360753504 128.81671952011547,109.75341000267481 128.84606273640665,109.32304283039765 128.9047491689904,108.87311351392684 129.08080846674028,107.88522523210956 129.11993275512899,107.43529591563875 129.08080846674028,107.10273946433405 129.02212203415652,106.84843158980676 128.91453024108793,106.58434264318196 128.7873763038243,106.32025369655784 128.52328735719948,105.92901081267007 128.2298551942835,105.53776792878162 125.81393038627564,102.67191380430228 125.43246857448472,102.3100141367057 125.09991212318002,102.03614411798475 124.00443204829345,101.3123447827916 123.6523134527937,101.03847476406996 123.34910021778158,100.71569938486279 123.13391663164299,100.3537997172662 123.01654376647687,99.99190004966962 122.97741947808679,99.65934359836493 122.98720055018431,99.29744393076835 123.07523019905925,98.80839032590883 123.26107056890665,98.25086921636802 123.53494058762759,97.6542238184392 123.7990295342524,97.17495128567651 124.10224276926591,96.71524089710817 124.64020173461167,96.04034692240124 125.19772284415109,95.46326366866609 125.67699537691448,95.04267756848715 126.15626790967787,94.66121575669621 127.5745233637716,93.63420318649024 128.09292018492232,93.22339815840743 128.44503878042207,92.88106063500591 128.68956558285183,92.53872311160367 128.7873763038243,92.3235395254651 128.83628166431052,92.09857486722969 128.84606273640665,91.90295342528616 128.81671952011547,91.619302334467 128.74825201543558,91.38455660413406 128.6797845107543,91.23784052267607 128.33744698735208,90.81725442249643 128.14182554540855,90.64119512474724 127.85817445459007,90.43579261070619 127.23218584036938,90.09345508730397 126.47904328888504,89.82936614067985 125.74546288159436,89.6630879150275 124.98253925801389,89.5848393382494 124.30764528330697,89.61418255454127 123.77946739005735,89.72177434761056 123.48603522714136,89.8098039964855 123.22194628051794,89.93695793374845 122.8796087571157,90.1423604477902 122.64486302678208,90.33798188973373 122.39055515225479,90.61185190845536 122.18515263821374,90.94440835976008 121.97975012417268,91.45302410881465 121.63741260077046,92.85171741871403 121.36354258204952,93.63420318649024 121.05054827493848,94.2895350170028 120.75711611202247,94.84705612654292 120.49302716539906,95.25786115462503 120.20937607458059,95.61976082222161 119.93550605585826,95.86428762465137 119.62251174874861,96.06969013869312 119.29973636954004,96.22618729224794 118.9182745577491,96.33377908531723 118.5465938180557,96.39246551790029 118.14556986207111,96.38268444580346 117.80323233866889,96.32399801321971 117.46089481526667,96.20662514805359 117.24571122912809,96.0990333549843 117.0305276429895,95.96209834562383 116.82512512894844,95.77625797577713 116.66862797539362,95.60019867802725 116.52191189393632,95.38501509188868 116.42410117296386,95.17961257784762 116.35563366828397,94.96442899170904 116.31650937989527,94.74924540557116 116.30672830779774,94.41668895426575 116.3654147403801,94.03522714247552 116.49256867764375,93.62442211439271 116.9229358499209,92.56806632789555 117.12833836396196,91.94207771367486 117.26527337332313,91.35521338784288 117.3239598059055,90.75856798991336 117.3239598059055,90.38688725021996 117.29461658961432,90.05433079891526 117.23593015703194,89.72177434761056 117.13811943605948,89.37943682420834 117.01096549879584,89.07622358919552 116.86424941733715,88.8121346425707 116.68819011958867,88.55782676804341 116.50234974974127,88.332862109808 116.12088793795034,88.01008673060014 115.68073969357705,87.75577885607355 115.21124823291117,87.57971955832367 114.68307033966295,87.46234669315756 114.21357887899708,87.42322240476885 113.7343063462337,87.4427845489632 113.26481488556782,87.51125205364309 111.80743514308539,87.7753410002679 111.2988193940308,87.82424636075343 110.83910900546246,87.82424636075343 110.262025751728,87.7753410002679 109.73384785847976,87.65796813510109 109.22523210942519,87.48190883735191 108.76552172085685,87.23738203492145 108.44274634164968,87.01241737668605 108.10040881824746,86.71898521377004 107.84610094372017,86.45489626714593 107.59179306919287,86.14190196003558 107.29836090627688,85.71153478775842 106.57456157108373,84.49868184770574 106.25178619187656,83.99006609865187 105.88988652428067,83.51079356588848 105.49864364039222,83.06086424941765 104.99002789133765,82.58159171665496 104.39338249340814,82.13166240018344 103.77717495128496,81.75020058839252 102.28067092041383,80.93837160432511 101.85030374813665,80.6351583693123 101.537309441027,80.38085049478501 101.16562870133221,79.98960761089725 100.76460474534763,79.47121078974516 100.46139151033411,78.93325182439939 100.24620792419553,78.46376036373353 99.99190004966825,77.75952317273543 99.88430825659964,77.3487181446533 99.82562182401588,76.99659954915425 99.7962786077247,76.66404309784886 99.80605967982223,76.30214343025298 99.88430825659964,75.72506017651783 99.97233790547457,75.47075230199054 100.07992969854318,75.21644442746394 100.21686470790435,74.99147976922784 100.39292400565422,74.77629618308995 100.57876437550023,74.60023688534008 100.81351010583386,74.42417758759021 101.04825583616609,74.29702365032726 101.32212585488843,74.17965078516045 101.830741603943,74.04271577579998 102.36870056928876,73.98402934321622 102.9751270393144,73.98402934321622 103.58155350934143,74.04271577579998 104.61834715164424,74.26768043403538 106.99514767126337,74.98169869713101 107.92434952049759,75.22622549956077 108.91223780231415,75.421846941505 109.5969128491186,75.47075230199054 110.00771787720072,75.45119015779618 110.35983647270047,75.40228479731064 110.68261185190764,75.3142551484357 110.99560615901868,75.17732013907454 111.24013296144844,75.02082298551971 111.47487869178067,74.81542047147866 111.65093798953056,74.58067474114573 111.75852978259915,74.3459290108128 111.80743514308539,74.08184006418868 111.79765407098786,73.75906468498081 111.71940549421045,73.33847858480117 111.4846597638782,72.27234172620649 111.42597333129444,71.90066098651309 111.38684904290574,71.32357773277862 111.38684904290574,68.0958239407027 111.42597333129444,67.469835326482 111.49444083597572,67.01990601001049 111.61181370114184,66.58953883773403 111.76831085469668,66.16895273755439 112.34539410843114,64.78982157184936 112.59970198295842,63.93886829939256 112.64860734344465,63.5476254155048 112.65838841554218,63.19550682000575 112.58013983876477,61.93374851946684 112.61926412715347,61.33710312153802 112.75619913651464,60.7013334352198 113.25503381347168,59.26351583693172 113.42131203912403,58.6668704390022 113.53868490429016,57.90394681542104 113.55824704848382,57.47357964314388 113.53868490429016,57.14102319183918 113.4408741833177,56.466129217132256 113.08875558781934,54.891376609483 112.79532342490334,52.95472433423786 112.629045199251,52.03530355710117 112.2573644595562,50.49967523784063 111.9248080082515,49.374851946662886 111.69006227791927,48.74886333244219 111.50422190807187,48.34783937645691 111.07385473579609,47.54579146448634 110.85867114965751,47.21323501318164 110.41852290528283,46.6068085431553 109.68494249799353,45.746074198601676 108.88289458602297,44.944026286631804 108.34493562067722,44.48431589806346 107.75807129484522,44.083291942078176 107.10273946433335,43.78007870706466 106.72127765254243,43.65292476980102 106.27134833607022,43.53555190463489 105.43995720780846,43.40839796737125 104.92156038665776,43.369273678982545 104.47163107018555,43.35949260688502 103.92389103274365,43.37905475107937 103.47396171627145,43.41817903946808 103.01425132770311,43.50620868834302 102.57410308332982,43.61380048141231 101.87964696442783,43.877889428036426 99.58109502158612,45.04183700760357 98.56386352347837,45.638482405532386 98.12371527910368,45.9416956405459 97.64444274634029,46.313376380239305 96.05012799449807,47.731631834333044 95.19917472204128,48.53367974630361 94.31887823329329,49.4531005234403 93.96675963779354,49.785656974744995 93.73201390746131,49.96171627249487 93.42880067244779,50.157337714439095 92.87127956290699,50.39208344477134 92.47025560692241,50.49967523784063 91.91273449738159,50.59748595881309 90.62163298055151,50.714858823979206 88.87082107515307,50.78332632865979 88.16658388415496,50.79310740075662 87.24716310701828,50.76376418446544 86.14190196003419,50.665953463492976 85.55503763420221,50.587704886715564 84.88992473159281,50.46055094945192 84.25415504527459,50.3040537958971 83.79444465670625,50.16711878653592 82.87502387956957,49.79543804684252 81.9653841745304,49.33572765827418 81.47633056967088,49.02273335116383 81.0753066136849,48.73908226034467 80.32216406220056,48.11309364612397 79.62770794329998,47.4186375272227 79.00171932907928,46.655713903641534 78.4148550032473,45.76563634279603 77.95514461467896,44.89512092614557 77.60302601917921,44.093073014175005 77.32915600045827,43.35949260688502 77.1237534864172,42.694379704275626 76.98681847705603,42.03904787376305 76.90856990027862,41.48152676422294 76.8987888281811,40.796851717419194 76.94769418866733,40.219768463684034 77.07484812593097,39.53509341688028 77.44652886562439,38.05815153020279 77.49543422611062,37.63756543002385 77.51499637030427,37.31479005081598 77.49543422611062,36.845298590150115 77.39762350513816,36.32690176899871 77.22156420738828,35.79872387574978 76.97703740495851,35.290108126695905 76.61513773736263,34.74236808925262 76.05761662782183,34.087036258740056 74.43395865968704,32.66878080464632 73.92534291063247,32.20907041607798 73.30913536850929,31.573300729759758 71.87131777022051,29.988767050013674 71.30401558858357,29.441027012570395 70.89321056050007,29.09868948916817 70.30634623466808,28.69766553318358 69.73904405303115,28.394452298170062 69.24999044817162,28.179268712031483 68.721812554922,27.99342834218478 68.04691858021508,27.807587972338077 67.30355710082826,27.670652962977606 66.71669277499628,27.592404386199497 66.22763917013675,27.563061169908313 65.48427769074993,27.563061169908313 64.84850800443172,27.592404386199497 64.18339510182233,27.66087189088008 62.81404500821343,27.90539869330984 60.69155236312159,28.384671226073234 59.90906659534607,28.511825163336184 59.50804263936009,28.53138730753123 58.97008367401433,28.53138730753123 58.481030069154805,28.482481947045 57.86482252703164,28.384671226073234 55.214151988690176,27.87605547701866 54.66641195124689,27.748901539755018 53.942612616053744,27.53371795361644 53.10144041569447,27.22072364650609 50.57792381461804,26.174148932105762 48.611928323081024,25.479692813204483 47.78053719481788,25.1177931456086 47.17411072479224,24.746112405914502 46.72418140832142,24.364650594124267 46.33293852443297,23.924502349750277 45.92213349635085,23.308294807626414 45.59935811714229,22.711649409697596 45.35483131471253,22.12478508386561 44.21044587934112,19.014404156955806 44.06372979788243,18.505788407901232 43.975700149007494,17.99717265884735 43.95613800481384,17.54724334237584 43.98548122110502,17.175562602682433 44.073510869979955,16.82344400718338 44.230008023534786,16.422420051198095 44.494096970159596,15.982271806824107 44.758185916784406,15.630153211325053 45.02227486340782,15.356283192603414 45.374393458907576,15.053069957589896 46.078630649905676,14.56401635273037 46.53834103847402,14.309708478203085 47.0860810759173,14.045619531578273 48.025063997249035,13.664157719788038 49.39441409085654,13.224009475414048 50.519237382034284,12.940358384594884 52.064646773391665,12.656707293776416 53.306842929735524,12.519772284415247 53.8154586787901,12.509991212318418 54.187139418483504,12.529553356512771 54.58816337446948,12.58823978909583 55.09677912352406,12.695831582165122 55.63473808886981,12.871890879914995 58.35387613189116,13.879341305925923 60.00687731631714,14.515110992244141 60.39812020020559,14.612921713215906 60.662209146830406,14.652046001604612 60.90673594926017,14.652046001604612 61.22951132846734,14.603140641119078 61.59141099606461,14.485767775952263 61.94352959156297,14.280365261911207 62.24674282657649,14.006495243189567 62.48148855690873,13.74240629656545 62.71623428724236,13.370725556872044 62.93141787338094,12.959920528789237 63.10747717112942,12.509991212318418 63.55740648760163,11.228670767585156 63.74324685744764,10.808084667405518 63.96821151568374,10.377717495129053 64.26164367859974,9.947350322851893 64.56485691361326,9.614793871547192 64.88763229282043,9.331142780728724 65.2495319604163,9.115959194590143 65.59186948381853,8.979024185228976 65.93420700722076,8.900775608451562 66.29610667481664,8.871432392160381 66.61888205402381,8.88121346425721 67.01990601000979,8.93011882474344 67.41114889389824,9.018148473618377 69.07393115042174,9.497421006381073 69.8661979902948,9.653918159935898 70.17919229740444,9.683261376227776 70.5704351812929,9.673480304130251 71.03014556986123,9.605012799450364 71.36270202116593,9.516983150575426 71.568104535207,9.360485997019905 71.80285026554063,9.125740266686972 72.0865013563591,8.695373094410506 72.69292782638473,7.384709433386061 73.2015435754393,6.113170060749627 73.30913536850929,5.731708248959392 73.33847858480047,5.52630573491764 73.33847858480047,5.291560004585402 73.23088679173188,4.3917013716430695 73.22110571963435,3.9808963435602616 73.26023000802306,3.5798723875749783 73.42650823367542,2.6506705383414633 73.43628930577293,2.3670194475222988 73.4167271615779,2.181179077675596 73.348259656898,1.9562144194401865 73.24066786382801,1.7116876170104238 72.63424139380237,0.8509532724567973 72.55599281702496,0.7042371909988007 72.51686852863625,0.5575211095408041 72.55599281702496,0.4010239559852834 72.6440224658999,0.3032132350135173 72.81030069155224,0.20540251404175125 73.08417071027318,0.1271539372636434 73.55366217093906,0.06846750468058374 74.10140220838234,0.029343216291877316 75.99893019523807,0 91.40411874832841,0.009781072097524102 111.7389676384055,0.05868643258375463 120.36587322813541,0.03912428838870643 122.26340121499254,0.06846750468058374 123.70121881327994,0.1564971535555207 124.65976387880532,0.2934321629159932 125.42268750238719,0.47927253276269627 125.85305467466435,0.635769686318217 126.2051732701627,0.8118289840680909 126.5768540098561,1.0661368585946827 126.84094295648093,1.3204447331219695 127.02678332632833,1.545409391358074 127.2028426240782,1.829060482176543 127.70167730103525,2.9049784128687497 127.99510946395124,3.403813089825799 128.22007412218596,3.6874641806442683 128.4548198525196,3.922209910977202 128.96343560157416,4.323233866962485 129.54051885530862,4.646009246169661 130.2349749742092,4.900317120696948 130.99789859779105,5.095938562641175 133.02258052191183,5.516524662820811 133.54097734306254,5.663240744278808 134.03981202001958,5.839300042027987 134.47017919229674,6.074045772360921 134.76361135521273,6.328353646888208 134.95923279715626,6.621785809804201 135.03748137393367,6.944561189012071 135.02770030183754,7.208650135636187 134.96901386925379,7.433614793871596 134.85164100408767,7.697703740496407 134.6364574179491,8.010698047606754 134.36258739922815,8.3236923547171 134.03981202001958,8.617124517633094 132.6019944217322,9.732166736713312 132.21075153784375,10.074504260115535 131.95644366331646,10.328812134642822 131.67279257249797,10.671149658045046 131.47717113055307,10.974362893057869 131.271768616512,11.394948993237504 131.15439575134587,11.776410805028435 131.0957093187635,12.304588698277362 131.13483360715222,12.813204447331241 131.22286325602715,13.282695907997107 131.55541970733185,14.56401635273037 131.64344935620542,15.033507813395543 131.69235471669165,15.493218201963886 131.7216979329842,16.520230772169864 131.60432506781672,19.092652733733217 131.63366828410926,20.393535322660835 131.70213578878918,21.224926450923277 131.79994650976164,21.929163641921384 132.17162724945504,23.543040537959346 132.25965689832998,24.05165628701392 132.28900011462116,24.648301684942734 132.24009475413493,25.332976731746488 132.03469224009388,26.223054292591993 131.54563863523433,27.758682611851846 131.39892255377563,28.34554693768383 131.30111183280457,29.04000305658511 131.21308218392963,30.722347457303655 131.085928246666,31.573300729759758 130.78271501165247,32.9230886791736 130.15672639743178,35.08470561265485 129.82416994612709,36.03346960608272 129.39380277384993,36.96267145531693 129.10037061093394,37.49084934856585 127.93642303136748,39.33947197493605 127.60386658006279,39.96546058915675 127.44736942650796,40.298017040461446 127.29087227295175,40.77728957322484 127.21262369617433,41.13918924082072 127.18328047988315,41.49130783631977 127.19306155198068,41.95101822488881 127.35933977763302,43.4279601115656 127.43758835441044,45.296144882130854 127.5353990753829,45.794979559087906 127.7212394452289,46.41118710121108 127.9070798150763,46.841554273488235 128.37657127574218,47.780537194819274 128.58197378978323,48.25002865548514 128.75803308753171,48.73908226034467 129.14927597142017,50.05952699346663 129.3448974133637,50.54858059832686 129.6089863599885,51.10610170786696 129.9415428112932,51.66362281740777 130.26431819050038,52.12333320597611 130.70446643487506,52.66129217132187 131.52607649103928,53.60027509265291 131.83907079815035,54.01108012073502 132.06403545638506,54.34363657204042 132.1911893936487,54.597944446567006 132.38681083559362,55.13590341191346 132.44549726817598,55.478240935314986 132.46505941237103,55.77167309823098 132.4552783402735,56.10422954953568 132.4161540518848,56.42700492874355 132.28900011462116,56.91605853360377 131.80972758185914,58.35387613189186 131.74126007717788,58.69621365529408 131.7119168608867,59.01898903450126 131.73147900508036,59.44935620677842 131.82928972605282,59.860161234860534 131.966224735414,60.13403125358217 132.2303136820374,60.48614984908122 132.42593512398233,60.691552363122284 132.69002407060574,60.85783058877463 133.09104802659172,61.05345203071886 133.57032055935372,61.21973025637121 134.00068773163088,61.29797883314862 134.4506170481017,61.34688419363485 134.99835708554497,61.34688419363485 135.40916211362847,61.3273220494405 136.3383639628613,61.1806059679825 137.03282008176328,60.984984526038275 137.69793298437267,60.740457723608515 139.2629045199251,60.06556374890159 139.75195812478464,59.909066595346765 140.21166851335298,59.79169373017995 140.78875176708743,59.7036640813057 141.45386466969683,59.65475872081947 143.48832766591514,59.63519657662512 144.08497306384325,59.60585336033324 144.69139953387028,59.537385855653355 145.22935849921603,59.429794062584065 145.94337676231166,59.214610476445486 147.42031864898917,58.69621365529408 149.49390593359476,58.089787185267745 150.12967561991297,57.855041454934806 150.62851029687002,57.63985786879623 151.2447178389932,57.317082489589055 151.85114430902024,56.945401749894955 153.68020479119608,55.634738088870506 154.29641233331924,55.233714132885225 155.06911702899865,54.803346960608756 155.76357314789922,54.48057158140089 156.722118213426,54.15779620219302 157.60241470217397,53.96217476024948 158.55117869560186,53.84480189508267 159.58797233790466,53.795896534597134 161.56374890153918,53.825239750888315 163.03090971611917,53.8937072555689 163.94054942115832,54.01108012073502 164.57631910747654,54.17735834638807 164.91865663087876,54.324074427846064 165.16318343330852,54.45122836510901 165.47617774041817,54.66641195124759 165.7109234707518,54.88159553738617 166.1510717151251,55.36086807014887 167.2954571504979,56.79868566843695 167.5888893134139,57.111679975547304 167.90188362052493,57.38554999426894 168.24422114392576,57.64963894089375 168.58655866732798,57.874603599129166 169.3690444351035,58.30497077140563 170.17109234707408,58.657089366905375 170.8851106101697,58.921178313529495 171.63825316165403,59.15592404386243 172.53811179459706,59.37110763000031 173.3695029228588,59.49826156726395 174.0248347533707,59.54716692775018 174.7290719443688,59.55694799984771 175.57024414472806,59.517823711458306 176.9591563825306,59.380888702097835 178.28938218774942,59.17548618805678 179.25770832537233,58.9603026019182 179.98150766056548,58.72555687158526 180.66618270736993,58.41256256447492 180.9498337981884,58.23650326672574 181.16501738432697,58.07022504107339 181.34107668207685,57.89416574332352 181.47801169143665,57.70832537347681 181.56604134031159,57.52248500363011 181.644289917089,57.2583960570053 181.65407098918652,56.97474496618683 181.59538455660277,56.66175065907648 181.44866847514547,56.29985099147991 181.24326596110438,55.91838917968898 180.77377450043852,55.24349520498275 179.37508119053985,53.51224544377797 178.5436900622767,52.40698429679458 177.88835823176484,51.37019065449178 177.38952355480777,50.40186451686886 177.16455889657166,49.88346769571746 176.9200320941419,49.18901157681618 176.82222137316944,48.8271119092196 176.76353494058708,48.46521224162303 176.7733160126846,48.09353150192962 176.83200244526697,47.829442555305505 176.92981316623943,47.58491575287505 177.08631031979425,47.35995109463964 177.2917128338353,47.15454858059858 177.5068964199739,46.978489282848706 177.82967179918109,46.80242998509953 178.1328850341946,46.67527604783589 178.48500362969435,46.57746532686412 178.9544950903602,46.489435677989185 179.98150766056548,46.41118710121108 181.19436060061815,46.43074924540612 182.06487601726863,46.50899782218354 182.7593321361706,46.64593283154401 184.33408474381915,47.07630000382117 184.8329194207762,47.144767508501054 185.18503801627594,47.1252053643067 185.61540518855173,47.01761357123811 185.8305887746903,46.91980285026565 186.0164291445377,46.80242998509953 186.22183165857876,46.63615175944718 186.35876666793993,46.47965460589166 186.48592060520357,46.30359530814248 186.62285561456335,46.03950636151767 186.7206663355358,45.77541741489355 186.7891338402157,45.423298819394496 186.88694456118816,43.61380048141231 186.96519313796557,43.12474687655209 187.0825660031317,42.67481756008127 187.3075306613678,42.10751537844364 187.5716196079926,41.628242845680944 187.87483284300612,41.148970312918244 188.5008214572268,40.27845489626709 188.7942536201428,39.77962021931005 188.98987506208633,39.26122339815864 189.0876857830588,38.6547969281323 189.10724792725247,38.33202154892443 189.0876857830588,37.84296794406491 188.98987506208633,37.07026324838622 188.8725021969202,36.55186642723412 188.36388644786564,34.5858709356971 188.14870286172706,33.4023612119363 188.08023535704717,32.74702938142373 188.06067321285212,32.16994612768927 188.08023535704717,31.583081801857283 188.15848393382458,30.58541244794249 188.15848393382458,30.08657777098544 188.0900164291433,29.626867382417096 187.943300347686,29.157375921751925 187.66943032896367,28.590073740114292 187.47380888702014,28.277079433003944 187.14125243571544,27.82715011653243 186.70110419134215,27.308753295381027 185.36109731402584,25.880716769189767 185.0578840790123,25.51881710159319 184.73510869980512,25.078668857219203 184.48080082527784,24.67764490123461 184.2460550949442,24.23749665686062 183.610285408626,22.90727085164113 183.2777289573213,22.30084438161479 183.02342108279402,21.870477209338326 182.5734917663232,21.24448859511763 182.10400030565734,20.70652962977118 181.51713597982535,20.129446376036718 180.82267986092475,19.55236312230156 180.0597562373429,19.004623084858977 178.797997936804,18.192794100790884 176.33316776830992,16.686508997822212 174.48454514193904,15.649715355519406 173.28147327398386,15.053069957589896 172.43052000152707,14.700951362090843 171.79475031521025,14.485767775952263 171.1100752684058,14.29992740610556 168.89955297443902,13.781530584954156 167.7453864669687,13.409849845260752 166.82596568983203,13.018606961372992 164.64478661215642,12.020937607458198 162.62010468803706,11.179765407098925 161.58331104573284,10.710273946433752 160.7910442058598,10.289687846254116 159.9694341496956,9.781072097199543 156.7612425018147,7.648798380010177 156.02766209452403,7.101058342566897 155.57773277805322,6.690253314484784 155.30386275933088,6.396821151568791 155.06911702899865,6.103388988652798 154.78546593818018,5.702365032667514 154.5409391357504,5.291560004585402 154.29641233331924,4.792725327627657 154.061666602987,4.254766362281901 153.88560730523713,3.7559316853248523 153.69976693539112,2.9636648454518095 153.66064264700242,2.572421961563355 153.66064264700242,2.2594276544530087 153.70954800748726,1.9757765636345397 153.80735872845972,1.6823444007185464 153.97363695411207,1.3791311657050291 154.13991517976442,1.1737286516639729 154.355098765903,0.9976693539147939 154.65831200091654,0.8118289840680909 154.95174416383253,0.6944561189012766 155.39189240820582,0.5770832537351573 155.85160279677416,0.49883467695774447 156.36021854582873,0.4401482443739898 157.82737936040868,0.3814618117909302 159.81293699614076,0.3912428838884543 168.01925648569105,0.54774003744328 181.937722080005,0.6259886142206929 190.58418981392995,0.5868643258319864 205.3242654644095,0.645550758415741 234.81419783746475,0.5868643258319864 235.36193787490802,1.271539372636434 235.54777824475542,1.5845336797467804 235.7238375425053,1.91709013105148 235.85099147976894,2.2398655102586558 235.92924005654635,2.543078745272173 235.95858327283753,2.826729836090642 235.93902112864387,3.090818782715453 235.8314293355739,3.394032017728275 235.6162457494353,3.6776831085474395 235.33259465861684,3.931990983074726 234.52076567454873,4.509074236809188 234.20777136743908,4.763382111336475 233.9534634929118,5.047033202154944 233.81652848355063,5.340465365070938 233.78718526725945,5.555648951209518 233.79696633935697,5.829518969931158 233.85565277193933,6.1229511328471515 234.1001795743705,6.973904405303253 234.1393038627592,7.247774424024893 234.12952279066167,7.511863370649705 234.0708363580779,7.77595231727382 233.97302563710684,8.04982233599546 233.49375310434345,8.959462041034623 233.3665991670798,9.262675276048139 233.27856951820488,9.556107438964133 233.25900737401122,9.820196385588249 233.2883505903024,10.054942115921182 233.38616131127486,10.30924999044847 233.85565277193933,11.072173614029634 233.98280670920298,11.346043632751275 234.05127421388426,11.629694723570438 234.0317120696892,11.962251174875139 233.9534634929118,12.26546440988796 233.82630955564815,12.549115500707124 233.09272914835887,13.820654873342864 232.37871088526325,15.219348183242246 232.19287051541585,15.639934283421882 232.0657165781522,15.992052878920935 231.9874680013748,16.344171474420683 231.9581247850836,16.72563328621092 231.96790585717974,17.077751881710665 232.01681121766597,17.390746188821012 232.1341840828321,17.693959423833835 232.30046230848583,17.94826729836112 232.56455125510925,18.222137317082762 232.92645092270652,18.496007335804403 234.22733351163274,19.395865968746733 235.64558896572788,20.31528674588342 235.97814541703258,20.579375692507536 236.25201543575352,20.843464639132346 236.55522867076704,21.27383181140881 236.78997440109927,21.772666488365864 236.93669048255796,22.281282237420438 236.95625262675162,22.69208726550255 236.91712833836291,22.887708707446777 236.82909868948798,23.083330149391003 236.70194475222434,23.23982730294583 236.52588545447585,23.376762312306997 236.10529935429622,23.59194589844488 235.08806785618708,23.963626638138983 234.72616818859117,24.120123791693807 234.38383066518895,24.345088449929218 234.09039850227296,24.62873954074838 233.81652848355063,25.06888778512237 233.3274748786911,26.193711076300115 232.59389447140182,27.641309746685728 232.2906812363883,28.042333702671012 231.74294119894503,28.52160623543371 231.60600618958387,28.69766553318358 231.53753868490398,28.883505903030283 231.48863332441775,29.108470561265694 231.47885225232022,29.58774309402839 231.56688190119516,30.018110266305552 231.71359798265385,30.399572078095787 231.92878156879104,30.732128529400484 232.1733083712222,30.986436403927772 232.47652160623431,31.172276773774474 233.53287739273216,31.573300729759758 234.30558208841154,31.944981469453165 235.00003820731214,32.37534864173033 235.26412715393695,32.58075115577138 235.48909181217167,32.79593474190996 235.6162457494353,32.971994039659144 235.75318075879647,33.236082986283954 236.242234363656,34.7717113055438 236.37916937301716,35.026019180071096 236.5063233102808,35.15317311733474 236.64325831964197,35.26076491040403 236.89756619416926,35.38791884766767 237.3572765827376,35.52485385702814 237.77786268291723,35.593321361708725 238.6581591716652,35.66178886638931 238.59947273908148,35.749818515264245 238.46253772972028,35.82806709204166 237.89523554808335,35.965002101402135 237.71917625033348,36.04325067818024 237.53333588048747,36.170404615443886 237.3181522943489,36.39536927367929 237.00515798723785,36.581209643525995 236.72150689641938,36.67902036449776 236.11508042639235,36.767050013372696 235.91945898444882,36.87464180644199 235.6162457494353,37.15829289726046 235.52821610056037,37.27566576242727 235.4304053795893,37.53975470905139 235.41084323539425,37.87231116035609 235.36193787490802,37.97990295342538 235.17609750506202,38.126619034883376 234.73594926068733,38.24399190005019 234.6479196118124,38.31245940473008 234.60879532342366,38.4689565582856 234.48164138616002,38.60589156764607 234.41317388148013,38.71348336071536 234.38383066518895,38.83085622588218 234.39361173728648,39.07538302831194 234.37404959309143,39.18297482138123 234.22733351163274,39.49596912849157 233.97302563710684,39.75027700301886 233.5133152485385,40.102395598517916 233.37638023917734,40.25889275207274 233.3568180949823,40.36648454514203 233.4350666717597,40.5425438428919 233.48397203224593,40.97291101516837 233.45462881595475,41.540213196806 233.38616131127486,41.706491422458356 233.0633859320663,42.12707752263799 232.9949184273864,42.30313682038786 232.97535628319136,42.49875826233139 232.98513735528888,42.753066136858685 233.20032094142746,43.43774118366313 233.2198830856225,43.65292476980102 233.13185343674758,43.877889428036426 232.90688877851147,44.200664807244294 232.85798341802524,44.32781874450794 232.85798341802524,44.42562946547971 232.88732663431782,44.55278340274335 232.93623199480265,44.621250907423935 233.2883505903024,44.9049019982424 233.46440988805227,45.22767737745027 233.5817827532184,45.53089061246379 233.6600313299958,45.84388491957414 233.68937454628698,46.02972528942084 233.67959347419085,46.24490887555872 233.60134489741205,46.46009246169731 233.25900737401122,47.11542429220987 233.01448057158007,47.46754288770893 232.78951591334535,47.68272647384751 232.32980552477702,48.05440721354091 231.55710082909764,48.611928323081024 231.4690711802227,48.709739044053485 231.43972796393152,48.797768692927725 231.45929010812657,48.86623619760831 231.52775761280645,48.94448477438572 231.77228441523621,49.08141978374689 232.2124326596109,49.277041225691114 232.6525809039842,49.374851946662886 234.1784281511479,49.53134910021771 234.55988996293883,49.52156802812088 235.19565964925567,49.46288159553782 235.64558896572788,49.492224811829004 236.10529935429622,49.57047338860711 236.52588545447585,49.73675161425946 237.27902800596019,50.17689985863345 237.55289802468113,50.3040537958971 237.914797692277,50.40186451686886 238.6777213158589,50.529018454132505 239.9786039047865,50.97894777060332 240.25247392350883,51.11588277996449 240.46765750964602,51.28216100561684 240.54590608642482,51.38975279868613 240.67306002368846,51.68318496160212 240.77087074465953,51.79077675467141 240.91758682611822,51.87880640354565 241.30882971000528,51.98639819661494 241.40664043097775,52.045084629198 241.5337943682414,52.230924999045406 241.7587590264775,52.46567072937764 241.84678867535243,52.62216788293316 241.93481832422597,52.87647575746045 241.93481832422597,53.14056470408457 242.00328582890725,53.277499713445735 242.1695640545596,53.443777939098084 242.61949337103044,53.737210102014075 242.6781798036142,53.81545867879149 242.66839873151667,53.91326939976325 242.58036908264174,54.07954762541561 242.00328582890725,54.862033393191815 241.67072937760256,55.45867879112063 241.18167577274164,56.10422954953568 240.73174645627083,56.739999235853894 240.44809536545236,57.023650326673064 240.0959767699526,57.30730141749153 239.7927635349405,57.502922859435756 239.30370993007958,57.76701180605987 239.0200588392611,57.982195392198456 238.8342184694137,58.197378978337035 238.59947273908148,58.6277461506135 238.3940702250404,58.862491880946436 238.04195162954065,59.087456539181844 236.95625262675162,59.61563443243077 235.97814541703258,59.88950445115241 235.75318075879647,59.967753027929824 235.63580789363036,60.05578267680476 235.56734038894908,60.16337446987405 235.4988728842692,60.3296526955264 235.47931074007553,60.52527413746993 235.52821610056037,60.691552363122284 235.6162457494353,60.8089252282891 235.7238375425053,60.877392732968985 236.74106904061304,61.386008482023556 237.0247201314329,61.62075421235649 237.28880907805632,61.943529591564364 237.38661979902878,62.13915103350789 237.45508730370867,62.38367783593835 237.45508730370867,62.696672143048694 237.41596301531996,63.05857181064458 237.32793336644502,63.32266075726939 237.20077942918138,63.53784434340728 236.96603369884915,63.81171436212892 236.59435295915574,64.15405188553115 236.36938830091964,64.33989225537785 236.14442364268493,64.47682726473901 235.95858327283753,64.5452947694189 235.56734038894908,64.65288656248819 235.44996752378296,64.72135406716878 235.37171894700555,64.80938371604371 235.30325144232566,64.94631872540418 235.27390822603448,65.12237802315406 235.27390822603448,65.48427769074993 235.26412715393695,65.56252626752804 235.1663164329645,65.63099377220793 234.93157070263226,65.6212127001111 234.86310319795098,65.66033698849981 234.8728842700485,65.96355022351332 234.8337599816598,66.16895273755439 234.72616818859117,66.45260382837286 234.5109846024526,66.89275207274684 234.2860199442165,67.78282963359234 234.14908493485532,68.10560501279953 233.73827990677322,68.8000611317008 233.5817827532184,69.12283651090867 233.49375310434345,69.39670652963031 233.44484774385722,69.6901386925463 233.48397203224593,70.01291407175349 233.65025025789828,70.62912161387734 233.7284988346757,71.5387613189165 234.0317120696892,72.3114660145952 234.2566767279253,72.99614106139964 234.35448744889638,73.48519466625916 234.43273602567518,74.11118328047986 234.5109846024526,74.3850532992015 234.74573033278483,74.96213655293666 234.8337599816598,75.49031444618558 234.9413517747284,75.7544033928097 235.2054407213532,76.20433270928052 235.23478393764438,76.36082986283604 235.2054407213532,76.65426202575203 235.21522179345072,76.81075917930686 235.55755931685295,77.59324494708308 235.6162457494353,77.75952317273543 235.6162457494353,77.92580139838778 235.54777824475542,78.09207962404012 235.42062430749178,78.24857677759564 235.1271921445758,78.46376036373353 235.0196003515072,78.57135215680282 234.98047606311846,78.69850609406646 235.00981927940967,78.79631681503892 235.1663164329645,78.93325182439939 235.38150001910307,79.02128147327433 235.74339968669895,79.13865433844045 236.67260153593315,79.35383792457904 236.84866083368303,79.50055400603704 237.08340656401526,79.5983647270088 237.52355480838995,79.68639437588374 238.2864784319718,79.69617544798126 238.7559698926363,79.75486188056432 239.26458564169087,79.91135903411914 239.9786039047865,80.23413441332701 240.34050357238237,80.43953692736807 240.56546823061848,80.65472051350665 240.91758682611822,81.12421197417181 241.4262025751728,81.70129522790698 241.52401329614386,81.90669774194804 241.51423222404634,82.06319489550356 241.4262025751728,82.2294731211559 241.25992434952045,82.40553241890508 240.96649218660446,82.65984029343237 240.88824360982565,82.7478699423073 240.81977610514576,83.06086424941765 240.69262216788212,83.35429641233365 240.63393573529837,83.63794750315212 240.58503037481353,83.73575822412458 240.50678179803612,83.83356894509635 240.26225499560496,83.96072288235999 239.63626638138427,84.16612539640104 239.14721277652475,84.48890077560891 238.70706453215143,84.73342757803867 238.34516486455416,84.9681733083716 237.81698697130594,85.1833568945102 237.71917625033348,85.26160547128761 237.70939517823595,85.30072975967632 237.73873839452853,85.33985404806502 237.86589233179217,85.37897833645373 238.9809345508724,85.43766476903679 239.28414778588592,85.47678905742549 239.5775799488019,85.56481870630043 239.94926068849531,85.72131585985595 240.21334963512012,85.8875940855083 240.34050357238237,86.03431016696629 240.36006571657742,86.18102624842429 240.26225499560496,86.34730447407664 239.90035532800908,86.74832843006192 239.59714209299557,87.31563061169956 239.1667749207198,87.88293279333719 239.088526343941,88.07855423528072 239.03962098345616,88.45023497497412 238.96137240667736,88.63607534482152 238.8342184694137,88.78279142627952 238.4723188018178,89.1055668054867 238.2864784319718,89.35009360791646 238.1006380621244,89.73155541970739 238.022389485347,90.06411187101209 237.9539219806657,90.1814847361789 237.435525159515,90.67053834103842 236.96603369884915,90.89550299927454 236.77041225690562,91.02265693653818 236.59435295915574,91.25740266687042 236.33026401253093,91.472586253009 236.21289114736481,91.79536163221687 236.11508042639235,91.95185878577169 235.69449432621272,92.28441523707639 235.5771214610466,92.41156917434003 235.50865395636671,92.65609597677049 235.50865395636671,92.74412562564474 235.52821610056037,92.81259313032533 235.6162457494353,92.88106063500591 236.11508042639235,93.12558743743567 236.2031100752673,93.24296030260248 236.22267221946234,93.37989531196295 236.18354793107363,93.51683032132343 236.0955182821987,93.64398425858707 235.66515110992154,93.95697856569741 235.5379971726579,94.09391357505858 235.469529667978,94.20150536812787 235.44996752378296,94.30909716119716 235.47931074007553,94.46559431475198 235.66515110992154,94.81771291025105 236.10529935429622,95.30676651511126 236.30092079623975,95.74691475948525 236.40851258930834,95.94253620142948 236.78997440109927,96.36312230160841 237.08340656401526,96.77392732969123 237.40618194322383,97.10648378099593 237.55289802468113,97.30210522294016 237.68005196194477,97.54663202536992 237.728957322431,97.67378596263356 237.728957322431,97.78137775570285 237.67027088984725,98.00634241393826 237.6898330340423,98.1334963512019 238.1006380621244,98.5736445955759 238.29625950406793,98.83773354220001 238.34516486455416,98.9453253352693 238.31582164826298,99.03335498414424 238.18866771099934,99.11160356092165 238.1397623505131,99.18007106560223 238.17888663890182,99.47350322851823 238.1006380621244,99.6495625262681 237.8756734038883,99.82562182401728 237.33771443854255,100.11905398693327 237.18121728498772,100.26577006839126 237.04428227562656,100.45161043823798 236.96603369884915,100.6472318801822 236.95625262675162,101.05803690826431 236.9073472662654,101.27322049440289 236.80953654529432,101.41015550376336 236.52588545447585,101.63512016199947 236.47698009398962,101.70358766667935 236.49654223818328,101.76227409926311 236.64325831964197,101.92855232491546 236.63347724754445,102.07526840637345 236.56500974286456,102.18286019944274 236.34982615672598,102.3491384250951 236.31070186833728,102.40782485767816 236.3596072288235,102.47629236235805 236.56500974286456,102.54475986703864 236.8780040499742,102.56432201123299 237.15187406869654,102.74038130898286 237.32793336644502,102.90665953463521 237.61158445726488,103.26855920223178 237.74851946662466,103.45439957207849 237.81698697130594,103.59133458143896 237.82676804340346,103.68914530241142 237.8072058992084,103.78695602338318 237.53333588048747,104.06082604210482 237.47464944790372,104.18797997936846 237.5039926641949,104.43250678179824 237.67027088984725,104.9019982424641 237.4648683758062,105.72360829862832 237.47464944790372,105.92901081267007 237.56267909677865,106.22244297558608 237.68005196194477,106.47675085011267 237.90501662018087,106.77996408512618 238.00282734115194,107.15164482481958 238.07129484583322,107.17120696901394 238.2864784319718,107.1223016085284 238.5114430902065,107.20055018530581 238.58969166698395,107.25923661788887 239.09830741603852,108.17865739502557 239.48955029992698,108.66771099988578 240.18400641882755,109.31326175830083 240.41875214916118,109.7142857142861 240.47743858174354,109.74362893057729 240.62415466320223,109.74362893057729 240.70240323997965,109.782753218966 241.2012379169367,110.25224467963187 241.3186107821028,110.41852290528422 241.35773507049151,110.5945822030341 241.12298934015928,111.30860046612972 240.96649218660446,111.55312726855948 240.8393382493408,111.65093798953124 240.3894089328686,111.88568371986419 240.26225499560496,112.01283765712783 240.04707140946778,112.32583196423818 239.92969854430027,112.45298590150182 239.45042601153827,112.83444771329275 238.95159133458122,113.12787987620874 238.49188094601286,113.54846597638837 238.12020020631945,113.74408741833192 237.68005196194477,113.87124135559556 237.33771443854255,113.89080349978991 236.8388797615855,113.80277385091497 236.66282046383563,113.83211706720685 236.55522867076704,113.91036564398426 236.18354793107363,114.28204638367836 235.70427539831024,114.6635081954686 235.58690253314413,114.81022427692659 235.56734038894908,114.99606464677329 235.62602682153283,115.21124823291187 235.77274290299152,115.42643181905045 235.97814541703258,115.61227218889715 236.25201543575352,115.72964505406328 237.44530623161253,116.06220150536868 237.69961410613982,116.18935544263162 237.8756734038883,116.32629045199279 237.96370305276324,116.45344438925643 238.03217055744452,116.5903793986169 238.1397623505131,117.1479005081577 238.23757307148557,117.41198945478182 238.208229855193,117.5098001757536 238.09085699002688,117.58804875253169 237.81698697130594,117.65651625721159 237.25946586176514,117.695640545601 236.95625262675162,117.67607840140595 236.55522867076704,117.60761089672606 235.8314293355739,117.42177052687934 235.26412715393695,117.22614908493512 234.59901425132753,116.86424941733854 233.89477706032804,116.57081725442255 233.63068811370462,116.49256867764514 232.92645092270652,116.34585259618714 232.55477018301173,116.34585259618714 231.78206548733374,116.48278760554761 230.75505291712705,116.58059832652008 230.53986933098986,116.57081725442255 230.43227753791987,116.52191189393702 230.3735911053375,116.42410117296455 230.3735911053375,116.01329614488245 230.30512360065623,115.77855041454951 230.1779696633926,115.5927100447028 230.04103465403142,115.51446146792539 229.89431857257412,115.83723684713257 229.4737324723945,116.60016047071443 229.10205173270109,117.66629732930912 229.0727085164099,117.81301341076711 229.0727085164099,118.00863485271134 229.12161387689474,118.28250487143298 229.19986245367355,118.42922095289028 229.83563213999037,119.22148779276401 230.23665609597634,119.62251174874861 230.51052611469729,119.81813319069283 231.37126045925163,120.26806250716434 231.62556833377892,120.45390287701105 231.78206548733374,120.61040003056587 231.90921942459738,120.8060214725101 232.08527872234725,121.15814006800915 232.20265158751337,121.70588010545244 232.24177587590208,122.11668513353455 232.3591487410682,122.20471478240948 232.9949184273864,122.62530088258912 233.34703702288616,122.82092232453334 234.10996064646662,123.08501127115746 235.3521568028119,123.38822450617099 235.58690253314413,123.49581629923958 235.6162457494353,123.54472165972581 235.6162457494353,123.61318916440639 235.44018645168683,123.80881060635062 235.14675428877084,124.01421312039167 233.63068811370462,124.70866923929295 232.97535628319136,124.93363389752835 232.07549765024973,125.1292553394719 231.77228441523621,125.21728498834683 231.29301188247422,125.45203071867977 230.78439613341962,125.82371145837317 229.5519810491719,126.33232720742774 228.6619034883264,126.59641615405185 228.02613380200958,126.67466473082996 227.810950215871,126.74313223550985 227.49795590875996,126.93875367745407 227.04802659228912,127.31043441714749 226.3046651129023,128.15160661750676 226.3731326175822,128.2396362663817 226.5589729874296,128.63087915026946 226.77415657356818,129.2470866923933 226.87196729453925,129.43292706224003 226.95999694341418,129.55029992740614 227.04802659228912,129.579643143698 227.12627516906653,129.55029992740614 227.23386696213652,129.41336491804566 227.27299125052522,129.23730562029579 227.38058304359384,129.22752454819897 227.45883162037126,129.2764299086845 227.69357735070489,129.52095671111496 228.33912810911923,129.85351316241966 228.46628204638287,129.95132388339144 228.5543116952578,130.0491346043632 228.583654911549,130.1273831811413 228.56409276735533,130.21541283001625 228.3684713254104,130.40125319986294 228.2119741718556,130.65556107438954 227.8794177205509,130.90008787681998 227.79138807167595,131.0565850303748 227.7327016390936,131.26198754441657 227.76204485538477,131.39892255377703 227.88919879264841,131.51629541894314 228.11416345088313,131.60432506781808 228.3293470370217,131.6434493562068 228.67168456042393,131.58476292362374 229.57154319336695,131.27176861651338 229.64979177014436,131.21308218393034 229.70847820272672,131.14461467924974 229.79650785160166,130.84140144423694 229.85519428418542,130.7142475069733 230.0312535819353,130.54796928132095 230.30512360065623,130.43059641615412 230.8919879264882,130.28388033469614 231.74294119894503,129.92198066710023 232.03637336186102,129.86329423451647 232.22221373170703,129.86329423451647 232.88732663431782,129.99044817178014 233.65025025789828,130.02957246016885 234.19799029534155,129.96110495548893 234.49142245825755,129.873075306614 234.71638711649365,129.77526458564225 234.86310319795098,129.66767279257294 234.98047606311846,129.55029992740614 235.2054407213532,129.2470866923933 235.32281358651932,129.1688381156159 235.45974859588048,129.13949489932403 235.8020861192827,129.14927597142085 236.00748863332376,129.1297138272265 236.6921636801282,128.96343560157416 236.86822297787668,128.89496809689427 236.95625262675162,128.82650059221368 237.03450120352903,128.69934665495003 237.11274978030784,128.41569556413089 237.18121728498772,128.26897948267288 237.2496847896676,128.21029305008983 237.33771443854255,128.17116876170113 237.59202231306983,128.16138768960428 238.3647270087492,128.28854162686793 239.4210827952457,128.74825201543626 239.61670423719062,128.9145302410886 239.9394796163978,129.25686776449015 240.26225499560496,129.53073778321178 240.36984678867495,129.65789172047542 240.55568715852095,130.03935353226638 240.81977610514576,130.8316203721394 240.868681465632,131.14461467924974 240.85890039353447,131.3891414816795 240.8295571772433,131.5358575631375 240.6828410957846,131.8684140144429 240.37962786077247,132.31834333091373 240.3111603560912,132.55308906124665 240.33072250028624,132.73892943109337 240.39919000496613,132.88564551255135 240.6437168073959,133.1301723149811 241.64138616130998,133.8246284338824 242.08153440568466,134.04959309211782 242.4629962174756,134.17674702938146 243.65628701333324,134.47996026439498 244.06709204141535,134.5288656248805 244.70286172773356,134.5679899132699 245.13322890001072,134.54842776907554 245.3484124861493,134.47017919229745 245.6418446490653,134.2256523898677 245.76899858632893,134.16696595728462 246.1308982539248,134.66580063424166 246.46345470522954,135.06682459022696 246.81557330072928,135.418943185726 247.1872540404227,135.7025942765445 247.81324265464337,136.0449317999467 249.06521988308475,136.57310969319562 249.67164635311178,136.8665418561116 251.31486646544025,137.81530584954018 251.8137011423973,138.15764337294172 252.0386658006334,138.3826080311771 252.16581973789704,138.54888625682946 252.23428724257693,138.72494555457934 252.25384938677198,138.89122378023168 252.23428724257693,139.02815878959285 252.17560080999456,139.14553165475897 252.05822794482845,139.31180988041132 251.46158254689894,139.90845527834085 251.2953043212466,140.12363886447872 251.2268368165667,140.25079280174236 251.19749360027413,140.39750888320037 251.2268368165667,140.62247354143577 251.31486646544025,140.76918962289378 251.4420204027039,140.91590570435176 251.67676613303752,141.111527146296 251.92129293546728,141.25824322775398 252.56684369388162,141.57123753486434 254.2589691666977,142.2950368700575 254.8458334925297,142.60803117716785 255.23707637641814,142.92102548427818 255.39357352997297,143.09708478202737 255.5207274672366,143.27314407977724 255.69678676498648,143.65460589156817 255.86306499063883,144.21212700110829 255.94131356741624,144.71096167806533 256,145.3956367248691 255.98043785580495,146.12921713215906 255.91197035112506,146.7356436021854 255.78481641386142,147.35185114430928 255.63810033240273,147.8017804607801 255.46204103465286,148.18324227257102 255.28598173690438,148.46689336339017 255.08057922286193,148.6918580216256 254.806709204141,148.90704160776417 254.56218240171123,149.0244144729303 254.22962595040653,149.09288197761086 253.9166316432955,149.11244412180523 253.4471401826296,149.07331983341652 252.84071371260396,148.96572804034722 252.06800901692458,148.74076338211182 251.43223933060776,148.49623657968135 250.8551560768719,148.19302334466855 250.58128605815097,147.97783975852997 250.34654032781873,147.72353188400268 250.14113781377628,147.4300997210867 249.72055171359662,146.7356436021854 249.4564627669732,146.38352500668634 249.29018454132085,146.23680892522836 249.10434417147346,146.10965498796472 248.88916058533488,146.01184426699294 248.65441485500264,145.93359569021553 248.25339089901806,145.85534711343743 247.76433729415714,145.82600389714625 243.76387880640323,145.923814618118 243.05964161540513,145.89447140182682 241.64138616130998,145.7379742482713 241.28926756581163,145.7379742482713 240.9762732587006,145.80644175295188 240.77087074465953,145.89447140182682 240.60459251900718,146.02162533909046 240.44809536545236,146.19768463683965 240.33072250028624,146.41286822297823 240.21334963512012,146.79433003476916 240.02750926527273,147.93871547014126 239.86123103962038,148.53536086807006 239.06896419974734,150.49157528751024 238.80487525312253,151.01975318075918 238.5114430902065,151.48924464142436 238.17888663890182,151.89026859740963 237.81698697130594,152.22282504871433 235.1369732166733,154.13013410766828 234.81419783746475,154.44312841477864 234.66748175600742,154.63874985672285 234.54032781874378,154.85393344286143 234.26645780002283,154.84415237076394 233.33725595078863,154.9517441638332 233.1416345088437,154.9419630917357 232.93623199480265,154.90283880334698 232.6525809039842,154.7952470102777 232.05593550605468,154.4724716310705 231.55710082909764,154.25728804493193 228.96511672333992,153.3183051236009 228.00657165781453,152.88793795132443 227.2534291063302,152.64341114889396 226.42203797806843,152.29129255339492 225.8547357964301,152.1347953998401 225.150498605432,152.05654682306198 224.79838000993365,151.97829824628457 224.58319642379507,151.88048752531282 224.12348603522673,151.58705536239682 223.76158636762946,151.45990142513318 222.9693195277564,151.29362319948083 221.84449623657866,151.00019103656481 221.0424483246081,150.89259924349554 220.49470828716483,150.85347495510683 220.06434111488906,150.86325602720365 219.28185534711213,150.94150460398177 217.87338096511593,151.01975318075918 217.10067626943794,151.176250334314 216.35731479004974,151.29362319948083 216.01497726664752,151.39143392045258 215.59439116646925,151.60661750659116 214.9781836243447,152.04676575096516 214.51847323577636,152.27173040920056 214.02941963091683,152.5749436442134 213.57949031444602,152.78034615825513 213.37408780040496,152.90750009551877 212.2688266534209,153.75845336797488 211.84824055324123,154.2377259007376 211.71130554388006,154.34531769380686 211.34940587628418,154.52137699155674 210.8016658388409,154.67787414511156 210.51801474802244,154.5115959194592 210.10720971994033,154.315974477515 209.5007832499133,154.11057196347394 208.74764069842897,153.99319909830783 207.94559278645838,153.97363695411346 207.11420165819663,154.05188553089087 206.2436862415462,154.21816375654322 205.2460168876321,154.5018148473617 204.3265961104954,154.8343712986671 203.52454819852483,155.15714667787427 202.75184350284545,155.55817063385956 202.1454170328198,155.988537806136 201.66614450005642,156.45802926680187 201.38249340923795,156.8297100064953 201.09884231841949,157.30898253925798 200.82497229969715,157.87628472089563 200.24788904596267,159.20651052611512 199.93489473885163,159.81293699614145 199.54365185496457,160.40958239407027 198.77094715928519,161.43659496427625 198.46773392427306,161.91586749703893 198.21342604974578,162.44404539028787 197.57765636342756,164.0481412142283 197.36247277728899,164.43938409811676 197.08860275856665,164.85018912619887 196.75604630726195,165.22186986589227 196.34524127917982,165.5935506055864 193.7434761013246,167.60845145760894 191.7187941772052,169.1147365605776 191.18083521185946,169.5548848049516 190.66243839070736,170.0439384098118 190.09513620907043,170.68948916822686 189.6745501088908,171.30569671035073 189.39089901807094,171.80453138730778 188.78447254804527,173.0369464715548 188.3541053757681,173.8487754556222 188.02154892446342,173.60424865319243 187.70855461735238,173.40862721124822 186.69132311924463,173.00760325526363 186.20226951438372,172.76307645283316 185.81102663049666,172.50876857830588 185.47847017919196,172.21533641538988 185.32197302563574,172.01971497344636 185.21438123256715,171.79475031521025 185.04810300691477,171.04160776372592 184.92094906965113,170.68948916822686 184.63729797883266,170.13196805868677 184.32430367172162,169.60379016543783 184.13846330187562,169.35926336300807 183.93306078783456,169.153860848967 183.15057502005766,168.5572154510375 182.8277996408505,168.26378328812152 182.5734917663232,167.90188362052493 182.47568104535074,167.7160432506782 182.43655675696203,167.54976502502586 182.44633782905956,167.33458143888728 182.4952431895458,167.05093034806882 182.80823749665683,166.0434799220572 183.00385893860036,165.57398846139202 183.49291254345988,164.72303518893523 183.6494096970147,164.3806976655337 183.77656363427835,163.92098727696535 183.82546899476458,163.4906201046882 183.82546899476458,163.21675008596657 183.73743934588964,162.74725862530138 183.7276582737935,162.33645359721856 183.66897184120975,162.14083215527504 183.45378825507117,161.62243533412294 182.92561036182295,160.83994956634743 182.76911320826673,160.57586061972262 182.95495357811413,160.34111488939038 183.10166965957282,159.77381270775274 183.22882359683507,159.5292859053223 183.25816681312764,159.3532266075731 183.2386046689326,159.1184808772402 183.1701371642527,158.95220265158784 183.07232644328025,158.834829786421 182.8669239292392,158.70767584915808 182.837580712948,158.64898941657432 182.96473465021165,158.51205440721384 183.45378825507117,158.17949795590914 183.62006648072352,158.00343865815927 183.85481221105715,157.10358002521693 184.00152829251445,156.6145264203574 184.10912008558304,156.37978069002446 184.3536468880142,155.95919458984483 184.45145760898527,155.75379207580377 184.49058189737397,155.55817063385956 184.54926832995773,154.99086845222192 184.59817369044396,154.1007908913771 184.67642226722137,153.23027547472597 184.81335727658254,152.7999083024495 185.04810300691477,152.25216826500622 185.24372444885833,151.6555228670767 185.3415351698308,151.0588774691479 185.43934589080325,150.70675887364882 185.46868910709443,150.55026172009332 185.44912696289938,150.4035456386353 185.36109731402584,150.23726741298296 184.94051121384618,149.88514881748392 184.65686012302632,149.53303022198486 184.29496045543044,149.16134948229146 184.19714973445798,148.96572804034722 184.14824437397314,148.70163909372312 184.17758759026432,148.30061513773782 184.22649295075055,148.14411798418232 184.36342796011033,147.8800290375582 184.41233332059656,147.59637794673904 184.38299010430538,147.2931647117262 184.1678065181668,146.070530699576 184.1678065181668,145.6988499598826 184.28517938333292,145.1119856340506 184.8720437091649,142.91124441218065 184.90138692545747,142.5200015282929 184.8329194207762,142.26569365376562 184.63729797883266,142.0016047071415 184.1678065181668,141.50277003018377 183.99174722041693,141.25824322775398 183.7276582737935,140.69094104611636 183.49291254345988,140.2996981622286 183.3853207503913,139.82042562946592 183.34619646200258,139.72261490849345 183.24838574103012,139.60524204332734 183.0918885874753,139.53677453864674 182.95495357811413,139.53677453864674 182.7984564245593,139.5954609712298 182.39743246857333,139.8106445573684 182.2018110266298,139.8888931341458 181.9475031521025,139.93779849463203 181.56604134031159,139.97692278302074 181.30195239368814,139.97692278302074 180.87158522141098,139.9280174225352 180.48034233752253,139.85954991785462 180.177129102509,139.76173919688284 179.96194551637183,139.62480418752168 179.81522943491314,139.38027738509192 179.73698085813572,139.09662629427274 179.5413594161922,138.18698658923358 179.48267298360844,137.99136514728937 180.1380048141203,137.3066901004856 180.73465021204981,136.8274175677229 181.1356741680344,136.42639361173764 181.61494670079782,135.98624536736364 181.70297634967275,135.84931035800247 181.7616627822565,135.68303213235012 181.8007870706452,135.10594887861566 181.88881671951876,134.8614220761859 181.99640851258874,134.70492492263037 182.10400030565734,134.60711420165862 182.23115424292098,134.51908455278368 182.35830818018462,134.47017919229745 182.1235624498524,134.45061704810308Z"/>
  </g>
</svg>