<?xml version="1.0" encoding="UTF-8" standalone="no"?>
<svg viewBox="0 0 235.30875887723946 256" xmlns="http://www.w3.org/2000/svg">
  <style>
    g.zone {
      fill: lightgray;
      stroke-width: 2;
      stroke-linecap: square;
      stroke-linejoin: bevel;
      stroke-miterlimit: 3;
      stroke-opacity: 0.8;
      stroke: black;
      fill-opacity: 0.3;
    }
  </style>
  <g class="zone" id="zone">
    <path d="M177.99661819411293,163.40886033141595 178.60263780858872,164.57761244504653 179.33851876902142,167.26141359486041 180.98342915116473,170.03178897531328 181.24315184308466,172.41258031788928 181.71931011159742,175.18295569834214 182.71491376395005,177.82346973283808 183.40750760906172,180.55055799796992 183.9269529928955,182.10889414947428 183.9269529928955,182.88806222522797 183.53736895501865,184.8359824146092 183.53736895501865,185.70172472100185 183.7105174163027,186.69732837335144 184.61954683801332,190.11701048359802 184.5762597226923,193.0605343253288 184.92255664524814,196.4802164355754 184.66283395332817,199.29387893134927 184.14338856949442,201.02536354413152 183.40750760906172,202.15082854244108 180.94014203584985,204.74805546161602 179.51166723029934,206.60940142035824 178.81907338518766,207.95130199526673 178.21305377071187,210.20223199188277 177.91004396347705,210.7216773757196 177.60703415624224,211.0246871829544 177.21745011836538,211.1978356442354 176.61143050388958,211.32769699019232 175.1829556983452,211.24112275955335 173.23503550896092,210.76496449103755 167.21812647954246,209.07676699357322 166.35238417314673,208.86033141697735 165.61650321271404,208.86033141697735 164.83733513696032,209.03347987825526 164.44775109908963,209.2499154548542 162.24010821778538,210.8515387216765 160.9414947581979,211.58741968210919 159.51301995265354,212.23672641190294 158.38755495434398,212.4964491038198 156.8725059181576,212.6263104497798 154.18870476834678,212.23672641190294 150.94217111937502,212.32330064254188 148.1285086236073,212.19343929658498 145.44470747379032,212.75617179573976 142.67433209333748,212.8427460263787 141.332431518429,213.01589448765662 138.73520459925405,213.53533987149038 136.78728440987592,214.22793371660515 131.76597903280395,217.5610415962128 130.81366249577235,218.29692255664546 129.64491038214177,219.422387554955 127.78356442339953,221.803178897531 127.43726750084369,222.3659113966858 127.3506932702078,222.97193101115852 127.48055461616471,223.62123774095224 128.47615826851737,226.04531619884926 128.64930672979528,226.8677713899209 128.64930672979528,227.94994927291253 128.30300980723945,228.90226580994107 127.65370307744263,229.76800811633376 126.6148123097751,230.8934731146433 122.76225904632757,234.26986810956888 121.16063577950528,236.73723368278692 119.90530943523883,238.1657084883313 117.43794386202079,240.1569157930335 115.23030098072272,242.27798444369262 114.40784578965413,243.36016232668115 113.32566790665945,245.30808251606234 113.06594521474565,246.04396347649504 112.9360838687826,247.42915116672148 112.63307406154777,247.7754480892804 112.28677713899194,247.90530943523729 111.55089617855924,247.9485965505583 109.12681772066223,247.60229962800247 107.91477849171679,247.68887385864144 106.87588772404312,247.99188366587626 105.01454176530089,248.9874873182289 104.1920865742323,249.29049712546373 100.25295908014888,249.6800811633406 99.08420696651831,249.98309097057847 96.74670273926333,250.8055461616501 95.9242475481886,250.97869462292803 93.71660466689052,251.02198173824905 89.99391274940604,250.71897193101117 88.47886371321962,250.84883327697113 86.87724044639734,251.19513019952697 85.62191410213089,251.6712884680428 84.49644910382133,252.4071694284755 82.0290835306033,254.96110923232942 81.2499154548496,255.95671288467898 79.43185661142837,255.2641190395673 77.48393642205023,254.74467365573048 75.44944200203008,254.44166384849566 73.19851200541098,254.31180250253567 71.20730470071183,254.44166384849566 69.4758200879265,254.70138654041253 68.09063239770315,255.0909705782894 65.83970240108404,256 63.069327020631185,252.01758539059864 62.42002029083437,251.3682786608049 58.91376394994882,248.77105174162998 56.44639837673079,247.68887385864144 55.06121068650744,246.5634088603319 54.15218126479682,245.52451809266128 53.71931011159895,244.7453500169076 53.50287453500001,244.2259046330738 53.41630030436413,243.49002367264114 53.58944876564205,242.27798444369262 54.844775109908504,238.94487656408498 55.10449780182846,237.94927291173542 55.19107203246434,235.6983429151163 54.80148799458748,232.6682448427466 54.844775109908504,232.01893811295284 55.06121068650744,231.71592830571495 55.58065607034119,231.75921542103598 58.783902603991926,233.01454176530243 60.12580317889426,233.2742644572193 63.89178221169976,233.36083868785826 75.31958065606703,233.8802840716951 77.31078796077232,233.75042272573512 78.8691241122736,233.3175515725403 79.6482921880273,232.6682448427466 80.16773757186107,231.75921542103598 80.55732160973791,230.67703753804437 80.81704430165787,229.63814677037377 81.12005410889269,227.25735542779776 80.90361853229375,225.78559350693237 80.5140344944169,224.87656408522176 80.03787622590416,224.18397024010702 78.65268853568081,222.7987825498806 77.05106526885237,221.37030774433623 73.19851200541098,218.64321947920132 70.55799797091503,217.1281704430149 66.31586066959679,215.52654717619262 65.23368278660826,214.96381467703785 64.67095028745348,214.574230639161 63.89178221169976,213.79506256340727 63.28576259722397,212.7994589110577 62.80960432871123,211.28440987487437 62.59316875211229,210.1156577612438 62.63645586743331,209.2499154548542 62.852891444032245,207.82144064930677 63.329049712544986,206.2631044978024 64.15150490361972,204.74805546161602 65.57997970916409,203.1031450794727 67.31146432194943,201.41494758200838 69.90869124112437,199.33716604667026 71.72675008454559,198.25498816367866 74.84342238755428,196.8265133581343 77.00777815353135,195.39803855258685 77.96009469056298,194.5322962461942 78.69597565099568,193.70984105512252 79.08555968887254,192.93067297937188 79.12884680419354,192.45451471085607 78.99898545823665,192.06493067297922 78.56611430503877,191.63205951978443 76.14203584714176,189.55427798444325 72.46263104497828,185.96144741291874 69.64896854920441,183.75380453162066 68.82651335813584,183.01792357118796 66.74873182279465,180.29083530605305 66.09942509299785,179.07879607710453 65.83970240108404,178.38620223199285 65.88298951639891,177.82346973283808 66.31586066959679,177.43388569496122 67.48461278322735,177.00101454176644 70.25498816368021,176.30842069665167 71.81332431518148,175.7889753128179 72.54920527561417,175.39939127494105 72.80892796753412,175.09638146770317 73.06865065945408,174.44707473790945 73.02536354413306,173.84105512343672 72.33276969902138,172.49915454852822 72.02975989178042,171.63341224213863 72.11633412242244,169.16604666892061 72.02975989178042,168.68988840040478 71.77003719986661,168.17044301657103 71.2505918160267,167.56442340209523 70.3848495096371,166.87182955698356 67.65776124450527,166.04937436591192 67.05174163002947,165.70307744335608 66.57558336151673,165.2702062901582 66.05613797767683,164.4044639837686 65.6232668244851,162.54311802502636 65.27696990192926,161.50422725735578 64.80081163341038,160.76834629692308 63.80520798106388,159.68616841393145 63.502198173822904,158.99357456881978 63.58877240446494,158.60399053094292 63.84849509637875,158.17111937774814 65.32025701724413,156.69935745688275 65.88298951639891,155.96347649645006 66.40243490023882,154.70815015218054 66.70544470747363,152.80351707812034 67.05174163002947,151.89448765640972 68.17720662833902,149.81670612106856 70.1251268177233,147.21947920189362 70.21170104835919,146.82989516401676 70.16841393303817,146.310449780183 69.90869124112437,145.35813324315137 69.3892458572906,144.23266824484182 69.21609739600653,143.97294555292495 69.08623605004964,143.97294555292495 68.69665201217278,143.75650997632602 68.0040581670611,143.02062901589332 66.31586066959679,140.12039228948356 65.53669259384307,139.08150152181295 63.502198173822904,137.0470071017928 62.59316875211229,136.39770037199906 59.563070679745636,134.70950287453473 57.182279337163486,132.93473114643146 54.67162664863058,131.3763949949271 53.676022996277936,131.0733851876892 51.55495434562189,130.85694961109334 50.256340886034415,130.55393980385546 46.10077781535206,128.90902942171215 47.44267839026055,128.12986134595843 50.42948934731234,125.8356442340214 51.20865742306605,125.01318904294975 51.85796415285671,123.80114981400123 51.944538383498745,123.19513019952544 51.728102806899805,122.32938789313584 51.16537030774503,121.55021981738214 49.087588772403855,119.385864051402 48.48156915792806,118.2171119377745 48.221846466014256,117.17822117010391 48.091985120051206,115.92289482583746 48.04869800473634,113.93168752113525 48.13527223537222,112.76293540750775 48.394994927292174,111.59418329388026 49.174163003045884,109.64626310449906 49.99661819411446,108.21778829895162 51.5982414609429,105.79370984105459 51.77138992222083,105.10111599594292 51.85796415285671,103.62935407507446 52.204261075412546,102.76361176868485 53.63273588096307,100.1230977341889 54.15218126479682,99.30064254311725 54.88806222522952,98.69462292864453 55.75380453161911,98.30503889076768 54.93134934055053,97.61244504565293 52.89685492053037,96.31383158606546 49.477172810280706,93.8464660128505 46.70679742982785,90.81636794048076 45.88434223875312,90.21034832600498 45.148461278320426,89.77747717281018 44.23943185660981,89.47446736557228 42.854244166386465,89.30131890429436 39.4345620561368,89.77747717281018 38.352384173148266,89.69090294217122 36.75076090632597,89.38789313493332 35.32228610077546,88.9117348664175 34.49983090970688,88.52215082854373 33.72066283395316,87.95941832938895 30.82042610754341,84.97260737233715 28.56949611092431,82.938112952317 27.833615150491614,82.11565776124534 27.097734190058922,80.99019276293579 25.885694961107337,78.47954007439981 25.236388231316678,77.5705106526892 24.500507270883983,76.96449103821341 23.375042272574433,76.18532296246278 20.950963814677415,74.06425431180365 20.128508623602688,73.24179912072893 18.267162664860443,70.3848495096371 15.886371322284443,67.74433547514423 14.154886709505252,64.62766317213246 12.206966520120973,61.770713561040644 11.427798444367262,60.818397024012086 7.315522489005921,56.619546838011786 4.45857287791718,53.89245857287687 0,50.2130537707134 0.43287115319787334,47.615826851538465 0.9523165370316304,43.24382820426024 1.5150490361864053,40.386878593168426 2.5106526885329017,37.01048359824286 3.679404802163469,34.066959756509 5.88704768346155,29.521812647952864 10.475481907335633,21.340547852554273 13.72201555630738,15.107203246533807 15.843084206963425,11.687521136287216 17.83429151166872,9.306729793711217 20.474805546158525,6.839364220493181 22.2928643895859,5.454176530266753 23.851200541087174,4.415285762596163 25.496110923230482,3.50625634088555 27.184308420694805,2.727088265134914 29.04565437943705,2.0344944200201622 31.42644572201305,1.3419005749054105 33.37436591139733,0.8657423063926709 36.447751099085,0.3895840378768557 41.166046668922135,0 46.187352045994096,0.08657423063895953 49.650321271558624,0.43287115319479763 52.07439972945564,0.8224551910716533 55.14778491714332,1.4284748055474457 58.91376394994882,2.4240784578970183 62.63645586743331,3.5928305715245097 67.31146432194943,5.324315184309851 71.72675008454559,7.142374027731077 83.63070679743174,12.553263442676812 90.55664524856081,15.496787284410663 95.40480216435485,17.401420358470848 111.07473791004651,23.201893811296515 115.57659790327855,25.063239770035683 118.69327020628725,26.448427460265187 122.02637808589488,28.136624957726436 124.79675346634774,29.781535339872818 127.43726750084369,31.469732837334067 130.4673655732165,33.59080148799319 134.19005749070098,36.44775109908808 136.83057152519694,38.612106865065144 148.56137977679901,49.04430165708591 149.98985458234955,50.03990530943548 151.11531958065294,50.68921203922922 152.4139330402404,51.25194453838399 153.23638823131515,51.46838011497985 152.97666553939519,54.28204261075373 152.67365573216037,55.66723030098015 152.67365573216037,55.97024010821805 152.8900913087593,56.35982414609491 153.58268515387098,56.92255664524968 155.57389245857013,58.22117010483715 155.963476496447,58.69732837334989 156.48292188028074,59.64964491038152 157.7815353398682,60.25566452485731 159.21001014541872,61.29455529252483 160.11903956712933,62.246871829556454 161.02806898883995,63.50219817382598 162.24010821778538,64.62766317213246 164.92390936760236,66.61887047683467 167.3479878254994,68.0040581670611 167.86743320933314,68.39364220493796 170.59452147446498,70.90429489347393 173.14846127832504,73.58809604328783 174.44707473791252,74.71356104159739 178.81907338518766,77.65708488332815 179.59824146094138,78.30639161312189 180.89685492052882,79.69157930334832 181.89245857287534,81.20662833953473 182.931349340549,83.97700371998758 183.66723030098169,85.53533987149193 184.87926952992711,88.52215082854373 185.22556645248295,89.12817044301644 185.74501183632287,89.6476158268502 187.73621914102202,90.81636794048076 190.33344606019696,92.72100101454095 191.32904971254345,93.67331755157258 193.0605343253288,95.70781197159275 194.0994250929963,96.2272573554265 196.43692932025743,96.70341562394232 197.605681433888,97.09299966181916 202.75684815691687,99.51707811971619 206.2631044978024,100.68583023334368 208.5140344944215,101.81129523165323 209.33648968549008,102.11430503889113 210.93811295231853,102.37402773080801 216.8251606357801,102.54717619208593 222.2360500507289,103.06662157592275 222.58234697328473,103.36963138315758 225.74230639161445,105.18769022658188 227.7335136963136,107.48190733851892 229.59485965505584,109.17010483598324 230.50388907676646,109.86269868109493 232.5383834967866,111.11802502536445 233.62056137977513,112.02705444707506 234.6594521474488,113.36895502198047 235.09232330064052,114.19141021305212 235.30875887723946,114.92729117348789 235.22218464660358,115.57659790328162 234.96246195468362,116.18261751775434 233.79370984105304,117.61109232330179 231.36963138315605,120.03517078119573 230.37402773080953,121.2039228948263 228.98884004058004,123.23841731484646 227.99323638823356,125.14305038890664 227.64693946567155,126.22522827189826 227.56036523503568,127.22083192424783 227.8633750422705,128.17314846127945 228.7724044639811,130.29421711193856 228.90226580994417,131.03009807237126 228.90226580994417,131.93912749408187 228.81569157930213,132.80486980047456 228.4693946567463,133.80047345282412 227.69022658099257,134.92593845113367 226.34832600608408,133.41088941494726 223.92424754819322,131.20324653364918 223.31822793371742,130.9002367264113 222.5390598579637,130.64051403449443 220.80757524517838,130.55393980385546 219.46567467027603,130.7703753804544 218.4700710179234,131.20324653364918 217.7341900574907,131.76597903280395 216.60872505918115,132.97801826175248 215.95941832939047,133.32431518430832 213.92492390937034,133.71389922218518 210.8515387216765,134.53635441325682 207.7348664186678,134.53635441325682 203.8390260399054,134.92593845113367 202.9299966181948,135.2289482583685 201.32837335136634,135.96482921880119 200.67906662157569,136.39770037199906 200.50591816029777,136.65742306391596 200.41934392965572,137.0470071017928 200.46263104497675,137.65302671626552 201.24179912073046,140.98613459587315 201.19851200540944,141.8085897869448 200.8522150828536,142.45789651673854 200.41934392965572,142.8474805546154 198.77443354751242,143.75650997632602 196.69665201217126,145.35813324315137 195.00845451471307,146.35373689550093 194.6188704768362,146.7433209333778 193.53669259384768,148.2583699695642 192.67095028745194,149.1241122759538 190.8096043287097,150.85559688873914 188.64524856273263,152.15421034832661 185.9181602976008,154.75143726750156 185.4420020290819,155.40074399729528 185.22556645248295,156.006763611768 184.96584376056916,158.86371322285981 184.61954683801332,159.5995941832925 184.14338856949442,160.2056137977683 183.62394318566066,160.6384849509631 182.97463645587,160.941494758201 180.42069665200995,161.4176530267168 179.1653703077435,161.85052417991162 178.38620223198978,162.32668244842742 177.95333107879807,162.75955360162223 177.823469732835,163.14913763949906 177.99661819411293,163.40886033141595Z"/>
  </g>
</svg>