<?xml version="1.0" encoding="UTF-8" standalone="no"?>
<svg viewBox="0 0 256 169.82402966426244" xmlns="http://www.w3.org/2000/svg">
  <style>
    g.zone {
      fill: lightgray;
      stroke-width: 2;
      stroke-linecap: square;
      stroke-linejoin: bevel;
      stroke-miterlimit: 3;
      stroke-opacity: 0.8;
      stroke: black;
      fill-opacity: 0.3;
    }
  </style>
  <g class="zone" id="zone">
    <path d="M178.78005723267862,165.59364797871933 177.79984684212573,165.71746402805272 176.94345250090703,165.74841804038553 176.49977832413052,165.6865100157192 175.94260610213132,165.51110394583088 175.55052194591048,165.45951392527525 175.37511587602214,165.3666518882761 174.7766716375802,164.83011567449975 174.60126556769188,164.69598162105564 173.4766031195835,164.13880939905718 173.12579097980688,164.03562935794662 172.5583007536977,163.69513522228067 172.36225867558653,163.63322719761433 171.6606343960333,163.53004715650377 170.98996412881283,163.35464108661546 170.4740639232593,163.31336907017123 169.5144895409293,163.34432308250405 168.72000322437617,163.33400507839335 168.09060497359994,163.38559509894827 167.71915682560046,163.39591310305968 166.20241022127271,163.18955302083785 166.0270041513844,162.53951876184024 165.78969005682902,162.00298254806387 165.46983192938518,161.4870823425096 164.97456773205306,160.90927411228904 164.74757164161056,160.54814396840172 164.69598162105493,160.38305590262408 164.69598162105493,160.22828584095788 164.79916166216475,159.81556567651492 164.80947966627616,159.67111361895942 164.76820764983194,159.52666156140464 164.6547096046107,159.32030147918277 164.40707750594387,159.0417153681839 164.11817339083433,158.83535528596207 163.4268671153925,158.401999113297 162.74587884406063,158.1130949981867 162.19902462617284,157.77260086252076 161.9617105316189,157.6694208214102 161.87916649873046,157.59719479263245 161.76566845350774,157.44242473096625 161.66248841239647,157.22574664463372 161.38390230139834,156.4622143404141 161.35294828906407,156.3177622828586 161.32199427673126,155.8018620773051 161.24976824795425,155.60581999919467 161.01245415339886,155.33755189230646 160.44496392728968,154.87324170730787 160.38305590262263,154.67719962919745 160.38305590262263,154.4295675305314 160.4140099149569,154.26447946475375 160.08383378340164,154.13034541130966 159.90842771351333,153.99621135786558 159.19648542984865,152.99536495909132 159.08298738462742,152.72709685220315 158.99012534762753,152.26278666720455 158.84567329007203,151.94292853976071 158.8044012736278,151.5817983958734 158.773447261295,151.46830035065142 158.68058522429513,151.38575631776297 158.42263512151837,151.3238482930959 158.31945508040707,151.28257627665167 158.20595703518583,151.14844222320758 158.08214098585316,150.90081012454226 158.00991495707467,150.65317802587617 157.95832493651903,149.91028172987797 157.89641691185344,149.497561565435 157.89641691185344,149.0126153722143 157.87578090363058,148.85784531054807 157.7416468501865,148.537987183105 157.21542864052154,147.66095683366268 157.11224859941026,147.5268227802186 156.91620652130058,147.3720527185524 155.9050421184149,146.9077425335538 155.4923219539712,146.66011043488845 155.08991979363893,146.35057031155606 154.88355971141783,146.12357422111208 154.69783563741808,145.8449881101125 154.40893152230854,145.102091814115 154.2541614606416,144.85445971544894 153.89303131675354,144.4830115674502 153.48031115231132,144.1941074523399 153.21204304542314,144.07029140300722 152.51041876586987,143.85361331667468 152.21119664664744,143.7297972673413 152.01515456853772,143.5750272056751 151.68497843698248,143.1726250453428 151.5198903712056,143.05912700012158 151.27225827254026,142.93531095078816 150.65317802587543,142.74958687678915 149.28088347910173,142.49163677401168 148.50703317077,142.18209665067926 147.73318286243972,141.77969449034774 146.2164362581105,141.3050663012377 145.22590786344767,140.87171012857263 144.94732175244806,140.76853008746133 144.64809963322708,140.706622062795 144.24569747289482,140.69630405868432 143.2861230905648,140.84075611623908 142.98690097134235,140.84075611623908 142.70831486034422,140.77884809157277 142.0170085849009,140.53121599290668 141.73842247390277,140.45898996412893 141.3772923300147,140.42803595179612 140.4073999435733,140.3970819394626 139.9946797791296,140.33517391479626 139.45814356535323,140.15976784490795 138.9319253556883,139.87086372979766 138.65333924468868,139.747047680465 137.23977268147075,139.26210148724428 136.9199145540284,139.21051146668862 136.21829027447512,139.1898754584665 135.19680786747804,139.045423400911 134.44359356736913,139.00415138446678 134.13405344403674,138.94224335980044 133.7419692878159,138.78747329813424 133.360203135705,138.5707952118017 133.08161702470684,138.33348111724706 132.89589295070712,138.06521301035886 132.81334891781867,137.8175809116928 132.81334891781867,137.60090282536027 133.08161702470684,136.97150457458403 133.2260690822609,136.31115231147498 133.4943371891491,135.36189593325568 133.62847124259318,135.01108379347903 133.7729233001487,134.72217967836875 134.06182741525825,134.26818749748156 134.47454757970195,133.7522872919273 135.25871589214364,132.87525694248575 135.5888920236989,132.41094675748712 135.89843214703131,131.86409253960008 136.12542823747526,131.14183225182398 136.25956229091935,130.81165612026948 136.42465035669625,130.49179799282638 136.62069243480593,130.18225786949398 136.85800652936132,129.89335375438367 137.08500261980527,129.65603965982902 137.38422473902625,129.39808955705152 137.7144008705815,129.17109346660757 138.02394099391393,129.00600540083067 138.3644351295791,128.85123533916448 138.78747329813277,128.70678328160898 139.14860344202083,128.61392124460983 140.03595179557382,128.46946918705433 141.03679819434805,128.4281971706101 142.0170085849009,128.46946918705433 142.9765829672324,128.5623312240542 144.01870138245084,128.7274192898318 145.8862601265567,129.0472774172749 146.66011043488697,129.15045745838546 147.34109870621887,129.19172947483042 148.0014509693279,129.15045745838546 148.3728991173259,129.07823142960845 148.79593728588102,128.93377937205292 149.08484140099057,128.76869130627603 149.31183749143455,128.5726492281656 149.49756156543427,128.3146991253881 149.58010559832272,128.09802103905557 149.61105961065553,127.78848091572317 149.5697875942113,127.520212808835 149.46660755310148,127.2313086937247 149.21897545443466,126.97335859094794 148.88879932288089,126.69477247994907 148.56894119543705,126.48841239772722 147.26887267744038,125.75583410584044 146.43311434444303,125.19866188384195 145.7418080690012,124.64148966184422 144.16315344000637,123.28983112329261 143.46152916045313,122.73265890129414 142.33686671234474,121.9278545806296 139.4271895530204,119.96743379952461 137.05404860747248,118.19273709241935 136.73419048002864,117.93478698964186 136.5071943895847,117.69747289508722 136.28019829914072,117.40856877997692 136.11511023336385,117.08871065253383 135.99129418403118,116.71726250453436 135.9190681552527,116.2942243359807 135.88811414291987,115.77832413042645 135.9190681552527,115.32433194953853 135.98097617991974,114.84970376042924 136.1667002539195,113.80758534521004 136.2079722703637,113.33295715610075 136.1667002539195,112.98214501632413 136.1047922292524,112.71387690943594 135.99129418403118,112.43529079843633 135.8571601305871,112.15670468743745 135.57857401958748,111.7439845229945 135.26903389625508,111.3312643585508 132.7204868808188,108.3080891540045 132.31808472048652,107.92632300189435 131.9672725807099,107.63741888678479 130.81165612026874,106.87388658256447 130.44020797226926,106.58498246745417 130.1203498448269,106.24448833178897 129.89335375438293,105.86272217967881 129.76953770505028,105.48095602756864 129.72826568860458,105.13014388779202 129.738583692716,104.74837773568186 129.83144572971588,104.23247753012834 130.02748780782704,103.64435129579633 130.3163919229366,103.01495304502083 130.5949780339362,102.509370843578 130.91483616138004,102.02442465035728 131.4823263874892,101.3124823666926 132.07045262181973,100.70372012413848 132.57603482326329,100.26004594736271 133.08161702470684,99.85764378703044 134.57772762081325,98.77425335536702 135.12458183869956,98.34089718270123 135.49602998669903,97.9797670388139 135.7539800894758,97.61863689492586 135.8571601305871,97.3916408044819 135.90875015114273,97.15432670992725 135.9190681552527,96.94796662770614 135.88811414291987,96.64874450848441 135.81588811414287,96.40111240981834 135.74366208536438,96.24634234815214 135.38253194147632,95.80266817137564 135.1761718592552,95.61694409737665 134.8769497400342,95.40026601104411 134.2165974769252,95.03913586715606 133.42211116037205,94.76054975615719 132.64826085204032,94.58514368626888 131.84345653137723,94.50259965337969 131.13151424771257,94.53355366571323 130.57434202571335,94.6470517109352 130.26480190238095,94.73991374793508 129.98621579138282,94.87404780137844 129.62508564749476,95.0907258877117 129.37745354882796,95.29708596993282 129.1091854419398,95.58599008504311 128.89250735560725,95.93680222481974 128.6758292692747,96.4733384385961 128.31469912538665,97.94881302648037 128.02579501027708,98.77425335536702 127.69561887872185,99.4655596308096 127.38607875538943,100.05368586514086 127.1074926443913,100.48704203780595 126.80827052517031,100.86880818991611 126.51936641005929,101.12675829269287 126.1891902785055,101.34343637902613 125.84869614283883,101.50852444480303 125.44629398250656,101.622022490025 125.05420982628571,101.68393051469134 124.63117165773205,101.67361251058065 124.270041513844,101.61170448591358 123.90891136995596,101.48788843658092 123.681915279512,101.37439039135893 123.45491918906804,101.22993833380416 123.2382411027355,101.03389625569373 123.07315303695862,100.848172181694 122.91838297529314,100.62117609125004 122.81520293418185,100.4044980049175 122.74297690540483,100.17750191447354 122.7017048889606,99.95050582403032 122.69138688484918,99.59969368425295 122.75329490951478,99.19729152392141 122.88742896295888,98.76393535125561 123.34142114384679,97.64959090725938 123.55809923017932,96.98923864415035 123.70255128773485,96.37015839748554 123.76445931240045,95.7407601467093 123.76445931240045,95.34867599048846 123.73350530006765,94.99786385071184 123.67159727540205,94.6470517109352 123.56841723429075,94.28592156704715 123.43428318084666,93.96606343960406 123.27951311917973,93.68747732860446 123.09378904518145,93.41920922171627 122.8977469670703,93.18189512716162 122.49534480673802,92.84140099149569 122.03103462174015,92.57313288460824 121.53577042440801,92.3874088106085 120.97859820241027,92.26359276127583 120.48333400507812,92.2223207448316 119.97775180363456,92.24295675305372 119.48248760630243,92.31518278183074 117.94510499375181,92.59376889283035 117.40856877997545,92.64535891338527 116.92362258675473,92.64535891338527 116.31486034420135,92.59376889283035 115.7576881222036,92.46995284349696 115.22115190842725,92.28422876949794 114.73620571520652,92.02627866672046 114.39571157954131,91.78896457216581 114.03458143565327,91.4794244488334 113.76631332876508,91.20083833783453 113.49804522187691,90.87066220628002 113.1885050985445,90.4166700253921 112.42497279432418,89.13723751561825 112.08447865865897,88.60070130184262 111.70271250654955,88.09511910039906 111.28999234210585,87.62049091128976 110.75345612832949,87.11490870984693 110.12405787755326,86.64028052073691 109.47402361855563,86.23787836040464 107.89536898956082,85.38148401918517 107.4413768086729,85.06162589174208 107.11120067711911,84.7933577848539 106.7191165208968,84.38063762041094 106.29607835234314,83.83378340252315 105.97622022489932,83.26629317641398 105.74922413445536,82.77102897908185 105.48095602756717,82.02813268308437 105.36745798234593,81.5947765104193 105.30554995767886,81.22332836242055 105.27459594534606,80.87251622264318 105.28491394945749,80.49075007053376 105.36745798234593,79.88198782797964 105.4603200193458,79.61371972109146 105.57381806456705,79.34545161420401 105.71827012212256,79.10813751964862 105.9039941961223,78.8811414292054 106.10003627423198,78.69541735520566 106.3476683728988,78.50969328120593 106.59530047156413,78.37555922776257 106.88420458667515,78.25174317842917 107.42074080045153,78.1072911208744 107.98823102656068,78.04538309620732 108.62794728144688,78.04538309620732 109.26766353633452,78.1072911208744 110.36137197210863,78.34460521542904 112.86864697110067,79.09781951553794 113.84885736165353,79.3557696183147 114.890975776872,79.56212970053654 115.61323606464809,79.61371972109146 116.04659223731316,79.59308371286934 116.41804038531264,79.54149369231443 116.75853452097785,79.44863165531457 117.0887106525331,79.30417959775906 117.34666075530986,79.13909153198216 117.59429285397519,78.92241344564962 117.78001692797493,78.67478134698355 117.89351497319618,78.42714924831748 117.94510499375181,78.14856313731862 117.9347869896404,77.80806900165267 117.85224295675195,77.36439482487617 117.60461085808662,76.23973237676854 117.54270283341954,75.84764822054768 117.50143081697533,75.2388859779943 117.50143081697533,71.83394462133785 117.54270283341954,71.17359235822882 117.61492886219804,70.69896416911878 117.7387449115307,70.2449719882316 117.9038329773076,69.8012978114551 118.51259521986098,68.34645923179295 118.78086332674917,67.44879287412853 118.8324533473048,67.03607270968557 118.84277135141623,66.66462456168684 118.76022731852778,65.33360203135734 118.80149933497201,64.70420378058185 118.94595139252752,64.03353351336139 119.47216960219247,62.5167869090329 119.64757567208078,61.88738865825667 119.77139172141345,61.082584337592856 119.78170972552488,60.45318608681662 119.69916569263643,59.751561807263364 119.29676353230415,57.90463907137963 118.98722340897174,55.86167425738619 118.84277135141623,55.07750594494376 118.49195921163961,53.57107734472669 118.16178308008436,52.384506871951984 118.00701301841889,51.89956067873126 117.74906291564213,51.249526419733655 117.2641167224214,50.320906049736436 116.94425859497758,49.80500584418219 116.63471847164517,49.36133166740569 115.98468421264757,48.56684535085257 115.11797186731596,47.648542984966774 114.4473016000955,47.05009874652408 113.7766313328765,46.57547055741405 113.09564306154464,46.22465841763742 112.68292289710094,46.08020636008264 112.22893071621448,45.956390310749235 111.73366651888234,45.85321026963868 111.22808431743879,45.79130224497234 110.68123009955247,45.750030228528125 110.20660191044169,45.7397122244167 109.62879368022257,45.76034823263881 109.15416549111181,45.80162024908304 108.66921929789109,45.894482286082905 108.20490911289322,46.007980331304886 107.4723308210057,46.28656644230375 105.0475998549021,47.51440893152268 103.97452742735084,48.14380718229818 103.5102172423515,48.46366530974201 103.00463504090794,48.85574946596286 101.3228003708033,50.35186006206924 100.42513401313887,51.19793639917801 99.49651364314165,52.16782878561945 99.1250654951422,52.51864092539608 98.87743339647685,52.70436499939581 98.55757526903302,52.910725081617656 98.18612712103501,53.086131151505974 97.85595098947977,53.199629196727216 97.22655273870353,53.33376325017131 96.69001652492717,53.405989278949065 95.0597718753767,53.52980532828247 93.00648905727257,53.58139534883738 91.6445125146103,53.52980532828247 90.48889605416912,53.39567127483838 89.30232558139514,53.17899318850511 88.6419733182861,52.993269114506106 88.14670912095397,52.82818104872848 87.20777074684533,52.43609689250763 86.46487445084786,52.044012736286774 85.94897424529434,51.713836604732265 85.52593607673921,51.41461448551055 84.7314497601861,50.754262222401515 83.99887146830004,50.021683930514726 83.338519205191,49.21687960985091 82.7194389585262,48.277941235742276 82.23449276530548,47.35963886985648 81.863044617306,46.51356253274771 81.57414050219644,45.7397122244167 81.3574624158639,45.03808794486344 81.2130103583084,44.34678166942088 81.13046632541995,43.7586554350896 81.12014832130852,43.03639514731424 81.17173834186417,42.42763290476012 81.30587239530826,41.70537261698475 81.69795655152912,40.1473539962113 81.74954657208475,39.703679819435536 81.77018258030614,39.3631856837696 81.74954657208475,38.86792148643746 81.64636653097347,38.32106726855041 81.46064245697373,37.76389504655193 81.20269235419697,37.2273588327763 80.82092620208755,36.64955060255571 80.23279996775554,35.95824432711314 78.52001128531661,34.462133731006766 77.98347507154025,33.97718753778605 77.33344081254265,33.30651727056559 75.97146426988036,31.80008867034779 75.39365603965977,31.211962436016517 74.86743782999483,30.75797025512933 74.34121962032842,30.386522107129856 73.78404739833067,30.05634597557534 73.25782918866574,29.808713876910005 72.49429688444542,29.5301277659104 71.78235460078074,29.334085687799973 70.99818628833903,29.189633630245194 70.37910604167422,29.107089597356016 69.8632058361207,29.076135585023216 69.079037523679,29.076135585023216 68.40836725645855,29.107089597356016 67.70674297690529,29.17931562613377 66.26222240135309,29.437265728910532 64.02321550924924,29.942847930354095 63.19777518036331,30.076981983797452 62.77473701180819,30.097617992020297 62.20724678569903,30.097617992020297 61.691346580145506,30.046027971464653 61.0413123211479,29.942847930354095 58.24513320704483,29.406311716577733 57.66732497682425,29.27217766313364 56.90379267260392,29.045181572689682 56.01644431905093,28.715005441135165 53.35439925839342,27.610979001249635 51.074120349843874,26.7958566764744 50.28995203740217,26.43472653258635 49.670871790737365,26.032324372254813 49.175607593405225,25.578332191366894 48.773205433072945,25.103704002257597 48.3501672645193,24.433033735037142 48.019991132964044,23.77268147192811 47.77235903429871,23.163919229373988 46.86437467252434,20.718552255048284 46.55483454919194,19.789931885051068 46.41038249163642,19.16053363427557 46.3691104751922,18.70654145338765 46.389746483413575,18.211277256056242 46.49292652452487,17.746967071057636 46.65801459030176,17.32392890250325 46.936600701301366,16.859618717504645 47.21518681230097,16.488170569505904 47.638224980854616,16.06513240095152 48.226351215186625,15.611140220063602 48.60811736729606,15.363508121398265 49.093063560516775,15.095240014510082 49.970093909958344,14.68251985006712 50.66140018540165,14.414251743178939 51.38366047317628,14.166619644512869 52.44641489661758,13.857079521180463 53.663939381725825,13.578493410181592 55.30450203538625,13.299907299181989 56.34662045060618,13.20704526218212 56.87283866027112,13.19672725807143 57.27524082060339,13.227681270404231 57.791141026156915,13.31022530329341 58.12131715771216,13.392769336181855 58.68880738382133,13.578493410181592 61.55721252670142,14.641247833622165 63.30095522147313,15.31191810084262 63.71367538591683,15.415098141953177 63.992261496916434,15.4563701583974 64.25021159969319,15.4563701583974 64.5907057353584,15.404780137842488 64.9724718874693,15.280964088509085 65.3439200354673,15.06428600217655 65.66377816291113,14.775381887066256 65.91141026157646,14.496795776067385 66.15904236024326,14.104711619846533 66.38603845068722,13.671355447180726 66.5717625246855,13.19672725807143 67.04639071379626,11.845068719519832 67.24243279190596,11.401394542743336 67.47974688646133,10.94740236185615 67.78928700979374,10.493410180968233 68.10914513723756,10.142598041191604 68.44963927290277,9.843375921970622 68.83140542501219,9.616379831526663 69.19253556890025,9.47192777397115 69.5536657127883,9.389383741082703 69.93543186489772,9.358429728749904 70.27592600056293,9.368747732860593 70.69896416911806,9.420337753416238 71.11168433356174,9.513199790416106 72.86574503244489,10.018781991858935 73.70150336544224,10.183870057635827 74.03167949699602,10.214824069969362 74.4443996614397,10.20450606585794 74.92934585466043,10.132280037080916 75.28015799443706,10.039418000081048 75.4968360807696,9.874329934303423 75.7444681794364,9.626697835637351 76.04369029865738,9.172705654750168 76.68340655354356,7.790093103865767 77.21994276731994,6.448752569424857 77.33344081254265,6.046350409093318 77.36439482487545,5.8296723227600475 77.36439482487545,5.58204022409471 77.2508967796542,4.632783845875384 77.24057877554277,4.199427673209577 77.281850791987,3.776389504655193 77.45725686187531,2.796179114103066 77.46757486598673,2.4969569948813506 77.4469388577639,2.300914916770925 77.37471282898687,2.063600822216277 77.26121478376416,1.8056507194395173 76.62149852887796,0.897666357664414 76.53895449598951,0.7428962959982116 76.4976824795453,0.5881262343320092 76.53895449598951,0.4230381685543844 76.63181653298939,0.3198581274438272 76.9000846398761,0.1857240739997362 77.21994276731994,0.11349804522197954 78.16919914553999,0.030954012333533745 80.17089194308846,0 96.42174841804045,0.010318004111422294 117.8728789649748,0.06190802466706749 127.79879891983313,0.0515900205556452 129.35681754060658,0.0928620369998681 130.4917979928249,0.16508806577762475 131.63709644915465,0.33017613155451636 131.99822659304272,0.41272016444369525 132.49349079037484,0.5571722219984754 132.8546209342629,0.7119422836646778 133.2260690822609,0.9079843617751032 133.52529120148188,1.12466244810764 133.8038773124815,1.392930554995822 133.99991939059265,1.6302446495512033 134.18564346459237,1.929466768772186 134.71186167425734,3.0644472209912483 134.9698117770341,3.508121397767744 135.38253194147632,4.013703599210574 135.71270807303156,4.323243722542979 135.95002216758695,4.498649792431293 136.3421063238078,4.7359638869859415 136.6516464471402,4.901051952762833 137.38422473902625,5.169320059651015 138.1890290596908,5.375680141872863 140.32485591068485,5.819354318649358 140.87171012857115,5.974124380315561 141.3979283382361,6.159848454314564 141.851920519124,6.407480552980634 142.16146064245643,6.675748659868817 142.36782072467753,6.985288783201222 142.45036475756598,7.32578291886716 142.44004675345602,7.604369029866032 142.37813872878897,7.84168312442068 142.2543226794563,8.120269235420285 142.02732658901235,8.4504453669748 141.73842247390277,8.780621498529316 141.3979283382361,9.090161621861721 139.88118173390833,10.266414090524274 139.46846156946464,10.627544234412323 139.20019346257646,10.895812341300505 138.90097134335548,11.256942485188555 138.6946112611329,11.576800612631649 138.47793317480037,12.020474789408146 138.3541171254677,12.422876949740418 138.2922091008021,12.980049171738894 138.33348111724632,13.516585385514524 138.42634315424618,14.011849582846665 138.7771552940228,15.363508121398265 138.87001733102122,15.858772318729672 138.92160735157685,16.343718511950392 138.95256136391112,17.42710894361381 138.828745314577,20.140744024827697 138.85969932691125,21.513038571601406 138.9319253556883,22.39006892104371 139.03510539679957,23.13296521704119 139.4271895530204,24.835435895369415 139.5200515900203,25.37197210914578 139.5510056023531,26.001370359921278 139.49941558179745,26.723630647696645 139.28273749546491,27.662569021805282 138.7668372899114,29.28249566724433 138.61206722824446,29.901575913909138 138.50888718713463,30.634154205795927 138.41602515013477,32.40885091290191 138.28189109669069,33.30651727056559 137.96203296924685,34.730401837894945 137.3016807061378,37.01068074644376 136.95086856636118,38.011527145218004 136.49687638547326,38.99173753577086 136.18733626214086,39.54890975776934 134.95949377292266,41.4990125347629 134.60868163314603,42.15936479787193 134.44359356736913,42.51017693764856 134.2785055015908,43.015759139092125 134.19596146870234,43.39752529120155 134.16500745636955,43.768973439200295 134.17532546048096,44.25391963242174 134.35073153036927,45.811938253194455 134.43327556325772,47.78267703841087 134.53645560436902,48.30889524807581 134.7324976824787,48.95892950707342 134.92853976058987,49.41292168796134 135.42380395792202,50.403450082624886 135.64048204425455,50.89871427995703 135.8262061182528,51.41461448551055 136.2389262826965,52.80754504050637 136.44528636491762,53.32344524606062 136.72387247591723,53.9115714803919 137.07468461569385,54.49969771472391 137.41517875135906,54.98464390794462 137.8794889363584,55.55213413405379 138.74620128168854,56.54266252871734 139.0763774132438,56.97601870138241 139.3136915077977,57.32683084115977 139.4478255612418,57.59509894804722 139.6541856434644,58.16258917415712 139.71609366813,58.523719318044435 139.73672967635284,58.83325944137684 139.7264116722414,59.18407158115347 139.68513965579717,59.52456571681941 139.5510056023531,60.04046592237366 139.045423400911,61.55721252670215 138.97319737213252,61.9183426705902 138.9422433597997,62.2588368062554 138.96287936802108,62.712828987143325 139.06605940913238,63.1461851598084 139.21051146668788,63.43508927491869 139.48909757768604,63.80653742291743 139.6954576599086,64.02321550924997 139.97404377090675,64.19862157913828 140.39708193946186,64.40498166136013 140.90266414090397,64.58038773124844 141.3566563217919,64.66293176413689 141.83128451090118,64.71452178469254 142.40909274112175,64.71452178469254 142.8424489137883,64.69388577647042 143.8226593043397,64.53911571480423 144.55523759622722,64.33275563258238 145.25686187578046,64.07480552980562 146.9077425335538,63.36286324614093 147.4236427391073,63.19777518036404 147.90858893232803,63.07395913103064 148.5173511748814,62.981097094031504 149.21897545443466,62.92950707347586 151.36512030954012,62.90887106525375 151.9945185603149,62.87791705292022 152.63423481520255,62.805691024143194 153.2017250413117,62.69219297892121 153.9549393414206,62.46519688847725 155.51295796219406,61.9183426705902 157.70037483374227,61.27862641570328 158.37104510096273,61.030994317037205 158.89726331062766,60.80399822659325 159.54729756962527,60.46350409092804 160.18701382451292,60.07141993470646 162.1164805932844,58.68880738382206 162.766514852282,58.265769215267674 163.58163717705796,57.81177703438049 164.314215468944,57.471282898714556 165.32537987183113,57.13078876304861 166.25400024182835,56.924428680827496 167.2548466406026,56.8006126314941 168.3485550763767,56.749022610939186 170.43279190681508,56.779976623271985 171.98049252347712,56.85220265204974 172.94006690580713,56.97601870138241 173.6107371730276,57.15142477127146 173.97186731691565,57.30619483293766 174.2298174196924,57.44032888638102 174.55999355124618,57.66732497682498 174.80762564991298,57.89432106726893 175.27193583491086,58.39990326871177 176.47914231590767,59.91664987304026 176.7886824392401,60.24682600459477 177.11885857079534,60.535730119705065 177.47998871468192,60.81431623070467 177.84111885856996,61.05163032525932 178.6665591874559,61.50562250614651 179.51263552456467,61.877070654145975 180.26584982467355,62.15565676514485 181.06033614122668,62.40328886381092 182.00959251944676,62.630284954254144 182.8866228688883,62.76441900769824 183.57792914433014,62.81600902825388 184.3208254403276,62.826327032365306 185.2081737938806,62.78505501592035 186.6733303776542,62.64060295836557 188.0765789367607,62.423924872033034 189.0980613437578,62.19692878158907 189.8615936479781,61.949296682923 190.5838539357542,61.61912055136848 190.8830760549752,61.433396477369485 191.11007214541914,61.25799040748117 191.2957962194189,61.07226633348143 191.44024827697294,60.87622425537101 191.5331103139728,60.68018217726058 191.61565434686125,60.40159606626098 191.62597235097266,60.10237394703999 191.5640643263056,59.77219781548548 191.40929426464012,59.39043166337532 191.1926161783076,58.988029503043045 190.69735198097547,58.2760872193791 189.22187739309192,56.44980049171747 188.34484704364888,55.28386602716561 187.65354076820705,54.190157591391504 187.12732255854212,53.16867518439442 186.89000846398673,52.621820966507364 186.63205836120997,51.889242674620576 186.52887832009867,51.507476522510416 186.46697029543307,51.12571037040025 186.4772882995445,50.7336262141794 186.5391963242101,50.45504010318053 186.64237636532138,50.19709000040304 186.80746443109828,49.95977590584839 187.02414251743082,49.74309781951585 187.2511386078748,49.55737374551612 187.59163274353998,49.37164967151711 187.9114908709838,49.23751561807302 188.28293901898328,49.134335576962464 188.77820321631543,49.041473539962595 189.8615936479781,48.95892950707342 191.14102615775195,48.979565515296265 192.05932852363776,49.06210954818471 192.79190681552527,49.20656160573949 194.45310547740854,49.6605537866274 194.97932368707347,49.73277981540443 195.35077183507295,49.71214380718232 195.8047640159594,49.59864576196107 196.03176010640337,49.49546572084978 196.22780218451453,49.37164967151711 196.44448027084707,49.1962436016288 196.58893232840256,49.03115553585118 196.72306638184665,48.84543146185217 196.8675184394007,48.56684535085257 196.970698480512,48.288259239853694 197.04292450928904,47.91681109185496 197.1461045504003,46.007980331304886 197.22864858328876,45.49208012575063 197.35246463262143,45.017451936641336 197.58977872717682,44.419007698198634 197.8683648381764,43.913425496755806 198.18822296562024,43.40784329531297 198.8485752287293,42.48954092942645 199.15811535206169,41.96332271976151 199.36447543428278,41.416468501874455 199.46765547539408,40.776752246987535 199.48829148361546,40.43625811132159 199.46765547539408,39.92035790576808 199.36447543428278,39.10523558099284 199.24065938495013,38.558381363105056 198.70412317117376,36.48446253677809 198.47712708072982,35.23598403933778 198.40490105195278,34.544677763895216 198.38426504372993,33.935915521341826 198.40490105195278,33.31683527467702 198.48744508484123,32.2643988553464 198.48744508484123,31.738180645681457 198.41521905606274,31.253234452460738 198.26044899439728,30.75797025512933 197.97154487928623,30.15952601668663 197.76518479706513,29.829349885132114 197.4143726572885,29.354721696022086 196.95006247229063,28.807867478135034 195.5364959090727,27.30143887791723 195.21663778162886,26.919672725807068 194.87614364596365,26.455362540808462 194.60787553907548,26.032324372254813 194.36024344040868,25.568014187256203 193.68957317318822,24.16476562814896 193.3387610334116,23.52504937326204 193.0704929265234,23.07105719237485 192.5958647374141,22.41070492926582 192.10060054008196,21.843214703155923 191.48152029341716,21.234452460602537 190.7489420015311,20.625690218048415 189.94413768086656,20.04788198782856 188.61311515053706,19.19148764660837 186.01297811454515,17.602515013502124 184.06287533755088,16.508806577728016 182.79376083188845,15.879408326951785 181.89609447422404,15.507960178953045 181.22542420700503,15.280964088509085 180.50316391922894,15.08492201039866 178.1712949901252,14.538067792511608 176.95377050501696,14.145983636290756 175.98387811857555,13.733263471847794 173.6829632018046,12.680827052517179 171.54713635081205,11.793478698964186 170.45342791503646,11.298214501632778 169.61766958203913,10.854540324856282 168.75095723670898,10.318004111079919 165.36665188827536,8.06867921486464 164.59280157994363,7.490870984644052 164.11817339083433,7.057514811978978 163.8292692757233,6.747974688646573 163.58163717705796,6.438434565314168 163.28241505783697,6.015396396759784 163.0244649550602,5.58204022409471 162.766514852282,5.055822014429036 162.51888275361665,4.488331788319871 162.33315867961693,3.9621135786549293 162.13711660150722,3.1263552456575825 162.095844585063,2.713635081213887 162.095844585063,2.383458949659371 162.14743460561718,2.0842368304383885 162.25061464672848,1.7746967071059836 162.4260207166168,1.4548385796621564 162.6014267865051,1.2381604933296195 162.82842287694905,1.0524364193306166 163.14828100439289,0.8563943412201912 163.45782112772528,0.7325782918867894 163.92213131272317,0.6087622425541206 164.40707750594387,0.5262182096656748 164.94361371972025,0.4643101849986073 166.4913143363823,0.402402160332273 168.58586917093209,0.41272016444369525 177.242674620128,0.5778082302205869 191.92519447019365,0.6603522631090327 201.0463101043889,0.6190802466648098 216.5955422997862,0.6809882713318772 247.70432469469068,0.6190802466648098 247.83845874813477,0.7738503083310122 248.38531296602255,1.4961105961071124 248.66389907702214,2.022328805772054 248.79803313046625,2.3628229414372597 248.8805771633547,2.6826810688810867 248.9115311756875,2.9819031881020694 248.8908951674661,3.2604892991016734 248.7773971222434,3.5803474265447677 248.55040103179942,3.879569545766483 248.25117891257847,4.147837652654665 247.39478457135826,4.756599895208053 247.0646084398045,5.024868002096235 246.7963403329163,5.324090121317218 246.6518882753608,5.6336302446496225 246.62093426302798,5.860626335093581 246.63125226713942,6.149530450203875 246.69316029180501,6.4590705735362794 246.95111039458322,7.35673693119996 246.99238241102745,7.645641046310254 246.98206440691604,7.924227157309859 246.92015638224896,8.202813268308729 246.81697634113914,8.491717383419022 246.31139413969558,9.451291765749039 246.1772600862515,9.771149893192865 246.08439804925163,10.08069001652527 246.06376204103023,10.359276127524142 246.09471605336304,10.606908226190212 246.19789609447434,10.875176333078395 246.69316029180501,11.679980653742208 246.8272943452491,11.9688847688525 246.8995203740276,12.268106888074216 246.87888436580474,12.618919027850843 246.7963403329163,12.938777155293938 246.6622062794722,13.237999274515653 245.88835597114192,14.57933980895583 245.13514167103304,16.054814396840097 244.93909959292188,16.498488573616594 244.8049655394778,16.869936721615332 244.72242150658934,17.241384869614805 244.69146749425653,17.643787029946346 244.7017854983665,18.01523517794582 244.75337551892213,18.345411309500335 244.8771915682548,18.66526943694343 245.0525976381446,18.93353754383161 245.33118374914272,19.222441658941904 245.7129499012536,19.5113457740522 247.08524444802586,20.460602152271523 248.58135504413372,21.43049453871296 248.93216718391034,21.709080649711833 249.22107129901988,21.987666760711438 249.54092942646372,22.44165894159862 249.78856152512907,22.96787715126356 249.943331586796,23.504413365039927 249.96396759501738,23.937769537705 249.92269557857315,24.144129619926847 249.8298335415733,24.350489702148696 249.69569948812918,24.51557776792559 249.5099754141309,24.6600298254811 249.06630123735442,24.887025915924326 247.9932288098017,25.27911007214591 247.61146265769227,25.4441981379228 247.2503325138042,25.68151223247745 246.9407923904718,25.980734351699166 246.6518882753608,26.44504453669777 246.13598806980727,27.631615009471748 245.362137761477,29.15867961791166 245.04227963403315,29.581717786466044 244.46447140381258,30.087299987908874 244.32001934625706,30.27302406190861 244.24779331748005,30.469066140019038 244.19620329692438,30.706380234573686 244.18588529281297,31.211962436016517 244.27874732981283,31.665954616904433 244.43351739147977,32.06835677723598 244.66051348192227,32.4191689170126 244.9184635847005,32.687437023900785 245.23832171214286,32.88347910201121 246.3526661561398,33.30651727056559 247.16778848091576,33.698601426786446 247.90036677280182,34.15259360767436 248.17895288380143,34.3692716940069 248.41626697835534,34.59626778445086 248.55040103179942,34.781991858449864 248.69485308935495,35.06057796944946 249.21075329490847,36.68050461488851 249.355205352464,36.94877272177669 249.48933940590808,37.082906775220785 249.63379146346358,37.196404820442766 249.90205957035178,37.33053887388686 250.3870057635725,37.47499093144164 250.83067994034897,37.547216960219394 251.7593003103462,37.61944298899715 251.69739228567914,37.71230502599702 251.55294022812362,37.79484905888546 250.95449598968165,37.93930111644024 250.76877191568192,38.02184514932942 250.5727298375722,38.155979202773516 250.34573374712826,38.393293297328164 250.01555761557302,38.58933537543859 249.71633549635203,38.69251541654914 249.07661924146439,38.78537745354901 248.87025915924326,38.89887549877099 248.55040103179942,39.19809761799198 248.45753899479956,39.321913667325376 248.35435895368974,39.60049977832425 248.3337229454669,39.95131191810088 248.28213292491125,40.06480996332286 248.08609084680157,40.21958002498906 247.62178066180223,40.343396074322456 247.52891862480234,40.41562210309948 247.48764660835812,40.580710168877104 247.35351255491403,40.72516222643189 247.28128652613702,40.838660271653865 247.2503325138042,40.96247632098727 247.26065051791565,41.22042642376403 247.2400145096928,41.333924468986005 247.08524444802586,41.66410060054052 246.81697634113914,41.93236870742871 246.33203014791843,42.30381685542745 246.1875780903629,42.468904921204334 246.16694208214005,42.582402966426315 246.2494861150285,42.76812704042605 246.30107613558417,43.222119221313235 246.27012212325135,43.82056345975594 246.19789609447434,43.99596952964425 245.85740195880766,44.439643706420746 245.78517593003065,44.62536778042048 245.7645399218078,44.8317278626416 245.7748579259192,45.09999596952978 246.00185401636318,45.82225625730588 246.02249002458603,46.0492523477491 245.92962798758614,46.28656644230375 245.69231389303076,46.627060577969694 245.64072387247512,46.76119463141378 245.64072387247512,46.86437467252434 245.67167788480938,46.998508725968435 245.72326790536357,47.07073475474619 246.09471605336304,47.36995687396717 246.28044012736277,47.71045100963311 246.40425617669544,48.030309137076934 246.4868002095839,48.36048526863145 246.5177542219167,48.55652734674188 246.50743621780674,48.7835234371851 246.4248921849168,49.010519527629064 246.06376204103023,49.70182580307163 245.80581193825202,50.07327395107037 245.5684978436981,50.30027004151433 245.08355165047738,50.69235419773518 244.26842932570142,51.280480432066454 244.17556728870156,51.38366047317775 244.14461327636874,51.47652251017688 244.1652492845916,51.548748538954634 244.2374753133686,51.63129257184308 244.49542541614537,51.775744629398595 244.9597356011447,51.982104711620444 245.42404578614259,52.085284752731 247.03365442747167,52.25037281850789 247.43605658780396,52.240054814397205 248.10672685502294,52.17814678973087 248.58135504413372,52.209100802063666 249.06630123735442,52.29164483495285 249.5099754141309,52.46705090484116 250.30446173068404,52.93136108983977 250.5933658457936,53.06549514328386 250.97513199790302,53.16867518439442 251.77993631856756,53.30280923783851 253.1522308653413,53.777437426947806 253.44113498045232,53.92188948450332 253.66813107089482,54.097295554391636 253.75067510378472,54.21079359961361 253.8848091572288,54.52033372294601 253.98798919833862,54.633831768167994 254.14275926000556,54.72669380516713 254.5554794244478,54.84019185038911 254.65865946555908,54.90209987505545 254.79279351900317,55.0981419531666 255.03010761355856,55.34577405183194 255.12296965055842,55.51086211760956 255.21583168755683,55.77913022449775 255.21583168755683,56.05771633549662 255.28805771633532,56.20216839305213 255.46346378622363,56.377574462940444 255.93809197533292,56.68711458627285 256,56.7696586191613 255.9896819958886,56.87283866027185 255.8968199588887,57.04824473016017 255.28805771633532,57.87368505904683 254.9372455765587,58.50308330982232 254.4213453710037,59.18407158115347 253.9467171818944,59.854741848373926 253.64749506267344,60.15396396759564 253.27604691467397,60.45318608681662 252.95618878723158,60.65954616903847 252.4402885816766,60.938132280037344 252.14106646245563,61.1651283704813 251.94502438434446,61.39212446092526 251.69739228567914,61.84611664181244 251.4807141993466,62.09374874047852 251.10926605134713,62.331062835033165 249.96396759501738,62.888235057031636 248.93216718391034,63.17713917214193 248.69485308935495,63.25968320503038 248.57103704002228,63.352545242030246 248.4988110112438,63.466043287252226 248.42658498246678,63.64144935714054 248.4059489742454,63.847809439361654 248.45753899479956,64.02321550924997 248.55040103179942,64.14703155858336 248.66389907702214,64.21925758736039 249.7369715045734,64.75579380113676 250.03619362379587,65.00342589980282 250.314779734794,65.34392003546877 250.4179597759053,65.55028011768988 250.4901858046823,65.80823022046738 250.4901858046823,66.13840635202189 250.4489137882381,66.52017250413132 250.35605175123823,66.79875861513092 250.22191769779414,67.02575470557414 249.9742855991288,67.31465882068444 249.58220144290794,67.67578896457249 249.34488734835256,67.87183104268291 249.10757325379865,68.01628310023843 248.9115311756875,68.08850912901545 248.4988110112438,68.20200717423744 248.3749949619111,68.27423320301519 248.2924509290227,68.36709524001506 248.22022490024565,68.51154729756983 248.18927088791284,68.69727137156957 248.18927088791284,69.079037523679 248.17895288380143,69.16158155656818 248.07577284269013,69.2338075853452 247.8281407440248,69.22348958123452 247.75591471524632,69.26476159767874 247.76623271935773,69.58461972512256 247.7249607029135,69.8012978114551 247.61146265769227,70.10051993067609 247.3844665672483,70.5648301156747 247.14715247269294,71.50376848978333 247.0027004151374,71.84426262544854 246.56934424247234,72.57684091733532 246.40425617669544,72.91733505300127 246.31139413969558,73.20623916811155 246.25980411913994,73.51577929144396 246.30107613558417,73.85627342710917 246.47648220547248,74.5063076861075 246.55902623836093,75.46588206843752 246.87888436580474,76.28100439321275 247.11619846036012,77.00326468098886 247.21937850146995,77.51916488654238 247.30192253435987,78.17951714965142 247.3844665672483,78.4684212647617 247.63209866591365,79.07718350731582 247.7249607029135,79.63435572931431 247.83845874813477,79.91294184031317 248.11704485913435,80.38757002942248 248.14799887146717,80.5526580952001 248.11704485913435,80.8621982185325 248.1273628632458,81.0272862843094 248.48849300713383,81.85272661319605 248.55040103179942,82.02813268308437 248.55040103179942,82.20353875297268 248.47817500302241,82.37894482286099 248.34404094957833,82.54403288863861 248.03450082624593,82.77102897908185 247.92100278102467,82.88452702430382 247.87973076458044,83.01866107774791 247.91068477691326,83.12184111885921 248.07577284269013,83.26629317641398 248.3027689331341,83.35915521341386 248.68453508524354,83.48297126274652 249.6647454757964,83.70996735319048 249.85046954979612,83.86473741485668 250.09810164846147,83.96791745596724 250.5624118334608,84.0607794929671 251.36721615412534,84.07109749707853 251.862480351456,84.13300552174486 252.3990165652324,84.29809358752175 253.1522308653413,84.6385877231877 253.53399701745073,84.85526580952023 253.7713111120061,85.0822618999642 254.14275926000556,85.5775260972956 254.67929547378193,86.18628833984971 254.78247551489176,86.40296642618226 254.77215751078035,86.56805449195988 254.67929547378193,86.7434605618482 254.50388940389362,86.9291846358472 254.19434928056123,87.19745274273538 254.1118052476713,87.29031477973524 254.0395792188943,87.62049091128976 253.9054451654502,87.93003103462216 253.84353714078313,88.22925315384315 253.79194712022894,88.33243319495443 253.7094030873405,88.435613236065 253.45145298456228,88.56974728950908 252.79110072145323,88.78642537584163 252.2752005158997,89.12691951150757 251.81089033090186,89.38486961428433 251.42912417879094,89.6325017129504 250.8719519567932,89.85949780339435 250.76877191568192,89.9420418362828 250.75845391157048,89.98331385272702 250.78940792390478,90.02458586917125 250.92354197734886,90.06585788561547 252.0997944460114,90.1277659102818 252.41965257345524,90.16903792672602 252.72919269678763,90.2618999637259 253.12127685300848,90.42698802950352 253.3998629640081,90.60239409939183 253.53399701745073,90.75716416105803 253.55463302567355,90.91193422272424 253.45145298456228,91.08734029261255 253.06968683245285,91.51037846116694 252.749828705009,92.10882269960963 252.29583652412256,92.70726693805233 252.21329249123266,92.91362702027345 252.16170247067848,93.3057111764943 252.07915843778855,93.50175325460546 251.94502438434446,93.65652331627166 251.56325823223503,93.99701745193687 251.36721615412534,94.25496755471362 251.17117407601418,94.65736971504589 251.08863004312573,95.00818185482252 251.01640401434724,95.13199790415592 250.46954979646094,95.64789810970944 249.9742855991288,95.88521220426483 249.76792551690767,96.01934625770892 249.58220144290794,96.26697835637425 249.30361533190833,96.49397444681821 249.17979928257566,96.83446858248415 249.07661924146439,96.99955664826105 248.63294506468787,97.35036878803767 248.50912901535523,97.48450284148176 248.4369029865782,97.74245294425926 248.4369029865782,97.83531498125839 248.45753899479956,97.90754101003614 248.55040103179942,97.9797670388139 249.07661924146439,98.23771714159066 249.16948127846425,98.36153319092406 249.1901172866871,98.50598524847885 249.14884527024287,98.65043730603362 249.055983233243,98.78457135947771 248.6019910523551,99.11474749103223 248.467856998911,99.25919954858774 248.39563097013396,99.37269759380972 248.3749949619111,99.4861956390317 248.4059489742454,99.65128370480859 248.6019910523551,100.02273185280734 249.06630123735442,100.53863205836159 249.27266131957555,101.0029422433602 249.38615936479678,101.20930232558204 249.78856152512907,101.6529765023578 250.09810164846147,102.08633267502361 250.43859578412813,102.43714481480023 250.5933658457936,102.64350489702208 250.7274998992377,102.90145499979884 250.77908991979334,103.03558905324294 250.77908991979334,103.14908709846492 250.71718189512626,103.38640119301957 250.7378179033491,103.52053524646365 251.17117407601418,103.98484543146226 251.3775341582353,104.26343154246113 251.42912417879094,104.37692958768312 251.39817016645816,104.46979162468298 251.26403611301407,104.55233565757143 251.2124460924584,104.62456168634918 251.25371810890263,104.9341018096816 251.17117407601418,105.11982588368133 250.9338599814588,105.30554995768033 250.36636975534964,105.61509008101274 250.20128168957277,105.76986014267894 250.05682963201724,105.96590222078936 249.9742855991288,106.17226230301121 249.96396759501738,106.60561847567628 249.91237757446171,106.83261456612024 249.8091975333519,106.97706662367503 249.5099754141309,107.2143807182304 249.45838539357527,107.28660674700743 249.47902140179664,107.3485147716745 249.63379146346358,107.52392084156281 249.62347345935217,107.67869090322901 249.55124743057513,107.79218894845098 249.32425134013118,107.96759501833931 249.28297932368696,108.02950304300563 249.3345693442426,108.10172907178266 249.55124743057513,108.17395510056042 249.88142356212893,108.19459110878253 250.17032767723995,108.38031518278227 250.35605175123823,108.55572125267058 250.65527387046066,108.93748740478074 250.7997259280147,109.13352948289116 250.8719519567932,109.27798154044595 250.88226996090464,109.38116158155724 250.86163395268179,109.4843416226678 250.5727298375722,109.77324573777808 250.51082181290516,109.90737979122218 250.54177582523795,110.16532989399894 250.71718189512626,110.66059409133108 250.50050380879372,111.52730643666123 250.51082181290516,111.7439845229945 250.5727298375722,111.97098061343772 250.7274998992377,112.32179275321435 250.9648139937931,112.64165088065818 251.0679940349029,113.03373503687904 251.1402200636814,113.05437104510113 251.36721615412534,113.00278102454622 251.60453024867925,113.08532505743467 251.6870742815677,113.14723308210101 252.22361049534408,114.11712546854245 252.63633065978777,114.6330256740967 253.36890895167383,115.31401394542785 253.61654105034063,115.73705211398223 253.67844907500623,115.76800612631503 253.85385514489454,115.77832413042645 253.936399177783,115.81959614687068 254.524525412115,116.40772238120195 254.59675144089204,116.56249244286815 254.59675144089204,116.70694450042366 254.3594373463381,117.41888678408834 254.2872113175596,117.56333884164313 254.14275926000556,117.72842690742075 253.71972109145045,117.94510499375329 253.54431502156214,118.05860303897526 253.10064084478563,118.62609326508444 252.59505864334355,119.02849542541671 252.06884043367862,119.3380355487491 251.70771028979055,119.67852968441431 251.5116682116794,119.83329974608051 251.07831203901432,120.02934182419094 250.7274998992377,120.12220386119081 250.36636975534964,120.14283986941292 249.8401515456847,120.04997783241305 249.65442747168495,120.08093184474659 249.54092942646372,120.16347587763504 249.14884527024287,120.55556003385662 248.6432630687993,120.95796219418816 248.51944701946664,121.11273225585435 248.4988110112438,121.30877433396478 248.56071903591086,121.53577042440874 248.7154890975778,121.7627665148527 248.93216718391034,121.95880859296312 249.22107129901988,122.0826246422958 250.47986780057235,122.43343678207316 250.74813590746055,122.56757083551652 250.9338599814588,122.71202289307203 251.02672201845868,122.84615694651612 251.09894804723717,122.9906090040709 251.2124460924584,123.57873523840291 251.3156261335697,123.85732134940177 251.28467212123545,123.96050139051233 251.16085607190277,124.04304542340151 250.8719519567932,124.11527145217853 250.2838257224612,124.1565434686235 249.96396759501738,124.13590746040065 249.54092942646372,124.06368143162362 248.7773971222434,123.8676393535132 248.17895288380143,123.66127927129135 247.47732860424819,123.27951311918119 246.73443230824924,122.96997299584879 246.4558461972511,122.88742896296034 245.7129499012536,122.73265890129414 245.32086574503128,122.73265890129414 244.5057434202568,122.87711095884892 243.42235298859265,122.9802909999602 243.19535689815015,122.96997299584879 243.08185885292744,122.91838297529388 243.01995082826184,122.81520293418258 243.01995082826184,122.38184676151751 242.94772479948335,122.13421466285143 242.81359074603927,121.93817258474101 242.66913868848374,121.85562855185258 242.51436862681828,122.19612268751777 242.07069445004177,123.00092700818232 241.65797428559807,124.20813348917841 241.64765628148814,124.486719600178 241.71988231026515,124.82721373584322 241.812744347265,124.97166579339873 242.1429204788188,125.35343194550816 242.4524606021512,125.76615210995185 242.87549877070632,126.1891902785055 243.1644028858159,126.39555036072736 244.07238724759173,126.87017854983738 244.3406553544799,127.06622062794781 244.5057434202568,127.2313086937247 244.69146749425653,127.53053081294641 244.846237555922,127.89166095683373 244.9803716093661,128.5623312240542 244.9906896134775,128.82028132683095 245.2589577203657,129.01632340494137 245.78517593003065,129.35681754060732 246.29075813147273,129.61476764338406 246.9614283986932,129.84176373382803 248.07577284269013,130.0997138366048 248.41626697835534,130.21321188182677 248.51944701946664,130.2751199064931 248.56071903591086,130.3576639393823 248.52976502357805,130.44020797227074 248.41626697835534,130.5640240216034 248.05513683446875,130.8219741243809 246.4558461972511,131.55455241626768 245.7645399218078,131.79186651082233 244.72242150658934,132.01886260126628 244.4025633791455,132.13236064648754 243.9176171859248,132.390310749265 243.4533070009269,132.73080488493022 242.2873725363743,133.21575107815096 241.2143001088216,133.54592720970547 240.5436298416026,133.62847124259466 240.31663375115863,133.70069727137167 239.98645761960339,133.90705735359353 239.58405545927113,134.22691548103734 238.9030671879407,134.9801297811455 238.67607109749676,135.19680786747878 238.02603683849915,135.34125992503357 237.23155052194602,135.63016404014385 236.42674620128147,135.8365241223657 236.09657006972623,135.9706581758098 235.59098786828412,136.22860827858656 234.76554753939672,136.57942041836318 233.84724517351094,136.86832453347347 233.47579702551295,136.96118657047333 233.24880093506897,136.96118657047333 232.75353673773682,136.88896054169558 232.13445649107203,136.72387247591797 231.9177784047395,136.69291846358516 231.65982830196273,136.69291846358516 231.21615412518622,136.73419048002938 231.06138406351928,136.72387247591797 230.7208899278541,136.6103744306967 230.10180968118928,136.31115231147498 229.75099754141266,136.24924428680868 229.41050340574745,136.2698802950308 228.72951513441558,136.38337834025276 228.10011688363934,136.4452863649191 227.6873967191971,136.57942041836318 227.4088106081975,136.73419048002938 226.97545443553244,137.13659264036164 226.1809681189793,138.19934706380297 226.0158800532024,138.61206722824593 225.88174599975832,139.22082947079932 225.71665793397997,139.5303695941317 225.22139373664783,140.06690580790809 224.84994558864983,140.5518520011288 224.41658941598476,140.9748901696832 224.25150135020638,141.18125025190503 224.1276853008737,141.4392003546818 224.07609528031807,141.64556043690365 224.0657772762081,142.25432267945703 223.98323324331966,142.69799685623352 223.79750916931994,143.04880899601014 223.49828705009895,143.37898512756468 223.29192696787638,143.54407319334229 223.05461287332247,143.64725323445285 222.683164725323,143.70916125911918 222.37362460199057,143.68852525089707 222.37362460199057,143.9052033372296 222.31171657732352,144.15283543589567 222.15694651565803,144.37983152633964 222.01249445810254,144.53460158800584 221.65136431421448,144.75127967433838 220.81560598121715,145.0814558058929 219.95921163999841,145.56640199911362 219.65998952077595,145.82435210189038 219.21631534399947,146.2989802910004 219.00995526177834,146.4640683567773 218.7932771754458,146.55693039377715 218.53532707266905,146.62915642255493 217.79243077667158,146.763290475999 217.20430454233957,146.9077425335538 216.89476441900717,147.01092257466507 216.6574503244518,147.11410261577564 216.40981822578644,147.26887267744183 216.22409415178672,147.41332473499662 216.10027810245404,147.56809479666282 216.06932409012123,147.74350086655187 216.15186812300968,147.92922494055088 216.28600217645376,148.05304098988353 216.64713232034183,148.32130909677173 216.76063036556306,148.4348071419937 216.87412841078432,148.610213211882 217.12176050945112,149.05388738865852 217.33843859578366,149.35310950788022 217.586070694449,149.55946959010134 218.08133489178113,149.83805570110096 218.1535609205596,149.9412357422115 218.16387892466958,150.08568779976628 218.05038087944834,150.50872596832068 217.98847285478126,151.15876022731902 217.81306678489295,151.55084438353987 217.68925073556028,151.7365684575396 217.54479867800478,151.86038450687226 217.4209826286721,151.9016565233165 216.90508242311859,151.9222925315386 216.5645882874519,151.98420055620494 215.6050139051219,152.37628471242652 215.17165773245682,152.53105477409272 214.93434363790143,152.5001007617592 214.62480351456904,152.39692072064864 213.94381524323862,151.98420055620494 213.79936318568312,151.97388255209424 213.64459312401763,152.0564265849827 213.43823304179506,152.29374067953734 213.06678489379706,152.9540929426471 213.02551287735284,153.0882269960912 213.02551287735284,153.19140703720174 213.08742090201844,153.34617709886797 213.1699649349069,153.48031115231205 213.30409898835097,153.6247632098668 213.55173108701777,153.81048728386656 214.0985853049041,154.40893152230927 214.13985732134833,154.4914755551977 214.11922131312693,154.55338357986403 213.71681915279467,154.70815364153023 213.4898230623507,154.86292370319646 213.3556890089066,155.00737576075196 213.0358308814628,155.47168594575058 212.91201483213013,155.60581999919467 212.40643263068802,155.78122606908298 212.16911853613263,155.91536012252632 211.9214864374673,156.18362822941452 211.68417234291192,156.5963483938582 211.59131030591206,156.68921043085734 211.36431421546808,156.7614364596351 211.0547740921357,156.7820724678572 210.67300794002625,156.79239047196864 210.39442182902667,156.75111845552442 210.36346781669386,156.92652452541273 210.2809237838054,157.1122485994117 209.95074765225016,157.56624078029964 209.5586634960293,158.21627503929724 209.40389343436385,158.65994921607376 209.30071339325255,158.8663092982956 209.13562532747565,159.07266938051745 208.9395832493645,159.24807545040576 208.54749909314364,159.42348152029408 208.31018499858826,159.47507154084897 206.74184837370487,159.35125549151633 206.28785619281695,159.38220950384985 205.7203659667078,159.4853895449604 205.50368788037525,159.6092055942931 205.34891781870832,159.81556567651492 205.27669178993128,160.00128975051393 205.17351174882,160.5068719519575 205.06001370359874,160.87832009995623 204.98778767482173,161.03309016162243 204.88460763371043,161.1672242150665 204.65761154326648,161.2807222602885 204.26552738704564,161.38390230139905 203.8734432308248,161.42517431784327 203.40913304582543,161.38390230139905 203.21309096771574,161.39422030550975 202.9964128813832,161.44581032606538 202.8829148361605,161.51803635484316 202.8210068114949,161.6212163959537 202.8210068114949,161.7450324452871 202.86227882793912,161.87916649873046 202.96545886904894,162.03393656039668 203.26468098827138,162.33315867961838 203.69803716093645,162.63238079883936 203.85280722260194,162.8284228769498 204.1107573253787,163.63322719761433 204.1210753294901,163.78799725928053 204.0798033130459,163.90149530450253 203.9456692596018,164.00467534561307 203.68771915682504,164.09753738261296 202.5836927169395,164.34516948127902 201.8201604127192,164.56184756761155 201.30426020716567,164.7991616621662 200.8709040345006,165.11901978961004 200.74708798516792,165.18092781427637 200.20023376728014,165.32537987183113 200.05578170972464,165.41824190883102 199.75655959050366,165.77937205271905 199.51924549594827,165.9960501390516 198.5080810930626,166.6151303857164 197.930272862842,166.84212647616036 197.74454878884376,166.96594252549303 197.53818870662116,167.20325662004768 197.4556446737327,167.43025271049166 197.49691669017693,168.35887308048885 197.4453266696213,168.8747732860431 197.3111926161772,169.12240538470846 197.12546854217894,169.2978114545975 196.8262464229565,169.44226351215227 195.69126597073816,169.72084962315114 194.6801015678525,169.82402966426244 193.91656926363217,169.78275764781822 193.49353109507854,169.6795776067069 193.15303695941333,169.55576155737427 192.61650074563696,169.28749345048607 191.79106041674956,168.83350126959888 191.58470033452843,168.74063923259902 191.24420619886325,168.64777719559916 190.7386239974197,168.57555116682138 190.4703558905315,168.49300713393296 190.22272379186617,168.3691910846003 189.59332554108994,167.9564709201566 189.2115593889805,167.7913828543797 188.9020192656481,167.75011083793547 188.55120712587146,167.73979283382405 187.52972471887438,167.83265487082392 187.10668655031927,167.83265487082392 186.7765104187655,167.7913828543797 186.10584015154504,167.6572488009356 185.6105759542129,167.61597678449138 185.39389786788036,167.6572488009356 185.2081737938806,167.76042884204617 185.08435774454796,167.90488089960166 184.85736165410398,168.2866470517111 184.53750352666162,168.57555116682138 184.37241546088327,168.67873120793269 183.95969529644103,168.854137277821 183.58824714844155,169.11208738059776 183.39220507033187,169.22558542581973 182.15404457700225,169.5041715368186 181.70005239611433,169.53512554915216 181.19447019467077,169.47321752448582 180.85397605900556,169.35971947926384 180.2555318205636,169.03986135182 179.96662770545257,168.84381927370958 179.60549756156453,168.4620531215994 179.48168151223186,168.266011043489 179.3991374793434,168.09060497360068 179.37850147112056,167.8120188626018 179.52295352867608,167.29611865704754 179.58486155334316,166.7286284309384 179.64676957800876,166.55322236105008 179.85312966023133,166.23336423360624 179.90471968078552,166.05795816371793 179.92535568900834,165.8412800773854 179.91503768489693,165.3666518882761 178.78005723267862,165.59364797871933 M199.5708355165039,82.50276087219439 199.10652533150602,82.6884849461934 198.69380516706235,82.89484502841525 198.12631494095316,83.2559751723033 197.84772882995358,83.49328926685794 197.58977872717682,83.7512393696347 197.36278263673285,84.04014348474499 197.21833057917735,84.29809358752175 197.1461045504003,84.48381766152148 197.0841965257347,84.75208576840967 197.0841965257347,85.18544194107474 197.19769457095595,85.74261416307323 197.58977872717682,86.98077465640284 197.64136874773246,87.34190480029089 197.63105074362105,87.75462496473385 197.50723469428837,88.22925315384315 197.40405465317707,88.44593124017642 197.22864858328876,88.7245173511753 197.0738785216233,88.92055942928572 196.84688243117932,89.12691951150757 196.41352625851425,89.41582362661785 195.99048808995914,89.61186570472829 195.54681391318263,89.77695377050517 195.0102776994063,89.92140582806068 194.4015154568529,90.04522187739336 193.3181250251902,90.18967393494887 192.41014066341438,90.27221796783732 191.59501833863987,90.32380798839223 189.39728346298023,90.4063520212814 188.12816895731635,90.53016807061408 187.68449478053986,90.60239409939183 187.2305025996534,90.7158921446138 185.6105759542129,91.3246543871672 184.92958768288247,91.51037846116694 184.47559550199455,91.59292249405539 184.0112853169952,91.64451251461102 183.62951916488578,91.65483051872171 183.03107492644384,91.6341945104996 182.17468058522363,91.50006045705551 179.64676957800876,90.90161621861282 177.73793881746013,90.55080407883618 177.08790455846108,90.39603401716998 176.6339123775746,90.2618999637259 176.05610414735403,90.03490387328267 175.58147595824326,89.7872717746166 175.179073797911,89.5293216718391 174.81794365402442,89.23009955261811 174.51872153480195,88.92055942928572 174.2298174196924,88.56974728950908 173.92027729635998,88.11575510862117 173.59010116480474,87.52762887428989 172.77497884003023,85.84579420418378 172.30035065092093,84.91717383418657 171.87731248236582,84.1949135464112 171.39236628914512,83.44169924630229 170.73201402603607,82.51307887630509 169.94784571359438,81.49159646930799 169.32876546692955,80.73838216919984 168.84381927370885,80.21216395953415 168.40014509693236,79.78912579097977 167.9771069283787,79.43831365120315 167.57470476804642,79.15972754020427 167.0794405707143,78.87082342509397 166.0992301801614,78.40651324009538 164.0769013743901,77.62234492765367 163.67449921405782,77.43662085365393 163.23082503728133,77.16835274676575 162.80778686872767,76.84849461932266 162.46729273306102,76.51831848776814 162.13711660150722,76.14687033976867 161.56962637539806,75.4246100519933 161.1672242150658,75.01188988755034 160.95054612873327,74.83648381766203 160.69259602595503,74.6713957518844 160.18701382451292,74.44439966144118 159.57825158195953,74.26899359155213 158.6289952037395,74.08326951755312 156.6788924267452,73.79436540244284 154.99705775663907,73.59832332433241 152.716778848091,73.40228124622197 150.68413203820825,73.19592116400014 149.8174196928781,73.1340131393338 148.3316271008817,73.12369513522238 147.12442061988634,73.21655717222225 146.6910644472198,73.27846519688858 146.06166619644503,73.41259925033268 145.20527185522482,73.66023134899874 144.65841763733704,73.86659143122058 144.08060940711792,74.11422352988593 143.3067590987862,74.54757970255173 142.96626496312098,74.78489379710638 142.63608883156573,75.05316190399456 142.37813872878897,75.32143001088275 142.14082463423358,75.62065213010372 141.98605457256812,75.8682842287698 141.86223852323545,76.1571883438801 141.779694490347,76.42545645076828 141.7074684615685,76.79690459876701 141.69715045745707,77.14771673854364 141.73842247390277,77.57075490709802 141.83128451090118,77.9937930756524 141.98605457256812,78.48905727298381 142.33686671234474,79.37640562653681 143.70916125911845,82.51307887630509 144.00838337833943,83.32820120108032 144.2044254564506,83.99887146830078 144.33855950989468,84.65922373140981 144.48301156744873,85.60848010962913 144.89573173189243,89.5293216718391 145.04018378944792,90.24126395550378 145.21558985933626,90.76748216516873 145.36004191689176,91.09765829672324 145.53544798678007,91.41751642416706 146.01007617588937,92.06755068316541 146.3196162992218,92.39772681471993 147.8569989117724,93.84224739027066 148.42448913788155,94.47164564104689 148.67212123654835,94.83277578493421 148.86816331465803,95.15263391237804 149.02293337632497,95.50344605215466 149.1261134174348,95.8439401878206 149.20865745032324,96.37015839748554 149.2292934585461,96.7622425537064 149.17770343799046,97.3916408044819 149.095159405102,97.87658699770262 148.94038934343652,98.50598524847885 148.73402926121395,99.14570150336577 148.52766917899282,99.62032969247579 148.0324049816607,100.63149409536146 147.88795292410518,101.0029422433602 147.82604489943958,101.28152835435907 147.80540889121673,101.57043246946937 147.83636290354954,101.84901858046896 147.90858893232803,102.11728668735641 148.0117689734393,102.36491878602249 148.19749304743758,102.71573092579911 148.70307524888116,103.43799121357522 150.16823183265473,105.20236991656978 150.6325420176526,105.7079521180126 151.14844222320758,106.23417032767755 151.60243440409403,106.58498246745417 152.08738059731476,106.86356857845378 152.5620087864255,107.04929265245278 153.99621135786484,107.49296682922927 154.48115755108554,107.70964491556181 154.92483172786206,107.98823102656142 155.24468985530586,108.25649913344887 155.6161380033039,108.67953730200325 156.57571238563537,110.07246785699907 156.9884325500776,110.5780500584419 157.25670065696576,110.84631816533009 157.55592277618675,111.09395026399615 158.35040909273988,111.64080448188321 158.97980734351611,111.98129861754914 159.57825158195953,112.18765869977027 160.14574180806872,112.31147474910367 161.11563419451014,112.43529079843633 161.85853049050763,112.48688081899198 162.8490588851719,112.50751682721409 164.97456773205306,112.46624481076987 165.717464028052,112.41465479021421 166.4706783281609,112.31147474910367 166.9865785337144,112.19797670388168 167.44057071460233,112.04320664221548 167.75011083793473,111.89875458466071 168.0080609407115,111.72334851477238 168.25569303937684,111.48603442021701 168.42078110515374,111.26935633388447 168.72000322437617,110.7018661077753 169.12240538470846,109.639111684334 169.35971947926237,109.12321147877975 169.65894159848335,108.66921929789257 169.9581637177058,108.35967917456016 170.17484180403832,108.18427310467185 170.45342791503646,108.01918503889422 170.76296803836888,107.90568699367223 170.98996412881283,107.85409697311732 171.22727822336822,107.8231429607838 171.57809036314484,107.8231429607838 172.12494458103262,107.92632300189435 172.5583007536977,108.07077505944986 172.97102091813994,108.25649913344887 173.33215106202798,108.46285921567072 173.7139172141389,108.72080931844748 174.2710894361366,109.16448349522396 176.57200435290756,111.18681230099602 177.40776268590488,111.8781185764386 178.46019910523478,112.66228688888029 179.6364515738988,113.43613719721131 180.22457780822933,113.75599532465439 180.81270404256134,114.05521744387612 181.88577647011408,114.48857361654119 182.91757688122112,114.7877957357629 183.5263391237745,114.90129378098489 183.94937729232961,114.9528838015398 184.8057716335498,114.98383781387332 185.45580589254743,114.9528838015398 186.00266011043374,114.88065777276277 186.57015033654437,114.73620571520726 187.0963685462093,114.55048164120753 187.44718068598593,114.38539357543063 187.81862883398395,114.05521744387612 188.0353069203165,113.7456773205437 188.09721494498356,113.53931723832186 188.10753294909497,113.25041312321157 188.0456249244279,112.99246302043481 187.93212687920666,112.70355890532451 187.63290475998568,112.18765869977027 186.6114223529886,110.7328201201081 186.3431542461004,110.29946394744303 186.0645681351008,109.73197372133387 185.97170609810095,109.45338761033426 185.90979807343533,109.18511950344607 185.89948006932391,108.83430736366945 185.9613880939895,108.40095119100438 186.32251823787757,107.17310870178618 186.9519164886538,104.41820160412733 187.10668655031927,103.93325541090663 187.3955906654303,103.19035911490914 187.8495828463182,102.27205674902261 188.2107129902048,101.60138648180289 188.67502317520413,100.80690016524977 189.2425134013133,99.91955181169678 189.93381967675512,98.85679738825547 190.36717584942167,98.24803514570209 190.8830760549752,97.64959090725938 191.42993027286298,97.17496271814936 191.801378420861,96.93764862359471 192.10060054008196,96.78287856192851 192.87445084841372,96.48365644270753 193.42130506630002,96.32888638104131 193.96815928418783,96.22570633993003 194.61819354318544,96.13284430293017 195.27854580629446,96.08125428237526 195.8769900447379,96.07093627826383 196.46511627906992,96.09157228648594 196.90879045584492,96.13284430293017 197.43500866551133,96.22570633993003 198.45649107250696,96.49397444681821 199.48829148361546,96.88605860303906 201.00503808794468,97.57736487848163 202.5114666881625,98.36153319092406 203.22340897182715,98.79488936358914 203.89407923904616,99.25919954858774 204.4306154528225,99.70287372536424 204.85365362137765,100.1155938898072 205.34891781870832,100.7140381282499 205.93704405304032,101.56011446535867 206.59739631614934,102.63318689291067 207.49506267381378,104.2015235177948 207.94905485470167,104.84123977268172 208.31018499858826,105.22300592479188 208.70226915480913,105.53254604812429 209.13562532747565,105.78017814679036 209.5586634960293,105.95558421667867 209.971383660473,106.07940026601135 210.40473983313808,106.17226230301121 210.8896860263588,106.23417032767755 211.38495022369094,106.26512434001108 212.78819878279745,106.25480633589966 214.35653540768087,106.13099028656698 215.2954737817895,105.98653822901147 215.97646205312137,105.79049615090105 216.2034581435653,105.67699810567908 216.51299826689774,105.46032001934654 216.72967635323027,105.27459594534753 216.8431743984515,105.1095078795699 216.87412841078432,104.90314779734805 216.76063036556306,104.52138164523863 216.57490629156334,104.19120551368411 216.27568417234235,103.85071137801818 215.93519003667714,103.56180726290788 215.5740598927891,103.30385716013112 214.08826730079414,102.34428277780037 213.47950505823928,101.89029059691319 212.8088347910203,101.33311837491472 212.32388859779812,100.848172181694 211.93180444157727,100.35290798436185 211.6532183305791,99.90923380758535 211.46749425657939,99.4861956390317 211.3436782072467,99.04252146225521 211.3024061908025,98.7432993430335 211.28177018257966,98.37185119503475 211.32304219902386,97.8043609689256 211.43654024424657,97.24718874692711 211.6532183305791,96.48365644270753 211.9833944621329,95.61694409737665 212.41675063479798,94.55418967393534 213.02551287735284,93.22316714360585 213.77872717746175,91.68578453105525 213.97476925557143,91.11829430494609 214.04699528434844,90.7158921446138 214.01604127201566,90.34444399661507 213.88190721857157,89.92140582806068 213.63427511990622,89.5293216718391 213.46918705412932,89.32296158961799 213.24219096368537,89.10628350328545 212.85010680746453,88.83801539639727 212.43738664302083,88.66260932650896 211.37463221957952,88.33243319495443 211.07541010035854,88.17766313328823 210.82777800169174,88.01257506751061 210.4150578372495,87.63080891540045 209.02212728225294,86.16565233162761 206.31881020514976,83.5861513038578 205.54495989681948,82.93611704485947 205.21478376526423,82.70912095441551 204.91556164604324,82.5337148845272 204.38934343637828,82.31703679819465 203.914715247269,82.18290274475056 203.32658901293698,82.10035871186211 202.69719076216074,82.06940469952859 201.78920640038638,82.10035871186211 201.00503808794468,82.18290274475056 200.21055177139155,82.33767280641676 199.5708355165039,82.50276087219439Z"/>
    <path d="M83.68933134496763,126.99399459917005 83.48297126274505,127.32417073072456 83.35915521341238,127.6749828705012 83.30756519285674,127.9845229938336 83.32820120107958,128.3972431582773 83.48297126274505,129.01632340494137 84.10205150940986,130.5124340010485 84.32904759985382,131.20374027649032 84.45286364918796,131.9053645560443 84.48381766152076,132.26649469993163 84.47349965740933,132.61730683970825 84.38063762040947,133.2673410987066 84.02982548063284,134.72217967836875 83.86473741485595,135.51666599492188 83.60678731207919,137.51835879247182 83.46233525452368,138.2818910966914 83.338519205191,138.65333924469016 83.17343113941264,138.99383338035608 82.93611704485873,139.3343275160213 82.69880295030335,139.58195961468735 82.06940469952711,140.0978598202416 80.10898391842287,141.4598363629039 79.15972754020281,142.15114263834647 78.23110717020559,142.87340292612183 76.3635484261012,144.40046753456176 75.71351416710213,144.89573173189316 74.83648381766056,145.45290395389162 74.24835758333002,145.74180806900193 73.81500141066348,145.90689613477954 73.36100922977703,146.05134819233433 72.91733505300053,146.1648462375563 72.37048083511274,146.25770827455617 71.88553464189202,146.3092982951111 71.42122445689415,146.3196162992225 70.71960017733943,146.3092982951111 68.82108742090078,146.12357422111208 67.83055902623796,146.10293821288997 66.8193946233523,146.18548224577842 64.5287977106928,146.48470436500014 63.321591229695976,146.5672483978886 62.300108822698895,146.54661238966648 61.227036395146165,146.40216033211095 58.58562734271003,145.8346701060018 57.46096489460313,145.51481197855796 56.67679658215996,145.20527185522556 55.902946273829684,144.7822336866719 55.118777961387984,144.25601547700623 53.38535327072622,142.93531095078816 52.69404699528439,142.44004675345676 51.858288662285574,141.9241465479025 51.03284833339965,141.53206239168165 50.207408004513724,141.24315827657136 49.39228567973776,141.04711619846094 48.484301317963386,140.89234613679474 46.49292652452487,140.63439603401724 45.81193825319299,140.51057998468457 45.110313973639734,140.32485591068485 44.408689694086476,140.05658780379738 43.665793398089,139.67482165168724 43.04671315142419,139.27241949135495 42.345088871870935,138.77715529402354 40.240216033209705,137.17786465680587 39.404457700212355,136.48655838136332 38.21788722743838,135.32062391681146 37.70198702188486,134.87694974003495 37.10354278344143,134.52613760025832 36.77336665188765,134.38168554270354 36.432872516222446,134.26818749748156 36.00983434766732,134.1753254604817 35.586796179113676,134.11341743581536 35.1534400064486,134.10309943170395 34.69944782556068,134.12373543992607 33.80178146789627,134.24755148925945 32.305670871789886,134.59836362903607 31.635000604569434,134.71186167425807 30.84051428801631,134.7944057071465 30.02539196324181,134.8047237112572 29.41662972068842,134.75313369070227 28.82850348635641,134.6602716537024 26.785538672362247,134.14437144814818 25.867236306476453,133.98960138648195 25.413244125588534,133.95864737414917 24.938615936479238,133.95864737414917 22.85437910604085,134.13405344403748 21.760670670266745,134.13405344403748 20.615372213936993,134.01023739470406 18.09777921083353,133.56656321792758 17.4683809600573,133.50465519326124 16.900890733948135,133.48401918503913 16.2714924831719,133.51497319737265 15.61114022006287,133.60783523437254 13.176091249847852,134.18564346459237 12.299060900406284,134.3404135262586 11.845068719518364,134.39200354681424 11.267260489297778,134.42295755914776 10.864858328966971,134.41263955503635 10.462456168634699,134.3610495344807 9.967191971302558,134.24755148925945 9.564789810970284,134.08246342348184 9.13143363830521,133.83483132481575 8.687759461528715,133.51497319737265 7.841683124419946,132.77207690137445 5.551086211760444,130.55370601749271 5.210592076095238,130.254483898271 4.8391439280957655,130.00685179960564 4.581193825319006,129.86239974205014 4.230381685542378,129.73858369271747 3.8486155334314835,129.65603965982902 3.549393414210501,129.63540365160617 2.744589093545955,129.66635766393972 1.2484784974395755,129.84176373382803 0.9183023658857924,129.83144572971733 0.6603522631090327,129.7798557091617 0.4643101849978742,129.68699367216183 0.3508121397766278,129.59413163516197 0.25795010277675967,129.48063358993997 0.1650880657768916,129.3361815323852 0.05159002055417892,128.92346136794222 0,128.36628914594377 0.010318004109956017,127.84007093627882 0.06190802466560121,127.28289871428035 0.4746281891092965,125.08516383861998 0.7222602877746339,122.59852484785004 0.8460763371073026,121.96912659707455 1.0730724275512618,121.22623030107634 1.2691145056624202,120.79287412841127 1.4961105961063792,120.36983595985689 1.795332715327362,119.91584377896969 2.527911007213418,118.8840433678612 2.889041151101468,118.26496312119637 3.1882632703224507,117.63556487042088 3.8382975293215273,115.9846842126483 4.075611623875442,115.49973801942758 4.281971706098023,115.13860787553953 4.591511829430428,114.69493369876304 4.952641973317012,114.27189553020865 5.396316150093508,113.87981137398779 5.881262343314226,113.52899923421117 6.2423924872022765,113.32263915198932 6.5622506146461035,113.17818709443455 6.913062754422731,113.05437104510113 7.325782918866427,112.96150900810127 7.6869130627530105,112.92023699165705 8.058361210752484,112.92023699165705 8.429809358751955,112.96150900810127 8.790939502638539,113.03373503687904 9.440973761637617,113.26073112732298 10.194188061746516,113.65281528354384 11.071218411188086,114.26157752609797 12.340332916850507,115.28305993309431 12.856233122404026,115.66482608520447 13.49594937729168,116.06722824553674 14.26979968562196,116.4489943976469 14.661883841844276,116.58312845109026 15.074604006286505,116.69662649631225 15.446052154285978,116.76885252509 15.900044335173895,116.79980653742354 16.323082503727548,116.79980653742354 16.746120672281197,116.74821651686788 17.262020877836186,116.64503647575734 17.581879005278545,116.55217443875746 18.139051227277754,116.33549635242493 18.778767482163943,116.02595622909253 19.325621700051727,115.71641610576012 21.079682398934867,114.61238966587459 21.729716657933942,114.27189553020865 22.33847890048733,114.01394542743189 22.916287130707918,113.82822135343216 23.525049373261304,113.69408729998807 25.43388013381138,113.47740921365552 26.24900245858588,113.33295715610075 26.713312643585223,113.19882310265666 27.146668816250294,113.03373503687904 27.518116964249767,112.86864697110214 27.94115513280342,112.63133287654675 28.42610132602414,112.31147474910367 28.745959453467965,112.0535246463269 30.303978074239946,110.58836806255333 30.737334246906485,110.22723791866528 31.181008423682982,109.89706178711076 32.11994679779015,109.3295715610016 33.84305348434049,108.46285921567072 34.38990770222828,108.16363709644973 35.008987948893086,107.77155294022815 35.45266212566958,107.43105880456294 35.9066543065575,107.03897464834209 36.2161944298899,106.68816250856547 36.60827858611076,106.19289831123332 37.4440369191081,105.03728185079216 37.76389504655193,104.63487969045987 38.2282052315498,104.11897948490636 38.69251541654914,103.65466929990775 39.18777961387982,103.20067711901983 40.03385595098859,102.53000685180011 40.91088630043016,101.97283462980164 41.674418604650484,101.59106847769146 42.314134859538136,101.36407238724824 43.58324936520056,101.01326024747088 44.1094675748655,100.81721816936046 44.315827657086615,100.7140381282499 44.553141751641995,100.53863205836159 44.68727580508608,100.4044980049175 44.79045584619591,100.26004594736271 44.87299987908582,100.06400386925156 44.88331788319578,99.775099754142 44.78013784208595,99.42428761436464 44.62536778041902,99.16633751158788 44.4190076981979,99.0528394663659 44.037241546088474,98.93934142114392 43.665793398089,98.87743339647758 43.31498125831237,98.8671153923669 42.603038974647696,98.97029543347745 41.86014267865022,99.16633751158788 40.99343033331861,99.47587763492028 38.86792148643746,100.30131796380694 38.073435169884334,100.5592680665837 37.247994840996945,100.79658216113835 36.53605255733227,100.94103421869386 35.875700294223236,101.02357825158231 35.22566603522562,101.03389625569373 34.7097658296721,101.0029422433602 34.20418362822854,100.91008020636033 33.6779654185636,100.78626415702766 32.6152109951223,100.4044980049175 29.7158518399094,99.12506549514366 28.116561202691734,98.33057917859053 27.146668816250294,97.75277094836994 26.455362540808462,97.24718874692711 25.805328281809384,96.67969852081795 25.268792068033022,96.09157228648594 24.773527870702345,95.47249203982113 24.340171698035807,94.83277578493421 22.018620773043505,91.05638628027901 21.812260690822388,90.63334811172463 21.667808633266876,90.22062794728167 21.605900608599807,89.75631776228306 21.62653661682265,89.35391560195079 21.7400346620439,88.97214944984137 21.915440731932215,88.6110193059533 22.17339083471044,88.2808431743988 22.513884970375646,87.98162105517781 22.905969126596496,87.74430696062242 23.339325299261567,87.55858288662343 23.82427149248229,87.42444883317934 24.412397726814298,87.34190480029089 25.093385998144708,87.33158679617947 25.743420257143786,87.38317681673512 26.465680544918417,87.48635685784568 28.29196727258005,87.81653298940019 28.859457498689213,87.88875901817795 29.447583733021222,87.91971303051075 30.118254000241677,87.87844101406652 30.74765225101644,87.76494296884454 31.397686510015518,87.53794687840131 31.841360686792015,87.32126879206804 32.22312683890144,87.0633186892913 32.60489299101087,86.7434605618482 32.9557051307875,86.34105840151592 33.19301922534288,85.97992825762788 33.399379307564,85.60848010962913 33.57478537745231,85.17512393696406 34.05973157067303,83.67901334085694 34.276409657005566,83.11152311474778 34.64785780500504,82.47180685986086 34.833581879004775,82.22417476119479 35.1534400064486,81.86304461730747 35.57647817500225,81.47096046108588 36.06142436822297,81.10983031719857 36.53605255733227,80.81060819797685 37.92898311232882,79.99548587320162 38.78537745354755,79.42799564709246 39.32191366732391,78.98432147031596 39.65208979887916,78.65414533876144 40.61166418120918,77.5398008947645 41.15851839909696,76.99294667687744 41.50933053887359,76.73499657410068 41.839506670427376,76.53895449599025 42.138728789648354,76.40482044254617 42.51017693764783,76.28100439321275 42.860989077424456,76.21909636854643 43.191165208979704,76.18814235621363 43.50070533231211,76.20877836443573 43.90310749264438,76.29132239732418 44.171375599531096,76.39450243843474 44.4499617105307,76.54927250010094 44.69759380919751,76.73499657410068 44.92458989964,76.97231066865533 45.06904195719551,77.15803474265506 45.24444802708383,77.45725686187605 45.41985409697214,77.90093103865254 45.52303413808343,78.32396920720693 45.76034823263881,79.65499173753642 45.894482286081434,80.08834791020149 46.100842368304015,80.59393011164431 46.389746483413575,81.13046632542068 46.62706057796896,81.47096046108588 46.95723670952274,81.87336262141817 47.34932086574506,82.25512877352833 47.61758897263177,82.48212486397227 48.071581153519695,82.80198299141537 48.46366530974054,83.01866107774791 48.866067470072814,83.20438515174764 49.330377655072155,83.35915521341386 49.681189794848784,83.44169924630229 50.135181975735236,83.50360727096863 50.49631211962329,83.49328926685794 50.785216234734314,83.45201725041372 51.12571037039952,83.34883720930243 51.41461448550908,83.18374914352553 51.61065656362024,83.00834307363722 51.87892467050842,82.6575309338606 52.48768691306181,81.4812784651973 52.82818104872701,80.93442424731026 53.199629196726484,80.43916004997811 54.272701624279215,79.14940953609285 55.47990810527457,77.5294828906538 55.95453629438533,77.00326468098886 56.449800491716005,76.59054451654517 56.88315666438254,76.30164040143487 57.34746684938042,76.05400830276953 57.84273104671256,75.87860223288122 58.44117528515452,75.75478618354782 59.08089154004218,75.69287815888148 59.648381766151346,75.70319616299291 60.143645963483486,75.74446817943713 60.77304421425971,75.83733021643627 62.71282898714259,76.25005038087996 63.50731530369571,76.38418443432406 64.49784369835854,76.46672846721249 65.18914997380183,76.43577445487897 65.80823022046664,76.32227640965698 66.38603845068722,76.12623433154656 66.78844061101803,75.93019225343613 68.11946314134752,75.1150699286609 68.59409133045828,74.88807383821694 69.03776550723332,74.72298577244004 69.64652774978816,74.56821571077384 70.13147394300888,74.48567167788539 70.62673814034103,74.42376365321833 71.41090645278273,74.39280964088553 72.52525089677968,74.43408165732976 73.58800532021952,74.54757970255173 75.10475192454874,74.77457579299569 76.31195840554557,75.03252589577245 77.15803474265434,75.28015799443853 77.73584297287492,75.52779009310386 78.41683124420533,75.90955624521402 78.89145943331462,76.27068638910207 79.4383136512024,76.78658659465559 79.92325984442313,77.3747128289876 81.26460037886405,79.41767764298103 82.23449276530548,80.7074281568663 83.13215912296843,81.78050058441829 83.72028535730044,82.34799081052819 84.31872959574386,82.79166498730469 84.86558381363018,83.08056910241424 85.54657208496207,83.35915521341386 87.24904276328955,83.93696344363444 87.88875901817721,84.21554955463331 88.51815726895198,84.53540768207714 89.06501148683977,84.86558381363164 89.65313772117177,85.2886219821853 90.18967393494813,85.72197815485112 90.74684615694588,86.24819636451605 91.29370037483366,86.82600459473665 91.94373463383127,87.57921889484554 92.62472290516169,88.435613236065 93.1818951271609,89.20946354439602 93.5533432751589,89.77695377050517 93.87320140260273,90.33412599250364 95.0288178630439,92.56281488049682 95.33835798637631,93.03744306960685 95.6478981097087,93.43984522993838 96.0606182741524,93.86288339849277 96.44238442626184,94.18274152593659 96.88605860303834,94.51291765749112 98.42344121558894,95.5344000644882 98.90838740880965,95.90584821248694 99.40365160614179,96.35984039337413 99.87827979525109,96.84478658659484 100.34258998025042,97.38132280037121 101.90060860102241,99.35206158558762 102.49905283946585,100.07432187336298 102.84986497924247,100.45608802547314 103.25226713957474,100.82753617347188 103.60307927935138,101.11644028858217 103.96420942323942,101.37439039135893 104.33565757123742,101.60138648180289 104.71742372334832,101.7871105558019 105.4912740316786,102.07601467091219 106.43021240578723,102.28237475313404 107.38978678811725,102.39587279835602 108.20490911289322,102.40619080246671 108.92716940066785,102.37523679013391 109.75260972955525,102.29269275724546 111.72334851477092,102.02442465035728 112.55910684776826,101.95219862157953 113.06468904921184,101.9418806174681 113.54963524243254,101.97283462980164 114.3131675466514,102.0966506791343 114.80843174398355,102.26173874491192 115.24178791664862,102.46809882713377 115.65450808109232,102.74668493813265 116.00532022086894,103.05622506146506 116.27358832775712,103.37608318890814 116.58312845108954,103.85071137801818 116.78948853331065,104.28406755068325 116.93394059086616,104.75869573979328 117.00616661964318,105.15077989601413 117.02680262786603,105.45000201523584 117.00616661964318,105.9968562331229 116.94425859497758,106.35798637701022 116.8410785538663,106.69848051267616 116.59344645520095,107.25565273467463 116.22199830720147,107.78187094433957 116.02595622909179,107.98823102656142 115.68546209342512,108.29777114989382 115.19019789609445,108.63826528555903 114.46793760831834,108.99939542944708 113.78694933698647,109.23670952400172 112.98214501632339,109.41211559389004 112.23924872032444,109.49465962677849 109.8351537624437,109.65974769255611 108.70017331022537,109.78356374188878 107.34851477167302,109.98992382411063 105.60477207690131,110.33041795977657 102.59191487646571,111.01140623110771 101.01326024747088,111.40349038732856 100.4664060295831,111.57889645721687 100.03304985691803,111.75430252710518 99.59969368425295,111.96066260932703 99.29015356092054,112.13606867921536 99.02188545403236,112.33211075732578 98.77425335536556,112.55910684776974 98.59884728547725,112.74483092176874 98.41312321147751,113.00278102454622 98.29962516625626,113.21945911087877 98.18612712103501,113.49804522187763 98.12421909636795,113.80758534521004 98.1035830881451,114.05521744387612 98.15517310870075,114.55048164120753 98.29962516625626,115.02510983031755 98.52662125670022,115.5410100358718 99.19729152392068,116.84107855386776 99.38301559791894,117.30538873886637 99.48619563903024,117.68715489097579 99.52746765547447,118.09987505541949 99.49651364314165,118.48164120752891 99.372697593809,118.81181733908417 99.23856354036491,119.02849542541671 99.1250654951422,119.15231147474937 98.93934142114392,119.31739954052699 98.75361734714419,119.43089758574898 98.53693926081165,119.52375962274812 98.22739913747924,119.61662165974798 97.63927290314723,119.70948369674785 96.29793236870633,119.79202772963629 95.53440006448747,119.89520777074685 94.83277578493275,120.06029583652447 94.19305953004655,120.32856394341266 93.74938535327006,120.56587803796731 93.35730119704921,120.83414614485548 91.12861230905531,122.54693482729441 90.21030994316952,123.20728709040417 89.49836765950484,123.67159727540205 88.6007013018419,124.20813348917841 87.88875901817721,124.56926363306646 85.78388617951597,125.47724799484156 85.03067187940708,125.85901414695098 84.59731570674201,126.12728225383917 84.14332352585555,126.47809439361579 83.92664543952155,126.68445447583764 83.68933134496763,126.99399459917005Z"/>
  </g>
</svg>