<?xml version="1.0" encoding="UTF-8" standalone="no"?>
<svg viewBox="0 0 184.70668618838604 256" xmlns="http://www.w3.org/2000/svg">
  <style>
    g.zone {
      fill: lightgray;
      stroke-width: 2;
      stroke-linecap: square;
      stroke-linejoin: bevel;
      stroke-miterlimit: 3;
      stroke-opacity: 0.8;
      stroke: black;
      fill-opacity: 0.3;
    }
  </style>
  <g class="zone" id="zone">
    <path d="M75.19765739385228,253.18887262079053 75.36944851146968,252.61102977061938 75.4319180087853,251.89263055148868 75.49438750610092,251.62713518789676 75.86920448999685,251.00244021473836 75.9472913616397,250.7369448511464 75.97852611029862,250.40897999023886 75.96290873596917,249.69058077110816 74.24499755978634,250.03416300634404 73.15178135675968,250.17471937530473 71.68374816983933,250.26842362127817 70.9341142020497,250.20595412396256 69.95021961932704,249.9092240117128 69.26305514885303,249.79990239140992 69.01317715959055,249.6281112737914 68.18545632015807,248.87847730600288 67.91996095656613,248.67545143972657 66.21766715471054,247.83211322596352 65.68667642752668,247.67593948267447 64.90580771108034,247.20741825280624 64.53099072718442,247.06686188384552 63.625183016106845,246.94192288921428 62.62567105905474,246.67642752562236 62.0165934602258,246.5983406539773 59.01805758906947,246.61395802830674 57.67496339678035,246.70766227428018 56.972181551976874,246.6608101512929 55.20741825280789,246.39531478770095 54.94192288921595,245.41142020497833 54.582723279649485,244.59931673987307 54.09858467545178,243.81844802342562 53.34895070766215,242.94387506100475 53.00536847242736,242.39726695949253 52.92728160078228,242.14738897022895 52.92728160078228,241.91312835529482 53.08345534407022,241.28843338213753 53.099072718399675,241.06979014153177 53.03660322108406,240.8511469009271 52.86481210346666,240.5387994143479 52.48999511957073,240.11713030746694 52.0527086383614,239.8047828208877 51.006344558323136,239.14885309907262 49.97559785261211,238.7115666178622 49.14787701317739,238.19619326500668 48.78867740361315,238.04001952171762 48.663738408981914,237.93069790141473 48.491947291362294,237.69643728648063 48.33577354807214,237.36847242557306 47.91410444119227,236.21278672523192 47.867252318203896,235.99414348462614 47.820400195217736,235.21327476817982 47.71107857491596,234.91654465593007 47.35187896534949,234.51049292337743 46.49292337725808,233.80771107857507 46.39921913128354,233.51098096632532 46.39921913128354,233.1361639824305 46.44607125427192,232.88628599316692 45.94631527574475,232.68326012689062 45.68081991215282,232.4802342606143 44.60322108345564,230.96534895070778 44.43142996583824,230.55929721815517 44.290873596877546,229.85651537335278 44.072230356271774,229.3723767691551 44.009760858956156,228.82576866764288 43.96290873597,228.65397755002436 43.8223523670093,228.52903855539313 43.431918008786134,228.4353343094186 43.27574426549598,228.372864812103 43.103953147878585,228.16983894582665 42.91654465593173,227.79502196193295 42.80722303562773,227.42020497803813 42.72913616398265,226.29575402635368 42.63543191801034,225.6710590531964 42.63543191801034,224.9370424597362 42.604197169351416,224.7027818448021 42.4011713030751,224.2186432406055 41.60468521229931,222.89116642264472 41.448511469009155,222.6881405563684 41.15178135676052,222.45387994143428 39.621278672524554,221.75109809663192 38.99658369936615,221.3762811127382 38.38750610053721,220.90775988286998 38.07515861395912,220.56417764763296 37.79404587603773,220.14250854075087 37.3567593948284,219.01805758906752 37.12249877989317,218.6432406051727 36.7008296730133,218.19033674963393 36.12298682284106,217.7530502684235 35.545143972671035,217.45632015617375 34.48316251830331,217.1283552952662 34.03025866276231,216.94094680331824 33.733528550513675,216.7066861883841 33.233772571986506,216.09760858955516 32.983894582724034,215.92581747193776 32.609077598830325,215.7384089799898 31.672035139093836,215.45729624206953 29.594924353344542,215.06686188384526 28.42362127867282,214.598340653977 27.252318204003313,213.98926305514917 24.956564177648247,213.27086383601736 23.45729624207119,212.61493411420224 23.035627135189106,212.4587603709121 22.58272327965032,212.36505612493866 21.973645680821377,212.34943875061032 20.52122986823048,212.56808199121497 20.06832601268948,212.56808199121497 19.64665690580961,212.47437774524155 18.600292825769124,212.09956076134674 18.178623718889256,211.99023914104384 17.632015617375934,211.94338701805768 16.16398243045558,211.89653489507043 15.539287457297178,211.802830649097 14.727183992191923,211.53733528550507 13.930697901416128,211.10004880429463 13.509028794534041,210.91264031234778 11.369448511469127,210.1786237188876 10.885309907273642,210.10053684724252 9.823328452905915,210.0693020985847 8.277208394340482,209.85065885797894 7.137140068327678,209.78818936066332 6.668618838459433,209.69448511468988 6.075158613959951,209.46022449975575 5.653489507077865,209.22596388482165 5.200585651539078,208.89799902391408 4.966325036603846,208.63250366032216 4.794533918986451,208.36700829673023 4.685212298682455,208.0702781844805 4.669594924355215,207.66422645192785 5.075646656907842,206.7115666178619 5.294289897511396,205.7120546608098 5.637872132748405,204.493899463153 5.809663250368019,203.99414348462696 6.028306490971573,203.47877013177145 6.340653977551883,202.93216203025813 6.559297218155437,202.61981454368004 7.183992191313837,201.8389458272326 8.3709126403128,200.51146900927293 8.870668618839964,199.80868716447057 9.33918984870821,198.98096632503697 9.682772083945219,197.88775012201032 9.885797950221534,197.38799414348426 10.135675939484006,196.90385553928766 10.432406051732636,196.43533430941943 10.791605661299105,195.998047828209 11.135187896536115,195.63884821864363 11.5880917520749,195.24841386041936 11.962908735970828,194.9985358711569 12.55636896047031,194.65495363591987 13.071742313324714,194.42069302098574 13.712054660810354,194.20204978037998 14.258662762323677,194.0614934114204 15.601756954612796,193.84285017081461 17.11664226451931,193.780380673499 18.600292825769124,193.84285017081461 20.052708638362237,193.9834065397753 21.63006344558437,194.23328452903888 24.4568081991233,194.71742313323549 25.628111273792804,194.87359687652454 26.658857979503832,194.93606637384127 27.658369936555943,194.87359687652454 28.220595412396506,194.76427525622276 28.720351390923668,194.6081015129326 29.204489995121374,194.35822352367012 29.563689604685624,194.07711078574874 29.797950219620855,193.82723279648627 29.98535871156771,193.51488530990707 30.079062957542245,193.0619814543683 30.079062957542245,192.671547096144 30.01659346022441,192.29673011224918 29.891654465593174,191.99999999999943 29.610541727674,191.6720351390919 29.204489995121374,191.31283552952652 28.517325524647354,190.8443142996583 26.252806246951206,189.54807223035644 25.284529038555796,188.89214250854022 24.23816495851753,188.04880429477828 21.84870668619014,186.0029282576868 20.786725231822416,185.1595900439237 19.084431429966827,183.94143484626585 14.680331869205764,180.97413372376732 11.088335773549955,178.2879453391902 10.494875549048254,177.78818936066415 10.073206442168388,177.3196681307959 9.776476329917537,176.866764275256 9.604685212300142,176.47632991703284 9.479746217668906,176.05466081015075 9.37042459736491,175.41434846266512 9.32357247437875,174.63347974621766 9.37042459736491,173.94631527574364 9.464128843339447,173.22791605661294 9.745241581260837,171.65056124938968 9.807711078576455,170.93216203025898 9.776476329917537,170.52611029770634 9.698389458272459,170.13567593948207 9.542215714984524,169.69838945827274 9.35480722303767,169.2923377257201 9.0268423621279,168.76134699853625 8.38653001464226,167.90239141044373 4.529038555394519,163.32650073206415 3.919960956565578,162.74865788189302 3.3889702293817145,162.3113714006837 1.6398243045399687,161.15568570034142 1.0775988286971865,160.718399219131 0.7340165934601772,160.39043435822344 0.4997559785271642,160.07808687164425 0.18740849194907366,159.48462664714475 0.062469497317837464,159.04734016593432 0,158.51634943875047 0.015617374329459366,157.93850658857934 0.12493899463345558,157.31381161542205 0.34358223523700926,156.54856027330405 0.5778428501722417,155.98633479746238 0.8901903367503322,155.3147877013178 1.311859443632419,154.54953635919983 1.7959980478301238,153.81551976573965 2.3426061493412274,153.09712054660784 2.8735968765250908,152.50366032210835 3.54514397266965,151.81649585163433 4.310395314788746,151.14494875549087 5.075646656907842,150.53587115666195 7.9023914104445545,148.45876037091264 8.433382137628419,148.00585651537276 8.823816495851586,147.58418740849177 9.183016105418055,147.03757930697844 9.307955100049291,146.69399707174256 9.35480722303767,146.44411908247898 9.33918984870821,145.8194241093217 9.245485602733673,145.41337237676905 9.136163982431896,145.1166422645193 10.088823816497847,145.4289897510985 10.744753538312946,145.72571986334825 11.150805270865574,145.95998047828238 11.91605661298245,146.52220595412405 12.24402147389,146.69399707174256 12.634455832113169,146.77208394338652 13.071742313324714,146.67837969741308 13.368472425575565,146.52220595412405 13.790141532455433,146.14738897022923 13.961932650075047,145.9131283552951 14.19619326500806,145.44460712542687 14.352367008298215,145.30405075646615 14.555392874574528,145.27281600780836 15.757930697902951,145.33528550512398 16.242069302100656,145.30405075646615 16.80429477794122,145.13225963884767 17.30405075646838,144.8042947779401 17.66325036603263,144.50756466569038 18.00683260126964,144.13274768179554 18.772083943388736,143.11761835041509 19.28745729624314,142.4929233772567 19.69350902879577,142.0712542703757 19.849682772085924,141.94631527574447 20.24011713030909,141.7276720351387 20.92728160078089,141.00927281600798 21.536359199609834,140.52513421181027 21.645680819913828,140.38457784284958 21.989263055150836,139.71303074670612 22.17667154709769,139.51000488042982 22.44216691068962,139.29136163982406 22.81698389458333,139.135187896535 23.86334797462382,138.9946315275743 24.47242557345054,138.94777940458704 24.81600780868755,138.9633967789165 27.221083455344395,141.22791605661266 27.861395802832256,141.88384577842885 28.298682284041583,142.3836017569549 28.673499267937512,142.93020985846712 28.97022938018614,143.41434846266483 29.204489995121374,143.94533918984868 29.39189848706823,144.58565153733545 29.485602733040544,145.25719863348002 29.501220107370006,146.1161542215714 29.39189848706823,147.10004880429517 29.204489995121374,148.05270863836003 28.767203513909827,149.45827232796475 28.454856027331736,150.1766715470966 27.642752562226484,151.84773060029326 27.486578818936326,152.26939970717422 27.39287457296401,152.6910688140552 27.37725719863455,153.26891166422632 27.486578818936326,153.81551976573965 27.73645680820102,154.47144948755476 28.126891166424187,155.12737920936985 29.03269887750176,156.34553440702774 30.485114690092654,158.09468033186948 31.64080039043492,159.39092240117134 32.42166910688347,160.18740849194714 33.10883357735527,160.718399219131 33.84285017081545,161.14006832601308 34.56124938994839,161.42118106393337 36.73206442167,162.0927281600779 37.46608101513018,162.42069302098548 38.137628111274736,162.84236212786755 38.62176671547244,163.24841386041908 39.183992191313,163.88872620790582 40.63640800390612,165.99707174231293 41.2611029770623,166.76232308443093 41.66715470961493,167.16837481698354 42.12005856515371,167.54319180087836 43.463152757442835,168.4646168862854 44.009760858956156,168.76134699853625 44.571986334798936,168.99560761347036 45.69643728648228,169.32357247437793 46.961444607126325,169.52659834065423 48.63250366032299,169.65153733528547 50.756466569058446,169.69838945827274 53.34895070766215,169.62030258662767 55.05124450951773,169.47974621766696 55.81649585163683,169.33918984870627 56.581747193753706,169.16739873108776 57.253294289898264,168.91752074182529 57.67496339678035,168.68326012689116 58.081015129332975,168.38653001464144 58.48706686188561,167.91800878477318 58.893118594438235,167.21522693997082 59.62713518789841,165.34114202049784 59.98633479746266,164.56027330405038 60.34553440702913,163.9980478282087 60.782820888238454,163.49829184968266 61.345046364081234,163.06100536847222 61.95412396291018,162.76427525622248 62.62567105905474,162.60810151293344 62.98487066861899,162.59248413860396 63.50024402147561,162.60810151293344 64.17179111762017,162.74865788189302 64.82772083943527,162.96730112249878 65.59297218155214,163.32650073206415 66.2645192776967,163.74816983894624 67.42020497803897,164.622742801366 70.902879453393,167.68374816983905 72.16788677403704,168.73011224987843 74.33870180576088,170.30746705710058 75.86920448999685,171.27574426549486 76.72816007808827,171.72864812103475 77.61835041483637,172.15031722791574 78.57101024890233,172.54075158614 79.67984382625843,172.9155685700337 81.08540751586317,173.24353343094128 82.06930209858581,173.38408979990197 82.83455344070269,173.43094192288925 83.70912640312356,173.43094192288925 84.77110785749129,173.3372376769158 85.61444607125546,173.18106393362567 86.45778428501742,172.9155685700337 87.06686188384636,172.6813079550996 87.45729624206953,172.44704734016548 87.92581747193778,172.0253782332845 88.25378233284532,171.55685700341627 88.34748657881985,171.24450951683707 88.36310395314932,170.80722303562663 88.26939970717478,170.41678867740345 88.09760858955738,169.979502196193 87.6447047340186,169.19863347974558 86.09858467545317,166.99658369936503 85.69253294290054,166.34065397754995 85.27086383601845,165.48169838945853 85.13030746705776,165.06002928257644 85.03660322108544,164.65397755002382 85.02098584675598,164.12298682283995 85.1146900927283,163.46705710102486 85.66129819424162,161.60858955588134 86.61395802830758,157.4387506100533 86.84821864324059,156.7047340165931 87.28550512445213,155.58028306490976 87.97266959492615,154.19033674963336 88.51927769643726,153.1752074182529 89.22205954124074,151.9726695949245 90.08101512933214,150.62957540263537 91.12737920937042,149.02098584675431 91.78330893118773,148.09956076134728 92.56417764763407,147.1937530502686 93.39189848706879,146.47535383113677 93.95412396290935,146.1161542215714 94.40702781844813,145.8818936066373 95.57833089311985,145.4289897510985 96.40605173255236,145.1947291361644 97.23377257198706,145.03855539287423 98.21766715470972,144.89799902391354 99.21717911176182,144.81991215226958 100.12298682284161,144.8042947779401 101.01317715959195,144.83552952659792 101.68472425573428,144.89799902391354 102.4812103465123,145.03855539287423 104.02733040507552,145.44460712542687 105.5890678379704,146.03806734992634 107.88482186432547,147.08443142996572 110.16495851635108,148.2713518789658 111.24255734504827,148.9272816007809 112.25768667642762,149.63006344558326 113.06979014153288,150.30161054172783 113.71010248902073,150.92630551488512 114.45973645680814,151.83211322596378 115.34992679355848,153.1127379209373 116.34943875061059,154.7369448511467 117.70815031722917,157.11078574914572 118.39531478770319,158.07906295754003 118.9419228892143,158.65690580771115 119.53538311371378,159.1254270375794 120.1913128355311,159.50024402147423 120.83162518301673,159.76573938506615 121.45632015617514,159.953147877013 122.11224987799024,160.0937042459737 122.8462664714504,160.18740849194714 123.7833089311869,160.24987798926276 125.12640312347602,160.2342606149344 126.31332357247499,160.18740849194714 128.48413860419882,159.9843826256708 129.85846754514463,159.71888726207888 130.38945827232848,159.56271351878985 130.88921425085567,159.34407027818406 131.3577354807239,159.01610541727652 131.68570034163145,158.73499267935622 131.85749145924885,158.48511469009264 131.90434358223501,158.17276720351344 131.77940458760378,157.71986334797467 131.5607613470002,157.28257686676423 131.21717911176322,156.79843826256652 130.8735968765262,156.47047340165898 129.9365544167897,155.75207418252825 127.96876525134219,154.47144948755476 127.01610541727845,153.81551976573965 125.98535871156743,152.98779892630495 125.22010736944834,152.25378233284476 124.5797950219627,151.50414836505624 124.06442166910828,150.73889702293826 123.72083943387128,149.97364568082025 123.53343094192442,149.30209858467572 123.4709614446088,148.8491947291358 123.43972669594989,148.28696925329413 123.5021961932655,147.42801366520274 123.67398731088512,146.58467545143967 124.00195217179267,145.4289897510985 124.50170815031761,144.1171303074672 125.15763787213272,142.50854075158614 126.07906295754196,140.49389946315247 127.21913128355477,138.16691068814072 127.5158613958034,137.3079551000493 127.60956564177795,136.80819912152214 127.60956564177795,136.35529526598333 127.5158613958034,135.8867740361151 127.31283552952709,135.3714006832596 127.09419228892132,135.01220107369423 126.75061005368653,134.59053196681324 126.40702781844952,134.2625671059057 125.95412396290851,133.93460224499702 125.18887262079164,133.59102000976114 123.58028306491059,133.09126403123508 123.1273792093718,132.85700341630096 122.6432406051741,132.51342118106396 122.12786725231969,132.02928257686625 120.01952171791147,129.81161542215736 115.92776964372851,125.90727183992236 114.756466569059,124.9233772571986 114.25671059053184,124.57979502196159 113.80380673499305,124.31429965836965 113.3352855051248,124.11127379209334 112.83552952659986,123.92386530014649 112.28892142508654,123.78330893118579 111.72669594924375,123.68960468521236 111.0239141044425,123.62713518789674 110.05563689604709,123.61151781356729 108.46266471449549,123.72083943387017 106.9009272816006,123.97071742313264 105.71400683260164,124.2674475353835 105.01122498780039,124.54856027330378 104.38653001464198,124.86090775988298 103.52757442655057,125.4075158613963 102.90287945339217,125.95412396290851 102.46559297218285,126.45387994143456 102.15324548560253,126.98487066861843 102.04392386530075,127.26598340653982 101.95021961932844,127.67203513909244 101.93460224499898,128.1093216203029 102.01268911664405,128.76525134211798 102.16886285993199,129.29624206930185 102.63738408980024,130.71742313323605 102.79355783309039,131.46705710102458 102.77794045876094,132.2166910688142 102.68423621278862,132.669594924353 102.54367984382792,133.0444119082478 102.37188872620831,133.38799414348483 102.10639336261637,133.778428501708 101.84089799902443,134.07515861395774 101.45046364080127,134.40312347486528 100.93509028794686,134.73108833577393 100.4353343094197,134.9809663250364 99.31088335773636,135.3714006832596 98.45192776964494,135.5744265495359 97.53050268423792,135.73060029282604 95.48462664714532,135.9804782820885 93.64177647633126,136.10541727671975 90.31527574426738,136.2303562713521 88.39433870180602,136.41776476329895 87.72279160566146,136.52708638360184 87.03562713518966,136.69887750122035 84.58369936554443,137.6203025866274 83.89653489507263,137.8233284529037 82.86578818936161,138.02635431918 81.75695461200772,138.12005856515344 80.67935578331054,138.08882381649562 79.57052220595443,137.9326500732066 75.55685700341654,136.97999023914062 72.6676427525642,136.44899951195677 71.68374816983933,136.21473889702264 70.59053196681491,135.87115666178565 69.85651537335474,135.54319180087808 69.40361151781373,135.2933138116156 68.51342118106561,134.6686188384572 68.12298682284245,134.32503660322132 67.67008296730144,133.85651537335306 67.24841386042158,133.30990727183973 66.67057101024933,132.38848218643273 65.15568570034281,129.32747681795965 64.12493899463179,127.37530502684271 63.43777452415999,126.25085407515826 62.56320156173912,124.97022938018587 60.87652513421299,122.73694485114642 59.533430941923875,121.12835529526647 58.877501220108776,120.47242557345027 58.29965836993653,119.95705222059586 57.28452903855718,119.20741825280622 56.53489507076755,118.77013177159579 55.410444119084204,118.22352367008246 52.302586627623874,117.02098584675404 51.677891654465476,116.73987310883376 50.95949243533476,116.34943875060948 50.19424109321788,115.81844802342562 49.553928745730026,115.2093704245978 47.97657393850789,113.30405075646699 47.49243533431019,112.83552952659875 47.13323572474372,112.57003416300682 46.72718399219331,112.3357735480727 46.28989751098177,112.14836505612473 45.72767203513898,111.94533918984841 44.82186432406141,111.72669594924375 43.3382137628116,111.46120058565182 40.792581747194056,111.086383601757 38.65300146412914,110.83650561249343 31.156661786237212,110.13372376769105 29.579306979015083,110.05563689604709 27.814543679843876,110.07125427037543 26.908735968766305,109.50902879453376 26.690092728160533,109.32162030258691 26.48706686188422,109.04050756466552 26.330893118596283,108.57198633479727 26.22157149829229,108.35334309419261 25.612493899463345,107.75988286969202 25.253294289899095,107.52562225475789 24.47242557345054,107.18204001952199 24.14446071254299,106.96339677891622 23.988286969255057,106.80722303562717 23.55100048804351,106.18252806246988 22.95754026354403,105.57345046364095 20.115178135677855,103.12152269399684 17.975597852612943,101.5441678867736 16.897999023915755,101.01317715958973 16.53879941434929,100.74768179599779 16.195217179112277,100.35724743777463 15.836017569548028,99.62323084431445 15.398731088336483,98.93606637384043 15.086383601758392,98.26451927769698 14.945827232797695,97.57735480722296 14.945827232797695,96.78086871644717 15.023914104442774,96.49975597852578 15.13323572474455,96.34358223523674 15.632991703271715,96.64031234748647 16.148365056126117,96.8745729624206 16.75744265495506,97.09321620302637 17.210346510493846,97.20253782332814 17.788189360663868,97.29624206930157 18.506588579796805,97.34309419228885 19.849682772085924,97.31185944363104 21.333333333333517,97.0775988286969 22.44216691068962,96.76525134211771 23.50414836505735,96.37481698389455 26.002928257688733,95.29721815519736 26.78379697413507,95.04734016593488 27.517813567595248,94.85993167398692 28.439238653002278,94.71937530502733 29.501220107370006,94.64128843338226 32.74963396779103,94.61005368472445 33.70229380185476,94.56320156173717 34.670571010250164,94.4538799414354 35.71693509028843,94.23523670082963 36.669594924354385,93.93850658857988 39.027818448025066,93.11078574914629 42.338701805759484,92.14250854075198 43.35383113714106,91.76769155685716 44.15031722791685,91.42410932162015 45.1342118106395,90.90873596876575 46.10248901903491,90.31527574426516 49.02293801854616,88.22254758418751 50.00683260126881,87.58223523670077 50.9438750610053,87.03562713518744 52.021473889702484,86.52025378233304 52.9897510980979,86.14543679843821 54.19228892142632,85.78623718887286 55.457296242070356,85.52074182528092 56.80039043435948,85.36456808199077 58.455832113226684,85.2864812103468 59.814543679845265,85.2864812103468 63.359687652514914,85.41142020497804 64.34358223523756,85.47388970229366 65.24938994631513,85.5988286969249 65.95217179111862,85.75500244021505 66.70180575890825,86.00488042947752 67.48267447535459,86.41093216203015 68.23230844314422,87.0200097608591 68.93509028794548,87.78526110297707 70.76232308443231,90.08101512933104 71.46510492923578,90.79941434846286 72.27720839433881,91.43972669594962 73.46412884334,92.17374328940979 75.01024890190321,92.90775988286997 76.8530990727195,93.59492435334288 78.44607125427109,94.04782820888278 79.47681795998211,94.25085407515908 80.78867740361231,94.42264519277649 82.08491947291527,94.48511469009321 83.36554416788877,94.46949731576375 85.255246461689,94.3133235724747 87.41044411908337,94.03221083455331 88.78477306002918,93.78233284529084 90.20595412396338,93.42313323572438 91.01805758906863,93.15763787213244 91.95510004880512,92.75158613957981 92.56417764763407,92.3767691556861 93.09516837481793,91.9238653001462 93.40751586139602,91.53343094192304 93.6261591020018,91.04929233772533 93.68862859931741,90.59638848218655 93.6261591020018,89.98731088335761 93.46998535871164,89.53440702781883 93.25134211810808,89.03465104929276 92.67349926793585,88.12884333821408 92.09565641776582,87.34797462176664 90.04978038067544,84.8335773548069 88.9877989263055,83.45924841385998 88.08199121522793,82.11615422157197 87.3011224987816,80.72620790629558 86.52025378233304,79.03953147877057 86.2235236700844,78.22742801366532 85.97364568081971,77.35285505124445 85.8799414348474,76.77501220107331 85.8799414348474,76.33772571986287 85.94241093216301,75.90043923865355 86.14543679843933,75.36944851146858 86.48901903367634,74.90092728160033 86.84821864324059,74.57296242069278 87.3011224987816,74.26061493411468 87.73840897999092,74.04197169350891 88.25378233284532,73.85456320156206 88.83162518301756,73.71400683260137 89.73743289409514,73.57345046364067 90.45583211322585,73.52659834065452 92.2049780380676,73.49536359199558 94.0009760858955,73.60468521229848 95.45339189848862,73.87018057589042 98.1239629087374,74.58857979502224 98.87359687652703,74.6666666666662 99.4358223523676,74.61981454368005 99.90434358223584,74.51049292337716 100.2323084431434,74.36993655441647 100.5446559297237,74.19814543679796 100.87262079063125,73.94826744753549 101.2005856515388,73.60468521229848 101.40361151781511,73.3235724743782 101.55978526110304,73.0424597364568 101.73157637872266,72.62079062957582 101.84089799902443,72.19912152269374 101.91898487066952,71.63689604685207 101.98145436798514,69.79404587603689 102.05954123963022,68.88823816495821 102.16886285993199,68.24792581747147 102.35627135187885,67.52952659834075 102.71547096144532,66.62371888726206 103.1371400683274,65.85846754514408 103.62127867252511,65.09321620302609 104.62079062957721,63.703269887749705 105.08931185944546,62.90678379697391 105.40165934602355,62.0790629575403 105.5578330893137,61.110785749146004 105.5890678379704,60.59541239629049 105.5578330893137,59.81454367984416 105.40165934602355,58.58077110785792 105.2142508540767,57.75305026842321 104.40214738897144,54.613958028306186 104.1366520253795,53.20839433870145 103.99609565641882,52.27135187896496 103.91800878477373,50.756466569058446 104.08979990239335,47.96095656417732 104.07418252806389,47.42996583699346 104.01171303074827,46.945827232796866 103.83992191312866,46.196193265007224 103.62127867252511,45.64958516349501 103.29331381161533,45.04050756466607 102.80917520741986,44.29087359687644 102.26256710590653,43.57247437774572 101.74719375305213,42.99463152757458 99.31088335773636,40.37091264031197 98.53001464129002,39.30893118594424 97.82723279648654,38.09077598828747 96.45290385554073,35.279648609077995 95.87506100536848,34.3113714006837 95.34407027818462,33.561737432894056 94.71937530502844,32.79648609077607 93.81356759394865,31.843826256711232 93.03269887750231,31.156661786237212 91.6896046852132,30.110297706197837 89.89360663738529,28.907759882869414 86.00488042947863,26.51830161054203 84.03709126403112,25.362615910199764 82.24109321620321,24.378721327477113 81.13225963884932,23.800878477305982 79.99219131283652,23.26988775012212 78.28989751098094,22.629575402635368 76.8530990727195,22.22352367008274 73.3235724743793,21.395802830649135 71.48072230356303,20.802342606149654 70.01268911664266,20.177647632992365 66.53001464128863,18.584675451439665 62.094680331870876,16.71059053196668 61.017081503173685,16.179599804782818 59.75207418252965,15.44558321132264 53.942410932163845,11.60370912640325 52.771107857492126,10.729136163982377 51.83406539775563,9.838945827233156 51.334309419230685,9.261102977062023 50.95949243533476,8.761346998535968 50.53782332845489,8.074182528063059 50.209858467545125,7.449487554904659 49.81942410932196,6.621766715471055 49.49145924841441,5.778428501707991 49.10102489019123,4.4197169350905225 49.0073206442167,3.826256710591041 48.99170326988946,3.154709614446482 49.069790141532316,2.545632015617541 49.22596388482247,2.0771107857492956 49.49145924841441,1.5929721815515907 49.866276232310334,1.155685700342264 50.444119082480356,0.7652513421179863 51.053196681309295,0.4997559785260545 51.94338701805963,0.26549536359193177 52.89604685212336,0.12493899463123621 54.33284529038701,0.031234748657809053 55.64470473401721,0 58.81503172279316,0.015617374329459366 71.91800878477457,0.26549536359193177 94.1415324548562,0.39043435822316797 107.94729136164109,0.3279648609075499 131.48267447535514,0.42166910688208675 178.56905807711047,0.3279648609075499 179.44363103953137,1.4211810639341957 179.7403611517822,1.9209370424602503 180.0214738897036,2.4519277696441137 180.2244997559799,2.967301122498518 180.34943875061114,3.451439726696223 180.3962908735973,3.904343582235009 180.3650561249406,4.326012689117095 180.193265007321,4.810151293313691 179.84968277208398,5.263055148853587 179.3967789165452,5.669106881406214 178.10053684724224,6.590531966813246 177.6007808687173,6.996583699365873 177.19472913616465,7.449487554904659 176.9760858955589,7.918008784772905 176.92923377257273,8.261591020009913 176.94485114690218,8.69887750122035 177.0385553928745,9.167398731088596 177.4289897510999,10.526110297706063 177.4914592484155,10.9633967789165 177.47584187408606,11.385065885798587 177.3821376281115,11.806734992679564 177.22596388482359,12.24402147389 176.4607125427045,13.696437286480895 176.25768667642816,14.1805758906786 176.11713030746748,14.649097120546845 176.0858955588108,15.070766227427823 176.13274768179693,15.44558321132264 176.2889214250871,15.851634943875268 177.0385553928745,17.069790141532042 177.24158125915082,17.507076622742478 177.35090287945482,17.95998047828237 177.3196681307959,18.490971205466238 177.19472913616465,18.975109809662833 176.99170326988835,19.428013665202727 175.82040019521884,21.458272327964753 174.68033186920604,23.691556857003096 174.3836017569552,24.363103953147654 174.18057589067888,24.925329428989325 174.05563689604764,25.48755490483211 174.00878477306148,26.09663250365994 174.0244021473887,26.658857979502724 174.1024890190338,27.158613958028777 174.28989751098067,27.642752562225372 174.5553928745748,28.048804294778 174.97706198145468,28.486090775988437 175.5549048316269,28.923377257198872 177.63201561737398,30.360175695461418 179.89653489507236,31.828208882381773 180.4275256222562,32.24987798926275 180.86481210346554,32.671547096144835 181.34895070766325,33.35871156661774 181.72376769155696,34.15519765739354 181.9580283064922,34.967301122498796 181.98926305514888,35.623230844313895 181.92679355783326,35.935578330893094 181.78623718887258,36.24792581747229 181.58321132259627,36.497803806734765 181.30209858467708,36.716447047340544 180.63055148853255,37.060029282576444 179.00634455832204,37.65348950707703 178.428501708152,37.903367496339506 177.88189360663867,38.262567105904864 177.41337237677044,38.71547096144476 176.9760858955589,39.418252806247125 176.19521717911255,41.21425085407503 175.02391410444304,43.52562225475845 174.53977550024536,44.1659346022452 173.66520253782448,44.931185944363186 173.4465592972187,45.212298682284576 173.3372376769169,45.509028794534316 173.25915080527184,45.868228404099675 173.2435334309424,46.63347974621767 173.38408979990308,47.32064421669168 173.61835041483832,47.929721815519514 173.9619326500731,48.46071254270338 174.3523670082985,48.866764275256 174.83650561249397,49.16349438750574 176.52318204002012,49.8038067349925 177.75695461200743,50.39726695949198 178.86578818936133,51.084431429965996 179.28745729624342,51.412396290873545 179.64665690580767,51.75597852611055 179.84968277208398,52.037091264030835 180.06832601268977,52.45876037091292 180.8491947291361,54.910688140555926 181.06783796974187,55.31673987310855 181.27086383601818,55.519765739384866 181.48950707662394,55.69155685700337 181.89555880917658,55.89458272327968 182.62957540263676,56.11322596388435 183.30112249878133,56.22254758418724 184.70668618838604,56.331869204490125 184.61298194241152,56.47242557345082 184.39433870180574,56.59736456808206 183.48853099072818,56.81600780868672 183.20741825280678,56.940946803319065 182.91068814055814,57.14397266959538 182.56710590532114,57.50317227916074 182.06734992679398,57.79990239141048 181.61444607125517,57.95607613469952 180.64616886285978,58.09663250366022 180.3650561249406,58.23718887262091 179.84968277208398,58.72132747681751 179.7091264031233,58.90873596876547 179.55295265983534,59.33040507564645 179.52171791117644,59.861395802830316 179.44363103953137,60.03318692044882 179.30307467057287,60.158125915080056 179.10004880429656,60.2830649097124 178.52220595412433,60.423621278673096 178.35041483650693,60.51732552464652 178.24109321620293,60.81405563689626 178.03806734992662,61.03269887750093 177.92874572962484,61.20448999511943 177.88189360663867,61.391898487067394 177.89751098096815,61.82918496827672 177.85065885797977,62.032210834553034 177.69448511469182,62.3601756954617 177.22596388482359,62.85993167398775 176.39824304538888,63.50024402147339 176.25768667642816,63.718887262079164 176.2420693020987,63.85944363103986 175.36749633967784,64.40605173255207 174.49292337725697,64.87457296242032 173.74328940946955,65.4367984382631 172.80624694973307,65.87408491947242 172.29087359687642,66.0927281600782 171.77550024402203,66.17081503172328 170.5729624206936,66.07711078574874 169.16739873108887,65.71791117618338 168.10541727672114,65.63982430453831 167.48072230356274,65.53050268423652 165.68472425573484,65.54612005856488 164.49780380673587,65.73352855051284 164.27916056613012,65.73352855051284 163.7325524646168,65.62420693020995 162.81112737920975,65.29624206930241 162.1395802830652,65.20253782332898 160.59346022449975,64.78086871644689 158.28208882381745,64.49975597852661 157.86041971693535,64.39043435822373 157.06393362615958,64.12493899463179 155.45534407027853,63.90629575402602 154.95558809175358,63.78135675939478 154.7369448511478,64.20302586627575 154.45583211322642,64.56222547584223 153.55002440214884,65.40556368960418 153.3157637872136,65.54612005856488 153.0815031722806,65.62420693020995 151.9726695949245,65.76476329917065 151.55100048804462,65.88970229380189 151.26988775012322,66.07711078574874 150.42654953635906,66.79551000488057 150.33284529038673,66.98291849682742 150.31722791605728,67.13909224011758 150.3796974133729,67.31088335773497 150.50463640800413,67.49829184968294 150.77013177159606,67.6857003416298 151.5197657393857,68.09175207418242 151.8633479746227,68.341630063446 152.11322596388518,68.59150805270848 152.72230356271413,69.46608101512935 153.1752074182529,69.74719375305074 153.7061981454368,69.91898487066813 154.5339189848715,70.1376281112739 154.84626647144958,70.2781844802346 155.1586139580299,70.48121034651092 155.54904831625305,70.85602733040463 156.1112737920936,71.55880917520699 156.51732552464625,71.9336261591018 156.89214250854218,72.46461688628567 157.5324548560278,73.15178135675968 157.70424597364743,73.3235724743782 158.2977061981469,73.71400683260137 158.31332357247416,73.8389458272326 158.23523670083128,74.0107369448511 157.78233284529028,74.41678867740373 157.70424597364743,74.52611029770662 157.71986334797467,74.68228404099567 157.8448023426059,74.82284040995636 158.73499267935622,75.24450951683734 159.01610541727763,75.41630063445584 159.42215714983024,75.7442654953634 160.12493899463152,76.4001952171796 160.46852122986851,76.63445583211373 160.73401659346047,76.71254270375769 161.12445095168363,76.7437774524155 162.17081503172412,76.58760370912645 162.54563201561783,76.60322108345592 162.81112737920975,76.69692532942935 163.01415324548606,76.8530990727184 163.1078574914606,76.97803806734963 163.15470961444677,77.22791605661321 162.9985358711566,77.80575890678433 162.88921425085482,78.024402147389 162.2020497803808,78.55539287457286 161.74914592484203,79.11761835041453 161.4524158125934,79.3050268423625 160.90580771108006,79.57052220595443 160.6871644704743,79.71107857491512 160.49975597852745,79.97657393850706 160.3123474865806,80.46071254270366 160.0937042459748,80.67935578330943 159.76573938506726,80.85114690092682 159.43777452415972,80.94485114690136 159.03172279160708,80.94485114690136 158.50073206442323,80.86676427525629 158.31332357247416,80.8979990239141 158.17276720351566,80.97608589555917 158.07906295754114,81.11664226451876 157.96974133723936,81.49145924841358 157.82918496827867,81.77257198633497 157.6417764763318,82.0693020985847 157.37628111273767,82.35041483650609 156.93899463152835,82.69399707174199 156.06442166910745,83.24060517325532 155.2210834553455,83.8340653977548 155.00244021473972,84.05270863836057 154.89311859443796,84.24011713030742 154.83064909712235,84.8023426061491 154.65885797950273,85.19277696437338 154.47144948755587,85.41142020497804 153.940458760372,85.78623718887286 153.75305026842514,86.00488042947752 153.69058077110952,86.17667154709602 153.6281112737939,86.7388970229377 153.50317227916045,86.9106881405562 153.2220595412413,87.11371400683252 152.6598340653985,87.3635919960961 152.2069302098597,87.62908735968803 152.01952171791285,87.76964372864762 151.67593948267586,88.16007808687189 151.0668618838469,88.45680819912164 150.8950707662273,88.6442166910685 150.55148853099251,89.76866764275294 150.02049780380864,90.9243533430941 149.97364568082025,91.18984870668604 150.0048804294792,91.45534407027796 150.19228892142604,91.83016105417278 150.48901903367468,92.08003904343636 150.84821864324115,92.2362127867254 151.6603221083464,92.53294289897515 151.8945827232794,92.67349926793585 152.11322596388518,92.92337725719831 152.1756954612008,93.26695949243533 152.09760858955573,93.51683748169891 151.95705222059723,93.75109809663303 151.11371400683308,94.56320156173717 150.91068814055677,94.84431429965856 150.64519277696482,95.50024402147366 150.2079062957555,96.24987798926331 149.97364568082025,96.79648609077552 149.4738897022953,98.12396290873629 149.36456808199134,98.53001464128891 149.31771595900517,98.842362127867 149.33333333333462,99.0141532454855 149.39580283065024,99.18594436310401 149.73938506588726,99.62323084431445 149.81747193753233,99.7794045876035 149.81747193753233,100.16983894582778 150.0048804294792,100.6071254270371 150.692044899951,101.70034163006375 151.50414836505624,102.66861883845804 151.67593948267586,103.04343582235286 151.78526110297764,103.9648609077599 151.73840897999148,104.1678867740362 151.5978526110308,104.51146900927321 151.5822352367013,104.77696437286515 151.78526110297764,105.26110297706174 151.91020009760888,105.68277208394383 152.16007808687135,106.08882381649535 152.2225475841892,106.33870180575893 152.19131283553025,106.49487554904798 152.0039043435834,107.0102489019035 152.01952171791285,107.29136163982378 152.09760858955573,107.40068326012666 152.23816495851642,107.51000488042955 153.09712054660784,107.82235236700875 153.34699853587253,107.96290873596833 153.4563201561743,108.07223035627122 153.7374328940957,108.50951683748166 154.09663250366216,108.94680331869209 154.12786725231885,109.1185944363106 154.09663250366216,109.61835041483666 154.14348462664833,109.89946315275694 154.28404099560902,110.21181063933614 154.58077110785766,110.57101024890149 154.48706686188532,110.9145924841385 154.50268423621256,111.18008784773043 154.5963884821871,111.33626159101948 154.98682284041027,111.78916544655937 155.12737920937096,112.14836505612473 155.17423133235712,112.44509516837448 155.09614446071427,112.75744265495368 155.0492923377259,113.39775500244042 155.14299658370044,113.66325036603236 155.3928745729629,113.94436310395264 155.72083943387045,114.16300634455841 156.03318692045076,114.25671059053184 156.735968765252,114.33479746217691 157.25134211810644,114.42850170815034 158.51634943875047,114.9594924353342 159.01610541727763,115.2406051732556 159.43777452415972,115.61542215714931 159.64080039043603,115.8965348950707 159.95314787701412,116.48999511957018 160.35919960956676,116.92728160078062 160.43728648121183,117.05222059541185 160.39043435822344,117.11469009272858 160.24987798926276,117.16154221571473 159.21913128355393,117.19277696437254 158.7818448023424,117.27086383601763 158.50073206442323,117.42703757930667 158.31332357247416,117.66129819424079 157.73548072230412,118.72327964860852 157.62615910200236,119.05124450951718 157.51683748169836,119.64470473401666 157.28257686676534,120.12884333821326 157.1576378721341,120.47242557345027 157.1264031234752,120.84724255734508 157.14202049780465,121.05026842362139 157.40751586139658,121.50317227916018 157.4387506100555,121.62811127379253 157.3606637384104,121.70619814543649 157.00146412884396,121.877989263055 156.79843826256763,122.15910200097639 156.72035139092256,122.39336261591052 156.62664714495025,123.23670082967247 156.5329428989757,123.61151781356729 156.3299170326994,123.9551000488043 155.8457784285017,124.51732552464597 155.75207418252936,124.75158613958008 155.62713518789812,125.32942898975122 155.59590043923922,125.70424597364604 155.62713518789812,126.14153245485647 155.68960468521374,126.46949731576403 155.89263055149007,126.81307955099993 156.42362127867392,127.23474865788201 156.54856027330516,127.39092240117105 156.68911664226587,128.06246949731562 156.89214250854218,128.53099072718388 157.1264031234752,129.26500732064403 157.28257686676534,129.57735480722323 157.06393362615958,129.6242069302094 156.93899463152835,129.70229380185447 156.8452903855538,129.95217179111805 156.57979502196187,130.12396290873545 156.61102977062077,130.2489019033678 156.76720351391094,130.57686676427534 157.18887262079082,131.2171791117621 157.3606637384104,131.38897022938062 157.54807223035726,131.51390922401185 158.07906295754114,131.77940458760378 159.20351390922448,132.43533430941886 161.49926793557955,133.1537335285507 161.81161542215764,133.2942898975114 161.98340653977726,133.41922889214263 162.15519765739464,133.62225475841893 162.4050756466571,134.13762811127336 162.87359687652537,134.6373840897994 162.98291849682937,134.80917520741792 163.15470961444677,135.55880917520756 163.37335285505253,136.12103465104923 163.4202049780387,136.33967789165388 163.37335285505253,137.41727672035105 163.32650073206415,137.58906783796957 162.95168374817044,138.1356759394829 162.4831625183022,138.52611029770605 162.35822352367097,138.66666666666677 162.18643240605357,138.97901415324597 162.1083455344085,139.32259638848186 162.09272816007902,139.63494387506105 162.1395802830652,140.0722303562715 162.4519277696455,140.79062957540222 162.49877989263166,140.97803806735018 162.4050756466571,141.50902879453403 162.35822352367097,142.1493411420208 162.28013665202587,142.8052708638359 162.28013665202587,143.03953147877002 162.37384089800042,143.50805270863825 162.26451927769642,143.9765739385065 162.06149341142012,144.32015617374353 161.53050268423624,144.85114690092738 161.35871156661887,145.46022449975632 160.6871644704743,145.86627623230783 160.3748169838962,146.1317715959009 160.0624694973159,146.61591020009746 159.95314787701412,146.99072718399228 159.9843826256708,147.2249877989264 160.2030258662766,147.58418740849177 160.81210346510554,148.2244997559785 161.4836505612501,148.78672523182018 161.67105905319696,149.02098584675431 161.7179111761853,149.3333333333335 161.6866764275264,149.66129819424106 161.59297218155186,150.03611517813587 161.4836505612501,150.28599316739835 161.18692044899925,150.70766227428044 160.39043435822344,151.42606149341117 160.04685212298867,151.800878477306 159.76573938506726,152.16007808687135 159.39092240117134,152.76915568570027 159.01610541727763,153.0034163006344 158.1259150805273,153.39385065885756 157.73548072230412,153.487554904831 156.43923865300115,153.58125915080555 155.12737920937096,153.7999023914102 154.0810151293327,153.7999023914102 153.86237188872693,153.89360663738364 153.7374328940957,154.17471937530502 153.69058077110952,155.0024402147386 153.58125915080555,155.56466569058028 153.596876525135,156.26744753538267 153.65934602245062,156.47047340165898 153.78428501708186,156.6422645192775 154.45583211322642,157.09516837481738 154.51830161054204,157.25134211810644 154.51830161054204,157.34504636407985 154.28404099560902,158.23523670082906 154.34651049292464,158.92240117130308 154.3152757442657,159.31283552952627 153.65934602245062,160.79648609077609 153.7374328940957,161.0307467057102 154.12786725231885,162.57686676427562 154.06539775500323,162.74865788189302 153.81551976574076,163.1390922401173 153.40946803318815,163.57637872132773 153.2220595412413,163.84187408491968 153.1752074182529,164.1073694485116 153.2220595412413,164.96632503660302 153.26891166422746,165.12249877989206 153.3938506588587,165.30990727184002 153.75305026842514,165.63787213274756 154.78379697413396,166.30941922889212 155.62713518789812,166.6373840897997 155.705222059541,166.71547096144477 155.72083943387045,166.79355783308873 155.58028306490976,167.21522693997082 155.12737920937096,167.91800878477318 154.69009272816163,168.90190336749583 154.29965836993625,169.51098096632478 154.15910200097778,169.96388482186467 154.0185456320171,170.79160566129826 153.87798926305638,171.16642264519308 153.30014641288415,172.07223035627177 152.53489507076728,172.72816007808686 152.36310395314766,172.94680331869154 152.26939970717532,173.18106393362567 152.23816495851642,173.6183504148361 152.2850170815048,174.38360175695408 152.1756954612008,175.00829673011248 152.1756954612008,175.22693997071715 152.2850170815048,175.64860907759922 152.5192776964378,176.25768667642706 152.61298194241235,177.02293801854506 152.75353831137303,177.63201561737398 153.14397266959622,178.4909712054665 153.48755490483322,179.02196193265038 153.72181551976624,179.24060517325503 154.14348462664833,179.53733528550478 154.7369448511478,179.78721327476836 155.2210834553455,179.86530014641232 156.048804294778,179.7715959004389 156.92337725719887,179.8028306490967 158.00097608589607,179.5998047828204 158.62567105905447,179.58418740849206 159.20351390922448,179.7091264031233 160.12493899463152,179.99023914104467 161.21815519765815,180.20888238164935 162.1395802830652,180.48999511957072 162.35822352367097,180.61493411420196 162.53001464128835,180.77110785749102 162.70180575890797,181.00536847242515 163.045387994145,181.63006344558354 163.35773548072308,182.09858467545178 163.60761346998555,182.34846266471425 163.9355783308931,182.59834065397783 165.4192288921429,183.51976573938487 165.62225475841922,183.59785261102994 166.24694973157762,183.70717423133172 166.62176671547132,183.83211322596406 167.4963396778922,184.34748657881846 167.76183504148415,184.37872132747628 168.10541727672114,184.33186920449012 169.0580771107871,183.94143484626585 169.44851146901027,183.8633479746219 170.94777940458732,183.83211322596406 170.7135187896543,184.34748657881846 170.04197169350974,185.56564177647635 169.44851146901027,187.26793557833082 169.4016593460241,187.50219619326495 169.4016593460241,187.81454367984415 169.47974621766696,188.25183016105458 169.6046852123004,188.4860907759876 170.61981454367978,189.75109809663275 171.26012689116763,190.3914104441184 171.69741337237696,190.7037579306976 173.071742313325,191.42215714982942 173.47779404587763,191.71888726207916 173.7276720351401,191.96876525134164 173.9306979014164,192.28111273792084 174.21181063933778,192.8433382137625 174.39921913128464,193.71791117618338 174.46168862860026,194.3738408979985 174.6490971205471,194.51439726695918 175.6642264519287,195.18594436310374 176.22645192777148,195.49829184968294 177.44460712542713,195.91996095656393 179.4280136652041,196.4040995607616 179.8028306490978,196.575890678379 179.84968277208398,196.65397755002408 179.84968277208398,196.76329917032697 179.56857003416482,197.07564665690617 179.10004880429656,197.40361151781372 176.67935578331026,198.51244509516872 175.63299170326977,198.87164470473408 174.19619326500833,199.18399219131217 173.71205466081062,199.32454856027286 172.94680331869375,199.69936554416768 172.1346998535885,200.29282576866717 170.16691068814097,201.10492923377242 168.74572962420677,201.5265983406534 167.73060029282743,201.65153733528575 167.38701805759044,201.7608589555875 166.88726207906328,202.07320644216674 166.27818448023433,202.55734504636442 165.2474377745255,203.69741337237613 164.90385553928851,204.02537823328478 163.91996095656586,204.24402147388943 162.71742313323745,204.68130795509987 161.49926793557955,204.9936554416791 160.9995119570524,205.1966813079554 160.23426061493552,205.58711566617856 158.9848706686187,206.11810639336244 157.59492435334343,206.55539287457287 157.03269887750287,206.69594924353356 156.68911664226587,206.69594924353356 155.9394826744762,206.58662762323067 155.00244021473972,206.3367496339671 154.67447535383218,206.28989751098092 154.28404099560902,206.28989751098092 153.61249389946445,206.35236700829654 153.37823328452922,206.3367496339671 152.86285993167482,206.16495851634969 151.92581747193833,205.7120546608098 151.39482674475445,205.61835041483639 150.87945339190006,205.64958516349418 149.84870668618902,205.8213762811127 148.89604685212308,205.9150805270861 148.42752562225485,206.04001952171734 147.9277696437299,206.3055148853093 147.67789165446743,206.49292337725726 147.19375305026972,206.9614446071255 145.99121522694128,208.57003416300654 145.7413372376788,209.19472913616383 145.5383113714025,210.11615422157087 145.2884333821378,210.5846754514391 144.53879941434818,211.39677891654438 143.9765739385076,212.13079551000453 143.32064421669253,212.7711078574913 143.0707662274278,213.0834553440705 142.88335773548096,213.47388970229366 142.8052708638359,213.78623718887286 142.78965348950865,214.7076622742799 142.66471449487742,215.37920937042446 142.383601756956,215.9102000976083 141.93069790141723,216.40995607613436 141.61835041483693,216.65983406539794 141.25915080527267,216.816007808687 140.6969253294299,216.90971205466042 140.22840409956166,216.87847730600262 140.22840409956166,217.20644216691016 140.1346998535871,217.58125915080498 139.9004392386541,217.924841386042 139.68179599804833,218.1591020009761 139.135187896535,218.48706686188368 137.87018057589097,218.98682284040973 136.57393850659022,219.72083943386988 136.12103465104923,220.11127379209307 135.44948755490466,220.82967301122488 135.13714006832657,221.07955100048736 134.80917520741903,221.22010736944807 134.41874084919584,221.32942898975094 133.2942898975125,221.53245485602727 132.40409956076218,221.75109809663192 131.93557833089392,221.9072718399221 131.57637872132747,222.06344558321112 131.20156173743376,222.29770619814525 130.92044899951236,222.5163494387499 130.7330405075655,222.75061005368403 130.68618838457934,223.01610541727706 130.81112737921057,223.29721815519736 131.0141532454869,223.4846266471442 131.5607613470002,223.89067837969682 131.7325524646176,224.06246949731533 131.90434358223501,224.3279648609073 132.27916056613094,224.99951195705182 132.60712542703848,225.45241581259174 132.9819424109322,225.76476329916983 133.73157637872183,226.1864324060519 133.84089799902583,226.34260614934095 133.85651537335306,226.5612493899456 133.68472425573566,227.20156173743237 133.59102000976114,228.18545632015613 133.3255246461692,228.7789165446556 133.13811615422236,229.060029282577 132.91947291361657,229.24743777452386 132.73206442166972,229.30990727183948 131.9511957052234,229.34114202049727 131.43582235236676,229.43484626647071 129.98340653977587,230.0283064909713 129.32747681796076,230.26256710590542 128.9682772083943,230.21571498291814 128.49975597852605,230.0595412396291 127.46900927281725,229.43484626647071 127.28160078087039,229.41922889214234 127.10980966325077,229.48169838945796 126.90678379697447,229.65348950707647 126.70375793069815,229.90336749633894 126.14153245485758,230.90287945339216 126.07906295754196,231.1059053196685 126.11029770619866,231.3401659346015 126.2352367008299,231.6212786725229 126.50073206442184,231.91800878477264 126.76622742801376,232.1054172767206 126.0009760858969,232.69887750122007 125.32942898975233,233.05807711078543 124.81405563689793,233.1361639824305 123.67398731088512,232.99560761346982 122.8775012201071,233.0268423621276 122.12786725231969,233.22986822840394 121.2220595412399,233.68277208394272 120.80039043436004,233.80771107857507 119.50414836505708,233.88579795021903 118.64519277696566,234.01073694485137 118.06734992679341,234.1356759394826 117.41142020497831,234.38555392874508 117.00536847242569,234.47925817471963 115.33430941922903,234.54172767203525 114.38164958516529,234.69790141532428 114.1005368472439,234.71351878965376 113.91312835529705,234.58857979502142 113.80380673499305,234.33870180575894 113.67886774036181,233.6515373352849 113.58516349438727,232.6520253782328 113.42898975109934,232.199121522694 113.08540751586233,231.7930697901414 112.648121034653,231.4026354319182 112.1639824304553,231.07467057100956 111.61737432894198,230.80917520741764 110.78965348950726,230.49682772083955 110.02440214739039,230.30941922889158 109.46217667154761,230.2313323572476 108.30649097120533,230.24694973157597 107.68179599804915,230.15324548560253 107.07271839922022,229.9189848706684 105.68277208394494,229.2005856515377 105.18301610541778,229.04441190824753 104.57393850658883,229.060029282577 103.29331381161533,229.27867252318165 102.21571498292037,229.35675939482672 101.65348950707758,229.35675939482672 101.01317715959195,229.27867252318165 100.66959492435494,229.15373352855042 100.31039531478847,228.96632503660356 100.10736944851216,228.79453391898505 99.65446559297337,228.294777940459 99.37335285505198,228.07613469985324 99.02977061981497,227.9824304538798 98.73304050756634,228.02928257686708 97.88970229380216,231.090287945339 97.7022938018553,232.0273304050755 97.7022938018553,232.620790629575 98.04587603709231,234.57296242069305 98.09272816007848,235.05710102488965 98.0146412884334,235.51000488042953 97.79599804782984,235.93167398731052 97.71791117618477,236.1815519765741 97.6710590531986,236.82186432406087 97.74914592484147,237.24353343094182 97.90531966813163,237.55588091752102 98.48316251830164,238.14934114202052 98.93606637384265,238.7115666178622 99.60761346998721,239.27379209370386 99.74816983894569,239.53928745729579 99.7794045876046,239.83601756954553 99.5763787213283,240.58565153733517 99.42020497803814,241.5383113714 99.10785749146005,242.49097120546597 98.73304050756634,243.36554416788684 98.51439726696056,244.05270863835975 98.38945827232932,245.44265495363612 98.31137140068425,246.8638360175692 98.21766715470972,247.7696437286479 98.1551976573941,248.0819912152271 97.99902391410616,248.40995607613465 97.60858955588077,249.0815031722792 97.43679843826338,249.45632015617403 97.20253782333036,250.23718887262035 96.82772083943443,251.6739873108829 96.56222547584251,251.9551000488043 95.78135675939617,252.48609077598815 95.57833089311985,252.70473401659282 95.625183016106,252.79843826256737 95.95314787701356,253.00146412884257 96.10932162030372,253.18887262079053 96.2186432406055,253.45436798438246 96.24987798926442,253.82918496827727 96.20302586627604,254.11029770619757 96.00000000000195,254.50073206442184 95.76573938506671,255.4065397755005 95.48462664714532,255.7813567593942 93.6261591020018,254.7974621766716 93.1107857491474,254.65690580771087 92.3455344070283,254.547584187408 91.93948267447567,254.42264519277677 91.56466569058196,254.23523670082992 90.612005856516,253.61054172767152 90.03416300634599,253.36066373840904 89.56564177647775,253.29819424109343 89.03465104929388,253.28257686676395 87.48853099072845,253.42313323572466 86.84821864324059,253.42313323572466 86.34846266471564,253.36066373840904 85.33333333333407,253.1576378721327 84.58369936554443,253.0951683748171 84.25573450463689,253.1576378721327 83.9746217667155,253.31381161542177 83.78721327476865,253.53245485602753 83.44363103953164,254.11029770619757 82.95949243533614,254.547584187408 82.70961444607146,254.70375793069815 82.08491947291527,254.96925329429007 81.28843338213947,255.50024402147395 80.94485114690247,255.60956564177573 79.35187896535088,255.95314787701273 78.66471449487686,256 78.08687164470462,255.93753050268438 77.6808199121542,255.8594436310393 77.38408979990336,255.73450463640808 76.32210834553564,255.14104441190747 75.90043923865355,254.81307955099993 75.49438750610092,254.3757930697895 75.2601268911679,254.01659346022413 75.15080527086391,253.59492435334315 75.19765739385228,253.18887262079053Z"/>
  </g>
</svg>