<?xml version="1.0" encoding="UTF-8" standalone="no"?>
<svg viewBox="0 0 153.51768488745952 256" xmlns="http://www.w3.org/2000/svg">
  <style>
    g.zone {
      fill: lightgray;
      stroke-width: 2;
      stroke-linecap: square;
      stroke-linejoin: bevel;
      stroke-miterlimit: 3;
      stroke-opacity: 0.8;
      stroke: black;
      fill-opacity: 0.3;
    }
  </style>
  <g class="zone" id="zone">
    <path d="M50.53714672533409,160.93687595193745 49.984768996446086,161.31595870705704 49.670671856488894,161.4350990015232 49.345743780672336,161.45676087324426 48.55508546285198,161.34845151463824 48.08935522084819,161.3809443222202 47.56947029954292,161.52174648840742 46.94127601963008,161.83584362836308 46.64884075139625,161.92249111524805 45.74987307496986,161.9766457945503 45.15417160263976,162.06329328143528 44.75342697579835,162.1499407683195 44.29852766965547,162.32323574208792 44.016923337281014,162.38822135725184 42.858013200201995,162.43154510069397 42.14317143340648,162.55068539516014 41.980707395497426,162.53985445929922 41.87239803689293,162.46403790827515 41.796581485868096,162.29074293450674 41.70993399898388,161.81418175664203 41.64494838381995,161.12100186156678 41.53663902521546,160.80690472161115 41.29835843628311,160.5253003892367 40.99509223218837,160.25452699272313 40.659333220510895,160.02707733965093 40.28025046539131,159.8429514300216 39.70621086478149,159.62633271281106 39.17549500761531,159.496361482484 38.78558131663482,159.44220680318173 37.98409206295355,159.4530377390419 37.5508546285325,159.3880521238787 37.12844812997081,159.22558808597043 36.16449483838203,158.72736503638546 35.81790489084365,158.61905567777941 35.395498392281965,158.62988661364034 34.50736165171649,158.7815197156877 33.76002707733978,158.83567439499072 33.370113386359286,158.83567439499072 32.92604501607732,158.7815197156877 32.68776442714497,158.6948722288035 32.438652902351706,158.56490099847716 32.29785073616448,158.445760704011 31.983753596208825,158.09917075647337 31.78879675071858,157.94753765442525 31.55051616178623,157.88255203926207 31.3338974445757,157.9258757827042 31.442206803181733,157.34100524623423 31.431375867320824,157.11355559316277 31.38805212387872,156.94026061939437 31.214757150108756,156.68031815874096 30.62988661363956,156.04129294296797 30.434929768149313,155.7705195464544 30.142494499915482,155.14232526654234 29.88255203926131,154.70908783212053 29.74174987307408,154.1133863597904 29.676764257911692,154.0050770011844 29.57928583516657,153.91842951430016 29.43848366897934,153.86427483499716 29.254357759350007,153.87510577085806 28.452868505668743,154.25418852597687 28.171264173294286,154.3083432052799 27.6730411237093,154.351666948722 27.18564900998369,154.33000507700095 26.546623794211474,154.2216957183957 26.210864782534,154.1133863597904 26.005077001184382,153.99424606532423 25.885936706717438,153.853443899137 25.788458283972314,153.62599424606557 25.506853951599396,152.3696056862414 25.44186833643547,152.15298696903014 26.167541039091894,151.39482145879174 26.82822812658593,150.8641056016248 27.2722964968679,150.42003723134206 27.803012354035616,149.9326451176172 27.90049077678074,149.78101201556908 27.96547639194467,149.59688610593975 28.008800135386775,148.95786089016752 28.106278558130356,148.68708749365396 28.225418852597304,148.5137925198848 28.344559147062707,148.4054831612795 28.485361313249935,148.3080047385344 28.626163479437164,148.25385005923138 28.398713826365725,148.24301912337123 28.149602301574003,148.1455407006261 27.96547639194467,147.99390759857798 27.770519546454423,147.7123032662043 27.618886444406282,147.32238957522378 27.13149433068221,145.60027077339663 26.947368421051337,145.14537146725297 26.102555423929505,143.63987138263633 25.929260450159543,143.42325266542582 25.46353020815575,142.9466914875611 25.116940260618904,142.41597563039417 23.990522931121077,140.4230834320527 23.79556608563083,140.03316974107295 23.600609240142127,139.5349466914872 23.4598070739549,139.2858351666947 23.199864613300722,138.99339989846013 22.799119986460862,138.6359790150616 21.97596886105931,138.0077847351495 21.358605517007383,137.69368759519386 21.250296158401348,137.60704010830966 21.13115586393594,137.43374513454046 21.087832120493836,137.29294296835323 21.09866305635475,137.09798612286374 21.282788965984082,136.6105940091389 21.553562362497626,135.08343205280045 21.542731426636717,134.69351836182074 21.42359113217131,134.46606870874928 21.206972414959242,134.249449991538 20.329666610254677,133.67541039092893 20.145540700625343,133.50211541716052 19.98307666271783,133.30715857167027 19.51734642071404,132.61397867659502 19.181587409036567,132.01827720426493 19.019123371127517,131.67168725672732 18.845828397359092,131.11930952783854 18.726688102893686,130.87019800304606 18.553393129125265,130.62108647825355 18.239295989168074,130.25283465899489 17.76273481130491,129.7871044169911 17.502792350650736,129.62464037908282 17.08038585208905,129.42968353359257 15.823997292264906,128.99644609917075 15.423252665425043,128.83398206126245 14.903367744118235,128.53071585716694 13.993569131832476,127.91335251311578 13.19207987815121,127.29598916906386 12.098155356236116,126.22372651886981 11.199187679809729,125.43306820104947 10.906752411574361,125.04315451006897 10.527669656456322,124.27415806397045 10.408529361989375,124.1225249619223 10.267727195802147,123.99255373159599 9.931968184124674,123.7867659502456 9.260450160771265,123.50516161787114 8.513115586393017,123.11524792689141 8.285665933321576,122.95278388898313 7.830766627178697,122.56287019800264 7.3975291927561,122.27043492976804 7.115924860381644,122.16212557116279 6.596039939074836,122.0321543408357 6.4119140294455015,121.94550685395149 6.238619055677079,121.79387375190412 6.0003384667447275,121.37146725334243 5.816212557115393,121.16567947199205 5.49128448129883,120.8840751396176 4.917244880690545,120.45083770519577 4.451514638686754,120.14757150110024 4.148248434590474,119.99593839905211 3.779996615331806,119.87679810458593 3.184295143001698,119.74682687425961 2.848536131324224,119.60602470807238 2.4586224403452723,119.30275850397688 1.3863597901504618,118.17634117447982 0.7365036385173367,117.5698087662888 0.4440683702819686,117.42900660010157 0.17329497376842296,117.38568285665947 0,117.39651379251961 1.050600778472988,117.3098663056354 1.852090032154253,117.15823320358803 2.4586224403452723,116.96327635809779 2.9676764257911694,116.69250296158424 3.314266373328015,116.37840582162782 3.585039769841561,115.9884921306481 3.8016584870536287,115.55525469622627 4.386529023522826,114.07141648333068 4.624809612455177,113.63817904890809 4.938906752410828,113.23743442206822 5.328820443391319,112.91250634625166 5.729565070231182,112.69588762904036 6.184464376374062,112.56591639871405 6.433575901167324,112.53342359113208 6.801827720425992,112.53342359113208 7.267557962429784,112.60924014215615 7.744119140294486,112.76087324420352 8.264004061599755,112.98832289727495 8.827212726348668,113.33491284481335 9.628701980029934,113.9414452530036 12.336435945168468,116.31342020646466 13.538669825689595,117.25571162633238 14.426806566255072,117.88390590624445 15.260788627517531,118.42545269927231 16.08393975291908,118.86952106955505 16.907090878320627,119.24860382467386 17.871044169909403,119.6168556439333 18.705026231171864,119.84430529700474 19.560670164156146,119.98510746319197 20.318835674393767,120.05009307835513 21.152817735656225,120.03926214249421 21.94347605347658,119.94178371974986 22.690810627854827,119.74682687425961 23.351497715348863,119.48688441360622 23.752242342188726,119.1836182095107 23.93636825181806,118.96699949230018 24.077170418005288,118.75038077508887 24.152986969030128,118.43628363513245 24.109663225588022,118.04636994415273 23.968861059400794,117.65645625317302 23.78473514977146,117.3206972414963 22.582501269250333,115.58774750380746 22.203418514130753,114.95955322389538 22.040954476221703,114.62379421221868 21.910983245895384,114.2447114570991 21.845997630732995,113.96310712472464 21.835166694872083,113.68150279235095 21.900152310034475,113.1399559993231 22.279235065154054,111.85107463191777 22.885767473345073,109.16500253850027 23.210695549161635,108.13606363174834 23.49229988153609,107.48620748011523 23.882213572516584,106.70638009815501 24.748688441360237,105.16838720595717 26.189202910813716,102.93721441868334 26.52496192249119,102.48231511254046 26.925706549331053,101.99492299881562 27.21814181756642,101.70248773058024 27.640548316128104,101.35589778304264 28.030462007107058,101.10678625825014 28.452868505668743,100.89016754103885 28.918598747672533,100.7060416314095 29.384328989676323,100.55440852936214 29.95836859028615,100.42443729903505 30.57573193433654,100.3161279404298 31.680487392112546,100.20781858182453 32.308681672025386,100.19698764596362 32.92604501607732,100.21864951768467 33.83584362836308,100.33778981215085 34.77813504823157,100.56523946522228 35.86122863428575,100.95515315620277 37.33423591132043,101.6050093078359 38.937214418682956,102.41732949737653 40.02030800473868,103.05635471314952 40.72431883567328,103.54374682687437 41.20088001353798,103.93366051785408 41.7315958707057,104.44271450329998 42.110678625823745,104.89761380944286 42.565577931968164,105.5149771534948 43.042139109831325,106.24064985615199 43.56202403113814,107.08546285327459 44.504315451006626,108.73176510407845 44.720934168217156,109.05669317989502 45.05669317989463,109.48993061431685 45.35995938398937,109.80402775427326 45.684887459805935,110.07480115078681 46.03147740734432,110.2914198679981 46.46471484176691,110.4972076493485 46.88712134032706,110.64884075139587 47.32035877474966,110.7571501100019 47.80775088847527,110.8329666610252 48.32763580978054,110.88712134032822 49.64900998476861,110.89795227618913 51.42528346589957,110.7896429175831 52.45422237265073,110.64884075139587 53.2990353697741,110.43222203418533 53.52648502284554,110.34557454730036 53.873074970383925,110.13978676594996 54.100524623455364,109.94482992046049 54.31714334066589,109.68488745980709 54.34963614824709,109.46826874259578 54.23049585378168,109.06752411575593 54.03553900829144,108.7209341682183 53.72144186833579,108.36351328481979 53.36402098493803,108.06024708072428 52.984938229818454,107.78947368421073 51.42528346589957,106.78219664917907 50.78625825012581,106.30563547131514 50.08224741919121,105.72076493484518 49.573193433743775,105.21171094939928 49.161617871043,104.69182602809248 48.86918260280917,104.22609578608868 48.67422575731892,103.78202741580671 48.54425452699261,103.31629717380292 48.47926891182868,102.81807412421716 48.49009984768959,102.29818920291113 48.56591639871289,101.74581147402236 48.72838043662194,101.08512438652909 49.09663225588061,100.0236926721952 49.670671856488894,98.60484007446276 50.30969707226265,97.2076493484514 51.00287696733788,95.79962768657988 51.219495684548406,95.30140463699412 51.32780504315444,94.90066001015425 51.38195972245592,94.48908444745271 51.349466914874725,94.18581824335797 51.24115755627023,93.8392282958196 51.06786258250027,93.49263834828197 50.84041292942883,93.17854120832632 50.6237942122183,92.96192249111502 50.30969707226265,92.71281096632254 49.800643086816756,92.45286850566913 48.5767473345738,92.07378575055031 48.26265019461815,91.91132171264204 48.00270773396398,91.73802673887285 47.56947029954292,91.33728211203221 46.713826366558635,90.41665256388553 45.98815366390221,89.6801489253682 46.356405483160884,89.45269927229677 46.97376882721281,88.87865967168693 47.331189710610566,88.59705533931326 48.25181925875724,87.97969199526132 48.4576070401084,87.77390421391094 48.88001353866854,87.26485022846504 49.11829412760089,87.04823151125373 49.345743780672336,86.90742934506729 50.158063970214506,86.4850228465056 50.602132340496475,86.16009477068903 50.84041292942883,85.91098324589576 50.90539854459276,85.78101201556946 50.959553223895774,85.60771704180102 50.959553223895774,85.40192926044988 50.90539854459276,84.97952276188896 50.89456760873185,84.71958030123555 50.90539854459276,84.60044000676938 50.98121509561606,84.51379251988517 50.99204603147697,84.45963784058215 50.916229480453666,84.38382128955809 50.5804704687762,84.17803350820769 50.49382298189198,84.06972414960242 50.461330174309246,83.97224572685731 50.461330174309246,83.78811981722797 50.547977661193464,83.21408021661891 50.547977661193464,82.80250465391813 50.06058554746939,80.37637502115406 50.08224741919121,80.25723472668788 50.158063970214506,80.12726349636156 50.59130140463711,79.78067354882396 50.90539854459276,79.67236419021869 51.273650363851424,79.65070231849764 51.349466914874725,79.58571670333372 51.44694533761985,79.32577424268108 51.49026908106195,79.04416991030662 51.869351836181536,78.63259434760508 52.053477745810866,78.29683533592836 52.20511084785901,77.67947199187721 52.226772719579294,77.13792519884935 52.30258927060413,76.85632086647489 52.270096463021396,76.65053308512451 52.15095616855599,76.4339143679132 51.99932306650785,76.29311220172598 51.37112878659655,75.85987476730415 51.18700287696721,75.57827043492969 51.11118632594238,75.41580639702141 51.122017261803286,75.27500423083418 51.24115755627023,74.85259773227327 51.18700287696721,74.44102216957172 51.100355390083,74.12692502961607 51.165341005245395,74.0077847351499 51.29531223557171,73.94279911998674 51.349466914874725,73.88864444068372 51.360297850735634,73.54205449314611 51.54442376036497,73.30377390421376 51.58774750380708,73.19546454560849 51.349466914874725,72.6864105601626 51.29531223557171,72.01489253680842 51.15451006938448,71.52750042308357 51.15451006938448,71.08343205280083 51.035369774919076,70.31443560670154 51.132848197664195,69.78371974953458 51.24115755627023,69.46962260957893 51.338635979013816,69.04721611101725 51.30614317143262,68.74394990692174 51.349466914874725,68.31071247249992 51.262819427990514,68.01827720426454 51.23032662040932,67.84498223049611 51.273650363851424,67.47673041123745 51.32780504315444,67.32509730918932 51.40362159417774,67.20595701472314 51.782704349297326,66.87019800304643 51.94516838720484,66.67524115755619 51.98849213064694,66.56693179895092 52.04264680994996,65.28888136740572 52.096801489252975,64.8556439329839 52.07513961753269,64.1732949737688 52.096801489252975,63.55593162971765 52.07513961753269,63.0685395159928 51.923506515484554,62.41868336435968 51.891013707903355,60.96733795904529 51.94516838720484,60.62074801150767 52.107632425113884,60.198341512946755 52.21594178371838,59.81925875782718 52.40006769334925,59.00693856828577 52.43256050093045,58.74699610763236 52.410898629208624,58.55203926214289 52.14012523269508,57.85885936706766 51.91267557962364,56.95989169064127 51.83685902860034,56.78659671687285 51.67439499069129,56.613301743103655 51.00287696733788,56.212557116263795 50.89456760873185,56.10424775765776 50.85124386528974,55.97427652733144 50.85124386528974,55.844305297004354 50.88373667287094,55.779319681841194 51.23032662040932,55.508546285327654 51.392790658316834,55.32442037569832 51.55525469622588,54.696226095786244 51.82602809273943,54.12218649517719 51.891013707903355,53.82975122694182 51.869351836181536,53.58063970214933 51.793535285158235,53.32069724149592 51.65273311897101,53.13657133186659 51.31697410729353,52.887459807074094 51.122017261803286,52.660010154002656 51.046200710779985,52.45422237265227 51.035369774919076,52.19427991199887 51.15451006938448,51.804366221019144 51.24115755627023,51.34946691487549 51.31697410729353,51.11118632594391 51.436114401758935,50.872905737011564 51.73938060585522,50.45049923844988 51.93433745134546,50.22304958537844 52.21594178371838,50.01726180402805 53.2990353697741,49.443222203419 53.67811812489368,49.194110678625734 53.82975122694182,49.0099847689964 53.959722457268136,48.771704180064816 54.04636994415235,48.52259265527155 54.078862751733546,48.27348113047906 54.03553900829144,48.002707733965515 53.786427483499715,47.52614655610081 53.69977999661396,47.30952783889028 53.62396344559066,46.68133355897821 53.53731595870645,46.3780673548827 53.42900660010042,46.161448637671405 52.844136063631225,45.294973768826985 52.60585547469887,44.76425791166003 52.56253173125676,44.56930106617055 52.54086985953494,44.179387375190835 52.51920798781466,44.016923337282556 52.25926552716202,43.4862074801156 52.183448976137186,43.2587578270434 52.17261804027628,42.90133694364564 52.194279911998095,42.7930275850396 52.2376036554402,42.72804196987644 52.11846336097479,42.69554916229525 51.966830258926656,42.57640886782907 51.65273311897101,42.21898798443055 51.392790658316834,41.67744119140346 51.273650363851424,41.23337282112072 51.251988492129605,40.843459130141 51.338635979013816,40.17194110678605 51.2086647486875,39.630394313758956 51.18700287696721,39.33795904552359 51.219495684548406,38.87222880352057 51.338635979013816,38.39566762565587 51.360297850735634,37.62667117955657 51.338635979013816,37.43171433406709 51.23032662040932,36.933491284481335 51.165341005245395,35.92621424945045 51.100355390083,35.828735826705326 51.32780504315444,35.48214587916772 51.55525469622588,35.048908444745116 51.6419021831101,34.72398036892856 51.69605686241311,34.31240480622778 51.65273311897101,34.00913860213227 51.53359282450406,33.54340836012848 51.273650363851424,32.980199695380335 51.2086647486875,32.76358097816904 51.01370790319725,31.18226434252833 50.78625825012581,29.96919952614706 50.59130140463711,29.460145540701163 50.45049923844988,29.254357759350007 50.08224741919121,28.81028938906804 49.61651717718742,27.889659840920597 49.194110678625734,27.250634625148383 48.80419698764524,26.589947537654346 48.56591639871289,26.113386359790415 48.4576070401084,25.7667964122528 48.4576070401084,25.39854459299413 48.522592655270785,24.93281435099034 48.58757827043471,24.727026569639953 48.94499915383247,23.968861059400794 49.0099847689964,23.611440176003036 48.966661025554295,23.340666779489492 48.71754950076103,22.78828905060072 48.64173294973773,22.582501269250333 48.59840920629563,22.235911321712717 48.62007107801591,21.94347605347812 48.70671856490012,21.66187172110366 49.09663225588061,21.304450837705133 49.237434422067835,21.09866305635475 49.30242003723023,20.784565916399096 49.280758165509944,20.394652225419375 49.20494161448511,20.19969537992913 49.042477576577596,19.961414790996777 48.4576070401084,19.35488238280576 48.392621424944466,19.192418344897476 48.28431206633844,18.726688102894457 48.18683364359331,18.477576578101193 47.55863936368201,17.340328312743225 47.40700626163387,16.84210526315824 47.060416314097026,15.195803012354373 46.95210695549099,14.838382128955846 46.80047385344285,14.55677779658139 46.38889829074208,14.10187849043851 45.869013369435265,13.679471991876824 43.46454560839301,12.368928752750433 43.172110340159186,12.163140971400045 42.97715349466894,11.968184125909799 42.868844136062904,11.784058216280465 42.7930275850396,11.534946691487972 42.69554916229448,10.386867490269092 42.61973261126964,10.007784735150283 42.3164664071749,9.15214080216677 42.05652394652227,8.610594009138909 41.720764934844794,8.177356574717082 41.43916060247034,7.85242849890052 40.51853105432367,7.050939245219255 39.87950583855145,6.422744965307182 38.95887629040324,5.653748519207881 38.78558131663482,5.480453545439459 38.46065324081825,5.03638517515672 38.21154171602653,4.765611778643175 36.84684379759636,3.5742088339821887 36.456930106615864,3.1734642071415564 36.14283296666021,2.6969030292776237 35.85039769842484,2.1012015569475153 35.75291927568126,1.8195972245730585 35.64460991707523,1.213064816382039 35.53630055846919,0.9314604840075821 35.28718903367747,0.5090539854458968 34.9189372144188,0.010830935860911226 38.43899136909797,0 54.05720088001326,0.06498561516392819 86.7124724995755,0 87.31900490776651,0.7581655102391591 87.52479268911767,1.1047554577767746 87.71974953460791,1.473007277035443 87.86055170079514,1.8304281604332002 87.94719918767936,2.166187172110674 87.97969199526055,2.4802843120663254 87.95803012354027,2.7727195803016933 87.83888982907332,3.1084785919783977 87.60060924014097,3.4225757319348187 87.28651210018532,3.7041800643092757 86.38754442375894,4.34320528008149 86.04095447622208,4.624809612455946 85.75935014384763,4.938906752411598 85.60771704179949,5.263834828228161 85.5752242342183,5.502115417160511 85.5860551700792,5.805381621256021 85.65104078524159,6.130309697072584 85.92181418175669,7.072601116940308 85.96513792519879,7.375867321035818 85.95430698933788,7.668302589271185 85.88932137417395,7.960737857505784 85.78101201556946,8.264004061601295 85.25029615840174,9.271281096632176 85.10949399221451,9.60704010830965 85.01201556946938,9.931968184126212 84.9903536977491,10.22440345236081 85.02284650533029,10.484345913014215 85.13115586393633,10.765950245388671 85.65104078524159,11.610763242511274 85.79184295142882,11.914029446606783 85.86765950245366,12.228126586563203 85.84599763073184,12.596378405821872 85.75935014384763,12.932137417498577 85.6185479776604,13.246234557454997 84.80622778811977,14.654256219326513 84.01556947029941,16.203080047385257 83.80978168894825,16.668810289389047 83.66897952276102,17.058723980368768 83.58233203587682,17.448637671349257 83.54983922829562,17.871044169910174 83.56067016415498,18.260957860890667 83.61482484345801,18.60754780842828 83.74479607378433,18.943306820104986 83.9289219834152,19.224911152479443 84.22135725164902,19.52817735657495 84.62210187849043,19.83144356067046 86.06261634794237,20.8278896598412 87.63310204772371,21.845997630732995 88.00135386698237,22.138432898967594 88.30462007107711,22.430868167202963 88.64037908275459,22.907429345066895 88.90032154340722,23.4598070739549 89.06278558131628,24.023015738703812 89.08444745303656,24.47791504484669 89.04112370959444,24.69453376205799 88.94364528684933,24.911152479269287 88.8028431206621,25.08444745303771 88.6078862751734,25.23608055508585 88.1421560331696,25.474361144017433 87.01573870367177,25.885936706718976 86.6149940768319,26.059231680487397 86.23591132171234,26.30834320527989 85.91098324589576,26.622440345236313 85.60771704179949,27.109832458961154 85.0661702487724,28.35539008292439 84.25385005923177,29.95836859028615 83.91809104755428,30.40243696056889 83.31155863936327,30.933152817735838 83.15992553731513,31.128109663226084 83.08410898629182,31.33389744457647 83.02995430698881,31.58300896936896 83.0191233711279,32.113724826535915 83.11660179387302,32.59028600440062 83.27906583178208,33.01269250296153 83.51734642071288,33.3809443222202 83.78811981722797,33.66254865459466 84.12387882890391,33.86833643594504 85.29361990184384,34.31240480622778 86.14926383482812,34.72398036892856 86.91826028092665,35.200541546793254 87.21069554916203,35.4279911998647 87.45980707395374,35.66627178879705 87.60060924014097,35.861228634286526 87.7522423421891,36.15366390252189 88.2937891352162,37.854120832628006 88.44542223726434,38.13572516500246 88.58622440345157,38.27652733118969 88.7378575054997,38.39566762565587 89.01946183787416,38.536469791843096 89.52851582332006,38.688102893890466 89.99424606532385,38.763919444914535 90.96903029277354,38.839735995938604 90.90404467760962,38.93721441868373 90.75241157556148,39.02386190556794 90.12421729565017,39.17549500761531 89.92926045015993,39.26214249450029 89.7234726688103,39.40294466068752 89.48519207987796,39.65205618548001 89.13860213233957,39.8578439668304 88.82450499238392,39.96615332543566 88.15298696902897,40.06363174818078 87.93636825181845,40.18277204264696 87.60060924014097,40.49686918260261 87.50313081739584,40.6268404129297 87.39482145879136,40.9192756811643 87.37315958706954,41.28752750042297 87.31900490776651,41.40666779488914 87.1132171264169,41.569131832797424 86.62582501269128,41.69910306312451 86.52834658994617,41.77491961414781 86.48502284650405,41.948214587917 86.34422068031682,42.09984768996437 86.26840412929353,42.21898798443055 86.23591132171234,42.348959214757635 86.24674225757325,42.61973261127118 86.22508038585143,42.73887290573735 86.06261634794237,43.08546285327497 85.78101201556946,43.367067185649425 85.27195803012356,43.75698087662915 85.12032492807542,43.93027585039757 85.09866305635359,44.04941614486375 85.1853105432378,44.244372990353995 85.23946522254082,44.72093416821792 85.20697241495962,45.349128448129996 85.13115586393633,45.53325435775933 84.77373498053703,45.998984599763126 84.69791842951373,46.19394144525337 84.6762565577919,46.410560162463895 84.68708749365283,46.69216449483835 84.92536808258517,47.45033000507751 84.947029954307,47.6886105940091 84.84955153156187,47.93772211880159 84.60044000676861,48.29514300220011 84.5462853274656,48.43594516838734 84.5462853274656,48.54425452699261 84.57877813504832,48.68505669317984 84.6329328143498,48.76087324420391 85.02284650533029,49.074970384159556 85.21780335082053,49.43239126755808 85.34777458114685,49.768150279235556 85.43442206803107,50.11474022677317 85.46691487561226,50.32052800812356 85.45608393975289,50.55880859705514 85.36943645286713,50.797089185987495 84.9903536977491,51.52276188864469 84.71958030123402,51.91267557962441 84.47046877644229,52.15095616855676 83.9614147909964,52.562531731257536 83.10577085801211,53.17989507530869 83.008292435267,53.28820443391473 82.97579962768579,53.38568285665908 82.99746149940762,53.46149940768315 83.07327805043091,53.54814689456737 83.34405144694446,53.699779996615504 83.83144356067008,53.9163987138268 84.31883567439415,54.02470807243207 86.00846166864089,54.19800304620049 86.43086816720258,54.18717211034035 87.13487899813718,54.12218649517719 87.63310204772371,54.15467930275838 88.1421560331696,54.24132678964337 88.6078862751734,54.4254526992727 89.44186833643585,54.91284481299754 89.74513454053059,55.05364697918477 90.14587916737045,55.16195633779004 90.99069216449382,55.302758503977266 92.43120663394731,55.80098155356225 92.73447283804359,55.95261465561039 92.97275342697439,56.13674056523973 93.05940091386015,56.2558808597059 93.20020308004737,56.58080893552246 93.30851243865187,56.69994922998864 93.47097647656092,56.79742765273299 93.90421391098198,56.91656794719916 94.01252326958802,56.98155356236232 94.15332543577524,57.187341343713484 94.40243696056851,57.447283804366116 94.49991538331362,57.62057877813531 94.59739380605721,57.90218311050977 94.59739380605721,58.194618378744366 94.67321035708206,58.3462514807925 94.85733626671139,58.53037739042184 95.35555931629636,58.8553054662384 95.4205449314603,58.94195295312261 95.40971399559939,59.05026231172788 95.31223557285426,59.23438822135721 94.67321035708206,60.100863090201635 94.30495853782338,60.7615501776949 93.76341174479475,61.47639194449118 93.26518869520976,62.180402775427325 92.95109155525411,62.49449991538375 92.56117786427362,62.8085970553394 92.22541885259768,63.025215772550695 91.68387205956905,63.31765104078529 91.3697749196134,63.55593162971765 91.16398713826224,63.794212218649996 90.90404467760962,64.27077339651393 90.67659502453817,64.53071585716734 90.28668133355768,64.77982738195983 89.08444745303656,65.3646979184298 88.00135386698237,65.6679641225253 87.7522423421891,65.75461160940951 87.62227111186279,65.85209003215463 87.54645456083796,65.97123032662081 87.47063800981465,66.15535623625014 87.44897613809437,66.37197495346068 87.50313081739584,66.55610086309001 87.60060924014097,66.6860720934171 87.71974953460791,66.7618886444404 88.8461668641042,67.32509730918932 89.16026400406139,67.58503976984271 89.45269927229522,67.94246065324124 89.56100863090126,68.15907937045176 89.63682518192456,68.42985276696609 89.63682518192456,68.7764427145037 89.59350143848245,69.17718734134357 89.49602301573734,69.46962260957893 89.35522084955011,69.70790319851051 89.09527838889747,70.01116940260603 88.6837028261967,70.3902521577256 88.43459130140343,70.596039939076 88.18547977661171,70.74767304112413 87.97969199526055,70.82348959214742 87.54645456083796,70.9426298866136 87.41648333051164,71.01844643763768 87.32983584362742,71.1159248603828 87.25401929260413,71.26755796243017 87.22152648502293,71.46251480792041 87.22152648502293,71.86325943476028 87.21069554916203,71.94990692164525 87.10238619055599,72.02572347266856 86.84244372990335,72.01489253680842 86.76662717887851,72.05821628025052 86.77745811473942,72.393975291928 86.73413437129732,72.62142494499943 86.6149940768319,72.93552208495508 86.37671348789956,73.42291419867993 86.1276019631063,74.40852936199053 85.97596886105816,74.76595024538828 85.52106955491527,75.53494669148759 85.34777458114685,75.89236757488611 85.25029615840174,76.19563377898163 85.19614147909871,76.52056185479819 85.23946522254082,76.87798273819594 85.42359113217016,77.56033169741103 85.51023861905436,78.56760873244191 85.84599763073184,79.42325266542542 86.09510915552511,80.18141817566459 86.2034185141296,80.72296496869168 86.29006600101535,81.41614486376692 86.37671348789956,81.71941106786242 86.63665594855219,82.3584362836354 86.73413437129732,82.94330682010536 86.85327466576273,83.23574208833996 87.14570993399809,83.73396513792495 87.17820274157928,83.90726011169414 87.14570993399809,84.23218818751072 87.156540869859,84.40548316127914 87.53562362497858,85.27195803012356 87.60060924014097,85.45608393975289 87.60060924014097,85.64020984938222 87.52479268911767,85.82433575901156 87.38399052293045,85.99763073278075 87.05906244711387,86.23591132171234 86.93992215264848,86.35505161617851 86.89659840920636,86.49585378236574 86.92909121678757,86.60416314097176 87.10238619055599,86.75579624301913 87.34066677948833,86.85327466576426 87.7414114063282,86.98324589609058 88.77035031308091,87.22152648502293 88.96530715857115,87.38399052293121 89.22524961922379,87.49229988153648 89.7126417329494,87.5897783042816 90.55745473007276,87.6006092401425 91.07733965137804,87.66559485530567 91.64054831612695,87.83888982907409 92.43120663394731,88.19631071247262 92.83195126078716,88.42376036554406 93.08106278558043,88.66204095447641 93.47097647656092,89.18192587578245 94.03418514130983,89.82095109155543 94.14249449991433,90.04840074462687 94.13166356405341,90.22169571839606 94.03418514130983,90.4058216280254 93.8500592316805,90.60077847351488 93.52513115586393,90.88238280588934 93.4384836689782,90.97986122863445 93.36266711795489,91.32645117617207 93.22186495176766,91.65137925198863 93.15687933660374,91.96547639194428 93.10272465730225,92.07378575055031 93.01607717041804,92.18209510915558 92.74530377390296,92.32289727534281 92.05212387882773,92.55034692841426 91.51057708580063,92.90776781181277 91.02318497207656,93.17854120832632 90.62244034523516,93.43848366897973 90.03756980876597,93.67676425791208 89.92926045015993,93.76341174479629 89.91842951429902,93.80673548823839 89.95092232188175,93.8500592316805 90.09172448806898,93.8933829751226 91.3264511761713,93.95836859028576 91.66221018784877,94.00169233372787 91.98713826366533,94.09917075647299 92.3987138263661,94.27246573024219 92.69114909460149,94.45659163987152 92.83195126078716,94.6190556777798 92.853613132509,94.78151971568808 92.74530377390296,94.96564562531742 92.3445591470631,95.40971399560016 92.00880013538561,96.03790827551222 91.53223895752245,96.6661025554243 91.4455914706367,96.88272127263483 91.39143679133522,97.2942968353356 91.30478930444947,97.50008461668676 91.16398713826224,97.66254865459504 90.76324251142239,98.0199695379928 90.55745473007276,98.29074293450634 90.35166694872161,98.71314943306803 90.2650194618374,99.0814012523267 90.18920291081255,99.21137248265379 89.61516331020428,99.75291927568088 89.09527838889747,100.00203080047413 88.87865967168693,100.14283296666136 88.6837028261967,100.402775427314 88.39126755796133,100.64105601624635 88.26129632763501,100.99847689964488 88.15298696902897,101.1717718734133 87.68725672702519,101.54002369267197 87.55728549669887,101.6808258588592 87.48146894567556,101.95159925537351 87.48146894567556,102.04907767811787 87.50313081739584,102.12489422914193 87.60060924014097,102.200710780166 88.15298696902897,102.47148417667955 88.2504653917741,102.60145540700664 88.27212726349592,102.75308850905401 88.22880352005382,102.90472161110138 88.13132509730869,103.04552377728861 87.654763919444,103.39211372482622 87.51396175325677,103.54374682687437 87.43814520223346,103.66288712134053 87.41648333051164,103.78202741580671 87.44897613809437,103.95532238957513 87.654763919444,104.34523608055486 88.1421560331696,104.88678287358272 88.35877475038014,105.37417498730757 88.47791504484553,105.59079370451886 88.90032154340722,106.05652394652188 89.22524961922379,106.51142325266554 89.58267050262307,106.8796750719242 89.74513454053059,107.0962937891355 89.88593670671781,107.36706718564905 89.94009138602084,107.50786935183628 89.94009138602084,107.62700964630245 89.8751057708569,107.87612117109494 89.89676764257874,108.01692333728217 90.35166694872161,108.50431545100702 90.56828566593214,108.79675071924162 90.62244034523516,108.91589101370779 90.58994753765397,109.0133694364529 90.44914537146674,109.10001692333712 90.39499069216372,109.17583347436118 90.43831443560582,109.50076155017776 90.35166694872161,109.695718395668 90.10255542392835,109.89067524115748 89.50685395159825,110.21560331697404 89.33355897782982,110.37806735488232 89.18192587578167,110.5838551362327 89.09527838889747,110.800473853444 89.08444745303656,111.25537315958688 89.03029277373354,111.49365374851924 88.92198341512905,111.6452868505666 88.6078862751734,111.89439837535987 88.55373159587037,111.97021492638316 88.57539346759066,112.0352005415471 88.7378575054997,112.21932645117643 88.7270265696388,112.38179048908471 88.6512100186155,112.50093078355088 88.41292942968315,112.68505669318021 88.36960568624104,112.75004230834338 88.42376036554406,112.82585885936668 88.6512100186155,112.90167541039075 88.99779996615234,112.9233372821118 89.30106617024862,113.11829412760204 89.49602301573734,113.30242003723139 89.81012015569452,113.70316466407202 89.96175325774112,113.9089524454224 90.03756980876597,114.06058554746977 90.04840074462687,114.1688949060758 90.02673887290504,114.27720426468107 89.7234726688103,114.58047046877658 89.65848705364638,114.72127263496381 89.69097986122758,114.99204603147736 89.8751057708569,115.51193095278416 89.64765611778547,116.42172956506992 89.65848705364638,116.64917921814214 89.75596547639151,116.9741072939587 89.88593670671781,117.25571162633238 90.13504823151108,117.59147063800985 90.24335759011558,118.00304620071063 90.31917414114042,118.02470807243168 90.55745473007276,117.97055339312944 90.80656625486449,118.05720088001364 90.89321374174871,118.1221864951768 91.45642240649762,119.1402944660686 91.88965984092022,119.68184125909646 92.65865628701874,120.39668302589274 92.91859874767292,120.84075139617548 92.9835843628353,120.87324420375667 93.14604840074436,120.87324420375667 93.23269588762857,120.91656794719879 93.78507361651657,121.43645286850558 93.91504484684289,121.62057877813493 93.95836859028499,121.81553562362517 93.69842612963237,122.60619394144553 93.52513115586393,122.87696733795907 93.3843289896767,122.98527669656433 92.88610594009019,123.24521915721773 92.74530377390296,123.38602132340496 92.50702318497214,123.73261127094258 92.37705195464429,123.87341343712981 91.8463360974781,124.2958199356915 91.29395836859011,124.62074801150806 90.78490438314421,125.08647825351184 90.37332882044343,125.30309697072238 89.88593670671781,125.44389913690961 89.50685395159825,125.46556100863066 88.95447622271024,125.36808258588553 88.75951937721999,125.4005753934675 88.64037908275459,125.48722288035171 88.22880352005382,125.89879844305325 87.6980876628861,126.32120494161417 87.56811643255978,126.48366897952245 87.54645456083796,126.68945676087284 87.61144017600188,126.92773734980518 87.77390421391094,127.16601793873754 88.00135386698237,127.37180572008793 88.30462007107711,127.50177695041424 89.62599424606519,127.87002876967368 89.90759857843965,128.01083093586013 90.10255542392835,128.16246403790828 90.20003384667348,128.3032662040955 90.2758503976983,128.4548993061429 90.39499069216372,129.0722626501948 90.50330005076975,129.3646979184294 90.47080724318702,129.47300727703467 90.3408360128607,129.55965476391967 90.03756980876597,129.63547131494295 89.42020646471403,129.67879505838582 89.08444745303656,129.657133186664 88.64037908275459,129.58131663564072 87.83888982907332,129.3755288542903 87.21069554916203,129.15891013707903 86.47419191064468,128.7581655102384 85.6943645286837,128.43323743442184 85.40192926044988,128.3465899475376 84.62210187849043,128.18412590962933 84.21052631578812,128.18412590962933 83.35488238280537,128.3357590116767 82.21763411744664,128.44406837028274 81.97935352851583,128.43323743442184 81.86021323404889,128.37908275511958 81.79522761888649,128.27077339651353 81.79522761888649,127.81587409037067 81.71941106786166,127.55593162971726 81.57860890167441,127.35014384836687 81.42697579962628,127.26349636148267 81.26451176171877,127.62091724488042 80.79878151971498,128.4657302420038 80.3872059570142,129.64630225080387 80.35471314943301,129.80876628871215 80.35471314943301,130.02538500592345 80.40886782873449,130.32865121001896 80.49551531562024,130.49111524792647 81.19952614655485,131.3684210526318 81.64359451683835,131.81248942291376 81.94686072093309,132.02910814012506 82.8999830766625,132.52733118971082 83.18158740903695,132.7331189710612 83.35488238280537,132.90641394482964 83.4956845489926,133.12303266204094 83.69064139448285,133.51294635302065 83.82061262480917,134.11947876121167 83.86393636825127,134.57437806735456 83.9939075985776,134.67185649009969 84.69791842951373,135.13758673210347 85.08783212049423,135.35420544931478 85.93264511761605,135.64664071754936 87.30817397190714,135.98239972922684 87.56811643255978,136.10154002369225 87.60060924014097,136.15569470299525 87.60060924014097,136.23151125401932 87.40565239465226,136.44812997123063 87.0807243188357,136.67557962430206 85.40192926044988,137.44457607040138 84.6762565577919,137.69368759519386 83.67981045862194,137.9103063124044 83.34405144694446,138.0077847351495 82.81333558977828,138.2677271958029 82.25012692502936,138.6793027585037 80.8854290065992,139.2425114232526 79.8998138432886,139.5349466914872 79.19580301235399,139.6215941783722 78.95752242342164,139.69741072939547 78.61093247588325,139.91402944660678 78.11270942629827,140.32560500930757 77.28955830089672,141.25706549331514 77.36537485192002,141.35454391606027 77.57116263327117,141.78778135048208 77.80944322220353,142.47013030969717 77.91775258080803,142.67591809104758 78.01523100355314,142.80588932137388 78.11270942629827,142.83838212895586 78.19935691318248,142.80588932137388 78.31849720764943,142.6542562193265 78.36182095109153,142.45929937383627 78.48096124555694,142.44846843797612 78.56760873244114,142.50262311727838 78.82755119309532,142.77339651379268 79.54239295989083,143.14164833305136 79.68319512607806,143.24995769165662 79.78067354882319,143.35826705026187 79.81316635640438,143.44491453714687 79.7915044846841,143.542392959892 79.57488576747203,143.74818074124238 79.4015907937036,144.02978507361607 79.03333897444493,144.30055847013037 78.93586055169982,144.4738534438988 78.87087493653742,144.701303096971 78.90336774411863,144.8529361990184 79.04416991030585,144.9829074293447 79.29328143509757,145.08038585208982 79.53156202402992,145.12370959553192 79.91064477914951,145.05872398036877 80.90709087832101,144.71213403283116 80.99373836520522,144.647148417668 81.05872398036762,144.57133186664393 81.15620240311273,144.23557285496722 81.22118801827666,144.09477068878 81.41614486376692,143.91064477915066 81.71941106786166,143.78067354882356 82.36926721949477,143.61820951091528 83.31155863936327,143.21746488407544 83.63648671517983,143.1524792689115 83.84227449652946,143.1524792689115 84.57877813504832,143.29328143509872 85.42359113217016,143.33660517854082 86.03012354036117,143.26078862751754 86.35505161617773,143.16331020477242 86.604163140971,143.05500084616713 86.76662717887851,142.93586055170096 86.89659840920636,142.80588932137388 87.14570993399809,142.47013030969717 87.27568116432441,142.38348282281297 87.42731426637255,142.350990015231 87.80639702149213,142.36182095109115 88.03384667456356,142.3401590793701 88.79201218480273,142.15603316974077 88.98696903029143,142.08021661871746 89.08444745303656,142.00440006769338 89.17109493992076,141.86359790150615 89.25774242680652,141.54950076154975 89.33355897782982,141.38703672364144 89.40937552885312,141.3220511084783 89.50685395159825,141.2787273650362 89.7884582839727,141.26789642917606 90.64410221695698,141.4086985953633 91.81384328989537,141.91775258080918 92.03046200710745,142.1018784904385 92.3878828905052,142.48096124555732 92.74530377390296,142.78422744965283 92.8644440683699,142.92502961584006 93.07023184971952,143.34743611440175 93.36266711795489,144.22474191910632 93.41682179725791,144.57133186664393 93.40599086139699,144.84210526315746 93.3734980538158,145.00456930106574 93.21103401590675,145.3728211203252 92.87527500423082,145.87104416991016 92.79945845320597,146.13098663056357 92.82112032492779,146.33677441191398 92.8969368759511,146.49923844982226 93.16771027246465,146.7700118463358 94.27246573024064,147.53900829243508 94.75985784396626,147.7881198172276 95.18226434252794,147.92892198341482 96.50363851751447,148.26468099509228 96.95853782365737,148.31883567439453 97.66254865459351,148.3621594178374 98.1391098324582,148.34049754611635 98.37739042139056,148.25385005923138 98.70231849720712,147.98307666271782 98.84312066339434,147.91809104755467 99.24386529023421,148.4704687764427 99.61211710949287,148.91453714672542 100.00203080047336,149.30445083770513 100.41360636317414,149.6185479776608 101.10678625824937,149.99763073278038 102.49314604839984,150.58250126925034 103.16466407175479,150.9074293450669 104.9842612963263,151.95803012354065 105.5366390252143,152.33711287865947 105.78575055000756,152.58622440345195 105.92655271619479,152.77035031308128 106.0023692672181,152.96530715857153 106.02403113893992,153.14943306820086 106.0023692672181,153.30106617024902 105.9373836520557,153.43103740057532 105.8074124217294,153.61516331020465 105.14672533423536,154.2758503976987 104.96259942460601,154.51413098663028 104.88678287358272,154.6549331528175 104.85429006599999,154.81739719072579 104.8651210018609,154.958199356913 104.908444745303,155.10983245896117 105.01675410390904,155.27229649686944 105.21171094939774,155.47808427821982 105.65577931968124,155.7705195464544 106.37062108647676,156.11710949399205 107.96276865797839,156.7886275173462 108.72093416821754,157.1677102724658 109.22998815366344,157.52513115586356 109.41411406329277,157.69842612963274 109.57657810120028,157.90421391098315 109.77153494669052,158.26163479438165 109.93399898459958,158.71653410052454 110.04230834320407,159.19309527838848 110.12895583008829,159.7563039431374 110.17227957353194,160.3520054154675 110.16144863767101,160.94770688779838 110.107293958368,161.61922491115254 110.00981553562288,162.2040954476225 109.82568962599355,162.8756134709767 109.64156371636422,163.31968184125867 109.44660687087396,163.65544085293612 109.1541716026386,164.00203080047376 108.85090539854386,164.24031138940612 108.49348451514611,164.39194449145347 108.11440176002652,164.45693010661662 107.63784058216181,164.45693010661662 106.83635132848056,164.33778981215045 106.03486207480083,164.13200203080007 105.30918937214287,163.87205957014743 104.58351666948644,163.5146386867489 104.23692672194959,163.2655271619564 103.91199864613303,162.92976815027893 103.68454899306005,162.60484007446237 103.21881875105626,161.83584362836308 102.92638348282243,161.44592993738337 102.7422575731931,161.2834658994751 102.53646979184194,161.14266373328786 102.29818920290958,161.03435437468258 102.03824674225696,160.94770688779838 101.44254526992685,160.85022846505325 100.78185818243281,160.8285665933322 96.37366728718816,160.92604501607732 95.84295143002198,160.90438314435627 94.66237942122113,160.76358097816905 94.17498730749706,160.72025723472694 93.79590455237748,160.741919106448 93.47097647656092,160.8285665933322 93.25435775934885,160.93687595193745 93.07023184971952,161.09933998984573 92.95109155525411,161.24014215603296 92.82112032492779,161.47842274496531 92.69114909460149,161.900829243527 92.48536131325032,163.1680487392113 92.30123540362099,163.82873582670456 91.42392959891642,165.99492299881524 91.13149433068105,166.5797935352852 90.80656625486449,167.09967845659125 90.43831443560582,167.54374682687398 90.03756980876597,167.91199864613264 87.0698933829748,170.0240311389403 86.7124724995755,170.3706210864779 86.55000846166799,170.58723980368922 86.40920629548076,170.82552039262157 86.10594009138602,170.81468945676065 85.0770011846333,170.93382975122682 84.86038246742125,170.92299881536593 84.6329328143498,170.87967507192383 84.31883567439415,170.76053477745765 83.65814858690011,170.40311389405989 83.10577085801211,170.16483330512753 80.23557285496607,169.12506346251467 79.17414114063216,168.64850228465076 78.34015907936971,168.37772888813643 77.41952953122303,167.98781519715672 76.79133525131019,167.81452022338829 76.01150786935075,167.72787273650331 75.6215941783718,167.6412252496191 75.38331358943945,167.53291589101383 74.87425960399355,167.20798781519727 74.47351497715215,167.06718564901004 73.59620917244759,166.8830597393807 72.35065154848435,166.55813166356415 71.46251480791888,166.43899136909798 70.85598239972785,166.39566762565588 70.37942122186469,166.406498561516 69.5129463530195,166.493146048401 67.95329158910062,166.5797935352852 67.09764765611787,166.7530885090536 66.27449653071479,166.8830597393807 65.8954137755952,166.99136909798597 65.42968353359295,167.22964968691832 64.74733457437709,167.71704180064316 64.2382805889312,167.96615332543567 63.69673379590411,168.30191233711236 63.19851074631912,168.52936199018458 62.97106109324768,168.6701641563718 61.74716534100473,169.61245557623954 61.28143509900094,170.14317143340648 61.1298019969528,170.26231172787266 60.72905737011293,170.4572685733629 60.12252496192192,170.63056354713132 59.472668810288795,170.2839735995937 58.79031985107447,170.03486207480123 57.977999661532294,169.88322897275307 57.20900321543377,169.85073616517187 56.299204603146464,169.90489084447412 55.31358943983741,170.0673548823824 54.46877644271404,170.2839735995937 53.30986630563501,170.67388729057342 52.96327635809663,170.43560670164106 52.63834828228006,170.0673548823824 51.99932306650785,169.4716534100523 51.65273311897101,169.28752750042295 50.374682687425036,168.72431883567404 50.13640209849269,168.55102386190563 49.82230495853704,168.22609578608908 49.280758165509944,167.56540869859504 49.12912506346181,167.32712810966345 49.053308512438505,167.16466407175517 49.0099847689964,166.89389067524084 49.03164664071668,166.406498561516 49.0099847689964,166.13572516500247 48.84752073108735,165.49669994923025 48.739211372481314,165.20426468099487 48.56591639871289,164.95515315620239 47.9810458622437,164.4027754273144 47.547808427821096,163.89372144186848 47.84024369605647,163.93704518531058 48.24098832289633,163.92621424944969 48.56591639871289,163.90455237772863 48.80419698764524,163.82873582670456 48.90167541039037,163.7312574039602 49.150786935183625,163.29801996953762 49.41072939583626,163.01641563716316 49.65984092062953,162.8756134709767 50.190556777795706,162.69148756134737 50.32052800812202,162.55068539516014 50.65628701979949,162.06329328143528 50.79708918598672,161.91166017938716 51.035369774919076,161.74919614147888 51.46860720934167,161.57590116771044 51.479438145201044,161.52174648840742 51.436114401758935,161.4350990015232 50.78625825012581,160.741919106448 50.53714672533409,160.93687595193745Z"/>
    <path d="M152.60788627517223,238.12895583008907 152.56456253173013,238.5730242003718 152.31545100693842,239.67777965814858 152.3046200710775,239.87273650363804 152.31545100693842,240.1543408360125 152.3804366221008,240.4142832966659 152.47791504484593,240.64173294973733 153.05195464545574,241.75731934337426 153.20358774750235,242.13640209849385 153.30106617024748,242.5046539177525 153.39854459299258,243.02453883905855 153.47436114401742,243.6419021831105 153.51768488745952,244.3784058216278 153.50685395159863,244.99576916567898 153.4526992722956,245.59147063800987 153.30106617024748,246.28465053308508 152.61871721103316,248.29920460314761 152.22880352005265,249.71805720088005 152.07717041800606,250.16212557116202 151.82805889321278,250.71450330005078 151.44897613809323,251.27771196479893 150.91826028092703,251.8625825012689 150.32255880859694,252.4149602301569 149.06617024877278,253.47639194449079 146.6075478084275,255.42596039939016 146.34760534777334,255.59925537315937 146.0876628871207,255.7400575393466 145.5244542223718,255.91335251311503 145.21035708241612,255.96750719241803 144.71213403283116,256 144.13809443222132,255.97833812827895 143.60737857505362,255.91335251311503 142.60010154002273,255.70756473176462 140.19563377898046,255.04687764427138 139.55660856320824,254.93856828566533 138.90675241157513,254.89524454222322 137.8669825689615,254.90607547808415 134.47689964460866,255.13352513115558 133.51294635301988,255.24183448976083 131.45506853951449,255.55593162971726 130.5344389913678,255.64257911660147 130.05787781350463,255.6534100524624 129.65713318666323,255.62091724488042 129.28888136740457,255.55593162971726 128.909798612285,255.44762227111121 128.61736334405117,255.3176510407849 128.3357590116767,255.1443560670157 128.07581655102254,254.93856828566533 127.80504315450898,254.6786258250127 126.49449991538182,253.04315451006897 124.80487392113662,251.0502623117275 124.40412929429675,250.51954645456055 124.0792012184802,250.0213234049748 123.84092062954784,249.55559316297177 123.39685225926434,248.52665425621905 123.23438822135682,248.2558808597055 123.03943137586658,248.01760027077316 122.76865797935304,247.7793196818408 122.41123709595527,247.58436283635135 122.04298527669506,247.44356067016412 120.95989169064089,247.1294635302077 120.62413267896342,246.99949229988138 120.37502115417016,246.84785919783323 120.12590962937843,246.64207141648285 119.93095278388819,246.4146217634114 119.76848874598068,246.11135555931588 119.64934845151373,245.73227280419633 119.57353190049042,245.33152817735646 119.5410390929077,244.94161448637672 119.53020815704832,244.17261804027743 119.5951937722107,243.45777627348116 119.82264342528215,241.649009984769 119.87679810458516,240.16517177187342 119.92012184802726,239.62362497884556 120.09341682179723,238.80047385344324 120.54831612794011,237.45743780673487 120.71078016584762,236.90506007784688 120.99238449822208,235.4212218649513 121.06820104924692,235.1829412760197 121.19817227957324,234.9229988153663 121.42562193264467,234.6630563547129 121.81553562362363,234.4139448299204 122.30292773734924,234.25148079201213 122.92029108140117,234.13234049754595 123.86258250126812,234.0673548823828 124.96733795904413,234.03486207480083 127.67507192418267,234.12150956168503 128.22744965307066,234.12150956168503 128.8014892536805,234.04569301066175 128.99644609917075,233.9807073954978 129.16974107293916,233.88322897275347 129.32137417498578,233.7640886782873 129.41885259773088,233.62328651210007 129.49466914875572,233.4283296666098 129.516331020476,233.21171094939928 129.4730072770339,232.76764257911654 129.20223388052037,231.45709933998938 129.12641732949706,230.76391944491414 129.14807920121734,230.13572516500207 129.21306481638126,229.8107970891855 129.3105432391264,229.54002369267198 129.4730072770339,229.19343374513434 129.65713318666323,228.89016754103883 129.8737519038753,228.60856320866438 130.15535623624976,228.32695887628992 130.4586224403445,228.08867828735836 130.76188864443924,227.90455237772824 131.19512607886185,227.70959553223878 131.54171602640022,227.6012861736335 132.007446268404,227.51463868674853 132.505669317989,227.48214587916732 133.10137079031912,227.49297681502748 134.94262988661245,227.5904552377726 135.6249788458283,227.56879336605155 136.93552208495393,227.49297681502748 137.48789981384195,227.49297681502748 137.88864444068335,227.52546962260942 138.31105093924504,227.6012861736335 138.69013369436306,227.70959553223878 139.15586393636684,227.91538331358916 139.59993230665037,228.16449483838164 139.98984599762932,228.45693010661702 140.57471653410005,228.95515315620202 141.20291081401135,229.5508546285321 141.79861228634147,230.1898798443051 142.296835335928,230.7964122524961 143.43408360128518,232.410221695718 143.72651886952056,232.72431883567444 144.062277881198,232.95176848874587 144.39803689287396,233.0925706549331 144.91792181418077,233.19004907767822 145.39448299204548,233.21171094939928 146.94330682010346,233.14672533423536 147.53900829243508,233.17921814181733 148.06972414960129,233.26586562870153 148.58960907090807,233.40666779488876 149.1636486715179,233.62328651210007 149.7160264004059,233.91572178033465 150.19258757826907,234.2406498561512 150.65831782027286,234.652225418852 151.16737180571877,235.20460314774076 151.63310204772256,235.80030462007088 152.07717041800606,236.46099170756415 152.2937891352166,236.84007446268373 152.47791504484593,237.2949737688266 152.58622440345195,237.74987307497025 152.60788627517223,238.12895583008907Z"/>
  </g>
</svg>