<?xml version="1.0" encoding="UTF-8" standalone="no"?>
<svg viewBox="0 0 256 213.0579568420366" xmlns="http://www.w3.org/2000/svg">
  <style>
    g.zone {
      fill: lightgray;
      stroke-width: 2;
      stroke-linecap: square;
      stroke-linejoin: bevel;
      stroke-miterlimit: 3;
      stroke-opacity: 0.8;
      stroke: black;
      fill-opacity: 0.3;
    }
  </style>
  <g class="zone" id="zone">
    <path d="M82.31253667123032,156.4806049938069 83.63100593259134,158.53341156529072 84.41541169567884,159.935328248256 84.96616467827154,161.23710802529428 85.41678075493958,162.78923006714888 85.61705456679125,163.84066757937197 85.81732837864293,165.2092052936953 86.23456548666785,169.36488688962763 86.25125497098941,170.3495664645668 86.21787600234627,171.2341091335813 86.06767064345931,172.2855466458044 85.86739683160526,173.003194471608 85.61705456679125,173.65408436012774 85.41678075493958,174.07132146815263 84.81595931938219,174.95586413716597 83.94810613468923,175.89047525914285 82.99680552839318,176.67488102223035 82.12895234370022,177.2923919421081 81.12758328443947,177.94328183062783 76.92183323554482,180.4467044787797 75.35302170936981,181.31455766347148 73.9177260577626,181.98213703631276 72.73277267096937,182.44944259730119 70.96368733294268,183.01688506421544 69.32811786948378,183.38405371927686 67.97626963948201,183.56763804680816 66.64111089380181,183.60101701545008 63.753830106265795,183.36736423495648 62.318534454658575,183.33398526631453 61.25040745811394,183.4007432035984 58.04602646848003,183.7011539213771 56.00990938131541,183.767911858661 54.441097855140406,183.7011539213771 52.53849664254594,183.46750114088232 50.45231110241899,183.06695351717778 46.86407197340093,182.2658582697699 45.57898168068306,181.88200013038573 44.36064932524907,181.4146945693985 43.67638046808859,181.08090488297785 43.02549057956887,180.69704674359488 41.890605645740344,179.8959514961858 40.80578916487414,178.94465088988858 39.086772279809786,177.2923919421081 38.26898754808152,176.65819153790997 37.71823456548645,176.35778082013127 37.21755003585608,176.19088597692152 36.71686550622571,176.12412803963764 36.18280200795457,176.14081752395802 35.63204902536187,176.2743333985258 35.1313644957315,176.47460721037868 34.680748419063455,176.7583284438358 34.23013234239541,177.10880761457682 33.84627420301363,177.50935523828136 33.44572657930791,178.04341873655366 33.12862637721002,178.61086120346795 32.878284112393644,179.19499315470378 32.67801030054197,179.92933046482776 32.594562878936514,180.56353086902593 32.544494425974186,181.2311102418672 32.56118391029575,181.86531064606535 32.74476823782586,183.38405371927686 33.27883173609699,185.9041658517503 33.5124845165918,187.37284047199944 33.57924245387569,188.50772540582798 33.5124845165918,189.47571549644678 33.36227915770245,190.076536932003 33.19538431449391,190.54384249299142 32.94504204967753,190.99445856965826 32.62794184757964,191.4450746463263 32.24408370819549,191.84562227003084 31.84353608449214,192.19610144077188 31.276093617577875,192.56327009583327 30.658582697698915,192.88037029793355 29.657213638438172,193.24753895299494 28.772670969426017,193.43112328052624 27.871438816089924,193.49788121781012 26.920138209791503,193.43112328052624 26.202490383990263,193.26422843731652 25.55160049547054,192.99719668817977 24.917400091272388,192.64671751743873 23.548862376949053,191.74548536410384 23.064867331637878,191.49514309928864 22.614251254972203,191.31155877175735 22.013429819414807,191.16135341286918 21.362539930895085,191.07790599126372 20.745029011018495,191.07790599126372 19.99400221657175,191.14466392854763 19.359801812373597,191.261490318795 18.69222243953468,191.46176413064669 18.00795358237183,191.72879587978346 17.373753178173676,192.02920659756097 16.18879979138282,192.71347545472264 13.034487254711241,194.7329030575657 12.23339200730217,195.18351913423254 11.465675728536233,195.5673772736155 10.547754090880945,195.9178564443577 9.69659039050955,196.15150922485134 8.77866875285189,196.30171458374068 8.061020927048279,196.33509355238263 7.076341352109101,196.25164613077717 5.874698480996682,196.001303865962 4.723124062846589,195.61744572657904 3.1710020209931473,194.93317686941737 1.9693591498807286,194.2489080122557 1.2183323554339844,193.68146554534144 0.6842688571628525,193.13071256274873 0.4673055609896122,192.83030184497002 0.2336527804948061,192.39637525262356 0.0667579372838915,191.94575917595668 0,191.42838516200476 0.016689484321565803,190.92770063237438 0.1502053588893488,190.32687919681817 0.4172371080249148,189.74274724558234 0.6842688571628525,189.30882065323704 1.0681269965446356,188.82482560792707 1.518743073212682,188.3742095312602 2.453354195189535,187.65656170545657 3.337896864204062,187.07242975422076 4.890018906057504,186.22126605384935 9.529695547298635,183.81798031162333 11.1819544950791,182.8833691896465 12.250081491623737,182.18241084816444 13.384966425452264,181.31455766347148 14.102614251255876,180.61359932198943 14.720125171132466,179.82919355890192 15.10398331051662,179.1115457330983 15.254188669405968,178.66092965643145 15.304257122368295,178.36051893865275 15.28756763804673,177.743008018775 15.120672794838185,177.15887606754032 14.786883108416356,176.59143360062606 14.352956516069876,176.07405958667414 13.768824564836418,175.57337505704376 13.117934676316697,175.1227589803769 10.78140687137338,173.67077384444812 10.013690592607443,173.0699524088919 9.396179672730852,172.48582045765608 8.812047721495023,171.7347936632117 8.428189582110868,170.98376686876614 8.211226285937627,170.1659821370355 8.144468348653737,169.3148184366641 8.261294738902325,167.9963491753043 8.578394941000218,166.27733229023994 8.92887411174124,165.0923789034479 9.346111219766156,164.10769932850872 9.863485233718093,163.22315665949537 10.53106460655938,162.33861399048203 11.398917791252341,161.35393441554166 13.435034878414589,159.2176804224524 14.019166829650418,158.51672208097034 14.453093421996899,157.9325901297345 14.88702001434338,157.18156333528896 15.154051763478945,156.54736293109082 15.32094660668986,155.72957819936136 15.337636091011426,155.0453093421997 16.071973401134233,154.96186192059423 16.522589477802278,154.9952408892362 16.83968967990254,155.06199882652007 17.20685833496276,155.24558315405136 17.90781667644718,155.79633613664524 18.22491687854507,155.96323097985498 18.491948627680635,156.02998891713887 19.142838516200356,156.08005737010237 21.262403024970435,156.16350479170666 22.46404589608285,156.2636416976337 22.94804094139166,156.3804680878799 24.383336592998884,156.9145315861522 25.184431840407953,157.0981159136835 26.252558836952588,157.19825281960934 27.33737531781879,157.18156333528896 27.77130191016527,157.2149423039309 29.490318795229626,157.63217941195583 31.059130321404634,157.81576373948712 31.94367299041679,157.86583219245063 33.01179998696143,158.03272703566034 33.34558967338326,158.01603755133996 33.529174000913365,157.91590064541296 34.26351131103854,157.06473694504155 34.680748419063455,156.71425777430053 35.08129604276681,156.4472260251638 35.598670056718746,156.28033118195407 35.89908077449744,156.2636416976337 36.19949149227614,156.2970206662756 36.7669339591904,156.51398396244886 37.53465023795634,156.99797900775766 37.8684399243758,157.11480539800507 38.76967207771189,157.33176869417832 39.270356607342265,157.61548992763545 39.871178042897284,158.0661060043023 40.739031227590246,158.8505117673898 41.406610600431534,159.66829649911926 41.70702131821023,159.96870721689794 42.124258426235144,160.23573896603352 42.758458830433305,160.58621813677573 43.142316969815084,160.88662885455324 43.976791185867285,161.83792946085165 44.56092313710312,162.33861399048203 45.81263446117786,163.08964078492758 46.44683486537602,163.52356737727288 48.23260968772426,165.00893148184363 48.85012060760322,165.34272116826307 49.66790533933149,165.69320033900527 50.50237955538132,165.84340569789344 51.453680161679735,165.8767846665354 52.772149423040744,165.75995827628918 53.84027641958538,165.59306343307827 54.17406610600484,165.59306343307827 54.57461372970818,165.69320033900527 55.609361757612064,166.21057435295603 56.39376752069957,166.32740074320344 57.06134689354085,166.47760610209278 57.27831018971409,166.46091661777123 57.44520503292264,166.37746919616578 58.0627159528016,165.89347415085697 58.26298976465327,165.82671621357306 58.429884607861815,165.8100267292515 58.713605841318945,165.89347415085697 58.94725862181375,166.02699002542474 59.314427276876344,166.5443640393767 59.44794315144412,166.6611904296241 59.63152747897661,166.74463785122836 59.815111806506714,166.74463785122836 59.9486276810745,166.6611904296241 59.982006649717626,166.5276745550551 59.8818697437906,165.96023208814086 59.93193819675293,165.49292652715243 60.21565943021006,164.89210509159622 60.61620705391578,164.29128365604 60.94999674033524,163.92411500097742 61.36723384836016,163.60701479887834 61.834539409349766,163.456809439989 62.18501858009079,163.44011995566862 62.51880826651025,163.49018840863093 63.470108872808666,163.80728861073 64.0542408240445,163.940804485299 65.20581524219459,164.1243888128303 66.45752656626934,164.22452571875613 67.00827954886203,164.3580415933239 67.39213768824618,164.62507334246064 68.51033313775315,165.75995827628918 68.96094921442119,166.16050589999372 69.59514961861935,166.594432492339 70.5297607405962,167.11180650629095 71.76478258035175,167.6792489732052 73.40035204381066,168.23000195579908 74.20144729121972,168.38020731468725 75.4364691309729,168.48034422061428 75.60336397418381,168.44696525197233 75.6701219114677,168.33013886172492 75.6701219114677,167.47897516135353 75.55329552122149,166.97829063172316 75.23619531912122,166.27733229023994 74.91909511702333,165.82671621357306 74.53523697763917,165.42616858986852 74.08462090097113,165.05899993480594 73.15000977899427,164.40811004628742 72.58256731208002,163.80728861073 72.26546710998213,163.40674098702667 72.09857226677121,163.05626181628446 72.04850381380888,162.722472129865 72.13195123541433,162.50550883369175 72.41567246887148,162.22178760023462 72.7661516396125,161.97144533541945 74.20144729121972,161.20372905665232 75.8036377860355,160.16898102874964 77.25562292196427,159.60153856183535 77.80637590455697,159.43464371862564 78.9913292913502,159.1509224851685 79.59215072690523,158.88389073603176 79.99269835061095,158.60016950257463 80.42662494295743,158.23300084751205 81.7117152356753,156.76432622726404 82.07888389073553,156.53067344676924 82.31253667123032,156.4806049938069Z"/>
    <path d="M223.4555055740282,182.54957950322702 223.7559162918045,183.30060629767257 224.34004824304034,184.18514896668592 225.52500162983355,185.48692874372537 227.04374470304387,186.93891387965297 227.79477149749061,187.5731142838511 228.42897190168878,188.0571093291611 230.84894712823518,189.59254188669416 231.9337636091014,190.36025816546012 235.57207119108176,193.26422843731652 236.22296107960148,193.86504987287273 236.65688767194797,194.34904491818153 236.99067735836744,194.81635047916996 237.32446704478687,195.4004824304058 237.5914987939248,196.0513723189255 237.75839363713337,196.6688832388033 237.87522002738194,197.55342590781663 237.84184105873882,199.53947454201653 237.87522002738194,200.1736749462147 237.9753569333066,200.67435947584508 237.1241932329352,201.12497555251312 236.23965056392305,201.70910750374776 235.7556555186119,202.17641306473618 235.17152356737842,202.8940608905398 234.80435491231583,203.22785057696044 233.1354064802138,204.1624616989373 231.4998370167549,205.29734663276582 230.9490840341622,205.547688897581 229.2634461177386,205.99830497424787 228.1619401525532,206.48230001955787 227.29408696786024,206.73264228437304 226.82678140687062,206.84946867462045 226.4763022361296,206.86615815894083 224.82404328834915,206.79940022165692 223.70584783884217,206.79940022165692 223.07164743464404,206.93291609622472 222.40406806180275,207.18325836103992 221.90338353217237,207.31677423560768 220.88532498859243,207.50035856313897 220.2511245843919,207.5504270161025 219.39996088402052,207.51704804746055 218.14824955994575,207.16656887671954 217.84783884216708,207.13318990807758 217.36384379685828,207.13318990807758 216.87984875154945,207.19994784536146 216.51268009648686,207.31677423560768 215.4612425842614,207.75070082795418 215.01062650759576,207.88421670252313 214.64345785253317,207.9009061868435 213.69215724623476,207.7840797965961 213.30829910685296,207.80076928091768 212.97450942043113,207.88421670252313 212.27355107894908,208.20131690462222 211.9063824238865,208.30145381054805 210.8215659430203,208.4516591694374 209.95371275832971,208.48503813807935 209.38627029141543,208.63524349696868 208.65193298129026,208.95234369906777 207.88421670252433,209.3695808070927 207.4169111415347,209.7200599778337 206.84946867462045,210.2040550231437 206.1485103331384,210.85494491166224 205.94823652128673,211.08859769215704 205.74796270943267,211.50583480018196 205.5977573505457,212.19010365734363 205.46424147597554,212.4404459221588 205.1805202425184,212.690788186974 204.79666210313664,212.85768303018372 204.0456353086899,212.97450942043113 202.510202751158,213.0579568420366 202.07627615881154,213.02457787339463 201.82593389399517,212.95781993611075 201.44207575461337,212.77423560857946 200.77449638177208,212.24017211030713 200.37394875806874,211.97314036117038 199.1389269183132,211.35562944129262 198.27107373362023,210.8215659430203 197.7370102353491,210.637981615489 197.46997848621118,210.60460264684704 197.10280983114856,210.62129213116862 196.08475128756862,210.83825542734186 195.48392985201124,210.90501336462574 194.2489080122557,210.8215659430203 193.34767585892197,210.67136058413215 192.8469913292916,210.47108677227928 192.479822674229,210.18736553882215 192.0625855662041,209.60323358758632 191.79555381706854,208.96903318338815 192.11265401916643,208.5184171067213 192.39637525262356,208.06780103005326 192.74685442336457,207.19994784536146 192.86368081361317,206.6992633157311 192.96381771953781,206.04837342721137 192.96381771953781,204.8801095247409 192.89705978225393,204.27928808918352 192.78023339200772,203.7285351065908 192.44644370558825,202.81061346893551 192.16272247213112,202.3433079079471 191.879001238674,201.9928287372049 191.54521155225214,201.65903905078542 191.2114218658327,201.40869678597025 190.86094269509167,201.22511245843896 190.3602581654613,201.04152813090766 189.8929526044717,200.92470174066025 189.3755785905221,200.841254319056 188.77475715496473,200.8913227720183 187.8902144859502,201.12497555251312 187.2226351131113,201.39200730164868 186.72195058348092,201.70910750374776 186.10443966360197,202.19310254905776 184.90279679248954,203.2612295456024 184.03494360779658,203.89542994980053 183.50088010952544,204.1791511832577 182.96681661125194,204.41280396375248 182.41606362865923,204.56300932264182 181.88200013038573,204.66314622856765 181.23111024186838,204.71321468153 180.730425712238,204.71321468153 179.56216180976637,204.54631983832027 178.17693461112145,204.12908273029535 177.4259078166771,203.84536149683822 176.59143360062725,203.46150335745406 175.99061216506985,203.11102418671305 175.4231696981556,202.7104765630085 174.98924310580912,202.2932394549836 174.62207445074654,201.82593389399517 174.3383532172894,201.3252493643648 174.12138992111616,200.79118586609246 173.58732642284502,198.92196362213878 173.3036051893879,198.1709368276932 172.88636808136062,197.43659951756922 172.3356150987679,196.8524675663334 171.81824108481598,196.50198839559238 171.16735119629624,196.1848881934933 170.38294543320873,195.9178564443577 168.5137231892574,195.4004824304058 167.562422582959,195.0833822283067 166.64450094530372,194.68283460460216 165.69320033900527,194.13208162200948 164.94217354456092,193.5813286394156 164.2912836560412,192.9805072038594 163.74053067344613,192.3629962839816 162.20509811591424,190.46039507138596 161.68772410196232,189.9430210574352 161.17035008801037,189.47571549644678 160.66966555838,189.12523632570574 160.1189125757873,188.77475715496354 157.89921116109258,187.67325118977695 156.94791055479416,187.13918769150465 155.91316252689265,186.42153986570102 154.89510398331035,185.53699719668768 154.3610404850392,185.00293369841538 153.86035595540883,184.40211226285916 153.49318730034625,183.8847382489072 153.19277658256755,183.36736423495648 152.95912380207275,182.7999217680422 152.82560792750496,182.33261620705377 152.4417497881232,180.53015190038397 152.17471803898525,179.86257252754388 151.89099680552812,179.42864593519738 151.65734402503568,179.16161418606183 151.2901753699731,178.81113501531962 150.92300671491049,178.56079275050442 150.42232218528014,178.29376100136886 149.92163765564976,178.093487189516 148.90357911206743,177.843144924702 147.43490449181945,177.7263185344546 145.56568224786577,177.743008018775 143.81328639415827,177.85983440902237 142.44474867983493,178.02672925223212 141.1262794184763,178.29376100136886 138.42258295847276,178.94465088988858 137.05404524414942,179.19499315470378 135.53530217093675,179.34519851359192 133.88304322315628,179.34519851359192 132.29754221266208,179.16161418606183 131.51313644957457,179.01140882717246 130.54514635895458,178.77775604667767 128.85950844253335,178.2103135797634 127.25731794771522,177.50935523828136 126.25594888845448,176.9919812243294 125.42147467240466,176.5079861790206 124.4868635504278,175.87378577482247 123.90273159919197,175.38979072951247 123.35197861659927,174.85572723124014 122.88467305560965,174.30497424864745 122.51750440054707,173.77091075037512 122.21709368277074,173.20346828345967 122.03350935523827,172.7695416911144 121.84992502770815,172.18540973987857 121.6997196688188,171.1840406806178 121.6997196688188,169.96570832518384 121.83323554338659,167.4956646456739 121.88330399634891,165.79333724493114 121.81654605906502,164.6083838581391 121.63296173153492,163.44011995566862 121.29917204511308,162.33861399048203 121.08220874894222,161.8713084294936 120.73172957819882,161.28717647825778 120.46469782906325,160.9033183388748 120.04746072103833,160.46939174652832 119.16291805202381,159.7016754677612 118.17823847708463,159.2176804224524 117.27700632375091,158.93395918899526 116.39246365473639,158.81713279874785 115.35771562683489,158.83382228306942 114.30627811460944,159.0340960949211 113.33828802399184,159.38457526566214 112.48712432362044,159.80181237368822 110.75141795423451,160.86993937023286 110.1005280657148,161.23710802529428 109.2493643653434,161.58758719603648 108.51502705521821,161.78786100788815 107.54703696460061,161.90468739813556 106.96290501336478,161.92137688245592 106.36208357780976,161.85461894517204 105.39409348718976,161.65434513332036 104.12569267879346,161.2204185409739 103.2578394941005,160.81987091726936 102.07288610730964,160.20235999739157 100.15359541039125,159.05078557924267 98.13416780755055,157.64886889627738 97.33307256014149,157.03135797639962 96.4151509224862,156.2469522133121 95.59736619075557,155.44585696590303 94.91309733359509,154.6781406871371 92.27615881087544,151.24010691700838 89.3388095703771,147.71862572527542 88.27068257383246,146.60043027576725 87.43620835778026,145.94954038724754 86.65180259469275,145.44885585761716 85.88408631592682,145.09837668687615 84.9828541625931,144.81465545341902 83.98148510333236,144.64776061020928 83.1136319186394,144.59769215724577 82.02881543777319,144.68113957885123 81.14427276876104,144.89810287502448 80.27641958406808,145.2485820457655 79.20829258752345,143.71314948823243 78.95795032270706,143.46280722341723 77.6061020927053,142.4614381641565 76.65480148640688,142.04420105613158 76.12073798813576,141.6102744637851 75.77025881739473,141.20972684008058 75.60336397418381,140.90931612230187 75.51991655257835,140.7090423104502 75.48653758393759,140.42532107699307 75.55329552122149,139.95801551600462 76.03729056653029,138.67292522328677 76.13742747245732,138.2890670839038 76.17080644109808,137.42121389921084 76.02060108220873,136.25294999674037 76.03729056653029,136.00260773192517 76.08735901949262,135.90247082599933 76.18749592541964,135.86909185735738 76.32101179998743,135.90247082599933 77.55603363974298,136.38646587130813 78.07340765369254,136.48660277723397 79.52539278962134,136.51998174587592 83.54755851098588,136.7202555577288 84.69913292913597,136.67018710476526 85.29995436469099,136.50329226155554 85.6003650824697,136.25294999674037 85.75057044135905,136.01929721624555 85.91746528456996,135.6187495925422 86.13442858074319,134.63407001760183 86.16780754938395,133.9998696134037 86.0843601277785,133.59932198969915 85.8340178629645,133.11532694439035 85.38340178629645,132.58126344611802 84.29858530543025,131.68003129278313 82.82991068518227,130.6619727492008 81.94536801616773,130.19466718821238 80.46000391159819,129.6439142056197 79.92594041332706,129.343503487841 79.62552969554835,129.0764717387054 79.3584979464128,128.70930308364282 79.15822413455875,128.20861855401245 79.04139774431253,127.74131299302402 79.0580872286341,127.07373362018393 79.22498207184263,126.28932785709642 79.55877175826447,125.5883695156132 80.00938783493014,125.02092704869894 80.84386205098234,124.20314231696948 81.84523111024309,123.40204706956159 82.54618945172513,122.98480996153549 83.74783232283755,122.43405697894279 84.58230653888738,121.88330399634891 84.94947519394997,121.54951430992827 85.2331964274071,121.2324141078292 85.35002281765568,121.03214029597751 85.41678075493958,120.83186648412466 85.36671230197489,120.64828215659455 85.18312797444477,120.43131886042131 84.24851685246792,119.63022361301223 82.82991068518227,118.24499641436853 81.74509420431606,117.39383271399713 81.42799400221817,117.11011148054 80.6268987548091,116.05867396831574 80.37655648999272,115.59136840732732 80.27641958406808,115.32433665819175 80.29310906838727,115.1073733620185 80.46000391159819,114.95716800312917 80.91061998826623,114.79027315991944 81.97874698481087,114.52324141078269 82.57956842036589,114.322967598931 82.86328965382302,114.17276224004166 82.96342655975005,114.05593584979425 83.06356346567706,113.80559358497906 83.0468739813555,113.57194080448545 82.77984223221993,113.05456679053351 82.66301584197134,112.72077710411405 82.69639481061448,111.76947649781563 82.66301584197134,111.58589217028434 82.5628789360467,111.38561835843267 82.36260512419265,111.15196557793786 82.02881543777319,110.88493382880229 80.97737792555013,110.56783362670322 80.74372514505532,110.43431775213543 80.56014081752521,110.26742290892452 80.35986700567116,109.93363322250507 80.19297216246262,109.21598539670146 80.05945628789483,108.81543777299692 79.87587196036236,108.53171653953979 79.49201382098057,108.11447943151369 79.37518743073198,107.84744768237812 79.40856639937512,107.69724232348877 79.50870330529976,107.53034748027903 80.07614577221403,106.96290501336478 80.35986700567116,106.54566790533868 80.49338288024131,106.19518873459765 80.61020927048753,105.46085142447366 80.74372514505532,105.11037225373263 81.1776517374018,104.30927700632357 81.91198904752697,103.35797640002633 81.96205750048931,103.15770258817348 81.94536801616773,102.9574287763218 81.79516265727838,102.47343373101181 81.59488884542671,102.05619662298689 81.44468348653736,102.02281765434495 81.19434122172336,101.8058543581717 80.97737792555013,101.48875415607263 80.29310906838727,100.33717973792254 79.60884021122679,99.61953191211892 79.17491361888031,99.23567377273595 77.85644435752167,98.4846469782904 76.93852271986401,97.80037812112873 75.9705326292464,97.19955668557252 75.58667448986225,97.08273029532512 74.76888975813398,96.99928287372084 74.26820522850362,96.88245648347345 72.66601473368547,96.2482560792753 73.18338874763741,95.94784536149659 74.3349631657875,95.06330269248325 74.6353738835662,94.74620249038416 74.8857161483802,94.27889692939574 74.91909511702333,94.04524414890093 74.83564769541788,93.71145446248148 74.61868439924463,93.41104374470278 73.81758915183556,92.57656952865177 73.58393637134076,92.12595345198491 73.48379946541611,91.72540582828037 73.43373101245142,91.24141078297157 73.41704152813222,90.47369450420445 73.45042049677298,90.02307842753758 73.5505574027,89.57246235087072 73.8509681204787,88.82143555642516 74.16806832257659,88.27068257383128 74.78557924245555,87.33607145185442 74.85233717973944,87.06903970271885 74.8857161483802,86.50159723580342 75.01923202294799,86.16780754938395 75.56998500554306,85.14974900580164 75.77025881739473,84.83264880370257 76.05398005085186,84.59899602320894 76.38776973727131,84.4487906643196 76.07066953517342,84.18175891518284 75.28626377208592,83.68107438555248 73.96779451072491,82.72977377925524 72.89966751418028,81.56150987678477 72.58256731208002,81.32785709628996 72.29884607862289,81.16096225308023 71.94836690788186,81.04413586283283 71.41430340961072,80.97737792554894 70.09583414824972,81.16096225308023 69.6785970402248,81.12758328443829 69.06108612034822,81.01075689419089 68.51033313775315,80.82717256665958 68.19323293565526,80.67696720777143 67.89282221787656,80.46000391159819 66.7746267683696,79.30842949344809 65.90677358367664,78.52402373036058 65.62305235021951,78.20692352826151 65.33933111676237,77.77299693591503 64.87202555577277,76.80500684529623 64.62168329095876,76.45452767455521 64.33796205750163,76.2208748940604 63.90403546515515,75.92046417628289 62.9694243431783,75.10267944455344 62.65232414107803,74.78557924245318 61.934676315274416,73.68407327726659 61.01675467761913,72.66601473368547 60.34917530478022,71.46437186257187 59.59814851033347,70.36286589738529 59.29773779255478,69.99569724232389 57.7122367820582,68.37681726318536 56.61073081687281,67.3253797509611 54.89171393180845,65.90677358367545 55.058608775019366,64.9054045244147 55.32564052415493,62.78584001564582 55.54260382032817,61.81784992502701 55.97653041267465,60.499380663667196 56.74424669144059,58.76367429428246 57.39513657996031,57.49527348588496 58.930569137492185,54.77488754156105 60.1822804615693,52.371601799335025 60.71634395984044,51.470369646000115 61.217028489470806,50.76941130451807 61.76778147206588,50.13521090031991 62.385292391942464,49.51769998044214 63.2030771236731,48.85012060760085 64.08761979268526,48.249299172044644 65.03892039898368,47.748614642414275 66.09035791120674,47.331377534389354 67.37544820392462,46.96420887932677 68.54371210639628,46.74724558315353 70.14590260121204,46.580350739943796 71.73140361170861,46.546971771301855 73.06656235739119,46.613729708585744 74.60199491492307,46.79731403611704 76.1541169567765,47.09772475389573 78.02333920073022,47.59840928352611 79.8424929917216,48.215920203402696 82.01212595345163,49.08377338809566 87.13579764000394,51.38692222439466 89.80611513136434,52.52180715822437 91.67533737531805,53.25614446834837 97.71693069952565,55.49253536736466 99.4526370689092,56.21018319316708 100.97138014212187,56.89445205032875 102.28984940348289,57.61209987613236 103.34128691570595,58.22961079601014 104.69313514570771,59.147532433665425 105.82802007953624,59.98200664971644 106.92952604472401,60.83317035008784 108.06441097855254,61.80116044070664 111.88630288806304,65.23919421083535 112.72077710411524,65.84001564639156 113.50518286720275,66.24056327009609 113.87235152226296,66.37407914466388 114.03924636547387,66.37407914466388 114.42310450485803,66.0569789425648 114.79027315992062,65.53960492861286 114.99054697177229,65.07229936762444 115.09068387769695,64.52154638503174 115.1073733620185,63.83727752787007 115.04061542473463,63.21976660799229 114.8737205815237,62.53549775083063 114.60668883238814,61.85122889367015 114.23952017732555,61.18364952082886 113.87235152226296,60.66627550687811 113.25484060238637,59.93193819675293 112.57057174522589,59.24766933959126 111.86961340374147,58.59677945107273 110.76810743855607,57.7122367820582 109.7834278636169,57.02796792489772 108.9489536475647,56.47721494230384 103.92541886694178,53.55655518612706 99.60284242779855,50.85285872612234 96.78231957754879,49.15053132537955 96.16480865766982,48.73329421735463 95.51391876915011,48.215920203402696 95.21350805137378,47.915509485625186 94.97985527087897,47.58171979920454 94.7962709433465,47.264619597105465 94.67944455310028,46.91414042636444 94.56261816285406,46.313318990808234 94.49586022557017,44.54423365278036 94.39572331964315,43.96010170154454 94.19544950779147,43.37596975030989 93.72814394680186,42.75845883043212 93.01049612099825,42.12425842623396 92.69339591890035,41.9239846143811 92.15933242062685,41.67364234956592 91.60857943803416,41.506747506356184 90.9076210965521,41.33985266314646 89.72266770975888,41.20633678857749 86.25125497098941,40.9559945237623 84.84933828802532,40.75572071191063 83.94810613468923,40.538757415737386 83.08025294999626,40.23834669795988 82.16233131234098,39.804420105613396 81.29447812764802,39.27035660734108 80.59351978616597,38.652845687463305 80.02607731925171,38.018645283265144 79.52539278962134,37.21755003585608 79.20829258752345,36.43314427276857 78.9913292913502,35.58198057239718 78.89119238542318,34.747506356346165 78.87450290110161,33.92972162461671 79.0580872286341,31.34285155486058 79.07477671295328,30.241345589672814 78.97463980702864,29.306734467697147 78.75767651085539,28.35543386139873 78.3905078557928,27.470891192385388 77.906512810484,26.66979594497632 77.1888649846804,25.835321728926488 76.12073798813576,24.86733163830769 74.76888975813398,23.882652063367324 73.800899667514,23.29852011213268 73.13332029467509,22.94804094139166 71.76478258035175,22.38059847447621 71.013755785905,22.146945693982587 70.24603950713907,21.98005085077286 68.74398591824796,21.77977703892 67.20855336071608,21.71301910163611 65.55629441293561,21.77977703892 62.18501858009079,22.06349827237713 60.88323880305135,22.0801877566987 60.04876458700152,22.04680878805675 58.930569137492185,21.929982397809347 57.7122367820582,21.679640132994162 56.61073081687281,21.345850446573518 55.559293304649735,20.89523436990666 54.42440837082121,20.24434448138694 53.957102809831596,19.893865310645914 53.33959188995501,19.343112328053216 53.00580220353318,18.975943672990628 52.62194406415139,18.475259143360255 52.321533346372696,17.957885129408318 52.12125953452102,17.507269052741457 51.98774365995324,17.073342460394976 51.887606754026216,16.522589477801095 51.87091726970465,15.971836495208395 51.92098572266935,15.537909902861914 52.07119108155633,15.037225373231543 52.28815437772957,14.553230327922737 52.5718756111867,14.135993219896635 52.95573375057085,13.685377143229775 53.706760545017595,13.034487254710054 54.77488754156223,12.383597366190333 55.90977247539076,11.832844383597635 58.763674294283646,10.664580481125977 61.68433405046042,9.112458439272535 62.70239259404273,8.645152878284108 63.55355629441412,8.328052676185031 64.58830432231562,8.061020927048279 65.70649977182497,7.860747115196605 67.10841645478905,7.7272312406288215 68.92757024578043,7.7272312406288215 70.76341352109101,7.89412608383855 72.5324988591177,8.177847317295683 74.05124193233037,8.56170545667865 75.35302170936981,9.012321533346698 76.75493839233391,9.613142968902906 80.72703566073375,11.632570571744775 82.27915770258957,12.350218397548387 83.78121129148069,12.91766086446265 85.049612099877,13.28482951952524 86.20118651802709,13.518482300020047 87.6364821696343,13.685377143229775 94.26220744507536,14.10261425125469 95.74757154964492,14.135993219896635 96.83238803051111,14.069235282612745 97.58341482495548,13.919029923723395 98.65154182150012,13.585240237303937 99.33581067866298,13.251450550883295 100.50407458113463,12.550492209401249 101.28848034422214,11.999739226807364 103.32459743138439,10.430927700632356 104.24251906903967,9.763348327792256 105.11037225373263,9.212595345198372 105.81133059521468,8.828737205815402 106.81269965447542,8.361431644826977 107.96427407262551,7.960884021122442 109.11584849077562,7.710541756307256 110.41762826781505,7.543646913097527 112.32022948040952,7.426820522850124 114.20614120868478,7.393441554208178 115.52461047004343,7.44351000717169 116.67618488819352,7.5770258817394724 118.54540713214722,7.927505052480496 128.12517113240818,10.347480279026898 128.9095768954957,10.497685637916248 129.67729317426162,10.597822543842085 130.26142512549745,10.631201512484031 130.8288675924117,10.597822543842085 131.61327335549922,10.447617184953922 132.21409479105662,10.213964404459116 132.79822674229246,9.896864202360039 133.31560075624202,9.496316578655504 133.84966425451552,8.978942564704752 134.25021187821886,8.49494751939476 135.3684073277282,6.926135993219752 135.83571288871545,6.342004041983922 136.35308690266737,5.82463002803317 136.8871504009385,5.424082404328636 137.5547297737798,5.056913749266046 138.43927244279433,4.723124062846589 139.27374665884415,4.539539735315294 140.22504726514256,4.439402829389457 141.1262794184763,4.439402829389457 142.14433796205861,4.539539735315294 143.245843927244,4.739813547166969 144.48086576699956,5.090292717907992 145.5823717321873,5.490840341612527 146.61711976008883,5.924766933959008 150.45570115392087,7.66047330334493 151.97444422713357,8.227915770259195 153.15939761392679,8.595084425320596 154.3610404850392,8.878805658777729 155.2789621226945,9.029011017667077 156.3804680878799,9.112458439272535 157.36514766282144,9.062389986309023 157.98265858269804,8.962253080383187 158.4833431123284,8.812047721493837 159.1509224851697,8.578394941000218 159.70167546776239,8.328052676185031 159.1676119694889,8.177847317295683 158.53341156529072,7.827368146554659 158.13286394158737,7.543646913097527 157.6989373492409,7.109720320751046 157.16487385096738,6.675793728404566 156.063367885782,5.924766933959008 155.61275180911395,5.307256014081233 154.79496707738568,4.539539735315294 154.57800378121246,4.272507986178542 154.4277984223231,4.005476237042977 154.3276615163961,3.6383075819803876 154.31097203207452,3.3045178955597443 154.3610404850392,3.0374861464241785 154.5446248125693,2.803833365930558 154.82834604602644,2.6369385227196434 155.96323097985498,2.06949605580538 157.03135797639962,1.3852271986437132 157.34845817849987,1.2183323554339844 158.2330008475144,0.9179216376552869 159.8185018580086,0.5340634982723178 160.63628658973923,0.45061607666686054 162.15502966295193,0.634200404198155 162.78923006715007,0.6675793728401008 163.59032531455915,0.5507529825938836 165.05899993480713,0.10013690592583725 165.5596844644375,0 166.47760610209278,0.016689484321565803 167.64587000456444,0.1502053588893488 168.780754938393,0.43392659234648057 172.168720255557,1.668948432100845 172.75285220679282,1.8525327596321395 173.72084229741282,2.036117087163434 174.4384901232164,2.1195645087688915 176.00730164939142,2.169632961731217 176.5079861790218,2.3031488363001857 178.29376100137006,2.6202490383992636 178.81113501531962,2.7537649129670463 179.49540387248246,3.0207966621026126 179.9627094334697,3.3045178955597443 180.4967729317432,3.955407784079465 180.8138731338411,4.205750048894651 181.2978681791523,4.406023860747512 182.59964795618936,4.823260968772426 183.0502640328574,5.073603233587613 183.5342590781662,5.424082404328636 183.9681856705127,5.82463002803317 184.2018384510075,6.1250407458118685 184.3687332942184,6.42545146358938 184.83603885520563,7.627094334701798 185.13644957298433,8.077710411369845 185.4702392594038,8.444879066432435 185.98761327335575,8.845426690135783 186.6218136775539,9.262663798161883 187.15587717582738,9.52969554729745 188.29076210965593,10.013690592607443 188.74137818632158,10.347480279026898 189.6426103396577,11.782775930634124 189.9430210574364,12.41697633483228 190.00977899472028,12.750766021252922 190.00977899472028,13.535171784340426 190.10991590064492,14.202751157180527 190.19336332225038,15.404394028294131 190.2601212595343,15.688115261751264 190.37694764978286,15.971836495208395 190.54384249299142,16.255557728665526 190.69404785188075,16.422452571875255 190.86094269509167,16.489210509159147 191.24480083447347,16.572657930764606 191.3950061933628,16.672794836690443 191.47845361496826,16.906447617185247 191.54521155225214,17.490579568419893 191.77886433274696,18.00795358237183 191.9290696916363,18.758980376817387 192.11265401916643,19.192906969163868 193.26422843731652,20.8117869483012 193.54794967077365,21.02875024447444 194.08201316904714,21.24571354064768 194.03194471608245,21.512745289784434 194.03194471608245,21.91329291348897 194.13208162200948,22.230393115588047 195.05000325966475,22.981419910033605 195.4338613990489,23.415346502380086 195.55068778929513,23.732446704479162 195.60075624225746,24.566920920528993 195.65082469522216,24.800573701023797 195.90116696003616,25.4681530738639 196.00130386596317,25.818632244604924 196.26833561509875,26.386074711519186 196.45191994263124,26.636416976334374 196.585435817199,26.753243366581774 196.9692939565808,26.920138209791503 197.8538366255953,27.470891192385388 198.9553425907831,27.938196753373813 200.25712236782016,28.7392920007817 200.5408436012773,28.972944781276503 200.8913227720183,29.356802920659472 201.09159658387236,29.67390312275855 201.191733489797,29.99100332485763 201.17504400547543,30.224656105352434 201.0081491622669,30.892235478192536 201.0081491622669,31.14257774300772 201.09159658387236,31.409609492144472 201.45876523893259,31.993741443379115 202.25986048634164,32.92835256535597 202.7772345002936,33.762826781406986 203.16109263967775,34.63067996609995 203.44481387313488,35.682117478323015 205.33072560140778,35.965838711780144 206.08175239585452,36.01590716474366 207.51704804746174,35.91577025881782 210.72142903709565,35.899080774496255 211.37231892561536,35.98252819610171 212.44044592216,36.26624942955885 213.4084360127776,36.399765304126625 213.80898363648333,36.549970663015976 214.64345785253317,37.050655192646346 215.21090031944743,37.21755003585608 217.0300541104388,38.11878218919099 217.31377534389594,38.33574548536423 218.1983180129081,39.13684073277211 218.46534976204367,39.3204250603034 219.19968707216884,39.437251450550804 220.2511245843919,39.75435165264988 221.05221983180098,39.821109589933776 222.621031357976,39.72097268400794 223.78929526044763,39.57076732511859 225.62513853575823,39.20359867005718 225.64182802007977,39.97131494882312 225.60844905143665,40.321794119564146 225.52500162983355,40.60551535302128 225.19121194341173,41.12288936697322 225.0910750374871,41.40661060043035 224.99093813156006,42.32453223808564 224.75728535106526,43.15900645413665 224.79066431970838,43.60962253080351 224.92418019427618,43.89334376426064 225.12445400612785,44.21044396635972 225.70858595736368,44.8279548862375 226.1758915183533,45.145055088336576 227.1438816089709,45.66242910228851 227.57780820131737,45.82932394549824 228.31214551144257,45.929460851424075 229.09655127453007,45.912771367103694 229.79750961601212,45.7959449768563 231.2494947519409,45.44546580611527 231.56659495403878,45.26188147858398 232.16741638959618,44.84464437055906 232.8349957624351,44.56092313710193 233.23554338614082,44.31058087228674 233.6194015255226,43.92672273290259 233.9865701805852,43.309211813026 234.27029141404233,43.0088010952473 234.62077058478334,42.87528522067952 234.92118130256205,42.841906252037575 235.63882912836567,42.90866418932146 236.72364560923185,43.125627485494704 237.257709107503,43.1923854227786 237.94197796466585,43.1923854227786 239.59423691244632,43.04218006388925 240.16167937936058,43.058869548210815 240.66236390899095,43.125627485494704 241.27987482886755,43.39265923463027 242.29793337244985,44.06023860747156 242.6984809961532,44.260512419323234 243.13240758849966,44.39402829389102 243.95019232023031,44.510854684138415 244.500945302823,44.66106004302777 246.48699393702293,45.712497555250835 246.7373362018393,46.16311363191888 247.63856835517302,47.498272377599086 248.0057370102356,48.382815046613615 248.10587391616264,48.71660473303307 248.12256340048182,49.4175630745163 248.2727687593712,50.21865832192419 248.2727687593712,50.68596388291261 248.18932133776573,51.420301193037794 247.97235804159249,52.20470695612529 247.7053262924569,52.78883890735994 246.77071517048006,54.457787339461966 246.53706238998763,55.04191929069661 246.21996218788738,56.02659886563698 246.00299889171413,56.76093617576097 245.91955147010867,57.24493122106978 245.9028619857871,57.61209987613236 246.0196883760357,57.995958015515335 246.28672012517126,58.463263576503756 246.70395723319618,58.96394810613413 247.1211943412211,59.33111676119672 248.45635308690365,60.34917530477903 248.8068322576447,60.699654475520056 249.12393245974258,61.11689158354497 249.65799595801607,62.01812373687988 250.14199100332488,62.96942434317711 250.35895429949812,63.570245778733316 250.64267553295525,64.85533607145119 250.82625986048535,65.23919421083535 251.0932916096233,65.5729838972548 251.66073407653758,66.07366842688518 252.32831344937648,66.50759501923166 253.16278766542868,66.92483212725776 254.89849403481224,67.60910098441823 255.43255753308574,67.94289067083888 256,68.3601277788638 255.0320099093824,69.96231827368075 254.11408827172474,71.38092444096759 251.37701284308042,75.2528848034416 250.89301779777162,76.05398005085067 250.35895429949812,77.13879653171688 249.5912380207322,77.23893343764271 249.09055349110182,77.23893343764271 248.42297411826053,77.10541756307494 248.02242649455718,76.92183323554363 247.55512093356757,76.58804354912299 246.75402568615849,75.83701675467744 244.81804550492328,73.90103657343984 243.76660799269783,73.04987287306844 243.0489601668942,72.59925679640158 241.363322250473,71.71471412738705 240.77919029923717,71.51444031553538 240.26181628528522,71.48106134689344 239.46072103787853,71.61457722146122 237.75839363713337,72.14864071973354 237.15757220157835,72.44905143751224 236.10613468935526,73.1333202946739 235.3717973792301,73.38366255948908 234.43718625725325,73.56724688702037 232.20079535823695,73.9177260577614 230.8322576439136,74.30158419714438 230.4817784731726,74.2848947128228 229.3969619923064,74.13468935393465 228.52910880761578,74.18475780689697 228.2286980898371,74.25151574418086 227.66125562292282,74.50185800899605 226.55974965773507,74.73551078949085 226.34278636156182,74.8857161483802 226.2259599713156,75.11936892887383 226.32609687724027,75.95384314492483 226.27602842427794,76.2876328313443 226.09244409674784,76.58804354912299 225.79203337896914,76.90514375122207 225.40817523958498,77.17217550035882 224.94086967859775,77.422517765174 223.2719212464957,77.93989177912476 222.1871047656295,78.47395527739708 221.97014146945625,78.54071321468096 221.58628333007448,78.54071321468096 220.50146684920827,78.30706043418735 220.0675402568618,78.29037094986579 217.74770193624005,78.69091857357031 216.796401329944,78.80774496381773 216.1955798943866,78.84112393245967 214.45987352500305,78.75767651085421 212.9244409674688,78.99132929134902 211.0552187235151,79.14153465023837 210.72142903709565,78.30706043418735 210.30419192907073,77.45589673381595 206.83277919029888,71.41430340960954 206.41554208227396,70.61320816220048 206.11513136449528,69.91224982071843 205.89816806832204,69.22798096355676 205.7145837407919,68.4769541691112 205.19720972684,64.70513071256303 204.79666210313664,62.75246104700387 204.12908273029535,60.516070147988756 203.5616402633811,58.88050068452986 203.16109263967775,57.92920007823144 202.8273029532559,57.31168915835485 202.49351326683646,56.82769411304486 202.14303409609542,56.41045700501994 201.7257969880705,56.04328834995736 201.27518091140246,55.74287763217985 200.64098050720432,55.442466914401145 200.25712236782016,55.32564052415374 199.5561640263381,55.208814133906344 198.85520568485606,55.19212464958596 198.38790012386644,55.24219310254947 197.90390507855764,55.409087945759204 197.35315209596496,55.70949866353671 196.85246756633458,56.04328834995736 196.40185148966654,56.44383597366189 195.88447747571695,57.02796792489772 195.36710346176503,57.745615750700146 194.79966099485077,58.696916356998564 194.31566594953958,59.614837994653854 192.3129278310181,63.85396701219045 190.14329486928807,68.04302757676471 189.67598930829845,69.12784405763092 189.42564704348445,69.77873394615064 189.19199426298965,70.62989764652204 189.05847838842186,71.28078753504175 188.9750309668164,72.14864071973354 189.00840993545953,73.03318338874806 189.1586152943489,73.83427863615594 189.342199621879,74.40172110307022 189.74274724558234,75.26957428776318 190.17667383792883,75.95384314492483 190.71073733620233,76.67149097072846 192.0959645348472,78.35712888714967 192.52989112719132,78.99132929134902 192.79692287632926,79.52539278962134 192.99719668818094,80.00938783493014 193.1474020470703,80.52676184888207 193.6313970923791,83.19707934024366 193.9818762631201,84.53223808592506 194.28228698089882,85.3500228176545 194.6494556359614,86.21787600234627 195.05000325966475,87.01897124975535 195.48392985201124,87.78668752852248 196.1681987091741,88.75467761914008 196.78570962905067,89.53908338222759 197.6201838451005,90.54045244148833 198.72168981028827,91.74209531260193 199.72305886954902,92.69339591889917 202.3433079079471,94.84633939631001 203.04426624942914,95.54729773779205 203.5616402633811,96.1814981419914 204.16246169893847,97.18286720125096 204.86342004042052,98.81843666471104 205.7145837407919,100.15359541039125 206.09844188017607,100.85455375187448 206.84946867462045,102.64032857422272 207.50035856314017,103.95879783558254 207.96766412412742,104.77658256731199 208.434969685117,105.39409348718976 209.2360649325261,106.2786361562031 209.63661255622944,106.64580481126569 211.7227980963564,107.78068974509422 212.3903774691953,108.2146163374407 213.02457787339583,108.68192189842914 213.92581002672955,109.49970663015858 214.7936632114225,110.48438620509776 215.72827433339936,111.90299237238342 216.49599061216531,113.32159853967026 217.19694895364734,114.85703109720333 217.63087554599383,116.04198448399536 217.79777038920474,116.65949540387196 217.93128626377253,117.42721168263908 217.99804420105642,118.69561249103539 217.8979072951294,119.96401329943288 217.2803963752528,124.72051633092141 217.13019101636345,126.23925940413291 217.0968120477227,127.09042310450431 217.13019101636345,127.94158680487571 217.2136384379689,128.75937153660635 217.36384379685828,129.54377729969386 217.81445987352632,130.9623834669795 218.46534976204367,132.4143686029071 220.7851880826654,137.05404524414823 223.4555055740282,141.71041136971093 224.10639546254552,142.91205424082335 224.62376947649747,143.9634917530476 225.14114349044942,145.21520307712353 225.40817523958498,146.1498141991004 225.55838059847432,147.13449377403958 225.60844905143665,148.18593128626384 225.5750700827959,150.388943216637 225.59175956711746,151.3402438229342 225.6918964730421,152.308233913553 225.8754808005746,153.12601864528247 226.20927048699406,154.22752461047023 226.6598865636621,155.31234109133527 228.7794510724298,159.48471217158797 229.3135145707033,160.68635504270156 229.79750961601212,162.0048243040614 230.11460981811,163.17308820653187 230.43171002021026,164.80865766999077 230.7821891909513,167.21194341221678 231.0158419714461,169.2647499837018 231.06591042440843,170.90031944716068 230.93239454984064,172.18540973987857 230.68205228502427,173.15339983049736 230.44839950453184,173.737531781732 230.1646782710747,174.28828476432588 229.46371992959266,175.25627485494468 228.67931416650276,176.10743855531607 227.57780820131737,177.10880761457682 225.14114349044942,179.1115457330983 224.6571484451406,179.56216180976517 224.2399113371157,180.0294673707536 223.8226742290884,180.66366777495293 223.60571093291517,181.19773127322526 223.48888454266896,181.8319316774234 223.4555055740282,182.54957950322702Z"/>
  </g>
</svg>