<?xml version="1.0" encoding="UTF-8" standalone="no"?>
<svg viewBox="0 0 204.25800789820133 256" xmlns="http://www.w3.org/2000/svg">
  <style>
    g.zone {
      fill: lightgray;
      stroke-width: 2;
      stroke-linecap: square;
      stroke-linejoin: bevel;
      stroke-miterlimit: 3;
      stroke-opacity: 0.8;
      stroke: black;
      fill-opacity: 0.3;
    }
  </style>
  <g class="zone" id="zone">
    <path d="M66.72400175515591,187.89995612110582 66.13426941641121,187.4787187362879 65.24967090829419,186.95919262834553 64.25274243089065,186.43966652040316 63.08731899956234,185.93418165862187 62.286967968407694,185.6112329969284 61.051338306276065,185.1899956121105 60.13865730583691,184.93725318121932 58.95919262834554,184.65642825800805 57.30232558139599,184.3334795963136 55.715664765247766,184.08073716542344 54.40982887231282,183.91224221149565 51.545414655551774,183.63141728828438 50.14129003949138,183.44888108819654 46.16761737604228,182.70469504168517 44.96007020623078,182.50811759543626 43.79464677490247,182.39578762615176 42.9662132514257,182.3817463799907 42.19394471259318,182.40982887231183 41.37955243527947,182.50811759543626 40.12988152698678,182.7608600263274 39.09082931110205,183.09784993418197 38.2904782799474,183.4348398420355 36.29662132514232,184.38964458095683 35.257569109259585,184.867046950417 34.10618692409034,185.31636682755607 31.087318999561592,186.39754278192197 30.39929793769146,186.69240895129434 29.823606845107836,187.0153576129878 29.27599824484434,187.4085125054846 28.784554629223106,187.8718736287847 28.293111013603863,188.44756472136933 27.015357612989046,190.16059675296214 26.215006581834402,191.12944273804254 25.06362439666516,192.32294866169397 23.84203598069459,193.4462483545411 22.2413339183853,194.73804300131596 20.38788942518686,196.04387889425192 18.8152698551997,197.0267661254934 18.099166301009436,197.40587977182912 17.43922773146143,197.70074594120246 16.779289161913425,197.9254058797715 16.077226853884223,198.10794207985933 15.417288284336218,198.22027204914383 14.616937253181575,198.3045195261082 13.956998683633568,198.3466432645894 13.142606406319857,198.33260201842936 12.412461605968533,198.2764370337871 11.724440544098401,198.16410706450156 10.671347082054602,197.86924089512922 10.067573497148853,197.60245721807803 9.562088635366552,197.32163229486574 9.112768758228503,197.04080737165447 8.607283896446203,196.64765247915767 7.652479157525853,195.7349714787185 7.161035541904615,195.13119789381275 6.655550680122316,194.42913558578357 6.2904782799486485,193.76919701623456 6.023694602896435,193.1654234313298 5.813075910486478,192.56164984642405 5.658622202720773,191.90171127687606 5.602457218078516,191.28389644580923 5.630539710400642,190.73628784554575 5.742869679685154,190.18867924528325 5.883282141289797,189.7814831066254 6.093900833699754,189.34620447564743 6.374725756911035,188.8828433523473 7.090829311101297,188.0263273365514 8.508995173322754,186.53795524352762 9.000438788941995,185.87801667397963 9.140851250548634,185.56910925844622 9.225098727513016,185.2180781044316 9.225098727513016,184.85300570425593 9.140851250548634,184.4879333040803 8.944273804299739,184.10881965774456 8.677490127249522,183.78587099605107 8.382623957877177,183.49100482667774 8.017551557701516,183.22422114962654 7.2733655111891276,182.7608600263274 5.2233435717417915,181.7639315489249 4.254497586660379,181.23036419482244 3.2294866169367107,180.5142606406322 2.3870118473008732,179.7279508556386 1.9938569548050806,179.27863097849956 1.6709082931106114,178.8293111013605 1.3620008775792005,178.3238262395782 1.0952172005269873,177.80430013163684 0.7863097849935811,177.0741553312855 0.47740236946017467,176.23168056164968 0.23870118473008733,175.4453707766561 0.09828872312544475,174.79947345326914 0,174.01316366827558 0.02808249232212575,173.35322509872756 0.16849495392676836,172.66520403685843 0.3931548924977882,172.01930671347048 0.8845985081170303,171.05046072838908 1.5164545853449058,170.01140851250534 2.0781044317694626,169.29530495831509 2.611671785871893,168.76173760421267 3.215445370777643,168.34050021939473 3.8894251864847167,168.07371654234254 4.380868802105954,167.97542781921908 4.731899956120554,167.9333040807369 5.574374725756391,167.961386573058 6.346643264590904,168.12988152698577 7.175076788065678,168.4387889425182 7.905221588417003,168.80386134269384 9.519964896885359,169.716542343133 10.404563405002389,170.1799034664321 11.19087318999597,170.51689337428664 12.11759543659619,170.811759543659 13.142606406319857,171.0083369899079 14.336112329970295,171.0785432207102 15.543659499781795,171.0083369899079 16.779289161913425,170.79771829749893 18.141290039490627,170.39052215884107 18.89951733216408,170.08161474330868 19.615620886354343,169.74462483545415 21.061869240895927,168.94427380429948 24.319438350154766,166.93637560333434 25.26020184291405,166.4449319877141 26.271171566476657,166.03773584905625 27.127687582273555,165.79903466432617 27.913997367267136,165.6305397103994 28.868802106187488,165.50416849495383 31.15752523036491,165.30759104870492 32.238701184730836,165.16717858709927 33.41816586222021,164.95655989469032 34.56954804738945,164.67573497147905 35.678806494077506,164.32470381746344 36.83018867924475,163.90346643264553 40.91619131197836,162.1202281702504 42.37648091268101,161.55857832382586 43.93505923650711,161.1092584466868 47.50153576129935,160.30890741553316 48.47038174638077,160.01404124616082 49.284774023694474,159.73321632294852 50.25362000877589,159.32602018429168 51.11013602457279,158.90478279947376 51.85432207108518,158.4975866608159 52.52830188679225,158.06230802983794 53.019745502413485,157.6831943835012 53.35673541026902,157.34620447564666 53.679684071961496,156.89688459850763 53.89030276437145,156.48968845985075 53.82009653356813,156.06845107503284 53.6375603334803,155.60508995173274 53.370776656428085,155.14172882843363 53.04782799473561,154.7204914436157 50.04300131636793,151.5612110574813 46.32207108380998,147.37691970162325 45.46555506801308,146.4642387011841 44.42650285212835,145.50943396226376 43.218955682316846,144.61079420798566 42.36243966651995,144.07722685388322 41.772707327775265,143.75427819218976 40.50899517332151,143.1926283457652 39.835015357612434,142.96796840719617 39.132953049583236,142.7713909609473 38.248354541466206,142.58885476085945 37.30759104870692,142.43440105309375 35.24352786309852,142.23782360684484 33.474330846862465,142.16761737604153 32.02808249232088,142.20974111452372 30.778411584028184,142.3361123299693 29.4866169372543,142.51864853005713 25.990346643265376,143.10838086880182 24.881088196577327,143.24879333040747 23.40675734971561,143.33304080737184 22.29749890302756,143.31899956121077 21.188240456341504,143.20666959192627 20.247476963580223,143.0802983764807 18.351908731900586,142.6871434839839 17.298815269854792,142.39227731461156 16.470381746380017,142.09741114523922 15.866608161474268,141.830627468188 15.304958315051707,141.5217200526546 14.813514699430469,141.17068889863998 14.476524791574937,140.84774023694553 14.181658622202594,140.48266783677084 13.872751206669188,139.96314172882848 13.6340500219391,139.34532689776168 13.521720052654587,138.88196577446257 13.479596314173394,138.4045634050024 13.479596314173394,137.9271610355422 13.591926283457907,137.29530495831534 13.732338745064544,136.78982009653305 13.985081175955695,136.15796401930615 14.237823606844849,135.62439666520373 15.024133391838431,134.33260201842884 15.684071961386437,133.44800351031182 16.077226853884223,132.95655989469057 16.76524791575236,132.2123738481792 17.36902150065811,131.60860026327344 20.612549363755885,128.58973233874468 22.90127248793331,126.23080298376495 23.61737604212357,125.52874067573474 24.277314611671574,124.95304958315012 24.90917068889945,124.47564721368995 25.863975427819803,123.84379113646307 26.706450197455638,123.35234752084183 28.180781044317357,122.5519964896882 29.725318121984387,121.82185168933687 31.25581395348836,121.16191311978885 32.43527863097973,120.7125932426498 37.82711715664829,118.77490127248798 41.73058358929407,117.30057042562527 43.190873189996715,116.86529179464628 44.03334795963256,116.69679684071951 44.74945151382282,116.58446687143501 46.7433084686279,116.41597191750724 49.523475208424564,116.38788942518612 52.458095655988934,116.48617814831056 55.631417288285384,116.72487933304065 70.95041684949615,118.39578762615126 73.04256252742468,118.70469504168466 74.03949100482623,118.8872312417725 75.20491443615653,119.13997367266364 76.5388328214136,119.5050460728393 77.53576129881515,119.82799473453278 78.65906099166426,120.27731461167183 79.44537077665585,120.67046950416862 80.49846423870164,121.28828433523444 81.94471259324322,122.25713032031584 85.49714787187442,124.93900833699006 87.29442738043059,126.21676173760387 88.8530057042567,127.28389644580975 90.66432645897395,128.3931548924968 94.07634927599848,130.35892935497975 96.19657744624914,131.510311540149 97.19350592365069,131.94559017112798 97.72707327775312,132.11408512505474 98.26064063185555,132.2123738481792 98.33084686265887,132.19833260201813 98.42913558578431,132.11408512505474 98.6678367705144,131.65072400175464 98.83633172444117,131.1452391399733 99.06099166301018,130.0640631856074 99.27161035542015,129.33391838525608 99.51031154015024,128.68802106186914 99.8332602018427,128.08424747696338 100.26853883282169,127.4945151382187 100.7318999561208,127.04519526107966 101.2373848179031,126.72224659938519 101.77095217200554,126.51162790697622 102.1781483106624,126.42738043001283 102.69767441860576,126.41333918385277 103.10487055726261,126.46950416849504 103.55419043440065,126.59587538394061 104.25625274243185,126.90478279947301 105.84291355857808,127.8034225537511 106.7275120666971,128.25274243089015 107.64019306713426,128.60377358490575 108.46862659061104,128.8143922773147 109.25493637560461,128.8565160157959 109.70425625274267,128.8143922773147 110.15357612988271,128.73014480035133 110.95392716103537,128.435278630978 111.30495831504996,128.25274243089015 111.69811320754775,128 112.13339183852673,127.59280386134215 112.4984642387024,127.11540149188197 112.75120666959155,126.59587538394061 112.90566037735925,126.10443176831937 112.98990785432163,125.6270293988592 113.01799034664376,125.07942079859569 112.93374286967938,123.26810004387845 112.9618253620015,122.43966652040368 113.10223782360815,121.6533567354101 113.35498025449729,120.99341816586208 113.74813514699508,120.4036858271174 114.35190873190083,119.79991224221165 115.27863097849905,119.1540149188237 116.41597191750724,118.52215884159683 117.84817902588976,117.89030276436995 118.90127248793355,117.52523036419429 119.98244844229949,117.28652917946421 121.04958315050435,117.18824045634075 122.15884159719239,117.21632294866188 123.00131636682823,117.31461167178533 123.59104870557292,117.42694164107084 124.89688459850787,117.77797279508545 126.0903905221583,118.25537516454561 126.93286529179414,118.6906537955246 127.78938130759104,119.22422114962703 128.75822729267244,119.95436594997835 129.41816586222046,120.51601579640192 130.55550680122863,121.58315050460678 131.29969284774103,122.38350153576143 131.84730144800452,123.09960508995168 132.2825800789815,123.8718736287842 132.66169372531823,124.82667836770455 132.830188679245,125.45853444493143 132.97060114085164,126.16059675296162 133.75691092584523,133.5322509872752 133.9675296182532,134.8661693725313 134.20623080298327,136.00351031154045 134.55726195699987,137.12681000438758 135.02062308029898,138.25010969723567 135.680561649847,139.35936814392275 136.31241772707287,140.1597191750764 137.08468626590738,140.9319877139099 139.1066257130326,142.65906099166276 140.06143045195293,143.57174199210192 140.83369899078545,144.45634050021894 142.20974111452372,146.29574374725732 142.47652479157594,146.5906099166297 142.95392716103612,146.9697235629664 143.43132953049627,147.23650724001763 143.76831943834983,147.37691970162325 144.42825800789782,147.4752084247477 144.91970162351907,147.41904344010544 145.35498025449806,147.2786309784988 145.7621763931549,146.99780605528753 146.01491882404605,146.68889863975411 146.1974550241339,146.2676612549362 147.5594559017111,147.37691970162325 148.57042562527369,148.34576568670468 149.98859148749514,149.79201404124626 150.7889425186498,150.9433962264145 151.35059236507234,151.9543659499781 152.12286090390486,152.810881965774 152.72663448881062,153.73760421237324 152.99341816586283,154.00438788942543 153.77972795085643,154.69240895129457 154.14480035103207,154.94515138218472 154.38350153576218,155.14172882843363 154.63624396665332,155.52084247476935 155.04344010531017,156.34927599824513 155.32426502852147,156.72838964458086 156.1948222904794,157.54278192189557 156.7845546292241,158.18867924528251 157.26195699868427,158.62395787626147 157.45853444493318,158.736287845546 157.80956559894778,158.87670030715162 158.72224659938692,159.0873189995606 159.0873189995626,159.10136024572165 159.71917507678847,158.97498903027608 160.0982887231252,158.94690653795496 160.54760860026323,159.00307152259722 160.8424747696356,159.10136024572165 161.08117595436568,159.2417727073273 161.3479596314179,159.43835015357618 162.246599385696,160.42123738481766 163.35585783238403,161.22158841597133 164.01579640193205,161.64282580078924 164.28258007898225,161.88152698551932 164.00175515577098,161.99385695480484 163.76305397104088,162.19043440105273 163.5945590171141,162.45721807810395 163.131197893813,163.31373409390085 163.0188679245285,163.59455901711212 162.99078543220836,164.0719613865733 162.93462044756612,164.29662132514233 162.41509433962275,165.0829311101359 162.14831066257253,165.54629223343602 161.89556823168138,166.1781483106629 161.811320754717,166.55726195699862 161.78323826239688,166.93637560333434 161.79727950855593,167.58227292672228 161.83940324703912,167.98946906537915 161.9236507240015,168.32645897323368 162.1202281702504,168.7055726195694 162.79420798595947,169.4076349275996 162.9767441860473,169.66037735849076 163.04695041685062,169.94120228170203 163.0188679245285,170.1377797279509 162.80824923212055,170.5309346204477 162.5555068012294,170.79771829749893 161.58666081614797,171.54190434401033 161.15138218516898,171.79464677490148 162.49934181658713,172.3282141290039 162.92057920140505,172.42650285212835 163.6086002632732,172.49670908293066 163.93154892496764,172.59499780605512 164.74594120228136,173.10048266783642 165.51820974111587,173.67617376042105 166.62746818780192,174.30802983764792 166.9925405879776,174.63097849934138 167.5682316805612,175.23475208424713 168.25625274243134,176.37209302325533 168.48091268100038,176.6107942079854 168.67749012724929,176.70908293110986 168.87406757349817,177.13032031592778 168.97235629662163,177.5515577007457 168.93023255814043,177.77621763931572 168.3124177270736,178.57656867046936 167.94734532689796,179.25054848617842 167.83501535761343,179.5454146555508 167.73672663449,180.1632294866166 167.5682316805612,180.57042562527445 167.3856954804734,180.80912681000453 166.90829311101322,181.2865291794647 166.82404563405083,181.42694164107036 166.7959631417287,181.55331285651593 166.89425186485414,181.77797279508493 167.21720052654663,182.12900394910054 167.37165423431432,182.36770513383064 167.48398420359882,182.70469504168517 167.62439666520348,183.30846862659092 167.79289161913223,183.5892935498022 167.94734532689796,183.72970601140884 168.14392277314684,183.84203598069334 169.02852128126386,184.10881965774456 169.30934620447516,184.3334795963136 169.47784115840392,184.53005704256248 169.5620886353663,184.69855199648924 169.59017112768842,184.85300570425593 169.5620886353663,185.6533567354106 169.66037735849176,185.93418165862187 169.88503729706076,186.36946028960085 169.89907854322183,186.56603773584874 169.81483106625745,186.77665642825772 169.73058358929308,186.87494515138215 169.49188240456297,187.00131636682772 168.98639754278267,187.1698113207545 168.08775778850458,187.39447125932452 167.70864414216786,187.53488372093017 167.5682316805612,187.66125493637574 167.55419043440216,187.84379113646358 167.63843791136455,188.06845107503258 167.8490566037745,188.46160596752938 168.52303641948356,189.34620447564743 168.7898200965338,189.5849056603775 169.70250109697295,190.30100921456776 170.8960070206234,191.46643264589707 171.68231680561695,192.14041246160613 171.83677051338267,192.32294866169397 171.87889425186586,192.47740236945967 171.8227292672236,192.64589732338743 171.72444054409814,192.8143922773142 171.48573935936807,193.08117595436542 171.17683194383466,193.3620008775777 170.47476963580547,193.82536200087782 169.46379991224285,194.28872312417693 168.87406757349817,194.63975427819253 168.03159280386234,195.3137340939006 167.32953049583114,196.00175515576973 166.9504168494964,196.4791575252299 166.66959192628312,197.06888986397558 166.5291794646785,197.7288284335236 166.51513821851742,198.29047827994714 166.61342694164088,198.68363317244393 166.78192189556964,199.10487055726185 167.00658183413867,199.41377797279526 167.25932426502982,199.6384379113643 167.70864414216786,199.89118034225544 168.95831505046056,200.35454146555455 169.70250109697295,200.74769635805134 170.93813075910458,201.60421237384824 171.7103992979391,202.2501096972352 172.08951294427382,202.61518209741084 172.31417288284283,202.92408951294425 172.46862659061054,203.30320315927997 172.51075032909174,203.69635805177677 172.4826678367716,204.08951294427357 172.37033786748708,204.69328652917932 172.2580078982006,205.04431768319392 172.10355419043486,205.33918385256726 171.9350592365081,205.54980254497522 171.7806055287404,205.66213251426072 171.2751206669601,205.80254497586637 170.30627468187868,205.84466871434856 166.9223343571743,205.6761737604208 165.70074594120172,205.64809126809968 165.26546731022472,205.5638437911363 164.22641509434,205.15664765247942 164.05792014041324,205.14260640631835 163.9877139096099,205.2408951294428 163.97367266344884,205.45151382185176 164.1000438788944,206.43440105309324 164.0719613865743,207.16454585344457 163.9877139096099,207.48749451513805 163.58051777095307,208.56867046950396 163.53839403246988,208.7792891619129 163.5243527863108,209.04607283896414 163.55243527863092,209.20052654673086 163.69284774023757,209.50943396226424 163.93154892496764,209.83238262395773 164.21237384817894,210.09916630100895 164.54936375603447,210.33786748573903 165.25142606406368,210.63273365511137 166.50109697235635,211.55945590171157 167.55419043440216,213.01974550241323 167.11891180342317,213.31461167178557 166.6836331724442,213.70776656428237 166.36068451075172,214.10092145677916 166.206230802984,214.3957876261515 166.06581834137737,214.7889425186483 165.981570864415,215.30846862659067 165.96752961825393,215.74374725756866 166.03773584905724,216.33347959631433 166.15006581834177,216.8530057042557 166.31856077226854,217.38657305835912 166.55726195699862,217.96226415094276 166.86616937253203,218.62220272049174 167.72268538832893,220.0824923211934 169.85695480473865,223.38218516893343 170.72751206669662,224.8003510311539 171.2751206669601,225.89556823168087 171.49978060552914,226.4712593242645 171.7103992979391,227.14523913997357 172.00526546731143,228.40895129442734 172.2158841597194,229.81307591048673 172.49670908293066,232.4387889425187 172.58095655989504,233.74462483545364 172.566915313734,234.54497586660827 172.46862659061054,235.5138218516887 172.3282141290039,236.1316366827555 172.04738920579263,236.9179464677491 171.73848179025921,237.4936375603337 171.20491443615677,238.20974111452398 170.64326458973224,238.79947345326866 169.84291355857957,239.45941202281665 169.11276875822824,239.97893813075902 168.2702939885924,240.52654673102253 164.1421676173756,242.96972356296564 162.69591926283402,243.71390960947804 161.86748573935927,244.06494076349264 160.73014480035107,244.48617814831056 159.71917507678847,244.79508556384397 158.62395787626147,245.04782799473412 157.85168933742895,245.18824045634076 156.88284335234755,245.27248793330415 155.74550241333938,245.27248793330415 153.65335673541085,245.0899517332163 152.60026327336504,245.0618692408952 151.54716981132125,245.11803422553743 148.5283018867925,245.38481790258865 147.46116717858763,245.42694164107084 146.14129003949162,245.39885914874972 145.03203159280358,245.2865291794642 143.6981132075485,245.07591048705524 140.1597191750764,244.33172444054387 138.65730583589254,243.93856954804707 137.77270732777552,243.62966213251366 137.0425625274242,243.3067134708202 136.2141290039494,242.84335234752106 135.7226853883282,242.50636243966653 135.0487055726191,241.98683633172416 134.34664326458991,241.36902150065836 132.80210618692487,239.89469065379564 132.35278630978482,239.52961825362 131.95963141728905,239.29091706888988 131.5383940324711,239.10838086880207 131.1171566476532,239.01009214567762 130.69591926283528,238.99605089951754 130.2185168933751,239.0522158841598 129.7832382623961,239.19262834576546 129.33391838525807,239.43132953049553 128.94076349276028,239.72619569986787 128.58973233874568,240.04914436156236 128.3089074155344,240.3861342694159 128.01404124616008,240.849495392716 127.83150504607423,241.2005265467306 127.63492759982533,241.72005265467297 127.50855638437976,242.19745502413315 127.43835015357644,242.73102237823556 127.39622641509524,243.29267222466012 127.42430890741538,244.09302325581376 127.56472136902201,245.1039929793764 128.01404124616008,247.22422114962703 128.18253620008883,248.1790258885474 128.26678367705122,249.1478718736288 128.26678367705122,249.70952172005235 128.22465993857003,250.10267661254915 128.12637121544657,250.59412022817037 128.000000000001,250.98727512066716 127.81746379991317,251.38043001316396 127.56472136902201,251.75954365949968 127.25581395348861,252.1105748135143 126.91882404563508,252.4194822290477 126.4414216761749,252.75647213690223 125.96401930671472,253.02325581395345 125.24791575252246,253.3181219833258 124.39139973672756,253.52874067573475 123.46467749012734,253.61298815269814 122.6643264589727,253.55682316805587 122.06055287406895,253.41641070645022 121.51294427380545,253.19175076788022 120.97937691970301,252.89688459850785 119.82799473453377,252.1386573058354 119.42079859587493,251.92803861342645 119.0416849495402,251.77358490565976 118.53620008775789,251.64721369021518 117.9885914874944,251.57700745941185 117.46906537955303,251.57700745941185 116.83720930232516,251.6331724440541 116.30364194822273,251.73146116717857 115.74199210180016,251.89995612110533 115.16630100921455,252.12461605967536 114.63273365511212,252.3773584905655 113.63580517771058,252.95304958315012 110.98200965335748,254.65204036858287 110.30802983764842,255.0311540149186 109.66213251426147,255.35410267661206 108.88986397542895,255.6489688459854 108.3282141290044,255.81746379991216 107.55594559017189,255.9578762615178 106.95217200526614,256 106.15182097411149,255.9578762615178 105.29530495831459,255.80342255375112 104.32645897323518,255.52259763053982 103.31548924967058,255.11540149188198 102.40280824923342,254.680122860904 101.57437472575664,254.1746379991227 100.9284774023697,253.65511189118033 100.49319877139071,253.17770952172015 100.26853883282169,252.81263712154447 100.0719613865728,252.30715225976317 100.01579640193054,251.8718736287842 100.04387889425267,251.33830627468177 100.14216761737612,250.94515138218497 100.36682755594514,250.45370776656375 100.66169372531948,249.99034664326462 101.09697235629646,249.4989030276434 101.82711715664779,248.86704695041652 102.82404563405133,248.2071083808685 104.12988152698628,247.49100482667825 108.03334795963205,245.46906537955203 109.42343132953138,244.68275559455844 110.32207108380948,244.09302325581376 111.27687582272983,243.36287845546244 111.88064940763557,242.77314611671775 112.40017551557695,242.11320754716974 112.72312417727142,241.509433962264 112.84949539271699,241.13032031592826 112.89161913119818,240.8775778850371 112.87757788503713,240.35805177709474 112.73716542343249,239.86660816147452 112.4563405002192,239.38920579201434 112.09126810004354,238.95392716103535 111.5998244844243,238.53268977621744 111.0522158841608,238.1535761298817 109.08644142167586,236.93198771390917 108.44054409828891,236.42650285212784 107.92101799034755,235.93505923650662 107.4295743747263,235.30320315928074 107.10662571303183,234.67134708205384 106.92408951294401,233.9833260201837 106.86792452830176,233.26722246599346 106.96621325142719,232.1579640193064 107.23299692847742,230.71171566476482 107.52786309784976,229.71478718736228 107.87889425186435,228.88635366388752 108.31417288284334,228.14216761737612 108.8758227292679,227.39798157086472 109.60596752961922,226.56954804738896 111.31899956121103,224.77226853883278 111.81044317683227,224.1825362000881 112.17551557700793,223.69109258446684 112.54058797718359,223.05923650723997 112.76524791575261,222.52566915313753 112.87757788503713,222.00614304519516 112.91970162352031,221.3321632294861 112.83545414655593,220.96709082931145 112.62483545414597,220.5037297060113 112.37209302325682,220.09653356735348 112.1053093462046,219.78762615182106 111.7121544537088,219.43659499780546 111.13646336112319,219.01535761298754 109.91487494515262,218.2992540587973 108.08951294427432,217.44273804300138 104.00351031154071,215.70162351908746 102.4449319877146,215.15401491882395 100.2264150943405,214.56428258007927 99.34181658622147,214.283457656867 98.49934181658763,213.9324265028524 97.8113207547175,213.51118911803448 97.41816586221971,213.16015796401888 97.1092584466883,212.75296182536204 96.9126810004394,212.34576568670417 96.80035103115489,211.85432207108394 96.78630978499383,211.3207547169805 96.87055726195821,210.773146116718 97.08117595436617,210.12724879333007 97.39008336989959,209.5655989469065 97.75515577007525,209.00394910048294 98.13426941641197,208.51250548486172 98.94866169372568,207.59982448442256 99.51031154015024,207.01009214567787 99.95963141728828,206.61693725318108 100.49319877139071,206.19569986836316 100.98464238701196,205.88679245282975 101.4760860026332,205.64809126809968 102.36068451075022,205.36726634488838 103.37165423431283,205.19877139096062 104.49495392716194,205.11452391399723 106.79771829749843,205.0864414216761 108.08951294427432,204.96007020623054 108.679245283019,204.847740236946 109.19877139096037,204.69328652917932 109.66213251426147,204.51075032909148 110.09741114524046,204.2720491443614 110.61693725318183,203.8788942518646 111.06625713031987,203.40149188240443 111.4453707766566,202.81175954365975 112.04914436156236,201.63229486616936 112.414216761738,201.0004387889425 112.86353663887806,200.4107064501968 113.29881526985504,199.9473453268977 113.93067134708292,199.41377797279526 114.67485739359331,198.92233435717404 115.51733216322914,198.47301448003498 116.2755594559026,198.15006581834152 120.83896445809638,196.50724001755103 121.58315050460678,196.29662132514207 122.34137779728023,196.15620886353642 123.00131636682823,196.1281263712153 123.74550241333863,196.1702501096975 126.45546292233396,196.64765247915767 127.45239139973751,196.74594120228113 128.64589732338794,196.75998244844217 129.85344449319945,196.60552874067548 130.73804300131647,196.38086880210645 131.83326020184344,195.98771390960965 133.82711715664854,195.1171566476527 135.06274681878017,194.49934181658588 136.03159280386157,193.89556823168013 136.7196138657317,193.31987713909552 137.29530495831534,192.6599385695475 137.78674857393656,191.887670030715 138.10969723563105,191.227731461167 138.4326458973235,190.3712154453711 139.58402808249275,186.8609039052211 139.82272926722285,185.84993418165848 139.78060552874166,185.1899956121105 139.6823168056162,184.72663448881036 139.5699868363317,184.43176831943802 139.2189556823171,183.87011847301446 138.92408951294476,183.51908731899988 138.61518209741135,183.21017990346647 137.99736726634453,182.7327775340063 137.225098727512,182.26941641070619 136.41070645019832,181.84817902588827 133.925405879772,180.69679684071903 133.0267661254939,180.20535322509878 132.33874506362577,179.7700745941198 131.67880649407775,179.27863097849956 131.01886792452774,178.6748573935938 130.48530057042532,178.057042562527 129.9938569548061,177.31285651601561 129.58666081614723,176.48442299254083 129.23562966213262,175.48749451513828 128.99692847740255,174.4624835454146 128.7863097849946,173.0724001755153 128.56164984642356,170.99429574374682 128.44931987713903,169.51996489688412 128.435278630978,168.57920140412483 128.53356735410344,166.73979815708645 128.49144361562225,165.91136463361067 128.37911364633572,165.49012724879276 128.2387011847311,165.16717858709927 127.95787626151781,164.68977621763912 127.67705133830653,164.33874506362451 127.36814392277313,164.0719613865733 126.82053532250963,163.6788064940765 126.32909170689038,163.39798157086423 125.89381307591141,163.18736287845527 125.06537955243662,162.87845546292186 122.34137779728023,161.99385695480484 121.4567792891632,161.62878455462916 120.57218078104417,161.22158841597133 119.42079859587493,160.6037735849055 117.06186924089617,159.11540149188272 116.20535322509927,158.63799912242155 115.40500219394464,158.32909170688913 114.42211496270416,158.14655550680132 113.72005265467295,158.13251426064025 112.83545414655593,158.301009214568 112.07722685388447,158.59587538394035 111.50153576129885,158.97498903027608 111.17858709960637,159.26985519964842 110.96796840719642,159.53663887670064 110.61693725318183,160.12637121544532 110.44844229925505,160.6458973233877 110.35015357612961,161.16542343132906 110.33611232997055,161.9236507240015 110.43440105309399,162.52742430890726 110.61693725318183,163.2154453707764 110.84159719175085,163.80517770952108 111.76831943835107,165.8130759104872 112.11935059236566,166.69767441860427 112.32996928477363,167.44186046511564 112.38613426941589,168.11584028082473 112.27380430013137,168.69153137340933 112.03510311540128,169.19701623519063 111.7121544537088,169.59017112768743 110.84159719175085,170.5309346204477 110.51864853005837,170.98025449758677 110.36419482229067,171.41553312856473 110.33611232997055,171.87889425186486 110.44844229925505,172.3703378674851 110.70118473014621,172.88986397542746 111.10838086880307,173.45151382185202 111.61386573058337,173.98508117595443 112.6107942079869,174.8275559455903 115.55945590171234,176.83545414655543 116.31768319438379,177.41114523914004 117.14611671785856,178.09916630100918 117.89030276437096,178.80122860903938 118.56428258008002,179.53137340938972 119.05572619570125,180.13514699429547 119.5050460728393,180.85125054848572 119.8982009653351,181.70776656428262 120.08073716542293,182.43791136463395 120.13690215006719,183.22422114962654 120.05265467310281,183.8982009653356 119.84203598069284,184.5581395348836 119.67354102676607,184.88108819657708 119.43483984203598,185.24616059675273 118.90127248793355,185.8358929354974 118.21325142606543,186.32733655111866 117.82009653356764,186.53795524352762 117.31461167178533,186.73453268977653 116.41597191750724,186.95919262834553 115.98069328653025,187.0153576129878 115.40500219394464,187.02939885914887 114.84335234752207,187.00131636682772 114.23957876261632,186.91706888986334 113.45326897762274,186.74857393593658 112.54058797718359,186.48179025888535 110.51864853005837,185.77972795085518 108.90390522158802,185.1057481351471 107.8227292672221,184.53005704256248 107.20491443615728,184.0947784115835 106.74155331285617,183.64545853444446 106.39052215884158,183.21017990346647 106.08161474330817,182.67661254936402 105.85695480473915,182.1430451952606 105.66037735849025,181.52523036419478 105.168933742871,179.376919701623 104.95831505046105,178.66081614743274 104.74769635805309,178.11320754716925 104.43878894251968,177.59368143922788 103.98946906537964,177.10223782360666 103.68056164984624,176.86353663887655 103.35761298815376,176.66695919262867 102.75383940324801,176.4563405002197 102.40280824923342,176.40017551557645 102.05177709521682,176.40017551557645 101.60245721807877,176.47038174637976 101.12505484861859,176.63887670030653 100.6897762176396,176.90566037735874 100.25449758666063,177.28477402369447 99.88942518648497,177.7481351469946 99.52435278630931,178.35190873189933 99.24352786309802,178.96972356296615 98.7099605089956,180.31768319438328 98.42913558578431,180.8933742869679 98.12022817025091,181.38481790258916 97.68494953927193,181.93242650285165 97.20754716981175,182.45195261079402 96.67397981570932,182.92935498025417 94.39929793769296,184.69855199648924 93.66915313734164,185.3725318121983 93.3321632294861,185.75164545853403 93.03729706011376,186.1588415971919 91.89995612110557,188.08249232119366 91.59104870557216,188.4896884598505 91.18385256691532,188.92496709082948 90.76261518209739,189.29003949100516 90.25713032031709,189.6270293988587 89.68143922773147,189.9359368143921 89.06362439666466,190.17463799912218 88.20710838086976,190.3992979376922 87.35059236507286,190.5256691531368 86.42387011847264,190.5958753839401 83.62966213251491,190.68012286090348 82.87143483984146,190.77841158402794 82.16937253181226,190.93286529179463 81.46731022378306,191.18560772268478 80.75120666959279,191.52259763053934 80.0491443615616,191.94383501535725 77.9850811759552,193.26371215445326 77.40939008336957,193.5866608161477 76.63712154453705,193.9517332163224 75.97718297498905,194.19043440105247 75.20491443615653,194.35892935498023 74.57305835893065,194.4150943396225 73.94120228170277,194.38701184730138 73.0706450197468,194.20447564721354 72.31241772707337,193.92365072400125 71.62439666520523,193.53049583150448 70.99254058797735,193.03905221588423 70.52917946467824,192.56164984642405 70.12198332602138,192.05616498464175 69.01272487933333,190.38525669153114 68.29662132514306,189.40236946028966 67.44010530934617,188.4896884598505 66.72400175515591,187.89995612110582Z"/>
    <path d="M158.97498903027608,71.46994295743752 158.68012286090374,71.9052215884155 158.46950416849577,72.38262395787568 158.37121544537032,72.93023255813918 158.39929793769247,73.49188240456373 158.60991663010043,74.33435717419857 159.45239139973626,76.37033786748584 159.76129881526967,77.31110136024513 159.92979376919843,78.26590609916647 159.97191750767962,78.75734971478671 159.9438350153575,79.3470820535324 159.83150504607298,80.11935059236492 159.3541026766128,82.09916630100894 159.1294427380438,83.18034225537487 158.7784115840292,85.90434401053126 158.58183413778028,86.943396226415 158.4133391838535,87.4488810881963 158.18867924528251,87.91224221149642 157.86573058359002,88.37560333479553 157.54278192189557,88.71259324265006 156.68626590609867,89.41465555068025 154.0184291355865,91.2681000438787 152.72663448881062,92.20886353663899 151.46292233435688,93.19175076788046 148.92145677929028,95.26985519964893 148.03685827117127,95.943835015357 146.84335234752083,96.70206230802945 146.0430013163682,97.09521720052624 145.4532689776215,97.31987713909626 144.83545414655669,97.51645458534416 144.23168056165093,97.67090829311086 143.48749451513854,97.79727950855644 142.82755594559055,97.86748573935876 142.19569986836464,97.88152698551983 141.24089512944232,97.86748573935876 138.65730583589254,97.6147433084686 137.3093462044764,97.58666081614747 135.93330408073814,97.69899078543199 132.81614743308594,98.10618692408984 131.17332163229545,98.21851689337436 129.7832382623961,98.19043440105322 128.32294866169346,97.99385695480433 124.7283896445811,97.22158841597181 123.19789381307713,96.78630978499284 122.13075910487026,96.36507240017491 121.07766564282647,95.78938130759128 120.01053093462161,95.07327775340003 117.65160157964087,93.27599824484385 116.71083808688158,92.60201842913577 115.57349714787141,91.89995612110557 114.45019745502428,91.36638876700314 113.32689776217717,90.97323387450635 112.21763931548912,90.70645019745514 110.98200965335748,90.49583150504618 108.27204914436214,90.14480035103058 107.34532689776192,89.97630539710381 106.39052215884158,89.72356296621267 105.43571741992123,89.358490566038 104.42474769635862,88.83896445809563 103.58227292672278,88.29135585783214 102.62746818780244,87.61737604212406 99.7630539710394,85.44098288723116 98.62571303203121,84.50021939447088 97.01096972356285,82.91355857832365 96.30890741553365,82.30978499341789 95.49451513821795,81.83238262395773 95.0451952610799,81.63580517770983 94.58183413778079,81.48135146994312 94.00614304519517,81.35498025449755 93.43045195261155,81.27073277753416 92.84071961386685,81.2566915313731 92.22290478280004,81.28477402369423 91.00131636682748,81.45326897762199 88.9653356735412,81.93067134708217 88.05265467310205,82.08512505484887 86.97147871873612,82.19745502413339 85.86222027205007,82.21149627029345 85.0337867485753,82.14129003949112 84.23343571742066,82.01491882404555 81.45326897762199,81.31285651601536 80.2035980693293,81.1022378236064 79.5857832382625,81.0601140851252 78.93988591487555,81.0601140851252 76.10355419043462,81.2988152698553 74.61518209741185,81.2988152698553 73.05660377358575,81.13032031592752 69.63053971040014,80.52654673102178 68.77402369460324,80.44229925405838 68.00175515577072,80.41421676173726 67.14523913997382,80.45634050021945 66.24659938569573,80.58271171566503 62.93286529179464,81.36902150065761 61.7393593681442,81.57964019306657 61.12154453707739,81.64984642386989 60.33523475208381,81.69197016235208 59.78762615182231,81.67792891619102 59.240017551558815,81.6077226853877 58.56603773584975,81.45326897762199 58.01842913558625,81.22860903905197 57.42869679684157,80.89161913119743 56.82492321193582,80.45634050021945 55.67354102676657,79.44537077665585 52.55638437911438,76.4265028521281 52.09302325581526,76.01930671347024 51.58753839403296,75.68231680561671 51.23650724001836,75.48573935936781 50.75910487055819,75.31724440544104 50.239578762614826,75.20491443615653 49.83238262395797,75.17683194383442 48.73716542343098,75.2189556823166 46.70118473014471,75.45765686704668 46.25186485300666,75.44361562088662 45.90083369899206,75.3734093900833 45.63405002193985,75.24703817463772 45.479596314174145,75.12066695919215 45.353225098728565,74.96621325142544 45.22685388328299,74.76963580517756 45.07240017551529,74.207985958754 45.002193944713966,73.44975866608154 45.01623519087303,72.73365511189128 45.086441421676355,71.97542781921882 45.64809126810091,68.9846423870112 45.98508117595445,65.60070206230779 46.153576129881216,64.74418604651189 46.46248354541462,63.73321632294829 46.72926722246684,63.1434839842036 47.03817463800024,62.56779289161898 47.4453707766571,61.949978060553164 48.44229925405864,60.54585344449277 48.933742869679875,59.70337867485693 49.34093900833673,58.84686265906103 50.22553751645576,56.6002632733658 50.54848617814823,55.94032470381779 50.82931110136151,55.44888108819655 51.250548486179426,54.845107503290805 51.74199210179867,54.26941641070618 52.34576568670442,53.73584905660375 53.00570425625242,53.258446687143575 53.497147871873665,52.977621763931296 53.93242650285264,52.7810443176834 54.40982887231282,52.61254936375563 54.97147871873737,52.48617814831006 55.46292233435662,52.4300131636678 55.96840719613892,52.4300131636678 56.47389205792122,52.48617814831006 56.96533567354046,52.58446687143451 57.849934181659485,52.89337428696791 58.87494515138315,53.42694164107034 60.06845107503359,54.255375164546116 61.79552435278646,55.64545853444445 62.49758666081566,56.16498464238681 63.36814392277362,56.71259324265031 64.42123738481742,57.232119350592676 64.95480473892185,57.414655550679505 65.5164545853444,57.56910925844621 66.02193944712671,57.66739798157066 66.63975427819352,57.70952172005285 67.21544537077715,57.70952172005285 67.79113646336077,57.639315489249526 68.49319877139196,57.49890302764389 68.92847740236896,57.37253181219831 69.6867046950424,57.07766564282597 70.55726195699836,56.65642825800805 71.30144800351076,56.235190873190135 73.68845985081163,54.73277753400629 74.57305835893065,54.26941641070618 75.40149188240542,53.91838525669158 76.18780166739901,53.66564282580043 77.01623519087379,53.4831066257126 79.61386573058462,53.18824045634025 80.72312417727066,52.99166301009236 81.35498025449854,52.80912681000453 81.94471259324322,52.58446687143451 82.45019745502553,52.35980693286548 83.02588854760916,52.03685827117101 83.68582711715716,51.60157964019303 84.12110574813615,51.25054848617843 86.2413339183848,49.25669153137335 86.83106625713148,48.76524791575211 87.43483984203723,48.315928038613066 88.71259324265006,47.543659499780546 91.05748135146973,46.36419482229017 91.80166739798213,45.95699868363332 92.64414216761796,45.42343132952989 93.24791575252371,44.96007020623078 93.86573058359052,44.42650285212835 94.28696796840845,43.94910048266817 94.82053532251088,43.275120666959104 95.95787626151906,41.70250109697194 96.39315489249803,41.15489249670845 97.02501096972392,40.45283018867925 97.65686704695179,39.82097411145237 98.33084686265887,39.203159280385556 99.48222904782811,38.2904782799474 100.67573497147855,37.53225098727495 101.71478718736329,37.01272487933258 102.58534444932124,36.70381746380017 104.3124177270741,36.226415094339 105.02852128126437,35.95963141728779 105.30934620447564,35.819218955682146 105.63229486617011,35.580517770952056 105.81483106625795,35.397981570864225 105.95524352786259,35.20140412461633 106.0675734971491,34.934620447564114 106.08161474330817,34.54146555506833 105.94120228170353,34.064063185607154 105.73058358929357,33.713032031592554 105.44975866608229,33.55857832382585 104.93023255814091,33.40412461605915 104.42474769635862,33.31987713909576 103.94734532689844,33.3058358929357 102.97849934181703,33.44624835454134 101.96752961825443,33.713032031592554 100.78806494076306,34.13426941641047 97.89556823168188,35.25756910925859 96.81439227731596,35.60860026327319 95.69109258446684,35.931548924966656 94.72224659938543,36.12812637121555 93.82360684510734,36.24045634050007 92.93900833699031,36.254497586661124 92.23694602896111,36.212373848178935 91.54892496709098,36.08600263273336 90.83282141290071,35.917507678806594 89.38657305835913,35.397981570864225 85.44098288723215,33.656867046950296 83.26458973233925,32.57569109258437 81.94471259324322,31.78938130759079 81.00394910048395,31.101360245721658 80.11935059236492,30.329091706889137 79.3892057920136,29.528740675734497 78.71522597630653,28.686265906098658 78.12549363755984,27.815708644141694 74.96621325142645,22.676612549363288 74.68538832821517,22.100921456778664 74.48881088196627,21.539271610355105 74.4045634050019,20.907415533128226 74.43264589732402,20.359806932864736 74.58709960508972,19.840280824923365 74.82580078981981,19.34883720930213 75.1768319438364,18.899517332163082 75.64019306713551,18.492321193506225 76.17376042123794,18.169372531811756 76.76349275998264,17.916630100921605 77.42343132953064,17.734093900833773 78.22378236068528,17.62176393154926 79.15050460728351,17.607722685388197 80.03510311540253,17.67792891619152 81.01799034664302,17.818341377797157 83.50329091706934,18.267661254936204 84.27555945590184,18.36594997806065 85.07591048705649,18.408073716541843 85.98859148749565,18.351908731899588 86.84510750329055,18.197455024132886 87.72970601140958,17.888547608600476 88.33347959631533,17.593681439227137 88.8530057042567,17.242650285212534 89.37253181219806,16.80737165423455 89.84993418165824,16.259763053971056 90.17288284335271,15.76831943834982 90.453707766564,15.262834576568517 90.69240895129407,14.67310223782383 91.35234752084209,12.637121544536559 91.64721369021443,11.864853005704042 92.15269855199672,10.994295743747076 92.40544098288788,10.657305835892542 92.84071961386685,10.165862220272302 93.41641070645048,9.632294866168873 94.07634927599848,9.140851250548634 94.72224659938543,8.73365511189078 96.61781483106707,7.624396665203728 97.78323826239537,6.852128126371209 98.5133830627467,6.248354541465459 98.96270293988674,5.799034664326413 100.26853883282169,4.282580078981507 101.01272487933407,3.538394032470117 101.49012724879425,3.1873628784555175 101.9394471259323,2.9205792014043017 102.34664326458916,2.7380430013164707 102.85212812637145,2.5695480473887047 103.32953049583163,2.4853005704253204 103.77885037297168,2.443176831944127 104.20008775778959,2.4712593242652554 104.74769635805309,2.5835892935497675 105.11276875822676,2.724001755155408 105.49188240456348,2.934620447564367 105.82887231241901,3.1873628784555175 106.13777972795043,3.510311540148989 106.33435717419933,3.763053971040139 106.5730583589294,4.170250109696995 106.81175954365949,4.774023694602745 106.95217200526614,5.3497147871873665 107.2751206669606,7.161035541904615 107.45765686704644,7.7507678806493026 107.73848179025971,8.438788942518437 108.13163668275551,9.168933742869761 108.45458534444998,9.632294866168873 108.90390522158802,10.179903466432368 109.43747257569245,10.699429574374733 109.80254497586611,11.00833698990814 110.42035980693294,11.443615620886122 110.95392716103537,11.738481790258467 111.50153576129885,11.991224221149617 112.13339183852673,12.201842913558576 112.6107942079869,12.314172882843089 113.22860903905172,12.398420359806472 113.72005265467295,12.384379113646407 114.11320754717075,12.32821412900415 114.57656867046985,12.187801667397514 114.96972356296565,11.963141728828488 115.23650724001787,11.724440544098401 115.60157964019353,11.247038174638226 116.4300131636683,9.646336112329935 116.89337428696741,8.902150065818546 117.39885914874971,8.228170250109477 118.85914874945236,6.473014480034484 120.50197455024085,4.2685388328214415 121.14787187362978,3.55243527863118 121.82185168933687,2.990785432206623 122.41158402808354,2.5976305397098325 123.04344010530943,2.260640631856296 123.71741992101849,2.0219394471262087 124.5318121983322,1.8534444931984426 125.40236946029017,1.7691970162350585 126.17463799912268,1.7832382623961214 126.84861781483175,1.8394032470383774 127.70513383062865,1.965774462482955 130.34488810882067,2.5274243089075115 131.4260640631866,2.7099605089953425 132.77402369460273,2.822290478279855 133.71478718736404,2.780166739797664 134.55726195699987,2.6257130320309607 135.34357174199346,2.3589293549797454 135.89118034225496,2.09214567792853 137.70250109697218,0.9828872312414775 138.34839842036112,0.6739798157080711 138.95217200526488,0.44931987713904664 139.78060552874166,0.23870118473008733 140.44054409828965,0.1263712154455751 141.11452391399874,0.042123738481193246 142.1816586222036,0 143.6981132075485,0.05616498464225612 145.14436156208808,0.21061869240895928 147.20842474769648,0.5195261079423656 148.85125054848697,0.8705572619569651 150.0026327336562,1.2075471698114997 150.7889425186498,1.5445370776650362 151.71566476524802,2.064063185607402 152.36156208863497,2.5555068012286393 153.10574813514734,3.2575691092578385 153.76568670469536,4.057920140412483 155.59104870557366,6.838086880210146 156.9109258446697,8.59324265028514 158.13251426064025,10.053532250986791 158.93286529179488,10.825800789820308 159.7472575691106,11.429574374726057 160.491443615621,11.82272926722185 161.4181658622212,12.201842913558576 163.73497147871876,12.988152698552156 164.60552874067673,13.367266344887884 165.46204475647164,13.802544975866866 166.206230802984,14.251864853005912 167.00658183413867,14.827555945589536 167.73672663449,15.417288284335221 168.49495392716145,16.133391838525483 169.23913997367382,16.919701623519064 170.12373848179087,17.944712593242734 171.05046072838908,19.11013602457204 171.80868802106252,20.16322948661684 172.31417288284283,20.935498025449355 172.7494515138218,21.693725318121807 174.322071083809,24.72663448881062 174.7433084686269,25.372531812198563 175.16454585344482,25.92014041246106 175.72619569986938,26.495831505045683 176.24572180781075,26.931110136024664 176.8494953927165,27.38043001316371 178.94164107064503,28.77051338306304 179.60157964019302,29.27599824484434 180.2755594559021,29.893813075910156 180.92145677928903,30.553751645458163 181.55331285651692,31.28389644580949 183.67354102676558,33.9657744624837 184.48793330408128,34.94866169372518 184.96533567354146,35.46818780166755 185.51294427380495,35.97367266344885 185.99034664326513,36.36682755594564 186.48179025888638,36.71785870996024 186.98727512066668,37.026766125493644 187.50680122861004,37.279508556383796 188.55989469065383,37.67266344888059 189.83764809126865,37.95348837209286 191.1434839842036,38.10794207985957 192.25274243089166,38.12198332601964 193.23562966213214,38.079859587538444 194.35892935498123,37.96752961825393 197.04080737165447,37.602457218078264 198.17814831066264,37.50416849495382 198.86616937253277,37.49012724879276 199.52610794208078,37.53225098727495 200.5651601579635,37.70074594120172 201.2391399736726,37.92540587977174 201.82887231241727,38.20623080298402 202.39052215884183,38.58534444931974 202.867924528302,39.00658183413766 203.23299692847766,39.441860465115646 203.65423431329558,40.08775778850359 203.93505923650687,40.67749012724828 204.13163668275575,41.32338745063622 204.22992540587921,41.85695480473865 204.25800789820133,42.2641509433965 204.22992540587921,43.00833698990789 204.14567792891683,43.49978060552813 204.00526546731018,43.96314172882824 203.66827555945665,44.72136902150069 203.16279069767435,45.437472575690954 202.89600702062413,45.71829749890323 202.43264589732303,46.13953488372115 201.75866608161596,46.60289600702026 200.77577885037346,47.0943396226415 199.84905660377325,47.41728828433497 198.75383940324826,47.65598946906506 197.74286967968365,47.76831943834957 194.47125932426576,47.99297937691959 192.92672224660072,48.16147433084636 191.08731899956135,48.44229925405864 188.71434839842152,48.90566037735875 184.61430451952685,49.83238262395797 182.46599385695606,50.3659499780604 181.7218078104437,50.60465116279049 181.132075471699,50.84335234752058 180.5423431329543,51.12417727073286 180.1211057481364,51.36287845546294 179.75603334796074,51.629662132514156 179.41904344010518,51.93856954804756 179.1803422553751,52.19131197893772 178.92759982448396,52.54234313295331 178.77314611671827,52.837209302325654 178.61869240895254,53.216322948661386 178.53444493198816,53.6375603334793 178.50636243966605,53.97455024133384 178.57656867046936,54.64853005704191 178.77314611671827,55.29442738042985 179.08205353225165,55.996489688460045 179.9947345326908,57.765686704695106 180.24747696357997,58.397542781921985 180.38788942518661,58.91706888986335 180.44405440982888,59.47871873628791 180.40193067134769,59.998244844229276 180.23343571742092,60.44756472136932 180.05089951733308,60.742430890741666 179.89644580956536,60.910925844668434 179.6437033786762,61.135585783238454 179.39096094778506,61.29003949100515 179.09609477841272,61.41641070644973 178.6748573935948,61.54278192189531 177.87450636244017,61.669153137340885 176.04914436156184,61.781483106625394 175.01009214567912,61.92189556823104 174.05528740675678,62.14655550680106 173.1847301448008,62.51162790697672 172.58095655989504,62.834576568670194 172.04738920579263,63.19964896884586 169.01448003510282,65.53049583150447 167.76480912681012,66.42913558578357 166.7959631417287,67.06099166300945 165.57437472575813,67.79113646336077 164.60552874067673,68.28258007898201 161.7411145239137,69.51820974111463 160.71610355419,70.037735849056 160.12637121544532,70.40280824923167 159.5085563843805,70.88021061869183 159.29793769197056,71.07678806494073 158.97498903027608,71.46994295743752Z"/>
  </g>
</svg>