<?xml version="1.0" encoding="UTF-8" standalone="no"?>
<svg viewBox="0 0 256 126.06093992081236" xmlns="http://www.w3.org/2000/svg">
  <style>
    g.zone {
      fill: lightgray;
      stroke-width: 2;
      stroke-linecap: square;
      stroke-linejoin: bevel;
      stroke-miterlimit: 3;
      stroke-opacity: 0.8;
      stroke: black;
      fill-opacity: 0.3;
    }
  </style>
  <g class="zone" id="zone">
    <path d="M151.18058185574344,111.6061284214141 150.93819934584323,112.55362368738085 150.3652952315376,113.50111895334759 150.2330865897767,113.96384919951703 150.189017042521,114.86727491822963 150.47546909967377,115.66052676880602 150.4534343260459,115.94697882595884 150.2771561370293,116.29953520399367 149.5500086073349,117.26906524358671 149.17541745567377,118.06231709416468 149.1533826820459,119.78102943707998 149.24152177655424,120.02341194697863 149.72628679635153,120.68445515579256 149.85849543811557,120.94887243931751 149.8805302117403,121.19125494921616 149.72628679635153,121.47770700636897 149.37373041831827,121.6319504217593 148.84489585126525,121.76415906352177 147.9855396798068,121.8522981580301 145.82613186434838,121.94043725253842 145.27526252367062,122.05061112067459 143.7328283697704,122.66758478223436 141.77173351695646,123.98967119986223 140.7801687037371,124.49647099328583 138.06989154760092,125.20158374935393 137.3427440179034,125.3337923911164 136.6596660354616,125.39989671199842 133.15613702875058,125.55414012738875 129.71871234291686,126.0389051471845 128.55086934067776,126.06093992081236 126.54570494061122,125.75245309003168 124.1218798416247,125.70838354277753 123.21845412291368,125.57617490101505 120.46410741952177,124.67274918230247 119.25219487003008,124.1218798416247 118.17249096229929,123.41676708555661 117.20296092270782,122.44723704596358 116.58598726114647,122.09468066792874 115.79273541057164,121.83026338440379 114.99948355999366,121.60991564813145 113.34687553796039,121.38956791186065 112.44344981924624,121.3454983646065 111.0993286279905,121.52177655362313 109.73317266311004,121.60991564813145 108.60939920812666,121.74212428989549 107.79411258392084,121.91840247891211 105.7228438629707,122.57944568772605 104.73127904975138,122.77775865037054 104.09227061456531,122.8218281976247 102.37355827164845,122.75572387674268 101.02943708039271,122.88793251850515 100.21415045619001,122.90996729213302 98.67171630228978,122.68961955586066 95.34446548459225,121.8522981580301 93.95627474608392,121.56584610087728 93.16302289550909,121.45567223274267 92.25959717679493,121.4336374591148 90.23239800310053,121.54381132725099 89.83577207781154,121.45567223274267 89.02048545360572,121.147185401962 88.64589430194458,121.10311585470784 86.28817352384165,121.6319504217593 85.62713031502771,121.67601996901347 85.14236529523355,121.6319504217593 84.59149595455266,121.41160268548852 83.82027887760567,120.70648992941885 82.71854019624703,120.17765536236897 81.96935789292478,120.00137717335076 80.66930624892477,119.9352728524703 80.09640213461915,119.847133757962 79.76588053021375,119.71492511619952 79.03873300051623,119.09795145463974 78.57600275434679,118.8555689447411 77.32002065760251,118.59115166121458 75.95386469271891,118.23859528318131 75.02840420038004,118.10638664141884 73.57410914098813,118.08435186779097 72.07574453434363,118.32673437768963 71.32656223102137,118.37080392494379 70.64348424857957,118.30469960406177 69.40953692546002,117.95214322602851 68.10948528146001,117.77586503701187 67.27216388362945,117.75383026338402 65.72972972972923,117.84196935789232 64.84833878464606,117.73179548975772 64.40764331210136,117.81993458426604 63.526252367018195,118.12842141504514 63.10759166810134,118.17249096229929 62.73300051644022,118.08435186779097 61.34480977793189,117.53348252711322 60.948183852642906,117.4673782062312 59.91254949216785,117.40127388535075 59.31761060423437,117.4673782062312 57.092098467895475,117.93010845240065 56.342916164573225,118.19452573592716 55.858151144775924,118.50301256670626 55.26321225684244,117.70976071612985 54.51402995352019,117.02668273368963 53.89705629196198,116.60802203477277 52.94956102599524,116.18936133585748 52.02410053365635,115.92494405233255 51.010500946806026,115.7486658633159 45.391633671889146,115.33000516439907 44.047512480633415,115.15372697538243 42.79153038388913,114.88930969185748 41.205026682733184,114.38250989843388 39.99311413324149,113.80960578412827 38.847305904630254,113.10449302806018 37.92184541229137,112.2892064038559 37.17266310896912,111.45188500602534 36.51161990015518,110.39421587192241 36.09295920124146,109.35858151144735 35.806507144088656,108.23480805646398 35.67429850232462,107.1330693751069 35.65226372869675,106.05336546737767 35.89464623859697,102.6379755551734 35.9166810122217,101.18368049578149 35.74040282320507,99.72938543639114 35.56412463418844,98.91409881218844 35.34377689791921,98.2750903770008 35.01325529351068,97.52590807367855 34.594594594593836,96.82079531761045 34.10982957479966,96.13771733516866 33.55896023411877,95.49870889998259 32.76570838354393,94.72749182303247 32.01652608022168,94.0884833878464 30.23170941642437,92.78843174384482 28.49096229987965,91.77483215699763 26.728180409710202,90.98158030642122 25.009468066793342,90.4307109657419 23.31279049750435,90.12222413496279 21.72628679635153,89.96798071957245 19.74315716990973,89.94594594594616 18.068514374248593,90.0120502668266 13.617490101567682,90.38664141848774 11.34790841797307,90.40867619211559 10.047856773973061,90.29850232397942 8.747805129973054,90.12222413496279 7.712170769494862,89.87984162506413 6.2578757101060845,89.43914615252099 4.627302461697544,88.7340333964529 3.3713203649532595,87.98485109313064 2.423825098986515,87.2356687898084 1.7848166637973109,86.64072990187648 1.3661559648835933,86.13393010845289 0.6830779824417966,85.14236529523198 0.19831296264449358,83.99655706662074 0,82.89481838526366 0,82.34394904458591 0.06610432088358541,81.77104493028028 0.26441728352494764,81.11000172146636 0.5508693406777571,80.47099328628028 0.9254604923388824,79.92012394560096 1.3000516440000078,79.45739369943152 1.8729557583056267,78.90652435875376 2.423825098986515,78.46582888621062 3.8340506111227004,77.60647271475219 5.332415217767202,76.8793251850578 9.100361508006317,75.33689103115758 12.956446892753748,73.28765708383531 14.300568084009479,72.67068342227553 15.424341538992856,72.25202272336026 16.52608022034837,71.96557066620744 17.583749354451292,71.74522292993666 18.707522809434668,71.56894474091845 20.117748321570854,71.45877087278384 21.26355655018209,71.43673609915598 23.841625064554243,71.56894474091845 26.573936994321432,71.92150111895329 28.821483904288183,72.42830091237688 30.738509209846402,73.06730934756452 32.41315200551067,73.75038733000476 34.616629368221695,74.80805646410768 38.49474952659699,76.81322086417578 40.58805302117497,77.73868135651622 42.37286968497228,78.39972456533016 44.55431227405858,78.95059390600792 46.36116371148375,79.23704596316072 48.74091926321454,79.45739369943152 55.9683250129121,79.8760543983468 58.34808056464289,79.92012394560096 59.36168015149009,79.83198485109264 60.353244964709425,79.63367188844815 61.23463590979572,79.3692546049232 62.35840936477909,78.92855913238006 63.460148046134606,78.28955069719399 64.67206059562943,77.51833362024387 68.55018075400473,74.56567395420903 69.82819762437687,73.7063177827506 70.75365811671575,73.15544844207284 71.87743157169913,72.58254432776722 73.17748321569914,72.05370976071576 74.74195214322722,71.59097951454632 76.04200378722723,71.34859700464767 78.3776897917023,71.12824926837688 81.2422103632304,71.04011017386856 83.59993114133333,71.06214494749486 85.56102599414727,71.26045791013935 88.02892064038637,71.7231881563088 100.67688070235945,74.91823033224229 101.71251506283451,75.11654329488678 102.7261146496817,75.24875193664926 103.49733172663183,75.29282148390341 104.24651402995407,75.24875193664926 105.28214839042913,75.05043897400633 106.0754002410071,74.74195214322566 106.84661731795723,74.32329144431037 107.52969530039589,73.79445687725891 108.23480805646554,73.11137889481869 108.76364262351544,72.47237045963104 110.23997245653521,70.40110173868092 110.85694611809342,69.62988466173081 111.54002410053522,68.94680667929057 112.39938027199365,68.30779824410294 113.52315372697701,67.75692890342519 114.71303150284085,67.38233775176406 116.12325701497704,67.16199001549327 117.57755207436894,67.1179204682391 118.6572559820966,67.18402478911956 119.93527285247187,67.38233775176406 121.10311585470784,67.64675503529057 122.75572387674424,68.15355482871418 125.09140988121932,69.07901532105305 130.15940781545842,71.37063177827552 132.1645722155281,72.11981408159778 133.72904114305618,72.60457910139351 135.315544844209,72.97917025305465 136.5274573937007,73.17748321569914 137.98175245308948,73.28765708383531 138.9953520399398,73.24358753658116 139.81063866414252,73.13341366844497 140.42761232570385,73.0012050266825 141.37510759166747,72.67068342227553 142.36667240488993,72.25202272336026 141.6615596488203,72.05370976071576 140.8242382509897,71.59097951454632 140.2954036839398,71.2163883628852 139.72249956963418,70.64348424857957 139.01738681356454,70.07058013427395 137.56309175417576,69.07901532105305 136.96815286624226,68.26372869684879 136.10879669478385,67.47047684627238 135.60199690136182,66.89757273196676 135.315544844209,66.25856429678068 135.24944052332543,65.61955586159304 135.38164916508947,65.1568256154236 135.7562403167506,64.8483387846445 137.2325701497672,64.12119125494854 138.8411086245479,63.085556894473484 139.4801170597371,62.777070063694374 140.42761232570385,62.46858323291371 142.7632983301789,61.91771389223595 143.6006197280095,61.851609571353926 145.82613186434838,62.116026854880445 146.70752280943466,62.13806162850674 147.7651919435376,61.91771389223595 149.8364606644877,61.30074023067617 150.32122568428503,61.23463590979415 150.89412979859063,61.256670683422016 152.56877259425175,61.41091409881235 153.9128937855075,61.697366155965156 156.31468411086303,62.51265278016786 158.8266483043547,63.460148046134606 159.88431743845763,63.76863487691528 161.82337751764686,64.05508693406809 163.89464623859698,64.12119125494854 162.3301773110689,63.504217593388766 160.6775692890356,62.64486142193191 157.4384575658464,61.63126183508314 155.32311929764367,60.70580134274426 154.5298674470657,60.44138405921775 153.89085901187963,60.33121019108313 153.2298158030657,60.33121019108313 151.18058185574344,60.63969702186224 150.54157342055424,60.63969702186224 149.94663453262388,60.507488380099765 148.47030469960413,59.978653813048304 147.87536581167376,59.824410397657964 147.10414873472365,59.758306076777515 145.25322775004275,59.714236529523355 144.4599758994679,59.62609743501504 143.22602857634837,59.27354105698021 141.28696849715914,58.30401101738717 138.2682045102423,57.26837665691211 137.58512652780362,57.15820278877593 136.0867619211591,57.11413324152177 133.90531933207282,56.805646410741105 132.29678085729213,56.71750731623278 131.6357376484782,56.585298674470316 130.79841625064765,56.25477707006335 129.9831296264418,55.792046823893905 129.38819073851147,55.2852470304703 128.99156481322248,54.71234291616469 128.83732139783058,54.293682217249405 128.79325185057797,53.919091065588276 128.88139094508628,53.52246514029929 129.38819073851147,52.37665691168805 129.696677569289,50.966431399551865 130.26958168359462,48.9392322258559 130.73231192976405,47.81545877087253 131.17300740230877,47.044241693922416 131.4814942330863,46.60354622138084 132.3628851781726,45.501807540023755 134.03752797383373,43.62885178171813 134.7426407299034,42.63728696849723 135.40368393871734,41.469443966259696 135.88844895851463,39.92700981235947 136.17490101566744,39.221897056291375 136.5274573937007,38.538819073851144 136.94611809261443,37.87777586503721 137.58512652780362,37.1065587880871 138.2682045102423,36.46755035290103 139.10552590807598,35.850576691341246 140.18522981580364,35.23360302978147 141.57342055431195,34.726803236356304 143.13788948184003,34.37424685832304 144.79049750387333,34.17593389567855 146.86176622482344,34.13186434842439 148.47030469960413,34.22000344293271 150.5195386469295,34.4183164055772 152.7450507832684,34.77087278361203 156.73334480977988,35.45395076605226 158.38595283181314,35.67429850232305 159.35548287140773,35.74040282320507 160.32501291100235,35.74040282320507 161.801342744019,35.56412463418844 162.52849027371337,35.365811671543945 163.29970735066348,35.03529006713698 163.93871578584955,34.550525047339676 164.3573764847664,34.04372525391607 164.57772422103562,33.58099500774664 164.68789808917182,32.96402134618686 164.64382854191922,32.369082458253374 164.44551557927474,31.619900154931127 164.9523153726999,31.487691513168652 165.54725426063024,31.4215871922882 168.14735754863338,31.355482871406178 168.58805302117497,31.31141332415202 169.11688758822487,31.13513513513539 170.06438285419162,30.694439662592245 170.57118264761678,30.38595283181314 171.67292132897228,29.482527113100552 173.413668445517,28.226545016353136 175.22051988294217,27.38922361852257 175.46290239283925,27.16887588225178 175.6391805818559,26.838354277844815 175.74935444999207,26.463763126183686 175.74935444999207,26.155276295403016 175.61714580822803,25.428128765708628 175.13238078843386,24.392494405233567 174.97813737304196,23.907729385436266 174.9561025994141,23.48906868652098 175.06627646755027,23.224651402994468 175.37476329833095,23.00430366672368 176.58667584782265,22.56360819418053 177.15957996212825,22.43139955241806 179.803752797384,22.078843174384797 180.26648304355345,21.9025649853666 180.46479600619793,21.74832156997783 180.59700464796197,21.483904286451313 180.5749698743341,21.197452229298506 180.13427440179254,19.655018075399845 179.6054398347395,18.244792563263662 179.6054398347395,17.95834050611085 179.67154415561996,17.78206231709422 179.89189189189233,17.45154071268725 180.24444826992558,17.165088655534444 181.67670855568963,16.415906352212193 181.96316061284244,16.195558615939838 182.7123429161647,15.336202444482973 184.40902048545368,13.551385780684097 185.07006369426762,12.692029609227236 185.33448097779257,12.295403683938247 185.79721122396515,11.105525908072853 186.06162850749007,9.981752453089475 186.45825443277906,9.386813565157562 187.67016698227076,8.241005336546323 188.92614907901503,7.227405749699125 190.8431743845764,5.8832845584433935 192.4517128593571,5.0900327078669845 192.8703735582739,4.759511103460017 193.61955586159618,4.010328800137767 194.5229815803072,3.3492855913238317 194.67722499569598,3.1069030814251803 194.7653640902043,2.864520571526529 194.89757273196832,1.8288862110514688 195.0958856946128,1.2780168703737116 195.602685488038,0.5067997934235992 195.99931141332382,0.11017386813461202 198.11464968152967,0 198.46720605956295,0.04406954725415794 198.88586675847978,0.15424341539033562 199.26045791014093,0.37459115166112533 199.81132725081866,0.8593561714584284 202.56567395421058,3.7018419693570954 203.3809605784133,4.406954725425188 204.10810810810767,4.759511103460017 205.98106386641643,5.222241349629458 206.818385264247,5.618867274918446 208.20657600275533,6.56636254088519 209.46255809950276,7.557927354106092 209.9693578929248,8.10879669478385 210.45412291272208,8.968152866242278 210.80667929075534,9.276639697021384 211.18127044241646,9.452917886038016 212.23893957651939,9.717335169564528 212.81184369082501,9.937682905835318 213.6932346359113,10.532621793767232 214.61869512825018,11.325873644345208 215.08142537441964,11.656395248752174 216.601824754692,12.449647099328583 217.96798071957247,13.022551213634202 218.65105870201424,13.441211912549486 218.93751075916705,13.705629196074433 219.17989326906726,14.014116026855104 219.95111034601425,15.57858495438006 220.54604923394774,16.371836804958033 222.37493544500077,17.980375279738713 224.60044758133967,20.161817868823444 225.63608194181472,20.977104493027717 227.75142021002057,22.475469099672218 228.85315889137607,23.13651230848615 229.9548975727316,23.621277328283455 232.13634016181788,24.34842485797941 233.37028748493745,24.899294198657167 234.03133069375139,25.36202444482661 234.86865209158194,26.17731106903088 235.50766052677116,26.92649337235313 235.86021690480442,27.43329316577673 236.1025994147015,27.940092959200328 236.45515579273476,29.06386641418527 236.7856773971433,29.768979170253363 237.4687553795851,30.980891719745053 238.41625064555183,32.39111723188124 238.74677224995725,32.787743157170226 239.12136340161837,33.14029953520349 241.06042348080757,34.44035117920507 241.3468755379604,34.74883800998417 241.52315372697703,35.05732484076327 241.6333275951132,35.630228955068894 241.5672232742296,36.401446032019 241.06042348080757,39.111723188156766 240.66379755551858,40.23549664314014 240.68583232914645,40.5880530211734 240.81804097090736,40.896539851954074 241.21466689619635,41.315200550869356 242.47064899294375,41.954208986055434 244.1452917886049,43.232225856429146 244.9605784128076,43.9593733861251 245.48941297986062,44.55431227405701 245.77586503701343,45.061112067480614 246.1724909622993,46.07471165432938 246.56911688758828,46.86796350490579 248.86073334481077,50.92236185229771 249.56584610087728,52.00206576002693 250.51334136684403,52.97159579962153 250.8658977448804,53.41229127216311 252.58461008779415,56.47512480633414 252.9592012394584,57.400585298674585 253.95076605267775,60.90411430538718 254.2592528834584,61.697366155965156 254.6558788087474,62.270270270269215 255.03046996040854,62.57875710104988 255.53726975383057,62.777070063694374 256,62.79910483732068 255.71354794284719,62.90927870545685 255.42709588569437,63.10759166810134 255.1847133757973,63.32793940437213 254.94233086589708,63.680495782406965 254.74401790325572,64.23136512308471 254.699948356,65.22292993630562 254.63384403511955,65.66362540884877 254.52367016698335,65.90600791874586 254.2592528834584,66.30263384403484 253.24565329660808,67.20605956274743 252.34222757789706,68.10948528146001 250.99810638664133,69.18918918918924 249.5217765536247,70.73162334308789 247.69289034257164,71.92150111895329 246.96574281287727,72.5164400068852 246.48097779307997,73.2215527629533 245.8419693578939,74.65381304871734 245.53348252711322,75.13857806851465 245.29110001721614,75.4029953520396 244.85040454467142,75.75555173007442 243.19779652263816,76.63694267515915 242.58082286107995,77.12170769495646 242.27233603029927,77.54036839387173 241.7214666896215,78.70821139610926 240.59769323463814,80.18454122912748 240.15699776209343,80.97779307970389 239.5840936477878,82.3659838182122 239.51798932690735,82.76260974350119 239.54002410053522,83.15923566879017 239.6501979686714,83.48975727319714 240.2671716302296,84.70166982268884 240.33327595111007,84.96608710621379 240.31124117748533,85.2305043897403 240.04682389395725,85.7373041831639 239.2535720433824,86.48648648648614 238.94508521260173,86.97125150628345 238.85694611809342,87.30177311069042 238.85694611809342,87.76450335685986 239.07729385436576,89.1967636426239 239.07729385436576,89.68152866241964 238.7688070235851,90.16629368221695 238.41625064555183,90.4307109657419 237.64503356860172,90.62902392838639 236.4992253399905,90.71716302289471 234.93475641246553,90.98158030642122 234.25167843002373,91.02564985367538 232.40075744534283,90.76123257014886 229.66844551557878,90.23239800309896 227.46496815286775,90.0120502668266 226.9581683594426,89.901876398692 226.49543811327314,89.74763298330167 226.12084696161202,89.52728524703087 225.79032535720663,89.24083318987806 224.15975210879807,87.52212084696122 223.78516095713695,87.05939060079177 223.49870889998414,86.59666035462233 223.25632639008393,86.08986056119716 222.92580478567854,84.72370459631513 222.77156137028976,84.41521776553603 222.48510931313695,84.28300912377355 221.42744017903402,84.0406266138749 221.0969185746255,83.84231365123041 220.78843174384795,83.57789636770546 220.01721466689784,82.58633155448456 219.201928042692,81.70494060939826 218.65105870201424,80.91168875882185 218.3866414184893,80.75744534343309 217.68152866242278,80.64727147529692 217.35100705801423,80.47099328628028 217.04252022723358,80.09640213461915 216.49165088655582,79.21501118953286 216.16112928215043,78.8624548114996 215.8746772249976,78.66414184885511 215.27973833706412,78.3776897917023 214.61869512825018,78.13530728180365 213.6932346359113,78.06920296092319 213.07626097434996,78.13530728180365 211.511792046825,78.66414184885511 208.8455844379414,79.3912893785495 206.84042003787175,80.29471509726208 204.3945601652605,81.57273196763579 202.56567395421058,82.78464451712905 201.97073506627711,83.33551385780682 201.0673093475661,84.43725253916233 200.4283009123769,85.09829574797625 199.9876054398353,85.47288689963895 199.3926665519018,85.78137373041805 198.599414701327,86.00172146668885 197.10105009468248,86.11189533482502 196.06541573420742,86.31020829746952 191.68049578240695,87.45601652607918 189.69736615596517,88.18316405577514 189.01428817352337,88.53572043380997 188.04475813393188,89.17472886899604 187.73627130315123,89.32897228438638 187.67016698227076,90.0120502668266 187.71423652952336,90.32053709760729 187.80237562403167,90.54088483387807 188.00068858667618,90.78326734377673 189.21260113616785,91.73076260974346 189.5431227405764,92.17145808228662 189.69736615596517,92.50197968669359 189.78550525047348,93.82406610431988 190.18213117576246,94.92580478567696 189.96178343949012,95.32243071096595 189.7634704768456,96.40213461869517 189.58719228782897,96.88689963849248 188.9481838526429,97.7903253572035 188.2430710965764,99.15648132208553 187.05319332070943,100.91926321225654 186.6345326217957,101.29385436391766 185.51075916681233,101.9548975727316 184.62936822172603,102.54983646066351 184.1666379755566,102.9464623859525 183.88018591840378,103.34308831124149 183.26321225684245,104.75331382337767 182.13943880185906,106.31778275090419 181.54449991392872,106.75847822344578 179.803752797384,107.72800826304038 179.407126872095,108.1025994147015 178.56980547426446,109.0941642279224 178.26131864348378,109.40265105870151 176.6087106214505,110.23997245653207 176.19004992253366,110.52642451368489 175.7934239972478,110.96711998622803 175.33069375107522,111.80444138405859 174.8679635049058,112.39938027199207 173.8543639180586,113.34687553795882 173.63401618178622,113.50111895334759 173.0831468411085,113.65536236873793 171.76106042348061,113.65536236873793 170.6593217421251,113.74350146324625 169.2490962299889,114.02995352039905 168.3456705112779,114.49268376656849 167.08968841453046,115.4622138061631 166.0099845067997,116.10122224134918 165.2828369771053,116.34360475124782 164.51161990015518,116.36563952487569 163.16749870889944,115.94697882595884 161.49285591323832,115.61645722155187 160.7877431571718,115.55035290067141 159.8622826648298,115.59442244792558 159.44362196591607,115.52831812704356 159.17920468239112,115.37407471165479 158.62833534171335,114.7791358237213 158.01136168015202,114.25030125666984 157.1960750559493,113.12652780168646 156.86555345154076,112.86211051816151 156.3367188844909,112.55362368738085 155.71974522292953,112.33327595111005 155.0587020141156,112.20106730934758 152.61284214150436,112.15699776209343 152.0619728008266,112.00275434670309 151.7314511964212,111.87054570494061 151.4449991392684,111.67223274229612 151.24668617662388,111.47391977965162 151.18058185574344,111.6061284214141Z"/>
  </g>
</svg>