<?xml version="1.0" encoding="UTF-8" standalone="no"?>
<svg viewBox="0 0 256 141.4787070742502" xmlns="http://www.w3.org/2000/svg">
  <style>
    g.zone {
      fill: lightgray;
      stroke-width: 2;
      stroke-linecap: square;
      stroke-linejoin: bevel;
      stroke-miterlimit: 3;
      stroke-opacity: 0.8;
      stroke: black;
      fill-opacity: 0.3;
    }
  </style>
  <g class="zone" id="zone">
    <path d="M62.14464277882693,34.13183632296766 62.840752598570845,33.98587781237595 63.41335906319945,33.90728476821181 64.3677031709138,33.839919301784256 64.91785448006762,33.86237445726064 65.31081970089154,33.92973992368739 66.28761896408068,34.176746633918825 67.75843164773586,34.446208499626636 69.24047190912763,34.86162887592615 70.56532608218951,35.18722863032253 70.96951888075164,35.32195956317683 72.57506249726033,35.973159071970386 72.97925529582085,36.0966624270865 73.46204113854712,36.197710626726234 74.00096486996274,36.48962764790963 74.87671593351294,36.92750317968473 75.74123941932494,37.09591684575201 76.19034252883664,37.253102934081106 77.09977632559982,37.769571510021144 77.66115521249182,38.17376430858247 77.95307223367521,38.465681329765864 78.33480987676096,38.993377483443304 78.9972369632919,39.21792903819995 79.90667076005508,39.689487303188024 80.19858778123847,39.790535502828554 80.51295995789665,39.84667339151791 80.7487390903907,39.84667339151791 81.23152493311696,39.790535502828554 81.47853164334919,39.80176308056595 81.66940046489206,39.891583702469084 81.87149686417312,40.13859041270051 82.01745537476482,40.23963861234104 82.29814481821002,40.351914389718964 82.57883426165523,40.40805227840833 82.9156615937898,40.385597122932744 83.12898557080905,40.3070040787678 83.3423095478267,40.149817990438706 83.85877812376755,39.63334941449866 84.03841936757223,39.532301214858926 85.00399105302476,39.22915661593734 85.98079031621549,39.251611771412925 86.37375553703781,39.21792903819995 86.6769001359594,39.08319810534564 86.95758957940461,38.81373623963862 87.10354808999631,38.7014604622599 87.81088548748002,38.57795710714379 88.08034735318704,38.454453752027675 88.24876101925352,38.34217797464975 88.79891232840734,37.74711635454556 89.28169817113361,37.3990614446728 89.40520152624893,37.28678566729488 89.47256699267648,37.19696504539254 89.52870488136584,37.02855137932526 89.50624972588946,36.78154466909303 89.20310512696946,36.02929696065895 89.1357396605419,35.670014473048795 89.23678786018243,34.95144949782849 89.21433270470605,34.378843033199885 89.1357396605419,33.9185123459492 89.1357396605419,33.637822902504 89.19187754923126,33.390816192271764 89.39397394851233,32.85189246085694 89.49502214815126,32.70593395026524 89.68589096969413,32.53752028419795 89.92167010218976,32.380334195868066 90.13499407920742,32.30174115170312 90.52795930003134,32.23437568527636 91.3138897416792,32.1782377965878 91.94263409499717,32.0435068637335 92.12227533880184,32.05473444147169 92.34682689355769,32.11087233016025 93.07661944651619,32.40278935134365 93.36853646769958,32.492609973246786 94.69339064076148,32.717161528002634 95.8049208368057,32.80698214990497 96.18665847989145,32.784526994429385 96.47857550107484,32.70593395026524 96.74803736678345,32.58243059514913 97.14100258760578,32.30174115170312 97.7023814744978,32.818209727643165 98.06166396210715,33.27854041489385 98.36480856102874,33.491864391912294 99.39774571290724,33.96342265690037 100.68891715275774,34.25533967808377 100.93592386298837,34.3563878777243 101.12679268453124,34.49111881057781 101.30643392833751,34.704442787596264 101.3401166615505,34.7942634094994 101.35134423928868,34.985132231042265 101.25029603964815,35.29950440770125 100.95837901846475,35.74860751721374 100.89101355203721,35.92824876101921 100.84610324108603,36.2426209376774 100.89101355203721,36.48962764790963 101.0257444848923,36.84891013551978 101.11556510679465,37.20819262312993 101.23906846190997,37.38783386693541 101.50853032761857,37.679750888118804 101.65448883820868,37.88184728739907 101.7443094601126,38.07271610894194 101.86781281522792,38.48813648524145 101.96886101486845,38.7014604622599 102.08113679224718,38.858646550589796 102.51901232402068,39.29652208236409 102.62006052366121,39.47616332616957 102.60883294592462,39.59966668128568 102.54146747949706,39.77930792509036 102.21586772510068,40.18350072365248 102.15972983641133,40.3070040787678 102.339371080216,40.50910047804886 102.69865356782695,41.20521029779358 102.87829481163163,41.41853427481203 103.56317705363895,41.80027191789777 103.83263891934597,41.9013201175383 104.10210078505459,41.9013201175383 104.89925880443903,41.76658918468479 105.84237533441518,41.67676856278165 106.45989210999656,41.57572036314192 106.79671944212953,41.47467216350139 107.17845708521686,41.30625849743411 108.17771150388238,40.61014867768939 108.67172492434523,40.32945923424338 109.4352002105183,40.048769790798175 110.748826805842,39.64457699223685 111.15301960440412,39.61089425902308 112.01754309021612,39.67825972545063 112.59014955484473,39.63334941449866 113.4995833516079,39.61089425902308 114.46515503706044,39.453708170693986 115.00407876847606,39.40879785974281 115.56545765536647,39.420025437480206 115.86860225428806,39.38634270426723 116.32893294153796,39.262839349151115 117.1148633831858,38.91478443927836 117.39555282663102,38.858646550589796 118.98986886540152,38.88110170606538 120.62909521512319,38.836191395114206 121.06697074689828,38.81373623963862 121.58343932283752,38.667777729046925 122.7847901407841,38.11762641989311 123.6605412043343,37.62361299942945 123.76158940397482,37.44397175562477 123.91877549230311,36.88259286873356 123.99736853646885,36.74786193587925 124.09841673610939,36.62435858076393 124.27805797991407,36.50085522564782 124.65979562299981,36.33244155958054 125.77132581904404,35.681242050786985 125.92851190737233,35.55773869567087 126.31024955045807,35.164773474846946 126.71444234902019,34.917766764615514 127.04004210341657,34.62584974343211 127.24213850269763,34.32270514451052 127.37686943555113,33.96342265690037 127.45546247971687,33.525547125126074 127.44423490197867,33.087671593350976 127.50037279066804,32.86312003859433 127.62387614578336,32.66102363931407 128.08420683303484,32.06596201920908 128.2526204991013,31.66176922064776 128.4434893206442,30.539011446866134 128.31998596552887,29.93272224902375 128.01684136660728,29.18047454058967 128.00561378886908,29.000833296784993 128.06175167755845,28.697688697863406 128.02806894434548,28.54050260953431 127.91579316696675,28.338406210253254 127.75860707863687,28.18122012192416 127.38809701328933,27.911758256216345 126.79303539318434,27.597386079557364 126.43375290557498,27.27178632516099 126.2653392395069,26.968641726239397 126.04078768475105,26.418490417086378 125.9621946405869,26.14902855137936 125.91728432963573,25.756063330555435 125.9734222183251,25.329415376518526 126.16429103986796,24.869084689267844 126.38884259462381,24.554712512608862 126.89408359282486,24.083154247619987 127.1410903030571,23.723871760009835 127.29827639138698,23.207403184070593 127.50037279066804,22.791982807771078 127.7136967676857,22.16323845445311 127.79228981185145,21.80395596684296 127.66878645673452,20.65874303758575 127.72492434542389,20.243322661286236 128.06175167755845,19.187930353931364 128.38735143195484,18.559186000613398 128.47717205385717,18.21113109074144 128.52208236480834,17.795710714441924 128.5894478312359,17.458883382307356 128.5894478312359,17.268014560764488 128.33121354326548,16.403491074952484 128.2863032323143,16.010525854128556 128.2863032323143,15.640015788781012 128.432261742906,14.674444103328478 128.66804087540004,14.056927327748703 128.69049603087643,13.484320863120098 128.76908907504057,13.136265953247339 128.78031665277877,12.855576509802132 128.75786149730396,12.698390421472242 128.62313056444887,12.339107933862088 128.4434893206442,11.665453269592954 128.38735143195484,10.95811587211084 128.19648261041198,10.385509407481438 128.1403447217226,10.037454497609476 128.17402745493717,9.846585676066608 128.21893776588834,9.723082320950494 128.4098065874312,9.45362045524268 128.51085478707174,9.251524055962419 128.54453752028473,8.85855883513849 128.49962720933357,8.723827902284983 128.84768211920633,8.701372746809398 129.35292311740736,8.589096969430676 129.81325380465884,8.443138458838977 130.04903293715287,8.319635103722863 130.55427393535393,7.994035349326486 131.99140388579454,6.949870619709007 133.86640936801027,5.726064646286852 134.56251918775578,5.209596070347606 135.11267049690798,4.704355072145756 135.56177360642127,4.232796807156882 137.06626902328944,2.5374325687466506 137.60519275470347,1.9985088373310231 138.1441164861191,1.538178150081139 138.7391781062241,1.1003026183060414 139.41283277049322,0.7073373974821133 140.05280470154938,0.41542037629871503 140.72645936581853,0.2020963992802619 141.3327485636601,0.06736546642675396 142.00640322792924,0 142.69128546993656,0.011227577737393444 143.30880224551635,0.08982062190233862 143.89263628788314,0.21332397701845313 144.43156001929717,0.3705100653475457 147.2496820314906,1.369764484013855 148.0131573176621,1.5943160387697017 148.79908775930994,1.7851848603125702 149.7422042892861,1.964826104118045 150.84250690759214,2.110784614709744 151.76316828209352,2.1893776588746894 153.00942941099126,2.234287969825859 152.96451910004006,2.267970703038837 152.9196087890889,2.357791324941973 152.90838121135073,2.6047980351734044 153.00942941099126,3.2335423884913705 153.0880224551554,3.503004254199184 153.31257400991282,3.9184246304986967 153.53712556466868,4.513486250602887 153.68308407526038,4.816630849523679 153.84027016359028,5.074865137493301 154.46901451690823,5.973071356519081 154.6598833384511,6.410946888294178 154.88443489320696,6.781456953641723 154.9630279373711,6.961098197447199 155.00793824832226,7.354063418271127 155.2661725362927,8.387000570150414 155.3784483136714,9.240296478224227 155.73773080128078,10.598833384500688 155.71527564580597,11.182667426866688 155.59177229068908,11.665453269592954 155.56931713521428,11.878777246611406 155.61422744616544,12.608569799569903 155.6928204903296,13.214858997412284 155.76018595675714,13.405727818955153 155.88368931187247,13.574141485022436 156.35524757686053,14.000789439059343 156.5573439761416,14.259023727028966 156.75944037542266,14.607078636901724 156.95030919696552,15.022499013201237 157.08504012981905,15.482829700451122 157.37695715100244,16.66172536292211 157.3881847287406,16.908732073154336 157.35450199552764,17.13328362791098 157.23099864041075,17.559931581947886 158.27516337002743,18.637779044778345 158.64567343537655,18.884785755010572 159.39792114380984,19.26652339809631 159.70106574273143,19.468619797376572 160.0266654971278,19.749309240822576 160.3522652515242,20.142274461645705 160.94732687162917,21.085390991622656 161.4750230253066,21.770273233629982 161.6322091136365,22.039735099337797 161.72202973553883,22.354107275995982 161.84553309065416,23.465637472040214 161.9353537125565,23.71264418227244 162.51918775492328,24.756808911889124 162.73251173194254,24.992588044383957 163.03565633086254,25.205912021402412 163.3837112407353,25.329415376518526 163.88895223893795,25.34064295425592 164.394193237139,25.262049910090976 165.16889610104866,25.037498355335128 165.4046752335427,25.015043199859544 165.66290952151311,25.04872593307252 165.93237138722014,25.138546554975658 166.44883996315937,25.351870531994113 168.98627253190762,26.508311038989515 169.53642384105984,26.643041971843022 170.0416648392625,26.68795228279419 170.38971974913366,26.654269549580416 170.69286434805525,26.586904083153662 171.71457392219713,26.18271128459234 172.53418709705798,25.924476996622715 173.30888996096763,25.812201219244795 174.54392351212718,25.733608175079848 175.06039208806644,25.621332397701128 175.4196745756774,25.48660146484762 175.7003640191226,25.34064295425592 176.73330117100107,24.68944344546237 176.94662514802033,24.599622823560033 177.19363185825256,24.58839524582184 177.81114863383235,24.711898600937953 178.65321696416797,24.7904916451029 179.1809131178454,24.880312267005237 180.86504977851823,25.306960221042942 181.3253804657697,25.452918731633844 181.6172974869531,25.598877242225544 181.774483575283,25.733608175079848 182.17867637384353,26.28375948423287 182.56041401692926,26.6767247050568 183.503530546907,27.395289680277102 183.78421999035223,27.57493092408178 184.2333230998639,27.777027323362837 185.6929082057809,28.315951054777667 186.25428709267132,28.473137143107557 186.79321082408694,28.54050260953431 187.19740362264906,28.52927503179612 187.4331827551431,28.473137143107557 187.6015964212096,28.360861365728837 187.66896188763712,28.22613043287533 187.66896188763712,28.147537388710383 187.6128239989478,27.979123722643102 187.4444103328813,27.754572167887254 186.95039691241683,27.350379369325932 186.57988684706928,26.97986930397759 186.34410771457365,26.710407438269776 186.23183193719652,26.418490417086378 186.2430595149347,26.261304328757284 186.31042498136068,26.12657339590298 186.46761106969058,26.003070040787662 186.6809350467082,25.902021841147132 187.6015964212096,25.610104819963734 189.06118152712656,25.228367176877995 190.06043594579208,25.071181088548105 191.2056488750493,25.00381562212135 191.45265558528152,25.015043199859544 191.65475198456258,25.059953510810715 191.9354414280078,25.16100171045124 192.26104118240417,25.329415376518526 192.9459234244115,25.812201219244795 193.14801982369255,25.902021841147132 193.3501162229736,25.946932152098302 193.57466777772947,25.958159729835696 194.28200517521157,25.87956668567155 194.7198807069867,25.87956668567155 196.8531204771728,26.12657339590298 197.80746458488713,26.39603526161079 198.0095609841682,26.49708346125132 198.53725713784564,26.867593526599666 198.96390509188254,27.080917503618117 199.41300820139583,27.204420858734235 199.95193193280986,27.305469058373966 199.73860795579222,28.37208894346703 199.49160124556,29.292750317968395 199.3231875794919,29.66326038331594 198.84040173676564,30.348142625323266 198.68321564843734,30.62883206876847 198.40252620499214,31.302486733037608 198.32393316082639,31.672996798385952 198.24534011666225,31.86386561992882 198.11060918380872,32.0435068637335 197.5716854523931,32.51506512872237 197.39204420858843,32.70593395026524 197.3022235866845,32.93048550502108 197.16749265383098,33.43572650322294 196.8418928994346,34.176746633918825 196.66225165562994,34.51357396605339 196.302969168019,35.00758738651785 195.7079075479156,35.53528354019529 195.58440419279867,35.681242050786985 195.23634928292591,36.3885794482691 195.05670803912125,36.905048024209144 194.94443226174252,37.14082715670318 194.77601859567602,37.354151133721636 194.4055085303285,37.71343362133179 194.28200517521157,37.870619709661675 194.21463970878563,38.14008157536949 194.2483224419986,38.63409499583315 194.21463970878563,38.93723959475394 193.83290206569987,40.18350072365248 193.63080566641884,40.66628656637795 193.5185298890401,40.83470023244523 193.33888864523541,41.0255690539881 192.84487522477096,41.36239638612267 192.00280689443534,42.05850620586739 191.68843471777558,42.417788693478336 191.46388316301972,42.78829875882588 191.37406254111738,43.113898513223056 191.351607385641,44.10192535415038 191.37406254111738,44.59593877461484 191.50879347397088,45.718696548396466 191.4975658962327,46.17902723564715 191.45265558528152,46.3811236349282 191.32915223016622,46.65058550063522 191.14951098635993,46.94250252181862 190.9249594316041,47.211964387526436 190.6218148326825,47.47019867549606 189.82465681329805,47.986667251436096 189.11731941581593,48.62663918249146 188.84785755010734,48.81750800403432 188.4324371738086,48.98592167010161 187.7475549318013,49.13188018069331 187.3096794000262,49.25538353580942 186.5462041138547,49.648348756633354 185.5694048506656,50.063769132932066 185.16521205210347,50.176044910310786 184.8171571422307,50.19850006578637 184.45787465462135,50.11990702162143 183.73930967940103,49.83921757817622 183.2228411034602,49.7269418007975 182.49304855050332,49.63712117889516 182.01026270777703,49.59221086794399 181.59484233147674,49.60343844568218 181.28047015481854,49.648348756633354 181.0559186000611,49.704486645321914 180.80891188983045,49.805534844962445 179.8882505153291,50.35568615411547 178.5746239200038,50.98443050743343 178.08061049953935,51.25389237314124 177.23854216920373,51.6019472830132 177.37327310205723,51.893864304196605 177.5753695013383,52.23069163633117 177.78869347835595,52.51138107977717 178.0020174553752,52.72470505679563 178.33884478750977,52.97171176702706 178.69812727512073,53.16258058856993 179.57387833866932,53.40958729880216 179.79842989342677,53.4994079207045 179.92193324854208,53.589228542607636 180.11280207008494,53.7800973641505 180.4720845576959,54.3639314065165 180.58436033507303,54.47620718389522 180.70786369018992,54.55480022805937 181.0446910223245,54.63339327222431 181.59484233147674,54.62216569448692 182.32463488443523,54.57725538353575 183.58212359107117,54.38638656199208 183.85158545677817,54.38638656199208 184.05368185605923,54.43129687294405 185.76027367220846,55.34073066970723 186.80443840182514,55.744923468268546 187.20863120038567,55.947019867549606 187.7475549318013,56.30630235515976 188.33138897416808,56.845226086574584 188.5896232621385,57.01363975264187 188.84785755010734,57.10346037454421 189.65624314723155,57.27187404061149 190.35235296697547,57.53010832858191 191.13828340862335,57.88939081619207 192.00280689443534,58.18130783737546 192.26104118240417,58.30481119249078 192.9571510021497,58.7090039910529 194.16972939783446,59.27038287794331 194.51778430770563,59.50616201043735 195.00057015043188,59.94403754221245 195.58440419279867,60.55032674005483 195.89877636945846,60.93206438314057 196.57243103372758,61.88640849085491 196.93171352133695,62.279373711678836 197.38081663085023,62.69479408797835 196.92048594359875,63.13266961975345 196.5612034559894,63.53686241831477 196.302969168019,63.88491732818673 196.08964519100132,64.24419981579689 195.94368668040963,64.59225472566965 195.8538660585073,64.9627647910172 195.80895574755613,65.33327485636553 195.8314109030309,65.70378492171388 195.94368668040963,66.17534318670195 196.1233279242143,66.64690145169003 196.34787947897016,67.06232182798954 196.5836586114642,67.4103767378623 196.92048594359875,67.825797114161 197.33590631989907,68.24121749046053 197.67273365203363,68.49945177843014 198.23411253892405,68.8475066883029 198.7056708039121,69.07205824305875 199.3231875794919,69.19556159817486 199.95193193280986,69.25169948686423 200.65926933029357,69.18433402043748 201.490110082891,69.004692776632 204.18472873996754,68.17385202403378 206.23937546598793,67.63492829261814 208.55225647997872,66.99495636156279 209.11363536687074,66.89390816192225 209.596421209597,66.84899785097109 210.09043463005986,66.86022542870847 210.58444805052432,66.92759089513603 211.359150914434,67.14091487215448 212.20121924476962,67.47774220428906 214.73865181351786,68.78014122187615 217.19749133810038,69.85798868470661 218.20797333450247,70.36322968290845 219.03881408710149,70.84601552563473 219.79106179553636,71.35125652383658 222.63163896320302,73.45081356080813 223.31652120521034,73.87746151484504 223.88912766983896,74.15815095829105 224.57400991184628,74.3714749353095 225.19152668742606,74.47252313495002 225.73045041884168,74.50620586816301 227.67282136748494,74.51743344590119 228.26788298758834,74.55111617911417 228.86294460769332,74.62970922327912 229.87342660409703,74.85426077803577 230.83899828954955,75.20231568790773 231.31055655453764,75.41563966492618 231.9168457523792,75.73001184158517 232.82627954914238,76.30261830621457 233.71325819043076,77.02118328143487 234.3981404324381,77.71729310117959 234.88092627516437,78.30112714354559 235.4086224288418,79.05337485197967 235.94754616025583,79.90667076005428 237.09275908951463,81.82658655322115 237.69904828735622,82.7697030831973 238.12569624139314,83.37599228103969 238.67584755054696,84.09455725625999 239.15863339327322,84.6671637208886 239.85474321301714,85.41941142932268 240.3599842112198,85.89096969431155 241.12345949739125,86.49725889215313 241.95430024998868,87.02495504583057 242.79636858032592,87.41792026665449 244.61523617385225,88.10280250866103 245.19907021621904,88.37226437436884 245.91763519143936,88.78768475066835 246.25446252357392,89.05714661637616 246.49024165606795,89.25924301565642 246.8495241436789,89.70834612516971 247.07407569843477,90.11253892373104 247.22003420902647,90.55041445550613 247.2873996754524,91.07811060918357 247.24248936450124,91.69562738476334 247.09653085390954,92.26823384939195 246.8719792991537,92.80715758080758 246.56883470023212,93.28994342353384 246.2993728345251,93.61554317793022 246.05236612429286,93.86254988816245 245.78290425858586,94.07587386518091 245.3899390377619,94.32288057541314 244.77242226218215,94.61479759659653 243.04337529055815,95.27722468312747 241.98798298320327,95.74878294811555 240.9325906758484,96.35507214595793 240.11297750098757,96.96136134380032 239.7649225911148,97.28696109819668 239.5066883031444,97.55642296390451 239.27090917065033,97.88202271830168 239.14740581553502,98.09534669532013 238.99021972720513,98.52199464935704 238.911626683041,98.91495987018097 238.9003991053028,99.1731941581506 238.96776457173036,99.52124906802254 239.09126792684566,99.95912459979765 239.22599885969916,100.32963466514599 239.49546072540778,100.8910135520364 240.27016358931584,102.3505986579534 240.46103241085873,102.7884741897277 240.59576334371383,103.2038945660272 240.71926669882913,103.74281829744284 240.7754045875185,104.28174202885766 240.86522520942083,106.13429235559778 240.943818253585,107.06618130783654 241.16836980834242,108.44717336958858 241.39292136309828,109.41274505504113 241.68483838428168,110.35586158501808 241.99921056093987,111.1979299153537 242.369720626289,111.95017762378778 242.89741677996645,112.81470110959978 244.2671812639795,114.6672514363399 244.87347046182268,115.63282312179243 245.4123941932367,116.72189816236109 246.27691767904872,118.90004824349758 246.68111047761082,119.78702688478516 247.10775843164774,120.59541248190781 247.71404762949092,121.52730143414736 248.26419893864315,122.27954914258065 248.7245296258946,122.85215560721005 249.7911495109861,124.04227884741843 250.73426604096383,124.98539537739538 253.36151923161282,127.45546247971528 254.237270295163,128.34244112100288 255.04565589228565,129.25187491776603 255.58457962370127,130.00412262620011 255.74176571203117,130.2848120696453 255.88772422262286,130.64409455725547 255.96631726678703,130.93601157843887 256,131.23915617736046 255.97754484452523,131.49739046533008 255.88772422262286,131.77807990877528 255.75299328976777,131.99140388579374 255.58457962370127,132.14858997412364 255.36002806894385,132.28332090697714 255.09056620323682,132.37314152887947 254.82110433752982,132.41805183983067 254.5404148940846,132.44050699530703 254.1137669400461,132.40682426209327 253.74325687469855,132.3394587956665 253.14819525459515,132.17104512959924 252.3510372352091,131.83421779746465 251.8008859260569,131.53107319854306 250.74549361870203,130.8911012674877 250.15043199859704,130.5879566685669 249.58905311170662,130.39708784702404 249.09503969124216,130.34094995833468 248.66839173720527,130.35217753607208 248.34279198280728,130.40831542476144 247.99473707293612,130.50936362440197 247.68036489627633,130.6328669795181 247.35476514187997,130.80128064558536 247.04039296522177,131.00337704486563 246.75970352177498,131.2279285996223 246.42287618964042,131.54230077628125 246.19832463488456,131.82299021972648 246.0186833910799,132.10367966317247 245.8839524582264,132.37314152887947 245.77167668084766,132.67628612780106 245.7267663698965,132.9569755712463 245.7155387921583,133.21520985921592 245.74922152537127,133.4734441471863 245.82781456953703,133.72045085741775 245.98500065786692,134.05727818955233 246.22077979036095,134.3941055216869 247.590544274374,135.9771939827192 248.01719222841092,136.52734529187222 248.421385026973,137.1336344897146 248.67961931494185,137.61642033244087 248.9041708696993,138.11043375290532 249.07258453576577,138.64935748432015 249.1624051576681,139.18828121573577 249.1624051576681,139.5924740142971 249.07258453576577,140.00789439059662 248.9041708696993,140.34472172273118 248.71330204815644,140.56927327748704 248.48875049339898,140.7489145212925 248.11824042805145,140.92855576509717 247.6017718521122,141.09696943116447 247.08530327617294,141.198017630805 246.22077979036095,141.28783825270733 245.2664356826466,141.31029340818293 234.70128503135808,141.29906583044553 208.0470154817777,141.43379676329903 196.93171352133695,141.42256918556163 193.2041577123819,141.4787070742502 192.39577211525926,141.43379676329903 191.65475198456258,141.28783825270733 191.27301434147685,141.15310731985383 190.95864216481706,140.98469365378654 190.72286303232303,140.79382483224367 190.55444936625653,140.56927327748704 190.453401166616,140.37840445594415 190.3411253892373,140.08648743476076 190.0379807903173,138.78408841717447 189.76851892460868,138.07675101969156 189.55519494759105,137.68378579886763 189.29696065962062,137.31327573352007 188.99381606069903,136.9539932459099 188.64576115082787,136.61716591377535 188.09560984167405,136.17929038200026 187.55668611025843,135.8200078943901 186.81566597956333,135.4045875180906 184.7834744090177,134.32674005526013 184.1098197447486,133.9225472566988 183.30143414762594,133.3499407920702 180.1577123810361,130.99214946712823 179.1809131178454,130.21744660321858 178.47357572036327,129.53256436121205 178.17043112144168,129.1845094513393 177.91219683347288,128.80277180825354 177.63150739002765,128.31998596552728 177.35081794658245,127.7136967676849 177.1374939695632,127.1186351475807 176.94662514802033,126.36638743914664 176.89048725933097,125.86114644094478 176.87925968159277,125.26608482084059 176.94662514802033,124.61488531204704 177.1711767027762,123.17775536160643 177.19363185825256,122.70619709661835 177.1711767027762,122.0549975878248 176.9915354589715,120.96592254725616 176.6883908600499,119.55124775229113 176.3964738388665,118.46217271172249 176.1270119731595,117.66501469233724 175.80141221876312,116.91276698390395 175.29617122056047,115.969650453927 174.77970264462124,115.12758212359059 174.11727555809028,114.12832770492507 172.61278014122212,111.95017762378778 171.5012499451779,110.40077189596924 170.4683127932994,109.01977983421719 169.51396868558507,107.8633393272218 169.06486557607178,107.36932590675814 168.37998333406443,106.67321608701342 167.65019078110595,106.02201657821986 167.1337222051667,105.60659620192035 166.50497785184874,105.14626551466966 166.05587474233704,104.86557607122447 165.05662032366993,104.33787991754703 164.2145519933343,103.97859742993687 163.18161484145423,103.58563220911294 161.9353537125565,103.17021183281423 160.80136836103748,102.84461207841706 159.77965878689557,102.57515021270925 158.92636287882178,102.38428139116637 158.19657032586326,102.26077803605025 157.28713652910008,102.14850225867234 156.48997850971566,102.09236436998297 155.56931713521428,102.06990921450739 154.79461427130462,102.09236436998297 154.01991140739494,102.14850225867234 153.35748432086402,102.24955045831287 152.66137450111847,102.39550896890456 151.98771983684935,102.59760536818483 151.2130169729397,102.87829481163084 150.6179553528363,103.17021183281423 150.28112802070171,103.3723082320945 149.86570764440143,103.6529976755397 149.51765273453026,103.95614227446129 148.90013595894888,104.59611420551664 147.54159905267403,106.21288539976273 147.04758563220955,106.72935397570197 146.49743432305573,107.23459497390382 145.9697381693783,107.65001535020335 145.5430902153414,107.95315994912413 144.28560150870706,108.7278628130338 143.3537125564675,109.21064865576007 142.21972720494688,109.74957238717569 141.26538309723256,110.14253760799882 140.35594930046938,110.45690978465781 139.67106705846365,110.63655102846327 138.7391781062241,110.80496469453057 137.80728915398453,110.8947853164329 136.94276566817254,110.9060128941711 135.65159422832363,110.79373711679237 134.77584316477342,110.64777860620067 133.87763694574843,110.45690978465781 131.64334897592337,109.86184816455362 127.78106223411325,108.70540765755821 126.80426297092252,108.46962852506418 125.88360159642116,108.30121485899689 124.70470593395098,108.16648392614339 123.11038989518048,108.08789088197844 121.49361870093519,108.08789088197844 119.62984079645608,108.20016665935636 118.95618613218853,108.22262181483194 118.18148326827887,108.17771150388077 117.42923555984399,108.04298057102727 116.65453269593432,107.80720143853323 115.89105740976285,107.47037410639867 115.35213367834723,107.17845708521527 113.53326608482088,106.08938204464661 112.30946011139952,105.43818253585306 111.66948818034336,105.17994824788344 110.95092320512306,104.98907942634058 110.37831674049445,104.92171395991382 109.70466207622532,104.91048638217563 107.23459497390462,105.16872067014525 106.28025086619029,105.20240340335903 105.32590675847594,105.14626551466966 104.43892811718915,104.98907942634058 103.86632165255895,104.82066576027329 103.24880487697918,104.60734178325484 101.10433752905645,103.69790798649167 100.36331739835977,103.40599096530826 98.23007762817524,102.75479145651471 97.53396780842972,102.4965571685451 97.06240954344165,102.28323319152584 96.59085127845357,102.00254374808064 95.0751282838472,100.98083417393954 94.53620455243318,100.64400684180497 93.82886715494948,100.31840708740779 93.18889522389492,100.11631068812754 92.59383360378992,100.08262795491376 91.88649620630781,100.08262795491376 89.22556028244425,100.34086224288339 85.59905267312975,100.41945528704832 84.8018946537437,100.47559317573769 84.15069514495094,100.55418621990184 83.14021314854725,100.7450550414447 81.99500021929003,101.01451690715251 80.46804964694549,101.44116486118942 76.83031445989279,102.53023990175807 75.87597035217846,102.7884741897277 74.78689531160902,103.03548089995992 73.40590324985776,103.26003245471657 72.2045524319112,103.38353580983268 71.29511863514801,103.40599096530826 70.77865005920877,103.3723082320945 70.40813999386123,103.32739792114332 69.89167141792039,103.18143941055162 69.46502346388348,102.95688785579497 69.11696855401073,102.67619841234978 68.75768606640136,102.23832288057467 68.54436208938212,101.82290250427596 68.38717600105382,101.39625455023825 68.08403140213223,99.95912459979765 67.94930046927873,99.46511117933399 67.76965922547245,99.04969080303447 67.51142493750362,98.64549800447315 67.17459760536906,98.31989825007598 66.80408754002151,98.09534669532013 66.2427086531295,97.89325029603907 65.8160606990926,97.82588482961232 65.41186790053207,97.88202271830168 64.96276479101878,98.00552607341699 64.67084776983539,98.11780185079571 64.34524801543901,98.286215516863 63.75018639533402,98.73531862637549 62.7621595544067,99.70089031182802 62.30182886715522,100.09385553265196 61.66185693610066,100.49804833121327 61.20152624884918,100.70014473049353 60.83101618350163,100.83487566334784 60.11245120828133,101.02574448489071 59.393886233061025,101.14924784000682 58.60795579141317,101.23906846190916 56.407350554801084,101.41870970571384 54.790579360555796,101.67694399368426 52.72470505679723,102.10359194772117 51.7479057936065,102.3393710802152 51.10793386255034,102.55269505723366 50.501644664708756,102.83338450067966 50.22095522126355,103.02425332222253 49.94026577781675,103.28248761019215 49.70448664532271,103.59685978685114 49.58098329020739,103.86632165255895 49.46870751282867,104.3715626507608 49.446252357353885,105.61782377965854 49.37888689092633,106.22411297750013 49.289066269024,106.57216788737288 49.15433533617049,106.96513310819681 48.97469409236581,107.34687075128255 48.783825270822945,107.67247050567893 48.49190824963954,108.08789088197844 48.244901539407316,108.37980790316183 47.941756940485725,108.69418007982082 47.58247445287478,109.0085522564798 47.22319196526542,109.26678654444943 46.863909477654474,109.49133809920527 46.437261523617565,109.70466207622452 45.85342748125077,109.94044120871855 45.10117977281749,110.15376518573702 44.31524933116963,110.29972369632871 43.43949826762103,110.36708916275546 42.473926582168495,110.35586158501808 41.497127318977775,110.28849611859052 39.33020481557867,110.00780667514532 38.47690890750486,109.92921363098037 37.62361299943104,109.8843033200292 35.90579360554363,109.85062058681622 35.11986316389737,109.79448269812686 34.25533967808536,109.64852418753516 33.795008990833885,109.51379325468166 33.49186439191389,109.37906232182735 33.07644401561358,109.12082803385772 32.717161528004226,108.80645585719874 32.42524450682083,108.41349063637482 32.21192052980158,107.98684268233791 32.06596201920988,107.54896715056282 31.942458664094563,106.92022279724485 31.897548353143392,106.38129906583002 31.830182886715843,105.13503793693228 31.762817420289885,104.652252094206 31.684224376124142,104.3715626507608 31.549493443270634,104.05719047410182 31.425990088155316,103.85509407482076 31.19021095566128,103.57440463137556 30.79724573483735,103.22634972150279 30.325687469849274,102.923205122582 28.708916275602395,102.10359194772117 28.00157887812028,101.71062672689723 27.485110302181035,101.34011666154969 27.181965703259447,101.07065479584188 26.76654532696073,100.63277926406678 26.384807683874996,100.13876584360312 25.082408666287893,98.1290294285331 24.476119468444715,97.28696109819668 23.746326915486218,96.46734792333585 23.229858339546972,95.99578965834777 22.7583000745589,95.61405201526205 22.006052366125616,95.08635586158461 21.20889434673957,94.61479759659653 20.524012104732243,94.25551510898558 18.43568264549888,93.25626069032008 17.458883382308155,92.7622472698564 15.269505723434264,91.51598614095786 13.877286083944824,90.66269023288406 12.361563089338471,89.66343581421854 11.51949475900285,89.03469146090058 10.834612516995524,88.43962984079559 10.138502697251601,87.72106486557529 9.565896232621402,87.02495504583057 9.139248278584494,86.4074382702508 8.656462435858227,85.55414236217698 8.387000570151212,84.90294285338344 8.151221437657174,84.11701241173557 7.848076838735585,82.36551028463599 7.702118328143886,81.7592210867936 7.4551116179116566,81.13047673347643 7.107056708040494,80.52418753563406 6.556905398886675,79.90667076005428 6.276215955441468,79.64843647208386 6.096574711636791,79.51370553923034 5.276961536775956,79.01969211876589 3.6040524538413092,78.16639621069208 3.053901144687491,77.81834130081931 2.7507565457659013,77.5713345905879 2.4700671023206944,77.29064514714189 2.2230603920884655,76.98750054822109 2.0209639928074057,76.67312837156211 1.8525503267409196,76.34752861716574 1.7065918161492204,75.89842550765245 1.627998771985073,75.48300513135374 1.6167711942468819,75.14617779921916 1.627998771985073,74.6633919564929 1.6953642384110292,74.15815095829105 2.0883294592349575,72.10350423226986 2.1556949256625093,71.19407043550669 2.0995570369731484,70.54287092671314 1.785184860313368,68.8699618437785 1.6953642384110292,68.14016929082 1.65045392745986,67.20828033858123 1.6167711942468819,64.9627647910172 1.54940572781933,63.738958817595034 1.4259023727040134,62.72847682119133 1.1901232402099755,61.50467084776918 0.2582342879704202,57.934301127143236 0.10104819964052984,57.06977764133123 0.011227577738191212,56.22770931099481 0,55.40809613613398 0.08982062190393415,54.33024867330352 0.31437217665978073,53.24117363273487 0.6399719310561571,52.21946405859378 0.8982062190265773,51.57949212753762 1.1901232402099755,50.98443050743343 1.515722994606352,50.38936888732924 1.8750054822157065,49.8616727336518 2.178150081137296,49.479935090566066 2.526204991010055,49.13188018069331 2.9079426340957917,48.83996315950991 3.2223148107539767,48.64909433796704 3.536686987413758,48.514363405113535 3.862286741810134,48.413315205473005 4.210341651682893,48.35717731678364 4.59207929476863,48.323494583570664 5.232051225824787,48.35717731678364 6.9161878864976245,48.5592737160647 7.488794351126231,48.57050129380289 8.162449015395365,48.503135827375345 8.77996579097514,48.34594973904625 9.307661944652576,48.11017060655221 9.734309898689483,47.784570852155035 10.026226919872881,47.43651594228308 10.239550896890536,47.032323143721754 10.37428182974564,46.61690276742224 10.464102451647978,46.1004341914822 10.520240340337338,45.29204859435956 10.509012762599147,44.427525108547556 10.452874873909787,43.61913951142491 10.12727511951341,41.27257576422033 10.037454497611073,40.3070040787678 10.082364808562241,39.29652208236409 10.217095741415749,38.555501951668205 10.363054252007448,38.027805797990766 10.576378229025103,37.48888206657594 11.003026183063605,36.6804964694525 11.51949475900285,35.92824876101921 12.945397131705269,34.176746633918825 13.327134774791006,33.581685013814635 13.697644840140146,32.818209727643165 13.888513661683016,32.22314810753897 14.023244594536523,31.571948598745422 14.079382483225883,31.044252445067986 14.19165826060301,29.22538485154084 14.30393403798173,28.416999254418197 14.550940748213959,27.47388272444125 14.910223235823313,26.530766194465098 15.359326345336601,25.64378755317751 15.60633305556883,25.250822332353582 16.021753431867545,24.678215867724976 16.605587474234344,24.027016358931427 17.256786983027094,23.476865049778404 17.863076180870273,23.09512740669267 18.73882724442047,22.679707030393157 19.91772290689066,22.24183149861806 21.253804657690736,21.80395596684296 22.073417832551574,21.579404412087115 22.702162185869536,21.444673479232808 25.28450506556736,21.018025525195903 26.485855883513928,20.75979123722628 27.372834524802315,20.51278452699405 28.02403403359507,20.288232972237406 29.618350072365565,19.65948861892024 30.595149335556293,20.782246392701865 31.033024867331388,21.20889434673877 32.48138239551019,22.196921187666888 33.581685013816234,22.99407920705214 33.795008990833885,23.1961756063324 34.18797421165782,23.645278715845688 34.65953247664589,24.03824393666882 35.198456208061515,24.40875400201716 35.658786895313,24.655760712249393 36.130345160301076,24.80171922284109 38.33095039691315,25.217139599139806 39.10565326082282,25.34064295425592 40.13859041270131,25.610104819963734 41.182755142319586,25.74483575281724 41.48589974123958,25.82342879698219 41.78904434016117,25.946932152098302 42.552519626332646,26.306214639708454 42.799526336564874,26.463400728037545 43.664049822376874,27.2493311696854 44.52857330818888,27.88930310074076 45.21345555019621,28.630323231436652 45.55028288233078,28.86610236393069 45.786062014824815,28.96715056357122 46.010613569580656,29.02328845226058 47.00986798824617,29.135564229638504 47.503881408710626,29.135564229638504 48.63786676023124,29.034516029997974 48.95223893688943,29.056971185474357 49.244155958072824,29.146791807376694 49.50239024604325,29.303977895705785 49.726941800799096,29.52852945046243 49.92903820008015,29.854129204858808 50.33323099864068,30.62883206876847 50.524099820183544,30.887066356738096 51.00688566290981,31.291259155300214 51.691767904917135,31.7515898425501 52.06227797026469,31.931231086355574 52.432788035613825,32.06596201920908 53.723959475462735,32.30174115170312 54.206745318189,32.43647208455742 54.62216569448772,32.627340906100294 55.307047936495046,33.02030612692422 56.21648173325822,33.28976799263124 56.519626332179804,33.40204377000996 56.85645366431437,33.592912591552825 57.3953773957284,33.94096750142479 57.698521994649994,34.086926012016484 57.96798386035701,34.15429147844324 58.24867330380381,34.19920178939521 59.98894785316442,34.30024998903494 61.740449980264806,34.210429367132605 61.965001535020654,34.187974211657014 62.14464277882693,34.13183632296766Z"/>
  </g>
</svg>