<?xml version="1.0" encoding="UTF-8" standalone="no"?>
<svg viewBox="0 0 256 204.1385376580526" xmlns="http://www.w3.org/2000/svg">
  <style>
    g.zone {
      fill: lightgray;
      stroke-width: 2;
      stroke-linecap: square;
      stroke-linejoin: bevel;
      stroke-miterlimit: 3;
      stroke-opacity: 0.8;
      stroke: black;
      fill-opacity: 0.3;
    }
  </style>
  <g class="zone" id="zone">
    <path d="M127.62470221733474,154.08319589517953 127.92963166574974,154.78687923767544 128.25801722558205,156.0535092541684 129.14934945940973,157.55470038482608 129.29008612791026,158.8447865127347 129.54810335349063,160.34597764339236 130.08759391607205,161.7768004398015 130.46289169873563,163.25453545904188 130.74436503573335,164.0989554700366 130.74436503573335,164.52116547553481 130.53326003298423,165.57669048927866 130.53326003298423,166.0458127176098 130.62708447865347,166.58530328018958 131.11966281840026,168.43833608209522 131.09620670698297,170.0333516584188 131.28385559831474,171.88638446032445 131.14311892981425,173.41103170239944 130.86164559281656,174.34927615906008 130.46289169873563,174.9591350558901 129.12589334799577,176.3665017408819 128.35184167124794,177.3751145317928 127.97654388858436,178.102253985706 127.71852666300397,179.11086677661524 127.48396554883756,179.6034451163637 127.24940443467115,179.81455011911112 126.94447498625615,179.90837456477868 126.21733553234294,179.90837456477868 124.95070551585167,179.62690122777934 121.69030602895589,178.71211288253434 121.22118380062307,178.59483232545278 120.82242990654217,178.59483232545278 120.40021990104395,178.6886567711187 120.18911489829819,178.8059373282019 118.99285321605217,179.67381345061227 118.28916987355626,180.07256734469317 117.51511819681177,180.42440901594114 116.90525929998178,180.56514568443998 116.08429540040267,180.63551401869023 114.63001649257959,180.42440901594114 112.87080813633817,180.47132123877407 111.3461608942665,180.4009529045255 109.8918819864401,180.70588235294048 108.3906908557824,180.75279457577344 107.66355140186919,180.84661902143932 106.2561847168774,181.12809235843702 105.20065970313522,181.50339014110227 102.47975077881752,183.30951072017498 101.96371632765342,183.70826461425588 101.3304013194061,184.31812351108587 100.3217885284952,185.60820963899448 100.1341396371634,185.91313908740946 100.08722741433212,186.2415246472401 100.15759574858072,186.59336631848808 100.69708631116212,187.90690855781398 100.79091075682803,188.3525746747278 100.79091075682803,188.93897746014218 100.60326186549622,189.4550119113046 100.2514201942466,189.92413413963575 99.68847352025122,190.53399303646577 97.6008796041775,192.3635697269541 96.73300348176711,193.7005680776973 96.05277625068852,194.4746197544418 94.01209455744942,196.18691588784858 93.40223566061941,196.84368700751156 93.07385010079044,197.2893531244254 92.48744731537441,198.34487813816924 92.34671064687724,198.74363203225013 92.27634231262532,199.494227597579 92.04178119846223,199.7287887117454 91.66648341579865,199.79915704599398 90.44676562213864,199.58805204324656 89.55543338831095,199.6349642660795 88.99248671431224,199.79915704599398 87.98387392340133,200.3386476085754 87.53820780648915,200.5028403884899 85.40370166758414,200.71394539123898 84.77038665933684,200.87813817115514 83.50375664284554,201.323804288069 83.05809052593004,201.4176287337349 81.86182884368735,201.4410848451522 79.84460326186554,201.27689206523604 79.02363936228645,201.3472603994863 78.15576323987605,201.5349092908181 77.47553600879746,201.79292651640014 76.86567711196746,202.19168041048104 75.52867876122426,203.57559098405554 75.10646875572604,204.11508154663528 74.12131207623246,203.7397837639717 73.06578706249027,203.45831042697233 71.96334982591348,203.29411764705785 70.74363203225347,203.2237493128076 69.66465090709399,203.29411764705785 68.72640645043168,203.4348543155567 67.9758108851045,203.64595931830578 66.7560930914445,204.1385376580526 65.2549019607868,201.98057540773195 64.90306028953718,201.62873373648398 62.90929081913269,200.15099871724195 61.736485248307304,199.65842037749513 59.906908557817296,199.56459593182925 57.4674729704973,199.6115081546622 54.793476269014214,199.44731537474604 53.47993402968831,199.28312259483155 51.4157962250319,198.86091258933334 48.24922118380202,197.94612424408834 46.23199560198022,197.1955286787595 44.75426058273983,196.421477002015 44.30859446582432,196.3980208905977 43.60491112332842,196.56221367051384 43.18270111783021,196.6091258933468 42.59629833241752,196.46838922484795 42.127176104088036,196.0930914421827 41.564229430092645,195.3894080996868 40.74326553051354,194.7795492028568 38.53839105735995,192.45739417262166 37.08411214953354,191.07348359904552 36.84955103536713,190.62781748213166 36.80263881253584,190.11178303096756 37.03719992670225,187.32050577240128 37.31867326369995,185.58475352757884 37.50632215503174,184.95143851933153 37.69397104636354,184.64650907091652 37.99890049477854,184.36503573391883 39.500091625436234,183.30951072017498 40.10995052226623,183.00458127175997 41.16547553601175,182.67619571192768 41.63459776434124,182.4181784863473 41.96298332417354,182.06633681509933 42.080263881253416,181.7848634781 42.033351658422134,181.29228513835318 41.86915887850765,180.70588235294048 41.095107201759824,179.22814733369844 39.805021073851236,176.43687007513213 39.38281106835303,175.82701117830214 38.350742166028155,174.79494227597394 37.81125160344674,174.20853949056124 37.482866043614436,173.69250503939713 37.08411214953354,172.80117280556945 35.62983324171046,170.99505222649674 34.879237676379944,169.77533443283676 34.33974711379853,169.0247388675079 33.80025655122045,168.4617921935125 32.74473153747494,167.5470038482675 32.41634597764596,167.12479384276932 32.158328752062246,166.46802272310637 31.994135972147756,165.38904159794686 31.853399303647244,164.99028770386596 31.54846985523224,164.6149899212007 30.774418178487753,163.86439435587187 30.49294484149006,163.34835990470776 30.399120395824163,162.94960601062687 30.281839838740957,161.98790544255058 30.305295950158264,160.4867143118912 30.25838372732365,160.25215319772647 30.094190947409164,160.04104819497738 29.765805387576854,159.80648708081262 28.03005314275275,158.98552318123353 26.599230346346975,158.49294484148672 25.825178669599154,158.32875206157058 25.144951438520565,158.30529595015494 23.409199193696455,158.63368150998556 22.70551585120056,158.70404984423584 21.60307861462376,158.72750595565148 20.430273043798373,158.65713762140288 20.430273043798373,158.11764705882314 20.312992486715167,157.39050760490994 20.00806303830017,156.38189481399903 19.67967747846786,155.79549202858632 19.28092358438696,155.2325453545893 18.22539857064478,154.20047645226273 17.193329668316572,153.40296866410094 16.090892431739775,152.76965365585363 14.730437969582594,152.06597031335775 10.57870624885579,150.14256917720184 8.373831775702197,148.89939527212618 7.247938427708092,148.1018874839644 6.2627817482145,147.2809235843853 5.582554517135908,146.60069635330672 4.831958951805395,145.73282023089465 4.010995052229624,144.489646325819 3.330767821147699,143.10573575224453 2.8851017042355185,141.8625618471672 2.439435587320005,140.17372182517772 2.2048744731569276,138.81326736301887 1.899945024741927,136.70221733553117 1.4542789078264131,131.91717060655873 1.4073666849917976,129.8999450247386 1.5715594649096185,126.82719442917295 1.524647242075003,125.6778449697632 1.3839105735778232,124.9741616272673 1.0789811251628227,124.20010995052115 0.6098588968300013,123.40260216235934 0,122.67546270844781 1.1493494594114126,121.59648158328666 2.0875939160737222,120.89279824079075 3.049294484150006,120.35330767821101 4.0813633864782135,120.0249221183787 5.18380062305501,119.83727322704691 6.239325636797192,119.86072933846421 6.731903976543988,119.81381711563127 8.491112332785402,119.34469488730011 10.719442917356304,118.99285321605217 12.619387942094898,118.96939710463485 14.425508521167593,118.7113798790528 16.44273410298939,118.64101154480421 19.022906358806576,118.35953820780485 19.093274693055168,117.65585486531062 19.257467472972987,117.13982041414651 19.750045812719783,116.27194429173447 20.52409748946427,115.28678761224087 20.805570826461963,114.81766538390971 21.016675829211067,114.23126259849703 21.204324720542864,113.03500091625433 21.462341946126582,112.30786146234112 22.166025288622482,110.85358255451638 22.775884185452483,110.14989921202047 22.963533076784277,109.86842587502278 23.38574308228248,108.32032252153047 23.831409199194663,107.00678028220624 24.957302547188768,105.08337914605033 25.40296866410095,104.05131024372213 26.059739783765565,101.54150632215354 26.31775700934595,100.04031519149584 26.50540590068108,99.54773685174905 26.92761590617595,98.72677295217161 27.044896463259157,98.2811068352561 27.25600146600826,96.3811618105175 27.209089243176976,95.51328568810712 27.068352574676464,94.50467289719622 28.123877588418647,94.64540956569506 28.757192596665956,94.59849734286212 29.24977093641275,94.48121678577891 29.671980941910956,94.31702400586275 30.164559281657752,94.01209455744775 30.469488730072754,93.73062122045006 30.774418178487753,93.33186732636916 31.008979292654164,92.79237676378942 31.17317207256865,92.20597397837506 31.59538207806686,88.85175004581171 31.806487080815963,87.67894447498632 32.111416529230965,86.45922668132633 32.60399486897776,85.02840388491722 33.260765988639044,83.45684442001094 34.26937877954994,81.41616272677183 36.755726589701226,76.982957669049 38.51493494594264,73.60527762506835 39.26553051126982,72.3386476085754 40.10995052226623,71.16584203775001 41.07165109034252,70.11031702400616 42.17408832691932,69.1251603445109 43.37035000916534,68.23382811068322 44.66043613707394,67.43632032252141 45.809785596482016,66.89682975994167 47.56899395272343,66.28697086311168 49.726956203042405,65.79439252336321 51.67381345061562,65.53637529778283 53.9490562580178,65.41909474069962 56.10701850834011,65.46600696353256 57.9835074216614,65.65365585486437 60.35257467472948,66.05240974894527 62.41671247938589,66.56844420010937 65.02034084662039,67.36595198827116 66.70918086860988,67.97581088510117 69.19552867876116,68.98442367601206 76.39655488363798,72.2213670514922 80.14953271028054,73.81638262781746 82.77661718893235,74.84845153014399 92.37016675829454,78.43723657687374 94.92688290269442,79.53967381345055 96.73300348176711,80.43100604727823 98.2107385010075,81.25196994685734 99.66501740883392,82.16675829210068 102.66739967014931,84.30126443100568 104.21550302364162,85.49752611324837 105.8105185999652,86.85798057540723 111.18196811434868,91.68993952721262 112.3547736851774,92.53435953820737 113.4572109217542,93.09730621220442 113.97324537291497,93.2849551035362 114.20780648708138,93.2849551035362 114.74729704966279,92.83928898662236 115.14605094374369,92.32325453545826 115.47443650357266,91.66648341579531 115.59171706065587,91.24427341029877 115.70899761773907,90.32948506505377 115.68554150632177,89.50852116547466 115.52134872640728,88.42954004031517 115.2633315008269,87.51475169507017 114.81766538391139,86.55305112699223 114.25471870991599,85.63826278174723 113.5275792560028,84.70001832508657 112.47205424225727,83.57412497709248 111.15851200293137,82.35440718343413 110.0091625435233,81.41616272677183 108.69562030419739,80.45446215869389 107.0536925050392,79.37548103353438 99.99340296866623,75.2706615356422 93.91827011178353,71.47077148616334 89.95418728239184,69.07824812167796 88.68755726589723,68.18691588785026 88.03078614623594,67.62396921385321 87.63203225215504,67.17830309693936 87.32710280374005,66.73263698002552 87.09254168957364,66.26351475169436 86.92834890965915,65.72402418911462 86.83452446399325,64.83269195528692 86.74070001832736,62.60436137071602 86.59996334982684,61.783397471136915 86.31849001282914,60.96243357155948 85.66171889316453,60.09455744914743 84.65310610225363,59.20322521531973 84.20743998534145,58.92175187832037 83.45684442001094,58.569910207072425 82.68279274326645,58.335349092907684 81.69763606377286,58.100787978742936 80.03225215319733,57.913139087409476 75.15338097856066,57.56129741616152 73.18306761957348,57.27982407916383 71.91643760307886,56.974894630748835 70.69671980941887,56.55268462525229 69.40663368151027,55.94282572842229 68.18691588785026,55.19223016309344 67.20175920835668,54.32435404068139 66.40425142019488,53.433021806853695 65.70056807769897,52.307128458859594 65.2549019607868,51.2046912222828 64.9499725123718,50.0084295400401 64.80923584387128,48.835623969213046 64.78577973245397,47.6862745098033 65.04379695803769,44.05057724024227 65.06725306945167,42.502473886749954 64.87960417811988,40.954370533259315 64.5512186182909,39.64082829393341 64.29320139270718,39.00751328568777 63.894447498626285,38.23346160894162 63.1438519332991,37.13102437236482 62.11178303097089,35.98167491295507 60.5167674546473,34.64467656221353 58.5933663184914,33.30767821147199 57.162543522082295,32.48671431189288 56.2712112882546,32.04104819497904 55.286054608761006,31.64229430089814 54.27744181785011,31.29045262965019 52.16639179036241,30.797874289903394 50.54792010262151,30.610225398569934 48.38995785230253,30.516400952904036 46.06780282206574,30.610225398569934 41.329668315926234,31.00897929265083 39.500091625436234,31.03243540406814 38.327286054610845,30.98552318123519 37.03719992670225,30.868242624151986 35.60637713029315,30.610225398569934 34.26937877954994,30.258383727321984 32.72127542606096,29.695437053326597 31.313908741069167,28.9917537108307 30.42257650724147,28.452263148249287 29.765805387576854,27.95968480850249 28.56954370533416,26.833791460510053 28.006597031338774,26.153564229429797 27.65475536008916,25.61407366685005 27.115264797507745,24.394355873190047 26.904159794761977,23.62030419644556 26.833791460510053,23.0339014110312 26.85724757192736,22.25984973428671 26.974528129010565,21.60307861462376 27.209089243176976,20.89939527212786 27.420194245922747,20.453729155214017 28.076965365587363,19.538940809969013 29.015209822249673,18.624152464724013 30.047278724574547,17.897013010812472 31.54846985523224,17.076049111233367 36.52116547553815,14.988455195161311 40.625984973430334,12.807036833425025 42.50247388675162,11.986072933845922 43.53454278907983,11.634231262597972 44.70734835990522,11.32930181418297 46.044346710648426,11.07128458860092 47.217152281473815,10.930547920102073 48.88253619204933,10.836723474436175 50.26644676562382,10.860179585853484 52.79970679860972,11.02437236576797 54.5589151548478,11.258933479934381 55.8724573941737,11.493494594099126 58.006963533078704,12.03298515667887 59.83654022356871,12.666300164926179 61.806853582555895,13.510720175920925 67.38940809968847,16.34890965732016 69.57082646142808,17.35752244823106 71.68187648891579,18.155030236392857 73.69910207073758,18.717976910389908 76.18544988088887,19.140186915888115 78.71870991387478,19.37474803005286 86.41231445849505,19.820414146966705 88.94557449148095,19.867326369799656 90.02455561664044,19.773501924133758 91.08008063038262,19.562396921384654 92.29979842404262,19.187099138721063 93.54297232911993,18.624152464724013 95.86512735935673,17.14641744548196 100.43906908557841,13.721825178670027 101.6587868792384,12.947773501923873 103.3476269012279,12.056441268096178 104.7315374748024,11.493494594099126 105.90434304563111,11.118196811435535 107.2882536192056,10.836723474436175 108.55488363569688,10.64907458310438 111.15851200293137,10.461425691772584 113.87942092724907,10.391057357522328 115.82627817482228,10.437969580355277 117.91387209089267,10.64907458310438 120.54095656954448,11.141652922851176 125.34945940993256,12.408282939344128 134.59116730804513,14.66006963533067 135.57632398753873,14.824262415246825 136.74912955836746,14.941542972328364 137.54663734652925,14.918086860912723 138.48488180318822,14.777350192413875 139.28238959135,14.566245189664773 139.98607293384592,14.237859629832464 140.73666849917643,13.792193512918617 141.46380795308966,13.205790727505924 142.05021073850233,12.61938794209323 142.6131574124977,11.939160711012972 144.18471687740734,9.73428623785938 144.8414879970686,8.913322338280274 145.38097855965003,8.350375664284888 146.13157412497722,7.740516767454888 147.04636247022222,7.201026204875142 148.10188748396774,6.778816199376936 149.18086860912723,6.473886750961936 150.4474986256185,6.286237859630141 151.99560197911083,6.239325636797192 153.42642477551993,6.3331500824630895 154.9979842404262,6.6146234194607825 156.4757192596666,7.013377313541681 157.7658053875752,7.435587319039887 159.2904526296502,8.02199010445258 164.356972695622,10.320689023272072 166.18654938610868,11.094740700018228 168.0630382994333,11.751511819681177 169.77533443284008,12.244090159427973 171.41726223199495,12.595931830675923 172.94190947406997,12.783580722007718 174.2085394905646,12.807036833425025 175.66281839838766,12.642844053508872 177.02327286054816,12.267546270845282 178.38372732270537,11.704599596848228 177.63313175737485,11.493494594099126 176.74179952354714,11.00091625435233 176.17885284955176,10.602162360271432 175.56899395272177,9.99230346344143 174.81839838739126,9.38244456661143 173.27029503390227,8.326919552867581 172.63698002565496,7.4590434304555275 171.48763056624688,6.380062305296039 171.08887667216598,5.8405717427162935 170.92468389224817,5.465273960051037 170.83085944658225,5.113432288803087 170.80740333516496,4.644310060471932 170.85431555799957,4.362836723474239 170.9950522265001,4.104819497892188 171.34689389774636,3.823346160894495 172.91845336265266,3.0492944841483394 174.63074949605945,1.9468572475715424 175.07641561297496,1.7122961334067983 176.31958951805228,1.2900861279085922 178.80593732820356,0.7036833424958988 179.41579622503357,0.6333150082456424 179.97874289902896,0.65677111966295 181.83177570093625,0.8913322338276941 182.72310793476396,0.9382444566606429 183.84900128275805,0.7740516767461554 186.47608576140652,0.023456111417307735 187.46124244090345,0 188.86860912589526,0.11728055708320537 189.94759025105475,0.30492944841500064 190.8858347077137,0.5394905625797447 193.23144584936782,1.336998350741541 195.9054425508509,2.345611141652441 196.72640645043,2.603628367234492 198.08686091259054,2.861645592816544 199.09547370350143,2.9789261498997495 201.300348176655,3.0492944841483394 202.0040315191509,3.2369433754818013 204.8891332233831,3.776433938061546 205.6162726772963,3.987538940810649 206.3434121312095,4.315924500641291 206.9767271394535,4.761590617555138 207.6100421477008,5.559098405716934 208.05570826461297,5.910940076964883 208.73593549569492,6.1924134139642435 210.56551218618156,6.778816199376936 211.19882719442887,7.130657870624886 211.87905442550746,7.623236210371682 212.48891332233748,8.186182884368735 212.81729888216978,8.60839288986694 213.0518599963362,9.03060289536348 213.7086311159975,10.71944291735297 214.13084112149568,11.35275792560028 214.59996334982517,11.868792376764382 215.32710280373837,12.431739050759768 216.21843503756608,13.018141836174129 216.9690306028966,13.39343961883772 218.56404617922018,14.073666849917977 218.89243173905248,14.284771852665413 219.2677295217161,14.613157412497722 220.46399120395878,16.560014660069264 220.88620120945697,17.451346893896957 220.9800256551229,17.920469122228113 220.9800256551229,19.02290635880491 221.12076232362006,19.961150815465555 221.23804288070326,21.64999083745671 221.33186732636915,22.048744731537607 221.496060106287,22.447498625618508 221.73062122045005,22.846252519699405 221.94172622319917,23.08081363386415 222.17628733736558,23.174638079530048 222.71577789994365,23.29191863661325 222.92688290269277,23.4326553051121 223.04416345977597,23.761040864944405 223.13798790544186,24.582004764521844 223.46637346527416,25.30914421843505 223.67747846802328,26.364669232178898 223.93549569360366,26.9745281290089 225.55396738134456,29.249770936411085 225.95272127542546,29.554700384826084 226.70331684075597,29.859629833241087 226.63294850650405,30.234927615906344 226.63294850650405,30.797874289903394 226.77368517500454,31.243540406817242 228.06377130291315,32.29906542056109 228.60326186549457,32.90892431739109 228.76745464540906,33.35459043430494 228.83782297965763,34.52739600513033 228.90819131390955,34.85578156496263 229.26003298515585,35.794026021623274 229.40076965365637,36.286604361370074 229.77606743631995,37.08411214953187 230.03408466190368,37.435953820779815 230.22173355323545,37.60014660069597 230.76122411581355,37.83470771486072 232.00439802089085,38.608759391606874 233.55250137438316,39.26553051126982 235.38207806486983,40.39142385926226 235.94502473886854,40.86054608759341 236.43760307861535,41.47040498442342 236.60179585852984,41.822246655671364 236.69562030419573,42.15063221550201 236.6721641927784,42.47901777533431 236.43760307861535,43.41726223199496 236.43760307861535,43.76910390324291 236.55488363569856,44.144401685908164 237.0709180868593,44.9653655854856 238.19681143485343,46.278907824811505 238.92395088876663,47.451713395638556 239.46344145134805,48.67143118929856 239.86219534542894,50.149166208538944 240.35477368517573,50.899761773867795 240.56587868792485,51.50962067069779 240.65970313359074,52.1194795675278 240.68315924500806,52.8231629100237 240.47205424225893,54.887300714678446 240.44859813084165,55.75517683708883 240.49551035367293,57.27982407916383 240.68315924500806,58.42917353857358 240.75352757925663,59.83654022356538 241.05845702767164,60.72787245739307 241.92633315008203,62.06487080813628 242.34854315558022,63.02657137621423 242.3016309327456,63.237676378961666 241.87942092725075,63.54260582737667 241.8325087044161,63.98827194429051 241.69177203591562,64.31665750412282 240.8004398020879,65.27835807220077 239.62763423126253,66.28697086311168 237.89188198643842,67.27212754260526 237.49312809235752,67.67088143668616 237.39930364669164,67.95235477368553 237.39930364669164,68.14000366501732 237.63386476085805,69.40663368151027 237.56349642660945,70.11031702400616 237.35239142386035,70.67326369800155 236.81290086127893,71.6349642660795 236.36723474436343,72.62012094557475 235.89811251603393,74.12131207623246 235.61663917903624,74.6373465273949 233.97471137987804,76.1854498808872 232.73153747480404,77.63972878871195 232.07476635513945,77.8742899028767 231.30071467839494,78.29649990837324 230.59703133589906,78.7656221367044 229.96371632765175,79.32856881070144 228.86127909107495,80.66556716144298 227.71192963166686,82.49514385193298 226.77368517500454,84.32472054242132 224.21696903060135,89.74308227963941 221.37877954920378,95.1849001282748 220.32325453545826,97.6008796041775 219.83067619571148,99.26626351475136 219.64302730437967,100.18105185999636 219.54920285871378,101.0020157595738 219.52574674729647,101.79952354773559 219.57265897013107,102.643943558732 219.68993952721428,103.41799523547648 219.90104452996005,104.14513468938969 220.39362286971019,105.36485248304803 220.9800256551229,106.39692138537625 221.96518233461646,107.75737584753509 223.9120395821897,110.12644310060317 224.52189847901636,111.01777533443253 224.89719626168326,111.76837089976138 225.17866959868095,112.44859813083997 225.38977460143008,113.17573758475318 226.07000183250867,116.92871541139742 226.37493128092365,118.17188931647306 226.72677295217326,119.27432655304986 227.21935129192008,120.56441268096012 227.82921018875007,121.85449880886871 228.41561297416277,122.9569360454455 229.21312076232456,124.17665383910551 230.97232911856264,126.42844053509205 233.22411581455086,128.93824445666064 234.63148249954264,130.27524280740218 238.31409199193664,133.30108118013487 239.29924867143023,134.28623785962847 240.02638812534343,135.17757009345783 240.87080813633983,136.58493677844797 241.85596481583343,138.8836356972691 243.05222649807612,140.76012461059042 243.59171706065754,141.74528129008567 244.6472420743997,144.25508521165426 245.5620304196447,146.1081180135599 246.218801539306,147.25746747296967 246.8755726589706,148.1253435953817 248.00146600696473,149.36851750045736 248.56441268096012,149.88455195162146 251.49642660802692,151.47956752794505 252.4346710646859,152.08942642477504 253.5371083012627,152.9338464357698 254.82719442917463,154.1301081180125 255.695070551585,155.1152647975061 256,155.5609309144216 255.2494044346695,156.0300531427511 253.4901960784314,156.87447315374584 252.8568810701841,157.08557815649493 251.84826827927319,157.2497709364111 250.86311159977961,157.29668315924403 249.1273593549555,157.17940260216082 248.35330767821102,157.20285871357814 247.6261682242978,157.29668315924403 246.66446765622152,157.55470038482608 245.913872090891,157.8596298332411 244.45959318306794,158.58676928715263 242.53619204691202,159.2904526296485 239.18196811434703,160.74473153747326 238.54865310610305,160.97929265163967 236.62525196994713,161.49532710280212 235.85120029320265,161.82371266263442 235.26479750778662,162.24592266813096 234.56111416529072,163.04343045629275 234.16236027120982,163.60637713028981 233.38830859446534,165.03719992669892 233.05992303463304,165.5063221550284 232.70808136338675,165.85816382627635 232.07476635513945,166.25691772035725 230.59703133589906,166.77295217152135 229.89334799340315,167.10133773135368 229.51805021073957,167.3124427341011 229.16620853948996,167.6173721825161 228.93164742532687,167.99266996518136 228.67363019974314,168.97782664467496 228.36870075132816,169.8222466556697 227.99340296866455,170.5259299981656 227.64156129741494,171.0419644493297 227.52428074033506,170.99505222649674 227.31317573758596,170.7370350009147 227.05515851200224,170.15063221550201 226.49221183800685,167.50009162543458 226.28110683525776,167.17170606560225 225.95272127542546,166.93714495143752 225.69470404984506,166.86677661718727 225.38977460143008,166.9136888400202 224.85028403884866,167.12479384276932 224.38116181051916,167.40626717976866 223.25526846252507,168.29759941359637 222.59849734286377,169.2592999816743 222.17628733736558,169.58768554150495 221.58988455195288,169.77533443283676 220.76892065237377,169.845702767087 220.01832508704325,169.61114165292227 218.25911673080518,168.6494410848443 217.55543338830927,167.9457577423484 216.92211838006196,166.79640828293867 216.68755726589555,166.46802272310637 216.47645226314978,166.30382994319186 216.0542422576516,166.21000549752432 215.6554883635707,166.25691772035725 215.069085578158,166.42111050027341 214.2715777899962,166.8198643943543 213.6382627817489,167.38281106835137 212.7469305479212,168.4617921935125 212.41854498808888,168.7198094190929 212.11361553967387,168.8605460875934 210.00256551218618,169.35312442734022 207.6100421477008,170.00989554700317 206.9298149166222,170.0333516584188 206.0150265713772,169.9395272127529 205.0767821147149,169.58768554150495 204.1385376580526,169.0247388675079 202.8015393073127,168.39142385926226 201.1830676195718,167.3124427341011 200.6670331684077,166.84332050577163 199.7287887117454,165.7174271577775 199.3300348176645,165.38904159794686 198.55598314092,164.8026388125325 197.45354590434323,164.19277991570416 196.9140553417618,163.79402602162327 196.5153014476809,163.20762323620892 196.1400036650173,162.12864211104943 195.95235477368553,161.82371266263442 195.38940809969014,161.63606377130264 194.59190031152835,161.2607659886374 193.09070918086732,160.22869708631083 191.75371083012743,159.50155763239763 191.58951805020962,159.2904526296485 191.44878138171242,159.00897929265082 191.37841304746385,158.563313175737 191.51914971596102,158.18801539307174 192.17592083562565,157.15594649074518 192.29320139270553,156.82756093091288 192.31665750412282,156.47571925966494 192.22283305845693,156.0535092541684 191.82407916437603,155.1152647975061 191.35495693604653,154.27084478651133 191.0969397104628,153.94245922668068 190.72164192779923,153.66098588968134 189.59574857980513,153.051126992853 187.83654022356706,151.9017775334416 186.03041964449434,150.86970863111506 185.65512186183076,150.5178669598671 184.97489463074882,149.7907275059539 184.78724573941705,149.67344694887234 184.48231629100204,149.6030786146221 183.77863294850613,149.64999083745505 182.18361737218254,150.3302180685353 181.19846069268894,150.58823529411734 179.83800623052844,151.0104452996139 179.20469122228445,151.08081363386415 177.53930731170894,151.0104452996139 176.24922118380036,151.08081363386415 175.73318673263626,150.98698918819827 175.45171339563856,150.84625251969774 175.07641561297496,150.5178669598671 174.72457394172534,150.04874473153595 174.49001282756228,149.57962250320645 173.36411947956816,149.86109584020414 172.68389224848957,149.97837639728735 172.00366501740766,150.0252886201203 171.51108667766087,149.9080080630371 170.24445666116958,148.89939527212618 168.83708997617777,148.1253435953817 167.19516217701957,146.60069635330672 165.81125160344507,145.709364119479 165.1544804837838,144.93531244273285 164.82609492395147,144.65383910573516 163.5594649074602,143.9970679860722 163.18416712479328,143.73905076049016 162.9261498992129,143.34029686640926 162.83232545354699,142.94154297232836 162.87923767637827,142.63661352391335 163.137254901962,141.83910573575156 163.137254901962,141.53417628733658 163.06688656771007,141.20579072750425 162.8557815649643,140.71321238775747 162.0113615539679,139.5638629283477 161.5422393256384,139.11819681143388 161.1903976543888,138.97746014293503 160.7916437603079,138.93054792010207 159.57192596664788,139.07128458860092 159.03243540406982,139.07128458860092 156.4522631482493,138.50833791460386 155.5140186915903,138.48488180318822 154.4350375664275,138.53179402602117 153.7313542239316,137.71083012644206 152.41781198460902,136.51456844419937 151.7844969763617,136.25655121861732 150.9635330767826,136.16272677295143 150.18948140003812,136.23309510720003 149.6265347260394,136.42074399853348 149.20432472054452,136.70221733553117 148.453729155214,137.47626901227733 148.10188748396774,137.66391790360913 146.99945024739094,137.87502290635823 145.33406633681543,138.32068902327208 143.64522631482592,138.32068902327208 141.53417628733823,138.53179402602117 140.61938794209323,138.8836356972691 139.93916071101464,139.23547736851708 139.75151181968283,139.42312625984886 139.6811434854309,139.6811434854309 139.70459959684823,140.00952904526156 140.12680960234644,141.81564962433427 140.10335349092912,142.2613157412481 139.91570459959732,142.61315741249607 139.6811434854309,142.82426241524516 138.78981125160323,143.31684075499194 137.66391790360913,144.18471687740401 136.74912955836746,144.72420743998376 136.53802455561836,144.93531244273285 135.95162177020566,145.75627634231196 135.48249954187284,146.22539857064146 134.47388675096192,147.16364302730375 133.30108118013655,147.86732636979966 131.82334616089616,149.27469305479144 131.56532893531244,149.6265347260394 131.44804837822923,149.95492028587003 131.30731170973206,151.5030236393607 131.11966281840026,151.9017775334416 130.86164559281656,152.2301630932739 130.58017225581884,152.46472420743865 130.22833058457257,152.62891698735478 128.68022723108027,152.9338464357698 128.02345611141564,153.19186366135185 127.74198277441795,153.37951255268365 127.48396554883756,153.66098588968134 127.43705332600295,153.87209089243044 127.62470221733474,154.08319589517953Z"/>
  </g>
</svg>