<?xml version="1.0" encoding="UTF-8" standalone="no"?>
<svg viewBox="0 0 256 251.8767067288038" xmlns="http://www.w3.org/2000/svg">
  <style>
    g.zone {
      fill: lightgray;
      stroke-width: 2;
      stroke-linecap: square;
      stroke-linejoin: bevel;
      stroke-miterlimit: 3;
      stroke-opacity: 0.8;
      stroke: black;
      fill-opacity: 0.3;
    }
  </style>
  <g class="zone" id="zone">
    <path d="M177.4481236203101,176.5481154443636 176.12950699043304,179.3318616629871 173.4085520398994,184.5853977597907 172.82250020439784,185.94587523505902 172.40389175047028,187.1389093287548 172.0480745646311,188.6458997628985 171.9643528738456,189.37846455727248 171.94342245114848,190.09009892895082 171.98528329654272,190.84359414602343 172.08993541002536,191.53429809500466 172.27830921429052,192.1831411985946 172.55040470934418,192.91570599296858 172.90622189518336,193.64827078734407 173.4504128852907,194.5064181178978 174.12018641157775,195.4064262938443 175.85741149538237,197.52039898618224 176.4016024854867,198.3157550486476 176.73648924863173,198.98552857493317 176.98765432098827,199.5925108331289 177.17602812525644,200.24135393671884 177.78301038345214,203.5902215681468 178.0551058785058,204.6995339710571 178.3690622189537,205.6832638377891 178.80860109557838,206.83443708609363 179.3527920856857,207.98561033439665 179.8760526530959,208.96934020112866 180.58768702477425,210.0577221813433 182.15746872700487,212.06704276020008 184.16678930586315,214.30659798871778 185.42261466764882,215.49963208241357 188.7086910309869,218.19965661025307 189.58776878423626,219.07873436350243 190.23661188782623,219.87409042596778 190.9901071048988,221.12991578775197 191.8691848581482,223.18109721200298 192.93663641566573,224.85553102771624 193.41803613768465,225.73460878096708 194.35990515902242,227.97416400948478 195.1761916441834,229.62766740250237 195.76224347968198,230.65325811462714 196.34829531518355,231.42768375439536 197.3529556046127,232.53699615730565 197.85528574932576,232.99746545662745 200.47158858637974,234.42073419998417 201.3088054942349,234.9649251900915 202.2925353609669,235.7184204071626 203.4437086092729,236.7858719646801 204.21813424903965,237.6649497179295 204.4902297440933,238.0626277491629 203.82045621780622,238.48123620309048 202.2506745155756,239.23473142016158 201.68555310277117,239.42310522442972 200.78554492682468,239.56961818330512 199.9064671735753,239.6114790286979 198.35761589403884,239.50682691521524 197.66691194505762,239.52775733791236 197.01806884146765,239.6114790286979 196.1599215109154,239.8417136783588 195.49014798462832,240.11380917341245 194.1924617774514,240.7626522770009 192.4761671163439,241.39056495789376 189.48311667075365,242.6882511650722 188.91799525795216,242.89755539203745 187.2017005968447,243.35802469135777 186.51099664786346,243.65105060910855 185.98773608045028,244.02779821764335 185.35982339955743,244.73943258932172 185.00400621371827,245.24176273403629 184.31330226473705,246.51851851851907 184.02027634698626,246.93712697244663 183.70632000654132,247.25108331289306 183.14119859373687,247.60690049873222 181.82258196386283,248.06736979805405 181.19466928296998,248.36039571580483 180.85978251982792,248.5487695200715 180.54582617938001,248.82086501512515 180.33652195241774,249.1557517782687 180.10628730275533,250.03482953151806 179.83419180770167,250.78832474858916 179.49930504455963,251.416237429482 179.1853487041117,251.8767067288038 179.08069659063204,251.83484588341105 178.8923227863639,251.60461123375015 178.66208813670153,251.08135066633994 178.15975799198844,248.71621290164398 177.97138418772028,248.4231869838932 177.6783582699695,248.21388275692942 177.4481236203101,248.15109148883954 177.17602812525644,248.1929523342323 176.6946284032375,248.38132613850047 176.27601994930993,248.6324912108585 175.2713596598808,249.42784727332236 174.6853078243822,250.28599460387608 174.30856021584592,250.57902052162538 173.7852996484357,250.7464639031964 173.05273485406025,250.80925517128628 172.38296132777316,250.5999509443225 170.81317962554255,249.74180361376875 170.18526694464973,249.11389093287593 169.62014553184528,248.08830022075117 169.41084130488,247.79527430300038 169.22246750061484,247.64876134412648 168.84571989207853,247.56503965333948 168.48990270623935,247.60690049873222 167.96664213882914,247.75341345760762 167.2550077671508,248.1092306434468 166.68988635434636,248.61156078816137 165.8945302918825,249.57436023219773 165.6015043741317,249.80459488185716 165.32940887907804,249.93017741803692 163.44567083639956,250.3697162946616 161.3107677213645,250.9557681301617 160.7037854631688,250.9766985528573 159.8874989780078,250.8929768620718 159.0502820701497,250.57902052162538 158.2130651622916,250.07669037691082 157.0200310685973,249.51156896410785 155.57583190254346,248.5487695200715 155.11536260322166,248.13016106614393 154.27814569536355,247.12550077671477 153.92232850952436,246.8324748589655 153.23162456054314,246.3092142915538 152.24789469381113,245.76502330144797 151.7664949717922,245.40920611560878 151.41067778595303,244.8859455481971 151.075791022811,243.9231461041622 150.90834764123994,243.65105060910855 150.40601749652689,243.48360722753753 149.6943831248485,243.148720464394 148.35483607227437,242.22778186575187 147.16180197858006,241.5789387621619 147.01528901970318,241.39056495789376 146.8897064835264,241.13939988553722 146.826915215438,240.74172185430527 146.9524977516148,240.40683509116172 147.53854958711636,239.4858964925196 147.64320170059602,239.19287057476882 147.66413212329314,238.8789142343224 147.58041043250762,238.5021666257876 147.22459324666846,237.6649497179295 146.80598479274087,236.91145450085838 146.5757501430785,236.61842858310908 146.24086337993643,236.36726351075106 145.2362030905073,235.8230725206452 143.66642138827672,234.79748180851897 142.05477884065186,233.87654320987684 141.7198920775098,233.56258686943042 141.1129098193111,232.91374376584045 140.9454664377401,232.8090916523593 140.67337094268643,232.74630038426943 140.04545826179358,232.7881612296622 138.6221895184369,233.3951434878594 136.31984302183082,234.06491701414498 134.4779658245436,234.0021257460551 133.32679257624054,234.06491701414498 132.86632327691873,233.98119532335946 132.4895756683854,233.75096067369856 132.07096721445487,233.26956095168111 131.75701087400995,232.7253699615738 132.0081759463665,232.45327446652013 132.28027144142015,232.07652685798385 132.4686452456883,231.72070967214466 132.59422778186507,231.32303164091275 132.65701904995643,230.90442318698368 132.6360886272593,229.4183631755371 132.6779494726506,228.58114626768048 133.05469708118687,227.07415583353827 133.01283623579562,226.7183386476991 132.86632327691873,226.4043823072527 132.1546889052404,225.5880958220917 131.92445425558097,225.16948736816263 131.86166298749256,224.58343553266258 132.1128280598491,223.57877524323493 132.34306270950853,223.20202763469862 132.57329735917094,223.01365383043048 132.95004496770426,222.8671408715566 134.60354836072335,222.46946284032464 135.08494808274227,222.2810890360565 135.50355653666983,222.00899354100284 135.81751287711478,221.6950372005564 136.04774752677716,221.33922001471723 136.21519090834818,220.75316817921717 136.36170386722208,219.24617774507496 136.36170386722208,218.4508216826096 136.27798217643658,217.4880222385747 136.06867794947428,216.48336194914557 136.00588668138292,215.81358842286 135.85937372250902,215.47870165971793 134.9593655465625,214.62055432916418 134.6454092061146,214.11822418444962 134.51982666993783,213.7205461532177 134.4988962472407,213.3437985446814 134.5826179380262,212.63216417300305 134.7919221649915,212.12983402828849 135.1058785054364,211.66936472896816 135.50355653666983,211.2507562750391 135.79658245442062,211.0205216253782 136.55007767149024,210.66470443953904 138.22451148720646,210.30888725369985 138.60125909573978,210.16237429482447 138.85242416809928,209.9740004905578 139.01986754967032,209.63911372741427 139.12451966315294,208.697244706075 139.25010219932972,208.32049709753872 139.9198757256168,207.44141934428933 140.17104079797335,206.93908919957477 140.19197122067047,206.62513285912834 140.0663886844907,206.18559398250366 139.39661515820364,204.90883819802235 139.29196304472399,204.4902297440933 139.37568473550948,204.07162129016425 139.9198757256168,203.04603057803948 140.04545826179358,202.50183958793215 140.02452783909646,202.12509197939735 139.64778023056314,200.40879731828986 139.62684980786602,200.0529801324507 139.71057149865155,199.71809336930716 139.10358924045582,199.0064589976288 138.5803286730456,198.50412885291573 137.99427683754405,198.1064508216823 136.36170386722208,197.29016433652282 135.21053061891905,196.47387785136183 134.89657427847413,196.34829531518355 134.26866159758129,196.24364320170093 133.18027961736664,196.2227127790038 129.66396860436618,196.57852996484445 128.19883901561522,196.57852996484445 127.38255253045722,196.70411250102273 125.95928378709753,197.08086010955753 125.4988144877787,197.14365137764742 125.14299730193953,197.08086010955753 124.99648434306265,196.95527757337928 124.91276265227714,196.70411250102273 124.93369307497426,196.55759954214733 125.10113645654529,196.2227127790038 125.77090998283236,195.4692175619327 126.67091815877589,194.77851361295146 126.98487449922379,194.48548769520067 127.17324830349195,194.213392200147 127.38255253045722,193.7529229008267 127.508135066634,193.229662333415 127.508135066634,192.87384514757585 127.40348295315135,192.45523669364826 127.0685961900093,191.82732401275544 126.27324012754545,190.8017333006292 125.87556209631202,190.44591611479 125.43602321968734,190.17382061973635 123.46856348622332,189.48311667075512 122.14994685634926,188.6458997628985 120.55923473142153,187.91333496852303 119.80573951434894,187.70403074155925 119.34527021502713,187.6621698961665 118.94759218379669,187.70403074155925 117.39874090426022,188.14356961818393 116.05919385168905,188.4156651132376 114.23824707709893,189.06450821682606 112.79404791104511,189.75521216580879 112.54288283868857,190.00637723816533 112.31264818902915,190.3831248467016 112.31264818902915,190.55056822827265 112.43823072520593,190.82266372332631 113.21265636497564,191.76453274466556 113.33823890115242,192.12034993050474 113.33823890115242,192.4761671163439 113.1707955195814,192.9994276837541 112.60567410677696,193.77385332352233 112.33357861172627,194.25525304553977 111.64287466274207,195.65759136620085 111.55915297195655,195.97154770664727 111.53822254925943,196.1389910882183 111.6638050854392,196.49480827405748 111.91497015779574,196.80876461450387 112.48009157060018,197.20644264573582 113.38009974654668,197.70877279045038 113.71498650968873,198.0227291308968 113.94522115935112,198.42040716212873 114.04987327283078,198.81808519336215 114.04987327283078,199.0692502657187 113.86149946856263,199.6971629466115 113.14986509688428,200.95298830839718 112.52195241599145,201.81113563895093 111.81031804431309,202.4599787425394 111.68473550813631,202.69021339220032 111.6638050854392,202.87858719646846 111.70566593083343,203.129752268825 111.87310931240447,203.42277818657578 112.9614912926191,204.59488185757593 113.50568228272346,205.28558580655718 113.88242989125975,205.85070721936162 113.98708200474239,206.16466355980802 113.98708200474239,206.39489820946744 113.84056904586848,206.6669937045211 113.56847355081482,206.91815877687912 113.12893467419013,207.14839342654005 112.71032622025959,207.2739759627183 111.89403973509862,207.44141934428933 111.39170959038553,207.46234976698645 108.62889379445765,207.21118469462843 105.78235630774425,207.1274630038429 105.15444362685142,207.0437413130574 104.6102526367441,206.85536750878924 103.52187065652944,206.31117651868195 101.82650641811908,205.74605510587898 99.33578611724487,204.5739514348788 98.77066470444042,204.38557763061067 97.64042187883153,204.15534298094977 97.30553511568948,204.00883002207587 96.97064835254743,203.75766494971782 96.4264573624401,203.0669610007366 95.81947510424439,202.4599787425394 94.56364974245872,201.53904014389727 93.60085029842382,200.97391873109282 93.34968522606431,200.72275365873628 93.18224184449329,200.429727740987 92.5961900089947,198.98552857493317 92.24037282315552,198.23203335786206 91.73804267843947,196.89248630529087 91.2566429564235,196.1599215109154 90.62873027553067,195.49014798462983 90.25198266699438,195.1761916441834 88.13800997465646,193.7529229008267 87.51009729376362,193.20873191071937 86.27520235467209,191.91104570354096 84.95658572479803,190.69708118714803 84.70542065244149,190.5087073828799 83.53331698144133,189.83893385659428 82.23563077426141,188.87613441255792 81.64957893876283,188.33194342245207 81.21004006213813,187.7249611642549 80.77050118551345,187.26449186493306 80.07979723652925,186.76216172021998 79.45188455563641,186.4691358024692 79.20071948327987,186.0086665031474 79.01234567901172,185.77843185348797 77.88210285340581,185.0458670591125 77.67279862644054,184.83656283214873 77.61000735835215,184.54353691439795 77.75652031722605,183.87376338811237 77.88210285340581,182.51328591284405 78.04954623497683,182.45049464475565 78.30071130733337,182.24119041779187 78.67745891586966,181.80165154116568 79.01234567901172,181.23653012836274 79.20071948327987,180.67140871555978 79.3053715967625,179.66674842613065 79.22164990597699,178.53650560052324 78.90769356553206,177.34347150682746 78.67745891586966,176.82021093941725 78.21698961654786,175.98299403155914 77.3588422859956,174.83182078325612 75.8518518518534,173.28296950372115 74.90998283051265,172.46668301856016 73.86346169569225,171.62946611070205 72.00065407571087,170.33177990352362 64.19360640994317,165.76894775570275 59.86100891178171,163.0270623824705 56.323767476087085,160.89215926743546 55.549341836317375,160.36889870002526 54.858637887336144,159.84563813261357 54.356307742623066,159.3433079879005 54.063281824872284,158.92469953397142 53.83304717520989,158.5270215027395 53.686534216335986,158.08748262611482 53.54002125746208,157.33398740904371 53.45629956667657,155.11536260322166 53.330717030496814,154.3827978088462 53.07955195814027,153.6502330144722 52.76559561769237,153.18976371515038 52.32605674106768,152.68743357043581 51.78186575096036,152.2269642711155 51.405118142427035,151.95486877606183 50.29580573951527,151.43160820865015 48.95625868694408,151.0967214455081 47.47019867549602,150.92927806393558 43.11667075464041,150.61532172348916 41.35851524814166,150.36415665113262 40.22827242253277,150.09206115607896 38.763142833784805,149.56880058866878 37.61196958547879,148.9827487531687 36.607309296052634,148.27111438149035 35.77009238819453,147.47575831902648 35.12124928460457,146.68040225656114 34.61891913989149,145.75946365791899 34.22124110865807,144.77573379118698 34.011936881695775,143.8757256152405 33.88635434551602,142.8292044804186 33.8654239228189,141.80361376829384 34.09565857248129,138.5593982503485 34.11658899517544,137.36636415665123 33.991006458998655,136.0058866813844 33.78170223203338,135.0221568146524 33.42588504619421,134.05935737061603 32.860763633389766,133.03376665849126 32.149129261711415,132.07096721445487 31.123538549588137,131.0453765023301 30.056086992070615,130.16629874908074 29.093287548035725,129.4546643774024 27.942114299729713,128.7220995830269 27.063036546480337,128.24069986100946 25.84907203008891,127.65464802550939 24.949063854142413,127.31976126236584 24.00719483280167,127.02673534461655 23.044395388766784,126.81743111765277 21.160657346088275,126.56626604529474 19.235058458018496,126.48254435450923 17.162946611071842,126.56626604529474 12.935001226393016,126.92208323113391 11.302428256071048,126.94301365383103 10.255907121250646,126.90115280843828 9.104733872947609,126.79650069495564 7.827978088464815,126.56626604529474 6.634943994767534,126.25230970484833 5.25353609680508,125.74997956013524 3.9977107350194077,125.12206687924241 2.804676641322127,124.34764123947419 1.6953642384103595,123.36391137274217 0.9418690213407411,122.42204235140292 0.3976780312334183,121.39645163927815 0.06279126809136568,120.32900008176063 0,119.28247894693874 0.16744338157102634,118.31967950290236 0.41860845393054025,117.69176682200953 0.6279126808928359,117.31501921347471 1.3604774752683069,116.41501103752822 2.302346496609048,115.59872455236723 3.6418935491802333,114.78243806720624 5.0651622925369315,114.09173411822502 8.644264573625799,112.62660452947408 12.30708854550018,110.68007521870717 13.583844329982973,110.0940233832071 14.651295887500497,109.69634535197517 15.6978170223209,109.4242498569215 16.70247731175003,109.21494562995773 17.769928869267556,109.04750224838521 19.10947592183874,108.94285013490406 20.197857902053386,108.92191971220694 22.646717357533365,109.04750224838521 25.242089771893195,109.38238901152876 27.376992886928242,109.8637887335462 29.197939661515385,110.4707709917434 30.788651786446085,111.11961409533187 32.881694056086886,112.124274384761 36.56544845065839,114.02894285013514 38.55383860681953,114.908020603386 40.249202845229895,115.53593328427884 42.32131469217655,116.05919385168905 44.03760935328403,116.33128934674271 46.29809500449883,116.54059357370649 53.16327364892579,116.93827160493842 55.42375930014059,116.98013245033117 56.38655874417548,116.89641075954566 57.32842776551325,116.7080369552775 58.165644673371354,116.45687188292098 59.233096230888876,116.03826342899193 60.27961736570928,115.43128117079621 61.43079061401529,114.69871637642073 65.11454500858679,111.8940397351001 66.32850952497822,111.07775324993911 67.20758727822759,110.55449268252892 68.27503883574512,110.01030169242159 69.50993377483367,109.50797154770702 70.99599378628173,109.06843267108233 72.23088872537028,108.83819802142143 74.44951353119085,108.62889379445765 77.17046848172745,108.54517210367213 79.41002371024514,108.56610252636777 81.27283133022652,108.75447633063591 83.61703867222684,109.1940152072606 95.63110129997624,112.22892649824215 96.61483116670826,112.4173003025103 97.57763061074314,112.54288283868857 98.3101954051186,112.58474368408132 99.02182977679696,112.54288283868857 100.00555964352897,112.35450903442191 100.75905486060157,112.06148311667113 101.49161965497703,111.6638050854392 102.14046275856401,111.16147494072463 102.8102362848511,110.51263183713615 103.31256642956417,109.90564957893895 104.71490475022672,107.93818984547494 105.30095658572532,107.20562505109946 105.94979968931527,106.55678194751098 106.76608617447626,105.94979968931379 107.83353773199379,105.42653912190359 108.9637805575997,105.07072193606442 110.30332761017088,104.86141770910064 111.68473550813631,104.81955686370787 112.71032622025959,104.88234813179626 113.924290736654,105.07072193606442 115.03360313956279,105.32188700842244 116.60338484179637,105.80328673043988 118.82200964761692,106.68236448368926 123.63600686779435,108.85912844411855 125.54067533316997,109.5707628157969 127.02673534461803,110.03123211511722 128.53372577876024,110.38704930095639 129.6848990270633,110.57542310522454 131.06630692502574,110.68007521870717 132.0291063690636,110.63821437331443 132.80353200883033,110.53356225983178 133.38958384433192,110.40797972365353 134.28959202027542,110.0940233832071 135.23146104161617,109.69634535197517 134.56168751532908,109.50797154770702 133.76633145286524,109.06843267108233 133.26400130815216,108.71261548524316 132.71981031804484,108.16842449513584 132.05003679175775,107.62423350502851 130.6686288937953,106.68236448368926 130.10350748099086,105.90793884392103 129.28722099582987,105.15444362684993 128.8058212738139,104.6102526367426 128.53372577876024,104.00327037854689 128.47093451066888,103.3962881203497 128.59651704684865,102.956749243725 128.9523342326878,102.66372332597571 130.3546725533474,101.973019376993 131.88259341018673,100.98928951026097 132.4895756683854,100.69626359251168 133.38958384433192,100.4032376747609 135.60820865015248,99.8799771073507 136.40356471261634,99.81718583926082 138.51753740495425,100.06835091161885 139.35475431281236,100.08928133431448 140.3594146022415,99.8799771073507 142.32687433570553,99.29392527185063 142.78734363502733,99.23113400376074 143.33153462513465,99.25206442645786 144.92224675006238,99.39857738533325 146.19900253454517,99.67067288038692 148.48041860845413,100.44509852015366 150.8664867958457,101.34510669610016 151.87114708527483,101.63813261385094 153.7130242825621,101.9102281089046 155.6804840160261,101.973019376993 154.19442400457802,101.38696754149291 152.62464230234744,100.57068105633341 149.54787016597163,99.60788161229704 147.53854958711636,98.72880385904766 146.78505437004375,98.47763878668964 146.17807211184805,98.37298667320849 145.5501594309552,98.37298667320849 143.6036301201883,98.66601259095779 142.8292044804186,98.64508216826215 142.3059439130084,98.51949963208239 141.0291881285256,98.03809991006494 140.46406671572413,97.89158695118955 139.73150192134867,97.82879568310116 137.76404218788463,97.76600441501128 136.63379936227574,97.57763061074314 135.8384432998119,97.28460469299384 134.77099174229437,96.69855285749377 134.20587032948993,96.44738778513722 131.92445425558097,95.65203172267188 131.15002861581422,95.42179707301096 130.50118551222428,95.33807538222545 129.07791676886757,95.2962145368327 127.19417872618907,95.02411904177904 125.79184040552651,94.96132777369064 125.20578857002792,94.85667566020801 124.24298912599303,94.50085847436884 123.46856348622332,94.06131959774414 122.90344207342184,93.5799198757267 122.52669446488555,93.03572888561938 122.35925108331452,92.53339874090481 122.35925108331452,92.09385986428013 122.90344207342184,90.81710407979733 123.19646799116965,89.47755702722615 123.74065898127698,87.55195813915489 124.01275447633064,86.84032376747653 124.30578039408142,86.25427193197646 124.89183222958002,85.33333333333432 125.72904913743812,84.28681219851244 127.31976126236584,82.50772626931656 127.98953478865293,81.5658572479773 128.61744746954577,80.45654484506703 129.07791676886757,78.99141525631609 129.35001226392123,78.32164173003049 129.6848990270633,77.67279862644202 130.08257705829374,77.04488594554918 130.56397678031266,76.45883411004911 131.02444607963446,75.97743438803167 131.6314283378302,75.45417382061997 132.30120186411727,74.99370452129817 132.9291145450101,74.65881775815612 133.61981849399132,74.3448614177097 134.4779658245436,74.05183549995891 135.21053061891905,73.86346169569225 137.01054697081204,73.57043577794147 139.04079797236446,73.48671408715596 141.0291881285256,73.57043577794147 142.97571743929547,73.75880958220962 145.0896901316334,74.09369634535315 148.87809663968753,74.74253944894163 150.44787834191814,74.95184367590541 151.82928623988357,75.03556536669241 153.16883329245476,74.95184367590541 153.92232850952436,74.80533071703151 154.59210203581145,74.59602649006624 155.24094513940142,74.26113972692418 155.72234486141738,73.88439211838788 156.03630120186529,73.54950535524583 156.28746627422183,73.13089690131677 156.41304881040156,72.52391464312106 156.41304881040156,72.00065407570938 156.32932711961308,71.49832393099481 156.1409533153479,71.05878505437012 155.63862317063186,70.53552448695993 154.96884964434776,69.97040307415696 154.3200065407578,69.55179462022791 151.6827732810067,68.06573460878134 149.98740904259634,66.93549178317393 148.58507072193675,65.80524895756803 145.3827160493842,63.06336358433577 143.9594473060275,61.93312075872837 141.67803123211556,60.3005477884064 135.7756520317235,56.3237674760856 130.96165481154608,52.7237347723011 130.31281170795612,52.20047420488941 129.8523424086343,51.71907448287197 129.3918731093125,51.13302264737189 129.05698634617045,50.48417954378342 128.8058212738139,49.73068432671082 128.65930831493702,48.87253699615857 128.59651704684865,47.82601586133668 128.65930831493702,46.90507726269306 128.78489085111678,45.94227781865817 129.1616384596531,43.82830512631876 129.2453601504386,42.865505682283874 129.20349930504435,42.32131469217655 129.09884719156173,41.79805412476486 128.88954296459943,41.212002289266266 128.6383778922429,40.66781129915895 128.19883901561522,39.9561769274806 127.34069168506296,38.805003679176075 122.17087727904638,32.672389829123105 120.99877360804622,31.60493827160558 120.28713923636786,31.06074728149826 118.08944485324146,29.616548115444438 117.54525386313414,29.17700923881975 117.08478456381232,28.73747036219506 116.64524568718764,28.130488103999348 116.35221976943983,27.52350584580215 116.1847763878688,26.93745401030207 116.10105469708031,26.22581963862372 116.10105469708031,25.66069822582076 116.1847763878688,25.032785544927926 116.31035892404559,24.404872864035088 116.56152399640212,23.588586378874105 117.2940887907776,21.935082985856504 117.85921020358204,20.909492273731736 118.40340119368936,20.07227536587363 119.65922655547503,18.481563240945903 120.39179134985051,17.707137601177678 121.3545907938854,16.786199002535543 122.90344207342184,15.530373640749872 126.69184858147301,12.746627422124867 127.40348295315135,12.139645163927666 127.80116098438478,11.721036710000101 128.32442155179498,10.988471915624629 128.61744746954577,10.234976698553524 128.65930831493702,9.837298667321592 128.61744746954577,9.209385986428757 128.491864933366,8.665194996321434 128.3453519744921,8.267516965089502 129.6221077589749,8.686125419018556 130.50118551222428,9.083803450250487 131.0453765023316,9.397759790696904 132.07096721445487,10.151255007768011 132.51050609107955,10.381489657428915 133.03376665848975,10.486141770910063 133.61981849399132,10.360559234731793 134.01749652522474,10.151255007768011 134.5826179380262,9.648924863053445 134.8128525876886,9.334968522607026 135.12680892813353,8.70705584171419 135.33611315509881,8.518682037446043 135.60820865015248,8.476821192053286 137.21985119777733,8.5605428828388 137.86869430136727,8.518682037446043 138.6221895184369,8.288447387785137 139.29196304472399,7.84890851116045 139.77336276673992,7.451230479928518 140.23383206606175,6.948900335213952 141.259422778188,5.588422859947133 141.95012672716922,4.751205952089026 142.49431771727654,4.186084539286068 142.7036219442418,4.0186411577150425 143.226882511652,3.725615239964259 144.14782111029265,2.7628157959293707 144.96410759545364,2.113972692339413 145.11062055433052,1.9255988880712644 145.57108985365232,1.0255907121262544 145.82225492600887,0.7534952170725929 146.17807211184805,0.46046929932180963 146.68040225656114,0.2511650723580267 148.0827405772237,0.06279126808987848 148.8990270623817,0 149.40135720709773,0.04186084539424378 152.5827814569532,3.0558417136786664 153.44092878750843,3.934919466929529 154.026980623007,4.604692993215122 154.52931076772308,5.337257787589106 155.010710489739,6.174474695447212 155.34559725288108,7.032622025999466 155.55490147984634,7.890769356553206 155.63862317063186,8.665194996321434 155.63862317063186,9.607064017660688 155.55490147984634,10.52800261630282 155.38745809827532,11.51173248303483 155.0735017578304,12.788488267517623 154.65489330389985,14.086174474696053 154.2362848499723,15.048973918732429 153.23162456054314,17.100155342981964 152.93859864279236,17.85365056005307 152.81301610661558,18.418771972856025 152.77115526122134,19.004823808356104 152.83394652930974,19.56994522116055 152.9804594881866,20.114136211266384 153.18976371515188,20.61646635598095 153.5665113236852,21.3281007276593 154.59210203581145,22.79323031641024 157.56422205870462,26.37233259749911 158.50609108004238,27.397923309623877 159.55261221486575,28.465374867141403 160.4735508135064,29.17700923881975 161.4572806802384,29.742130651624194 162.42008012427627,30.118878260159004 165.32940887907804,31.0188864361055 166.31313874581008,31.45842531273019 167.21314692175656,32.023546725534636 167.86199002534653,32.56773771564047 168.46897228354223,33.23751124192755 169.15967623252345,34.15844984056968 170.562014553186,36.25149211021197 171.1480663886846,37.004987327283075 171.6503965333977,37.5491783173904 172.23644836889926,38.07243888480209 173.19924781293415,38.805003679176075 174.35042106123717,39.55849889624718 175.43880304145182,40.123620309051624 176.44346333088095,40.479437494890796 177.34347150682746,40.7096721445517 178.55743602321888,40.918976371515484 179.7714005396133,41.044558907693755 181.2783909737555,41.14921102117639 183.28771155261376,41.191071866569146 186.19704030741553,41.170141443872026 188.1854304635767,41.065489330390875 188.7086910309869,41.14921102117639 189.04357779412894,41.27479355735466 189.42032540266524,41.54688905240832 190.0482380835581,42.11201046521128 192.41337584825553,44.581800343389865 193.18780148802225,45.25157386967546 193.8785054370035,45.586460632819 195.65759136620233,46.025999509443686 196.4529474286662,46.402747117979985 197.77156405854026,47.30275529392648 198.96459815223753,48.24462431526573 199.4459978742535,48.767884882675936 199.9064671735753,49.584171367836916 200.24135393671736,49.87719728558621 200.59717112255652,50.04464066715724 201.60183141198567,50.29580573951527 202.146022402093,50.505109966479054 202.9832393099511,51.070231379282006 203.86231706320046,51.823726596354604 204.30185593982515,52.13768293680102 205.74605510587898,52.891178153872126 207.0437413130559,53.43536914397945 207.69258441664587,53.83304717521138 207.96467991169953,54.08421224756792 208.19491456136194,54.3772381653187 208.92747935573442,55.86329817676379 209.49260076853886,56.61679339383638 211.22982585234348,58.14471425067572 213.3437985446814,60.21682609762089 214.3275284114134,60.99125173738911 216.33684899027168,62.414520480745814 217.38337012509209,63.04243316163865 218.42989125991247,63.502902460960456 220.50200310685912,64.19360640994317 221.6741067778593,64.71686697735338 222.02992396369848,64.92617120431716 222.46946284032316,65.30291881285345 223.45319270705517,66.32850952497822 223.89273158367985,66.89363093778118 224.1648270787335,67.35410023710298 224.6043659553582,68.67271686697853 225.04390483198586,69.57272504292355 225.83926089444972,70.91227209549622 226.46717357534257,71.83321069413836 226.7811299157875,72.20995830267465 227.13694710162667,72.5448450658167 228.9788242989139,73.77974000490674 229.25091979396757,74.07276592265603 229.4183631755386,74.36579184040534 229.52301528902123,74.90998283051265 229.46022402092987,75.64254762488812 228.9788242989139,78.21698961654934 228.6020766903776,79.28444117406687 228.62300711307472,79.61932793720892 228.74858964925153,79.9123538549597 229.1253372577878,80.31003188619164 230.3183713514851,80.91701414438735 231.9090834764128,82.13097866078027 232.68350911617955,82.82168260976299 233.18583926089562,83.38680402256594 233.45793475594928,83.86820374458338 233.8346823644826,84.83100318861976 234.21142997301888,85.58449840569087 236.38819393344818,89.43569618183339 237.05796745973228,90.46128689395816 237.9579756356788,91.38222549260178 238.29286239882381,91.80083394652935 239.9254353691428,94.71016270133262 240.28125255498495,95.58924045458349 241.2231215763227,98.91717766331432 241.5161474940735,99.67067288038692 241.8928951026098,100.21486387049275 242.24871228844898,100.50788978824353 242.73011201046492,100.69626359251168 243.16965088708963,100.71719401520731 242.89755539203597,100.82184612868996 242.6254598969823,101.01021993295811 242.39522524732288,101.21952415992189 242.16499059766048,101.55441092306542 241.97661679339532,102.07767149047562 241.8928951026098,103.31256642956417 241.76731256643004,103.66838361540336 241.5789387621619,103.96140953315414 240.55334805003565,104.90327855449338 239.69520071948338,105.76142588504713 238.4184449350006,106.7870165971719 237.01610661434103,108.25214618592135 237.14168915052076,108.6707546398504 237.56029760444835,110.6172839506173 237.81146267680487,111.41264001308265 238.10448859455568,111.81031804431458 238.33472324421507,111.9777614258856 238.71147085275138,112.124274384761 239.98822663723416,112.39636987981466 241.16033030823434,112.50102199329581 242.29057313384024,112.4173003025103 242.83476412394756,112.31264818902766 243.25337257787513,112.14520480745664 244.11151990843035,111.68473550813482 244.44640667157242,111.55915297195655 244.7394325893232,111.55915297195655 245.01152808437686,111.6638050854392 245.199901888645,111.83124846701021 245.32548442482178,112.04055269397548 245.59757991987544,113.19172594227852 246.0999100645915,114.02894285013514 246.66503147739297,115.24290736652806 247.04177908592928,115.76616793393826 248.29760444771495,117.1475758319037 248.5069086746802,117.50339301774287 248.59063036546573,117.83827978088492 248.61156078816285,118.2778186575096 248.5069086746802,118.98945302918796 247.29294415828582,123.48949390892044 247.04177908592928,124.7453192707061 247.04177908592928,125.54067533316997 247.50224838525108,128.15697817022397 247.56503965333948,128.80582127381243 247.46038753985684,129.41280353200963 247.16736162210904,129.97792494481257 247.0627095086264,130.31281170795612 246.999918240538,131.17095903850986 247.10457035401765,131.73608045131283 247.31387458098294,132.15468890524187 248.08830022074966,132.95004496770574 248.69528247894837,133.70354018477684 249.59529065489485,134.45703540184795 249.78366445916004,134.81285258768713 249.82552530455428,135.21053061891905 249.5534298095006,136.21519090834818 249.34412558253536,137.4919466928295 248.92551712860777,138.76870247731227 248.4231869838947,139.94080614831245 248.13016106614393,140.86174474695457 247.96271768457288,142.72455236693744 247.85806557109026,144.6292208323116 247.7324830349105,145.8431853487045 247.64876134412498,146.26179380263355 247.43945711716268,146.70133267925826 246.91619654974951,147.60134085520474 246.6859619000901,148.1036709999193 246.37200555964517,149.1501921347397 245.8696754149291,151.075791022811 245.51385822908995,151.45253863134727 244.46733709426954,152.1641730030256 244.19524159921588,152.4571989207749 244.25803286730425,152.58278145695468 244.69757174392896,152.85487695200686 244.90687597089422,153.10604202436488 245.05338892976812,153.46185921020404 245.09524977516236,153.96418935491863 245.032458507071,154.34093696345343 244.76036301202032,154.8641975308651 244.44640667157242,156.07816204725802 244.048728640339,156.5804921919711 244.38361540348401,157.14561360477555 245.51385822908995,158.8200474204888 245.97432752841175,159.92935982340055 246.0999100645915,160.34796827732814 246.12084048728565,161.22704603057898 246.3092142915538,162.23170632000662 246.3092142915538,162.8177581555067 246.20456217807117,163.73869675415034 245.9324666830175,164.72242662088235 245.59757991987544,165.45499141525633 244.55105878505506,167.27593818984644 244.13245033112747,168.2805984792741 243.4626768048404,170.43643201700627 243.35802469135777,171.04341427520197 243.33709426866065,171.50388357452377 243.42081595944614,171.85970076036295 243.63012018641143,172.25737879159487 244.17431117651876,173.03180443136313 244.86501512549998,173.65971711225595 246.5394489412162,174.93647289673874 246.97898781784087,175.37601177336344 247.37666584907132,175.89927234077362 248.0464393753584,177.02951516638103 248.6534216335541,178.22254926007682 248.92551712860777,178.97604447714792 249.28133431444695,180.58768702477278 249.51156896410637,181.06908674679173 249.8464557272514,181.4876952007193 250.55809009892974,182.1156078816121 251.3953070067849,182.65979887171943 252.44182814160826,183.1830594391311 254.61859210203457,184.04120676968338 255.28836562832166,184.45981522361242 256,184.98307579102263 254.78603548360857,186.9923963698794 253.63486223530256,188.77148229907678 250.20227291309058,193.62734036464695 249.59529065489485,194.63200065407608 248.92551712860777,195.9924781293444 247.96271768457288,196.11806066552265 247.33480500368006,196.11806066552265 246.49758809582195,195.95061728395163 245.99525795110887,195.72038263429073 245.4092061156073,195.30177418036166 244.40454582617818,194.35990515902242 241.97661679339532,191.93197612623658 240.65800016351827,190.86452456871905 239.75799198757178,190.2994031559161 237.64401929523385,189.19009075300434 236.91145450085838,188.9389256806478 236.26261139726842,188.89706483525504 235.25795110784227,189.06450821682606 233.12304799280423,189.73428174311167 232.36955277573463,190.11102935164794 231.05093614586056,190.9691766822017 230.12999754721693,191.28313302264812 228.9578938762168,191.51336767230902 226.15321723489467,191.9529065489337 224.43692257378717,192.43430627095114 223.9973836971625,192.41337584825402 222.63690622189418,192.22500204398736 221.54852424168251,192.28779331207576 221.1717766331462,192.37151500286126 220.46014226146787,192.68547134330768 219.07873436350243,192.97849726105846 218.80663886844877,193.16687106532663 218.66012590957487,193.4598969830759 218.78570844575165,194.5064181178978 218.72291717766325,194.92502657182538 218.49268252800385,195.30177418036166 218.11593491946755,195.6994522115936 217.63453519744863,196.03433897473715 217.04848336195002,196.34829531518355 214.95544109230624,196.99713841877204 213.59496361703793,197.66691194505762 213.32286812198427,197.75063363584314 212.8414683999683,197.75063363584314 211.48099092470002,197.45760771809384 210.9367999345927,197.43667729539672 208.02747117978794,197.93900744011128 206.83443708609363,198.0855203989867 206.08094186902102,198.12738124437942 203.9041779085947,198.0227291308968 201.97857902052195,198.3157550486476 199.63437167852163,198.50412885291573 199.21576322459407,197.45760771809384 198.69250265718387,196.3901561605763 194.3389747363253,188.8133431444695 193.8157141689151,187.8086828550404 193.4389665603788,186.92960510179103 193.16687106532513,186.07145777123728 192.87384514757733,184.75284114136173 192.37151500286126,180.9853650560062 192.16221077589898,179.64581800343353 191.78546316736268,177.95045376502316 191.38778513612925,176.56904586705923 190.529637805577,173.9108821846125 189.81800343389867,172.08993541002386 189.12729948491446,170.8341100482382 188.45752595863036,169.99689314038156 187.745891586952,169.4108413048815 186.9923963698794,168.95037200555967 186.34355326629242,168.69920693320313 185.52726678113143,168.5317635516321 184.5226064917023,168.46897228354223 183.7481808519326,168.5317635516321 183.14119859373687,168.7410677785959 182.45049464475565,169.11781538713072 181.82258196386283,169.53642384105976 181.2574605510584,170.03875398577432 180.6086174474714,170.77131878014978 179.95977434388143,171.67132695609482 178.80860109557838,173.7015779576487 177.4481236203101,176.5481154443636Z"/>
  </g>
</svg>