<?xml version="1.0" encoding="UTF-8" standalone="no"?>
<svg viewBox="0 0 256 52.46357161899666" xmlns="http://www.w3.org/2000/svg">
  <style>
    g.zone {
      fill: lightgray;
      stroke-width: 2;
      stroke-linecap: square;
      stroke-linejoin: bevel;
      stroke-miterlimit: 3;
      stroke-opacity: 0.8;
      stroke: black;
      fill-opacity: 0.3;
    }
  </style>
  <g class="zone" id="zone">
    <path d="M48.08591994515748,19.411813992459223 48.85615264500957,20.61103705678455 49.31439235251611,21.430018661690077 49.636135125871384,22.190501580530377 49.89937921316282,23.097231214533046 50.01637658529188,23.711467418211672 50.13337395742094,24.510949461095688 50.37711848269017,26.93864493277965 50.386868263701274,27.51388201241525 50.36736870167907,28.030620405987015 50.27962067258331,28.64485660966564 50.162623300452864,29.06409719312916 50.01637658529188,29.444338652549657 49.89937921316282,29.688083177818886 49.548387096774235,30.204821571389957 49.04139848421357,30.75080930799364 48.48566096660018,31.20904901550018 47.97867235403952,31.569790912899165 47.39368549339281,31.95003237231966 44.93674067867693,33.412499523936425 44.02026126366385,33.9194881364964 43.18178009673681,34.309479376927996 42.48954564497076,34.582473245229835 41.45606885782862,34.913965799596205 40.50059031877252,35.12846098183282 39.7108580568996,35.23570857295148 38.93087557603779,35.25520813497299 37.24416346117262,35.11871120082242 36.40568229424558,35.0992116388009 35.781696309555855,35.138210762843926 33.90973835548668,35.31370682103822 32.72026507217107,35.35270594508124 31.803785657157988,35.31370682103822 30.692310621929803,35.17720988688695 29.473587995582267,34.94321514262813 27.37738507826468,34.47522565411118 26.626651940434787,34.25098069086277 25.914917926647917,33.97798682256162 25.5151769052066,33.78299120234582 25.134935445786105,33.5587462390981 24.471950337053357,33.09075675058046 23.83821457135253,32.53501923296637 22.833987127242306,31.569790912899165 22.35624785771495,31.19929923448977 22.034505084358294,31.02380317629548 21.74201165403494,30.92630536618793 21.44951822371159,30.88730624214491 21.137525231367416,30.897056023155315 20.815782458012144,30.97505427124136 20.523289027688794,31.092051643371114 20.26004494039736,31.257797920554303 19.996800853105928,31.46254332178051 19.7725558898589,31.69653806603933 19.538561145599388,32.00853105838419 19.353315306395384,32.34002361275057 19.207068591233014,32.68126594812804 19.09007121910395,33.11025631260197 19.04132231404983,33.48074799101136 19.012072971017908,33.87073923144296 19.02182275202901,34.24123090985236 19.12907034314697,35.12846098183282 19.44106333549114,36.60067791446069 19.577560269642408,37.45865864340924 19.61655939368543,38.121643752141985 19.577560269642408,38.68713105076718 19.489812240545266,39.038123167155064 19.392314430438404,39.3111170354569 19.246067715276034,39.574361122747646 19.06082187607203,39.83760521003908 18.83657691282362,40.071599954297895 18.60258216856549,40.27634535552411 18.271089614199116,40.490840537760725 17.91034771679944,40.67608637696611 17.325360856152734,40.89058155920273 16.808622462582356,40.99782915032139 16.28213428799949,41.0368282743644 15.726396770384705,40.99782915032139 15.307156186922573,40.90033134021383 14.926914727502075,40.744334844041056 14.55642304909268,40.539589442814844 13.756941006208665,40.013101268232674 13.47419735689503,39.86685455307099 13.210953269604982,39.75960696195234 12.859961153216405,39.67185893285589 12.479719693795909,39.623110027801765 12.118977796397616,39.623110027801765 11.680237650911893,39.66210915184479 11.3097459725025,39.73035761892042 10.919754732072287,39.847354991049485 10.520013710629586,40.00335148722226 10.14952203222019,40.178847545415856 9.457287580455523,40.57858856685787 7.614578969418265,41.75831206916238 7.146589480900624,42.021556156453116 6.698099554405186,42.245801119700836 6.161861598812604,42.45054652092774 5.664622767263044,42.58704345507831 5.1283848116690764,42.67479148417546 4.709144228205559,42.694291046196966 4.133907148569955,42.64554214114284 3.4319229157941864,42.49929542598117 2.7591880260503374,42.27505046273345 1.8524583920483606,41.87530944129144 1.1504741592725918,41.47556841984943 0.7117340137868704,41.14407586548306 0.39974102144270013,40.822333092127785 0.2729938683025345,40.6468370339335 0.13649693415126726,40.39334272765317 0.03899912404302129,40.13009864036243 0,39.82785542902798 0.009749781011101704,39.53536199870462 0.08774802909714428,39.18436988231674 0.24374452526922943,38.843127546939265 0.39974102144270013,38.58963324065962 0.6239859846897261,38.30688959134668 0.887230071981159,38.04364550405594 1.4332178085848426,37.624404920592426 1.9499562021566066,37.283162585214946 2.8566858361585834,36.78592375366539 5.567124957154798,35.381955288113154 6.532353277222,34.83596755150947 7.156339261911725,34.42647674905706 7.819324370644473,33.9194881364964 8.238564954107991,33.50999733404398 8.599306851506284,33.05175762653744 8.823551814754696,32.63251704307392 8.91129984385184,32.36927295578318 8.940549186883759,32.19377689758889 8.930799405872659,31.833035000189906 8.833301595765798,31.491792664813122 8.638305975549306,31.160300110446748 8.384811669268974,30.858056899112295 8.043569333892885,30.565563468788945 7.663327874472388,30.302319381498204 6.298358532962486,29.454088433560067 5.849868606467049,29.10309631717218 5.489126709068755,28.761853981794705 5.14788437369128,28.32311383631037 4.923639410442869,27.884373690825342 4.796892257302702,27.406634421296598 4.757893133259682,26.90939558974704 4.826141600336007,26.139162889895637 5.011387439540012,25.134935445785413 5.216132840766221,24.442700994020054 5.4598773660354505,23.867463914384448 5.762120577369904,23.350725520813377 6.152111817801503,22.833987127242306 6.659100430362165,22.25875004760601 7.848573713676393,21.010778078226558 8.189816049053867,20.601287275774144 8.4433103553342,20.260044940396668 8.69680466161453,19.82130479491164 8.852801157786615,19.450813116502243 8.950298967894861,18.973073846974195 8.960048748905963,18.573332825532187 9.389039113379198,18.52458392047806 9.65228320067063,18.544083482499573 9.83752903987602,18.583082606542597 10.052024222111944,18.69033019766125 10.461515024565747,19.012072971017215 10.646760863769751,19.109570781124766 10.802757359941836,19.14856990516779 11.182998819362332,19.1778192482004 12.421221007732068,19.226568153253833 13.123205240507838,19.285066839319057 13.405948889820088,19.353315306394 14.244430056747124,19.66530829873886 14.712419545264765,19.772555889857514 15.336405529954492,19.831054575922046 15.970141295655319,19.82130479491164 16.22363560193565,19.84080435693315 17.227863046045872,20.08454888220238 18.14434246105895,20.191796473321034 18.66108085462933,20.221045816353644 19.285066839319057,20.3185436264612 19.48006245953555,20.30879384545079 19.58731005065351,20.250295159385566 20.016300415128132,19.753056327836006 20.26004494039736,19.548310926609798 20.494039684655487,19.39231443043702 20.796282895989943,19.294816620329467 20.97177895418423,19.285066839319057 21.14727501237852,19.304566401340566 21.478767566744892,19.431313554480734 21.92725749324033,19.714057203792983 22.122253113455436,19.782305670868617 22.648741288038302,19.909052824008782 22.941234718361656,20.07479910119197 23.292226834748845,20.33804318848271 23.799215447309507,20.79628289598925 24.189206687741105,21.274022165517298 24.364702745935396,21.44951822371159 24.608447271204625,21.605514719883672 24.97893894961402,21.810260121110574 25.203183912861046,21.98575617930417 25.69067296340089,22.541493696918955 26.031915298778365,22.833987127242306 26.763148874586054,23.272727272727337 27.13364055299545,23.526221579006975 28.176867121148693,24.39395208896662 28.537609018548373,24.588947709181728 29.015348288075728,24.79369311040863 29.50283733861419,24.881441139505082 30.058574856228972,24.900940701526594 30.828807556081067,24.832692234451653 31.452793540770795,24.735194424343405 31.6477891609859,24.735194424343405 31.881783905244028,24.79369311040863 32.48627032791294,25.095936321742393 32.944510035419476,25.164184788818023 33.334501275851075,25.25193281791517 33.46124842899124,25.242183036904066 33.5587462390981,25.193434131849944 33.91948813649778,24.910690482537692 34.036485508626846,24.871691358494672 34.133983318733705,24.86194157748357 34.299729595916894,24.910690482537692 34.43622653006816,24.988688730623736 34.65072171230547,25.290931941958192 34.72871996039151,25.359180409033822 34.835967551510855,25.407929314087255 34.94321514262882,25.407929314087255 35.02121339071486,25.359180409033822 35.04071295273707,25.28118216094709 34.98221426667184,24.949689606580716 35.01146360970376,24.676695738278873 35.17720988688695,24.325703621890987 35.41120463114646,23.974711505503105 35.60620025136157,23.760216323265794 35.8499447766308,23.574970484061097 36.122938644933335,23.487222454963952 36.32768404615954,23.477472673953542 36.52267966637465,23.506722016985464 37.07841718398943,23.69196785619016 37.41965951936691,23.769966104276897 38.09239440911075,23.87721369539555 38.823627984918446,23.935712381460082 39.145370758273714,24.013710629546125 39.36961572152213,24.169707125718904 40.022851049243776,24.832692234451653 40.28609513653521,25.06668697871047 40.6565868149446,25.32018128499011 41.20257455154829,25.622424496324562 41.92405834634626,25.953917050690936 42.87953688540236,26.2756598240469 43.34752637392,26.363407853143354 44.06901016871659,26.421906539208578 44.16650797882483,26.402406977187066 44.205507102867855,26.334158510111436 44.205507102867855,25.836919678561873 44.13725863579291,25.544426248238523 43.95201279658752,25.134935445785413 43.76676695738352,24.871691358494672 43.54252199413511,24.637696614235853 43.279277906843674,24.423201431998542 42.73329017023999,24.04295997257874 42.40179761587361,23.69196785619016 42.21655177666961,23.457973111932034 42.11905396656137,23.253227710705133 42.089804623529446,23.058232090490026 42.138553528583564,22.93148493734986 42.30429980576675,22.765738660166672 42.509045206992965,22.619491945005 43.34752637392,22.171002018508865 44.283505350953895,21.566515595840652 45.13173629889203,21.235023041474278 45.453479072247305,21.137525231366723 46.14571352401336,20.971778954183538 46.49670564040055,20.81578245801076 46.73070038466006,20.650036180827573 46.98419469094039,20.435540998590263 47.73492782877028,19.577560269642408 47.94942301100621,19.44106333549114 48.08591994515748,19.411813992459223Z"/>
    <path d="M255.1712686140827,9.330540427314665 255.1810183950938,9.584034733594304 255.15176905206187,9.886277944928757 254.91777430780374,10.978253418136125 254.90802452679264,11.15374947632972 254.91777430780374,11.407243782610053 254.97627299386758,11.641238526868872 255.0640210229647,11.84598392809508 255.5807594165365,12.850211372205303 255.71725635068637,13.19145370758278 255.8050043797835,13.522946261949153 255.89275240888065,13.9909357504661 255.96100087595698,14.546673268080886 256,15.209658376813634 255.9902502189889,15.765395894427726 255.94150131393476,16.301633850021002 255.8050043797835,16.925619834710727 255.19076817610488,18.739079102715372 254.8397760597163,20.01630041512744 254.7032791255664,20.41604143656875 254.47903416231802,20.913280268119006 254.13779182694054,21.420268880678975 253.66005255741317,21.94675705526115 253.1238146018206,22.443995886810708 251.9928400045702,23.39947442586681 249.77963971512355,25.154435007806924 249.37989869368084,25.398179533076846 248.92165898617432,25.56392581026003 248.521917964733,25.641924058346074 248.07342803823755,25.671173401378688 247.5566896446658,25.651673839357176 247.07895037513705,25.593175153291952 246.17222074113508,25.407929314087255 244.00776935674256,24.81319267243014 243.43253227710696,24.715694862321893 242.84754541646024,24.676695738278873 241.91156643942497,24.686445519289975 238.85988498305127,24.891190920516184 237.9921544730923,24.988688730623736 236.13969608104395,25.27143237993668 235.310964695128,25.349430628022724 234.8819743306548,25.359180409033822 234.5212324332551,25.329931066001212 234.18973987888873,25.27143237993668 233.84849754351126,25.173934569828432 233.5852534562212,25.05693719769937 233.3317591499409,24.900940701526594 233.09776440568137,24.715694862321893 232.85401988041212,24.481700118063767 231.6742963781076,23.009483185435904 230.15333054042702,21.215523479452767 229.79258864302872,20.737784209924715 229.5000952127054,20.289294283428585 229.28560003046806,19.870053699965762 228.88585900902538,18.94382450394158 228.73961229386438,18.700079978672353 228.5641162356701,18.48558479643504 228.32037171040088,18.27108961419773 227.9986289370456,18.095593556004136 227.66713638267782,17.96884640286397 226.6921582816009,17.686102753551026 226.38991507026645,17.569105381421963 226.16567010701806,17.432608447270695 225.94142514377103,17.247362608066 225.76592908557674,17.04261720683979 225.61968237041575,16.769623338537947 225.5124347792964,16.428381003160474 225.44418631222146,16.06763910576218 225.41493696918815,15.716646989374295 225.40518718817845,15.024412537608935 225.4636858742423,14.380926990897699 225.6684312754685,12.75271356209775 225.7171801805226,11.416993563621153 225.75617930456565,10.929504513082001 225.9121758007391,10.188521156262519 226.32166660319152,8.979548310926088 226.46791331835252,8.482309479376527 226.72140762463283,7.146589480899931 226.78965609170916,6.932094298663314 226.90665346383824,6.698099554404493 227.11139886506444,6.464104810145673 227.46239098145162,6.2398598468979545 227.90113112693734,6.093613131736278 228.45686864455215,5.986365540617623 229.3050995924889,5.927866854553091 230.29957725558802,5.898617511520479 232.73702250828308,5.9766157596065215 233.23426133983264,5.9766157596065215 233.7509997334044,5.90836729253158 233.92649579159868,5.849868606466356 234.08249228777078,5.762120577369904 234.21898922192065,5.65487298625125 234.3067372510178,5.528125833111083 234.37498571809414,5.352629774916795 234.39448528011494,5.157634154701689 234.35548615607192,4.757893133259682 234.1117416308027,3.57816963095517 234.04349316372776,2.954183646265444 234.06299272574856,2.38869634764025 234.1214914118138,2.096202917316897 234.20923944091095,1.8524583920476678 234.35548615607192,1.5404653997028046 234.5212324332551,1.267471531400963 234.7162280534716,1.0139772251206318 234.96972235975193,0.7604829188403006 235.24271622805307,0.5459877366036836 235.51571009635424,0.3802414594198039 235.90570133678582,0.20474540122620816 236.21769432913138,0.10724759111865492 236.6369349125949,0.029249343031919586 237.08542483909034,0 237.62166279468292,0.00974978101040894 239.27912556651478,0.09749781010755322 239.8933617701948,0.07799824808604258 241.07308527249793,0.00974978101040894 241.57032410404747,0.00974978101040894 241.93106600144716,0.03899912404302129 242.31130746086765,0.10724759111865492 242.65254979624376,0.20474540122620816 242.9742925696004,0.34124233537678267 243.41303271508474,0.5752370796356031 243.82252351753715,0.8774802909700573 244.34901169212003,1.3259702174654948 244.91449899074453,1.8622081730580766 245.45073694633712,2.437445252694373 245.89922687283394,2.983432989298056 246.92295387896496,4.436150359903716 247.1861979662564,4.71889400921666 247.48844117759086,4.923639410442869 247.79068438892392,5.050386563583034 248.25867387744157,5.138134592680178 248.6876642419162,5.157634154701689 250.08188292645661,5.099135468636464 250.52062307194234,5.118635030657975 250.99836234146971,5.186883497733608 251.44685226796653,5.2941310888522635 251.973340442548,5.47937692805696 252.48032905510868,5.732871234337292 252.8995696385722,6.005865102639134 253.2993106600135,6.327607875995098 253.6990516814562,6.737098678447515 254.10854248390862,7.234337509997076 254.4887839433291,7.741326122557737 254.78127737365247,8.209315611074686 254.98602277487868,8.618806413527794 255.10302014700773,8.960048748904578 255.1712686140827,9.330540427314665Z"/>
    <path d="M129.0676010206803,34.660471493315875 129.75008569143526,34.611722588261756 130.53981795330816,34.64097193129437 130.71531401150108,35.079712076779394 131.05655634687855,35.59645047035047 131.7487907986446,36.35693338919146 132.63602087062438,37.205164337128906 133.0747610161101,37.5756560155383 133.4452526945195,37.85839966485124 134.85897094108213,38.75537951784281 135.49270670678297,39.203869444338245 137.4426629089382,40.75408462505216 137.99840042655296,41.25132345660172 138.35914232395126,41.67056404006523 138.54438816315664,41.963057470388584 138.72963400236065,42.34329892980908 138.85638115550083,42.72354038922889 138.92462962257716,43.04528316258485 138.96362874662017,43.40602505998384 138.94412918459795,44.56624900026615 138.96362874662017,44.93674067867554 139.02212743268402,45.229234108998895 138.52488860113445,45.49247819629033 138.00815020756406,45.83372053166711 137.72540655825043,46.10671439996895 137.38416422287435,46.52595498343247 137.16966904063702,46.72095060364827 136.19469093955874,47.266938340251954 135.23921240050262,47.929923448984695 134.91746962714734,48.076170164146376 134.11798758426335,48.28091556537258 133.78649502989697,48.39791293750234 133.2892561983474,48.62215790075006 132.78226758578674,48.768404615911734 132.5092737174842,48.83665308298737 132.21678028716084,48.856152645008876 131.3392999961908,48.80740373995476 130.68606466846916,48.80740373995476 130.31557299005976,48.8854019880408 129.92558174962815,49.03164870320247 129.63308831930482,49.10964695128852 129.0383516776484,49.216894542407175 128.6678599992376,49.246143885439785 128.17062116768804,49.22664432341827 127.43938759188036,49.021898922192065 127.26389153368606,49.00239936017056 126.98114788437381,49.00239936017056 126.69840423506156,49.04139848421357 126.48390905282426,49.10964695128852 125.86967284914425,49.36314125756885 125.6064287618542,49.441139505655585 125.39193357961689,49.45088928666599 124.8361960620021,49.38264081959036 124.61195109875509,49.39239060060146 124.41695547853858,49.441139505655585 124.00746467608617,49.62638534486028 123.79296949384886,49.68488403092481 123.15923372814804,49.772632060021955 122.7107438016526,49.79213162204347 122.51574818143749,49.821380965075384 122.1647560650489,49.94812811821555 121.61876832844523,50.21137220550698 121.29702555508996,50.40636782572209 120.95578321971249,50.689111475035034 120.429295045131,51.17660052557349 120.31229767300194,51.31309745972476 120.19530030087148,51.556841984993994 120.06855314773132,52.03458125452204 119.97105533762446,52.161328407662204 119.80530906044127,52.28807556080237 119.53231519213874,52.37582358989952 119.20082263777236,52.414822713942534 118.3038427847815,52.46357161899666 117.97235023041512,52.43432227596405 117.82610351525275,52.37582358989952 117.67985680009177,52.29782534181347 117.28986555966017,51.98583234946861 117.05587081540205,51.82983585329583 116.33438702060407,51.469093955896845 115.82739840804341,51.15710096355198 115.6129032258061,51.06935293445553 115.42765738660209,51.03035381041182 115.2326617663856,51.03035381041182 114.2771832273295,51.196100087595006 113.66294702365087,51.17660052557349 113.19495753513323,51.11810183950896 112.951213009864,51.06935293445553 112.65871957954064,50.95235556232578 112.44422439730334,50.78660928514259 112.20047987203411,50.445366949765116 112.04448337586203,50.074875271355715 112.22972921506603,49.81163118406498 112.43447461629223,49.46063906767709 112.5709715504435,49.13889629432113 112.64896979852955,48.846402863997774 112.71721826560588,48.45641162356687 112.73671782762669,47.98842213504923 112.7269680466156,47.68617892371547 112.67821914156285,47.25718855924085 112.61972045549763,47.013444033971616 112.50272308336856,46.652702136572636 112.37597593022839,46.40895761130341 112.21022965304522,46.145713524011974 112.03473359485092,45.921468560764254 111.82998819362471,45.74597250257066 111.62524279239851,45.60947556841939 111.37174848611818,45.49247819629033 110.93300834063245,45.37548082416057 110.53326731919114,45.32673191910714 110.03602848764157,45.40473016719318 109.62653768518916,45.54122710134376 109.27554556880058,45.70697337852694 108.98305213847723,45.89221921773233 108.01782381841004,46.74045016566978 107.51083520584938,47.11094184407917 107.1988422135052,47.27668812126236 106.88684922115965,47.41318505541363 106.56510644780437,47.50093308451077 106.25311345545882,47.5594317705753 105.8728719960397,47.58868111360722 105.47313097459701,47.57893133259682 105.01489126709046,47.51068286552118 104.55665155958393,47.403435274402526 104.08866207106628,47.24743877823044 103.44517652435574,46.99394447195011 102.98693681684921,46.759949727691286 102.72369272955777,46.603953231519206 102.28495258407344,46.233461553109116 102.06070762082503,45.97021746581837 101.91446090566265,45.755722283581065 101.71946528544754,45.29748257607453 101.40747229310338,44.20550710286716 101.2417260159202,43.76676695738213 100.99798149064958,43.337776592908206 100.6762387172943,42.996534257530726 100.37399550595985,42.79178885630452 99.99375404653935,42.606543017099824 99.53551433903282,42.45054652092774 98.44353886582682,42.14830330959328 97.88780134821205,41.963057470388584 97.35156339261947,41.72906272612977 96.79582587500468,41.40731995277449 96.35708572952035,41.08557717941853 95.97684427009985,40.73458506303064 95.65510149674319,40.373843165631655 94.75812164375232,39.26236813040278 94.45587843241786,38.96012491906902 94.1536352210834,38.68713105076718 93.86114179076006,38.482385649540966 93.53939901740478,38.27764024831407 92.2426781429712,37.63415470160283 91.68694062535641,37.32216170925797 91.0824542026889,36.90292112579445 90.48771756103109,36.38618273222338 90.17572456868692,36.07418973987851 89.88323113836357,35.723197623490634 89.66873595612626,35.42095441215618 89.49323989793197,35.11871120082242 89.3567429637807,34.78721864645604 89.27874471569466,34.5142247781542 89.05449975244764,33.461248428989855 88.96675172335048,33.22725368473173 88.84975435122004,32.993258940472906 88.67425829302714,32.739764634192575 88.45001332977873,32.515519670944855 88.16726968046648,32.31077426971795 87.87477625014313,32.154777773545874 87.29953917050751,31.95003237231966 86.61705449975257,31.842784781201008 85.92482004798791,31.813535438168394 84.64759873557514,31.852534562211417 83.77011844460509,31.92078302928705 82.99988574475438,32.037780401416114 80.86468370339377,32.53501923296637 80.06520166050976,32.68126594812804 79.56796282896019,32.739764634192575 78.93422706325936,32.7787637582356 77.96899874319216,32.74951441520298 77.39376166355656,32.68126594812804 76.82827436493206,32.574018357009386 76.26278706630617,32.43752142285812 75.59980195757342,32.22302624062151 74.94656662985177,31.979281715351583 74.34208020718287,31.69653806603933 73.65959553642791,31.34554594965145 73.08435845679232,30.99455383326287 72.72361655939402,30.741059526983232 72.38237422401654,30.458315877670287 71.92413451651001,29.99032638915334 71.57314240012143,29.51258711962529 71.39764634192852,29.181094565258224 71.29039875080917,28.927600258978586 71.1539018166579,28.42061164641792 71.08565334958297,27.825875004760118 71.09540313059408,27.289637049167535 71.17340137868011,25.846669459572283 71.20265072171203,24.85219179647316 71.16365159766902,24.159957344707802 71.07590356857187,23.574970484061097 70.89065772936786,22.92173515633876 70.73466123319578,22.560993258940464 70.57866473702231,22.297749171649034 70.43241802186132,22.073504208401314 70.21792283962401,21.820009902120983 69.95467875233258,21.576265376851754 69.61343641695511,21.29352172753881 69.6231861979662,21.25452260349579 69.53543816886906,20.81578245801076 69.54518794988016,20.445290779601365 69.6036866359454,20.299044064439688 69.75968313211747,20.15279734927801 69.93517919031176,20.07479910119197 70.39341889781831,19.948051948051805 70.57866473702231,19.831054575922046 71.56339261911171,18.534333701489164 71.97288342156413,17.803100125680785 72.11913013672512,17.627604067486494 72.26537685188748,17.530106257378943 72.42137334805956,17.481357352324817 72.98686064668546,17.393609323227675 73.55234794530996,17.227863046044487 74.15683436797886,17.169364359979955 74.30308108313984,17.110865673915423 74.91731728681847,16.78912290055946 75.3560574323042,16.623376623376274 75.85329626385375,16.52587881326872 76.47728224854347,16.311383631031408 77.14026735727623,16.252884944966876 77.41326122557737,16.184636477891242 77.81300224702008,16.018890200708057 78.59298472788188,15.463152683093965 78.96347640629128,15.287656624899675 79.93845450736958,15.014662756597835 80.38694443386503,14.85866626042575 81.18642647674903,14.70266976425297 81.90791027154701,14.41992611494072 82.52214647522564,14.312678523822065 82.86338881060311,14.215180713714512 83.10713333587233,14.059184217541734 83.47762501428173,13.678942758121238 83.72136953955096,13.53269604295956 83.9748638458313,13.425448451840907 84.26735727615464,13.366949765776374 84.87184369882355,13.327950641733354 85.14483756712471,13.27920173667923 85.53482880755631,13.152454583539065 86.13931523022383,12.859961153215712 86.42205887953746,12.791712686140771 87.49453479072262,12.616216627946482 87.69928019194883,12.55771794188195 87.826027345089,12.489469474806317 87.93327493620696,12.401721445709173 88.23551814754141,12.011730205278267 88.46951289180093,11.83623414708467 88.73275697909098,11.709486993944505 88.80100544616731,11.631488745857771 88.81075522717701,11.553490497771728 88.7912556651562,11.455992687664175 88.53776135887587,10.958753856114614 88.48901245382174,10.69550976882318 88.52801157786477,10.529763491639995 88.69375785504795,10.110522908176476 88.81075522717701,9.418288456411117 88.87900369425334,9.2037932741745 88.94725216132828,9.077046121034334 89.10324865750037,8.891800281829637 89.67848573713736,8.423810793311995 90.75096164832253,7.848573713676393 91.72593974940082,7.507331378298917 92.2329283619601,7.409833568191364 92.6326693834028,7.409833568191364 93.86114179076006,7.497581597287815 94.1828845641167,7.546330502341938 94.52412689949419,7.634078531439083 94.87511901588138,7.673077655482104 95.20661157024774,7.663327874471002 95.74284952584033,7.58532962638496 96.19133945233716,7.5365807213315295 97.06881974330722,7.5365807213315295 97.64405682294282,7.595079407396061 98.06329740640633,7.682827436493206 98.26804280763254,7.751075903568147 98.58978558098781,7.936321742772844 98.92127813535419,8.02406977186999 99.96450470350743,8.160566706021255 100.60799025021936,8.26781429713991 101.22222645389799,8.316563202193342 102.1972045549763,8.54080816544106 102.53844689035377,8.54080816544106 102.87968922572985,8.433560574323097 103.47442586738767,8.121567581978235 103.77666907872212,7.926571961762435 104.02041360399134,7.692577217503614 104.16666031915233,7.497581597287815 104.23490878622866,7.322085539094219 104.26415812926058,7.156339261911032 104.26415812926058,6.717599116426004 104.2934074722925,6.571352401264328 104.37140572037993,6.425105686102651 104.46890353048678,6.337357657005508 104.67364893171299,6.2398598468979545 104.8881441139503,6.181361160833422 105.20013710629586,6.181361160833422 105.55112922268304,6.2398598468979545 105.8533724340175,6.317858094983997 106.09711695928674,6.41535590509155 107.26709068058014,6.990592984727846 108.06657272346416,7.419583349201773 108.38831549681943,7.614578969417572 108.5443119929929,7.741326122557737 109.15854819667152,8.316563202193342 109.08054994858549,8.414061012301588 109.03180104353136,8.55055794645216 109.02205126252025,8.72605400464645 109.06105038656328,8.882050500818535 109.15854819667152,9.067296340023232 109.61678790417807,9.632783638648426 109.73378527630713,10.042274441101537 109.74353505731823,10.334767871424196 109.58753856114615,10.705259549834283 109.55828921811283,10.88075560802788 109.65578702822108,11.524241154739116 109.63628746619888,11.787485242030549 109.54853943710312,12.128727577408023 109.39254294092964,12.508969036827828 109.35354381688663,12.703964657043628 109.36329359789774,12.82096202917269 109.4802909700268,13.26945195566882 109.4900407510379,13.591194729024094 109.45104162699488,13.72769166317536 109.29504513082279,14.088433560574346 109.25604600677977,14.254179837757533 109.3047949118325,14.926914727500689 109.27554556880058,15.531401150168906 109.40229272194075,15.960391514643526 109.44129184598377,16.233385382945368 109.43154206497267,16.408881441138963 109.39254294092964,16.574627718322148 109.29504513082279,16.75987355752754 108.95380279544531,17.23761282705559 108.74905739421911,17.822599687702294 108.63206002209004,18.03709486993891 108.5345622119818,18.134592680047156 108.30056746772229,18.251590052176223 107.99832425638921,18.319838519251856 107.09159462238586,18.38808698632749 106.85759987812773,18.45633545340243 106.4481090756753,18.748828883725782 106.31161214152404,18.88532581787705 106.18486498838388,19.070571657081747 106.09711695928674,19.34356552538359 106.11661652130894,19.499562021555676 106.15561564535196,19.60680961267433 106.31161214152404,19.850554137943558 106.67235403892234,20.250295159385566 107.10134440339695,20.562288151730428 107.22809155653712,20.698785085881696 107.32558936664536,20.864531363064884 107.41333739574252,21.098526107323703 107.50108542483966,21.58601515786216 107.59858323494652,21.868758807175105 107.70583082606586,22.093003770422825 107.93982557032399,22.47324522984332 108.01782381841004,22.648741288036916 108.1640705335724,23.17522946261909 108.24206878165845,23.750466542255385 108.32981681075559,23.925962600448983 108.46631374490548,24.05270975358915 108.81730586129405,24.286704497847968 108.98305213847723,24.374452526945113 109.24629622576867,24.481700118063767 109.45104162699488,24.520699242106787 110.19202498381367,24.413451650988133 110.4650188521162,24.432951213009645 110.62101534828828,24.481700118063767 110.79651140648258,24.588947709181728 111.00125680770878,24.900940701526594 111.15725330388086,25.01793807365635 111.4009978291501,25.05693719769937 112.17123052900219,25.086186540731983 112.60997067448653,25.193434131849944 112.81471607571274,25.28118216094709 112.86346498076686,25.359180409033822 112.84396541874604,25.466428000151787 112.60997067448653,25.846669459572283 112.52222264538938,26.119663327874125 112.53197242640049,26.343908291121842 112.5904711124657,26.50965456830503 112.76596717065861,26.70465018852083 112.98046235289593,26.860646684693606 113.1657081921013,26.928895151768547 113.59469855657593,26.99714361884418 113.81894351982295,27.065392085919814 114.16018585520044,27.2213885820919 114.37468103743774,27.37738507826468 114.53067753360983,27.572380698479787 114.59892600068615,27.738126975663665 114.65742468674999,28.274364931256248 114.74517271584713,28.54735879955809 114.90116921201923,28.80085310583842 115.04741592718159,28.966599383021606 115.75914994096847,28.518109456525476 116.11014205735566,28.3718627413638 116.33438702060407,28.34261339833188 116.60738088890521,28.36211296035339 117.13386906348808,28.518109456525476 117.41661271280033,28.674105952698255 117.60185855200572,28.83010244887034 117.7578550481778,29.015348288075035 118.06009825951226,29.483337776592677 118.61583577712567,30.06832463723938 118.74258293026583,30.165822447346937 118.8985794264393,30.22432113341147 119.0838252656433,30.25357047644408 119.90280687054813,30.243820695432976 120.33179723502275,30.321818943519713 120.71203869444325,30.4875652207029 121.10202993487485,30.77030887001515 121.25802643104693,30.858056899112295 121.48227139429535,30.906805804166417 122.3305023422321,30.97505427124136 122.70099402064149,31.082301862360016 122.90573942186909,31.22854857752169 123.27623110027848,31.628289598963697 123.61747343565457,31.852534562211417 123.8709677419349,31.989031496362685 124.98244277716448,32.30102448870755 125.65517766690833,32.320524050729055 125.92817153520947,32.37902273679359 126.04516890733854,32.466770765890736 126.14266671744679,32.5935179190309 126.24991430856474,33.10050653159156 126.32791255665217,33.27600258978516 126.46440949080205,33.50024755303288 126.70815401607128,33.75374185931321 127.28339109570827,34.22173134783085 127.73188102220371,34.48497543512159 128.2778687588074,34.709220398369304 128.56061240811965,34.72871996039151 129.0676010206803,34.660471493315875Z"/>
  </g>
</svg>