<?xml version="1.0" encoding="UTF-8" standalone="no"?>
<svg viewBox="0 0 189.09237758707675 256" xmlns="http://www.w3.org/2000/svg">
  <style>
    g.zone {
      fill: lightgray;
      stroke-width: 2;
      stroke-linecap: square;
      stroke-linejoin: bevel;
      stroke-miterlimit: 3;
      stroke-opacity: 0.8;
      stroke: black;
      fill-opacity: 0.3;
    }
  </style>
  <g class="zone" id="zone">
    <path d="M129.81995625105162,248.2678781760058 129.66919064445523,248.3001850917045 129.43227326266282,248.45095069830091 128.60306242638487,249.39862022547504 128.3230691569922,249.635537607269 128.06461383139813,249.81861012956406 127.67693084300933,249.99091367995985 126.91233383812875,250.17398620225495 126.55695776543864,250.28167592125183 125.62005721016303,250.64782096584202 124.58623590779136,251.31549722362425 123.66010432441583,251.81086993101147 123.43395591452199,251.9724045095072 123.2508833922269,252.1554770318023 123.19703853272806,252.29547366649862 123.22934544842674,252.5108531044924 123.3370351674244,252.737001514387 123.5416456335181,252.99545683997954 123.9077906781083,253.38313982836988 124.5108531044924,253.80312973245813 124.80161534578515,254.04004711425205 125.04930169947913,254.29850243984535 125.25391216557284,254.5892646811373 125.42621571596786,254.96617869762758 125.5123674911669,255.26770991081963 125.53390543496552,255.91384822480248 125.5123674911669,255.96769308430055 125.46929160356815,256 124.76930843008645,255.96769308430055 124.39239441359621,255.9246171967018 124.06932525660477,255.84923439340434 123.01396601043297,255.49385832071349 122.2170620898537,255.1277132761233 121.6139996634696,254.7938751472318 121.20477873128065,254.51388187783988 120.9140164899879,254.25542655224658 120.19249537270761,253.5231364630662 119.94480901901362,253.35083291267043 119.5894329463235,253.2646811374729 118.78176005384569,253.20006730607477 118.03870099276524,253.08160861517783 117.661786976275,252.99545683997954 117.04795557799082,252.79084637388507 116.83257613999703,252.7585394581864 116.60642773010319,252.7693084300857 116.30489651691038,252.86622917718327 116.03567221941776,253.07083964327774 115.82029278142399,253.30775702507168 115.56183745582993,253.69544001346122 115.37876493353484,254.0831230018508 115.34645801783616,254.38465421504284 115.41107184923504,254.75079925963303 115.3895339054349,254.83695103483132 115.3033821302374,254.89079589432936 115.1849234393412,254.89079589432936 115.06646474844348,254.83695103483132 114.98031297324596,254.76156823153312 114.74339559145204,254.4277301026416 114.59262998485563,254.3415783274441 114.40955746256054,254.28773346794526 114.30186774356442,254.29850243984535 114.17264008076815,254.3415783274441 113.77418812047776,254.65387851253544 113.66649840148163,254.70772337203428 113.52650176678529,254.71849234393434 113.0957428907962,254.62157159683676 112.58960121150969,254.54618879353856 111.92192495372669,254.21235066464783 111.66346962813415,254.14773683324893 111.36193841494286,254.158505805149 110.84502776375626,254.2446575803465 110.10196870267582,254.3200403836447 109.52044422009033,254.33080935554403 109.08968534410278,254.28773346794526 108.5620057210161,254.13696786134963 107.9050984351347,253.8246676762575 107.71125694093955,253.68467104156193 106.67743563856635,252.81238431768446 106.26821470637742,252.53239104829254 105.46054181389961,252.04778731280538 105.08362779740935,251.72471815581397 104.5451792024226,251.11088675752978 104.29749284873014,250.91704526333538 103.8882719165412,250.69089685344076 103.6190476190486,250.51859330304575 103.42520612485343,250.32475180885058 102.99444724886436,249.79707218576468 102.43446071007901,249.29093050647816 102.0467777216902,249.00016826518618 101.72370856469878,248.8170957428911 101.14218408211329,248.67709910819477 100.9268046441195,248.60171630489654 100.50681474003049,248.33249200740394 100.19451455493913,248.1924953727076 99.95759717314522,248.12788154130948 99.79606259464873,248.12788154130948 99.56991418475488,248.16018845700816 99.34376577486104,248.24634023220568 99.0853104492685,248.41864378260146 98.8160861517759,248.64479219249532 98.34225138818806,249.19400975938058 98.22379269729187,249.25862359077948 98.00841325929656,249.26939256267877 97.31919905771494,249.1617028436819 96.74844354703106,249.12939592798244 95.736160188458,249.0109372370855 94.62695608278737,248.74171293959287 94.3469628133947,248.7201749957935 93.64697963991301,248.7309439676928 92.95776543833139,248.66633013629468 92.4408547871448,248.54787144539773 91.51472320376926,248.2032643446069 91.2024230186779,248.12788154130948 90.42705704189878,248.06326770991058 89.0593976106341,248.0094228504125 88.63940770654507,247.97711593471305 88.46710415615006,247.9340400471143 88.26249369005635,247.82635032811743 87.81019687026712,247.47097425542654 87.57327948847474,247.35251556452957 87.36866902237949,247.30943967693082 87.07790678108675,247.28790173313146 86.60407201750044,247.34174659263027 86.50715127040286,247.04021537943822 86.3133097762077,246.65253239104865 86.11946828201253,246.36177014975593 85.90408884401876,246.14639071176214 85.5917886589274,245.86639744236948 85.23641258623576,245.61871108867547 84.29951203096168,245.06949352179018 82.8995456839983,244.41258623590804 79.5503954231878,242.99108194514528 78.57041898031343,242.65724381625452 76.29816590947335,242.03264344607106 75.77048628638822,241.82803297997657 75.27511357900023,241.5695776543833 74.93050647821019,241.33266027258935 74.71512704021488,241.1280498064949 74.53205451791979,240.90190139660103 74.39205788322346,240.65421504290782 74.29513713612741,240.40652868921458 74.24129227662857,240.12653541982192 74.21975433282843,239.8142352347298 74.25206124852865,239.51270402153773 74.35975096752477,239.0819451455494 74.53205451791979,238.6511862695611 74.73666498401502,238.2850412249709 75.04896516910638,237.84351337708253 75.64125862359042,237.12199225980146 76.14740030287695,236.59431263671556 76.66431095406354,236.1097089012284 77.17045263335007,235.72202591283886 77.54736664984031,235.5066464748443 77.93504963823065,235.32357395254922 78.38734645801834,235.18357731785287 78.74272253070846,235.09742554265537 79.28117112569366,235.02204273935718 79.81961972068041,234.9789668517584 81.68265185933002,234.93589096415965 82.60878344270556,234.88204610466082 83.01800437489449,234.81743227326268 83.49183913848233,234.7097425542658 83.8687531549726,234.59128386336886 84.2241292276627,234.44051825677244 84.51489146895545,234.26821470637742 84.75180885074937,234.09591115598164 85.02103314824197,233.8374558303891 85.18256772673692,233.64361433619393 85.47332996802967,233.19131751640623 86.10869931011246,231.98519266363803 86.39946155140521,231.5544337876497 86.74406865219677,231.14521285546 87.14252061248565,230.7790678108698 87.65943126367225,230.39138482248026 88.2409557462562,230.04677772168944 88.94093891973789,229.7129395927987 89.80245667171454,229.3791014639072 92.67777216893872,228.35604913343408 93.24852767962261,228.19451455493837 93.8300521622081,228.08682483594148 94.33619384149463,228.0652868921421 94.90694935217851,228.09759380784155 96.98536092882344,228.46373885243173 97.74995793370402,228.5391216557292 98.6653205451795,228.54989062762925 99.59145212855503,228.43143193673228 100.26989735823658,228.25912838633727 101.1098771664146,227.95759717314522 102.63907117617424,227.28992091536298 103.58674070334838,226.81608615177512 104.32979976442883,226.35302036008736 104.8574793875155,225.91149251219898 105.29900723540312,225.40535083291246 105.67592125189339,224.81305737842843 105.92360760558738,224.3069156991419 106.17129395927984,223.65000841325974 107.05434965505661,220.95776543833063 107.2374221773517,220.13932357395274 107.77587077233692,220.17163048965142 108.28201245162343,220.16086151775212 108.60508160861487,220.12855460205267 109.40198552919414,219.97778899545705 109.7142857142855,219.98855796735634 110.06966178697714,220.06394077065454 110.72656907285854,220.2900891805484 111.5234729934378,220.66700319703864 111.7065455157329,220.806999831735 111.7711593471318,220.97930338213 111.74962140333166,221.52852094901604 111.83577317852917,222.2069661786976 111.91115598182814,222.40080767289277 111.98653878512557,222.53003533568904 112.3419148578157,222.87464243647983 112.48191149251203,223.0469459868756 112.54652532391093,223.23001850917072 112.62190812720837,223.72539121655717 112.7403668181061,224.02692242974922 112.89113242470097,224.2207639239444 113.37573616018888,224.6407538280334 113.62342251388135,224.89920915362592 113.87110886757533,225.24381625441674 114.21571596836691,225.8038027932021 114.88339222614839,226.63301362948005 115.06646474844348,227.04223456166898 115.21723035503989,227.2791519434629 115.46491670873388,227.54837624095552 115.93875147232019,228.02221100454335 116.07874810701652,228.20528352683843 116.72488642099938,229.58371193000167 117.10180043748964,230.33753996298142 117.16641426888854,230.59599528857473 117.17718324078707,230.75752986707045 117.12333838128978,230.88675752986745 117.0264176341922,230.99444724886436 116.7571933366996,231.16675079925938 116.27258960121169,231.3175164058558 115.99259633181902,231.45751304055213 115.3033821302374,231.94211677603926 115.16338549554106,232.07134443883552 115.07723372034354,232.21134107353188 114.99108194514604,232.5021033148246 114.86185428234977,233.2990072354031 114.75416456335212,234.58051489146877 114.77570250715073,234.81743227326268 114.88339222614839,235.02204273935718 115.55106848393139,235.65741208144073 116.56335184250443,236.72354029951182 116.97257277469338,237.03584048460394 117.26333501598612,237.38044758539476 117.4787144539799,237.5204442200911 117.61871108867624,237.55275113578978 117.78024566717119,237.55275113578978 118.2002355712602,237.46659936059228 118.40484603735544,237.47736833249235 119.08329126703698,237.83274440518247 120.00942285041252,238.17735150597326 121.46323405687319,238.59734141006228 122.41090358404887,238.79118290425745 123.01396601043297,238.86656570755488 124.2416288069998,238.94194851085308 125.36160188457049,238.9204105670537 126.20158169274852,238.96348645465247 126.74003028773373,239.18963486454632 127.65539289920919,239.86808009422862 127.81692747770568,240.02961467272434 128.50614167928728,241.020360087498 128.17230355039578,241.24650849739186 127.83846542150428,241.5480397105839 127.59077906781182,241.84957092377596 127.42924448931534,242.1834090526667 127.33232374221777,242.53878512535758 127.289247854619,242.9480060575465 127.31078579841915,243.3787649335356 127.42924448931534,243.96028941611956 127.5584721521116,244.36951034830926 127.7415446744067,244.8110381961969 128.12922766279704,245.57563520107672 128.87228672387747,246.8248359414437 129.81995625105162,248.2678781760058Z"/>
    <path d="M51.64798923102859,222.14235234729946 51.05569577654455,221.6685175837124 50.528016153457884,221.3131415110215 49.83880195187627,220.91468955073188 49.06343597509714,220.5377755342424 48.14807336362168,220.15009254585206 47.39424533064116,219.85933030456007 46.597341410061894,219.61164395086686 45.56352010769024,219.34241965337347 44.368164226822095,219.09473329968026 42.7312804980648,218.82550900218766 41.729766111391825,218.69628133939062 39.53289584385071,218.48090190139683 38.455998653878765,218.3409052667005 35.40837960625955,217.77014975601585 34.482248022884015,217.61938414941943 33.846878680801225,217.5547703180213 33.211509338718436,217.52246340232185 32.60844691233433,217.53323237422194 31.983846542150083,217.58707723372075 31.00387009927725,217.7593807841158 30.551573279488025,217.87783947501273 29.980817768804133,218.0716809692079 29.366986370519957,218.33013629480044 27.837792360760314,219.06242638398157 27.040888440182577,219.42857142857176 26.157832744405795,219.77317852936255 23.842503785966954,220.6023893656405 23.31482416288029,220.82853777553436 22.873296314992665,221.0762241292276 22.45330641090365,221.37775534241965 22.076392394413393,221.73313141511053 21.699478377924667,222.17465926299892 20.719501935050303,223.48847383476402 20.105670536766127,224.23153289584369 19.222614840989348,225.14689550731993 18.28571428571527,226.00841325929656 17.058051489146916,226.99915867407023 15.636547198384928,228.00067306074396 14.430422345616716,228.75450109372372 13.881204778731439,229.0452633350157 13.375063099444915,229.27141174491032 12.868921420158392,229.44371529530534 12.330472825173183,229.58371193000167 11.82433114588666,229.6698637051992 11.210499747602483,229.7344775365981 10.70435806831596,229.76678445229678 10.079757698133243,229.75601548039745 9.519771159347892,229.7129395927987 8.992091536261226,229.62678781760042 8.184418643783415,229.4006394077066 7.721352852095647,229.1960289416121 7.333669863705318,228.98064950361757 6.9890627629152755,228.76527006562378 6.601379774524947,228.46373885243173 5.869089685344575,227.76375567895005 5.492175668854317,227.30068988726228 5.104492680463989,226.76224129227708 4.8244994110728445,226.2560996129898 4.619888944977609,225.79303382130277 4.458354366481128,225.329968029615 4.339895675584933,224.8238263503285 4.296819787986178,224.34999158674066 4.318357731786321,223.93000168265164 4.404509506983832,223.51001177856338 4.512199225979955,223.19771159347127 4.673733804476435,222.86387346458054 4.889113242470212,222.50849739188965 5.438330809355491,221.85159010600748 6.525996971227507,220.7100790846374 6.9029109877162345,220.20393740535087 7.010600706713888,219.96702002355696 7.075214538112786,219.69779572606436 7.075214538112786,219.4178024566717 7.010600706713888,219.137809187279 6.859835100117479,218.84704694598702 6.6552246340237735,218.5993605922938 6.429076224129925,218.3732121823992 6.14908295473725,218.16860171630472 5.578327444051828,217.8132256436146 4.006057546693431,217.04862863873478 3.2629984856129886,216.63940770654585 2.47686353693379,216.09019013966056 1.830725222950929,215.48712771327646 1.5291940097596415,215.14252061248564 1.2815076560656504,214.79791351169484 1.0445902742732611,214.4102305233045 0.8399798081780252,214.01177856301564 0.6030624263841056,213.4517920242303 0.3661450445901858,212.80565371024744 0.1830725222950929,212.2025912838633 0.07538280329896967,211.70721857647686 0,211.10415615009276 0.021537943800142866,210.59801447080625 0.1292276627962661,210.07033484772035 0.30153121319281795,209.57496214033313 0.6784452296815449,208.8319030792527 1.1630489651694558,208.03499915867417 1.5938078411585397,207.4857815917889 2.0030287733474808,207.07656065959995 2.466094565035249,206.75349150260854 2.9830052162203136,206.5488810365133 3.3599192327105705,206.47349823321585 3.6291435302031743,206.4411913175164 4.275281844186035,206.4627292613158 4.8675752986716,206.59195692411282 5.502944640754389,206.82887430590597 6.062931179539739,207.10886757529863 7.301362948006634,207.80885074878034 7.979808177688179,208.16422682147044 8.582870604072285,208.42268214706374 9.293622749454043,208.6488305569576 10.079757698133243,208.799596163554 10.995120309608707,208.85344102305206 11.921251892984243,208.799596163554 12.868921420158392,208.6380615850583 13.913511694430122,208.32576139996615 14.495036177015615,208.088844018173 15.044253743900894,207.8303886925797 16.153457849571524,207.21655729429554 18.651859330305456,205.67659431263658 19.373380447585756,205.2996802961471 20.148746424364884,204.98738011105496 20.805653710247814,204.80430758875988 21.40871613663192,204.67507992596362 22.14100622581229,204.57815917886603 23.896348645465782,204.4273935722696 24.725559481743737,204.31970385327273 25.63015312131913,204.158169274777 26.513208817095908,203.94278983678325 27.363957597174007,203.67356553928988 28.247013292949255,203.35049638229845 31.38078411576598,201.98283695103527 32.50075719333668,201.55207807504618 33.69611307420482,201.2074709742554 36.43143193673267,200.59363957597196 37.174490997813116,200.36749116607814 37.799091367995835,200.15211172808358 38.54215042907627,199.83981154299224 39.19905771495921,199.5167423860008 39.769813225644626,199.20444220090866 40.2867238768297,198.87060407201793 40.66363789331995,198.57984183072517 40.922093218914014,198.3213865051319 41.16977957260647,197.97677940434107 41.33131415110295,197.66447921924973 41.27746929160413,197.3414100622583 41.13747265690779,196.9860339895674 40.93286219081256,196.6306579168773 40.68517583712009,196.30758875988587 38.38061585058133,193.88457008245013 35.526838297157276,190.6754164563352 34.869931011274346,189.97543328285352 34.07302709069508,189.24314319367315 33.14689550731954,188.55392899209153 32.489988221436604,188.1447080599026 32.037691401648914,187.89702170620936 31.06848393067462,187.46626283022027 30.551573279488025,187.29395927982526 30.013124684502817,187.14319367322886 29.334679454821273,187.0031970385325 28.613158337540973,186.88473834763633 27.030119468282503,186.7339727410399 25.673229008917883,186.6801278815411 24.564024903247255,186.71243479724055 23.605586404173035,186.8093555443381 22.614840989400133,186.94935217903446 19.933366986371105,187.40164899882214 19.08261820629301,187.50933871781905 17.95187615682377,187.57395254921795 17.10112737674567,187.56318357731786 16.250378596669105,187.47703180212037 15.528857479387273,187.38011105502278 14.075046272926603,187.07857984183073 13.26737338044726,186.85243143193688 12.632004038364471,186.62628302204303 12.168938246676703,186.42167255594856 11.73817937068915,186.18475517415465 11.361265354198892,185.91553087666202 11.10281002860483,185.66784452296804 10.876661618710981,185.38785125357612 10.639744236917062,184.98939929328648 10.456671714621969,184.51556452969865 10.370519939424458,184.16018845700853 10.338213023725775,183.79404341241835 10.348981995625845,183.33097762073058 10.424364798923285,182.94329463234104 10.564361433619622,182.45869089685388 10.725896012116102,182.07100790846354 11.02742722530739,181.4679454820802 11.393572269897577,180.8648830556961 11.802793202086518,180.2725896012113 12.179707218576775,179.79875483762422 12.632004038364471,179.28184418643764 13.633518425037447,178.28032979976467 15.80885074877995,176.26653205451788 17.564193168433437,174.45734477536632 18.2749453138152,173.7681305737847 18.716473161702822,173.40198552919375 19.30876661618686,172.97122665320543 20.482584553256384,172.24970553592436 21.613326602725625,171.63587413764097 22.797913511695224,171.07588759885562 23.971731448763222,170.56974591956907 24.876325088340145,170.22513881877828 29.011610297829844,168.73902069661816 32.00538448595023,167.60827864714815 32.74844354703067,167.37136126535424 33.37304391721339,167.22059565875858 34.58993774188167,167.0267541645634 36.129900723539855,166.91906444556653 38.41292276628001,166.90829547366647 40.232879017330866,166.98367827696467 42.66666666666743,167.16675079925975 54.41561500925512,168.4482584553254 56.020191822312206,168.68517583711932 56.78478882719126,168.82517247181568 57.67861349486811,169.01901396601082 58.70166582534123,169.2990072354035 59.46626283022029,169.54669358909672 60.32778058219845,169.89130068988754 60.93084300858103,170.1928319030796 61.73851590106037,170.66666666666666 62.847720006730995,171.40972572774712 65.57226989735878,173.46659936059265 66.950698300522,174.44657580346626 68.14605418139016,175.2650176678449 69.53525155645346,176.11576644792223 72.15211172808358,177.62342251388174 73.7782264849408,178.5064782096585 74.54282348981987,178.84031633855 74.9520444220088,178.96954400134626 75.36126535419774,179.0449268046445 75.41511021369656,179.0341578327444 75.49049301699554,178.96954400134626 75.67356553929064,178.6141679286554 75.8027932020869,178.22648494026583 75.97509675248192,177.39727410398788 76.1366313309784,176.83728756520253 76.3197038532735,176.34191485781608 76.56739020696595,175.8788490661283 76.90122833585745,175.4265522463406 77.25660440854757,175.0819451455498 77.6442873969379,174.8342587918558 78.05350832912684,174.6727242133601 78.3658085142182,174.60811038196198 78.7642604745086,174.59734141006265 79.07656065959996,174.6404172976614 79.42116776039,174.73733804475899 79.95961635537674,174.97425542655216 81.1765101800435,175.66346962813375 81.85495540972657,176.00807672892458 82.55493858320672,176.27730102641794 83.19030792529105,176.43883560491366 83.79337035167515,176.47114252061235 84.1379774524652,176.43883560491366 84.48258455325677,176.37422177351553 85.09641595153941,176.1480733636209 85.57025071512726,175.8788490661283 85.92562678781736,175.57731785293626 86.21638902911012,175.23271075214544 86.44253743900396,174.8234898199565 86.57176510180022,174.43580683156694 86.65791687699775,173.99427898367856 86.67945482079789,173.57428907958953 86.61484098939899,172.18509170452623 86.63637893319913,171.54972236244345 86.69022379269795,171.14050143025452 86.78714453979553,170.7958943294637 86.89483425879166,170.5482079757697 87.05636883728813,170.24667676257766 87.23944135958324,169.98822143698513 87.55174154467458,169.6651522799937 87.86404172976594,169.39592798250033 88.2194178024576,169.14824162880709 88.60710079084639,168.91132424701317 89.28554602052793,168.545179202423 89.95322227831095,168.24364798923094 90.5993605922938,167.97442369173834 91.19165404677784,167.78058219754317 91.69779572606436,167.66212350664696 92.27932020864833,167.5652027595494 92.83930674743367,167.52212687195063 93.474676089518,167.52212687195063 93.97004879690445,167.5652027595494 94.56234225138847,167.66212350664696 95.1330977620739,167.78058219754317 95.7900050479553,167.97442369173834 96.3069156991419,168.1682651859335 96.92074709742607,168.4482584553254 97.54534746760879,168.79286555611623 98.00841325929656,169.08362779740895 98.4822480228844,169.42823489819978 99.00992764596954,169.8589937741881 99.6022211004551,170.386673397274 100.3883560491343,171.16203937405388 100.98064950361834,171.8620225475348 101.41140837960589,172.5512367491164 101.61601884570112,173.01430254080418 101.74524650849739,173.38044758539436 101.91755005889242,174.06966178697675 102.02523977789006,174.72656907285892 102.45599865387915,178.9480060575469 102.70368500757161,180.8648830556961 102.85445061416802,181.62948006057593 103.04829210836319,182.3725391216556 103.29597846205718,183.09406023893666 103.5544337876497,183.6755847215214 104.06057546693623,184.5263335015987 104.5451792024226,185.14016489988214 105.13747265690817,185.73245835436694 106.68820461046643,187.05704189803134 107.4204946996468,187.75702507151303 108.01278815413083,188.43547030119458 108.86353693420892,189.59851926636404 109.19737506310044,190.00774019855297 109.45583038869296,190.23388860844682 109.74659262998571,190.427730102642 110.00504795557825,190.56772673733832 110.28504122497091,190.6861854282353 110.34965505636981,191.14925121992306 110.37119300016843,191.54770318021193 110.27427225307085,192.41998990408862 110.22042739357202,192.62460037018386 110.02658589937839,193.00151438667336 109.94043412417935,193.22766279656722 109.82197543328314,193.9168769981488 109.5958270233893,194.82147063772499 109.47736833249158,195.19838465421523 109.2619888944978,195.65068147400294 108.79892310281004,196.42604745078282 108.59431263671632,197.02910987716618 108.40047114252116,197.73986202254792 108.31431936732365,197.8690896853442 108.03432609793097,198.19215884233563 107.71125694093955,198.85983510011786 107.59279825004182,199.19367322900936 107.5066464748443,199.74289079589465 107.40972572774673,200.01211509338725 107.28049806495046,200.22749453138178 106.92512199226034,200.67979135116948 106.69897358236649,201.07824331145912 106.62359077906753,201.31516069325303 106.59128386336884,201.6382298502437 105.40669695440077,201.76745751304074 104.48056537102524,201.79976442873942 103.65135453474728,201.91822311963637 102.77906781087057,201.92899209153646 101.75601548039747,202.09052667003218 100.94834258791812,202.3059061080267 100.72219417802427,202.3274440518261 100.2375904425379,202.316675079926 99.73144876325136,202.40282685512352 99.25761399966353,202.55359246171994 98.8160861517759,202.80127881541316 98.38532727578682,203.1243479724046 97.85764765270015,203.6197206797918 97.26535419821612,203.17819283190343 96.88844018172739,202.96281339390887 96.55460205283589,202.80127881541316 95.91923271075309,202.56436143361924 93.8300521622081,201.88591620393768 93.15160693252656,201.60592293454502 92.47316170284348,201.2936227494529 91.26703685007527,200.62594649167065 89.56553928992061,199.54904930169948 89.00555275113679,199.2582870604075 88.51018004374882,199.0752145381124 88.00403836446229,198.96752481911474 87.37943799427957,198.9136799596167 87.04559986538807,198.94598687531538 86.53945818610154,199.05367659431303 86.04408547871509,199.2367491166081 85.68870940602345,199.4413595827026 85.33333333333333,199.74289079589465 85.05334006394065,200.07672892478539 84.8056537102482,200.52902574457383 84.65488810365179,201.06747433955906 84.61181221605304,201.64899882214377 84.65488810365179,202.11206461383154 84.77334679454799,202.607437321218 85.0102641763419,203.27511357900025 85.72101632172367,204.81507656065995 85.99024061921627,205.4935217903415 86.15177519771122,206.06427730102615 86.19485108530998,206.58118795221273 86.10869931011246,207.02271580010114 85.92562678781736,207.4103987884907 85.6779404341249,207.71193000168276 85.0102641763419,208.4334511189638 84.87026754164556,208.6165236412589 84.73027090694923,208.86420999495215 84.66565707555186,209.02574457344784 84.6225811879531,209.28419989904114 84.6225811879531,209.46727242133625 84.68719501935047,209.75803466262823 84.84872959784695,210.14571765101778 85.04257109204059,210.44724886420983 85.2794884738345,210.7487800774019 85.60255763082594,211.0826182062934 86.36715463570653,211.72875652027625 88.62863873464653,213.2687195019352 89.57630826182069,214.01177856301564 90.17937068820478,214.53945818610154 90.71781928319,215.07790678108674 91.17011610297922,215.61635537607273 91.49318525997066,216.0794211677605 91.8377923607607,216.71479050984328 92.01009591115572,217.18862527343111 92.11778563015338,217.7378428403164 92.13932357395352,218.16860171630472 92.07470974255462,218.68551236749133 91.94548207975835,219.10550227158032 91.69779572606436,219.59010600706748 91.37472656907293,219.9993269392564 91.09473329968026,220.2577822648497 90.7824331145889,220.48393067474356 90.36244321049988,220.7100790846374 89.97476022210955,220.8608446912338 89.52246340232186,220.99007235403008 89.17785630153182,221.0546861854282 88.73632845364266,221.08699310112766 88.23018677435614,221.0762241292276 87.73481406696969,221.02237926972953 87.2502103314833,220.92545852263194 86.67945482079789,220.77469291603555 85.93639575971744,220.5485445061417 84.76257782264945,220.12855460205267 84.019518761569,219.8377923607607 82.9856974591958,219.34241965337347 82.43647989231053,218.99781255258267 82.02725896012159,218.66397442369194 81.70418980313016,218.29782937910176 81.41342756183741,217.84553255931328 81.18727915194357,217.33939088002677 81.03651354534716,216.86555611643968 80.65959952885842,215.2179034157831 80.49806495036195,214.6686858488978 80.336530371867,214.2486959448088 80.09961299007308,213.85024398451992 79.7550058892815,213.47332996802967 79.51808850748759,213.29025744573457 79.27040215379512,213.13949183913894 78.80733636210735,212.97795726064322 78.53811206461475,212.9348813730437 78.26888776712062,212.9348813730437 77.92428066633057,212.98872623254252 77.55813562174039,213.1179538953388 77.22429749284889,213.32256436143402 76.89045936395739,213.613326602726 76.61046609456471,213.9687026754169 76.33047282517204,214.4317684671039 76.11509338717826,214.90560323069172 75.70587245498932,215.93942453306414 75.49049301699554,216.38095238095255 75.25357563520163,216.7578663974428 74.91973750631011,217.17785630153105 74.55359246171993,217.57630826182069 74.14437152953099,217.94245330641087 72.39979808177758,219.29934376577472 71.83981154299222,219.81625441696133 71.58135621739817,220.10701665825331 71.35520780750431,220.41931684334543 70.4829210836276,221.89466599360625 70.24600370183369,222.2069661786976 69.93370351674233,222.5408043075891 69.61063435975089,222.8207975769818 69.2229513713621,223.0792529025743 68.8891132424706,223.2623254248694 68.42604745078283,223.45616691906457 67.77990913679997,223.63923944135965 66.99377418812077,223.76846710415592 66.283022042739,223.82231196365476 64.13999663469671,223.8869257950529 63.55847215211123,223.9623085983511 63.02002355712602,224.08076728924806 62.48157496214081,224.27460878344246 61.932357395255536,224.53306410903573 61.3939088002688,224.85613326602717 59.81086993101186,225.86841662460023 59.3693420831227,226.1161029782942 58.87396937573625,226.36378933198745 58.3785966683498,226.54686185428253 57.80784115766438,226.68685848897886 57.323237422177996,226.74070334847693 56.82786471479002,226.74070334847693 56.1386505132084,226.62224465758075 55.57866397442458,226.4176341914855 55.24482584553308,226.2560996129898 54.93252566044172,226.0730270906947 54.4479219249538,225.69611307420521 54.09254585226369,225.329968029615 53.78024566717233,224.9422850412247 52.92949688709424,223.66077738515904 52.520275954905294,223.0792529025743 52.10028605081628,222.58388019518785 51.64798923102859,222.14235234729946Z"/>
    <path d="M122.22783106175378,132.102978293791 121.86168601716359,132.5445061416794 121.60323069156952,132.9752650176677 121.51707891637201,133.2552582870604 121.47400302877325,133.47063772505493 121.46323405687319,133.89062762914395 121.51707891637201,134.22446575803468 121.64630657916828,134.655224634023 122.29244489315114,136.2167255594821 122.52936227494506,136.9382466767624 122.65858993774286,137.67053676594352 122.69089685344154,138.04745078243303 122.6693589096414,138.49974760222148 122.58320713444388,139.0920410567055 122.2170620898537,140.61046609456508 122.04475853945868,141.43967693084304 121.77553424196607,143.52885747938805 121.62476863536966,144.32576139996655 121.4955409725734,144.7134443883561 121.32323742217685,145.06882046104698 121.07555106848439,145.4241965337371 120.8278647147904,145.6826518593304 120.17095742890747,146.22110045431637 118.12485276796276,147.64260474507836 117.13410735318833,148.36412586235943 116.16489988221403,149.11795389533918 114.21571596836691,150.71176173649695 113.53727073868383,151.2286723876828 112.62190812720837,151.8101968702675 112.00807672892573,152.11172808345955 111.55577990913649,152.28403163385534 111.0819451455502,152.434797240451 110.61887935386243,152.55325593134796 110.048123843177,152.65017667844552 109.54198216389048,152.7040215379436 109.05737842840409,152.71479050984365 108.32508833922219,152.7040215379436 106.34359750967485,152.5101800437492 105.30977620730319,152.48864209994983 104.2544169611314,152.57479387514732 101.86370519939511,152.88709406023946 100.60373548712808,152.97324583543696 99.5376072690562,152.9517078916376 98.4176341914855,152.80094228504117 95.66077738515904,152.20864883055714 94.48695944809104,151.87481070166564 93.66851758371163,151.5517415446742 92.86084469123382,151.1102136967866 92.04240282685593,150.56099612990053 90.23321554770362,149.18256772673732 89.51169443042332,148.66565707555148 88.63940770654507,148.1272084805655 87.77788995456844,147.71798754837656 86.9163722025918,147.4164563351845 86.06562342251371,147.21184586909004 85.11795389533955,147.05031129059432 83.03954231869464,146.78108699310096 82.32879017331288,146.6518593303047 81.5965000841325,146.45801783610952 80.86420999495213,146.17802456671762 80.088844018173,145.779572606428 79.44270570419015,145.35958270233897 78.71041561500978,144.84267205115313 76.51354534746713,143.17348140669716 75.64125862359042,142.4519602894161 74.40282685512352,141.23506646474857 73.86437826013832,140.7720006730608 73.23977788995407,140.40585562847062 72.89517078916403,140.255090021875 72.5397947164739,140.13663133097802 72.09826686858476,140.03971058388044 71.65673902069713,139.9750967524823 71.20444220090944,139.96432778058224 70.7306074373216,139.9858657243816 69.79370688204598,140.11509338717863 68.23220595658766,140.48123843176882 67.53222278310598,140.5996971226658 66.70301194682803,140.6858488978633 65.85226316675146,140.6966178697626 65.21689382466866,140.64277301026453 64.60306242638448,140.54585226316695 62.47080599024074,140.00740366818098 61.51236749116652,139.84586908968527 61.03853272757868,139.81356217398658 60.54316002019223,139.81356217398658 58.36782769644973,139.9966346962817 57.22631667508041,139.9966346962817 56.03096079421228,139.86740703348465 53.40333165068208,139.40434124179689 52.74642436479915,139.33972741039875 52.15413091031511,139.31818946659936 51.49722362443218,139.35049638229881 50.80800942285056,139.4474171293964 48.266532054517874,140.05047955577973 47.35116944304241,140.21201413427545 46.87733467945457,140.2658589937743 46.274272253070464,140.29816590947374 45.854282348982984,140.28739693757367 45.43429244489397,140.23355207807484 44.91738179370737,140.11509338717863 44.49739188961836,139.94278983678285 44.045095069830666,139.68433451118955 43.5820292781429,139.35049638229881 42.698973582366115,138.57513040551893 40.30826182062984,136.25980144708086 39.952885747939725,135.94750126198872 39.56520275954939,135.68904593639618 39.29597846205679,135.5382803297998 38.929833417466604,135.40905266700352 38.5313814571762,135.322900891806 38.21908127208484,135.30136294800587 37.37910146390682,135.33366986370532 35.817600538448495,135.5167423860004 35.47299343765845,135.5059734141011 35.203769140165846,135.45212855460227 34.999158674070614,135.35520780750468 34.880699983174416,135.25828706040713 34.78377923607683,135.13982836951016 34.686858488979254,134.9890627629145 34.56839979808153,134.55830388692618 34.51455493858423,133.97677940434147 34.525323910482776,133.42756183745618 34.5791687699816,132.84603735487147 35.009927645970684,130.552246340232 35.26838297156321,127.95692411240124 35.39761063435948,127.30001682651908 35.6345280161534,126.52465084973919 35.839138482248636,126.07235402995148 36.07605586404256,125.6308261820631 36.38835604913392,125.15699141847603 37.15295305401297,124.08009422850408 37.52986707050323,123.43395591452122 37.84216725559459,122.77704862863905 38.52061248527766,121.05401312468501 38.768298838970125,120.54787144539848 38.98367827696543,120.17095742890822 39.306747433956865,119.70789163722046 39.68366145044559,119.26636378933208 40.14672724213336,118.85714285714313 40.65286892141988,118.49099781255295 41.029782937910134,118.2756183745584 41.36362106680164,118.12485276796276 41.729766111391825,117.99562510516573 42.16052498738091,117.89870435806814 42.537439003869636,117.85562847046938 42.92512199225997,117.85562847046938 43.31280498065029,117.89870435806814 43.68971899713902,117.97408716136636 44.368164226822095,118.21100454316027 45.15429917550129,118.62022547534922 46.06966178697676,119.25559481743277 47.39424533064116,120.32172303550388 47.932693925626374,120.72017499579351 48.600370183409375,121.14016489988252 49.408043075887186,121.53861686017216 49.81726400807766,121.67861349486773 50.24802288406521,121.79707218576469 50.63570587245554,121.87245498906289 51.10954063604338,121.90476190476234 51.551068483931004,121.90476190476234 51.99259633181863,121.85091704526351 52.531044926805365,121.74322732626662 52.86488305569534,121.64630657916905 53.44640753828083,121.4201581692752 54.1140837960623,121.09708901228376 54.684839306747726,120.77401985529234 56.51556452969866,119.62173986202295 57.19400975938173,119.26636378933208 57.82937910146452,118.99713949183946 58.432441527848624,118.80329799764431 59.067810869931414,118.66330136294796 61.060070671378824,118.43715295305412 61.91081945145539,118.28638734645847 62.395423186943304,118.14639071176214 62.847720006730995,117.97408716136636 63.235402995121326,117.80178361097133 63.676930843008954,117.55409725727733 64.18307252229548,117.2202591283866 64.51691065118698,116.951034830894 66.14302540804267,115.42184082113435 66.5953222278319,115.04492680464409 67.05838801951967,114.7003197038533 68.0383644623925,114.10802624936926 69.83678276964474,113.2034326097931 70.40753828033016,112.89113242470174 71.05367659431303,112.48191149251203 71.5167423860008,112.12653541982192 71.99057714958863,111.71731448763298 72.31364630658007,111.35116944304279 72.722867238769,110.8342587918562 73.59515396264571,109.62813393908799 73.92899209153721,109.20814403499897 74.4135958270236,108.66969544001377 74.89819956251151,108.18509170452661 75.41511021369656,107.71125694093878 76.29816590947335,107.01127376745785 77.21352852094881,106.42974928487313 78.01043244152808,106.03129732458349 78.6781086993111,105.79437994279034 80.0026922429755,105.42823489819939 80.55190980986077,105.22362443210491 80.76728924785455,105.11593471310803 81.01497560154854,104.93286219081294 81.15497223624487,104.7928655561166 81.262661955241,104.64209994952095 81.34881373044004,104.43748948342572 81.35958270233859,104.13595827023443 81.25189298334246,103.76981322564347 81.09035840484599,103.50058892815088 80.87497896685221,103.38213023725392 80.47652700656333,103.26367154635696 80.088844018173,103.19905771495883 79.72269897358282,103.18828874305952 78.97963991250238,103.29597846205641 78.20427393572325,103.50058892815088 77.29968029614633,103.82365808514231 75.0812720848066,104.68517583711971 74.25206124852865,104.95440013461231 73.39054349655048,105.20208648830554 72.64748443547003,105.35285209490195 71.95827023388841,105.43900387009946 71.27982500420687,105.44977284199953 70.74137640922167,105.41746592630008 70.213696786135,105.3205451792025 69.66447921924973,105.19131751640623 68.5552751135791,104.7928655561166 65.52919400976002,103.45751304055213 63.860003365304046,102.62830220427416 62.847720006730995,102.02523977789006 62.1261988894507,101.49756015480416 61.44775365976762,100.90526670032013 60.887767120982275,100.29143530203595 60.37085646979721,99.64529698805309 59.91855965000798,98.97762073027086 57.49554097257302,95.03617701497555 57.28016153457924,94.59464916708717 57.129395927982834,94.16389029109884 57.06478209658393,93.6792865556117 57.086320040384074,93.25929665152269 57.20477873128027,92.86084469123382 57.38785125357536,92.48393067474356 57.6570755510695,92.13932357395275 58.01245162375961,91.82702338886139 58.421672555948554,91.5793370351674 58.87396937573625,91.385495540973 59.38011105502277,91.24549890627667 59.99394245330695,91.15934713107916 60.70469459868718,91.14857815917908 61.383139828370254,91.2024230186779 62.13696786134924,91.3101127376748 64.04307588759914,91.65471983846561 64.63536934208317,91.7301026417638 65.24920074036734,91.76240955746249 65.94918391384904,91.71933366986374 66.60609119973044,91.60087497896677 67.28453642941352,91.36395759717362 67.74760222110129,91.137809187279 68.14605418139016,90.8685848897864 68.54450614167902,90.53474676089567 68.9106511862692,90.11475685680665 69.1583375399632,89.7378428403164 69.37371697795697,89.35015985192683 69.55678950025207,88.89786303213914 70.0629311795386,87.33636210668006 70.28907958943243,86.74406865219602 70.67676257782277,86.07639239441377 70.87060407201793,85.81793706882048 71.20444220090944,85.44102305233099 71.64597004879705,85.03180212014128 72.15211172808358,84.65488810365179 72.64748443547003,84.34258791855966 74.10129564193224,83.49183913848233 74.99512030960756,82.8995456839983 75.55510684839291,82.43647989231053 75.89971394918449,82.09187279151972 76.90122833585745,80.92882382635027 77.47198384654288,80.3580683156656 77.83812889113307,80.088844018173 78.18273599192311,79.88423355207854 78.49503617701447,79.7442369173822 78.8827191654048,79.61500925458516 79.24886420999498,79.55039542318704 79.59347131078655,79.51808850748834 79.91654046777799,79.53962645128773 80.336530371867,79.62577822648524 80.61652364125814,79.73346794548213 80.9072858825509,79.89500252397784 81.16574120814495,80.088844018173 81.40265858993735,80.33653037186623 81.55342419653375,80.5303718660614 81.73649671882885,80.84267205115276 81.91956924112394,81.30573784284053 82.02725896012159,81.74726569072891 82.27494531381558,83.13646306579221 82.41494194851039,83.58875988557992 82.6303213865057,84.11643950866582 82.93185259969698,84.67642604745117 83.17953895339097,85.03180212014128 83.52414605418102,85.45179202423029 83.93336698637148,85.85024398451993 84.21336025576264,86.08716136631385 84.68719501935047,86.42099949520458 85.09641595153941,86.64714790509844 85.51640585562842,86.84098939929359 86.00100959111634,87.00252397778931 86.36715463570653,87.08867575298682 86.84098939929284,87.15328958438495 87.21790341578308,87.14252061248565 87.5194346289759,87.0994447248869 87.87481070166602,86.99175500588925 88.1763419148573,86.81945145549422 88.38095238095255,86.63637893319913 88.66094565034523,86.27023388860894 89.29631499242801,85.04257109204136 89.65169106511813,84.4718155813567 90.03937405350845,83.9549049301701 91.15934713107916,82.60878344270556 92.41931684334466,80.91805485445096 92.91468955073265,80.36883728756568 93.4316002019177,79.9380784115766 93.88389702170693,79.63654719838455 94.36850075719332,79.37809187279201 94.88541140837991,79.19501935049692 95.51001177856263,79.06579168769989 96.17768803634563,79.00117785630175 96.76998149082966,79.01194682820183 97.28689214201626,79.05502271580058 97.9437994278992,79.15194346289739 99.96836614504528,79.58270233888648 100.79757698132325,79.72269897358282 101.8313982836949,79.80885074878033 102.55291940097673,79.77654383308088 103.1990577149596,79.65808514218392 103.80212014134369,79.45347467608946 104.22211004543118,79.24886420999498 105.61130742049448,78.39811542991765 106.39744236917367,78.05350832912684 106.95742890795903,77.88120477873181 107.45280161534548,77.78428403163424 107.96971226653207,77.70890122833603 108.77738515901142,77.6442873969379 109.85428234898184,77.66582534073729 110.95271748275239,77.76274608783486 112.50344943631218,77.97812552582863 113.90341578327401,78.24734982332201 114.82954736664955,78.50580514891453 115.64798923102897,78.82887430590597 116.3587413764092,79.2273262661956 116.85411408379565,79.60424028268586 117.42486959448107,80.14268887767106 117.9310112737676,80.75652027595524 119.33097762073098,82.88877671209822 120.34326097930402,84.23489819956278 121.2801615345781,85.35487127713272 121.89399293286228,85.9471647316175 122.51859330304652,86.41023052330527 123.08934881373041,86.71176173649657 123.80010095911217,87.00252397778931 125.57698132256427,87.60558640417342 126.24465758034728,87.8963486454654 126.90156486622868,88.2301867743569 127.4723203769141,88.5747938751477 128.0861517751983,89.01632172303533 128.6461383139836,89.46861854282379 129.22766279656759,90.01783610970908 129.798418307253,90.62089853609318 130.47686353693456,91.40703348477238 131.18761568231477,92.30085815244847 131.76914016490028,93.10853104492705 132.15682315328908,93.70082449941107 132.49066128218058,94.28234898199581 133.69678613494878,96.60844691233395 134.01985529194022,97.10381961972116 134.34292444893165,97.52380952380942 134.77368332492074,97.9653373716978 135.1721352852096,98.2991755005893 135.63520107689737,98.64378260138011 137.23977788995444,99.70991081945199 137.74591956924098,100.09759380784155 138.26283022042756,100.57142857142863 138.758202927814,101.07757025071515 139.24280666330193,101.6375567895005 140.86892142015762,103.69443042234604 141.49352179034187,104.44825845532579 141.85966683493206,104.84671041561543 142.27965673902108,105.23439340400499 142.64580178361126,105.53592461719704 143.0227158001015,105.80514891468965 143.4103987884903,106.04206629648357 143.8088507487807,106.23590779067797 144.61652364125854,106.53743900387002 145.59650008413288,106.75281844186456 146.59801447080585,106.87127713276152 147.44876325088396,106.88204610466083 148.20259128386294,106.84973918896215 149.0641090358411,106.76358741376463 151.12098266868588,106.48359414437196 151.9932693925626,106.40821134107375 152.52094901564928,106.39744236917367 153.0270906949358,106.42974928487313 153.82399461551353,106.5589769476694 154.34090526670013,106.73128049806519 154.7932020864878,106.94665993605973 155.2239609624769,107.2374221773517 155.59010600706708,107.56049133434314 155.87009927645977,107.89432946323387 156.1931684334512,108.38970217062109 156.40854787144497,108.84199899040878 156.5593134780414,109.337371697796 156.63469628133882,109.74659262998495 156.65623422513897,110.05889281507707 156.63469628133882,110.62964832576172 156.57008244994145,111.00656234225121 156.4623927309438,111.3619384149421 156.20393740535127,111.94346289752683 155.81625441696093,112.4926804644121 155.61164395086723,112.70805990240665 155.25626787817558,113.03112905939808 154.73935722699053,113.38650513208819 153.98552919401,113.76341914857845 153.27477704862824,114.01110550227168 152.43479724045176,114.19417802456677 151.6594312636711,114.28032979976427 149.15026081103863,114.45263335016007 147.96567390207056,114.58186101295632 146.5549385832071,114.79724045095087 144.73498233215625,115.15261652364175 141.59044253743946,115.86336866902275 139.94278983678362,116.27258960121169 139.3720343260982,116.45566212350678 138.9197375063105,116.63873464580188 138.4674406865228,116.85411408379642 138.14437152953138,117.03718660609151 137.67053676594352,117.414100622581 137.47669527174838,117.60794211677616 137.27208480565466,117.87716641426877 137.14285714285688,118.09254585226331 137.02439845196068,118.39407706545536 136.93824667676316,118.69560827864741 136.91670873296303,118.95406360424072 136.93824667676316,119.44943631162717 137.1105502271582,120.05249873801127 137.34746760895212,120.59094733299725 138.0474507824338,121.9478377923611 138.24129227662743,122.43244152784824 138.34898199562508,122.83089348813711 138.39205788322383,123.35857311122378 138.32744405182646,123.74625609961335 138.18744741713013,124.08009422850408 138.0366818105337,124.29547366649862 137.90745414773747,124.42470132929489 137.7028436816422,124.5754669358913 137.51977115934713,124.68315665488818 137.03516742386074,124.8446912333839 136.42133602557658,124.94161198048148 135.02136967861318,125.02776375567899 134.22446575803545,125.13545347467588 133.49217566885355,125.30775702507167 132.82449941107208,125.58775029446434 132.36143361938431,125.83543664815757 131.95221268719536,126.11542991755024 129.62611475685645,127.90307925290242 128.66767625778223,128.5922934544848 127.70923775870801,129.2061248527682 126.98771664142772,129.63688372875654 126.24465758034728,130.0137977452468 124.04778731280463,130.96146727242171 123.4554938583206,131.24146054181438 122.80935554433773,131.63991250210324 122.22783106175378,132.102978293791Z"/>
    <path d="M186.4216725559478,74.02591283863403 186.51859330304538,74.14437152953099 186.69089685344193,74.27359919232725 187.3262661955247,74.56436143361924 187.57395254921718,74.72589601211496 187.99394245330618,75.13511694430466 188.06932525660517,75.28588255090031 188.17701497560128,75.60895170789173 188.3170116102976,75.8027932020869 188.46777721689404,75.93202086488317 189.09237758707675,76.31970385327273 187.74625609961373,76.45970048796907 186.96012115093453,76.62123506646478 186.453979471648,76.75046272926181 185.72168938246764,76.99814908295504 185.12939592798207,77.24583543664826 184.56940938919826,77.51505973414086 184.08480565371033,77.80582197543362 183.7294295810202,78.05350832912684 183.29867070503113,78.41965337371703 183.0402153794386,78.6996466431097 182.8248359414433,79.00117785630175 182.66330136294835,79.28117112569443 182.51253575635195,79.668854114084 182.42638398115443,80.05653710247356 182.40484603735428,80.51960289416132 182.50176678445186,81.23035503954232 182.59868753154944,81.60726905603258 182.78176005384455,82.13494867911848 183.07252229513728,82.84570082449947 184.50479555779935,86.11946828201253 184.8170957428907,86.97021706208986 185.02170620898593,87.67020023557156 185.1617028436823,88.35941443715316 185.2693925626784,89.04862863873478 185.7001514386675,93.14083796062648 185.786303213865,93.72236244321046 185.92629984856134,94.28234898199581 186.10937237085642,94.81002860508171 186.35705872455043,95.3269392562683 186.69089685344193,95.81154299175545 187.0570418980321,96.26383981154314 186.78781760053798,96.2315328958437 186.3678276964505,96.26383981154314 185.64630657916865,96.36076055864072 185.38785125357612,96.46845027763761 185.20477873128104,96.61921588423402 185.07555106848477,96.75921251893035 184.83863368669086,97.22227831061736 184.7632508833919,97.31919905771494 184.34326097930287,97.65303718660644 183.86942621571657,98.14840989399289 183.60020191822395,98.2991755005893 183.4925121992263,98.38532727578682 183.21251892983364,98.6760895170788 182.85714285714351,99.10684839306788 182.32946323405685,99.80683156654881 182.09254585226293,100.0652868921421 181.84485949857046,100.26989735823658 181.5002523977789,100.49604576813041 181.1125694093901,100.61450445902739 180.7787312804986,100.63604240282676 179.94952044422064,100.592966515228 179.8095238095243,100.61450445902739 179.70183409052666,100.71142520612496 179.5402995120317,101.0344943631164 179.37876493353522,101.23910482921086 179.01261988894504,101.51909809860354 178.76493353525103,101.61601884570112 178.56032306915733,101.62678781760043 178.30186774356326,101.55140501430299 177.32189130069045,100.90526670032013 176.86959448090275,100.70065623422566 176.2126871950198,100.48527679623112 176.05115261652332,100.26989735823658 175.8142352347294,99.9899040888439 175.38347635874186,99.63452801615378 175.07117617365049,99.42991755005932 174.71580010095886,99.24684502776422 174.0373548712773,98.98838970217092 173.41275450109458,98.81608615177514 172.96045768130537,98.71916540467832 172.45431600201883,98.65455157327942 172.01278815413121,98.63301362948005 171.61433619384235,98.64378260138011 171.14050143025452,98.69762746087818 170.79589432946293,98.78377923607646 170.37590442537393,98.92377587077279 169.98822143698513,99.12838633686727 169.632845364295,99.38684166246055 169.2667003197033,99.76375567895005 169.04055190980944,100.12990072354023 168.81440349991558,100.68988726232558 168.43748948342534,102.22985024398453 168.13595827023406,103.09136799596193 167.79135116944246,103.812889113243 167.46828201245106,104.42672051152641 167.17751977115984,104.87901733131412 166.7898367827695,105.34208312300188 166.39138482248063,105.66515227999331 166.0360087497905,105.86976274608777 165.6375567895001,106.0205283526842 165.22833585731118,106.1066801278817 164.8298838970223,106.12821807168108 164.38835604913314,106.08514218408231 164.0114420326429,105.98822143698474 163.60222110045396,105.80514891468965 163.21453811206516,105.52515564529698 163.02069661787,105.3205451792025 162.84839306747497,105.09439676930866 162.66532054517987,104.7174827528184 162.60070671378097,104.48056537102524 162.56839979808228,104.23287901733124 162.57916876998237,103.84519602894169 162.6868584889785,103.34982332155523 163.32222783106127,101.72370856469801 163.5268382971565,101.0344943631164 163.65606595995277,100.36681810533416 163.68837287565145,99.92529025744577 163.68837287565145,99.51606932525682 163.65606595995277,99.14992428066664 163.5914521285554,98.78377923607646 163.48376240955776,98.4068652195862 163.24684502776384,97.87918559650029 163.06377250546873,97.5884233552083 162.84839306747497,97.34073700151433 162.43917213528601,96.95305401312476 161.96533737169818,96.66229177183277 161.50227158001042,96.46845027763761 160.87767120982616,96.3069156991419 160.3822985024397,96.25307083964384 159.73616018845686,96.27460878344321 159.21924953727026,96.34999158674066 157.47467608951683,96.6515227999327 156.92545852263157,96.69459868753147 156.33316506814754,96.68382971563216 155.77317852936218,96.61921588423402 155.1378091872794,96.4576813057383 154.5885916203941,96.2315328958437 154.0824499411076,95.9300016826524 153.5332323742223,95.47770486286394 153.25323910482965,95.18694262157196 152.97324583543696,94.84233552078115 152.65017667844552,94.36850075719332 151.85327275786625,93.03314824162884 151.49789668517616,92.47316170284425 151.0348308934884,91.85933030456007 150.52868921420185,91.29934376577472 149.95793370351643,90.80397105838827 149.34410230523378,90.36244321049988 148.77334679454836,90.007067137809 147.33030455998625,89.23170116102987 146.8026249369011,88.89786303213914 146.30725222951466,88.49941107184951 145.89803129732417,88.06865219586119 145.45650344943655,87.49789668517576 145.2303550395427,87.1102136967862 144.97189971394863,86.60407201749967 144.6811374726574,85.86101295641923 144.55190980986114,85.44102305233099 144.4549890627636,84.96718828874315 144.4119131751648,84.59027427225288 144.3903752313647,84.2133602557634 144.43345111896343,83.6856806326775 144.54114083796108,83.19030792529028 144.75652027595487,82.72724213360252 145.04728251724762,82.32879017331365 145.42419653373787,82.00572101632221 145.86572438162548,81.75803466262822 146.49032475180974,81.55342419653375 147.12569409389252,81.45650344943617 147.65337371697765,81.44573447753686 148.11643950866542,81.46727242133623 148.80565371024704,81.56419316843382 149.95793370351643,81.8441864378265 152.31633854955402,82.55493858320749 153.33939088002714,82.8241628807001 154.19013966010525,82.99646643109588 155.05165741208188,83.0933871781927 155.51472320376965,83.08261820629339 155.8916372202599,83.03954231869464 156.37624095574628,82.92108362779767 156.72084805653787,82.77031802120126 156.99007235403047,82.59801447080625 157.248527679623,82.3718660609124 157.44236917381815,82.1134107353191 157.56082786471435,81.8549554097258 157.6146727242132,81.56419316843382 157.6039037523131,81.20881709574294 157.5177519771156,80.74575130405518 157.25929665152307,79.57193336698641 157.19468282012417,79.16271243479747 157.15160693252543,78.52734309271469 157.15160693252543,74.97358236580895 157.19468282012417,74.28436816422733 157.27006562342314,73.78899545684011 157.3992932862194,73.31516069325303 157.57159683661442,72.85209490156527 158.20696617869723,71.3336698637057 158.4869594480899,70.3967693084301 158.54080430758873,69.96601043244178 158.5515732794888,69.5783274440522 158.46542150429127,68.1891300689889 158.50849739189005,67.53222278310675 158.65926299848644,66.83223960962505 159.20848056537173,65.24920074036734 159.3915530876668,64.59229345448442 159.52078075046308,63.75231364630716 159.5423186942617,63.27847888271932 159.52078075046308,62.91233383812913 159.41309103146543,62.16927477704869 159.02540804307662,60.43547030119458 158.7023388860852,58.303213865051596 158.5192663637901,57.290930506478546 158.11004543159964,55.60020191822319 157.74390038700946,54.361770149756296 157.48544506141693,53.67255594817468 157.2808345953217,53.23102810028629 156.80699983173537,52.347972404509505 156.57008244994145,51.98182735991932 156.08547871445353,51.31415110213708 155.27780582197573,50.36648157496217 154.39475012619894,49.48342587918616 153.8024566717149,48.97728419989963 153.15631835773206,48.53575635201124 152.43479724045176,48.20191822311974 152.01480733636274,48.0619215884234 151.51943462897475,47.932693925627134 150.6040720174993,47.792697290930796 150.0333165068154,47.74962140333204 149.5379437994274,47.73885243143197 148.93488137304485,47.76039037523135 148.43950866565686,47.803466262830106 147.93336698637034,47.900387009927684 147.44876325088396,48.01884570082465 146.68416624600337,48.30960794211663 144.15345784957077,49.591115598183045 143.0334847720016,50.24802288406521 142.54888103651368,50.581861012956715 142.021201413427,50.99108194514565 140.26585899377505,52.55258287060398 139.32895843849946,53.43563856638076 138.35975096752514,54.4479219249538 137.97206797913483,54.814066969543994 137.7136126535423,55.007908463739156 137.3797745246508,55.2232879017337 136.7659431263666,55.481743227326234 136.324415278479,55.60020191822319 135.7105838801948,55.70789163722085 134.28907958943282,55.83711930001711 132.36143361938431,55.91250210331531 131.58606764260517,55.92327107521462 130.57378428403214,55.89096415951594 129.35689045936385,55.783274440518284 128.710752145381,55.69712266532078 127.97846205620063,55.55712603062444 127.27847888271893,55.38482248022942 126.77233720343241,55.23405687363301 125.76005384485937,54.824835941444064 124.75853945818639,54.31869426215754 124.22009086320118,53.97408716136673 123.77856301531203,53.661786976274605 122.94935217903408,52.97257277469299 122.18475517415501,52.207975769813174 121.4955409725734,51.36799596163591 120.84940265859053,50.388019518761546 120.34326097930402,49.429581019687326 119.95557799091368,48.54652532391055 119.6540467777224,47.73885243143197 119.42789836782855,47.0065623422516 119.27713276123214,46.285041224970534 119.19098098603463,45.671209826687125 119.18021201413455,44.91738179370737 119.23405687363339,44.28201245162382 119.37405350832972,43.52818441864407 119.78327444051867,41.90206966178685 119.83711930001749,41.439003870099846 119.85865724381611,41.083627797408965 119.83711930001749,40.566717146222366 119.72942958101984,39.99596163553771 119.53558808682467,39.414437152952985 119.26636378933208,38.8544506141684 118.86791182904321,38.25138818778429 118.25408043075902,37.52986707050323 116.46643109540685,35.968366145044904 115.9064445566215,35.46222446575838 115.22799932693995,34.76224129227669 113.64496045768149,33.017667844523274 113.02036008749877,32.41460541813917 112.56806326770955,32.037691401648914 111.92192495372669,31.596163553761286 111.29732458354397,31.262325424869783 110.75887598855876,31.025408043075863 110.17735150597326,30.820797576981395 109.43429244489282,30.616187110886923 108.61585058051494,30.465421504291278 107.96971226653207,30.379269729093004 107.43126367154687,30.34696281339432 106.61282180716898,30.34696281339432 105.9128386336873,30.379269729093004 105.18054854450693,30.454652532391208 103.6728924785459,30.72387682988381 101.33602557630844,31.251556452970476 100.47450782433181,31.39155308766605 100.03297997644265,31.413091031466195 99.44068652195863,31.413091031466195 98.90223792697341,31.359246171967367 98.22379269729187,31.251556452970476 95.30540131246892,30.691569914185127 94.70233888608482,30.55157327948879 93.90543496550555,30.31465589769487 92.97930338213001,29.970048796904063 90.20090863200494,28.817768803634678 88.03634528016251,28.053171798754857 87.20713444388454,27.697795726064744 86.78714453979553,27.460878344270824 86.35638566380645,27.17011610297884 85.95793370351758,26.825509002188035 85.5917886589274,26.416288069998327 85.29025744573458,26.017836109709457 84.97795726064322,25.50092545852286 84.71950193504915,25.00555275113641 84.45027763755655,24.35941443715355 83.27645970048856,21.214874642436754 83.10415615009353,20.654888103651405 82.99646643109588,20.191822311963637 82.91031465589838,19.62106680127898 82.93185259969698,19.00723540299557 83.03954231869464,18.522631667508424 83.26569072858848,17.984183072522452 83.50260811038241,17.596500084132888 83.79337035167515,17.208817095743324 84.08413259296637,16.90728588255127 84.4718155813567,16.57344775365977 85.24718155813582,16.034999158674562 85.75332323742235,15.755005889281888 86.35638566380645,15.464243647989141 87.04559986538807,15.17348140669716 87.74558303886975,14.915026081103862 89.25323910482925,14.462729261316166 90.13629480060604,14.247349823321624 91.03011946828289,14.075046272926603 92.61315833753983,13.838128891132683 93.32391048292159,13.784284031633856 93.87312804980687,13.77351505973455 94.400807672892,13.816590947333305 94.95002523977881,13.924280666330194 95.76846710415668,14.171967020024184 98.76224129227707,15.281171125694048 100.58219754332794,15.981154299175735 101.01295641931702,16.088844018172626 101.30371866060976,16.13191990577138 101.57294295810236,16.13191990577138 101.92831903079248,16.07807504627332 102.32677099108288,15.948847383476286 102.71445397947168,15.722698973582439 103.04829210836319,15.421167760390386 103.3067474339557,15.130405519098405 103.56520275954978,14.721184586909462 103.80212014134369,14.268887767121 103.99596163553733,13.77351505973455 104.49133434292531,12.362779740871868 104.69594480901901,11.8997139491841 104.943631162713,11.425879185597026 105.26670031970444,10.952044422009186 105.60053844859594,10.585899377419 105.95591452128606,10.27359919232764 106.35436648157493,10.036681810533722 106.73128049806519,9.885916203937313 107.10819451455544,9.799764428739802 107.5066464748443,9.767457513041117 107.86202254753442,9.778226484940424 108.30355039542358,9.832071344439251 108.73430927141267,9.928992091536832 110.56503449436359,10.456671714622734 111.4373212182403,10.628975265017756 111.78192831903034,10.661282180717205 112.21268719501943,10.650513208817133 112.71882887430596,10.575130405519694 113.08497391889614,10.478209658422111 113.31112232878999,10.305906108026326 113.56957765438405,10.047450782433028 113.88187783947541,9.573616018845954 114.54955409725689,8.130573784284588 115.10954063604223,6.730607437321213 115.22799932693995,6.310617533232965 115.26030624263863,6.084469123338351 115.26030624263863,5.826013797745819 115.14184755174244,4.83526838297215 115.13107857984238,4.3829715631836885 115.17415446744113,3.9414437152952986 115.35722698973622,2.9183913848229457 115.3679959616363,2.6060911997308214 115.34645801783616,2.4014807336363506 115.27107521453871,2.1537943799431245 115.15261652364099,1.8845700824505212 114.4849402658595,0.9369005552756074 114.398788490662,0.7753659767798922 114.35571260306325,0.613831398284177 114.398788490662,0.4415278478883903 114.49570923775958,0.3338381288915019 114.67878176005468,0.22614840989461346 114.98031297324596,0.13999663469633755 115.49722362443256,0.07538280329820449 116.10028605081666,0.032306915699449115 118.18946659936013,0 135.150597341411,0.010768971900071433 157.53928992091573,0.06461383139889823 167.89904088844014,0.0538448594988268 169.92360760558623,0.11845869089695986 171.35588086824828,0.24768635369399114 172.03432609792983,0.3661450445901858 172.50816086151767,0.4953727073872171 172.9819956251055,0.6569072858829323 173.38044758539436,0.8399798081780252 173.87582029278082,1.173817937068762 174.09119973077614,1.3676594312639263 174.31734814067,1.6261147568572236 174.56503449436397,2.0137977452467872 175.11425206124926,3.1983846542156207 175.38347635874186,3.6614504459033888 175.8142352347294,4.189130068989289 176.15884233552097,4.51219922598072 176.40652868921498,4.695271748275813 176.8157496214039,4.9429581019690385 177.13881877839535,5.115261652364061 177.9034157832744,5.395254921756735 178.74339559145244,5.610634359751278 180.97257277469376,6.073700151439046 181.54332828537764,6.235234729934761 181.99562510516535,6.3860003365304046 182.49099781255333,6.633686690224396 182.83560491334336,6.913679959616306 183.0617533232372,7.215211172808358 183.18021201413495,7.54904930169986 183.19098098603348,7.829042571092535 183.11559818273605,8.18441864378265 182.98637051993978,8.475180885075396 182.74945313814587,8.819787985866204 182.44792192495458,9.164395086657013 182.09254585226293,9.487464243648443 180.509506983006,10.715127040215267 180.0787481070169,11.092041056705524 179.79875483762422,11.372034326098198 179.48645465253287,11.748948342588456 179.27107521453757,12.082786471479192 179.04492680464372,12.54585226316696 178.91569914184745,12.965842167255973 178.8510853104501,13.5473666498407 178.89416119804883,14.107353188625286 178.99108194514642,14.624263839811881 179.3572269897366,16.034999158674562 179.45414773683265,16.55190980986039 179.5079925963315,17.058051489146916 179.5402995120317,18.188793538616924 179.4110718492339,21.021033148241592 179.44337876493412,22.45330641090365 179.51876156823155,23.36866902237988 179.6264512872292,24.144034999159008 180.03567221941816,25.920915362611876 180.13259296651574,26.480901901397225 180.16489988221443,27.13780918727939 180.1110550227156,27.891637220259142 179.88490661282174,28.871613663133505 179.34645801783654,30.562342251388095 179.18492343934005,31.20848056537096 179.07723372034394,31.973077570250776 178.98031297324636,33.82534073700185 178.84031633855,34.76224129227669 178.5064782096585,36.24835941443758 177.93572269897308,38.22985024398491 177.5157327948856,39.479050984351886 177.07420494699645,40.51287228672431 176.65421504290742,41.27746929160413 175.3727073868418,43.312804980649524 174.9204105670541,44.163553760726856 174.72656907285892,44.680464411913455 174.60811038196272,45.10045431600247 174.5542655224639,45.48813730439203 174.54349655056384,45.983510011778485 174.73733804475899,47.81423523473018 174.8234898199565,49.87110886757572 174.93117953895415,50.420326434460996 175.13579000504785,51.09877166414254 175.3404004711431,51.572606427730385 175.8573111223297,52.60642773010281 176.08345953222354,53.1233383812894 176.27730102641718,53.661786976274605 176.70805990240626,55.11559818273604 176.92343934040005,55.654046777722016 177.21420158169278,56.26787817600543 177.58034662628296,56.88170957428961 177.93572269897308,57.38785125357613 178.420326434461,57.980144708060166 179.32492007403638,59.01396601043259 179.66952717482798,59.46626283022029 179.91721352852042,59.83240787481124 180.05721016321675,60.11240114420315 180.27258960121208,60.704694598687944 180.33720343260944,61.08160861517744 180.35874137640957,61.40467777216887 180.3479724045095,61.77082281675905 180.30489651691076,62.12619888944993 180.16489988221443,62.6646474844359 179.6372202591293,64.24768635369361 179.5402995120317,64.73229008918075 179.52953054013162,65.16304896516907 179.58337539963046,65.63688372875691 179.70183409052666,65.99225980144703 179.94952044422064,66.41224970553604 180.16489988221443,66.67070503112933 180.3479724045095,66.85377755342444 180.27258960121208,66.96146727242132 180.24028268551186,67.09069493521835 180.20797576981317,67.47837792360791 180.26182062931198,67.97375063099436 180.36951034830966,68.2968197879858 180.57412081440336,68.72757866397488 180.83257613999743,69.11526165236444 181.03718660609113,69.55678950025283 181.27410398788504,69.84755174154482 181.5648662291778,70.07370015143866 182.30792529025823,70.43984519602886 183.78327444051905,71.5275113579001 185.74322732626624,73.21823994615545 186.1524482584552,73.63822985024447 186.4216725559478,74.02591283863403Z"/>
  </g>
</svg>