<?xml version="1.0" encoding="UTF-8" standalone="no"?>
<svg viewBox="0 0 201.7291392737935 256" xmlns="http://www.w3.org/2000/svg">
  <style>
    g.zone {
      fill: lightgray;
      stroke-width: 2;
      stroke-linecap: square;
      stroke-linejoin: bevel;
      stroke-miterlimit: 3;
      stroke-opacity: 0.8;
      stroke: black;
      fill-opacity: 0.3;
    }
  </style>
  <g class="zone" id="zone">
    <path d="M135.26287043592697,196.65419237382463 136.68696267826482,199.06220289268677 137.61909578233872,201.10771720440906 138.31819561039688,203.28269444725365 138.78426216243568,205.5871346212187 139.09497319712696,207.7103266916147 139.61282492161246,212.55224031556602 139.76818043895994,214.96025083442817 139.74228785273476,216.4361282492164 139.63871750783764,217.73075756043198 139.43157681804345,218.9218165267523 138.96551026600469,220.42358652776392 138.2146252654998,221.87357135632698 137.23070698897553,223.19409325376773 135.78072216041247,224.6440780823308 134.3307373318494,225.7833518762007 131.27541215737946,227.77708101547447 124.75048042884755,231.66096894912485 122.8603216344709,232.69667239809766 120.63355921917778,233.73237584707232 118.79518559724784,234.45736826135385 116.05057145746922,235.33771619298102 113.51309800748479,235.90735308991506 111.41579852331394,236.192171538383 109.34439162536829,236.24395671083155 104.86497420855683,235.88146050369173 102.6382117932637,235.82967533124318 100.98108627490645,235.93324567614027 96.00970971983467,236.39931222817904 92.85081420046397,236.50288257307616 90.41691109537665,236.39931222817904 87.46515626580383,236.03681602103737 84.22858298776121,235.41539395165293 78.66167694952838,234.1725498128859 76.66794781025463,233.57702032972483 74.77778901587799,232.85202791544515 73.71619298068181,232.33417619095783 72.70638211793234,231.73864670779858 70.945686254678,230.49580256902973 69.26266815009554,229.0199251542433 66.59573176898881,226.45655911803368 65.32699504399844,225.47264084150942 64.47253969859278,225.00657428947062 63.695762111862706,224.7476484272279 62.91898452513263,224.6440780823308 62.09042176595584,224.66997066855413 61.23596642055386,224.87711135834834 60.45918883382378,225.18782239304147 59.527055729746216,225.7833518762007 58.85384848791323,226.37888135935995 58.28421159097735,227.02619601496957 57.714574694041474,227.828866187923 57.24850814200637,228.70921411955018 56.88601193486468,229.6672398098511 56.65297865884529,230.54758774147828 56.523515727723,231.53150601800255 56.4458379690511,232.5672094669772 56.497623141497805,234.04308688176363 56.75654900374239,235.90735308991506 57.585111762919176,239.81713360979066 57.89582279761415,241.577829473045 58.05117831495796,243.36441792252455 58.05117831495796,244.4001213714974 57.973500556286055,245.12511378577892 57.79225245271706,246.03135430363128 57.55921917669767,246.7563467179128 57.222615555781175,247.48133913219434 56.75654900374239,248.18043896025068 56.18691210680651,248.82775361585846 55.56549003742392,249.39739051279435 54.68514210579674,250.01881258217878 53.804794174169565,250.5107717204409 52.48427227672512,251.0545160311516 50.90482451704345,251.44290482451663 49.19591382623581,251.59826034186227 47.72003641144756,251.49468999696518 46.60665520380467,251.23576413472244 45.5968443410552,250.8214827551322 44.612926064530924,250.27773844442152 42.48973399413489,248.879538788307 41.73884899362633,248.49114999494196 41.039749165571834,248.20633154647402 40.10761606149427,247.97329827045647 39.0978051987448,247.8438353393342 38.13977950844572,247.8438353393342 36.974613128348764,247.94740568423128 35.990694851824486,248.12865378780214 34.9549914028535,248.43936482249342 33.893395367653646,248.85364620208364 32.90947709112937,249.3197127541206 31.071103469203113,250.3813087893186 26.177404672803256,253.51431172246413 24.934560534034397,254.21341155052045 23.743501567715924,254.8089410336797 22.31940932537806,255.35268534439223 21.283705876403396,255.6633963790835 19.859613634065536,255.92232224132627 18.746232426418967,256 17.270355011630716,255.92232224132627 15.690907251945365,255.63750379285833 13.904318802469497,255.11965206837283 12.040052594314368,254.3687670678661 10.357034489735598,253.56609689491268 8.829371902496957,252.63396379083693 7.638312936178486,251.67593810053603 6.8356427632232135,250.79559016890886 6.42136138363482,250.12238292707588 6.058865176493136,249.19024982300013 5.955294831596037,248.38757965004487 6.007080004046426,247.4036613735206 6.188328107615428,246.67866895923908 6.6026094872038215,245.7724284413867 7.146353797918188,244.9179730959847 7.9490239708697805,244.01173257813235 9.29543845453574,242.84656619803724 11.133812076465675,241.62961464549355 13.541822595327814,240.3090927480528 20.73996156569271,236.58056033174805 23.303327601902335,235.13057550318499 24.96045312025959,234.04308688176363 26.72114898351394,232.69667239809766 27.83453019116051,231.6091837766763 28.792555881459588,230.3922322241326 29.388085364620665,229.27885101648604 29.621118640640056,228.57975118842973 29.69879639931196,228.11368463639093 29.672903813086766,227.15565894609003 29.413977950845858,226.2494184282395 28.89612622635669,225.36907049661232 28.22291898452371,224.56640032365704 27.316678466675018,223.78962273692696 26.30686760392555,223.09052290887064 22.681905532516065,220.8378679073523 21.490846566197593,219.90573480327657 20.532820875898512,218.9994942854242 19.626580358046144,217.83432790533092 19.031050874885068,216.6691615252358 18.694447253968576,215.40042480024175 18.59087690907148,214.079902902801 18.77212501264416,212.0343885910787 19.26408415090446,209.367452209972 19.807828461615145,207.5290785880439 20.45514311722293,206.00141600080892 21.257813290178202,204.6291089309196 22.293516739152867,203.25680186103028 23.639931222818824,201.7291392737935 26.798826742185845,198.41488823707897 27.705067260038216,197.3273996156576 28.378274501871196,196.42115909780523 29.051481743704176,195.25599271771011 29.465763123292568,194.27207444118585 29.672903813086766,193.31404875088492 29.75058157176235,192.07120461211608 29.595226054414862,191.3979973702849 29.206837261047983,190.5435420248811 28.74077070901288,189.7926570243744 28.248811570748902,189.22302012744035 27.523819156469216,188.5757054718307 26.462223121269357,187.79892788510062 24.209568119754707,186.47840598765987 20.84353191058981,184.89895822797635 13.308789319308422,181.68827753615895 10.434712248407502,180.67846667340947 6.343683624962916,179.59097805198812 4.7124506928271765,179.07312632750077 3.1588955193707005,178.425811671893 1.8901587943766454,177.64903408516292 1.165166380093277,177.0017194295533 0.5955294831610756,176.2508344290484 0.2330332760193913,175.4999494285417 0.02589258622519449,174.59370891069116 0,173.60979063416505 0.1553555173474874,172.59997977141742 0.5437443107106865,171.4089208050971 1.1133812076465677,170.3732173561243 1.786588449479547,169.33751390715145 2.485688277537721,168.4312733892991 3.9874582785474875,166.74825528471663 5.023161727522151,165.66076666329525 5.851724486698939,164.93577424901372 6.8356427632232135,164.15899666228364 7.741883281075584,163.58935976534778 8.648123798927955,163.1491857995342 10.279356731060014,162.6313340750487 12.143622939211465,162.32062304035554 14.215029837160792,162.1652675230099 18.461413977949185,162.11348235056136 20.84353191058981,161.88044907454196 21.931020532011182,161.67330838474777 22.889046222310263,161.38848993627983 23.743501567715924,161.05188631536333 24.546171740671195,160.61171234954975 25.504197430970276,159.88671993526822 26.332760190147063,159.00637200364105 27.031860018205236,157.91888338221966 28.145241225851805,155.7439061393751 28.818448467684785,154.57873975927998 29.64701122686525,153.49125113785675 30.449681399816843,152.6367957924548 31.6148477799138,151.6528775159305 32.98715484980127,150.74663699807815 34.54071002326143,149.9180742388995 35.93890967937778,149.32254475574027 44.35400020228634,146.29311216749187 45.72630727217381,145.90472337412683 47.12450692829016,145.64579751188407 48.34145848083383,145.59401233943552 49.713765550721305,145.67169009810928 54.71103469201826,146.55203802973645 56.5494083139482,146.73328613330546 58.75027814301614,146.75917871953064 60.97704055830927,146.4743602710627 62.60827349044133,146.06007889147432 64.62789521594027,145.3350864771928 68.30464245979645,143.7297461312841 70.5831900475363,142.5904723374123 72.36977849701586,141.47709112976574 73.63851522200991,140.41549509456772 74.70011125720609,139.19854354202405 75.60635177505846,137.7744512996862 76.20188125821953,136.55749974714254 76.79741074137692,134.97805198745903 78.92060281177297,128.50490543137383 79.28309901891465,126.95135025791366 79.36077677758655,126.32992818853107 79.33488419136135,125.68261353292145 79.17952867401755,124.85405077374281 78.79113988065068,123.81834732476999 78.0920400525925,122.75675128957198 76.92687367249923,121.61747749570205 75.78759987862746,120.73712956407488 74.5706483260838,120.0380297360167 73.06887832507402,119.26125214928662 68.48589056336546,117.13806007889059 66.82876504500821,116.23181956104006 65.56002832001784,115.42914938808478 64.34307676747417,114.52290887023425 63.12612521492682,113.40952766258769 62.142206938402545,112.27025386871593 61.23596642055386,110.89794679882661 60.4850814200453,109.37028421159165 59.83776676443751,107.53191058966355 59.39759279862392,105.64175179528691 59.00920400526072,103.07838575907728 58.59492262566865,99.24628299787544 58.38778193587445,96.52756144432017 58.36188934964926,94.79275816729101 58.54313745322194,91.40082937190276 58.465459694550034,89.87316678466595 58.25831900475216,89.09638919793588 57.99939314251125,88.50085971477665 57.48154141802208,87.62051178314947 56.96368969353659,86.97319712754168 56.39405279660071,86.48123798927955 55.384241933851236,85.75624557499802 54.47800141600255,85.23839385051069 53.675331243047275,84.85000505714565 52.14766865581231,84.28036816020976 47.12450692829016,82.64913522807771 45.4932739961581,81.97592798624473 43.862041064022364,81.225042985738 41.73884899362633,80.08576919186808 37.38889450794083,77.34115505208945 35.524628299789384,76.33134418933999 34.59249519571182,75.9688479821983 33.71214726408464,75.73581470617891 32.52108829776617,75.55456660260991 31.433599676341117,75.50278143016136 30.138970365125548,73.48315970466243 29.854151916659447,72.78405987660608 29.69879639931196,72.05906746232456 29.776474157983863,69.85819763325662 29.56933346818967,67.96803883887998 29.93182967533135,66.25912814807234 29.957722261556547,65.01628400930531 29.80236674420906,64.16182866390149 29.595226054414862,63.74754728431309 29.336300192170278,63.462728835845155 28.171133812077,62.55648831799278 27.420248811572115,61.85738848993645 26.462223121269357,60.769899868515076 25.97026398300906,60.01901486800835 25.737230706989667,59.44937797107247 25.68544553453928,58.28421159097735 25.322949327401275,56.601193486396745 24.77920501668691,55.07353089915994 28.11934863962661,53.23515727723185 29.103266916150886,52.61373520784926 29.93182967533135,51.811065034893986 30.42378881359533,51.189642965509556 30.915747951855625,50.361080206330925 31.485384848791508,49.14412865378726 31.692525538585706,48.31556589460863 31.821988469707996,47.38343279053291 31.796095883482803,46.295944169111536 31.640740366138996,45.18256296146497 31.485384848791508,44.53524830585534 31.174673814100213,43.603115201779616 30.527359158492427,42.3602710630126 29.672903813086766,41.09153433802038 28.870233640135172,40.26297157884176 28.481844846768293,39.95226054414862 27.88631536360722,39.64154950945733 27.239000707999434,39.408516233437936 26.384545362597454,39.304945888540836 23.950642257510122,39.51208657833503 22.293516739152867,39.48619399211168 20.765854151917907,39.27905330231564 19.600687771820947,38.9942348538477 17.86588449479179,38.32102761201656 15.716799838170559,37.15586123192144 13.282896733083227,36.275513300294264 10.952563972892994,35.18802467887105 8.28562759178627,34.07464347122448 7.146353797918188,33.50500657428861 6.447253969860014,32.98715484980311 6.08475776271833,32.443410539092426 5.437443107110545,30.786285020735175 5.12673207241925,30.216648123799292 4.608880347930078,29.56933346819151 2.8222918984542105,27.73095984626341 3.0294325882484077,27.54971174269257 3.2365732780426044,27.21310812177608 3.573176898959094,26.384545362597454 4.375847071914366,23.096186912106297 4.738343279052371,21.956913118236375 5.152624658644444,20.9729948417121 5.722261555576646,19.93729139273744 6.291898452512527,19.186406392232556 6.887427935673602,18.564984322848126 7.482957418830998,18.073025184585987 8.415090522908564,17.503388287650107 9.373116213207643,17.166784666733616 10.357034489735598,17.037321735613162 11.44452311115697,17.089106908061712 12.247193284112242,17.29624759785591 13.205218974411324,17.658743804995755 18.047132598360793,20.29978759987912 19.16051380600736,20.79174673814126 20.325680186104318,21.1801355315063 21.542631738647984,21.46495397997424 22.681905532516065,21.542631738646143 23.821179326387828,21.46495397997424 25.19348639627898,21.154242945281105 26.565793466166454,20.55871346212187 27.705067260038216,19.78193587539179 28.481844846768293,19.00515828866171 29.206837261047983,17.943562253463693 29.621118640640056,16.90785880449087 29.880044502880963,15.587336907050107 29.905937089106157,14.0855669060385 29.80236674420906,11.755234145848267 29.776474157983863,10.20167897238811 29.93182967533135,8.95883483361925 30.19075553757594,7.897238798423071 30.449681399816843,7.301709315261996 30.83807019318372,6.576716900980467 31.640740366138996,5.541013452007643 32.78001416000708,4.531202589258174 34.10053605744784,3.650854657630998 35.67998381713319,2.744614139780467 37.000505714573954,2.097299484170842 38.346920198239914,1.5276625872349612 39.90047537170007,0.9321331040757255 41.997774855870915,0.36249620714168423 43.08526347729229,0.15535551734564762 44.40578537473305,0.02589258622519449 45.72630727217381,0 47.46111054920665,0.1294629311222929 49.998583999191084,0.5955294831592357 51.31910589663185,0.95802569030092 52.82087589764161,1.475877414786412 55.07353089915994,2.5115808637610755 56.704763831292006,3.4696065540601557 58.31010417720255,4.608880347931918 60.174370385353996,6.162435521392074 61.65024780014225,7.508850005058032 62.89309193891111,8.777586730050247 63.980580560332484,10.020430868817268 64.88682107818485,11.315060180034678 65.66359866491493,12.79093759482109 66.31091332052272,14.577526044300637 66.72519470011112,16.57125518357438 68.17517952867416,30.16486295135074 68.56356832203737,32.62465864266143 69.00374228785095,34.72195812683411 69.65105694346242,36.79336502477976 70.5055122888644,38.86477192272725 71.72246384140807,40.91028623444954 72.88763022150134,42.386163649235954 74.31172246384288,43.81025589157566 78.0402548801458,46.99504399716787 79.80095074340014,48.67806210175032 81.225042985738,50.30929503388238 83.76251643572243,53.70122382927063 84.25447557398641,54.24496813998132 85.13482350561358,54.94406796803949 86.01517143724077,55.43602710630163 86.63659350662336,55.69495296854437 87.85354505916702,55.876201072115215 88.75978557701939,55.772630727218115 89.56245574997466,55.51370486497353 90.31334075047955,54.99585314048804 90.77940730251834,54.42621624355216 91.11601092343481,53.64943865682208 93.62759178719405,55.69495296854437 95.49185799534551,57.48154141802392 98.10700920400552,60.148477799130646 99.58288661879376,62.27166986952484 100.61859006776476,64.13593607767814 102.04268231010262,65.71538383736164 103.15606351774919,67.42429452816745 103.64802265601317,67.91625366643142 105.09800748457621,69.18499039142364 105.7712147264092,69.65105694346057 106.21138869222278,70.01355315060226 106.67745524426157,70.7126529786586 107.42834024476646,72.2403155658954 107.94619196925194,72.93941539395173 109.55153231516249,74.44118539496334 110.63902093658386,75.6322443612818 111.51936886821105,76.43491453423708 111.88186507535272,76.64205522403128 112.52917973096051,76.90098108627403 114.21219783554295,77.28936987963907 114.88540507737594,77.31526246586427 116.05057145746922,77.08222918984487 116.74967128552738,77.03044401739632 117.57823404470417,77.13401436229341 118.12197835541487,77.31526246586427 118.56215232122845,77.57418832810701 119.05411145949243,77.93668453524869 120.71123697784968,79.74916557095159 122.75675128957381,81.225042985738 123.97370284211748,82.00182057246808 124.46566198037777,82.41610195205831 123.94781025589229,82.64913522807771 123.5076362900787,83.01163143521755 123.1969252553874,83.50359057347968 122.34246990998174,85.08303833316504 122.13532922018754,85.60089005765053 122.08354404774083,86.48123798927955 121.97997370284374,86.89551936886794 121.02194801254097,88.345504197431 120.52998887428068,89.19995954283482 120.0639223222419,90.36512592292993 119.9085668048944,91.06422575098627 119.8567816324477,91.7633255790426 119.88267421866921,92.95438454536291 119.9603519773448,93.7052695458678 120.1157074946886,94.32669161525223 120.4782037018303,95.02579144330856 121.72104784059916,96.32042075452597 122.05765146151565,96.78648730656475 122.18711439263794,97.30433903105025 122.13532922018754,97.66683523819194 121.74694042682435,98.39182765247347 121.28087387478556,98.8837867907356 119.49428542530602,100.25609386062492 118.69161525235074,100.7221604126637 121.17730352988846,101.70607868918798 121.95408111661854,101.88732679275881 123.22281784160892,102.01678972387927 123.81834732476999,102.19803782745011 125.32011732577976,103.13017093152583 126.7442095681213,104.19176696672385 128.55669060382237,105.20157782947332 129.10043491453305,105.58996662283836 130.31738646707672,106.80691817538202 130.7834530191155,107.42834024476646 131.79326388186496,109.16314352179562 132.07808233033106,109.47385455648875 132.44057853747276,109.7327804187315 134.3566299180746,109.34439162536646 135.44411853949597,108.93011024577807 137.07535147162804,107.9979771417005 138.1628400930531,107.16941438252186 139.56103974916576,105.92657024375485 139.94942854252895,105.66764438151026 140.5708506119152,105.46050369171607 141.2699504399697,105.48639627794125 142.25386871649766,105.82299989885774 144.11813492464913,106.65156265803638 147.01810458177522,107.35066248609272 148.80469303125477,107.8944067968034 149.71093354910346,108.04976231414905 152.170729240416,108.30868817639363 153.95731768989555,108.30868817639363 154.31981389703722,108.38636593506554 154.57873975927814,108.56761403863638 154.73409527662562,108.93011024577807 154.81177303529753,110.25063214321882 154.96712855264502,111.0015171437237 155.1224840699925,111.26044300596645 155.4073025184586,111.49347628198585 156.26175786386057,111.77829473045378 158.2037018306876,111.88186507535089 159.44654596945279,112.24436128249256 160.22332355618286,112.6327500758576 162.1134823505595,114.03094973197211 162.9679376959652,114.49701628400906 164.83220390411662,115.2220086982906 166.33397390512638,115.86932335389837 168.04288459593405,116.05057145746922 168.58662890664473,116.18003438859151 168.92323252756123,116.41306766461089 169.6482249418409,117.60412663092937 169.93304339031067,117.81126732072357 170.39910994234947,117.96662283806921 173.040153737231,118.51036714878174 175.11156063517666,118.35501163143425 175.65530494588734,118.2255487003138 176.1731566703765,117.96662283806921 176.691008394862,117.63001921715457 177.0017194295533,117.34520076868662 177.18296753312228,117.06038232021868 177.36421563669498,116.43896025083426 177.33832305046977,115.01486800849639 177.41600080914168,114.80772731870036 177.67492667138626,114.52290887023425 178.01153029230275,114.34166076666341 178.37402649944445,114.26398300798967 180.5490037422872,113.87559421462463 181.14453322544827,113.82380904217608 181.58470719126186,113.95327197329837 181.84363305350277,114.18630524931777 183.06058460604643,116.41306766461089 184.87306564175117,118.71750783857594 185.20966926266766,119.08000404571578 185.75341357337834,119.44250025285747 187.69535754020538,120.2710630120361 189.37837564478414,121.20319611611181 189.84444219682294,121.38444421968266 190.4140790937588,121.48801456457976 190.9319308182443,121.46212197835456 192.22656012946356,121.20319611611181 193.13280064731592,121.07373318498952 195.54081116617806,121.38444421968266 196.80954789116845,121.41033680590601 197.3015070294324,121.35855163345747 197.50864771922662,121.25498128856037 197.58632547789853,121.35855163345747 197.9488216850402,122.05765146151565 198.3889956508538,123.66299180742435 199.37291392737805,125.3201173257816 199.52826944472554,126.74420956811946 199.81308789319164,128.4013350864767 200.40861737635274,129.98078284616207 200.8228987559411,131.61201577829414 201.13360979063242,132.54414888236985 201.13360979063242,133.01021543440862 200.90057651461302,134.17538181450374 200.90057651461302,134.69323353899108 201.0041468595138,135.2887630221503 201.5478911702245,137.33427733387262 201.5219985839993,139.09497319712696 201.7291392737935,141.14048750884925 201.573783756446,142.8235056134317 201.2630727217547,143.85920906240452 200.8228987559411,144.5324163042375 199.34702134115653,146.08597147769765 198.49256599575088,147.19935268534422 198.07828461616248,148.0020228582995 197.79346616769638,149.11540406594423 197.5345403054518,149.65914837665676 197.27561444320722,149.8921816526743 196.93901082229073,149.99575199757325 196.13634064933547,149.99575199757325 194.7381409932228,149.68504096288012 191.13907150804218,148.67523010013065 190.62121978355302,148.5457671690102 190.18104581773943,148.5457671690102 189.71497926570063,148.64933751390728 189.48194598968493,148.7788004450296 188.16142409224048,149.73682613532867 187.3846465055104,150.17700010114226 186.53019116010842,150.5653888945073 185.85698391827543,150.72074441185293 184.95074340042308,150.7984221705267 183.3454030545162,150.5653888945073 181.40345908768919,150.61717406695584 179.7204409831104,150.53949630828393 178.11510063719984,150.87609992920042 175.91423080813192,150.97967027409751 174.36067563467176,151.26448872256546 173.3249721856971,151.57519975725677 172.44462425406994,152.0671588955189 169.3634064933748,154.19035096591494 168.66430666531664,154.8635582077479 167.55092545767008,156.28765045008578 167.34378476787586,156.62425407100227 167.29199959542916,156.9867502781421 167.36967735410107,157.37513907150714 167.96520683726214,158.8251239000702 168.06877718215924,159.31708303833236 168.06877718215924,159.96439769394198 167.86163649236505,160.53403459087602 167.47324769899816,161.05188631536333 166.85182562961558,161.72509355719632 164.54738545564686,163.74471528269342 163.58935976534778,165.22059269748166 162.83847476484289,166.07504804288365 160.58581976332457,167.9652068372603 159.91261252149158,168.69019925154183 159.55011631435357,169.18215838980396 158.9028016587421,170.34732476989907 158.7474461413983,170.78749873571266 158.69566096894792,171.5383837362194 158.6438757965012,171.69373925356504 158.4885202791537,171.82320218468732 157.99656114089342,171.95266511580778 156.65014665722745,171.71963183979022 155.6662283807032,171.77141701223877 155.0448063113169,171.95266511580778 153.93142510367034,172.54819459896885 153.43946596541005,172.72944270253785 151.0832406189946,172.96247597855725 150.38414079093644,173.1437240821281 148.98594113482378,173.63568322039023 148.4939819965598,173.73925356528733 147.17346009911904,173.76514615151254 144.9466976838259,173.5838980479417 144.04045716597352,173.66157580661542 143.08243147567444,173.86871649640963 142.33154647516957,174.15353494487758 141.6583392333366,174.59370891069116 140.18246181854835,176.1213714979261 139.71639526650955,176.71690098108536 138.3958733690688,176.2249418428232 137.15302923030362,175.91423080813192 135.85839991908435,175.75887529078628 134.3825225042998,175.73298270456107 133.21735612420284,175.86244563568337 132.20754526145336,176.09547891170277 130.4986345706494,176.74279356731054 129.9031050874883,177.13118236067558 129.07454232831154,177.83028218873193 128.47901284515046,178.47759684434155 128.09062405178358,179.09901891372414 127.83169818954268,179.7981187417823 127.65045008597,180.60078891473574 127.57277232729808,181.76595529483086 127.70223525842039,182.85344391625407 127.90937594821457,183.81146960655315 128.22008698290588,184.79538788307926 128.66026094871947,185.85698391827543 129.82542732881643,188.16142409224233 131.37898250227659,190.69889754222675 135.26287043592697,196.65419237382463Z"/>
  </g>
</svg>