<?xml version="1.0" encoding="UTF-8" standalone="no"?>
<svg viewBox="0 0 256 255.870182555784" xmlns="http://www.w3.org/2000/svg">
  <style>
    g.zone {
      fill: lightgray;
      stroke-width: 2;
      stroke-linecap: square;
      stroke-linejoin: bevel;
      stroke-miterlimit: 3;
      stroke-opacity: 0.8;
      stroke: black;
      fill-opacity: 0.3;
    }
  </style>
  <g class="zone" id="zone">
    <path d="M249.58701825557912,178.52494929006352 249.89858012170419,178.83651115618855 250.2101419878329,179.07018255578328 251.7419878296171,179.77119675456552 252.3391480730225,180.16064908722274 253.35172413793165,181.14726166328904 253.53346855984068,181.5107505071016 253.79310344827638,182.28965517241602 254.13062880324608,182.75699797160544 254.49411764706048,183.06855983773048 256,184.00324543610742 252.75456389452626,184.34077079107715 250.85922920892764,184.73022312373436 249.6389452332685,185.04178498986124 247.8734279918896,185.6389452332685 246.44543610547672,186.23610547667573 245.09533468560156,186.8851926977705 243.92697768762804,187.5862068965546 243.07018255578328,188.18336713996183 242.03164300202945,189.0661257606513 241.40851926977936,189.74117647059072 240.88924949290063,190.46815415821763 240.49979716024524,191.14320486815706 240.13630831643087,192.07789046653403 239.92860040568084,193.01257606491097 239.87667342799148,194.12900608519513 240.11034482758618,195.84259634888653 240.34401622718087,196.75131845842066 240.7853955375256,198.02352941176733 241.4864097363097,199.73711967545873 244.9395537525372,207.63002028397813 245.69249492900695,209.68113590263926 246.18580121704102,211.3687626774878 246.52332657201075,213.0304259634917 246.78296146044642,214.69208924949558 247.82150101420024,224.55821501014577 248.02920892495027,225.9602434077103 248.36673427991997,227.31034482758912 248.8081135902647,228.5825557809358 249.4052738336738,229.82880324543964 250.2101419878329,230.99716024341132 251.09290060852234,232.08762677485078 250.44381338742392,232.0097363083186 249.43123732251846,232.08762677485078 247.69168356998054,232.32129817444547 247.06855983773048,232.58093306288302 246.62718052738575,232.94442190669741 246.31561866126071,233.2819472616671 245.7444219066963,234.39837728194942 245.56267748478726,234.63204868154412 244.5501014198781,235.43691683570324 243.40770791075298,236.63123732251773 242.75862068965822,236.99472616633213 242.49898580121885,237.20243407708213 241.82393509127942,237.9034482758644 240.96713995943466,238.9419878296182 239.69492900608614,240.62961460446493 239.12373225152172,241.25273833671685 238.52657200811632,241.7460446247491 237.69574036511253,242.29127789046882 236.7610547667374,242.57687626775103 235.9561866125783,242.62880324543855 233.9569979716047,242.52494929006352 233.619472616635,242.57687626775103 233.3598377281956,242.81054766734573 232.97038539554023,243.58945233266016 232.58093306288117,244.0827586206924 231.6981744421917,244.75780933063183 231.10101419878262,244.99148073022653 230.60770791075223,245.01744421906938 229.98458417849847,244.835699797164 227.62190669371418,243.27789046653513 226.5314401622747,242.7845841785029 224.94766734280114,242.265314401626 224.55821501014208,241.7460446247491 223.98701825557765,241.07099391480966 222.94847870182753,240.21419878296487 222.19553752535776,239.72089249493266 221.3387423935093,239.27951318458793 219.7030425963501,238.65638945233601 218.19716024341056,238.2409736308341 217.1066937119674,238.00730223124125 215.88640973630822,237.8515212981769 214.82190669371343,237.79959432048938 213.86125760649364,237.82555780933407 212.71886409736481,237.9553752535519 211.88803245436102,238.16308316430377 210.8754563894519,238.5006085192735 209.94077079107677,238.9939148073057 209.083975659232,239.61703853955763 208.20121703853886,240.52576064908993 207.65598377281913,241.40851926977936 207.11075050709937,242.75862068965822 206.20202839756524,246.47139959432323 205.47505070994018,248.54847870182903 204.6442190669364,250.2880324543651 203.86531440162193,251.76795131846177 203.16430020284153,252.85841784990126 202.2296146044627,253.9748478701854 201.26896551724292,254.75375253549984 200.41217038539816,255.2470588235321 199.45152129817467,255.61054766734648 198.4649087221102,255.81825557809648 197.50425963489042,255.870182555784 196.43975659229193,255.766328600409 195.5310344827578,255.5326572008143 194.54442190669334,255.09127789046957 193.60973630831822,254.41622718053014 193.14239350912882,253.9229208924979 192.7269776876288,253.37768762677817 192.28559837728406,252.46896551724404 192.1298174442197,251.89776876268147 192.05192697768936,251.30060851927237 192.07789046653403,250.36592292089543 192.3375253549697,249.17160243408094 193.86937119675392,245.25111561866407 194.36267748478798,243.58945233266016 194.67423935091304,241.9797160243438 194.75212981744338,240.91521298174715 194.75212981744338,239.9286004056827 194.67423935091304,239.04584178499323 194.51845841785234,238.16308316430377 194.25882352941298,237.25436105476965 193.68762677484855,235.98215010142297 193.24624746450385,235.28113590264073 192.7269776876288,234.68397565923163 191.7403651115643,233.74929006085466 190.59797160243548,233.04827586207242 189.48154158215132,232.58093306288302 187.9756592292081,232.1914807302258 186.78133874239361,232.06166328600796 185.22352941176476,232.11359026369544 183.9772819472609,232.2953346856008 179.77119675456368,233.02231237322775 178.4470588235295,233.12616632860275 177.0190669371203,233.10020283975993 175.66896551724145,232.94442190669741 174.13711967545726,232.55496957404017 172.81298174442307,232.0097363083186 171.5926977687639,231.2827586206935 170.26855983772973,230.1922920892522 169.5935091277903,229.49127789046995 168.91845841785087,228.66044624746797 168.13955375253644,227.51805273833915 166.21825557809316,224.29858012170638 165.3614604462484,222.94847870182937 164.24503042596425,221.46855983773085 163.0247464503051,220.118458417852 161.64868154158157,218.9241379310375 160.1687626774867,217.85963488844087 158.79269776876316,217.00283975659423 155.31359026369103,215.1334685598403 154.0413793103462,214.32860040568303 152.8470588235317,213.36795131846142 151.86044624746356,212.32941176470945 150.79594320486876,210.95334685598593 150.25070993914903,210.01866125760895 149.62758620689524,208.7983772819498 148.92657200811485,207.00689655172621 148.6150101419898,205.9943204868189 148.38133874239512,204.85192697769008 148.2774847870201,203.94320486815596 148.22555780933075,203.03448275862368 148.32941176470575,201.762271805277 148.58904665314512,200.56795131846067 149.10831643002018,199.45152129817652 149.8093306288043,198.49087221095672 150.71805273833843,197.7119675456423 151.78255578093322,197.1148073022332 153.28843813387644,196.62150101420096 154.82028397566063,196.38782961460626 156.09249492900545,196.36186612576344 157.2089249492896,196.41379310345096 158.8705882352935,196.64746450304565 161.64868154158157,197.32251521298508 167.33468559837732,199.03610547667648 169.80121703854033,199.6851926977712 171.85233265720328,200.10060851927312 173.92941176470723,200.33427991886597 175.04584178499138,200.30831643002315 175.9545638945255,200.20446247464812 177.12292089249533,199.9188640973659 177.95375253549912,199.55537525355155 178.60283975659385,199.13995943205148 179.22596348884395,198.59472616633175 179.69330628803334,197.9716024340798 179.9789046653137,197.3484787018279 180.1087221095334,196.64746450304565 180.0827586206887,195.79066937119902 179.87505070993868,194.6742393509149 179.2519269776886,191.84421906693933 179.09614604462425,190.85760649087487 178.99229208924925,189.32576064909065 178.99229208924925,180.75780933063183 179.09614604462425,179.09614604462794 179.27789046653328,177.9018255578116 179.58945233265834,176.75943204868463 180.00486815415837,175.64300202840047 181.5367139959426,171.98215010142297 182.21176470588202,169.72332657201 182.3415821501017,168.68478701825802 182.36754563894638,167.75010141988108 182.15983772819635,164.4008113590286 182.26369168357135,162.8170385395569 182.62718052738575,161.12941176470832 183.95131845841993,157.31277890466833 184.39269776876466,155.72900608519475 184.7042596348897,153.70385395537832 184.75618661257533,152.5614604462495 184.7042596348897,151.67870182556004 184.4446247464503,149.88722109533649 183.5099391480752,145.70709939148207 182.73103448276075,140.56632860040787 182.28965517241602,138.12576064908956 181.30304259634786,134.04949290061018 180.42028397565844,131.0636916835721 179.79716024340834,129.40202839756822 179.30385395537428,128.33752535497155 178.16146044624912,126.20851926977826 177.59026369168473,125.32576064908882 176.4219066937112,123.71602434077244 174.47464503042696,121.43123732251662 172.34563894523367,119.30223123732517 170.91764705882449,118.081947261666 169.3598377281956,117.01744421906936 167.62028397566138,116.21257606491025 166.60770791075223,115.87505070994054 165.41338742393407,115.56348884381549 163.20649087221042,115.22596348884578 161.8304259634906,115.12210953347078 160.6361054766724,115.0961460446261 159.18215010142222,115.1480730223136 157.98782961460407,115.25192697768861 156.76754563894488,115.48559837728331 155.5991886409751,115.77119675456552 153.75578093306214,116.47221095334778 147.65436105476633,119.5618661257627 144.9541582150123,121.14563894523441 143.7858012170388,121.95050709939353 142.5135902636903,122.93711967545799 138.28154158215207,126.7018255578105 136.0227180527391,128.8308316430038 133.68600405679578,131.27139959432213 132.75131845841696,132.15415821501156 132.1281947261669,132.62150101420096 131.32332657200777,133.14077079107787 129.84340770790925,133.76389452332796 128.77890466531443,134.04949290061018 127.29898580121589,134.30912778904954 123.8718052738331,134.62068965517457 119.22434077079114,134.80243407708178 117.35496957403723,134.8283975659246 114.9144016227189,134.75050709939427 111.98052738336649,134.49087221095488 110.42271805273762,134.28316430020487 108.6572008113587,133.94563894523515 106.96957403651015,133.5302231237351 105.74929006085098,133.16673427992072 103.30872210953265,132.18012170385626 100.89411764705899,130.95983772819707 99.5959432048695,130.12900608519513 98.53144016227101,129.37606490872352 96.5322515212974,127.71440162271963 94.68884381338816,125.87099391480855 93.02718052738427,123.84584178499212 91.46937119675539,121.48316430020412 90.24908722109623,119.17241379310548 89.31440162271743,117.0434077079122 88.58742393509233,115.0961460446261 88.0421906693726,113.3306288032472 87.6787018255582,111.59107505071111 87.47099391480819,110.11115618661442 87.44503042596351,108.293711967548 87.57484787018319,106.76186612576197 87.9123732251529,104.94442190669555 88.89898580121738,101.02393509127869 89.02880324543706,99.90750507099638 89.08073022312273,99.05070993914975 89.02880324543706,97.80446247464592 88.76916835699768,96.42839756592423 88.30182555780829,95.02636916835787 87.65273833671354,93.67626774848087 86.69208924949375,92.222312373227 85.2121703853952,90.48275862069093 80.90223123732297,86.71805273833841 79.55212981744411,85.49776876267926 77.91643002028489,83.81014198783069 74.09979716024303,79.60405679513346 72.5939148073035,78.15010141987959 71.50344827586034,77.24137931034547 69.94563894523147,76.17687626775066 68.43975659229193,75.37200811359155 67.14158215010244,74.80081135902714 65.73955375253422,74.3075050709949 63.94807302231065,73.81419878296266 61.97484787018172,73.45070993915013 60.41703853955284,73.24300202839825 59.11886409736334,73.16511156186792 57.14563894523441,73.16511156186792 55.45801217038585,73.24300202839825 53.69249492900694,73.42474645030545 50.057606490870434,74.0738336714002 44.42352941176401,75.34604462474871 42.346450304260074,75.68356997971658 41.28194726166158,75.73549695740594 39.85395537525239,75.73549695740594 38.55578093306289,75.60567951318625 36.92008113590367,75.34604462474871 29.883975659229044,73.99594320486986 28.430020283975182,73.65841784990015 26.508722109531913,73.08722109533574 24.275862068963608,72.25638945233379 17.577281947262385,69.47829614604575 12.358620689656012,67.63488843813467 10.359432048682407,66.77809330628989 9.346855983773269,66.20689655172548 8.308316430019453,65.50588235294322 7.347667342799665,64.67505070994127 6.464908722110213,63.68843813387496 5.737931034481435,62.727789046655175 4.984989858011672,61.48154158215133 4.361866125757907,60.28722109533685 3.712778904663156,58.72941176470797 0.8827586206894517,51.1480730223136 0.46734279918940136,49.79797160243475 0.20770791075002512,48.681541582150594 0,47.30547667342891 0.051926977685661464,45.82555780933222 0.31156186612503767,44.65720081136055 0.8567951318447761,43.35902636916921 1.42799188640919,42.424340770792256 2.129006085193292,41.4896551724153 2.8300202839737043,40.76267748478836 3.7647058823525072,39.957809330629246 5.634077079106423,38.65963488843975 6.8543610547655875,37.98458417850032 8.308316430019453,37.28356997971622 9.969979716023344,36.58255578093396 11.65760649087191,35.95943204868204 15.292494929004729,34.868965517242565 17.42150101419802,34.349695740365654 19.57647058823599,33.934279918865606 23.393103448274157,33.36308316430119 25.1066937119674,33.233265720081505 26.430831643001575,33.20730223123867 27.703042596346403,33.31115618661369 29.02718052738427,33.57079107505122 31.000405679513197,34.167951318460304 38.21825557809318,36.84219066937149 42.60608519269576,38.52981744422006 43.64462474644957,38.78945233265759 44.345638945233674,38.8933062880326 44.99472616632843,38.8933062880326 45.8515212981732,38.763488843814756 46.812170385396676,38.451926977687876 47.746855983771795,37.90669371196814 48.551724137930904,37.179716024341204 49.17484787018098,36.47870182555895 49.79797160243475,35.492089249494484 50.36916835699916,34.40162271805316 50.836511156184876,33.20730223123867 52.030831643003054,29.80608519269871 52.52413793103344,28.689655172414557 53.12129817444253,27.547261663287575 53.900202839756965,26.404868154158745 54.70507099391608,25.522109533469294 55.56186612576086,24.76916835699953 56.52251521298065,24.197971602435118 57.431237322514775,23.834482758620727 58.3399594320489,23.626774847870703 59.30060851926869,23.548884381340365 60.15740365111347,23.574847870183195 61.22190669371196,23.704665314402884 62.26044624746577,23.938336713997586 66.67423935091303,25.210547667344255 68.77728194726164,25.625963488844306 69.60811359026175,25.703853955376488 70.64665314401556,25.677890466531814 71.86693711967473,25.496146044626464 72.74969574036417,25.262474645031762 73.29492900608392,24.847058823529867 73.91805273833768,24.223935091277948 74.67099391480744,23.081541582150965 76.28073022312199,19.602434077080662 77.63083164300083,16.22718052738353 77.91643002028489,15.214604462476236 77.99432048681523,14.669371196754653 77.99432048681523,14.046247464504578 77.70872210953486,11.657606490873755 77.6827586206902,10.567139959432433 77.7866125760652,9.502636916835787 78.22799188640992,7.036105476674627 78.2539553752546,6.283164300203018 78.20202839756526,5.789858012170787 78.02028397565991,5.192697768763542 77.73468559837585,4.543610547668791 76.12494929006131,2.25882352941298 75.91724137931129,1.8693711967557607 75.81338742393628,1.479918864098541 75.91724137931129,1.064503042596646 76.15091277890599,0.8048681541591146 76.59229208925072,0.5452332657215831 77.3192697768758,0.33752535496971325 78.56551724137964,0.1817444219071944 80.01947261663351,0.07789046653218183 85.05638945233083,0 125.94888438134073,0.025963488844675548 179.92697768762804,0.15578093306436366 204.90385395537575,0.1298174442196881 209.7849898580124,0.28559837728220694 213.23813387423988,0.5971602434090895 214.8738336713991,0.8827586206894517 216.01622718052792,1.1943204868163342 217.15862068965674,1.5837728194735536 218.11926977687654,2.0251521298182795 219.31359026369103,2.830020283975549 219.83286004056978,3.2973630831649507 220.37809330628951,3.920486815416871 220.9752535496986,4.855172413793829 222.2993914807328,7.711156186614053 222.94847870182753,8.827586206898205 223.98701825557765,10.099797160244878 224.81784989858144,10.878701825559316 225.41501014199054,11.320081135904042 226.401622718055,11.917241379311287 227.18052738336945,12.332657200811337 229.02393509127867,13.007707910750764 231.04908722109695,13.52697768762767 236.4235294117677,14.643407707911823 237.79959432048753,15.032860040569043 238.89006085192702,15.396348884381586 240.0843813387452,15.993509127790675 240.9152129817453,16.668559837728257 241.46044624746503,17.39553752535519 241.7460446247491,18.200405679514304 241.77200811359006,18.87545638945373 241.59026369168473,19.732251521298508 241.2787018255597,20.43326572008261 240.70750507099527,21.264097363084556 239.98052738337017,22.0949290060865 239.12373225152172,22.873833671400938 235.30709939148355,25.833671399594333 234.26855983772973,26.74239350912846 233.5935091277903,27.417444219067885 232.84056795132054,28.326166328602014 232.32129817444178,29.131034482759283 231.77606490872205,30.247464503043435 231.46450304259702,31.260040567952576 231.30872210953635,32.662068965518934 231.41257606491135,34.01217038539594 231.64624746450605,35.25841784989978 232.5290060851955,38.65963488843975 232.7626774847865,39.90588235294174 232.8924949290062,41.1261663286009 232.97038539554023,43.852332657201444 232.6588235294115,50.6807302231242 232.73671399594554,54.13387423935167 232.91845841785087,56.34077079107714 233.17809330629026,58.21014198783106 234.16470588235472,62.49411764706047 234.39837728194942,63.844219066939324 234.47626774847976,65.42799188641104 234.34645030426006,67.24543610547744 233.80121703854033,69.60811359026543 232.50304259635084,73.68438133874298 232.11359026369178,75.24219066937187 231.85395537525608,77.08559837728295 231.62028397566138,81.55131845841956 231.28275862069165,83.81014198783069 230.47789046653256,87.39310344827784 229.10182555780904,92.1703853955395 228.08924949290358,95.18215010142224 227.0247464503051,97.67464503042807 226.01217038539593,99.51805273833916 222.92251521298286,104.42515212981864 221.8320486815434,106.47626774847976 221.36470588235397,107.7225152129836 221.0791075050736,108.73509127789274 220.94929006085394,109.6697768762697 220.92332657200924,110.86409736308418 221.39066937119867,115.2778904665333 221.59837728194867,120.23691683570213 221.85801217038806,121.5610547667363 222.35131845841843,123.19675456389552 222.84462474645252,124.33914807302435 224.09087221095638,126.83164300203019 224.6361054766761,128.07789046653403 225.1034482758618,129.37606490872352 226.14198782961563,132.8811359026385 226.6612576064907,134.17931034482984 227.3622718052748,135.65922920892655 228.24503042596425,137.1391480730251 229.10182555780904,138.35943204868425 230.27018255578253,139.78742393509344 232.45111561866148,142.27991886409927 233.28194726166527,143.37038539553876 233.87910750507066,144.25314401623004 234.2166328600404,144.92819472616765 234.73590263691912,146.35618661257868 234.89168356997982,147.26490872211096 234.94361054766915,148.0438133874254 234.91764705882449,148.92657200811485 234.81379310344948,149.78336713996146 234.47626774847976,151.0815415821528 233.20405679513493,154.8981744421928 232.97038539554023,156.06653144016448 232.94442190669557,157.10507099391646 233.07423935091524,158.24746450304528 233.3598377281956,159.10425963489004 233.9569979716047,160.1168356997992 234.47626774847976,160.7399594320511 234.91764705882449,161.18133874239584 234.73590263691912,161.44097363083338 234.65801217038512,161.75253549696026 234.58012170385476,162.6872210953372 234.70993914807445,163.8815415821517 234.96957403651385,164.66044624746615 235.46288032454422,165.69898580121995 236.08600405679798,166.63367139959692 236.57931034482837,167.69817444219356 237.1505070993928,168.3991886409758 237.8515212981769,168.94442190669557 239.64300202840047,169.827180527385 243.20000000000294,172.44949290061052 247.92535496957524,176.52576064908993 248.9119675456397,177.53833671399906 249.58701825557912,178.52494929006352Z"/>
  </g>
</svg>