<?xml version="1.0" encoding="UTF-8" standalone="no"?>
<svg viewBox="0 0 256 177.71459197201736" xmlns="http://www.w3.org/2000/svg">
  <style>
    g.zone {
      fill: lightgray;
      stroke-width: 2;
      stroke-linecap: square;
      stroke-linejoin: bevel;
      stroke-miterlimit: 3;
      stroke-opacity: 0.8;
      stroke: black;
      fill-opacity: 0.3;
    }
  </style>
  <g class="zone" id="zone">
    <path d="M59.97957744492418,151.11878367323897 59.55352458322798,151.089898733463 59.09858678175582,151.089898733463 57.38715410002574,151.25598713717503 55.05469521311197,151.30653578178323 54.54198753208686,151.34264195650343 54.1231559053349,151.3931906011111 53.47324476037423,151.51595159515918 52.73667879608567,151.68926123381547 51.7545908436999,151.96366816168762 49.414910721841885,152.6641279512565 48.273955600688836,152.9529773490166 47.56627457617624,153.08295957800897 46.77915996727898,153.18405686722534 46.10758511748659,153.22738427688927 45.60209867140573,153.2129418070013 45.36379791825379,153.19127810216906 45.12549716510185,153.14072945756087 44.80776282756524,153.01796846351277 44.62001071902098,152.90242870440895 44.504470959917136,152.80855265013682 44.266170206765196,152.53414572226467 44.114524272940116,152.27418126427997 43.9845420439488,151.93478322191166 43.76068376068433,150.8660404501985 43.68125017629967,150.63496093199032 43.515161772588144,150.28834165467828 43.32018842909964,150.05726213647006 43.20464866999579,149.9561648472537 43.06022397111598,149.8550675580378 42.778595808299585,149.7323065639897 42.41753406109853,149.63843050971758 42.15756960311487,149.6600942145493 41.88316267524273,149.71786409410174 41.68096809680997,149.7828552085979 41.38489746410611,149.93450114242196 41.00217201207334,150.22335054018208 40.366703337001155,150.84437674536682 40.070632704296266,151.09711996840724 39.65902231248856,151.3570844263914 39.19686327607215,151.54483653493565 38.66249189021532,151.6964824687597 38.20033285379891,151.77591605314387 37.694846407718046,151.8336859326958 36.27948435869285,151.94922569179965 35.23962652675618,152.1153140955122 33.910919297058875,152.38972102338434 33.282671856929916,152.5413669572084 32.79162788073754,152.70745536092042 32.423344898593264,152.89520746946468 32.24281402499222,153.03241093340077 32.08394685622495,153.18405686722534 31.968407097120075,153.35014527093736 31.888973512736438,153.52345490959365 31.816761163296018,153.848410482074 31.80231869340855,154.64996756085873 31.758991283744095,155.0399142478347 31.701221404192175,155.2637725310992 31.61456658486429,155.51651575413962 31.499026825760442,155.7620377422358 31.37626583171235,155.9714535556118 31.188513723168086,156.23863924854018 31.029646554399786,156.42639135708444 30.834673210911276,156.6285859355167 30.603593692702557,156.83078051394895 30.372514174494864,156.99686891766098 30.141434656286147,157.1412936165408 29.867027728413998,157.27849708047736 29.570957095710135,157.40125807452546 29.16656793884565,157.53124030351728 28.675523962653276,157.63233759273368 28.184479986460904,157.6901074722856 27.657329835548325,157.70454994217357 27.079631040027042,157.68288623734134 26.689684353051046,157.65400129756537 25.295986008857568,157.47347042396538 24.747172153113272,157.42292177935718 24.19835829736898,157.39403683958122 23.093509350935115,157.3723731347495 22.681898959127405,157.3507094299173 22.349722151703336,157.30738202025333 22.031987814166733,157.24239090575716 21.80812953090226,157.177399791261 21.425404078869487,157.0040901526047 21.223209500437758,156.86688668866864 21.08600603650117,156.74412569462055 20.963245042453078,156.60692223068446 20.82604157851752,156.3975064173085 20.674395644693462,156.06532960988392 20.5949620603088,155.7620377422358 20.558855885588592,155.55984316380355 20.515528475925162,155.1410115370511 20.472201066260705,154.33945445826635 20.428873656597275,154.028941355674 20.3277763673809,153.7112070181374 20.212236608277053,153.5162336746494 20.11836055400492,153.39347268060132 19.901723505684696,153.18405686722534 19.65620151758851,153.0035259936248 19.273476065555737,152.78688894530458 18.125299709458446,152.20196891484008 17.77868043214588,151.97811063157613 17.482609799442017,151.72536740853567 17.215424106514117,151.44373924571929 16.96990211841793,151.1260049081832 16.132238864912996,149.8334038532056 15.821725762320638,149.40012975656515 15.46066401511958,148.96685565992468 15.063496093199339,148.56968773800446 14.760204225551231,148.30972328002028 14.456912357903121,148.08586499675582 13.778116273166486,147.65259090011537 13.200417477645203,147.34207779752302 11.857267778060427,146.6993878875066 11.229020337931468,146.38165354997048 10.369693379594816,145.9050520436656 9.228738258441771,145.2190347239852 8.484951059208965,144.74965445262455 7.835039914248292,144.30915912104038 7.286226058503996,143.88310625934366 6.860173196807795,143.5003808073114 6.426899100167345,143.03100053595074 6.073058587910534,142.58328396942233 5.762545485318178,142.0994612281742 5.517023497221992,141.63008095681352 5.3509350935094435,141.19680686017307 5.2426165693498445,140.82130264308455 5.047643225861334,139.69478999181948 4.953767171589203,139.304843304843 4.794900002820901,138.90045414797902 4.571041719557456,138.5105074610025 4.217201207300644,138.11333953908226 4.036670333700629,137.9472511353697 3.9211305745967824,137.86059631604184 3.393980423684202,137.54286197850521 2.318016417027326,136.99404812276092 2.0363882542109315,136.81351724916092 1.8341936757781747,136.66187131533636 1.5886716876819886,136.43079179712814 1.3936983441934787,136.18526980903195 1.2131674705934627,135.8747567064396 1.133733886209825,135.65089842317565 1.0470790668819405,135.26817297114337 1.0398578319376934,134.8637838142789 1.0904064765453696,134.41606724775048 1.3431496995858025,133.09458125299687 1.379255874306011,132.71185580096463 1.3720346393617642,132.30746664410015 1.3287072296983349,131.9464048969001 1.1481763560972926,131.01486558912305 1.0904064765453696,130.54548531776237 1.0615215367694082,129.9461228174099 1.0326365969934466,128.27801754534428 0.9965304222732381,127.71476121971148 0.945981777665562,127.28148712307103 0.8737694282251451,126.79044314687866 0.765450904065546,126.27773546585406 0.25996445798467993,124.38577191052448 0.09387605427213151,123.64198471129167 0.03610617472020845,123.20871061465122 0,122.75377281317854 0,122.3566048912583 0.028884939776987726,121.94499449945009 0.10831852416062537,121.3817381738173 0.23830075315296534,120.832924318073 0.4116103918087345,120.30577416716042 0.6354686750732059,119.76418154635985 0.9026543680011067,119.25869510027898 1.2059462356492157,118.78931482891885 1.5164593382415719,118.42103184677457 1.8053087360022133,118.17550985867787 2.0075033144349703,118.04552762968603 2.2746890073628707,117.92276663563794 2.5563171701792653,117.8433330512538 2.7801754534437366,117.81444811147783 3.271219429636109,117.81444811147783 4.1738737976361895,117.92276663563794 4.6143691292208855,117.95887281035816 5.018758286085373,117.94443034046967 5.430368677894108,117.87943922597401 5.820315364870101,117.74945699698166 6.109164762630742,117.58336859326963 6.354686750726929,117.35228907506142 6.5279963893826976,117.099545852021 6.636314913543323,116.83236015909257 6.701306028039493,116.5723957011084 6.744633437702922,116.23299765874009 6.766297142535663,115.85027220670783 6.759075907591416,115.29423711601929 6.722969732871207,114.77430820005095 6.51355391949523,113.26507009675312 6.455784039943307,112.64404389156842 6.4846689797192685,111.99413274660773 6.542438859271192,111.64029223435143 6.600208738823115,111.39477024625525 6.6940847930952465,111.10592084849512 6.8024033172548455,110.83151392062298 7.076810245128019,110.31158500465413 7.40898705255209,109.827762263406 8.326083890440664,108.70124961214043 8.57160587853685,108.31852416010817 8.759357987081113,107.93579870807591 8.8965614510177,107.57473696087536 9.0048799751773,107.09813545457096 9.055428619786001,106.68652506276274 9.105977264393678,105.79109192970589 9.149304674058133,105.3144904234015 9.228738258441771,104.8739950918168 9.35872048743411,104.39017235056816 9.589800005641802,103.78358861527194 9.878649403402445,103.21311105469542 10.218047445770761,102.70762460861455 10.571887958027574,102.28157174691835 10.976277114891035,101.91328876477408 11.229020337931468,101.73275789117355 11.488984795916148,101.57389072240575 12.052241121548937,101.30670502947734 13.055992778765395,100.93842204733306 13.66979774900586,100.74344870384455 14.348593833742497,100.56291783024454 14.95517756903974,100.44737807114018 16.435530732561105,100.20185608304399 17.20820287156987,100.02854644438823 17.60537079349011,99.91300668528386 18.197512058898862,99.70359087190789 19.778962511636603,99.06090096189095 20.46497983131646,98.81537897379476 21.288200614933928,98.58429945558656 22.125863868438863,98.41098981693027 23.382358748695758,98.22323770838601 24.72550844828156,98.08603424444993 34.51028179741085,97.40001692476956 39.86121689092029,96.93785788835315 40.75665002397715,96.8945304786887 41.46433104848975,96.88730924374497 42.22978195255426,96.90897294857668 43.5079405376439,96.9811852980171 43.92677216439688,96.9811852980171 44.33116132126034,96.95230035824113 44.612789484076735,96.88008800880073 44.930523821613335,96.75010577980889 45.12549716510185,96.64900849059252 45.78985077994999,96.2373980987843 46.23756734647893,96.02076105046407 46.69972638289534,95.87633635158375 47.21243406391943,95.80412400214384 47.63848692561563,95.7969027671996 48.02843361259265,95.84023017686405 48.46892894417735,95.91966376124769 49.40768948689764,96.15796451440015 49.96372457758618,96.25184056867228 50.44032608389108,96.28794674339248 51.01802487941134,96.259061803616 51.44407774110754,96.1868494541761 51.9640066570769,96.01353981551982 52.40450198866057,95.78968153225587 53.29271388677421,95.26975261628702 53.740430453302125,95.03867309807882 54.22425319455025,94.84369975459082 55.394093255480286,94.42486812783835 55.834588587063955,94.22989478435035 56.11621674988035,94.09269132041427 56.556712081465044,93.81106315759789 56.96110123832953,93.45722264534159 57.1488533468738,93.2117006572454 57.31494175058532,92.92285125948476 57.42326027474594,92.6123381568924 57.4665876844104,92.37403740374046 57.48103015429787,92.17184282530822 57.452145214521906,91.76745366844372 57.36549039519402,91.4280556260754 57.24272940114593,91.11754252348305 57.04053482271317,90.74203830639453 56.78779159967274,90.38819779413824 56.56393331640929,90.11379086626609 56.02234069560822,89.57941948040977 54.98248286367155,88.69120758229664 54.53476629714261,88.26515472060044 54.11593467039065,87.81743815407201 53.85597021240597,87.47804011170369 53.58156328453383,87.03754478011899 53.37936870610209,86.58982821359056 53.242165242165505,86.11322670728617 53.19883783250208,85.86770471918999 53.16273165778187,85.50664297198945 53.16273165778187,85.21057233928506 53.184395362613586,84.84951059208504 53.350483766326136,83.59301571182763 53.37936870610209,83.18140532001941 53.372147471157845,82.89255592225877 53.34326253138189,82.52427294011449 53.12662548306166,81.04391977659313 53.076076838453986,80.37956616174448 53.076076838453986,79.93907083015978 53.10496177822995,79.65022143239965 53.2060590674453,79.07974387182313 53.33604129643764,78.6681334800149 53.502129700150185,78.28540802798213 53.71154551352617,77.91712504583785 53.978731206454064,77.59939070830177 54.274801839158954,77.36108995514931 54.54198753208686,77.20944402132525 54.95359792389559,77.05057685255696 55.336323375927336,76.96392203322907 55.74793376773607,76.92781585850886 56.238977743928444,76.92781585850886 58.71586132972305,77.14445290682909 59.08414431186733,77.21666525626898 59.37299370962796,77.30332007559738 59.72683422188375,77.4621872443657 60.03734732447611,77.66438182279742 60.21787819807715,77.88101887111765 60.340639192125245,78.08321344954989 60.44173648134059,78.29985049787011 60.506727595836765,78.55981495585479 60.57893994527718,79.13029251643131 60.62948858988486,80.43733604129639 60.68725846943678,81.05836224648111 60.81001946348487,81.6938309215538 60.98332910214167,82.23542354235437 61.10609009618976,82.5098304702265 61.26495726495806,82.78423739809865 61.45270937350232,83.0369806211391 61.63324024710234,83.23195396462708 61.84265606047832,83.40526360328337 62.102620518463,83.54968830216369 62.326478801726445,83.63634312149158 62.550337084990915,83.68689176609976 62.90417759724773,83.6941130010435 63.24357563961605,83.65078559137956 63.61185862176033,83.5352458322757 63.97292036896036,83.35471495867517 64.22566359200079,83.19584778990739 64.50729175481719,82.97921074158717 64.74559250796912,82.76257369326694 65.31607006854615,82.18487489774617 65.53270711686639,81.99712278920191 65.79267157485003,81.81659191560189 66.05263603283471,81.68660968660956 66.46424642464243,81.56384869256146 66.90474175622712,81.49885757806528 68.45008603424465,81.44108769851337 69.10721841414957,81.37609658401719 69.57659868551023,81.28944176468931 70.02431525203815,81.16668077064122 70.45036811373436,80.97892866209696 70.8114298609354,80.7406279089445 71.05695184903159,80.53121209556852 71.66353558432782,79.85241601083189 71.9596062170327,79.56356661307176 72.3639953738972,79.26027474542315 72.8261544103136,78.985867817551 73.40385320583385,78.74034582945481 74.09709176045898,78.52370878113459 75.05029477306778,78.31429296775809 76.16236495444485,78.14098332910233 76.79783362951703,78.09043468449413 77.11556796705364,78.09043468449413 77.48385094919792,78.11209838932636 77.77270034695856,78.15542579899031 78.14098332910284,78.2276381484302 78.67535471495864,78.39372655214224 79.05808016699142,78.53815125102257 79.67910637217612,78.81977941383896 81.3399904092975,79.67910637217561 82.06933513864284,80.02572564948818 82.89977715720353,80.3867873966882 84.16349327240466,80.88505260782483 84.47400637499702,81.02225607176089 84.8061831824211,81.19556571041718 85.10225381512598,81.37609658401719 85.3549970381654,81.57829116244945 85.52108544187794,81.73715833121774 85.6871738455905,81.94657414459373 85.78104989986262,82.11266254830628 85.86048348424626,82.3292995966265 85.90381089391072,82.5603791148347 85.91103212885393,82.76979492821067 85.8315985444703,83.0586443259708 85.73772249019817,83.32583001889923 85.49942173704622,83.80243152520362 85.1239175199577,84.40179402555661 84.19959944712488,85.7449437251419 83.83853769992382,86.36596993032661 82.95754703675546,88.27237595554418 81.94657414459475,90.2582155651464 81.70105215649856,90.8431355956109 81.61439733716965,91.17531240303498 81.59273363233794,91.44971933090764 81.62883980705814,91.69524131900383 81.72271586133027,91.89021466249181 81.84547685537837,92.02741812642789 82.04045019886688,92.15740035542024 82.3654057713467,92.28016134946833 82.66147640405056,92.33070999407651 82.93588333192373,92.30182505430004 83.19584778990739,92.24405517474813 83.49191842261229,92.15017912047598 83.64356435643633,92.07074553609183 83.96851992891615,91.86132972271587 84.89283800174898,91.18975487292296 86.09878423739819,90.40264026402622 86.54650080392713,90.07046345660214 86.90034131618292,89.7455078841218 87.18919071394356,89.44221601647318 88.15683619644084,88.35180953992833 88.50345547375238,88.00519026261576 88.85007475106494,87.7091196299119 89.23280020309771,87.4274914670955 89.66607429973817,87.17474824405507 90.0776846915469,86.98699613551081 90.51095878818735,86.84979267157473 90.90090547516334,86.76313785224686 91.33417957180379,86.71981044258291 91.77467490338849,86.72703167752664 92.17184282530873,86.77758032213482 92.54734704239725,86.85701390651899 92.8939663197088,86.95811119573484 94.45375306761483,87.52136752136764 95.19754026684762,87.74522580463159 95.70302671292849,87.86798679867968 96.30961044822472,87.98352655778405 97.21226481622581,88.09906631688789 97.72497249724991,88.1351724916081 98.41098981693078,88.15683619644032 99.18366195593956,88.12073002172012 99.52305999830787,88.07018137711194 99.89134298045215,87.98352655778405 100.13686496854834,87.88965050351192 100.3607232518128,87.76688950946382 100.54847536035707,87.62968604552775 100.70734252912537,87.44915517192722 100.82288228822922,87.25418182843921 100.90231587261286,87.01588107528677 100.93120081238881,86.78480155707857 100.91675834250135,86.55372203887036 100.85176722800517,86.2937575808862 100.7506699387888,86.04101435784627 100.51236918563686,85.66551014075775 100.15130743843683,85.25389974894901 98.43987475670674,83.60745818171561 97.45056556937776,82.69036134382652 97.20504358128157,82.43039688584236 97.04617641251326,82.23542354235437 96.93063665340942,82.06933513864182 96.84398183408153,81.90324673492978 96.78621195452962,81.73715833121774 96.75732701475263,81.58551239739369 96.7501057798094,81.42664522862539 96.77899071958537,81.28222052974506 96.82953936419304,81.14501706580899 96.90175171363346,81.02947730670515 97.02451270768155,80.8994950777128 97.21948605117007,80.7767340836647 97.41445939465754,80.69730049928056 97.71775126230565,80.63953061972865 98.20157400355481,80.61786691489641 99.26309554032319,80.66119432456087 99.93467039011661,80.66119432456087 100.62790894474071,80.62508814984066 101.27059885475714,80.5456545654565 101.7905277707265,80.43733604129639 102.29601421680633,80.30735381230406 102.76539448816699,80.14848664353627 103.31420834391129,79.93184959521604 103.79080985021619,79.71521254689581 104.41905729034515,79.3758145045275 104.8378889170971,79.11585004654333 105.24227807396159,78.82700064878269 105.59611858621841,78.52370878113459 105.95718033341844,78.16986826887829 107.14868409917916,76.8989309187329 107.49530337649172,76.58841781614055 107.7191616597562,76.41510817748426 108.11632958167644,76.16958618938807 108.48461256382072,75.99627655073179 108.94677160023713,75.83740938196401 109.37282446193332,75.73631209274762 109.82776226340651,75.67132097825146 110.44878846859123,75.64965727341973 110.98315985444702,75.68576344813944 111.71972581873558,75.79408197229955 112.83179600011267,76.04682519533998 114.64432597105913,76.50898423175639 115.47476798961982,76.77616992468481 116.10301542974878,77.03613438266898 116.59405940594115,77.30332007559738 117.07066091224503,77.63549688302146 117.52559871371822,78.01100110010998 117.87943922597401,78.37928408225426 118.11051874418273,78.65369101012641 118.33437702744617,78.97142534766301 119.00595187723958,80.17015034836798 119.19370398578384,80.47344221601661 119.36701362443962,80.70452173422481 119.51143832331942,80.86338890299311 119.67030549208772,81.00059236692918 119.87972130546473,81.11613212603304 120.06747341400796,81.17390200558495 120.32743787199264,81.20278694536142 120.58018109503308,81.1811232405292 120.86180925784947,81.08002595131282 121.22287100504951,80.91393754760078 122.08219796338615,80.44455727624064 122.53713576485934,80.21347775803244 122.9415249217228,80.05461058926413 123.32425037375558,79.93184959521604 123.69975459084411,79.84519477588765 124.14747115737202,79.78742489633572 125.63504555583764,79.69354884206359 126.19108064652617,79.64300019745541 126.67490338777533,79.54912414318379 127.09373501452728,79.4119206792472 127.53423034611198,79.20250486587122 127.95306197286394,78.91365546811109 128.28523878028903,78.61758483540672 128.9856985698574,77.91712504583785 129.2239993230093,77.72215170234986 129.4117514315536,77.59216947335752 129.65005218470552,77.4621872443657 129.9316803475219,77.35386872020558 130.2782996248345,77.26721390087718 130.6176976672028,77.21666525626898 131.17373275789134,77.19500155143727 131.84530760768374,77.23832896110122 132.54576739725312,77.34664748526133 134.0838904403264,77.65716058785368 134.83489887450344,77.78714281684603 135.5498011339603,77.86657640122966 136.19971227892097,77.89546134100614 137.04459676736911,77.85935516628592 137.60063185805765,77.79436405178976 138.96544526247519,77.57772700346953 139.39871935911563,77.54162082874933 139.86087839553204,77.52717835886135 141.56508984231786,77.56328453358155 143.4426109277595,77.54884206369357 144.0491946630567,77.56328453358155 144.7713181574568,77.62827564807772 146.03503427265792,77.84491269639794 146.48997207413112,77.85935516628592 146.85103382133116,77.80158528673401 147.1398832190918,77.6932667625739 147.42151138190818,77.52717835886135 147.7248032495563,77.26721390087718 147.80423683393994,77.47662971425368 147.9775464725967,77.74381540718157 148.1003074666448,77.86657640122966 148.28805957518907,77.96767369044603 148.4541479789006,78.01822233505423 148.67078502722083,78.05432850977392 149.24126258779785,78.10487715438211 149.52289075061427,78.08321344954989 150.08614707624602,77.97489492538978 150.23057177512686,77.97489492538978 150.3677752390624,78.00377986516625 150.5266424078307,78.0687709796619 150.90214662491925,78.29985049787011 151.4798454204395,78.58869989563075 151.89867704719248,78.91365546811109 151.98533186652037,78.96420411271876 152.17308397506463,79.0219739922712 152.3608360836089,79.03641646215918 153.13350822261765,78.99308905249524 153.3718089757696,78.94976164283078 153.5162336746494,78.87754929339089 153.59566725903406,78.8125581788947 153.66787960847347,78.71868212462257 153.7617556627456,78.36484161236628 153.8484104820745,78.18431073876627 153.93506530140237,78.08321344954989 154.32501198837838,77.72215170234986 154.5777552114188,77.51273588897337 154.81605596457075,77.36831119009355 155.22044512143523,77.17333784660505 155.48040957941993,77.07946179233292 155.62483427829972,77.0577980875012 155.9570110857238,77.04335561761322 156.42639135708444,76.97836450311705 156.58525852585277,76.9350370934531 156.88855039350088,76.79783362951703 157.0329750923817,76.76172745479683 157.19906349609323,76.75450621985257 157.61067388790195,76.80505486446077 157.76954105667025,76.79783362951703 157.96451440015775,76.74006374996459 158.41945220163092,76.55231164142033 158.57831937039924,76.50176299681266 158.7877351837752,76.4728780570367 158.99715099715118,76.4728780570367 159.1271332261435,76.48732052692468 159.66872584694357,76.63896646074873 160.03700882908785,76.65340893063672 160.31141575696103,76.63174522580448 160.7519110885447,76.55231164142033 160.9685481368649,76.4945417618684 161.25739753462557,76.3862232377083 161.53180446249772,76.32845335815638 162.01562720374585,76.32845335815638 162.66553834870652,76.36455953287658 162.88217539702674,76.3501170629886 163.08436997545948,76.29956841838042 163.45987419254803,76.1912498942203 163.8281571746923,76.02516149050827 164.0736791627885,75.93850667117987 164.71636907280492,75.76519703252359 164.99077600067704,75.62077233364379 165.7417844348541,75.11528588756292 166.33392570026285,74.78310908013884 166.49279286903115,74.63868438125853 166.74553609207058,74.32817127866616 166.95495190544756,74.12597670023392 167.33767735747932,73.873233477194 167.7059603396236,73.67826013370549 167.8287213336717,73.85879100730602 168.00925220727274,74.05376435079401 168.71693323178533,74.69645426081095 169.06355250909687,75.05029477306725 169.43183549124217,75.50523257453942 169.83622464810563,76.06848890017221 171.2949141067953,78.29985049787011 171.5982059744434,78.84144311867067 171.8292854926521,79.3758145045275 172.65250627626855,81.55662745761772 172.89080702942152,82.25708724718608 173.06411666807728,82.8275648077626 173.17965642718113,83.3041663140675 173.27353248145326,83.83131646497957 173.33852359594943,84.4162364954446 173.33852359594943,84.8278468872528 173.30963865617346,85.1455812247889 173.2229838368456,85.51386420693369 173.12910778257347,85.80271360469382 172.97024061380515,86.14933288200639 172.7608248004292,86.51761586415067 172.42864799300511,87.01588107528677 172.16868353502042,87.36250035259934 171.83650672759634,87.74522580463159 171.61264844433188,87.9401991481201 171.42489633578762,88.09184508194416 171.21548052241164,88.22904854588023 170.9482948294827,88.37347324476055 170.3778172689067,88.61899523285673 169.30185326224984,88.98727821500101 168.9119065752728,89.16780908860103 168.67360582212086,89.31945502242509 168.52195988829683,89.45665848636168 168.39919889424874,89.60830442018573 168.3197653098651,89.76717158895352 168.26921666525638,89.991029872218 168.2836591351449,90.20044568559396 168.37753518941702,90.40264026402622 168.51473865335257,90.56872866773875 168.7097119968411,90.71315336661857 168.92634904516132,90.8431355956109 170.03119799159415,91.32695833685955 170.3056049194663,91.47138303573935 170.56556937745097,91.63025020450766 170.76054272093947,91.7818961383317 170.9482948294827,91.96964824687598 171.07827705847507,92.17184282530822 171.14326817297123,92.38125863868419 171.136046938027,92.62678062678037 171.05661335364334,92.85786014498858 170.926631124651,93.10338213308529 170.7099940763308,93.39223153084541 170.17562269047394,93.97715156130991 169.7928972384422,94.33821330851046 169.4896053707941,94.5765140616624 169.12854362359303,94.79315110998263 168.8685791656094,94.90146963414274 168.66638458717662,94.97368198358315 168.39919889424874,95.03145186313508 168.1464556712083,95.06755803785529 167.87204874333614,95.07477927279902 167.6554116950159,95.06033680291104 167.4026684719755,95.02423062819084 167.13548277904758,94.95201827875093 166.79608473667926,94.82203604975858 166.4133592846465,94.61984147132634 166.00897012778202,94.35265577839844 165.04132464528575,93.65941722377383 164.51417449437318,93.34890412118148 163.95813940368464,93.10338213308529 163.6476263010923,93.00950607881315 163.37321937322014,92.95173619926072 162.95438774646715,92.91563002454102 162.49944994499498,92.94451496431698 162.16727313757093,93.00950607881315 161.30794617923323,93.24058559702137 160.80968096809661,93.31279794646126 160.5063891004485,93.30557671151753 160.20309723280042,93.26224930185307 159.95757524470423,93.19725818735742 159.66150461200036,93.08893966319731 159.25711545513587,92.88674508476505 158.86716876815885,92.63400186172463 158.4338946715184,92.27294011452408 158.0944966291501,91.92632083721203 157.84175340610966,91.6230289695634 157.52401906857406,91.18253363797922 156.65747087529317,89.73828664917755 156.46249753180467,89.48554342613764 156.24586048348445,89.26890637781742 155.9209049110046,89.01616315477698 155.51651575414013,88.806747341401 154.98936560322755,88.61899523285673 154.4911003920909,88.51067670869662 154.0939324701707,88.47457053397642 153.57400355420236,88.47457053397642 153.11906575272917,88.53234041352835 152.6496854813685,88.64065893768846 152.10809286056846,88.82118981128899 151.54483653493565,89.05949056444092 150.9093678598635,89.37000366703327 150.43276635355858,89.65163182984968 150.10781078107877,89.86104764322565 149.7395277989345,90.14989704098629 149.4795633409498,90.39541902908248 149.15460776846896,90.76370201122675 148.97407689486894,91.0164452342672 148.81520972610065,91.28363092719509 148.67078502722083,91.58692279484372 148.38915686440444,92.25127640969237 148.25917463541208,92.47513469295633 148.14363487630825,92.61955939183665 148.00643141237268,92.74232038588474 147.84034300866014,92.84341767510061 147.64536966517161,92.92285125948476 147.45761755662735,92.95895743420496 147.1254407492033,92.97339990409294 146.7716002369475,92.90840878959678 146.42498095963495,92.7712053256607 146.07836168232237,92.56178951228472 145.78229104961852,92.30904628924429 145.54399029646555,92.07074553609183 144.6846633381289,91.0164452342672 144.23694677160097,90.54706496290653 143.9625398437278,90.30876420975407 143.76756650024032,90.17878198076225 143.54370821697586,90.04879975176992 143.33429240359987,89.94770246255405 143.05266424078349,89.8682688781699 142.70604496347093,89.8177202335617 142.43163803559878,89.8177202335617 142.14278863783812,89.8682688781699 141.86116047502173,89.95492369749778 141.55786860737362,90.10656963132183 141.33401032410916,90.26543680009014 141.08848833601297,90.51095878818633 140.9296211672457,90.72759583650655 140.81408140814082,90.93701164988303 140.6335505345408,91.3919494513552 140.5468957152129,91.70246255394756 140.35914360666865,92.80009026543667 140.26526755239652,93.22614312713338 140.12806408845995,93.64497475388585 139.93309074497245,94.04214267580609 139.69478999182053,94.39598318806239 139.39871935911563,94.74982370031869 139.0737637866358,95.06033680291104 138.27220670785107,95.7969027671996 137.9255874305385,96.16518574934439 137.68006544244233,96.51180502665645 137.52119827367403,96.86564553891274 137.4489859242336,97.14727370172913 137.42010098445763,97.45056556937725 137.43454345434614,97.71053002736193 137.4995345688423,98.04270683478599 137.5861893881702,98.28822882288217 137.73783532199425,98.58429945558656 137.8894812558183,98.80815773885102 138.0844545993068,99.017573552227 138.35164029223472,99.23421060054723 138.5827198104424,99.37863529942754 139.00877267213963,99.50861752841938 139.3048433048435,99.55916617302756 139.6225776423801,99.57360864291554 139.94753321485993,99.54472370313958 140.26526755239652,99.48695382358765 140.76353276353314,99.33530788976309 141.27624044455723,99.09700713661115 141.75284195086215,98.822600208739 142.94434571662285,98.05714930467397 143.2331951143835,97.89828213590567 143.60869933147202,97.71775126230565 143.9408761388961,97.58776903331332 144.2947166511529,97.48667174409745 144.65577839835294,97.42890186454552 145.00961891060976,97.40001692476956 145.4428930072502,97.41445939465754 145.93393698344258,97.47222927420947 146.37443231502624,97.57332656342534 146.76437900200327,97.69608755747343 147.17598939381097,97.847733491298 147.65259090011588,98.07159177456195 149.15460776846896,98.88037008829093 149.63120927477385,99.11144960649914 149.91283743759024,99.21976813065925 150.23057177512686,99.31364418493138 150.54830611266243,99.38585653437129 150.84437674536733,99.42918394403523 151.15488984795968,99.45084764886745 151.50873036021545,99.44362641392321 151.86979210741652,99.4075202392035 152.20919014978483,99.34252912470734 152.79411018024933,99.16199825110732 154.12281740994663,98.66373303997071 154.4188880426505,98.5770782206423 154.77272855490733,98.49764463625867 155.09768412738714,98.46153846153847 155.37931229020353,98.46153846153847 155.60317057346802,98.48320216637069 155.86313503145166,98.54097204592262 156.03644467010847,98.60596316041878 156.23863924854018,98.71428168457889 156.36862147753254,98.81537897379476 156.4697187667489,98.91647626301113 156.54915235113253,99.03923725705923 156.61414346562873,99.16921948605106 156.65747087529317,99.32086541987512 156.68635581506913,99.50139629347564 156.68635581506913,99.7613607514598 156.65024964034893,100.04298891427621 156.36140024258827,101.1406166257653 156.2891878931489,101.57389072240575 156.28196665820465,101.81941271050194 156.2964091280921,102.07215593354186 156.46249753180467,103.14811994019925 156.49138247158064,103.66082762122385 156.4697187667489,103.9857831937042 156.4191701221402,104.27463259146431 156.26030295337293,104.80900397732063 156.0436659050527,105.28560548362502 155.8342500916757,105.66110970071355 154.4911003920909,107.7769315393076 154.16614481961008,108.25353304561199 153.42235762037728,109.26450593777321 153.1046232828417,109.75554991396558 152.89520746946468,110.12383289610986 152.74356153564062,110.44156723364647 152.25251755944828,111.59696482468749 152.10809286056846,111.84970804772793 151.96366816168864,112.0591238611039 151.73258864347994,112.30464584920009 151.44373924571929,112.53572536740829 151.16211108290392,112.72347747595256 150.12947448591046,113.32283997630505 149.76119150376618,113.56836196440175 149.42179346139787,113.83554765732964 148.98129812981318,114.22549434430616 148.5985726777804,114.61544103128266 148.25917463541208,115.0126089532029 147.94866153281973,115.43144057995536 147.7609094242765,115.74917491749146 147.6092634904514,116.06690925502807 147.4792812614601,116.3918648275084 147.3926264421312,116.72404163493246 147.33485656257926,117.02011226763685 147.29875038786008,117.31618290034122 147.2698654480831,118.26938591295 147.24098050830713,118.45713802149426 147.19043186369947,118.67377506981448 147.11099827931582,118.86152717835876 147.0026797551552,119.02761558207078 146.86547629121964,119.19370398578333 146.6849454176186,119.35257115455113 146.46108713435515,119.51143832331942 146.17945897153876,119.67752672703146 145.0746100251049,120.18301317311233 144.59078728385677,120.45019886604022 144.12862824744036,120.7968181433528 143.18264646977582,121.63448139685772 142.7926997827988,121.90888832472987 142.59050520436708,122.02442808383373 142.40275309582282,122.10386166821787 142.16445234267087,122.16885278271404 141.98392146906983,122.19051648754628 141.72395701108618,122.1760740176583 141.4639925531015,122.11830413810586 141.16792192039762,121.98832190911402 140.88629375758123,121.81501227045774 140.64077176948504,121.62003892696974 140.38080731150038,121.36729570392932 139.6659050520435,120.52963245042437 139.44204676878007,120.29855293221617 139.23263095540307,120.12524329355989 139.05932131674732,120.0024822995118 138.67659586471453,119.8075089560238 138.39496770189916,119.71363290175167 138.11333953908277,119.6486417872555 137.81004767143364,119.61253561253581 137.50675580378552,119.61253561253581 137.19624270119317,119.63419931736752 136.88572959860082,119.69196919691944 136.5824377309527,119.77862401624783 136.2935883331931,119.88694254040794 135.90364164621607,120.10357958872818 135.56424360384776,120.38520775154457 135.2898366759756,120.7101633240249 135.18873938675924,120.87625172773694 135.10208456743135,121.07122507122494 135.00820851315922,121.37451693887355 134.97210233843902,121.68503004146541 134.97932357338325,121.98832190911402 135.05875715776688,122.6743392287944 135.08042086259962,122.99929480127473 135.06597839271114,123.33869284364305 135.01542974810346,123.6130997715157 134.92155369383133,123.94527657893978 134.82045640461496,124.18357733209223 134.71935911539856,124.3713294406365 134.48105836224664,124.70350624806056 134.2283151392062,124.956249471101 133.9611294462783,125.15844404953324 133.6939437533504,125.30286874841305 133.3978731206455,125.41840850751741 133.0729175481657,125.49784209190156 132.7768469154608,125.53394826662125 132.41578516826075,125.55561197145349 130.79822854080282,125.52672703167752 130.42272432371428,125.53394826662125 129.98945022707383,125.57005444134147 129.56339736537763,125.64226679078136 129.25288426278527,125.71447914022178 128.94959239513716,125.81557642943766 128.49465459366502,125.99610730303817 128.03971679219285,126.23440805619012 127.51256664128026,126.58102733350269 126.94931031564748,127.0431863699191 126.65323968294258,127.32481453273549 126.3716115201262,127.64254887027158 126.14775323686274,127.98916814758414 126.01054977292615,128.3141237200645 125.94555865842999,128.6174155877126 125.95277989337424,128.97847733491312 126.03943471270212,129.3467603170574 126.21274435135892,129.72948576908968 126.43660263462236,130.07610504640223 126.7615582071032,130.4588304984345 127.07207130969557,130.73323742630666 127.49812417139177,131.00042311923505 127.85196468364859,131.15929028800284 128.19858396096012,131.22428140249903 128.48743335872075,131.25316634227497 128.80516769625737,131.24594510733124 129.1445657386257,131.2026176976673 129.73670700403443,131.05819299878698 131.3253786917154,130.5671490225946 132.64686468646846,130.22052974528205 134.13443908493406,129.8089193534738 134.49550083213512,129.74392823897765 134.80601393472747,129.71504329920168 135.12374827226307,129.72226453414544 135.44148260979966,129.76559194380988 135.93974782093628,129.90279540774594 136.48134044173634,130.1194324560662 138.11333953908277,130.95709570957112 139.69478999182053,131.65033426419572 140.34470113678017,131.97528983667607 140.879072522637,132.28580293926842 141.36289526388614,132.61075851174877 143.18986770471903,133.9611294462778 143.63036303630375,134.23553637414994 143.99864601844803,134.41606724775048 144.4391413500327,134.55327071168654 144.83630927195296,134.6182618261827 145.1829285492655,134.63992553101443 146.4322021945792,134.64714676595867 146.81492764661093,134.6688104707904 147.2698654480831,134.72658035034283 147.66703337000436,134.8132351696707 148.09308623170057,134.94321739866305 148.7718823164372,135.22484556147893 149.31347493723726,135.51369495923956 149.88395249781428,135.89642041127183 150.37499647400665,136.30803080308004 150.8082705706471,136.76296860455273 151.0682350286318,137.0807029420888 151.4076330710001,137.56452568333745 151.75425234831164,138.11333953908226 152.49081831260122,139.34817071450743 152.88076499957722,139.95475444980366 153.15517192744937,140.34470113678017 153.5090124397062,140.80686017319658 153.81952554229855,141.17514315534086 154.1155961750024,141.50009872782118 154.42610927759475,141.81061183041354 154.76550731996306,142.10668246311792 155.08324165749968,142.3522044512141 155.61761304335548,142.69160249358242 156.15920566415656,142.94434571662285 157.48069165890962,143.44983216270322 157.9572931652145,143.68813291585568 158.23170009308666,143.87588502439993 158.4338946715184,144.03475219316772 158.62164678006266,144.22972553665622 158.7660714789435,144.41747764520048 158.9104961778233,144.67744210318466 159.00437223209542,144.95907026600105 159.04769964175887,145.24069842881693 159.04047840681565,145.56565400129728 158.96104482243098,145.94837945333003 158.85994753321563,146.23722885109018 158.70830159939055,146.54052071873826 158.5061070209588,146.82214888155468 158.36168232207902,146.9882372852667 158.19559391836646,147.13266198414703 158.01506304476644,147.26264421313937 157.762319821726,147.42151138190715 157.43014301430193,147.57315731573172 156.31807283292486,147.99921017742793 155.78370144706804,148.23751093058038 155.23488759132374,148.5263603283405 154.69329497052266,148.8802008405968 154.43333051253902,149.08239541902904 154.20947222927452,149.29181123240502 154.043383825562,149.46512087106132 153.89173789173793,149.6745366844378 153.77619813263408,149.89839496770176 153.7112070181379,150.08614707624602 153.6751008434177,150.26667794984604 153.65343713858599,150.47609376322254 153.71842825308215,150.82271304053458 153.86285295196197,151.2487659022313 154.03616259061877,151.60982764943134 154.53442780175436,152.54858819215264 154.65718879580245,152.8302163549685 154.74384361513137,153.09740204789694 154.823277199515,153.4440213252095 154.8593833742352,153.79064060252156 154.91715325378712,154.98214436828277 154.9677018983948,155.58150686863527 155.11212659727565,156.4697187667484 155.25655129615544,157.0907449719331 155.44430340469972,157.69732870722984 155.64649798313144,158.23892132802987 155.8847987362844,158.72274406927852 156.22419677865273,159.27877915996706 157.1051874418211,160.4702829257283 157.4951341287981,161.091309130913 157.84175340610966,161.79176892048187 158.3977884967982,163.1926884996191 158.65775295478286,163.7631660601956 159.00437223209542,164.40585597021203 159.40154015401566,164.9979972356208 159.9720177145927,165.73456319990987 160.65803503427256,166.5000141039744 161.2646187695698,167.1065978392711 162.95438774646715,168.6952695269526 163.51764407209996,169.26574708752912 163.9003695241317,169.68457871428157 164.17477645200486,170.0239767566499 164.38419226538085,170.33448985924227 164.5358381992049,170.63056049194662 164.61527178358853,170.8760824800428 164.6441567233645,171.0493921186991 164.6441567233645,171.25158669713133 164.60082931370107,171.43211757073135 164.51417449437318,171.57654226961168 164.38419226538085,171.71374573354774 164.2397675665,171.80040055287563 164.06645792784423,171.85817043242756 163.89314828918847,171.88705537220352 163.61874136131632,171.89427660714776 163.35877690333163,171.8653916673718 163.03382133085182,171.80040055287563 162.679980818595,171.67763955882754 162.16727313757093,171.43933880567508 161.27184000451405,170.90496741981877 161.00465431158514,170.76054272093845 160.65081379932934,170.62333925700239 160.29697328707255,170.5511269075625 160.02978759414464,170.5511269075625 159.7264957264955,170.59445431722642 159.50263744323206,170.6594454317226 159.2282305153599,170.77498519082644 159.02603593692714,170.8905249499308 158.7660714789435,171.0710558235308 158.54943443062328,171.27325040196305 158.3472398521905,171.50432992017127 158.23170009308666,171.6848607937718 158.1450452737588,171.85817043242756 158.0439479845424,172.17590476996415 158.0439479845424,172.45753293278057 158.07283292431836,172.61640010154835 158.1306028038703,172.7824885052609 158.21003638825496,172.94135567402867 158.36168232207902,173.1579927223489 159.24267298524737,174.17618684945387 159.6037347324474,174.64556712081452 159.8131505458244,174.9777439282386 159.97923894953593,175.2954782657752 160.08755747369656,175.5482214888156 160.19587599785615,175.8948407661277 160.23920340752062,176.12592028433588 160.25364587740808,176.37144227243206 160.24642464246486,176.57363685086432 160.21031846774466,176.72528278468837 160.1453273532485,176.88414995345667 160.06589376886484,177.02135341739273 159.96479647964847,177.12967194155286 159.82037178076763,177.24521170065722 159.50263744323206,177.39685763448128 159.2498942201916,177.46906998392117 158.98992976220694,177.51961862852937 158.36168232207902,177.59183097796927 157.74787735183855,177.60627344785723 150.9526952695269,177.5990522129135 133.80948351245425,177.6857070322414 126.66046091788684,177.67848579729767 124.2630109164769,177.71459197201736 123.82973681983644,177.69292826718564 123.33869284364407,177.6134946828015 123.10039209049111,177.54128233336158 122.87653380722766,177.43296380920148 122.70322416857087,177.30298158020912 122.55879946969107,177.12967194155286 122.49380835519489,177.00691094750476 122.42159600575448,176.8191588389605 122.22662266226699,175.98149558545606 122.0533130236102,175.5265577839834 121.91610955967464,175.27381456094295 121.75002115596209,175.03551380779103 121.55504781247357,174.80443428958282 121.33118952921014,174.5877972412626 120.97734901695333,174.3061690784462 120.63072973964076,174.07508956023798 120.15412823333688,173.8079038673096 118.84708470847129,173.11466531268496 118.41381061183084,172.8547008547008 118.03108515979807,172.5875151617724 115.87193591154006,170.96995853431494 115.35922823051598,170.56556937745046 114.88262672421106,170.13229528081 114.550449916787,169.7423485938335 114.30492792869082,169.3668443767455 114.1243970550908,168.9985613946007 113.92942371160228,168.47863247863236 113.82110518744166,168.05980085187988 113.77055654283399,167.6698541649034 113.76333530788973,167.3521198273673 113.7922202476657,167.01272178499897 113.92942371160228,166.13895235677384 113.95830865137825,165.80677554934977 113.9655298863225,165.46737750698145 113.92942371160228,165.04854588022897 113.69112295845035,163.8281571746918 113.45282220529738,162.9110603368027 113.22174268708969,162.25392795689828 112.88234464472137,161.5534681673294 112.56461030718476,161.01187554652887 112.16022115032028,160.3836281064004 111.01926602916724,158.72274406927852 109.82776226340651,157.08352373698887 109.3150545823814,156.4336125920282 108.88178048574095,155.92812614594783 108.59293108798134,155.62483427829972 108.1452145214524,155.18433894671503 107.66139178020427,154.77272855490682 107.32199373783595,154.51276409692264 106.95371075569167,154.2600208738822 106.64319765309932,154.0794900002822 106.32546331556271,153.9061803616259 105.83441933937034,153.68232207836144 104.95342867620096,153.34292403599312 103.6680488561681,152.9313136441849 102.59930608445546,152.65690671631276 101.74720036106204,152.4908183126002 100.82288228822922,152.38972102338434 99.89134298045215,152.3680573185521 99.06090096189146,152.4186059631603 98.63484810019526,152.48359707765647 98.18713153366632,152.5774731319286 97.58054779837009,152.76522524047286 97.17615864150561,152.92409240924064 96.80065442441708,153.11906575272917 96.45403514710452,153.34292403599312 96.22295562889683,153.52345490959365 95.93410623113618,153.81230430735377 94.89424839919951,155.03269301289097 94.34543454345523,155.58150686863527 94.00603650108587,155.86313503145166 93.60886857916563,156.15198442921178 93.09616089814155,156.47694000169213 92.5040196327328,156.80911680911672 91.7963386082202,157.15573608642927 91.15364869820378,157.44458548418942 90.61927731234695,157.64678006262164 90.09934839637862,157.80564723138943 89.47110095624966,157.95007193026976 88.99449944994578,158.01506304476592 88.4673492990332,158.05116921948613 87.8824292685687,158.03672674959816 87.08809342472719,157.957293165214 86.46706721954247,157.84175340610966 85.93269583368668,157.71899241206157 84.66897971848553,157.37959436969325 82.18487489774668,156.63580717046042 81.55662745761772,156.48416123663637 80.96448619220898,156.37584271247627 80.2062565230887,156.28918789314838 79.18084116103951,156.23863924854018 78.14098332910284,156.23863924854018 76.94225832839685,156.3108515979801 76.50898423175742,156.32529406786807 76.0107190206208,156.2964091280921 75.52689627937164,156.20975430876422 75.02863106823503,156.05810837494016 74.53758709204266,155.84147132661994 74.19096781473009,155.65371921807568 73.02112775380108,154.9532594285068 72.23401314490485,154.53442780175436 71.82240275309611,154.3683393980423 71.3602437166797,154.24557840399422 70.99196073453543,154.20225099433029 70.55868663789498,154.19502975938605 68.97001495021298,154.36111816309807 68.35620997997252,154.3827818679303 67.74240500973205,154.3466756932101 67.17192744915604,154.24557840399422 66.80364446701074,154.13725987983412 66.4064765450905,154.00005641589803 65.02722067078552,153.41513638543353 64.55061916448061,153.22738427688927 63.178584525119874,152.80855265013682 62.730867958590935,152.64246424642477 62.42757609094282,152.5052607824882 62.124284223294715,152.32472990888817 61.149417505853194,151.66759752898375 60.802798228541654,151.45096048066353 60.34786042706846,151.24154466728706 59.97957744492418,151.11878367323897Z"/>
    <path d="M47.38574370257623,36.611661166116924 46.9957970155992,36.36613917802022 46.490310569519366,36.09895348509232 45.58765620151826,35.70178556317157 45.08216975543739,35.50681221968357 44.54779836958056,35.340723815971536 44.078418098220936,35.21796282192344 43.47183436292369,35.08075935798737 41.95537502468212,34.813573665058954 41.28380017488973,34.72691884573056 39.810668246312616,34.58249414685075 39.08854475191152,34.48861809257862 37.04493526275737,34.10589264054636 36.42390905757266,34.00479535132998 35.824546557220685,33.947025471778055 35.398493695523456,33.93980423683381 35.00132577360322,33.95424670672179 34.58249414685126,34.00479535132998 33.93980423683484,34.13477758032232 33.40543285097801,34.3080872189786 32.99382245916927,34.48139685763437 31.968407097120075,34.97244083382726 31.434035711264272,35.21796282192344 30.841894445855523,35.44904234013165 29.289328932893742,36.00507743082019 28.93548842063693,36.15672336464424 28.63941778793307,36.32281176835628 28.357789625116673,36.52500634678852 28.10504640207624,36.763307099940974 27.852303179036834,37.05937773264535 27.195170799131912,37.94036839581423 26.78356040732318,38.43863360695033 26.19141914191443,39.05243857719132 25.563171701786494,39.63013737271157 24.739950918169026,40.29449098756022 23.786747905560244,40.96606583735313 22.97796959183127,41.47155228343348 22.60968660968699,41.66652562692148 22.270288567318673,41.818171560746045 21.930890524950353,41.93371131984989 21.569828777750324,42.02758737412202 21.230430735382004,42.08535725367395 20.81882034357327,42.1286846633384 20.479422301204952,42.150348368170114 20.060590674452996,42.14312713322638 19.68508645736447,42.114242193450416 19.33124594510766,42.056472313897984 18.78965332430761,41.90482638007393 18.479140221715255,41.76762291613785 18.219175763730576,41.62319821725753 17.988096245522883,41.47877351837773 17.728131787538203,41.27657893994548 17.23708781134583,40.807198668584824 16.984344588305397,40.49668556599247 16.724380130320718,40.13562381879244 16.53662802177748,39.796225776423604 16.399424557840895,39.48571267383176 16.29110603368027,39.17519957123941 16.211672449296632,38.83580152887109 16.182787509520672,38.51806719133449 16.197229979409165,38.23643902851809 16.25499985896109,37.95481086570221 16.32721220840048,37.74539505232572 16.435530732561105,37.52153676906176 16.57995543144091,37.28323601590931 16.94823841358519,36.84274068432513 17.677583142930526,36.077289780260095 17.930326365969936,35.73789173789178 18.002538715410353,35.579024569123476 18.045866125074806,35.398493695523456 18.045866125074806,35.210741586979196 18.002538715410353,35.02298947843493 17.901441426193973,34.828016134946935 17.764237962258413,34.6619277312349 17.612592028434356,34.510281797410336 17.424839919890093,34.37307833347426 17.04211446785732,34.13477758032232 15.98781416603216,33.62206989929772 15.489548954895541,33.34766297142557 14.96239880398296,32.97937998928129 14.529124707342511,32.57499083241681 14.326930128910782,32.3439113142086 14.160841725198233,32.11283179600039 14.001974556430957,31.852867338015717 13.86477109249437,31.585681645087814 13.70590392372607,31.210177427999287 13.547036754957768,30.776903331358838 13.424275760909675,30.372514174494352 13.352063411470283,30.040337367070283 13.301514766861581,29.635948210205793 13.315957236750075,29.296550167837477 13.388169586189466,28.942709655581176 13.503709345294338,28.610532848156595 13.756452568333746,28.112267637019976 14.081408140814595,27.57789625116366 14.370257538575236,27.209613269019382 14.644664466447384,26.935206341147232 14.95517756903974,26.71856929282701 15.301796846351278,26.581365828890423 15.554540069391711,26.530817184282746 15.735070942991728,26.509153479450518 16.168345039632175,26.5235959493385 16.565512961553445,26.610250768666898 16.991565823249644,26.769117937434686 17.36707004033817,26.95687004597895 18.197512058898862,27.426250317339605 18.652449860371025,27.664551070491544 19.05683901723551,27.837860709147826 19.533440523540417,27.989506642971882 20.060590674452996,28.09060393218826 20.674395644693462,28.126710106907957 21.295421849878174,28.09060393218826 21.930890524950353,27.982285408028147 22.631350314518706,27.772869594651656 23.021297001495725,27.614002425883868 23.389579983640004,27.440692787227587 24.13336718287281,27.02908239541885 25.80869368988268,25.996445798425917 26.292516431130807,25.743702575386 26.81244534709914,25.534286762009508 27.252940678683835,25.411525767961415 27.657329835548325,25.32487094863353 28.148373811740697,25.25987983413736 29.325435107613952,25.15878254492098 29.88147019830249,25.086570195481077 30.48805393359871,24.978251671320965 31.080195199007463,24.83382697244116 31.6506727595845,24.653296098840627 32.24281402499222,24.436659050520404 34.3441933936983,23.51956221263183 35.09520182787535,23.23071281487119 35.896758906660075,22.999633296662985 37.73095258243825,22.58802290485476 38.22921779357487,22.436376971030707 38.64804942032683,22.291952272150386 39.14631463146345,22.08253645877441 39.58680996304814,21.865899410454183 39.96953541508091,21.656483597077695 40.31615469239245,21.432625313813734 40.568897915432885,21.237651970325224 40.74220755408968,21.064342331668943 40.9082959578012,20.83326281346074 41.01661448196183,20.623847000084762 40.98050830724162,20.407209951764536 40.88663225296949,20.168909198612084 40.749428789032905,19.930608445460145 40.58334038532138,19.71397139713992 39.03799610730385,18.089193534738236 37.12436884714204,15.93726552142397 36.68387351555734,15.467885250063313 36.14950212970051,14.976841273870942 35.528475924515796,14.514682237454531 35.0879805929311,14.240275309582383 34.78468872528299,14.074186905870349 34.13477758032232,13.785337508109707 33.78815830300975,13.66979774900586 33.427096555809726,13.568700459789483 32.972158754337556,13.474824405517351 32.48833601308944,13.395390821133713 31.426814476320025,13.294293531917335 30.516938873374674,13.258187357197126 29.773151674141868,13.279851062029353 29.13046176412544,13.344842176525523 28.4661081492773,13.438718230797654 26.668020648219333,13.742010098445764 26.097543087642297,13.814222447885669 25.339313418522025,13.857549857550124 24.76883585794499,13.850328622605877 24.19835829736898,13.792558743053954 23.714535556119827,13.727567628557784 22.73966883867933,13.52537305012554 22.198076217878256,13.373727116301485 21.772023356182054,13.222081182477432 21.461510253589697,13.084877718541357 21.17266085583008,12.926010549773055 20.919917632789648,12.745479676173039 20.69605934952518,12.514400157964834 20.55163465064537,12.326648049420571 20.407209951764536,12.05224112154791 20.313333897492406,11.806719133451724 20.241121548053012,11.445657386251693 20.233900313108766,11.14236551860307 20.26278525288473,10.882401060618903 20.320555132436652,10.622436602634735 20.4360948915405,10.2974810301544 20.623847000084762,9.893091873289912 20.854926518293478,9.49592395136967 21.12211221122138,9.098756029449431 21.367634199317564,8.773800456969093 21.923669290006107,8.138331781896401 22.443598205974443,7.625624100871801 23.90228766466409,6.275253166342265 25.079348960537345,5.062085695749315 25.555950466842248,4.599926659332905 25.85202109954611,4.354404671236205 26.24918902146635,4.065555273476077 26.74745423260297,3.747820935939987 27.260161913628085,3.451750303235612 28.350568390172427,2.9029364474908035 29.375983752221625,2.4552198809623738 30.15587712617464,2.1591492482585117 32.75552170601733,1.2276099404814433 34.59693661673873,0.5271501509125806 35.17463541226001,0.33939804236831755 35.68012185833985,0.2094158133764907 36.1278384248688,0.12276099404809303 36.68387351555734,0.05776987955192305 37.81760740176614,0 39.059659812135564,0 40.28004851767224,0.05054864460818922 41.912047615018686,0.17330963865628224 49.79041493893041,1.0326365969929334 50.866378945587286,1.191503765761235 51.379086626611375,1.2853798200333664 51.97844912696437,1.4153620490257064 52.66446644664525,1.6031141575699694 53.17717412766934,1.7692025612820048 53.75487292319062,2.00028207949021 54.159262080054084,2.2024766579224537 54.70085470085516,2.5202109954585437 55.44464190008796,3.018476206595163 57.27161434092189,4.397732080900661 58.19593241375471,5.054864460805068 58.99748949253944,5.6036783165498765 59.92902880031651,6.1741558771264 61.683788891710016,7.185128769287105 62.77419536825539,7.777270034695856 63.28690304927947,8.001128317960328 63.56130997715162,8.087783137288211 63.83571690502377,8.138331781896401 63.871823079743976,8.131110546952154 63.92237172435268,8.087783137288211 64.04513271840078,7.84948238413576 64.13178753772866,7.589517926151593 64.24732729683251,7.033482835463051 64.35564582099313,6.657978618374525 64.47840681504123,6.325801810950454 64.64449521875275,6.0152887083580975 64.86835350201721,5.711996840709989 65.10665425516916,5.480917322501783 65.36661871315384,5.314828918789235 65.64102564102598,5.206510394629123 65.85044145440196,5.1631829849651805 66.1176271473309,5.155961750021446 66.32704296070686,5.184846689797408 66.55812247891456,5.249837804293578 66.91918422611562,5.408704973061367 67.73518377478781,5.870864009477777 68.190121576261,6.101943527685982 68.65950184762063,6.282474401286511 69.08555470931786,6.390792925446624 69.48994386618234,6.412456630278339 69.72102338439004,6.390792925446624 69.95210290259875,6.347465515782682 70.36371329440647,6.195819581958114 70.68144763194307,6.0152887083580975 70.919748385095,5.8130941299258545 71.11472172858352,5.582014611717649 71.26636766240757,5.307607683845501 71.35302248173547,5.047643225861334 71.41079236128738,4.7515725931569595 71.42523483117587,4.469944430340565 71.38190742151141,3.5384051225634963 71.39634989139991,3.1123522608672944 71.43245606612012,2.8379453329951465 71.49744718061629,2.6068658147869415 71.56965953005569,2.440777411074393 71.67797805421631,2.238582832642149 71.8007390482644,2.06527319398638 72.01015486164037,1.8486361456661555 72.21957067501636,1.6681052720656264 72.58785365716064,1.4225832839694403 73.02834898874534,1.1698400609295203 73.39663197088962,0.9893091873289912 73.77213618797813,0.8304420185606897 74.20541028461858,0.6643536148486544 74.63146314631479,0.5415926208005614 75.00696736340332,0.4621590364164106 75.36802911060335,0.4188316267524683 75.74353332769188,0.40438915686448756 76.12625877972465,0.42605286169671525 76.5595328763651,0.47660150630439135 77.0216919127815,0.5704775605765229 77.38997489492579,0.6715748497929013 77.80880652167774,0.815999548672709 78.14820456404605,0.9604242475530297 78.5814786606865,1.1842825308175011 78.89199176327887,1.372034639361251 79.52023920340783,1.8341936757781747 80.27124763758488,2.498547290626829 80.72618543905703,2.9679275619869734 81.1089108910898,3.451750303235612 81.24611435502537,3.6683873515558365 81.39053905390621,3.9716792192039456 81.57106992750622,4.469944430340565 81.64328227694561,4.8021212377651485 81.71549462638603,5.242616569349331 82.00434402414668,8.073340667400231 82.17043242785819,9.358720487433597 82.27152971707457,9.871428168458197 82.4015119460669,10.369693379594302 82.56760034977945,10.853516120842942 82.74090998843523,11.243462807819448 83.08030803080355,11.813940368395972 83.40526360328337,12.225550760204193 83.80243152520464,12.622718682124946 84.8422893571413,13.51093058023756 85.33333333333367,13.980310851598217 85.73050125525391,14.43524865307038 86.30097881583096,15.215142027023393 86.52483709909542,15.489548954895541 86.69814673775119,15.641194888719596 86.8931200812397,15.771177117711936 87.06642971989547,15.865053171984068 87.25418182843974,15.944486756368219 87.29750923810418,16.254999858960574 87.31195170799165,16.522185551888477 87.24696059349549,17.10710558235298 87.21085441877528,17.244309046289565 87.08087218978396,17.497052269329487 87.02310231023101,17.64869820315354 86.94366872584737,18.11085723956995 86.79202279202332,18.717440974866683 86.71258920763866,18.970184197907116 86.56816450875885,19.273476065555226 86.2576514061665,19.79340498152407 86.12044794223094,20.197794138388044 85.99046571323859,20.67439564469295 85.93269583368668,20.761050464020833 85.7449437251424,20.97768751234106 85.52830667682218,21.425404078869487 85.44887309243752,21.64926236213396 85.3911032128856,22.01754534427824 85.32611209838943,22.198076217878256 85.23945727906154,22.342500916758578 85.00115652590961,22.645792784406684 84.84951059208555,22.9129784773351 84.79896194747685,23.0718456461034 84.77729824264513,23.288482694423113 83.98296239880464,23.37513751375151 83.36193619361994,23.396801218583224 82.8059011029314,23.476234802967376 82.2209810724669,23.483456037911623 81.53496375278601,23.591774562071734 80.99337113198494,23.736199260952056 80.84172519816089,23.750641730840037 80.51676962568106,23.743420495895787 80.17737158331275,23.80119037544771 79.85963724577614,23.90228766466409 79.56356661307228,24.068376068376125 79.27471721531164,24.28501311669635 78.92087670305483,24.617189924120932 78.52370878113459,24.321119291416558 78.27096555809517,24.176694592536236 78.04710727483071,24.068376068376125 77.6210544131345,23.909508899607825 76.22013483399678,23.45457109813566 75.76519703252461,23.266818989591396 75.31025923105142,23.057403176214905 74.50148091732245,22.609686609686477 73.3605257961694,21.8875631152859 72.9850215790819,21.692589771797902 72.6528447716568,21.56982877774981 72.31344672928849,21.497616428309392 71.89461510253653,21.461510253589697 71.67075681927206,21.48317395842141 71.33135877690374,21.555386307861827 70.99918196947968,21.67814730190992 70.76088121632671,21.815350765845995 70.52258046317476,22.01754534427824 70.3348283546305,22.241403627542198 70.16873995091899,22.54469549519082 70.0676426617026,22.90575724239085 70.03875772192664,23.29570392936736 70.0676426617026,23.606217031959716 70.14707624608624,23.938393839383785 70.30594341485454,24.386110405912216 70.78254492115946,25.41874700290566 70.96307579475946,25.873684804377824 71.07139431891906,26.256410256410085 71.10027925869502,26.60302953372265 71.0425093791431,26.899100166427026 70.919748385095,27.159064624411194 70.75365998138349,27.361259202843435 70.30594341485454,27.845081944092072 70.21206736058241,27.967842938140166 70.11819130631028,28.133931341852204 70.07486389664685,28.242249866012315 70.0459789568709,28.415559504668597 70.0459789568709,28.53832049871669 70.08930636653432,28.733293842204688 70.19762489069494,28.993258300188852 70.32760711968626,29.195452878621097 70.48647428845456,29.397647457053342 70.70311133677478,29.62150574031781 71.2158190177999,30.05477983695826 72.73227835604148,31.087416433951194 73.36774703111365,31.585681645087814 73.77213618797813,31.93952215734411 74.13319793517817,32.30058390454415 74.43648980282731,32.66164565174469 74.65312685114753,32.972158754337045 74.88420636935523,33.39821161603325 74.99974612845907,33.71594595356985 75.07195847789949,34.08422893571413 75.08640094778798,34.37307833347426 75.04307353812352,34.719697610786824 74.95641871879563,35.00132577360322 74.7903303150831,35.326281346083555 74.57369326676286,35.600688273955704 74.3859411582186,35.77399791261198 74.17652534484263,35.92564384643604 73.89489718202623,36.077289780260095 73.63493272404155,36.17838706947647 73.33164085639343,36.265041888804355 73.10056133818576,36.3083692984683 72.80449070548086,36.33003300330053 72.46509266311254,36.32281176835628 72.13291585568847,36.28670559363658 71.80796028320864,36.22171447914042 71.42523483117587,36.12061718992403 70.92696962003926,35.968971256099984 70.13985501114303,35.68734309328359 69.6415898000064,35.49236974979559 68.94835124538128,35.160192942371005 68.580068263237,34.9291134241628 68.30566133536485,34.70525514089884 68.08902428704462,34.459733152802656 67.89405094355611,34.15644128515403 67.74240500973205,33.817043242785715 67.64130772051568,33.49930890524963 67.38856449747627,32.39445995881628 67.28024597331564,32.026176976672 67.17192744915604,31.7445488138556 67.01306028038775,31.477363120927702 66.78198076217903,31.22461989788727 66.62311359341072,31.101858903839176 66.45702518969921,31.00076161462331 66.14651208710684,30.8924430904632 65.96598121350684,30.863558150686725 65.7854503399058,30.863558150686725 65.48937970720193,30.914106795294913 65.25107895404999,31.015204084511293 65.02722067078552,31.166850018335346 64.81780485740954,31.36904459676759 64.63005274886528,31.62178781980751 64.48562804998444,31.867309807903695 63.980141603904606,33.05881357366493 63.85738060985651,33.282671856929404 63.65518603142375,33.57152125468953 63.3952215734401,33.87481312233815 63.01971735635158,34.221432399650205 61.849877295422566,35.13130800259504 61.47437307833404,35.47792727990761 61.30106343967724,35.672900623395606 61.149417505853194,35.88231643677209 60.62948858988486,36.77052833488471 60.49950636089252,36.96550167837322 60.304533017405035,37.19658119658143 60.03734732447611,37.44210318467761 59.71961298694053,37.66596146794157 59.42354235423564,37.82482863670987 59.01915319737115,37.976474570533924 58.66531268511537,38.063129389862326 58.224817353530675,38.12812050435798 57.748215847225765,38.16422667907819 56.31119009336886,38.20755408874213 55.92124340639184,38.25810273335032 55.560181659191805,38.33753631773447 55.19911991199178,38.467518546726296 54.8308369298475,38.64082818538258 54.46977518264644,38.857465233702804 53.408253645878055,39.536261318439436 53.112183013173166,39.702349722151986 52.71501509125293,39.890101830695734 52.37561704888461,40.01286282474383 51.97844912696437,40.09951764407223 51.65349355448455,40.12840258384819 51.328537982003695,40.11396011396021 50.88082141547578,40.02008405968808 50.49087472849876,39.87565936080776 50.137034216242974,39.67346478237551 49.81207864376212,39.42072155933559 49.57377789061019,39.17519957123941 49.40768948689764,38.97300499280716 48.656681052720586,37.86093481143008 48.367831654960966,37.48543059434155 47.93455755832052,37.037714027813124 47.38574370257623,36.611661166116924Z"/>
    <path d="M236.25714366308463,139.7886660460916 236.47378071140486,140.95850610702064 236.66875405489233,141.7528419508616 236.7842938139972,142.1211249330059 236.9070548080453,142.4388592705425 237.16701926602897,142.9732306563988 237.42698372401364,143.40650475303926 237.67250571210982,143.75312403035184 238.14910721841474,144.32360159092835 238.40185044145414,144.57634481396826 238.68347860427053,144.82908803700872 239.63668161687932,145.54399029646555 239.98330089419187,145.82561845928194 240.31547770161697,146.15779526670602 240.5393359848804,146.4538658994104 240.75597303320063,146.82937011649892 240.82818538264107,147.00990099009894 240.89317649713723,147.2482017432514 240.94372514174492,147.63814843022737 240.95094637668916,148.42526303912413 240.98705255140936,148.63467885250063 241.03037996107278,148.77910355138042 241.13869848523342,148.97407689486894 241.29034441905748,149.1473865335252 241.44199035288153,149.2701475275733 241.64418493131427,149.38568728667715 241.81749456997005,149.45067840117332 242.03413161829027,149.5156695156695 242.46740571493072,149.55899692533345 242.92956475134713,149.53011198555748 243.4206087275395,149.42901469634108 243.8466615892357,149.29903246734926 244.25827198104446,149.1473865335252 246.25855406053415,148.23751093058038 246.7784829765025,148.03531635214813 247.2261995430314,147.87644918337983 247.84000451327188,147.70313954472354 249.27703026712982,147.3565202674115 250.87292318975503,146.85825505627488 251.3639671659474,146.7571577670585 251.90555978674848,146.6993878875066 252.21607288934084,146.69216665256283 252.58435587148512,146.71383035739456 253.22704578150154,146.8077064116667 253.86973569151797,146.9882372852667 254.4474344870382,147.2337592733629 254.96014216806333,147.52260867112352 255.21288539110375,147.70313954472354 255.42230120447974,147.88367041832356 255.58838960819128,148.05698005697985 255.76892048179232,148.2952808101323 255.86279653606445,148.46859044878858 255.94223012044807,148.6635637922766 255.98555753011254,148.85131590082085 256,149.04628924430884 255.97111506022404,149.30625370229302 255.92056641561635,149.49400581083728 255.8411328312317,149.6962003892695 255.68948689740765,149.9417223773657 255.54506219852783,150.12225325096622 255.3428676200951,150.32444782939848 255.01791204761525,150.58441228738263 254.60630165580653,150.85881921525478 253.2559307212775,151.6242701193193 252.75766551014087,151.93478322191166 252.32439141350042,152.23085385461604 251.9633296663004,152.51970325237616 251.56616174438017,152.88798623452095 251.1689938224589,153.2995966263292 250.11469352063475,154.60664015119426 249.71030436377026,155.06157795266694 249.27703026712982,155.48763081436314 248.8654198753211,155.81258638684346 248.46103071845658,156.07977207977189 248.0205353868719,156.2964091280921 247.53671264562377,156.47694000169213 246.6412795125669,156.72968322473255 246.28743900031012,156.85244421878065 245.90471354827835,157.03297509238067 245.5436518010773,157.27849708047736 245.3631209274773,157.43736424924515 245.1681475839898,157.64678006262164 244.86485571634066,158.05839045442988 244.7132097825166,158.34001861724627 244.5904487884685,158.59998307523043 244.48935149925316,158.87439000310258 244.38103297509255,159.23545175030313 244.3015993907089,159.62539843727964 244.2293870412685,160.08755747369605 244.11384728216464,161.6762291613775 244.01274999294827,162.62221093904256 243.8827677639559,163.4959803672672 243.73834306507612,164.21088262672404 243.5433697215876,164.93300612112463 243.34117514315588,165.5684747961973 243.12453809483566,166.13173112183011 242.62627288369902,167.33045612253508 242.44574201009902,167.8142788637837 242.30131731121818,168.2764379002001 242.20022002200284,168.71693323178482 242.12078643761816,169.34518067191325 242.01246791345855,170.93385235959474 242.01246791345855,171.41045386589914 242.07023779301048,171.8653916673718 242.17133508222585,172.24811711940407 242.30853854616242,172.56585145694066 242.52517559448265,172.93413443908494 242.77069758257883,173.2446475416773 242.98011339595482,173.45406335505328 243.225635384051,173.67792163831774 244.14995345688382,174.3783814278861 244.50379396914065,174.68167329553472 244.75653719218107,174.93441651857464 245.37756339736578,175.6348763081435 245.65919156018217,175.9165044709599 246.02747454232644,176.1836901638878 246.38131505458225,176.38588474232006 246.73515556683904,176.54475191108835 247.87611068799208,177.00691094750476 248.20828749541616,177.15855688132882 248.37437589912872,177.25243293560095 248.4754731883451,177.34630898987308 248.5188005980085,177.4257425742572 248.5188005980085,177.46906998392117 248.4393670136249,177.5485035683053 248.3021635496883,177.60627344785723 247.9122168627123,177.66404332740967 247.35618177202375,177.6857070322414 245.68807649995813,177.6857070322414 241.16036219006514,177.5629460381933 238.79179712843114,177.5268398634736 222.414036275423,177.4907336887534 221.8796648895662,177.46906998392117 221.5474880821421,177.4401850441452 221.18642633494105,177.36797269470532 220.9625680516776,177.2957603452654 220.78203717807656,177.209105525937 220.6231700093093,177.07912329694517 220.52929395503716,176.9419198330086 220.4859665453727,176.81193760401678 220.47874531042845,176.60252179064028 220.51485148514865,176.41476968209653 220.5870638345891,176.20535386872004 220.73148853346888,175.8803982962397 221.17920509999783,175.09328368734296 221.5330456122536,174.5155848918222 221.92299229923063,173.93066486135768 222.3779301007028,173.30241742122922 222.89063778172687,172.68139121604452 223.36001805308754,172.16146230007618 224.82592874672144,170.68833037149855 225.1364418493138,170.31282615441003 225.3386364277455,170.00953428676192 225.4758398916821,169.7423485938335 225.57693718089746,169.50404784068155 225.64192829539363,169.27296832247336 225.69247694000234,169.02744633437666 225.7213618797783,168.57972976784822 225.69969817494555,167.82150009872745 225.69969817494555,167.55431440579954 225.74302558461,167.25102253815092 225.82968040393789,166.97661561027877 225.9741051028177,166.68776621251865 226.1690784463062,166.40613804970226 226.44348537417835,166.08118247722192 227.05729034441882,165.42405009731752 227.36058221206795,165.04132464528473 227.48334320611605,164.83913006685248 227.56999802544394,164.65137795830873 227.6349891399401,164.46362584976447 227.66387407971607,164.26865250627597 227.65665284477183,163.96536063862786 227.5627767904997,163.68373247581147 227.4039096217314,163.44543172265952 227.1800513384669,163.2287946743393 226.93452935037072,163.069927505571 226.62401624777837,162.9110603368027 225.2808665481936,162.40557389072234 224.68872528278484,162.1311669628502 224.42153958985693,161.96507855913765 224.17601760176075,161.7628839807054 223.95215931849629,161.5318044624972 223.80051338467223,161.31516741417698 223.64886745084817,161.01187554652887 223.56943386646353,160.69414120899276 223.5333276917433,160.3980705762884 223.5116639869116,159.57484979267144 223.4755578121914,159.33654903951899 223.41778793263947,159.09824828636704 223.2444782939837,158.63608924995063 222.67400073340664,157.4662491890211 222.55846097430282,157.15573608642927 222.48624862486238,156.88855039350088 222.44292121519896,156.6285859355167 222.42847874531046,156.3469577727003 222.45014245014218,156.06532960988392 222.50791232969513,155.80536515189974 222.60900961891048,155.51651575413962 222.803982962399,155.11212659727514 222.97007136611154,154.8449409043467 223.2805844687039,154.4188880426505 224.62373416828868,152.78688894530458 224.95591097571275,152.42582719810454 225.65637076528213,151.72536740853567 225.95244139798598,151.3931906011111 226.14019350653024,151.15488984795917 226.27739697046684,150.9165890948067 226.38571549462642,150.67828834165476 226.4507066091226,150.4183238836701 226.48681278384282,150.16558066063018 226.48681278384282,149.87673126286953 226.47237031395431,149.65287297960558 226.40015796451493,149.27736876251706 226.08964486192258,148.17974105102795 225.98854757270618,147.6598121350596 225.9741051028177,147.39984767707543 225.99576880765045,147.16876815886724 226.0246537474264,146.99545852021095 226.0968660968658,146.77160023694648 226.2051846210264,146.54052071873826 226.38571549462642,146.2588925559224 227.3533609771237,145.0962737299371 227.5627767904997,144.80020309723275 227.77941383881992,144.4391413500322 227.95994471241994,144.09252207272016 228.11881188118824,143.7170178556316 228.45820992355655,142.6338326140305 228.58097091760465,142.30887704155018 228.74705932131718,141.95503652929386 228.89870525514124,141.6950720713097 229.10812106851722,141.43510761332553 229.33920058672595,141.21124933006107 229.71470480381345,140.92962116724468 230.36461594877412,140.50356830554847 230.57403176215112,140.34470113678017 230.8051112803588,140.1352853234042 230.98564215395882,139.89698457025173 231.12284561789542,139.63702011226758 231.20227920227904,139.3914981241714 231.18061549744735,139.0593213167468 231.07951820823095,138.73436574426646 230.9639784491271,138.53939240077847 230.7834475755271,138.32275535245824 230.14075766551068,137.68006544244182 229.84468703280578,137.34788863501723 229.59194380976535,137.01571182759315 229.02868748413357,136.2285972186959 228.67484697187678,135.8242080618319 228.4293249837806,135.61479224845544 228.1693605257959,135.47036754957563 227.8805111280363,135.36927026035926 227.5844404953314,135.31872161575106 227.32447603734775,135.31872161575106 227.07173281430732,135.3403853205833 226.78288341654667,135.40537643507946 226.53014019350624,135.4848100194636 226.27739697046684,135.58590730867948 225.99576880765045,135.73033200755978 225.53360977123404,136.0336238752079 225.2808665481936,136.25026092352812 225.07145073481763,136.45245550196037 224.65261910806464,136.92905700826475 224.30599983075209,137.4273222194014 223.583876336352,138.58994104538664 223.37446052297602,138.87879044314678 223.18670841443176,139.095427491467 222.93396519139134,139.31928577473147 222.73177061295857,139.4492680037233 222.58734591407878,139.5214803531632 222.28405404643067,139.62257764237958 221.9157710642864,139.68756875687575 220.31265690671694,139.75978110631567 219.87216157513222,139.81032975092384 218.57956052015513,139.99086062452386 217.67690615215403,140.05585173902003 217.07754365180102,140.05585173902003 216.34097768751246,140.01974556429982 215.74883642210372,139.9619756847479 215.13503145186326,139.86809963047577 214.3840230176862,139.72367493159544 211.90713943189263,139.1676398409069 211.17057346760305,138.95822402753092 210.39068009365104,138.69825956954676 209.6252291895855,138.38052523201017 208.98976051451334,138.06279089447406 208.71535358664119,137.8894812558178 208.469831598545,137.70895038221778 208.2459733152805,137.51397703872925 208.03655750190455,137.29733999040903 207.7477081041439,136.90739330343305 207.55995599559964,136.52466785140027 207.45163747144005,136.12027869453578 207.40831006177558,135.70866830272757 207.43719500155154,135.2176243265352 207.53107105582367,134.67603170573463 207.7838142788641,133.57118275930128 207.96434515246412,132.94293531917285 208.14487602606414,132.4230064032045 208.70091111675268,131.01486558912305 209.24250373755376,129.40453019660933 209.4952469605942,128.80516769625686 209.75521141857786,128.27801754534428 210.07294575611445,127.74364615948744 211.29333446165114,125.91667371865402 211.7266085582916,125.18732898930921 212.02267919099648,124.59518772390045 212.28264364898013,124.02471016332393 212.49928069730035,123.46867507263539 212.63648416123692,123.0281797410512 212.73036021550908,122.57324193957852 212.76646639022928,122.14718907788233 212.7736876251725,121.66336633663369 212.73758145045332,121.2589771797692 212.66536910101289,120.7968181433528 212.57149304674076,120.41409269132053 212.43428958280418,120.038588474232 212.24653747426095,119.65586302219974 212.08767030549265,119.38867732927133 211.90713943189263,119.17204028095111 211.61106879918773,118.88319088319098 211.33666187131558,118.68821753970246 211.11280358805112,118.55101407576639 210.7734055456828,118.38492567205437 209.82020253307402,117.99497898507785 209.36526473160185,117.78556317170188 208.90310569518545,117.51115624382922 208.47705283348822,117.20064314123736 208.09432738145648,116.83958139403683 207.39386759188812,116.0741304899718 207.01114213985534,115.69140503793953 206.5778680432149,115.30867958590727 205.41524921723013,114.31937039857829 204.69312572282905,113.65501678372962 204.05765704775584,112.99066316888097 203.45829454740388,112.2685396744804 203.15500267975577,111.85692928267166 202.8661532819951,111.42365518603121 202.59896758906723,110.98315985444702 202.34622436602677,110.52100081803061 201.92017150433057,109.62556768497376 201.1619418352093,107.8274801839158 200.8081013229535,107.0331443400748 200.50480945530435,106.44100307466655 200.17985388282455,105.94995909847367 199.8693407802322,105.57445488138566 199.024456291783,104.64291557360859 198.10735945389442,103.58861527178344 197.58020930298184,103.03258018109489 196.9014132182452,102.41877521085442 195.62325463315557,101.40780231869321 195.30552029562,101.11895292093308 195.0094496629151,100.81566105328497 194.61950297593913,100.36072325181229 194.13568023468997,99.75413951651556 193.62297255366587,99.06090096189095 193.20414092691394,98.45431722659421 192.0487433358724,96.65622972553676 191.72378776339153,96.07130969507226 191.4854870102396,95.54415954415968 189.8029392682865,91.52915291529128 189.4346562861412,90.74925954133877 189.06637330399693,90.04157851682618 188.38035598431705,88.87173845589666 187.62934755014,87.72356209979988 186.84945417618698,86.64037685819876 186.5317198386504,86.25043017122225 186.1562156215629,85.82437730952604 185.44131336210606,85.11669628501294 183.97540266847216,83.81687399509158 182.34340357112674,82.22820230741011 181.91735070943054,81.85269809032211 181.44074920312562,81.47719387323357 178.65335251473866,79.54912414318379 177.3318665199856,78.66091224507066 172.515302812333,75.62799356858751 171.3671264562357,74.89864883924268 170.95551606442697,74.60979944148256 170.52224196778653,74.27762263405849 170.24783503991438,74.03932188090604 169.98064934698647,73.75769371808964 169.81456094327393,73.54827790471367 169.71346365405753,73.38218950100163 169.56181772023348,73.0427914586328 169.4896053707941,72.68172971143277 169.4968266057373,72.27734055456828 169.59070266000944,71.8585089278158 169.7784547685537,71.40357112634365 170.04564046148263,70.96307579475895 170.2406138049701,70.71033257171852 170.40670220868267,70.53702293306274 170.7099940763308,70.30594341485454 171.02050717892314,70.15429748102997 171.38879016106742,70.07486389664633 171.74985190826848,70.06042142675784 172.0892499506368,70.08208513159008 172.6380638063811,70.1759611858622 173.98121350596585,70.44314687879061 174.65278835575927,70.62367775239063 175.23770838622377,70.83309356576662 175.7359735973604,71.07861555386332 176.20535386872004,71.38912865645516 177.02135341739324,71.98849115680815 177.2957603452654,72.16902203040817 177.72903444190584,72.40732278356062 178.19119347832225,72.6167385969366 179.86651998533213,73.2883134467295 180.29257284702834,73.48328679021749 180.761953118389,73.72880877831368 181.07246622098134,73.9093396519137 181.4912978477333,74.19096781473009 182.83444754731912,75.26693182138749 184.02595131307982,76.1045950748919 184.48811034949625,76.46565682209246 185.03692420524155,76.94947956334109 186.2861978505542,78.16986826887829 186.64003836281103,78.4587176666384 186.92166652562742,78.64646977518268 187.34049815237935,78.87754929339089 187.78099348396407,79.06530140193514 189.96180643705378,79.85963724577563 190.61171758201445,80.12682293870404 191.1821951425915,80.37956616174448 191.81766381766366,80.69007926433683 192.48923866745707,81.06558348142484 192.96584017376097,81.36165411412922 193.65907872838608,81.82381315054563 194.31621110829101,82.31485712673852 194.886688668867,82.79145863304291 196.74976728442115,84.48122760994025 198.25178415277423,85.70161631547744 199.024456291783,86.41651857493429 199.96321683450432,87.3552791176556 200.5770218047448,88.05573890722395 201.63854334151418,89.4638797213054 202.99613551098744,91.00922399932294 203.31386984852304,91.43527686101966 203.5377281317875,91.76745366844372 203.87712617415582,92.33793122902026 204.16597557191648,92.87952384982081 205.36470057262144,95.36362867055915 205.9568418380302,96.48292008688048 206.71507150715047,97.80440608163354 207.1266818989592,98.4326535217625 207.4227525316641,98.85148514851497 207.77659304391986,99.2992017150434 208.18098220078434,99.74691828157182 210.07294575611445,101.60999689712546 211.5677413895233,103.18422611491894 212.03712166088394,103.71137626583153 212.49928069730035,104.31796000112826 212.73758145045332,104.69346421821679 212.9469972638293,105.09063214013702 213.14919184226102,105.55279117655344 213.61135087867743,106.70818876759446 213.80632422216596,107.14146286423491 214.03018250543042,107.53863078615566 214.3840230176862,108.058559702124 214.76674846971898,108.51349750359668 214.9833855180392,108.7301345519169 215.31556232546328,109.01176271473278 215.8499337113201,109.3872669318213 216.81757919381738,109.99385066711804 217.25807452540104,110.31158500465413 217.6407999774338,110.67264675185467 217.82133085103382,110.89650503511864 218.0307466644098,111.17813319793503 218.21127753801085,111.4742038306394 218.37736594172236,111.79915940311975 218.5217906406032,112.13855744548806 218.63733039970705,112.4635130179684 218.74564892386664,112.9256720543848 218.88285238780324,113.81388395249793 219.02727708668306,114.5865560915067 219.30890524949945,115.72751121265973 219.51832106287543,116.42074976728436 219.77106428591586,117.15731573157292 220.05269244873224,117.87943922597401 220.3632055513246,118.59434148543033 220.69538235874867,119.30202250994344 221.0492228710055,119.99526106456807 221.39584214831805,120.60184479986479 221.89410735945364,121.43228681842548 222.32016022115087,122.08219796338615 222.77509802262304,122.72488787340258 223.30946940847986,123.43256889791517 223.80051338467223,124.03915263321191 224.73205269244932,125.08623170009282 225.27364531324935,125.64226679078136 225.88022904854557,126.21274435135788 226.4651490790111,126.72545203238249 226.9778567600352,127.14428365913496 227.512228145892,127.53423034611147 228.05382076669207,127.89529209331201 228.38599757411612,128.09748667174426 228.8409353755893,128.33578742489618 230.24185495472602,128.96403486502464 231.24560661194351,129.4839637809935 231.77997799780033,129.74392823897765 234.26408281853816,130.848777185411 235.91052438577208,131.49146709542742 236.56043553073275,131.7875377281318 237.08758568164532,132.09805083072416 237.5064173083973,132.40134269837228 237.94691263998197,132.80573185523676 238.27186821246283,133.19567854221327 238.4596203210071,133.52785534963735 238.56071761022244,133.85281092211767 238.5823813150552,134.01167809088597 238.56793884516668,134.21387266931822 238.4812840258388,134.5099433020226 238.37296550167818,134.71213788045483 238.18521339313392,134.95765986855102 237.25367408535786,135.9108628811598 236.8709486333251,136.3874643874642 236.69763899466932,136.64020761050463 236.53155059095678,136.93627824320902 236.40156836196445,137.21068517108117 236.2860286028606,137.52841950861725 236.20659501847592,137.86781755098556 236.17048884375674,138.0700121294178 236.14160390398078,138.5971622803304 236.1632676088125,139.05210008180308 236.25714366308463,139.7886660460916Z"/>
    <path d="M101.10451045104561,55.75515500267981 101.32114749936584,56.181207864376006 101.4583509633014,56.491720966968366 101.65332430678991,57.0983047022651 101.78330653578224,57.74099461228152 101.91328876477459,58.7086400947788 102.03604975882268,59.90736509548377 102.0577134636544,60.355081662012196 102.05049222871014,60.76669205382093 102.02882852387843,61.0627626865253 101.97827987927076,61.39493949394938 101.89162505994184,61.70545259654173 101.78330653578224,61.98708075935813 101.55944825251777,62.39146991622262 101.26337761981391,62.752531663422644 100.83010352317346,63.1496995853434 100.41127189642049,63.46743392287949 99.68914840202042,63.9295929592959 97.71775126230565,65.09943302022491 97.12560999689794,65.40994612281726 96.54791120137665,65.6626893458577 95.96299117091215,65.87932639417792 95.28419508617552,66.08152097261016 94.65594764604656,66.211503201602 94.15046119996671,66.27649431609817 93.57276240444645,66.29093678598615 92.32348875913279,66.18983949677028 91.70246255394807,66.1753970268823 91.24030351753166,66.20428196665826 89.85382640828243,66.3342641956506 88.97283574511303,66.36314913542655 88.2940396603764,66.3342641956506 87.47081887675996,66.23316690643422 86.56816450875885,66.05985726777794 85.01559899579708,65.71323799046588 84.45956390510852,65.54714958675333 83.93241375419595,65.3449550083216 83.63634312149209,65.20053030944129 83.35471495867569,65.03444190572925 82.86367098248333,64.68782262841668 82.39429071112266,64.27621223660847 81.65050351188985,63.56130997715162 81.29666299963408,63.28690304927947 81.05836224648111,63.156920820287134 80.84172519816089,63.08470847084723 80.62508814984066,63.05582353107127 80.39400863163297,63.063044766015004 80.15570787848102,63.120814645566924 79.9390708301608,63.207469464895325 79.74409748667229,63.33023045894342 79.54912414318379,63.48187639276747 79.38303573947226,63.65518603142375 79.20972610081546,63.88626554963196 79.07252263687991,64.13178753772814 78.96420411271927,64.38453076076858 78.8775492933914,64.70226509830466 78.84144311867118,64.97667202617681 78.81977941383947,65.26552142393746 78.82700064878372,65.5399283518096 78.90643423316736,66.19706073171402 79.13751375137505,67.28746720825939 79.23861104059142,67.92293588333207 79.26749598036739,68.41397985952445 79.23861104059142,68.83281148627691 79.17361992609526,69.09277594426108 79.10140757665586,69.29497052269332 78.99308905249524,69.48994386618132 78.85588558855969,69.68491720966983 78.68979718484714,69.85822684832611 78.51648754619136,70.00987278215017 78.27096555809517,70.16873995091795 78.00377986516625,70.30594341485454 77.5705057685258,70.46481058362234 77.18778031649406,70.54424416800649 76.79783362951703,70.57312910778245 76.3862232377083,70.54424416800649 76.07571013511696,70.47203181856658 75.79408197230057,70.35649205946223 75.51967504442842,70.20484612563817 74.92753377901968,69.81489943866166 74.71811796564268,69.70658091450154 74.52314462215519,69.6271473301174 74.2631801641705,69.56215621562174 73.98155200135412,69.52605004090154 73.71436630842621,69.52605004090154 73.38941073594536,69.55493498067749 73.11500380807321,69.60548362528569 72.8261544103136,69.69213844461356 72.53008377760871,69.80767820371793 72.25567684973656,69.93766043270975 71.74296916871248,70.23373106541413 70.37815576429496,71.10750049363928 70.0315364869824,71.30247383712727 69.69935967955833,71.4685622408393 69.30219175763808,71.62020817466387 68.9339087754938,71.72130546387974 68.53674085357254,71.78629657837591 68.22622775098019,71.80073904826389 67.80017488928398,71.76463287354368 67.28024597331564,71.65631434938356 66.78198076217903,71.49022594567153 66.11040591238664,71.19415531296715 65.5904769964183,70.89808468026278 65.26552142393746,70.6525626921666 65.10665425516916,70.4936955233983 64.98389326112107,70.34927082451848 64.86835350201721,70.16151871597422 64.81058362246529,70.03153648698188 64.75281374291337,69.82934190854964 64.73837127302488,69.60548362528569 64.76003497785761,69.35274040224525 64.82502609235276,69.150545823813 64.91890214662489,68.94835124538076 65.07054808044997,68.71005049222882 65.20053030944129,68.55118332346052 65.44605229753748,68.31288257030859 65.85766268934621,68.00236946771622 66.4064765450905,67.67019266029165 68.86169642605338,66.38481284025828 69.4321739866294,66.05985726777794 69.90877549293431,65.76378663507356 70.41426193901518,65.38828241798555 70.78254492115946,65.05610561056096 71.07139431891906,64.70948633324892 71.20137654791141,64.50007051987242 71.27358889735181,64.34842458604837 71.338580011848,64.15345124256038 71.3602437166797,64.02346901356803 71.35302248173547,63.75628332063962 71.28081013229607,63.503540097599696 71.13638543341523,63.25801810950351 70.94863332487097,63.03415982623904 70.69589010183157,62.81752277791882 70.41426193901518,62.62254943443082 69.40328904685344,61.994301994301864 69.07111223942937,61.734337536317696 68.80392654650147,61.48159431327726 68.55118332346103,61.15663874079744 68.38509491974848,60.8316831683171 68.29121886547635,60.47784265606029 68.26233392570039,60.10955967391601 68.3128825703091,59.53908211333949 68.45008603424465,58.795294914106684 68.6017319680687,58.28258723308208 68.78226284166873,57.856534371385884 69.0061211249332,57.47380891935362 69.29497052269384,57.09108346732136 69.67047473978236,56.665030605624644 70.55146540295073,55.740712532791825 70.80420862599117,55.43742066514371 70.99196073453543,55.18467744210328 71.17971284307968,54.859721869622945 71.29525260218354,54.585314941750795 71.35302248173547,54.31812924882239 71.3746861865682,53.97150997150982 71.33135877690374,53.78375786296607 71.22304025274312,53.54545710981362 71.09305802375181,53.33604129643712 70.95585455981522,53.17717412766934 70.75365998138349,52.99664325406881 70.4575893486786,52.780006205748585 69.82934190855066,52.411723223604305 68.89058136582935,51.971227892020124 66.78920199712327,51.07579475896326 65.98764491833855,50.794166596146866 64.8466897971855,50.49087472849876 64.39175199571231,50.34645002961844 63.95847789907289,50.165919156018425 63.60463738681608,49.949282107698195 63.40244280838332,49.76875123409767 63.24357563961605,49.55933542072169 63.142478350399664,49.3499196073452 63.084708470847744,49.09717638430528 63.0774872359035,48.82276945643262 63.120814645567954,48.54114129361674 63.229133169727554,48.20896448619215 63.38800033849585,47.92011508843203 63.57575244704012,47.631265690671896 63.77072579052862,47.37852246763146 64.18955741728058,46.90914219627081 64.47840681504123,46.6058503286227 64.70948633324892,46.40365575019045 64.98389326112107,46.18701870187023 65.2366364841615,46.028151533101926 65.48937970720193,45.90539053905383 65.94431750867409,45.76096584017403 66.46424642464243,45.67431102084563 67.04194522016371,45.63098361118169 68.22622775098019,45.61654114129371 68.89058136582935,45.551550026797536 69.19387323347746,45.493780147245616 69.46105892640536,45.41434656286146 69.69935967955833,45.32047050858933 69.9232179628228,45.19770951454124 70.1904036557507,44.995514936109 70.42148317395839,44.74999294801281 70.6164565174469,44.4467010803647 70.92696962003926,43.840117345067966 71.11472172858352,43.51516177258763 71.34580124679223,43.21186990493901 71.56965953005569,42.97356915178707 71.89461510253653,42.699162223914925 72.27734055456828,42.44641900087449 72.71061465120873,42.21533948266629 73.10056133818576,42.04925107895425 75.447462694988,41.20436659050507 75.83018814701975,41.096048066344956 76.22013483399678,41.02383571690505 76.5595328763651,41.009393247017066 76.94225832839685,41.031056951849294 78.33595667259031,41.27657893994548 78.84866435361543,41.32712758455316 79.4624693238559,41.33434881949741 80.0834955290406,41.25491523511325 80.53843333051277,41.139375476009405 81.10168965614557,40.937180897577164 82.12710501819477,40.48946433104874 82.76257369326694,40.17172999351213 83.26083890440356,39.86121689091978 83.61467941666038,39.5651462582154 83.91075004936424,39.225748215847084 84.16349327240466,38.82858029392684 84.32958167611721,38.489182251558525 84.49567007982874,38.048686919974344 85.08781134523748,36.243378183972126 85.21057233928558,35.694564328227834 85.57163408648562,35.71622803305955 85.91103212885393,35.709006798115816 86.12766917717416,35.68734309328359 86.66204056303098,35.58624580406772 86.87145637640697,35.59346703901146 87.10975712955992,35.64401568361964 87.5502524611436,35.7956616174437 88.08462384700043,36.04840484048413 88.1857211362168,36.12061718992403 88.23626978082449,36.18560830442021 88.25071225071298,36.25782065386011 88.24349101576873,36.719979690277036 88.27959719048893,37.016050322980895 88.30848213026489,37.13881131702899 88.39513694959278,37.29767848579729 88.63343770274471,37.528758004005496 88.72731375701684,37.644297763109854 88.7706411666813,37.76705875715795 88.82118981128899,38.09923556458202 88.90062339567365,38.301430143014265 89.001720684889,38.431412372006605 89.32667625736985,38.713040534822994 89.49276466108137,38.88635017347877 89.65885306479392,39.11742969168697 89.88993258300263,39.4929339087755 90.33764914953055,40.04896899946404 90.46041014357864,40.32337592733619 90.56150743279503,40.48224309610449 90.72759583650758,40.6627739697045 91.04533017404314,40.98050830724111 91.17531240303549,41.16826041578537 91.57248032495573,42.02758737412202 91.8107810781087,42.482525175594695 91.86132972271638,42.663056049194715 91.87577219260385,42.81470198301877 91.83966601788465,42.901356802347166 91.73856872866828,43.00967532650728 91.59414402978847,43.089108910890914 91.26918845730762,43.1902062001073 91.08143634876336,43.28408225437943 90.66982595695463,43.565710417195824 90.56150743279503,43.659586471467954 90.4892950833546,43.74624129079584 90.42430396885844,43.92677216439585 90.32320667964309,44.518913429804606 90.25099433020267,45.443231502637424 90.27987926997864,45.573213731629764 90.36653408930651,45.71041719556584 90.7853657160595,46.10036388254235 91.46416180079613,46.81526614199868 91.73856872866828,47.024681955375165 91.9335420721568,47.25576147358337 92.0779667710366,47.349637527855506 92.17184282530873,47.371301232687216 92.28016134946833,47.371301232687216 92.56178951228472,47.313531353135296 92.6989929762213,47.32075258807954 93.15393077769347,47.55905334123148 93.69552339849454,47.76846915460797 94.90869086908698,48.11508843192002 95.38529237539188,48.20174325124842 95.90522129136022,48.25951313080034 96.68511466531324,48.310061775408535 97.36391075004987,48.28839807057631 97.92716707568266,48.31728301035227 98.31711376265865,48.49059264900855 98.87314885334719,48.89498180587304 99.01035231728379,49.03218526980911 99.4725113537002,49.69653888465776 99.1908831908838,49.89873346309001 98.97424614256357,50.10092804152225 98.82982144368275,50.30312261995449 98.72872415446739,50.54864460805068 98.67817550985869,50.77250289131464 98.65651180502697,51.09745846379498 98.69261797974718,51.4007503314436 98.78649403401931,51.805139488308086 98.95980367267508,52.23841358494802 99.28475924515593,52.88110349496496 99.71803334179639,53.58878451947756 100.65679388451667,55.02581027333498 101.10451045104561,55.75515500267981Z"/>
    <path d="M253.71808975769392,47.501283461679556 253.54478011903814,48.310061775408535 253.5375588840939,48.44004400440036 253.54478011903814,48.62779611294462 253.58810752870156,48.80110575160091 253.65309864319775,48.95275168542496 254.0358240952305,49.69653888465776 254.13692138444586,49.949282107698195 254.20191249894202,50.19480409579438 254.26690361343822,50.54142337310643 254.3174522580469,50.95303376491517 254.34633719782286,51.44407774110754 254.33911596287862,51.855688132915766 254.30300978815842,52.25285605483651 254.20191249894202,52.71501509125293 253.74697469746988,54.05816479083822 253.4870102394852,55.004146568503266 253.38591295026984,55.300217201207126 253.21982454655728,55.668500183351924 252.96708132351685,56.04400440043993 252.61324081126108,56.43395108741644 252.21607288934084,56.80223406956072 251.3784096358359,57.509915094073314 249.73918930354623,58.809737383994666 249.56587966488942,58.925277143099024 249.39257002623367,59.01915319737115 249.01706580914515,59.134692956475 248.80764999576917,59.17079913119521 248.4754731883451,59.19246283602744 248.0927477363123,59.17802036613946 247.7389072240555,59.134692956475 247.06733237426312,58.997489492538925 245.46421821669367,58.556994160954744 245.03816535499746,58.484781811514324 244.60489125835701,58.45589687173837 243.91165270373187,58.463118106682614 241.65140616625752,58.614764040506664 241.0087162562411,58.68697638994657 239.63668161687932,58.89639220332306 239.02287664663885,58.95416208287499 238.70514230910328,58.961383317819234 238.43795661617435,58.939719612987005 238.19243462807816,58.89639220332306 237.93969140503773,58.82417985388265 237.74471806155023,58.73752503455476 237.55696595300597,58.6219852754504 237.3836563143492,58.484781811514324 237.20312544074918,58.31147217285856 236.32935601252402,57.22106569631319 235.20284336125948,55.89235846661588 234.93565766833157,55.538517954359584 234.71902062001135,55.206341146934996 234.56015345124305,54.895828044343155 234.26408281853816,54.20981072466227 234.15576429437854,54.029279851062256 234.0257820653862,53.87041268229395 233.8452511917862,53.71154551352565 233.60695043863427,53.58156328453383 233.36142845053706,53.48768723026169 232.63930495613698,53.278271416885204 232.41544667287252,53.19161659755732 232.24935826915996,53.09051930834094 232.08326986544844,52.95331584440487 231.9532876364561,52.80166991058081 231.8449691122965,52.59947533214857 231.76553552791185,52.34673210910814 231.71498688330416,52.079546416180236 231.69332317847142,51.81958195819607 231.6861019435282,51.30687427717147 231.72942935319162,50.830272770867076 231.88107528701568,49.62432653521786 231.9171814617359,48.63501734788887 231.94606640151184,48.273955600688325 232.06160616061672,47.725141744943514 232.36489802826483,46.82970861188666 232.47321655242445,46.46142562974238 232.6609686609687,45.47211644241339 232.7115173055774,45.313249273645596 232.79817212490528,45.13993963498932 232.94981805872933,44.96662999633303 233.209782516713,44.800541592620995 233.53473808919384,44.69222306846088 233.9463484810026,44.612789484076735 234.5745959211305,44.56946207441279 235.31116188541907,44.54779836958056 237.11647062142129,44.60556824913249 237.48475360356557,44.60556824913249 237.86747905559832,44.55501960452481 237.99746128459068,44.51169219486036 238.1130010436945,44.4467010803647 238.21409833290988,44.36726749598055 238.27908944740605,44.27339144170842 238.32963809201473,44.14340921271608 238.34408056190222,43.99898451383627 238.31519562212625,43.70291388113189 238.13466474852623,42.829144452906746 238.08411610391855,42.36698541649034 238.09855857380603,41.94815378973787 238.14188598347047,41.73151674141764 238.20687709796664,41.55098586781763 238.31519562212625,41.319906349609425 238.43795661617435,41.117711771177184 238.5823813150552,40.92995966263292 238.8351245380946,40.69165890948098 239.03731911652733,40.54001297565641 239.25395616484758,40.41725198160832 239.53558432766397,40.30171222250447 239.7738850808159,40.24394234295255 240.00496459902462,40.200614933288094 240.3371414064487,40.17895122845638 240.73430932836894,40.18617246340011 241.96191926884987,40.251163577896286 242.41685707032306,40.236721108008304 243.29062649854717,40.18617246340011 243.65890948069145,40.18617246340011 243.92609517362038,40.20783616823234 244.20772333643677,40.25838481284053 244.46046655947617,40.330597162280434 244.77097966206853,40.46780062621651 245.06705029477342,40.63388902992854 245.32701475275707,40.82886237341705 245.7169614397341,41.16103918084112 246.13579306648606,41.558207102761365 246.5329609884063,41.984259964458076 246.86513779583137,42.388649121322565 247.62336746495166,43.46461312797944 247.81834080844018,43.674028941355935 248.04219909170465,43.825674875179985 248.26605737496809,43.91955092945212 248.61267665228064,43.98454204394829 248.93041098981726,43.99898451383627 249.96304758680967,43.95565710417181 250.36021550873093,43.97732080900404 250.71405602098673,44.03509068855597 251.0606752982993,44.1289667428281 251.44340075033207,44.27339144170842 251.81168373247635,44.468364785196414 252.12941807001192,44.68500183351664 252.43993117260428,44.95940876138879 252.7793292149726,45.32769174353358 253.08984231756494,45.72485966545382 253.44368282982177,46.25923105131013 253.59532876364582,46.562522918958756 253.7036472878054,46.90914219627081 253.7397534625256,47.22687653380741 253.71808975769392,47.501283461679556Z"/>
  </g>
</svg>