<?xml version="1.0" encoding="UTF-8" standalone="no"?>
<svg viewBox="0 0 256 221.23456790123547" xmlns="http://www.w3.org/2000/svg">
  <style>
    g.zone {
      fill: lightgray;
      stroke-width: 2;
      stroke-linecap: square;
      stroke-linejoin: bevel;
      stroke-miterlimit: 3;
      stroke-opacity: 0.8;
      stroke: black;
      fill-opacity: 0.3;
    }
  </style>
  <g class="zone" id="zone">
    <path d="M126.39580995136329,197.21960344182713 125.36625514403055,196.83651328095837 124.2169846614294,196.5491956603081 123.01982790871477,196.40553684998295 122.13393191170887,196.3815937149279 121.0325476992144,196.45342312009134 120.07482229704338,196.5970819304165 119.3086419753093,196.81257014590506 118.06359895248798,197.3153759820439 116.26786382341774,194.82528993640298 114.13692480359055,193.2450430228213 112.93976805087931,192.74223718668244 112.36513280957534,192.33520389076037 111.88627010849153,191.8802843247299 111.47923681256944,191.32959221848267 111.23980546202584,190.80284324728876 111.19191919191915,190.53946876169184 111.2158623269708,190.08454919566137 111.28769173213593,189.72540216984765 111.98204264870829,187.88178077067073 112.12570145903514,187.3310886644235 112.17358772914181,186.0860456416022 111.95809951365325,184.41002618780547 111.98204264870829,184.05087916199176 112.10175832398009,183.88327721661156 112.38907594463038,183.9072203516666 114.16086793864558,184.60157126823898 114.90310512532463,184.74523007856413 116.98615787504517,184.7931163486725 122.75645342311952,185.0804339693245 124.40852974186292,185.00860456416106 125.27048260381378,184.76917321361915 125.53385708941242,184.57762813318394 125.8211747100627,184.21848110737193 126.20426487092976,183.30864197530929 126.49158249158005,181.87205387205447 126.51552562663508,181.1777029554821 126.3479236812566,180.45940890385467 125.91694725027948,179.71717171717222 125.39019827908558,179.14253647587165 123.83389450055896,177.84960718294195 121.72689861578678,176.38907594463208 120.45791245791044,175.71866816311305 118.32697343808323,174.92854470632392 117.56079311634913,174.4975682753468 117.129816685372,174.11447811447974 116.74672652450496,173.58772914328586 116.50729517396135,173.06098017209194 116.33969322857946,172.3905723905729 116.29180695847279,171.45679012345863 116.50729517396135,170.30751964085408 116.93827160493848,169.27796483352134 117.68050879161754,168.296296296297 118.87766554433216,167.1230826786391 120.314253647587,165.97381219603625 121.31986531986469,165.37523381967895 123.04377104376981,164.58511036288982 124.24092779648103,163.79498690609898 124.76767676767493,163.31612420501347 125.17471006359702,162.861204638983 125.34231200897891,162.5738870183327 125.43808454919566,162.28656939768072 125.36625514403055,162.02319491208547 125.1028806584353,161.71193415638015 123.76206509539723,160.5626636737756 121.72689861578678,158.57538346427353 120.17059483726015,157.35428357650727 119.71567527123138,156.9472502805852 118.56640478862684,155.43883277216693 118.08754208753962,154.4811073699976 118.06359895248798,154.26561915450904 118.08754208753962,154.07407407407553 118.23120089786647,153.93041526375038 118.44668911335503,153.78675645342355 119.21286943508913,153.54732510288164 120.50579872802052,153.2360643471763 121.65506921062506,152.80508791619917 121.91844369622031,152.56565656565726 122.01421623643706,152.3980546202771 122.06210250654715,152.01496445941004 121.96632996633039,151.70370370370472 121.58323980545994,150.96146651702225 121.48746726524318,150.65020576131863 121.53535353535327,149.28544706322552 121.48746726524318,149.02207257762856 121.34380845491974,148.7347549569783 121.05649083426604,148.39955106621792 120.57762813318224,148.01646090535087 119.06921062476569,147.5615413393204 118.73400673400532,147.36999625888689 118.47063224841007,147.13056490834327 118.18331462775639,146.65170220725946 117.94388327721619,145.62214739992672 117.75233819678266,145.04751215862444 117.48896371118401,144.64047886270237 116.93827160493848,144.04190048634504 116.79461279461164,143.70669659558638 116.79461279461164,143.51515151515287 116.96221473999012,143.20389075944752 117.7762813318343,142.38982416760336 118.08754208753962,141.98279087168126 118.37485970819331,141.28843995510718 118.54246165357179,140.2349420127211 118.73400673400532,139.73213617658226 119.35652824541597,138.5828656939777 120.36213991769367,137.2659932659947 120.48185559296547,136.93078937523433 120.45791245791044,136.64347175458403 120.314253647587,136.11672278339014 119.97904975682663,135.39842873176272 119.64384586606626,135.23082678638252 119.26075570519922,134.82379349046045 118.32697343808323,133.21960344182713 117.8959970071061,132.64496820052486 116.4833520389063,131.3041526374868 114.42424242424083,130.10699588477385 113.27497194163628,129.2450430228213 112.02992891881837,128.45491956603217 111.3355780022426,128.21548821548856 110.16236438458641,128.09577254021846 109.444070332959,127.92817059483828 107.14552936774992,127.01833146277734 106.28357650579905,127.37747848859105 104.27235316124025,127.85634118967485 102.52450430228009,128.0718294051634 101.56677890011247,128.02394313505505 100.4653946876146,127.73662551440475 99.36401047512014,127.25776281331925 98.38234193789748,126.6352413019086 96.682379349044,125.34231200897891 96.22745978301523,125.102880658437 95.60493827160458,124.88739244294844 94.9584736251389,124.81556303778672 93.21062476617873,124.91133557800347 91.1275720164582,124.62401795735148 89.52338196782489,124.60007482229815 88.5177702955472,124.456416011973 86.07557052001465,124.67190422745986 85.35727646838724,124.64796109240653 83.05873550317816,124.00149644594254 79.32360643471763,123.13954358398827 77.69547325102927,122.4451926674159 75.42087542087522,121.27197904975802 73.88851477740363,120.5536849981306 72.83501683501585,119.9072203516649 71.75757575757302,119.021324354659 70.6801346801336,117.8959970071095 69.4350916573123,116.79461279461334 69.07594463150029,116.38757949869125 68.1421623643843,114.6397306397311 67.73512906846221,113.75383464272349 67.5435839880287,112.96371118593436 67.47175458286357,112.3411896745237 67.5435839880287,111.88627010849324 67.7830153385689,111.45529367751611 69.33931911709553,109.75533108866432 66.70557426112948,110.04264870931631 64.646464646464,110.11447811447803 62.80284324728707,110.37785260007497 60.86344930789339,110.40179573513002 58.58885147773934,110.76094276094373 56.7931163486691,111.23980546202924 56.290310512530255,111.28769173213762 55.21286943509083,111.26374859708258 54.08754208754132,111.45529367751611 53.034044145153544,111.79049756827646 52.052375607930884,112.3411896745237 51.09465020575986,113.05948372615111 49.92143658810028,114.16086793864729 48.60456416011725,113.17919940142292 47.76655443322143,112.70033670033742 47.02431724653897,112.3411896745237 45.611672278339185,111.81444070332981 40.96670407781432,110.30602319491327 39.45828656939777,109.68350168350261 37.94986906097782,108.98915076692853 35.986531986529094,107.93565282454244 31.96408529741829,105.39768050879316 30.24017957351317,104.46389824167717 29.378226711558913,104.1286943509168 28.564160119714735,103.91320613542824 27.462775907220273,103.74560419004976 26.457164234939167,103.69771791994138 25.260007482227945,101.83015338570942 24.996632996632698,101.18368873924543 24.852974186305854,100.5132809577264 24.924803591467576,98.47811447811594 24.73325851103405,96.73026561915579 25.06846240179442,95.15001870557411 25.092405536849462,94.00074822297127 24.948746726522618,93.21062476618043 24.757201646089094,92.82753460531339 24.517770295545485,92.56416011971643 23.440329218106065,91.72615039281722 22.74597830153369,91.07968574635322 21.86008230452439,90.07407407407553 21.405162738495623,89.37972315750145 21.189674523007056,88.85297418630756 21.141788252896973,87.77553310886643 20.806584362140008,86.2192293303415 20.303778525997757,84.80658436214001 23.39244294799598,83.10662177328823 24.421997755328725,82.46015712682424 24.900860456415938,81.98129442573872 25.52338196782659,81.21511410400294 25.97830153385536,80.44893378226713 26.289562289560685,79.85035540591153 26.57687991021097,79.08417508417573 26.792368125699536,77.91096146651785 26.816311260754578,77.21661054994377 26.768424990644494,76.37860082304624 26.648709315376095,75.66030677141883 26.43322109988753,74.79835390946627 26.09801720912716,73.96034418256706 25.61915450804335,73.05050505050612 25.020576131684336,72.14066591844347 24.350168350167003,71.37448559670769 23.72764683875635,70.82379349046045 22.985409652073894,70.4407033295934 22.386831275718283,70.27310138421322 21.788252899362668,70.22521511410484 19.53759820426366,70.41676019453836 18.005237560792068,70.39281705948503 16.59259259259228,70.20127197904979 15.515151515149453,69.93789749345285 13.91096146651614,69.31537598204389 11.923681257012376,68.23793490460277 9.673026561913368,67.4238683127586 7.51814440703112,66.41825664047919 5.890011223342766,65.74784885896015 4.23793490459937,65.0056116722794 3.5435839880269953,64.57463524130227 3.2323232323216686,64.23943135054361 2.9210624766163416,63.66479610924134 2.418256640477491,62.34792368125831 2.1309390198272053,61.82117471006441 1.6520763187399934,61.2225963337088 0,59.522633744857025 0.26337448559524457,59.235316124205035 0.5985783763556125,58.564908342686 0.8858959970058982,57.70295548073344 1.2689861578729458,55.859334081556526 1.6281331836883548,54.61429105873522 2.0351664796104436,53.51290684624075 2.585858585855974,52.48335203890801 3.3280957725384304,51.47774036663031 4.118219229327567,50.71156004489451 4.980172091281826,50.16086793864558 5.890011223342766,49.801720912831875 6.58436213991514,49.65806210250673 7.470258136924441,49.63411896745339 8.164609053496815,49.72989150767015 8.93078937523091,49.945379723158716 10.127946127945538,50.47212869435091 12.833520389073314,52.0044893378225 14.341937897493269,52.7706696595583 15.8982416760165,53.36924803591561 17.095398428731126,53.68050879162094 18.364384586604075,53.80022446689104 19.657313879535465,53.68050879162094 20.92630003740841,53.34530490086057 22.147399925174675,52.7706696595583 23.009352787128936,52.17209128320268 23.72764683875635,51.45379723157527 24.302282080056923,50.61578750467605 24.70931537597901,49.72989150767015 24.948746726522618,48.77216610549913 25.04451926673938,47.81444070332981 25.04451926673938,46.90460157126887 24.924803591467576,43.76805087916227 24.972689861577656,42.85821174710132 25.092405536849462,41.948372615040384 25.379723157499747,41.014590347924404 25.762813318366796,40.17658062102519 26.313505424615727,39.38645716423605 26.84025439580962,38.83576505798712 28.085297418630926,37.78226711560104 29.857089412642722,36.704826038159915 32.347175458285335,35.50766928544699 34.28656939767902,34.74148896371119 36.2259633370727,34.214739992519 37.83015338570601,33.95136550692205 39.67377478488293,33.87953610175863 41.589225589224974,34.047138047138816 43.62439206883542,34.430228208005865 45.779274223717664,35.07669285447156 47.83838383838315,35.962588851477456 49.825664047883514,37.08791619902696 51.908716797604036,38.62027684250025 53.80022446689104,40.272353161241945 55.907220351663206,42.37934904601581 57.176206509539554,43.98353909465083 57.822671156001846,45.08492330714529 58.27759072203401,46.11447811447803 58.708567153011145,47.35952113729934 58.94799850355135,48.4609053497955 59.283202394311715,50.66367377478613 60.14515525626598,59.30714552936846 60.69584736251151,63.56902356902457 61.031051253271876,65.26898615787634 61.462027684249,66.92106247661805 62.01271979049794,68.52525252525305 62.58735503179851,69.81818181818275 63.71268237934801,71.70968948746804 64.26337448559694,72.45192667414881 65.12532734754781,73.43359521137316 66.49008604564091,74.72652450430286 69.5548073325841,77.33632622521557 71.18294051627245,78.8926300037422 72.49981294425548,80.40104751215875 74.53497942386592,83.17845117845165 75.30115974560343,84.04040404040421 76.3546576879912,84.83052749719505 77.38421249532395,85.35727646838895 77.83913206135271,85.4530490086057 78.62925551814186,85.54882154882246 79.27572016460755,85.50093527871408 79.7785260007464,85.38121960344228 80.20950243172354,85.21361765806209 80.71230826786238,84.90235690235677 81.0235690235677,84.61503928170649 81.33482977927304,84.2080059857844 81.57426112981663,83.65731387953717 81.74186307519513,83.05873550317985 82.17283950617225,79.63486719042295 82.48410026187757,78.05462027684298 83.0347923681231,76.18705574261273 83.68125701458881,74.55892255892267 84.90235690235507,72.04489337822672 87.44032921810437,67.51964085297536 89.2360643471746,64.07182940516343 90.40927796483079,62.180321735878124 91.51066217732865,60.863449307895095 92.58810325476807,59.80995136550731 94.1922933034048,58.588851477741045 95.74859708192803,57.655069210625065 97.18518518518286,57.00860456416107 99.02880658435977,56.45791245791214 100.68088290310317,56.09876543209843 102.66816311260693,55.83539094650318 104.99064721286766,55.71567527123138 107.72016460905388,55.81144781144815 110.4496820052367,56.17059483726185 113.03554059109608,56.721286943509085 116.29180695847279,57.70295548073344 118.01571268237791,58.3254769921441 120.5536849981272,59.35503179947684 127.90422745978324,62.65918443696193 131.7351290684605,64.28731762065199 134.41676019453666,65.34081556303806 143.0841750841757,68.5491956603081 146.81930415263625,70.12944257388807 148.66292555181317,71.03928170594901 150.67414889636856,72.18855218855356 152.61354283576566,73.45753834642821 154.7205387205378,74.9898989898998 156.30078563411948,76.21099887766606 157.92891881780784,77.59970071081251 162.83726150392795,82.02918069584881 164.03441825663919,83.01084923307147 164.92031425364848,83.58548447437374 165.94986906097782,84.06434717545925 166.42873176206504,84.18406285072936 166.7160493827153,84.01646090535087 167.05125327347568,83.70520014964555 167.45828656939776,83.17845117845165 167.86531986531986,82.29255518144406 168.03292181069835,81.14328469884121 167.98503554059167,80.06584362140009 167.79349046015474,79.0123456790123 167.31462775907093,77.67153011597594 166.78787878787705,76.71380471380492 165.80621025065437,75.39693228582189 164.72876917321156,74.24766180321734 163.38795361017347,73.00261878039774 161.8077066965952,71.73363262252138 160.15563037785182,70.58436213991854 158.3120089786749,69.435091657314 150.74597830153368,65.02955480733274 145.7897493453035,61.893004115226134 141.74335952113765,59.450804339693605 140.85746352412835,58.85222596333799 140.06734006733922,58.25364758698068 139.49270482603865,57.67901234568011 139.15750093527828,57.200149644594596 138.89412644967965,56.74523007856413 138.72652450430115,56.24242424242527 138.55892255892266,55.38047138047271 138.4631500187059,52.84249906472172 138.12794612794553,51.40591096146689 138.00823045267373,51.142536475869946 137.67302656191336,50.63973063973109 136.76318742985242,49.70594837261511 136.11672278339014,49.227085671531306 135.37448559670767,48.84399551066255 134.5604190048635,48.532734754957225 133.57875046763743,48.29330340441532 131.6154133931887,48.053872053871714 126.63524130190689,47.69472502805801 124.62401795735148,47.407407407407725 123.3310886644201,47.0961466517024 121.65506921062506,46.49756827534679 120.33819678263863,45.82716049382775 119.1889263000375,45.013093901983574 118.23120089786647,44.10325476992263 117.48896371118401,43.19341563785999 116.91432846988344,42.13991769547391 116.45940890385127,41.014590347924404 116.21997755331107,39.98503554059166 116.07631874298423,38.78787878787874 116.05237560792918,37.61466517022085 116.31575009352783,33.90347923681367 116.33969322857946,32.323232323232 116.19603441825602,30.98241676019563 115.8847736625507,29.617658062102517 115.3580246913568,28.34867190422787 114.90310512532463,27.582491582492075 114.37635615413414,26.84025439580962 113.32285821174636,25.667040778151733 111.694725028058,24.302282080060323 109.73138795360929,22.937523381968916 108.27085671529942,22.099513655069696 107.36101758323848,21.644594089039227 106.35540591096077,21.23756079311714 105.32585110362803,20.87841376730343 103.17096894874578,20.37560793116458 100.92031425364678,20.136176580620972 98.76543209876453,20.112233445567636 96.94575383464264,20.184062850729354 92.6599326599332,20.543209876543063 90.2416760194523,20.615039281706483 89.04451926674108,20.567153011598105 87.72764683875805,20.447437336326303 85.6924803591442,20.040404040404212 83.84885895996729,19.46576879910194 82.84324728768958,19.03479236812651 81.88552188552197,18.53198653198766 80.97568275346103,17.981294425738728 80.30527497194029,17.478488589599877 79.61092405536792,16.879910213244266 78.94051627384718,16.16161616161685 78.15039281705805,15.084175084175726 77.67153011597424,14.054620276842984 77.38421249532395,13.049008604565282 77.31238309015883,12.06734006734092 77.45604190048567,10.989898989899798 77.79124579124604,10.032173587728776 78.43771043770833,9.050505050506116 79.17994762439079,8.260381593715278 80.37710437710201,7.350542461654339 81.9094650205736,6.46464646464674 83.10662177328823,5.913954358399508 87.20089786756417,4.237934904601071 92.34867190422787,1.556303778526634 93.3063973063955,1.1732136176578851 94.64721286943356,0.7182940516274156 96.92181069958761,0.23943135054190476 98.38234193789748,0.07182940516342205 99.81893004115231,0 102.6442199775519,0.0957725402167619 105.61316872427831,0.4309764309771298 106.95398428731639,0.6704077815190346 108.63000374111482,1.0774410774411232 110.71305649083195,1.771791994015199 112.53273475495723,2.5140291806959545 114.92704826037968,3.6632996633004997 119.14104002992741,5.842124953236086 121.41563786008146,6.847736625515489 123.88178077066902,7.7336326225213865 125.15076692854538,8.044893378226714 126.56341189674517,8.3322109988787 128,8.523756079312225 130.27459783015405,8.715301159745747 138.12794612794553,9.170220725776218 140.25888514777273,9.218106995884598 141.55181444070072,9.146277590722878 142.60531238308852,8.978675645342694 143.85035540590982,8.619528619528985 145.23905723905798,8.044893378226714 145.93340815563036,8.475869809203843 146.6038159371477,8.978675645342694 147.2023943135033,9.577254021698307 147.8009726898623,10.24766180321734 148.27983539094612,11.013842124953138 148.63898241675813,12.330714552937867 148.87841376730174,12.857463524130058 149.3333333333339,13.45604190048737 150.2910587355015,14.341937897493269 150.91358024691218,14.79685746352374 152.49382716049385,15.586980920314577 153.78675645342184,16.377104377105415 155.70220725776048,17.334829779274735 158.59932659932517,19.609427609428785 159.98802843247333,20.87841376730343 160.610549943884,21.28544706322552 162.19079685746226,21.81219603441941 163.65132809577213,22.17134306023312 165.9977553310879,22.578376356155207 168.8948746726526,22.865693976805492 169.68499812944174,22.985409652077298 170.16386083052555,23.17695473251082 172.48634493078967,24.326225215113663 174.0426487093129,24.733258511037455 175.35952113729934,25.260007482229646 175.95809951365496,25.37972315750145 176.5806210250656,25.37972315750145 177.29891507669302,25.260007482229646 178.68761690983777,24.733258511037455 179.2861952861934,24.56565656565727 179.95660306771413,24.51777029554889 181.99176954732457,24.54171343060223 185.60718294051668,23.63187429854129 185.94238683127364,23.60793116348625 186.34942012719574,23.70370370370471 186.66068088290106,23.895248784138236 187.35503179947685,24.56565656565727 188.76767676767662,25.714927048260115 189.00710811821682,26.217732884400665 189.15076692854367,26.38533482977915 190.0606060606046,26.600823045267713 190.8746726524488,26.864197530864658 191.61690983913124,27.34306023195017 192.57463524130227,27.34306023195017 192.86195286195255,27.438832772166933 193.10138421249616,27.654320987655495 193.7239057239034,28.588103254769777 194.56191545080264,28.899364010475104 195.3041526374851,29.473999251777375 195.85484474373402,29.76131687242766 196.14216236438432,30.000748222971268 196.33370744481783,30.359895248784976 196.64496820052315,30.62326973438192 197.12383090160696,30.814814814815445 198.2012719790498,31.00635989524897 199.30265619154426,31.53310886644286 200.23643845866025,32.227459783015235 201.3378226711547,32.897867564534266 202.12794612794383,33.54433221099996 202.94201271979142,33.85559296670529 203.49270482603694,34.14291058735558 205.93490460156949,35.65132809577213 206.79685746352374,35.962588851477456 207.4193789749344,36.034418256640876 207.658810325478,35.9865319865325 207.85035540591153,35.74710063599059 207.99401421623497,35.69921436588221 208.56864945753892,35.67527123082717 210.5080433969326,35.9865319865325 211.03479236812652,36.225963337074404 212.49532360643298,37.37523381967895 213.0460157126819,37.92592592592618 213.95585484474284,38.6442199775536 214.36288814066495,39.12308267863911 214.4586606808817,39.434343434344434 214.43471754582666,39.7695473251031 213.9797979797979,40.91881780770764 213.8600823045261,41.51739618406326 213.93191170968782,41.80471380471354 214.02768424990458,41.97231575009373 214.43471754582666,42.18780396558229 214.72203516648034,42.21174710063563 215.0332959221857,42.092031425365526 216.73325851103576,40.72727272727242 217.5233819678249,40.272353161241945 218.09801720912887,40.080808080808424 219.72615039281723,39.697717919941375 220.75570520014995,39.24279835390921 221.71343060231757,38.90759446315054 222.24017957351148,38.62027684250025 223.3176206509543,37.830153385709416 224.05985783763674,37.49494949495075 224.682379349044,37.303404414515526 225.75982042648684,37.13580246913704 226.52600074822092,37.159745604190384 227.77104377104223,37.44706322484067 229.94986906097952,37.78226711560104 231.07519640852902,38.093527871306364 232.20052375607852,38.54844743733683 234.40329218107087,39.31462775907263 234.97792742237144,39.64983164983129 235.4328469884036,40.008978675645004 236.63000374111482,41.20613542835793 237.6835016835026,42.020202020202106 238.9764309764306,42.83426861204628 239.694725028058,43.19341563785999 240.36513280957533,43.408903853348555 241.03554059109607,43.52861952862036 241.65806210250673,43.50467639356532 241.32285821174636,44.677890011223205 240.7003367003357,45.70744481855595 240.55667789001228,46.210250654694796 240.50879161990218,47.191919191919155 240.8200523756075,48.053872053871714 240.79610924055248,48.36513280957704 240.60456416011894,48.748222970445795 239.8144407033298,49.801720912831875 239.40740740740773,50.66367377478613 239.40740740740773,52.65095398428819 239.52712308267954,52.8903853348301 240.07781518892506,53.63262252151256 240.17358772914181,54.063598952487986 240.07781518892506,54.27908716797655 239.83838383838486,54.47063224841008 239.19191919191917,54.6621773288453 238.11447811447633,54.7818930041154 235.76805087916057,54.87766554433216 235.3131313131318,54.94949494949559 233.8286569397669,55.50018705574281 233.23007856341127,55.81144781144815 231.3625140291793,57.10437710437783 230.2850729517399,57.655069210625065 230.45267489711836,57.726898615788485 230.50056116722845,57.94238683127705 230.2850729517399,59.25925925926008 230.4047886270117,59.78600823045397 230.71604938271702,60.2169846614294 231.33857089412427,60.74373363262329 231.84137673026652,61.00710811822024 232.32023943135033,61.15076692854538 233.0145903479227,61.15076692854538 235.0258136924815,60.863449307895095 235.93565282454244,60.863449307895095 239.09614665170238,61.2225963337088 239.4552936775144,61.3423120089789 239.5031799476245,61.509913954359085 239.40740740740773,61.988776655444596 239.40740740740773,62.27609427609488 239.5750093527862,62.65918443696193 239.88627010849154,63.16199027310248 240.4609053497921,63.92817059483828 241.1791994014195,64.67040778151903 241.65806210250673,65.07744107744112 242.28058361391737,65.46053123830987 242.4721286943509,65.72390572390682 242.59184436962272,66.37037037037081 242.95099139543473,67.25626636737842 242.90310512532804,68.07033295922258 243.02282080059643,68.83651328095839 243.21436588103336,69.33931911709723 243.50168350168366,69.72240927796598 246.56640478862684,72.42798353909546 246.99738121960397,72.73924429480078 247.33258511036092,72.85895997007088 248.14665170220852,72.97867564534269 249.27197904975802,73.02656191545107 250.85222596333628,72.97867564534269 252.02543958099588,73.93640104751202 253.19865319865207,74.70258136924781 254.108492330713,75.39693228582189 255.30564908342762,75.94762439206912 255.49719416386114,76.1152263374493 255.68873924429468,76.52225963337139 256,78.62925551814526 256,79.17994762439248 255.64085297418458,79.94612794612829 254.4676393565284,81.40665918443815 252.71979049756825,82.96296296296309 252.3845866068079,83.58548447437374 252.26487093153608,84.06434717545925 252.24092779648444,84.4474373363263 252.3845866068079,84.9741863075202 252.7437336326233,85.47699214365905 253.65357276468424,86.36288814066664 253.79723157500766,86.62626262626358 253.84511784511776,86.84175084175216 253.72540216984595,87.77553310886643 253.43808454919565,88.80508791619917 253.17471006359702,90.62476618032275 253.17471006359702,92.32472876917453 253.07893752338026,93.64160119715756 252.8634493078917,94.26412270856821 252.36064347175284,95.22184811073754 251.95361017583076,96.53872053872057 251.6423494201254,97.18518518518626 251.04377104376982,97.85559296670529 250.10998877665384,98.62177328844109 249.75084175084183,99.12457912457994 249.60718294051497,99.69921436588221 249.55929667040832,100.99214365881019 249.3198653198647,101.59072203516752 248.81705948372584,102.09352787130636 248.1945379723152,102.54844743733683 247.40441451552604,102.95548073325892 246.9016086793872,103.12308267863911 246.5903479236819,103.14702581369244 246.23120089786647,103.09913954358406 244.93827160493848,102.64421997755359 244.14814814814935,102.45267489712008 243.74111485222386,102.40478862701168 243.4059109614669,102.47661803217511 242.63973063972938,103.0033670033673 242.1129816685355,103.09913954358406 241.39468761690807,103.07519640853073 239.9341563786016,102.78787878787874 239.3355780022426,102.81182192293377 238.64122708567024,103.07519640853073 237.10886644219863,103.8892630003749 237.03703703703692,104.24841002618861 237.06098017209194,104.6554433221107 237.4919566030657,106.61878039655942 237.5158997381207,107.04975682753485 237.3722409277973,107.6722783389455 236.74971941638663,108.84549195660338 236.65394687616987,109.3243546576889 236.74971941638663,109.70744481855594 237.3722409277973,110.85671530116049 237.6116722783375,111.45529367751611 237.6835016835026,111.93415637860161 237.58772914328586,112.29330340441533 237.3722409277973,112.70033670033742 236.60606060605977,113.70594837261511 236.46240179573633,114.13692480359224 236.34268612046455,115.21436588103336 236.151141040031,115.59745604190212 235.86382341937733,115.81294425738898 235.4328469884036,115.98054620276916 233.51739618406157,116.38757949869125 232.6554433221107,116.79461279461334 232.15263748597184,117.20164609053543 231.74560419004976,117.70445192667428 231.4104002992894,118.25514403292321 231.21885521885588,118.82977927422378 231.17096894874578,119.667789001123 231.33857089412427,120.33819678264203 231.69771791993966,120.9128320239443 232.7272727272724,121.89450056116867 232.8948746726509,122.27759072203571 232.96670407781602,123.04377104377151 233.20613542835622,124.19304152637606 233.32585110362803,125.749345304901 233.1343060231945,127.92817059483828 233.03853348297775,128.38309016086876 232.8230452674892,128.8140665918459 232.51178451178384,129.1971567527129 231.84137673026652,129.67601945379843 231.0033670033673,129.98728020950375 229.3991769547306,130.34642723531746 228.80059857837497,130.63374485596776 228.63299663299648,130.82528993640128 228.44145155256297,131.16049382716164 228.2259633370744,131.92667414889743 228.15413393191267,132.5491956603081 228.2259633370744,132.98017209128352 228.48933782266965,133.45903479236904 229.30340441451384,134.39281705948503 229.4710063598957,134.75196408529874 229.5188926300024,135.15899738122081 229.08791619902524,136.88290310512593 229.04002992891859,137.84062850729526 229.0639730639736,139.54059109614704 228.9921436588085,140.01945379723253 228.84848484848504,140.474373363263 228.63299663299648,140.8814066591851 228.32173587729116,141.31238309016223 228.0344182566409,141.62364384586755 228.3935652824529,142.24616535727822 228.7527123082683,142.70108492330868 229.1118593340803,142.98840254395895 229.66255144032922,143.15600448933915 231.14702581369073,143.0841750841757 233.06247661803278,143.15600448933915 233.49345304900652,143.0841750841757 234.88215488215465,142.6531986532003 235.88776655443237,142.38982416760336 237.5158997381207,141.69547325102928 238.11447811447633,141.6475869809209 238.59334081556355,141.74335952113765 238.88065843621382,141.9588477366262 239.43135054246275,142.58136924803688 239.8144407033298,142.9405162738506 241.65806210250673,143.99401421623668 243.45379723157356,145.16722783389625 244.6030677141781,145.7897493453052 245.129816685372,146.24466891133568 245.488963711184,146.77141788252956 245.7283950617276,147.27422371866842 246.13542835764972,148.23194912083943 246.23120089786647,148.66292555181488 246.20725776281142,149.02207257762856 246.08754208754303,149.35727646838893 245.5368499812941,150.2192293303415 245.29741863075049,150.69809203142702 245.29741863075049,151.1051253273491 245.488963711184,151.53610175832452 245.80022446688935,151.84736251402987 247.0213243546556,152.49382716049556 248.36213991769367,153.42760942760984 249.0804339693211,153.81069958847857 249.8466142910586,154.09801720912887 248.57762813318223,155.55854844743874 247.38047138047102,157.2585110362905 247.04526748971065,157.56977179199583 246.6621773288436,157.83314627759108 245.87205387205447,158.16835016835145 245.01010101010021,158.38383838384001 240.24541713430693,159.34156378600935 239.5031799476245,159.60493827160627 239.19191919191917,159.89225589225657 239.12008978675743,160.05985783763674 239.07220351664736,160.41900486345045 239.35952113729763,161.6879910213251 239.4552936775144,163.1006359895266 239.4552936775144,163.4597830153403 239.3355780022426,163.8668163112624 238.9764309764306,164.48933782267136 238.5693976805085,164.9442573887035 238.06659184436964,165.25551814440885 237.01309390198188,165.78226711560103 236.510288065843,166.1653572764698 236.0793116348659,166.7639356528254 235.88776655443237,167.2906846240193 235.86382341937733,167.79349046015813 235.9117096894874,168.55967078189394 236.65394687616987,170.88215488215636 236.74971941638663,171.45679012345863 236.74971941638663,172.12719790497596 236.63000374111482,172.72577628133328 236.41451552562626,173.30041152263556 235.40890385334856,175.19191919192085 235.28918817807676,175.6228956228963 235.3131313131318,176.19753086419857 235.50467639356532,176.8200523756092 236.0314253647592,177.586232697345 236.3666292555162,177.8735503179953 237.10886644219863,178.16086793864727 237.2046389824154,178.30452674897242 237.22858211747044,178.54395809951433 237.13280957725368,178.90310512532804 236.91732136176512,179.2861952861968 236.22297044519274,180.0044893378242 235.4328469884036,180.98615787504858 235.40890385334856,181.20164609053543 235.48073325851027,181.91994014216283 235.3131313131318,182.80583613917045 235.3131313131318,183.7396184062864 235.19341563786,184.0748222970451 234.9539842873164,184.38608305275042 234.81032547699294,184.45791245791384 233.92442947998364,184.24242424242527 232.03292181070003,184.05087916199176 229.97381219603457,183.955106621775 228.94425738870183,184.00299289188337 227.866816311259,184.29031051253367 225.75982042648684,185.0325476992161 223.00635989524898,186.54096520763267 221.71343060231757,187.59446315002046 221.2585110362888,188.16909839132103 220.99513655069018,188.88739244294842 220.70781893003988,190.5873550318002 220.22895622895606,191.78451178451314 220.20501309390102,192.14365881032685 220.27684249906275,192.52674897119388 220.9472502805835,193.891507669287 220.99513655069018,194.1309390198289 220.97119341563854,194.32248410026244 220.80359147025663,194.51402918069766 220.15712682379436,194.82528993640298 219.58249158249038,195.2562663673784 218.8402543958079,196.21399176954773 218.43322109988583,196.52525252525305 217.7628133183685,196.74074074074161 215.12906846240244,197.17171717171874 214.43471754582666,197.33931911709723 212.95024317246515,198.05761316872466 211.99251777029414,198.36887392442998 211.3221099887768,198.48858959970178 209.83763561541187,198.58436213991854 209.11934156378447,198.7280209502437 208.4968200523738,198.99139543584064 207.8982416760182,199.35054246165433 206.98840254395725,200.28432472877032 206.38982416760166,200.66741488963908 205.55181444070243,200.90684624018098 204.04339693228587,201.1702207257779 202.27160493827068,201.86457164235028 200.30826786382195,202.24766180321905 199.2068836513275,202.6307519640861 196.81257014590165,203.30115974560513 195.9027310138407,203.73213617658226 194.1788252899356,205.0011223344569 193.2450430228196,205.43209876543403 192.33520389075866,205.67153011597594 190.7070707070703,205.8151889263011 189.17471006359872,206.34193789749497 187.95361017583247,206.58136924803688 186.87616909838962,206.98840254395895 185.36775158997307,207.7785260007498 185.00860456416106,207.92218481107494 183.52413019079614,208.0658436214001 182.13542835765142,208.47287691732217 180.74672652450326,208.68836513281073 180.3636363636362,208.80808080808254 180.0044893378208,209.04751215862444 179.6453423120088,209.47848858960157 178.63973063973108,211.27422371867013 176.2214739992502,214.4586606808834 175.76655443322144,214.7459783015354 174.35390946501823,215.1769547325108 174.0426487093129,215.3924429479994 173.82716049382776,215.60793116348796 173.6835016835009,215.96707818930165 173.6356154133908,216.44594089038716 173.6835016835009,217.09240553685117 173.87504676393442,218.02618780396713 172.4384586606796,217.3557800224481 171.72016460905218,217.09240553685117 170.88215488215297,216.90086045641763 170.11597456041886,216.78114478114583 169.30190796857468,216.75720164609248 168.39206883651374,216.80508791620088 167.4822297044528,216.97268986157937 166.30901608679324,217.2839506172847 165.01608679386524,217.81069958847857 164.0583613916942,218.33744855967248 161.78376356154016,219.7261503928189 160.37111859334038,220.46838757949968 159.12607557051908,220.8993640104768 157.76131687242597,221.16273849607376 156.34867190422617,221.23456790123547 154.9360269360264,221.0669659558553 153.54732510287823,220.70781893004158 151.77553310886643,220.0134680134692 149.3333333333339,218.7684249906479 147.25028058361337,217.54732510288164 144.85596707818752,215.96707818930165 143.10811821922735,214.67414889637197 141.21661054994377,213.093901982792 140.2349420127177,212.13617658062267 139.3490460157118,211.17845117845167 138.2237186681623,209.78974934530692 135.27871305649091,205.91096146651785 131.75907220351556,201.67302656191677 130.08305274971713,199.8054620276848 129.19715675271124,198.9674523007873 128.33520389075696,198.32098765432158 127.20987654320746,197.6026936026942 126.39580995136329,197.21960344182713Z"/>
  </g>
</svg>