<?xml version="1.0" encoding="UTF-8" standalone="no"?>
<svg viewBox="0 0 256 156.58275015904772" xmlns="http://www.w3.org/2000/svg">
  <style>
    g.zone {
      fill: lightgray;
      stroke-width: 2;
      stroke-linecap: square;
      stroke-linejoin: bevel;
      stroke-miterlimit: 3;
      stroke-opacity: 0.8;
      stroke: black;
      fill-opacity: 0.3;
    }
  </style>
  <g class="zone" id="zone">
    <path d="M190.92392983731855,115.12205762064947 190.62146687267244,115.4245205852956 189.73734436063066,116.0992456602744 189.38834863219128,116.49477415250371 189.1324184313384,117.30909751885893 188.7368899391091,118.1932200309007 188.69035717531585,118.774879578298 188.82995546669227,119.33327274379701 189.08588566754517,119.70553485413134 190.41206943560948,120.58965736617311 191.1100608924849,121.21784967736035 191.92438425884012,122.35790239025832 192.5758429519223,123.56775424884118 192.6689084795055,124.12614741434186 192.64564209760886,124.82413887121729 192.50604380623577,125.35926565482134 192.13378169590308,126.22012178496814 192.0174497864233,126.89484685994697 192.0639825502132,127.10424429700991 192.73870762519533,128.1744978642197 192.9713714441516,128.73289102972035 193.0877033536314,129.43088248659578 193.0877033536314,130.71053349086685 192.76197400708864,130.9431973098248 192.45951104244253,131.50159047532546 192.38971189675598,131.92038534945138 192.43624466054922,132.73470871580494 192.3199127510694,133.10697082613927 192.11051531400645,133.36290102699382 191.43579023902765,133.89802781059788 191.08679451058828,134.2470235390356 190.48186858129603,135.0380805234942 189.923475415797,136.01526856311915 189.41161501408791,136.2944651458703 187.4339725529414,136.78305916568277 186.68944833227275,137.10878851222387 186.31718622194006,137.4577842406616 185.5493956193781,138.41170589839157 184.8048713987094,139.08643097337202 184.5256748159599,139.43542670180975 184.31627737889693,139.9705534854138 184.31627737889693,140.38934835953972 184.50240843406328,140.99427428883033 185.037535217669,142.25065891120641 185.0608015995656,142.59965463964414 185.01426883577236,142.94865036808187 184.85140416250266,143.29764609651957 184.43260928837674,143.7164409706455 183.8509497409811,144.0421703171866 182.61783150049996,144.53076433699906 182.33863491775043,144.74016177406202 182.24556939016728,144.9030264473334 182.1757702444807,145.1822230300829 182.22230300827064,145.6242842861038 182.50149959102015,146.4851404162506 182.5480323548134,146.8806689084799 182.45496682723024,147.36926292829236 182.19903662637404,147.83459056620987 181.94310642552114,148.11378714895937 181.47777878760527,148.39298373171056 180.03526311006118,148.88157775152303 179.1046078342262,149.13750795237758 178.26701808597764,149.30037262564895 177.35962919203925,149.3701717713355 175.87058075070522,149.3934381532321 174.8235935653904,149.30037262564895 174.4047986912678,149.3701717713355 172.0083613559954,150.44042533854525 170.2866490957018,150.92901935835772 169.89112060347247,151.13841679542068 169.23966191038699,151.6502771971281 168.44860492592838,151.97600654367088 168.00654366990915,152.09233845315066 167.30855221303372,152.11560483504562 165.67990548032327,151.6968099609197 164.74925020449157,151.55721166954496 164.07452512950945,151.55721166954496 163.33000090884408,151.74334272471293 162.72507497955183,152.06907207125403 162.12014905025958,152.55766609106652 161.37562482959092,153.3952558393167 161.02662910115484,153.95364900481738 160.93356357357166,154.44224302462985 161.00336271925823,155.16350086340188 161.18949377442456,155.9080250840689 161.46869035717407,156.58275015904772 160.09597382531985,156.48968463146454 159.18858493138146,156.3500863400898 158.56039262019587,156.1872216668184 157.37380714350797,155.74516041079752 156.6525493047359,155.60556211942279 156.30355357629657,155.58229573752615 155.8382259383807,155.67536126511098 154.58184131600626,156.14068890302684 153.97691538671398,156.14068890302684 153.37198945742173,155.8382259383807 151.97600654367088,154.79123875306755 151.02208488593925,154.3724438789433 149.04444242479275,153.97691538671398 146.92720167226983,153.83731709533757 145.08915750249975,153.3021903117335 144.74016177406037,153.27892392983856 144.18176860856136,153.37198945742173 142.34372443878794,153.95364900481738 141.87839680087208,154.02344815050557 139.9240207216222,153.97691538671398 139.45869308370305,153.8838498591308 139.109697355267,153.65118604017124 138.69090248114108,152.9997273470874 138.48150504407812,152.44133418158836 137.85331273289253,150.1612287557941 137.57411615013973,149.50977006271023 137.1553212760171,148.78851222393985 136.80632554757773,148.32318458602234 136.38753067345183,147.92765609379305 135.75933836226625,147.50886121966877 134.71235117695144,146.8806689084799 134.2702899209322,146.69453785331356 133.7584295192231,146.5549395619388 133.2233027356174,146.5316731800422 132.73470871580494,146.57820594383378 132.29264745978242,146.67127147141693 131.71098791238677,146.90393529037652 130.36153776242915,147.64845951104354 129.82641097882345,147.78805780241828 129.47741525038737,147.76479142052168 128.87248932109512,147.55539398346036 128.24429700990623,147.22966463691762 126.24338816686311,145.694083431792 125.68499500136409,145.34508770335427 125.21966736344494,145.1356902662913 124.47514314277957,144.99609197491657 122.31136962646673,144.97282559301993 120.07779696446403,144.69362901027043 119.68226847223472,144.5540307188957 119.28673998000544,144.29810051804114 117.70462601108822,142.90211760429028 117.2625647550657,142.99518313187343 116.89030264473301,142.99518313187343 116.19231118785758,142.69272016722732 115.23838953012925,142.46005634826938 114.49386530946059,142.46005634826938 113.02808325002317,142.59965463964414 112.56275561210732,142.18085976551987 111.23657184404301,141.27347087158148 110.65491229664737,140.6452785603926 110.23611742252146,140.38934835953972 109.5148595837494,140.20321730437172 107.7931473234558,140.22648368626835 107.21148777606015,140.08688539489359 106.93229119331065,139.9240207216222 106.62982822866451,139.66809052076766 106.350631645915,139.24929564664174 106.25756611833184,138.83050077251747 106.28083250022846,137.62064891393297 106.0947014450588,137.1320548941205 105.72243933472612,136.6201944924114 105.14077978733049,136.2246660001821 103.25620285376715,135.29401072434874 102.34881395982876,134.5727528855767 101.23202762882741,133.87476142870128 100.48750340816204,133.2233027356174 99.60338089612027,132.24611469599247 99.1147868763078,131.8040534399716 98.7192583840752,131.59465600290864 98.16086521857618,131.47832409342885 95.50849768245087,131.43179132963726 94.85703898936536,131.2456602744709 94.22884667817979,130.8966645460332 93.55412160319767,130.40807052622074 93.181859492865,130.059074797783 92.60019994546936,129.22148504953282 92.22793783513667,128.9655548486783 91.97200763428047,128.84922293919848 91.36708170498821,128.82595655730353 90.66909024811278,128.89575570299007 88.55184949559317,129.36108334090758 87.78405889302789,129.314550577116 87.2721984913188,129.15168590384462 86.96973552667268,128.98882123057325 86.59747341634,128.68635826592876 85.45742070344532,127.24384258838468 84.41043351813053,126.24338816686476 83.9683722621113,125.63846223757251 83.29364718712918,124.28901208761323 82.99118422248306,124.00981550486206 82.64218849404699,123.87021721348731 81.78133236390184,123.75388530400917 80.19921839498133,123.75388530400917 78.87303462692033,123.87021721348731 77.59338362264926,123.80041806780076 75.03408161410381,123.96328274107049 73.73116422793612,124.10288103244689 71.9861855857492,124.66127419794591 70.17140779787242,125.10333545396679 69.72934654185318,125.26620012723818 69.00808870308113,125.73152776515568 67.63537217122689,126.9413796237402 67.33290920658077,127.05771153321834 67.05371262382795,127.01117876942675 66.79778242297505,126.871580478052 65.19240207216123,125.38253203671796 64.93647187130834,125.26620012723818 64.65727528855552,125.26620012723818 64.2152140325363,125.42906480050955 62.237571571389786,126.47605198582269 61.027719712805265,127.05771153321834 59.98073252749047,127.38344087976108 59.42233936199145,127.45324002544764 58.887212578385736,127.38344087976108 58.63128237753285,127.2671089702813 58.18922112151031,126.38298645823953 57.84022539307424,125.94092520221864 57.39816413705171,125.5686630918843 56.63037353448973,125.10333545396679 55.583386349178234,124.54494228846778 55.0249931836759,124.35881123329979 54.420067254383646,124.24247932382164 53.675543033718284,124.28901208761323 52.60528946650686,124.52167590657116 51.93056439152805,124.8939380169055 51.74443333636171,125.12660183586341 51.27910569844586,125.94092520221864 50.83704444242332,126.4295192220311 48.92920112696337,127.91856766336514 47.97527946923505,128.77942379351194 47.812414795965324,128.89575570299007 47.48668544942258,128.82595655730353 46.8584931382337,128.33736253749106 46.36989911842123,128.26756339180287 46.113968917568336,128.33736253749106 45.555575752066005,128.61655912024057 45.16004725983671,128.70962464782374 43.996728165045425,128.89575570299007 42.71707716077435,128.98882123057325 41.228028719440324,129.43088248659578 39.762246659999605,129.57048077797054 39.180587112603966,129.80314459692846 38.0405343997093,130.5011360538039 37.38907570662381,130.75706625465844 33.06152867399812,131.82731982186655 32.34027083522607,131.89711896755477 32.03780787057994,131.8040534399716 31.87494319731022,131.59465600290864 31.66554576024726,131.15259474688776 31.38634917749775,130.1521403253662 31.03735344905838,129.5472143960739 30.10669817322337,128.68635826592876 29.75770244478731,128.29082977369782 28.75724802326575,127.47650640734426 28.24538762155666,126.9413796237402 28.059256566390317,126.68544942288565 27.780059983640808,125.94092520221864 27.384531491411504,124.56820867036274 27.03553576297214,122.7999636462792 26.477142597473115,121.45051349631993 25.546487321638107,119.82186676361114 25.244024356991975,119.44960465327681 24.988094156139084,119.24020721621385 23.452512951011816,118.44915023175524 23.010451694992582,118.14668726710912 21.28873943469897,116.40170862492054 20.986276470052843,115.98291375079627 20.707079887303333,115.26165591202422 20.4046169226572,115.05225847496126 19.706625465781773,114.91266018358651 18.822502953740003,114.88939380169154 0,115.09879123875285 0,114.61019721894037 0.0930655275831703,113.00481686812655 0.3722621103326812,111.46923566300094 0.7677906025619815,110.14305189493828 1.4657820594374118,108.5144051622295 2.000908843043121,107.58374988639449 2.7919658275017216,106.39716440970659 5.421066981730415,103.1864037080806 6.305189493772186,101.99981823139105 7.026447332544236,100.78996637280818 7.724438789419666,99.20785240388932 8.073434517859035,97.95146778151488 8.259565573025375,96.9975461237849 8.375897482505165,95.90402617468017 8.608561301461437,92.13487230755184 8.934290648004186,90.06416431882218 9.236753612650316,88.87757884213428 9.632282104879616,87.66772698354976 10.097609742795468,86.55094065255005 10.562937380714626,85.57375261292347 11.284195219483369,84.31736799054735 12.121784967735207,83.08424975006787 12.959374715987048,82.03726256475473 13.9598291375053,81.03680814323317 14.96028355902686,80.2224847768796 16.21666818140462,79.431427792421 17.51958556757231,78.77996909933715 19.078433154592894,78.15177678814828 22.754521494136384,76.91865854766878 24.941561392345847,76.29046623648156 27.384531491411504,75.80187221666743 32.15413978005973,75.01081523220884 33.50358993001735,74.73161864945934 35.178769426517725,74.31282377533341 37.83113696264634,73.40543488139667 43.50813414523296,71.10206307370743 45.13678087794009,70.54366990820675 46.74216122875391,70.07834227028924 49.92965554848493,69.33381804962222 53.97800599836441,68.705625738435 58.86394619649242,68.19376533672592 90.38989366536327,65.98345905662148 108.21194219758172,64.47114423339083 110.51531400527097,64.35481232391105 112.79541943106359,64.33154594201608 115.26165591202258,64.40134508770262 119.3798055075886,64.6340089066622 121.79950922475764,64.58747614287063 122.63709897300618,64.40134508770262 123.96328274107049,63.88948468599519 124.59147505225936,63.56375533945244 126.73198218667558,62.237571571389786 128.1744978642197,61.53958011451436 129.66354630555372,61.074252476596854 131.31545942015748,60.84158865763892 132.6881759520117,60.818322275742304 133.94456057438947,60.95792056711871 135.36380987003696,61.21385076797161 138.38843951649494,61.98164137053524 140.45914750522462,62.33063709897296 142.43678996637442,62.40043624466116 144.18176860856136,62.237571571389786 145.67081704989536,61.86530946105545 146.8574025265833,61.3999818231396 148.04398800327118,60.79505589384734 150.64982277560657,59.259474688721724 151.8829410160877,58.60801599563788 153.44178860310828,57.91002453876245 158.16486412796658,56.21157866036546 160.00290829773667,55.327456148323684 161.14296101063462,54.60619830955164 162.09688266836295,53.86167408888462 162.88793965282156,53.09388348632099 163.585931109697,52.04689630100784 164.1210578933027,50.90684358811153 164.35372171226228,49.790057257111826 164.3769880941556,48.46387348904752 164.16759065709263,47.20748886667307 163.79532854675995,46.113968917568336 163.2136689993643,44.927383440878785 162.72507497955183,44.13632645642018 162.1666818140495,43.39180223575317 161.44542397528076,42.5076797237114 159.70044533309053,40.78596746341944 155.4426974461514,37.08661274197933 153.90711624102414,35.504498773062124 152.97646096519242,34.36444606016581 152.0225393074608,32.96846314641495 151.347814232482,31.595746614559054 150.85922021266953,30.15323093701661 150.67308915750317,29.222575661183253 150.5567572480234,28.384985912933065 150.48695810233684,27.175134054348547 150.51022448423015,26.01181495955561 150.67308915750317,24.592565663909784 151.0918840316291,21.498136871761933 151.18494955921227,19.706625465781773 151.0686176497325,18.054712351176367 150.41715895664697,13.773698082340614 150.23102790148064,11.819322003089079 150.20776151958734,9.725347632462787 150.4404253385436,7.864037080796074 150.76615468508635,6.514586930836799 151.20821594110558,5.18840316277249 151.76660910660792,4.025084067981208 152.25520312642038,3.2107607016259876 152.92992820139918,2.373170953375802 153.67445242206787,1.6984458783953376 154.5120421703164,1.1400527128963158 155.41943106425478,0.6979914568754304 156.25702081250662,0.4187948741242663 157.23420885213156,0.1861310551663406 158.23466327365313,0.04653276379158515 159.42124875034102,0 161.2360265382178,0.06979914568655113 167.58774879578323,0.6281923111872261 169.1233300009105,0.8375897482501858 170.24011633190855,1.1400527128963158 171.6360992456594,1.744978642188576 172.5667545214944,2.3266381895842168 173.05534854130687,2.885031355084892 173.6137417068092,3.7458874852300434 173.93947105334865,4.443878942105474 174.14886849041162,5.281468690357313 174.38153230937118,7.119512860129059 174.5443969826409,11.330727983276608 174.73052803780726,13.331636826319729 175.12605653003655,15.379078433154435 175.6844496955389,17.12405707534301 176.07997818776818,18.00817958738478 176.59183858947728,18.89230209942655 177.19676451876953,19.706625465781773 177.77842406616517,20.334817776968997 178.453149141144,20.893210942469672 179.2907388893958,21.358538580387176 180.01199672816458,21.63773516313669 180.7332545669366,21.800599836408065 181.8733072798346,21.823866218303028 182.9668272289393,21.684267926928275 184.1534127056272,21.312005816595594 185.3167318004185,20.7303462691983 186.1310551667737,20.218485867490863 187.0384440607121,19.52049441061543 187.8062346632741,18.822502953740003 189.64427883304748,16.961192402071635 190.3422702899229,16.356266472779375 191.17986003817146,15.774606925383734 192.0174497864233,15.355812051257814 193.34363355448428,14.960283559028515 194.76288285013177,14.750886121965555 199.74188857584295,14.564755066799215 201.85912932836587,14.355357629736254 203.3714441515965,14.076161046986744 204.8139598291373,13.680632554757443 206.18667636099156,13.075706625465184 207.34999545578614,12.307916022901548 208.14105244024475,11.633190947922737 210.09542851949462,9.446151049713276 211.04935017722624,8.51549577387992 212.35226756339395,7.538307734253325 213.841316004728,6.654185222211555 215.70262655639468,5.863128237752954 217.93619921839738,5.165136780877524 221.00736162864862,4.490411705897059 224.59038444060894,3.932018540398037 226.637826047442,3.7691538671266627 227.66154685086016,3.7691538671266627 228.8481323275481,3.838953012814867 229.77878760338308,3.9785513041896223 230.96537308007098,4.211215123147548 232.68708534036128,4.746341906751604 233.92020358084244,5.211669544669109 235.92111242388555,6.119058438607499 241.2723802599294,8.8877578842126 243.6222848314119,10.00454421521395 246.29791874943382,11.167863310005233 250.36953558120663,12.773243660819054 251.7887848768541,13.40143597200628 252.69617377079248,13.913296373715369 253.60356266472758,14.51822230300763 254.39461964918618,15.169680996091474 255.02281196037507,15.844406071070285 255.4648732163976,16.51913114605075 255.83713532673028,17.42652003998914 256,18.357175315822495 256,18.845769335634966 255.7440697991471,19.77642461146832 255.3485413069178,20.846678178678086 254.46441879487602,22.52185767517846 253.4639643733545,24.103971644097314 250.48586749068642,28.43151867672465 249.32254839589183,30.43242751976777 246.48404980460018,36.57475234027024 242.9708261383264,43.57793329092116 242.34263382713752,45.20658002362995 242.08670362628462,46.39316550031785 242.08670362628462,47.02135781150508 242.20303553576443,47.60301735890237 242.4124329728274,48.09161137871484 242.73816231937013,48.53367263473572 243.06389166590958,48.812869217485236 243.7851495046816,49.20839770971453 244.57620648914022,49.4875942924657 245.4835953830786,49.65045896573707 245.53012814686855,49.743524493320244 245.5766609106618,50.06925383986134 245.50686176497524,50.743978914841804 245.41379623739206,50.95337635190311 244.83213668999312,51.88403162773812 244.73907116240994,52.512223938925345 244.85540307188973,53.09388348632099 245.2276651822257,54.09433790784255 245.36726347359883,55.74625102244795 245.7395255839315,57.142233936198814 246.0187221666843,57.88675815686583 246.06525493047425,58.3753521766783 245.87912387530793,59.51540488957627 245.8325911115147,60.70199036626417 245.3439970917022,61.98164137053524 245.04153412705608,63.982550213578364 245.04153412705608,64.75034081614034 245.13459965463923,65.56466418249556 245.29746432791228,66.16959011178783 245.64646005634833,67.19331091520435 245.66972643824496,67.75170408070503 245.3439970917022,69.77587930564312 245.18113241843247,70.19467417976904 244.57620648914022,71.33472689266534 243.8782150322648,73.5217667908748 243.761883122785,74.3826229210216 243.8782150322648,75.75533945287586 244.0178133236412,76.56966281923107 243.94801417795134,77.1978551304183 243.41288739434893,78.80323548123212 242.99409252022303,79.66409161137892 242.66836317368026,80.73434517858703 242.1565027719712,81.47886939925405 241.10951558665968,82.45605743888065 240.76051985822033,82.92138507679815 240.29519222030447,83.8985731164231 240.13232754703475,84.78269562846486 240.15559392892806,85.24802326638238 240.31845860220108,86.13214577842415 240.85358538580348,87.4583295464868 241.20258111424286,88.08652185767568 241.94710533490823,88.76124693265449 243.18022357538936,89.41270562573833 243.66881759520183,89.73843497228108 244.1341452331177,90.13396346451039 244.4133418158705,90.50622557484306 244.57620648914022,90.99481959465554 244.45987457966044,91.669544669636 244.48314096155704,92.04180677996868 245.11133327274592,93.60065436699091 245.3439970917022,94.64764155230407 245.3439970917022,95.18276833590812 244.9252022175796,97.34654185222261 244.55294010724361,98.1375988366812 243.80841588657825,99.0449877306196 243.41288739434893,99.67318004180683 243.29655548486915,100.13850767972433 243.31982186676578,101.04589657366272 243.20348995728597,101.76715441243311 242.94755975642977,102.53494501499675 242.7148959374735,102.97700627101764 242.10997000818125,103.67499772789307 241.7842406616385,103.93092792874762 240.94665091338666,104.44278833045504 240.15559392892806,105.25711169681027 239.8298645823886,105.51304189766482 237.52649277469936,106.86249204762409 236.73543579024076,107.2114877760618 236.36317367990807,107.46741797691635 236.1537762428451,107.72334817776924 235.9909115695721,108.00254476052041 235.66518222303264,109.16586385531335 235.45578478596968,109.53812596564602 233.96673634463568,110.39898209579283 232.64055257657137,111.05044078887667 231.15150413523733,111.70189948196052 230.3371807688821,111.95782968281341 229.6857220757999,112.02762882850162 226.56802690175545,112.1439607379814 222.47314368808603,112.09742797418981 221.70535308552405,112.26029264745954 220.0767063528136,113.00481686812655 218.91338725802234,113.23748068708613 217.35453967099843,113.2607470689811 216.4006180132701,113.33054621466931 214.77197128055968,113.60974279741882 213.95764791420444,113.70280832500198 212.51513223666367,113.70280832500198 211.32854675997575,113.79587385258681 209.5370353539956,113.6562755612104 208.69944560574376,113.7260747068986 205.9772789239319,114.5636644551488 204.39516495501138,115.14532400254443 203.3714441515965,115.72698354994172 201.30073616286685,117.16949922748417 200.50967917840495,117.5184949559219 198.90429882759443,117.89075706625457 196.57766063800855,118.12342088521414 194.9257475234048,118.40261746796367 194.50695264927887,118.42588384986028 194.0183586294664,118.28628555848387 192.38971189675598,117.4021630464421 192.0174497864233,116.96010179042122 191.27292556575463,115.51758611287876 191.04026174679834,115.21512314823264 190.92392983731855,115.12205762064947Z"/>
  </g>
</svg>