<?xml version="1.0" encoding="UTF-8" standalone="no"?>
<svg viewBox="0 0 256 157.8839710809392" xmlns="http://www.w3.org/2000/svg">
  <style>
    g.zone {
      fill: lightgray;
      stroke-width: 2;
      stroke-linecap: square;
      stroke-linejoin: bevel;
      stroke-miterlimit: 3;
      stroke-opacity: 0.8;
      stroke: black;
      fill-opacity: 0.3;
    }
  </style>
  <g class="zone" id="zone">
    <path d="M183.84059248809746,114.14142126609077 183.07317933345118,115.0668312466941 182.5314759301694,115.96967025216001 182.35090812907654,116.55651560571341 182.2606242285301,117.00793510844717 182.2380532533927,117.88820313877729 182.35090812907654,118.58790336801292 182.62175983071583,119.49074237347884 183.9760183389155,122.76353376829577 184.47257979192247,124.2757891024509 184.74343149356497,125.81061541174503 184.811144418974,126.60059954152712 184.76600246869918,127.54858049726785 184.5854346676063,128.78998412978368 183.81802151296006,131.9724916240526 183.45688591077433,133.7104567095754 182.89261153235833,138.0892258860885 182.57661788044422,139.7594780462007 182.30576617880493,140.5720331511202 181.944630576616,141.31687533063064 181.42549814847482,142.0617175101395 180.90636572033043,142.60342091341968 179.52953623699335,143.73196967025328 175.24105096102986,146.71133838829192 173.16452124845554,148.22359372244864 171.13313348615603,149.8035619820144 167.0477869864228,153.14406630224036 165.6258155528109,154.22747310879913 163.70728266619523,155.44630576617917 162.4207370834078,156.0782930700058 161.47275612766546,156.43942867219312 160.47963322165472,156.7554223241056 159.50908129077817,157.00370305060912 158.31281960853397,157.20684182683937 157.25198377711098,157.3196967025216 156.23628989596284,157.34226767765904 154.7014635866671,157.3196967025216 150.54840416152166,156.91341915006268 148.3815905484041,156.86827719978947 146.16963498501173,157.04884500088232 141.1588785046736,157.70340327984636 138.51807441368325,157.8839710809392 136.2835478751535,157.838829130666 133.93616646093986,157.5228354787519 128.15799682595545,156.28143184623605 125.6977605360612,155.5817316169988 123.9823664256726,154.90460236289897 122.2895432904246,153.97919238229724 120.57414918003921,152.82807265032625 116.7822253570795,149.93898783283404 115.26997002292437,148.85558102627527 113.44172103685192,147.72703226944168 111.63604302592009,146.869335214249 109.83036501498827,146.23734791042236 108.04725797919065,145.808499382826 106.06101216716596,145.46993475577608 101.70481396579024,144.9056603773585 100.21512960676931,144.6348086757192 98.68030329747678,144.22853112325865 97.14547698818424,143.64168576970684 95.52036677834528,142.80655968964996 94.16610827014561,141.92629165931984 92.63128196085307,140.84288485276107 88.02680303297227,137.34438370657807 86.19855404690303,135.83212837242132 83.60289190618752,133.28160818197904 82.47434314935553,132.3110562511025 81.16522659142747,131.54364309645624 80.44295538705603,131.22764944454372 79.69811320754717,130.97936871804023 78.77270322694224,130.77622994180996 77.84729324634053,130.64080409099031 76.8993122906014,130.61823311585292 75.90618938458745,130.66337506612612 73.94251454769696,130.93422676776703 70.66972315288162,131.70163992241328 69.2026097689981,131.9499206489168 67.4646446834753,132.13048845000964 65.68153764768088,132.15305942514544 64.34985011461862,132.0402045494632 63.063304531827974,131.83706577323295 58.59425145476841,130.70851701639936 56.585434667606314,130.36995238934944 55.59231176159236,130.3022394639404 54.554046905306805,130.3022394639404 49.99470992770082,130.68594604126355 47.60218656321558,130.68594604126355 45.09680832304651,130.41509433962264 39.589490389701396,129.44454240874612 38.21266090636431,129.30911655792644 36.97125727384848,129.26397460765324 35.594427790511396,129.33168753306387 34.149885381765294,129.53482630929415 28.823135249513037,130.79880091694577 26.90460236289737,131.13736554399568 25.911479456883423,131.25022041967952 24.64750484923018,131.31793334509015 23.76723681890328,131.29536236995276 22.886968788573174,131.18250749426892 21.803561982012795,130.93422676776703 20.923293951682687,130.5730911655797 19.975312995943558,130.03138776229952 19.00476106506702,129.33168753306387 17.153941103860372,127.7065773232233 12.14318462352223,122.85381766884221 11.398342444013371,122.19925938987818 10.585787339092285,121.65755598659959 10.02151296067629,121.34156233468548 9.254099806030023,121.07071063304619 8.418973725971528,120.89014283195333 7.7644154470091005,120.8450008816785 6.003879386348886,120.91271380708913 2.731087991533546,121.29642038441226 2.0088167871620985,121.27384940927647 1.444542408746103,121.16099453359261 1.0156938811481502,120.95785575736235 0.767413154646267,120.75471698113208 0.5642743784159954,120.50643625462858 0.3611356021857239,120.19044260271608 0.11285487568063306,119.28760359725017 0,118.06877093987013 0.022570975134202094,116.91765120790075 0.13542585081804268,115.69881855052071 1.0382648562855599,110.89120084641124 1.5799682595641458,105.45159583847675 1.8508199612034386,104.07476635514126 2.3473814142104126,102.4496561453007 2.7762299418083654,101.50167518956157 3.2727913948153393,100.57626520895825 3.927349673777766,99.5831423029459 5.529888908479321,97.32604478927871 6.3198730382629975,95.97178628107903 6.974431317225424,94.59495679774356 8.396402750837325,90.9836007758783 8.915535178978502,89.92276494445534 9.366954681713864,89.13278081467166 10.044083935813699,88.16222888379512 10.834068065594169,87.2368189031918 11.804619996470707,86.3791218479991 12.865455827893676,85.61170869335284 13.655439957677354,85.16028919061907 14.355140186914598,84.84429553870656 15.122553341560867,84.57344383706567 16.025392347028383,84.37030506083539 16.81537647680885,84.28002116028897 17.62793158172994,84.28002116028897 18.440486686651024,84.37030506083539 19.230470816431495,84.52830188679245 20.652442250043393,85.02486333979942 22.30012343501977,85.88256039499213 24.218656321635436,87.214247928056 26.994886263443803,89.44877446658417 28.123435020275792,90.28390054664106 29.522835478750284,91.16416857697116 31.21565861399827,91.99929465702806 32.07335566919418,92.29271733380315 32.97619467465849,92.54099806030665 33.78874977957957,92.6989948862637 34.78187268559352,92.76670781167432 35.70728266619524,92.76670781167432 36.63269264679696,92.65385293599049 37.761241403632155,92.4281431846244 38.460941632866195,92.22500440839414 39.67977429024782,91.75101393052456 41.079174748719105,91.07388467642474 42.275436430963325,90.3967554223249 46.11250220419466,87.98166108270226 47.53447363780656,87.2368189031918 48.86616117086883,86.6725445247758 50.13013577852207,86.26626697231526 51.46182331158433,85.97284429553855 55.63745371186719,85.49885381766899 57.420560747661604,85.18286016575648 58.43625462881296,84.88943748897978 59.38423558455209,84.52830188679245 60.196790689473175,84.16716628460672 61.122200670074896,83.64803385646235 62.18303650149787,82.9483336272267 62.88273673073511,82.38405924881071 66.2909539763685,79.17898077940438 67.23893493211082,78.38899664962071 68.20948686298736,77.66672544524766 70.26344560042108,76.42532181273182 74.0327984482434,74.52935990125196 75.22906013048761,73.87480162228954 76.58331863868729,73.01710456709525 77.55387056956383,72.27226238758638 78.54699347557776,71.41456533239368 79.2241227296776,70.64715217774742 80.0818197848703,69.56374537118704 81.91006877093955,67.03579615588056 82.60976900017678,66.15552812555045 83.62546288132494,65.02697936871846 84.6411567624763,64.0112854875687 85.72456356903346,63.018162581554755 87.57538353024012,61.551049197672846 89.49391641685578,60.33221654029282 91.16416857696956,59.49709046023593 92.56356903544405,59.00052900723056 95.33979897725241,58.23311585258269 96.49091870922182,57.80426732498634 96.94233821195398,57.578557573620266 97.46147064009836,57.19485099629713 97.75489331687506,56.90142831952043 97.98060306823953,56.58543466760792 98.1611708693356,56.15658614000996 98.18374184446981,55.52459883618495 97.95803209310533,54.75718568153708 97.6194674660538,54.192911303121086 97.16804796332165,53.9446305766176 96.33292188326637,53.69634985011411 95.52036677834528,53.56092399929446 94.75295362369901,53.53835302415866 93.19555633926907,53.764062775524735 91.57044612943011,54.192911303121086 89.67448421794865,54.87004055722092 85.02486333979942,56.67571856815435 83.28689825427662,57.23999294657035 81.48122024334158,57.75912537471312 79.92382295891164,58.075119026627235 78.47928055016554,58.2556868277201 77.05730911655685,58.27825780285751 75.92876035972486,58.210544877446885 74.82278257802707,58.00740610121661 73.67166284605767,57.73655439957732 71.34685240698145,56.90142831952043 65.00440839358104,54.102627402574655 61.50590724739803,52.364662317051845 59.38423558455209,51.100687709398606 57.871980250396966,49.994709927702424 56.450008816785065,48.75330629518659 55.27631810967826,47.46676071239594 54.192911303121086,46.11250220419627 53.24493034737875,44.71310174572338 48.16646094163158,36.4521248457057 47.715041438899426,35.52671486510238 47.399047786985314,34.62387585963646 47.263621936164064,33.60818197848671 47.30876388643888,32.727913948156605 47.557044612940764,31.892787868101312 47.940751190263896,31.102803738317636 48.5050255686831,30.380532533944585 49.24986774819196,29.72597425498216 50.107564803384655,29.206841826837774 51.05554575912379,28.800564274378836 52.11638159054676,28.507141597602132 53.4029271733374,28.326573796509273 54.89261153235512,28.304002821371864 56.31458296596702,28.416857697055704 57.89455122553117,28.64256744842178 61.88961382472116,29.36483865279483 63.13101745723699,29.522835478751887 64.41756304002764,29.59054840416091 65.88467642391116,29.500264503614478 67.26150590724504,29.25198377711099 68.68347734085692,28.75542232410562 69.65402927173346,28.28143184623445 70.48915535178875,27.717157467818456 71.32428143184404,27.017457238582814 72.09169458649032,26.137189208252707 72.6108270146347,25.34720507846903 73.06224651736686,24.53464997354955 73.44595309468998,23.58666901781042 74.50678892611296,20.313877622993477 74.98077940398252,19.072473990477643 75.79333450890361,17.673073532004757 76.19961206136415,17.13137012872457 76.8993122906014,16.341385998942496 77.82472227120311,15.483688943748193 78.88555810262608,14.693704813966121 79.92382295891164,14.039146535002091 82.97090460236251,12.25603949920607 84.84429553870336,11.014635866690238 86.01798624581016,10.044083935813699 86.74025745018483,9.321812731440648 88.83935813789336,6.884147416680597 90.03561982013757,5.687885734437981 90.80303297478383,5.123611356021986 91.52530417915528,4.694762828425636 92.17986245811771,4.401340151648934 92.9924175630388,4.130488450008038 93.75983071768506,3.995062599188391 94.48210192205973,3.9273496737793696 95.15923117615955,3.972491624052585 96.03949920648967,4.153059425145447 96.62634456003987,4.378769176511525 97.23576088873068,4.717333803561442 97.77746429201247,5.123611356021986 98.27402574501623,5.642743784164765 98.59001939693034,6.049021336625309 98.97372597425348,6.703579615587735 99.35743255157662,7.674131546464274 99.5831423029443,8.599541527067597 100.10227473108868,11.511197319697212 100.39569740786217,12.459178275436342 100.84711691059753,13.565156057132526 101.47910421442255,14.738846764239335 101.99823664256694,15.483688943748193 102.72050784693839,16.363956974078302 103.57820490213429,17.199083054135194 104.16505025568449,17.695644507142166 105.15817316169844,18.395344736377808 106.01587021689113,18.869335214247375 106.89613824722124,19.275612766707916 107.9118321283726,19.614177393757835 108.67924528301887,19.794745194850698 109.67236818902961,19.930171045670342 110.46235231881329,19.90760007053454 111.09433962264151,19.817316169988107 111.83918180215036,19.591606418620426 112.47116910597538,19.2304708164347 112.90001763357334,18.846764239111568 113.48686298712674,18.0793510844653 114.818550520189,15.506259918885602 115.56339269969786,14.309998236642986 116.37594780461895,13.226591430082609 118.72332921883256,10.405219537999423 121.36413330981968,6.861576441544791 122.40239816610845,5.71045670957539 123.48580497266562,4.807617704107874 124.43378592840796,4.1756304002812525 125.44947980955611,3.633926997002667 126.53288661611649,3.2502204196795335 127.84200317404134,2.979368718038637 129.24140363251584,2.8439428672189906 130.48280726503165,2.8665138423564 131.56621407159204,2.956797742902831 132.94304355492912,3.1599365191314988 137.186386880621,4.062775524599016 138.9243519661438,4.356198201375719 141.09116557926137,4.53676600246858 142.60342091341968,4.469053077057955 143.95767942161936,4.220772350554468 145.2216540292726,3.7919238229581196 146.1019220595995,3.3630752953617704 149.0135778522291,1.5799682595657494 150.6612590372055,0.8576970551926979 151.8349497443123,0.4965614530069741 152.87321460059786,0.29342267677670253 153.95662140715825,0.13542585081964645 155.64944454240944,0 157.90654205607342,0.045141950273215485 160.20878152001222,0.24828072650348704 163.45900193969337,0.6997002292356419 166.39322870745718,1.263974607653241 168.33433256921026,1.805678010931827 170.04972667959885,2.482807265031663 171.53941103861658,3.317933345088555 172.57767589490211,4.107917474872232 173.77393757714634,5.236466231704222 174.8347734085693,6.523011814494873 177.76900017633633,10.992064891552829 179.8906718391823,13.813436783636012 181.85434667606955,16.16081819784803 183.14089225886022,17.402221830365466 184.45000881678828,18.372773761242 185.64627049902927,19.00476106506702 187.1359548580502,19.614177393757835 190.8601657555977,20.878152001411074 192.25956621407218,21.487568330100288 193.63639569740607,22.187268559337532 194.8326573796503,22.909539763710583 196.11920296244094,23.834949744312304 197.29289366954774,24.782930700053036 198.51172632692618,25.934050432022435 199.70798800917038,27.198025039675677 201.12995944277907,28.84570622465205 202.6196438017968,30.719097160994504 203.83847645917842,32.41192029624409 204.65103156409631,33.653323928759924 205.35073179333355,34.87215658613995 207.87868100864003,39.74748721565845 208.55581026273987,40.785752071945616 209.2329395168397,41.66602010227412 210.13577852230722,42.59143008287744 210.9709046023625,43.29113031211469 211.94145653323903,44.01340151648774 215.30453182860083,46.24792805501752 216.3653676600238,47.060483159937 217.44877446658415,48.053606065949346 218.48703932286972,49.11444189737231 219.5027332040211,50.288132604479124 222.91095044965448,54.59918885558162 224.22006700758251,56.179157115147376 224.9874801622288,57.014283195204264 225.8677481925589,57.82683830012375 226.63516134720516,58.45882560395037 227.42514547698883,59.02309998236637 228.23770058190672,59.51966143537334 229.07282666196522,59.92593898783228 230.7656497972132,60.5579262916589 232.81960853465011,61.00934579439266 234.91870922235864,61.257626520896146 236.70181625815627,61.28019749603195 238.2817845177204,61.21248457062293 240.08746252865546,61.03191676953007 244.39851877975636,60.44507141597666 246.2267677658256,60.28707459001961 247.3327455475234,60.264503614882194 248.39358137894635,60.33221654029282 250.06383353905693,60.603068241932114 251.14724034561732,60.964203844119446 252.09522130135645,61.4156233468532 252.99806030682396,62.02503967554241 253.7654734614702,62.70216892964225 254.35231881502364,63.40186915887789 255.02944806912348,64.44013401516506 255.4808675718556,65.38811497090418 255.79686122376972,66.42637982719134 255.95485804972517,67.28407688238404 256,67.93863516134807 255.95485804972517,69.1348968435907 255.81943219890715,69.92488097337277 255.59372244753945,70.66972315288322 255.05201904426087,71.88855581026326 254.23946393933977,73.03967554223264 253.81061541174503,73.49109504496641 253.06577323223297,74.16822429906624 251.9823664256758,74.9130664785751 250.40239816610844,75.70305060835878 248.91271380708753,76.22218303650156 247.1521777464305,76.60588961382469 245.52706753658836,76.78645741491755 240.2680303297483,77.14759301710488 237.78522306471666,77.41844471874417 234.82842532181223,77.86986422147794 231.0139305237183,78.6147064009884 224.4232057838128,80.10439076000772 220.96984658790458,80.9620878152004 219.77358490566039,81.34579439252354 218.82560394992126,81.72950096984668 217.87762299418213,82.18092047258044 217.2004937400823,82.56462704990356 216.20737083406834,83.35461117968565 215.8010932816078,83.76088873214619 215.37224475401305,84.32516311056219 215.10139305237055,84.77658261329594 214.85311232586866,85.40856991712256 214.6725445247758,86.04055722094918 214.627402574501,86.58226062422938 214.6725445247758,87.62052548051493 215.0336801269615,88.88450008816817 215.5302415799685,90.01304884500176 216.99735496385202,92.85699171222076 217.40363251630936,93.8726855933705 217.62934226767703,94.7078116734258 217.71962616822347,95.81378945512358 217.58420031740542,96.62634456004307 217.2907776406287,97.32604478927871 216.9747839887146,97.77746429201247 216.7039322870753,98.04831599365177 216.27508375947735,98.36430964556588 215.89137718215423,98.59001939693195 214.87568330100606,98.92858402398187 213.58913771821543,99.13172280021215 210.6549109504484,99.31229060130501 208.98465879033782,99.53800035267108 207.44983248104208,99.89913595485841 206.0504320225708,100.48598130841181 205.07988009169426,101.00511373655459 204.22218303650155,101.591959090108 199.34685240698147,105.3387409627929 197.33803561981935,106.7832833715406 195.32921883265726,108.06982895432965 193.81696349850213,108.97266795979557 192.25956621407218,109.76265208957925 187.6550872861914,111.74889790160555 186.41368365367555,112.33574325515895 185.05942514547587,113.17086933521423 183.84059248809746,114.14142126609077Z"/>
  </g>
</svg>