<?xml version="1.0" encoding="UTF-8" standalone="no"?>
<svg viewBox="0 0 140.91475142624165 256" xmlns="http://www.w3.org/2000/svg">
  <style>
    g.zone {
      fill: lightgray;
      stroke-width: 2;
      stroke-linecap: square;
      stroke-linejoin: bevel;
      stroke-miterlimit: 3;
      stroke-opacity: 0.8;
      stroke: black;
      fill-opacity: 0.3;
    }
  </style>
  <g class="zone" id="zone">
    <path d="M104.61157294213872,179.84678076609453 104.98712306438279,180.8065199674007 105.61303993480142,182.01662591686963 106.82314588427033,183.81092094539474 109.78581907090786,187.0656886715574 113.58304808475839,190.6960065199671 115.46079869600835,192.281662591686 117.04645476772727,193.49176854115788 123.09698451507775,197.3307253463738 125.80929095354664,199.25020374898028 134.90594947025357,206.51083944580265 136.53333333333492,208.01303993479965 137.61825590872246,209.22314588426855 138.4528117359414,210.391524042378 139.2873675631603,211.85199674001555 139.95501222494136,213.4793806030969 140.37229013854787,215.02330888345634 140.66438467807893,217.23488182559092 140.58092909535407,222.20048899755383 140.66438467807893,223.78614506927275 140.91475142624165,225.03797881010408 138.78663406682895,226.16462917685408 136.57506112469736,227.62510187448865 135.3649551752225,228.7934800325981 133.90448247759088,230.5877750611232 132.9864710676471,231.4223308883451 128.81369193154066,233.759087204564 124.72436837815908,236.59657701711424 123.3473512632464,237.2224938875299 119.13284433577752,238.34914425427692 116.37881010595213,239.5592502037488 114.20896495517702,240.18516707416447 113.0405867970646,240.47726161369258 112.16430317848327,240.51898940505205 108.03325183373924,240.35207823960826 105.23748981255143,240.35207823960826 103.65183374083253,240.68590057049582 101.98272208638876,241.31181744091148 100.73088834555742,241.64563977179907 98.18549307253825,242.10464547677094 96.59983700081341,242.22982885085526 94.47171964140072,242.14637326813337 91.34213528932534,241.27008964955203 90.59103504482536,241.18663406683015 89.38092909535645,241.18663406683015 88.17082314588752,241.35354523227392 87.25281173594377,241.64563977179907 84.62396088019379,242.7305623471866 83.49731051344975,243.06438467807715 82.57929910350597,243.10611246943662 80.20081499592465,242.81401792990852 79.24107579462438,242.85574572127095 78.40651996739953,243.06438467807715 76.65395273023684,243.8572127139366 75.73594132029307,244.10757946210228 73.02363488182418,244.48312958435227 70.85378973105499,244.56658516707415 69.43504482477987,244.94213528932417 67.59902200489232,245.7349633251836 66.01336593317342,246.56951915240253 65.05362673186721,247.1954360228182 63.59315403422967,248.40554197229008 61.339853300735626,250.49193154034032 60.83911980440428,251.07612061939653 60.338386308067,252.11931540342167 59.96283618582294,253.8301548492249 59.62901385492944,254.45607171964056 59.170008149960516,254.91507742461243 58.66927465362917,255.24889975550002 57.500896495516756,255.62444987775 56.08215158924163,255.7913610431938 52.24319478402869,256 51.15827220864113,255.91654441727812 50.532355338222494,255.74963325183433 49.57261613692222,255.29062754686245 47.90350448247846,253.9553382233092 46.90203748981576,253.2876935615311 43.81418092909688,251.74376528117168 41.64433577832177,250.40847595761844 40.3090464547715,249.94947025264656 39.641401792990436,249.86601466992465 38.72339038304666,249.90774246128709 35.00961695191507,250.57538712306223 32.38076609617104,250.49193154034032 30.377832110839712,250.24156479217464 29.334637326814583,250.0329258353714 28.082803585983243,249.5321923390371 27.16479217603947,248.82281988589952 26.121597392014344,247.362347188262 25.45395273023921,245.77669111654308 26.246780766095696,244.65004074979606 27.123064384677043,243.14784026079903 27.70725346373325,241.77082314588338 28.124531377345672,240.1017114914426 28.37489812550838,238.47432762836124 28.41662591687081,236.42966585167045 28.291442542789454,234.71882640586722 27.91589242053946,232.67416462917643 27.41515892420811,231.130236348817 26.538875305626767,229.4611246943762 25.66259168704542,228.33447432762622 24.535941320295436,227.24955175224162 23.659657701714092,226.66536267318543 21.865362673188976,225.95599022004785 20.196251018745212,225.58044009779786 18.944417277913875,225.4552567237165 18.944417277913875,225.0797066014665 18.31850040750117,223.41059494702571 18.193317033413884,222.6177669111633 18.151589242057387,220.19755501222548 18.443683781582525,218.27807660961605 18.31850040750117,216.98451507742524 17.942950285251175,215.73268133659388 17.06666666666983,214.48084759576255 16.77457212713876,213.4793806030969 16.732844335782264,212.56136919315313 16.983211083944973,210.391524042378 16.899755501226046,209.89079054604665 16.190383048088485,207.88785656071533 15.439282803588496,206.26047269763697 14.855093724532288,205.38418907905265 13.728443357782304,204.21581092094615 13.060798696007172,203.33952730236186 12.518337408313393,202.46324368378052 12.142787286063399,201.58696006519918 11.808964955175831,200.2099429502835 11.09959250203827,195.16088019559868 10.557131214344492,192.82412387937978 10.557131214344492,191.98956805215792 10.89095354523206,191.155012224939 11.433414832925838,190.6125509372452 14.312632436838511,188.6096169519139 17.942950285251175,185.52176039119797 21.114262428688985,183.18500407497908 21.948818255907902,182.35044824775719 24.20211898940787,179.05395273023507 25.45395273023921,176.9675631621848 27.45688671557054,174.6308068459659 29.084270578645942,172.87823960880024 31.713121434395905,169.41483292583433 32.46422167888996,167.8709046454749 32.83977180113996,166.7025264873684 32.83977180113996,165.57587612061843 32.505949470252396,163.44775876120573 32.63113284433968,162.52974735126196 33.29877750611481,161.73691931540253 35.51035044824642,160.3181744091274 36.84563977180262,159.10806845965848 37.30464547677154,158.44042379788038 37.68019559902154,157.64759576202093 38.30611246944017,155.43602281988635 37.68019559902154,154.7266503667488 37.0125509372464,153.64172779136123 36.637000814996405,152.4733496332518 36.3866340668337,150.17832110839532 36.09453952730263,149.4689486552548 35.426894865527494,148.63439282803589 34.50888345558372,147.9667481662578 33.04841075794617,147.29910350448264 32.0886715566459,147.00700896495454 30.252648736758356,146.71491442542646 29.45982070089594,146.4228198859013 28.541809290952166,145.7551752241232 27.790709046458105,144.92061939690134 27.540342298289467,144.21124694376377 27.498614506927037,143.25150774246055 27.87416462917703,142.0831295843511 28.87563162184566,140.45574572126975 28.95908720456459,139.99674001630083 28.750448247758378,139.6629176854103 27.87416462917703,139.2873675631603 25.996414017932988,138.82836185819139 22.69991850040789,138.70317848410707 21.656723716382764,138.53626731866328 20.98907905460763,138.03553382232897 20.112795436026286,136.70024449877573 19.361695191526298,136.24123879380682 18.694050529751163,136.0325998370006 17.525672371638752,135.9491442542787 14.354360228200939,136.4081499592506 13.478076609619594,136.24123879380682 12.35142624286961,135.78223308883491 11.64205378973205,135.40668296658492 10.139853300732069,134.40521597391927 9.555664221681793,133.8627546862255 9.180114099431798,133.11165444172846 8.846291768544232,130.64971475142525 8.220374898125597,128.39641401792824 7.886552567238031,127.64531377343123 6.885085574575331,126.01792991034989 6.42607986960048,125.05819070904666 6.008801955993987,123.84808475957477 5.633251833743992,121.76169519152452 5.257701711493997,120.76022819885885 4.8404237978815745,120.0508557457213 4.297962510187796,119.46666666666509 2.2115729421375403,117.83928280358671 0.7093724531375613,116.1284433577835 0.3338223308875665,115.58598207008971 0.08345558272485656,114.91833740831161 0,114.45933170333973 0.08345558272485656,113.83341483292406 0.3755501222499948,113.08231458842704 1.1266503667499843,112.08084759576137 3.2547677261626684,110.45346373268004 4.256234718825368,110.1613691931549 8.13691931540667,109.86927465362679 9.430480847594508,109.5771801140987 10.431947840263138,109.07644661776735 10.849225753875562,108.65916870415492 11.349959250206911,107.7411572942141 12.226242868788255,105.23748981255143 13.686715566425805,103.19282803586064 14.187449062757155,102.10790546047308 14.312632436838511,101.31507742461363 14.270904645476083,100.52224938875418 14.145721271394727,99.77114914425418 13.644987775063377,98.31067644661664 13.561532192338522,97.60130399347908 13.728443357782304,95.34800325998206 13.519804400982023,92.46878565607236 13.686715566425805,91.7594132029348 14.354360228200939,90.21548492257536 14.521271393644723,89.63129584351915 14.479543602282295,88.25427872860647 13.978810105950945,86.33480032599702 13.937082314588515,85.83406682966567 14.1039934800323,84.9995110024438 14.771638141813362,83.37212713936542 15.147188264057426,81.91165444172788 15.230643846782284,80.78500407497789 14.855093724532288,78.65688671556521 14.81336593316986,77.82233088834629 15.022004889976072,77.02950285248683 15.56446617766985,75.90285248573684 15.647921760394707,75.06829665851497 15.397555012226066,73.69127954360228 15.0637326813385,72.68981255093661 13.019070904644742,70.10268948655204 12.643520782394749,69.26813365933016 12.518337408313393,68.35012224938934 12.60179299103825,67.84938875305504 12.893887530563388,67.26519967400179 13.85362673186959,66.5140994295018 14.437815810919865,65.55436022819856 14.729910350450934,64.63634881825479 14.938549307257146,62.758598207007786 15.188916055419856,62.132681336592114 15.773105134476062,61.548492257538875 16.81629991850119,60.88084759576078 17.567400163001178,60.50529747351375 18.27677261613874,60.338386308067 18.86096169519495,60.38011409942943 19.403422982888724,60.54702526487321 22.658190709045464,62.09095354523265 23.617929910351663,62.38304808476076 24.535941320295436,62.42477587612022 25.746047269764347,62.25786471067644 26.622330888345694,62.00749796251076 27.45688671557054,61.59022004889834 27.95762021190189,61.0060309698451 28.91735941320216,59.00309698451377 29.62673186633972,58.08508557457296 30.753382233089706,57.12534637326676 33.34050529747724,55.706601466991636 34.550611246946154,54.413039934800835 35.55207823960885,52.95256723716328 36.09453952730263,50.99136104319438 36.59527302363398,50.19853300733493 37.221189894052614,49.82298288508493 37.930562347190175,49.53088834555683 39.432762836184224,49.11361043194737 41.47742461287798,48.738060309697374 41.936430317846906,48.571149144253596 42.186797066015544,48.36251018745035 42.52061939690311,47.61140994295036 42.93789731051553,45.52502037489714 43.43863080684688,44.5652811735939 44.565281173596865,43.52208638956878 47.06894865525955,41.97815810920933 47.48622656886604,41.602607986959335 48.69633251834088,39.18239608801855 49.32224938875358,38.55647921760288 51.03308883455978,37.51328443357775 51.61727791361005,36.970823145883976 52.61874490627868,35.00961695191507 53.95403422982895,33.006682966583746 54.0374898125538,32.04694376528051 53.28638956805381,29.62673186633972 52.74392828036004,27.289975550120825 52.1180114099414,26.288508557458126 51.61727791361005,25.912958435208132 51.03308883455978,25.746047269764347 50.19853300733493,25.620863895680028 49.23879380603466,25.662591687042458 46.067481662590914,26.705786471067583 44.356642216790654,26.87269763651137 43.02135289323446,26.580603096983264 39.599674001633936,25.328769356151923 38.84857375713395,25.245313773430034 38.09747351263396,25.245313773430034 36.80391198044019,25.620863895680028 34.00814995925237,27.248247758761362 32.83977180113996,27.623797881011356 33.465688671558596,26.664058679705157 34.13333333333373,25.412224938873816 35.30171149144614,21.823634881826546 35.84417277913992,21.197718011410878 36.84563977180262,20.57180114099521 38.09747351263396,19.987612061939 40.726324368377995,19.069600651995227 41.85297473512798,18.360228198857666 42.47889160554068,17.734311328441997 43.06308068459689,16.89975550122308 44.44009779950958,14.354360228197974 45.14947025264714,13.35289323553231 46.69339853300955,11.683781581091512 47.820048899759534,10.974409127953951 53.36984515077274,9.263569682150726 59.3369193154043,6.676446617766155 62.75859820701075,5.424612876934815 65.34572127139235,4.131051344744013 66.68101059494855,3.5885900570502347 68.3918500407488,3.129584352078348 69.68541157294258,2.9626731866345652 71.06242868785527,2.920945395272137 74.15028524857416,3.129584352078348 75.90285248573684,3.0461287693564567 77.69714751426197,2.7540342298283536 78.82379788101196,2.378484107578359 81.95338223308734,0.8762836185813445 82.9965770171184,0.29209453952810316 83.28867155664354,0 85.79233903830621,3.9641401793002298 88.46291768541268,9.305297473513154 89.42265688671887,11.64205378973205 90.04857375713158,13.436348818257166 90.465851670744,14.980277098613644 90.79967400163156,16.89975550122308 90.96658516707535,19.27823960880144 90.79967400163156,22.449551752242215 89.17229013855024,35.13480032599939 88.75501222493781,39.76658516707476 88.71328443358131,41.936430317846906 88.83846780766267,44.02281988590013 89.1305623471878,46.02575387123145 89.58956805216265,47.98696006520035 90.34066829665672,50.323716381419246 91.30040749796291,52.702200488997605 96.9336593317069,64.05215973920156 98.9365933170323,67.84938875305504 105.44612876935764,79.1158924205371 107.5325183374079,83.2469437652811 108.82607986960167,86.37652811735946 109.4937245313768,88.71328443357835 109.86927465362679,91.17522412387859 109.99445802770815,93.8040749796256 109.91100244498922,99.3121434392823 109.95273023635166,101.69062754686065 110.20309698451436,104.11083944580145 110.66210268948922,106.15550122249223 111.49665851670812,108.90953545232355 112.62330888345811,111.62184189078948 117.92273838630861,122.05378973104966 119.2580277098648,125.05819070904666 120.21776691116507,127.64531377343123 121.09405052974643,130.5245313773439 121.8451507742464,134.11312143439116 122.5962510187464,138.78663406682895 123.26389568052153,143.91915240423864 123.63944580277153,148.550937245314 123.5559902200526,152.18125509372368 123.30562347188396,153.80863895680503 122.88834555827154,155.51947840260826 122.38761206194019,156.97995110024283 121.76169519152748,158.39869600651795 120.21776691116507,160.77718011409928 119.09111654442103,162.15419722901197 117.67237163813996,163.61466992664953 114.91833740831458,166.11833740831221 108.82607986960167,171.12567237163756 107.61597392013276,172.25232273838458 106.57277913610763,173.42070089649403 105.52958435207657,175.0063569682159 104.98712306438279,176.34164629176914 104.69502852485765,177.92730236348805 104.61157294213872,179.84678076609453Z"/>
  </g>
</svg>