<?xml version="1.0" encoding="UTF-8" standalone="no"?>
<svg viewBox="0 0 206.9361147327274 256" xmlns="http://www.w3.org/2000/svg">
  <style>
    g.zone {
      fill: lightgray;
      stroke-width: 2;
      stroke-linecap: square;
      stroke-linejoin: bevel;
      stroke-miterlimit: 3;
      stroke-opacity: 0.8;
      stroke: black;
      fill-opacity: 0.3;
    }
  </style>
  <g class="zone" id="zone">
    <path d="M157.87222946545307,211.53734401192136 157.58614267088896,212.1810392996838 157.18085304526045,212.7055317563801 156.56099832371058,213.253864779289 155.29744831439996,214.06444403054599 155.01136151983926,214.37437139132095 154.8683181225572,214.68429875209588 154.84447755634295,214.89886384801727 155.05904265226434,216.44850065189027 155.0352020860501,216.90147140994728 154.89215868877145,217.40212330042937 154.48686906314293,218.2842242503257 152.88955112683973,220.42987520953608 151.95976904451828,221.43117899050193 150.8154218662721,222.76625069845528 150.10020487986864,223.95827900912656 148.81281430434038,225.84168373998878 148.33600298007252,226.31849506425831 146.52411994785135,227.65356677221163 144.44999068728032,229.41776867200605 142.80499161855204,230.56211585025224 142.49506425777707,230.8720432110272 142.35202086049844,231.18197057180214 142.28049916185572,231.46805736636284 142.30433972806995,231.82566585956457 142.61426708884488,233.1607375675179 143.0195567144734,236.0454460793443 143.21028124418055,236.83218476438876 143.4248463401019,237.33283665487085 143.73477370087687,237.8334885453529 144.11622276029112,238.3341404358367 144.75991804805525,239.00167628981166 145.09368597504445,239.50232818029545 145.5228161668872,240.43211026261858 145.9281057925157,241.57645744086477 145.9757869249408,241.86254423542547 145.83274352766213,243.10225367852527 145.85658409387298,243.6267461352216 146.02346805736929,244.19891972434468 146.52411994785135,244.91413671074815 146.73868504377273,245.6293536971516 146.81020674241205,246.3684112497676 146.64332277891916,247.465077295587 146.66716334513,248.84783013596544 146.7148444775585,249.20543862916716 147.09629353697275,250.2544235425598 147.120134103187,250.4689886384812 146.23803315329064,250.5881914695473 145.57049729931228,250.7550754330419 144.56919351834813,251.11268392624362 144.0447010616518,251.39877072080432 142.9003538834056,252.20934997206305 141.15999254982376,253.7828273421503 140.37325386478096,254.40268206370018 139.22890668653474,255.11789905010366 138.20376233935636,255.57086980815893 136.91637176383148,255.90463773514642 135.7243434531602,256 134.46079344384617,255.9523188675732 132.7681132426928,255.61855094058572 130.8131868131896,254.9748556528216 129.09666604582196,254.21195753399135 127.83311603650795,253.44905941516112 126.80797168932955,252.54311789905054 126.16427640156543,251.70869808157926 125.71130564351182,250.80275656546868 125.47289998137622,250.15906127770626 124.80536412740123,247.72732352393348 124.30471223691916,246.46377351462115 123.68485751536926,245.43862916744277 123.3034084559516,245.0094989756017 122.850437697898,244.62804991618574 122.08753957906607,244.1512385919179 121.06239523188768,243.72210840007514 117.55783199851311,242.69696405289676 115.93667349599568,242.12479046377365 114.48239895697792,241.457254609797 113.52877630843885,240.88508102067556 112.45595082883536,240.0983423356311 111.52616874651052,239.24008195194727 110.73943006146436,238.35798100204923 108.54609796982889,235.64015645371578 107.80704041721121,234.90109890109977 107.06798286459352,234.23356304712308 106.35276587819006,233.73291115664102 105.56602719314728,233.23225926615723 102.39523188675851,231.65878189606997 101.03631961259093,230.89588377723973 99.55820450735892,229.87073943006135 98.43769789532696,228.91711678152396 96.91190165766648,227.36747997764925 96.33972806854507,226.60458185881902 95.86291674427385,225.865524306203 95.50530825107381,225.10262618737278 95.2669025889382,224.48277146582288 94.67088843360254,221.66958465263585 94.31327994039913,220.69212143788423 93.9556714471991,220.0961072825486 93.47886012293125,219.50009312721295 92.95436766623493,218.99944123672915 92.42987520953861,218.64183274352743 91.71465822313516,218.26038368411315 90.9994412367317,217.97429688955077 89.54516669771056,217.61668839635072 87.44719687092866,217.44980443285613 84.77705345502198,217.47364499906868 82.2737940026082,217.64052896256328 80.31886757310497,217.8789346246972 78.43546284224445,218.26038368411315 74.57329111566648,219.19016576643799 72.61836468616325,219.5477742596397 70.44887316073864,219.7623393555594 68.0886571056069,219.7623393555594 66.65822313279999,219.61929595827905 65.25162972620731,219.40473086235767 63.034457068357625,218.88023840566305 61.69938536040428,218.42726764760775 60.102067424104476,217.8312534922704 57.90873533246563,216.78226857887947 56.478301359658715,215.995529893835 55.54851927733389,215.4233563047119 54.66641832743753,214.8035015831637 53.617433414044896,213.92140063326565 53.04525982492349,213.34922704414254 52.37772397094513,212.56248835909975 51.853231514248805,211.7995902402695 51.32873905755587,210.79828645930365 50.89960886571313,209.53473644999136 50.75656546843108,208.72415719873433 50.66120320357751,207.6751722853417 50.68504376979175,206.36394114360257 50.87576829949889,202.8355373440121 50.94728999813822,200.40379959024102 50.85192773328465,198.71111938908595 50.63736263736327,197.28068541627906 50.18439187930967,195.68336747997753 49.8029428198954,194.8012665300812 49.42149376047774,194.15757124231706 49.063885267277705,193.60923821940818 48.53939281058138,192.9893834978583 47.323523933695846,191.89271745204059 46.77519091078529,191.53510895883886 46.012292791956746,191.15365989942288 44.62953995157493,190.67684857515334 43.34214937605006,190.43844291301943 41.93555596945739,190.43844291301943 40.43360029800776,190.67684857515334 39.551499348111406,190.93909480350152 38.74092009685439,191.24902216427645 37.52505121996885,191.8450363196138 35.045632333769305,193.37083255727427 34.11585025144447,193.89532501396891 32.89998137455894,194.39597690445268 31.588750232819834,194.72974483144017 30.182156826227164,194.8727882287205 29.3477370087559,194.84894766250798 28.51331719128464,194.7535853976544 26.844477556342113,194.3482957720242 25.080275656549407,193.65691935183497 22.64853790277834,192.4172099087352 19.906872788228938,190.77221084000863 17.022164276404265,188.7696032780786 14.781151052340332,186.95772024585574 13.589122741665648,185.81337306761122 12.42093499720859,184.52598249208467 8.654125535484178,179.61482585211405 3.8621717265813684,173.91693052710065 3.123114173963674,173.1540324082704 2.2886943564924116,172.43881542186693 1.168187744460445,171.6759173030367 0,171.03222201527257 0.4291301918427507,170.48388899236372 1.7880424660103318,169.07729558577105 2.407897187560219,168.67200596014254 3.099273607749435,168.40975973179437 3.9813745576457875,168.21903520208724 4.81579437511705,168.14751350344622 6.866083069473847,168.3143974669408 8.081951946359382,168.29055690072656 8.534922704416372,168.195194635873 9.822313279941236,167.7422238778177 10.466008567705362,167.5753399143231 12.635500093129966,167.36077481840172 13.088470851183569,167.19389085490883 14.113615198361966,166.64555783199827 14.685788787486764,166.47867386850538 15.591730303597355,166.4309927360786 16.83143974669713,166.64555783199827 17.093685975043595,166.5978766995715 17.35593220339006,166.47867386850538 17.475135034457868,166.264108772584 17.522816166886347,165.5727323523931 17.665859564165004,165.1674427267646 18.261873719504038,164.0946172471594 18.595641646489835,163.6416464891041 19.21549636803972,162.97411063512743 21.289625628610757,161.23374930154557 21.981002048799972,160.4470106165028 22.863102998696327,159.0880983423352 24.98491339169584,157.22853417768724 25.55708698081725,156.60867945613737 25.91469547402067,156.13186813186783 26.105420003727808,155.6073756751732 26.105420003727808,155.01136151983584 26.010057738874238,154.55839076178057 25.46172471596368,153.22331905382723 25.390203017324353,152.8657105606255 25.437884149749443,152.531942633638 25.62860867945658,152.22201527286305 26.653753026634977,150.91078413112396 27.2974483143991,150.29092940957406 30.134475693798684,148.33600298007084 30.730489849134333,147.97839448686912 31.660271931459164,147.66846712609416 33.09070590426607,147.38238033153345 33.82976345688377,147.2870180666799 35.35555969454425,147.23933693425312 36.83367479977964,146.92940957347818 38.38331160365097,147.0009312721175 40.1713540696613,146.9532501396907 41.6494691748933,147.1678152356121 42.48388899236456,147.09629353697107 43.10374371391445,146.9532501396907 43.89048239895723,146.59564164648899 44.60569938536069,146.19035202086047 45.821568262249606,145.30825107096413 46.036133358167596,145.18904823989632 46.46526355001035,145.09368597504275 46.87055317563886,145.09368597504275 47.347364499910086,145.21288880610885 50.66120320357751,146.14267088843368 51.734028683184384,146.40491711678186 52.330042838520036,146.45259824920865 52.68765133172007,146.4287576829961 52.99757869249501,146.33339541814084 53.164462655991294,146.2141925870747 53.402868318123524,145.83274352765875 53.736636245112706,144.59303408456066 54.11808530452698,143.85397653194298 54.90482398957315,142.82883218476456 56.26373626373734,141.39839821195767 56.669025889365855,140.77854349040777 56.95511268392656,139.8249208418704 57.09815608120861,138.27528403799568 56.90743155150147,136.39187930713348 56.93127211771571,134.77072080461943 56.43062022723363,132.88731607375723 56.33525796237667,132.33898305084836 56.33525796237667,131.86217172657882 56.549823058298045,130.78934624697365 56.549823058298045,130.3602160551309 56.26373626373734,129.5019556714471 55.88228720432307,128.00000000000085 55.333954181412516,126.5457254609797 55.071707953066046,125.01992922331922 54.928664555784,123.70869808158011 54.02272303967341,122.18290184391964 53.617433414044896,120.70478673868594 53.42670888433776,120.25181598063065 53.188303222202144,119.96572918606824 53.188303222202144,119.84652635500044 53.379027751909284,119.58428012665398 53.92736077481984,119.20283106723801 54.61873719500906,118.9644254051041 56.02533060160512,118.70217917675593 56.38293909480515,118.53529521326134 56.669025889365855,118.29688955112742 56.93127211771571,117.96312162413824 57.12199664742285,117.55783199850973 57.2650400447015,115.98435462842247 57.38424287576931,115.65058670143497 57.64648910411916,115.29297820823325 59.1484447755654,113.86254423542634 60.3404730862367,113.14732724902288 61.365617433415096,112.19370460048381 61.84242875768633,111.71689327621597 62.43844291302197,110.88247345874471 62.65300800894335,110.66790836282333 63.58279009126479,110.11957533991446 64.727137269511,109.23747439001642 65.63307878562159,108.73682249953434 65.8714844477572,108.52225740361297 66.06220897746434,108.16464891041124 66.08604954367858,107.71167815235594 65.65691935183582,105.87595455392052 65.63307878562159,105.54218662693303 65.68075991805007,105.32762153101166 65.77612218290363,105.1845781337313 66.13373067610367,104.94617247159569 67.0158316260034,104.54088284596718 67.5164835164855,104.37399888247428 69.66213447569585,104.15943378655291 71.37865524306346,104.15943378655291 73.07133544422024,103.70646302849761 74.1918420562522,103.49189793257624 74.54945054945223,103.3011734028691 75.31234866828417,102.51443471782461 75.74147886012354,102.22834792326391 76.31365244924832,102.03762339355508 77.10039113429112,101.96610169491575 77.93481095176237,102.06146395976933 78.5785062395265,102.32371018811749 79.91357794747645,103.53957906500302 80.6287949338799,104.37399888247428 81.72546097970103,104.3263177500475 82.67908362823671,104.35015831626005 85.3015459117183,104.92233190538315 85.84987893462547,104.92233190538315 86.94654498044659,104.7792885081028 87.49487800335376,104.82696964052958 87.85248649655718,104.97001303780993 88.23393555597146,105.30378096479741 89.18755820451052,106.59117154032397 89.33060160178918,106.87725833488638 89.44980443285698,107.21102626187387 89.47364499907123,107.56863475507559 89.44980443285698,107.8547215496363 89.18755820451052,108.64146023468078 89.18755820451052,108.9990687278825 89.37828273421766,109.49972061836458 89.71205066120345,109.83348854535376 91.19016576643884,110.596386664184 91.52393369342802,110.88247345874471 92.191469547403,111.66921214378918 93.59806295399567,112.57515365989978 95.2669025889382,114.12479046377449 96.6973365617451,114.91152914881728 97.98472713726997,115.93667349599568 98.48537902775205,116.05587632706349 99.17675544794466,116.0081951946367 100.20189979512305,115.81747066492787 101.01247904638008,115.60290556900819 101.13168187744789,115.50754330415462 101.60849320171572,114.86384801639049 101.8230582976371,114.45855839076198 101.96610169491575,114.00558763270669 102.03762339355848,113.52877630843716 102.01378282734423,111.83609610728209 102.06146395976933,110.88247345874471 102.49059415161207,109.16595269137709 102.44291301918699,108.76066306574857 102.2760290556907,108.40305457254685 101.46544980443367,107.47327249022202 101.2032035760872,106.99646116595248 101.13168187744789,106.32892531197582 101.37008753958011,105.35146209722589 101.60849320171572,104.85081020674212 101.9422611287049,104.54088284596718 102.37139132054426,104.37399888247428 104.25479605140816,103.92102812441898 104.80312907431873,103.70646302849761 105.27994039858656,103.39653566772267 105.6375488917866,103.03892717452094 105.89979512013646,102.63363754889242 106.09051964984359,101.96610169491575 106.25740361333649,100.24958092754814 106.25740361333649,99.34363941143586 106.16204134848292,98.24697336561813 105.92363568635069,97.10262618737192 105.85211398770798,96.33972806854169 105.68523002421507,95.95827900912741 104.66008567703668,94.9808157943758 104.30247718383326,94.40864220525269 104.1594337865546,93.9556714471974 104.13559322034037,93.52654125535464 104.23095548519393,92.71596200409762 104.46936114732955,92.14378841497452 104.82696964052958,91.61929595827989 105.27994039858656,91.14248463401036 105.61370832557574,90.8802384056622 106.47196870925787,90.47494878003369 108.379214006336,90.06965915440517 108.80834419817536,89.90277519091059 109.09443099273946,89.68821009499091 109.28515552244659,89.30676103557494 109.4043583535144,88.23393555596975 109.54740175079306,87.804805364127 110.310299869625,86.80350158316284 110.5963866641857,86.23132799403975 110.62022723039993,85.87371950083802 110.47718383311789,85.37306761035593 109.71428571428595,83.91879307133648 109.59508288322154,83.44198174706695 109.6904451480751,82.96517042279741 110.310299869625,81.79698267833867 110.45334326690364,81.17712795678877 110.42950270068941,80.74799776494771 110.00037250885005,78.79307133544448 109.97653194263582,78.38778170981598 110.04805364127513,78.03017321661424 111.57384987893562,77.21959396535722 112.26522629912483,76.95734773700906 112.86124045446387,76.93350717079483 114.31551499348163,77.21959396535722 115.03073197988509,77.24343453156978 115.55522443658141,77.1480722667162 116.31812255541334,76.62357981002158 116.65189048239914,76.55205811138056 117.05718010803103,76.59973924380733 117.84391879307381,76.79046377351447 119.13130936859868,77.24343453156978 119.48891786180211,77.29111566399655 119.79884522257704,77.26727509778401 120.29949711305913,77.10039113428942 121.08623579810191,76.69510150866091 121.7060905196518,76.24213075060561 122.20674241013387,75.74147886012354 122.44514807226949,75.14546470478619 122.49282920469459,73.85807412926133 122.63587260197663,73.28590054013821 122.99348109517666,72.78524864965614 123.9232631775015,72.0223505308259 124.51927733283713,71.35481467684923 124.82920469361208,70.7111193890851 125.2344943192406,69.399888247346 125.73514620972267,68.44626559880862 125.94971130564404,67.82641087725874 126.04507357049762,66.51517973551964 126.04507357049762,64.82249953436457 126.30731979884747,63.01061650214169 126.59340659340818,61.98547215496329 126.71260942447599,61.055690072640154 126.6649282920475,60.84112497671878 126.52188489476885,60.57887874837062 125.61594337865826,59.696777798472574 125.25833488545483,59.19612590799049 125.11529148817617,58.67163345129418 125.13913205438702,58.290184391879905 125.25833488545483,57.813373067610364 125.59210281244401,57.19351834606048 127.23710188117231,55.76308437325357 128.40528962562936,54.33265040044666 128.73905755261853,53.73663624511101 128.90594151611143,53.16446265598791 128.5483330229114,50.780406034643626 128.35760849320428,50.375116409015114 128.16688396349713,50.20823244552052 126.97485565282244,49.65989942261166 126.06891413671185,48.968523002420746 124.9007263922548,48.20562488359051 123.73253864779436,47.25200223505313 122.15906127770879,47.299683367479915 121.03855466567681,47.25200223505313 120.2279754144164,47.132799403985324 119.89420748743062,47.01359657291921 119.46507729558786,46.70366921214427 116.4134848202669,44.009685230025035 116.1273980257062,43.62823617060907 115.93667349599568,43.12758428012699 115.81747066493126,42.36468616129675 115.86515179735635,41.55410691003973 115.50754330415631,40.67200596014168 115.3883404730885,40.02831067237925 115.19761594338136,39.76606444403109 114.57776122183148,39.384615384615124 114.10094989756026,38.97932575898661 113.3857329111568,38.240268206370615 112.81355932203539,37.47737008754037 112.50363196126045,36.9767181970566 112.33674799776755,36.595269137642326 112.33674799776755,36.30918234308162 112.43211026262112,35.83237101881209 112.38442913019264,35.6654870553175 112.02682063699261,35.54628422425138 108.87986589681809,35.188675731049656 107.97392438070749,35.188675731049656 105.82827342149713,35.49860309182291 105.27994039858656,35.47476252561036 104.80312907431873,35.33171912833001 104.30247718383326,35.06947289998185 103.8733469919939,34.735704972992664 103.56341963121895,34.42577761221772 103.37269510151181,34.11585025144447 103.25349227044401,33.591357794748156 103.46805736636539,32.28012665300905 103.4203762339369,32.065561557087676 103.25349227044401,31.99403985844665 104.3263177500475,31.445706835537788 106.44812814304362,30.01527286273088 108.11696777798615,29.34773700875421 108.7129819333218,29.2285341776864 111.0493574222393,29.133171912832832 111.97913950456413,29.037809647979262 112.55131309368893,28.89476625069891 112.7658781896103,28.823244552057886 113.00428385174253,28.63252002235075 113.09964611659609,28.298752095363263 113.00428385174253,27.98882473458832 112.45595082883536,27.249767181970626 112.33674799776755,27.011361519836704 112.33674799776755,25.03259452412093 112.74203762339606,24.17433414043543 113.52877630843885,23.125349227044484 113.71950083814598,22.743900167628517 113.74334140436022,22.433972806853575 113.43341404358527,21.57571242316977 113.48109517601375,20.598249208418153 113.62413857329241,20.097597317936074 114.2439932948423,19.072452970757674 114.57776122183148,17.904265226298925 114.79232631775285,18.1188303222203 115.1022536785278,18.333395418141674 115.74594896628854,18.571801080275595 116.60420934997404,18.6910039113434 118.20152728627384,18.6910039113434 118.96442540510579,18.738685043770186 119.53659899422719,18.857887874837992 120.2279754144164,19.1439746693987 120.65710560625917,19.406220897746856 121.01471409946258,19.692307692307562 121.89681504935893,20.908176569193095 122.5643509033373,21.4803501583162 123.16036505867295,22.124045446080327 123.42261128701941,22.26708884336068 123.89942261128725,22.362451108214245 124.9007263922548,22.314769975787463 125.66362451108334,22.38629167442679 127.47550754330453,22.743900167628517 128.9297820823257,23.19687092568551 129.76420189979694,23.17303035947127 130.55094058483974,22.910784131123112 131.71912832930016,22.219407710933893 133.07804060346774,21.170422797541256 134.05550381821766,20.669770907059178 135.00912646675675,20.4552058111378 135.93890854908156,20.31216241385745 138.20376233935636,20.264481281430665 138.6328925311991,20.169119016577095 138.89513875954896,20.04991618550929 140.13484820264534,18.905569007264777 140.63550009312743,18.261873719500652 141.1361519836129,17.35593220339006 141.56528217545227,16.879120879120524 142.01825293350925,16.569193518345582 143.8062953995162,15.66325200223499 144.14006332650538,15.329484075247501 145.04600484261596,14.25665859564232 145.4751350344587,13.851368970013807 147.3585397653226,12.80238405662117 148.00223505308335,12.32557273235333 149.2181039299689,10.632892531198259 149.88563978394725,9.107096293537781 150.1955671447222,8.67796610169503 150.69621903520428,8.248835909852279 151.64984168374335,7.605140622089848 152.86571056062888,6.889923635686392 153.31868131868248,6.4846340100578805 154.60607189421074,4.577388712981436 155.36897001303927,3.099273607747741 156.0603464332285,2.1218103929978205 156.25107096293564,1.5973179363015015 156.465636058857,0.4291301918427507 156.70404172099262,0 156.82324455206043,0.45297075805529574 157.0854907804069,1.0489849133926377 157.34773700875675,1.4781151052336945 157.60998323710322,1.7403613335818537 158.20599739243886,2.026448128142558 159.46954740175286,2.813186813187037 161.04302477184183,3.4807226671637075 162.90258893648812,4.62506984540822 163.61780592289156,5.268765133172345 164.0946172471628,5.960141553361562 164.2138200782272,6.293909480350744 164.23766064444143,6.5561557086989035 163.975414416095,7.700502886943416 163.975414416095,8.058111380145142 164.0946172471628,8.43956043956111 164.6191097038557,9.273980257030678 165.76345688210193,10.60905196498402 166.50251443471961,11.80108027565701 167.05084745763017,13.040789718756784 167.45613708325868,14.542745390203024 167.95678897374077,15.305643509033263 168.17135406966213,15.92549823058315 168.2667163345157,16.545352952133037 168.29055690072994,17.26056993853649 168.07599180480858,19.358539765320074 168.05215123859435,20.240640715216426 168.09983237101943,21.790277519091145 168.29055690072994,22.958465263549893 168.36207859936928,24.388899236356803 168.67200596014422,25.294840752467397 169.64946917489414,26.844477556342113 169.93555596945484,27.488172844104547 169.9593965356691,27.774259638666944 169.88787483702976,27.89346246973306 169.50642577761548,28.10802756565443 169.458744645187,28.608679456136514 169.36338238033343,28.847085118272126 168.95809275470492,29.371577574968445 168.40975973179437,29.91991059787731 167.21773142112306,30.94505494505571 165.45352952132697,31.946358726019866 165.04823989569846,32.35164835164838 164.9528776308449,32.63773514621078 164.9528776308449,32.82845967591791 165.19128329298053,34.11585025144447 165.11976159434118,34.831067237847925 164.9051964984198,35.40324082696934 164.35686347550924,36.38070404172095 163.90389271745227,37.3820078226868 163.4270813931844,38.90780406034728 163.1409945986237,39.432296517041905 161.4721549636812,41.005773887130864 160.20860495437057,42.48388899236456 159.5410691003922,42.72229465449848 158.75433041534941,43.15142484633954 158.03911342894597,43.62823617060907 157.39541814118184,44.200409759732175 156.27491152914988,45.55932203389806 155.1067237846928,47.418886198547725 154.15310113615374,49.27845036319569 151.5544794188864,54.785621158501954 148.66977090706172,60.31663252002246 147.78766995716197,62.31924008195247 147.19165580182633,64.05960141553433 146.83404730862628,65.79996274911618 146.78636617619782,66.63438256658574 146.78636617619782,67.46880238405701 146.9532501396941,68.68467126094255 147.1678152356121,69.42372881356025 147.47774259638703,70.25814863102981 148.1452784503654,71.49785807412958 149.26578506239736,73.09517601043109 151.24455205811483,75.50307319798792 151.86440677966132,76.4090147141002 152.24585583907898,77.17191283293045 152.5319426336397,77.86328925311966 152.74650772956107,78.60234680573735 153.4378841497503,82.41683739988855 153.74781151052522,83.68038740920086 154.10542000372865,84.80089402123284 154.60607189421074,86.11212516297363 155.2259266157606,87.42335630471273 155.82194077109628,88.5438629167447 156.6325200223533,89.78357235984447 158.42056248836025,92.07226671633519 160.70925684485266,94.62320730117406 162.13969081765956,95.98211957533995 165.88265971316974,99.05755261687516 166.717079530641,99.89197243434641 167.33693425219087,100.60718942074988 168.2667163345157,101.96610169491575 168.67200596014422,102.75284037995854 169.48258521140124,104.731607375676 170.55541069100474,106.42428757683108 171.12758428012953,107.42559135779524 172.31961259080083,110.1910970385555 173.03482957720428,111.66921214378918 173.5593220339006,112.67051592475335 174.15533618923624,113.60029800707818 175.5380890296147,115.19761594337967 176.3009871484466,115.91283292978314 176.9208418699965,116.2942819891974 178.75656546843192,117.24790463773478 180.23468057366392,118.15384615384707 181.35518718569588,119.01210653753087 182.66641832743838,120.2279754144164 183.66772210840253,121.39616315887515 184.6690258893667,122.87427826410885 185.76569193518444,124.80536412739784 186.81467684857708,126.97485565282244 187.36300987148763,128.3099273607758 187.83982119575546,129.76420189979524 188.1497485565304,131.31383870366997 188.24511082138397,132.67275097783585 188.10206742410193,134.93760476811403 187.2199664742056,141.73216613894684 186.98156081206997,144.3784689886393 186.95772024585912,145.61817843173736 187.02924194449844,146.81020674241037 187.33916930527337,148.62208977463325 187.9828645930375,150.6485379027758 188.91264667535896,152.72266716334514 192.22648537902975,159.35034457068338 196.04097597318267,166.00186254423585 196.9707580555041,167.71838331160345 197.7098156081218,169.2203389830514 198.44887316073948,171.00838144906004 198.83032222015376,172.34345315701339 199.04488731607515,173.75004656360605 199.11640901471446,175.25200223505396 199.06872788228938,178.39895697522851 199.0925684485036,179.7578692493944 199.21177127957142,180.92605699385484 199.37865524306432,181.83199850996542 199.8316260011179,183.45315701247947 200.42764015645696,185.0027938163542 201.28590054013907,186.81467684857537 203.6461165952708,191.39206556155682 204.57589867759563,193.53771652076716 205.21959396535976,195.39728068541683 205.74408642205609,197.56677221083976 206.3162600111775,200.9521326131499 206.79307133544535,204.62357981002074 206.8884336002989,206.07785434904187 206.9361147327274,207.2222015272864 206.79307133544535,209.15328739057537 206.48314397467038,210.51219966474295 206.0301732166168,211.75190910784104 205.38647792885266,212.9200968523015 204.31365244924916,214.30284969267993 203.16930527100297,215.47103743714035 201.9295958279032,216.56770348295808 198.44887316073948,219.4285714285719 197.3045259824933,220.57291860681812 196.78003352579697,221.31197615943412 196.32706276774337,222.19407710933217 196.08865710560775,223.31458372136413 196.04097597318267,224.33972806854254 193.4423542559153,224.29204693611575 190.98677593592998,224.5542931644639 190.39076178059435,224.45893089960865 189.6278636617624,224.17284410504794 188.74576271186606,223.71987334699264 188.07822685789108,223.31458372136413 186.314024958095,221.81262804991619 185.95641646489156,221.38349785807515 185.64648910411663,220.81132426895203 185.47960514062373,220.3821940771093 185.3365617433417,219.52393369342548 185.2411994784881,219.26168746507733 185.050474948781,219.0232818029434 184.76438815422026,218.80871670702203 184.0968523002453,218.66567330974166 182.45185323151702,218.6179921773149 179.73402868318183,217.85509405848464 179.11417396163196,217.52132613149547 178.2797541441641,216.9729931085866 177.37381262805349,215.995529893835 176.873160737568,215.63792140063327 175.96721922145744,215.3756751722851 173.8930899608898,215.2087912087922 173.3447569379792,215.0895883777244 172.96330787856496,214.875023281803 172.0096852300259,214.1836468616138 171.07990314770106,213.77835723598528 170.03091823430842,213.58763270627645 168.29055690072994,213.6114732724907 167.76606444403365,213.58763270627645 167.38461538461598,213.4922704414229 166.8839634941339,213.1585025144354 165.5250512199697,211.7280685416285 164.78599366735202,210.5837213633823 164.28534177686993,210.0115477742609 163.78468988638784,209.6300987148449 162.87874837027726,209.2248090892164 162.23505308251313,209.03408455950927 161.56751722853477,208.9387222946557 160.75693797727774,209.01024399329503 160.13708325572784,209.24864965542895 158.15831626001378,210.4645185323162 157.87222946545307,211.53734401192136Z"/>
  </g>
</svg>