<?xml version="1.0" encoding="UTF-8" standalone="no"?>
<svg viewBox="0 0 256 123.59078450255492" xmlns="http://www.w3.org/2000/svg">
  <style>
    g.zone {
      fill: lightgray;
      stroke-width: 2;
      stroke-linecap: square;
      stroke-linejoin: bevel;
      stroke-miterlimit: 3;
      stroke-opacity: 0.8;
      stroke: black;
      fill-opacity: 0.3;
    }
  </style>
  <g class="zone" id="zone">
    <path d="M0.09482183865516756,70.37676864952903 0.2655011482339302,69.7130157789469 0.4930735610047153,69.06822727609364 0.815467812430668,68.4803318764351 1.5740425216693135,67.28557670938511 2.048151714942456,66.22357211645344 2.7498333209863843,64.89606637528648 3.622194236609075,63.094451440847735 3.868731017111432,62.79102155715201 4.096303429882218,62.582413512111444 4.4376620490397425,62.41173420253268 4.854878139120863,62.278983628417066 5.765167790206698,62.12726868656853 6.372027557595459,62.1083043188383 6.884065486331747,62.184161789761895 8.287428698422298,62.50655604118785 9.064967775389821,62.582413512111444 12.345803392844065,62.184161789761895 13.104378102080016,62.16519742203167 13.692273501739898,62.278983628417066 14.356026372323376,62.52552040891942 14.98185050744371,62.98066523446099 16.821394177346953,64.99088821394164 17.25757463515695,65.40810430402277 17.693755092969642,65.74946292317895 18.05407807985874,65.9580709682195 18.414401066745143,66.09082154233647 19.154011408252217,66.28046521964546 19.703978072448955,66.35632269056906 20.8987332394976,66.29942958737703 22.377953922511743,66.01496407141288 23.933032076449486,65.80635602637231 24.900214830727343,65.52189051040817 26.967330913401373,64.72538706570772 27.593155048521705,64.5926364915921 28.484480331875968,64.49781465293694 30.60848951774202,64.32713534335817 31.74635158159864,64.28920660789638 32.39114008445055,64.34609971108975 34.02207570931188,64.64952959478413 36.52537224979591,64.76331580117086 36.94258833987703,64.74435143343929 37.24601822357141,64.6684939625157 37.6821986813841,64.51677902066851 38.61145270019881,64.00474109193222 39.180383732127126,63.758204311429864 40.413067634638914,63.39788132454211 42.119860730423845,62.73412845395998 43.731831987553605,62.35484109934066 45.13519519964416,61.80487443514257 46.44373657307954,61.57730202237179 47.941921623822566,61.61523075783359 48.529817023482444,61.520408919178415 48.90910437810042,61.3118008741392 49.59182161641547,60.7049411067491 50.02800207422817,60.3825468553218 51.79168827320512,59.45329283650574 52.68301355655938,59.05504111415619 54.80702274242543,58.35335950811091 55.56559745166138,57.93614341803114 56.40002963182363,57.272390547447664 56.77931698644429,57.04481813467688 58.56196755315282,56.362100896363174 58.979183643231245,56.039706644935876 59.28261352692832,55.56559745166273 59.491221571967536,54.882880213349026 59.69982961700944,53.74501814949241 59.85154455885663,53.403659530334885 60.173938810282586,53.1381583821023 61.520408919178415,52.51233424698062 62.33587673160908,52.0192606859759 62.79102155715066,51.50722275724097 63.28409511815537,50.634861841618275 63.45477442773414,50.46418253203951 63.70131120823649,50.33143195792255 64.04266982739402,50.29350322246075 64.5547077561303,50.369360693384344 66.29942958737568,50.900362989850855 68.48033187643377,51.374472183124 69.97851692717948,51.829617008666915 70.85087784280216,51.92443884732209 72.42492036447148,51.829617008666915 73.61967553152013,51.52618712497254 74.66271575672158,51.07104229942962 75.25061115638147,50.88139862212063 75.91436402696493,50.76761241573389 77.2418697681292,50.6538262093485 77.50737091636313,50.55900437069333 77.77287206459707,50.29350322246075 77.94355137417583,49.553892880953676 78.07630194829144,49.193569894065924 78.81591228979852,47.97985035928571 78.70212608341177,47.4109193273574 78.41766056744896,46.57648714719651 77.69701459367347,45.24898140602955 77.26083413586078,44.60419290317765 77.16601229720561,44.33869175494506 77.20394103266875,44.11111934217293 77.48840654863156,43.54218831024462 77.94355137417583,42.3663975109262 78.28490999333334,41.83539521445969 79.1762352766876,41.07682050522239 80.18134676642592,40.413067634638914 80.67442032743064,40.18549522186813 81.26231572709052,40.07170901548273 81.83124675901882,40.07170901548273 82.4949996296023,40.2044595895997 83.2915030743014,40.545818208755875 83.68975479665094,40.60271131194925 83.91732720942173,40.56478257648745 84.33454329950285,40.39410326690869 85.32069042151228,39.73035039632521 85.62412030520666,39.57863545447802 86.26890880805857,39.37002740943746 87.55848581376239,39.1614193643969 88.4118823616562,38.89591821616432 88.75324098081371,38.72523890658555 89.2652789095473,38.289058448774206 89.56870879324438,38.09941477146387 90.38417660567505,37.81494925549972 90.76346396029304,37.739091784576125 91.44618119860539,37.7201274168459 92.41336395288594,37.81494925549972 94.95458922883041,37.94769982961668 95.29594784798795,37.909771094154884 95.52352026075873,37.81494925549972 95.78902140899265,37.56841247499871 95.95970071857143,37.15119638491759 95.95970071857143,36.88569523668366 95.82695014445581,36.25987110156333 95.78902140899265,35.02718719905154 95.78902140899265,34.26861248981424 95.86487887991625,33.92725387065671 96.03555818949502,33.60485961923076 96.3389880731894,33.206607896881216 97.43892140158556,32.08771020075616 97.7044225498168,31.65152974294347 98.02681680124276,30.798133195051008 98.02681680124276,30.45677457589483 97.91303059485871,30.077487221275508 97.72338691754837,29.830950440773147 97.00274094377288,29.224090673383042 96.94584784058085,28.92066078968866 97.11652715015961,28.560337802799562 97.93199496259028,27.53626194532968 98.48196162678701,26.9483665456698 99.67671679383567,26.834580339284408 100.28357656122712,26.834580339284408 101.06111563819464,27.024224016593394 101.63004667012295,27.27076079709575 101.93347655381733,27.27076079709575 102.29379954070643,27.194903326172156 103.58337654641024,28.332765390028776 103.9057707978362,28.54137343506934 104.22816504926215,28.65515964145473 106.04874435143381,28.882732054225514 107.81243055041077,28.901696421957087 108.41929031779954,29.01548262834248 108.7985776724202,29.18616193792124 109.25372249796177,29.4706274538854 110.88465812282311,30.72227572412741 111.39669605155939,30.98777687236134 111.88976961256411,31.158456181938757 112.17423512852692,31.17742054967033 112.61041558633961,31.063634343284935 113.71034891473309,30.45677457589483 114.18445810800623,30.267130898584494 114.54478109489533,30.1912734276609 115.2843914364024,30.153344692199102 115.96710867471475,30.361952737239662 116.44121786799059,30.589525150010445 117.3704718868053,31.17742054967033 117.86354544781003,31.613601007481673 118.14801096377552,31.992888362101 118.48936958293035,32.580783761759534 118.71694199570383,33.111786058226045 119.22897992443743,34.970294095859515 119.39965923401618,35.42543892140108 119.74101785317372,35.9564412178676 120.06341210459966,36.146084895177935 120.4047707237572,36.22194236610153 121.99777761315538,36.25987110156333 122.37706496777336,36.20297799836995 123.87525001851908,35.72886880509681 124.33039484406065,35.653011334173215 124.61486036002614,35.67197570190344 126.11304541076917,36.10815615971479 127.83880287428568,36.22194236610153 129.45077413141544,36.54433661752748 130.22831320838566,36.88569523668366 131.3661752722423,37.739091784576125 131.859248833247,37.98562856507848 132.3523223942517,37.98562856507848 133.37639825172158,37.606341210460506 133.75568560633957,37.53048373953556 134.04015112230508,37.54944810726714 134.62804652196496,37.66323431365253 135.5952292762428,38.023557300540276 136.1072672049764,38.156307874657244 136.84687754648348,38.270094081042636 137.96577524260852,38.34595155196623 137.73820282983775,37.79598488776949 137.58648788799056,37.18912512037939 137.52959478479852,36.6012297207195 137.60545225572213,36.20297799836995 137.88991777168494,35.747833172827036 138.4967775390764,35.06511593451334 138.9898511000811,34.66686421216379 139.4829246610858,34.40136306393121 140.0897844284746,34.24964812208267 140.639751092674,34.24964812208267 141.39832580190995,34.36343432846806 142.7258315430769,34.704792947625585 143.29476257500522,34.68582857989536 143.65508556189164,34.59100674124019 144.29987406474353,34.32550559300626 144.83087636121138,33.908289502926486 145.15327061263736,33.73761019334773 146.5566338247279,33.33935847099818 148.50996370101518,32.46699755537414 148.85132232017003,32.41010445218212 149.70471886806382,32.48596192310571 150.91843840284403,32.46699755537414 151.6580487443511,32.41010445218212 152.34076598266347,32.27735387806515 153.0993406919021,32.06874583302459 154.27513149122188,31.670494110675044 154.65441884583987,31.44292169790291 154.86302689087907,31.215349285132127 155.07163493592097,30.836061930512805 155.14749240684458,30.437810208163256 155.10956367138144,30.115415956737305 154.88199125861064,29.413734350692028 154.8440625231502,29.053411363804276 154.9009556263422,28.825838951033493 154.97681309726582,28.693088376916528 155.2043855100366,28.522409067337765 156.2094969997776,28.124157344988216 156.68360619305074,27.858656196755636 157.02496481220825,27.51729757759811 157.15771538632387,27.232832061633953 157.19564412178704,26.9483665456698 157.17667975405547,26.663901029705645 156.74049929624277,25.639825172234417 156.58878435439559,25.146751611231046 156.58878435439559,24.80539299207352 156.75946366397434,24.36921253426218 156.9870360767451,24.08474701829802 157.59389584413657,23.534780354099937 158.21971997925692,22.757241277131065 158.5231498629513,22.47277576116691 159.13000963034276,22.207274612934327 160.74198088747252,21.80902289058478 161.15919697755362,21.58145047781265 161.6143418030952,20.784947033113554 162.10741536409992,20.140158530261647 162.39188088006543,19.855693014297493 162.94184754426215,19.419512556486147 163.1125268538409,19.210904511445587 163.20734869249608,18.90747462774986 163.16941995703294,18.24372175716773 163.22631306022495,17.902363138010205 163.47284984072732,17.447218312467285 163.73835098896126,17.2575746351583 163.73835098896126,16.214534409956844 163.64352915030608,15.645603378028534 163.45388547299845,15.190458552485618 162.903918808799,14.318097636861578 162.86599007333857,14.147418327282816 162.96081191199372,13.597451663086078 163.26424179568812,12.895770057040803 163.37802800207214,12.459589599229458 163.3969923698037,11.890658567301147 163.32113489888013,11.43551374175823 162.79013260241496,10.449366619750146 162.1263797318315,9.520112600932737 161.55744869990318,9.008074672197798 160.47647973923858,8.287428698422298 160.26787169419936,7.9839988147265695 160.15408548781264,7.5288539891849995 160.19201422327578,7.054744795910509 160.51440847470172,6.334098822135009 160.72301651974092,5.670345951551531 160.8936958293197,5.442773538780746 161.72812800948194,4.79798503592884 161.95570042225273,4.5324838876949105 162.2591303059471,4.873842506852435 162.86599007333857,6.049633306170854 163.16941995703294,6.409956293058604 164.4969256981999,7.130602266834105 164.89517742054943,7.244388473220845 165.23653603970698,7.225424105489272 166.5830061486028,6.997851692718487 168.47944292169808,6.808208015408152 169.78798429513077,6.504778131713771 170.43277279798536,6.2203126157496165 172.1206015260387,5.044521816431198 172.95503370619826,4.570412623156708 174.24461071190476,4.096303429883565 176.46344173642328,3.413586191569862 177.14615897473834,3.3566930883764923 178.60641529002092,3.470479294763232 179.57359804429876,3.3946218238382895 180.74938884361583,3.3946218238382895 181.41314171419933,3.3187643529146946 182.7406474553663,3.091191940143909 183.5181865323338,3.0342988369505393 184.78879917030872,3.0153344692203143 185.73701755685502,2.825690791909979 187.06452329802198,2.2188310245198712 187.6903474331423,2.086080450404254 190.38328765093667,2.1240091858660515 193.8916956811617,2.0102229794806585 194.55544855174247,1.839543669901896 195.6364175124071,1.4033632120892034 197.0587450922292,0.7016816060452754 198.2724646270094,0 198.53796577524065,0.1517149418471901 199.6568634713684,0.6447885028519054 200.20683013556513,0.9102896510858356 200.7378324320303,1.3085413734353832 201.230905993035,1.7826505667085262 201.6670864508477,2.389510334098634 201.97051633454208,2.996370101488742 202.1601600118524,3.5653011334170523 202.34980368916007,4.43766204904109 202.5394473664704,4.873842506852435 202.86184161789635,5.272094229201984 203.39284391436422,5.689310319283104 204.056596784945,5.954811467515686 205.61167493888274,6.372027557596806 206.10474849988745,6.4478850285204015 206.88228757685766,6.4478850285204015 208.5890806726426,6.201348248018044 208.96836802726057,6.239276983479841 209.3855841173417,6.372027557596806 210.69412549077708,6.865101118601522 212.00266686420977,7.490925253721855 213.23535076672155,8.306393066152523 214.10771168234695,8.81843099488881 214.7904289206593,9.330468923623751 215.32143121712716,9.652863175049703 215.41625305577963,9.728720645973299 215.4352174235112,9.842506852360039 215.37832432031917,10.032150529669027 215.24557374620358,10.221794206978014 213.5008519149555,12.00444477368654 213.0646714571428,12.554411437884625 212.8560634121036,13.009556263427543 212.70434847025638,13.957774649973828 212.36298985109886,14.905993036521462 212.1354174383281,15.323209126602581 211.8319875546337,15.740425216682354 211.28202089043427,16.214534409956844 210.08726572338563,16.878287280538974 209.3097266464181,17.485147047929082 208.85458182087385,17.712719460701216 206.4271427513134,18.24372175716773 204.8341358619152,18.926438995481433 204.1324542558686,19.135047040521993 201.4584784058058,19.51433439513997 200.9654048448011,19.609156233795133 200.64301059337512,19.722942440180528 200.2257945032967,20.007407956144682 199.23964738128728,20.82287576857535 197.95007037558346,21.315949329580064 197.4949255500392,21.600414845544222 196.58463589895337,22.302096451589495 196.16741980887494,22.73827690940084 195.93984739610147,23.193421734943758 195.7691680865227,23.89510334098769 195.50366693829147,25.526038965849022 195.4847025705599,26.53115045558868 195.0485221127472,27.460404474406086 195.0295577450183,27.631083783983502 195.0485221127472,27.839691829024062 195.29505889324955,28.25690791910518 196.01570486702505,29.148233202459444 196.45188532483775,29.963701014890113 197.0018519890345,30.361952737239662 197.51388991777077,30.81709756278258 197.9311060078519,31.310171123787295 198.3672864656619,31.992888362101 198.63278761389583,32.23942514260335 200.0930439291784,33.01696421957222 201.6101933476557,34.0789688125039 202.44462552781522,34.53411363804682 204.7772427587232,35.53922512778648 207.2236461960125,36.35469294021714 208.2287576857535,36.79087339802984 208.6649381435662,36.92362397214546 209.25283354322337,36.980517075338824 211.09237721312664,36.88569523668366 212.53366916067762,36.563300985257705 213.88013926957345,36.411586043410516 215.03696570116165,36.18401363063973 217.9574783317268,35.482332024594456 219.17119786650701,34.970294095859515 220.30905993036365,34.40136306393121 220.7642047559079,34.13586191569728 220.8400622268315,34.00311134158031 220.78316912363678,33.73761019334773 220.80213349136835,33.623823986962336 221.10556337506273,33.377287206459975 222.45203348396126,32.75146307133829 224.10193347655147,32.08771020075616 224.7277576116745,31.68945847840527 225.0122231276373,31.32913549151752 225.2966886436028,30.551596414548648 225.46736795318157,30.229202163122697 226.3966219719963,29.148233202459444 227.40173346173728,27.78279872583204 228.17927253870482,26.34150677827969 228.2551300096284,26.000148159122165 228.2551300096284,25.715682643159358 228.08445070004964,25.393288391732057 227.55344840358447,24.78642862434195 227.5344840358529,24.596784947032962 227.66723460997122,24.464034372915997 229.65849322171897,24.08474701829802 230.777390917844,23.970960811911283 231.34632194977232,24.008889547374427 232.48418401362895,24.350248166530605 233.4513667679068,24.57782057930274 233.8116897547959,24.63471368249476 234.228905844877,24.596784947032962 235.78398399881476,24.27439069560701 237.1304541077106,24.33128379880038 237.2632046818262,24.27439069560701 237.2632046818262,24.179568856951843 237.9079931846781,24.501963108377794 238.55278168753003,24.938143566190487 239.08378398399788,25.393288391732057 239.46307133861586,25.81050448181318 239.61478628046305,26.113934365508907 239.74753685458137,26.455292984665085 239.8613230609654,27.612119416253275 240.01303800281258,28.181050448181587 240.27853915104652,28.617230905992933 240.79057707978282,29.091340099266077 241.3595081117111,29.4326987184236 242.19394029187336,29.811986073042924 242.55426327875978,30.020594118082137 245.09548855470695,32.27735387806515 245.51270464478804,32.580783761759534 246.5747092377211,33.16867916141941 247.40914141788062,34.00311134158031 248.39528853989006,34.68582857989536 250.12104600340655,35.387510185939284 252.09334024742543,36.37365730794872 252.56744944069857,36.563300985257705 253.07948736943484,36.65812282391287 253.61048966590002,36.69605155937467 254.00874138824958,36.6391584561813 254.4828505815227,36.52537224979591 255.1276390843746,37.0374101785322 255.69657011630292,37.587376842728936 255.9431068968053,37.92873546188646 256,38.21320097785061 255.92414252907372,38.4787021260832 255.60174827764774,38.952811319356336 255.48796207126372,39.199348099858696 255.46899770353215,39.42692051263083 255.48796207126372,39.90102970590397 255.39314023260854,40.50788947329408 255.2793540262218,40.73546188606487 254.95695977479585,41.07682050522239 254.71042299429348,41.55092969849553 254.31217127194395,42.119860730423845 254.25527816875191,42.30950440773418 254.1983850655599,42.97325727831631 253.74324024001564,43.95940440032574 253.4208459885897,44.28179865175169 252.94673679531655,44.642121638639445 251.73301726053631,45.26794577376112 250.93651381583723,46.007556115268194 250.15897473886702,46.61441588265831 249.24868508778388,47.08852507593144 248.717682791316,47.429883695088975 247.86428624342489,48.15052966886447 246.23335061856355,49.26942736498952 245.64545521890366,49.800429661456036 245.34202533520929,50.16075264834378 244.81102303874144,50.93829172531265 244.14727016816065,52.00029631824568 243.91969775538718,52.68301355655938 243.65419660715594,54.04844803318814 243.65419660715594,54.5794503296533 243.80591154900313,55.24320320023678 244.09037706496594,55.88799170308869 244.41277131639188,56.4189939995552 244.67827246462582,56.703459515519356 245.43684717386446,57.34824801837126 245.9868138380612,57.898214682569346 247.92117934661692,60.3825468553218 248.79354026223962,61.103192829098646 249.7986517519806,62.22209052522369 251.27787243499475,63.34098822135009 251.73301726053631,63.81509741462323 252.548485072967,65.40810430402277 252.92777242758496,66.5080376324176 253.06052300170327,67.17179050299973 252.96570116304812,67.68382843173602 252.7002000148142,68.13897325727758 252.41573449885138,68.46136750870353 251.71405289280474,68.99236980517004 250.99340691902924,69.63715830802195 249.7417586487886,70.52848359137757 249.5331506037467,70.75605600414835 249.22972072005228,71.24912956515307 249.00214830728152,71.47670197792385 248.660789688124,71.64738128750261 247.76946440476974,71.78013186161958 247.25742647603343,72.00770427439036 246.8591747536839,72.29216979035452 246.17645751537154,73.05074449959181 245.77820579301928,73.41106748647957 245.36098970294086,73.69553300244372 244.5455218905102,74.1317134602564 244.37484258093144,74.34032150529697 244.14727016816065,74.94718127268708 243.57833913623233,75.99022149788854 243.08526557522762,77.31772723905414 242.78183569153055,77.79183643232864 242.383583969181,78.22801689013998 241.62500925994505,78.6831617156829 240.75264834431965,79.40380768945839 240.2216460478545,79.72620194088435 238.7803541003035,80.27616860508108 237.22527594636577,80.95888584339613 234.98748055411298,81.8122823912886 234.2478702126059,82.15364101044479 233.54618860656197,82.5708571005259 232.02903918808738,83.55700422253533 230.17053115045525,84.94140306689296 229.5636713830638,85.51033409882128 228.72923920290157,86.55337432402408 228.46373805467033,87.2171271946062 228.34995184828358,87.84295132972788 228.36891621601515,88.08948811023023 228.57752426105435,88.58256167123496 228.6344173642491,88.9049559226609 228.55855989332548,89.37906511593405 228.31202311282314,89.92903178013214 228.1034150677812,90.32728350248169 227.93273575820245,90.51692717979067 227.55344840358447,90.8582857989482 227.0414104748482,91.18068005037415 226.90865990073257,91.57893177272369 226.77590932661695,91.7306467145709 225.48633232091046,92.69782946884875 225.2397955404081,92.92540188162089 225.05015186310047,93.26676050077705 224.3674346247854,95.16319727387233 224.00711163789902,95.75109267353086 223.91228979924384,96.26313060226715 223.91228979924384,98.34921105267006 223.85539669604913,99.22157196829409 223.7226461219335,99.73360989702903 223.05889325135,101.25075931550498 222.9261426772344,101.91451218608711 222.94510704496597,102.74894436624935 223.05889325135,103.24201792725407 223.2106081931972,103.6023409141418 223.60885991554946,104.26609378472394 224.7277576116745,105.7073857322763 224.99325875990573,106.16253055781921 225.0880805985609,106.44699607378337 225.0880805985609,106.59871101563056 224.99325875990573,106.88317653159471 224.3674346247854,107.77450181494898 224.0829691088226,108.24861100822211 223.89332543151227,108.89339951107402 223.89332543151227,109.32957996888672 224.00711163789902,109.5571523816575 224.23468405066978,109.80368916215986 224.6519001407509,110.06919031039244 225.65701163048922,110.58122823912872 225.92251277872316,110.78983628416928 226.15008519149393,111.13119490332546 226.35869323653583,111.66219719979198 226.51040817838302,112.42077190902927 226.3966219719963,113.84309948885004 226.22594266241754,114.08963626935241 225.90354841099156,114.31720868212454 224.32950588932496,114.92406844951465 223.81746796058866,115.18956959774724 223.4950737091627,115.45507074598116 222.5658196903453,116.36536039706564 221.8451737165698,117.56011556411563 220.85902659456036,118.6790132602407 219.72116453070376,120.15823394325483 218.92466108600465,121.33402474257325 218.69708867323388,121.84606267130819 218.58330246684713,122.33913623231291 218.46951626046308,123.23046151566717 218.52640936365512,123.59078450255492 216.47825764871266,123.23046151566717 214.58182087562008,122.79428105785583 211.7561300837101,122.01674198088695 205.23238758426476,120.06341210459966 203.58248759167185,119.66516038225012 202.02740943773412,119.38069486628596 200.03615082598637,119.15312245351518 197.343210608192,119.02037187939821 194.6123416549372,119.02037187939821 191.46425661159859,119.2100155567072 190.32639454774466,119.247944292169 189.01785317430927,119.1720868212454 187.74724053633432,118.94451440847462 186.43869916289896,118.54626268612508 185.14912215719514,117.97733165419676 184.2388325061093,117.48425809319204 181.16660493369696,115.64471442329015 179.09948885102563,114.54478109489533 178.01851989036103,114.10860063708398 176.80480035558082,113.78620638565803 175.83761760130295,113.67242017927263 174.69975553744635,113.65345581154106 170.52759463663784,114.08963626935241 168.91562337950808,114.14652937254577 167.3036521223783,114.0517075338906 165.8054670716353,113.78620638565803 164.83828431735472,113.50174086969388 163.79524409215327,113.14141788280612 160.1730498555442,111.60530409659995 158.92140158530083,111.11223053559524 155.31817171642334,110.01229720720042 154.14238091710357,109.57611674938907 153.34587747240448,109.21579376249997 152.54937402770537,108.74168456922683 149.98918438402663,107.01592710571167 149.0788947329435,106.44699607378337 147.88413956589216,105.89702940958527 146.80317060523026,105.5556707904291 145.79805911548925,105.49877768723573 144.6033039484406,105.49877768723573 140.10874879620616,105.93495814504708 133.98325801911304,106.06770871916405 132.6367879102145,106.16253055781921 131.53685458182105,106.29528113193483 129.8300614860361,106.61767538336078 127.8956959774804,107.07282020890369 125.31654196607008,107.7934661826792 119.1720868212454,109.6330098525811 117.56011556411563,110.06919031039244 115.7205718942124,110.48640640047356 113.38795466330713,110.86569375509288 111.35876731609625,111.07430180013344 109.82265352989008,111.11223053559524 108.95029261426738,111.05533743240187 108.32446847914706,110.97947996147828 107.45210756352166,110.73294318097591 106.73146158974617,110.35365582635659 106.14356619008629,109.87954663308345 105.53670642269753,109.13993629157638 105.17638343580843,108.43825468553246 104.9108822875772,107.7176087117556 104.3988443588409,105.29016964219517 104.17127194607012,104.45573746203428 103.86784206237304,103.754055855989 103.43166160456305,103.0713386176753 102.86273057263473,102.52137195347721 102.2369064375144,102.14208459885924 101.49729609600733,101.85761908289508 100.64389954811352,101.66797540558474 100.11289725164835,101.74383287650834 99.39225127787286,101.89554781835687 98.861248981405,102.06622712793565 98.23542484628466,102.36965701163003 97.74235128527995,102.69205126305597 97.07859841469647,103.22305355952248 95.40973405437468,104.85398918438382 94.63219497740447,105.5177420549673 93.55122601674256,106.200459293281 92.77368693977235,106.54181791243718 92.14786280465201,106.76939032520932 90.9341432698718,107.09178457663526 89.72042373509157,107.30039262167583 88.39291799392463,107.45210756352301 84.67590191866039,107.75553744721739 81.94503296540557,108.19171790503009 78.45558930291212,108.91236387880559 76.8056893103192,109.31061560115513 75.7247203496546,109.67093858804289 74.70064449218472,110.14504778131737 74.22653529891159,110.46744203274334 73.75242610563575,110.90362249055468 73.35417438328619,111.43462478702119 73.14556633824698,111.88976961256411 72.95592266093665,112.74316616045657 72.9179939254762,114.84821097859106 72.80420771908946,115.87228683606094 72.65249277724227,116.46018223572082 72.42492036447148,117.12393510630429 72.1214904807771,117.7687236091562 71.79909622935115,118.31869027335294 71.30602266834643,119.02037187939821 70.88880657826532,119.51344544040293 70.37676864952903,120.04444773686944 69.76990888213757,120.57545003333595 69.16304911474882,121.0116304911473 68.55618934735736,121.39091784576527 67.83554337358186,121.75124083265437 67.05800429661433,122.07363508408032 65.76842729091052,122.47188680642988 64.45988591747513,122.71842358693223 63.01859396992413,122.8511741610492 61.53937328690999,122.87013852877942 59.491221571967536,122.73738795466245 55.83109859989531,122.26327876138932 54.38980665234431,122.13052818727235 49.40217793910514,121.95984887769359 48.09363656567245,121.82709830357797 47.25920438551021,121.65641899399921 46.14030668938516,121.27713163937989 45.26794577375978,120.76509371064495 44.8886584191418,120.46166382694922 44.54729979998427,120.10134084006147 44.262834284021466,119.72205348544348 43.94044003259552,119.15312245351518 43.61804578116956,118.28076153789114 43.39047336839608,117.23772131268969 43.27668716201204,116.13778798429486 43.1629009556253,114.03274316616039 43.04911474924125,113.21727535372972 42.783613601007325,112.38284317356748 42.3663975109262,111.70012593525378 41.77850211126632,111.09326616786366 41.01992740203037,110.52433513593536 40.014815912289365,109.95540410400704 36.99948144306905,108.41929031780087 36.08919179198322,107.83139491814234 35.31165271501569,107.16764204755886 34.60997110897176,106.4280317060518 33.96518260611986,105.5935995258909 31.765315949330212,102.19897770205127 30.949848136899544,101.06111563819464 30.001629750350563,99.92325357433802 28.95858952514911,98.88021334913657 28.162086080450013,98.19749611082287 27.36558263575092,97.60960071116298 25.582932069042393,96.47173864730635 24.0657826505651,95.65627083487568 20.538410252611197,93.96844210682234 18.49025853766874,92.92540188162089 15.911104526261118,91.46514556633831 12.83887695384878,89.58767316097462 10.752796503443179,88.2222386843472 9.197718349508133,87.10334098822081 7.983998814727918,86.07926513074958 6.751314912216129,84.88450996370094 5.916882732053889,83.89836284169151 5.158308022815243,82.89325135195185 4.4376620490397425,81.73642492036366 3.887695384843005,80.6554559597004 3.451514927030312,79.51759389584379 3.1670494110675045,78.53144677383436 2.560189643676049,75.19371805318944 2.218831024521219,74.01792725387102 1.8395436699005487,73.16453070597855 1.4033632120905508,72.46284909993328 0.8344321801622405,71.7990962293498 0,70.98362841691913 0.09482183865516756,70.37676864952903Z"/>
  </g>
</svg>