<?xml version="1.0" encoding="UTF-8" standalone="no"?>
<svg viewBox="0 0 166.51830785638023 256" xmlns="http://www.w3.org/2000/svg">
  <style>
    g.zone {
      fill: lightgray;
      stroke-width: 2;
      stroke-linecap: square;
      stroke-linejoin: bevel;
      stroke-miterlimit: 3;
      stroke-opacity: 0.8;
      stroke: black;
      fill-opacity: 0.3;
    }
  </style>
  <g class="zone" id="zone">
    <path d="M84.29434767152344,214.5694987557755 84.79488091005926,215.661571276217 85.45467472449153,216.63988624244536 87.07003199431212,218.4145040881624 89.14041948097875,220.3938855314608 90.16423746889367,221.25844294347604 91.02879488090892,221.9182367579099 94.32776395307344,224.01137575542143 95.80661215783765,225.0579452541764 100.76644152150608,229.0167081407748 101.6537504443646,229.8357625311051 102.24528972627027,230.49555634553738 102.70031994311955,231.13259864912797 103.15535015996883,231.92890152861665 103.51937433345148,232.81621045147517 103.7468894418745,233.65801635264876 103.90615001777418,234.86384642730175 103.86064699608764,237.5712762175606 103.90615001777418,238.43583362957585 104.04265908282734,239.11837895485138 102.88233202985927,239.73266974760034 101.67650195520787,240.5289726270874 101.01670814077238,241.166014930678 100.22040526128696,242.14432989690636 99.71987202275113,242.59936011375726 97.44472093849828,243.87344472093847 95.21507287593197,245.42054745822924 94.46427301812984,245.76182012086701 92.16637042303373,246.37611091361435 90.6647707074295,247.03590472804822 89.48169214361813,247.37717739068597 88.84464984002591,247.53643796658403 88.36686811233336,247.5591894774257 86.11446853892379,247.46818343405585 84.59011731247628,247.46818343405585 83.72555990046104,247.65019552079556 82.81549946675925,247.9914681834333 82.13295414148372,248.17348027017303 80.74511198009262,248.42374688944093 79.88055456807413,248.49200142196915 78.72022751510605,248.4464984002842 77.01386420191884,247.96871667259165 76.60433700675287,247.92321365090675 75.94454319232061,247.92321365090675 75.28474937788835,248.0142196942766 74.78421613935252,248.17348027017303 73.35087095627165,248.7650195520787 72.73658016352593,248.94703163882002 72.2360469249901,248.96978314966168 70.93921080696562,248.81052257376362 70.41592605758977,248.8332740846069 69.96089584073725,248.94703163882002 69.00533238535216,249.37931034482764 68.50479914681634,249.51581940988243 67.02595094205213,249.72058300746542 65.84287237824402,249.76608602915036 65.06932100959862,249.97084962673333 64.06825453252699,250.40312833274095 63.20369712051174,250.85815854959023 62.68041237113265,251.199431212228 61.88410949164399,251.85922502666187 60.655527906149324,252.99680056878668 60.382509776039754,253.3153217205828 60.10949164592696,253.8841094916452 59.90472804834721,254.81692143618864 59.722715961604266,255.1581940988264 59.47244934233797,255.40846071809432 59.199431212228404,255.59047280483404 58.56238890863618,255.795236402417 57.788837539990794,255.88624244578688 55.69569854248088,256 55.10415926057521,255.95449697831506 54.762886597935825,255.86349093494522 54.239601848559964,255.61322431567731 53.32954141485818,254.88517596871685 52.783505154639045,254.5211517952358 51.099893352291865,253.6793458940622 49.91681478848051,252.95129754710175 49.188766441521665,252.70103092783384 48.82474226803901,252.65552790614893 48.32420902950319,252.67827941699218 46.299324564519864,253.04230359047162 44.865979381442216,252.99680056878668 43.77390686100072,252.8602915037319 43.205119089938314,252.7465339495204 42.52257376466278,252.47351581940922 42.02204052612696,252.0867401350865 41.453252755064554,251.29043725559785 41.08922858158513,250.4258798435826 41.521507287591135,249.81158905083527 41.999289015283686,248.99253466050496 42.3178101670798,248.24173480270122 42.54532527550605,247.33167436900106 42.68183434055922,246.44436544614254 42.70458585140249,245.3295414148594 42.636331318875904,244.39672947031593 42.43156772129292,243.28190543903278 42.15854959118336,242.4400995378592 41.68076786349081,241.53003910415902 41.202986135798255,240.91574831141008 40.58869534304931,240.32420902950602 40.11091361535676,240.0056878777099 39.13259864912839,239.61891219338722 38.2225382154266,239.41414859580422 37.53999289015107,239.34589406327765 37.53999289015107,239.14113046569466 37.19872022751492,238.2310700319945 37.1304656949851,237.79879132598526 37.10771418414506,236.47920369712074 37.2669747600415,235.43263419836416 37.19872022751492,234.72733736224697 36.99395662993194,234.04479203697144 36.516174902239385,233.36224671169592 36.35691432633971,232.81621045147517 36.334162815499674,232.31567721293933 36.47067188055284,231.13259864912797 36.425168858869526,230.8595805190184 36.03839317454683,229.76750799857692 35.62886597938087,228.88019907572001 35.31034482758476,228.40241734802586 34.69605403483581,227.76537504443687 34.33202986135639,227.2875933167427 34.03626022040355,226.80981158905016 33.831496622820566,226.3320298613576 33.649484536080855,225.58123000355386 33.26270885175816,222.8282971916101 32.96693921080532,221.55421258442888 32.96693921080532,221.09918236757798 33.14895129754503,220.6441521507287 33.44472093849787,220.34838250977586 35.014575186631916,219.25630998933437 36.99395662993194,217.5726981869888 38.72307145396242,216.29861357980758 39.1781016708117,215.8435833629567 40.4066832563096,214.046214006398 41.08922858158513,212.9086384642732 42.18130110202663,211.634553857092 43.06861002488191,210.67899040170528 44.501955207962794,208.79061500177673 44.911482403125525,207.94880910060314 45.11624600070851,207.31176679701414 45.11624600070851,206.6974760042652 44.9342339139688,205.53714895129713 45.00248844649862,205.0366157127613 45.36651261997804,204.60433700675367 46.572342694629434,203.8307856381083 47.30039104159151,203.17099182367602 47.5506576608578,202.806967650195 47.755421258440784,202.37468894418737 48.09669392108017,201.16885886953435 47.755421258440784,200.78208318521166 47.39139708496136,200.19054390330598 47.18663348737838,199.5535015997154 47.05012442232521,198.30216850337746 46.89086384642554,197.91539281905312 46.52683967294612,197.46036260220384 46.0263064344103,197.09633842872282 45.23000355492164,196.7323142552434 44.706718805545776,196.57305367934535 43.70565232847413,196.4137931034473 43.273373622464895,196.25453252755085 42.77284038392907,195.89050835406982 42.36331318876634,195.43547813721892 42.22680412370994,195.0487024528962 42.20405261286667,194.52541770351874 42.40881621044965,193.88837539992815 42.954852470672016,193.00106647706963 43.000355492355325,192.75079985780332 42.8865979381422,192.568787771062 42.40881621044965,192.364024173479 41.384998222537966,192.11375755421273 39.58762886597766,192.0455030216845 39.01884109491526,191.95449697831467 38.65481692143584,191.68147884820348 38.177035193743286,190.95343050124302 37.76750799857732,190.70316388197674 37.4034838250979,190.5894063277636 36.766441521505676,190.54390330607868 35.037326697475194,190.79416992534658 34.55954496978264,190.70316388197674 33.94525417703369,190.45289726270883 33.558478492711,190.24813366512583 32.73942410237907,189.7020974049051 32.42090295058619,189.40632776395225 32.21613935300321,188.9968005687879 32.034127266263496,187.65446142907848 31.69285460362411,186.4258798435822 31.5108425168844,186.01635264841786 30.964806256665266,185.12904372555934 30.71453963739574,184.60575897618187 30.487024528972718,183.94596516174798 30.282260931389732,182.80838961962317 30.07749733380675,182.26235335940243 29.849982225380497,181.87557767507974 29.554212584427656,181.55705652328362 28.553146107356014,180.82900817632316 27.71134020618404,179.89619623177973 27.34731603270462,179.32740846071732 27.21080696764822,178.82687522218149 27.324564521861348,178.28083896196236 27.620334162814185,177.78030572342652 28.029861357980153,177.32527550657565 28.985424813365253,176.64273018130012 29.531461073584385,176.48346960540368 31.6473515819408,176.32420902950562 32.35264841805637,176.16494845360756 32.898684678278734,175.891930323498 33.126199786704994,175.66441521507173 33.39921791681456,175.16388197653754 33.87699964450711,173.79879132598646 34.67330252399577,172.6839672947033 34.90081763241879,172.25168858869407 34.991823675788645,171.86491290437138 35.014575186631916,171.45538570920704 34.923569143262064,170.81834340561642 34.62779950230922,169.81727692854477 34.69605403483581,168.40668325630878 34.582296480625914,166.8823320298613 34.67330252399577,166.45005332385367 35.037326697475194,165.60824742268008 35.128332740845046,165.28972627088396 35.105581230001775,164.53892641308184 34.832563099892205,163.49235691432528 34.809811589048934,163.21933878421572 34.946320654105335,162.60504799146838 35.33309633842803,161.64948453608167 35.51510842516774,160.83043014575134 35.51510842516774,160.37539992890046 35.287593316741486,158.96480625666445 35.3558478492713,158.5552790615001 35.69712051190745,157.8044792036964 35.742623533594,157.57696409527173 35.69712051190745,157.00817632420933 35.56061144685429,156.41663704230365 35.33309633842803,155.89335229292456 34.46853892641278,154.86953430501126 34.1272662637734,154.30074653394885 34.03626022040355,153.93672236046945 34.05901173124682,153.52719516530348 34.17276928545995,153.20867401350898 34.35478137219966,152.9811589050827 32.73942410237907,151.47955918947687 31.488091006041127,150.68325630998822 29.940988268750353,149.88695343050117 27.21080696764822,148.54461429079177 26.277995023106392,148.203341628154 25.390686100247876,148.02132954141427 24.639886242445762,147.97582651972934 24.116601493066668,148.04408105225755 23.66157127621739,148.22609313899727 23.297547102734736,148.4536082474219 23.04728048346844,148.74937788837474 22.956274440098586,149.09065055101252 22.933522929255314,150.27372911482385 22.86526839672873,150.66050479914657 22.706007820829058,151.0700319943109 22.364735158192907,151.5250622111618 21.795947387130504,152.07109847138256 21.0906505510117,152.52612868823346 19.70280838961736,153.2541770351939 18.906505510131932,153.5044436544602 18.110202630643272,153.5044436544602 15.83505154639042,152.9811589050827 14.40170636331277,152.8674013508712 12.900106647705305,152.6171347316033 10.465694987556013,152.29861357980718 9.692143618910626,152.0938499822242 8.713828652682253,151.57056523284672 8.054034838249994,151.41130465694866 7.121222893708166,151.25204408105222 5.801635264840412,151.1382865268391 4.345538570919491,151.16103803768237 1.27408460718121,151.47955918947687 0.5232847493758608,151.4568076786336 0,151.3430501244221 0.13650906505316662,151.27479559189388 0.3185211517928776,151.0927835051542 0.47778172769254956,150.66050479914657 0.47778172769254956,149.77319587628804 0.6370423035889884,148.93138997511446 0.5687877710624051,148.24884464983893 0.5915392819056773,148.04408105225755 1.3423391397077933,147.11126910771412 2.0021329541400537,146.42872378243857 2.206896551723037,146.06469960895754 2.2979025950928924,145.72342694631976 2.2751510842496203,145.49591183789514 2.184145040879765,145.35940277284035 1.47884820476096,145.08638464272917 1.1603270529680823,144.8133665126196 0.6597938144322606,144.08531816565915 0.47778172769254956,143.49377888375346 0.4550302168492774,142.94774262353272 0.5687877710624051,142.53821542836837 1.5243512264475043,140.74084607180967 1.7291148240304874,140.19480981158893 1.842872378243615,139.6260220405249 1.842872378243615,138.9889797369359 1.7518663348737595,138.44294347671516 1.0465694987549548,136.23604692499052 1.0010664770684103,135.50799857803005 1.0238179879116824,135.0302168503375 1.2058300746513935,134.5296836118017 1.6153572698173597,133.96089584073928 2.0931389975099095,133.59687166725823 3.094205474581553,133.09633842872404 3.5719872022741024,132.8005687877712 3.9587628865967965,132.36829008176196 4.3000355492329465,131.7767507998579 4.413793103446074,131.23071453963715 4.368290081762763,130.18414504088057 4.0725204408099245,128.59153928190486 4.049768929966652,128.3185211517953 4.16352648417978,127.99999999999919 4.322787060076219,127.81798791325949 4.595805190185785,127.65872733736143 5.164592961251423,127.47671525062171 9.692143618910626,126.56665481692154 10.511198009242557,126.36189121933856 11.261997867044673,126.04337006754245 11.626022040524095,125.79310344827616 11.944543192320205,125.49733380732332 13.264130821184727,123.65446142907808 14.333451830782954,122.49413437611 14.492712406682626,122.69889797369298 14.924991112688632,123.85922502666106 15.311766797011325,124.42801279772509 15.83505154639042,124.81478848204779 16.904372555988648,125.40632776395185 17.655172413790762,125.97511553501586 18.041948098113455,126.29363668681036 18.74724493423226,127.18094560966888 19.316032705294667,127.74973338073129 20.794880910058858,128.75079985780292 22.319232136506365,129.50159971560504 23.229292570208152,130.04763597582578 24.025595449696812,130.3661571276219 25.026661926768455,130.4799146818334 25.686455741200717,130.45716317099175 28.00710984713688,129.82012086740116 30.05474582296348,129.3423391397086 30.350515463916317,129.2058300746522 30.66903661571243,128.9555634553859 31.533594027727673,127.90899395662933 32.14788482047662,127.36295769640859 32.92143618912201,126.97618201208589 33.490223960184416,126.81692143618784 33.87699964450711,126.7714184145029 34.28652683967307,126.86242445787438 34.49129043725282,127.02168503377082 34.71880554567908,127.34020618556693 35.33309633842803,128.45503021685008 36.01564166370356,129.13757554212563 37.72200497689078,130.07038748666906 38.450053323852856,130.2979025950937 39.24635620334151,130.2296480625655 39.81514397440392,130.04763597582578 40.22467116956989,129.72911482403129 40.86171347315887,128.79630287948785 41.95378599360038,127.93174546747261 42.40881621044965,127.65872733736143 42.932100959828745,127.45396373977844 43.227870600781586,127.40846071809351 43.47813722004788,127.47671525062171 43.79665837184399,127.70423035904635 44.00142196942697,128.02275151084245 44.547458229646104,130.59367223604653 44.797724848915635,131.16246000710893 45.00248844649862,131.41272662637687 45.11624600070851,131.45822964806177 45.45751866334789,130.95769640952597 45.82154283682731,130.27515108425044 46.11731247778015,129.4560966939201 46.36757909704968,128.500533238535 46.595094205472705,128.13650906505399 46.93636686811209,127.84073942410113 47.30039104159151,127.63597582651977 47.982936366867044,127.31745467472366 49.41628154994469,126.81692143618784 50.03057234269364,126.43014575186514 50.37184500532979,126.08887308922738 50.6903661571259,125.6338428723781 51.441166014928015,124.24600071098376 51.82794169925071,123.699964450763 52.51048702452624,122.92641308211762 53.07927479559188,122.51688588695328 53.830074653394,122.19836473515717 55.69569854248088,121.69783149662295 56.3099893352266,121.47031638819671 59.563455385707826,120.0597227159607 61.42907927479471,119.37717739068518 62.83967294702909,118.67188055456799 63.56772129399116,118.37611091361515 64.500533238533,118.12584429434725 65.2058300746518,118.03483825097739 65.95662993245391,118.01208674013411 67.6402417348011,118.12584429434725 68.59580519018618,118.08034127266231 69.57412015641457,117.92108069676425 70.18841094916351,117.71631709918127 71.89477426235072,116.89726270885096 72.46356203341637,116.57874155705646 72.6228226093128,116.4194809811584 73.98791325986387,118.58087451119813 75.44400995378479,121.49306789903997 75.96729470316389,122.76715250622118 76.30856736580003,123.74546747244956 76.53608247422629,124.58727337362153 76.718094560966,125.6338428723781 76.80910060433585,126.93067899040096 76.718094560966,128.65979381443307 75.83078563810749,135.57625311055824 75.60327052968123,138.1016708140774 75.58051901884119,139.28474937788712 75.64877355136777,140.42232492001355 75.80803412726421,141.51439744045507 76.05830074653373,142.58371845005328 76.46782794169647,143.8578030572345 76.99111269107557,145.15463917525736 80.06256665481708,151.3430501244221 81.15463917525534,153.41343761109033 84.7038748666894,159.55634553857013 85.84145040881423,161.8087451119797 86.54674724493302,163.51510842516856 86.91077141841245,164.78919303234977 87.11553501599543,166.13153217205755 87.18378954852201,167.56487735513682 87.1382865268387,170.5680767863485 87.16103803768198,171.86491290437138 87.29754710273514,173.18450053323753 87.54781372200466,174.29932456452067 88.00284393885394,175.80092428012813 88.61713473160289,177.2797724848907 91.50657660860146,182.9676501955196 92.23462495556355,184.60575897618187 92.75790970493941,186.01635264841786 93.23569143263195,187.58620689655191 93.64521862779792,189.54283682900703 94.05474582296388,192.09100604336945 94.4187699964433,194.88944187699977 94.62353359402628,197.41485958051894 94.57803057234298,199.39424102381733 94.44152150728658,200.28154994667585 94.21400639886032,201.21436189121928 93.94098826875076,202.01066477070634 93.5997156061146,202.7842161393517 92.75790970493941,204.0810522573762 92.14361891219369,204.83185211517832 91.37006754354506,205.62815499466697 89.86846782794083,206.99324564521805 86.54674724493302,209.7234269463202 85.88695343050077,210.3377177390675 85.31816565943836,210.97476004265812 84.74937788837272,211.83931745467498 84.45360824741988,212.56736580163545 84.24884464984014,213.70494134376025 84.24884464984014,214.41023817987906 84.29434767152344,214.5694987557755Z"/>
    <path d="M120.65126199786638,71.4169925346598 120.21898329185714,72.89584073942399 120.01421969427416,73.98791325986387 119.92321365090432,74.9889797369355 119.7412015641646,77.9921791681472 119.60469249911144,79.03874866690379 119.3089228581586,80.01706363313215 118.9221471738359,80.76786349093426 118.33060789193023,81.4504088162098 117.55705652328483,82.06469960895713 116.6014930678965,82.58798435833623 114.21258442943375,83.63455385709118 112.80199075719615,84.36260220405164 111.59616068254475,85.13615357269703 110.86811233558268,85.68218983291779 110.20831852115042,86.27372911482345 109.18450053323873,87.41130465694988 108.43370067543339,88.66263775328783 108.18343405616709,89.23142552435023 107.93316743689756,89.98222538215396 107.77390686100112,91.18805545680696 107.8421613935277,92.18912193387861 108.00142196942737,92.84891574831087 108.18343405616709,93.2811944543185 108.70671880554295,94.168503377177 109.13899751155219,94.66903661571283 109.63953075008801,95.14681834340539 110.64059722715965,95.87486669036585 111.86917881265431,96.5346605047981 115.91894774262097,98.30927835051513 117.39779594738516,99.10558123000379 118.26235335940041,99.74262353359278 118.94489868467593,100.40241734802666 119.4909349448983,101.08496267330219 119.94596516174758,101.81301102026265 120.309989335227,102.63206541059297 120.5830074653398,103.49662282260822 120.71951653039297,104.2701741912536 120.78777106291956,105.52150728759315 120.76501955207951,106.79559189477436 120.4464984002834,110.98186988979742 120.2644863135437,112.27870600782029 119.96871667259086,113.50728759331656 119.69569854248128,114.34909349449015 118.10309278350397,118.42161393530007 117.1247778172756,121.83434056167773 116.76075364379618,122.85815854959104 116.28297191610362,123.81372200497614 115.91894774262097,124.33700675435362 115.48666903661497,124.83753999288943 114.9406327763926,125.31532172058199 114.1215783860639,125.81585495911781 112.9840028439391,126.24813366512544 111.96018485602417,126.45289726270842 110.66334873799968,126.54390330607828 109.13899751155219,126.47564877355008 107.75115535015784,126.2708851759687 105.86277995023092,125.88410949164602 103.99715606114404,125.33807323142526 101.35798080341176,124.42801279772509 99.53785993601142,123.699964450763 97.33096338428514,122.69889797369298 95.53359402772807,121.76608602914955 93.78172769285432,120.69676501955132 92.62140063988623,119.85495911837772 91.39281905438834,118.80838961962277 90.39175257731992,117.80732314255113 89.09491645929545,116.26022040526036 84.99964450764224,110.89086384642756 82.92925702097237,108.00142196942737 81.5641663704213,105.72627088517613 77.49164592961138,98.0135087095623 76.5815854959096,96.44365446142825 75.85353714895075,95.28332740846017 74.64770707429612,93.69072164948446 72.21329541414684,90.98329185922398 71.23498044791846,89.70920725204277 70.52968361179965,88.48062566654811 69.80163526484081,86.75151084251601 69.11908993956528,84.79488091005926 68.3910415926032,82.20120867401353 67.98151439744048,80.01706363313215 67.89050835407062,78.9477426235323 67.70849626732767,75.62602204052611 67.52648418058796,74.2836829008167 67.34447209384825,73.44187699964473 66.88944187699897,72.3043014575183 66.32065410593657,71.14397440455022 61.58833985069115,62.90792747955891 61.019552079628745,61.81585495911741 60.61002488446278,60.860291503732306 60.31425524350994,59.92747955918886 60.06398862424365,58.90366157127556 59.449697831494696,54.39886242445802 58.94916459295887,51.71418414504082 58.19836473515676,48.93849982225375 57.447564877354644,46.70885175968583 56.87877710629224,45.16174902239506 56.241734802700016,43.88766441521384 55.67294703163761,43.023107003198604 55.01315321720535,42.29505865623814 54.21685033771669,41.68076786349081 53.147529328118466,41.134731603270055 52.32847493778653,40.90721649484542 51.145396373975174,40.79345894063229 50.05332385353691,40.86171347316049 51.259153928188304,39.451119800924495 52.738002132952495,38.06327763953016 53.07927479559188,37.56274440099434 53.57980803412447,35.992890152861904 54.01208674013371,35.037326697475194 54.535371489512805,34.10451475293175 54.74013508709579,33.55847849271262 54.80838961962237,32.76217561322395 54.580874511196114,31.556345538570945 54.603626022039386,31.328830430144688 54.69463206540924,31.124066832563322 55.05865623888866,30.80554568076721 56.74226804123584,29.849982225382114 57.879843583360646,28.871667259153742 58.40312833273974,28.348382509776265 58.78990401706243,27.84784927124044 58.88091006043229,27.620334162814185 58.926413082118835,27.142552435121637 59.290437255598256,26.937788837538655 59.358691788124844,26.82403128332714 59.33594027728157,26.55101315321596 59.062922147172,25.936722360468625 58.13011020263018,24.457874155704435 57.83434056167734,23.59331674368919 57.766086029150756,22.228226093138126 57.58407394240781,21.11340206185497 57.538570920724496,19.634553857090776 57.561322431567774,18.792747955918806 57.766086029150756,16.972627088516845 57.743334518307485,16.108069676501604 57.652328474937626,15.516530394595925 57.515819409881225,15.084251688588303 57.31105581229824,14.697476004265608 56.96978314966209,14.196942765729787 59.540703874864555,14.583718450052482 60.564521862779465,14.65197298258068 62.521151795236214,14.515463917525897 66.88944187699897,14.492712406682626 67.7767507998575,14.606469960895753 69.23284749377841,14.993245645218447 70.55243512264293,15.175257731958158 71.0984713828653,15.380021329541142 72.2360469249901,16.062566654816674 73.00959829363549,16.290081763241314 75.48951297547133,17.518663348737597 75.87628865979403,17.814432989690435 77.08211873444542,18.906505510130316 77.44614290792484,19.156772129398227 78.44720938499648,19.316032705296283 79.88055456807413,19.748311411303906 80.97262708851564,19.83931745467376 83.11126910771209,19.702808389618976 84.7038748666894,19.498044792035994 87.20654105936528,18.997511553501788 87.22929257020856,20.044081052256743 87.18378954852201,20.52186277994929 87.07003199431212,20.908638464271988 86.61500177745961,21.613935300390793 86.47849271240644,22.000710984713486 86.34198364735003,23.252044081051423 86.02346249555393,24.38961962317785 86.06896551724047,25.003910415925183 86.25097760398019,25.390686100247876 86.52399573408975,25.8229648062555 87.32029861357842,26.66477070742909 87.95734091717063,27.09704941343671 89.27692854603515,27.802346249555516 89.86846782794083,28.029861357980153 90.86953430501248,28.166370423034937 91.9388553146107,28.14361891219328 92.8944187699958,27.984358336295227 94.87380021329581,27.506576608602675 95.30607891930183,27.256309989334763 96.12513330963375,26.68752221827236 97.03519374333231,26.300746533949667 97.58123000355468,25.9594738713119 98.10451475293054,25.436189121932806 98.60504799146635,24.594383220760832 98.99182367578905,24.18485602559487 99.4696054034816,24.002843938855158 99.87913259864757,23.957340917170228 100.85744756487594,24.048346960540083 102.33629576964013,24.344116601492924 103.06434411659897,24.43512264486278 103.99715606114404,24.43512264486278 106.24955563455362,24.230359047279794 107.023107003199,24.25311055812307 107.54639175257486,24.32136509064965 108.00142196942737,24.43512264486278 108.54745822964651,24.708140774972346 109.93530039104084,25.618201208674133 110.48133665125998,25.8912193387837 111.07287593316566,26.07323142552341 112.18769996445043,26.232492001421466 112.93849982225254,26.437255599004448 113.39353003910182,26.64201919658743 115.21365090650539,27.64308567365746 116.39672947031676,28.234624955563135 117.14752932811886,28.5076430856727 118.08034127266069,28.735158194098958 119.33167436899863,28.826164237468813 120.33274084607028,28.80341272662554 121.99360113757417,28.598649129042556 122.8809100604327,28.416637042302845 124.65552790614973,27.916103803767026 125.15606114468555,27.66583718450073 125.56558833984829,27.27906150017642 125.86135798080112,26.733025239957286 125.95236402417098,25.936722360468625 125.95236402417098,24.890152861713673 125.86135798080112,23.82083185211383 125.90686100248766,23.434056167791134 126.15712762175396,22.910771418413656 126.63490934944652,22.432989690721108 126.93067899039934,22.250977603981397 128.20476359758055,21.750444365445574 130.43441166014688,20.38535371489451 130.82118734446956,20.066832563100014 131.54923569143165,19.202275151083157 131.8222538215412,18.974760042658517 132.2090295058639,18.81549946676046 132.9825808745093,18.63348738002075 133.3466050479887,18.49697831496597 134.2111624600072,17.83718450053209 135.0984713828657,17.382154283682812 136.66832563099652,16.88162104514699 139.6260220405249,16.19907571987146 140.1948098115873,15.994312122288475 140.44507643085683,15.812300035548764 140.58158549591,15.516530394595925 140.55883398506674,15.175257731958158 139.99004621400434,13.400639886241127 139.64877355136818,12.968361180233504 138.6932100959831,12.308567365801245 138.03341628154757,11.648773551367368 137.80590117312457,11.307500888729601 137.7148951297547,11.011731247778378 137.7148951297547,10.738713117667196 137.85140419480788,10.511198009242557 138.1016708140774,10.351937433344501 138.57945254176994,10.238179879131375 139.01173124777594,10.215428368289718 140.03554923569087,10.306434411659573 140.9001066477061,10.215428368289718 141.76466405972135,9.98791325986508 142.2651972982572,9.73764664059717 142.49271240668344,9.44187699964433 142.65197298257988,9.100604337006564 142.90223960184616,8.281549946676249 143.12975471027244,7.166725915391477 143.28901528616885,6.7571987202271275 143.63028794880825,6.302168503376233 144.1080696765008,6.029150373266667 145.35940277283873,5.801635264842028 146.36046924991038,5.733380732313829 149.81869889797136,6.006398862423395 150.34198364735045,5.892641308211884 151.2065410593657,5.505865623889189 151.63881976537493,5.1190899395664955 152.00284393885434,4.664059722715601 152.23035904728061,4.209029505864708 152.57163170991674,3.230714539636336 153.436189121932,1.7973693565586872 154.16423746889407,0.7963028794870438 154.3462495556338,0.3867756843226941 154.41450408816036,0 155.32456452186216,1.0693210095982268 156.5531461073568,2.229648062566309 156.91717028083625,2.7529328119437864 157.1446853892625,3.367223604692736 157.4859580519019,4.709562744400529 157.5314610735852,5.278350515462934 157.4859580519019,6.302168503376233 157.57696409527173,6.870956274440255 157.73622467116817,7.212228937078021 158.0547458229643,7.712762175612227 159.1923213650891,9.100604337006564 159.85211517952135,9.783149662282097 160.35264841805719,10.147173835761519 163.037326697476,11.330252399572874 163.76537504443485,11.717028083895567 165.10771418414262,12.968361180233504 165.79025950941818,13.741912548878894 166.51830785638023,14.242445787414715 163.90188410949125,15.266263775328014 162.51404194809692,15.971560611446819 161.67223604692492,16.472093849981025 160.87593316743627,17.040881621045045 160.3298969072139,17.495911837894322 159.85211517952135,17.97369356558849 159.16956985424582,18.81549946676046 158.6235335940267,19.634553857090776 158.14575186633414,20.499111269107637 156.28012797724725,24.685389264130688 155.75684322786816,25.731958762885643 154.9150373266962,27.09704941343671 152.8446498400263,29.87273373622377 152.25311055812065,30.80554568076721 151.54781372200506,32.21613935300321 150.5467472449334,34.832563099892205 149.8642019196579,36.334162815499674 149.2726626377522,37.3352292925697 148.43085673658024,38.40455030216793 147.70280838961816,39.10984713828673 146.81549946675966,39.860646996088846 141.1503732669724,44.22893707785161 136.07678634909084,48.005687877710315 134.50693210096003,49.370778528261376 133.64237468894154,50.25808745111989 132.9825808745093,51.00888730892201 132.16352648418058,52.10095982936351 131.45822964806177,53.21578386064667 129.0693210095958,57.879843583362266 127.294703163882,60.92854603625889 125.6338428723781,63.45396373977965 123.17667970138554,66.84393885531405 122.06185567010077,68.5275506576596 121.03803768218908,70.43867756843142 120.65126199786638,71.4169925346598Z"/>
  </g>
</svg>