<?xml version="1.0" encoding="UTF-8" standalone="no"?>
<svg viewBox="0 0 256 144.26679774643637" xmlns="http://www.w3.org/2000/svg">
  <style>
    g.zone {
      fill: lightgray;
      stroke-width: 2;
      stroke-linecap: square;
      stroke-linejoin: bevel;
      stroke-miterlimit: 3;
      stroke-opacity: 0.8;
      stroke: black;
      fill-opacity: 0.3;
    }
  </style>
  <g class="zone" id="zone">
    <path d="M118.6058154043941,107.72579120505192 118.26702461526843,107.65803304722665 117.87983514198176,107.54187620524107 117.24097251106035,107.51283699474432 116.96026014292816,107.464438310584 116.34075698567032,107.3095625212692 115.77933224940458,107.07724883729733 115.47926040760744,106.9901312058078 115.00495330283262,106.87397436382221 113.77562672514803,106.6223012061861 112.42046356864675,106.12863462774631 111.93647672703945,105.85760199644592 111.5976859379138,105.73176541762786 111.36537225394261,105.7027262071318 111.07498014897796,105.7027262071318 110.46515672855122,105.78016410178886 109.85533330812585,105.79952357545312 108.98415699323188,105.92536015427119 108.73248383559574,105.83824252278166 108.14201988883396,105.56720989148126 107.53219646840859,105.35425568117365 106.86429462698975,105.25745831285234 106.36094831171748,105.2187393655238 105.81888304911669,105.11226226037 105.58656936514552,105.02514462888047 105.41233410216645,104.91866752372667 105.04450410254474,104.56051726093743 104.27012515597278,103.68934094604346 104.00877226150418,103.46670699890407 103.73773963020447,103.36022989375027 103.33119068325284,103.292471735925 103.00207963095966,103.1859946307712 102.38257647370182,102.94400120996755 102.02442621091258,102.85688357847802 101.78243279010893,102.83752410481375 101.60819752712986,102.8665633153105 101.25972700117171,103.00207963096035 101.17260936968356,103.09887699928167 101.03709305403302,103.32151094642175 100.8822172647189,103.43766778840734 100.12719779181052,103.68934094604346 98.44292358301468,104.4250009452869 97.63950542594667,104.88962831323062 97.07808068968093,105.18002041819528 96.67153174273068,105.28649752334908 95.76163648050819,105.39297462850288 95.432525428215,105.45105304949567 95.01629674443228,105.55753015464947 94.6871856921391,105.69304647029932 94.31935569251738,105.93503989110297 93.33202253563782,106.98045146897601 93.09970885166526,107.18372594245113 92.9157938518551,107.29020304760493 92.25757174726871,107.51283699474432 92.09301622112213,107.59027488940207 91.93814043180663,107.5805951525696 91.71550648466794,107.5225167315768 91.42511437970327,107.38700041592627 90.97016674859202,107.10628804779408 90.43778122282372,106.80621620599695 90.08931069686558,106.5158241010323 89.91507543388651,106.33190910122143 89.83763753922945,106.15767383824306 89.82795780239698,106.04151699625677 89.91507543388651,105.63496804930654 89.91507543388651,105.52849094415274 89.88603622339046,105.41233410216714 89.75051990773991,105.20905962869134 89.37301017128573,104.86058910273388 89.20845464513913,104.58955647143348 89.16005596097813,104.43468068211938 89.14069648731454,104.25076568230851 89.1697356978106,104.04749120883339 89.22781411880408,103.82485726169331 89.23749385563656,103.69902068287526 89.15037622414702,103.47638673573586 88.97614096116796,103.23439331493222 88.80190569818889,103.05047831512135 88.60831096154624,102.91496199947082 88.0468862252805,102.67296857866717 87.93072938329492,102.5955306840101 87.70809543615621,102.26641963171623 87.45642227852008,101.99538700041653 87.04019359473736,101.64691647445838 86.73044201610776,101.33716489582946 86.24645517450045,100.96933489620776 85.76246833289177,100.36919121261417 85.42367754376748,99.86584489734192 85.30752070178052,99.62385147653826 85.17200438613136,99.23666200325228 85.06552728097687,99.03338752977716 84.47506333421646,98.45260331984784 83.91363859795072,97.73630279426798 83.72972359814055,97.5717472681214 83.13925965137875,97.20391726849968 82.50039702045596,96.6134533217379 81.94865202102407,96.29402200627717 81.64858017922694,96.06170832230532 81.36786781109475,95.78099595417314 80.62252807501885,94.74526411313188 80.44829281203978,94.3580746398459 80.41925360154235,94.17415964003504 80.41925360154235,94.01928385072092 80.63220781184995,93.21586569365154 80.71932544333949,92.8093167467013 81.04843649563267,90.67977464362737 81.05811623246515,90.4571406964873 81.0387567588002,90.26354595984465 80.94195939047957,90.05059174953705 80.7677241275005,89.87635648655798 79.97398570726358,89.47948727644021 79.14152833969814,89.11165727681781 78.90921465572696,88.99550043483222 78.33811018263012,88.5695920142177 78.1445154459861,88.33727833024585 78.05739781449657,88.04688622528118 78.05739781449657,87.79521306764507 78.11547623549005,87.54353991000893 78.3090709721327,87.01115438424063 78.33811018263012,86.82723938442976 78.31875070896517,86.64332438461891 78.21227360381206,86.24645517450045 78.1929141301471,86.08189964835385 78.25099255114058,85.83990622754952 78.46394676144818,85.26880175445268 78.6672212349233,85.0461678073133 78.94793360305549,84.8816122811667 79.20928649752409,84.80417438650895 79.906227549439,84.62993912353058 80.82580254849397,84.43634438688724 81.19363254811569,84.26210912390817 81.63890044239446,84.08787386092979 82.13256702083424,83.84588044012614 82.3164820206458,83.67164517714707 82.70367149393108,83.00374333572822 82.88758649374263,82.77142965175635 83.3328543880214,82.45199833629565 83.77812228230017,82.07448859984144 84.15563201875437,81.88089386319811 84.5718607025371,81.97769123152013 85.07520701780935,82.02608991568044 85.50111543842455,82.01641017884866 85.9560630695358,81.95833175785586 86.74980148977271,81.76473702121253 88.87934359284594,81.10651491662615 90.65073543312994,80.64188754868243 92.42212727341531,80.13854123341018 92.89643437819014,80.03206412825706 93.2352251673158,79.99334518092853 93.65145385109852,79.9643059704318 93.97088516655923,79.97398570726358 94.29031648202132,80.0127046545928 94.71622490263515,80.10950202291411 95.06469542859328,80.21597912806791 95.55836200703305,80.39989412787878 96.33274095360503,80.7677241275005 97.97829621507233,81.62922070556267 100.09815858131446,82.55847544144945 100.78541989639689,82.89726623057442 101.49204068514427,83.29413544069287 102.33417778954218,83.84588044012614 104.78315120807613,85.65599122773867 105.37361515483792,86.02382122736037 105.86728173327771,86.26581464816472 106.4577456800395,86.44972964797557 106.9901312058078,86.5368472794651 107.45475857375153,86.56588648996116 108.80024199342033,86.56588648996116 109.39070594018212,86.58524596362543 110.02956857110492,86.65300412145069 110.45547699172012,86.72076227927597 111.02658146481696,86.86595833175829 111.66544409573838,87.0789125420659 112.26558777933263,87.3499451733656 112.78829356826847,87.620977804666 113.37875751503026,87.9888078042884 114.01762014595306,88.4631149090639 114.56936514538495,88.95678148750369 115.16950882897922,89.61500359209006 115.45990093394387,89.99251332854425 115.96324724921612,90.73785306462017 117.25065224789282,92.87707490452657 117.9572730366402,93.95152569289566 118.8187696147017,95.08405490225755 119.42859303512707,95.76163648050819 119.84482171890978,96.1778651642909 120.29976935002104,96.57473437440936 120.72567777063622,96.90384542670255 121.44197829621471,97.3587930578138 122.16795855862703,97.69758384693947 123.93935039891103,98.3751654251901 124.41365750368723,98.60747910916196 124.762128029644,98.82043331946956 125.21707566075526,99.15922410859453 125.53650697621734,99.4980148977202 125.77850039702099,99.85616516051013 125.95273566000006,100.3014330547889 126.02049381782464,100.63054410708209 126.03985329148821,101.00805384353627 126.0011343441597,101.38556357999047 125.92369644950263,101.72435436911613 125.78818013385347,102.11154384240211 125.58490566037698,102.51809278935235 125.31387302907727,102.89560252580655 125.12027829243462,103.11823647294594 124.74276855598043,103.43766778840734 124.31686013536523,103.69902068287526 123.75543539910086,103.95069384051138 122.38091276893464,104.4733996294479 121.8678867168299,104.69603357658728 121.11286724392153,105.07354331304148 120.38688698151057,105.52849094415274 119.70930540325924,106.06087646992104 119.28339698264541,106.5061443642005 119.07044277233783,106.80621620599695 118.97364540401581,107.01917041630455 118.85748856203023,107.39668015275873 118.80908987786921,107.7935493628772 118.6058154043941,107.72579120505192Z"/>
    <path d="M18.488297349416055,70.05225545430491 18.159186297122865,69.83930124399801 17.93655234998279,69.72314440201173 17.665519718683086,69.6360267705222 17.40416682421448,69.60698756002614 16.687866298634628,69.62634703369041 15.661814194426539,69.53922940220087 14.926154195183107,69.53922940220087 14.529284985065338,69.58762808636187 13.842023669981536,69.742503875676 13.222520512723694,69.8005822966688 12.8450107762695,69.8973796649908 12.573978144969796,70.0135365069764 12.25454682950771,70.19745150678725 11.693122093243348,70.5943207169057 10.918743146671387,70.95247097969563 10.260521042085015,71.36869966347835 9.437743411350672,71.64941203161052 8.963436306575845,71.72684992626759 8.605286043785231,71.70749045260332 8.237456044163515,71.59133361061774 7.6566718342342,71.20414413733175 6.969410519151774,70.82663440087757 6.746776572011699,70.6427194010667 6.562861572201529,70.45880440125585 6.514462888040524,70.0038567701446 6.504783151208048,69.81026203350126 6.543502098536576,69.54890913903334 6.737096835180599,68.9294059817755 6.940371308655721,68.53253677165705 7.288841834612485,68.01951071955231 7.385639202934495,67.8162362460772 7.356599992438442,66.91602072068717 7.308201308277437,66.72242598404384 7.250122887283955,66.58690966839399 7.095247097969838,66.34491624758964 6.8338942035012336,66.0448444057932 6.427345256550988,65.26078572238876 6.262789730404395,65.05751124891295 5.865920520286626,64.70904072295549 5.410972889175376,64.42832835482332 4.849548152909638,64.04113888153665 4.617234468938463,63.934661776383535 4.326842363973806,63.85722388172579 4.065489469505201,63.847544144894 3.6008621015614746,63.87658335539005 3.2523915756047113,63.847544144894 2.4005747343743167,63.71202782924346 1.8294702612774782,63.57651151359361 1.8294702612774782,63.0441259878253 1.7810715771164727,62.753733882860644 1.6842742087958373,62.52142019888878 1.4035618406622807,62.076152304609316 1.384202366998704,61.98903467311978 1.4326010511597094,61.708322304987604 1.6261957878023556,61.204975989715344 1.664914735130885,60.91458388475069 1.635875524634832,60.662910727115246 1.384202366998704,60.16924414867478 1.0066926305445119,59.627178886074 0.7163005255798547,59.36582599160608 0.16455552614659325,58.99799599198436 0.07743789465705853,58.89151888683057 0.009679736832476209,58.67856467652297 0,58.465610466216056 0.04839868416100547,58.301054940068774 0.18391499981154566,58.00098309827233 0.25167315763612796,57.73963020380441 0.377509736454192,57.546035467161076 0.8034181570693895,57.21692441486789 0.9195749990549772,57.08140809921735 1.0744507883690944,57.25564336219642 1.384202366998704,57.85578704579 1.539078156312821,58.039702045600855 2.2166597345641463,58.407532045222574 2.419934208039269,58.465610466216056 2.5941694710183385,58.45593072938358 3.2814307861007643,58.33977388739799 4.249404469316747,58.24297651907598 4.9173063107342205,58.08810072976186 5.246417363028783,57.942904677279536 6.1079139410902785,57.34276099368596 6.5338223617041,57.100767572881615 7.192044466291849,56.85877415207796 8.324573675653049,56.51030362612051 8.673044201611189,56.48126441562377 9.418383937687096,56.53934283661725 9.912050516126875,56.500623889288036 10.512194199719767,56.500623889288036 10.850984988845429,56.46190494195951 11.528566567096755,56.34574809997392 11.925435777214524,56.31670888947718 12.573978144969796,56.30702915264539 13.0579649865771,56.210231784323376 13.735546564828425,55.90048020569446 14.054977880289135,55.83272204786987 15.75861156274855,55.85208152153414 17.05569629825772,55.80368283737313 17.423526297879434,55.74560441638034 17.762317087005098,55.629447574394064 18.285022875940932,55.397133890422886 18.836767875374193,55.12610125912249 19.456271032632035,54.767950996332566 19.54338866412157,54.613075207018454 19.678904979770735,54.12908836541046 19.74666313759669,54.012931523424186 19.83378076908623,53.906454418271075 19.988656558400343,53.799977313117274 20.31776761069353,53.65478126063495 21.27606155707704,53.093356524369895 21.411577872726202,52.986879419216095 21.740688925019388,52.648088630090434 22.089159450977526,52.43513441978352 22.29243392445265,52.251219419971974 22.515067871592723,51.98018678867227 22.660263924074368,51.61235678904987 22.728022081900324,51.234847052596365 22.718342345067846,50.85733731614217 22.766741029228854,50.66374257949884 22.931296555375447,50.40238968503092 23.24104813400368,50.02487994857673 23.37656444965422,49.75384731727634 23.570159186296866,48.79555337089283 23.570159186296866,48.57291942375344 23.473361817976233,48.13733126630646 23.21200892350763,47.488788898551874 23.20232918667515,47.333913109237756 23.250727870836158,47.05320074110489 23.182969713011573,46.84992626762976 23.06681287102461,46.69505047831565 22.873218134381965,46.53049495216906 22.669943660906842,46.394978636518516 22.15691760880211,46.12394600521812 21.847166030173877,45.84323363708594 21.701969977690858,45.58188074261734 21.47933603055216,45.030135743184765 21.411577872726202,44.662305743563046 21.401898135895102,44.46871100691971 21.469656293719684,44.100881007298 21.6148523462027,43.771769955004814 21.808447082845348,43.50073732370442 22.195636556132015,43.142587060914494 22.398911029607138,42.881234166446575 22.48602866109667,42.70699890346751 22.592505766249783,42.33916890384579 22.815139713389858,41.82614285174174 22.970015502703976,41.38087495746228 23.01841418686498,41.1582410103229 22.911937081710494,40.1418686429466 22.9603357658715,39.78371838015667 23.250727870836158,38.873823117934165 23.531440238968337,38.33175785533338 23.608878133625396,38.031686013536934 23.647597080953926,37.67353575074701 23.705675501947407,37.383143645782354 23.705675501947407,37.218588119635754 23.483041554807333,36.47324838355985 23.444322607478803,36.13445759443419 23.444322607478803,35.81502627897348 23.570159186296866,34.98256891140804 23.77343365977199,34.450183385639725 23.79279313343694,33.95651680719995 23.860551291261523,33.65644496540281 23.870231028094,33.41445154459916 23.850871554430423,33.27893522894862 23.73471471244346,32.9691836503197 23.579838923129344,32.38839944039039 23.531440238968337,31.778576019965016 23.366884712821744,31.284909441524547 23.31848602866074,30.984837599728102 23.347525239158166,30.82028207358151 23.386244186486696,30.71380496842771 23.55079971263329,30.481491284455846 23.637917344122826,30.307256021477464 23.666956554618878,29.968465232351804 23.628237607290348,29.852308390366215 23.928309449087482,29.83294891670195 24.36389760653378,29.73615154837994 24.760766816652925,29.610314969561877 24.964041290128048,29.503837864408077 25.399629447574345,29.223125496275895 26.638635762090033,28.32290997088518 28.25515181305991,27.267818656180353 28.85529549665418,26.822550761901578 29.329602601429006,26.38696260445459 29.716792074715674,25.98041365750366 31.013876810224843,24.518773395848584 31.478504178167196,24.05414602790486 31.943131546110923,23.65727681778709 32.456157598215654,23.2797670813329 33.03694180814497,22.940976292207235 33.58868680757823,22.689303134571105 34.16947101750755,22.50538813476025 34.69217680644338,22.38923129277466 35.27296101637269,22.331152871781867 35.863424963134484,22.340832608613656 36.39581048890279,22.408590766438927 36.89915680417505,22.515067871592723 37.3637841721174,22.65058418724258 39.45460732786348,23.405603660150962 40.45162022157552,23.705675501947407 41.129201799826845,23.870231028094 41.942299693727335,24.025106817408805 43.27810337656503,24.189662343555398 44.75910311188437,24.25742050138067 45.50444284796028,24.228381290883927 45.93035126857548,24.189662343555398 46.45305705751131,24.102544712065864 46.84992626763045,23.986387870080275 47.227436004083266,23.821832343933682 47.50814837221682,23.647597080954615 47.68238363519452,23.483041554808022 47.87597837183854,23.24104813400437 48.02117442432018,22.970015502703976 48.09861231897724,22.728022081899635 48.13733126630577,22.418270503270715 48.117971792642194,22.108518924641793 48.05989337164871,21.8374862933414 47.934056792830646,21.498695504216425 47.79854047718148,21.247022346580298 47.57590653004141,20.91791129428711 47.0919196884341,20.366166294853848 44.7978220592129,18.159186297122865 43.47169811320768,16.929859719438966 43.142587060914494,16.581389193481517 42.82315574545378,16.17484024653127 42.65860021930719,15.874768404734137 42.58116232465013,15.65213445759475 42.53276364048912,15.381101826294358 42.5521231141527,15.139108405490706 42.60052179831371,14.945513668847372 42.73603811396425,14.70352024804372 42.90059364011084,14.52928498506465 43.16194653457944,14.364729458918058 43.52009679736868,14.238892880099993 44.04280258630452,14.161454985442935 44.478390743752186,14.151775248610459 46.5595341626658,14.21953340643573 47.488788898551874,14.1808144591072 48.18572995046677,14.11305630128193 48.92138994971158,13.987219722463866 49.58929179112906,13.842023669981536 50.295912579876436,13.629069459674627 51.002533368623816,13.367716565206022 51.66075547321019,13.08700419707384 52.541611524936634,12.641736302794378 53.10303626120237,12.322304987333668 53.73221915529132,11.886716829886682 54.39044125987906,11.344651567285897 54.874428101486366,10.870344462510381 56.471584678791295,9.166710780050968 56.93621204673502,8.750482096268247 57.45891783567223,8.372972359814055 58.09778046659365,8.024501833856604 58.514009150376374,7.85994630771001 58.881839149998086,7.743789465724422 59.65621809657005,7.569554202745353 60.478995727304394,7.492116308088295 61.19529625288287,7.501796044920083 62.05679283094574,7.588913676409618 62.81181230385275,7.724429992060158 64.08953756569697,8.024501833856604 66.151321510947,8.547207622793124 67.12897493099408,8.827919990925306 68.06790940371263,9.166710780050968 68.85196808711845,9.553900253336948 69.39403334971786,9.883011305630134 69.9554580859836,10.289560252581067 70.51688282224795,10.783226831020848 70.98151019019168,11.286573146293103 71.29126176882129,11.693122093243348 71.610693084282,12.186788671683129 72.51090860967203,13.79362498582122 72.72386281997963,14.10337656445014 72.97553597761575,14.413128143079064 73.19816992475583,14.616402616554186 73.46920255605554,14.790637879533255 73.70151624002808,14.877755511022102 74.04998676598484,14.935833932015584 74.47589518660004,14.906794721518843 74.85340492305424,14.771278405868303 75.33739176466155,14.548644458728916 76.48928044768769,13.919461564639283 77.09910386811444,13.609709986010362 77.64116913071385,13.396755775702763 78.15419518281858,13.23220024955617 78.65754149809084,13.116043407569894 79.25768518168373,13.038605512912836 81.25171096910779,12.912768934094771 81.99705070518371,12.8450107762695 82.64559307293898,12.719174197452125 83.20701780920334,12.53525919764058 83.79748175596512,12.254546829508397 84.3589064922295,11.867357356222417 84.80417438650964,11.47048814610396 85.7431088592282,10.53155367338472 86.0625401746889,10.270200778916804 86.31421333232504,10.095965515937733 86.73044201610776,9.883011305630134 87.11763148939443,9.737815253147806 87.59193859416925,9.631338147994695 88.15336333043498,9.573259727001213 88.88902332967842,9.563579990169425 89.82795780239698,9.65069762165896 90.51521911748078,9.766854463644547 92.57700306272943,10.183083147427268 93.58369569327394,10.357318410406338 94.54198963965744,10.463795515559449 95.41316595455142,10.502514462888666 96.54569516391263,10.454115778727662 97.29103489998853,10.366998147238126 99.12050516126601,10.076606042273468 99.70128937119532,10.028207358112464 100.32079252845317,10.0088478844482 102.6052104208419,10.057246568609205 105.1219419972018,10.03788709494494 105.93503989110366,10.057246568609205 106.90301357431827,10.144364200098739 108.59696751994521,10.434756305063397 109.20679094037195,10.454115778727662 109.69077778197925,10.376677884070602 110.07796725526592,10.231481831588274 110.45547699172012,10.0088478844482 110.86202593867036,9.660377358490747 111.01690172798448,10.028207358112464 111.25889514878813,10.366998147238126 111.47184935909573,10.53155367338472 111.76224146406038,10.647710515370996 112.28494725299622,10.734828146859842 113.00124777857607,10.783226831020848 113.3497183045342,10.744507883692318 113.94018225129463,10.618671304874255 114.15313646160223,10.608991568041779 114.30801225091771,10.628351041706043 114.61776382954595,10.734828146859842 115.1211101448182,11.044579725488763 115.83741067039806,11.402729988278692 116.06972435436924,11.557605777593496 116.45691382765591,11.867357356222417 116.6795477747946,11.973834461376217 116.9989790902567,12.031912882369012 118.11214882595432,11.973834461376217 118.49933829923961,11.886716829886682 118.62517487805768,11.818958672061413 118.73165198321216,11.731841040571878 118.8671682988627,11.528566567096755 118.95428593035086,11.131697356978298 119.07044277233783,10.889703936174646 119.18659961432341,10.754187620524107 119.81578250841373,10.183083147427268 120.0480961923849,9.989488410783935 120.27073013952499,9.844292358301606 120.63856013914669,9.65069762165896 121.06446855976189,9.466782621848102 121.39357961205508,9.379664990358567 121.89692592732597,9.360305516694302 122.52610882141627,9.273187885204766 122.73906303172387,9.215109464211974 123.14561197867413,9.031194464401116 123.33920671531814,8.98279578024011 123.56184066245685,8.973116043407634 124.11358566189011,9.040874201232905 124.3265398721977,9.031194464401116 124.58789276666494,8.95375656974337 125.19771618709167,8.70208341210724 125.41067039739927,8.63432525428266 125.69138276553146,8.59560630695413 125.97209513366364,8.59560630695413 126.14633039664271,8.614965780618395 126.87231065905367,8.818240254093517 127.36597723749344,8.837599727757782 127.73380723711654,8.808560517261041 128.32427118387696,8.70208341210724 128.6146632888416,8.624645517450183 129.00185276212827,8.479449464967853 129.36968276175,8.402011570310796 130.0182251295039,8.402011570310796 130.97651907588738,8.440730517639325 131.17979354936253,8.431050780807537 131.4508261806636,8.363292622982266 131.95417249593586,8.218096570499938 132.59303512685727,7.937384202367069 133.57068854690573,7.6760313078991524 133.89011986236645,7.530835255416823 134.8387340719175,6.872613150830451 135.80670775513346,6.330547888229666 136.01966196544106,6.136953151586331 136.35845275456535,5.720724467803611 136.6391651226989,5.449691836503217 137.15219117480225,5.110901047378243 137.64585775324204,4.849548152909638 137.81041327938863,5.091541573713978 138.05240670019364,5.352894468181894 138.84614512042918,6.069194993761749 139.28173327787687,6.485423677543783 139.64956327749857,6.901652361326504 140.08515143494625,7.463077097591554 140.67561538170668,8.31489393882126 142.35988959050252,10.88002419934217 142.63092222180222,11.334971830453421 142.8632359057734,11.770559987900407 143.2891443263886,12.777252618444919 144.27647748326814,15.4101410367911 144.59590879873022,16.349075509509653 144.8282224827014,17.113774719249825 145.05085642984147,18.101107876130072 145.16701327182707,18.8948462963663 145.19605248232313,19.611146821946154 145.1573335349946,20.22097024237152 145.041176693009,20.71463682081199 144.91534011419094,21.101826294097968 144.75078458804435,21.469656293719684 144.51847090407318,21.89556471433488 144.09256248345798,22.563466555753042 143.74409195749985,23.037773660529247 143.3762619578781,23.492721291640496 143.03747116875246,23.84119181759795 142.71803985329174,24.102544712065864 142.44700722199204,24.296139448709198 141.82750406473284,24.634930237834173 141.22736038113993,24.876923658638514 139.78507959314913,25.370590237078293 139.2623738042119,25.612583657881945 139.02038038340825,25.76745944719675 138.80742617310065,25.94169471017513 138.6235111732905,26.14496918365094 138.49767459447241,26.338563920293588 138.4008772261504,26.638635762090722 138.4105569629829,26.929027867055378 138.5073543313049,27.20006049835577 138.7299882784436,27.490452603320428 138.9913411729122,27.684047339963072 139.28173327787687,27.858282602942143 140.7627330131962,28.506824970696726 141.21768064430745,28.74881839150038 141.56615117026558,28.971452338639768 141.80814459106924,29.17472681211489 142.0404582750404,29.436079706583495 142.1953340643559,29.707112337883885 142.253412485348,29.987824706016067 142.22437327485196,30.32661549514173 142.05981774870537,30.723484705260187 141.7887851174043,31.120353915377954 141.2370401179724,31.759216546300753 140.5981774870496,32.40775891405465 140.20130827693185,32.746549703180314 139.72700117215564,33.06598101864102 139.2042953832198,33.298294702612885 138.93326275191873,33.39509207093489 138.57511248912948,33.47252996559195 137.99432827920018,33.530608386584746 137.36514538510986,33.482209702423745 136.76500170151695,33.32733391310963 136.31973380723682,33.14341891329877 135.81638749196594,32.8627065451659 134.24827012515567,31.749536809468275 133.56100881007325,31.323628388853766 132.80598933716487,30.95579838923136 132.32200249555757,30.79124286308477 131.96385223276695,30.704125231595235 131.3927477596701,30.636367073770653 130.7538851287487,30.665406284266705 130.22149960298037,30.762203652588717 128.96313381479973,31.091314704881903 128.6146632888416,31.149393125874695 128.2952319733809,31.168752599538962 127.99516013158376,31.159072862707173 127.58861118463352,31.10099444171369 127.15302302718722,30.984837599728102 126.76583355390055,30.829961810413298 126.32056565962178,30.597648126442124 125.79785987068456,30.25885733731646 125.21707566075526,29.77487049570847 124.762128029644,29.31024312776543 124.42333724051834,28.903694180814497 123.99742881990451,28.313230234053393 122.83586040004589,26.377282867622117 122.57450750557729,26.038492078497143 122.28411540061263,25.748099973532483 121.84852724316633,25.409309184406823 121.30646198056554,25.12859681627464 120.59984119181817,24.876923658638514 119.93193935039932,24.731727606156184 119.39955382463101,24.683328921995177 118.70261277271611,24.683328921995177 118.09278935228936,24.760766816652236 117.46360645819904,24.905962869134566 116.73762619578808,25.147956289938904 115.98260672287971,25.467387605399615 115.13078988165068,25.883616289182335 114.49192725072788,26.26112602563653 114.0563390932816,26.54183839376871 113.56267251484181,26.929027867055378 113.21420198888367,27.258138919348564 112.77861383143599,27.751805497788343 112.53662041063235,28.090596286914007 112.32366620032475,28.448746549703245 112.1300714636821,28.85529549665418 111.75256172722791,29.745831285212414 111.57832646424883,30.04590312700886 111.42345067493473,30.239497863652197 111.23953567512456,30.40405338979879 111.01690172798448,30.539569705448642 110.75554883351587,30.64604681060244 110.50387567587974,30.694445494763446 110.05860778160097,30.71380496842771 109.58430067682615,30.626687336938176 109.11967330888241,30.44277233712732 108.65504594093869,30.162059968995138 108.25817673082092,29.823269179869474 107.93874541535884,29.503837864408077 106.78685673233268,28.090596286914007 106.18671304873979,27.461413392823687 105.81888304911669,27.14198207736229 105.55753015464947,26.967746814383908 105.25745831285234,26.793511551404837 104.87994857639815,26.628956025258244 104.50243883994395,26.53215865693692 104.0474912088327,26.47408023594413 103.57318410405787,26.512799183272655 103.20535410443615,26.599916814762192 102.82784436798197,26.735433130412044 102.4406548946953,26.967746814383908 102.09218436873716,27.277498393012827 101.8017922637725,27.635648655802758 101.54043936930528,28.090596286914007 101.29844594850162,28.768177865164645 100.89189700155,30.95579838923136 100.70798200173984,31.52690286232889 100.46598858093618,32.059288388097194 100.09815858131446,32.62071312436225 99.70128937119532,33.09502022913776 99.26570121374903,33.511248912920486 98.19125042537993,34.498582069800044 97.7266230574362,34.99224864824051 97.39751200514301,35.45687601618355 97.24263621582752,35.76662759481247 97.15551858433936,36.0183007524486 97.06840095284983,36.415169962567056 97.04904147918488,36.87011759367831 97.11679963700946,37.34442469845382 97.27167542632495,37.8380912768936 97.47494989980008,38.23496048701206 97.73630279426868,38.60279048663377 98.11381253072149,38.9609407494237 98.55908042500164,39.270692328052625 98.8494725299663,39.38684917003821 99.17858358225949,39.473966801527745 99.80776647634981,39.56108443301728 100.43694937043875,39.52236548568875 100.75638068590084,39.473966801527745 101.17260936968356,39.35780995954216 101.7437138427804,39.15453548606703 102.31481831587723,38.873823117934165 102.85688357847802,38.554391802473454 104.45404015578295,37.52833969826468 104.84122962906962,37.31538548795708 105.34457594434187,37.07339206715343 105.87696147011017,36.87011759367831 106.38030778538244,36.74428101486024 106.86429462698975,36.676522857034975 107.42571936325548,36.647483646538916 107.98714409951984,36.676522857034975 108.56792830944916,36.76364048852451 109.14871251937846,36.908836541006835 109.79725488713237,37.121790751314435 110.76522857034836,37.54769917192895 112.77861383143599,38.63182969713051 113.31099935720569,38.89318259159843 114.00794040912058,39.15453548606703 114.646803040042,39.30941127538115 115.25662646046875,39.38684917003821 115.70189435474752,39.396528906870685 116.15684198585878,39.377169433206426 116.65050856429855,39.299731538549366 117.46360645819904,39.07709759140929 119.09948198283388,38.457594434151446 119.8351419820773,38.22528075017958 120.53208303399221,38.08976443452973 121.122546980754,38.07040496086547 121.50973645404066,38.10912390819399 121.83884750633385,38.19624153968353 122.17763829545952,38.351117328997645 122.44867092675922,38.54471206564098 122.64226566340187,38.767346012780365 122.7777819790524,39.01901917041649 122.85521987370947,39.299731538549366 122.87457934737442,39.551404696184804 122.87457934737442,39.812757590653405 122.8261806632134,40.1902673271076 122.43899118992674,41.66158732559515 122.34219382160612,42.24237153552446 122.33251408477363,42.571482587817655 122.3518735584372,42.91027337694263 122.57450750557729,44.352554164934126 122.61322645290582,45.03981548001724 122.58418724240975,45.475403637464225 122.5164290845838,45.862593110750204 122.30347487427758,46.57889363632937 122.01308276931292,47.21775626725148 121.73237040117937,47.721102582523734 119.93193935039932,50.55726547434504 119.49635119295165,51.19612810526715 118.49933829923961,52.55129126176911 118.07342987862579,53.20951336635548 117.79271751049222,53.70317994479527 117.5894430370171,54.12908836541046 117.00865882708779,55.503610995576686 116.73762619578808,56.01663704768073 116.38915566982995,56.471584678791984 115.98260672287971,56.839414678413696 115.46958067077635,57.18788520437115 113.97890119862453,58.049381782433336 113.59171172533786,58.32041441373372 113.04964646273707,58.75600257118071 112.54630014746482,59.20127046545949 112.03327409536008,59.72397625439601 111.6460846220748,60.16924414867478 111.27825462245308,60.65323099028277 111.007221991152,61.06945967406549 110.7845880440133,61.49536809468 110.60067304420176,61.93095625212699 110.48451620221617,62.27942677808444 110.36835936023058,62.753733882860644 110.3102809392371,63.150603092978415 110.26188225507609,64.5444851968089 110.20380383408398,64.95103414375984 110.1457254130905,65.16398835406675 110.0392483079374,65.41566151170288 109.89405225545438,65.63829545884226 109.71013725564421,65.86092940598233 109.4003856770146,66.13196203728273 108.98415699323188,66.40299466858244 108.41305252013504,66.69338677354709 107.30956252126852,67.18705335198756 106.66102015351461,67.5452036147768 106.04151699625677,68.00983098272053 104.77347147124503,69.13268045525062 104.35724278746231,69.44243203387956 103.97973305100813,69.65538624418646 103.52478541989687,69.81994177033374 103.29247173592432,69.86834045449406 102.99239989412857,69.87802019132653 102.73104699965995,69.8489809808298 102.46969410519135,69.78122282300453 101.98570726358405,69.55858887586514 101.60819752712986,69.31659545506149 101.15324989601861,68.91004650811055 100.69830226490735,68.41637992967077 100.05943963398455,67.6516807199306 99.62385147653826,67.22577229931609 99.16890384542701,66.8966612470229 98.73331568797934,66.6837070367153 98.45260331984716,66.58690966839399 98.07509358339297,66.49011230007197 97.66854463644272,66.43203387907917 97.36847279464558,66.42235414224739 96.95224411086286,66.43203387907917 96.64249253223463,66.4707528264077 96.02298937497679,66.60626914205825 95.63579990169012,66.75146519454057 95.34540779672547,66.88698151019042 95.01629674443228,67.08057624683376 94.77430332362863,67.26449124664462 94.56134911332103,67.45808598328796 94.3096759556849,67.72911861458766 94.14512042953831,67.96143229855952 94.01928385072024,68.20342571936386 93.90312700873466,68.47445835066357 93.83536885091007,68.70677203463543 93.77729042991659,69.13268045525062 93.77729042991659,69.60698756002614 93.8837675350697,70.52656255908043 93.91280674556712,70.96215071652742 93.89344727190218,71.41709834763867 93.80632964041264,71.87204597874992 93.63209437743495,72.39475176768644 93.38042121979882,72.87873860929443 93.03195069384068,73.33368624040568 92.61572201005797,73.71119597685987 92.23821227360376,73.95318939766352 91.85102280031847,74.13710439747439 91.44447385336686,74.26294097629244 91.02824516958414,74.34037887094951 90.58297727530535,74.37909781827804 90.11834990736163,74.39845729194299 88.39535675123864,74.35005860778197 87.66937648882632,74.35973834461377 86.89499754225434,74.43717623927151 86.10125912201744,74.60173176541811 85.28816122811695,74.89212387038276 84.47506333421646,75.29867281733301 83.76844254546907,75.76330018527673 83.0134230725607,76.38280334253459 82.62623359927403,76.02465307974465 82.3164820206458,75.68586229061899 81.73569781071647,74.86308465988603 81.46466517941539,74.53397360759284 80.96131886414314,74.01126781865632 80.54509018036042,73.63375808220212 80.24501833856466,73.430483608727 79.19960676069162,72.9464967671197 78.47362649827929,72.53994782016876 77.63148939388275,72.23987597837232 76.95390781563142,71.9301243997434 76.35376413203853,71.70749045260332 75.65682308012225,71.56229440012099 75.43418913298355,71.48485650546394 75.21155518584348,71.3396604529816 74.70820887057123,70.87503308503857 74.24358150262749,70.56528150640965 73.89511097667074,70.39104624343058 72.99489545128071,70.04257571747313 71.72684992626759,69.35531440239001 71.48485650546394,69.24883729723621 71.29126176882129,69.21011834990769 71.11702650584222,69.21979808673947 69.86834045449406,69.39403334971854 69.08428177108962,69.43275229704707 68.76485045562892,69.40371308655102 68.58093545581737,69.32627519189327 68.38734071917472,69.14236019208242 68.12598782470612,68.69709229780364 67.922713351231,68.49381782432852 67.66136045676238,68.37766098234225 67.09993572049802,68.23246492985992 66.85794229969437,68.14534729837038 66.50947177373624,67.94207282489526 66.21907966877158,67.70007940409161 66.02548493212893,67.48712519378401 65.76413203766033,67.07089651000129 65.5124588800242,66.48043256324019 65.32854388021403,66.151321510947 65.17366809089853,65.9383673006394 64.98975309108836,65.76413203766033 64.10889703936192,65.21238703822776 63.276439671796474,64.51544598631286 62.97636782999934,64.30249177600525 62.6182175672101,64.12825651302619 61.95999546262373,63.9540212500478 61.72768177865118,63.9540212500478 60.691949937610616,64.0604983552016 60.48867546413549,64.12825651302619 60.1498846750112,64.37024993383052 59.927250727871126,64.45736756531937 58.91087836049414,64.66064203879517 57.72027073013946,64.77679888078077 57.54603546716039,64.78647861761256 57.391159677846275,64.75743940711651 56.90717283623897,64.5444851968089 56.64581994177036,64.4864067758161 56.394146784134236,64.50576624948037 55.78432336370887,64.62192309146596 54.92282678564737,64.52512572314464 54.77763073316436,64.5444851968089 54.613075207017765,64.62192309146596 54.429160207207595,64.8155178281093 54.25492494422853,65.14462888040248 54.012931523424875,65.73509282716428 53.77093810262122,66.50947177373624 53.68382047113169,66.67402729988282 53.5773433659772,66.80954361553337 53.383748629334555,66.98377887851176 53.170794419026954,67.11929519416229 52.1834612621474,67.61296177260208 51.88338942035026,67.79687677241293 51.622036525881654,68.01951071955231 51.205807842098935,68.4550988769993 50.54758573751256,68.94876545543977 50.30559231670891,69.2004386130752 50.13135705372984,69.48115098120807 49.976481264415725,69.86834045449406 49.7248081067796,70.83631413770935 49.62801073845758,71.126706242674 48.872991265550574,72.7916209778049 48.6503573184105,73.08201308276955 48.39868416077437,73.29496729307715 48.166370476803195,73.40144439823095 47.827579687677535,73.4885620297198 47.430710477559764,73.478882292888 47.08223995160163,73.40144439823095 45.920671531743,72.83033992513343 45.03981548001655,72.47218966234418 44.5364691647443,72.12371913638604 44.110560744130474,71.69781071577154 43.56849548152969,71.3977388739744 43.35554127122209,71.24286308466029 42.05845653571292,70.09097440163345 41.87454153590275,69.98449729648033 41.44863311528755,69.790902559837 41.1582410103229,69.61666729685793 40.89688811585429,69.37467387605427 40.76137180020375,69.15203992891489 40.683933905546695,68.86164782395024 40.625855484554585,68.27118387718845 40.55809732672863,68.09694861421006 40.48065943207157,67.94207282489526 40.287064695428924,67.72911861458766 40.01603206412784,67.49680493061648 39.686921011834656,67.27417098347641 39.35780995954147,67.10961545732981 39.35780995954147,67.15801414149082 39.290051801716885,67.18705335198756 38.60279048663446,67.15801414149082 37.80905206639755,67.32256966763741 37.59609785608995,67.34192914130168 37.412182856278406,67.31288993080562 36.91851627783863,67.19673308881934 36.33773206790931,67.02249782584097 36.047339962944655,67.00313835217601 35.47623548984782,67.06121677316949 34.4598631224722,67.25481150981214 34.392104964646244,67.32256966763741 34.40178470147872,67.41936703595874 34.67281733277842,67.72911861458766 34.75993496426796,67.89367414073494 34.75993496426796,68.03887019321658 34.72121601693943,68.21310545619565 34.32434680682166,68.94876545543977 33.81132075471693,69.64570650735467 33.3370136499421,70.19745150678725 33.24989601845257,70.36200703293383 33.10469996596955,70.7588762430523 33.01758233448002,70.88471282187035 32.901425492494425,70.99118992702415 32.640072598025824,71.14606571633897 31.797935493629282,71.48485650546394 31.11067417854548,71.80428782092534 30.95579838923136,71.9301243997434 30.946118652398887,71.98820282073619 30.975157862896314,72.12371913638604 30.88804023140678,72.23019624153984 30.268537074148938,72.54962755700124 29.65871365372219,72.83033992513343 29.329602601429006,72.92713729345543 28.013158392256262,73.23688887208435 27.42269444549447,73.35304571406995 26.735433130412044,73.430483608727 25.999773131168613,73.5950391348736 25.06083865844868,73.6434378190346 24.693008658826965,73.5950391348736 24.02510681740812,73.3240065035732 22.776420766061328,72.90777781979048 21.585813135705273,72.39475176768644 21.15990471509145,72.16243808371458 20.385525768518114,71.62037282111447 19.611146821946154,71.20414413733175 19.504669716791664,71.09766703217795 19.282035769652968,70.7491965062205 19.069081559345367,70.49752334858438 18.749650243884656,70.21681098045151 18.56573524407311,70.08129466480166 18.488297349416055,70.05225545430491Z"/>
    <path d="M229.48720081672803,93.15778727265874 229.8259916058537,95.03565621809653 230.0873445003209,96.10042726963384 230.2422202896364,96.59409384807363 230.40677581578302,97.02000226868883 230.75524634173976,97.73630279426798 231.1037168676979,98.3170870041973 231.4328279199911,98.78171437214102 232.0716905509139,99.5464135818812 232.4104813400382,99.88520437100618 232.78799107649237,100.22399516013184 234.06571633833659,101.18228910651534 234.53034370628032,101.55979884296954 234.97561160056046,102.00506673724831 235.2756834423562,102.40193594736677 235.56607554732088,102.90528226263902 235.66287291564288,103.14727568344267 235.74999054713243,103.46670699890407 235.817748704957,103.98941278783991 235.8274284417895,105.04450410254474 235.87582712595048,105.3252164706776 235.93390554694258,105.51881120732025 236.07910159942563,105.78016410178886 236.28237607290075,106.01247778576072 236.48565054637587,106.17703331190731 236.75668317767693,106.33190910122143 236.9889968616481,106.41902673271096 237.27938896661277,106.5061443642005 237.86017317654208,106.5642227851933 238.47967633379994,106.52550383786476 239.13789843838632,106.38998752221423 239.70900291148314,106.21575225923584 240.2607479109164,106.01247778576072 242.9420350134229,104.7928309449093 243.6389760653378,104.52179831360891 244.23911974893207,104.30884410330131 245.06189737966503,104.07653041932944 246.98816500926452,103.6119030513864 249.12738684917025,102.94400120996755 249.78560895375662,102.80848489431702 250.51158921616894,102.73104699965995 250.92781789995166,102.72136726282817 251.42148447839145,102.75040647332422 252.28298105645294,102.87624305214229 253.14447763451443,103.11823647294594 253.9188565810864,103.44734752523912 254.6061178961702,103.83453699852579 254.94490868529587,104.07653041932944 255.22562105342803,104.3185238401331 255.44825500056675,104.55083752410496 255.69024842137176,104.87026883956635 255.81608500018984,105.10258252353822 255.92256210534293,105.36393541800614 255.98064052633643,105.61560857564227 256,105.87696147011017 255.96128105267147,106.22543199606763 255.89352289484688,106.47710515370376 255.7870457896924,106.74813778500415 255.58377131621728,107.07724883729733 255.39017657957464,107.31924225810168 255.11914394827355,107.59027488940207 254.68355579082726,107.93874541535952 254.131810791394,108.30657541498124 252.32170000378147,109.33262751918933 251.65379816236262,109.74885620297205 251.0730139524333,110.1457254130905 250.589027110826,110.53291488637649 250.0566415850577,111.02658146481696 249.524256059288,111.57832646424953 248.11101448179463,113.33035883086926 247.56894921919383,113.94018225129531 246.98816500926452,114.51128672439215 246.43642000983127,114.94687488183914 245.89435474723047,115.30502514462907 245.30389080046868,115.59541724959372 244.6553484327148,115.83741067039738 243.45506106552764,116.17620145952304 242.98075396075143,116.34075698566963 242.46772790864807,116.58275040647328 241.9837410670394,116.91186145876716 241.74174764623575,117.12481566907407 241.4803947517685,117.40552803720693 241.0738458048169,117.9572730366395 240.87057133134178,118.3347827730937 240.70601580519516,118.68325329905116 240.57049948954602,119.05108329867286 240.425303437063,119.53507014028087 240.3188263319099,120.05777592921739 240.22202896358786,120.67727908647522 240.06715317427376,122.80682118954915 239.93163685862322,124.07486671456158 239.75740159564415,125.24611487125199 239.5638068590015,126.2044088176355 239.3024539645329,127.1723825008508 239.0314213332332,128.0241993420805 238.74102922826853,128.7792188149889 238.07312738684968,130.38605512912628 237.83113396604602,131.03459749688088 237.63753922940202,131.65410065413872 237.50202291375285,132.2445646009005 237.39554580859837,133.08670170529774 237.25034975611672,135.21624380837167 237.25034975611672,135.85510643929376 237.3277876507738,136.46492985971983 237.46330396642296,136.97795591182387 237.64721896623448,137.40386433243907 237.93761107119914,137.89753091087886 238.26672212349234,138.31375959466158 238.5474344916245,138.59447196279376 238.8765455439177,138.89454380459088 240.11555185843338,139.83347827730944 240.5898589632096,140.24002722426036 240.92864975233525,140.57881801338536 241.7611071199007,141.5177524861046 242.13861685635487,141.89526222255878 242.63228343479466,142.253412485348 243.10659053956948,142.52444511664842 243.5808976443457,142.73739932695602 245.11029606382604,143.35690248421386 245.5555639581048,143.56017695768898 245.7781979052449,143.68601353650703 245.91371422089543,143.81185011532511 245.97179264188753,143.91832722047891 245.97179264188753,143.9764056414717 245.8653155367344,144.0828827466255 245.68140053692287,144.16032064128257 245.15869474798706,144.23775853594032 244.41335501191114,144.26679774643637 242.1773358036834,144.26679774643637 236.10814080992168,144.10224222028975 232.9331871289754,144.05384353612945 210.9795439936484,144.00544485196843 210.26324346806854,143.9764056414717 209.81797557378977,143.93768669414317 209.3339887321811,143.84088932582185 209.03391689038534,143.74409195750053 208.7919234695803,143.62793511551425 208.5789692592741,143.45369985253586 208.453132680456,143.2697848527243 208.39505425946254,143.09554958974593 208.38537452263006,142.81483722161306 208.43377320679107,142.56316406397764 208.53057057511307,142.28245169584477 208.7241653117557,141.84686353839777 209.32430899534998,140.79177222369296 209.79861610012483,140.0173932771203 210.32132188906203,139.23333459371585 210.9311453094874,138.39119748931864 211.61840662456981,137.55874012175317 212.24758951866013,136.8617990698383 214.21257609558816,134.88713275607847 214.62880477937088,134.38378644080623 214.89983741067059,133.97723749385597 215.08375241048213,133.61908723106606 215.2192687261313,133.29965591560534 215.30638635762082,132.98990433697642 215.3741445154468,132.66079328468254 215.4128634627753,132.06064960108895 215.3838242522779,131.04427723371268 215.3838242522779,130.68612697092343 215.44190267327136,130.2795780239725 215.55805951525696,129.91174802435077 215.7516542518996,129.52455855106479 216.0130071463682,129.1470488146106 216.38083714598991,128.71146065716363 217.2036147767229,127.83060460543786 217.6101637236745,127.31757855333312 217.77471924982112,127.04654592203273 217.8908760918067,126.7948727643973 217.97799372329624,126.54319960676116 218.01671267062477,126.28184671229256 218.0070329337923,125.87529776534231 217.8811963549742,125.49778802888812 217.6682421446666,125.1783567134274 217.3681703028695,124.88796460846275 217.0390592505763,124.67501039815515 216.62283056679357,124.46205618784755 214.82239951601352,123.78447460959691 214.0286610957766,123.41664460997521 213.67051083298736,123.19401066283513 213.3413997806942,122.92297803153474 213.04132793889707,122.61322645290582 212.83805346542192,122.32283434794115 212.6347789919468,121.91628540099092 212.52830188679232,121.4903769803764 212.4799032026313,121.09350777025794 212.45086399213525,119.9900177713921 212.40246530797427,119.67058645593072 212.3250274133172,119.35115514047 212.09271372934603,118.73165198321216 211.32801451960518,117.1635346164026 211.17313873029104,116.74730593262056 211.07634136196904,116.38915566983063 211.01826294097694,116.04068514387319 210.99890346731198,115.66317540741899 211.02794267780803,115.2856656709648 211.10538057246646,114.93719514500735 211.24089688811563,114.55000567172137 211.50224978258424,114.00794040912058 211.7248837297243,113.64979014633066 212.14111241350702,113.07868567323382 213.9415434642871,110.89106514916641 214.38681135856586,110.4070783075591 215.3257458312858,109.46814383483986 215.72261504140354,109.02287594056041 215.97428819903968,108.70344462509969 216.15820319885123,108.38401330963829 216.30339925133288,108.06458199417759 216.3905168828224,107.71611146821945 216.4389155669834,107.37732067909447 216.4389155669834,106.9901312058078 216.41955609331845,106.69005936401136 216.3227587249978,106.18671304873911 215.9065300412151,104.71539305025155 215.77101372556456,104.01845199833664 215.7516542518996,103.66998147237919 215.78069346239704,103.36022989375027 215.81941240972557,103.12791620977842 215.9162097780462,102.82784436798129 216.06140583052922,102.51809278935235 216.30339925133288,102.14058305289885 217.60048398684205,100.58214542292177 217.8811963549742,100.18527621280332 218.17158845993887,99.70128937119532 218.41358188074253,99.23666200325228 218.62653609105013,98.73331568798002 219.08148372216138,97.28135516315673 219.24603924830797,96.84576700570976 219.46867319544805,96.37145990093424 219.67194766892317,96.02298937497679 219.95266003705535,95.67451884901934 220.26241161568495,95.3744470072222 220.76575793095583,94.99693727076802 221.6369342458498,94.42583279767118 221.91764661398338,94.21287858736358 222.2273981926116,93.93216621923139 222.46939161341524,93.61273490376999 222.6533066132268,93.26426437781254 222.7597837183799,92.93515332551935 222.73074450788386,92.4898854312399 222.59522819223332,92.05429727379291 222.4403524029192,91.792944379325 222.19835898211554,91.50255227436034 221.33686240405405,90.64105569629884 220.9399931939349,90.19578780201938 220.60120240480924,89.7505199077406 219.84618293190223,88.69542859303509 219.37187582712605,88.15336333043498 219.04276477483285,87.87265096230212 218.6942942488747,87.67905622565948 218.3071047755894,87.54353991000893 217.91023556547026,87.47578175218366 217.56176503951352,87.47578175218366 217.22297425038784,87.5048209626804 216.83578477710117,87.59193859416993 216.49699398797551,87.69841569932373 216.15820319885123,87.83393201497358 215.78069346239704,88.02752675161692 215.1611903051392,88.43407569856717 214.82239951601352,88.72446780353182 214.54168714788133,88.99550043483222 213.9802624116156,89.63436306575433 213.5156350436719,90.30226490717318 212.54766136045728,91.86070253715026 212.2669489923251,92.24789201043625 212.01527583468896,92.5382841154009 211.6764850455633,92.83835595719803 211.40545241426221,93.01259122017642 211.21185767761958,93.10938858849774 210.80530873066934,93.24490490414829 210.31164215222955,93.33202253563782 208.16274057549137,93.42881990395914 207.57227662872958,93.4965780617844 205.83960373577412,93.73857148258806 204.62963663175447,93.82568911407759 203.82621847468508,93.82568911407759 202.83888531780553,93.77729042991659 202.0451468975686,93.69985253525952 201.22236926683564,93.57401595644147 200.21567663629114,93.38042121979814 196.89552690286322,92.63508148372222 195.9081937459823,92.35436911559005 194.8627821681106,92.0058985896326 193.83673006390114,91.57999016901739 192.98491322267213,91.15408174840289 192.6170832230504,90.92176806443102 192.28797217075723,90.67977464362737 191.98790032896008,90.41842174915877 191.70718796082792,90.1280296441941 191.31999848754126,89.60532385525828 191.06832532990512,89.09229780315354 190.92312927742347,88.55023254055276 190.86505085643,87.99848754112018 190.90376980375854,87.34026543653381 191.0296063825766,86.61428517412217 191.36839717170224,85.13328543880215 191.6103905925059,84.29114833440491 191.85238401330955,83.59420728249 192.59772374938547,81.70665860021974 193.3237040117978,79.54807728664908 193.66249480092344,78.74465912958037 194.0109653268802,78.03803834083298 194.4368737474954,77.32173781525313 196.07274927212887,74.8727643967185 196.65353348205818,73.89511097667074 197.05040269217733,73.10137255643382 197.3988732181341,72.33667334669364 197.68926532309874,71.59133361061774 197.8731803229103,71.00086966385663 197.99901690172837,70.39104624343058 198.04741558588935,69.81994177033374 198.05709532272047,69.17139940257915 198.00869663856085,68.62933413997837 197.91189927023882,68.00983098272053 197.78606269142077,67.49680493061648 197.60214769160922,66.99345861534422 197.35047453397448,66.48043256324019 197.13752032366688,66.12228230045025 196.89552690286322,65.8318901954856 196.49865769274408,65.44470072219961 196.13082769312234,65.18334782773101 195.83075585132522,64.99943282792016 195.37580822021397,64.77679888078077 194.09808295836976,64.25409309184425 193.48825953794437,63.97338072371207 192.86875638068653,63.60555072408966 192.29765190758832,63.18932204030763 191.78462585548496,62.705335198699636 190.8456913827664,61.67928309449086 190.33266533066168,61.16625704238682 189.75188112073238,60.65323099028277 188.19344349075598,59.32710704427755 187.22546980753998,58.436571255719315 186.3736529663096,57.546035467161076 185.57023480924158,56.578061783945785 185.16368586229135,56.026316784512524 184.77649638900468,55.445532574583204 184.41834612621543,54.85506862782211 184.07955533708977,54.23556547056426 183.50845086399292,53.0352781033771 182.49207849661593,50.62502363217031 182.0177713918411,49.560252580633005 181.61122244488948,48.766514160396774 181.1756342874432,48.10829205580972 180.75940560366047,47.60494574053815 179.62687639429788,46.35625968918998 178.39754981661468,44.94301811169523 177.6909290278673,44.19767837561932 176.7810337656448,43.374900744886354 175.0677203463529,42.01973758838439 174.6418119257391,41.63254811509841 174.24494271561994,41.225999168148164 173.7222369266841,40.61617574772211 173.07369455892885,39.80307785382093 172.38643324384643,38.873823117934165 171.82500850758206,38.060725224032986 170.27625061443675,35.650470752826884 169.8406624569891,34.866412069422445 169.52123114152838,34.159791280675066 167.26585245963707,28.777857601996434 166.77218588119592,27.73244602412408 166.27851930275614,26.78383181457305 165.35894430370254,25.21571444776349 164.35225167315804,23.676636291451356 163.306840095285,22.224675766628067 162.8809316746698,21.701969977691547 162.3775853593989,21.13086550459471 161.4192914130154,20.18225129504299 159.45430483608737,18.439898665255047 157.26668431202066,16.310356562181124 156.69557983892383,15.807010246909556 156.05671720800103,15.303663931637299 152.320338790789,12.719174197452125 150.548946950505,11.528566567096755 144.09256248345798,7.463077097591554 142.55348432714516,6.485423677543783 142.0017393277119,6.098234204257802 141.42095511778257,5.6529663099790275 141.05312511816086,5.33353499451763 140.6949748553716,4.956025258063438 140.47234090823156,4.675312889931257 140.336824592581,4.45267894279187 140.13355011910588,3.9977313116799316 140.03675275078524,3.513744470072628 140.04643248761636,2.9716792074718428 140.1722690664344,2.410254471206793 140.42394222407054,1.8004310507814252 140.78209248686116,1.2099671040196345 141.04344538132838,0.8711763148939717 141.26607932846846,0.6388626309227962 141.6726282754187,0.3291110522938743 142.08885695920142,0.12583657881806398 142.5825235376412,0.019359473664952418 143.06651037924988,0 143.52145801036113,0.02903921049674084 144.25711800960457,0.15487578931480483 146.05754906038462,0.5130260521047322 146.957764585776,0.755019472908384 147.74182326918046,1.035731841040565 148.4097251105993,1.3648428933344392 149.03890800468824,1.7810715771164727 150.1327182667223,2.5844897341858624 150.500548266344,2.8264831549895137 151.08133247627333,3.145914470450912 151.70083563353117,3.426626838583093 153.94653457859138,4.326842363973806 154.5176390516882,4.588195258441722 155.14682194577853,4.917306310734909 155.56305062956125,5.15929973153856 156.12447536582562,5.536809467992752 157.92490641660703,6.97909025598425 159.52206299391196,8.101939728513662 160.1415661511698,8.585926570121654 160.8772261504146,9.234468937876239 162.5518206223766,10.870344462510381 163.0261277271528,11.257533935796362 163.403637463607,11.50920709343249 163.96506219987137,11.818958672061413 164.55552614663316,12.07063182969754 167.47880666994328,13.135402881234159 168.34998298483725,13.493553144024085 169.11468219457814,13.83234393314975 169.96649903580715,14.24857261693247 170.86671456119853,14.751918932204038 171.50557719211997,15.148788142322495 172.4348319280074,15.768291299580339 173.31568797973387,16.426513404167398 174.08038718947336,17.065376035089507 176.57775929216967,19.330434453813282 178.59114455325732,20.966309978447427 179.62687639429788,21.924603924830933 180.88524218247852,23.182969713011573 181.7080198132115,24.121904185730127 183.13094112753873,26.009452868000402 184.95073165198374,28.08091655008153 185.37664007259755,28.652021023179056 185.6767119143947,29.09728891745783 186.13165954550595,29.861988127198003 186.51884901879262,30.587968389609646 188.12568533293,33.91779785987073 188.91942375316694,35.418157068855024 189.93579612054253,37.18954890913902 190.4875411199758,38.031686013536934 190.88441033009494,38.59311074980199 191.35871743486976,39.193254433395566 191.90078269747056,39.793398116989145 194.4368737474954,42.29077021968478 196.44057927175058,44.400952849094445 197.0697621658409,45.107573637841824 197.68926532309874,45.920671531743 198.00869663856085,46.42401784701526 198.289409006693,46.95640337278356 198.5604416379927,47.57590653004141 199.17994479525058,49.12466442318602 199.44129768971916,49.70544863311533 199.7413695315163,50.237834158884326 200.21567663629114,50.93477521079923 200.72870268839586,51.544598631225284 201.01909479336052,51.834990736189944 201.4643626876393,52.21250047264345 202.18066321321916,52.7158467879157 203.4777479487283,53.52894468181688 204.06821189548873,53.95485310243139 204.58123794759348,54.43883994403938 204.82323136839713,54.738911785835825 205.1039437365293,55.11642152229002 205.34593715733433,55.51329073240848 205.56857110447302,55.948878889855465 205.76216584111705,56.40382652096671 205.91704163043116,56.839414678413696 206.0622376829128,57.45891783567154 206.24615268272436,58.649525466026915 206.439747419367,59.68525730706748 206.81725715582118,61.214655726547825 207.09796952395337,62.14391046243459 207.43676031307902,63.13124361931415 207.81427004953323,64.09921730253014 208.23049873331595,65.05751124891295 208.67576662759473,66.00612545846467 209.1500737323709,66.93538019435144 209.61470110031465,67.74847808825261 210.28260294173214,68.86164782395024 210.85370741483032,69.73282413884421 211.4635308352557,70.5943207169057 212.17983136083555,71.54293492645674 212.83805346542192,72.35603282035791 214.0867395167701,73.75959466102019 214.81271977918107,74.5049343970961 215.62581767308154,75.26963360683627 216.40987635648736,75.95689492191939 217.09713767156978,76.51831965818444 217.81343819714962,77.04102544712096 218.53941845956058,77.52501228872895 218.98468635383935,77.79604492002935 219.5945097742661,78.11547623549005 221.47237871970322,78.95761333988727 222.8178621393734,79.65455439180288 223.53416266495324,80.00302491776031 226.86399213521364,81.48402465308035 229.07097213294531,82.34552123114184 229.9421484478393,82.7423904412603 230.64876923658667,83.15861912504302 231.21019397285102,83.56516807199327 231.8006579196128,84.10723333459406 232.23624607706049,84.62993912353058 232.48791923469662,85.07520701780935 232.61375581351467,85.44303701743107 232.6524747608432,85.80118728022099 232.59439633984974,86.19805649033944 232.42016107687067,86.57556622679364 232.12008923507352,86.99179491057636 230.87140318372673,88.26952017242057 230.48421371044006,88.7341475403643 230.12606344765084,89.24717359246834 229.8163118690212,89.81827806556518 229.63239686920969,90.27322569667643 229.52591976405657,90.62169622263457 229.40976292207097,91.27991832722095 229.38072371157492,92.09301622112213 229.48720081672803,93.15778727265874Z"/>
  </g>
</svg>