<?xml version="1.0" encoding="UTF-8" standalone="no"?>
<svg viewBox="0 0 256 234.87628405538138" xmlns="http://www.w3.org/2000/svg">
  <style>
    g.zone {
      fill: lightgray;
      stroke-width: 2;
      stroke-linecap: square;
      stroke-linejoin: bevel;
      stroke-miterlimit: 3;
      stroke-opacity: 0.8;
      stroke: black;
      fill-opacity: 0.3;
    }
  </style>
  <g class="zone" id="zone">
    <path d="M147.43724877177246,214.35283608753974 146.97990174184946,214.52434122376087 146.55113890129766,214.83876730683397 144.3501563197881,217.35417597141455 143.6069673961612,217.98302813756072 142.92094685127262,218.46895935685492 141.89191603394585,218.92630638677997 139.8624385886554,219.41223760607417 138.91916033943818,219.69807949977607 136.43233586422474,220.66994193836447 133.68825368468262,222.44216167932018 131.23001339884038,223.75703439035289 130.6297454220654,224.18579723090673 130.1438142027712,224.67172845020093 130.00089325591924,225.0433229120144 130.0866458240288,225.61500669941816 130.3724877177327,226.21527467619515 130.91558731576526,226.90129522107966 131.88744975435367,227.93032603841047 133.48816435908827,229.04510942384883 134.2599374720864,229.673961589995 134.91737382760374,230.35998213488153 135.4604734256363,231.13175524787763 135.9178204555593,232.13220187583724 136.1464939705249,232.93255917820454 136.20366234926323,234.64761054041986 136.1464939705249,234.7905314872698 136.03215721304412,234.87628405538138 134.17418490397682,234.7905314872698 133.17373827601722,234.67619472978905 132.31621259490956,234.47610540419873 129.51496203662504,233.5328271549795 127.39973202322504,232.56096471639108 125.79901741849045,231.67485484591222 124.71281822242128,230.93166592228732 123.94104510942316,230.2456453774008 122.02590442161753,228.30192050022393 121.36846806610016,227.8445734702989 120.42518981688295,227.6158999553374 118.2813756141158,227.44439481911627 116.30906654756775,227.1299687360432 115.30861991960813,226.90129522107966 113.67932112550234,226.35819562304508 113.10763733809858,226.27244305493554 112.50736936132363,226.3010272443047 111.7070120589543,226.5582849486374 110.99240732469859,227.101384546672 110.42072353729483,227.73023671281814 109.73470299240626,228.75926753014696 109.24877177311205,229.78829834747575 109.1630192050025,230.58865564984305 109.33452434122566,231.56051808843145 109.27735596248326,231.78919160339498 109.04868244752176,231.9321125502449 108.7342563644507,231.9321125502449 108.41983028137558,231.78919160339498 108.19115676641408,231.58910227780265 107.56230460026792,230.7029924073238 107.16212594908326,230.47431889236228 106.67619472978905,230.33139794551033 106.39035283608919,230.35998213488153 106.04734256364695,230.47431889236228 104.98972755694491,231.30326038409876 104.70388566324506,231.4461813309507 104.3322912014316,231.4747655203219 103.18892362662002,231.2175078159892 101.84546672621815,231.01741849039686 100.07324698526041,230.13130861992002 99.3872264403759,229.95980348369687 98.58686913801064,229.98838767306808 97.21482804823755,230.2170611880296 95.24251898168951,230.41715051362192 93.69897275569328,230.44573470299107 92.898615453328,230.38856632425072 91.55515855292613,230.07414024117966 90.55471192496651,229.673961589995 89.411344350159,229.1022778025892 88.89682894149358,228.73068334077777 86.15274676194741,226.41536400178543 85.06654756587825,225.67217507816056 82.9227333631111,224.38588655649906 81.92228673515149,223.5283608753914 80.49307726663599,221.8990620812856 79.8356409111227,221.38454667262224 78.74944171505352,220.78427869584522 78.0348369807978,220.32693166592222 77.52032157213239,219.8124162572568 76.37695399732081,218.41179097811457 74.89057615006698,217.06833407771268 73.86154533274022,216.29656096471658 73.00401965163255,215.81062974542237 71.46047342563631,215.43903528360892 70.88878963823255,215.2389459580166 69.77400625279218,214.52434122376087 69.145154086646,214.2099151406878 68.60205448861345,214.03841000446667 67.88744975435368,213.98124162572628 67.40151853505947,214.03841000446667 66.88700312639811,214.2099151406878 66.31531933899029,214.52434122376087 65.51496203662504,215.12460920053584 65.00044662795962,215.63912460919923 64.0285841893712,216.81107637337996 63.714158106300154,216.98258150960314 63.228226887005945,217.0397498883435 61.141581062977146,216.69673961589922 59.79812416257527,216.63957123715883 57.11121036177151,216.32514515408576 54.16703885663505,215.61054041983004 53.423849933008135,215.55337204108966 51.56587762394084,215.58195623045884 49.73648950424475,215.41045109423771 48.364448414471674,215.09602501116464 45.90620812862942,214.1813309513166 45.07726663689296,213.98124162572628 43.01920500223537,213.80973648950314 38.988834301029726,213.6668155426532 37.9312192943277,213.49531040643208 37.27378293881439,213.180884323359 36.07324698526041,212.23760607413976 35.44439481911831,211.92317999106666 34.90129522108169,211.80884323358592 34.12952210808357,211.75167485484553 32.8718177757953,211.8945958016975 32.61456007146259,211.0942384993302 32.10004466279718,210.06520768200141 31.585529254131767,209.2934345690033 30.81375614113365,208.5216614560072 29.698972755697334,207.63555158552833 28.78427869584726,207.0066994193842 25.925859758820344,205.46315319338999 21.752568110762756,203.5765966949535 14.149173738278556,200.34658329611315 11.548012505584348,199.4604734256363 6.374274229567136,198.08843233586322 4.401965163019092,197.3738276016075 3.2871817775787178,196.8593121929421 2.3439035283615013,196.28762840553833 1.4863778472538332,195.5730236712806 0.8289414917364648,194.8012505582845 0.45734702992300647,194.14381420276916 0.20008932559436188,193.48637784725383 0.057168378742406836,192.74318892362692 0,191.9142474318884 0.20008932559436188,190.54220634211737 0.45734702992300647,189.71326485037886 0.8289414917364648,188.82715497990205 1.6578829834769915,187.42652970075977 3.172845020097966,185.48280482358092 5.116569897274806,183.36757481018293 6.031263957124881,182.48146493970407 7.0031263957133,181.6525234479676 8.060741402411269,180.9093345243407 9.318445734703598,180.22331397945416 10.40464493077277,179.79455113890032 11.690933452436303,179.45154086645806 13.062974542205323,179.22286735149655 14.86377847253427,179.0799464046446 19.808843233585915,178.96560964716386 22.26708351942817,178.8226887003119 23.35328271549734,178.65118356409076 24.61098704778967,178.3653416703889 25.611433675749293,178.0509155873158 26.55471192496651,177.65073693613115 27.32648503796463,177.19338990620813 27.955337204110794,176.7360428762831 28.66994193836651,176.0500223313986 29.09870477891831,175.5355069227332 29.87047789191643,174.33497096918325 31.556945064760566,171.1335417597141 32.32871817775868,169.99017418490453 33.24341223760876,168.90397498883334 34.301027244306724,167.9321125502449 35.4158106297471,167.07458686913725 36.902188477000934,166.1598928092892 38.159892809289204,165.50245645377387 40.70388566324507,164.44484144707386 48.42161679321408,161.70075926752975 50.19383653416776,161.15765966949516 51.76596694953114,160.8146493970529 53.395265743636934,160.72889682894132 54.910227780257905,160.8146493970529 60.42697632871737,161.7865118356413 62.45645377400782,161.98660116123162 64.88610987047888,162.01518535060282 66.17239839213835,161.90084859312208 67.65877623939218,161.64359088878936 70.08843233586323,160.95757034390283 72.23224653863443,160.10004466279514 76.71996426976307,158.07056721750672 78.92094685127262,156.84144707458765 80.43590888789765,155.78383206788763 81.75078159892833,154.5547119249665 82.77981241625915,153.2398392139338 83.78025904421878,151.55337204108966 84.15185350603224,150.75301473872238 84.80928986154554,149.00937918713788 87.15319338990705,141.86333184457263 87.63912460920125,139.69093345243428 87.69629298794366,139.66234926306308 89.06833407771268,139.77668602054382 90.41179097811455,139.74810183117464 91.26931665922223,139.66234926306308 93.38454667262222,139.26217061188044 94.21348816435868,139.29075480124962 95.15676641357996,139.49084412684195 96.90040196516244,140.0911121036169 99.01563197856244,141.09155873157653 99.4158106297471,141.3774006252784 99.6158999553374,141.6346583296111 99.67306833407982,141.92050022331298 99.6444841447086,143.74988834301112 99.78740509156056,144.92184010718984 99.90174184904131,145.40777132648404 100.24475212148357,146.0366234926302 101.18803037070079,146.95131755247826 101.55962483251425,147.40866458240328 101.7311299687374,147.8945958016975 101.9312192943277,149.20946851272817 102.24564537740281,150.00982581509547 102.64582402858342,150.52434122376087 103.93211255024694,151.63912460920125 104.58954890576025,152.32514515408576 105.24698526127762,153.2398392139338 106.16167932112769,154.72621706118764 107.93389906208138,156.9271996426972 108.41983028137558,158.01339883876636 108.82000893256024,158.6422510049125 109.47744528807762,159.35685573916822 110.73514962036589,160.61456007146057 111.24966502903129,161.3577489950875 112.82179544439468,164.75926753014696 113.76507369361596,166.56007146047386 113.96516301920626,167.27467619472958 114.0223313979446,167.87494417150455 113.8794104510967,168.21795444394883 113.47923179991204,168.64671728450267 112.90754801250829,168.9611433675737 111.62125949084475,169.3613220187584 110.87807056721783,169.73291648057184 109.24877177311205,170.8476998660122 108.82000893256024,171.21929432782565 108.53416703885634,171.5623046002679 108.27690933452364,172.27690933452362 107.87673068334303,174.62081286288515 107.67664135774866,176.7360428762831 107.61947297901033,178.45109423849843 107.76239392586228,178.90844126842347 108.19115676641408,179.48012505582926 109.70611880303912,180.8807503349715 112.39303260384288,183.7105850826252 113.3934792318025,184.4537740062521 114.07949977668702,185.3112996873598 114.65118356409077,185.7686467172848 115.36578829834649,185.94015185350594 115.88030370701189,185.88298347476558 116.73782938811956,185.68289414917325 117.28092898615618,185.71147833854445 119.08173291648106,186.65475658776165 121.53997320232331,187.5694506476097 125.39883876730579,188.68423403305007 127.91424743189044,189.1987494417155 129.51496203662504,189.3988387673058 132.77355962483256,189.59892809289812 135.74631531934023,189.54175971415773 137.97588209022098,189.6560964716385 137.2898615453324,189.17016525234428 136.54667262170548,188.42697632871736 136.08932559178248,187.68378740509044 135.88923626619217,187.0263510495751 135.9178204555593,186.48325145154053 136.0035730236729,186.0544886109867 136.8325145154094,183.85350602947716 137.00401965163255,183.1960696739618 137.0611880303709,181.709691826708 136.8039303260382,179.70879857079078 136.8325145154094,179.28003573023693 136.91826708351894,179.1085305940158 137.0897722197421,179.05136221527542 137.3184457347036,179.1085305940158 139.4336757481036,179.93747208575226 140.3197856185784,180.1089772219734 142.80661009379187,180.16614560071378 149.6953997320244,180.50915587315805 151.66770879857245,180.4234033050465 152.69673961589922,180.1375614113446 153.01116569897434,179.90888789638106 153.3541759714166,179.48012505582926 153.66860205448765,178.87985707905227 153.8972755694532,178.16525234479656 154.18311746315305,176.39303260384085 154.15453327378185,175.59267530147355 153.8972755694532,174.79231799910627 153.3255917820454,173.93479231799859 152.55381866905134,173.19160339437167 150.98168825368387,171.876730683341 148.4662795891033,170.13309513175446 146.95131755247826,169.33273782938716 144.40732469852645,168.38945958016996 143.49263063868042,167.87494417150455 142.97811523001502,167.41759714158152 142.52076820009202,166.78874497543538 142.2349263063881,166.1598928092892 142.03483698079376,165.3595355069219 141.9776686020554,164.24475212148357 142.2349263063881,162.87271103171048 142.7494417150535,161.64359088878936 143.63555158552833,160.4716391246086 145.06476105404383,159.07101384546635 146.77981241625915,157.6989727556953 147.98034836980906,156.98436802143755 150.03841000446667,156.04108977222035 151.4676194729781,155.0978115230011 152.09647163912425,154.5261277355953 152.58240285841848,153.98302813756072 152.78249218401282,153.64001786511847 152.89682894149357,153.2970075926742 152.81107637337996,152.98258150960314 152.4966502903089,152.61098704778968 150.89593568557433,151.2389459580166 148.4662795891033,148.8664582402859 146.608307280036,147.40866458240328 146.06520768200343,146.92273336310907 144.69316659223037,145.12192943278217 144.12148280482253,143.9785618579726 144.0928986154554,143.72130415363992 144.12148280482253,143.4926306386784 144.2929879410457,143.32112550245728 144.5502456453784,143.1496203662341 145.46493970522442,142.86377847253223 147.00848593122066,142.49218401071877 148.38052702099372,141.97766860205337 148.69495310406478,141.6918267083515 148.80928986154555,141.49173738275917 148.86645824028795,141.03439035283614 148.75212148280718,140.66279589102268 148.29477445288012,139.77668602054382 148.18043769539938,139.40509155873238 148.23760607414178,137.7757927646266 148.18043769539938,137.46136668155353 148.00893255918027,137.11835640911127 147.66592228673397,136.7181777579266 147.0942384993302,136.2608307280036 145.2934345690053,135.71773112996902 144.89325591782065,135.4890576150075 144.5788298347496,135.2032157213036 144.23581956230328,134.63153193389985 143.94997766860345,133.4024117909787 143.72130415364194,132.71639124609217 143.40687807056682,132.23046002679797 142.7494417150535,131.5158552925402 142.57793657883036,131.1156766413576 142.57793657883036,130.88700312639608 142.77802590442067,130.51540866458262 143.74988834300908,129.54354622599422 144.12148280482253,129.0576150067 144.46449307726886,128.2286735149615 144.66458240285917,126.9709691826712 144.89325591782065,126.37070120589624 145.63644484144757,124.99866011612316 146.8369807949975,123.42652970075979 146.97990174184946,123.02635104957511 146.95131755247826,122.68334077713287 146.77981241625915,122.0544886109867 146.3796337650745,121.19696292987904 145.97945511388983,120.9968736042867 145.52210808396683,120.51094238499249 144.40732469852645,118.59580169718686 143.89280928986102,117.90978115230031 142.2063421170169,116.30906654756573 139.74810183117464,114.87985707905227 138.37606074140157,113.85082626172347 136.8896828941518,112.90754801250625 136.06074140241128,112.62170611880235 134.66011612327105,112.47878517195242 133.80259044216336,112.2786958463601 131.0585082626172,111.19249665029092 130.02947744529044,111.62125949084475 127.62840553818654,112.19294327824852 125.54175971415775,112.45020098258122 124.39839213935024,112.39303260384085 123.0835194283155,112.0500223313986 121.76864671728482,111.4783385439928 120.5966949531061,110.73514962036589 118.56721750781566,109.19160339437168 118.0241179097831,108.9057615006698 117.28092898615618,108.6485037963371 116.50915587315806,108.56275122822754 114.42251004912926,108.6770879857083 111.9356855739158,108.33407771326401 110.02054488611017,108.30549352389484 108.82000893256024,108.13398838767371 105.90442161679499,108.39124609200438 105.04689593568732,108.36266190263521 102.30281375614116,107.59088878963912 97.84368021438372,106.56185797230829 95.89995533720688,105.73291648057183 93.18445734703192,104.33229120142958 91.35506922733583,103.47476552032191 90.0973648950435,102.70299240732379 88.81107637337998,101.64537740062582 87.5247878517205,100.30192050022394 86.03841000446667,98.98704778919124 85.60964716391486,98.50111656989702 84.49486377847448,96.41447074586823 84.00893255918028,95.35685573916824 83.78025904421878,94.41357748995102 83.69450647610516,93.6703885663241 83.78025904421878,93.12728896828952 84.06610093791862,92.6127735596241 85.92407324698591,90.58329611433568 82.77981241625915,90.92630638677997 80.3215721304169,91.01205895488951 78.12058954890735,91.3264850379626 75.80527020991705,91.3550692273338 73.0897722197421,91.78383206788763 70.94595801697089,92.35551585529342 70.34569004019593,92.4126842340338 69.05940151853646,92.3841000446626 67.71594461813459,92.6127735596241 66.45824028584225,93.01295221080876 65.28628852166354,93.6703885663241 64.14292094685196,94.52791424743177 62.74229566770767,95.84278695846447 61.17016525234429,94.67083519428373 60.16971862438873,94.09915140687794 59.28360875390985,93.6703885663241 57.59714158106572,93.04153640017793 52.05180884323505,91.24073246985306 50.25100491291017,90.49754354622614 48.45020098258122,89.66860205448764 46.10629745421972,88.41089772219733 41.304153640020026,85.38097364895133 39.246092005362435,84.26619026351095 38.21706118803161,83.86601161232629 37.24519874944319,83.60875390799359 35.93032603841252,83.40866458240329 34.72979008485853,83.3514962036629 33.300580616347105,81.12192943278217 32.98615453327605,80.35015631978607 32.8146493970529,79.54979901741878 32.900401965162445,77.12014292094773 32.67172845020094,75.03349709691894 33.0719071013856,73.14694059848044 33.10049129075681,71.7748995087094 32.928986154533646,70.83162125949015 32.70031263957214,70.37427422956713 32.41447074586823,70.05984814649405 31.12818222420876,69.05940151853443 30.299240732472295,68.28762840553834 29.241625725770266,67.08709245198841 28.69852612773771,66.25815096024992 28.441268423405006,65.62929879410376 28.3841000446626,64.34301027244226 27.983921393482,62.485037963376996 27.383653416702973,60.79857079053083 31.071013845466354,58.76909334524241 32.15721304153553,58.083072800357904 33.0719071013856,57.19696292987903 33.61500669942222,56.51094238499249 34.15810629745477,55.596248325144444 34.78695846360094,54.25279142474257 35.01563197856244,53.33809736489452 35.1585529254144,52.30906654756573 35.12996873604319,51.108530594015804 34.95846359982409,49.87941045109468 34.78695846360094,49.16480571683694 34.44394819115868,48.135774899508135 33.72934345690297,46.76373380973709 32.78606520768169,45.363108530594836 31.89995533720688,44.44841447074679 31.471192496651017,44.1054041983025 30.81375614113365,43.76239392586025 30.099151406877933,43.50513622152754 29.155873157660718,43.39079946404679 26.468959356856963,43.61947297900829 24.639571237160872,43.59088878963912 22.95310406431674,43.362215274675584 21.666815542653207,43.047789191602504 19.751674854847572,42.30460026797762 17.379187137114865,41.018311746316115 14.69227333631111,40.0464493077277 12.119696292988106,38.84591335417574 9.175524787851643,37.61679321125462 7.917820455563375,36.98794104510845 7.1460473425652555,36.41625725770469 6.745868691380593,35.815989280929735 6.031263957124881,33.986601161233644 5.688253684682626,33.357748995087476 5.116569897274806,32.64314426083177 3.1442608307308246,30.613666815543347 3.372934345692328,30.413577489951017 3.6016078606538313,30.041983028137558 3.9732023224672894,29.127288968289516 4.859312192946161,25.49709691826651 5.259490844126761,24.239392585976212 5.716837874053829,23.15319338990704 6.345690040195932,22.009825815095464 6.974542206342097,21.180884323359 7.631978561859466,20.494863778472457 8.289414917372772,19.95176418043787 9.318445734703598,19.322912014291706 10.376060741401567,18.951317552478248 11.4622599374748,18.808396605628324 12.662795891024723,18.8655649843687 13.548905761503594,19.094238499330203 14.606520768201563,19.494417150512835 19.95176418043787,22.410004466280125 21.180884323359,22.95310406431471 22.46717284502253,23.381866904868545 23.81062974542441,23.696292987941625 25.068334077712677,23.782045556051173 26.326038410005008,23.696292987941625 27.841000446630044,23.35328271549734 29.35596248325102,22.695846359982003 30.613666815543347,21.838320678874336 31.471192496651017,20.980794997766665 32.27154979901628,19.808843233585915 32.72889682894335,18.66547565877637 33.014738722643195,17.20768200089374 33.043322912014396,15.54979901741878 32.928986154533646,12.977221974095775 32.900401965162445,11.262170611880437 33.0719071013856,9.890129522107356 33.35774899508951,8.718177757928636 33.90084859312206,7.517641804376683 34.75837427422973,6.345690040195932 35.78740509156056,5.34524341223834 37.15944618133364,4.344796784278716 38.188476998660406,3.7159446181325517 39.98928092898529,2.744082179544132 42.90486824475461,1.4577936578826296 44.07682000893333,1.0290308173287956 45.763287181777464,0.5430995980345857 46.96382313532739,0.28584189370187907 48.30728003572926,0.08575256811157923 49.7936578829831,0 51.108530594017836,0.028584189371203418 52.42340330504851,0.14292094685195503 53.99553372041189,0.4001786511846617 56.68244752121565,1.057615006699999 58.34033050468858,1.629298794103757 59.683787405090456,2.200982581509546 61.91335417597121,3.4015185350594694 63.65698972755774,4.516301920499844 65.11478338544038,5.659669495311422 67.37293434569233,7.6319785618574345 69.45958016972112,9.690040196517057 70.66011612327105,11.062081286288107 71.66056275123067,12.491290754801565 72.51808843233833,14.120589548905322 73.23269316659405,16.092898615453365 73.69004019651706,18.29388119696291 73.91871371147856,20.03751674854945 75.14783385439969,32.10004466279515 75.4336757481036,34.38677981241628 75.83385439928419,36.58776239392582 76.43412237606321,39.16033943724883 76.92005359535743,40.618133095131455 77.86333184457465,42.904868244752585 78.83519428316306,44.59133541759672 79.8642251004939,46.04912907547934 81.26485037963411,47.592675301473555 82.52255471192645,48.7646270656543 86.18133095131861,51.88030370701189 88.52523447968012,54.16703885663302 90.0401965163011,55.9678427869579 92.12684234032989,58.85484591335399 93.04153640017996,59.883876730682786 94.01339883876838,60.655649843680905 94.98526127735681,61.19874944171549 95.67128182224131,61.48459133541737 96.72889682894335,61.6560964716385 97.78651183564132,61.62751228226933 98.78695846360094,61.34167038856542 99.24430549352394,61.08441268423474 99.73023671281815,60.712818222421284 100.24475212148357,60.083966056275116 100.53059401518748,59.42652970075978 100.73068334077777,58.71192496650204 101.24519874944319,54.62438588655603 101.7311299687374,52.22331397945415 102.47431889236432,49.965163019204226 103.789191603395,46.99240732469859 104.90397498883537,44.82000893255822 107.53372041089672,40.16078606520845 109.67753461366792,36.044662795891234 110.59222867351393,34.50111656989703 111.4497543546216,33.300580616347105 112.39303260384288,32.21438142027793 113.45064761054084,31.156766413577934 114.85127288968513,30.013398838766356 116.3662349263061,28.98436802143756 117.45243412237528,28.3841000446626 118.56721750781566,27.869584635999217 120.08217954444069,27.297900848593425 121.68289414917527,26.86913800803959 123.3407771326482,26.526127735595306 125.02724430549233,26.26887003126463 126.74229566770767,26.125949084412674 128.4859312192942,26.0687807056723 130.45824028584227,26.097364895043505 132.4019651630191,26.240285841893428 134.37427422956713,26.497543546226133 137.74720857525946,27.183564091112675 141.26306386779967,28.21259490844147 144.035730236713,29.18445734702989 147.065654309959,30.413577489951017 155.84100044663003,34.35819562304507 160.41447074586824,36.30192050022394 163.6158999553374,37.55962483251424 171.96248325145257,40.64671728450266 176.93613220187544,42.619026351048674 178.99419383653301,43.533720410898745 180.62349263063882,44.36266190263521 183.5962483251465,46.077713264850544 186.76909334524444,48.25011165698889 189.7418490397521,50.536846806610015 193.11478338544038,53.4238499330061 197.54533273783068,57.48280482358294 198.7172845020094,58.45466726217136 199.66056275123066,59.1121036176867 200.4037516748535,59.54086645824053 201.2612773559612,59.91246092005399 201.8043769539978,60.055381866903915 201.63287181777466,61.91335417597121 201.43278249218434,62.828048235819246 201.43278249218434,63.02813756141158 201.57570343903632,63.285395265744285 202.03305046895932,63.65698972755774 203.34792317998998,64.51451540866542 203.6051808843227,64.82894149173646 203.94819115676495,65.45779365788263 204.8057168378726,65.85797230906729 205.7489950870939,66.5439928539518 206.34926306386885,67.17284502009797 206.94953104064382,68.00178651183646 207.74988834300908,68.74497543546134 209.52210808396683,70.05984814649405 211.1228226887014,70.9745422063421 211.46583296114366,71.23179991067481 213.26663689146855,72.88968289414976 214.95310406431673,74.66190263510548 215.81062974542442,75.4050915587324 218.69763287181846,77.34881643590923 219.2121482804839,77.77757927646307 220.06967396159155,78.69227333631112 220.72711031710486,79.69271996427074 221.41313086199344,81.52210808396683 221.89906208128764,82.55113890129562 222.6994193836529,84.52344796784367 222.9280928986144,84.9236266190263 223.27110317106073,85.26663689146855 224.5859758820914,86.03841000446667 226.30102724430674,87.29611433675697 226.95846359982002,87.92496650290313 228.1018311746316,89.26842340330501 228.7878517195161,89.61143367574726 230.33139794551235,89.92585975882035 231.10317105851047,90.18311746315305 234.50468959356996,91.78383206788763 236.82000893256026,92.55560518088373 238.3063867798141,93.29879410451065 238.84948637784663,93.49888343010298 239.90710138454867,93.6703885663241 243.79455113890234,93.78472532380485 247.36757481018498,94.12773559624914 247.5962483251465,94.32782492183944 249.68289414917527,95.52836087539139 251.19785618579624,97.21482804823553 252.59848146494053,98.44394819115665 254.6851272889693,99.84457347029891 255.5712371594482,100.93077266636807 255.85707905314806,101.47387226440266 256,101.9598034836989 255.94283162126166,102.38856632425274 255.7713264850385,102.78874497543536 254.99955337204037,103.73202322465461 253.3988387673058,105.33273782938717 252.74140241179248,106.10451094238529 251.68378740509044,107.70522554711988 251.28360875390985,108.44841447074477 250.99776686020596,109.19160339437168 250.9120142920964,109.67753461366588 250.9120142920964,110.2206342117025 251.5980348369809,111.93568557391784 251.7981241625712,112.87896382313505 251.74095578383287,113.47923179991001 251.5980348369809,114.13666815542739 251.3407771326482,114.67976775346197 250.96918267083475,115.16569897275618 250.08307280035586,114.16525234479656 248.48235819562535,112.70745868691392 248.0821795444407,112.5073693613216 247.56766413577526,112.33586422510047 246.42429656096368,112.2786958463601 245.53818669048889,112.42161679321205 244.8807503349715,112.70745868691392 244.3948191156773,113.07905314872738 243.6516301920504,113.87941045109469 243.2228673514986,114.10808396605618 241.8794104510967,114.36534167038889 239.84993300580626,114.90844126842347 237.79187137114866,114.90844126842347 235.21929432782565,115.16569897275618 234.6190263510507,115.36578829834649 233.56141134434867,115.85171951764069 233.13264850379687,116.1375614113446 233.01831174631613,116.30906654756573 232.9611433675737,116.56632425189844 232.98972755694493,116.96650290308106 233.50424296561033,119.16748548459061 233.47565877623913,119.7105850826252 233.24698526127762,120.13934792317903 232.9611433675737,120.39660562751173 231.87494417150455,120.9968736042867 230.50290308173146,122.0544886109867 229.38811969629515,122.71192496650204 229.13086199196243,122.96918267083474 228.41625725770672,123.96962929879436 227.8445734702989,124.54131308619813 226.61545332737776,125.68468066100971 225.18624385886636,126.54220634211737 223.38543992854147,128.25725770433272 223.07101384546635,128.68602054488653 222.9280928986144,129.08619919606917 222.7565877623953,130.97275569450562 222.5279142474338,131.45868691379985 222.2134881643587,131.8588655649845 221.87047789191644,132.14470745868638 221.24162572577026,132.4019651630191 219.75524787851643,132.6592228673518 219.2407324698551,132.83072800357291 218.61188030370892,133.14515408664602 218.0973648950435,133.60250111656902 218.0401965163011,133.85975882090173 218.326038410005,134.202769093346 218.5547119249665,134.7458686913806 219.0406431442607,136.5180884323363 220.1268423403299,138.3474765520324 220.29834747655306,139.91960696739577 220.6127735596241,141.74899508709186 221.27020991514146,143.4926306386784 221.72755694506446,145.2934345690033 222.07056721750672,146.32246538633208 222.07056721750672,146.8369807949975 221.81330951317403,148.123269316659 221.81330951317403,148.69495310406478 221.92764627065884,149.35238945958014 222.5279142474338,151.61054041983004 222.49933005806258,153.55426529700688 222.7280035730241,155.8124162572568 222.55649843680095,157.6703885663241 222.2134881643587,158.81375614113364 221.72755694506446,159.55694506476055 220.09825815096275,161.2719964269759 219.15497990174148,162.50111656989702 218.69763287181846,163.3872264403759 218.2974542206338,164.8736042876277 218.01161232693394,165.33095131755275 217.8115230013396,165.47387226440267 217.43992853952614,165.58820902188543 217.01116569897434,165.61679321125462 216.29656096471862,165.55962483251423 215.01027244305507,165.24519874944116 211.03707012059186,164.13041536400078 210.46538633318403,163.98749441715086 209.97945511388983,163.98749441715086 209.46493970522442,164.1018311746316 209.20768200089577,164.24475212148357 207.74988834300908,165.30236712818154 206.89236266190142,165.78829834747575 205.9490844126842,166.2170611880296 205.20589548905727,166.38856632425072 204.20544886109766,166.47431889236228 202.43322912014398,166.2170611880296 200.28941491737277,166.27422956676995 198.43144260830954,166.1884769986604 196.6592228673518,166.56007146047386 194.22956677088075,166.6744082179546 192.5145154086654,166.9888343010277 191.37114783385383,167.33184457346997 190.39928539526542,167.87494417150455 186.99776686020596,170.21884769986605 186.22599374720784,170.96203662349296 184.9968736042867,172.53416703885634 184.7682000893252,172.9057615006698 184.71103171058684,173.30594015185244 184.7967842786964,173.73470299240626 185.45422063421375,175.33541759714083 185.56855739169453,175.87851719517542 185.56855739169453,176.59312192943318 185.339883876733,177.2219740955773 184.91112103617715,177.7936578829831 184.22510049129264,178.53684680661001 181.68110763733677,180.76641357748875 180.62349263063882,182.39571237159453 179.79455113890234,183.33899062081173 177.3077266636889,185.42563644484053 176.56453774006198,186.22599374720784 176.16435908888138,186.76909334524242 175.4497543546216,188.0553818669039 175.2782492184025,188.54131308619813 175.2210808396601,189.3702545779366 175.16391246092175,189.54175971415773 174.9924073246986,189.6846806610097 174.44930772666604,189.82760160785963 172.9629298794122,189.57034390352894 171.87673068334303,189.62751228226932 171.19071013845445,189.82760160785963 169.96158999553333,190.48503796337698 169.4184903975008,190.6851272889673 166.81732916480658,190.9423849933 166.04555605180846,191.14247431889234 164.5020098258163,191.68557391692693 163.95891022777965,191.79991067440767 162.50111656989702,191.82849486377887 160.04287628405478,191.62840553818654 159.04242965609515,191.71415810629813 157.98481464939718,191.94283162125961 157.15587315766072,192.25725770433272 156.4126842340338,192.74318892362692 154.78338543992803,194.42965609647106 154.2688700312626,195.0870924519864 153.06833407771268,194.6297454220634 151.78204555605322,194.2867351496191 150.43858865565133,194.0866458240288 148.9522108083975,194.00089325591722 147.6373380973668,194.0866458240288 146.32246538633208,194.3153193389903 145.15051362215337,194.68691380080375 144.0928986154554,195.1156766413576 143.66413577489953,195.3729343456903 142.7494417150535,196.1161232693172 142.12058954890736,196.71639124609217 141.66324251898433,197.31665922286714 141.23447967842847,198.202769093344 140.97722197409578,199.14604734256324 140.862885216615,200.2322465386324 140.92005359535742,201.375614113444 141.09155873157653,202.37606074140157 141.37740062528044,203.46225993747277 141.7775792764651,204.49129075480155 142.6922733363111,206.52076820008998 144.43590888789765,209.49352389459563 147.5801697186244,214.35283608753974 147.43724877177246,214.35283608753974Z"/>
  </g>
</svg>