<?xml version="1.0" encoding="UTF-8" standalone="no"?>
<svg viewBox="0 0 176.85783749200326 256" xmlns="http://www.w3.org/2000/svg">
  <style>
    g.zone {
      fill: lightgray;
      stroke-width: 2;
      stroke-linecap: square;
      stroke-linejoin: bevel;
      stroke-miterlimit: 3;
      stroke-opacity: 0.8;
      stroke: black;
      fill-opacity: 0.3;
    }
  </style>
  <g class="zone" id="zone">
    <path d="M171.15802943058455,180.91976967370493 172.9596928982742,183.96621880998003 174.13896353166876,186.55406269993506 175.02341650671818,189.30569417786268 175.61305182341778,192.2211132437606 176.0061420345493,194.90722968649965 176.66129238643515,201.03288547664764 176.85783749200326,204.07933461292276 176.8250799744078,205.9465131158033 176.6940499040306,207.5843889955203 176.43198976327628,209.09123480486244 175.84235444657665,210.99117082533613 174.89238643634098,212.8255918106212 173.6476007677555,214.49622520793366 171.81317978247043,216.33064619321874 169.97875879718535,217.77197696737 166.11337172105175,220.29430582213638 157.85847728727117,225.20793346129204 154.4844529750508,227.00959692898167 151.86385156749802,228.15611004478544 149.21049264235444,229.13883557261656 146.13128598848388,230.0560460652591 143.2813819577722,230.6456813819564 140.98835572616935,230.94049904030618 138.36775431862122,231.0060140754948 132.7007037747933,230.54740882917466 129.8835572616771,230.48189379398607 127.78707613563768,230.61292386436327 121.49763275751937,231.20255918106287 117.50121561100394,231.33358925144003 114.42200895713337,231.20255918106287 110.68765195137695,230.74395393474043 106.5929622520798,229.95777351247506 99.55009596928926,228.38541266794664 97.02776711452285,227.63198976327442 94.63646833013361,226.71477927063418 93.29341010876641,226.059628918746 92.01586692258549,225.30620601407608 89.78835572616887,223.73384516954536 87.65911708253398,221.86666666666713 84.28509277031361,218.62367242482395 82.67997440819208,217.37888675623847 81.59897632757458,216.78925143953884 80.61625079974344,216.4616762635959 79.63352527191232,216.33064619321874 78.58528470889493,216.36340371081187 77.50428662828207,216.62546385156622 76.52156110045095,217.01855406270008 75.63710812540154,217.57543186180422 74.75265515035213,218.26333973128555 73.99923224568454,219.04952015355093 73.21305182341685,220.09776071657063 72.59065898912642,221.21151631477895 72.09929622520853,222.3580294305827 71.70620601407701,223.79936020473394 71.54241842610439,225.04414587331942 71.44414587332267,226.3544465770958 71.47690339091812,227.5992322456813 71.83723608445419,230.5801663467678 72.88547664747158,235.5265515035189 73.34408189379401,238.4092130518237 73.47511196417119,240.6367242482403 73.34408189379401,242.53666026871397 73.04926423544421,243.71593090211087 72.7216890595036,244.6331413947534 72.23032629558571,245.51759436980052 71.6079334612953,246.40204734484993 70.85451055662305,247.18822776711528 70.06833013436002,247.87613563659662 68.95457453615171,248.59680102367108 67.74254638515704,249.21919385796613 65.77709532949478,249.9398592450406 64.04094689699606,250.300191938579 62.27204094689724,250.43122200895615 60.4048624440167,250.300191938579 58.99628918746325,249.97261676263605 57.71874600128231,249.44849648112503 56.473960332696834,248.7605886116437 53.78784388995779,246.9916826615472 52.837875879717465,246.50031989763164 51.953422904672706,246.13998720409325 50.774152271273486,245.84516954574576 49.49660908509255,245.68138195777314 48.284580934102536,245.68138195777314 46.81049264235351,245.8124120281503 45.56570697376804,246.04171465131154 44.2554062699963,246.43480486244306 42.91234804862445,246.95892514395408 41.66756238003897,247.54856046065134 39.34177863084065,248.89161868202086 33.150607805504066,252.85527831094086 31.578246960973328,253.73973128598794 30.071401151633502,254.49315419065786 28.269737683943873,255.1810620601415 26.59910428663142,255.6396673064616 24.797440818937133,255.93448496481142 23.388867562379026,256 21.456174024312226,255.83621241202738 19.097632757518443,255.34484964811182 16.83736404350638,254.5914267434419 13.790914907231274,253.24836852207238 11.432373640437493,251.90531030070284 9.958285348688472,250.79155470249455 9.237619961611689,250.07088931541776 8.680742162507537,249.4157389635319 8.156621880998843,248.56404350607795 7.894561740244495,247.97440818937832 7.632501599490149,247.05719769673578 7.566986564299234,246.04171465131154 7.665259117085605,244.89520153550777 7.960076775430755,243.97799104286523 8.385924504157733,243.0607805502227 9.073832373643713,241.97978246960983 9.663467690338667,241.25911708253307 10.77722328854697,240.1781190019202 12.644401791427514,238.7695457453621 15.133973128598468,237.26269993601994 26.271529110686156,231.43186180422177 28.85937300063883,229.95777351247506 31.021369161869174,228.61471529110554 33.314395393476694,226.91132437619996 34.98502879078915,225.4044785668578 36.29532949456089,223.8321177223294 36.884964811260495,222.8821497120914 37.21253998720576,222.19424184261007 37.507357645555565,221.309788867563 37.60563019833728,220.72015355086336 37.572872680741824,219.50812539987103 37.245297504801215,218.3616122840696 36.590147152910696,217.24785668586128 35.73845169545674,216.2323736404347 34.59193857965763,215.24964811260358 33.314395393476694,214.3651951375565 28.728342930261654,211.5152911068448 27.22149712092183,210.33602047344792 26.00946896993181,209.18950735764417 24.86295585412805,207.7154190658998 24.109532949455808,206.2413307741531 23.683685220728833,204.6362124120269 23.552655150351658,202.96557901471445 23.781957773515202,200.37773512475945 24.404350607805615,197.00371081253908 25.09225847728694,194.67792706333844 25.911196417145437,192.74523352527163 26.926679462572025,191.0090850927706 28.236980166348417,189.27293666026955 29.94037108125633,187.3402431222004 33.93678822776711,183.14728087012156 35.08330134357087,181.7714651311589 35.93499680102482,180.62495201535515 36.78669225847878,179.15086372360844 37.310812539987474,177.90607805502296 37.572872680741824,176.6940499040306 37.67114523352819,175.1216890594999 37.47460012796011,174.26999360204826 36.98323736404221,173.18899552143307 36.39360204734726,172.23902751119508 35.771209213052195,171.5183621241206 34.85399872041198,170.69942418425978 33.51094049904013,169.71669865642866 30.661036468333112,168.0460652591162 26.40255918106333,166.04785668586084 16.870121561101836,161.98592450415913 13.234037108127122,160.7083813179782 6.322200895713757,158.80844529750453 4.3567498400514975,158.02226487523916 2.686116442739042,157.0722968650035 1.7033909149079123,156.25335892514266 0.9499680102356726,155.36890595009558 0.5241202815086945,154.61548304542566 0.16378758797263082,153.53448496481047 0,152.38797184900906 0.03275751759545719,151.43800383877104 0.29481765834980445,150.1604606525901 0.7206653870767825,148.98119001919324 1.441330774153565,147.67088931541917 2.5223288547664113,146.0657709532953 4.32399232245604,143.87101727447182 5.863595649391321,142.26589891234795 6.911836212413366,141.25041586692137 8.353166986566931,140.03838771593135 9.532437619961494,139.25220729366598 10.678950735765254,138.66257197696635 11.92373640435073,138.1712092130508 13.037492002559034,137.87639155470333 15.396033269352815,137.48330134356948 18.016634676905596,137.2867562380037 23.388867562379026,137.22124120281512 26.40255918106333,136.9264235444653 27.778374920025982,136.66436340371098 28.990403071016,136.30403071017258 30.071401151633502,135.8781829814456 31.08688419706009,135.32130518234146 32.29891234805011,134.40409468969892 33.51094049904013,133.06103646832938 34.23160588611691,131.91452335252797 36.16429942418372,128.24568138195778 37.04875239923313,126.93538067818372 38.09699296225517,125.69059500959591 39.309021113245194,124.57683941138761 40.88138195777593,123.39756877799071 42.6502879078701,122.34932821497101 44.77952655150499,121.33384516954675 47.40012795905312,120.31836212412016 56.14638515675157,117.20639795265414 57.882533589250286,116.71503518873857 59.32386436340385,116.4202175303911 61.19104286628439,116.32194497760705 62.92719129878311,116.4202175303911 69.24939219449686,117.5339731285994 72.26308381318117,117.79603326935374 74.3595649392206,117.79603326935374 75.83365323096497,117.66500319897658 78.55252719129948,117.10812539987242 80.32143314139364,116.5840051183614 82.77824696097379,115.60127959053027 87.16775431862075,113.60307101727489 89.32975047984644,112.52207293665971 91.0003838771589,111.50658989123545 92.17965451055811,110.6548944337815 93.42444017914359,109.50838131797774 94.53819577735189,108.2308381317968 95.68470889315566,106.42917466410717 96.79846449136396,104.03787587971793 99.87767114523452,94.70198336532219 100.33627639155695,92.73653230965994 100.43454894433867,91.95035188739689 100.33627639155695,90.80383877159313 99.97594369801624,89.36250799743956 99.38630838131662,88.21599488163814 98.33806781829924,86.90569417786408 97.12603966730921,85.79193857965345 95.91401151631455,84.87472808701322 93.45719769673904,83.49891234804825 87.39705694177964,80.68176583493204 85.62815099168546,79.76455534228948 83.59718490083229,78.5852847088926 82.31964171465135,77.70083173384552 81.1731285988476,76.78362124120297 79.69904030710323,75.37504798464487 78.65079974408118,74.16301983365251 77.66807421625006,72.72168905950127 76.8163787587961,71.11657069737741 75.93192578375134,68.7580294305813 75.30953294945627,66.39948816378752 74.81817018554304,63.51682661548272 74.26129238643888,58.93077415227233 73.90095969289817,54.24644913627557 73.86820217530271,52.05169545745442 74.09750479846626,47.76046065259151 73.99923224568454,45.82776711452238 73.73717210492553,44.84504158669125 73.40959692898493,44.09161868202134 72.75444657709441,42.977863083813034 71.90275111964046,41.96238003838878 73.50786948176665,40.45553422904663 74.81817018554304,39.47280870121549 76.16122840691023,38.71938579654558 77.6025591810638,38.260780550223146 79.14216250799907,37.9987204094688 80.61625079974344,38.03147792706426 81.30415866922478,37.96596289187567 83.76097248880492,37.310812539987474 86.87293666027094,36.81944977607191 89.52629558541453,36.78669225847645 92.04862444018094,36.42635956493806 94.86577095329716,36.328087012156345 98.46909788867642,35.9349968010225 98.56737044145812,34.952271273193695 98.79667306462167,34.23160588611691 99.484580934103,33.019577735124564 100.56557901471585,31.643761996161913 100.95866922584736,30.988611644273718 101.25348688419717,30.16967370441522 101.51554702495152,28.499040307102764 101.87587971849224,27.483557261676175 102.85860524632336,25.45259117082533 103.71030070377732,24.4698656429942 103.97236084453166,24.07677543186268 104.56199616123128,21.914779270632334 105.18438899552169,20.080358285349575 106.75674984005242,17.394241842610533 107.37914267434284,15.952911068456967 108.29635316698771,12.447856685859426 108.65668586052378,10.351375559819992 108.91874600128277,9.663467690338667 109.50838131797774,8.516954574537234 109.67216890595036,7.8945617402421675 109.96698656430017,5.241202815098583 109.9014715291139,4.029174664108563 109.70492642354581,2.6206014075504553 110.6548944337815,2.7843889955207586 111.63761996161261,2.7843889955207586 112.55483045425748,2.6533589251435847 113.34101087652053,2.3585412667937806 114.02891874600186,1.9326935380668024 114.55303902751055,1.4740882917466946 114.94612923864673,0.8516954574539561 115.30646193218278,0 118.68048624440316,2.7843889955207586 120.84248240562886,4.848112603967063 123.95444657709487,8.02559181062167 124.54408189379448,8.746257197696124 126.0181701855435,10.908253358924144 127.32847088931524,13.266794625720252 129.13013435700486,15.265003198975641 130.53870761356296,17.426999360203663 131.16110044785805,18.04939219449873 132.99552143314313,19.654510556622597 133.84721689059708,20.244145873319876 134.40409468970122,20.70275111964231 134.89545745361448,21.390658989123637 135.81266794625935,23.29059500959731 136.3695457453635,24.142290467051268 136.92642354446764,24.764683301344004 138.62981445937555,26.304286628279286 140.8245681381967,28.56455534229135 141.41420345489632,28.990403071018328 142.03659628918672,29.285220729365804 143.11759436980424,29.645553422904197 144.32962252079426,29.874856046065414 145.14856046065276,29.940371081254 147.7364043506101,29.58003838771561 148.78464491362746,29.711068458092782 149.4725527831088,29.940371081254 150.02943058221294,30.267946257196936 150.651823416508,30.72655150351937 152.74830454254743,33.019577735124564 155.33614843250476,34.88675623800278 156.87575175944005,35.86948176583391 157.49814459373047,36.42635956493806 156.8429942418446,36.688419705694734 156.28611644274045,37.147024952014846 155.89302623160893,37.769417786307585 154.8120281509914,39.7676263595653 154.54996801023708,40.42277671145117 154.4844529750508,41.5365323096618 154.35342290467364,42.060652591170495 153.14139475367895,43.89507357645558 152.51900191938856,44.976071657070754 151.92936660268893,46.45015994881745 151.73282149712085,47.33461292386453 151.6673064619346,48.219065898911616 151.7000639795254,49.72591170825377 151.79833653231177,50.67587971848944 151.9948816378752,51.462060140754815 152.45348688419764,52.3465131158019 154.02584772872837,53.98438899552122 154.45169545745534,54.574024312220835 154.615483045428,55.2291746641067 154.54996801023708,55.687779910429136 154.05860524632382,56.60499040307168 153.46896992962422,57.22738323736442 151.20870121561217,58.96353166986546 150.19321817018556,59.55316698656507 153.33793985924706,60.797952655150546 154.32066538707818,61.02725527831176 155.92578374919972,61.19104286628207 156.67920665387197,61.420345489443285 158.5791426743433,62.599616122840175 160.38080614203759,63.94267434420969 162.96865003199025,65.41676263595639 163.8203454894442,66.1701855406263 165.16340371081142,67.5787587971844 166.7685220729376,70.232117722328 167.2926423544463,70.78899552143214 167.75124760076872,71.01829814459336 168.20985284709116,72.0010236724245 168.43915547025006,72.98374920025563 168.34088291746835,73.50786948176665 166.89955214331476,75.37504798464487 166.04785668586084,76.9474088291756 165.78579654510648,77.63531669865692 165.55649392194758,79.07664747280816 165.16340371081142,80.02661548304616 164.73755598208444,80.58349328215031 163.62380038387613,81.69724888035861 163.42725527831269,82.02482405630155 163.36174024312177,82.31964171465135 163.59104286628533,82.84376199616005 164.34446577095292,83.66269993602087 164.70479846449362,84.21957773512503 164.96685860524798,85.0057581573904 165.2944337811886,86.4143314139485 165.68752399232477,87.06948176583438 166.04785668586084,87.39705694177964 166.50646193218327,87.65911708253398 168.57018554062722,88.28150991682672 169.2253358925131,88.80563019833542 169.61842610364928,89.26423544465786 169.8149712092127,89.65732565578938 169.8804862444036,90.01765834932776 169.8149712092127,91.88483685220831 170.04427383237626,92.53998720409417 170.56839411388495,93.55547024952077 170.6011516314804,94.01407549584087 170.40460652591233,94.50543825975643 170.20806142034422,94.73474088291765 169.65118362124008,95.02955854126746 168.4719129878455,95.42264875239898 166.37543186180608,95.94676903391 165.49097888675666,96.27434420985294 165.16340371081142,96.56916186820274 165.1306461932206,96.99500959692972 165.32719129878404,97.5191298784384 165.81855406270193,98.43634037108096 167.39091490723268,100.50006397952725 168.01330774152308,101.05694177863141 170.14254638515797,102.72757517594387 172.92693538067874,105.44644913627603 174.76135636596382,107.01880998080678 175.1216890594999,107.44465770953376 175.21996161228626,107.80499040306982 175.0889315419091,108.19808061420366 174.85962891874553,108.59117082533518 174.30275111964139,109.21356365962792 173.5820857325646,109.86871401151612 171.9442098528476,110.94971209213129 169.58566858605383,112.03071017274414 168.20985284709116,112.84964811260497 166.2444017914289,114.42200895713337 164.60652591170725,116.02712731925725 163.7220729366625,117.14088291746555 163.066922584772,118.51669865643053 162.73934740883138,120.05630198336581 162.70658989123592,121.36660268713987 162.9358925143948,122.28381317978241 163.32898272553098,123.26653870761355 163.85310300703966,123.98720409469033 164.4427383237393,124.51132437619903 165.49097888675666,125.10095969289863 168.4063979526546,126.18195777351148 170.14254638515797,127.09916826615402 173.02520793346045,129.09737683941174 174.82687140115473,130.60422264875157 175.71132437619949,131.45591810620553 176.23544465770817,132.1765834932823 176.5957773512489,133.06103646832938 176.6940499040306,133.97824696097194 176.62853486884435,134.89545745361448 176.36647472809003,136.30403071017258 176.104414587331,137.12296865003108 175.74408189379494,137.81087651951472 175.35099168266342,138.30223928342798 174.9906589891227,138.56429942418464 173.81138835572816,138.89187460012758 171.55111964171607,138.99014715291162 163.6565579014716,138.59705694177777 160.8066538707599,138.53154190658918 159.79117082533799,138.33499680102344 157.36711452335328,137.38502879078774 156.97402431222176,137.3522712731923 156.81023672424914,137.58157389635352 156.77747920665368,138.07293666026908 157.0722968650035,140.36596289187426 157.0067818298172,142.06935380678217 156.81023672424914,142.8227767114521 155.86026871401347,145.3451055662185 155.7619961612271,145.83646833013407 155.72923864363628,146.45886116442682 155.79475367882256,146.81919385796522 156.1223288547678,147.53985924504198 156.67920665387197,148.2932821497119 157.33435700575782,148.91567498400462 158.12053742802553,149.4725527831088 159.75841330774253,150.1604606525901 162.67383237364047,152.32245681382045 165.1306461932206,155.72923864363395 164.11516314779402,156.41714651311528 163.09968010236744,157.33435700575782 162.34625719769986,158.25156749840036 161.98592450415913,158.9394753678817 161.65834932821386,159.85668586052424 161.46180422265044,161.0687140115166 161.46180422265044,162.641074856045 161.69110684580932,164.0496481126031 162.01868202175459,165.29443378119092 162.47728726807702,166.47370441458781 163.1324376199629,168.01330774152308 163.98413307741686,169.5856685860515 166.2444017914289,173.38554062699885 171.15802943058455,180.91976967370493Z"/>
  </g>
</svg>