<?xml version="1.0" encoding="UTF-8" standalone="no"?>
<svg viewBox="0 0 256 163.47784316080381" xmlns="http://www.w3.org/2000/svg">
  <style>
    g.zone {
      fill: lightgray;
      stroke-width: 2;
      stroke-linecap: square;
      stroke-linejoin: bevel;
      stroke-miterlimit: 3;
      stroke-opacity: 0.8;
      stroke: black;
      fill-opacity: 0.3;
    }
  </style>
  <g class="zone" id="zone">
    <path d="M213.77398823105602,163.37024138345274 213.2359793443017,163.26263960610166 212.6211120451536,163.07817941635787 211.60658100156175,163.0320643689214 211.1608022096804,162.9552059565287 210.17701453104473,162.70925903686924 209.28545694727987,162.34033865738058 208.80893479044016,162.20199351507222 208.05572234898585,162.01753332532843 206.10351867419155,161.61786958088248 203.95148312717643,160.8339137744698 203.18289900324294,160.40350666506657 202.64489011648863,160.2036747928436 202.27596973700108,160.15755974540818 201.81481926264053,160.15755974540818 200.8464032664819,160.28053320523736 199.87798727032543,160.31127657019468 198.4945358472438,160.51110844241765 198.0948721027979,160.37276330010926 197.1571994715976,159.94235619070602 196.18878347544114,159.60417917617468 195.1281373844117,159.45046235138818 194.3288098955198,159.3889756214736 193.46799567671334,159.21988711420792 193.0990752972258,159.08154197189955 192.82238501260903,158.91245346463387 192.23826107841933,158.34370121292335 191.00852648012528,156.96024978984175 190.59349105320015,156.6067010928323 190.163083943798,156.43761258556663 189.5174732796915,156.33001080821555 188.99483607541637,156.16092230094986 188.01104839678072,155.77663023898313 187.4422961450702,155.63828509667474 187.05800408310344,155.60754173171745 186.7813137984867,155.65365677915392 186.22793322925318,155.868860333855 186.08958808694697,156.0225771586415 185.87438453224482,156.37612585565202 185.62843761258645,156.5605860453958 184.42944637924862,156.96024978984175 181.7547736279562,158.1284976582212 180.4789239822268,158.86633841719848 179.58736639846194,159.327488891559 178.94175573435763,159.49657739882468 177.49681758136143,159.66566590609037 176.9741803770863,159.75789600096226 176.3131980305028,159.92698450822792 175.79056082622768,160.142188062929 175.20643689203794,160.52648012489576 173.63852527921256,162.1866218325941 173.26960489972282,162.50942716464627 172.97754293262906,162.67851567191192 171.9322685240788,163.0320643689214 171.67094992194126,163.15503782875166 171.4250030022807,163.13966614627248 171.07145430527234,163.04743605140058 170.61030383091182,162.83223249669842 169.88783475441372,162.3864537048171 169.04239221808643,161.90993154797735 168.4890116488529,161.4487810736168 168.21232136423615,161.15671910652196 168.08934790440696,160.88002882190628 168.07397622192778,160.6955686321614 168.21232136423615,160.0499579680571 168.21232136423615,159.88086946079144 168.16620631680075,159.69640927104766 167.9510027620986,159.37360393899442 167.35150714542968,158.82022336976198 167.09018854329213,158.38981626035874 167.01333013089834,158.14386934070038 166.98258676594213,157.8518073736055 167.02870181337752,157.52900204155335 167.1209319082505,157.17545334454283 167.1363035907297,156.97562147231986 166.99795844842131,156.6220727753104 166.72126816380455,156.23778071334365 166.44457787918782,155.9457187462488 166.13714422961485,155.73051519154663 165.24558664584998,155.34622312957987 165.0611264561062,155.2232496697507 164.70757775909786,154.70061246547448 164.3079140146519,154.27020535607232 163.6469316680684,153.71682478683883 163.15503782874947,153.224930947521 162.38645370481598,152.64080701333125 161.6178695808803,151.6877626996529 161.07986069412817,150.88843521076103 160.8954005043822,150.50414314879427 160.68019694968223,149.88927584964725 160.51110844241546,149.5664705175951 159.5734358112174,148.64416956887405 158.68187822745253,147.5066650654508 158.38981626035874,147.24534646331324 157.45214362915848,146.66122252912353 156.43761258556444,145.72354989792325 155.56142668428095,145.21628437612733 155.08490452744124,144.84736399663868 154.63912573555987,144.40158520475734 153.45550618470125,142.75681517953709 153.1788159000845,142.14194788039006 153.1327008526469,141.84988591329522 153.1327008526469,141.60393899363683 153.47087786717827,140.32808934790523 153.60922300948664,139.68247868380092 154.13186021376177,136.3007085384907 154.14723189624095,135.94715984148016 154.11648853128258,135.6397261919072 153.9627717064972,135.30154917737585 153.68608142188043,135.02485889275908 152.42560345862802,134.394619911134 151.103638765461,133.81049597694317 150.73471838597345,133.62603578719938 149.82778911973156,132.94968175813779 149.52035547015643,132.58076137864913 149.38201032784806,132.1196109042886 149.38201032784806,131.71994715984266 149.47424042272104,131.32028341539672 149.78167407229398,130.47484087906943 149.82778911973156,130.18277891197457 149.7970457547732,129.89071694487973 149.62795724750862,129.26047796325352 149.59721388255022,128.99915936111594 149.6894439774232,128.6148672991481 150.02762099195454,127.70793803290623 150.3504263240067,127.35438933589678 150.79620511588803,127.09307073375922 151.2112405428132,126.97009727392894 152.31800168127802,126.69340698931327 153.7783115167534,126.38597333973922 154.36243545094314,126.10928305512246 155.06953284496203,125.8325927705068 155.85348865137473,125.44830070854006 156.14555061847068,125.1716104239233 156.7604179176166,124.11096433289384 157.05247988471254,123.7420439534052 157.75957727873146,123.23477843160927 158.46667467275034,122.63528281494035 159.06617028941926,122.3278491653663 159.72715263600276,122.48156599015388 160.52648012489465,122.55842440254658 161.20283415395735,122.54305272006847 161.92530323045546,122.45082262519658 163.18578119370787,122.14338897562253 166.567551339017,121.09811456707227 169.38056923261558,120.36027380809499 172.19358712621639,119.5609463192031 172.94679956767067,119.39185781193852 173.484808454425,119.33037108202393 174.1457908010085,119.28425603458744 174.65305632280445,119.29962771706553 175.16032184460255,119.36111444698122 175.83667587366307,119.5148312717677 176.3900564428966,119.68391977903337 177.17401224930927,119.97598174612824 178.4037468476033,120.56010568031796 181.01693286898112,121.92818542092145 184.38333133181322,123.40386693887494 185.47472078779887,123.94187582562817 186.59685360874292,124.57211480725438 187.93418998438912,125.44830070854006 191.82322565149417,128.32280533205324 192.76089828269446,128.90692926624297 193.54485408910713,129.2912213282108 194.4825267203074,129.58328329530568 195.32796925663467,129.72162843761404 196.06581001561196,129.76774348504944 198.20247388014786,129.76774348504944 199.14014651134812,129.79848685000673 200.15467755494217,129.90608862735783 200.83103158400488,130.0136904047089 201.73796085024676,130.24426564188917 202.75249189383862,130.5824426564205 203.70553620751807,131.01284976582266 204.53560706136616,131.4432568752259 205.47327969256642,132.0273808094167 206.48781073616047,132.7805932508721 207.36399663744396,133.5645490572848 208.3170409511234,134.60982346583503 208.77819142548395,135.20931908250395 209.57751891437584,136.3929386333626 211.62195268404093,139.790080461152 212.74408550498498,141.49633721628575 214.1121652455874,143.2948240662914 215.08058124174386,144.37084183979894 215.74156358832735,145.03182418638247 216.46403266482545,145.66206316800867 217.14038669388816,146.1847003722838 218.2778911973092,146.9071694487819 219.43076738321162,147.4451783355362 222.24378527681023,148.52119610904376 222.99699771826673,148.8901164885324 223.55037828749803,149.22829350306375 224.27284736399614,149.76630238981699 224.78011288579427,150.3043112765713 225.164404947761,150.87306352828293 225.44109523237776,151.58016092230181 225.54869700972776,152.10279812657694 225.57944037468394,152.70229374324586 225.51795364476936,153.30178935991478 225.39498018494018,153.8397982466691 225.17977663024018,154.4546655458161 224.85697129818587,155.10027620992042 224.42656418878371,155.69977182658934 224.11913053921074,156.05332052359879 223.51963492254183,156.5605860453958 222.84328089347915,156.97562147231986 221.95172330971647,157.3752852167658 219.76894439774298,158.20535607061498 218.9542452263719,158.55890476762443 217.75525399303407,159.15840038429334 216.60237780713382,159.88086946079144 215.5263600336252,160.72631199711873 214.85000600456468,161.4334093911387 214.51182899003334,161.90993154797735 214.35811216524576,162.2481085625087 214.17365197550197,162.8476041791776 214.09679356310818,163.47784316080381 213.77398823105602,163.37024138345274Z"/>
    <path d="M156.37612585564986,112.75129098114617 156.0225771586393,112.33625555422213 155.3462231295788,111.36783955806567 154.79284256034526,110.66074216404567 153.747568151795,109.60009607301623 153.02509907529694,109.00060045634731 152.4870901885426,108.72391017173165 151.19586886033397,108.13978623754193 150.24282454665453,107.58640566830842 149.88927584964617,107.41731716104383 148.70565629878755,107.0176534165979 147.6296385252789,106.52575957728006 146.6765942116016,106.17221088026952 145.5698330731346,105.94163564308926 145.21628437612623,105.81866218326006 144.8627356791157,105.5880869460798 144.0634081902238,104.8502461871036 143.32556743124653,104.35835234778577 142.7721868620152,104.081662063169 141.3426203914982,103.52828149393659 139.15984147952472,102.34466194307797 138.80629278251416,102.23706016572687 138.4527440855058,102.22168848324769 136.3775669508823,102.49837876786444 135.13246067010908,102.55986549777903 134.74816860814232,102.54449381530092 134.37924822865259,102.42152035547065 134.102557944038,102.19094511829039 133.6106641047191,101.39161762939959 133.28785877266694,101.06881229734743 132.8728233457418,100.88435210760257 131.98126576197913,100.6537768704223 131.59697370001237,100.51543172811392 131.04359313077887,100.19262639606177 130.58244265641832,99.80833433409502 130.27500900684538,99.47015731956367 129.85997357992025,98.80917497298017 129.4603098354743,97.871502341781 129.16824786838052,97.34886513750587 128.92230094871996,97.01068812297453 128.6302389816262,96.73399783835777 127.23141587606541,95.8578119370732 125.90945118289841,94.75105079860835 125.43292902605867,94.412873784077 124.86417677434815,94.13618349946023 123.7420439534041,93.84412153236538 121.805211961089,94.02858172211025 121.48240662903684,94.13618349946023 120.9443977422847,94.52047556142807 120.59084904527415,94.65882070373536 118.9768223850112,94.98162603578861 117.08610544013366,95.16608622553238 116.8094151555169,95.18145790801049 116.56346823585854,95.1353428605751 115.79488411192504,94.79716584604374 115.37984868499991,94.70493575117186 114.98018494055397,94.73567911612915 114.0117689443975,94.92013930587292 112.64368920379509,94.76642248108645 112.41311396661374,94.79716584604374 112.15179536447617,94.92013930587292 111.8597333973824,95.22757295544697 111.58304311276565,95.7502101597221 111.1987510507989,96.68788279092237 110.81445898883216,97.9176173892164 110.67611384652378,98.17893599135395 110.50702533925701,98.39413954605612 110.19959168968404,98.67082983067179 109.8614146751527,98.88603338537395 108.29350306232732,99.66998919178664 107.81698090548758,99.96205115888151 107.40194547856245,100.31559985589095 106.74096313197894,101.00732556743175 105.6956887234287,101.79128137384554 105.31139666146196,102.19094511829039 105.0347063768452,102.63672391017282 104.78875945718683,103.25159120931983 104.38909571274088,104.78875945718792 104.2353788879533,105.24990993154844 103.03638765461767,107.89383931788247 102.68283895760712,108.354989792243 102.28317521316119,108.69316680677436 101.91425483367362,108.86225531404003 101.37624594691931,109.00060045634731 100.74600696529419,108.98522877386921 100.19262639606067,108.86225531404003 98.34802449861854,107.95532604779706 96.94920139305775,107.38657379608654 96.14987390416586,106.83319322685303 95.47351987510535,106.15683919779141 94.61270565629887,105.68031704095169 94.27452864176752,105.43437012129331 92.21472318962323,103.60513990632928 91.92266122252946,103.4360513990647 91.24630719346676,103.12861774949064 90.78515671910623,102.8519274648739 90.37012129218108,102.46763540290715 90.15491773747893,102.11408670589769 90.03194427764974,101.65293623153715 89.93971418277894,100.7152636003369 89.83211240542677,100.43857331572123 89.70913894559759,100.19262639606177 89.40170529602462,99.85444938153042 88.97129818662029,99.48552900204287 88.44866098234516,99.13198030503233 87.92602377807003,98.87066170289476 87.92602377807003,98.94752011528854 87.81842200072005,98.99363516272504 86.7270325447344,98.94752011528854 85.46655458148199,99.2088387174261 85.12837756695063,99.23958208238341 84.83631559985469,99.19346703494801 84.052359793442,99.00900684520315 83.13005884472092,98.73231656058748 82.66890837036038,98.70157319562908 81.76197910411851,98.79380329050207 80.14795244385773,99.10123694007503 80.04035066650556,99.2088387174261 80.05572234898476,99.36255554221259 80.4861294583869,99.85444938153042 80.62447460069528,100.11576798366907 80.62447460069528,100.34634322084825 80.56298787078069,100.623033505465 79.93274888915558,101.79128137384554 79.1180497177845,102.89804251231038 78.36483727633019,103.77422841359495 78.22649213402181,104.03554701573252 77.99591689684046,104.66578599735873 77.85757175453207,104.8656178695817 77.6731115647883,105.03470637684738 77.25807613786317,105.28065329650684 75.92073976221914,105.81866218326006 74.8293503062313,106.32592770505708 74.58340338657294,106.52575957728006 74.56803170409376,106.61798967215195 74.61414675153134,106.83319322685303 74.47580160922296,107.0022817341187 73.49201393058729,107.50954725591572 72.52359793442864,107.95532604779706 72.00096073015352,108.10904287258464 69.91041191305301,108.60093671190246 68.97273928185275,108.78539690164624 67.8813498258671,108.90837036147542 66.71310195748767,109.16968896361298 65.22204875705388,109.24654737600677 64.63792482286416,109.16968896361298 63.577278731834724,108.73928185420975 61.59433169208639,108.07829950762624 59.70361474720667,107.26360033625626 59.02726071814616,106.89467995676762 57.79752611984995,106.03386573796223 56.56779152155592,105.37288339137872 56.39870301428915,105.20379488411305 56.04515431728079,104.65041431488063 55.70697730274944,104.25075057043469 54.90764981385756,103.58976822385118 54.646331211719996,103.466794764022 54.04683559505108,103.08250270205416 53.70865858051973,102.94415755974687 53.370481565988385,102.86729914735308 52.86321604419245,102.83655578239579 51.92554341299219,102.86729914735308 50.296145070252216,102.72895400504471 49.127897201872784,102.72895400504471 48.497658220247665,102.80581241743849 47.40626876425983,103.05175933709687 46.653056322805526,103.11324606701146 46.207277530922006,103.19010447940524 45.66926864416987,103.34382130419172 45.39257835955311,103.4821664465001 44.885312837754995,103.77422841359495 43.99375525399232,104.40446739522116 42.76402065569829,104.97321964693279 41.71874624714803,105.63420199351629 40.596613426203994,106.01849405548303 39.81265761979131,106.18758256274872 39.182418638164,106.18758256274872 38.798126576197255,106.09535246787682 38.50606460910131,105.98775069052574 37.583763660380235,105.37288339137872 36.569232616788376,104.83487450462441 36.13882550738404,104.48132580761495 35.846763540290276,104.1892638405201 35.76990512789649,103.466794764022 35.754533445417295,103.15936111444795 35.816020175331886,102.7443256875239 36.12345382490704,101.76053800888825 36.44625915695919,101.13029902726203 36.99963972619052,100.31559985589095 37.153356550978096,99.9927945238388 37.107241503542696,98.5632280533218 37.030383091148906,98.25579440374774 36.86129458388214,97.8868740242591 36.27717064969242,97.1797766302402 35.63155998558811,95.93467034946697 35.37024138345055,95.61186501741372 34.740002401825436,95.0584844481813 34.017533325327335,94.61270565629997 33.12597574156247,93.99783835715186 32.757055362074915,93.82874984988727 32.295904887714386,93.705776390057 31.88086946078925,93.69040470757889 31.143028701811957,93.7365197550143 30.589648132580628,93.69040470757889 29.23694007445523,93.47520115287674 28.330010808213355,93.25999759817566 28.330010808213355,92.41455506184838 28.25315239581957,91.95340458748784 28.09943557103418,91.5844842079992 27.65365677915066,90.8773868139792 27.622913414194453,90.73904167167082 27.69977182658824,90.29326287978948 27.94571874624661,89.72451062807787 28.037948841117405,89.37096193106842 28.0533205235966,88.90981145670789 27.991833793682005,88.54089107721924 27.561426684279862,87.74156358832845 27.02341779752554,86.98835114687196 26.562267323165006,86.57331571994791 25.686081421879337,85.9891917857582 25.516992914614754,85.74324486609873 25.424762819741773,85.37432448661119 25.424762819741773,85.06689083703714 25.716824786837726,84.40590849045363 25.88591329410231,83.8678996036993 26.116488531283668,83.60658100156174 26.869700972737967,83.00708538489283 26.93118770265256,82.80725351267095 27.40770985949229,82.22312957848014 27.530683319321472,81.88495256394988 27.515311636842277,81.7773507865988 27.453824906927686,81.65437732676962 26.669869100514997,80.82430647292044 26.48540891077122,80.4553860934318 26.316320403506637,79.88663384172017 26.19334694367527,79.62531523958262 25.486249549656367,78.76450102077614 25.39401945478557,78.54929746607506 25.332532724870976,78.21112045154372 25.148072535125017,77.71922661222588 25.086585805210426,77.38104959769454 25.148072535125017,76.95064248829239 25.240302629998,76.70469556863293 25.563107962050154,76.22817341179429 25.747568151793928,75.82850966734836 25.793683199231513,75.53644770025349 25.716824786837726,75.27512909811483 25.470877867177173,74.98306713101998 25.117329170168812,74.7524918938397 24.61006364837288,74.58340338657513 23.626275969735037,74.39894319683026 23.10363876545991,74.26059805452188 21.689443977422105,73.61498739041757 21.274408550496968,73.32292542332272 20.78251471118023,72.6926864416965 20.121532364596725,72.06244746007029 19.983187222288347,71.98558904767651 19.998558904767542,71.95484568271921 19.93707217485295,71.90873063528382 19.26071814579025,71.70889876306084 17.98486850005864,71.49369520835867 17.692806532964873,71.35535006605139 17.569833073135687,71.15551819382841 17.585204755612697,70.90957127416895 17.723549897921075,70.41767743485113 17.73892158040027,70.14098715023546 17.677434850485678,69.895040230576 17.216284376125145,68.80365077458926 17.09331091629596,68.31175693527143 17.062567551337573,68.05043833313387 17.108682598775154,67.8044914134755 17.370001200912718,67.46631439894415 17.708178215441883,66.85144709979713 17.908010087664852,66.68235859253146 18.553620751771348,66.3749249429574 19.429806653054833,65.88303110363958 19.767983667586183,65.79080100876769 20.106160682117533,65.79080100876769 20.58268283895726,65.86765942116038 21.627957247507513,66.23657980064903 21.797045754772096,66.25195148312822 21.935390897080474,66.20583643569174 22.181337816738843,66.05211961090525 23.119010447939104,65.23742043953527 23.42644409751425,64.80701333013202 23.580160922299637,64.51495136303717 23.703134382128823,64.06917257115474 23.657019334693423,63.68488050918799 23.042152035545318,61.4867299147364 22.504143148793183,60.1186501741329 22.24282454665562,59.672871382251564 21.797045754772096,59.25783595532643 21.47424042271994,59.07337576558265 20.398222649213483,58.58148192626482 19.19923141587566,57.95124294463861 18.538249069292153,57.536207517714566 18.000240182537834,57.09042872583213 17.692806532964873,56.75225171130079 17.416116248348114,56.36795964933404 15.617629398341377,53.662543533085426 15.32556743124761,53.35510988351246 14.249549657738969,52.38669388735491 13.219646931667912,51.110844241624385 12.896841599615756,50.649693767263855 12.543292902605213,50.065569833074136 12.220487570553058,49.404587486490634 11.282814939352795,47.71370241383497 11.15984147952361,47.29866698691093 11.082983067129824,46.56082622793364 10.898522877386048,46.17653416596689 10.606460910290096,45.838357151435545 9.853248468835796,45.30034826468231 9.376726311996068,44.823826107842585 8.854089107720942,44.19358712621638 8.62351387053958,43.701693286898546 8.408310315839602,42.7025339257837 8.331451903445815,42.04155157920128 8.74648733037095,41.44205596253237 9.146151074816892,40.673471838597784 9.315239582081475,40.05860453945077 9.376726311996068,39.366878827909964 9.345982947039863,38.782754893720245 9.223009487208493,38.09102918217945 9.023177614985523,37.49153356551054 8.74648733037095,36.86129458388432 8.439053680795805,36.323285697130004 8.085504983787446,35.816020175334074 7.178575717543388,34.72463071934733 6.271646451301514,33.84844481806275 3.4586285577029123,31.404347303951706 2.766902846161019,30.712621592410905 2.213522276929689,30.09775429326389 1.6601417076961746,29.375285216765793 1.275849645729427,28.806532965054178 0.9530443136772717,28.191665665907163 0.6456106641043106,27.484568271887166 0.4304071094021456,26.82358592530366 0.30743364957296115,26.208718626156646 0.23057523717917475,25.655338056924226 0.18446018974377668,24.856010568032342 0.2613186021375631,23.457187462471545 0.6148672991459223,20.82862975861672 0.6302389816251165,19.614266842800795 0.5226372042751262,18.507505704335948 0.061486729914592225,15.356310796205998 0,14.264921340219257 0,13.650054041072242 0.10760177734999028,12.404947760297926 0.36892037948755335,11.205956526961193 0.722469076498097,10.176053800889042 1.029902726071058,9.561186501742029 1.260477963250233,9.161522757296087 1.690885072654563,8.59277050558447 2.059805452142116,8.223850126095824 2.5516992914610386,7.8395580641290765 2.9821064008631843,7.578239461991513 3.612345382490485,7.301549177374756 4.150354269242621,7.132460670110174 4.811336615826126,6.994115527801795 5.487690644888825,6.917257115408009 6.901885432928815,6.917257115408009 12.005284015850892,7.378407589768543 12.789239822263582,7.532124414555024 13.23501861414492,7.6550978743853 13.942116008166009,7.947159841480159 14.480124894918143,8.239221808575019 14.818301909449493,8.485168728233388 15.202593971418425,8.946319202593921 15.556142668426785,9.545814819262834 15.755974540649756,10.11456707097445 15.87894800047894,10.667947640206872 15.97117809535192,11.605620271407135 16.07877987270191,14.38789480004844 16.201753332531094,15.70985949321545 16.46307193466866,17.062567551339754 16.64753212441462,17.72354989792326 16.939594091508386,18.492134021856756 17.247027741081347,19.091629638525667 17.615948120571087,19.660381890237286 18.03098354749622,20.152275729555114 18.43064729193998,20.52119610904376 18.9225411312589,20.87474480605321 19.32220487570484,21.07457667827618 19.81409871502158,21.228293503062662 20.336735919296707,21.32052359793455 21.105320043232386,21.30515191545645 21.827789119730483,21.182178455627266 22.427284736399397,20.982346583404293 23.19586886033289,20.598054521436453 23.73387774708721,20.259877506906196 24.333373363756124,19.798727032545663 24.840638885552057,19.33757655818513 26.055001801369073,18.107841959890006 26.51615227572961,17.708178215444065 27.06953284496094,17.323886153477318 27.622913414194453,17.047195868860562 28.499099315477938,16.785877266723 29.4367719466782,16.64753212441462 32.72631199711653,16.524558664585435 34.125135102677326,16.386213522277057 35.12429446379218,16.20175333253328 36.07733877746945,15.940434730395717 36.984268043711324,15.540770985949775 37.752852167647006,15.03350546415275 38.275489371922134,14.587726672271412 39.566710700130756,13.142788519275216 40.196949681758056,12.527921220128203 41.05776390056453,11.8823105560228 42.04155157920019,11.29818662183308 43.27128617749422,10.775549417557954 44.7469676954488,10.314398943197421 46.776029782634716,9.868620151314989 48.943437012129,9.530443136784731 50.49597694247519,9.392097994476353 51.802569953163,9.422841359433649 53.03230455145922,9.62267323165662 53.67791521556353,9.7763900564431 54.49261438693242,10.037708658580664 55.3073135583035,10.345142308154717 56.62927825147051,10.94463792482363 60.16476522156721,12.773868139786572 61.717305151915575,13.511708898763862 63.485048636963924,14.280293022697357 66.17509307073334,15.340939113726805 67.1127657019336,15.755974540650847 67.71226131860251,16.094151555182197 68.31175693526924,16.49381529962814 68.83439413954437,16.924222409031376 69.2494295664695,17.370001200912718 69.54149153356546,17.81577999279515 69.74132340578844,18.261558784676488 69.8796685480968,18.90716944878189 69.89504023057381,19.35294824066323 69.72595172330924,19.967815539810246 69.52611985108626,20.53656779152186 69.01885432929033,21.551098835114818 68.21952684039844,22.82694848084643 66.25195148312713,25.68608142188152 65.48336735919145,27.00804611504853 63.60802209679311,31.066170289420356 61.45598654977801,35.293382971058946 60.93334934550288,36.53848925183217 60.74888915575693,37.24558664585108 60.70277410832153,37.82971058004188 60.77963252071531,38.35234778431701 60.97946439293828,38.767383211241054 61.133181217725856,38.967215083464026 61.34838477242584,39.1516752732078 61.824906929265566,39.412993875345364 62.53200432328447,39.64356911252563 63.039269845082586,39.70505584244132 63.561907049357714,39.64356911252563 64.11528761858904,39.52059565269645 64.74552660021634,39.32076378047348 65.06833193226849,39.1516752732078 65.76005764380821,38.70589648132646 67.72763300107952,37.27633001080837 70.29470397501976,35.60081662063191 71.24774828869921,34.89371922661301 72.00096073015352,34.2019935150722 72.61582802930162,33.5563828509668 74.67563348144593,31.23525879668603 75.41347424042102,30.49741803770874 76.15131499939832,29.86717905608362 76.9660141707694,29.26768343941471 77.88831511949047,28.72967455266039 78.76450102077614,28.33001080821445 79.68680196949721,28.03794884111959 80.5168728233453,27.853488651375812 81.43917377206635,27.761258556503925 82.37684640326663,27.776630238982026 83.22228893959391,27.884232016333108 84.02161642848579,28.05332052359878 84.7594571874609,28.268524078299855 88.07974060285761,29.46751531163768 89.66302389816218,29.944037468476317 90.73904167167082,30.20535607061388 92.03026299987944,30.45130299027334 93.95172330971536,30.69724990993171 95.04311276570103,30.774108322325496 96.50342260117641,30.820223369761987 98.14819262639557,30.7433649573682 98.87066170289367,30.63576318001712 99.65461750930636,30.45130299027334 100.17725471358149,30.25147111805037 100.65377687042121,29.990152515912808 101.05344061486716,29.698090548817948 101.3916176293985,29.313798486850107 101.63756454905688,28.898763059926065 101.80665305632145,28.39149753812904 101.86813978623604,27.89960369881121 101.83739642127985,27.40770985949338 101.69905127897147,26.854329290260956 101.4838477242693,26.31632040350773 100.97658220247337,25.516992914615848 100.20799807853987,24.64080701333018 96.564909331091,21.136063408190775 94.4589888315113,19.183859733397558 93.93635162723618,18.630479164165134 93.59817461270482,18.215443737241092 93.35222769304646,17.861895040230547 93.16776750330268,17.508346343221096 93.04479404347349,17.154797646211644 92.98330731355672,16.83199231415949 92.96793563107971,16.49381529962814 93.0294223609943,16.186381650054084 93.13702413834429,15.894319682959226 93.29074096313187,15.648372763300857 93.55205956526943,15.3716824786841 93.96709499219456,15.110363876546536 94.38213041911752,14.941275369280863 95.02774108322183,14.818301909451678 96.05764380929507,14.772186862015188 98.31728113366016,14.864416956888169 99.74684760417934,14.864416956888169 101.22252912213173,14.787558544494383 102.59060886273414,14.618470037228708 103.69737000120118,14.38789480004844 104.77338777470763,14.111204515431682 105.77254713582248,13.773027500901426 106.94079500420192,13.311877026540891 107.95532604779596,12.850726552180358 109.29266242344217,12.128257475682261 110.18422000720486,11.57487690644984 111.04503422601132,10.960009607301732 111.79824666746781,10.314398943197421 112.5668307914013,9.561186501742029 115.10315840038315,6.855770385493416 115.84099915936045,6.194788038909912 116.31752131620017,5.825867659421267 117.16296385252745,5.30323045514614 117.94691965894015,4.9343100756574945 118.63864537048204,4.672991473519931 119.48408790680932,4.442416236339665 120.80605259997633,4.242584364116694 122.12801729314333,4.196469316681296 123.26552179656439,4.27332772907399 124.83343340938977,4.503902966254257 127.20067251110703,5.041911853008577 131.05896481325806,6.025699531644237 132.82670829830641,6.594451783355853 134.16404467395262,7.147832352588276 135.20931908250287,7.716584604299892 136.22385012609473,8.423681998318795 137.1922661222534,9.223009487210678 137.9454785637077,10.006965293623368 138.43737240302661,10.591089227813086 138.91389455986416,11.267443256875785 140.34346103038334,13.819142548336824 140.74312477482928,14.464753212442227 141.11204515431683,14.956647051760056 141.4194788038898,15.294824066291406 141.75765581842114,15.586886033386266 142.20343461030467,15.832832953044635 142.7414434970568,15.986549777831115 143.32556743124653,16.0172931427895 143.69448781073626,15.971178095353013 144.29398342740518,15.755974540650847 145.06256755133867,15.402425843641396 146.8917977663016,14.403266482527634 147.86021376246026,13.911372643209804 148.72102798126454,13.573195628678455 149.53572715263562,13.311877026540891 150.3350546415275,13.127416836796023 151.2880989552048,13.004443376966838 154.45466554581392,12.804611504743868 155.63828509667255,12.697009727392786 156.6681878227458,12.497177855170907 157.55974540650848,12.205115888074955 158.49741803770874,11.759337096193615 159.38897562147142,11.1444697970466 160.0960730154925,10.514230815420392 161.5871262159241,9.023177614987707 162.09439173772003,8.608142188063663 162.49405548216598,8.331451903446906 163.15503782874947,7.993274888915558 163.76990512789757,7.76269965173529 164.52311756935188,7.5936111444707075 165.41467515311675,7.501381049597727 166.58292302149619,7.4860093671196255 168.07397622192778,7.624354509428004 169.16536567791562,7.808814699171781 172.43953404587475,8.469797045755286 174.0381890236585,8.746487330372043 175.5599855890485,8.915575837636625 176.9434370121301,8.97706256755231 178.74192386213466,8.900204155158523 179.92554341299328,8.761859012850145 182.83079140146486,8.30070853848961 183.75309235018594,8.223850126095824 184.7368800288216,8.193106761138528 188.36459709379128,8.269965173532315 192.3612345382485,8.239221808575019 193.65245586645932,8.269965173532315 195.1896241143263,8.408310315840692 197.8796685480957,8.869460790201227 198.84808454425436,8.900204155158523 199.61666866818786,8.777230695329338 200.23153596733596,8.546655458149072 200.83103158400488,8.193106761138528 201.4766422481092,7.639726191906106 201.72258916776755,8.223850126095824 202.1068812297343,8.761859012850145 202.44505824426565,9.023177614987707 202.9062087186262,9.207637804732576 203.73627957247427,9.345982947039863 204.8737840758975,9.422841359433649 205.42716464513103,9.361354629519058 206.3648372763291,9.161522757296087 206.70301429086047,9.146151074816892 206.948961210521,9.176894439774188 207.44085504983775,9.345982947039863 208.2401825387296,9.837876786357693 209.37768704215287,10.40662903806931 209.74660742164042,10.65257595772877 210.36147472078852,11.1444697970466 210.71502341779689,11.313558304312275 210.94559865497823,11.375045034226867 211.34526239942417,11.405788399184164 213.2052359793455,11.282814939353887 213.71250150114145,11.129098114567407 213.8969616908852,11.006124654738223 214.0660501981498,10.837036147472547 214.18902365798118,10.60646091029228 214.32736880028736,9.976221928666071 214.51182899003334,9.591929866699324 214.6962891797771,9.376726311997158 215.5263600336252,8.608142188063663 216.0643689203795,8.162363396181233 216.41791761739006,7.931788159000965 217.00204155157977,7.624354509428004 217.67839558064247,7.332292542333144 218.2010327849176,7.193947400024766 219.0003602738073,7.16320403506747 219.99951963492214,7.024858892759092 220.3376966494535,6.932628797887203 220.98330731355782,6.640566830792344 221.29074096313295,6.563708418398558 221.6442896601413,6.548336735919364 222.520475561427,6.655938513270446 222.85865257595833,6.640566830792344 223.27368800288127,6.517593370962067 224.24210399903993,6.117929626516125 224.5802810135713,6.010327849166135 225.02605980545263,5.948841119251543 225.47183859733397,5.948841119251543 225.74852888195073,5.979584484208839 226.90140506785096,6.302389816260995 227.68536087426367,6.33313318121829 228.26948480845556,6.2870181337818005 229.20715743965363,6.117929626516125 229.66830791401418,5.994956166686941 230.28317521316228,5.764380929506674 230.86729914735199,5.64140746967749 231.89720187342306,5.64140746967749 233.41899843881302,5.702894199592082 233.74180377086518,5.68752251711398 234.17221088026952,5.579920739762898 234.9715383691614,5.34934550258263 235.98606941275327,4.903566710700199 237.53860934310163,4.488531283776155 238.04587486489757,4.257956046595888 239.55229974780835,3.2126816380456353 241.08946799567752,2.3518674192391598 241.42764501020886,2.0444337696651065 241.96565389696102,1.3834514230816017 242.41143268884454,0.953044313678364 243.22613186021343,0.41503542692513584 244.0100876666261,0 244.27140626876368,0.38429206196783977 244.6556983307326,0.7993274888918834 245.91617629398286,1.9368319923151163 246.60790200552475,2.5978143388975288 247.68391977903337,3.889035667107242 248.82142428245442,5.503062327369111 251.49609703374685,9.57655818422013 251.92650414314897,10.299027260718226 252.29542452263652,10.990752972259028 252.78731836195544,12.128257475682261 254.75489371922677,17.370001200912718 255.4158760658103,19.475921700492414 255.66182298546866,20.490452744086465 255.8155398102562,21.32052359793455 255.9692566350438,22.58100156118697 256,23.441815779993444 255.9385132700854,24.41023177614991 255.75405308034163,25.194187582563693 255.43124774828948,26.101116848805564 254.92398222649354,27.069532844963124 254.24762819743086,28.130178935991477 253.50978743845354,29.129338297106333 253.00252191665763,29.71346223129605 252.46451302990332,30.25147111805037 251.92650414314897,30.68187822745361 251.1732917016947,31.158400384292243 250.02041551579225,31.68103758856737 247.4072294944166,32.58796685481034 246.70013210039554,32.89540050438439 246.31584003842877,33.12597574156466 245.85468956406825,33.49489612105221 245.5626275969745,33.81770145310546 245.36279572475152,34.12513510267842 245.23982226492234,34.49405548216706 245.20907889996394,34.9552059565276 245.31668067731613,35.38561306593083 245.57799927945368,35.78527681037678 245.90080461150583,36.092710459949735 246.30046835595178,36.3694007445665 246.7616188303123,36.599975981746766 248.63696409271066,37.41467515311675 249.6822385012609,37.952684039871066 250.51230935511117,38.536807974060785 250.98883151194872,39.04407349585781 251.1886633841717,39.366878827909964 251.26552179656548,39.59745406509023 251.32700852648006,39.92025939714239 251.32700852648006,40.22769304671644 251.2501501140863,40.58124174372589 251.0810616068217,40.965533805692644 250.58916776750277,41.71874624714803 249.71298186621928,42.73327729074208 248.69845082262523,43.76318001681314 248.06821184100014,44.301188903567464 247.43797285937282,44.7315960129707 246.63864537048093,45.13125975741664 245.91617629398286,45.361834994596904 245.14759217004936,45.50018013690419 244.36363636363666,45.546295184340686 243.76414074696774,45.50018013690419 243.18001681277804,45.3925783595542 242.48829110123614,45.177374804852036 241.9041671670464,44.93142788519367 240.81277771106076,44.285817221088266 238.6146271166081,42.71790560826289 237.52323766062244,42.04155157920128 236.3242464272846,41.45742764501047 235.18674192386138,41.10387894800102 234.58724630719465,40.99627717064994 234.07998078539654,40.95016212321454 233.06544974180468,40.99627717064994 232.2200072054774,41.14999399543751 230.39077699051228,41.64188783475534 229.3301308994828,41.79560465954182 228.85360874264526,41.79560465954182 228.36171490332634,41.74948961210533 227.51627236699906,41.54965773988345 226.5785997357988,41.18073736039481 225.59481205716315,40.627356791162384 224.78011288579427,40.027861174493474 223.7963252071586,39.1055602257724 223.01236940074372,38.19863095952944 222.3360153716832,37.26095832833027 220.49141347424109,34.18662183259301 219.96877626996596,33.5256394860095 219.5076257956054,33.09523237660627 219.16944878107407,32.8185420919906 218.67755494175515,32.495736759938445 217.72451062807787,32.04995796805601 216.55626275969843,31.711780953525757 215.495616668669,31.52732076378089 214.60405908490412,31.481205716345492 213.58952804131226,31.52732076378089 212.651855410112,31.68103758856737 211.62195268404093,31.942356190706025 210.4844481806177,32.35739161763007 209.27008526480068,32.89540050438439 207.97886393659206,33.5563828509668 206.96433289299802,34.18662183259301 206.16500540410613,34.75537408430463 205.53476642248103,35.278011288579755 204.9813858532475,35.83139185781218 204.42800528401617,36.477002521917576 203.79776630238888,37.47616188303134 203.4903326528159,38.12177254713674 202.890837036147,39.53596733517564 202.69100516392402,39.904887714664284 202.44505824426565,40.22769304671644 202.1683679596489,40.50438333133211 201.81481926264053,40.75033025099157 201.4151555181946,40.93479044073535 200.90788999639648,41.04239221808643 200.2007926023776,41.07313558304372 199.44758016092328,40.93479044073535 198.709739401946,40.64272847364049 197.97189864296868,40.19694968175914 197.34165966134358,39.658940795004824 196.83439413954545,39.1516752732078 195.00516392458252,36.90740963132082 194.26732316560523,36.12345382490704 193.8215443737239,35.69304671550489 193.32965053440716,35.30875465353705 192.89924342500282,35.01669268644219 192.4227212681631,34.77074576678382 191.97694247628175,34.58628557703895 191.37744685961283,34.43256875225247 190.79332292542313,34.35571033985869 190.2091989912334,34.35571033985869 189.5943316920853,34.46331211720977 188.99483607541637,34.64777230695354 188.48757055362046,34.89371922661301 187.99567671430373,35.216524558665164 187.5498979224202,35.6161883031111 187.08874744805965,36.18494055482272 186.7659421160075,36.73832112405514 186.51999519634913,37.30707337576567 186.19718986429697,38.367719466795116 185.79752611985103,40.70421520355508 185.59769424762806,41.61114446979804 185.3056322805321,42.50270205356181 184.89059685360917,43.348144589889095 184.38333133181322,44.10135703134449 183.75309235018594,44.85456947279988 183.06136663864623,45.51555181938339 181.35510988351245,47.08346343220877 180.80172931427896,47.636844001442284 180.4174372523122,48.11336615828092 180.15611865017465,48.48228653776956 179.8025699531641,49.22012729674576 179.63348144589952,49.80425123093657 179.55662303350573,50.357631800168996 179.55662303350573,51.003242464273306 179.64885312837652,51.60273808094222 179.8333133181225,52.23297706256842 180.12537528521625,52.86321604419464 180.4481806172684,53.370481565990566 180.84784436171435,53.8316320403511 181.37048156598948,54.29278251471163 181.9392338177022,54.66170289420028 182.4003842920627,54.846163083944056 182.92302149633784,54.98450822625244 183.55326047796297,55.092110003603516 184.22961450702567,55.12285336856081 184.92134021856538,55.06136663864622 185.59769424762806,54.93839317881704 186.65834033865752,54.61558784676379 187.74972979464317,54.10832232496786 188.76426083823722,53.52419839077814 191.30058844721907,51.89480004803708 191.91545574636717,51.55662303350573 192.71478323525903,51.17233097153898 193.42188062927795,50.89564068692222 194.17509307073445,50.68043713222115 194.94367719466794,50.55746367239197 195.6968896361244,50.49597694247737 196.61919058484548,50.52672030743467 197.66446499339574,50.649693767263855 198.6021376245938,50.864897321964925 199.4322084784441,51.12621592410249 200.30839437972756,51.44902125615574 201.3229254233216,51.92554341299437 204.52023537888698,53.64717185060732 205.53476642248103,54.139065689925154 206.13426203914992,54.36964092710542 206.81061606821262,54.569472799328395 207.48697009727314,54.72318962411487 208.11720907890043,54.81541971898676 208.77819142548395,54.861534766423254 209.53140386693823,54.846163083944056 210.29998799087392,54.76930467155136 211.02245706737202,54.630959529242986 212.26756334814525,54.24666746727624 215.09595292422304,53.18602137624679 215.72619190584817,53.001561186501924 216.47940434730464,52.83247267923734 217.17113005884434,52.75561426684355 217.77062567551326,52.75561426684355 218.38549297466136,52.81710099675814 218.9081301789365,52.955446139066524 219.29242224090325,53.1245346463322 219.59985589047622,53.29362315359787 219.87654617509295,53.50882670829895 220.09174972979514,53.72403026300111 220.26083823705972,53.985348865138675 220.42992674432648,54.36964092710542 220.52215683919727,54.70781794163677 220.55290020415566,55.10748168608162 220.55290020415566,55.52251711300676 220.47604179176187,56.12201272967567 219.86117449261377,58.45850846643563 219.70745766782838,59.380809415156705 219.6920859853492,59.903446619431826 219.7228293503054,60.44145550618506 220.07637804731593,62.73183619550962 220.13786477723053,63.823225651496365 220.09174972979514,64.51495136303717 219.98414795244295,65.12981866218418 219.79968776269916,65.82154437372499 219.52299747808243,66.55938513270118 219.18482046355325,67.28185420919928 218.73904167166972,68.08118169809116 215.87990873063572,72.58508466434542 215.18818301909383,73.59961570793837 213.60489972378926,75.75165125495457 212.92854569472874,76.79692566350482 212.48276690284524,77.5808814699175 212.1599615707931,78.25723549898021 211.11468716224283,80.71670469556935 210.80725351266986,81.25471358232367 210.4998198630969,81.70049237420501 210.00792602377797,82.22312957848014 209.39305872462987,82.71502341779797 208.79356310796314,83.11468716224391 206.59541251351047,84.39053680797443 205.81145670709776,84.91317401225065 205.0889876305997,85.48192626396117 204.1513149993994,86.31199711781035 203.33661582802833,87.14206797165953 202.61414675153023,87.98751050798681 201.95316440494673,88.87906809175058 201.55350066050298,89.5554221208122 201.23069532844863,90.23177614987489 200.95400504383406,90.92350186141569 200.7695448540881,91.6305992554346 200.64657139425893,92.26083823706081 200.56971298186733,92.89107721868702 200.50822625195053,94.92013930587292 200.44673952203595,95.31980305031887 200.33913774468596,95.7809535246794 200.17004923742138,96.18061726912535 199.84724390536923,96.65713942596507 199.52443857331488,97.01068812297453 199.03254473399815,97.41035186742046 198.18710219767087,97.9176173892164 195.83523477843062,98.99363516272504 194.80533205235955,99.56238741443556 193.8215443737239,100.30022817341285 191.80785396901717,102.0833433409404 190.97778311516691,102.66746727513012 190.54737600576476,102.91341419478849 190.14771226131882,103.08250270205416 189.64044673952287,103.22084784436254 189.25615467755395,103.26696289179903 188.70277410832261,103.23621952684174 188.14939353908912,103.11324606701146 187.519154557464,102.83655578239579 186.91965894079507,102.46763540290715 186.39702173651995,102.0525999759831 185.84364116728642,101.51459108922877 184.32184460189646,99.73147592170123 183.8453224450589,99.23958208238341 183.15359673351702,98.68620151315099 182.35426924462513,98.25579440374774 181.9084904527438,98.08670589648207 181.30899483607487,97.9176173892164 180.69412753692896,97.8100156118664 180.04851687282246,97.77927224690912 179.38753452623897,97.7946439293872 178.72655217965544,97.871502341781 178.2346583403387,97.979104119131 177.6044193587136,98.17893599135395 176.68211840999254,98.6093431007572 175.92890596853604,99.11660862255422 175.5907289540047,99.42404227212828 175.19106520955876,99.85444938153042 174.92974660742118,100.22336976101907 174.72991473519824,100.60766182298691 174.54545454545445,101.03806893238905 174.43785276810445,101.4069893118777 174.34562267323147,102.0833433409404 174.34562267323147,102.83655578239579 174.51471118049605,104.29686561787008 174.56082622793363,104.98859132941088 174.51471118049605,105.83403386573926 174.31487930827527,106.71021976702384 174.00744565870014,107.50954725591572 173.54629518433958,108.27813137984921 173.03902966254367,108.87762699651813 172.6239942356185,109.26191905848597 172.28581722108717,109.50786597814434 171.76318001681204,109.81529962771839 171.2866578599745,110.03050318241947 170.641047195868,110.23033505464244 169.9800648492845,110.35330851447162 169.27296745526561,110.41479524438621 168.5351266962883,110.4455386093446 165.7989672150835,110.36868019695082 164.64609102918106,110.38405187942891 163.41635643088705,110.50702533925919 162.15587846763464,110.76834394139675 160.86465713942601,111.22949441575729 159.5734358112174,111.8751050798616 158.45130299027335,112.6129458388389 157.2523117569355,113.59673351747455 156.37612585564986,112.75129098114617Z"/>
  </g>
</svg>