<?xml version="1.0" encoding="UTF-8" standalone="no"?>
<svg viewBox="0 0 256 146.64403505140436" xmlns="http://www.w3.org/2000/svg">
  <style>
    g.zone {
      fill: lightgray;
      stroke-width: 2;
      stroke-linecap: square;
      stroke-linejoin: bevel;
      stroke-miterlimit: 3;
      stroke-opacity: 0.8;
      stroke: black;
      fill-opacity: 0.3;
    }
  </style>
  <g class="zone" id="zone">
    <path d="M229.09818533084984,80.0872145173539 229.3278134271723,81.11170910094611 229.6104326226453,81.90657558821586 230.03436141585735,82.7897605740703 231.25315669633537,85.08604153729486 231.5534395915261,85.77492582626097 231.76540398813336,86.42848271579422 231.95970468502043,87.27634030221579 232.04802318360638,88.12419788863609 232.1893327813429,91.03870834195851 232.3129786793617,92.50479541847794 232.6662526737055,94.67743048368243 233.01952666804675,96.19650865935367 233.47878286069167,97.68025943559078 233.97336645276945,99.00503691437244 234.5562685434357,100.18850479541885 235.38646243013957,101.5486096736359 237.54143379562512,104.46312012695832 238.49527358035033,105.98219830262956 239.34313116676938,107.69557717518913 240.70323604498643,111.12233492030703 241.33912923480324,112.5177671979582 242.1869868212248,114.08983647278001 243.1584903056652,115.538259849583 244.55392258331761,117.33995722072851 246.23197405644055,119.21230939074103 247.71572483267892,120.69606016697816 251.84903056648062,124.58207410474095 253.22679914441534,125.97750638239212 254.16297522942034,127.00200096598434 254.83419581867253,127.8321948526882 255.34644311046802,128.59173394052382 255.71738080452698,129.31594562892533 255.94700890084943,130.05782101704327 256,130.53474090940585 255.96467260056713,130.94100600289894 255.8233630028306,131.3825984958262 255.61139860622333,131.718208790451 255.34644311046802,131.96550058649115 254.99316911612422,132.17746498309592 254.5692403229147,132.31877458083244 253.96867453253327,132.4070930794184 253.2621265438482,132.3894293797007 252.64389705375163,132.301110881116 251.84903056648062,132.10681018422767 251.17780997723094,131.87718208790523 249.92368729731754,131.29427999724024 247.73338853239662,129.987166218175 247.0798316428621,129.63389222383248 246.21431035672538,129.29828192920763 245.3487890705861,129.121644932037 244.6952321810541,129.121644932037 244.12999379010557,129.19229973090526 243.5824190988747,129.31594562892533 242.91119850962502,129.5809011246819 242.39895121782956,129.8458566204385 241.76305802801275,130.2697854136493 241.19781963706671,130.74670530601063 240.80921824329005,131.15297039950372 240.47360794866648,131.61222659214863 240.22631615262634,132.01849168564172 239.90836955771792,132.79569447319503 239.83771475884967,133.23728696612227 239.82005105913197,133.64355205961536 239.87304215828254,134.0498171531097 239.99668805630387,134.4384185468851 240.243979852344,134.96832953839828 240.61491754640298,135.49824052991144 242.76988891188853,137.98882219002306 243.44110950113821,138.85434347616106 243.9003656937831,139.525564065412 244.32429448699514,140.2497757538135 244.7128958807693,141.04464224108324 245.06616987511308,142.05147312495777 245.2074794728496,142.75802111364158 245.24280687228247,143.35858690402299 245.1898157731319,143.9768163941221 245.0485061753954,144.47139998620113 244.78355067964006,144.94831987856247 244.44794038501396,145.30159387290502 244.00634789208675,145.60187676809574 243.40578210170534,145.8668322638523 242.55792451528376,146.09646036017477 241.00351894017965,146.30842475677952 239.11350307044944,146.3790795556478 222.4919616366517,146.36141585593134 180.55833850824578,146.5733802525361 163.07127578831128,146.5557165528197 157.20692748223357,146.64403505140436 156.359069895812,146.60870765197024 155.52887600910813,146.52038915338554 154.7693369212725,146.34375215621367 154.1687711308911,146.1317877596089 153.53287794107428,145.76085006554993 153.23259504588356,145.47823087007566 153.0382943489965,145.21327537431907 152.8793210515423,144.91299247912835 152.7026840543704,144.45373628648343 152.2257641620103,142.40474711930028 151.80183536879827,141.29193403712213 151.46622507417467,140.67370454702302 151.05995998068033,140.09080245635928 150.58304008831774,139.525564065412 150.03546539708938,138.99565307389884 149.16994411095013,138.30676878493148 148.32208652452857,137.74153039398416 147.1562823432011,137.08797350445093 143.9591526944044,135.39225833160904 142.89933071137807,134.7563651417935 141.62754433174698,133.85551645622138 136.6817084109566,130.14613951562922 135.14496653556765,128.92734423514867 134.03215345339075,127.8498585524059 133.55523356102816,127.30228386117504 133.14896846753632,126.70171807079362 132.70737597460908,125.942178982958 132.26578348168186,124.98833919823404 131.93017318705577,124.05216311322779 131.62989029186505,122.86869523218138 131.54157179327913,122.07382874491164 131.52390809356143,121.13765265990537 131.62989029186505,120.11315807631317 131.98316428620635,117.85220451252398 132.01849168564172,117.11032912440606 131.98316428620635,116.08583454081385 131.70054509073333,114.37245566825428 131.2236251983707,112.14682950389923 130.7643690057258,110.43345063133965 130.34044021251628,109.179327951425 129.8281929207208,107.99586007037985 129.36893672807588,107.11267508452414 128.59173394052257,105.78789760574124 127.6025667563645,104.25115573035355 123.99917201407597,99.04036431380783 122.60373973642355,97.11502104464223 120.97867936245117,95.01304077830726 119.22997309045746,92.98171531084054 117.78154971365448,91.53329193403755 116.19181673911498,90.20851445525463 115.2026495549569,89.48430276685313 114.49610156627435,89.04271027392592 112.92403229145003,88.21251638722204 111.0693438211552,87.43531359966873 108.61408956047644,86.56979231353073 105.62892430828703,85.68660732767628 103.84489063685794,85.2626785344655 102.13151176429963,84.9447319395571 100.2768232940048,84.73276754295233 97.99820603049793,84.64444904436638 96.37314565652305,84.69744014351821 94.74808528255068,84.89174084040653 93.4233078037665,85.15669633616311 91.93955702753064,85.61595252880802 90.95038984337256,86.00455392258343 90.20851445525463,86.37549161664364 89.50196646656957,86.79942040985318 88.77775477816934,87.34699510108403 87.77092389429356,88.31849858552442 85.36866073276788,91.16235423997858 84.02621955426852,92.50479541847794 83.19602566756214,93.1936797074453 82.56013247774784,93.67059959980791 81.5179741944392,94.35948388877402 80.24618781480811,95.11902297660964 78.78010073828743,95.87856206444526 76.99606706685834,96.72641965086683 75.49465259090479,97.34464914096469 74.06389291381949,97.83923273304373 72.98640723107798,98.12185192851801 71.5203201545573,98.3868074242746 70.05423307803662,98.5281170220111 68.69412819981957,98.54578072172879 66.66280273235284,98.36914372455689 65.28503415441811,98.13951562823443 63.8719381770505,97.83923273304373 60.35686193334792,96.90305664803748 54.28054923066294,95.08369557717552 52.74380735527401,94.71275788311655 51.295383978471015,94.44780238735997 49.440695508176184,94.2358379907552 46.93245014834687,94.11219209273513 44.38887738908467,94.11219209273513 41.4567032360433,94.28882908990576 40.39688125301948,94.3241564893399 39.178085972538945,94.25350169047164 37.99461809149128,94.04153729386687 36.77582281101075,93.67059959980791 35.57469123024791,93.14068860829474 34.72683364382634,92.68143241564982 31.865314289655743,90.96805354309025 29.93997102049266,89.94355895949805 28.93314013661689,89.53729386600496 27.802663354722302,89.23701097081424 26.90181466915017,89.13102877251187 25.841992686123834,89.11336507279417 21.955978748359776,89.51963016628727 20.454564272406223,89.57262126543908 18.95314979645267,89.48430276685313 17.557717518802754,89.23701097081424 16.65686883322811,88.97205547505766 15.685365348787723,88.63644518043283 12.311598702821652,87.20568550334752 11.14579452149168,86.74642931070261 7.789691575243299,85.72193472711041 6.694542192781583,85.31566963361732 5.952666804663651,84.98005933899123 5.21079141654572,84.538466846064 2.826191954735215,82.93107017180806 1.9783343683161567,82.4011591802949 0.8655212861367497,81.88891188849817 0,81.58862899330745 0.9185123852898235,81.14703650038024 1.3954322776499164,80.8114262057554 1.854688470294828,80.29917891395867 2.4199268612433773,79.41599392810423 2.75553715586696,79.00972883460987 3.0734837507753623,78.762437038571 4.097978334368824,78.16187124818957 4.274615331538206,77.94990685158355 4.574898226728916,77.49065065893988 5.369764713999921,76.99606706686085 6.093976402400161,76.25419167874166 6.588559994480455,75.83026288553089 7.030152487407676,75.54764369005785 8.019319671565754,75.10605119713064 8.37259366590703,74.87642310080818 8.814186158834248,74.4524943075974 9.079141654592087,74.0462292141043 9.238114952046288,73.55164562202526 9.291106051196852,73.1807079279663 9.291106051196852,72.75677913475552 9.202787552610905,71.67929345201149 9.026150555439013,70.7077899675711 8.637549161664866,69.70095908369659 8.513903263643538,69.27703029048581 8.354929966189337,67.74028841509687 8.425584765057593,66.78644863037418 8.354929966189337,66.55682053405172 8.08997447043401,66.04457324225498 7.966328572412681,65.67363554819602 7.895673773544425,65.19671565583468 7.9310011729798084,64.82577796177445 8.036983371280936,64.56082246601913 8.619885461947176,63.51866418270923 8.83184985855194,63.30669978610447 9.308769750914543,63.006416890913755 9.520734147519308,62.81211619402543 9.6973711446912,62.54716069826884 9.962326640446529,61.94659490788742 10.209618436486675,61.59332091354489 10.509901331677387,61.24004691920236 11.163458221209371,60.710135927689194 11.463741116400081,60.215552335610155 11.622714413854283,59.79162354240063 11.71103291244023,59.26171255088746 11.799351411026175,58.32553646587994 11.975988408195558,57.15973228455123 12.064306906781503,56.08224660180846 12.187952804802832,55.09307941765038 12.629545297730052,53.62699234113096 12.823845994617127,52.46118815980224 13.000482991789019,52.07258676602558 13.601048782170439,51.1010832815852 14.819844062650974,49.42303180845975 15.031808459255739,49.034430414683094 15.155454357274557,48.64582902090643 15.296763955011066,47.32105154212352 15.243772855860504,46.543848754571464 15.155454357274557,45.960946663906476 14.519561167460264,44.229904091630466 13.548057683019875,42.88746291313112 12.682536396880616,41.28006623887392 12.170289105085141,39.83164286207219 11.958324708480376,38.824811978196415 11.852342510176738,38.18891878838087 11.764024011590793,36.069274822328204 11.587387014421411,34.23225005174981 11.605050714136592,33.86131235768959 11.693369212722539,33.38439246532824 12.099634306216887,32.30690678258547 12.329262402539342,31.865314289656997 14.272269371420116,29.728006623887893 14.519561167460264,29.427723728697185 14.713861864347336,28.933140136618146 14.78451666321559,28.438556544539104 14.731525564065027,27.784999655005866 14.431242668874317,26.81349617056548 13.512730283584494,24.57020630649274 13.283102187262038,24.163941212999646 12.75319119574887,23.475056924032277 12.558890498861798,23.051128130821493 12.470572000275851,22.521217139308327 12.43524460084047,21.3730766576973 12.29393500310396,20.701856068447626 12.29393500310396,20.43690057269104 12.43524460084047,20.242599875802714 12.682536396880616,20.101290278064948 14.219278272269552,19.606706685987167 15.279100255295885,19.041468295038616 16.020975643413816,18.741185399847904 17.451735320499115,18.317256606638377 17.875664113708645,18.140619609466484 18.758849099565595,17.57538121851919 19.165114193057434,17.169116125026097 19.377078589662197,16.745187331815313 19.430069688815273,16.427240736908164 19.324087490511634,15.685365348788979 19.341751190229328,15.438073552750087 19.465397088248146,15.031808459256993 19.765679983438854,14.484233768026137 20.15428137721551,13.883667977644714 20.489891671841605,13.477402884151621 21.373076657696046,12.594217898295925 21.99130614779516,12.152625405368704 22.43289864072238,11.958324708480376 22.980473331953238,11.852342510177994 23.687021320635786,11.817015110743867 24.269923411302027,11.887669909612121 24.60553370592561,12.223280204236959 25.011798799419957,12.558890498861798 26.265921479333365,13.247774787829165 27.237424963776263,13.918995377078842 27.50238045953159,14.024977575381223 27.996964051609375,14.166287173117734 28.65052094114387,14.201614572551861 29.516042227280618,14.060304974815352 31.017456703236682,13.548057683019875 32.21858828399952,12.788518595184254 33.631684261367134,12.134961705651014 34.656178844958085,11.41075001724952 35.23908093562432,11.07513972262468 35.55702753053273,10.916166425170479 36.17525702062933,10.739529427999843 36.687504312427315,10.651210929413896 37.55302559856406,10.580556130545641 38.80714827847998,10.297936935072622 39.531359966880224,10.209618436486675 40.87380114537957,10.209618436486675 42.74615331539209,10.368591733940876 43.82363899813612,10.33326433450675 44.40654108879985,10.368591733940876 44.79514248257651,10.456910232526823 45.18374387635316,10.615883529979769 45.87262816532053,11.057476022908244 46.17291106051124,11.198785620644754 47.09142344580106,11.958324708480376 47.48002483957772,12.417580901125287 47.886289933069556,13.053474090940837 48.08059062995914,13.247774787829165 49.49368660732675,14.007313875664789 50.90678258469687,14.996481059821612 51.68398537224767,15.420409853032396 53.85662043745341,16.356585938038656 56.13523770095777,17.11612502587428 57.3540329814383,17.610708617953318 58.02525357068798,17.699027116539263 59.561995446076914,17.62837231767101 61.08107362174816,17.310425722762606 62.33519630166157,17.169116125026097 63.412681984405594,16.957151728421334 65.81494514593128,16.391913337474037 66.4155109363127,16.215276340302147 67.5283240184921,15.70302904850667 68.6588008003867,15.120126957841684 68.8177740978409,14.925826260953356 68.76478299868782,14.678534464914465 68.78244669840551,14.572552266612082 69.06506589387853,14.342924170289626 70.31918857379445,13.76002207962464 71.85593044918087,13.141792589526784 72.33285034154348,12.859173394052508 72.54481473814825,12.66487269716418 72.70378803560244,12.435244600841724 72.96874353136029,11.71103291244023 73.12771682881448,11.41075001724952 73.99323811495124,10.403919133375004 74.92941419995874,9.132132753743907 75.65362588835899,7.789691575243299 75.72428068722725,7.471744980334896 75.72428068722725,7.206789484579568 75.56530738977304,6.906506589387602 75.07072379769525,6.341268198440308 75.05306009797756,6.164631201269671 75.1767059959989,6.040985303249597 77.03139446629372,5.687711308908323 78.07355274960237,5.581729110604686 78.60346374111553,5.617056510040068 79.66328572414186,5.935003104947215 80.564134409714,6.146967501553235 80.8997447043401,6.199958600703798 81.28834609811675,6.164631201269671 82.73676947491974,5.86434830607896 83.99089215483315,5.917339405230779 84.11453805285196,5.86434830607896 84.11453805285196,5.776029807493014 84.71510384323338,6.076312702683725 85.3156696336148,6.482577796178073 85.8102532256951,6.906506589387602 86.16352722003637,7.295107983164259 86.30483681777288,7.577727178638534 86.42848271579422,7.89567377354568 86.53446491409534,8.973159456289705 86.67577451183185,9.503070447802871 86.92306630787199,9.909335541295965 87.3999862002346,10.350928034223186 87.92989719174777,10.668874629131587 88.70709997930108,11.022148623474116 89.04271027392467,11.21644932036119 91.40964603601748,13.31842958669742 91.79824742979413,13.601048782170439 92.78741461395221,14.148623473401297 93.56461740150301,14.925826260953356 94.48312978679284,15.56171945077016 96.09052646105003,16.215276340302147 98.2101704271027,17.257434623612042 98.8460636169195,17.39874422134855 99.57027530531974,17.416407921064987 100.18850479541885,17.257434623612042 100.61243358862838,17.063133926723715 101.07168978127329,16.674532532947058 101.47795487476765,16.144621541433892 102.85572345269986,13.1064651900914 103.03236044987176,12.576554198578235 103.49161664251668,10.810184226868097 103.77423583798969,10.103636238184293 104.0921824328981,9.591388946387562 104.53377492582531,9.132132753743907 105.73490650658816,8.231284068170519 106.49444559442378,7.436417580900769 106.97136548678638,7.030152487407676 107.51894017801725,6.694542192782838 109.3206375491615,5.793693507210706 109.70923894293816,5.546401711170558 110.06251293727944,5.228455116263412 110.25681363416902,4.981163320223264 110.41578693162322,4.680880425032553 110.85737942455044,3.267784447664946 111.29897191747766,2.190298764920921 111.61691851238606,1.5897329745395 111.95252880700964,1.2364589801969703 112.25281170220036,1.0951493824604606 112.5177671979582,1.0598219830263333 114.08983647278001,1.2364589801969703 115.2026495549569,1.024494583592206 115.6619057476018,0.9891671841580784 116.13882563996441,1.0951493824604606 117.02201062581885,1.4837507762371176 117.30462982129188,1.5367418753876811 117.62257641620027,1.519078175671245 119.61857448423413,1.3247774787829165 121.45559925481378,0.9891671841580784 121.93251914717386,0.8301938867038774 122.6743945352918,0.33561029462483816 122.92168633133194,0.24729179604014714 125.09432139653518,0 125.44759539087896,0.03532739943412744 126.41909887531935,0.28261919547427455 126.86069136824656,0.45925619264491174 127.21396536258784,0.6535568895332402 127.76154005381869,1.042158283309897 129.28061822948993,2.3139446629409948 130.88801490374715,3.3207755468155096 131.2236251983707,3.6387221417239113 131.50624439384626,4.027323535500568 131.84185468846982,4.6278893258819895 132.30111088111474,5.70537500862476 132.77803077347735,6.464914096460382 133.13130476781862,6.853515490237038 133.66121575933178,7.295107983164259 134.2971089491486,7.666045677223225 134.7387014420758,7.825018974677426 135.76319602566676,8.08997447043401 136.24011591802937,8.301938867040029 136.61105361208834,8.672876561098994 137.17629200303688,9.591388946387562 137.49423859794277,9.856344442144145 137.9181673911548,9.99765403988191 138.35975988408202,10.015317739598347 139.79051956116734,9.944662940730092 142.0691368246742,9.62671634582169 142.49306561788373,9.62671634582169 142.81101221279212,9.6973711446912 145.49589456979334,11.1281308217765 147.1386186434834,11.764024011592047 147.7745118332977,12.08197060650045 148.62236941971926,12.647208997447745 149.5408818050091,13.495066583868057 149.94714689850343,13.76002207962464 150.35341199199527,13.901331677361151 151.6251983716289,14.166287173117734 152.7203477540881,14.572552266612082 153.95680673428632,15.137790657559377 155.31691161250336,15.597046850204288 155.7231767059952,15.79134754709136 156.81832608845693,16.427240736908164 158.7260056579048,17.310425722762606 159.27358034913317,17.681363416821572 160.03311943696878,18.37024770578894 160.9516318222586,19.32408749051289 161.4462154143389,19.92465328089431 162.50603739736525,21.426067756847864 163.07127578831128,22.04429724694698 163.77782377699634,22.697854136480217 163.05361208859358,23.386738425447586 162.48837369764755,24.022631615263133 162.0821086041532,24.57020630649274 161.7464983095296,25.135444697440033 161.48154281377177,25.806665286690965 161.34023321603527,26.407231077072385 161.3049058166024,26.990133167736115 161.37556061547065,27.590698958117535 161.51687021320717,28.173601048782523 161.7994894086802,28.91547643690045 162.15276340302145,29.569033326433694 162.71800179397002,30.381563513421135 163.31856758435143,31.05278410267081 163.9544607741657,31.618022493618106 164.60801766370022,32.077278686263014 165.47353894983698,32.554198578624366 165.98578624163494,32.76616297522913 167.0456082246613,32.960463672117456 168.08776650796992,32.99579107155159 168.9356240943915,32.907472572966896 170.24273787345547,32.62485337749262 174.4820258055608,31.317739598427394 177.71448285379037,30.469882012005826 181.35320499551426,29.463051128131312 182.23638998137122,29.30407783067711 183.19022976609392,29.233423031808854 183.98509625336493,29.26875043124298 184.74463534120054,29.392396329263057 185.76912992479149,29.692679224453766 187.09390740357316,30.22259021596693 191.08590353964087,32.27157938315135 194.95425377768723,33.96729455599323 196.5439867522242,34.76216104326298 197.85110053129068,35.5217001310986 199.03456841233836,36.31656661836835 203.50348444076363,39.619678465466166 204.58097012350765,40.290899054715844 205.48181880907978,40.73249154764432 206.4003311943696,41.03277444283503 207.35417097909482,41.20941144000567 208.37866556268577,41.28006623887392 210.833919823362,41.28006623887392 211.91140550610604,41.31539363830805 213.30683778375848,41.47436693576225 214.45497826537076,41.703995032084705 215.86807424273834,42.145587525011926 217.15752432208714,42.71082591595922 218.4823018008688,43.41737390464428 219.18884978955387,43.876630097289194 220.03670737597542,44.47719588767061 221.3614848547571,45.64300006899933 222.1386876423104,46.47319395570321 222.7745808321272,47.250396743255266 223.9050576140218,48.893120816946585 226.25432967639694,52.796798454427076 227.5437797557457,54.757469123025544 229.11584903056752,56.82412198992639 230.59959980680338,58.44918236390002 231.3944662940744,59.191057752019205 232.27765127992882,59.91526944041944 233.03719036776445,60.44518043193261 233.9027116539012,60.975091423445775 235.22748913268538,61.59332091354489 238.45994618091493,62.829779893741865 239.3254674670542,63.25370868695265 240.1379976540404,63.74829227903169 240.9152004415937,64.38418546884724 241.49810253225743,65.03774235838047 241.88670392603407,65.67363554819602 242.1869868212248,66.52149313461759 242.25764162009304,66.94542192782713 242.2929690195259,67.63430621679449 242.22231422065767,68.32319050576186 242.08100462292117,68.94141999586097 241.83371282688353,69.64796798454478 241.55109363140798,70.21320637549206 241.16249223763134,70.83143586559117 240.7385634444218,71.34368315738665 240.06734285517214,71.94424894776807 239.1488304698823,72.5448147381495 238.33630028289613,72.91575243220971 235.61609052646205,73.95791071551837 234.30897674739555,74.54081280618334 232.9665355688962,75.24736079486715 231.64175809011203,76.11288208100515 231.00586490029772,76.60746567308419 230.4582902090669,77.11971296487967 230.05202511557252,77.54364175809046 229.68108742151355,78.05588904988718 229.39846822604054,78.60346374111678 229.23949492858634,79.0627199337617 229.11584903056752,79.68094942386081 229.09818533084984,80.0872145173539Z"/>
  </g>
</svg>