<?xml version="1.0" encoding="UTF-8" standalone="no"?>
<svg viewBox="0 0 226.61132741941938 256" xmlns="http://www.w3.org/2000/svg">
  <style>
    g.zone {
      fill: lightgray;
      stroke-width: 2;
      stroke-linecap: square;
      stroke-linejoin: bevel;
      stroke-miterlimit: 3;
      stroke-opacity: 0.8;
      stroke: black;
      fill-opacity: 0.3;
    }
  </style>
  <g class="zone" id="zone">
    <path d="M198.42491871713574,201.38433749448058 198.5996066310762,202.56604985349045 199.0003612571752,204.50816842612272 199.17504917111566,205.1349897643802 199.37028860434248,205.65905350620162 199.6169068357888,206.23449604624108 199.81214626901559,206.6044233934091 200.18207361618434,207.2209689720227 200.5314494440653,207.71420543491388 201.20964958054083,208.525990446755 201.56930116806421,208.88564203427913 201.9700557941632,209.24529362180397 203.32645606711282,210.26259382651656 203.819692530004,210.66334845261554 204.29237747360884,211.13603339621892 204.61092602255806,211.55733954160496 204.91919881186487,212.0916790430703 205.02195640830095,212.34857303415905 205.11443824509314,212.68767310239681 205.18636856259752,213.24256412314847 205.1966443222414,214.3626219242964 205.24802312045946,214.66061895396004 205.30967767831996,214.86613414683075 205.4638140729741,215.1435796572073 205.67960502548868,215.3901978886529 205.8953959780033,215.56488580259335 206.18311724802376,215.72929795688992 206.42973547946863,215.8217797936821 206.73800826877542,215.9142616304743 207.354553847389,215.97591618833553 208.01220246457677,215.93481314976137 208.71095412033864,215.79095251475115 209.31722393930835,215.60598884116752 209.9029422389917,215.3901978886529 212.74932766025728,214.09545217356447 213.4891823545933,213.80773090354475 214.1262794524947,213.58166419138624 214.99971902219707,213.33504595994066 217.04459519126615,212.8418094970502 219.31553807249227,212.13278208164442 220.01428972825417,211.98892144663418 220.7849717015219,211.9067153694859 221.226829366195,211.89643960984273 221.75089310801644,211.92726688877298 222.66543571629293,212.0608517641393 223.57997832456942,212.31774575522806 224.40203909605376,212.667121583109 225.13161803074732,213.0781519688519 225.49126961827218,213.33504595994066 225.78926664793508,213.59193995102942 226.02560911973603,213.838558182475 226.28250311082624,214.17765825071277 226.41608798619257,214.42427648215835 226.5291213422711,214.70172199253417 226.59077590013305,214.96889174326682 226.61132741941938,215.24633725364265 226.57022438084525,215.61626460081067 226.49829406334086,215.88343435154334 226.38526070726087,216.17115562156306 226.16946975474625,216.520531449444 225.96395456187554,216.7774254405335 225.67623329185508,217.06514671055322 225.21382410789562,217.43507405772124 224.62810580821227,217.82555292417632 222.70653875486707,218.9147834463933 221.99751133946128,219.3566411110664 221.3809657608477,219.77794725645248 220.86717777867017,220.18897764219463 220.30201099827462,220.71304138401678 219.7368442178776,221.29875968369942 218.2365833099192,223.15867217918338 217.66114076987975,223.80604503672794 217.04459519126615,224.41231485569764 216.4588768915828,224.87472403965785 215.88343435154334,225.25492714646975 215.25661301328583,225.56319993577657 214.56813711716785,225.82009392686533 213.2939429213665,226.17974551439016 212.79043069883144,226.35443342833062 212.24581543772368,226.61132741941938 211.7320274555447,226.96070324730107 211.47513346445595,227.18676995945884 211.19768795408086,227.48476698912248 210.76610604905017,228.0704852888051 210.55031509653554,228.4712399149041 210.37562718259508,228.8411672620721 210.23176654758632,229.2316461285272 210.0776301529322,229.74543411070542 209.96459679685364,230.3003251314578 209.86183920041756,230.95797374864554 209.697427046121,233.2186408702285 209.55356641111078,234.56476538353496 209.3686027375264,235.80813230040533 209.16308754465567,236.82543250511793 208.88564203427913,237.85300846947368 208.59792076426012,238.75727531810702 208.2896479749533,239.558784570305 207.58062055954753,241.26456067113554 207.3237265684588,241.95303656725426 207.1182113755866,242.61068518444202 206.97435074057785,243.2375065226995 206.86131738449785,244.13149761168893 206.70718098984517,246.3921647332719 206.70718098984517,247.0703648697467 206.78938706699347,247.71773772729128 206.93324770200223,248.26235298839975 207.1284871352305,248.71448641271678 207.4367599245373,249.23855015453822 207.78613575241826,249.68040781921133 208.08413278208116,249.97840484887422 208.4335086099621,250.29695339782492 209.74880584433757,251.2937020832497 210.25231806687265,251.72528398827967 210.61196965439748,252.0849355758038 211.49568498374376,253.0816842612293 211.89643960984273,253.4824388873283 212.42050335166414,253.86264199413947 212.92401557419777,254.1503632641592 213.42752779673285,254.37642997631772 215.05109782041512,255.03407859350546 215.52378276401848,255.24986954602008 215.7601252358209,255.3834544213864 215.90398587083115,255.51703929675273 215.96564042869161,255.63007265283198 215.96564042869161,255.6917272106932 215.8526070726131,255.80476056677244 215.65736763938483,255.88696664392074 215.10247661863318,255.96917272106975 214.3112431260791,256 211.9375426484169,256 205.49464135190433,255.82531208605954 202.12419218881732,255.77393328784223 178.81876931722442,255.72255448962417 178.05836310360058,255.6917272106932 177.58567815999723,255.65062417211905 177.07189017781826,255.5478665756837 176.753341628869,255.44510897924835 176.4964476377788,255.3217998635252 176.27038092562174,255.13683618994153 176.1367960502554,254.94159675671327 176.07514149239347,254.75663308312963 176.06486573274958,254.458636053466 176.1162445309676,254.19146630273409 176.21900212740368,253.89346927307045 176.42451732027442,253.43106008911025 177.06161441817582,252.3110022879623 177.56512664070942,251.48894151647727 178.12001766146253,250.65660498534905 178.76739051900637,249.76261389635962 179.4969694536985,248.87889856701335 180.16489383053016,248.13904387267732 182.25087303817335,246.04278890539095 182.6927307028465,245.50844940392562 182.9804519728655,245.0768674988964 183.17569140609376,244.6966643920845 183.31955204110253,244.35756432384744 183.41203387789471,244.0287400152536 183.48396419540057,243.6793641873719 183.5250672339747,243.04226708947124 183.494239955043,241.96331232689744 183.494239955043,241.58310922008624 183.55589451290496,241.15152731505628 183.6792036286274,240.7610484486012 183.8847188214981,240.35001806285905 184.16216433187466,239.94926343676008 184.55264319832975,239.48685425279987 185.4260827680321,238.55176012523629 185.85766467306277,238.00714486412707 186.03235258700326,237.71942359410735 186.15566170272567,237.45225384337542 186.24814353951786,237.18508409264277 186.28924657809202,236.9076385822662 186.2789708184481,236.47605667723698 186.14538594308178,236.07530205113798 185.91931923092326,235.73620198290095 185.60077068197256,235.42792919359417 185.25139485409161,235.20186248143563 184.80953718941848,234.9757957692771 182.8982458957172,234.25649259422818 182.0556336049451,233.8660137277731 181.67543049813392,233.62967125597066 181.32605467025297,233.34194998595095 181.00750612130227,233.01312567735707 180.79171516878765,232.70485288805025 180.57592421627305,232.27327098302104 180.46289086019306,231.82113755870475 180.411512061975,231.39983141331868 180.38068478304476,230.2283948139527 180.32930598482673,229.88929474571492 180.24709990767843,229.5501946774779 180.0004816762336,228.89254606029013 179.1886966643917,227.22787299803298 179.02428451009513,226.78601533336058 178.92152691365905,226.40581222654868 178.85987235579856,226.03588487938066 178.83932083651078,225.63513025328166 178.870148115441,225.2343756271827 178.95235419259075,224.86444828001467 179.0962148275995,224.45341789427252 179.37366033797608,223.87797535423306 179.6100028097785,223.49777224742115 180.05186047445162,222.89150242845145 181.9631517681529,220.56918074900653 182.43583671175628,220.05539276682904 183.43258539718252,219.05864408140351 183.85389154256785,218.58595913779942 184.1210612933005,218.2468590695624 184.31630072652877,217.9077590013246 184.47043712118145,217.56865893308756 184.56291895797364,217.1987315859188 184.6142977561917,216.8390799983947 184.6142977561917,216.42804961265182 184.59374623690388,216.10950106370186 184.49098864046925,215.57516156223653 184.04913097579612,214.01324609641546 183.9052703407859,213.27339140207943 183.8847188214981,212.9034640549114 183.9155461004298,212.57463974631756 183.95664913900393,212.32802151487198 184.05940673543856,212.00947296592128 184.2135431300927,211.6806486573274 184.47043712118145,211.27989403122913 185.84738891341888,209.62549672861587 186.14538594308178,209.20419058322983 186.4536587323886,208.69040260105157 186.71055272347732,208.19716613816115 186.93661943563586,207.66282663669583 187.4195801388831,206.12146269016182 187.5942680528236,205.65905350620162 187.830610524626,205.15554128366728 188.04640147714062,204.78561393649926 188.34439850680351,204.41568658933124 188.67322281539813,204.09713804038054 189.20756231686198,203.69638341428157 190.13238068478236,203.09011359531186 190.43037771444673,202.86404688315335 190.75920202303988,202.56604985349045 191.01609601412864,202.22694978525269 191.2113354473569,201.85702243808467 191.32436880343542,201.50764661020372 191.2935415245052,201.03496166659963 191.14968088949496,200.57255248263942 190.9852687351984,200.2951069722636 190.72837474410963,199.9868341829568 189.81383213583314,199.0722915746803 189.39252599044636,198.5996066310762 189.0328744029215,198.12692168747282 188.231365150725,197.00686388632417 187.72785292818992,196.43142134628542 187.37847710030897,196.1334243166218 187.00854975314024,195.92790912375108 186.5975193673988,195.78404848874086 186.17621322201202,195.71211817123574 185.80628587484475,195.71211817123574 185.44663428731988,195.74294545016673 185.03560390157702,195.8354272869589 184.67595231405215,195.94846064303815 184.31630072652877,196.09232127804765 183.9155461004298,196.2978364709191 183.25789748324206,196.72941837594834 182.8982458957172,197.03769116525513 182.6002488660543,197.32541243527487 182.00425480672706,198.00361257174967 181.51101834383587,198.71263998715546 180.48344237948086,200.36703728976872 180.18544534981794,200.77806767551087 179.9182755990853,201.08634046481768 179.55862401156045,201.40488901376838 179.27090274154,201.58985268735202 179.0653875486693,201.69261028378736 178.63380564364004,201.8364709187976 178.10974190181864,201.9289527555898 175.8285232609486,202.03171035202513 175.20170192269111,202.10364066953025 173.36234094649421,202.360534660619 172.07787099104897,202.4530164974112 171.22498294063297,202.4530164974112 170.17685545699013,202.40163769919315 169.33424316621802,202.31943162204487 168.46080359651566,202.18584674667855 167.39212459358504,201.9803315538071 163.86753903584537,201.18909806125302 162.81941155220107,200.89110103159013 161.70962951069777,200.5211736844221 160.62039898847934,200.06904026010508 159.71613213984674,199.6169068357888 159.32565327339165,199.3702886043432 158.9762774455107,199.11339461325446 158.65772889656,198.8359491028779 158.3597318668971,198.52767631357108 157.94870148115422,197.97278529281942 157.68153173042157,197.4281700317102 157.5273953357689,196.85272749167075 157.46574077790694,196.26700919198814 157.50684381648108,195.56825753622624 157.64042869184743,194.79757556295925 158.00008027937227,193.22538433749426 158.25697427046103,192.33139324850484 158.5138682615498,191.5915385541688 159.30510175410384,189.58776542367463 160.07578372737157,187.2962710231607 160.4354353148964,186.4433829727454 160.80536266206371,185.6932525187655 161.25749608638074,184.93284630514165 162.99409946614153,182.33307911532165 163.61064504475513,181.295227391322 164.03195119014194,180.45261510054988 164.40187853730922,179.64083008870873 164.71015132661603,178.84959659615467 164.9053907598443,178.2227752578979 165.03897563521062,177.5754024003533 165.09035443342867,176.96913258138363 165.1006301930711,176.28065668526492 165.0492513948545,175.70521414522545 164.94649379841843,175.04756552803772 164.8129089230521,174.50295026692922 164.61766948982384,173.96861076546392 164.35049973909264,173.42399550435542 164.12443302693413,173.0437923975435 163.86753903584537,172.7355196082367 163.44623289045856,172.32448922249455 163.05575402400348,172.047043712118 162.73720547505278,171.85180427889046 162.25424477180553,171.61546180708876 160.8978444988559,171.0605707863364 160.25047164131206,170.76257375667348 159.5928230241243,170.37209489021768 158.98655320515314,169.93023722554528 158.44193794404538,169.41644924336703 157.44518925862062,168.32721872114934 156.9005739975114,167.78260346004083 156.2840284188978,167.23798819893236 154.62963111628525,165.83020912776468 153.60205515192877,164.88483924055723 152.69778830329471,163.93946935334975 151.84490025288017,162.911893388994 151.41331834785095,162.32617508931062 151.00228796210806,161.70962951069703 150.62208485529686,161.08280817244025 150.26243326777202,160.42515955525252 149.65616344880232,159.1509653594512 148.5772086862278,156.5923012082046 148.07369646369418,155.46196764741276 147.6421145586635,154.61935535664136 147.179705374704,153.92060370087876 146.7378477100309,153.38626419941417 145.53558383173393,152.0606912053948 144.23056235700236,150.56043029743492 143.48043190302243,149.76919680488086 142.5145104965279,148.8957572351785 140.69570103961732,147.45715088507984 140.24356761530177,147.0461204993377 139.82226146991496,146.61453859430847 139.2673704491633,145.9671657367639 138.57889455304388,145.1040019267047 137.84931561835174,144.1175290009231 137.25332155902595,143.25436519086392 135.60920001605587,140.69570103961806 135.14679083209492,139.86336450848984 134.8076907638579,139.11323405450992 132.41343876690934,133.3999116926902 131.88937502508645,132.29012965118616 131.36531128326504,131.28310520611748 130.38911411712806,129.61843214386033 129.32043511419744,127.98458636053488 128.21065307269265,126.44322241400089 127.75851964837564,125.88833139324849 127.22418014691178,125.2820615742788 126.2068799421992,124.27503712920938 124.12090073455597,122.42540039336858 121.79857905511182,120.16473327178562 121.19230923614211,119.63039377032104 120.51410909966657,119.09605426885572 116.54766587725231,116.3524264440255 114.66720186248126,115.08850800786733 107.81327018022729,110.77268895757213 106.1794243969011,109.73483723357248 105.59370609721775,109.32380684783031 104.97716051860415,108.85112190422694 104.58668165214907,108.51202183598917 104.20647854533787,108.11126720989019 103.97013607353546,107.81327018022729 103.82627543852523,107.5769277084256 103.61048448601062,107.0939670051776 103.50772688957599,106.58017902300008 103.51800264921843,106.00473648296064 103.65158752458476,105.40874242363411 103.91875727531742,104.76136956609027 104.29896038213006,104.13454822783277 104.57640589250516,103.77489664030792 104.81274836430758,103.52827840886306 105.2443302693368,103.1994541002692 105.68618793400994,102.98366314775384 106.21025167583134,102.87062979167533 106.72403965801031,102.85007827238752 107.20700036125758,102.88090555131849 107.98795809416777,103.01449042668482 109.89924938786905,103.39469353349673 110.85489503472114,103.6515875245855 111.68723156584936,103.94958455424839 112.39625898125514,104.29896038213006 113.06418335808533,104.74081804680246 114.22534419780814,105.59370609721847 114.61582306426322,105.85060008830723 115.23236864287682,106.189700156545 115.89001726006457,106.48769718620791 118.27399349737068,107.44334283305928 118.88026331634038,107.7207883434351 119.54818769317203,108.07016417131605 119.99004535784515,108.3270581624048 120.58603941717095,108.72781278850378 122.4973307108737,110.25890097539461 124.19283105206037,111.45088909404694 124.8504796692481,111.96467707622519 125.63143740215973,112.6531529723439 127.40914382049469,114.38975635210544 127.91265604302977,114.8007867378476 128.31341066912876,115.06795648858025 128.90940472845455,115.39678079717413 129.53622606671206,115.66395054790678 132.6395054790664,116.7942841086979 133.56432384698678,117.17448721550981 134.37610885882867,117.53413880303465 135.28037570746125,117.97599646770779 136.23602135431335,118.51033596917237 136.91422149078744,118.93164211455843 137.9006944165698,119.58929073174617 138.8357885441341,120.28804238750878 139.6475735559745,120.9662425239836 142.29871954401327,123.37077028057605 144.43607754987306,125.1073736603376 145.53558383173393,126.12467386505018 146.87143258539723,127.46052261871347 147.74487215509959,128.45727130413826 149.25540882270334,130.46104443463244 151.18725163569243,132.66005699835418 151.63938506000798,133.26632681732463 151.95793360895868,133.73901176092798 152.44089431220596,134.55079677276913 152.85192469794885,135.32147874603612 154.55770079877942,138.85634006342042 155.40031308955153,140.44908280817248 156.4792678521246,142.3295468229435 157.06498615180797,143.22353791193368 157.48629229719475,143.8195319712602 157.98980451972835,144.45662906916087 158.5652470597678,145.09372616706153 161.25749608638074,147.74487215509959 163.38457833259662,149.98498775739546 164.05250270942827,150.7351182113754 164.71015132661603,151.59828202143458 165.0492513948545,152.13262152289988 165.3472484245174,152.69778830329545 165.6349696945364,153.35543692048319 166.29261831172417,154.99955846345256 166.5700638221007,155.61610404206615 166.8886123710514,156.18127082246244 167.39212459358504,156.92112551679847 167.93673985469425,157.56849837434302 168.24501264400104,157.87677116364983 168.71769758760442,158.2775257897481 169.47810380122823,158.8118652912134 170.85505559346566,159.6750291012726 171.4818769317217,160.1271625255889 172.02649219283091,160.64095050776714 172.28338618391967,160.9594990567171 172.58138321358257,161.36025368281608 172.8382772046728,161.78155982820215 173.07461967647376,162.24396901216235 173.28013486934591,162.72692971540963 173.44454702364249,163.18933889936983 173.59868341829517,163.84698751655756 173.79392285152343,165.11090595271574 173.99943804439417,166.2104122345766 174.40019267049314,167.83398225825889 174.69818970015604,168.8204551840405 175.05784128768087,169.86858266768334 175.45859591377987,170.89615863203983 175.900453578453,171.91345883675166 176.37313852205637,172.92048328182108 176.87665074459144,173.9069562076027 177.3698872074826,174.7701200176619 178.07891462288694,175.95183237667104 178.6851844418581,176.87665074459144 179.33255729940194,177.79119335286794 180.09296351302578,178.79821779793662 180.79171516878765,179.66138160799582 182.11728816280703,181.15136675631177 182.8879701360733,181.94260024886583 183.75113394613177,182.75438526070698 184.58347047726144,183.48396419539984 185.31304941195356,184.07995825472636 186.0734556255774,184.63484927547876 186.84413759884367,185.148637257657 187.31682254244703,185.43635852767673 187.96419539999235,185.77545859591376 189.9576927708419,186.66944968490319 191.38602336129736,187.40930437923996 192.1464295749212,187.77923172640797 195.68129089230476,189.35142295187293 198.02416409103674,190.26596556014943 198.94898245895715,190.6872717055355 199.69911291293707,191.12912937020863 200.29510697226286,191.56071127523785 200.92192831052037,192.1361538152773 201.3843374944813,192.69104483602968 201.65150724521396,193.16372977963306 201.7850921205803,193.55420864608814 201.81591939951053,193.78027535824666 201.82619515915442,194.03716934933615 201.74398908200467,194.41737245614732 201.5795769277081,194.7564725243851 201.2610283787574,195.19833018905823 199.9354553847395,196.55473046200785 199.5244249989966,197.04796692489904 199.1442218921854,197.59258218600752 198.81539758359082,198.19885200497723 198.55850359250206,198.85650062216496 198.44547023642207,199.33946132541223 198.3940914382055,199.62718259543195 198.3632641592738,200.1512463372541 198.35298839963136,200.6136555212143 198.42491871713574,201.38433749448058Z"/>
    <path d="M42.38750852968279,183.37093083932058 42.151166057880374,183.09348532894475 41.699032633564805,182.4461124714009 41.329105286396064,181.97342752779682 40.48649299562395,181.12053947738153 40.250150523822995,180.93557580379715 40.03435957130838,180.80199092843083 38.92457752980361,180.2882029462533 38.28748043190221,179.91827559908455 38.05113796010125,179.80524224300603 37.25990446754718,179.5380724922734 36.54060129249749,179.2092481836795 35.90350419459755,178.9729057118771 35.163649500260064,178.81876931722368 34.92730702845911,178.7365632400754 34.690964556656695,178.58242684542202 34.156625055191384,178.08919038253157 33.66338859230021,177.7603660739377 33.293461245132924,177.5754024003533 32.33781559828228,177.20547505318532 30.775900132460485,176.3731385220571 30.59093645887611,176.33203548348223 30.344318227431256,176.33203548348223 29.19343314735234,176.50672339742343 28.525508770520698,176.54782643599756 28.021996547987087,176.55810219564074 27.713723758680285,176.48617187813562 27.6006904026003,176.41424156063124 27.49793280616567,176.31148396419516 27.16910849757107,175.77714446273058 26.953317545056457,175.56135351021595 26.675872034679898,175.4380443944928 26.0798779753541,175.28390799983939 25.822983984265345,175.19142616304723 25.545538473888787,175.0372897683938 25.23726568458199,174.81122305623603 25.042026251353715,174.61598362300847 24.8467868181269,174.359089631919 24.66182314454253,174.0508168426122 24.538514028820103,173.78364709187954 25.30919600208637,173.46509854292958 25.7613294264034,173.21848031148397 26.963593304700357,172.64303777144454 27.806205595472473,172.13952554891017 28.032272307629526,172.047043712118 28.2377875005017,171.9956649139007 28.525508770520698,171.95456187532653 28.905711877333342,171.94428611568264 29.34756954200647,171.98538915425678 30.015493918836654,172.06759523140508 30.488178862441487,172.17035282784116 31.145827479629226,172.42724681892992 31.474651788222367,172.49917713643504 31.721270019668683,172.48890137679112 32.039818568617925,172.41697105928674 32.76939750331151,172.12924978926702 33.7558704290924,171.63601332637583 34.156625055191384,171.52297997029657 34.783446393448884,171.38939509493025 35.163649500260064,171.23525870027686 35.410267731706384,171.0605707863364 36.05764058925023,170.47485248665376 36.78721952394235,170.00216754304967 37.06466503431891,169.76582507124797 37.27018022718962,169.5192068398024 37.434592381487654,169.25203708906972 37.54762573756618,169.00541885762487 37.58872877614032,168.8204551840405 37.599004535784225,168.39914903865446 37.4756954200618,167.37157307429868 37.455143900774,166.91943964998165 37.4756954200618,166.01517280134905 37.55790149721008,165.71717577168542 37.763416690080795,165.3780757034484 38.05113796010125,165.0492513948538 38.82181993336752,164.4121542969531 39.273953357684555,164.10388150764632 39.438365511981125,163.92919359370583 39.54112310841721,163.77505719905244 39.72608678200158,163.33319953438004 40.07546260988252,162.1925902139443 40.10628988881277,161.91514470356847 40.07546260988252,161.46301127925219 40.13711716774301,161.2163930478066 40.250150523822995,161.07253241279636 40.58925059206003,160.74370810420248 40.74338698671271,160.54846867097496 40.84614458314879,160.33267771846033 41.01055673744536,159.85999277485624 41.329105286396064,159.2126199173124 41.44213864247605,159.07903504194607 41.9867539035838,158.5960743386988 42.31557821217841,158.14394091438177 42.47999036647498,157.83566812507496 42.777987396137874,157.15746798860016 42.9012965118603,156.69505880463996 42.98350258901005,156.48954361176925 43.14791474330662,156.31485569782876 43.64115120619779,155.8832737927988 43.76446032192022,155.71886163850223 43.83639063942461,155.54417372456177 43.90832095693045,155.205073656324 44.165214948019205,154.5885280777104 44.309075583027976,154.33163408662165 44.750933247701106,153.70481274836413 44.90506964235524,153.3657126801271 45.13113635451375,152.523100389355 45.32637578774056,151.54690322321653 44.83313932485085,151.45442138642508 44.422108939107964,151.34138803034583 44.03163007265288,151.14614859711827 43.54866936940561,150.8070485288805 43.36370569582124,150.7145666920883 42.490266126118875,150.46794846064273 40.537871793841994,150.24188174848496 40.13711716774301,150.24188174848496 39.489744310199164,150.31381206598934 39.28422911732845,150.30353630634616 39.09926544374408,150.26243326777202 38.91430177015971,150.18022719062375 38.28748043190221,149.73836952595062 37.98948340223931,149.58423313129722 37.73258941115055,149.49175129450504 37.54762573756618,149.45064825593087 37.321559025407666,149.44037249628698 36.273431541764836,149.5020270541482 35.35888893348834,149.64588768915843 34.02304017982505,149.99526351703938 33.180427889052936,150.26243326777202 32.985188455826126,150.3549151045642 32.8413278208159,150.46794846064273 32.77967326295541,150.5912575763659 32.76939750331151,150.7351182113754 32.87215509974614,151.00228796210806 33.08794605226221,151.24890619355364 33.427046120499256,151.5880062617914 33.87917954481628,151.95793360895942 34.033315939468956,152.16344880183013 34.084694737686995,152.31758519648355 34.084694737686995,152.38951551398864 34.02304017982505,152.51282462971108 33.868903785172385,152.61558222614715 33.65311283265777,152.66696102436447 33.28318548548903,152.6772367840084 32.78994902259785,152.61558222614715 32.27616104042034,152.47172159113694 30.940312286757052,151.9784851282465 30.42652430457954,151.7421426564448 29.409224099866954,150.9714606831778 29.059848271986013,150.61180909565297 28.68992092481873,150.10829687311863 28.5460602898085,149.98498775739546 28.371372375868027,149.892505920604 27.857584393689056,149.71781800666355 26.55256291895747,149.37871793842578 26.0696022157102,149.2759603419904 25.062577770641514,149.17320274555433 24.49741099024596,149.06016938947508 24.271344278087444,149.07044514911897 23.983623008068445,149.2040300244853 23.048528880504147,149.80002408381182 22.54501665796907,150.00553927668253 22.072331714365703,150.10829687311863 20.94199815357459,150.18022719062375 20.232970738168802,150.2829847870591 19.482840284188875,150.51932725886078 18.547746156624576,150.8892546060288 18.270300646248018,150.95090916389 17.951752097298776,150.981736442821 17.489342913337847,150.94063340424682 16.985830690804235,150.81732428852442 14.663509011358604,149.75892104523768 14.190824067755235,149.56368161201013 13.94420583631038,149.48147553486112 13.707863364507963,149.45064825593087 13.49207241199335,149.47119977521794 12.700838919439278,149.69726648737574 12.11512061975592,149.75892104523768 11.858226628667165,149.73836952595062 11.683538714726692,149.68699072773256 11.354714406133551,149.5020270541482 11.15947497290528,149.32733914020773 11.005338578252609,149.12182394733702 10.501826355717537,148.1970055794166 10.440171797855593,147.92983582868396 10.337414201420966,147.01529322040673 10.25520812427268,146.72757195038773 10.111347489262451,146.48095371894215 9.62838678601518,145.85413238068463 9.083771524905965,144.99096857062545 8.785774495243066,144.63131698310133 8.487777465580168,144.37442299201186 8.210331955203609,144.18945931842822 7.521856059085625,143.84008349054727 7.182755990847123,143.61401677838876 6.227110343996482,142.62754385260715 6.340143700076469,142.23706498615206 6.37097097900671,142.03154979328062 6.3606952193628095,141.8054830811221 6.093525468630153,140.7265283185483 5.970216352907725,140.30522217316297 5.795528438967254,139.92501906635107 5.610564765382882,139.60647051740037 5.42560109179851,139.37012804559868 4.994019186769282,138.9796491791436 4.880985830690754,138.8255127844902 4.81933127282881,138.6508248705497 4.747400955324426,138.09593384979732 4.706297916750283,137.4280094729657 4.726849436036624,137.23277003973814 4.839882792116612,136.790912375065 4.860434311402953,136.25657287360042 4.5316100028098125,135.01320595672934 4.4083008870873845,134.13976638702698 4.19250993457131,133.2868783366117 4.1308553767108265,132.8861237105127 3.87396138562207,132.42371452655252 3.6992734716815985,132.02295990045351 3.1238309316421415,131.20089912896847 2.979970296631912,130.96455665716678 2.8463854212655835,130.68711114679095 2.64087022839487,130.14249588568248 2.4353550355226967,129.76229277887057 2.373700477662213,129.58760486493009 2.270942881226126,128.83747441095016 2.301770160156368,128.67306225665286 2.3531489583744114,128.60113193914847 3.462930999879183,128.54975314093045 3.9458917031264544,128.47782282342533 4.367197848511782,128.38534098663314 4.706297916750283,128.27230763055462 5.065949504275126,128.09761971661413 5.343395014650224,127.90238028338587 5.528358688234596,127.71741660980223 5.672219323244826,127.52217717657467 5.795528438967254,127.31666198370324 5.88801027575944,127.07004375225765 5.929113314333582,126.83370128045597 5.949664833619924,126.5665315297233 5.929113314333582,126.31991329827773 5.805804198611154,125.85750411431752 5.692770842531167,125.5903343635856 5.476979890016553,125.23068277606075 4.994019186769282,124.63468871673422 2.6614217476812114,122.37402159515126 0.9967486854247841,120.82238188897337 0.6473728575438417,120.45245454180535 0.421306145385327,120.17500903142952 0.2568939910887565,119.93866655962711 0.13358487536632863,119.70232408782543 0.05137879821804336,119.46598161602374 0.010275759642440452,119.25019066350913 0,119.02412395135062 0.04110303857414263,118.81860875847917 0.11303335607852717,118.62336932525163 0.2157909525146139,118.45895717095506 0.3904788664550851,118.27399349737068 0.6679243768316431,118.09930558343021 0.9453698872067408,117.98627222735095 1.2639184361574414,117.92461766948973 1.6030185043944831,117.8835146309156 2.0654276883554132,117.8732388712717 4.274716011721056,117.94516918877682 5.014570706057083,117.91434190984657 5.774976919679452,117.85268735198463 6.658692249025709,117.72937823626219 7.491028780153923,117.54441456267783 8.241159234133852,117.31834785052004 8.99128968811378,117.04090234014349 9.690041343875665,116.74290531048058 10.625135471439965,116.27022036687649 11.221129530767223,115.93112029863944 11.889053907597406,115.46871111467924 12.587805563360751,114.89326857463979 13.101593545538265,114.38975635210544 14.797093886724934,112.58122265483878 15.290330349616106,112.13936499016566 15.845221370369222,111.73861036406667 16.523421506843306,111.36868301689866 17.160518604744706,111.12206478545308 17.96202785694122,110.92682535222553 18.60940071448652,110.83434351543335 19.2773250913167,110.8035162365031 20.02745554529663,110.83434351543335 20.726207201059974,110.90627383293845 21.88736804078133,111.13234054509697 23.78838357484017,111.58447396941327 25.781880945691203,112.11881347087859 26.87111146790817,112.4887408180466 27.734275277966628,112.87921968450169 28.422751174086073,113.27997431060066 28.915987636975782,113.62935013848161 29.563360494521085,114.16368963994692 30.066872717054697,114.68775338176835 30.395697025649298,115.07823224822343 30.71424557459854,115.53036567254046 31.66989122145064,117.23614177337103 31.9370609721833,117.66772367840099 32.18367920362815,117.99654798699486 32.389194396498866,118.22261469915337 32.61526110865738,118.41785413238091 32.913258138321744,118.58226628667748 33.272909725845125,118.68502388311283 33.66338859230021,118.70557540240064 33.91000682374653,118.67474812346967 34.310761449845515,118.53088748845944 34.824549432023026,118.29454501665775 36.04736482960632,117.62662063982684 36.69473768715162,117.29779633123297 37.27018022718962,117.07172961907446 37.814795488298834,116.89704170513399 38.34913498976415,116.77373258941083 38.98623208766409,116.69152651226254 41.10303857423755,116.55794163689622 41.89427206679162,116.4860113193911 42.582747962911064,116.3524264440255 43.17874202223686,116.15718701079723 43.80556336049436,115.85918998113432 44.401557419820165,115.44815959539217 44.87424236342499,115.02685345000612 45.870991048849774,114.0301047645806 46.21009111708682,113.75265925420477 46.477260867819474,113.5676955806204 46.919118532492604,113.34162886846188 47.33014891823549,113.18749247380849 47.8336611407691,113.07445911772996 48.42965520009636,113.01280455986802 49.21061293300653,113.00252880022484 50.207361618431314,113.09501063701703 50.936940553124906,113.21831975273946 53.12567735720275,113.66017741741258 54.194356360133376,113.84514109099696 55.21165656484596,113.95817444707548 56.13647493276636,113.99927748565035 57.33873881106186,113.94789868743231 58.12997230361593,113.85541685064013 60.072090876248915,113.54714406133333 60.68863645486251,113.49576526311529 61.34628507205026,113.47521374382822 63.77136434793051,113.52659254204626 66.44306185525562,113.50604102275919 67.30622566531554,113.52659254204626 68.33380162967056,113.61907437883845 70.13205956729333,113.92734716814525 70.77943242483862,113.94789868743231 71.29322040701614,113.86569261028403 71.70425079275903,113.71155621563062 72.10500541885801,113.47521374382822 72.53658732388723,113.1052863966602 72.7009994781838,113.49576526311529 72.95789346927256,113.85541685064013 73.18396018143108,114.0301047645806 73.49223297073787,114.15341388030376 74.04712399148953,114.24589571709521 74.80753020511337,114.29727451531326 75.1774575522821,114.25617147673911 75.80427889053814,114.12258660137279 76.03034560269666,114.11231084172888 76.19475775699469,114.13286236101595 76.52358206558783,114.24589571709521 77.05792156705314,114.57472002568909 77.81832778067698,114.954923132501 78.06494601212184,115.1193352867983 78.47597639786471,115.44815959539217 78.71231886966568,115.56119295147143 78.8664552643198,115.60229599004558 79.13362501505246,115.62284750933264 80.37699193192356,115.54064143218363 80.7160920001606,115.43788383574827 80.83940111588304,115.35567775859998 80.95243447196155,115.24264440252072 81.0346405491113,115.08850800786733 81.12712238590203,114.66720186248126 81.25043150162591,114.41030787139252 81.37374061734835,114.26644723638229 81.9286316381,113.75265925420477 82.28828322562484,113.45466222454114 82.52462569742725,113.30052582988775 82.91510456388234,113.09501063701703 83.36723798819938,112.89977120378948 83.71661381608031,112.8072893669973 84.25095331754417,112.78673784771023 84.91887769437581,112.69425601091804 85.14494440653432,112.63260145305684 85.57652631156355,112.4373620198293 85.78204150443572,112.38598322161124 86.01838397623668,112.37570746196734 86.60410227592004,112.44763777947246 86.83016898807855,112.4373620198293 87.10761449845366,112.35515594268027 87.75498735599895,112.08798619194762 87.98105406815748,112.01605587444323 88.27905109782037,111.97495283586909 88.57704812748327,111.97495283586909 88.76201180106764,111.99550435515616 89.53269377433391,112.21129530767077 90.05675751615533,112.23184682695785 90.44723638261188,112.20101954802688 91.07405772086791,112.08798619194762 91.38233051017471,112.00578011479934 91.7933608959176,111.85164372014593 92.18383976237268,111.76943764299764 92.87231565849066,111.76943764299764 93.88961586320325,111.81054068157178 94.10540681571787,111.80026492192862 94.39312808573833,111.7283346044235 94.92746758720364,111.5741982097701 95.60566772367773,111.27620118010647 96.6435194476781,110.99875566973064 96.98261951591515,110.84461927507725 97.98964396098384,110.14586761931535 99.01721992534033,109.5704250792759 99.24328663749884,109.36490988640446 99.60293822502221,108.92305222173133 99.90093525468657,108.63533095171161 100.44555051579434,108.27567936418748 100.96961425761575,107.99823385381093 101.14430217155622,108.25512784490041 101.40119616264644,108.53257335527624 102.24380845341709,109.29297956890008 102.70621763737802,109.73483723357248 103.4255208124277,110.59800104363165 104.18592702605008,111.67695580620546 105.97390920403039,114.40003211174862 106.26163047404938,114.88299281499589 106.50824870549424,115.34540199895608 106.83707301408884,116.10580821257992 108.15237024846434,119.60984225103324 108.59422791313746,121.01762132220091 108.75864006743403,121.69582145867645 108.86139766387012,122.2507124794281 108.9641552603062,123.09332477020023 108.98470677959254,123.66876731023969 108.9436037410184,124.31614016778352 108.82029462529597,124.84020390960566 108.60450367278136,125.44647372857537 108.26540360454432,126.09384658611994 107.81327018022729,126.802874001525 107.32003371733612,127.47079837835663 106.98093364909907,127.86127724481172 106.62128206157423,128.22092883233657 106.26163047404938,128.50865010235628 105.75811825151578,128.82719865130628 104.98743627824804,129.1765744791872 103.24055713884333,129.78284429815764 102.76787219523851,129.9883594910291 102.51097820414975,130.14249588568248 102.20270541484295,130.38911411712732 102.00746598161614,130.60490506964268 101.87388110624981,130.8104202625134 101.79167502910153,131.05703849395897 101.77112350981372,131.36531128326578 101.84305382731957,131.6530325532855 102.01774174126004,131.92020230401818 102.23353269377465,132.12571749688888 102.50070244450731,132.31068117047326 102.80897523381411,132.46481756512665 104.06261791032765,133.00943282623513 104.76136956608953,133.36908441375996 105.31626058684265,133.75956328021505 105.63480913579188,134.09866334845285 105.76839401115822,134.31445430096744 105.81977280937626,134.46859069562083 105.8608758479504,134.68438164813546 105.8608758479504,134.8898968410069 105.80949704973236,135.1262393128086 105.69646369365383,135.38313330389735 105.36763938505923,135.8866455264317 104.78192108537733,136.56484566290723 104.1037209489018,137.2533215590252 103.68241480351647,137.61297314655005 103.26110865812967,137.9006944165698 102.72676915666436,138.16786416730244 102.24380845341709,138.32200056195583 101.73002047123957,138.4144823987473 101.20595672941816,138.44530967767827 100.80520210331917,138.4144823987473 100.41472323686409,138.34255208124293 99.95231405290316,138.1986914462327 99.56183518644808,138.03427929193612 98.83225625175595,137.60269738690616 97.36282262272634,136.55456990326334 96.63324368803421,136.10243647894703 95.83173443583624,135.7119576124912 95.0713282222124,135.47561514068954 94.67057359611488,135.40368482318442 94.33147352787638,135.37285754425417 93.6532733914023,135.40368482318442 93.08810661100674,135.5064424196205 91.86529121342198,135.83526672821438 91.1562637980162,135.93802432464975 90.83771524906696,135.93802432464975 90.50889094047236,135.90719704571876 89.9437241600768,135.77361217035318 89.3169028218193,135.52699393890757 88.65925420463155,135.15706659173955 88.1146389435238,134.75631196564058 87.45699032633605,134.13976638702698 86.93292658451318,133.53349656805653 86.48079316019762,132.9066752297998 85.24770200297041,130.85152330108752 84.89832617508947,130.40966563641442 84.59005338578267,130.12194436639467 84.36398667362415,129.93698069281103 84.03516236502955,129.7211897402964 83.39806526712961,129.4231927106328 82.61710753421944,129.197125998475 81.90808011881366,129.07381688275186 81.3120860594864,129.0429896038216 80.63388592301231,129.07381688275186 80.00706458475481,129.1765744791872 79.31858868863684,129.3512623931284 78.558182475013,129.62870790350422 77.74639746317114,129.9883594910291 76.88323365311267,130.43021715570148 76.20503351663713,130.85152330108752 75.67069401517182,131.23172640789946 75.24938786978649,131.58110223578038 74.87946052261775,131.9510295829484 74.50953317545046,132.38261148797835 74.08822703006368,133.05053586480926 73.88271183719296,133.48211776983922 73.48195721109397,134.4274876570467 73.34837233572765,134.67410588849228 73.18396018143108,134.8898968410069 72.9989965078467,135.07486051459054 72.76265403604575,135.23927266888785 72.4954842853131,135.36258178461028 72.15638421707459,135.43451210211538 71.68369927347122,135.45506362140247 71.1801870509376,135.36258178461028 70.68695058804644,135.16734235138273 70.19371412515527,134.86934532171983 69.77240797976994,134.509693734195 69.43330791153143,134.17059366595723 68.21049251394814,132.6703327579981 67.71725605105696,132.14626901617595 67.41925902139407,131.85854774615694 67.09043471280093,131.60165375506747 66.80271344278047,131.40641432183992 66.48416489382977,131.24200216754335 66.18616786416686,131.1186930518202 65.78541323806787,131.01593545538483 65.39493437161279,130.96455665716678 65.00445550515771,130.96455665716678 64.59342511941482,131.0364869746719 64.19267049331583,131.15979609039434 63.85357042507879,131.32420824469165 63.52474611648565,131.53999919720624 63.22674908682129,131.80716894793892 62.918476297514495,132.18737205475082 62.70268534499988,132.55729940191884 62.53827319070331,132.93750250873 62.3224822381887,133.6465299241358 62.05531248745604,135.20844538995686 61.92172761208971,135.8147152089273 61.72648817886144,136.41070926825384 61.44904266848634,136.97587604864938 61.1099426002493,137.47938827118372 60.68863645486251,137.98290049371806 60.22622727090304,138.4247581583912 59.08561795046803,139.47288564203404 58.71569060329929,139.84281298920277 58.45879661221053,140.16136153815273 58.28410869827005,140.40797976959834 58.047766226467644,140.90121623248876 57.93473287038911,141.2916950989446 57.88335407217107,141.6616224461126 57.88335407217107,142.09320435114182 57.94500863003155,142.49395897724082 58.068317745755444,142.91526512262686 58.26355717898225,143.33657126801293 58.47934813149687,143.67567133624996 58.746517882229526,143.98394412555677 59.09589371011047,144.29221691486356 59.47609681692311,144.53883514630917 59.784369606229916,144.66214426203157 60.13374543411086,144.75462609882376 60.55505157949618,144.82655641632888 61.00718500381321,144.84710793561595 61.469594187772685,144.80600489704182 61.92172761208971,144.72379881989352 62.630755027495496,144.50800786737818 63.360333962187624,144.16890779914115 64.03853409866316,143.77842893268607 65.73403443984984,142.68919841046835 66.14506482559273,142.46313169830984 66.67940432705804,142.20623770722108 67.1520892706614,142.0212740336367 67.65560149319649,141.87741339862723 68.16938947537399,141.79520732147893 68.67290169790907,141.7541042829048 69.28944727652267,141.77465580219186 69.98819893228455,141.85686187934013 70.6150202705406,142.00072251434963 71.1699112912937,142.17541042829012 71.7556295909756,142.39120138080546 72.43382972745115,142.70974992975542 74.57118773331095,143.86063500983434 75.24938786978649,144.18945931842822 75.65014249588548,144.3435957130816 76.1022759202025,144.47718058844794 76.55440934451808,144.5799381848833 76.97571548990486,144.6415927427445 77.417573154578,144.6724200216755 77.92108537711161,144.66214426203157 78.43487335929058,144.61076546381426 78.91783406253785,144.51828362702207 79.75017059366606,144.26138963593334 81.64091036808101,143.55236222052756 82.06221651346632,143.42905310480438 82.5657287360014,143.31601974872586 83.02813791996087,143.2646409505078 83.42889254605986,143.2646409505078 83.83992293180275,143.30574398908195 84.18929875968368,143.39822582587414 84.44619275077244,143.5112591819534 84.65170794364316,143.62429253803265 84.83667161722752,143.76815317304215 84.98053225223775,143.9120138080524 85.09356560831628,144.08670172199285 85.20659896439628,144.3435957130816 85.26825352225676,144.56966242524013 85.28880504154456,144.83683217597206 85.28880504154456,145.1142776863486 85.23742624332651,145.5150323124476 84.82639585758363,147.07694777826867 84.723638261149,147.69349335688227 84.7133625015051,148.04286918476322 84.73391402079145,148.40252077228732 84.97025649259386,149.93360895917814 85.011359531168,150.663187893871 84.98053225223775,151.1255970778312 84.90860193473192,151.53662746357335 84.78529281900948,151.99903664753356 84.6003291454251,152.492273110424 84.37426243326806,152.97523381367128 84.0762654036037,153.5095733151366 82.16497410990242,156.52037089069947 81.70256492594149,157.1985710271743 80.64416168265475,158.63717737727293 80.19202825833919,159.33592903303483 79.89403122867483,159.85999277485624 79.67824027616021,160.31212619917326 78.97948862039833,161.9562477421426 78.77397342752762,162.31589932966747 78.5684582346569,162.61389635933037 78.2396339260623,162.96327218721132 77.82860354031942,163.29209649580517 77.4278489142219,163.55926624653785 75.95841528519227,164.4121542969531 75.43435154337087,164.7615301248348 74.9513908401236,165.141733231646 74.3245695018661,165.69662425239835 73.77995424075688,166.25151527315074 73.29699353750961,166.81668205354632 72.85513587283647,167.41267611287282 72.58796612210529,167.86480953718913 72.3721751695892,168.31694296150616 72.1872114960063,168.77935214546636 72.0639023802824,169.25203708906972 71.98169630313411,169.67334323445579 71.93031750491754,170.09464937984185 71.88921446634194,171.45104965279148 71.84811142776779,171.71821940352413 71.77618111026341,172.02649219283091 71.66314775418488,172.2936619435636 71.44735680167027,172.6122104925143 71.2315658491542,172.84855296431596 70.90274154056105,173.11572271504863 70.3375747601655,173.45482278328566 68.7653835346998,174.17412595833537 68.0769076385818,174.55432906514653 67.41925902139407,175.04756552803772 66.07313450808834,176.23955364669078 65.51824348733523,176.63003251314586 65.23052221731622,176.79444466744243 64.96335246658357,176.9074780235217 64.62425239834653,176.99995986031388 64.3673584072563,177.03078713924484 63.99743106008903,177.01023561995777 63.62750371292028,176.92802954280876 63.20619756753496,176.74306586922512 62.80544294143597,176.49644763777954 62.45606711355502,176.21900212740368 62.08613976638628,175.85935053987885 61.0688395616737,174.6673624212258 60.75029101272445,174.33853811263194 60.287881828763524,173.96861076546392 59.75354232729821,173.68088949544418 59.45554529763531,173.56785613936492 59.054790671536324,173.45482278328566 58.6437602857949,173.38289246578128 58.212178380764215,173.36234094649421 57.770320716091085,173.3726167061374 57.328463051417955,173.42399550435542 56.999638742824814,173.4959258218598 56.578332597439484,173.62951069722615 55.96178701882589,173.91723196724587 55.458274796290816,174.25633203548364 55.2322080841323,174.46184722835508 54.96503833339964,174.7495684983741 54.79035041945917,174.99618672981967 54.65676554409284,175.25308072090917 54.533456428370414,175.54080199092814 54.46152611086603,175.78742022237375 54.39987155300409,176.23955364669078 54.39987155300409,176.74306586922512 54.512904909082614,177.71926303536281 54.54373218801432,178.18167221932302 54.512904909082614,178.7468389997193 54.37932003371775,179.33255729940194 54.17380484084557,179.86689680086727 53.86553205153877,180.38068478304476 53.52643198330173,180.78143940914376 53.248986472925175,181.03833340023323 53.022919760766655,181.2027455545298 52.673543932885714,181.40826074740124 52.354995383936476,181.55212138241075 51.923413478905786,181.68570625777707 51.48155581423266,181.76791233492537 51.00887087062929,181.8090153734995 50.51563440773812,181.8295668927873 48.686549191185115,181.77818809456926 47.91586721791739,181.78846385421244 47.09380644643308,181.87066993136145 46.25119415566096,182.04535784530194 45.3880303456025,182.35363063460872 44.52486653554405,182.78521253963794 43.77473608156412,183.27844900252913 42.97322682936615,183.93609761971686 42.38750852968279,183.37093083932058Z"/>
    <path d="M108.3270581624048,32.71801870509347 108.21402480632628,33.21125516798464 108.16264600810823,33.60173403443972 108.018785373098,35.53357684742881 107.91602777666192,36.00626179103291 107.83382169951363,36.211776983903626 107.68996106450486,36.47894673463628 107.42279131377221,36.78721952394308 107.07341548589126,37.06466503431891 106.64183358086058,37.30100750612132 105.5628788182875,37.77369244972469 104.9257817203861,38.102516758318565 104.38116645927835,38.451892586199506 104.05234215068374,38.698510817645094 103.75434512102085,38.96568056837775 103.29193593706138,39.47946855055599 102.95283586882287,40.04463533095155 102.83980251274434,40.30152932204031 102.72676915666436,40.64062939027808 102.66511459880388,41.00028097780292 102.64456307951608,41.27772648817875 102.70621763737802,41.72985991249505 102.7986994741702,42.03813270180185 102.88090555131849,42.23337213502939 103.13779954240725,42.6135752418413 103.49745112993209,42.97322682936615 103.94958455424911,43.30205113796002 104.50447557500078,43.60004816762292 106.33356079155378,44.40155741982089 107.00148516838541,44.761209007345734 107.3919640348405,45.04893027736473 107.7002368241473,45.346927307028366 107.94685505559362,45.655200096335165 108.15237024846434,45.98402440492903 108.31678240276091,46.353951752097046 108.44009151848479,46.74443061855213 108.50174607634527,47.09380644643308 108.53257335527552,47.65897322682936 108.52229759563308,48.23441576686882 108.37843696062285,50.12515554128376 108.29623088347456,50.710873840966386 108.16264600810823,51.26576486171877 108.0393368923858,51.64596796853069 107.32003371733612,53.485328944727584 106.878176052663,55.02669289126159 106.71376389836642,55.48910207522179 106.4979729458518,55.92068398025101 106.33356079155378,56.1570264520527 106.13832135832696,56.38309316421121 105.89170312688064,56.59888411672583 105.52177577971337,56.82495082888434 105.00798779753585,57.02019026211188 104.54557861357492,57.11267209890407 103.95986031389155,57.15377513747821 103.27138441777358,57.12294785854724 102.64456307951608,57.030466021755785 101.79167502910153,56.85577810781531 100.9490627383294,56.60915987636973 100.1167262072012,56.33171436599317 99.28438967607298,56.0131658170432 97.93826516276579,55.41717175771667 96.83875888090492,54.83145345803404 96.24276482157913,54.45125035122213 95.8111829165499,54.13270180227143 95.10215550114411,53.50588046401466 94.43423112431246,52.7763015293218 91.85501545377954,49.385300846947004 91.25902139445228,48.51186127724465 90.81716372977915,47.75145506362155 89.24497250431492,44.761209007345734 88.40236021354279,43.29177537831612 87.83719343314723,42.490266126118875 86.72741139164248,41.26745072853485 86.32665676554349,40.76393850600051 85.98755669730645,40.250150523822995 85.74093846586159,39.76718982057572 85.50459599405917,39.181471520892366 85.25797776261432,38.49299562477438 84.97025649259386,37.53734997792301 84.81612009794118,36.92080439930941 84.7133625015051,36.35563761891385 84.65170794364316,35.83157387709244 84.54895034720853,34.04359169911285 84.3948139525544,33.170152129410496 85.54569903263331,33.077670292618315 86.49106891984151,32.93380965760808 87.55974792277068,32.985188455826126 87.92967526993942,32.96463693653905 88.51539356962132,32.89270661903394 89.9437241600768,32.64608838758836 90.21089391080946,32.65636414723225 90.8788182876411,32.800224782241756 91.11516075944205,32.800224782241756 91.24874563480839,32.75912174366761 91.91667001164002,32.43029743507374 92.94424597599651,32.11174888612377 93.23196724601551,31.95761249147037 93.46830971781793,31.79320033717307 93.6532733914023,31.597960903945527 93.76630674748083,31.412997230361153 93.79713402641107,31.20748203749044 93.73547946855058,30.6936940553122 93.80740978605496,30.5498334203027 93.9409946614213,30.457351583510512 94.61919479789684,30.313490948500284 94.96857062577779,30.159354553846885 95.15353429936215,30.118251515272743 95.68787380082601,30.0874242363425 96.35579817765765,30.179906073133957 96.57158913017227,30.190181832777856 97.41420142094438,29.953839360976172 98.7911532131818,29.738048408461555 99.36659575322126,29.6250150523823 99.81872917753829,29.4708786577289 100.46610203508213,29.04957251234284 100.83602938224942,28.86460883875847 101.8841568658937,28.535784530164598 102.19242965520051,28.474129972303384 102.4595994059317,28.443302693372413 102.76787219523851,28.484405731947287 103.15835106169504,28.638542126600687 104.09344518925789,29.142054349135027 104.53530285393101,29.419499859510857 105.18267571147632,29.94356360133227 106.37466383012791,31.135551719985326 106.86790029301909,31.597960903945527 107.15562156303955,31.80347609681697 107.4022397944844,31.91650945289623 107.81327018022729,31.998715530044514 108.12154296953409,31.998715530044514 108.59422791313746,31.9370609721833 108.3270581624048,32.71801870509347Z"/>
    <path d="M106.14859711797087,18.59912495484262 106.38493958977182,17.972303616585847 106.96038212981128,16.94472765222936 107.12479428410785,16.585076064705248 107.20700036125758,16.32818207361576 107.27893067876198,15.989082005378721 107.30975795769221,15.475294023200478 107.21727612090002,14.869024204230778 107.20700036125758,14.437442299200821 107.14534580339564,14.231927106330108 106.91927909123713,13.687311845220892 106.36438807048548,12.865251073736578 106.21025167583134,12.587805563360021 106.70348813872252,12.813872275518536 107.11451852446541,12.937181391240964 107.59747922771267,13.009111708746078 108.07016417131605,13.01938746838998 108.55312487456332,12.978284429815837 109.2518765303252,12.88580259302365 110.20752217717585,12.639184361578065 110.5055192068402,12.495323726568566 110.69048288042312,12.320635812627364 110.82406775578944,12.074017581182508 110.87544655400748,11.560229599004265 110.83434351543335,10.635411231083866 110.91654959258163,10.409344518925352 111.1220647854538,10.173002047123665 111.30702845903672,10.049692931401237 111.88247099907618,9.823626219242723 112.88949544414486,9.207080640629123 113.12583791594727,8.99128968811451 113.42383494561017,8.631638100589667 113.5676955806204,8.53915626379748 114.11231084172961,8.39529562878798 114.23561995745204,8.333641070926767 114.66720186248126,8.015092521976067 115.18098984465878,7.778750050174382 115.9413960582826,7.562959097659768 117.04090234014349,7.316340866214182 117.29779633123223,7.2238590294219955 117.43138120659857,7.121101432986639 117.47248424517271,7.0080680769073815 117.4622084855288,6.8539316822539815 117.20531449444006,6.05242243005601 117.05117809978738,5.857182996828468 116.61959619475816,5.559185967165568 116.3215991650938,5.261188937501939 116.21884156865917,5.107052542848539 116.17773853008502,4.97346766748294 116.17773853008502,4.850158551759782 116.23939308794552,4.747400955324426 116.3524264440255,4.675470637819311 116.5682173965401,4.624091839601268 116.76345682976692,4.613816079958097 117.22586601372785,4.65491911853224 117.61634488018294,4.613816079958097 118.00682374663802,4.511058483522741 118.23289045879655,4.398025127443484 118.33564805523262,4.264440252077155 118.407578372737,4.110303857423755 118.52061172881554,3.740376510255741 118.62336932525163,3.2368642877206684 118.69529964275601,3.051900614137027 118.84943603741014,2.8463854212655835 119.06522698992475,2.7230763055431555 119.63039377032031,2.620318709107799 120.08252719463734,2.589491430176827 121.64444266045768,2.712800545899255 121.8807851322601,2.6614217476819415 122.27126399871518,2.48673383374147 122.46650343194345,2.312045919800999 122.63091558624002,2.106530726929556 122.73367318267611,1.9010155340581125 122.88780957732878,1.459157869384984 123.27828844378386,0.8117850118411423 123.60711275237847,0.3596515875241131 123.68931882952675,0.17468791394047126 123.72014610845699,0 124.13117649419988,0.48296070324727114 124.68606751495153,1.007024445068685 124.8504796692481,1.24336691687037 124.9532372656842,1.5208124272469281 125.10737366033833,2.1270822462166272 125.12792517962467,2.3839762373053834 125.10737366033833,2.8463854212655835 125.14847669891246,3.10327941235507 125.22040701641686,3.2574158070084698 125.36426765142708,3.4834825191662544 125.87805563360459,4.110303857423755 126.1760526632675,4.418576646730555 126.40211937542601,4.582988801027125 127.61465901336686,5.11732830249244 127.94348332196,5.292016216432911 128.5497531409297,5.857182996828468 128.8580259302365,6.20655882470941 129.1868502388311,6.432625536867924 128.00513787982194,6.895034720828124 127.19335286798008,7.316340866214182 126.55625577008014,7.768474290530481 126.05274354754506,8.261710753421653 125.75474651788217,8.652189619876738 125.45674948821926,9.15570184241108 125.1690282181988,9.751695901737609 124.56275839922911,11.149199213262108 124.2339340906345,11.78629631116278 123.82290370489308,12.41311764941955 123.0111186930512,13.49207241199335 122.69257014410196,13.995584634527692 122.42540039336932,14.550475655280078 121.75747601653767,16.235700236823575 121.53140930437915,16.646730622566462 121.2436880343587,17.078312527595692 120.89431220647775,17.468791394050776 120.46273030144853,17.85927026050659 117.72937823626147,19.97607674707932 115.60229599004558,21.55854373218746 115.03712920965002,22.02095291614766 114.4925139485408,22.534740898325904 113.896519889215,23.212941034800718 113.45466222454188,23.86031389234529 113.15666519487752,24.3843776341667 112.51956809697758,25.679123349255114 112.06743467266054,26.5320113996704 111.7180588447796,26.275117408581643 111.389234536185,26.0696022157102 110.32055553325583,25.64829607032487 109.68345843535442,25.319471761730274 109.21077349175106,24.97009593384933 108.92305222173206,24.67209890418643 108.82029462529597,24.507686749889128 108.73808854814769,24.281620037731344 108.59422791313746,23.58286838196873 108.50174607634527,23.305422871592903 108.16264600810823,22.62722273511809 107.83382169951363,22.072331714365703 107.63858226628682,21.815437723276947 107.42279131377221,21.599646770762334 106.60073054228643,20.97282543250483 106.34383655119767,20.746758720346318 106.08694256010892,20.438485931039516 105.92253040581235,20.15076466101979 105.8506000883065,19.914422189218104 105.8608758479504,19.626700919198374 105.96363344438649,19.20539477381232 106.14859711797087,18.59912495484262Z"/>
  </g>
</svg>