<?xml version="1.0" encoding="UTF-8" standalone="no"?>
<svg viewBox="0 0 229.49531308586424 256" xmlns="http://www.w3.org/2000/svg">
  <style>
    g.zone {
      fill: lightgray;
      stroke-width: 2;
      stroke-linecap: square;
      stroke-linejoin: bevel;
      stroke-miterlimit: 3;
      stroke-opacity: 0.8;
      stroke: black;
      fill-opacity: 0.3;
    }
  </style>
  <g class="zone" id="zone">
    <path d="M57.01687289088872,247.0731158605178 56.512935883015025,246.7131608548935 55.757030371204486,246.2692163479566 54.90513685789265,245.8252718410197 53.90926134233314,245.3933258342707 53.22534683164644,245.11736032995898 52.169478815149255,244.75740532433466 51.389576302962965,244.54143232095973 50.381702287213876,244.30146231721076 48.96587926509238,244.02549681289815 47.61004874390685,243.80952380952408 46.494188226472005,243.66554180727385 44.04649418822738,243.4255718035249 42.846644169479106,243.26959130108762 39.45106861642306,242.6336707911516 38.41919760029992,242.46569178852644 37.423322084740406,242.36970378702685 36.71541057367796,242.35770528683898 36.055493063367,242.38170228721387 35.35958005249413,242.46569178852644 34.29171353580907,242.68166479190137 33.40382452193532,242.969628796401 32.71991001124862,243.25759280089974 31.01612298462666,244.07349081364882 30.12823397075461,244.48143982002293 29.144356955381266,244.86539182602212 26.564679415073424,245.7892763404578 25.97675290588631,246.04124484439464 25.484814398200495,246.3172103487064 25.01687289088872,246.6531683539558 24.596925384326738,247.0491188601429 24.176977877766465,247.54105736782955 23.08511436070566,249.0048743907017 22.40119985001896,249.83277090363694 21.417322834645617,250.85264341957304 20.37345331833631,251.81252343457064 19.005624296962907,252.91638545181846 17.421822272216282,254.03224596925418 16.07799025121863,254.87214098237726 15.466066741657471,255.19610048743883 14.902137232846108,255.44806899137652 14.338207724034746,255.6400449943757 13.738282714661464,255.79602549681294 13.174353205850101,255.89201349831254 12.4904386951634,255.9640044994381 11.926509186352037,256 11.230596175479166,255.98800149981298 10.606674165730134,255.94000749906317 10.018747656543022,255.84401949756275 9.118860142483099,255.5920509936259 8.60292463442153,255.36407949006394 8.170978627671674,255.12410948631413 7.78702662167332,254.88413948256516 7.355080614923466,254.54818147731572 6.539182602175257,253.76827896512944 6.119235095613276,253.25234345706787 5.687289088863422,252.6524184476946 5.3753280839906115,252.0884889388824 5.147356580427809,251.57255343082167 4.967379077614801,251.0566179227601 4.835395575553293,250.49268841394874 4.787401574803499,249.9647544056993 4.811398575179249,249.4968128983875 4.907386576678837,249.0288713910766 5.02737157855247,248.6809148856393 5.207349081365479,248.30896137982796 5.44731908511445,247.9130108736409 6.059242594675608,247.18110236220525 7.271091113611752,245.9092613423323 7.691038620172026,245.34533183352093 7.811023622047365,245.0813648293962 7.883014623172909,244.78140232470957 7.883014623172909,244.46944131983506 7.811023622047365,244.15748031496054 7.643044619422232,243.833520809899 7.415073115861135,243.55755530558724 7.163104611924288,243.30558680164955 6.851143607049773,243.0776152980876 6.215223097112865,242.68166479190137 4.463442069741108,241.82977127859039 3.6355455568050234,241.3738282714665 2.7596550431191447,240.76190476190533 2.039745031870524,240.0899887514065 1.7037870266219632,239.7060367454073 1.4278215223093667,239.3220847394081 1.1638545181863502,238.89013873265824 0.9358830146235481,238.44619422572222 0.6719160104988264,237.8222722159732 0.40794900637410475,237.10236220472456 0.20397450318705238,236.43044619422574 0.08398950131341898,235.87851518560225 0,235.2065991751034 0.023997000375749734,234.64266966629205 0.14398200224938315,234.0547431571058 0.33595800525026576,233.50281214848144 0.7559055118105403,232.67491563554537 1.2958380202478583,231.78702662167248 1.7757780277475073,231.17510311211132 2.2317210348714065,230.71916010498742 2.7476565429329747,230.3592050993631 3.3235845519305074,230.1312335958003 3.743532058492487,230.04724409448858 4.043494563179128,230.0112485939258 4.763404574427749,230.0352455943007 5.423322084740406,230.17922759655096 6.1312335958011515,230.44319460067481 6.755155605550184,230.75515560554933 8.134983127109756,231.53505811773562 8.890888638920297,231.93100862392185 9.562804649419123,232.21897262842148 10.354705661793288,232.47094113235832 11.230596175479166,232.63892013498344 12.250468691414428,232.69891263592027 13.282339707537565,232.63892013498344 14.338207724034746,232.4589426321713 15.502062242219392,232.11098612673402 16.149981252344173,231.84701912261013 16.76190476190533,231.5590551181105 17.99775028121552,230.87514060742382 20.781402324710413,229.15935508061483 21.585301837270748,228.7394075740537 22.44919385076875,228.39145106861642 23.181102362205248,228.18747656542936 23.853018372704074,228.04349456318 24.668916385452285,227.93550806149253 26.624671916011096,227.76752905886738 27.548556430446766,227.6475440569929 28.556430446194152,227.46756655418073 29.540307461567497,227.22759655043177 30.48818897637892,226.92763404574427 31.472065991750558,226.56767904011997 34.963629546306194,225.04386951631102 36.21147356580426,224.56392950881136 37.543307086614035,224.17997750281216 40.590926134233655,223.4960629921263 41.41882264716974,223.24409448818946 42.11473565804261,223.00412448443964 42.9426321709787,222.6561679790032 43.67454068241519,222.29621297337889 44.3104611923521,221.9482564679416 44.88638920134963,221.57630296213026 45.30633670791161,221.25234345706787 45.59430071241208,220.96437945256827 45.870266216722975,220.58042744656905 46.05024371953598,220.23247094113262 45.99025121859831,219.87251593550832 45.83427071616105,219.47656542932123 45.60629921259825,219.080614923135 45.33033370828736,218.7206599175107 42.76265466816739,216.02099737532836 39.583052118486265,212.44544431946014 38.85114360704977,211.66554180727385 37.96325459317602,210.84964379452566 36.931383577052884,210.08173978252722 36.19947506561638,209.62579677540333 35.695538057742695,209.3498312710916 34.61567304086976,208.86989126359194 34.039745031870524,208.67791526059275 33.439820022497244,208.50993625796764 32.6839145106867,208.35395575553036 31.880014998126367,208.22197225346886 30.116235470566735,208.05399325084375 28.60442444694395,207.99400074990606 27.36857892763376,208.02999625046883 26.3007124109487,208.1379827521563 25.196850393701727,208.29396325459356 22.209223847019782,208.79790026246724 21.261342332208358,208.91788526434175 20.001499812524123,208.98987626546727 19.0536182977127,208.9778777652794 18.105736782902984,208.8818897637798 17.301837270340943,208.77390326209235 15.6820397450324,208.43794525684294 14.782152230970771,208.1859767529061 14.074240719910025,207.93400824896923 13.558305211848456,207.7060367454073 13.078365204350513,207.44206974128258 12.658417697788533,207.14210723659593 12.286464191976348,206.7581552305967 12.046494188227376,206.44619422572222 11.806524184476698,205.99025121859745 11.65054368203944,205.58230221222334 11.530558680165807,204.98237720285007 11.518560179977932,204.47844019497552 11.566554180727726,204.04649418822652 11.662542182227316,203.61454818147752 11.854518185226492,203.07461567304105 12.16647919010101,202.40269966254223 12.55043119610107,201.74278215223129 12.994375703037093,201.08286464192034 13.402324709411198,200.54293213348387 14.326209223846872,199.48706411698583 15.190101237344875,198.63517060367485 17.61379827521546,196.39145106861642 19.56955380577427,194.3757030371208 20.361454818148434,193.60779902512238 20.853393325834254,193.1998500187474 21.513310836145205,192.71991001124863 22.341207349081287,192.19197600300004 23.193100862393123,191.70003749531335 25.004874390700845,190.78815148106472 26.70866141732281,190.0442444694412 28.004499437570665,189.55230596175537 32.32395950506239,188.00449943757067 35.383577052868176,186.84064491938517 36.343457067867476,186.52868391451065 37.18335208098973,186.31271091113658 37.9272590926141,186.16872890888635 38.85114360704977,186.0607424071989 40.734908136483035,185.9647544056993 42.79865016872931,185.9647544056993 44.82639670041196,186.04874390701187 47.53805774278302,186.2527184101989 60.628421447319695,187.68053993250828 62.416197975253375,187.944506936633 63.268091488563506,188.10048743907026 64.26396700412472,188.3164604424452 65.40382452193532,188.6284214473197 66.25571803524545,188.90438695163144 67.21559805024475,189.28833895763066 67.88751406074186,189.62429696288007 68.7874015748035,190.15223097112866 70.02324709411369,190.98012748406475 73.05886764154543,193.27184101987297 74.59467566554225,194.36370453693291 75.92650918635204,195.27559055118158 77.47431571053674,196.22347206599213 80.38995125609314,197.90326209223835 82.20172478440257,198.8871391076117 83.0536182977127,199.2590926134239 83.5095613048366,199.40307461567326 83.9655043119605,199.48706411698583 84.02549681289817,199.47506561679796 84.1094863142116,199.40307461567326 84.31346081739864,199.00712410948617 84.45744281964802,198.57517810273717 84.6494188226472,197.6512935883015 84.82939632546021,197.02737157855248 85.03337082864726,196.475440569929 85.30933633295815,195.95950506186742 85.68128983877034,195.45556805399372 86.07724034495656,195.07161604799452 86.50918635170642,194.79565054368192 86.96512935883032,194.61567304086975 87.31308586426675,194.54368203974508 87.75703037120448,194.53168353955806 88.10498687664092,194.57967754030784 88.48893888263927,194.6876640419953 89.08886389201426,194.95163104611916 90.44469441319809,195.7195350581176 91.20059992501034,196.1034870641168 91.98050243719491,196.4034495688043 92.68841394825736,196.58342707161646 93.3603299587562,196.61942257217837 93.74428196475455,196.58342707161646 94.12823397075461,196.51143607049175 94.8121484814396,196.25946756655406 95.34008248968905,195.95950506186742 95.73603299587528,195.623547056618 96.05999250093767,195.2395950506188 96.31196100487452,194.7836520434949 96.45594300712389,194.3517060367459 96.55193100862348,193.8597675290592 96.57592800899924,193.39182602174745 96.50393700787369,191.84401949756275 96.52793400824945,191.136107986502 96.58792650918711,190.6801649793781 96.69591301087458,190.29621297337889 96.8158980127482,190.0202474690663 96.99587551556122,189.68428946381687 97.19985001874826,189.39632545931812 97.54780652418471,189.0363704536938 97.89576302962114,188.73640794900632 98.5076865391823,188.3284589426322 99.23959505061879,187.90851143607108 99.85151856017995,187.60854893138358 100.47544056992898,187.34458192725887 101.1953505811776,187.06861642294712 101.90326209223835,186.86464191976006 102.52718410198739,186.7326584176977 103.12710911136067,186.660667416573 103.75103112110969,186.63667041619811 104.3869516310466,186.67266591676088 105.10686164229523,186.7566554180726 105.87476565429364,186.91263592050987 106.48668916385479,187.080614923135 107.18260217472766,187.32058492688395 107.74653168353903,187.5605549306338 108.46644169478765,187.93250843644597 108.98237720284922,188.24446944131964 110.02624671916023,189.0123734533189 111.27409073865829,190.11623547056672 112.02999625046884,190.89613798275218 112.66591676040574,191.70003749531335 112.89388826396684,192.05999250093768 113.13385826771751,192.56392950881136 113.43382077240416,193.39182602174745 113.55380577427779,193.94375703037178 113.67379077615313,194.67566554180743 114.15373078365278,199.37907761529837 114.42969628796367,201.51481064866934 114.5976752905888,202.36670416198032 114.81364829396372,203.19460067491553 115.08961379827633,203.99850018747674 115.3775778027751,204.64641919760066 115.94150731158645,205.59430071241124 116.48143982002206,206.27821522309708 117.14135733033473,206.93813273340888 118.86914135733073,208.41394825646805 119.68503937007894,209.19385076865433 120.34495688038989,209.94975628046487 121.29283839520131,211.24559430071272 121.6647919010135,211.70153730783662 121.95275590551226,211.95350581177348 122.27671541057465,212.1694788151484 122.56467941507343,212.32545931758565 122.87664041994795,212.45744281964804 122.94863142107349,212.97337832770958 122.97262842144752,213.4173228346456 122.86464191976006,214.3892013498311 122.8046494188224,214.6171728533939 122.58867641544917,215.03712035995503 122.49268841394787,215.28908886389186 122.36070491188637,216.05699287589027 122.10873640794952,217.0648668916385 121.97675290588631,217.48481439820048 121.73678290213734,217.9887514060742 121.22084739407578,218.85264341957304 120.99287589051467,219.524559430071 120.77690288713974,220.3164604424452 120.68091488564016,220.46044244469456 120.36895388076564,220.82039745031886 120.00899887514133,221.56430446194238 119.87701537307812,221.93625796775459 119.78102737157853,222.54818147731572 119.67304086989107,222.84814398200237 119.52905886764168,223.08811398575222 119.13310836145546,223.5920509936259 118.8811398575186,224.03599550056276 118.7971503562052,224.2999625046875 118.76115485564327,224.65991751031095 117.44131983502136,224.80389951256117 116.40944881889823,224.8398950131231 115.48556430446256,224.97187851518547 114.51368578927709,224.98387701537334 113.3738282714665,225.1638545181855 112.47394075740486,225.40382452193532 112.22197225346801,225.4278215223102 111.6820397450324,225.41582302212234 111.11811023622104,225.51181102362193 110.5901762279716,225.67979002624708 110.09823772028578,225.9557555305588 109.61829771278613,226.31571053618313 109.03037120359902,226.86764154480747 108.37045369328806,226.3757030371208 107.9505061867278,226.13573303337097 107.5785526809156,225.9557555305588 106.87064116985485,225.6917885264341 104.54293213348386,224.93588301462356 103.78702662167332,224.62392200974904 103.03112110986108,224.27596550431176 101.68728908886342,223.53205849268824 99.79152605924229,222.3322084739408 99.16760404949495,222.00824896887926 98.61567304086977,221.80427446569223 98.0517435320584,221.68428946381687 97.35583052118552,221.62429696288007 96.98387701537334,221.66029246344198 96.41994750656198,221.7802774653173 95.8680164979385,221.98425196850437 95.47206599175055,222.2122234720663 95.07611548556433,222.54818147731572 94.76415448068981,222.92013498312707 94.48818897637892,223.42407199100163 94.32020997375379,224.0239970003749 94.272215973004,224.67191601049882 94.32020997375379,225.1878515185604 94.45219347581529,225.73978252718388 94.71616047994002,226.4836895388074 95.50806149231418,228.19947506561724 95.80802399700082,228.95538057742777 95.98800149981213,229.59130108736383 96.03599550056192,230.16722909636306 95.94000749906233,230.65916760404974 95.73603299587528,231.09111361079874 95.46006749156439,231.42707161604815 94.71616047994002,232.23097112860935 94.56017997750276,232.4349456317964 94.4041994750655,232.71091113610814 94.33220847394166,232.8908886389203 94.28421447319187,233.1788526434199 94.28421447319187,233.38282714660696 94.3562054743157,233.7067866516685 94.53618297712872,234.1387326584175 94.75215598050194,234.47469066366693 95.01612298462666,234.81064866891634 95.37607799025096,235.18260217472852 96.2279715035628,235.90251218597714 98.74765654293297,237.61829771278613 99.80352455943016,238.44619422572222 100.47544056992898,239.03412073490847 101.07536557930227,239.63404574428176 101.57930258717766,240.23397075365588 101.93925759280198,240.74990626171746 102.32320959880033,241.4578177727782 102.5151856017995,241.98575178102763 102.63517060367485,242.5976752905888 102.6591676040506,243.0776152980876 102.58717660292506,243.65354330708684 102.44319460067567,244.1214848143986 102.16722909636307,244.66141732283506 101.80727409073876,245.11736032995898 101.49531308586424,245.40532433445858 101.14735658042781,245.65729283839545 100.67941507311603,245.9092613423323 100.24746906636618,246.07724034495743 99.74353205849249,246.2212223472068 99.35958005249414,246.2932133483315 98.8676415448066,246.32920884889427 98.30371203599525,246.3172103487064 97.75178102737176,246.25721784776957 97.21184851893615,246.1492313460821 96.57592800899924,245.981252343457 95.74803149606315,245.72928383952012 94.44019497562913,245.26134233220836 93.61229846269305,244.93738282714682 92.46044244469456,244.38545181852248 91.84851893513341,244.00149981252326 91.3925759280095,243.62954630671194 91.03262092238519,243.22159730033783 90.7086614173228,242.71766029246328 90.45669291338596,242.15373078365192 90.28871391076083,241.62579677540333 89.86876640420056,239.790026246719 89.68878890138754,239.17810273715784 89.50881139857624,238.71016122984608 89.24484439445152,238.26621672291006 88.86089238845146,237.84626921634808 88.59692538432674,237.64229471316102 88.32095988001585,237.47431571053673 87.80502437195427,237.2943382077246 87.50506186726764,237.24634420697393 87.20509936257929,237.24634420697393 86.82114735658094,237.3063367079116 86.41319835020683,237.45031871016099 86.04124484439465,237.67829021372378 85.66929133858247,238.00224971878532 85.35733033370795,238.3982002249724 85.04536932883343,238.91413573303313 84.80539932508445,239.44206974128258 84.34945631796056,240.5939257592802 84.1094863142116,241.08586426696687 83.84551931008687,241.50581177352885 83.47356580427468,241.97375328083976 83.06561679790057,242.41769778777666 82.60967379077668,242.82564679415074 80.66591676040574,244.33745781777267 80.04199475065671,244.91338582677193 79.75403074615623,245.23734533183347 79.5020622422194,245.58530183727075 78.53018372703393,247.22909636295503 78.2662167229092,247.5770528683915 77.91826021747276,247.94900637420366 77.55830521184846,248.26096737907818 77.1263592051003,248.54893138357696 76.63442069741278,248.81289838770167 76.10648668916333,249.01687289088872 75.37457817772855,249.20884889388876 74.64266966629205,249.31683539557537 73.85076865391788,249.37682789651302 71.46306711661093,249.44881889763772 70.81514810648615,249.5328083989503 70.21522309711287,249.66479190101265 69.61529808773959,249.88076490438672 69.00337457817842,250.16872890888635 68.40344956880344,250.52868391451065 66.63967004124551,251.6565429321334 66.14773153355799,251.93250843644597 65.48781402324704,252.24446944131964 64.92388451443567,252.4484439445067 64.26396700412472,252.59242594675692 63.72403449568911,252.64041994750673 63.18410198725179,252.6164229471318 62.440194975629126,252.46044244469456 61.792275965504345,252.22047244094475 61.20434945631894,251.88451443569534 60.66441694788162,251.4645669291342 60.26846644169539,251.0566179227601 59.92050993625895,250.62467191601024 58.97262842144753,249.19685039370088 58.36070491188637,248.35695538057777 57.62879640044988,247.5770528683915 57.01687289088872,247.0731158605178Z"/>
    <path d="M135.84701912260928,147.58155230596213 135.59505061867245,147.95350581177348 135.41507311586113,148.3614548181476 135.3310836145477,148.82939632545936 135.35508061492345,149.309336332959 135.53505811773476,150.02924634420677 136.2549681289834,151.7690288713915 136.5189351331081,152.57292838395185 136.6629171353592,153.3888263967009 136.69891263592112,153.80877390326202 136.67491563554537,154.31271091113658 136.57892763404578,154.97262842144752 136.17097862767167,156.66441694788162 135.9790026246725,157.5883014623173 135.67904011998587,159.91601049868828 135.51106111736073,160.80389951256117 135.36707911511135,161.2358455193102 135.17510311211046,161.63179602549727 134.89913760779956,162.0277465316835 134.62317210348698,162.31571053618313 133.89126359205048,162.91563554555725 131.611548556431,164.49943757030388 130.5076865391823,165.30333708286506 129.42782152230936,166.14323209598817 127.25609298837733,167.91901012373484 126.50018747656509,168.4949381327332 125.48031496062983,169.14285714285714 124.79640044994483,169.47881514810655 124.29246344206943,169.67079115110658 123.76452943382169,169.83877015373088 123.24859392576012,169.97075365579323 122.61267341582322,170.0787401574807 122.04874390701185,170.1387326584175 121.50881139857624,170.1507311586054 120.69291338582633,170.1387326584175 118.48518935133067,169.92275965504342 117.3333333333339,169.89876265466853 116.15748031496138,169.99475065616812 113.49381327334183,170.3427071616054 112.08998875140651,170.438695163105 110.90213723284612,170.4146981627301 109.65429321334804,170.24671916010496 106.58267716535438,169.586801649794 105.27484064492036,169.21484814398184 104.36295463067086,168.8548931383575 103.46306711661093,168.3629546306717 102.55118110236313,167.7510311211097 100.53543307086665,166.21522309711287 99.73153355830631,165.6392950881145 98.75965504311914,165.03937007874035 97.79977502812156,164.58342707161646 96.83989501312396,164.24746906636705 95.89201349831254,164.01949756280507 94.83614548181535,163.83952005999294 92.52043494563223,163.53955755530544 91.72853393325806,163.39557555305606 90.91263592050986,163.17960254968114 90.09673790776165,162.86764154480747 89.23284589426365,162.4236970378706 88.51293588301503,161.9557555305588 87.69703787026681,161.37982752156043 85.24934383202049,159.52005999250122 84.27746531683502,158.71616047994002 82.89763779527544,157.36032995875533 82.29771278590216,156.84439445069378 81.60179977502759,156.43644544431967 81.21784776902923,156.26846644169538 80.821897262843,156.13648293963303 80.32995875515547,156.02849643794556 79.83802024746966,155.95650543682086 79.33408323959597,155.944506936633 78.80614923134652,155.96850393700788 77.7622797150355,156.11248593925814 76.02249718785163,156.52043494563225 75.24259467566533,156.6524184476946 74.31871016122966,156.7484064491942 73.37082864641995,156.7604049493812 72.6629171353592,156.70041244844438 71.9790026246725,156.59242594675692 69.6032995875517,155.9925009373828 68.53543307086665,155.81252343457064 68.00749906261721,155.77652793400873 67.45556805399372,155.77652793400873 65.03187101612313,155.98050243719578 63.76002999625103,155.98050243719578 62.42819647544125,155.83652043494553 59.50056242969697,155.32058492688395 58.768653918260476,155.24859392575928 58.10873640794953,155.2245969253844 57.37682789651303,155.26059242594715 56.60892388451462,155.36857892763462 53.777277840269925,156.04049493813258 52.75740532433466,156.22047244094475 52.229471316085224,156.2804649418824 51.5575553055864,156.3164604424452 51.089613798276325,156.30446194225732 50.621672290964554,156.24446944131964 50.04574428196531,156.11248593925814 49.57780277465354,155.9205099362581 49.073865766779846,155.63254593175847 48.55793025871828,155.26059242594715 47.574053243344935,154.3967004124483 44.91038620172538,151.8170228721413 44.51443569553915,151.46906636670403 44.082489688789295,151.18110236220525 43.782527184102655,151.0131233595801 43.37457817772855,150.86914135733073 42.93063367079082,150.77315335583114 42.58267716535438,150.7491563554554 41.646794150730834,150.78515185601816 39.90701162354696,150.98912635920522 39.5230596175486,150.9771278590182 39.22309711286196,150.91713535808051 38.99512560929916,150.80914885639305 38.86314210723765,150.7011623547056 38.755155605550186,150.56917885264323 38.64716910386272,150.40119985001897 38.51518560179951,149.92125984252016 38.45519310086354,149.27334083239623 38.46719160104971,148.66141732283506 38.52718410198738,148.01349831271114 39.00712410948703,145.4578177727782 39.2950881139858,142.5661792275967 39.43907011623518,141.83427071616106 39.7030371203599,140.9703787026622 39.9310086239227,140.4664416947885 40.19497562804742,139.97450318710185 40.54293213348386,139.44656917885325 41.39482564679399,138.24671916010496 41.81477315335597,137.52680914885636 42.16272965879241,136.7949006374207 42.91863517060465,134.87514060742467 43.19460067491554,134.3112110986133 43.43457067866622,133.89126359205133 43.79452568429053,133.37532808398976 44.2144731908508,132.88338957630307 44.73040869891237,132.42744656917918 45.29433820772373,132.01949756280507 45.714285714285715,131.77952755905525 46.0862392200979,131.611548556431 46.494188226472005,131.46756655418073 46.974128233971655,131.35958005249327 47.394075740531925,131.3115860517435 47.826021747281786,131.3115860517435 48.25796775403164,131.35958005249327 48.67791526059191,131.44356955380584 49.433820772404154,131.70753655793058 50.309711286090035,132.16347956505447 51.3295838020253,132.87139107611605 52.80539932508446,134.0592425946756 53.40532433445774,134.5031871016125 54.14923134608211,134.97112860892426 55.04911886014204,135.41507311586113 55.50506186726764,135.57105361829755 55.98500187476558,135.7030371203599 56.41694788151544,135.78702662167248 56.94488188976488,135.82302212223524 57.4368203974507,135.82302212223524 57.92875890513652,135.76302962129756 58.528683914511504,135.64304461942308 58.900637420321985,135.53505811773562 59.548556430446766,135.28308961379878 60.29246344206943,134.92313460817445 60.92838395200634,134.56317960255015 62.968128983876866,133.27934008249017 63.72403449568911,132.88338957630307 64.43194600674985,132.58342707161646 65.10386201724869,132.36745406824153 65.81177352830943,132.21147356580425 68.03149606299296,131.95950506186742 68.97937757780268,131.79152605924313 69.51931008624,131.63554555680588 70.02324709411369,131.44356955380584 70.45519310086354,131.25159355080666 70.94713160854936,130.97562804649408 71.51106111736073,130.60367454068273 71.88301462317291,130.30371203599609 73.69478815148064,128.59992500937415 74.19872515935603,128.17997750281216 74.7146606674176,127.79602549681294 75.8065241844767,127.136107986502 77.8102737157853,126.12823397075375 78.44619422572221,125.78027746531733 79.16610423697082,125.32433445819257 79.6820397450324,124.92838395200634 80.20997375328184,124.47244094488244 80.56992875890616,124.06449193850834 81.02587176603005,123.4885639295091 81.99775028121552,122.14473190851145 82.3697037870277,121.67679040119967 82.90963629546332,121.07686539182639 83.44956880390063,120.53693288338992 84.02549681289817,120.00899887514048 85.0093738282715,119.22909636295505 86.02924634420677,118.58117735283112 86.91713535808053,118.13723284589423 87.6610423697049,117.87326584177036 89.13685789276406,117.46531683539541 89.74878140232522,117.23734533183347 89.98875140607419,117.11736032995897 90.26471691038678,116.91338582677193 90.42069741282404,116.75740532433467 90.54068241469767,116.58942632171038 90.63667041619897,116.36145481814758 90.64866891638513,116.02549681289902 90.5286839145115,115.61754780652406 90.3487064116985,115.31758530183743 90.10873640794952,115.18560179977506 89.6647919010135,115.0536182977127 89.23284589426365,114.98162729658802 88.82489688788954,114.96962879640098 87.99700037495346,115.08961379827548 87.13310836145546,115.31758530183743 86.12523434570636,115.67754030746173 83.65354330708769,116.63742032246017 82.72965879265202,116.93738282714682 81.76977877765272,117.21334833145856 80.94188226471664,117.3813273340837 80.17397825271821,117.47731533558328 79.41807274090768,117.48931383577116 78.8181477315344,117.4533183352084 78.23022122234728,117.34533183352093 77.61829771278613,117.20134983127154 76.38245219347594,116.75740532433467 73.01087364079564,115.26959130108763 71.15110611173641,114.34570678665196 70.02324709411369,113.67379077615313 69.21934758155335,113.08586426696687 68.4634420697411,112.42594675665592 67.83952005999208,111.74203224596921 67.26359205099455,111.0221222347206 66.75965504311914,110.27821522309708 64.05999250093767,105.88676415448066 63.820022497188695,105.39482564679399 63.652043494563564,104.91488563929519 63.58005249343802,104.37495313085873 63.60404949381377,103.90701162354695 63.73603299587528,103.46306711661093 63.94000749906233,103.04311961004895 64.23997000375067,102.65916760404974 64.63592050993691,102.31121109861331 65.0918635170608,102.0352455943007 65.5958005249345,101.81927259092663 66.15973003374586,101.66329208848937 66.84364454443256,101.5673040869898 67.63554555680503,101.55530558680191 68.39145106861727,101.61529808773959 69.23134608173952,101.73528308961407 71.35508061492347,102.11923509561328 72.01499812523441,102.20322459692585 72.69891263592112,102.23922009748776 73.47881514810742,102.19122609673796 74.2107236595422,102.05924259467561 74.96662917135444,101.79527559055174 75.48256467941601,101.54330708661404 75.92650918635204,101.2433445819274 76.37045369328806,100.87139107611607 76.77840269966217,100.40344956880429 77.05436820397476,99.98350206224231 77.29433820772374,99.55155605549331 77.49831271091078,99.04761904761962 78.06224221972215,97.30783652043488 78.314210723659,96.64791901012393 78.74615673040886,95.90401199850041 78.96212973378378,95.6160479940008 79.33408323959597,95.19610048743967 79.82602174728179,94.74015748031492 80.38995125609314,94.32020997375379 80.94188226471664,93.9722534683165 82.56167979002689,93.02437195350593 83.55755530558639,92.36445444319497 84.18147731533543,91.84851893513341 84.56542932133549,91.46456692913421 85.68128983877034,90.16872890888634 86.31721034870725,89.5328083989503 86.72515935508135,89.23284589426365 87.1091113610797,89.0048743907017 87.45706786651614,88.84889388826444 87.889013873266,88.7049118860142 88.2969628796401,88.63292088488951 88.68091488564016,88.59692538432759 89.04086989126446,88.6209223847025 89.50881139857624,88.71691038620207 89.82077240344906,88.83689538807657 90.14473190851145,89.01687289088872 90.43269591301191,89.23284589426365 90.69666291713493,89.50881139857539 90.86464191976006,89.72478440195032 91.06861642294712,90.07274090738676 91.27259092613417,90.58867641544832 91.3925759280095,91.08061492313499 91.6685414323221,92.6284214473197 91.82452193475766,93.1323584551934 92.06449193850834,93.72028496437966 92.4004499437569,94.34420697412868 92.67641544806949,94.74015748031492 93.06036745406784,95.20809898762668 93.51631046119346,95.65204349456357 93.82827146606627,95.91601049868828 94.3562054743157,96.28796400449961 94.8121484814396,96.53993250843646 95.28008998875139,96.75590551181139 95.8200224971887,96.93588301462354 96.2279715035628,97.03187101612313 96.75590551181054,97.10386201724783 97.17585301837252,97.0918635170608 97.51181102362278,97.043869516311 97.90776152980902,96.92388451443567 98.24371953505758,96.7319085114365 98.47169103862038,96.52793400824945 98.7836520434949,96.11998500187534 99.49156355455564,94.75215598050279 99.88751406074186,94.11623547056674 100.31946006749172,93.5403074615675 101.5673040869898,92.04049493813258 102.97112860892341,90.15673040869932 103.5230596175486,89.54480689913817 104.09898762654613,89.06486689163852 104.60292463442153,88.7289088863891 105.14285714285714,88.44094488189033 105.71878515185638,88.23697037870328 106.41469816272925,88.09298837645305 107.15860517435362,88.02099737532835 107.81852268466457,88.03299587551624 108.39445069366381,88.08098987626603 109.1263592051003,88.18897637795264 111.38207724034575,88.66891638545228 112.30596175478144,88.82489688788954 113.4578177727782,88.92088488938913 114.26171728534024,88.88488938882635 114.98162729658887,88.752905886764 115.65354330708769,88.52493438320205 116.12148481439776,88.2969628796401 117.66929133858247,87.34908136482953 118.22122234720766,87.08511436070481 118.73715785526751,86.89313835770562 119.44506936632997,86.71316085489347 120.00899887514133,86.61717285339388 120.58492688414057,86.54518185226834 121.49681289838837,86.50918635170642 122.79265091863623,86.55718035245621 124.02849643794471,86.68916385451858 125.79227596550434,86.95313085864329 127.19610048743967,87.25309336332994 128.17997750281302,87.54105736782955 128.85189351331184,87.82902137232833 129.64379452568429,88.2729658792652 130.19572553430777,88.69291338582718 130.83164604424468,89.29283839520046 131.39557555305606,89.97675290588717 132.95538057742863,92.3524559430071 134.08323959505137,93.85226846644201 135.12710911136065,95.10011248593922 135.81102362204737,95.76002999625103 136.50693663292193,96.2759655043126 137.14285714285714,96.61192350956115 137.93475815523132,96.93588301462354 139.91451068616416,97.60779902512238 140.65841769778854,97.93175853018391 141.39032620922333,98.3037120359961 142.02624671916024,98.6876640419953 142.71016122984693,99.17960254968112 143.33408323959597,99.68353955755568 143.98200224971905,100.29546306711683 144.61792275965595,100.96737907761566 145.3738282714665,101.84326959130154 146.16572928383894,102.83914510686189 146.81364829396372,103.73903262092267 147.24559430071187,104.39895013123362 147.61754780652407,105.04686914135755 148.9613798275217,107.63854518185242 149.32133483314604,108.19047619047676 149.68128983877034,108.65841769778768 150.16122984626998,109.15035620547435 150.60517435320602,109.52230971128654 151.12110986126757,109.90626171728574 152.90888638920126,111.09411323584614 153.4728158980126,111.52605924259514 154.04874390701187,112.05399325084373 154.60067491563535,112.6179227596551 155.14060742407267,113.24184476940412 156.9523809523804,115.53355830521235 157.64829396325496,116.37345331833545 158.05624296962907,116.81739782527234 158.52418447694083,117.24934383202134 158.93213348331494,117.58530183727075 159.35208098987692,117.8852643419574 159.78402699662507,118.14923134608212 160.2279715035628,118.36520434945619 161.12785901762274,118.7011623547056 162.21972253468354,118.94113235845542 163.33558305211838,119.07311586051779 164.2834645669298,119.08511436070481 165.12335958005207,119.04911886014288 166.08323959505137,118.95313085864329 168.37495313085873,118.64116985376879 169.3468316460442,118.55718035245621 169.93475815523132,118.54518185226834 170.49868766404268,118.58117735283112 171.38657667791472,118.72515935508049 171.96250468691395,118.91713535808053 172.46644169478765,119.15710536183035 172.9463817022873,119.48106486689188 173.3543307086614,119.8410198725162 173.6662917135359,120.21297337832753 174.02624671916024,120.76490438695187 174.2662167229092,121.26884139482557 174.43419572553432,121.82077240344991 174.51818522684604,122.2767154105738 174.5421822272218,122.6246719160111 174.51818522684604,123.26059242594715 174.44619422572222,123.68053993250828 174.32620922384686,124.07649043869536 174.0382452193481,124.72440944881929 173.60629921259826,125.33633295838044 173.37832770903717,125.57630296213027 172.98237720284922,125.93625796775459 172.4064491938517,126.33220847394081 171.56655418072774,126.75215598050279 170.77465316835355,127.02812148481453 169.83877015373173,127.23209598800159 168.97487814023202,127.32808398950117 166.17922759655096,127.5200599925012 164.85939257592904,127.66404199475059 163.2875890513686,127.90401199850041 161.25984251968595,128.2999625046875 157.75628046494242,129.0918635170608 155.92050993625895,129.5478065241847 155.28458942632204,129.75178102737175 154.78065241844834,129.9557555305588 154.27671541057467,130.19572553430862 153.91676040495034,130.39970003749568 153.60479940007582,130.62767154105762 153.31683539557537,130.89163854518236 153.1128608923883,131.10761154855643 152.89688788901339,131.40757405324393 152.76490438695188,131.65954255718077 152.63292088489035,131.9835020622423 152.56092988376483,132.3434570678666 152.53693288338908,132.63142107236624 152.59692538432674,133.2073490813646 152.76490438695188,133.75928008998898 153.0288713910766,134.3592050993631 153.80877390326287,135.87101612298503 154.0247469066361,136.4109486314215 154.14473190851143,136.8548931383575 154.19272590926124,137.33483314585717 154.15673040869933,137.7787776527932 154.01274840644993,138.16272965879327 153.85676790401268,138.4146981627301 153.72478440194948,138.55868016497948 153.50881139857626,138.7506561679795 153.29283839520133,138.88263967004187 153.04086989126446,138.99062617172848 152.68091488564016,139.09861267341594 151.99700037495344,139.2065991751034 150.43719535058088,139.302587176603 149.54930633670884,139.42257217847748 148.7334083239589,139.61454818147752 147.98950131233624,139.92650918635204 147.47356580427467,140.2024746906638 147.01762279715078,140.5144356955383 144.42594675665507,142.50618672665902 143.35808023997,143.2740907386583 142.53018372703391,143.8140232470939 141.48631421072463,144.43794525684294 140.65841769778854,144.85789276340492 138.2107236595422,145.91376077990296 137.33483314585632,146.35770528683898 136.83089613798262,146.6696662917135 136.30296212973488,147.0776152980876 136.1229846269219,147.24559430071272 135.84701912260928,147.58155230596213Z"/>
    <path d="M229.32733408323912,130.97562804649408 229.0633670791161,131.33558305211838 228.93138357705288,131.59955005624312 228.8713910761152,131.82752155980506 228.81139857517755,132.31946006749172 228.76340457442774,132.45144356955407 228.67941507311605,132.58342707161646 228.18747656543022,132.94338207724076 227.7795275590561,133.35133108361487 227.5515560554933,133.53130858642703 226.67566554180743,133.96325459317603 225.6317960254964,134.6951631046125 224.94788151481143,135.247094113236 224.34795650543643,135.81102362204737 224.17997750281302,135.9910011248595 224.07199100112555,136.19497562804656 223.92800899887615,136.80689913760773 223.6760404949376,137.45481814773166 223.53205849268824,137.67079115110658 223.1721034870639,138.1387326584175 222.24821897262825,139.11061117360381 221.84026996625414,139.57855268091475 221.68428946381687,139.6985376827901 220.90438695163058,140.1064866891642 220.64041994750758,140.35845519310104 220.55643044619416,140.5384326959132 220.55643044619416,140.69441319835045 220.808398950131,141.3543307086614 221.07236595425573,142.20622422197238 221.09636295463147,142.45819272590924 221.02437195350592,142.60217472815947 220.91638545181846,142.6861642294712 220.66441694788162,142.78215223097163 219.00862392200946,143.0221222347206 218.51668541432363,143.17810273715784 218.14473190851143,143.346081739783 218.03674540682397,143.50206224222023 218.03674540682397,143.778027746532 218.1207349081374,144.0419947506567 218.38470191226043,144.60592425946808 218.45669291338595,145.0018747656543 218.4326959130119,145.27784026996605 218.3007124109487,145.55380577427863 218.06074240719974,145.7337832770908 217.44881889763857,145.98575178102763 217.0648668916385,146.2017247844026 215.49306336707977,147.40157480315 214.95313085864245,147.6655418072747 214.55718035245621,147.80952380952408 214.1972253468319,147.84551931008687 213.53730783652097,147.833520809899 212.90138732658406,147.86951631046176 212.50543682039782,147.91751031121154 212.2894638170229,147.97750281214837 211.97750281214837,147.65354330708684 211.4615673040868,147.24559430071272 209.70978627671505,146.2377202849645 208.73790776152958,145.58980127484057 207.93400824896923,144.9418822647175 206.09823772028577,143.37007874015788 205.28233970753757,142.72215973003395 203.97450318710185,141.7862767154104 200.59092613423365,139.50656167979005 197.63929508811364,137.2988376452944 197.1953505811776,136.8668916385454 196.93138357705288,136.53093363329597 196.69141357330392,136.0509936257972 196.54743157105452,135.53505811773562 196.475440569929,134.75515560554933 196.5114360704909,134.1072365954254 196.58342707161646,133.55530558680192 196.79940007499138,132.3434570678666 196.84739407574116,131.79152605924313 196.82339707536542,131.4795650543686 196.76340457442774,131.17960254968114 196.6434195725541,130.84364454443255 196.49943757030474,130.53168353955806 196.2474690663662,130.12373453318395 195.75553055868036,129.46381702287215 192.79190101237415,125.9482564679416 192.11998500187534,125.33633295838044 191.71203599550122,125.02437195350593 190.4521934758153,124.19647544056984 190.1402324709408,123.94450693663299 189.87626546681605,123.69253843269615 189.6242969628792,123.34458192725971 189.45631796025577,122.99662542182243 189.36032995875618,122.66066741657302 189.3123359580047,122.25271841019891 189.32433445819257,121.80877390326204 189.38432695913025,121.44881889763772 189.50431196100558,120.96887889013892 189.70828646419264,120.40494938132757 189.9962504686914,119.7930258717664 190.32020997375378,119.20509936258014 190.6321709786283,118.72515935508049 191.0401199850024,118.18522684664403 191.52005999250036,117.63329583802054 192.3239595050624,116.84139482564723 193.21184851893614,116.12148481439861 195.3835770528682,114.52568428946411 195.8755155605557,114.08173978252724 196.27146606674194,113.60179977502844 196.40344956880344,113.34983127109159 196.48743907011686,113.08586426696687 196.49943757030474,112.6179227596551 196.45144356955322,112.29396325459355 196.36745406824153,112.02999625046884 196.27146606674194,111.87401574803158 196.07949006374275,111.62204724409473 195.52755905511756,111.09411323584614 195.17960254968114,110.85414323209632 194.79565054368277,110.65016872890926 193.90776152980902,110.29021372328495 192.9598800149976,110.0382452193481 192.02399700037574,109.91826021747276 191.20809898762755,109.90626171728574 190.42819647544124,110.02624671916023 190.0442444694412,110.13423322084769 189.7202849643805,110.26621672291006 189.28833895763066,110.50618672665902 188.90438695163058,110.81814773153354 188.59242594675607,111.15410573678295 188.34045744281923,111.56205474315706 188.0884889388824,112.18597675290609 187.6685414323204,113.90176227971507 187.33258342707185,114.86164229471352 186.94863142107178,115.6655418072747 186.58867641544748,116.34945631796056 186.2647169103868,116.85339332583425 185.91676040495034,117.29733783277113 185.48481439820048,117.66929133858332 185.10086239220044,117.90926134233229 184.6689163854523,118.08923884514444 184.21297337832837,118.1972253468319 183.75703037120448,118.2452193475817 183.26509186351697,118.2212223472068 182.845144356955,118.12523434570721 182.41319835020684,117.95725534308208 181.93325834270718,117.64529433820756 181.6932883389582,117.41732283464562 181.50131233595903,117.18935133108367 181.27334083239623,116.75740532433467 181.1893513310845,116.49343832020995 181.14135733033473,116.22947131608608 181.12935883014686,115.82152230971111 181.20134983127068,115.35358080240019 181.35733033370795,114.84964379452565 181.8852643419574,113.55380577427864 182.13723284589423,112.78590176228023 182.30521184851938,112.0659917510316 182.3772028496432,111.33408323959512 182.3772028496432,110.87814023247121 182.3412073490813,110.47019122609711 182.26921634795744,110.062242219723 182.1492313460821,109.64229471316102 181.99325084364486,109.27034120734969 181.81327334083184,108.9463817022873 181.59730033745862,108.63442069741278 181.36932883389582,108.35845519310104 180.90138732658406,107.96250468691396 180.36145481814845,107.6505436820403 179.7855268091492,107.43457067866537 179.1376077990261,107.29058867641598 178.5616797900269,107.24259467566618 177.97375328083976,107.26659167604109 177.39782527184053,107.3505811773528 175.61004874390684,107.67454068241518 174.98612673415784,107.73453318335201 174.42219722534645,107.73453318335201 173.71428571428572,107.67454068241518 173.06636670416265,107.53055868016496 172.4424446944136,107.31458567679088 171.78252718410266,106.95463067116657 171.23059617547747,106.53468316460459 170.9066366704168,106.23472065991795 170.5826771653544,105.86276715410577 170.0787401574807,105.14285714285714 169.19085114360695,103.65504311961011 168.65091863517134,102.83914510686189 168.11098612673402,102.15523059617605 167.54705661792264,101.5673040869898 166.91113610798743,101.02737157855333 166.28721409823842,100.60742407199135 165.75928008998898,100.28346456692896 164.27146606674194,99.49156355455564 163.7435320584925,99.1676040494941 163.20359955005688,98.75965504311999 162.63967004124552,98.23172103487056 162.21972253468354,97.71578552680899 161.81177352830943,97.05586801649804 161.42782152230936,96.25196850393685 161.11586051743484,95.38807649043885 160.94788151481143,94.66816647919022 160.89988751406162,94.24821897262824 160.87589051368587,93.82827146606712 160.93588301462356,93.12035995500551 161.01987251593525,92.7844019497561 161.12785901762274,92.47244094488244 161.39182602174745,91.99250093738279 161.60779902512238,91.72853393325892 161.83577052868347,91.51256092988399 162.31571053618313,91.18860142482245 162.9636295463062,90.92463442069773 163.58755155605522,90.79265091863537 164.25946756655406,90.74465691788558 164.7754030746156,90.7566554180726 165.51931008623998,90.82864641919815 166.7911511061121,91.10461192350989 169.7067866516685,91.98050243719577 170.8466441694791,92.28046494188241 172.05849268841354,92.52043494563223 172.8983877015375,92.58042744656905 173.4023247094112,92.55643044619416 173.83427071616106,92.49643794525734 174.2302212223473,92.38845144356988 174.61417322834734,92.22047244094475 174.914135733034,92.02849643794556 175.20209973753276,91.77652793400871 175.4180727409077,91.4885639295091 175.5500562429692,91.20059992500948 175.61004874390684,90.87664041994795 175.59805024371897,90.48068991376086 175.50206224221938,89.9647544056993 175.21409823772063,88.6569178852644 175.14210723659508,88.20097487814051 175.0941132358453,87.49306336707977 175.0941132358453,83.53355830521235 175.14210723659508,82.76565429321394 175.2260967379085,82.21372328458959 175.37007874015788,81.685789276341 175.56205474315706,81.16985376827944 176.26996625421782,79.47806524184534 176.5819272590923,78.43419572553434 176.64191976003,77.95425571803554 176.65391826021786,77.52230971128654 176.55793025871827,75.97450318710183 176.60592425946808,75.24259467566618 176.7739032620932,74.4626921634799 177.38582677165437,72.69891263592112 177.58980127484142,71.96700412448462 177.7337832770908,71.03112110986193 177.74578177727867,70.29921259842543 177.64979377577907,69.48331458567722 177.1818522684673,67.33558305211838 176.821897262843,64.95988001499845 176.65391826021786,64.0479940007498 176.24596925384375,62.29621297337889 175.8620172478437,60.91638545181846 175.6820397450324,60.3524559430071 175.38207724034575,59.59655043119656 174.8181477315344,58.51668541432363 174.44619422572222,57.91676040494949 174.0862392200979,57.400824896887926 173.33033370828736,56.476940382452256 172.32245969253827,55.4090738657672 171.54255718035196,54.713160854893474 170.7626546681674,54.16122984626914 169.97075365579323,53.75328083989503 169.49081364829357,53.58530183727075 168.96287964004583,53.441319835020515 168.3869516310466,53.321334833146025 167.7990251218595,53.24934383202134 167.1631046119243,53.20134983127154 166.6111736032991,53.189351331083664 165.93925759280197,53.21334833145856 165.38732658417678,53.26134233220836 164.82339707536542,53.36932883389582 164.2834645669298,53.50131233595818 163.43157105361797,53.82527184101972 160.61192350956117,55.25309336332994 159.3640794900648,55.98500187476558 158.82414698162748,56.356955380577766 158.23622047244038,56.812898387701665 156.28046494188325,58.55268091488555 155.23659542557226,59.536557930258894 154.15673040869933,60.66441694788162 153.72478440194948,61.07236595425572 153.4368203974507,61.28833895763065 153.0648668916385,61.528308961380475 152.3809523809518,61.81627296587924 151.88901387326598,61.948256467941604 151.2050993625793,62.06824146981694 149.62129733783266,62.21222347206632 147.47356580427467,62.29621297337889 146.60967379077667,62.30821147356591 145.48181477315396,62.272215973003995 144.12598425196842,62.15223097112865 143.4060742407198,62.05624296962907 142.5901762279716,61.90026246719181 141.8102737157853,61.70828646419263 141.24634420697393,61.540307461567494 140.11848518935122,61.084364454443595 139.00262467191635,60.52043494563223 138.40269966254309,60.13648293963303 137.91076115485555,59.78852643419574 136.9868766404199,59.02062242219733 136.13498312710976,58.168728908886344 135.36707911511135,57.23284589426365 134.64716910386272,56.14098237720284 134.08323959505137,55.07311586051778 133.6512935883015,54.08923884514444 133.31533558305293,53.189351331083664 133.0633670791161,52.37345331833546 132.89538807649097,51.56955380577427 132.79940007499138,50.88563929508842 132.7874015748035,50.04574428196531 132.84739407574116,49.33783277090372 133.00337457817844,48.49793775778061 133.45931758530233,46.68616422947118 133.51931008623998,46.17022872141047 133.54330708661405,45.77427821522338 133.51931008623998,45.19835020622415 133.39932508436465,44.56242969628809 133.18335208098972,43.914510686164164 132.88338957630307,43.290588676415986 132.43944506936705,42.61867266591716 131.75553055868036,41.81477315335597 129.76377952755962,40.07499062617209 129.1398575178106,39.511061117360725 128.38395200600007,38.731158605174436 126.62017247844042,36.787401574803496 125.92425946756755,36.11548556430467 125.42032245969216,35.695538057742695 124.70041244844354,35.20359955005687 124.00449943757067,34.831646044244685 123.40457442819738,34.56767904011997 122.7566554180726,34.339707536558016 121.92875890513652,34.11173603299607 121.01687289088872,33.943757030371785 120.2969628796401,33.84776902887135 119.69703787026681,33.81177352830942 118.78515185601901,33.81177352830942 118.00524934383273,33.84776902887135 117.18935133108452,33.93175853018391 115.5095613048366,34.23172103487055 112.90588676415472,34.819647544057666 111.94600674915712,34.97562804649407 111.4540682414696,34.999625046869824 110.79415073115865,34.999625046869824 110.19422572178536,34.93963254593215 109.43832020997482,34.819647544057666 106.18672665916816,34.195725534308636 105.51481064866933,34.03974503187138 104.62692163479558,33.775778027746654 103.59505061867243,33.39182602174745 100.49943757030474,32.10798650168746 98.08773903262203,31.256092988376484 97.06786651668506,30.812148481440456 96.32395950506239,30.356205474315708 95.7720284964389,29.888263967004786 95.29208848893926,29.348331458568317 94.78815148106555,28.592425946756926 94.39220097487762,27.860517435321285 94.09223847019098,27.140607424072662 92.78440194975695,23.637045369329147 92.59242594675779,23.013123359580113 92.42444694413264,22.281214848144472 92.37645294338286,21.75328083989503 92.4004499437569,21.177352830896645 92.52043494563223,20.637420322460176 92.71241094863142,20.145481814773508 92.96437945256825,19.713535808024506 93.30033745781853,19.257592800899754 93.68428946381688,18.837645294338625 94.11623547056674,18.465691788526442 94.98012748406474,17.86576677915316 95.54405699287611,17.553805774278644 96.21597300337493,17.229846269216253 97.3678290213734,16.76190476190533 99.04761904761962,16.221972253468866 100.42744656917918,15.874015748031576 102.32320959880033,15.52605924259514 103.84701912260928,15.358080239970008 104.47094113235832,15.346081739782987 104.92688413948221,15.370078740157883 105.41882264716973,15.442069741282575 106.04274465691877,15.574053243344936 106.70266216722972,15.790026246719863 110.0382452193481,17.025871766029198 112.06599175103075,17.80577427821549 112.5459317585304,17.925759280089974 112.86989126359279,17.97375328083977 113.16985376827944,17.97375328083977 113.56580427446566,17.913760779902955 114.00974878140339,17.769778777652718 114.44169478815154,17.51781027371587 114.81364829396372,17.181852268466457 115.1016122984625,16.85789276340492 115.38957630296296,16.40194975628102 115.65354330708769,15.898012748406474 115.86951631046091,15.346081739782987 116.4214473190861,13.774278215223383 116.6494188226472,13.258342707161814 116.9253843269598,12.730408698913225 117.2853393325841,12.20247469066378 117.65729283839629,11.794525684289676 118.05324334458253,11.44656917885324 118.49718785151855,11.182602174728519 118.91713535808053,11.014623172103386 119.33708286464251,10.918635170603798 119.78102737157853,10.882639670041877 120.17697787776476,10.8946381702289 120.66891638545228,10.95463067116657 121.14885639295193,11.062617172854033 123.18860142482245,11.650543682040293 124.16047994000792,11.842519685039472 124.54443194600628,11.878515185602243 125.02437195350593,11.866516685414368 125.58830146231729,11.782527184102655 125.9962504686914,11.67454068241519 126.24821897262824,11.48256467941516 126.53618297712872,11.194600674915542 126.88413948256515,10.66666666666695 127.62804649418781,9.05886764154543 128.25196850393684,7.499062617172849 128.37195350581217,7.115110611173641 128.41994750656198,6.599175103112073 128.28796400450048,5.387326584177633 128.2759655043126,4.883389576303087 128.3239595050624,4.3914510686164165 128.52793400824945,3.2515935508066685 128.53993250843732,2.9036370453693805 128.51593550806157,2.675665541807431 128.43194600674985,2.3997000374956867 128.29996250468665,2.0997375328090455 127.55605549306398,1.0438695163110117 127.46006749156439,0.8638920134988565 127.41207349081459,0.623922009749032 127.49606299212631,0.4319460067498545 127.66404199475144,0.311961004874516 127.98800149981213,0.19197600300003007 128.55193100862348,0.0959880015004413 129.79977502812156,0.02399700037489719 131.6835395575548,0 150.58117735283196,0.011998500187874867 175.52605924259515,0.07199100112554412 184.50093738282715,0.04799400074979438 187.6685414323204,0.07199100112554412 188.88038995125655,0.10798650168746363 190.20022497187844,0.19197600300003007 191.37607799025096,0.3599550056243104 192.20397450318706,0.5519310086243404 192.94788151481143,0.8278965129360844 193.2718410198721,0.9958755155612172 193.64379452568429,1.247844019498064 194.0517435320584,1.6197975253093968 194.33970753655888,1.9797525309337072 194.5916760404957,2.4236970378705838 195.15560554930707,3.6715410573677953 195.53955755530544,4.27146606674193 195.7435320584925,4.523434570678777 196.1034870641168,4.883389576303087 196.54743157105452,5.231346081740376 197.00337457817844,5.507311586052119 197.62729658792745,5.807274090738761 198.4671916010497,6.095238095238379 199.15110611173642,6.251218597675638 201.23884514435673,6.671166104237617 202.27071616047988,6.947131608549361 203.00262467191635,7.223097112861105 203.32658417697874,7.391076115486237 203.5785526809156,7.571053618298393 203.7705286839148,7.76302962129757 203.92650918635204,7.967004124484623 204.04649418822737,8.206974128234448 204.09448818897718,8.4109486314215 204.10648668916335,8.614923134608553 204.0704911886014,8.93888263967009 203.98650168728972,9.202849643794812 203.83052118485244,9.514810648669329 203.5305586801658,9.934758155231307 203.0746156730419,10.40269966254223 202.51068616423055,10.882639670041877 201.1188601424831,11.93850768653906 200.63892013498344,12.358455193101038 200.32695913010895,12.670416197975555 199.8950131233591,13.198350206224147 199.63104611923606,13.654293213348897 199.45106861642304,14.0862392200979 199.3310836145477,14.554180727409674 199.27109111361176,15.09411323584614 199.31908511436154,15.718035245594319 199.427071616049,16.293963254593557 199.83502062242312,17.86576677915316 199.94300712410887,18.441694788151544 200.00299962504656,19.005624296962907 200.03899512561017,20.265466816647994 199.8950131233591,23.42107236595422 199.9310086239227,25.01687289088872 200.01499812523443,26.036745406824835 200.13498312710976,26.900637420322838 200.59092613423365,28.880389951256547 200.69891263592112,29.504311961005577 200.73490813648303,30.14023247094163 200.710911136109,30.800149981252584 200.6149231346077,31.37607799025182 200.4829396325462,31.952005999250204 199.82302212223524,34.051743532058396 199.60704911886032,34.97562804649407 199.5230596175486,35.623547056618 199.41507311586113,37.687289088864276 199.31908511436154,38.41919760029992 199.1631046119243,39.19910011248621 198.7911511061121,40.746906636670914 198.11923509561328,43.038620172479135 197.71128608923917,44.202474690663784 197.29133858267718,45.138357705287326 196.82339707536542,45.99025121859831 195.63554555680503,47.862017247844555 195.17960254968114,48.64191976002999 194.79565054368277,49.4338207724033 194.56767904011997,50.141732283464904 194.48368953880825,50.68166479190137 194.47169103862038,51.23359580052485 194.67566554180743,53.04536932883428 194.77165354330702,55.25309336332994 194.7836520434949,55.56505436820446 194.86764154480662,56.056992875891126 195.0116235470577,56.59692538432759 195.21559805024475,57.14885639295108 196.18747656543022,59.18860142482246 196.40344956880344,59.78852643419574 196.88338957630307,61.40832395950513 197.12335958005207,62.00824896887927 197.44731908511446,62.69216347956512 197.85526809148857,63.37607799025182 198.25121859767478,63.940007499063185 198.7911511061121,64.59992500937413 199.7990251218595,65.75178102737176 200.18297712785954,66.25571803524545 200.5669291338579,66.86764154480746 200.78290213723284,67.40757405324392 200.87889013873243,67.74353205849334 200.93888263967008,68.17547806524234 200.95088113985796,68.61942257217837 200.91488563929605,69.02737157855333 200.73490813648303,69.81927259092663 200.14698162729763,71.58305211848541 200.03899512561017,72.12298462692188 200.0269966254223,72.60292463442067 200.08698912635995,73.13085864267012 200.21897262842148,73.52680914885634 200.49493813273406,73.99475065616812 200.73490813648303,74.28271466066775 200.93888263967008,74.48668916385479 200.85489313835836,74.60667416572929 200.7949006374207,74.82264716910421 200.7949006374207,75.43457067866537 200.90288713910817,75.96250468691481 201.14285714285714,76.47844019497552 201.4788151481074,77.00637420322496 201.7547806524183,77.57030371203633 202.018747656543,77.87026621672297 202.29471316085562,78.07424071991002 203.12260967379171,78.48218972628413 204.766404199476,79.69403824521942 206.9501312335959,81.57780277465353 207.4060742407198,82.04574428196531 207.74203224597008,82.52568428946411 207.8620172478437,82.64566929133859 208.11398575178055,82.81364829396372 208.71391076115555,83.0776152980876 208.98987626546642,83.25759280089976 209.4578177727782,83.7135358080245 209.5418072740916,83.88151481064878 209.66179227596524,84.2414698162731 209.8177727784025,84.45744281964802 209.98575178102763,84.60142482189741 210.68166479190052,85.03337082864641 209.1818522684673,85.18935133108367 208.02999625046883,85.44131983502051 207.31008623922023,85.65729283839543 206.5421822272218,85.94525684289506 205.88226471691084,86.2452193475817 205.3063367079116,86.55718035245621 204.8983877015375,86.83314585676796 204.43044619422574,87.19310086239227 204.02249718785163,87.58905136857935 203.74653168353902,87.93700787401579 203.51856017997792,88.33295838020287 203.37457817772855,88.66891638545228 203.27859017622896,89.0888638920134 203.23059617547747,89.5328083989503 203.25459317585322,90.00074990626206 203.31458567679087,90.40869891263617 203.56655418072774,91.27259092613417 203.97450318710185,92.3044619422573 205.57030371203632,95.9520059992502 205.91826021747278,96.89988751406078 206.14623172103558,97.67979002624706 206.30221222347282,98.44769403824549 206.47019122609626,99.55155605549331 206.9501312335959,104.110986126734 207.11811023622104,104.93888263967008 207.3220847394081,105.55080614923125 207.49006374203321,105.93475815523045 207.69403824522027,106.30671166104264 208.24596925384375,107.06261717285403 208.60592425946808,107.44656917885324 210.39370078740174,109.12635920509945 211.0536182977127,109.85826771653595 211.34158230221317,110.27821522309708 211.56955380577426,110.65016872890926 211.74953130858728,111.05811773528336 211.8695163104609,111.45406824147045 211.9655043119605,112.0659917510316 211.97750281214837,112.72590926134257 211.89351331083665,113.48181477315396 211.74953130858728,114.21372328458959 211.41357330333702,115.29358830146252 211.17360329958805,115.84551931008687 210.54968128983901,117.12935883014686 210.42969628796368,117.4533183352084 210.35770528683983,117.77727784026993 210.3337082864641,118.11323584551934 210.369703787026,118.43719535058173 210.45369328833942,118.7491563554554 210.57367829021476,119.03712035995501 210.9216347956512,119.64904386951616 211.61754780652407,120.58492688413972 213.35733033370795,122.63667041619811 214.22122234720766,123.5365579302589 214.7491563554554,123.94450693663299 215.31308586426675,124.26846644169538 215.86501687289194,124.48443944506947 217.5328083989503,125.00037495313103 218.09673790776165,125.25234345706788 218.61267341582322,125.57630296213027 218.9846269216354,125.88826396700394 219.41657292838354,126.3802024746906 220.53243344582012,128 221.01237345331805,128.58792650918625 221.32433445819257,128.89988751406077 221.672290963629,129.1878515185604 222.47619047619105,129.75178102737175 223.12410948631413,130.12373453318395 223.55605549306398,130.30371203599609 224.02399700037574,130.4596925384325 224.6839145106867,130.60367454068273 225.53580802399682,130.72365954255721 226.67566554180743,130.8076490438698 227.82752155980592,130.83164604424468 229.49531308586424,130.8196475440568 229.32733408323912,130.97562804649408Z"/>
  </g>
</svg>