<?xml version="1.0" encoding="UTF-8" standalone="no"?>
<svg viewBox="0 0 256 177.69103918228424" xmlns="http://www.w3.org/2000/svg">
  <style>
    g.zone {
      fill: lightgray;
      stroke-width: 2;
      stroke-linecap: square;
      stroke-linejoin: bevel;
      stroke-miterlimit: 3;
      stroke-opacity: 0.8;
      stroke: black;
      fill-opacity: 0.3;
    }
  </style>
  <g class="zone" id="zone">
    <path d="M242.79441226575838,177.62126064736108 241.29417376490636,177.23747870528237 240.1428279386727,177.18514480408936 239.63693356047904,177.097921635436 238.52047700170573,176.81880749574205 237.50868824531594,176.40013628620176 236.96790459965948,176.24313458262398 236.11311754684994,176.03379897785447 233.89764906303225,175.58023850085257 231.4554003407161,174.6905621805802 230.58316865417513,174.20211243611672 229.97260647359548,173.97533219761578 229.5539352640564,173.92299829642403 229.03059625213135,173.92299829642403 227.93158432708697,174.06255536627037 226.8325724020451,174.09744463373195 225.26255536626988,174.32422487223292 224.80899488926798,174.16722316865514 223.74487223168643,173.67877342419166 222.64586030664455,173.29499148211295 221.44218057921663,173.120545144805 220.53505962521285,173.05076660988183 219.5581601362859,172.85887563884248 219.13948892674685,172.7018739352647 218.8254855195913,172.50998296422534 218.1625894378199,171.86453151618534 216.76701873935386,170.29451448041013 216.29601362862056,169.89328790460124 215.80756388415833,169.70139693356188 215.07488926746123,169.5792844974457 214.481771720613,169.38739352640636 213.36531516183967,168.95127768313588 212.71986371379967,168.7942759795581 212.2837478705292,168.75938671209653 211.96974446337367,168.81172061328954 211.3417376490626,169.05594548552065 211.18473594548732,169.23039182282858 210.94051107325495,169.63161839863872 210.66139693356223,169.84095400340826 209.30071550255656,170.29451448041013 206.26534923338968,171.62030664395297 204.81744463373192,172.45764906303359 203.80565587734213,172.98098807495865 203.07298126064754,173.172879045998 201.43318568994914,173.36477001703736 200.8400681431009,173.46943781942213 200.0899488926749,173.66132879046148 199.49683134582665,173.9055536626926 198.8339352640552,174.34166950596307 197.0545826235105,176.22568994889383 196.63591141396896,176.5920272572411 196.30446337308447,176.78391822828047 195.118228279388,177.18514480408936 194.82166950596388,177.32470187393696 194.5425553662687,177.30725724020553 194.14132879046105,177.20258943782076 193.61798977853596,176.95836456558843 192.79809199318677,176.45247018739477 191.83863713799124,175.91168654173828 191.21063032368016,175.38834752981322 190.89662691652464,175.0568994889275 190.75706984667826,174.7428960817732 190.73962521294686,174.53356047700242 190.89662691652464,173.80088586030783 190.89662691652464,173.60899488926847 190.84429301533288,173.39965928449894 190.60006814310051,173.0333219761504 189.91972742759768,172.40531516184058 189.62316865417355,171.9168654173771 189.53594548551897,171.6377512776844 189.5010562180586,171.30630323679867 189.55339011925037,170.9399659284514 189.65805792163638,170.53873935264124 189.67550255536779,170.3119591141403 189.51850085179004,169.91073253833142 189.20449744463448,169.47461669506094 188.89049403747896,169.14316865417524 188.54160136286308,168.89894378194288 187.52981260647329,168.4628279386724 187.32047700170375,168.32327086882606 186.9192504258961,167.73015332197656 186.4656899488942,167.24170357751433 185.7155706984682,166.61369676320325 185.1573424190803,166.05546848381658 184.28511073253935,165.39257240204518 183.41287904599594,164.31100511073345 182.80231686541873,163.40388415672967 182.59298126064672,162.9677683134592 182.34875638841686,162.2699829642262 182.15686541737625,161.90364565587888 181.09274275979718,160.85696763202876 180.0809540034074,159.56606473594627 179.74950596252293,159.26950596252215 178.68538330494138,158.6066098807507 177.53403747870524,157.54248722316916 176.53969335604936,156.96681431005234 175.99890971039287,156.54814310051205 175.4930153321992,156.0422487223184 174.14977853492496,154.1756729131178 173.83577512776944,153.47788756388482 173.78344122657518,153.1464395229991 173.78344122657518,152.8673253833064 174.1672231686539,151.41942078364613 174.32422487223167,150.68674616695154 174.91734241907992,146.84892674616813 174.93478705281132,146.447700170358 174.8998977853485,146.0988074957421 174.72545144804178,145.7150255536634 174.41144804088626,145.40102214650787 172.9809880749574,144.68579216354468 171.48074957410537,144.02289608177202 171.06207836456633,143.81356047700248 170.0328449744476,143.0459965928463 169.68395229982923,142.627325383306 169.52695059625148,142.10398637138093 169.52695059625148,141.65042589437903 169.63161839863747,141.19686541737715 169.98051107325335,140.2374105621816 170.0328449744476,139.9059625212959 169.99795570698478,139.5745144804102 169.80606473594665,138.85928449744577 169.77117546848382,138.56272572402165 169.87584327086984,138.12660988074992 170.25962521294855,137.0973764906312 170.62596252129583,136.6961499148223 171.1318568994895,136.3995911413982 171.6028620102228,136.2600340715506 172.85887563884248,135.94603066439632 174.51611584327227,135.59713798977918 175.17901192504368,135.28313458262363 175.98146507666146,134.96913117546936 176.87114139693384,134.53301533219886 177.20258943782076,134.21901192504333 177.90037478705256,133.01533219761544 178.23182282793948,132.59666098807514 179.03427597955726,132.0209880749583 179.83672913117505,131.34064735945546 180.51706984667788,130.99175468483836 181.26718909710388,131.16620102214753 182.17431005110768,131.25342419080087 182.9418739352651,131.2359795570707 183.7617717206143,131.13131175468592 185.19223168654312,130.78241908006882 189.0300511073253,129.59618398637232 192.22241908006748,128.7588415672917 195.41478705281213,127.85172061328794 196.26957410562164,127.65982964224982 196.88013628620132,127.59005110732664 197.63025553662732,127.53771720613365 198.20592844974416,127.55516183986381 198.78160136286346,127.62494037478824 199.5491652470184,127.79938671209618 200.1771720613295,127.99127768313554 201.06684838160186,128.32272572402124 202.46241908006786,128.98562180579268 205.42800681431157,130.5381942078377 209.2483816013648,132.21287904599765 210.48695059625305,132.82344122657608 211.76040885860414,133.5386712095405 213.2780919931876,134.53301533219886 217.6915843270866,137.79516183986422 218.75570698466814,138.45805792163563 219.64538330494048,138.89417376490735 220.70950596252203,139.22562180579305 221.6689608177176,139.38262350937083 222.50630323679817,139.4349574105626 224.93110732538292,139.4349574105626 225.99522998296447,139.46984667802417 227.1465758092006,139.59195911414037 227.91413969335804,139.71407155025653 228.94337308347676,139.97574105621908 230.09471890971042,140.3595229982978 231.17628620102337,140.84797274276002 232.1182964224875,141.3364224872235 233.18241908006905,141.99931856899616 234.3337649063052,142.85410562180695 235.32810902896108,143.7437819420793 236.40967632027406,144.9300170357758 236.93301533219912,145.61035775127863 237.8401362862029,146.9535945485529 240.16027257240412,150.8088586030677 241.43373083475518,152.74521294719023 242.986303236799,154.78623509369748 244.08531516184087,156.00735945485556 244.8354344122669,156.75747870528156 245.65533219761608,157.472708688246 246.4228960817735,158.06582623509425 247.71379897785351,158.88572402044343 249.02214650766743,159.49628620102308 252.21451448040958,160.71741056218116 253.06930153322162,161.13608177172145 253.6973083475302,161.51986371380016 254.51720613287938,162.1304258943786 255.0928790459987,162.74098807495824 255.52899488926917,163.3864395229995 255.84299829642472,164.18889267461728 255.96511073253964,164.78201022146553 256,165.46235093696836 255.9302214650768,166.1426916524712 255.79066439523046,166.75325383305085 255.5464395230006,167.45103918228386 255.18010221465082,168.18371379897846 254.69165247018856,168.8640545144813 254.34275979557268,169.2652810902902 253.66241908006984,169.84095400340826 252.8948551959124,170.3119591141403 252.09240204429466,170.67829642248884 249.40592844974614,171.70752981260756 248.11502555366366,172.28320272572563 246.7892333901208,172.98098807495865 245.4808858603069,173.83577512776944 244.45165247018818,174.6905621805802 244.05042589437804,175.1092333901205 243.631754684839,175.61512776831415 243.35264054514627,176.08613287904745 243.1781942078371,176.52224872231793 243.02119250425932,177.18514480408936 242.96885860306756,177.69103918228424 242.79441226575838,177.62126064736108Z"/>
    <path d="M62.22500851788626,109.6918568994896 61.335332197613894,109.15107325383312 60.82943781942024,108.95918228279376 60.44565587734153,108.88940374787059 58.927972742758094,108.906848381602 57.07884156729018,108.74984667802423 55.75304940374734,108.74984667802423 55.31693356047686,108.78473594548582 53.799250425893426,109.11618398637152 52.68279386712011,109.22085178875629 51.82800681431058,109.44763202725724 51.06044293015315,109.86630323679753 49.92654173764843,110.65131175468514 48.530971039182404,111.29676320272638 47.43195911413803,112.01199318569081 46.83884156728978,112.23877342419176 45.86194207836283,112.55277683134605 45.18160136286247,112.67488926746223 44.57103918228282,112.67488926746223 43.873253833048565,112.51788756388447 43.50691652470127,112.34344122657652 42.51257240204289,111.6805451448051 41.50078364565559,111.13976149914862 41.01233390119087,110.73853492333973 40.6808858603064,110.40708688245402 40.59366269165181,109.58718909710484 40.59366269165181,109.09873935264136 40.645996592843574,108.76729131175564 40.8553321976131,108.01717206132963 41.36122657580923,106.9356047700179 42.093901192503836,105.83659284497477 42.16367972742701,105.64470187393542 42.181124361158425,105.41792163543447 42.12879045996418,104.89458262350941 42.111345826235244,104.16190800681481 42.024122657580655,103.67345826235133 41.745008517887946,103.15011925042626 41.117001703576875,102.36511073253865 40.331993185688034,100.88231686541805 40.03543441226391,100.56831345826251 39.424872231686734,100.04497444633745 38.60497444633754,99.53908006814379 37.69785349233376,98.89362862010255 37.174514480408696,98.64940374787143 36.52906303236621,98.49240204429366 35.34282793866972,98.54473594548543 34.71482112436113,98.49240204429366 33.17969335604628,98.2481771720613 32.15045996592756,98.00395229983017 32.15045996592756,97.04449744463464 32.063236797272964,96.52115843270957 31.888790459966263,96.10248722316926 31.38289608177013,95.30003407155026 31.348006814309784,95.14303236797248 31.435229982964373,94.63713798977884 31.71434412265708,93.9916865417376 31.81901192504061,93.5904599659287 31.83645655877202,93.06712095400363 31.766678023848844,92.64844974446333 31.278228279386607,91.74132879046078 30.667666098806947,90.88654173764877 30.14432708688188,90.4155366269167 29.14998296422351,89.75264054514528 28.95809199318539,89.47352640545134 28.853424190799387,89.05485519591228 28.888313458262214,88.61873935264056 29.184872231686338,87.95584327086914 29.376763202724455,87.34528109028948 29.638432708688228,87.04872231686537 30.493219761497766,86.36838160136253 30.562998296420943,86.14160136286281 31.103781942077426,85.47870528109016 31.243339011923776,85.09492333901268 31.225894378192365,84.97281090289651 31.156115843269188,84.83325383305015 30.26643952299682,83.89124361158478 30.05710391822729,83.47257240204448 29.86521294718917,82.82712095400323 29.72565587734034,82.53056218057911 28.923202725722565,81.55366269165215 28.818534923339037,81.30943781942103 28.748756388415863,80.92565587734232 28.539420783643852,80.36742759795567 28.469642248720675,79.98364565587696 28.539420783643852,79.49519591141471 28.644088586029856,79.21608177172077 29.010425894377157,78.67529812606553 29.219761499146685,78.22173764906364 29.27209540034093,77.89028960817792 29.184872231686338,77.59373083475256 28.90575809199115,77.26228279386686 28.5045315161835,77.00061328790432 27.928858603066672,76.80872231686621 26.81240204429088,76.59938671209544 26.219284497442636,76.44238500851766 24.614378194207088,75.70971039182307 24.143373083473783,75.37826235093736 23.58514480408837,74.66303236797293 22.835025553662355,73.94780238500852 22.67802385008459,73.86057921635391 22.695468483816,73.82568994889233 22.625689948892823,73.77335604770056 21.858126064735398,73.54657580919962 20.410221465075136,73.30235093696726 20.078773424190665,73.14534923339073 19.939216354344314,72.91856899488978 19.956660988073246,72.63945485519584 20.113662691651015,72.08122657580918 20.13110732538243,71.7672231686549 20.061328790459253,71.48810902896093 19.537989778534186,70.24954003407144 19.39843270868783,69.69131175468479 19.363543441225,69.39475298126067 19.415877342419247,69.11563884156797 19.712436115843367,68.73185689948924 20.0962180579196,68.03407155025624 20.322998296420547,67.84218057921689 21.055672913117622,67.49328790459975 22.050017035773514,66.9350596252131 22.433798977852227,66.83039182282835 22.817580919930943,66.83039182282835 23.358364565587422,66.91761499148168 24.54459965928391,67.33628620102199 24.736490630322027,67.3537308347534 24.893492333899797,67.3013969335604 25.172606473592506,67.12695059625246 26.23672913117405,66.2023850085185 26.585621805792417,65.71393526405502 26.76006814309912,65.38248722316932 26.899625212945473,64.87659284497443 26.84729131175371,64.44047700170395 26.149505962519463,61.945894378194794 25.538943781942283,60.393321976149764 25.24238500851816,59.88742759795611 24.736490630322027,59.41642248722281 24.37015332197473,59.207086882453275 23.14902896081789,58.64885860306662 21.78834752981222,57.9336286201022 21.03822827938621,57.46262350937013 20.42766609880655,56.956729131175244 20.078773424190665,56.57294718909653 19.76477001703513,56.13683134582605 17.723747870526626,53.06657580919883 17.392299829642155,52.71768313458294 16.171175468482836,51.618671209539805 15.002385008517763,50.170766609880786 14.636047700170465,49.64742759795572 14.234821124360337,48.9845315161843 13.868483816013038,48.23441226575829 12.80436115843149,46.31550255536596 12.664804088585136,45.844497444633895 12.577580919930545,45.00715502555329 12.368245315161014,44.57103918228282 12.036797274274065,44.187257240204104 11.182010221464525,43.576695059625685 10.641226575808044,43.0359114139692 10.0481090289598,42.32068143100478 9.786439522996028,41.762453151618125 9.542214650766148,40.628551959113395 9.454991482111556,39.87843270868863 9.92599659284486,39.19809199318579 10.37955706984675,38.3258603066436 10.571448040884867,37.62807495741059 10.641226575808044,36.843066439522985 10.606337308347696,36.180170357751564 10.466780238498863,35.39516183986397 10.239999999997918,34.71482112436113 9.92599659284486,33.99959114139671 9.577103918226497,33.38902896081705 9.175877342418849,32.81335604770022 8.14664395229765,31.574787052810727 7.117410562178929,30.580442930153595 3.9250425894367638,27.806746166950493 3.1400340715479236,27.021737649062892 2.5120272572393305,26.323952299829884 1.8840204429282583,25.504054514480693 1.3606814310031912,24.719045996593092 0.8547870528095382,23.689812606473133 0.5756729131168301,22.887359454855357 0.29655877342412207,21.61390119250428 0.226780238498466,20.933560477001443 0.20933560476953103,20.026439522997663 0.29655877342412207,18.787870528108172 0.6628960817714211,16.118841567291074 0.7326746166945981,14.775604770016818 0.6454514480400071,13.537035775127327 0.157001703575289,10.327223168653749 0.03488926746034899,9.158432708687435 0,7.65819420783665 0.06977853492317701,6.5940715502551015 0.24422487222988,5.547393526404967 0.45356047699941104,4.727495741055778 0.8198977853491891,3.7157069846672326 1.2385689948882512,2.878364565587869 1.7095741056215552,2.1805792163536197 2.1805792163523803,1.6397955706983782 2.7388074957402755,1.1687904599650742 3.3842589437802824,0.7675638841561866 4.3088245315154765,0.38378194207747357 5.460170357749137,0.10466780238476552 6.681294718908453,0 8.268756388415069,0.052333901191762996 13.031141396932435,0.4710051107320646 14.182487223168573,0.6280068143098326 14.845383304939995,0.8024531516177751 15.40361158432541,0.9943441226571317 16.066507666096832,1.3083475298126677 16.729403747870734,1.7095741056215552 17.130630323678382,2.1631345826234454 17.54930153321992,2.8085860306634522 17.793526405449803,3.3319250425885194 17.95052810902757,3.959931856899592 18.12497444633675,5.3380579216354365 18.247086882451693,8.495536626916014 18.386643952298044,9.995775127768038 18.68320272572217,11.53090289608165 19.101873935263708,12.839250425894319 19.39843270868783,13.502146507665739 19.782214650766544,14.16504258943716 20.235775127768434,14.775604770016818 20.67189097103891,15.246609880748883 21.177785349232565,15.665281090289184 21.805792163543636,16.01417376490631 22.34657580919764,16.22350936967584 22.887359454854117,16.34562180579202 23.742146507666135,16.363066439522193 24.562044293015326,16.25839863713743 25.45172061328769,15.97928449744472 26.323952299828644,15.543168654173005 26.9345144804083,15.15938671209553 27.614855195911137,14.636047700170465 28.190528109027966,14.112708688245398 29.56865417376505,12.717137989778138 30.091993185690118,12.263577512776248 30.71999999999871,11.827461669505773 31.348006814309784,11.513458262350236 32.34235093696567,11.216899488926114 33.40647359454722,11.059897785348346 37.13962521294587,10.920340715501991 38.72708688245248,10.763339011924224 39.86098807495721,10.554003407154694 40.94255536626769,10.257444633730572 41.97178875638642,9.803884156728682 42.844020442929846,9.22821124361061 43.43713798977809,8.722316865416959 44.902487223167284,7.08252129471858 45.61771720613295,6.384735945485571 46.594616695059905,5.652061328789733 47.71107325383322,4.989165247018311 49.10664395229924,4.396047700170068 50.78132879046044,3.872708688245001 53.08402044293024,3.366814310050108 55.770494037478755,2.948143100511046 57.30562180579113,2.8260306643948665 58.07318568994855,2.8260306643948665 58.96286201022092,2.878364565587869 59.66064735945517,2.9830323679726343 60.55032367972753,3.157478705280577 61.841226575807546,3.5587052810894644 62.76579216354274,3.907597955706589 64.26603066439476,4.587938671209424 68.27829642248612,6.663850085178279 70.04020442930192,7.501192504258881 72.0463373083476,8.373424190799835 75.0991482112434,9.577103918227737 76.16327086882495,10.0481090289598 77.0180579216345,10.536558773423279 77.68095400340592,11.007563884156584 78.25662691652522,11.496013628620062 78.6927427597957,12.001908006813714 79.00674616695123,12.542691652470197 79.19863713798935,13.066030664395264 79.3207495741043,13.763816013628272 79.33819420783571,14.060374787052394 79.26841567291252,14.339488926746343 79.059080068143,15.054718909709527 78.83229982964205,15.630391822827596 78.16940374787063,16.88640545144726 77.41928449744462,18.07264054514499 75.186371379898,21.317342419080155 74.47114139693234,22.52102214650682 73.86057921635268,23.742146507666135 72.18589437819395,27.42296422487178 69.5517546848372,32.67379897785386 69.08074957410389,33.89492333901194 68.94119250425754,34.435706984667185 68.88885860306578,34.94160136286207 68.9063032367972,35.39516183986397 68.97608177172037,35.69172061328809 69.13308347529814,36.05805792163539 69.3773083475305,36.3895059625211 69.79597955706956,36.70350936967663 70.35420783645498,36.96517887563917 70.96477001703464,37.15706984667728 71.47066439522828,37.2268483816017 72.13356047700219,37.15706984667728 72.76156729131078,37.01751277683093 73.47679727427645,36.79073253832998 74.00013628620151,36.49417376490586 74.6281431005101,36.092947189096975 76.86105621805673,34.47059625212877 79.77431005110618,32.56913117546786 80.85587734241915,31.766678023850083 81.98977853492387,30.702555366268538 84.37969335604826,28.016081771720025 85.16470187393462,27.196183986370833 85.98459965928382,26.411175468483233 86.73471890970983,25.81805792163499 87.51972742759867,25.27727427597975 88.70596252129515,24.614378194207088 89.56074957410469,24.24804088585979 90.62487223168624,23.93403747870549 91.54943781942143,23.75959114139631 92.42166950596238,23.672367972742958 93.48579216354393,23.689812606473133 94.44524701873948,23.811925042589312 95.35236797274325,24.00381601362867 96.18971039182138,24.24804088585979 100.56831345826251,25.800613287904817 101.754548551959,26.1495059625207 102.97567291311832,26.446064735944823 104.4410221465075,26.725178875638772 106.15059625212906,26.951959114139715 107.58105621805791,27.074071550255894 109.51741056218042,27.14385008517907 109.44763202725724,27.196183986370833 109.37785349233407,27.335741056218428 109.36040885860265,27.7195229982959 109.51741056218042,28.696422487222858 109.63952299829536,29.11509369676316 109.98841567291372,29.760545144804407 110.3373083475296,30.685110732538362 110.56408858603055,31.156115843270427 110.80831345826292,31.557342419079315 111.78521294718986,32.95291311754657 112.08177172061399,33.63325383304941 112.43066439522987,34.208926746166235 112.55277683134481,34.48804088586019 112.62255536626799,35.09860306643984 113.02378194207812,36.70350936967663 113.1982282793873,38.029301533219474 113.75645655877271,40.14010221465116 113.72156729131237,41.0472231686537 113.52967632027178,41.79734241907971 113.49478705281142,42.12879045996542 113.5645655877346,43.262691652470146 113.68667802384954,44.20470187393551 113.79134582623554,44.501260647359636 113.98323679727366,44.76293015332217 114.71591141396826,45.425826235093595 115.0299148211238,45.82705281090248 115.34391822827934,46.36783645655896 115.64047700170346,47.013287904600205 115.84981260647298,47.72851788756339 116.30337308347488,49.56020442930112 116.32081771720628,49.943986371379836 116.26848381601452,50.29287904599696 116.07659284497393,50.95577512776838 117.6989437819409,52.63045996592835 118.2746166950602,53.014241908007065 119.7399659284494,53.781805792163254 120.2981942078373,54.23536626916514 120.69942078364494,54.688926746167034 121.13553662691542,55.2645996592851 121.85076660988108,56.43339011925018 122.67066439523028,57.49751277683173 122.91488926746263,57.916183986372026 123.05444633730899,58.40463373083426 123.2288926746157,59.95720613287929 123.29867120953887,60.32354344122659 124.13601362861947,61.89356047700179 124.450017035775,62.32967632027227 124.78146507666196,62.62623509369639 125.21758091993243,62.887904599658924 125.63625212947149,63.027461669506515 126.07236797274197,63.0623509369681 126.6654855195902,63.027461669506515 127.27604770016987,62.90534923339034 128.21805792163647,62.608790459966215 128.6018398637127,62.539011925043035 128.98562180579142,62.55645655877321 129.38684838160154,62.66112436115798 129.99741056218122,62.887904599658924 133.60844974446243,64.54514480408872 134.48068143100588,64.89403747870584 135.45758091993284,65.12081771720679 136.19025553662743,65.12081771720679 136.67870528108966,65.05103918228237 137.14971039182296,64.92892674616743 138.58017035775183,64.35325383304937 139.85362862010288,63.95202725724047 141.0573083475308,63.777580919932525 142.97621805792187,63.65546848381635 143.77867120953965,63.481022146507165 144.33689948892754,63.27168654173764 144.773015332198,63.044906303236694 146.37792163543358,62.033117546848146 146.70936967632053,61.89356047700179 147.09315161839925,61.87611584327038 148.05260647359478,62.06800681430973 149.36095400340622,62.190119250425916 150.1808517887554,62.32967632027227 152.79754684838073,62.99257240204493 153.5127768313464,63.219352640544635 153.9663373083483,63.44613287904558 154.21056218058064,63.65546848381635 154.83856899488924,64.51025553662713 155.4316865417375,65.12081771720679 156.89703577512915,66.2372742759801 157.33315161839963,66.51638841567281 158.3972742759787,66.9699488926747 160.49063032367897,67.73751277683088 161.39775127768274,67.94684838160165 162.42698466780146,68.01662691652483 163.00265758092078,67.91195911414006 163.26432708688208,67.73751277683088 163.3689948892681,67.52817717206135 163.33410562180526,67.26650766609882 163.21199318569032,67.0222827938677 163.0201022146522,66.79550255536675 162.2525383304948,66.16749574105692 161.67686541737794,65.59182282793886 161.31052810902816,65.17315161839855 161.13608177172145,64.71959114139666 161.15352640545288,64.47536626916553 161.2581942078364,64.26603066439476 161.50241908006876,64.07413969335666 161.83386712095324,63.91713798977888 163.26432708688208,63.46357751277699 165.53212947189152,62.870459965928745 167.08470187393533,62.62623509369639 168.86405451448005,62.52156729131163 169.24783645655876,62.539011925043035 169.5618398637143,62.608790459966215 169.99795570698478,62.765792163543985 170.5038500851784,63.027461669506515 171.56797274275996,63.777580919932525 171.88197614991552,63.91713798977888 172.19597955707104,63.98691652470206 172.54487223168692,64.00436115843223 173.64388415672883,63.88224872231729 174.32422487223167,63.88224872231729 177.63870528109126,64.26603066439476 179.12149914821185,64.68470187393507 179.4355025553674,64.84170357751283 180.2554003407166,65.4173764906309 180.918296422488,65.74882453151662 181.61608177172226,65.94071550255597 182.45342419080038,66.0977172061325 183.98855195911523,64.70214650766648 184.4944463373089,64.02180579216365 185.38412265758126,62.608790459966215 185.82023850085173,62.15522998296432 186.5354684838174,61.631890971039255 188.21015332197612,60.620102214650714 189.0300511073253,60.026984667802466 189.37894378194366,59.83509369676311 189.67550255536779,59.73042589437834 190.00695059625227,59.66064735945517 191.28040885860335,59.590868824531995 192.32708688245347,59.32919931856946 193.0946507666109,59.06752981260693 194.1936626916528,58.57908006814345 195.69390119250482,58.07318568994855 196.25212947189272,58.00340715502538 197.36858603066602,58.09063032367997 198.22337308347556,57.9859625212952 199.16538330494217,57.74173764906284 200.491175468485,57.44517887563872 201.24129471891104,57.166064735946016 203.31720613287987,56.53805792163494 205.06166950596426,55.700715502555575 205.61989778534968,55.2122657580921 206.30023850085252,54.4795911413975 206.5619080068138,54.252810902896556 207.1724701873935,54.462146507666084 207.8353662691649,54.61914821124385 208.89948892674644,54.72381601362862 210.05083475298258,54.636592844974025 210.81839863713753,54.462146507666084 211.39407155025683,54.30514480408832 212.42330494037554,53.90391822827943 213.41764906303393,53.38057921635436 216.92402044293163,51.16511073253792 218.14514480408846,50.5022146507665 219.50582623509413,49.92654173764843 220.77928449744522,49.612538330494125 221.87829642248713,49.49042589437795 223.13431005110925,49.507870528109365 224.51243611584385,49.682316865417306 225.94289608177272,50.048654173764604 227.11168654173778,50.48477001703632 228.47236797274346,51.09533219761474 232.1008517887561,53.04913117546865 233.0603066439541,53.52013628620072 234.5082112436119,54.043475298125784 235.8165587734258,54.34003407154991 236.5666780238518,54.40981260647308 237.57846678023913,54.4272572402045 238.34603066439655,54.374923339011495 239.28804088586068,54.200477001703554 240.54405451448034,53.85158432708643 243.49219761499262,52.73512776831312 244.45165247018818,52.42112436115882 245.6727768313475,52.1245655877347 246.6845655877348,52.037342419080105 247.33001703577727,52.05478705281028 248.01035775127764,52.14201022146487 248.58603066439696,52.31645655877281 249.03959114139883,52.543236797273764 249.3710391822833,52.75257240204453 249.77226575809343,53.13635434412324 250.05137989778615,53.5899148211239 250.20838160136393,53.99114139693402 250.2956047700185,54.706371379897206 250.26071550255568,55.50882453151622 250.0164906303258,56.66017035775112 249.51059625212966,58.50930153322027 249.40592844974614,59.032640545145334 249.31870528109155,59.852538330494525 249.3884838160147,61.0736626916526 249.78971039182485,63.67291311754652 249.8245996592852,64.30091993185759 249.80715502555378,65.06848381601378 249.71993185690167,65.7313798977852 249.49315161840073,66.70827938671216 249.2663713798998,67.37117546848359 248.9174787052814,68.20851788756418 248.06269165247187,69.72620102214638 244.99243611584467,74.54091993185675 244.2074275979558,75.69226575809165 242.41063032367967,78.13451448040904 241.64306643952472,79.32074957410553 241.13717206132858,80.2104258943779 240.7708347529813,80.97798977853533 239.5845996592848,83.7691311754686 239.23570698466892,84.37969335604826 238.88681431005304,84.88558773424191 238.32858603066515,85.47870528109016 237.63080068143088,86.03693356047681 236.95045996593052,86.4904940374787 234.45587734242014,87.93839863713772 233.56620102214777,88.53151618398721 232.74630323679858,89.17696763202721 231.68218057921703,90.11897785349258 230.75761499148183,91.06098807495795 229.93771720613265,92.0204429301535 229.18759795570665,93.03223168654205 228.5072572402063,94.25335604770012 228.17580919931933,95.03836456558771 227.9664735945498,95.66637137989756 227.75713798978026,96.52115843270957 227.65247018739427,97.23638841567275 227.56524701873968,99.74841567291332 227.46057921635614,100.48109028960916 227.35591141397015,100.86487223168663 227.164020442932,101.31843270868852 226.6930153321987,101.99877342419136 226.01267461669588,102.60933560477102 225.26255536626988,103.09778534923326 224.23332197615116,103.62112436115832 222.2446337308344,104.51080068143193 221.07584327086934,105.15625212947194 219.95938671209603,105.99359454855254 217.67413969335763,108.01717206132963 216.73212947189103,108.68006814310105 216.2436797274288,108.95918228279376 215.7901192504269,109.15107325383312 215.21444633731008,109.30807495741088 214.7783304940371,109.36040885860389 214.15032367972853,109.3255195911423 213.52231686541745,109.18596252129471 212.80708688245426,108.87195911414041 212.12674616695145,108.4532879046001 211.5336286201032,107.98228279386804 210.90562180579212,107.37172061328839 209.17860306643914,105.3481431005113 208.63781942078515,104.78991482112464 208.13192504258902,104.37124361158433 207.71325383304995,104.07468483816021 206.78868824531475,103.60367972742814 206.1083475298144,103.37689948892721 205.42800681431157,103.21989778534943 204.6953321976145,103.13267461669608 203.96265758091988,103.13267461669608 203.21253833049389,103.18500851788785 202.46241908006786,103.3245655877342 201.72974446337327,103.53390119250497 201.0319591141415,103.7955706984675 200.0899488926749,104.31890971039257 199.65383304940443,104.65035775127828 199.14793867121077,105.10391822828018 198.5199318568997,105.90637137989795 198.29315161839875,106.34248722316967 198.08381601362922,106.8309369676319 197.8919250425911,107.56361158432775 197.83959114139685,108.33117546848393 197.85703577512828,108.87195911414041 198.08381601362922,110.98275979557086 198.0663713798978,112.13410562180576 197.94425894378287,112.79700170357842 197.82214650766792,113.26800681431048 197.595366269167,113.89601362862031 197.40347529812638,114.33212947189203 197.1418057921651,114.7682453151625 196.75802385008637,115.30902896081774 196.0427938671207,116.04170357751359 195.51945485519565,116.44293015332246 195.08333901192518,116.70459965928501 194.57744463373152,116.94882453151612 194.03666098807503,117.1581601362869 193.0772061328795,117.36749574105642 192.10030664395254,117.47216354344118 190.86173764906428,117.4896081771726 188.15781942078436,117.41982964224943 187.07625212947138,117.41982964224943 185.8027938671203,117.52449744463419 184.4072231686543,117.78616695059672 182.90698466780228,118.25717206132879 182.19175468483908,118.55373083475415 181.40674616695026,118.95495741056304 180.48218057921753,119.5131856899497 179.81928449744612,119.96674616695158 178.45860306644045,121.08320272572489 177.76081771720618,120.43775127768365 177.20258943782076,119.827189097104 176.15591141397064,118.34439522998338 175.6674616695059,117.75127768313513 174.76034071550214,116.80926746166976 174.01022146507614,116.12892674616693 173.46943781942213,115.76258943781963 171.5854173764914,114.89035775127869 170.27706984667748,114.15768313458284 168.75938671209653,113.6168994889276 167.5382623509372,113.05867120954095 166.45669505962672,112.65744463373082 165.20068143100457,112.39577512776829 164.79945485519693,112.25621805792193 164.3982282793868,111.9945485519594 163.491107325383,111.15720613288003 162.65376490630243,110.59897785349338 162.02575809199382,110.28497444633784 160.40340715502685,109.65696763202801 158.118160136286,108.41839863713852 157.68204429301554,108.22650766609917 157.33315161839963,108.15672913117598 157.0191482112441,108.17417376490616 154.76879045996606,108.4881771720617 153.35577512776862,108.55795570698487 152.7801022146518,108.50562180579311 152.44865417376485,108.36606473594551 152.09976149914897,108.03461669505981 151.62875638841567,107.23216354344203 151.26241908006836,106.86582623509473 150.79141396933505,106.65649063032396 149.77962521294776,106.39482112436143 149.34350936967726,106.23781942078367 148.7155025553662,105.87148211243635 148.19216354344113,105.43536626916588 147.84327086882524,105.05158432708717 147.37226575809194,104.30146507666116 146.91870528109007,103.23734241908085 146.5872572402056,102.64422487223261 146.3081431005104,102.2604429301539 145.97669505962594,101.94643952299836 144.3892333901193,100.95209540034122 142.88899488926728,99.69608177172157 142.34821124361082,99.31229982964285 141.7027597955708,98.99829642248731 140.42930153321973,98.6668483816016 138.23127768313344,98.87618398637237 137.86494037478616,98.99829642248731 137.25437819420898,99.43441226575902 136.85315161839884,99.59141396933556 135.02146507665987,99.9577512776841 132.87577512776784,100.16708688245363 132.5617717206123,100.1845315161838 132.2826575809196,100.13219761499204 131.41042589437865,99.74841567291332 130.93942078364535,99.64374787052856 130.48586030664345,99.67863713799015 129.38684838160154,99.88797274275967 127.83427597955776,99.71352640545173 127.57260647359399,99.74841567291332 127.27604770016987,99.88797274275967 126.9445996592854,100.2368654173768 126.63059625212986,100.82998296422505 126.19448040885939,101.89410562180659 125.7583645655889,103.28967632027262 125.60136286201114,103.58623509369674 125.40947189097055,103.8304599659291 125.06057921635467,104.1444633730834 124.67679727427594,104.38868824531575 122.89744463373121,105.27836456558812 122.35666098807474,105.60981260647382 121.88565587734143,106.01103918228272 121.13553662691542,106.79604770017032 119.94930153321893,107.68572402044393 119.51318568994846,108.13928449744458 119.19918228279292,108.64517887563946 118.92006814310021,109.34296422487247 118.46650766609832,111.08742759795562 118.29206132878913,111.61076660988068 116.93137989778594,114.61124361158474 116.53015332197582,115.1345826235098 116.07659284497393,115.51836456558851 115.65792163543487,115.71025553662787 115.04735945485521,115.8672572402044 114.33212947189203,115.84981260647423 113.70412265758095,115.71025553662787 111.61076660988068,114.68102214650791 110.02330494037408,114.03557069846791 109.11618398637029,113.40756388415683 108.34862010221535,112.64000000000064 107.37172061328839,112.09921635434416 106.98793867120968,111.82010221465146 104.65035775127704,109.74419080068137 104.31890971039257,109.55229982964325 103.55134582623515,109.20340715502611 103.02800681431007,108.88940374787059 102.55700170357677,108.4532879046001 102.31277683134442,108.05206132879123 102.17321976149806,107.52872231686615 102.06855195911454,106.4645996592846 101.94643952299712,106.15059625213031 101.80688245315076,105.87148211243635 101.45798977853488,105.48770017035764 100.96954003407016,105.06902896081859 100.37642248722192,104.66780238500846 99.78330494037367,104.37124361158433 99.78330494037367,104.45846678023892 99.66119250425874,104.51080068143193 98.42262350937048,104.45846678023892 96.99216354344163,104.75502555366305 96.60838160136292,104.78991482112464 96.27693356047597,104.73758091993288 95.38725724020361,104.52824531516211 94.34057921635348,104.2142419080078 93.8172402044284,104.17935264054498 92.78800681430968,104.28402044293098 90.9563202725732,104.63291311754686 90.83420783645578,104.75502555366305 90.85165247018719,104.92947189097099 91.34010221464942,105.48770017035764 91.4971039182272,105.78425894378302 91.4971039182272,106.04592844974431 91.42732538330401,106.35993185689983 90.71209540034083,107.68572402044393 89.78752981260564,108.94173764906358 88.9327427597961,109.93608177172072 88.77574105621832,110.23264054514485 88.51407155025456,110.94787052810926 88.3570698466768,111.17465076661021 88.14773424190726,111.36654173764957 87.67672913117396,111.64565587734351 86.159045996593,112.25621805792193 84.92047700170227,112.83189097104 84.64136286200956,113.05867120954095 84.62391822827814,113.16333901192571 84.67625212947239,113.40756388415683 84.51925042589461,113.59945485519619 83.4027938671213,114.17512776831425 82.30378194207692,114.68102214650791 81.71066439522869,114.85546848381709 79.33819420783571,115.41369676320375 78.27407155025416,115.62303236797328 77.03550255536591,115.76258943781963 75.70971039182307,116.05914821124375 74.01758091993045,116.14637137989834 73.35468483815903,116.05914821124375 72.15100511073112,115.57069846678027 69.90064735945556,114.82057921635426 67.75495741056106,113.89601362862031 66.98739352640611,113.47734241908 65.5918228279376,112.50044293015429 64.19625212947159,111.75032367972828 64.004361158431,111.55843270868893 63.60313458262335,110.93042589437908 63.219352640544635,110.4768654173772 62.6436797274278,109.9709710391823 62.22500851788626,109.6918568994896Z"/>
  </g>
</svg>