<?xml version="1.0" encoding="UTF-8" standalone="no"?>
<svg viewBox="0 0 131.18483412322274 256" xmlns="http://www.w3.org/2000/svg">
  <style>
    g.zone {
      fill: lightgray;
      stroke-width: 2;
      stroke-linecap: square;
      stroke-linejoin: bevel;
      stroke-miterlimit: 3;
      stroke-opacity: 0.8;
      stroke: black;
      fill-opacity: 0.3;
    }
  </style>
  <g class="zone" id="zone">
    <path d="M105.18483412322306,205.62085308056862 105.34597156398131,206.71090047393403 105.71563981042696,208.50236966824636 105.87677725118522,209.0805687203794 106.05687203791432,209.56398104265418 106.2843601895739,210.09478672985807 106.464454976303,210.4360189573461 106.8056872037917,211.00473933649303 107.12796208530821,211.45971563981087 107.75355450237039,212.2085308056876 108.08530805687165,212.5402843601895 108.4549763033173,212.87203791469213 109.70616113744029,213.8104265402847 110.16113744075813,214.18009478673036 110.5971563981051,214.616113744076 110.89099526066332,215.00473933649315 111.17535545023678,215.497630331754 111.27014218009505,215.73459715639834 111.35545023696723,216.04739336492943 111.42180094786721,216.55924170616115 111.43127962085332,217.59241706161131 111.47867298578245,217.86729857819938 111.53554502369633,218.05687203791456 111.67772511848375,218.3127962085311 111.87677725118503,218.54028436019001 112.07582938388633,218.70142180094825 112.34123222748896,218.85308056872043 112.5687203791472,218.9383886255926 112.85308056872066,219.02369668246476 113.42180094786761,219.08056872037935 114.02843601895758,219.0426540284363 114.6729857819906,218.909952606635 115.23222748815145,218.7393364928913 115.77251184834145,218.54028436019001 118.39810426540267,217.34597156398158 119.08056872037872,217.08056872037963 119.66824644549786,216.8720379146922 120.47393364928914,216.64454976303333 122.3601895734604,216.18957345971617 124.45497630331772,215.53554502369704 125.09952606635073,215.40284360189574 125.81042654028509,215.32701421800965 126.21800947867378,215.31753554502424 126.70142180094854,215.34597156398118 127.54502369668285,215.4691943127964 128.38862559241716,215.70616113744072 129.14691943127931,216.02843601895725 129.8199052132706,216.40758293838897 130.15165876777323,216.64454976303333 130.42654028436058,216.88151658767765 130.64454976303273,217.10900473933657 130.88151658767842,217.42180094786764 131.00473933649363,217.64928909952656 131.10900473933665,217.9052132701424 131.1658767772519,218.15165876777283 131.18483412322274,218.40758293838869 131.14691943127968,218.74881516587672 131.08056872037972,218.99526066350717 130.97630331753535,219.26066350710911 130.77725118483406,219.58293838862562 130.58767772511885,219.81990521327063 130.32227488151622,220.08530805687258 129.8957345971567,220.4265402843606 129.3554502369667,220.78672985782015 127.58293838862589,221.79146919431273 126.92890995260677,222.1990521327014 126.36018957345983,222.58767772511857 125.88625592417117,222.96682464454963 125.36492890995336,223.4502369668251 124.84360189573421,223.99052132701442 123.45971563981125,225.70616113744066 122.92890995260734,226.3033175355452 122.3601895734604,226.86255924170607 121.8199052132704,227.28909952606625 121.28909952606651,227.63981042654038 120.71090047393346,227.92417061611386 120.07582938388654,228.16113744075818 118.90047393364962,228.4928909952608 118.43601895734571,228.65402843601905 117.93364928910009,228.89099526066337 117.45971563981007,229.21327014218056 117.22274881516574,229.4218009478673 116.96682464455056,229.69668246445534 116.56872037914663,230.23696682464467 116.36966824644533,230.6066350710903 116.20853080568708,230.94786729857833 116.07582938388711,231.3080568720379 115.9336492890997,231.78199052132723 115.82938388625668,232.2938388625596 115.73459715639841,232.90047393364958 115.58293838862625,234.98578199052147 115.45023696682493,236.22748815165906 115.27962085308059,237.37440758293837 115.09004739336538,238.31279620853095 114.83412322274886,239.26066350710897 114.56872037914758,240.09478672985784 114.28436018957412,240.83412322274916 113.630331753555,242.40758293838866 113.39336492891066,243.04265402843626 113.20379146919412,243.64928909952624 113.07109004739415,244.22748815165926 112.96682464454979,245.05213270142207 112.82464454976372,247.13744075829396 112.82464454976372,247.76303317535545 112.9004739336498,248.36018957346002 113.03317535544977,248.8625592417063 113.2132701421802,249.27962085308107 113.49763033175368,249.76303317535584 113.81990521327019,250.17061611374453 114.09478672985757,250.44549763033191 114.41706161137408,250.73933649289148 115.63033175355403,251.65876777251185 116.09478672985796,252.05687203791513 116.42654028436057,252.38862559241707 117.24170616113794,253.30805687203812 117.61137440758358,253.67772511848378 118.09478672985834,254.02843601895722 118.55924170616092,254.29383886255917 119.02369668246483,254.50236966824656 120.52132701421827,255.10900473933654 120.9573459715639,255.30805687203784 121.17535545023739,255.43127962085305 121.30805687203869,255.55450236966828 121.36492890995258,255.65876777251196 121.36492890995258,255.71563981042652 121.26066350710956,255.81990521327023 121.0805687203791,255.8957345971563 120.56872037914741,255.97156398104306 119.8388625592422,256 117.64928909952663,256 111.70616113744069,255.83886255924173 108.5971563981047,255.7914691943133 87.09952606635142,255.74407582938414 86.39810426540316,255.71563981042652 85.96208530805754,255.6777251184835 85.48815165876752,255.5829383886259 85.1943127962093,255.4881516587683 84.95734597156363,255.3744075829385 84.74881516587757,255.2037914691948 84.62559241706236,255.02369668246436 84.56872037914712,254.85308056872069 84.55924170616103,254.57819905213265 84.60663507109017,254.33175355450288 84.70142180094844,254.05687203791484 84.89099526066364,253.63033175355463 85.47867298578278,252.59715639810446 85.94312796208534,251.83886255924165 86.4549763033184,251.0710900473934 87.05213270142228,250.24644549763062 87.72511848341225,249.43127962085325 88.34123222748832,248.74881516587718 90.26540284360263,246.81516587677746 90.67298578199131,246.3222748815166 90.9383886255926,245.924170616114 91.11848341232304,245.57345971563987 91.25118483412301,245.26066350710946 91.33649289099519,244.95734597156448 91.40284360189652,244.6350710900473 91.44075829383955,244.0473933649288 91.41232227488126,243.05213270142167 91.41232227488126,242.70142180094822 91.4691943127965,242.30331753554495 91.58293838862562,241.9431279620854 91.77251184834081,241.56398104265435 92.02843601895734,241.1943127962087 92.38862559241689,240.76777251184848 93.19431279620817,239.90521327014267 93.59241706161211,239.40284360189568 93.75355450237036,239.13744075829374 93.86729857819948,238.890995260664 93.95260663507165,238.64454976303355 93.99052132701469,238.38862559241704 93.9810426540286,237.99052132701445 93.85781990521338,237.6208530805688 93.64928909952599,237.30805687203838 93.35545023696642,237.0236966824649 93.03317535544991,236.8151658767775 92.62559241706123,236.60663507109012 90.86255924170652,235.94312796208558 90.08530805687218,235.58293838862605 89.73459715639873,235.36492890995254 89.41232227488223,235.0995260663506 89.11848341232266,234.79620853080561 88.91943127962136,234.51184834123214 88.72037914692007,234.11374407582954 88.6161137440757,233.69668246445545 88.56872037914655,233.30805687203826 88.54028436018962,232.22748815165895 88.49289099526048,231.91469194312788 88.41706161137441,231.60189573459746 88.18957345971617,230.99526066350748 87.44075829383878,229.45971563981033 87.28909952606662,229.05213270142232 87.19431279620835,228.7014218009482 87.13744075829446,228.36018957346016 87.11848341232226,227.9905213270145 87.14691943127922,227.62085308056888 87.22274881516664,227.27962085308084 87.3554502369666,226.90047393364978 87.61137440758313,226.36966824644585 87.82938388625662,226.01895734597173 88.23696682464531,225.4597156398109 90.00000000000001,223.31753554502376 90.43601895734564,222.8436018957351 91.35545023696739,221.92417061611403 91.74407582938387,221.48815165876775 91.9905213270143,221.17535545023733 92.17061611374476,220.86255924170624 92.31279620853081,220.54976303317582 92.39810426540299,220.2085308056871 92.44549763033213,219.8767772511852 92.44549763033213,219.49763033175344 92.42654028435993,219.20379146919456 92.33175355450301,218.7109004739337 91.92417061611432,217.2701421800948 91.79146919431301,216.58767772511877 91.77251184834081,216.24644549763073 91.8009478672991,215.94312796208573 91.83886255924214,215.71563981042684 91.93364928909907,215.42180094786727 92.07582938388649,215.11848341232226 92.31279620853081,214.7488151658773 93.582938388626,213.22274881516626 93.85781990521338,212.83412322274907 94.14218009478685,212.36018957345973 94.37914691943118,211.90521327014258 94.58767772511858,211.41232227488172 95.0331753554503,209.99052132701436 95.19431279620855,209.56398104265418 95.41232227488204,209.09952606635093 95.61137440758334,208.7582938388629 95.88625592417071,208.41706161137486 96.18957345971637,208.1232227488153 96.68246445497589,207.75355450236967 97.5355450236963,207.1943127962088 97.81042654028502,206.98578199052142 98.11374407582935,206.71090047393403 98.35071090047367,206.39810426540296 98.53080568720412,206.05687203791493 98.63507109004715,205.73459715639842 98.6066350710902,205.29857819905212 98.4739336492889,204.8720379146919 98.32227488151673,204.61611374407605 98.08530805687239,204.3317535545026 97.24170616113808,203.48815165876826 96.85308056872024,203.05213270142198 96.52132701421763,202.61611374407633 95.78199052132769,201.58293838862548 95.31753554502377,201.05213270142227 94.99526066350727,200.7772511848342 94.65402843601856,200.58767772511902 94.27488151658817,200.4549763033177 93.88625592417033,200.38862559241704 93.54502369668296,200.38862559241704 93.21327014218036,200.41706161137466 92.83412322274862,200.50236966824684 92.502369668246,200.60663507109052 92.17061611374476,200.73933649289117 91.8009478672991,200.92890995260703 91.19431279620912,201.32701421800962 90.86255924170652,201.6113744075831 90.58767772511915,201.87677725118505 90.03791469194304,202.50236966824656 89.58293838862522,203.15639810426566 88.63507109004789,204.68246445497672 88.36018957346052,205.0616113744078 88.11374407583008,205.34597156398127 87.78199052132749,205.6398104265408 87.51658767772486,205.8104265402845 87.32701421800965,205.9052132701421 86.92890995260707,206.0379146919434 86.4454976303323,206.12322274881558 84.34123222748889,206.2180094786732 83.76303317535586,206.28436018957385 82.06635071090113,206.52132701421817 80.8815165876781,206.60663507109035 80.09478672985769,206.60663507109035 79.12796208530816,206.5592417061612 78.35071090047383,206.48341232227514 77.54502369668255,206.3601895734599 76.55924170616082,206.17061611374405 73.30805687203878,205.44075829383885 72.34123222748791,205.16587677725147 71.31753554502448,204.82464454976343 70.31279620853057,204.40758293838866 69.47867298578235,203.99052132701456 69.1184834123228,203.76303317535564 68.7962085308063,203.52606635071132 68.50236966824673,203.27014218009478 68.22748815165936,202.9857819905213 67.84834123222761,202.4739336492896 67.60189573459718,201.97156398104264 67.45971563981112,201.44075829383874 67.40284360189588,200.9004739336494 67.44075829383893,200.2559241706164 67.56398104265413,199.54502369668273 67.89573459715675,198.09478672985776 68.13270142180109,197.27014218009495 68.36966824644541,196.5876777251189 69.0995260663506,194.73933649289134 69.81042654028496,192.62559241706182 70.14218009478756,191.83886255924207 70.48341232227493,191.1469194312799 70.9004739336497,190.4454976303317 72.50236966824616,188.04739336492938 73.0710900473931,187.09004739336527 73.45971563981094,186.31279620853093 73.80094786729829,185.5639810426542 74.08530805687177,184.834123222749 74.26540284360222,184.25592417061665 74.38862559241743,183.6587677725121 74.43601895734656,183.09952606635125 74.44549763033132,182.46445497630364 74.39810426540353,181.93364928909975 74.30331753554525,181.32701421800977 74.18009478673004,180.8246445497635 73.99999999999959,180.33175355450263 73.7535545023705,179.82938388625635 73.54502369668312,179.47867298578223 73.30805687203878,179.19431279620875 72.91943127962094,178.81516587677768 72.55924170616139,178.55924170616115 72.26540284360182,178.37914691943138 71.8199052132701,178.16113744075855 70.5687203791471,177.6492890995262 69.97156398104322,177.3744075829388 69.36492890995324,177.01421800947858 68.80568720379104,176.60663507109058 68.30331753554543,176.13270142180122 67.38388625592503,175.12796208530798 66.88151658767808,174.6255924170617 66.31279620853114,174.1232227488154 64.78672985782076,172.8246445497633 63.83886255924208,171.95260663507136 63.00473933649252,171.0805687203794 62.21800947867344,170.1327014218014 61.81990521327084,169.5924170616114 61.4407582938391,169.02369668246448 61.09004739336565,168.4454976303321 60.75829383886305,167.83886255924213 60.1990521327022,166.6635071090052 59.20379146919438,164.30331753554526 58.73933649289181,163.26066350710897 58.34123222748787,162.4834123222753 57.91469194312834,161.83886255924162 57.507109004739654,161.34597156398144 56.398104265402715,160.12322274881538 55.19431279620885,158.73933649289108 54.50236966824669,158.00947867298586 53.61137440758324,157.2037914691946 51.933649289099364,155.87677725118485 51.51658767772593,155.49763033175378 51.12796208530809,155.0995260663512 50.61611374407638,154.50236966824664 49.98104265402811,153.70616113744077 49.30805687203815,152.7962085308058 48.7582938388634,151.99999999999997 47.24170616113778,149.6398104265407 46.815165876776895,148.87203791469247 46.50236966824649,148.1800947867303 44.29383886256005,142.909952606635 43.81042654028394,141.8862559241709 43.327014218009175,140.95734597156442 42.426540284360975,139.42180094786727 41.44075829383925,137.91469194312842 40.417061611374486,136.49289099526106 39.99999999999971,135.9810426540287 39.507109004740194,135.42180094786784 38.56872037914761,134.4928909952607 36.6445497630333,132.78672985781986 34.50236966824684,130.70142180094797 33.943127962085995,130.2085308056878 33.31753554502382,129.71563981042692 29.658767772511748,127.1848341232233 27.924170616113983,126.0189573459718 21.601895734597655,122.03791469194321 20.094786729858125,121.0805687203791 19.55450236966813,120.70142180094804 18.985781990521186,120.26540284360242 18.625592417061636,119.95260663507133 18.274881516588184,119.58293838862568 18.056872037914697,119.3080568720383 17.924170616113383,119.0900473933655 17.72511848341209,118.6445497630331 17.630331753555165,118.17061611374443 17.639810426539913,117.63981042654052 17.76303317535513,117.0900473933651 18.00947867298556,116.49289099526122 18.36018957346036,115.91469194312818 18.61611374407554,115.58293838862558 18.834123222749028,115.35545023696734 19.23222748815162,115.05213270142235 19.639810426540304,114.85308056872039 20.123222748815067,114.74881516587736 20.597156398105085,114.72985781990516 21.042654028436807,114.75829383886278 21.763033175355908,114.881516587678 23.526066350710614,115.23222748815212 24.407582938389318,115.46919431279646 25.175355450237554,115.74407582938383 25.829383886256668,116.06635071090102 26.4454976303314,116.47393364928902 27.516587677725298,117.26066350710946 27.876777251184848,117.49763033175378 28.44549763033179,117.81042654028488 29.05213270142177,118.08530805687225 31.251184834123453,118.96682464455027 31.810426540284297,119.22274881516613 32.42654028436037,119.54502369668265 32.83412322274906,119.78199052132697 33.383886255923805,120.15165876777262 35.14691943127986,121.56398104265455 36.71090047393328,122.66350710900471 37.317535545023254,123.13744075829406 38.037914691943705,123.77251184834165 39.677725118483195,125.37440758293879 40.142180094787115,125.75355450236985 40.51184834123276,126.00000000000028 41.061611374407505,126.30331753554528 41.63981042654054,126.54976303317571 44.5023696682461,127.59241706161131 45.355450236966504,127.94312796208544 46.10426540284389,128.27488151658804 46.93838862559211,128.68246445497672 47.819905213270815,129.1753554502369 48.445497630331644,129.5639810426541 49.355450236967286,130.17061611374407 50.21800947867379,130.81516587677777 50.96682464454984,131.44075829383925 53.41232227488195,133.6587677725118 55.38388625592405,135.26066350710892 56.398104265402715,136.1990521327015 57.63033175355487,137.43127962085367 58.43601895734614,138.35071090047404 59.82938388625655,140.1990521327016 61.611374407583455,142.22748815165895 62.02843601895689,142.78672985782046 62.322274881516456,143.22274881516609 62.767772511848186,143.9715639810428 63.146919431279926,144.68246445497647 64.72037914691944,147.9431279620853 65.49763033175377,149.41232227488177 66.49289099526024,151.14691943127954 67.03317535545024,151.971563981043 67.42180094786808,152.52132701421843 67.88625592417065,153.1090047393369 68.41706161137455,153.69668246445536 70.9004739336497,156.1421800947868 72.86255924170571,158.20853080568716 73.47867298578178,158.90047393364932 74.08530805687177,159.69668246445517 74.39810426540353,160.18957345971603 74.6729857819909,160.71090047393383 74.93838862559218,161.31753554502382 75.54502369668215,162.8341232227488 75.80094786729869,163.4028436018957 76.09478672985826,163.9241706161142 76.55924170616082,164.60663507109027 77.06161137440778,165.2037914691948 77.34597156398125,165.4881516587683 77.78199052132688,165.85781990521326 78.48341232227513,166.35071090047413 79.75355450237032,167.14691943127997 80.33175355450201,167.56398104265406 80.83412322274897,168.03791469194343 81.07109004739331,168.3317535545023 81.34597156398068,168.70142180094797 81.58293838862636,169.09004739336513 81.8009478672985,169.51658767772534 81.99052132701505,169.96208530805706 82.14218009478721,170.38862559241727 82.28436018957328,170.99526066350725 82.46445497630371,172.16113744075875 82.65402843601892,173.17535545023742 83.02369668246456,174.67298578199083 83.29857819905193,175.58293838862582 83.63033175355454,176.54976303317534 84.00000000000018,177.497630331754 84.40758293838887,178.43601895734594 84.84360189573451,179.3649289099531 85.30805687203842,180.27488151658807 85.76303317535624,181.0710900473939 86.41706161137401,182.16113744075867 86.9763033175362,183.01421800947907 87.57345971564008,183.8578199052134 88.27488151658834,184.7867298578199 88.91943127962136,185.58293838862573 90.14218009478742,186.95734597156394 90.85308056872042,187.68720379146916 91.6492890995256,188.43601895734585 92.41706161137519,189.10900473933648 93.09004739336514,189.6587677725119 93.7914691943134,190.1706161137443 94.5023696682464,190.64454976303364 94.93838862559203,190.90995260663558 95.53554502369725,191.222748815166 97.37440758293805,192.0473933649288 98.69194312796238,192.72985781990553 99.39336492891063,193.07109004739357 102.65402843601876,194.52132701421854 104.81516587677741,195.36492890995285 105.66824644549783,195.75355450237 106.36018957345998,196.1611374407587 106.90995260663473,196.5592417061613 107.48815165876776,197.09004739336518 107.91469194312864,197.60189573459758 108.16113744075908,198.0379146919432 108.28436018957429,198.39810426540274 108.31279620853124,198.60663507109012 108.32227488151733,198.84360189573513 108.2464454976299,199.1943127962086 108.09478672985774,199.50710900473968 107.80094786729818,199.91469194312836 106.57819905213347,201.16587677725138 106.19905213270172,201.6208530805692 105.84834123222828,202.12322274881546 105.5450236966826,202.68246445497633 105.30805687203828,203.2890995260663 105.2037914691939,203.73459715639802 105.15639810426612,203.99999999999997 105.12796208530783,204.48341232227543 105.11848341232307,204.9099526066356 105.18483412322306,205.62085308056862Z"/>
    <path d="M128.21800947867283,84.82464454976298 128.18009478672977,85.21327014218015 127.96208530805764,86.18009478673035 127.95260663507153,86.35071090047403 127.96208530805764,86.59715639810446 128.01895734597153,86.82464454976338 128.1042654028437,87.02369668246467 128.60663507109066,88.0000000000003 128.73933649289063,88.3317535545029 128.8246445497628,88.65402843601942 128.90995260663496,89.10900473933656 128.9763033175363,89.64928909952656 129.01421800947935,90.29383886255958 129.00473933649323,90.8341232227489 128.9573459715641,91.35545023696739 128.8246445497628,91.96208530805735 128.22748815165892,93.72511848341274 127.88625592417021,94.96682464455031 127.75355450237025,95.35545023696682 127.53554502369676,95.83886255924224 127.20379146919414,96.33175355450244 126.73933649289158,96.84360189573482 126.21800947867378,97.32701421800958 125.11848341232293,98.25592417061607 122.96682464455039,99.9620853080569 122.7393364928908,100.11374407582973 122.51184834123256,100.23696682464494 122.0189573459717,100.3886255924171 121.74407582938433,100.43601895734623 121.30805687203869,100.46445497630386 120.80568720379173,100.44549763033234 120.34123222748782,100.3886255924171 119.45971563981047,100.20853080568733 117.35545023696706,99.63033175355497 116.79620853080621,99.5355450236967 116.22748815165927,99.49763033175365 115.31753554502363,99.50710900473975 112.3507109004737,99.70616113744104 111.50710900473939,99.80094786729865 109.70616113744029,100.07582938388668 108.90047393364902,100.15165876777277 108.48341232227558,100.16113744075886 108.13270142180079,100.13270142180124 107.81042654028428,100.07582938388668 107.47867298578167,99.98104265402841 107.22274881516648,99.8672985781993 106.97630331753606,99.71563981042647 106.74881516587648,99.5355450236967 106.51184834123214,99.30805687203845 105.36492890995216,97.876777251185 103.88625592417092,96.13270142180114 103.53554502369747,95.6682464454979 103.251184834124,95.2322274881516 103.04265402843662,94.82464454976359 102.65402843601876,93.92417061611404 102.5118483412327,93.6872037914697 102.34123222748836,93.47867298578231 102.10426540284402,93.27014218009492 101.7914691943136,93.09952606635125 101.46919431279575,92.97630331753602 100.52132701421841,92.70142180094798 100.22748815165885,92.58767772511887 100.00947867298537,92.45497630331755 99.79146919431322,92.27488151658777 99.62085308056886,92.07582938388649 99.47867298578281,91.81042654028452 99.37440758293843,91.47867298578193 99.30805687203845,91.12796208530847 99.27962085308016,90.78672985782043 99.27014218009542,90.1137440758298 99.3270142180093,89.4881516587683 99.5260663507106,87.9052132701427 99.57345971563973,86.60663507109057 99.61137440758277,86.13270142180122 99.76303317535627,85.41232227488145 100.16113744075886,84.23696682464453 100.30331753554492,83.75355450236975 100.54976303317535,82.45497630331762 100.61611374407669,82.2464454976309 100.7298578199058,82.018957345972 100.9289099526071,81.79146919431308 101.27014218009445,81.57345971564027 101.69668246445534,81.43127962085353 102.23696682464534,81.32701421800984 103.06161137440745,81.27014218009528 104.02843601895698,81.24170616113766 106.39810426540302,81.31753554502374 106.88151658767778,81.31753554502374 107.38388625592475,81.25118483412376 107.5545023696691,81.19431279620852 107.70616113744126,81.10900473933702 107.83886255924122,81.00473933649333 107.9241706161134,80.8815165876781 107.99052132701472,80.71090047393376 108.00947867298557,80.52132701421856 107.97156398104254,80.1327014218014 107.7345971563982,78.98578199052142 107.66824644549821,78.37914691943143 107.68720379146906,77.82938388625601 107.7440758293843,77.54502369668255 107.82938388625647,77.30805687203821 107.97156398104254,77.00473933649322 108.13270142180079,76.73933649289127 108.32227488151733,76.49289099526084 108.56872037914776,76.2464454976304 108.83412322274904,76.0379146919437 109.09952606635032,75.87677725118476 109.47867298578205,75.70616113744109 109.78199052132773,75.61137440758348 110.18957345971641,75.53554502369673 110.62559241706204,75.50710900473979 111.14691943127984,75.51658767772521 112.75829383886239,75.60189573459739 113.35545023696763,75.58293838862588 114.50236966824626,75.51658767772521 114.98578199052102,75.51658767772521 115.33649289099581,75.54502369668283 115.70616113744147,75.61137440758348 116.03791469194272,75.70616113744109 116.4454976303314,75.88625592417085 116.83412322274926,76.10426540284368 117.17535545023661,76.3601895734602 117.68720379146966,76.79620853080583 118.23696682464441,77.31753554502363 118.75829383886222,77.87677725118515 119.19431279620919,78.40758293838906 120.18957345971566,79.8199052132703 120.44549763033218,80.09478672985836 120.73933649289175,80.29383886255965 121.03317535544997,80.41706161137486 121.48815165876779,80.50236966824704 121.90521327014258,80.52132701421856 123.2606635071086,80.46445497630333 123.78199052132776,80.49289099526095 124.24644549763032,80.56872037914702 124.70142180094815,80.69194312796225 125.20379146919511,80.8815165876781 125.68720379146987,81.13744075829396 126.10426540284331,81.42180094786744 126.511848341232,81.78199052132699 126.95734597156371,82.26540284360243 127.3649289099524,82.78672985782023 127.75355450237025,83.3649289099526 127.94312796208544,83.6966824644552 128.1042654028437,84.09478672985779 128.19905213270198,84.49289099526105 128.21800947867283,84.82464454976298Z"/>
    <path d="M22.132701421801553,49.829383886255954 22.028436018957184,50.227488151659216 21.943127962085008,50.68246445497636 21.90521327014197,51.099526066351146 21.82938388625589,52.35071090047415 21.772511848342006,52.78672985782045 21.64928909952679,53.19431279620913 21.488151658768533,53.50710900473955 21.241706161138104,53.79146919431302 20.919431279621595,54.04739336492887 20.521327014217658,54.26540284360236 19.526066350711183,54.70142180094799 18.93838862559205,55.00473933649298 18.436018957346437,55.32701421800949 18.132701421800775,55.5545023696684 17.8578199052134,55.80094786729883 17.431279620853868,56.274881516588174 17.11848341232211,56.79620853080598 17.014218009479087,57.03317535545031 16.909952606634718,57.3459715639814 16.843601895734736,57.84834123222768 16.872037914691678,58.265402843602466 16.938388625593007,58.54028436018984 17.014218009479087,58.72037914691961 17.232227488151228,59.09004739336526 17.412322274881678,59.29857819905265 17.620853080569066,59.497630331753946 18.03791469194385,59.80094786729894 18.54976303317556,60.07582938388631 20.23696682464419,60.815165876777606 20.853080568720262,61.14691943128021 21.213270142179812,61.41232227488149 21.497630331753285,61.687203791469535 21.725118483412867,61.971563981043005 21.914691943128066,62.274881516587996 22.066350710900224,62.616113744076024 22.18009478673069,62.976303317535574 22.236966824644576,63.29857819905208 22.265402843601517,63.81990521327056 22.25592417061677,64.35071090047447 22.123222748815458,66.09478672985833 22.047393364929377,66.63507109004765 21.924170616114164,67.14691943128003 21.810426540285043,67.49763033175415 21.14691943127983,69.19431279620888 20.739336492891145,70.61611374407623 20.587677725118986,71.04265402843644 20.388625592417693,71.44075829383902 20.23696682464419,71.65876777251185 20.056872037915085,71.86729857819924 19.829383886255503,72.06635071090054 19.488151658768146,72.27488151658793 19.014218009479478,72.4549763033177 18.587677725118596,72.54028436018987 18.0473933649286,72.57819905213292 17.412322274881678,72.5497630331753 16.834123222748637,72.4644549763038 16.047393364929558,72.30331753554553 15.270142180095226,72.07582938388663 14.50236966824699,71.8199052132701 13.734597156398754,71.5260663507112 12.492890995260504,70.97630331753578 11.478672985781838,70.43601895734646 10.928909952607091,70.08530805687234 10.5308056872045,69.79146919431277 9.876777251185384,69.2132701421804 9.260663507109307,68.54028436018977 6.881516587678522,65.41232227488159 6.331753554502428,64.60663507109032 5.9241706161137415,63.90521327014274 4.473933649289447,61.14691943128021 3.696682464455115,59.79146919431284 3.1753554502373107,59.052132701422224 2.1516587677725476,57.92417061611376 1.7819905213269016,57.45971563981052 1.4691943127964882,56.98578199052185 1.2417061611382507,56.54028436019012 1.0236966824647629,56.00000000000013 0.7962085308065253,55.3649289099532 0.5308056872039012,54.48341232227518 0.3886255924178395,53.91469194312823 0.29383886255956704,53.39336492891043 0.23696682464433416,52.90995260663566 0.1421800947874087,51.2606635071094 0,50.454976303318126 1.0616113744078024,50.369668246445954 1.933649289100407,50.23696682464464 2.919431279620783,50.284360189573775 3.2606635071094865,50.26540284360225 3.800947867298137,50.1990521327016 5.118483412322467,49.97156398104269 5.364928909952898,49.98104265402878 5.9810426540289745,50.11374407582942 6.199052132701116,50.11374407582942 6.322274881516331,50.075829383886386 6.938388625592408,49.772511848341395 7.886255924171092,49.4786729857825 8.15165876777237,49.336492890995764 8.369668246445856,49.184834123222934 8.540284360190208,49.00473933649316 8.64454976303323,48.83412322274881 8.672985781990173,48.64454976303361 8.616113744076287,48.170616113744266 8.68246445497627,48.03791469194363 8.805687203791486,47.952606635071454 9.431279620853658,47.81990521327014 9.75355450237017,47.67772511848341 9.924170616114521,47.639810426540365 10.417061611374034,47.611374407583426 11.033175355450112,47.69668246445492 11.232227488151407,47.70616113744102 12.00947867298574,47.48815165876821 13.279620853080932,47.28909952606691 13.810426540284833,47.18483412322322 14.227488151659616,47.04265402843648 14.8246445497635,46.65402843601932 15.165876777250856,46.483412322274965 16.132701421801734,46.180094786729974 16.58767772511821,46.10426540284389 16.881516587677776,46.123222748815415 17.21327014218038,46.23696682464453 18.170616113743815,46.73933649289149 18.5781990521325,46.995260663507345 19.17535545023773,47.47867298578211 20.274881516587225,48.57819905213295 20.72985781990505,49.00473933649316 20.995260663507672,49.19431279620903 21.22274881516591,49.29857819905273 21.601895734597655,49.37440758293881 21.886255924171124,49.37440758293881 22.32227488151675,49.31753554502425 22.132701421801553,49.829383886255954Z"/>
    <path d="M19.97156398104291,37.32701421801003 20.15165876777336,36.767772511848506 20.284360189573324,36.436018957346576 20.815165876777225,35.48815165876789 20.966824644549384,35.15639810426596 21.0900473933646,34.71090047393423 21.137440758293735,34.293838862559454 21.137440758293735,34.0284360189575 21.05213270142156,33.573459715640354 21.042654028436807,33.17535545023709 20.985781990521577,32.98578199052189 20.777251184834185,32.48341232227493 20.265402843602477,31.725118483412796 20.123222748815067,31.46919431279627 20.57819905213289,31.677725118483657 20.95734597156463,31.79146919431278 21.402843601896357,31.857819905213432 21.83886255924199,31.86729857819953 22.28436018957371,31.82938388625649 22.928909952606734,31.744075829384315 23.810426540284087,31.516587677725404 24.085308056872808,31.383886255924764 24.255924170615813,31.222748815165836 24.379146919431026,30.995260663507597 24.426540284360165,30.521327014218258 24.388625592417124,29.668246445497847 24.4644549763032,29.459715639810454 24.654028436019747,29.24170616113764 24.824644549762752,29.12796208530852 25.355450236966654,28.91943127962113 26.284360189573142,28.35071090047419 26.502369668246633,28.151658767772894 26.777251184834007,27.81990521327029 26.90995260663532,27.734597156398113 27.412322274882275,27.601895734597473 27.526066350711396,27.545023696682915 27.924170616113983,27.251184834123347 28.39810426540265,27.033175355450535 29.099526066350904,26.834123222749238 30.113744075829572,26.606635071090327 30.350710900473906,26.52132701421815 30.47393364928912,26.426540284360552 30.51184834123216,26.322274881516858 30.502369668246065,26.180094786730123 30.26540284360173,25.44075829383883 30.123222748815667,25.260663507109054 29.72511848341308,24.98578199052168 29.45023696682436,24.710900473933634 29.35545023696743,24.5687203791469 29.31753554502439,24.44549763033236 29.31753554502439,24.331753554502566 29.37440758293828,24.236966824644966 29.478672985782648,24.17061611374431 29.67772511848394,24.123222748815174 29.857819905213045,24.11374407582975 30.284360189573924,24.15165876777279 30.644549763033474,24.11374407582975 31.00473933649302,24.01895734597215 31.213270142180413,23.914691943128457 31.308056872038687,23.79146919431324 31.37440758293867,23.649289099526506 31.47867298578169,23.308056872038474 31.573459715639963,22.843601895734558 31.639810426539945,22.672985781990878 31.781990521327355,22.483412322275008 31.98104265402865,22.369668246445887 32.50236966824645,22.27488151658829 32.919431279621236,22.246445497630674 34.36018957345944,22.36018957345979 34.57819905213292,22.312796208531328 34.938388625592474,22.151658767773075 35.11848341232292,21.990521327014818 35.27014218009508,21.800947867298948 35.36492890995335,21.611374407583074 35.50710900473941,21.20379146919439 35.86729857819896,20.606635071090505 36.17061611374463,20.189573459715724 36.2464454976307,20.018957345972044 36.27488151658765,19.85781990521379 36.53080568720417,19.89573459715683 36.88151658767763,19.886255924170733 37.1658767772511,19.867298578199215 37.37440758293849,19.800947867298557 37.45971563981067,19.715639810427056 37.677725118484155,19.336492890995313 37.90521327014239,19.09004739336488 38.12322274881588,18.96682464455034 38.58767772511845,18.805687203792086 38.70142180094757,18.68246445497687 38.99526066350714,18.255924170616666 39.11848341232235,18.12322274881535 39.327014218009744,17.981042654028617 39.696682464455385,17.838862559241882 39.71563981042623,17.781990521327323 39.677725118483195,17.706161137441242 39.17535545023758,17.156398104265822 38.947867298578,16.98578199052147 38.82464454976279,16.85308056872083 38.74881516587671,16.729857819905618 38.691943127962816,16.58767772511888 38.691943127962816,16.492890995261284 38.72985781990586,16.369668246446068 39.07109004739321,15.763033175355414 39.26066350710976,15.545023696682598 39.402843601895825,15.46919431279652 39.53554502369713,15.478672985781943 40.16113744075796,15.857819905213686 40.44549763033143,15.952606635071284 40.66350710900492,15.9810426540289 40.82464454976317,15.933649289099765 42.00000000000009,15.46919431279652 42.25592417061662,15.421800947867384 42.72985781990529,15.402843601895864 42.84360189573441,15.364928909952825 42.92890995260659,15.298578199052168 43.09004739336484,15.080568720379354 43.251184834123094,14.720379146919804 43.30805687203833,14.123222748815246 43.41232227488135,13.734597156398081 43.4028436018966,13.601895734597443 43.336492890995274,13.507109004739844 42.881516587677446,13.251184834123316 42.65402843601921,13.061611374408118 42.45497630331791,12.78672985782007 42.227488151658335,12.379146919431385 42.12322274881531,12.21800947867313 42.01895734597229,12.113744075829434 41.687203791469685,11.867298578199003 41.56398104265447,11.753554502369886 41.48815165876839,11.582938388626207 41.51658767772533,11.421800947867279 41.63033175355445,11.279620853080543 41.8009478672988,11.146919431279905 42.02843601895704,11.00473933649317 42.246445497630525,10.90995260663557 42.530805687203994,10.815165876777298 43.071090047393994,10.682464454976659 43.75355450237005,10.559241706161444 43.990521327014385,10.492890995260789 44.18957345971568,10.407582938388613 44.37914691943088,10.255924170616455 44.786729857819566,9.819905213270152 45.06161137440829,9.582938388625818 45.84834123222737,9.137440758294092 46.616113744075605,8.834123222749103 46.94786729857821,8.635071090047807 47.080568720379524,8.492890995261073 47.22274881516558,8.28436018957368 47.279620853080814,8.05687203791477 47.279620853080814,7.857819905213475 47.563981042654284,7.876777251184995 47.90521327014299,7.819905213270435 48.12322274881513,7.725118483412837 48.31279620853168,7.573459715640005 48.58767772511905,7.270142180095014 48.7582938388634,6.947867298578505 48.83412322274948,6.540284360189819 48.84360189573423,5.9810426540289745 48.89099526066337,5.791469194313104 49.004739336492484,5.55450236966877 49.15639810426599,5.364928909952898 49.55450236966858,4.976303317535732 49.895734597155936,4.530805687204007 50.25592417061683,4.161137440758361 50.3886255924168,3.990521327014682 50.50236966824726,3.7535545023696746 50.62559241706248,3.1943127962088305 50.739336492891596,2.89099526066384 50.900473933649856,2.6350710900479863 51.43127962085375,1.9336492890997334 51.62085308056895,1.715639810426919 51.905213270142426,1.4691943127964882 52.12322274881591,1.3459715639812728 52.35071090047415,1.2511848341236738 52.59715639810458,1.1943127962091145 53.118483412322384,1.1469194312799782 53.744075829384556,1.0426540284362826 54.12322274881495,1.0331753554508594 54.37914691943148,1.0805687203793222 54.94786729857842,1.3554502369673693 55.26066350710883,1.4597156398103914 55.402843601896244,1.4691943127964882 55.81042654028493,1.4312796208534486 56.04739336492926,1.4312796208534486 56.966824644549654,1.6398104265408397 57.27014218009532,1.6777251184838793 57.47867298578271,1.6777251184838793 57.81990521327007,1.5924170616117035 58.663507109004385,1.327014218009753 59.421800947867865,1.004739336493243 59.88625592417044,0.7677725118489088 60.1895734597161,0.6445497630336935 60.9289099526074,0.454976303317822 61.55450236966822,0.21800947867348786 62.255924170616474,0.056872037915232876 62.331753554502555,0 62.30331753554561,0.047393364929136234 62.36966824644559,0.13270142180131206 62.54976303317604,0.5118483412323814 62.75829383886343,1.1090047393369387 62.85308056872036,1.2890995260667133 62.93838862559254,1.4028436018958321 63.02369668246471,1.4312796208534486 63.09952606635079,1.4028436018958321 63.20379146919516,1.2701421800951935 63.2417061611382,1.099526066350842 63.34597156398122,1.090047393365419 63.4218009478673,1.1374407582938815 63.64928909952688,1.3744075829388893 64.27488151658771,1.6966824644553993 64.39810426540292,1.7914691943129981 64.4834123222751,1.8862559241705972 64.51184834123204,1.9620853080573497 64.49289099526119,2.0473933649295257 64.30331753554465,2.2274881516593004 64.15165876777249,2.473933649289058 63.82938388625598,2.7109004739340654 63.74407582938381,2.8625592417062236 63.687203791469926,3.0616113744081916 63.715639810426865,3.1943127962088305 63.83886255924208,3.308056872037949 64.05687203791422,3.393364928910125 64.31279620853076,3.4312796208531644 64.66350710900555,3.3554502369670853 65.50710900473986,3.0426540284359986 65.61137440758289,2.9194312796214565 65.68720379146896,2.654028436019506 65.7440758293842,2.5308056872042908 65.82938388625638,2.4360189573460183 65.96208530805768,2.341232227488419 66.18009478672982,2.255924170616243 66.74881516587676,2.113744075829508 67.12796208530851,1.971563981042773 67.516587677725,1.781990521327575 67.80094786729848,1.715639810426919 68.0379146919428,1.7061611374408223 68.68246445497718,1.8293838862560377 69.36492890995324,1.8672985781990774 69.63033175355451,1.8483412322275574 70.0284360189571,1.781990521327575 70.32227488151666,1.6872037914693025 70.54976303317491,1.554502369668664 70.7109004739345,1.4028436018958321 70.92890995260665,1.1090047393369387 71.04265402843576,1.0331753554508594 71.17535545023708,1.004739336493243 71.50710900473969,1.0142180094786661 71.70616113744099,0.9952606635071464 72.3696682464462,0.8341232227488914 72.5402843601892,0.7677725118489088 72.68246445497661,0.6350710900475968 72.81516587677793,0.2085308056873912 72.8720379146918,0.13270142180131206 72.94786729857789,0.08530805687217581 73.05213270142225,0.056872037915232876 73.20379146919441,0.056872037915232876 73.55450236966786,0.1232227488152154 73.85781990521353,0.15165876777283185 74.02843601895788,0.18957345971587142 74.8625592417061,0.549763033175421 75.07109004739348,0.6729857819906364 75.51658767772521,1.1184834123223617 75.86729857819867,1.421800947867352 76.04739336492912,1.7061611374408223 76.33175355450258,2.5308056872042908 76.41706161137476,2.9478672985783994 76.40758293838867,3.1848341232227337 76.33175355450258,3.450236966824684 76.18009478673042,3.734597156398155 75.9431279620861,4.0853080568722815 75.87677725118476,4.265402843602056 75.87677725118476,4.407582938388791 75.9052132701417,4.530805687204007 75.99999999999999,4.691943127962261 76.09478672985826,4.786729857819861 77.08056872037997,5.488151658768113 77.59241706161168,5.763033175355487 77.96208530805733,5.886255924170702 79.03317535544988,6.16113744075875 79.64928909952596,6.236966824644829 80.19905213270205,6.265402843602446 80.54976303317551,6.246445497630925 80.7582938388629,6.170616113744173 81.04265402843636,5.933649289099838 81.16587677725158,5.876777251185279 81.51658767772504,6.360189573460044 81.83886255924155,6.74881516587721 82.18009478673025,7.09004739336524 82.5402843601898,7.364928909952614 83.14691943127978,7.69668246445522 84.77725118483453,8.407582938388897 86.38862559241707,9.317535545023867 86.89099526066403,9.649289099526474 87.13744075829446,9.848341232227767 87.33649289099576,10.07582938388668 87.43127962085268,10.293838862559493 87.45023696682487,10.502369668246885 87.39336492890963,10.672985781990564 87.26066350710967,10.862559241706434 86.68246445497664,11.44075829383947 86.49289099526143,11.696682464455325 86.4360189573462,11.838862559242061 86.42654028436012,11.99052132701422 86.4549763033184,12.132701421800954 86.54028436018923,12.274881516587689 86.66350710900444,12.417061611374425 86.80568720379185,12.549763033175736 87.26066350710967,12.82464454976311 87.75355450236918,13.052132701422021 89.39336492891003,13.753554502370275 89.81042654028481,13.971563981043088 90.0663507109,14.132701421801343 90.34123222748872,14.360189573460255 90.55924170616086,14.616113744076108 90.7298578199052,14.928909952607196 90.83412322274958,15.213270142180665 90.9478672985787,15.611374407583256 91.02369668246477,16.09478672985802 91.08056872038,16.95734597156453 91.06161137440782,17.469194312796237 91.02369668246477,17.8672985781995 90.87203791469261,18.654028436019253 90.7298578199052,19.09004739336488 90.61611374407609,19.35545023696683 90.47393364928868,19.61137440758336 90.29383886255958,19.848341232227693 90.08530805687218,20.04739336492899 89.8672985781987,20.189573459715724 89.61137440758351,20.29383886255942 89.3649289099531,20.341232227488558 89.06161137440742,20.360189573460076 88.69194312796178,20.33175355450246 88.31279620853138,20.2748815165879 87.81990521327052,20.161137440758782 86.96682464455012,19.89573459715683 86.2938388625588,19.59241706161184 85.94312796208534,19.35545023696683 85.65876777251188,19.08056872037946 85.40284360189534,18.729857819905334 84.99526066350666,18.056872037914697 84.73933649289148,17.715639810426666 84.57819905213323,17.57345971563993 84.39810426540278,17.450236966824715 84.18957345971539,17.355450236967116 83.96208530805715,17.27962085308104 83.44075829383935,17.194312796208862 82.86255924170631,17.17535545023734 79.00473933649293,17.260663507109516 78.54028436019037,17.241706161137998 77.5071090047395,17.11848341232278 77.08056872037997,17.080568720379745 76.67298578199129,17.11848341232278 76.36018957345952,17.22274881516648 76.18957345971518,17.327014218009502 76.07582938388606,17.44075829383929 75.89573459715696,17.744075829384283 75.78199052132784,18.113744075829928 75.60189573459739,19.222748815166195 75.44075829383914,19.800947867298557 74.6729857819909,21.69668246445525 74.41706161137438,22.208530805687634 74.1327014218009,22.663507109004783 73.8104265402844,23.052132701421947 73.45971563981094,23.374407582938456 70.86255924170666,25.222748815166014 70.54976303317491,25.526066350711005 70.40758293838884,25.715639810426875 70.28436018957363,25.924170616114267 70.01895734597235,25.914691943128172 69.1184834123228,26.018957345971867 68.92890995260626,26.00947867298577 68.72985781990496,25.97156398104273 68.4549763033176,25.867298578199037 67.87677725118455,25.554502369668622 67.39336492890979,25.34597156398123 64.8815165876777,24.43601895734626 63.9526066350712,24.01895734597215 63.22274881516601,23.781990521327142 62.41706161137473,23.440758293839114 61.867298578198636,23.289099526066956 61.18483412322258,23.213270142180203 60.84360189573522,23.137440758294122 60.63507109004783,23.042654028436523 60.1895734597161,22.758293838863054 59.838862559241306,22.635071090047838 59.07109004739307,22.473933649289584 57.98104265402832,22.189573459716115 57.033175355450986,22.0663507109009 56.56872037914707,22.047393364929377 55.497630331753165,22.132701421801553 54.13270142180105,22.208530805687634 53.383886255925006,22.36018957345979 52.66350710900456,22.473933649289584 52.33175355450195,22.568720379147184 51.924170616114615,22.777251184834576 51.32701421800938,23.20379146919478 50.88151658767766,23.421800947867595 50.40758293838899,23.715639810426488 49.97156398104336,23.914691943128457 49.77251184834207,24.03791469194367 48.70142180094817,24.862559241706467 48.29383886255948,25.32701421800971 48.16113744075817,25.431279620853406 47.810426540284716,25.601895734597758 47.279620853080814,25.753554502369916 47.004739336493444,25.592417061611663 46.60663507109086,25.40284360189579 46.29383886255909,25.28909952606667 45.92417061611345,25.184834123222977 45.175355450237404,25.08056872037928 44.72985781990568,25.071090047393856 44.28436018957395,25.08056872037928 43.48815165876743,25.175355450237554 42.46445497630401,25.412322274881888 41.317535545024036,25.791469194312956 40.22748815165929,26.21800947867316 39.4786729857819,26.606635071090327 38.966824644550194,26.957345971564454 38.54028436018931,27.34597156398162 38.15165876777282,27.838862559241807 37.97156398104237,28.12322274881528 37.74407582938414,28.5781990521331 37.05213270142198,30.14218009478719 36.748815165876316,30.72985781990565 36.36966824644592,31.308056872038012 35.62085308056853,32.30331753554516 35.289099526065925,32.85308056872058 35.08056872037988,33.279620853080786 34.464454976303806,34.83412322274877 34.21800947867337,35.2890995260666 33.943127962085995,35.677725118483764 33.668246445497275,35.97156398104266 33.27014218009469,36.33175355450288 30.748815165876493,38.28436018957346 28.786729857820493,39.74407582938385 28.265402843602686,40.17061611374406 27.76303317535573,40.644549763033396 27.21327014218098,41.2701421800949 26.805687203792296,41.86729857819945 26.530805687203575,42.35071090047422 25.94312796208579,43.54502369668266 25.526066350711005,44.33175355450242 25.203791469194496,44.094786729858086 24.900473933648833,43.90521327014221 23.914691943128457,43.51658767772572 23.44075829383844,43.279620853080715 22.957345971563676,42.94786729857878 22.65402843601936,42.65402843601921 22.559241706161085,42.51184834123248 22.483412322275008,42.34123222748813 22.32227488151675,41.61137440758293 22.199052132701535,41.2701421800949 21.924170616114164,40.729857819905575 21.620853080568498,40.218009478673196 21.440758293839398,39.98104265402886 21.241706161138104,39.781990521327565 20.483412322274617,39.20379146919453 20.246445497630283,38.99526066350714 20.056872037915085,38.78672985782042 19.886255924170733,38.50236966824695 19.810426540284656,38.293838862559554 19.791469194312462,38.07582938388674 19.848341232227693,37.74407582938414 19.97156398104291,37.32701421801003Z"/>
  </g>
</svg>