<?xml version="1.0" encoding="UTF-8" standalone="no"?>
<svg viewBox="0 0 176.1795998047831 256" xmlns="http://www.w3.org/2000/svg">
  <style>
    g.zone {
      fill: lightgray;
      stroke-width: 2;
      stroke-linecap: square;
      stroke-linejoin: bevel;
      stroke-miterlimit: 3;
      stroke-opacity: 0.8;
      stroke: black;
      fill-opacity: 0.3;
    }
  </style>
  <g class="zone" id="zone">
    <path d="M60.25183016105459,253.18887262079053 60.42362127867199,252.61102977061938 60.486090775987606,251.89263055148868 60.548560273303224,251.62713518789676 60.92337725719915,251.00244021473836 61.00146412884201,250.7369448511464 61.03269887750093,250.40897999023886 61.01708150317147,249.69058077110816 59.299170326988644,250.03416300634404 58.205954123961995,250.17471937530473 56.73792093704164,250.26842362127817 55.988286969252,250.20595412396256 55.004392386529354,249.9092240117128 54.31722791605534,249.79990239140992 54.067349926792865,249.6281112737914 53.23962908736037,248.87847730600288 52.97413372376844,248.67545143972657 51.27183992191285,247.83211322596352 50.74084919472899,247.67593948267447 49.95998047828265,247.20741825280624 49.58516349438672,247.06686188384552 48.67935578330915,246.94192288921428 47.67984382625704,246.67642752562236 47.0707662274281,246.5983406539773 44.072230356271774,246.61395802830674 42.72913616398265,246.70766227428018 42.02635431917918,246.6608101512929 40.261591020010194,246.39531478770095 39.99609565641826,245.41142020497833 39.63689604685179,244.59931673987307 39.152757442654085,243.81844802342562 38.40312347486445,242.94387506100475 38.05954123962966,242.39726695949253 37.98145436798458,242.14738897022895 37.98145436798458,241.91312835529482 38.13762811127252,241.28843338213753 38.15324548560198,241.06979014153177 38.09077598828636,240.8511469009271 37.98145436798458,240.616886285993 37.54416788677304,240.11713030746694 37.10688140556371,239.8047828208877 36.06051732552544,239.14885309907262 35.029770619814414,238.7115666178622 34.2020497803797,238.19619326500668 33.84285017081545,238.04001952171762 33.71791117618422,237.93069790141473 33.5461200585646,237.69643728648063 33.38994631527444,237.36847242557306 32.968277208394575,236.21278672523192 32.90580771107896,235.88482186432435 32.8901903367495,235.30697901415323 32.82772083943388,235.02586627623185 32.702781844802644,234.80722303562717 32.53099072718303,234.60419716935087 31.67203513909162,233.9326500732063 31.53147877013092,233.7608589555878 31.469009272815303,233.60468521229876 31.437774524158606,233.38604197169298 31.484626647144765,232.90190336749637 31.703269887750537,232.7925817471935 32.390434358222336,232.3396778916547 32.87457296242004,232.08979990239112 34.28013665202478,231.57442654953562 37.3879941434851,230.76232308443147 38.12201073694528,230.62176671547078 39.183992191313,230.5436798438257 39.746217667153566,230.38750610053665 40.16788677403565,230.16886285993198 40.48023426061374,229.90336749633894 40.93313811615475,229.43484626647071 41.57345046364039,228.65397755002436 41.995119570522476,228.2635431918012 42.79160566129827,227.70131771595842 43.54123962908791,227.264031234748 45.633967789164444,226.20204978038026 46.63347974621655,225.79599804782762 48.33577354807214,225.34309419228885 49.444607125426025,224.96827720839403 50.038067349925505,224.92142508540786 50.36603221083528,224.9370424597362 50.72523182039953,225.03074670570965 51.178135675938314,225.20253782332816 51.55295265983424,225.43679843826226 51.91215226939849,225.79599804782762 52.2557345046355,226.3582235236704 52.47437774524127,226.62371888726233 52.70863836017651,226.74865788189356 53.20839433870145,226.82674475353866 53.39580283064831,226.93606637384042 53.786237188871475,227.4982918496821 54.364080039043714,228.12298682284052 54.910688140557035,228.82576866764288 55.12933138116059,229.01317715958973 55.36359199609582,229.15373352855042 56.11322596388546,229.32552464616893 56.316251830161775,229.41922889214234 56.42557345046355,229.63787213274702 56.659834065396566,230.6061493411413 56.83162518301618,230.96534895070778 57.03465104929249,231.29331381161535 57.30014641288442,231.6212786725229 58.455832113226684,232.83943387018076 58.87750122010655,233.15178135675885 59.2054660810141,233.29233772571956 59.64275256222565,233.38604197169298 61.20448999511832,233.54221571498314 62.90678379697391,233.88579795021903 64.31234748657864,234.08882381649536 64.93704245973704,234.073206442167 66.04587603709093,233.88579795021903 66.85797950219619,233.8233284529034 67.26403123474881,233.72962420693 67.48267447535459,233.63591996095656 67.65446559297199,233.49536359199587 67.87310883357776,233.15178135675885 67.87310883357776,232.80819912152296 67.7169350902876,231.7930697901414 67.7169350902876,231.46510492923383 67.77940458760322,231.23084431429973 67.998047828209,230.8872620790627 68.56027330404956,230.35627135187883 68.74768179599863,229.9970717423135 68.76329917032587,229.80966325036553 68.71644704733971,229.62225475841868 68.31039531478709,228.85700341630067 68.2010736944853,228.52903855539313 68.18545632015585,228.24792581747175 68.232308443142,227.96681307955035 68.79453391898478,226.6705710102485 69.10688140556287,226.17081503172244 69.74719375305074,225.37432894094664 70.18448023426006,224.48413860419743 70.35627135187968,224.2498779892633 70.65300146412831,223.99999999999972 71.83992191312727,223.35968765251297 72.27720839433881,223.03172279160543 72.60517325524637,222.64128843338224 73.12054660810077,221.48560273304 73.46412884333778,220.98584675451394 73.97950219619219,220.56417764763296 75.27574426549515,219.72083943386988 76.32210834553341,218.62762323084436 77.27476817959936,217.8623718887264 77.91508052708501,217.22205954123962 78.63347974621794,216.58174719375288 78.8208882381648,216.30063445583147 78.89897510980987,216.1288433382141 78.94582723279603,215.8164958516349 78.97706198145495,215.1137140068325 79.11761835041342,214.72327964860935 79.28940946803304,214.47340165934577 79.46120058565043,214.3172279160567 79.66422645192675,214.17667154709602 79.86725231820306,214.09858467545095 79.53928745729552,214.0829673011226 79.18008784773126,213.9424109321619 78.91459248413933,213.72376769155613 78.63347974621794,213.3177159590046 78.41483650561217,212.75549048316182 77.7120546608109,210.272327964861 77.44655929721675,209.6163982430448 76.22840409956109,207.4455832113221 75.9785261102964,207.133235724744 75.30697901415185,206.44607125426998 74.8072230356269,205.680819912152 73.18301610541639,202.8072230356269 72.901903367495,202.24499755978522 72.62079062957582,201.5265983406534 72.41776476329952,201.16739873108804 72.04294777940359,200.74572962420706 71.46510492923356,200.23035627135155 70.2781844802346,199.32454856027286 69.38799414348426,198.87164470473408 69.10688140556287,198.57491459248433 69.01317715959055,198.35627135187858 68.9975597852611,198.1063933626161 69.2786725231825,197.3099072718403 69.63787213274674,195.38897022938005 69.68472425573512,194.84236212786672 69.60663738409004,194.4363103953141 69.4816983894588,194.21766715470943 69.2786725231825,193.99902391410478 67.90434358223446,193.07759882869664 67.63884821864252,192.82772083943416 67.40458760370952,192.54660810151276 66.73304050756495,191.54709614446065 66.24890190336724,190.68814055636923 66.01464128843202,190.18838457784318 65.76476329916954,189.3918984870663 65.59297218155214,189.03269887750093 65.34309419228967,188.67349926793557 64.89019033674867,188.1425085407517 64.29673011224918,187.56466569058057 63.82820888238094,187.23670082967303 62.95363591996007,186.84626647144987 61.407515861394636,186.33089311859433 60.829673011224614,186.09663250366023 60.08003904343498,185.65934602244977 58.768179599804775,184.76915568570055 57.612493899462514,183.87896534895023 56.035139092240385,182.3328452903859 54.73889702293742,181.1927769643731 54.31722791605534,180.63055148853033 53.77061981454423,179.52171791117644 53.59882869692462,179.30307467057065 53.39580283064831,179.1156661786238 52.9116642264506,178.81893606637405 51.94338701805741,178.41288433382144 50.865788189360224,177.85065885797977 50.537823328452674,177.61639824304564 49.881893606637576,177.05417276720286 49.25719863347917,176.63250366032187 48.851146900926544,176.47632991703284 48.10151293313691,176.28892142508488 47.83601756954498,176.16398243045364 47.586139580282506,175.94533918984897 47.2425573450455,175.33626159102002 46.977061981453566,175.0395314787703 46.508540751585315,174.63347974621766 45.68081991215282,174.00878477306037 45.00927281600826,173.57149829184993 44.57198633479672,173.35285505124418 44.04099560761286,173.18106393362567 43.18204001952144,172.9936554416788 42.697901415323734,172.79062957540248 42.13567593948317,172.35334309419204 40.58955588091774,170.72913616398264 39.65251342118125,169.85456320156177 39.23084431429916,169.65153733528547 38.840409956075995,169.58906783796985 38.59053196681352,169.6046852122982 40.10541727672003,169.47974621766696 41.2611029770623,169.2611029770623 42.13567593948317,168.9799902391409 42.86969253294335,168.58955588091774 43.36944851146829,168.13665202537786 43.75988286969147,167.57442654953618 44.072230356271774,166.9497315763789 44.91556857003373,164.81015129331396 45.259150805270735,164.18545632015557 45.71205466080952,163.60761346998555 46.27428013665231,163.1390922401173 46.85212298682233,162.8267447535381 47.50805270863743,162.63933626159124 47.867252318203896,162.59248413860396 48.39824304538776,162.59248413860396 49.069790141532316,162.70180575890686 49.75695461200634,162.92044899951154 50.50658857979376,163.24841386041908 51.31869204489901,163.74816983894624 52.47437774524127,164.622742801366 56.37872132747739,168.04294777940441 58.112249877989676,169.4016593460219 59.39287457296318,170.30746705710058 60.5954123962916,171.088335773548 61.78233284529056,171.72864812103475 62.96925329428953,172.27525622254697 64.3591996095648,172.80624694973196 65.56173743289322,173.1342118106395 66.79551000488057,173.3372376769158 67.888726207905,173.43094192288925 69.09126403123342,173.4153245485598 70.23133235724622,173.2747681796002 71.30893118594341,172.9936554416788 72.26159102000936,172.618838457784 72.83943387017938,172.18155197657356 73.10492923377132,171.86920448999547 73.30795510004762,171.55685700341627 73.41727672035162,171.10395314787635 73.354807223036,170.54172767203468 73.15178135675968,169.979502196193 72.88628599316776,169.49536359199644 71.15275744265547,166.99658369936503 70.60614934114216,166.09077598828637 70.37188872620692,165.60663738408977 70.18448023426006,165.06002928257644 70.09077598828775,164.65397755002382 70.07515861395828,164.2479258174723 70.1688628599306,163.46705710102486 70.71547096144393,161.60858955588134 71.5900439238648,157.735480722303 72.05856515373304,156.2518301610543 72.46461688628567,155.3147877013178 73.02684236212845,154.19033674963336 74.27623230844304,151.9726695949245 76.35334309419233,148.7554904831624 76.83748169839004,148.09956076134728 77.41532454856006,147.39677891654492 77.83699365544214,146.97510980966283 78.44607125427109,146.47535383113677 79.00829673011165,146.1161542215714 79.61737432894058,145.8038067349922 80.28892142508515,145.53831137140028 80.96046852122971,145.31966813079563 81.78818936066442,145.13225963884767 82.67837969741254,144.9760858955586 84.27135187896413,144.81991215226958 85.17715959004391,144.8042947779401 86.06734992679425,144.83552952659792 87.37920937042445,145.00732064421643 88.73792093704303,145.33528550512398 90.2996583699357,145.89751098096676 92.42362127867115,146.83455344070325 94.73499267935568,148.00585651537276 96.29673011225057,148.9272816007809 97.31185944362993,149.63006344558326 97.99902391410394,150.19228892142493 98.76427525622303,150.92630551488512 99.31088335773414,151.5822352367002 99.96681307955146,152.47242557345055 100.65397755002326,153.51878965348993 101.40361151781289,154.7369448511467 102.76232308443147,157.11078574914572 103.07467057100956,157.57930697901398 103.55880917520727,158.20400195217127 103.9960956564166,158.65690580771115 104.58955588091608,159.1254270375794 105.1049292337727,159.4377745241575 105.72962420692888,159.71888726207888 106.35431918008729,159.9219131283552 106.99463152757514,160.0624694973159 107.71303074670585,160.1717911176188 108.65007320644234,160.2342606149344 109.6027330405083,160.24987798926276 111.36749633967729,160.18740849194714 113.53831137140112,159.9843826256708 114.91264031234694,159.71888726207888 115.4436310395308,159.56271351878985 115.94338701805796,159.34407027818406 116.4119082479262,159.01610541727652 116.73987310883376,158.73499267935622 116.91166422645115,158.48511469009264 116.95851634943732,158.17276720351344 116.83357735480608,157.71986334797467 116.61493411420253,157.28257686676423 116.27135187896552,156.79843826256652 115.92776964372851,156.47047340165898 114.990727183992,155.75207418252825 113.0229380185445,154.47144948755476 112.07027818448077,153.81551976573965 111.03953147876973,152.98779892630495 110.27428013665065,152.25378233284476 109.633967789165,151.50414836505624 109.1185944363106,150.73889702293826 108.77501220107358,149.97364568082025 108.58760370912672,149.30209858467572 108.5251342118111,148.8491947291358 108.49389946315219,148.28696925329413 108.55636896046781,147.42801366520274 108.72816007808743,146.58467545143967 109.05612493899498,145.4289897510985 109.55588091751993,144.1171303074672 110.21181063933503,142.50854075158614 111.13323572474427,140.49389946315247 112.27330405075708,138.16691068814072 112.57003416300572,137.3079551000493 112.66373840898025,136.80819912152214 112.66373840898025,136.35529526598333 112.57003416300572,135.8867740361151 112.3670082967294,135.3714006832596 112.14836505612362,135.01220107369423 111.80478282088883,134.59053196681324 111.46120058565182,134.2625671059057 111.00829673011081,133.93460224499702 110.24304538799394,133.59102000976114 108.63445583211289,133.09126403123508 108.1815519765741,132.85700341630096 107.6974133723764,132.51342118106396 107.18204001952199,132.02928257686625 105.07369448511378,129.81161542215736 100.98194241093081,125.90727183992236 99.8106393362613,124.9233772571986 99.31088335773414,124.57979502196159 98.85797950219535,124.31429965836965 98.3894582723271,124.11127379209334 97.88970229380216,123.92386530014649 97.34309419228885,123.78330893118579 96.78086871644607,123.68960468521236 96.0780868716448,123.62713518789674 95.1098096632494,123.61151781356729 93.5168374816978,123.72083943387017 91.9551000488029,123.97071742313264 90.76817959980394,124.2674475353835 90.06539775500269,124.54856027330378 89.44070278184428,124.86090775988298 88.58174719375288,125.4075158613963 87.95705222059448,125.95412396290851 87.51976573938515,126.45387994143456 87.20741825280484,126.98487066861843 87.09809663250306,127.26598340653982 87.00439238653074,127.67203513909244 86.98877501220129,128.1093216203029 87.06686188384636,128.76525134211798 87.2230356271343,129.29624206930185 87.69155685700254,130.71742313323605 87.84773060029269,131.46705710102458 87.83211322596324,132.2166910688142 87.73840897999092,132.669594924353 87.59785261103022,133.0444119082478 87.42606149341061,133.38799414348483 87.16056612981868,133.778428501708 86.89507076622675,134.07515861395774 86.50463640800358,134.40312347486528 85.98926305514917,134.73108833577393 85.489507076622,134.9809663250364 84.36505612493866,135.3714006832596 83.50610053684726,135.5744265495359 82.58467545144022,135.73060029282604 80.53879941434762,135.9804782820885 78.69594924353356,136.10541727671975 75.36944851146968,136.2303562713521 73.44851146900832,136.41776476329895 72.77696437286376,136.52708638360184 72.08979990239196,136.69887750122035 69.63787213274674,137.6203025866274 68.95070766227494,137.8233284529037 67.91996095656391,138.02635431918 66.81112737921002,138.12005856515344 65.73352855051284,138.08882381649562 64.62469497315674,137.9326500732066 60.61102977061884,136.97999023914062 57.72181551976651,136.44899951195677 56.73792093704164,136.21473889702264 55.64470473401721,135.87115666178565 54.910688140557035,135.54319180087808 54.45778428501603,135.2933138116156 53.56759394826792,134.6686188384572 53.17715959004475,134.32503660322132 52.72425573450374,133.85651537335306 52.302586627623874,133.30990727183973 51.724743777451636,132.38848218643273 50.209858467545125,129.32747681795965 49.17911176183409,127.37530502684271 48.491947291362294,126.25085407515826 47.61737432894142,124.97022938018587 45.93069790141529,122.73694485114642 44.58760370912618,121.12835529526647 43.93167398731108,120.47242557345027 43.35383113713883,119.95705222059586 42.338701805759484,119.20741825280622 41.58906783796985,118.77013177159579 40.46461688628651,118.22352367008246 37.356759394826184,117.02098584675404 36.73206442166778,116.73987310883376 36.01366520253706,116.34943875060948 35.248413860420186,115.81844802342562 34.60810151293233,115.2093704245978 33.03074670571019,113.30405075646699 32.54660810151249,112.83552952659875 32.18740849194602,112.57003416300682 31.781356759395614,112.3357735480727 31.344070278184066,112.14836505612473 30.781844802341286,111.94533918984841 29.876037091263715,111.72669594924375 28.3923865300139,111.46120058565182 25.84675451439636,111.086383601757 23.707174231331447,110.83650561249343 16.21083455343952,110.13372376769105 14.633479746217386,110.05563689604709 12.86871644704618,110.07125427037543 11.96290873596861,109.50902879453376 11.744265495362836,109.32162030258691 11.541239629086522,109.04050756466552 11.385065885798587,108.57198633479727 11.275744265494591,108.35334309419261 10.66666666666565,107.75988286969202 10.3074670571014,107.52562225475789 9.526598340652844,107.18204001952199 9.198633479745295,106.96339677891622 9.04245973645736,106.80722303562717 8.605173255245813,106.18252806246988 8.011713030746332,105.57345046364095 5.16935090288016,103.12152269399684 3.029770619815246,101.5441678867736 1.9521717911180594,101.01317715958973 1.5929721815515907,100.74768179599779 1.2493899463145814,100.35724743777463 0.8901903367503322,99.62323084431445 0.4529038555387861,98.93606637384043 0.14055636896069557,98.26451927769698 0,97.57735480722296 0,96.78086871644717 0.07808687164507747,96.49975597852578 0.1874084919468543,96.34358223523674 0.6871644704740185,96.64031234748647 1.2025378233284227,96.8745729624206 1.8116154221573637,97.09321620302637 2.26451927769615,97.20253782332814 2.8423621278661724,97.29624206930157 3.5607613469991093,97.34309419228885 4.9038555392882275,97.31185944363104 6.3875061005358225,97.0775988286969 7.496339677891927,96.76525134211771 8.558321132259655,96.37481698389455 11.057101024891036,95.29721815519736 11.837969741337373,95.04734016593488 12.57198633479755,94.85993167398692 13.493411420204582,94.71937530502733 14.55539287457231,94.64128843338226 17.803806734993326,94.61005368472445 18.756466569057057,94.56320156173717 19.724743777452467,94.4538799414354 20.771107857490737,94.23523670082963 21.723767691556688,93.93850658857988 24.081991215227372,93.11078574914629 27.39287457296179,92.14250854075198 28.40800390434336,91.76769155685716 29.204489995119154,91.42410932162015 30.188384577841806,90.90873596876575 31.156661786237212,90.31527574426516 34.07711078574847,88.22254758418751 35.061005368471115,87.58223523670077 35.9980478282076,87.03562713518744 37.07564665690479,86.52025378233304 38.0439238653002,86.14543679843821 39.24646168862862,85.78623718887286 40.511469009272666,85.52074182528092 41.85456320156178,85.36456808199077 43.510004880428994,85.2864812103468 44.86871644704757,85.2864812103468 48.41386041971722,85.41142020497804 49.397755002439865,85.47388970229366 50.303562713517444,85.5988286969249 51.00634455832092,85.75500244021505 51.75597852611055,86.00488042947752 52.53684724255689,86.41093216203015 53.28648121034653,87.0200097608591 53.98926305514779,87.78526110297707 55.816495851634606,90.08101512933104 56.51927769643809,90.79941434846286 57.331381161541124,91.43972669594962 58.5183016105423,92.17374328940979 60.06442166910552,92.90775988286997 61.9072718399218,93.59492435334288 63.50024402147339,94.04782820888278 64.53099072718442,94.25085407515908 65.84285017081461,94.42264519277649 67.13909224011758,94.48511469009321 68.41971693509107,94.46949731576375 70.3094192288913,94.3133235724747 72.46461688628567,94.03221083455331 73.83894582723148,93.78233284529084 75.26012689116568,93.42313323572438 76.07223035627094,93.15763787213244 77.00927281600744,92.75158613957981 77.61835041483637,92.3767691556861 78.14934114202023,91.9238653001462 78.46168862859832,91.53343094192304 78.6803318692041,91.04929233772533 78.74280136651971,90.59638848218655 78.6803318692041,89.98731088335761 78.52415812591394,89.53440702781883 78.30551488531039,89.03465104929276 77.72767203513816,88.12884333821408 77.14982918496813,87.34797462176664 75.10395314787775,84.8335773548069 74.0419716935078,83.45924841385998 73.13616398243023,82.11615422157197 72.3552952659839,80.72620790629558 71.57442654953535,79.03953147877057 71.2776964372867,78.22742801366532 71.02781844802202,77.35285505124445 70.9341142020497,76.77501220107331 70.9341142020497,76.33772571986287 70.99658369936532,75.90043923865355 71.19960956564164,75.36944851146858 71.54319180087865,74.90092728160033 71.90239141044289,74.57296242069278 72.3552952659839,74.26061493411468 72.79258174719322,74.04197169350891 73.30795510004762,73.85456320156206 73.88579795021987,73.71400683260137 74.79160566129744,73.57345046364067 75.51000488042816,73.52659834065452 77.2591508052699,73.49536359199558 79.0551488530978,73.60468521229848 80.50756466569092,73.87018057589042 83.1781356759397,74.58857979502224 83.92776964372933,74.6666666666662 84.4899951195699,74.61981454368005 84.95851634943814,74.51049292337716 85.2864812103457,74.36993655441647 85.598828696926,74.19814543679796 85.92679355783355,73.94826744753549 86.2547584187411,73.60468521229848 86.45778428501742,73.3235724743782 86.61395802830535,73.0424597364568 86.78574914592497,72.62079062957582 86.89507076622675,72.19912152269374 86.97315763787182,71.63689604685207 87.03562713518744,69.79404587603689 87.11371400683252,68.88823816495821 87.2230356271343,68.24792581747147 87.41044411908115,67.52952659834075 87.76964372864762,66.62371888726206 88.1913128355297,65.85846754514408 88.67545143972741,65.09321620302609 89.67496339677952,63.703269887749705 90.14348462664776,62.90678379697391 90.45583211322585,62.0790629575403 90.612005856516,61.110785749146004 90.6432406051727,60.59541239629049 90.612005856516,59.81454367984416 90.45583211322585,58.58077110785792 90.268423621279,57.75305026842321 89.45632015617375,54.613958028306186 89.19082479258181,53.20839433870145 89.05026842362112,52.27135187896496 88.97218155197604,50.756466569058446 89.14397266959566,47.96095656417732 89.12835529526619,47.42996583699346 89.06588579795057,46.945827232796866 88.89409468033097,46.196193265007224 88.67545143972741,45.64958516349501 88.34748657881764,45.04050756466607 87.86334797462216,44.29087359687644 87.31673987310883,43.57247437774572 86.80136652025443,42.99463152757458 84.36505612493866,40.37091264031197 83.58418740849233,39.30893118594424 82.88140556368884,38.09077598828747 81.50707662274303,35.279648609077995 80.9292337725708,34.3113714006837 80.39824304538692,33.561737432894056 79.77354807223074,32.79648609077607 78.86774036115095,31.843826256711232 78.08687164470462,31.156661786237212 76.7437774524155,30.110297706197837 74.94777940458759,28.907759882869414 71.05905319668094,26.51830161054203 69.09126403123342,25.362615910199764 67.29526598340551,24.378721327477113 66.18643240605162,23.800878477305982 65.04636408003883,23.26988775012212 63.34407027818324,22.629575402635368 61.9072718399218,22.22352367008274 58.37774524158161,21.395802830649135 56.53489507076533,20.802342606149654 55.06686188384497,20.177647632992365 51.58418740849094,18.584675451439665 47.14885309907318,16.71059053196668 46.07125427037599,16.179599804782818 44.80624694973195,15.44558321132264 38.99658369936615,11.60370912640325 37.82528062469443,10.729136163982377 36.88823816495793,9.838945827233156 36.38848218643299,9.261102977062023 36.01366520253706,8.761346998535968 35.591996095657194,8.074182528063059 35.26403123474743,7.449487554904659 34.87359687652426,6.621766715471055 34.54563201561671,5.778428501707991 34.15519765739354,4.4197169350905225 34.061493411419,3.826256710591041 34.045876037091766,3.154709614446482 34.12396290873462,2.545632015617541 34.28013665202478,2.0771107857492956 34.54563201561671,1.5929721815515907 34.92044899951264,1.155685700342264 35.49829184968266,0.7652513421179863 36.1073694485116,0.4997559785260545 36.997559785261934,0.26549536359193177 37.950219619325665,0.12493899463123621 39.387018057589316,0.031234748657809053 40.69887750121952,0 43.86920448999546,0.015617374329459366 56.972181551976874,0.26549536359193177 79.1957052220585,0.39043435822316797 93.0014641288434,0.3279648609075499 116.53684724255744,0.42166910688208675 163.6232308443128,0.3279648609075499 164.49780380673366,1.4211810639341957 164.7945339189845,1.9209370424602503 165.0756466569059,2.4519277696441137 165.27867252318222,2.967301122498518 165.40361151781346,3.451439726696223 165.4504636407996,3.904343582235009 165.4192288921429,4.326012689117095 165.2474377745233,4.810151293313691 164.9038555392863,5.263055148853587 164.4509516837475,5.669106881406214 163.15470961444453,6.590531966813246 162.65495363591958,6.996583699365873 162.24890190336697,7.449487554904659 162.03025866276118,7.918008784772905 161.98340653977505,8.261591020009913 161.9990239141045,8.69887750122035 162.0927281600768,9.167398731088596 162.4831625183022,10.526110297706063 162.54563201561783,10.9633967789165 162.53001464128835,11.385065885798587 162.43631039531382,11.806734992679564 162.28013665202587,12.24402147389 161.5148853099068,13.696437286480895 161.31185944363048,14.1805758906786 161.1713030746698,14.649097120546845 161.14006832601308,15.070766227427823 161.18692044899925,15.44558321132264 161.34309419228939,15.851634943875268 162.0927281600768,17.069790141532042 162.29575402635314,17.507076622742478 162.4050756466571,17.95998047828237 162.3738408979982,18.490971205466238 162.24890190336697,18.975109809662833 162.04587603709066,19.428013665202727 160.87457296242115,21.458272327964753 159.73450463640833,23.691556857003096 159.4377745241575,24.363103953147654 159.23474865788117,24.925329428989325 159.10980966324993,25.48755490483211 159.0629575402638,26.09663250365994 159.07857491459103,26.658857979502724 159.1566617862361,27.158613958028777 159.34407027818295,27.642752562225372 159.6095656417771,28.048804294778 160.03123474865697,28.486090775988437 160.60907759882923,28.923377257198872 162.6861883845763,30.360175695461418 164.95070766227465,31.828208882381773 165.48169838945853,32.24987798926275 165.91898487066786,32.671547096144835 166.40312347486557,33.35871156661774 166.77794045875928,34.15519765739354 167.0122010736945,34.967301122498796 167.0434358223512,35.623230844313895 166.98096632503558,35.935578330893094 166.8404099560749,36.24792581747229 166.63738408979856,36.497803806734765 166.3562713518794,36.716447047340544 165.68472425573484,37.060029282576444 164.06051732552433,37.65348950707703 163.48267447535432,37.903367496339506 162.936066373841,38.262567105904864 162.46754514397273,38.71547096144476 162.03025866276118,39.418252806247125 161.24938994631486,41.21425085407503 160.07808687164535,43.52562225475845 159.59394826744764,44.1659346022452 158.71937530502677,44.931185944363186 158.50073206442102,45.212298682284576 158.39141044411923,45.509028794534316 158.31332357247416,45.868228404099675 158.29770619814468,46.63347974621767 158.4382625671054,47.32064421669168 158.6725231820406,47.929721815519514 159.0161054172754,48.46071254270338 159.4065397755008,48.866764275256 159.89067837969628,49.16349438750574 161.5773548072224,49.8038067349925 162.81112737920975,50.39726695949198 163.91996095656364,51.084431429965996 164.34163006344573,51.412396290873545 164.70082967300996,51.75597852611055 164.9038555392863,52.037091264030835 165.12249877989206,52.45876037091292 165.9033674963384,54.910688140555926 166.12201073694416,55.31673987310855 166.32503660322047,55.519765739384866 166.54367984382625,55.69155685700337 166.9497315763789,55.89458272327968 167.68374816983905,56.11322596388435 168.3552952659836,56.22254758418724 169.76085895558836,56.331869204490125 169.6671547096138,56.47242557345082 169.44851146900805,56.59736456808206 168.54270375793047,56.81600780868672 168.2615910200091,56.940946803319065 167.96486090776045,57.14397266959538 167.62127867252343,57.50317227916074 167.12152269399627,57.79990239141048 166.6686188384575,57.95607613469952 165.70034163006207,58.09663250366022 165.38799414348398,58.26842362127872 164.9038555392863,58.72132747681751 164.76329917032558,58.90873596876547 164.60712542703766,59.33040507564645 164.57589067837873,59.861395802830316 164.49780380673366,60.03318692044882 164.20107369448502,60.26744753538294 163.49829184968155,60.454856027330905 163.35773548072086,60.56417764763268 163.29526598340524,60.81405563689626 163.0922401171289,61.03269887750093 162.98291849682715,61.20448999511943 162.936066373841,61.391898487067394 162.95168374817044,61.78233284529056 162.92044899951154,61.954123962909065 162.6861883845763,62.453879941435126 162.28013665202587,62.85993167398775 161.54612005856572,63.422157149829424 161.32747681795993,63.672035139091896 161.29624206930103,63.8438262567104 161.42118106393227,64.12493899463179 161.49926793557734,64.8121034651047 161.45241581259117,65.71791117618338 161.34309419228939,65.98340653977532 160.82772083943277,66.65495363591987 160.718399219131,66.93606637384126 160.68716447047208,67.24841386041935 160.70278184480154,67.65446559297199 161.04636408003856,68.74768179599863 161.07759882869746,69.09126403123453 160.93704245973677,69.45046364079988 160.5778428501703,69.9658369936554 160.49975597852523,70.1688628599317 160.49975597852523,70.32503660322075 160.5466081015136,70.52806246949707 160.62469497315647,70.63738408979997 161.18692044899925,71.09028794533874 161.46803318692062,71.60566129819426 161.65544167886748,72.08979990239196 161.7803806734987,72.58955588091801 161.82723279648488,72.88628599316776 161.81161542215764,73.22986822840366 161.6866764275242,73.57345046364067 161.14006832601308,74.61981454368005 160.7496339677877,75.18204001952172 160.39043435822344,75.52562225475873 159.65641776476326,76.11908247925821 158.42264519277592,77.00927281600744 158.28208882381523,77.16544655929759 158.23523670082906,77.30600292825717 158.266471449488,77.41532454856006 158.37579306978978,77.5402635431913 158.76622742801294,77.75890678379707 159.4690092728164,78.07125427037627 160.17179111761766,78.22742801366532 162.60810151293344,78.47730600292779 163.2171791117624,78.46168862859943 164.23230844314173,78.367984382626 164.95070766227465,78.41483650561217 165.68472425573484,78.53977550024452 166.3562713518794,78.80527086383644 167.5588091752078,79.50805270863881 167.99609565641714,79.71107857491512 168.57393850658718,79.86725231820417 169.79209370424505,80.07027818448049 171.86920448999436,80.7886774036112 172.3064909712059,81.00732064421697 172.65007320644068,81.27281600780891 172.77501220107413,81.44460712542741 172.97803806735047,81.91312835529565 173.1342118106384,82.08491947291417 173.36847242557363,82.22547584187375 173.9931673987298,82.39726695949226 174.14934114201995,82.49097120546568 174.35236700829628,82.78770131771653 174.71156661786273,83.16251830161023 174.85212298682345,83.41239629087383 174.99267935578192,83.81844802342646 174.99267935578192,84.24011713030742 175.10200097608592,84.4587603709132 175.36749633967784,84.72425573450514 176.08589555880855,85.19277696437338 176.1795998047831,85.31771595900462 176.16398243045364,85.47388970229366 176.02342606149293,85.73938506588559 175.10200097608592,86.98877501220129 174.57101024890204,87.94143484626612 173.7901415324535,88.97218155197604 173.07174231332277,89.98731088335761 172.618838457784,90.44021473889751 172.0566129819412,90.89311859443629 171.57247437774572,91.20546608101549 170.79160566129715,91.62713518789647 170.33870180575838,91.97071742313348 170.04197169350752,92.31429965837049 169.6671547096138,93.0014641288434 169.33918984870627,93.37628111273821 168.7769643728635,93.73548072230358 167.0434358223512,94.57881893606664 165.48169838945853,95.01610541727707 165.12249877989206,95.14104441190831 164.9350902879452,95.281600780869 164.8257686676412,95.45339189848751 164.71644704733944,95.71888726207943 164.68521229868273,96.03123474865752 164.76329917032558,96.29673011224946 164.9038555392863,96.48413860419743 165.0756466569059,96.59346022449921 166.69985358711418,97.40556368960446 167.1527574426552,97.78038067349928 167.57442654953508,98.29575402635479 167.73060029282522,98.60810151293288 167.839921913127,98.99853587115716 167.839921913127,99.49829184968321 167.77745241581138,100.07613469985324 167.6368960468507,100.49780380673532 167.43387018057436,100.84138604197122 167.05905319668065,101.27867252318165 166.46559297218118,101.82528062469498 166.1063933626147,102.12201073694472 165.74719375305045,102.3406539775505 165.4504636407996,102.44997559785227 164.8257686676412,102.62176671547078 164.63836017569434,102.73108833577366 164.5134211810631,102.87164470473436 164.40409956076135,103.09028794533903 164.3572474377752,103.37140068326042 164.3572474377752,103.94924353343043 164.34163006344573,104.07418252806278 164.18545632015557,104.18350414836456 163.81063933626186,104.1678867740362 163.70131771595786,104.23035627135182 163.71693509028734,104.71449487554953 163.65446559297172,105.04245973645708 163.48267447535432,105.49536359199587 163.1390922401173,106.19814543679824 162.77989263055082,107.61932650073243 162.56124938994506,108.13469985358684 161.90531966812995,109.24353343094184 161.65544167886748,109.75890678379734 161.5148853099068,110.19619326500778 161.43679843826172,110.66471449487602 161.49926793557734,111.18008784773043 161.76476329916926,112.1639824304542 161.8897022938005,113.61639824304508 162.3738408979982,114.85017081503132 162.73304050756468,115.94338701805796 162.8892142508526,116.7242557345043 163.01415324548606,117.7237676915564 163.1390922401173,118.16105417276684 163.513909224011,119.08247925817498 163.65446559297172,119.92581747193805 163.8262567105891,120.34748657881903 164.24792581747118,121.06588579794975 164.29477794045735,121.31576378721333 164.24792581747118,121.78428501708157 164.26354319180064,122.03416300634404 164.81015129331396,123.28355295265973 164.9038555392863,123.54904831625167 164.9038555392863,123.8145436798436 164.7945339189845,124.08003904343553 164.5915080527082,124.32991703269911 164.12298682283995,124.67349926793501 163.95119570522255,124.84529038555351 163.88872620790693,125.04831625182983 163.9355783308931,125.20448999511999 164.18545632015557,125.42313323572465 164.5290385553926,125.56368960468535 165.1068814055626,125.7510980966322 166.59053196681242,126.09468033186921 166.8716447047338,126.32894094680333 167.2464616886275,126.48511469009237 167.949243533431,126.62567105905308 169.16739873108887,126.64128843338253 169.91703269887628,126.73499267935595 170.72913616398154,126.98487066861843 171.86920448999436,127.50024402147395 172.44704734016437,127.82820888238149 172.80624694973085,128.1717911176185 173.36847242557363,128.92142508540704 174.18057589067888,129.84285017081518 174.3367496339668,130.17081503172273 174.32113225963735,130.4206930209863 174.18057589067888,130.68618838457823 173.91508052708696,130.96730112249853 173.4465592972187,131.37335285505114 173.32162030258525,131.51390922401185 173.21229868228346,132.0136652025379 173.00927281600715,132.48218643240614 172.9155685700326,132.93509028794492 172.83748169838975,133.09126403123508 172.71254270375852,133.24743777452412 172.32210834553314,133.45046364080045 171.32259638848103,133.778428501708 170.54172767203468,134.2938018545635 169.83894582723343,134.6842362127867 169.2611029770612,135.0590531966815 168.41776476329923,135.4026354319185 168.2615910200091,135.52757442654973 168.2459736456796,135.59004392386535 168.292825768668,135.65251342118097 168.4958516349443,135.7149829184966 170.27623230844276,135.80868716447003 170.76037091264047,135.87115666178565 171.2288921425087,136.01171303074634 171.8223523670082,136.26159102000992 172.24402147389029,136.52708638360184 172.44704734016437,136.76134699853597 172.47828208882328,136.9956076134701 172.32210834553314,137.26110297706202 171.74426549536312,137.90141532454876 171.2601268911654,138.80722303562746 170.5729624206936,139.71303074670612 170.44802342606016,140.02537823328421 170.3699365544173,140.6188384577837 170.24499755978383,140.91556857003457 170.04197169350752,141.1498291849687 169.4641288433375,141.6652025378231 169.16739873108887,142.05563689604625 168.870668618838,142.6647144948752 168.74572962420677,143.19570522205905 168.6364080039028,143.383113714007 167.80868716447029,144.16398243045336 167.05905319668065,144.52318204001983 166.74670571010256,144.72620790629614 166.46559297218118,145.10102489018985 166.0439238652991,145.44460712542687 165.85651537335224,145.95998047828238 165.70034163006207,146.20985846754485 165.02879453391753,146.7408491947287 164.84138604197068,146.94387506100503 164.7320644216689,147.3343094192293 164.7320644216689,147.47486578818888 164.76329917032558,147.58418740849177 164.9038555392863,147.69350902879467 165.70034163006207,148.08394338701783 165.8408979990228,148.2713518789658 165.8721327476817,148.48999511957047 165.80966325036607,148.70863836017512 165.66910688140538,148.91166422645142 164.98194241093137,149.41142020497747 164.77891654465506,149.63006344558326 164.66959492435328,149.80185456320177 164.63836017569434,149.97364568082025 164.68521229868273,150.22352367008273 164.98194241093137,150.78574914592443 165.68472425573484,151.56661786237186 165.99707174231293,152.26939970717422 166.16886285993033,152.58174719375342 166.77794045875928,153.25329428989687 167.2464616886275,153.9092240117131 167.76183504148415,154.44021473889694 167.99609565641714,154.75256222547614 168.19912152269347,155.14299658369933 168.27720839433854,155.34602244997564 168.27720839433854,155.51781356759415 168.183504148364,155.87701317715948 168.21473889702293,156.08003904343582 168.870668618838,156.78282088823818 169.1830161054161,157.20448999511916 169.2611029770612,157.37628111273767 169.21425085407503,157.51683748169836 169.01122498779873,157.6417764763296 168.93313811615363,157.7510980966325 168.99560761346925,158.21961932650072 168.870668618838,158.50073206442212 168.51146900927156,158.7818448023424 167.65251342118015,159.25036603221065 167.40263543191767,159.48462664714475 167.1839921913119,159.7813567593945 167.05905319668065,160.0937042459737 167.0434358223512,160.7496339677888 166.96534895070613,161.0932162030258 166.80917520741818,161.31185944363048 166.3562713518794,161.67105905319696 166.27818448023433,161.7803806734987 166.30941922889102,161.87408491947326 166.54367984382625,162.1395802830652 166.5280624694968,162.37384089799932 166.41874084919502,162.54563201561783 166.075158613958,162.81112737920975 166.01268911664238,162.90483162518316 166.09077598828748,163.01415324548495 166.41874084919502,163.12347486578784 166.91849682771996,163.15470961444564 167.3557833089315,163.43582235236704 167.6368960468507,163.70131771595896 168.0897999023917,164.27916056613012 168.30844314299523,164.57589067837984 168.41776476329923,164.7945339189845 168.43338213762868,164.95070766227465 168.40214738896978,165.1068814055637 167.96486090776045,165.54416788677415 167.8711566617859,165.74719375305045 167.91800878477207,166.1376281112736 168.183504148364,166.88726207906328 167.85553928745645,168.19912152269347 167.8711566617859,168.52708638360212 167.96486090776045,168.870668618838 168.19912152269347,169.4016593460219 168.55832113225992,169.8857979502196 168.71449487554787,170.47925817471906 168.82381649585187,170.5104929233769 169.16739873108887,170.43240605173293 169.52659834065312,170.55734504636416 169.65153733528436,170.65104929233758 170.4636408003896,172.11908247925794 171.088335773548,172.89995119570537 172.1971693509019,173.9306979014153 172.57198633479783,174.57101024890204 172.66569058077013,174.6178623718882 172.93118594436208,174.63347974621766 173.05612493899332,174.69594924353328 173.94631527574364,175.5861395802825 174.05563689604543,175.82040019521662 174.05563689604543,176.0390434358224 173.69643728648117,177.11664226451958 173.58711566617717,177.33528550512426 173.36847242557363,177.58516349438784 172.72816007808575,177.91312835529538 172.46266471449383,178.0849194729139 171.79111761834926,178.9438750610053 171.0258662762324,179.55295265983423 170.2293801854566,180.0214738897025 169.6827720839433,180.5368472425569 169.38604197169244,180.77110785749102 168.73011224987732,181.06783796974076 168.19912152269347,181.20839433870145 167.65251342118015,181.23962908735925 166.85602733040434,181.09907271839856 166.57491459248294,181.14592484138583 166.40312347486557,181.27086383601707 165.80966325036607,181.86432406051765 165.04441190824699,182.47340165934548 164.85700341630013,182.7076622742796 164.8257686676412,183.00439238652936 164.91947291361575,183.34797462176635 165.153733528551,183.69155685700338 165.48169838945853,183.98828696925312 165.91898487066786,184.17569546119998 167.82430453879977,184.70668618838494 168.23035627135238,184.90971205466013 168.51146900927156,185.12835529526592 168.65202537823225,185.33138116154223 168.76134699853625,185.5500244021469 168.93313811615363,186.44021473889723 169.0893118594438,186.8618838457782 169.0424597364554,187.01805758906724 168.85505124450856,187.14299658369958 168.41776476329923,187.25231820400137 167.5275744265489,187.3147877013181 167.0434358223512,187.2835529526592 166.40312347486557,187.1742313323574 165.2474377745233,186.87750122010766 164.34163006344573,186.56515373352846 163.279648609078,185.98731088335734 162.15519765739242,185.51878965348908 161.73352855051257,185.39385065885784 160.60907759882923,185.1595900439237 160.01561737432752,185.1595900439237 158.7818448023424,185.3782332845284 157.14202049780243,185.53440702781853 156.79843826256763,185.51878965348908 156.626647144948,185.44070278184512 156.5329428989757,185.28452903855495 156.5329428989757,184.62859931673987 156.4236212786717,184.25378233284505 156.2205954123954,183.9570522205953 156.0019521717896,183.83211322596406 155.76769155685662,184.34748657881846 155.09614446071205,185.56564177647635 154.47144948755366,187.39287457296206 154.45583211322642,187.81454367984415 154.56515373352818,188.32991703269855 154.7057101024889,188.54856027330433 155.20546608101384,189.12640312347435 155.67398731088207,189.75109809663275 156.31429965836992,190.3914104441184 156.75158613957925,190.7037579306976 158.1259150805273,191.42215714982942 158.53196681307992,191.71888726207916 158.7818448023424,191.96876525134164 159.0629575402638,192.42166910688152 159.2972181551968,192.96827720839374 159.50024402147312,193.9834065397753 159.51586139580257,194.3738408979985 159.9219131283552,194.6705710102482 160.718399219131,195.18594436310374 161.48365056124788,195.5763787213269 162.49877989262944,195.91996095656393 164.18545632015557,196.3103953147871 164.70082967300996,196.4821864324056 164.85700341630013,196.575890678379 164.91947291361575,196.70082967301136 164.87262079062958,196.8257686676426 164.70082967300996,197.01317715958945 164.15422157149888,197.40361151781372 161.73352855051257,198.51244509516872 160.68716447047208,198.87164470473408 159.10980966324993,199.2152269399711 158.62567105905225,199.38701805758848 157.89165446559207,199.77745241581277 157.18887262079082,200.29282576866717 155.4241093216196,201.02684236212735 153.7999023914091,201.5265983406534 152.78477306002975,201.65153733528575 152.44119082479273,201.7608589555875 151.94143484626557,202.07320644216674 151.33235724743662,202.55734504636442 150.30161054172783,203.69741337237613 149.9580283064908,204.02537823328478 148.97413372376815,204.24402147388943 147.77159590043973,204.68130795509987 146.55344070278184,204.9936554416791 146.05368472425468,205.1966813079554 145.2884333821378,205.58711566617856 144.03904343582101,206.11810639336244 142.64909712054575,206.55539287457287 142.08687164470518,206.69594924353356 141.74328940946816,206.69594924353356 140.99365544167853,206.58662762323067 140.05661298194204,206.3367496339671 139.7286481210345,206.28989751098092 139.3382137628113,206.28989751098092 138.66666666666677,206.35236700829654 138.43240605173153,206.3367496339671 137.91703269887714,206.16495851634969 136.97999023914062,205.7120546608098 136.44899951195677,205.61835041483639 135.93362615910237,205.64958516349418 134.90287945339134,205.8213762811127 133.9502196193254,205.9150805270861 133.48169838945714,206.04001952171734 132.9819424109322,206.3055148853093 132.73206442166972,206.49292337725726 132.247925817472,206.9614446071255 131.0453879941436,208.57003416300654 130.79551000488112,209.19472913616383 130.59248413860482,210.11615422157087 130.34260614934013,210.5846754514391 129.5929721815505,211.39677891654438 129.03074670570993,212.13079551000453 128.37481698389482,212.7711078574913 128.12493899463013,213.0834553440705 127.93753050268327,213.47388970229366 127.85944363103819,213.78623718887286 127.84382625671095,214.7076622742799 127.71888726207972,215.37920937042446 127.43777452415833,215.9102000976083 126.98487066861954,216.40995607613436 126.67252318203923,216.65983406539794 126.31332357247499,216.816007808687 125.7510980966322,216.90971205466042 125.28257686676396,216.87847730600262 125.28257686676396,217.20644216691016 125.18887262078941,217.58125915080498 124.9546120058564,217.924841386042 124.73596876525063,218.1591020009761 124.1893606637373,218.48706686188368 122.92435334309327,218.98682284040973 121.62811127379253,219.72083943386988 121.17520741825152,220.11127379209307 120.50366032210697,220.82967301122488 120.19131283552888,221.07955100048736 119.86334797462132,221.22010736944807 119.47291361639816,221.32942898975094 118.34846266471482,221.53245485602727 117.45827232796448,221.75109809663192 116.98975109809624,221.9072718399221 116.63055148852976,222.06344558321112 116.25573450463605,222.29770619814525 115.97462176671466,222.5163494387499 115.78721327476781,222.75061005368403 115.74036115178166,223.01610541727706 115.86530014641289,223.29721815519736 116.0683260126892,223.4846266471442 116.61493411420253,223.89067837969682 116.78672523181991,224.06246949731533 116.95851634943732,224.3279648609073 117.33333333333324,224.99951195705182 117.66129819424079,225.45241581259174 118.0361151781345,225.76476329916983 118.78574914592414,226.1864324060519 118.89507076622813,226.34260614934095 118.91068814055538,226.5612493899456 118.73889702293798,227.20156173743237 118.64519277696344,228.18545632015613 118.31722791605588,228.8882381649585 118.19228892142465,229.060029282577 117.97364568081888,229.24743777452386 117.7237676915564,229.32552464616893 117.00536847242569,229.34114202049727 116.58369936554361,229.41922889214234 114.647144948755,230.18448023426035 114.38164958516307,230.26256710590542 114.0224499755966,230.21571498291814 113.55392874572836,230.0595412396291 112.52318204001955,229.43484626647071 112.3357735480727,229.41922889214234 112.16398243045307,229.48169838945796 111.96095656417677,229.65348950707647 111.75793069790045,229.90336749633894 111.19570522205989,230.90287945339216 111.13323572474427,231.1059053196685 111.16447047340097,231.3401659346015 111.2894094680322,231.6212786725229 111.55490483162414,231.91800878477264 111.82040019521607,232.1054172767206 111.0551488530992,232.69887750122007 110.66471449487602,232.9331381161542 110.33674963396848,233.07369448511488 109.86822840410024,233.1361639824305 108.72816007808743,232.99560761346982 107.93167398730941,233.0268423621276 107.18204001952199,233.22986822840394 106.2762323084422,233.68277208394272 105.85456320156234,233.80771107857507 104.55832113225938,233.88579795021903 103.69936554416796,234.01073694485137 103.12152269399573,234.1356759394826 102.46559297218062,234.38555392874508 102.05954123962799,234.47925817471963 100.38848218643133,234.54172767203525 99.21717911176182,234.71351878965376 99.09224011713059,234.68228404099594 98.99853587115605,234.6198145436792 98.85797950219535,234.33870180575894 98.73304050756411,233.6515373352849 98.63933626158958,232.6520253782328 98.48316251830164,232.199121522694 98.13958028306463,231.7930697901414 97.7022938018553,231.4026354319182 97.21815519765761,231.07467057100956 96.67154709614428,230.80917520741764 95.84382625670956,230.49682772083955 95.07857491459269,230.30941922889158 94.51634943874991,230.2313323572476 93.36066373840764,230.24694973157597 92.73596876525146,230.15324548560253 92.12689116642252,229.9189848706684 90.73694485114724,229.2005856515377 90.23718887262008,229.04441190824753 89.62811127379113,229.060029282577 88.34748657881764,229.27867252318165 87.26988775012268,229.35675939482672 86.7076622742799,229.35675939482672 86.06734992679425,229.27867252318165 85.72376769155724,229.15373352855042 85.36456808199077,228.96632503660356 85.16154221571446,228.79453391898505 84.70863836017567,228.294777940459 84.42752562225428,228.07613469985324 84.08394338701727,227.9824304538798 83.77159590043918,228.04489995119542 82.94387506100446,231.090287945339 82.75646656905761,232.0273304050755 82.75646656905761,232.620790629575 83.10004880429462,234.57296242069305 83.14690092728078,235.05710102488965 83.0688140556357,235.51000488042953 82.85017081503214,235.93167398731052 82.77208394338707,236.1815519765741 82.72523182040091,236.82186432406087 82.80331869204377,237.24353343094182 82.95949243533393,237.55588091752102 83.53733528550394,238.14934114202052 83.99023914104495,238.7115666178622 84.66178623718952,239.27379209370386 84.80234260614799,239.53928745729579 84.8335773548069,239.83601756954553 84.6305514885306,240.58565153733517 84.47437774524045,241.5383113714 84.16203025866236,242.49097120546597 83.78721327476865,243.36554416788684 83.56857003416287,244.05270863835975 83.44363103953164,245.44265495363612 83.36554416788655,246.8638360175692 83.27183992191202,247.7696437286479 83.2093704245964,248.0819912152271 83.05319668130846,248.40995607613465 82.66276232308307,249.0815031722792 82.49097120546568,249.45632015617403 82.25671059053266,250.23718887262035 81.88189360663674,251.6739873108829 81.61639824304481,251.9551000488043 80.83552952659848,252.48609077598815 80.63250366032216,252.70473401659282 80.67935578330832,252.79843826256737 81.00732064421587,253.00146412884257 81.16349438750602,253.18887262079053 81.2728160078078,253.45436798438246 81.30405075646672,253.82918496827727 81.25719863347834,254.11029770619757 81.05417276720425,254.50073206442184 80.81991215226901,255.4065397755005 80.53879941434762,255.7813567593942 78.6803318692041,254.7974621766716 78.1649585163497,254.65690580771087 77.3997071742306,254.547584187408 76.99365544167797,254.42264519277677 76.61883845778426,254.23523670082992 75.66617862371831,253.61054172767152 75.0883357735483,253.36066373840904 74.61981454368005,253.29819424109343 74.08882381649619,253.28257686676395 72.54270375793075,253.42313323572466 71.90239141044289,253.42313323572466 71.40263543191794,253.36066373840904 70.38750610053637,253.1576378721327 69.63787213274674,253.0951683748171 69.3099072718392,253.1576378721327 69.0287945339178,253.31381161542177 68.84138604197095,253.53245485602753 68.49780380673394,254.11029770619757 68.01366520253845,254.547584187408 67.76378721327376,254.70375793069815 67.13909224011758,254.96925329429007 66.34260614934178,255.50024402147395 65.99902391410477,255.60956564177573 64.40605173255318,255.95314787701273 63.718887262079164,256 63.141044411906925,255.93753050268438 62.734992679356516,255.8594436310393 62.43826256710566,255.73450463640808 61.376281112737935,255.14104441190747 60.95461200585585,254.81307955099993 60.548560273303224,254.3757930697895 60.31429965837021,254.01659346022413 60.204978038066216,253.59492435334315 60.25183016105459,253.18887262079053Z"/>
  </g>
</svg>