<?xml version="1.0" encoding="UTF-8" standalone="no"?>
<svg viewBox="0 0 256 188.2364501765734" xmlns="http://www.w3.org/2000/svg">
  <style>
    g.zone {
      fill: lightgray;
      stroke-width: 2;
      stroke-linecap: square;
      stroke-linejoin: bevel;
      stroke-miterlimit: 3;
      stroke-opacity: 0.8;
      stroke: black;
      fill-opacity: 0.3;
    }
  </style>
  <g class="zone" id="zone">
    <path d="M130.18148318747103,174.361430984189 128.17687701520066,173.2608628896087 127.03700291724397,172.43543681867416 126.44741286657326,171.84584676800623 125.89712881928729,170.86319668355785 125.50406878550682,169.48748656533454 125.46476278212765,167.01120835252814 125.18962075848466,162.92338400123182 124.87517273146251,162.01934592354175 124.44280669430287,161.42975587287384 121.0624904038064,158.95347766006745 119.09719023491517,157.77429755873158 117.24980807615587,157.0274834945526 113.98740979579131,156.1627514202389 112.49378166743331,155.49454936281543 111.43251957623495,154.70842929525728 110.60709350530041,153.7650852141908 110.29264547827268,153.13618916014372 110.09611546138802,152.50729310609944 109.54583141409647,148.4587747581795 109.30999539382707,147.55473668048663 107.58053124520525,144.17442038999295 106.95163519115538,141.46230615691994 106.51926915400132,140.2438200522049 105.81176109319868,139.0253339474927 104.51466298173094,137.53170581913471 103.76784891754914,136.94211576846678 102.9424228466146,136.50974973130994 101.60601873176768,135.95946568401837 100.15169660678885,135.56640565024068 98.69737448180443,135.36987563335046 94.80608014739556,135.25195762321854 92.84077997850434,134.89820359281723 91.46506986027826,134.5444495624159 88.87087363734274,133.60110548134668 83.3287271610648,131.04621526178752 81.44203899892634,129.94564716720723 79.83049286043084,128.68785505911583 78.92645478274356,127.70520497466744 77.03976662060509,125.34684477199573 73.3056962997073,121.76999846461182 72.48027022877277,120.78734838016621 71.61553815445906,119.45094426531928 71.10456011054667,118.4289881774945 70.82941808690369,117.40703208966973 70.79011208352453,116.42438200522412 70.86872409028285,115.75617994779788 71.26178412405775,114.69491785659672 72.16582220175061,113.08337171810402 72.32304621526168,112.4937816674361 72.24443420850895,111.94349762014734 71.6941501612174,110.96084753569893 70.04329801934833,108.68109933978556 69.02134193152355,107.42330723169138 68.19591586058901,106.67649316751239 66.50575771534078,105.69384308306678 63.95086749577884,104.63258099186564 57.504682941808035,102.3135267925703 49.72209427299032,99.71933056963199 47.9926301243685,99.28696453247514 46.656226009521575,99.05112851220854 45.12329187778442,98.972516505453 39.97420543528138,98.972516505453 28.850606479346347,99.71933056963199 28.69338246583527,99.40488254260985 27.592814371257752,98.57945647167531 27.278366344235604,98.18639643789483 26.963918317213455,97.51819438047137 26.92461231383429,96.53554429602576 27.278366344235604,94.68816213726645 28.182404421922886,91.81882389068237 28.22171042530205,89.77491171503281 28.57546445570336,86.66973744818212 29.28297251650599,85.13680331644495 29.75464455703921,83.72178719484249 30.462152617841838,82.11024105634979 31.05174266850697,81.24550898203888 31.955780746199835,80.42008291110156 32.15231076309008,79.9877168739475 32.03439275295258,79.63396284354619 31.326884692155538,78.57270075234224 31.05174266850697,77.98311070167432 29.990480577308617,74.24904038077933 29.00783049285742,70.16121602948023 28.22171042530205,67.68493781667662 27.71073238138966,66.93812375249763 26.1777982496525,65.09074159373831 25.470290188849873,63.361277445110915 24.998618148316652,62.81099339782215 24.448334101030685,62.49654537080001 23.622908030090564,62.22140334715423 19.770919699060865,61.5138952863516 18.395209580840362,61.04222324581838 17.84492553354881,60.6491632120379 16.70505143559213,59.1555350836799 15.761707354520096,58.212191002610666 12.931675111315176,56.24689083371945 12.263473053891714,55.69660678642789 11.634576999847416,54.674650698603116 11.398740979578013,53.967142637803285 11.32012897282527,52.5914325195772 11.634576999847416,50.86196837095259 11.673883003220997,48.38569015814619 11.555964993089088,47.59957009059082 11.084292952555865,46.53830799938687 8.490096729614763,43.62966374942642 7.625364655306647,42.80423767849188 3.9306003377880256,40.64240749270763 1.0219560878247749,39.070167357594094 0,38.28404729003593 0.6682020574234616,37.85168125287908 1.5722401351163273,36.986949178568175 2.397666206050863,36.00429909411977 3.02656226009516,34.94303700291862 5.463534469519602,29.676032550286468 7.507446645169153,24.566252111162594 7.979118685702375,22.75817595578245 8.057730692460705,21.26454782742445 7.625364655306647,17.648395516661363 7.586058651927482,15.997543374789501 7.7432826654385565,14.3859972362968 8.372178719482854,11.044986949179492 8.411484722862019,9.118992783664645 8.09703669583987,7.861200675573259 7.664670658680227,6.878550591127649 7.075080608015095,5.935206510058411 5.424228466146023,3.7340703208977866 4.913250422233635,2.8300322432077136 4.756026408722562,2.2404421925397893 4.7953324120961405,1.8866881621384757 4.913250422233635,1.6115461384926995 5.267004452634949,1.2184861047150142 5.935206510058411,0.8254260709373287 6.642714570855452,0.6288960540470896 8.922462766774405,0.2751420236457762 12.577921080913862,0.07861200675553709 18.748963611236093,0 80.65591893137096,0.03930600337916497 162.37309995394028,0.23583602026940412 197.04099493321314,0.15722401351107418 204.66635958851978,0.2751420236457762 210.44434208506152,0.6288960540470896 214.29633041609122,1.1791801013358492 217.00844464916423,1.8080761553829388 219.44541685859426,2.7121142330730117 220.50667894979262,3.262398280364564 221.72516505450764,4.0878243512990995 223.06156916935456,5.306310456011321 224.0049132504266,6.485490557347171 224.83033932136112,7.939812682328796 226.67772148012043,12.027637033625103 227.93551358820903,13.992937202519116 228.6037156456325,14.81836327345365 229.78289574696834,15.997543374789501 231.23721787195277,17.13741747274898 232.73084600031075,18.04145555043905 234.7747581759603,19.02410563488466 237.5261784124069,19.967449715953897 239.7666206049467,20.478427759866285 246.60586519269236,21.854137878092374 249.1607554122543,22.48303393213667 250.85091355750254,23.033317979428222 252.3838476892397,23.66221403347252 253.44510978044366,24.21249808076407 254.506371871642,24.998618148319444 255.2531859358238,25.863350222633144 255.68555197297786,26.610164286812143 255.88208198986808,27.239060340859233 256,28.575464455706154 255.6069399662251,30.14770459081969 254.8994319054225,31.523414709045777 253.8774758175977,32.820512820513535 252.6196837095091,34.07830492860492 250.7723015507498,35.65054506372125 246.2128051589175,39.10947336097047 244.64056502380114,40.48518347919656 243.61860893597637,41.50713956702133 242.20359281437112,43.23660371564594 241.338860740063,44.73023184400673 240.7492706893923,46.145247965609194 240.35621065561182,47.67818209734635 240.15968063872717,49.446952249350126 240.31690465223824,51.490864424996886 240.67065868263956,53.37755258713536 242.00706279748647,58.526639029635604 242.3608168278822,60.41332719177129 242.55734684477244,62.2607093505306 242.67526485490993,66.38783970520608 242.20359281437112,76.72531859358294 242.3215108245086,81.95301704283872 242.5966528481516,85.29402732995882 242.9897128819321,88.12405957316375 244.48334101029008,94.60955013051091 244.8370950406914,96.65346230616046 244.9550130508233,98.73668048518638 244.87640104407055,100.89851067096785 244.5619530170428,102.78519883310632 244.12958697988876,104.671886995242 241.96775679410732,111.55043758636685 241.26024873330468,114.57699984646202 240.9851067096617,116.6995240288671 240.63135267926037,123.46015660986005 240.31690465223824,125.85782281590812 239.80592660832585,128.41271303547006 238.58744050361082,133.48318747121476 236.3863043144502,140.99063411638673 235.0499001996033,144.80331644403725 233.6741900813772,147.86918470751158 232.14125594964003,150.6599109473401 228.24996161523117,156.79164747428598 226.7563334868732,159.34653769384514 225.49854137878458,161.94073391678344 224.7517273146028,164.25978811607877 224.4765852909598,166.02855826808252 224.43727928758065,167.83663442346267 225.14478734838326,174.51865499770008 225.41992937202625,182.10471364962757 225.18409335176244,182.301243666515 224.83033932136112,182.3405496698942 224.63380930447087,182.18332565638312 224.39797328420147,181.63304160909155 223.80838323353635,181.4365115922041 222.74712114233242,179.8249654537114 221.60724704437573,177.30938123752864 221.41071702748548,177.1128512206384 221.017656993705,177.30938123752864 219.8777828957483,178.21341931521872 217.7945647167196,179.07815138953242 217.55872869645577,179.27468140641986 217.28358667281282,179.8249654537114 217.04775065254339,179.98218946722247 213.90327038231632,179.86427145708777 213.54951635191503,180.06080147397802 213.35298633502478,180.5717795178904 212.5668662674694,180.49316751113486 212.05588822355702,180.80761553815702 211.34838016275438,180.88622754491254 209.81544603101722,181.35789958544856 209.30446798710483,181.3185935820694 207.7715338553677,180.80761553815702 205.84553968985563,180.37524950100016 204.98080761554192,180.37524950100016 203.2906494702937,180.53247351451404 202.2686933824689,180.80761553815702 201.6791033317982,181.04345155842364 199.43866113926398,182.5763856901608 196.72654690619098,183.91278980500772 195.31153078458573,184.4237678489201 191.734684477199,185.48502994012404 186.97865806848205,186.23184400430304 185.01335789958523,186.9000460617265 184.0700138185188,187.09657607861394 177.623829264548,187.72547213266103 176.28742514970108,187.68616612928187 175.3833870720138,187.48963611239444 175.02963304161247,187.21449408874864 174.67587901121115,186.62490403808073 174.44004299094175,186.50698602794603 173.7718409335183,186.86074005834735 172.6319668355616,188.00061415630682 171.84584676800623,188.2364501765734 171.68862275449516,188.1185321664387 171.49209273760493,187.4110241056389 171.25625671733553,186.97865806848205 170.0377706126205,186.23184400430304 169.25165054506513,186.07461999079197 167.2863503761739,186.1925380009239 166.26439428834914,186.07461999079197 165.51758022416735,185.76017196376702 164.18117610932043,184.73821587594503 163.4343620451442,184.5416858590548 162.64824197758327,184.5416858590548 161.27253185935717,184.85613388607695 158.7569476431744,185.6815599570115 156.5558114540138,186.66421004145988 153.48994319054503,183.1659757408287 150.22754491018048,180.02149547060165 147.55473668048663,177.93827729157294 145.07845846768302,176.52326116997048 143.34899431905563,175.77644710579148 141.7767541839393,175.30477506525824 139.92937202518,174.8724090281014 138.00337785966792,174.55796100107926 134.3479195455229,174.2435129740543 130.18148318747103,174.361430984189Z"/>
  </g>
</svg>