<?xml version="1.0" encoding="UTF-8" standalone="no"?>
<svg viewBox="0 0 256 202.1910828025479" xmlns="http://www.w3.org/2000/svg">
  <style>
    g.zone {
      fill: lightgray;
      stroke-width: 2;
      stroke-linecap: square;
      stroke-linejoin: bevel;
      stroke-miterlimit: 3;
      stroke-opacity: 0.8;
      stroke: black;
      fill-opacity: 0.3;
    }
  </style>
  <g class="zone" id="zone">
    <path d="M119.86916853158829,191.39404372525416 120.11155104148851,191.12962644172765 120.28782923050514,190.82113961094853 120.46410741952177,190.31433981752494 120.5081769667775,189.87364434498178 120.5081769667775,189.41091409881236 120.4420726458939,189.03632294715123 119.97934239972447,187.956619039422 119.8250989843357,187.47185401962471 119.86916853158829,186.9650542262011 120.04544672060806,186.4141848855218 120.55224651403009,185.44465484592874 121.25735927009974,184.40902048545368 121.76415906352177,183.8140815975202 122.99810638664133,182.5801342744022 123.5930452745748,181.85298674470627 123.72525391633886,181.54449991392715 123.76932346359145,181.21397830952017 123.65914959545526,180.8393871578575 123.43880185918604,180.4207264589422 122.90996729213302,179.737648476502 122.35909795145525,179.27491823033253 121.3234635909802,178.6359097951449 120.86073334481075,178.28335341711164 119.91323807884402,177.4239972456532 118.89963849199681,176.25615424341566 117.29110001721614,175.33069375107522 117.11482182819951,175.17645033568647 114.36047512480759,174.91203305215996 111.36374591151858,174.82389395765162 110.32811155104352,174.62558099500714 108.9839903597878,173.9645377861932 107.19917369599048,173.36959889826127 104.5770356343626,172.13565157514174 103.98209674642912,171.93733861249723 102.79221897056216,171.69495610259858 102.4396625925289,171.5407126872098 102.08710621449563,171.2762954036833 101.51420210019002,170.54914787398891 100.87519366500395,169.91013943880128 99.55310724737608,168.94060939920823 98.40729901876483,168.23549664314015 98.09881218798417,167.7727663969707 97.48183852642596,166.25236701669834 97.10724737476482,165.45911516612193 96.5784128077118,164.04888965398575 96.07161301428977,163.27767257703562 95.41056980547583,162.57255982096754 95.01394388018684,162.24203821656056 92.78843174384795,160.74367360991607 92.12738853503402,160.17076949561044 90.82733689103088,158.80461353072843 89.43914615252255,157.5265966603547 89.1747288689976,157.32828369771022 87.94078154587805,156.62317094164212 86.57462558099446,155.60957135479336 85.95765191943626,155.0366672404893 85.49492167326682,154.39765880530166 85.03219142709737,153.91289378550437 84.30504389739986,153.38405921845447 83.64400068858592,153.0755723876738 83.37958340506097,152.5908073678765 83.18127044241648,152.3484248579794 81.99139266655264,151.5772077810293 81.77104493028028,151.35686004475852 81.70494060939984,151.04837321397784 81.8591840247886,150.34326045790974 81.99139266655264,148.9110001721457 82.27784472370546,148.75675675675691 82.58633155448612,148.47030469960413 82.96092270614724,147.9855396798068 83.18127044241648,147.56687898089152 83.40161817868884,146.7956619039414 83.48975727319714,145.53967980719557 83.31347908418051,144.32776725770387 82.91685315889153,143.09381993458433 82.34394904458591,142.0361508004814 81.44052332587489,140.8242382509897 80.44895851265242,139.76656911688679 79.21501118953286,138.62076088827712 77.76071613014409,137.45291788603802 76.24031674987172,136.39524875193666 74.54363918058273,135.33757961783374 67.58065071441011,131.28318127044182 63.01945257359303,128.39662592528742 59.295575830609636,126.14907901532067 58.4802892064038,125.59820967464292 57.75314167670941,125.04734033396359 57.22430710965952,124.51850576691369 56.91582027887885,124.07781029437055 56.67343776897863,123.65914959545526 56.51919435358986,123.19641934928582 56.36495093820109,122.40316749870942 56.27681184369277,120.06748149423278 56.14460320192873,119.29626441728267 55.88018591840378,118.52504734033413 55.26321225684244,117.70976071612985 54.51402995352019,117.02668273368963 53.89705629196198,116.60802203477277 53.19194353589232,116.2775004303658 52.464796006197936,116.05715269409501 51.53933551385905,115.83680495782423 49.97486658633097,115.66052676880602 45.391633671889146,115.33000516439907 43.54071268721138,115.06558788087412 42.35083491134442,114.7791358237213 41.205026682733184,114.38250989843388 39.99311413324149,113.80960578412827 39.00154932002215,113.21466689619479 38.208297469444176,112.57565846100871 37.415045618869335,111.73833706317815 36.68789808917182,110.70270270270308 36.15906352212192,109.55689447409185 35.850576691341246,108.43312101910847 35.696333275952476,107.37545188500555 35.65226372869675,106.27371320365003 35.89464623859697,102.6379755551734 35.9166810122217,101.38199345842598 35.7844723704608,99.9497331726635 35.56412463418844,98.91409881218844 35.18953348252732,97.90049922533967 34.594594594593836,96.82079531761045 33.84541229127158,95.80719573076169 32.76570838354393,94.72749182303247 31.641934928560556,93.8020313306936 30.628335341713356,93.05284902737134 29.416422792218533,92.28163195042123 28.49096229987965,91.77483215699763 27.212945429507503,91.15785849543785 26.26545016354076,90.80530211740302 25.27388535031829,90.49681528662391 24.260285763471092,90.27646755035312 22.27715613702929,90.0120502668266 20.249956963334892,89.9239111723183 18.068514374248593,90.0120502668266 13.617490101567682,90.38664141848774 11.898777758650827,90.40867619211559 10.797039077295311,90.36460664486144 9.58512652780362,90.25443277672527 8.24100533654789,90.0120502668266 6.985023239800473,89.68152866241964 5.530728180411695,89.15269409536975 4.2086417627838255,88.49165088655582 3.3713203649532595,87.98485109313064 2.7543467033919167,87.52212084696122 1.630573248408541,86.46445171285986 0.8813909450862901,85.47288689963895 0.33052160440853307,84.37114821828187 0.15424341539190128,83.79824410397624 0.022034773627861805,83.07109657428029 0,82.5422620072304 0.04406954725572361,81.99139266655108 0.17627818901663175,81.33034945773714 0.35255637803639484,80.88965398519557 0.9254604923388824,79.92012394560096 1.7187123429168567,79.03873300051623 2.820451024272371,78.20141160268567 4.230676536408557,77.38612497848139 5.332415217767202,76.8793251850578 9.100361508006317,75.33689103115758 12.956446892753748,73.28765708383531 14.300568084009479,72.67068342227553 15.424341538992856,72.25202272336026 16.52608022034837,71.96557066620744 17.583749354451292,71.74522292993666 18.707522809434668,71.56894474091845 20.117748321570854,71.45877087278384 21.26355655018209,71.43673609915598 23.841625064554243,71.56894474091845 26.573936994321432,71.92150111895329 28.821483904288183,72.42830091237688 30.738509209846402,73.06730934756452 32.41315200551067,73.75038733000476 34.616629368221695,74.80805646410768 38.49474952659699,76.81322086417578 40.58805302117497,77.73868135651622 42.37286968497228,78.39972456533016 44.55431227405858,78.95059390600792 46.36116371148375,79.23704596316072 48.74091926321454,79.45739369943152 55.9683250129121,79.8760543983468 58.34808056464289,79.92012394560096 59.36168015149009,79.83198485109264 60.353244964709425,79.63367188844815 61.23463590979572,79.3692546049232 62.35840936477909,78.92855913238006 63.460148046134606,78.28955069719399 64.67206059562943,77.51833362024387 68.55018075400473,74.56567395420903 69.82819762437687,73.7063177827506 70.75365811671575,73.15544844207284 71.87743157169913,72.58254432776722 73.17748321569914,72.05370976071576 74.74195214322722,71.59097951454632 76.04200378722723,71.34859700464767 78.3776897917023,71.12824926837688 81.2422103632304,71.04011017386856 83.59993114133333,71.06214494749486 85.56102599414727,71.26045791013935 88.02892064038637,71.7231881563088 100.67688070235945,74.91823033224229 101.71251506283451,75.11654329488678 102.7261146496817,75.24875193664926 103.49733172663183,75.29282148390341 104.24651402995407,75.24875193664926 105.28214839042913,75.05043897400633 106.0754002410071,74.74195214322566 106.84661731795723,74.32329144431037 107.52969530039589,73.79445687725891 108.23480805646554,73.11137889481869 108.76364262351544,72.47237045963104 110.23997245653521,70.40110173868092 110.85694611809342,69.62988466173081 111.54002410053522,68.94680667929057 112.39938027199365,68.30779824410294 113.52315372697701,67.75692890342519 114.71303150284085,67.38233775176406 116.12325701497704,67.16199001549327 117.57755207436894,67.1179204682391 118.6572559820966,67.18402478911956 119.93527285247187,67.38233775176406 121.10311585470784,67.64675503529057 122.75572387674424,68.15355482871418 125.09140988121932,69.07901532105305 130.15940781545842,71.37063177827552 132.1645722155281,72.11981408159778 133.72904114305618,72.60457910139351 135.315544844209,72.97917025305465 136.5274573937007,73.17748321569914 137.98175245308948,73.28765708383531 138.9953520399398,73.24358753658116 139.81063866414252,73.13341366844497 140.42761232570385,73.0012050266825 141.37510759166747,72.67068342227553 142.36667240488993,72.25202272336026 141.6615596488203,72.05370976071576 140.8242382509897,71.59097951454632 140.2954036839398,71.2163883628852 139.72249956963418,70.64348424857957 139.01738681356454,70.07058013427395 137.56309175417576,69.07901532105305 136.96815286624226,68.26372869684879 136.10879669478385,67.47047684627238 135.60199690136182,66.89757273196676 135.315544844209,66.25856429678068 135.24944052332543,65.61955586159304 135.38164916508947,65.1568256154236 135.7562403167506,64.8483387846445 137.2325701497672,64.12119125494854 138.8411086245479,63.085556894473484 139.4801170597371,62.777070063694374 140.42761232570385,62.46858323291371 142.7632983301789,61.91771389223595 143.6006197280095,61.851609571353926 145.82613186434838,62.116026854880445 146.70752280943466,62.13806162850674 147.7651919435376,61.91771389223595 149.8364606644877,61.30074023067617 150.32122568428503,61.23463590979415 150.89412979859063,61.256670683422016 152.56877259425175,61.41091409881235 153.9128937855075,61.697366155965156 156.31468411086303,62.51265278016786 158.8266483043547,63.460148046134606 159.88431743845763,63.76863487691528 161.82337751764686,64.05508693406809 163.89464623859698,64.12119125494854 162.3301773110689,63.504217593388766 160.6775692890356,62.64486142193191 157.4384575658464,61.63126183508314 155.32311929764367,60.70580134274426 154.5298674470657,60.44138405921775 153.89085901187963,60.33121019108313 153.2298158030657,60.33121019108313 151.18058185574344,60.63969702186224 150.54157342055424,60.63969702186224 149.94663453262388,60.507488380099765 148.47030469960413,59.978653813048304 147.87536581167376,59.824410397657964 147.10414873472365,59.758306076777515 145.25322775004275,59.714236529523355 144.4599758994679,59.62609743501504 143.22602857634837,59.27354105698021 141.28696849715914,58.30401101738717 138.2682045102423,57.26837665691211 137.58512652780362,57.15820278877593 136.0867619211591,57.11413324152177 133.90531933207282,56.805646410741105 132.29678085729213,56.71750731623278 131.6357376484782,56.585298674470316 130.79841625064765,56.25477707006335 129.9831296264418,55.792046823893905 129.38819073851147,55.2852470304703 128.99156481322248,54.71234291616469 128.83732139783058,54.293682217249405 128.79325185057797,53.919091065588276 128.88139094508628,53.52246514029929 129.38819073851147,52.37665691168805 129.696677569289,50.966431399551865 130.26958168359462,48.9392322258559 130.73231192976405,47.81545877087253 131.17300740230877,47.044241693922416 131.4814942330863,46.60354622138084 132.3628851781726,45.501807540023755 134.03752797383373,43.62885178171813 134.7426407299034,42.63728696849723 135.40368393871734,41.469443966259696 135.88844895851463,39.92700981235947 136.17490101566744,39.221897056291375 136.5274573937007,38.538819073851144 136.94611809261443,37.87777586503721 137.58512652780362,37.1065587880871 138.2682045102423,36.46755035290103 139.10552590807598,35.850576691341246 140.18522981580364,35.23360302978147 141.57342055431195,34.726803236356304 143.13788948184003,34.37424685832304 144.79049750387333,34.17593389567855 146.86176622482344,34.13186434842439 148.47030469960413,34.22000344293271 150.5195386469295,34.4183164055772 152.7450507832684,34.77087278361203 156.73334480977988,35.45395076605226 158.38595283181314,35.67429850232305 159.35548287140773,35.74040282320507 160.32501291100235,35.74040282320507 161.801342744019,35.56412463418844 162.52849027371337,35.365811671543945 163.29970735066348,35.03529006713698 163.93871578584955,34.550525047339676 164.3573764847664,34.04372525391607 164.57772422103562,33.58099500774664 164.68789808917182,32.96402134618686 164.64382854191922,32.369082458253374 164.44551557927474,31.619900154931127 164.9523153726999,31.487691513168652 165.54725426063024,31.4215871922882 168.14735754863338,31.355482871406178 168.58805302117497,31.31141332415202 169.11688758822487,31.13513513513539 170.06438285419162,30.694439662592245 170.57118264761678,30.38595283181314 171.67292132897228,29.482527113100552 173.413668445517,28.226545016353136 175.22051988294217,27.38922361852257 175.46290239283925,27.16887588225178 175.6391805818559,26.838354277844815 175.74935444999207,26.463763126183686 175.74935444999207,26.155276295403016 175.61714580822803,25.428128765708628 175.13238078843386,24.392494405233567 174.97813737304196,23.907729385436266 174.9561025994141,23.48906868652098 175.06627646755027,23.224651402994468 175.37476329833095,23.00430366672368 176.58667584782265,22.56360819418053 177.15957996212825,22.43139955241806 179.803752797384,22.078843174384797 180.26648304355345,21.9025649853666 180.46479600619793,21.74832156997783 180.59700464796197,21.483904286451313 180.5749698743341,21.197452229298506 180.13427440179254,19.655018075399845 179.6054398347395,18.244792563263662 179.6054398347395,17.95834050611085 179.67154415561996,17.78206231709422 179.89189189189233,17.45154071268725 180.24444826992558,17.165088655534444 181.67670855568963,16.415906352212193 181.96316061284244,16.195558615939838 182.7123429161647,15.336202444482973 184.40902048545368,13.551385780684097 185.07006369426762,12.692029609227236 185.33448097779257,12.295403683938247 185.79721122396515,11.105525908072853 186.06162850749007,9.981752453089475 186.45825443277906,9.386813565157562 187.67016698227076,8.241005336546323 188.92614907901503,7.227405749699125 190.8431743845764,5.8832845584433935 192.4517128593571,5.0900327078669845 192.8703735582739,4.759511103460017 193.61955586159618,4.010328800137767 194.5229815803072,3.3492855913238317 194.67722499569598,3.1069030814251803 194.7653640902043,2.864520571526529 194.89757273196832,1.8288862110514688 195.0958856946128,1.2780168703737116 195.602685488038,0.5067997934235992 195.99931141332382,0.11017386813461202 198.11464968152967,0 198.46720605956295,0.04406954725415794 198.88586675847978,0.15424341539033562 199.26045791014093,0.37459115166112533 199.81132725081866,0.8593561714584284 202.56567395421058,3.7018419693570954 203.3809605784133,4.406954725425188 204.10810810810767,4.759511103460017 205.98106386641643,5.222241349629458 206.818385264247,5.618867274918446 208.20657600275533,6.56636254088519 209.46255809950276,7.557927354106092 209.9693578929248,8.10879669478385 210.45412291272208,8.968152866242278 210.80667929075534,9.276639697021384 211.18127044241646,9.452917886038016 212.23893957651939,9.717335169564528 212.81184369082501,9.937682905835318 213.6932346359113,10.532621793767232 214.61869512825018,11.325873644345208 215.08142537441964,11.656395248752174 216.601824754692,12.449647099328583 217.96798071957247,13.022551213634202 218.65105870201424,13.441211912549486 218.93751075916705,13.705629196074433 219.17989326906726,14.014116026855104 219.95111034601425,15.57858495438006 220.54604923394774,16.371836804958033 222.37493544500077,17.980375279738713 224.60044758133967,20.161817868823444 225.63608194181472,20.977104493027717 227.75142021002057,22.475469099672218 228.85315889137607,23.13651230848615 229.9548975727316,23.621277328283455 232.13634016181788,24.34842485797941 233.37028748493745,24.899294198657167 234.03133069375139,25.36202444482661 234.86865209158194,26.17731106903088 235.50766052677116,26.92649337235313 235.86021690480442,27.43329316577673 236.1025994147015,27.940092959200328 236.45515579273476,29.06386641418527 236.7856773971433,29.768979170253363 237.4687553795851,30.980891719745053 238.41625064555183,32.39111723188124 238.74677224995725,32.787743157170226 239.12136340161837,33.14029953520349 241.06042348080757,34.44035117920507 241.3468755379604,34.74883800998417 241.52315372697703,35.05732484076327 241.6333275951132,35.630228955068894 241.5672232742296,36.401446032019 241.06042348080757,39.111723188156766 240.66379755551858,40.23549664314014 240.68583232914645,40.5880530211734 240.81804097090736,40.896539851954074 241.21466689619635,41.315200550869356 242.47064899294375,41.954208986055434 244.1452917886049,43.232225856429146 244.9605784128076,43.9593733861251 245.48941297986062,44.55431227405701 245.77586503701343,45.061112067480614 246.1724909622993,46.07471165432938 246.56911688758828,46.86796350490579 248.86073334481077,50.92236185229771 249.56584610087728,52.00206576002693 250.51334136684403,52.97159579962153 250.8658977448804,53.41229127216311 252.58461008779415,56.47512480633414 252.9592012394584,57.400585298674585 253.95076605267775,60.90411430538718 254.2592528834584,61.697366155965156 254.6558788087474,62.270270270269215 255.03046996040854,62.57875710104988 255.53726975383057,62.777070063694374 256,62.79910483732068 255.71354794284719,62.90927870545685 255.42709588569437,63.10759166810134 255.1847133757973,63.32793940437213 254.94233086589708,63.680495782406965 254.74401790325572,64.23136512308471 254.699948356,65.22292993630562 254.63384403511955,65.66362540884877 254.52367016698335,65.90600791874586 254.2592528834584,66.30263384403484 253.24565329660808,67.20605956274743 252.34222757789706,68.10948528146001 250.99810638664133,69.18918918918924 249.5217765536247,70.73162334308789 247.69289034257164,71.92150111895329 246.96574281287727,72.5164400068852 246.48097779307997,73.2215527629533 245.75383026338557,74.85212601136183 245.29110001721614,75.4029953520396 244.6741263556548,75.86572559820904 242.99948355999365,76.76915131692162 242.58082286107995,77.12170769495646 242.3384403511797,77.45222929936341 241.7214666896215,78.70821139610926 240.81804097090736,79.83198485109264 240.37734549836577,80.53709760716073 239.5840936477878,82.3659838182122 239.51798932690735,82.76260974350119 239.54002410053522,83.15923566879017 239.694267515924,83.62196591495962 240.2671716302296,84.70166982268884 240.33327595111007,84.96608710621379 240.31124117748533,85.2305043897403 240.04682389395725,85.7373041831639 239.2535720433824,86.48648648648614 238.94508521260173,86.97125150628345 238.85694611809342,87.30177311069042 238.85694611809342,87.76450335685986 239.07729385436576,89.1967636426239 239.07729385436576,89.68152866241964 238.7688070235851,90.16629368221695 238.52642451368803,90.36460664486144 238.21793768290735,90.49681528662391 237.64503356860172,90.62902392838639 236.4992253399905,90.71716302289471 234.93475641246553,90.98158030642122 234.05336546737925,91.00361508004751 232.07023584093744,90.71716302289471 229.66844551557878,90.23239800309896 227.46496815286775,90.0120502668266 226.84799449130642,89.87984162506413 226.38526424513697,89.68152866241964 225.79032535720663,89.24083318987806 224.15975210879807,87.52212084696122 223.78516095713695,87.05939060079177 223.49870889998414,86.59666035462233 223.25632639008393,86.08986056119716 222.92580478567854,84.72370459631513 222.77156137028976,84.41521776553603 222.48510931313695,84.28300912377355 221.42744017903402,84.0406266138749 221.0969185746255,83.84231365123041 220.78843174384795,83.57789636770546 220.01721466689784,82.58633155448456 219.201928042692,81.70494060939826 218.65105870201424,80.91168875882185 218.3866414184893,80.75744534343309 217.68152866242278,80.64727147529692 217.35100705801423,80.47099328628028 217.04252022723358,80.09640213461915 216.55775520743626,79.30315028404118 216.05095541401423,78.79635049061758 215.5221208469612,78.46582888621062 214.88311241177513,78.22344637631197 214.3763126183531,78.0912377345495 213.91358237218054,78.06920296092319 213.07626097434996,78.13530728180365 211.511792046825,78.66414184885511 209.11000172146635,79.30315028404118 207.69977620933017,79.8760543983468 204.7471165432969,81.3744190049913 203.68944740919397,81.99139266655108 202.56567395421058,82.78464451712905 201.97073506627711,83.33551385780682 201.0673093475661,84.43725253916233 200.4283009123769,85.09829574797625 199.9876054398353,85.47288689963895 199.3926665519018,85.78137373041805 198.599414701327,86.00172146668885 197.10105009468248,86.11189533482502 196.06541573420742,86.31020829746952 191.68049578240695,87.45601652607918 189.69736615596517,88.18316405577514 189.01428817352337,88.53572043380997 188.04475813393188,89.17472886899604 187.73627130315123,89.32897228438638 187.67016698227076,90.0120502668266 187.71423652952336,90.32053709760729 187.80237562403167,90.54088483387807 188.00068858667618,90.78326734377673 189.21260113616785,91.73076260974346 189.4549836460681,92.01721466689628 189.6312618350847,92.32570149767538 189.719400929593,92.72232742296437 189.74143570322087,93.53761404716865 189.8295747977292,94.00034429333809 190.42451368565955,95.63091754174506 190.6448614219319,96.09364778791449 190.88724393183213,96.42416939232146 191.06352212084875,96.5784128077118 191.57032191427078,96.7987605439826 192.73816491650987,97.52590807367855 194.19245997590178,98.14288173523832 195.66878980891843,99.0683422275772 196.28576347047664,99.50903770012034 196.902737132038,100.21415045618845 197.05698054742675,100.54467206059542 197.14511964193508,100.85315889137452 197.12308486830722,101.16164572215519 196.902737132038,102.04303666723992 196.902737132038,102.37355827164689 197.01291100017417,102.7261146496817 197.49767601996834,103.49733172663025 198.55534515407126,104.73127904974982 199.23842313651306,105.83301773110689 199.74522292993822,106.97882595971812 200.11981408159934,108.36701669822645 200.5825443277688,109.07212945429454 200.78085729041328,109.64503356860016 200.8689963849216,110.21793768290578 200.89103115854945,110.87898089171972 200.69271819590497,112.81804097090736 200.6706834222771,113.63332759511006 200.71475296952968,115.06558788087412 200.89103115854945,116.14529178860333 200.95713547942992,117.4673782062312 201.2435875365827,118.30469960406177 202.14701325529373,119.73695988982581 202.41143053881868,120.33189877775773 202.43346531244654,120.59631606128424 202.3673609915661,120.70648992941885 202.01480461353285,120.90480289206334 201.97073506627711,121.36753313823279 201.8825959717688,121.58788087450515 201.50800482010766,122.07264589430245 201.0012050266825,122.57944568772605 199.899466345327,123.52694095369279 198.26889309691845,124.45240144603167 197.89430194525733,124.8269925976928 197.80616285074902,125.09140988121932 197.80616285074902,125.26768807023595 198.02651058702136,126.45756584610135 197.96040626614092,127.11860905491528 197.7620933034964,127.64744362196517 197.25529351007125,128.55086934067776 196.8366328111544,129.4763298330182 196.3959373386128,130.8865553451544 196.24169392322406,131.21707694956135 195.86710277156294,131.63573764847663 194.58908590118764,132.82561542434203 193.42124289895168,134.19177138922407 192.58392150112113,134.52229299363103 191.59235668789864,135.11723188156296 190.82113961094853,135.7782750903769 190.13806162850986,136.549492167327 189.4549836460681,137.49698743329216 188.70580134274581,138.7529695300396 187.82441039765953,140.4716818729549 186.81081081081234,142.63108968841487 185.9955241866065,142.542950593905 183.65983818213144,142.56498536753287 181.9851953864703,142.47684627302453 180.44276123257006,142.25649853675375 179.01050094680602,142.14632466861758 177.6223102082977,141.88190738509263 176.63074539507838,141.57342055431195 175.13238078843386,140.86830779824388 174.60354622138084,140.51575142020903 172.00344293338082,138.55465656739509 171.05594766741407,138.11396109485196 169.71182647615834,137.5410569805479 168.8745050783278,137.3647787915297 167.57445343432778,137.49698743329216 166.8693406782581,137.40884833878386 166.20829746944418,137.18850060251307 165.7676019969026,136.96815286624226 164.9743501463246,136.3732139783088 164.57772422103562,136.15286624203802 162.19796866930798,135.51385780685195 161.49285591323832,135.42571871234205 160.8097779307965,135.4477534859699 160.4351867791354,135.55792735410608 160.06059562747427,135.88844895851307 159.8182131175772,136.3732139783088 159.73007402306888,136.83594422447823 159.68600447581315,138.02582200034362 159.70803924944101,138.59872611464925 160.7877431571718,139.48011705973397 161.86744706489944,140.18522981580207 162.70476846273002,140.8242382509897 163.80650714408867,141.3310380444133 163.98278533310528,141.48528145980364 164.1810982957498,141.99208125322724 164.46755035290258,143.97521087966905 164.401446032019,144.39387157858434 164.1149939748662,145.0108452401441 163.03529006713853,146.35496643139984 161.42675159235787,147.78722671716233 161.18436908245764,148.1838526424513 161.05216044069675,148.58047856773874 160.98605611981628,149.15338268204434 161.1182647615772,149.63814770184166 161.44878636598574,150.1008779480111 162.2861077638163,150.91616457221537 162.4183164055772,151.158547082114 162.46238595283293,151.35686004475852 162.35221208469676,152.21621621621537 162.0877948011718,153.16371148218212 161.84541229127157,154.83835427784481 161.82337751764686,156.82148390428662 161.77930797039113,157.4604923394727 161.69116887588282,157.87915303838798 161.09622998794933,159.06903081425338 160.7216388362882,160.28094336374505 160.4351867791354,160.87588225167855 159.88431743845763,161.49285591323832 159.0249612669992,162.19796866930642 158.69443966259382,162.66069891547585 158.56223102082976,163.1895334825273 158.51816147357718,164.37941125839114 158.38595283181314,164.75400241005383 158.01136168015202,165.23876742984956 157.26217937682975,165.8116715441552 156.35875365811873,166.25236701669834 155.91805818557404,166.36254088483295 155.45532793940458,166.31847133757879 154.26545016354075,165.8998106386635 153.29592012394616,165.67946290239271 152.94336374591288,165.72353244964688 152.2602857634711,166.16422792219 151.95179893269042,166.27440179032465 151.6653468755376,166.31847133757879 151.00430366672367,166.29643656395248 149.77035634360413,166.05405405405384 149.2635565501821,166.0099845067997 148.6686176622486,166.20829746944418 147.06007918746792,167.04561886727475 146.99397486658748,167.3761404716817 147.01600964021534,167.75073162334283 147.4126355655012,169.557583060768 147.43467033912907,169.95420898605542 147.30246169736816,170.52711310036105 146.72955758306253,171.60681700809027 146.64141848855422,172.0475124806334 146.75159235668727,172.48820795317656 147.4567051127569,173.83232914443073 147.58891375452095,174.29505939060016 147.5668789808931,174.62558099500714 147.30246169736816,175.1544155620586 146.5973489412985,176.0798760543975 146.46514029953758,176.47650197968647 146.3549664314014,177.46806679290736 146.17868824238477,177.82062317094218 145.9142709588567,178.01893613358513 145.51764503357083,178.17317954897547 143.75486314339827,178.5477707006366 142.96161129282342,178.9223618522977 142.65312446204274,179.16474436219636 142.2344637631259,179.6054398347395 141.9039421587205,180.09020485453524 141.68359442244812,180.6190394215867 141.59545532793982,181.36822172490895 141.61749010156768,181.76484765019794 141.7496987433286,182.18350834911323 142.0802203477371,182.7123429161647 143.02771561370386,183.61576863487727 143.18195902909264,183.96832501291053 143.24806334997623,184.67343776897863 143.46841108624545,185.73110690308155 143.55655018075376,186.74470648992875 143.55655018075376,187.5820278877609 143.40230676536498,189.1685315889137 143.22602857634837,189.78550525047348 142.98364606644813,190.1600964021346 142.65312446204274,190.49061800654158 142.21242898950118,190.77707006369437 141.705629196076,190.97538302633887 139.9648820795313,191.39404372525416 139.56825615424543,191.5482871406429 139.3258736443452,191.74660010328742 139.0834911344481,192.1432260285764 138.81907385092316,193.20089516267777 138.88517817180363,193.81786882423754 139.12756068170071,194.2585642967807 139.87674298502296,195.1179204682391 140.03098640041486,195.4484420726461 140.07505594766747,195.8230332243072 139.67843002237848,197.40953692546003 139.63436047512587,198.29092787054475 139.65639524875374,199.85539679807127 139.59029092787014,200.29609227061442 139.45808228610926,200.71475296952968 139.25976932346475,201.08934412119083 138.7529695300396,201.75038733000474 137.65123084868407,202.03683938715756 137.012222413498,202.14701325529373 136.3732139783088,202.1910828025479 135.91048373213937,202.08090893441172 134.72060595627553,201.13341366844497 133.39851953864766,200.4062661387506 131.85608538474744,198.97400585298655 130.5560337407474,198.13668445515597 129.9390600791892,197.40953692546003 129.63057324840855,197.14511964193508 128.44069547254472,196.52814598037529 128.0881390945083,196.28576347047664 127.84575658461122,195.91117231881552 127.75761749010292,195.5365811671544 127.8016870373555,195.25012911000158 128.04406954725573,194.50094680667934 128.04406954725573,194.21449474952652 127.97796522637213,193.90600791874584 127.77965226373078,193.44327767257641 126.98640041315281,192.3635737648472 126.54570494061122,191.9449130659319 126.21518333620268,191.81270442416943 125.84059218454156,191.76863487691529 124.69478395593032,191.90084351867776 124.18798416250829,191.90084351867776 121.76415906352177,191.3720089516263 120.88276811843862,191.349974178 119.86916853158829,191.39404372525416Z"/>
  </g>
</svg>