<?xml version="1.0" encoding="UTF-8" standalone="no"?>
<svg viewBox="0 0 119.74109505393837 256" xmlns="http://www.w3.org/2000/svg">
  <style>
    g.zone {
      fill: lightgray;
      stroke-width: 2;
      stroke-linecap: square;
      stroke-linejoin: bevel;
      stroke-miterlimit: 3;
      stroke-opacity: 0.8;
      stroke: black;
      fill-opacity: 0.3;
    }
  </style>
  <g class="zone" id="zone">
    <path d="M36.21412578872336,211.02153470384673 36.83940565845674,212.01156116425815 37.50637085283892,213.3454915530225 37.74606146957059,213.9290860981071 37.90238143700319,214.37720333808272 38.00659474862592,214.76279259108443 38.08996539792351,215.24217382454705 38.1316507225723,215.83618970079345 38.08996539792351,216.62821086912277 37.68353348259666,219.79629554243846 37.579320170973936,220.95306330144507 37.568898839812846,221.49497252188013 37.60016283329907,222.01603907999154 37.67311215143409,222.51626297577855 37.78774679421938,223.00606554040297 37.975330755138216,223.58966008548757 38.21502137186989,224.18367596173397 39.62190107877074,227.0182780378586 40.12212497455626,227.9666191736205 41.747852635863644,230.78037858742073 42.268919193974305,231.81209037248095 42.59198046000357,232.5936902096477 42.75872175859874,233.17728475473226 42.85251373905889,233.79214329330307 42.88377773254512,234.44868715652342 42.86293507022146,235.8243028699366 42.87335640138403,236.418318746183 42.935884388356484,237.02275595359197 43.050519031141775,237.5334011805408 43.25894565438574,238.22120903724812 43.54032159576621,238.89859556279214 44.86383065336799,241.50392835334765 45.19731325055982,242.25426419702814 45.43700386729002,242.90038672908594 45.65585182169655,243.61945857927947 45.84343578261686,244.51569305923002 46.03101974353717,245.68288214939918 46.19776104213234,246.96470588235292 46.2915530225925,248.12147364135953 46.27071036026884,249.02812945247263 46.20818237329492,249.4345613677995 46.10396906167219,249.86183594545074 45.97891308772581,250.22658253612803 45.822593120293206,250.58090779564353 45.43700386729002,251.17492367189067 45.15562792591103,251.51882760024358 44.801302666394065,251.88357419092165 44.11349480968823,252.50885406065504 42.59198046000357,253.7594138001218 42.28976185629944,254.04078974150153 42.02922857724411,254.3325870140438 41.7686952981873,254.72859759820884 41.633217993078354,255.06208019539991 41.56026867494334,255.4580907795642 41.53942601261968,255.90620801953983 40.403500915936725,255.88536535721545 39.330103806227704,256 39.069570527172374,255.95831467535046 38.73608792998055,255.83325870140408 38.35049867697884,255.63525340932193 38.05870140443728,255.4580907795642 37.28752289843238,254.80154691634385 37.13120293099829,254.61396295542428 36.99572562588935,254.3638510075308 36.922776307754326,254.17626704661046 36.8602483207804,253.8010991247706 36.818562996131604,253.68646448198604 36.73519234683402,253.58225117036406 36.61013637288764,253.4884591899039 36.31833910034608,253.4259312029307 35.59926725015254,253.4050885406063 34.411235497658225,253.07160594341522 34.14028088744033,252.9257073071437 33.77553429676376,252.68601669041277 33.37952371259948,252.25874211276152 33.16067575819146,252.10242214532818 32.764665174027186,251.98778750254363 31.858009362914817,251.9148381844086 31.618318746183142,251.86273152859727 31.45157744758797,251.7689395481371 31.034724201098552,251.46672094443298 30.628292285771707,251.28955831467522 30.169753714633497,251.20618766537692 29.408996539792646,251.21660899653946 29.179727254223543,251.20618766537692 29.01298595562689,251.16450234072812 28.79413800122035,251.01860370445735 28.200122124974676,250.39332383472396 27.877060858945416,249.89309993893696 27.65821290453888,249.64298799104418 27.439364950132344,249.47624669244829 27.126725015265652,249.33034805617748 26.824506411560048,249.23655607571735 26.563973132504717,249.18444941990597 26.35554650926075,249.17402808874417 26.11585589252908,249.2052920822304 25.740687970689937,249.36161204966373 24.979930795847604,249.84099328312632 24.823610828413518,249.6638306533686 24.656869529818344,249.3928760431507 24.56307754935819,249.10107877060838 24.50054956238574,248.52790555668636 24.42760024424924,248.3507429269279 24.260858945654068,248.1423163036839 24.03158966008496,247.97557500508802 23.66684306940691,247.80883370649283 23.42715245267672,247.73588438835708 22.96861388153851,247.66293507022132 22.770608589455627,247.5899857520863 22.541339303886524,247.42324445349038 22.353755342967695,247.21481783024566 22.29122735599376,247.03765520048793 22.280806024831193,246.797964583757 22.37459800529135,246.5061673112147 22.62470995318559,246.09973539588785 22.64555261550925,245.98510075310404 22.593445959697885,245.90173010380573 22.37459800529135,245.80793812334556 21.905638102992054,245.69330348056175 21.08235294117579,245.6620394870748 20.82181966212046,245.620354162426 20.655078363525288,245.49529818847887 20.436230409118753,245.1618155912878 20.248646448198443,245.04718094850398 20.081905149603266,244.9950742926926 19.790107877060233,244.97423163036822 18.998086708731677,245.08886627315277 18.77923875432514,245.04718094850398 18.497862812944675,244.93254630571943 18.32070018318693,244.83875432525926 17.945532261346308,244.58864237736577 17.79963362507627,244.4531650722568 17.705841644616118,244.26558111133724 17.62247099531853,243.6507225727657 17.466151027884443,243.0879706900055 17.382780378586858,242.90038672908594 17.132668430694096,242.49395481375907 17.018033787908802,242.25426419702814 16.913820476287558,241.95204559332328 16.820028495827405,241.43097903521263 16.726236515367248,241.18086708731911 16.622023203744526,241.00370445756138 16.486545898635576,240.85780582128987 16.028007327497367,240.52432322409877 15.642418074495657,240.09704864644752 15.475676775900483,239.8365153673922 15.43399145125169,239.72188072460764 15.413148788926552,239.5551394260125 15.506940769386707,239.26334215347018 15.642418074495657,239.06533686138803 15.788316710767175,238.91943822511652 16.226012619580246,238.60679829024983 16.476124567473008,238.5338489721148 17.445308365560788,238.46089965397906 17.768369631588566,238.3879503358433 18.018481579482806,238.2628943618969 18.12269489110553,238.1586810502742 18.216486871564207,238.01278241400342 18.466598819458447,237.30413189497244 18.873030734785296,236.73095868104969 18.97724404640654,236.418318746183 18.987665377569108,236.23073478526342 18.96682271524545,236.03272949318128 18.810502747811366,235.48039894158293 18.84176674129759,234.83427640952513 18.789660085487707,234.11520455933234 18.831345410136503,233.9380419295746 18.998086708731677,233.55245267657216 19.03977203338047,233.40655404030062 19.0293507022179,233.0626501119477 18.90429472827152,232.58326887848511 18.89387339710895,232.45821290453873 18.935558721757744,232.24978628129404 19.1023000203544,231.8433543659679 19.196092000813074,231.47860777528987 19.21693466313821,231.1972318339094 19.123142682678054,230.66574394463618 19.112721351515486,230.4573173213922 19.16482800732685,230.25931202931005 19.3003053124358,229.9779360879296 19.321147974760937,229.71740280887425 19.258619987787004,229.42560553633197 19.17524933848942,229.17549358843848 18.685446773864985,228.57105638102948 18.57081213107969,228.320944433136 18.539548137593467,228.14378180337823 18.549969468756036,228.01872582943187 18.602076124567397,227.87282719316107 18.685446773864985,227.76861388153836 17.862161612048723,227.0182780378586 17.43488703439822,226.75774475880326 16.663708528393318,226.35131284347642 15.413148788926552,225.73645430490487 15.152615509871223,225.6322409932829 14.829554243841963,225.5488703439853 14.360594341542667,225.47592102584954 14.120903724810994,225.4863423570121 13.891634439241889,225.5488703439853 13.672786484835353,225.65308365560728 13.537309179726405,225.78856096071624 13.464359861591387,225.98656625279835 13.453938530428818,226.52847547323415 13.412253205780024,226.7473234276407 13.24551190718485,227.04954203134483 13.05792794626454,227.2475473234277 12.745288011397848,227.48723794015862 12.286749440259639,227.73734988805214 11.869896193771703,227.93535518013428 11.609362914716375,228.0083044982693 11.244616324038322,228.0083044982693 10.202483207815524,227.76861388153836 9.545939344595915,227.71650722572772 8.858131487888603,227.60187258294317 7.743049053530785,227.45597394667166 7.3887237940153,227.36218196621152 6.94060655403966,227.12249134948058 6.638387950335537,227.04954203134483 6.211113372685034,226.9765927132098 5.606676165275307,226.92448605739844 4.939710970893132,226.93490738856102 3.532831263993761,227.0808060248318 3.1889273356393635,227.0703846936692 2.9492367189091713,227.0182780378586 3.011764705881621,226.98701404437162 3.0951353551792082,226.90364339507406 3.1680846733157075,226.7056381029919 3.1680846733157075,226.29920618766505 3.241033991450726,225.9136169346626 3.209769997964501,225.6009769997959 3.2201913291270694,225.5071850193365 3.564095257479986,225.07991044168526 3.8663138611841084,224.76727050681856 3.960105841644264,224.60052920822264 4.001791166293057,224.44420924078932 3.991369835130489,224.33999592916732 3.9496845104816956,224.27746794219414 3.6266232444524356,224.152411968247 3.4807246081823986,224.02735599430062 3.2514553226132943,223.69387339710954 3.1680846733157075,223.42291878689164 3.1576633421531386,223.17280683899816 3.209769997964501,222.9852228780786 3.6474659067775725,222.16193771626305 3.7412578872377282,221.91182576836954 3.79336454304909,221.65129248931348 3.79336454304909,221.35949521677193 3.7516792184002967,221.10938326887842 3.4286179523710367,220.0985141461426 3.4077752900458993,219.7650315489515 3.4181966212084682,219.54618359454497 3.501567270506055,219.31691430897587 3.689151231426366,219.05638102992054 3.9079991858329017,218.88963973132462 4.366537756971111,218.66037044575626 4.585385711377647,218.52489314064732 4.762548341135389,218.32688784856444 4.918868308567994,218.05593323834728 4.970974964379357,217.87877060858952 4.970974964379357,217.72245064115617 4.9292896397305626,217.10759210258462 4.804233665784182,216.555261550987 4.825076328109319,216.39894158355366 4.856340321595544,216.3259922654179 4.991817626704494,216.20093629147152 5.314878892733754,216.08630164868697 7.3887237940153,215.6694484021983 7.763891715855923,215.57565642173813 8.107795644208839,215.42975778546662 8.274536942804012,215.3151231426828 8.42043557907553,215.17964583757384 8.94150213718619,214.43973132505593 9.493832688784554,213.80403012415996 9.160350091592726,213.6789741502136 8.847710156726034,213.51223285161768 8.264115611641444,213.10580093629156 7.732627722368217,212.8244249949111 7.597150417259268,212.68894768980215 7.513779767961681,212.50136372888258 7.513779767961681,212.32420109912485 7.617993079584405,212.11577447588013 7.857683696316078,211.74060655404026 7.90979035212596,211.59470791776874 7.920211683288528,211.4383879503354 7.878526358639735,211.25080398941583 7.701363728881992,210.8339507429264 7.597150417259268,210.61510278851986 7.440830449826663,210.38583350295076 7.211561164257558,210.18782821086862 6.7113372684705555,209.91687360065146 5.929737431304567,209.4062283737019 5.127294931813442,208.94768980256444 4.960553633218269,208.7913698351311 4.720863016486596,208.5204152249132 4.5958070425402155,208.42662324445303 4.387380419294767,208.38493791980423 4.1268471402394376,208.40578058212864 3.4181966212084682,208.7079991858335 2.980500712395396,208.82263382861805 2.37606350498567,209.01021778953762 2.1884795440668396,209.04148178302458 1.3547730510880087,209.01021778953762 0.7086505190309697,209.04148178302458 0.4689599022992966,208.96853246488882 0.3126399348666914,208.84347649094244 0.1563199674326052,208.6454711988603 0,208.3745165886424 0.12505597394638035,208.23903928353346 0.26053327905532936,208.05145532261315 0.3543252595154848,207.8742926928554 0.41685324648793454,207.67628740077328 0.44811723997564035,207.46786077752856 0.43769590881307174,206.72794626501062 0.458538571136728,206.31109301852194 0.6461225320570391,205.5607571748422 0.6252798697333828,205.38359454508443 0.5523305515968835,205.2272745776511 0.19800529208139866,204.82084266232425 0.0833706492975869,204.61241603907953 0.052106655811362056,204.42483207815997 0.0833706492975869,204.15387746794207 0.1771626297577424,203.820394870751 0.26053327905532936,203.67449623447948 0.3334825971903476,203.59112558518189 0.594015876245677,203.4660696112355 1.292245064115559,203.30974964380215 1.6569916547936125,203.1742723386932 1.9487889273351666,202.9658457154485 2.0842662324441155,202.7991044168533 2.178058212904271,202.611520455933 2.2197435375530645,202.41351516385086 2.3031141868506513,201.46517402808823 2.2510075310392894,200.78778750254423 2.1467942194180463,200.28756360675723 2.1155302259303403,199.95408100956612 2.042580907795322,199.78733971097097 1.5944636678196817,199.36006513331972 1.4381437003855957,199.1099531854262 1.3651943822505772,198.81815591288392 1.3860370445757144,198.45340932220586 1.4694076938733014,198.2032973743131 1.615306330144819,197.96360675758143 1.7924689599025614,197.7447588031749 2.011316914309097,197.56759617341714 2.3864848361482385,197.3904335436594 3.2201913291270694,197.21327091390168 3.4077752900458993,197.14032159576593 3.532831263993761,197.0465296153065 3.6162019132913477,196.87978831671057 3.66830856910271,196.41082841441056 3.7308365560751593,196.22324445349022 4.064319153266988,195.78554854467717 4.158111133727144,195.6083859149194 4.199796458375937,195.45206594748606 4.168532464888231,195.24363932424137 4.064319153266988,194.98310604518605 3.79336454304909,194.48288214939905 3.7516792184002967,194.31614085080386 3.79336454304909,194.10771422755914 4.064319153266988,193.59706900061033 4.1268471402394376,193.32611439039243 4.116425809076869,193.13853042947287 3.928841848158039,192.28398127417037 3.9184205169954707,192.1068186444126 3.9496845104816956,191.9504986769793 4.616649704863872,191.5961734174638 4.918868308567994,191.48153877467925 5.179401587624804,191.47111744351668 5.815102788519275,191.5961734174638 6.127742723385967,191.6065947486256 6.357012008955071,191.56490942397684 6.6904946061469,191.33564013840848 6.8363932424169365,191.3043761449215 7.01355587217616,191.3252188072459 7.3574598005290754,191.4085894565435 7.920211683288528,191.6065947486256 8.076531650722615,191.62743741095002 8.212008955831562,191.6170160797882 8.430856910238099,191.54406676165243 8.774760838591016,191.3669041318947 9.045715448808913,191.16889883981256 9.26456340321545,190.95005088540603 9.368776714838173,190.68951760634994 9.389619377161829,190.1267657235905 9.45214736413576,189.87665377569698 9.608467331568365,189.65780582129045 10.014899246895212,189.32432322409937 10.275432525950542,189.03252595155706 10.41090983105949,188.75115001017662 10.588072460817234,188.1779767962546 10.806920415223768,187.7611235497659 10.900712395683923,187.49016893954803 10.942397720332718,186.91699572562598 10.942397720332718,186.17708121310807 11.05703236311801,185.38506004477875 11.18208833706439,184.93694280480312 11.234194992875754,184.530510889477 11.213352330550615,184.43671890901686 11.150824343578165,184.3220842662323 10.754813759413887,183.93649501322986 10.598493791979802,183.71764705882333 10.535965805007352,183.48837777325423 10.54638713616844,183.32163647465904 10.598493791979802,183.11320985141433 10.744392428251318,182.84225524119643 11.463464278444857,182.21697537146306 11.974109505392947,181.59169550172967 12.120008141664465,181.33116222267435 12.172114797475826,181.1956849175654 12.182536128638395,181.03936495013204 12.036637492366879,180.03891715855877 11.953266843069292,179.86175452880104 11.869896193771703,179.7888052106653 11.348829635659564,179.54911459393435 10.952819051495286,179.2468959902295 10.442173824547195,178.9134133930384 9.931528597597625,178.4965601465497 9.243720740891792,178.51740280887412 8.753918176267359,178.4965601465497 8.399592916750393,178.44445349073837 8.253694280480357,178.39234683492774 8.066110319560046,178.2568695298188 6.732179930795693,177.07925910848778 6.607123956849312,176.91251780989188 6.523753307550245,176.69366985548533 6.471646651740364,176.36018725829425 6.49248931406402,176.00586199877876 6.336169346631415,175.6202727457763 6.284062690820052,175.3388968043966 6.200692041522466,175.22426216161202 5.929737431304567,175.05752086301612 5.72131080805912,174.88035823325836 5.4086708731924285,174.55729696722986 5.158558925299667,174.22381437003878 5.023081620190719,174.0049664156315 4.9501323020557,173.83822511703633 4.9501323020557,173.71316914308994 4.991817626704494,173.50474251984522 4.970974964379357,173.43179320170947 4.814654996946751,173.37968654589883 3.439039283533605,173.22336657846552 3.043028699369327,173.22336657846552 2.105108894769253,173.3588438835737 1.8654182780375796,173.34842255241188 1.6569916547936125,173.2858945654387 1.4381437003855957,173.17125992265414 1.2505597394667656,173.02536128638263 1.1150824343578165,172.88988398127367 1.0317117850602298,172.75440667616547 0.9796051292488677,172.52513739059637 1.0733971097090231,171.95196417667435 1.052554447383886,171.85817219621418 0.9796051292488677,171.82690820272722 1.4485650315481642,171.58721758599629 2.37606350498567,170.9619377162629 3.1055566863417767,170.6701404437206 3.366089965397106,170.61803378790924 4.387380419294767,170.57634846326044 4.793812334621614,170.53466313861165 5.043924282515856,170.47213515163847 5.137716262976011,170.4408711581515 5.241929574597254,170.35750050885392 5.283614899246047,170.21160187258315 5.241929574597254,170.07612456747418 5.002238957867062,169.75306330144494 4.9501323020557,169.64884998982293 4.9501323020557,168.78387950335863 5.127294931813442,168.40871158151802 5.471198860166359,167.95017301038055 5.554569509463946,167.78343171178463 5.564990840626514,167.64795440667567 5.429513535517565,167.2727864848358 5.450356197842702,166.84551190718454 5.512884184815152,166.62666395277802 5.78383879503305,166.1785467128024 5.929737431304567,165.66790148585355 6.023529411764724,165.76169346631372 6.159006716873672,165.85548544677386 6.440382658252658,165.95969875839583 6.81555058009328,166.0118054142072 7.513779767961681,166.0118054142072 7.84726236515351,166.0326480765316 8.09737431304627,166.08475473234296 8.399592916750393,166.20981070628935 8.587176877670704,166.3244453490739 8.74349684510479,166.44950132302029 9.1290860981065,166.9809892122935 9.420883370649536,167.231101160187 9.681416649704865,167.51247710156747 9.796051292488675,167.57500508854065 10.004477915732643,167.61669041318945 10.442173824547195,167.59584775086506 10.775656421737544,167.62711174435128 11.5676775900661,167.78343171178463 12.203378790962052,167.9814370038675 12.568125381640105,167.97101567270494 12.912029309993022,167.85638102992039 13.422674536942592,167.55416242621627 14.01669041318975,167.09562385507806 14.443964990840254,166.87677590067153 14.860818237329669,166.78298392021136 15.267250152656516,166.72045593323818 16.25727661306647,166.69961327091377 16.444860573986784,166.65792794626498 16.559495216772074,166.60582129045363 17.10140443720639,166.10559739466737 17.320252391612925,165.8242214532869 17.53910034602094,165.4282108691226 17.726684306939774,165.21978424587792 17.924689599022653,165.08430694076895 18.70628943618864,164.68829635660467 18.85218807246016,164.5423977203339 19.248198656624435,164.07343781803385 19.435782617544746,163.89627518827612 20.25906777936101,163.43773661713792 20.540443720739994,163.22930999389393 21.071931610013223,162.48939548137602 21.36372888255626,161.82243028699384 21.499206187665205,161.63484632607353 21.718054142071743,161.44726236515322 22.134907388561157,161.1658864237735 22.666395277834386,160.8532464889068 22.864400569915784,160.67608385914906 23.42715245267672,159.84237736617095 23.760635049867066,159.19625483411318 24.06285365357119,158.76898025646267 24.146224302868774,158.53971097089357 24.24001628332893,158.02906574394476 24.344229594951653,157.84148178302442 24.156645634031342,157.32041522491303 24.11496030938255,156.69513535518038 24.04201099124753,156.53881538774704 23.885691023813443,156.33038876450235 23.312517809891425,155.8822715245267 23.218725829431268,155.76763688174213 23.177040504782475,155.66342357012016 23.15619784245882,155.51752493384865 23.187461835945044,155.19446366782012 23.33336047221656,155.12151434968436 23.79189904335329,154.81929574598024 24.11496030938255,154.65255444738432 25.052880113982624,154.30865051903066 27.126725015265652,153.7667412985956 27.616527579890086,153.67294931813547 28.325178098921054,153.6208426623241 28.533604722165023,153.5791573376753 28.783716670059263,153.48536535721516 28.981721962140664,153.37073071443135 29.19014858538463,153.19356808467285 29.492367189090235,152.88092814980615 30.003012416038324,152.2764909423979 30.43028699369031,151.92216568288168 30.98261754528719,151.56784042336622 31.430734785262832,151.32814980663528 32.62918786891824,150.7237125992263 33.29615306330041,150.4527579890084 34.43207815998336,150.15053938530426 35.1198860166892,149.92127009973515 35.35957663342087,149.86916344392455 35.63053124363877,149.86916344392455 35.90148585385667,149.90042743741077 36.21412578872336,150.01506208019532 36.495501730103825,150.15053938530426 36.630979035212775,150.24433136576442 36.787299002645376,150.4110726643596 37.04783228170071,150.82792591084902 37.193730917972225,151.00508854060675 37.35005088540631,151.08845918990434 37.68353348259666,151.1405658457157 37.80858945654304,151.21351516385073 38.06912273559837,151.5886830856906 38.45471198860156,152.00553633218001 38.81945857927961,152.47449623448006 38.96535721554965,152.59955220842645 39.12167718298374,152.69334418888658 39.62190107877074,152.80797883167114 39.76779971504077,152.89134948096873 39.830327702014706,153.01640545491512 39.98664766944731,153.6625279869729 40.101282312232605,153.90221860370457 40.268023610827775,154.17317321392247 41.185100753104194,155.15277834317132 41.42479136983439,155.34036230409092 41.62279666191727,155.43415428455106 41.977121921432754,155.51752493384865 43.01925503765407,155.62173824547136 44.31150010176963,155.87185019336414 45.186891919397254,155.99690616731124 45.50995318542651,155.97606350498685 46.249867697943706,155.85100753103973 46.791776918379504,155.80932220639093 47.15652350905756,155.7155302259308 47.323264807652734,155.5904742519844 47.469163443924245,155.3612049664153 47.469163443924245,155.13193568084694 47.36495013230152,154.4545491553022 47.36495013230152,154.23570120089565 47.40663545695032,154.0793812334623 47.55253409322184,153.8501119478932 47.92770201506097,153.49578668837773 48.05275798900884,153.2560960716468 48.06317932016992,153.13104009769967 48.0319153266837,153.00598412375328 47.740118054142144,152.43281090983126 47.68801139833079,152.2764909423979 47.67759006716822,152.0889069814776 47.70885406065444,151.9013230205573 47.97980867087234,151.2447791573377 48.18823529411779,150.8696112354978 48.71972318339101,150.17138204762867 48.98025646244634,149.61905149603103 49.12615509871786,149.4210462039489 49.41795237125942,149.1917769183798 50.1995522084254,148.77492367189112 50.40797883167085,148.60818237329522 50.522613474454666,148.48312639934883 50.66851211072618,148.25385711377973 50.9707307144303,147.57647058823497 51.199999999999406,147.2429879910439 51.54390392835232,146.96161204966415 52.40887441481738,146.39886016690397 53.10710360268578,145.6693669855486 53.742804803581734,145.15872175859977 54.170079381232235,144.73144718094852 54.649460614695585,144.3041726032973 54.77451658864196,144.11658864237697 54.83704457561589,143.93942601261924 54.87872990026469,143.3766741298598 54.92041522491348,143.1786688377769 55.04547119885986,142.94939955220855 55.201791166292466,142.7930795847752 55.41021778953791,142.66802361082807 56.71288418481456,142.13653572155485 57.734174638713704,141.51125585182146 58.52619580704226,141.14650926114416 59.54748626093992,140.84429065743927 60.276979442296025,140.5108080602482 60.943944636678204,140.25027478119287 61.30869122735478,140.1564828007327 62.30913901892878,139.9897415021368 62.663464278444266,139.875106859353 63.226216161203716,139.63541624262132 64.11202930999391,139.19772033380823 64.3934052513729,139.0414003663749 64.6956238550785,138.80170974964398 65.21669041318916,138.27022186037073 65.41469570527056,138.1347445552618 65.64396499083966,138.03053124363908 66.51935680846728,137.85336861388132 67.11337268471296,137.69704864644797 67.38432729493086,137.64494199063736 68.44730307347731,137.60325666598783 69.4164868715651,137.46777936087886 70.2293507022188,137.44693669855448 70.42735599430019,137.1968247506617 70.62536128638307,136.86334215347063 70.75041726032944,136.52985955627955 70.7712599226531,136.33185426419666 70.76083859149202,136.1546916344389 70.70873193568066,135.93584368003238 70.44819865662532,135.39393445959658 70.39609200081397,135.21677182983885 70.39609200081397,134.86244657032336 70.52114797476034,134.31011601872572 70.47946265011154,134.12253205780542 70.20850803989366,133.75778546712812 69.79165479340423,132.8719723183394 69.66659881945786,132.71565235090605 69.42690820272618,132.54891105231013 69.27058823529357,132.4968043964988 69.09342560553584,132.50722572766134 68.57235904742518,132.6531243639321 67.8741298595553,132.83028699368987 67.45727661306736,132.86155098717683 67.26969265214704,132.84070832485244 66.99873804192914,132.74691634439228 66.77989008752262,132.6218603704459 66.62357012008853,132.47596173417438 66.49851414614214,132.31964176674103 66.40472216568199,132.13205780582146 66.35261550987063,131.93405251373932 66.35261550987063,131.62141257887262 66.41514349684456,131.34003663749218 66.57146346427717,130.87107673519213 66.79031141868518,130.35001017708146 66.977895379604,130.12074089151236 67.6344392428251,129.62051699572535 67.85328719723164,129.35998371667003 68.04087115815194,129.04734378180333 68.20761245674713,128.50543456136754 68.43688174231623,128.0260533279057 68.62446570323506,127.72383472420081 69.27058823529357,126.8588642377365 69.687441481783,126.94223488703409 70.05218807245957,126.97349888052105 70.41693466313762,126.97349888052105 70.59409729289536,126.93181355587227 70.92757989008719,126.76507225727634 71.53201709749544,126.41074699776087 72.01139833095878,126.17105638102993 72.60541420720446,125.8896804396502 72.79299816812477,125.76462446570308 72.94931813555885,125.60830449826973 73.03268878485645,125.45198453083638 73.0535314471801,125.32692855689001 73.03268878485645,125.19145125178106 72.97016079788251,125.04555261550955 72.77215550580111,124.82670466110301 72.34488092814912,124.55575005088511 72.19898229187761,124.34732342764114 72.16771829839139,124.23268878485659 72.17813962955395,124.1284754732346 72.20940362304017,124.04510482393628 72.3136169346629,123.9408915123143 72.48035823325807,123.8783635253411 72.68878485650204,123.8575208630167 74.09566456340289,124.29521677182979 74.37704050478337,124.34732342764114 74.58546712802733,124.33690209647857 74.7938937512713,124.26395277834281 75.40875228984211,123.9408915123143 75.85686952981776,123.74288622023215 76.13824547119822,123.6907795644208 77.05532261347315,123.6282515774476 77.58681050274787,123.51361693466305 77.98282108691214,123.38856096071667 78.86863423570085,123.06549969468742 79.8586606961123,122.78412375330768 80.16087929981641,122.64864644819873 80.31719926724902,122.53401180541418 80.45267657235797,122.36727050681827 80.53604722165555,122.19010787706053 80.74447384490101,121.27303073478559 80.78615916954979,120.689436189701 80.92163647465874,119.76193771626275 81.06753511093027,118.16747404844307 81.2551190718491,117.44840219824954 81.58860166904093,116.50006106248689 81.6719723183385,115.87478119275426 81.73450030531244,115.65593323834698 81.92208426623127,115.33287197231846 82.22430286993688,114.92644005699161 82.99548137594029,114.05104823936472 83.30812131080698,113.73840830449804 83.86045186240536,113.34239772033375 84.08972114797446,113.12354976592722 84.52741705678753,112.56079788316703 84.66289436189648,112.2794219417873 84.68373702422014,112.16478729900275 84.67331569305904,112.0084673315694 84.55868105027375,111.62287807856696 84.37109708935492,111.26855281905146 84.10014247913702,110.93507022186039 83.77708121310776,110.66411561164249 83.4540199470785,110.44526765723595 83.03716670058908,110.23684103399124 82.33893751272069,109.94504376144894 82.04714024017913,109.77830246285377 81.7553429676361,109.54903317728467 81.51565235090591,109.25723590474237 81.35933238347182,108.96543863220008 81.20301241603921,108.55900671687323 80.41099124770918,106.20378587421122 80.19214329330264,105.53682067982903 80.22340728678887,105.34923671890873 80.69236718908964,105.34923671890873 81.64070832485228,105.30755139425993 81.89082027274505,105.3179727254225 82.40146549969461,105.43260736820706 83.37064929778091,105.75566863423558 83.53739059637608,105.84946061469573 83.67286790148503,105.9745165886421 84.1522491349469,106.65190311418685 84.4648890698136,106.98538571137794 84.97553429676317,107.40223895786662 85.24648890698106,107.49603093832677 85.57997150417141,107.50645226948934 86.10103806228355,107.43350295135359 88.57089354772937,106.98538571137794 88.88353348259606,106.90201506208035 89.6442906574384,106.63106045186245 90.53010380622712,106.40179116629335 90.92611439039287,106.34968451048273 91.56181559128734,106.34968451048273 91.70771422755885,106.37052717280713 91.87445552615404,106.44347649094215 92.05161815591177,106.61021778953805 92.29130877264345,107.0374923671893 92.39552208426618,107.16254834113569 92.60394870751014,107.3084469774072 92.8436393242418,107.38139629554222 92.98953796051185,107.39181762670479 93.17712192143216,107.36055363321782 93.31259922654111,107.27718298392024 93.58355383675901,107.02707103602674 93.70860981070538,106.95412171789098 93.83366578465177,106.92285772440475 94.01082841440952,106.91243639324219 94.2817830246274,106.94370038672915 94.74032159576562,107.0791776918381 95.17801750457869,106.08915123142667 95.19886016690383,105.82861795237133 95.15717484225503,105.37007938123313 95.31349480968764,104.77606350498671 95.31349480968764,104.71353551801352 95.27180948503884,104.60932220639154 94.8236922450632,104.30710360268667 94.74032159576562,104.19246895990211 94.69863627111683,104.05699165479317 94.68821493995425,103.58803175249314 94.76116425809076,103.21286383065325 94.7820069204144,102.73348259719138 94.85495623855091,102.50421331162228 94.90706289436079,102.45210665581092 95.02169753714608,102.41042133116213 95.71992672501449,102.41042133116213 96.59531854264063,102.26452269489134 97.55408100956583,102.19157337675558 97.78335029513494,102.11862405861983 98.31483818440817,101.8789334418889 98.56495013230094,101.72261347445556 98.92969672297899,101.15986159169536 99.23191532668311,100.82637899450427 99.76340321595633,100.3469977610424 99.8884591899042,100.19067779360905 100.02393649501315,99.94056584571555 100.1177284754733,99.5341339303887 100.1177284754733,99.33612863830658 100.0864644819856,99.22149399552202 99.96140850803921,99.06517402808868 99.51329126806357,98.69000610624879 99.10685935273673,98.26273152859756 98.96096071646521,98.02304091186662 98.94011805414155,97.90840626908206 98.95053938530413,97.79377162629751 99.05475269692536,97.53323834724219 99.26317932017082,97.25186240586171 99.42992061876599,97.11638510075277 99.87803785874162,96.8454304905356 99.99267250152543,96.43899857520876 100.34699776104092,96.08467331569328 100.48247506614987,95.85540403012418 100.55542438428637,95.54276409525748 100.49289639731244,95.23012416039079 100.49289639731244,95.07380419295744 100.5450030531238,94.63610828414437 100.57626704661003,94.20883370649312 100.63879503358396,93.85450844697765 100.60753104009774,93.72945247303052 100.39910441685228,93.25007123956865 100.36784042336606,92.95827396702636 100.37826175452864,92.74984734378165 100.43036841034,92.52057805821329 100.51373905963757,92.35383675961738 100.62837370242138,92.21835945450843 100.87848565031415,92.02035416242629 101.00354162426201,91.89529818847991 101.18070425401976,91.62434357826201 101.22238957866855,91.47844494199049 101.25365357215478,90.71768776714816 101.07649094239703,90.2383065336863 100.98269896193688,89.79018929371065 100.88890698147672,89.62344799511474 100.57626704661003,89.28996539792365 100.40952574801486,88.94606146957074 100.33657642987984,88.84184815794801 100.18025646244575,88.72721351516421 99.97182983920179,88.63342153470404 98.3461021778944,88.11235497659264 97.68955831467478,87.71634439242837 97.27270506818537,87.50791776918366 97.07469977610397,87.30991247710152 96.77248117239985,86.83053124363965 96.68911052310078,86.61168328923237 96.86627315285853,86.49704864644858 96.89753714634624,86.37199267250145 96.9496438021576,86.31988601669083 97.15807042540156,86.24693669855507 97.05385711377883,86.03851007531036 96.89753714634624,85.54870751068593 96.76205984123729,85.23606757581923 96.66826786077712,84.78795033584359 96.58489721147954,84.68373702422161 96.3347852635853,84.50657439446387 96.20972928963891,84.37109708935492 96.0950946468551,84.17309179727278 96.0534093222063,83.95424384286625 96.04298799104374,83.526969265215 96.14720130266647,82.97463871361664 96.23057195196405,82.83916140850843 96.55363321799183,82.4431508243434 96.65784652961456,82.26598819458567 96.72037451658849,82.01587624669216 96.78290250356093,81.45312436393272 96.8350091593723,81.29680439649937 96.97048646448125,81.10922043557906 97.21017708121292,80.99458579279451 97.26228373702429,80.94247913698388 97.24144107469915,80.85910848768556 97.06427844494141,80.55688988398143 97.06427844494141,80.27551394260097 97.1059637695902,80.067087319357 97.32481172399673,79.57728475473256 97.41860370445688,79.08748219010813 97.5332383472407,78.83737024221463 97.89798493791875,78.21209037248124 98.04388357419027,78.07661306737229 98.15851821697409,78.03492774272351 98.35652350905697,77.99324241807471 99.13812334622295,77.96197842458774 99.23191532668311,77.93071443110152 99.26317932017082,77.88902910645199 99.21107266435945,77.8056584571544 98.94011805414155,77.51386118461211 98.73169143089758,77.11785060044782 98.59621412578863,76.93026663952752 98.31483818440817,76.68015469163475 97.98135558721634,76.49257073071445 97.13722776307642,76.13824547119896 96.79332383472351,76.07571748422578 96.3243639324242,76.0236108284144 96.11593730917876,75.96108284144121 95.89708935477222,75.8151842051697 95.73034805617705,75.62760024425013 95.66782006920312,75.45043761449239 95.69908406269083,75.02316303684114 95.75119071850071,74.81473641359644 95.71992672501449,74.61673112151429 95.62613474455434,74.37704050478337 95.365601465499,74.0748219010785 95.30307347852506,73.97060858945652 95.29265214736398,73.79344595969877 95.35518013433644,73.56417667412967 95.15717484225503,73.32448605739874 95.06338286179488,73.11605943415402 95.03211886830866,72.92847547323446 95.0529615306323,72.59499287604338 95.03211886830866,72.48035823325881 94.79242825157698,72.18856096071653 94.60484429065667,71.89676368817423 94.53189497252166,71.82381437003848 94.365153673925,71.73002238957906 93.79198046000297,71.52159576633434 93.69818847954282,71.44864644819859 93.64608182373294,71.37569713006283 93.63566049257037,71.18811316914326 93.76071646651675,70.84420924078961 93.78155912884189,70.73999592916762 93.73987380419162,70.57325463057171 93.57313250559643,70.30230002035455 93.48976185629886,70.02092407897408 93.3542845511899,69.69786281294556 93.36470588235247,69.52070018318781 93.45849786281262,69.29143089761871 93.48976185629886,69.15595359250976 93.41681253816384,68.54109505393895 93.30217789537853,68.29098310604545 92.76026867494275,67.64486057398767 92.30173010380602,66.91536739263157 92.17667412985963,66.62357012009001 92.17667412985963,66.36303684103395 92.12456747404828,66.25882352941196 91.89529818847917,65.96702625686966 91.85361286383038,65.85239161408511 91.8431915326678,65.73775697130056 91.87445552615404,65.52933034805659 91.94740484429053,65.25837573783869 92.28088744148089,64.37256258904924 92.43720740891497,64.00781599837192 92.72900468145652,63.50759210258492 92.90616731121426,63.069896193771854 93.04164461632321,62.88231223285154 93.60439649908415,62.34040301241649 93.69818847954282,62.18408304498314 93.75029513535418,62.017341746387224 93.70860981070538,61.78807246081812 93.56271117443387,61.621331162222944 93.40639120700126,61.52753918176279 92.86448198656547,61.329533889680654 92.6247913698338,61.22532057805867 92.4267860777524,61.058579279462755 92.30173010380602,60.808467331569254 92.28088744148089,60.63130470181151 92.31215143496858,60.45414207205377 92.66647669448407,59.68296356604961 92.8957459800517,58.932627722369105 93.01038062283699,58.807571748422724 93.41681253816384,58.60956645634059 93.64608182373294,58.34903317728452 93.77113779767932,58.255241196825104 94.07335640138344,58.07807856706736 94.44852432322406,57.91133726847144 94.63610828414289,57.77585996336249 94.71947893344196,57.66122532057794 94.76116425809076,57.28605739873806 94.80284958273954,57.17142275595351 94.92790555668593,57.025524119682736 95.28223081620142,56.77541217178923 95.4072867901478,56.629513535518456 95.52192143293308,56.368980256462386 95.56360675758188,55.993812334622504 95.6365560757169,55.86875636067612 95.78245471198842,55.722857724404605 96.34520659474786,55.326847140240325 96.92880113983246,54.96210054956227 97.22059841237402,54.73283126399391 97.39776104213324,54.545247303073594 97.52281701607961,54.34724201099146 97.61660899653977,54.15965805007115 97.68955831467478,53.90954610217764 97.75208630164872,53.81575412171823 97.84587828210739,53.76364746590687 97.97093425605526,53.74280480358247 98.39820883370575,53.80533279055566 98.63789945043743,53.78449012823127 98.88801139833019,53.71154081009551 99.10685935273673,53.56564217382473 99.21107266435945,53.41974353755321 99.32570730714326,53.10710360268652 99.42992061876599,52.97162629757831 99.5758192550375,52.87783431711816 99.94056584571555,52.70067168736041 100.13857113779696,52.57561571341329 100.44078974150108,52.20044779157341 100.89932831263928,51.846122532057926 100.9722776307743,51.700223895787154 101.05564828007337,51.41884795440669 101.07649094239703,51.26252798697334 101.04522694891081,51.14789334418879 100.96185629961322,51.043680032566805 100.84722165682793,50.96030938326921 100.59710970893516,50.88736006513346 100.41994707917742,50.88736006513346 99.72171789130755,50.99157337675544 99.46118461225221,50.97073071443104 99.28402198249447,50.91862405862042 99.05475269692536,50.762304091187076 98.58579279462607,50.32460818237326 98.31483818440817,50.10576022796673 98.12725422348785,49.991125585182175 97.5332383472407,49.709749643802446 97.44986769794312,49.61595766334229 97.43944636678202,49.51174435172031 97.49155302259192,49.438795033584555 97.79377162629751,49.167840423366656 97.84587828210739,49.053205780582104 97.83545695094631,48.96983513128451 97.43944636678202,48.70930185222919 97.32481172399673,48.59466720944463 96.89753714634624,48.136128638306424 96.69953185426336,47.833910034602305 96.37647058823408,47.53169143089744 95.9075106859348,46.96893954813799 95.64697740687947,46.73967026256888 95.43855078363401,46.62503561978433 94.57358029717044,46.374923671890826 94.22967636881752,46.218603704457486 94.04209240789721,46.06228373702414 93.76071646651675,45.62458782821106 93.54186851211021,45.38489721148013 93.2396499084061,45.16604925707286 92.74984734378165,44.915937309180094 92.583106045185,44.75961734174675 92.51015672704999,44.58245471198901 92.55184205169877,44.394870751068694 92.6560553633215,44.26981477712231 93.14585792794594,43.873804192957294 93.33344188886625,43.74874821901091 93.53144718094765,43.686220232037726 94.27136169346632,43.59242825157757 94.57358029717044,43.48821493995559 94.70905760227939,43.39442295949543 95.27180948503884,42.86293507022221 95.45939344595915,42.62324445349053 95.60529208223068,42.34186851211081 94.99043354365838,42.216812538164426 93.83366578465177,41.87290860981077 93.45849786281262,41.82080195399941 93.30217789537853,41.831223285161975 93.10417260329714,41.88332994097334 92.54142072053621,42.18554854467746 92.31215143496858,42.27934052513761 92.1141461428857,42.30018318746201 91.94740484429053,42.27934052513761 90.94695705271653,42.06049257073108 89.77976796254735,41.85206594748637 89.3733360472205,41.81038062283758 88.445837573783,41.74785263586439 88.15404030124144,41.695745980053026 86.41367799715024,41.28931406472618 86.06977406879585,41.174679421941626 85.18396092000714,40.799511500101744 84.81921432932909,40.72656218196673 84.03761449216309,40.72656218196673 83.79792387543142,40.778668837777346 83.67286790148503,40.8933034805619 83.41233462242971,41.33099938937497 83.16222267453695,41.65406065540423 83.00590270710286,41.75827396702621 82.88084673315647,41.79995929167501 82.58904946061345,41.82080195399941 81.90124160390761,41.706167311215594 81.11964176674014,41.66448198656606 80.53604722165555,41.560268674944076 79.83781803378716,41.37268471402451 79.22295949521634,41.310156727050575 78.36841033991385,41.11215143496844 78.17040504783097,41.12257276613101 77.961978424587,41.007938123346456 77.6910238143691,40.71614085080416 77.51386118461137,40.403500915937464 77.37838387950242,40.101282312233344 77.26374923671861,39.63232240993331 77.25332790555603,39.23631182576829 77.32627722369105,38.652717280683696 77.20122124974468,38.13165072257304 77.18037858742102,37.850274781192574 77.21164258090724,37.402157541217676 77.32627722369105,36.94361897007946 77.34711988601619,36.20370445756153 77.32627722369105,36.01612049664196 77.22206391206981,35.536739263179356 77.15953592509588,34.56755546509306 77.09700793812343,34.4737634846329 77.44091186647634,33.91101160187271 77.58681050274787,33.56710767351905 77.67018115204546,33.07730510889461 77.62849582739666,32.72297984937913 77.48259719112514,32.19149196010591 77.26374923671861,31.732953388968436 77.20122124974468,31.524526765723728 76.96153063301448,29.64868715652358 76.83647465906662,28.99214329330397 76.73226134744537,28.62739670262592 76.52383472419993,28.22096478729907 76.11740280887456,27.72074089151281 75.66928556889893,26.834927742723355 75.26285365357208,26.220069204152544 74.88768573173145,25.584368003256593 74.65841644616235,25.125829432119122 74.55420313454111,24.792346834928036 74.55420313454111,24.43802157541255 74.61673112151355,23.98990433543691 74.67925910848749,23.79189904335477 75.0231630368404,23.062405861998663 75.08569102381433,22.718501933645747 75.04400569916554,22.457968654590417 74.80431508243387,21.92648076531645 74.73136576429884,21.72847547323431 74.68968043965006,21.394992876043222 74.7105231019737,21.113616934663497 74.7938937512713,20.842662324445598 75.16906167311193,20.498758396091944 75.31496030938344,20.26948911052358 75.35664563403223,20.13401180541463 75.36706696519332,19.904742519845524 75.31496030938344,19.52957459800564 75.23158966008437,19.373254630572298 75.07526969265176,19.16482800732759 74.55420313454111,18.622918786891795 74.49167514756718,18.466598819458447 74.38746183594445,18.01848157948355 74.2936698554843,17.778790962751874 73.68923264807606,16.684551190718455 73.54333401180453,16.20516995725659 73.20985141461419,14.621127620598736 73.10563810299146,14.27722369224508 72.95973946671994,14.006269082027181 72.56372888255567,13.56857317321411 72.06350498676866,13.162141257887264 69.74996946875544,11.90116018725867 69.46859352737646,11.70315489517653 69.28100956645615,11.51557093425622 69.17679625483342,11.338408304498477 69.1038469366984,11.098717687767545 69.01005495623825,9.994056584571556 68.93710563810176,9.629309993894243 68.6453083655602,8.806024832078721 68.39519641766744,8.284958273967321 68.07213515163818,7.868105027478647 67.80118054142028,7.555465092611955 66.91536739263157,6.784286586607055 66.30050885406075,6.179849379198069 65.41469570527056,5.439934866680134 65.24795440667538,5.27319356808496 64.9353144718087,4.8459189904337165 64.6956238550785,4.585385711378387 63.3825361286378,3.439039283533605 63.00736820679718,3.053450030531155 62.705149603093055,2.594911459393687 62.423773661712595,2.0217382454716657 62.32998168125392,1.750783635253768 62.22576836963119,1.1671890901691786 62.12155505800847,0.8962344799512807 61.881864441278275,0.48980256462443383 61.52753918176279,0.010421331162568603 64.91447180948504,0 79.94203134540987,0.06252798697393067 111.36234479951014,0 111.94593934459473,0.7294931813561069 112.14394463667762,1.062975778547195 112.33152859759792,1.4173010380626798 112.46700590270687,1.761204966415596 112.55037655200445,2.084266232444856 112.58164054549069,2.3864848361489788 112.56079788316703,2.6678607775294454 112.44616324038174,2.990922043557965 112.21689395481263,3.2931406472628284 111.9146753511085,3.564095257480726 111.04970486464345,4.17895379605154 110.7162222674531,4.449908406269438 110.4452676572352,4.752127009973561 110.29936902096368,5.064766944840253 110.26810502747746,5.294036230409357 110.27852635864004,5.585833502951652 110.34105434561248,5.8984734378183425 110.60158762466929,6.805129248931451 110.64327294931809,7.096926521473747 110.63285161815551,7.378302462854213 110.57032363118158,7.659678404233939 110.46611031956034,7.951475676776234 109.95546509261077,8.920659474862532 109.81998778750182,9.243720740891792 109.72619580704166,9.556360675758484 109.705353144718,9.83773661713821 109.73661713820424,10.087848565031711 109.84083044982695,10.358803175249609 110.34105434561248,11.171667005902563 110.47653165072143,11.463464278444857 110.54948096885794,11.76568288214972 110.5286383065328,12.120008141665206 110.4452676572352,12.443069407693725 110.30979035212626,12.745288011398587 109.52819051496027,14.100061062487338 108.76743334011793,15.590311418685035 108.56942804803505,16.038428658660674 108.4339507429261,16.413596580500556 108.35058009362852,16.78876450234118 108.3193161001423,17.195196417667287 108.32973743130339,17.570364339507908 108.38184408711474,17.903846936698997 108.50690006106113,18.226908202727515 108.68406269082035,18.497862812945414 108.96543863219934,18.789660085487707 109.35102788520253,19.081457358030004 110.73706492977676,20.040219824954473 112.24815794830033,21.01982495420334 112.60248320781582,21.30120089558307 112.89428048035737,21.582576836963533 113.21734174638664,22.041115408101003 113.4674536942794,22.57260329737423 113.62377366171349,23.114512517810027 113.64461632403713,23.552208426623096 113.60293099938835,23.760635049867805 113.50913901892818,23.969061673112513 113.37366171381925,24.135802971707687 113.1860777529004,24.281701607979205 112.73796051292477,24.51097089354757 111.65414207205318,24.906981477712588 111.26855281905146,25.07372277630776 110.90380622837341,25.313413393038694 110.59116629350672,25.615631996743556 110.29936902096368,26.084591899043595 109.77830246285303,27.283044982698996 108.99670262568704,28.825401994708056 108.67364135965778,29.252676572359302 108.09004681457318,29.76332179930813 107.94414817830167,29.950905760228444 107.87119886016666,30.14891105231058 107.81909220435529,30.388601669041513 107.80867087319272,30.899246895990345 107.90246285365288,31.357785467128554 108.05878282108696,31.76421738245466 108.28805210665459,32.118542641970144 108.5485853857114,32.38949725218804 108.87164665173918,32.58750254427018 109.99715041725956,33.014777121921426 110.82043557907582,33.410787706085706 111.56035009159302,33.86932627722391 111.84172603297348,34.08817423163045 112.08141664970368,34.31744351719956 112.21689395481263,34.505027478119125 112.36279259108414,34.78640341949959 112.8838591491948,36.42255241196806 113.02975778546632,36.69350702218596 113.16523509057527,36.82898432729491 113.31113372684679,36.94361897007946 113.58208833706469,37.07909627518841 114.07189090168912,37.22499491145919 114.52000814166476,37.29794422959495 115.45792794626483,37.37089354773071 115.3953999592909,37.46468552819086 115.24950132301939,37.54805617748845 114.64506411561113,37.69395481375923 114.45748015469083,37.77732546305756 114.25947486260944,37.91280276816651 114.03020557704033,38.15249338489744 113.6967229798485,38.350498676979576 113.39450437614438,38.45471198860156 112.74838184408586,38.54850396906171 112.53995522084189,38.663138611846264 112.21689395481263,38.96535721555039 112.12310197435248,39.09041318949751 112.01888866273123,39.37178913087724 111.99804600040609,39.72611439039272 111.94593934459473,39.840749033177275 111.74793405251333,39.99706900061062 111.27897415021255,40.12212497455774 111.1851821697524,40.19507429269276 111.1434968451036,40.361815591288675 111.00801953999466,40.507714227559454 110.93507022185963,40.622348870344005 110.90380622837341,40.747404844291125 110.91422755953599,41.007938123346456 110.89338489721085,41.12257276613101 110.73706492977676,41.45605536332209 110.46611031956034,41.72700997353999 109.9763077549359,42.102177895379874 109.83040911866439,42.268919193975044 109.80956645633925,42.383553836759596 109.89293710563685,42.57113779767991 109.9450437614482,43.02967636881738 109.91377976796198,43.63411357622636 109.84083044982695,43.81127620598411 109.49692652147256,44.259393445959745 109.42397720333754,44.44697740688006 109.4031345410124,44.655404030124025 109.41355587217498,44.926358640341924 109.64282515774408,45.65585182169803 109.66366782006922,45.88512110726639 109.56987583960905,46.124811723997325 109.33018522287739,46.46871565235099 109.27807856706603,46.60419295745993 109.27807856706603,46.70840626908192 109.30934256055373,46.84388357419086 109.36144921636361,46.916832892326624 109.73661713820424,47.219051496030744 109.92420109912455,47.562955424384405 110.04925707307093,47.88601669041366 110.13262772236851,48.219499287604755 110.16389171585473,48.41750457968689 110.15347038469365,48.646773865255255 110.07009973539458,48.87604315082436 109.705353144718,49.574272338693504 109.4448198656612,49.949440260533386 109.205129248931,50.17870954610249 108.71532668430658,50.57472013026676 107.89204152249032,51.168736006513186 107.79824954203015,51.27294931813591 107.76698554854393,51.36674129859532 107.78782821086907,51.43969061673108 107.86077752900408,51.52306126602867 108.12131080805942,51.66895990230019 108.59027071036019,51.87738652554489 109.05923061265949,51.981599837166875 110.68495827396687,52.14834113576205 111.09139018929372,52.13791980460022 111.76877671483699,52.07539181762703 112.24815794830033,52.10665581111326 112.73796051292477,52.19002646041159 113.1860777529004,52.367189090169326 113.98852025239154,52.83614899246936 114.28031752493308,52.97162629757831 114.6659067779348,53.075839609200294 115.47877060858849,53.21131691430924 116.8648076531642,53.69069814777111 117.15660492570724,53.83659678404263 117.38587421127487,54.01375941380037 117.46924486057394,54.12839405658492 117.60472216568289,54.44103399145161 117.70893547730412,54.55566863423616 117.86525544473821,54.649460614695585 118.28210869122614,54.764095257480136 118.38632200284887,54.82662324445332 118.52179930795782,55.024628536536206 118.76148992468949,55.27474048442897 118.85528190514965,55.44148178302488 118.94907388560833,55.712436393242776 118.94907388560833,55.993812334622504 119.02202320374482,56.13971097089402 119.19918583350257,56.31687360065176 119.67856706696443,56.629513535518456 119.74109505393837,56.71288418481604 119.73067372277579,56.81709749643802 119.63688174231564,56.99426012619577 119.02202320374482,57.82796661917386 118.66769794422933,58.46366782006907 118.14663138611719,59.15147567677564 117.66725015265533,59.82886220232039 117.36503154895121,60.13108080602525 116.98986362711058,60.43329940972937 116.6668023610828,60.64172603297408 116.14573580297066,60.923101974353806 115.84351719926654,61.15237125992291 115.64551190718366,61.38164054549201 115.3953999592909,61.840179116629486 115.17655200488437,62.09029106452299 114.80138408304374,62.32998168125392 113.64461632403713,62.89273356401411 112.60248320781582,63.184530836556405 112.36279259108414,63.26790148585399 112.23773661713777,63.361693466314144 112.16478729900126,63.4763281090987 112.09183798086625,63.65349073885644 112.07099531854259,63.86191736210041 112.12310197435248,64.03907999185815 112.21689395481263,64.16413596580527 112.33152859759792,64.23708528394029 113.41534703846803,64.77899450437609 113.71756564217364,65.02910645226959 113.99894158355262,65.37301038062324 114.10315489517535,65.58143700386721 114.17610421331037,65.84197028292328 114.17610421331037,66.17545288011436 114.13441888866157,66.56104213311608 114.04062690820142,66.84241807449655 113.90514960309247,67.07168736006491 113.6550376551997,67.36348463260721 113.25902707103543,67.72823122328526 113.01933645430375,67.92623651536739 112.77964583757357,68.07213515163892 112.58164054549069,68.14508446977393 112.16478729900126,68.25971911255849 112.03973132505489,68.33266843069424 111.9563606757573,68.4264604111544 111.88341135762228,68.57235904742518 111.85214736413606,68.75994300834549 111.85214736413606,69.1455322613472 111.84172603297348,69.22890291064553 111.73751272135077,69.30185222878055 111.487400773458,69.29143089761871 111.4144514553215,69.3331162222675 111.42487278648407,69.65617748829676 111.38318746183528,69.8750254427033 111.26855281905146,70.17724404640742 111.03928353348236,70.64620394870747 110.79959291675068,71.59454508447011 110.65369428047917,71.93844901282303 110.2159983716661,72.67836352534096 110.04925707307093,73.02226745369461 109.95546509261077,73.31406472623691 109.90335843679941,73.6267046611036 109.9450437614482,73.97060858945652 110.12220639120595,74.62715245267687 110.20557704050353,75.59633625076316 110.5286383065328,76.41962141257869 110.76832892326446,77.1491145939348 110.87254223488571,77.67018115204546 110.95591288418477,78.33714634642763 111.03928353348236,78.62894361896993 111.28939548137512,79.24380215754148 111.38318746183528,79.80655404030166 111.49782210461909,80.0879299816814 111.77919804599955,80.56731121514326 111.81046203948578,80.73405251373917 111.77919804599955,81.04669244860587 111.78961937716213,81.21343374720104 112.15436596784018,82.04714024017913 112.21689395481263,82.22430286993688 112.21689395481263,82.40146549969461 112.14394463667762,82.57862812945235 112.00846733156867,82.74536942804828 111.69582739670197,82.97463871361664 111.58119275391816,83.0892733564012 111.53950742926936,83.22475066151014 111.57077142275558,83.32896397313286 111.73751272135077,83.47486260940364 111.96678200691987,83.5686545898638 112.35237125992158,83.69371056381017 113.34239772033301,83.92297984937927 113.52998168125332,84.07929981681262 113.78009362914608,84.18351312843461 114.24905353144686,84.27730510889477 115.06191736210056,84.28772644005733 115.56214125788608,84.35025442703052 116.10405047832188,84.51699572562569 116.8648076531642,84.86089965397936 117.25039690616592,85.07974760838589 117.49008752289758,85.30901689395499 117.86525544473821,85.80924078974125 118.40716466517401,86.4240993283128 118.51137797679525,86.64294728271935 118.50095664563268,86.80968858131526 118.40716466517401,86.986851211073 118.23000203541626,87.17443517199257 117.91736210054957,87.44538978221047 117.83399145125051,87.53918176267062 117.76104213311548,87.87266435986172 117.62556482800653,88.18530429472841 117.56303684103261,88.48752289843253 117.51093018522272,88.59173621005526 117.42755953592514,88.69594952167724 117.16702625686833,88.83142682678618 116.50006106248615,89.05027478119273 115.97899450437549,89.39417870954638 115.5100346020762,89.6547119886017 115.12444534907301,89.9048239364952 114.56169346631356,90.13409322206431 114.45748015469083,90.2174638713619 114.44705882352827,90.2591491960107 114.47832281701596,90.30083452065949 114.61380012212491,90.34251984530827 115.80183187461775,90.40504783228147 116.12489314064702,90.44673315693026 116.4375330755137,90.54052513739042 116.83354365967799,90.70726643598634 117.11491960105845,90.88442906574407 117.25039690616592,91.04074903317742 117.27123956849105,91.19706900061077 117.16702625686833,91.37423163036851 116.78143700386661,91.80150620801976 116.45837573783736,92.40594341542874 115.99983716670063,93.01038062283773 115.91646651740156,93.2188072460817 115.86435986159168,93.61481783024597 115.78098921229261,93.81282312232885 115.64551190718366,93.9691430897622 115.25992265418195,94.31304701811511 115.06191736210056,94.57358029717044 114.86391207001768,94.98001221249729 114.78054142072008,95.33433747201278 114.70759210258359,95.45939344595989 114.15526155098671,95.98046000407055 113.6550376551997,96.22015062080223 113.44661103195574,96.35562792591118 113.25902707103543,96.60573987380394 112.97765112965496,96.83500915937304 112.85259515570858,97.1789130877267 112.74838184408586,97.34565438632187 112.30026460411021,97.69997964583736 112.17520863016384,97.83545695094631 112.10225931202882,98.09599023000237 112.10225931202882,98.18978221046179 112.12310197435248,98.26273152859756 112.21689395481263,98.33568084673331 112.74838184408586,98.59621412578863 112.84217382454601,98.72127009973576 112.86301648687115,98.86716873600653 112.82133116222235,99.01306737227732 112.7275391817622,99.14854467738625 112.26900061062399,99.48202727457735 112.13352330551504,99.62792591084887 112.06057398738002,99.74256055363342 112.03973132505489,99.85719519641798 112.07099531854259,100.02393649501315 112.26900061062399,100.39910441685302 112.73796051292477,100.92017097496442 112.94638713616874,101.38913087726446 113.06102177895255,101.59755750050917 113.4674536942794,102.04567474048407 113.78009362914608,102.48337064929788 114.12399755750049,102.83769590881337 114.28031752493308,103.04612253205808 114.41579483004203,103.3066558111134 114.4679014858534,103.44213311622235 114.4679014858534,103.5567677590069 114.40537349887947,103.79645837573784 114.42621616120461,103.93193568084679 114.86391207001768,104.40089558314682 115.07233869326164,104.68227152452656 115.12444534907301,104.7969061673111 115.09318135558678,104.89069814777126 114.95770405047783,104.97406879706885 114.90559739466647,105.04701811520461 114.94728271931527,105.35965805007129 114.86391207001768,105.54724201099161 114.624221453286,105.73482597191118 114.05104823936398,106.04746590677787 113.88430694076881,106.20378587421122 113.7384083044973,106.40179116629335 113.6550376551997,106.61021778953805 113.64461632403713,107.04791369835114 113.59250966822577,107.27718298392024 113.48829635660454,107.42308162019101 113.1860777529004,107.66277223692269 113.13397109708905,107.73572155505771 113.1548137594127,107.79824954203164 113.31113372684679,107.97541217178937 113.30071239568422,108.13173213922272 113.2277630775492,108.24636678200727 112.9984937919801,108.42352941176502 112.9568084673313,108.48605739873821 113.00891512314267,108.55900671687323 113.2277630775492,108.63195603500898 113.56124567473955,108.65279869733338 113.85304294728259,108.84038265825369 114.04062690820142,109.01754528801143 114.34284551190702,109.40313454101388 114.48874414817706,109.60113983309603 114.56169346631356,109.7470384693668 114.57211479747612,109.85125178098953 114.55127213515098,109.9554650926115 114.25947486260944,110.2472623651538 114.1969468756355,110.38273967026275 114.22821086912172,110.64327294931809 114.40537349887947,111.14349684510509 114.18652554447293,112.01888866273123 114.1969468756355,112.23773661713851 114.25947486260944,112.46700590270687 114.41579483004203,112.82133116222235 114.65548544677371,113.14439242825162 114.75969875839495,113.5404030124159 114.83264807653146,113.56124567474029 115.06191736210056,113.50913901892967 115.30160797883075,113.59250966822725 115.38497862812834,113.65503765520045 115.92688784856414,114.63464278444931 116.34374109505355,115.15570934256071 117.08365560757075,115.84351719926728 117.33376755546499,116.27079177691853 117.39629554243743,116.30205577040475 117.57345817219517,116.31247710156732 117.65682882149277,116.35416242621612 118.25084469773992,116.94817830246254 118.32379401587494,117.10449826989588 118.33421534703751,117.2087115815186 118.12578872379353,117.84441278241381 118.01115408100824,118.11536739263171 117.86525544473821,118.28210869122762 117.30250356197728,118.58432729493175 117.16702625686833,118.7198046000407 116.9377569713007,119.05328719723178 116.81270099735285,119.18876450234073 116.30205577040475,119.59519641766758 115.77056788113153,119.90783635253428 115.40582129045347,120.25174028088719 115.20781599837059,120.40806024832054 114.77012008955752,120.60606554040267 114.41579483004203,120.69985752086284 114.05104823936398,120.72070018318723 113.51956035009076,120.62690820272707 113.33197638917045,120.65817219621404 113.21734174638664,120.74154284551162 112.82133116222235,121.13755342967664 112.31068593527279,121.54398534500275 112.1856299613264,121.7003053124361 112.16478729900126,121.89831060451823 112.2273152859752,122.12757989008733 112.38363525340928,122.35684917565644 112.60248320781582,122.55485446773858 112.89428048035737,122.67991044168497 114.16568288214927,123.03423570120118 114.43663749236717,123.1697130063094 114.624221453286,123.31561164258092 114.71801343374617,123.45108894768987 114.79096275188266,123.59698758396064 114.90559739466647,124.1910034602078 115.0098107062892,124.47237940158752 114.97854671280149,124.57659271320951 114.85349073885511,124.65996336250784 114.56169346631356,124.73291268064285 113.9676775900664,124.77459800529239 113.64461632403713,124.75375534296725 113.21734174638664,124.68080602483224 112.44616324038174,124.48280073275009 111.84172603297348,124.27437410950539 111.13307551394252,123.88878485650294 110.38273967026127,123.57614492163624 110.10136372888229,123.49277427233865 109.35102788520253,123.33645430490532 108.95501730103676,123.33645430490532 108.13173213922198,123.48235294117609 107.03749236718782,123.58656625279882 106.8082230816202,123.57614492163624 106.69358843883491,123.52403826582562 106.63106045186245,123.4198249542029 106.63106045186245,122.98212904538983 106.55811113372596,122.73201709749632 106.42263382861701,122.53401180541418 106.2767351923455,122.4506411561166 106.12041522491289,122.79454508446952 105.67229798493725,123.6074089151232 105.27628740077297,124.74333401180542 105.23460207612418,125.01428862202332 105.25544473844784,125.21229391410546 105.29713006309663,125.39987787502577 105.38050071239569,125.55619784245837 106.05788723793896,126.40032566659903 106.39136983513079,126.74422959495195 106.65190311418611,126.95265621819665 107.69403623040891,127.51540810095685 107.96499084062681,127.71341339303899 108.13173213922198,127.88015469163416 108.3193161001423,128.18237329533903 108.4756360675749,128.54711988601633 108.61111337268385,129.2245064115611 108.62153470384642,129.48503969061642 108.89248931406432,129.68304498269856 109.42397720333754,130.02694891105222 109.93462243028563,130.28748219010754 110.61200895583038,130.51675147567664 111.73751272135077,130.77728475473197 112.08141664970368,130.89191939751652 112.20647262365154,130.97529004681485 112.21689395481263,131.04823936494986 112.16478729900126,131.16287400773442 112.0293099938938,131.28792998168154 111.84172603297348,131.42340728678974 111.59161408507924,131.56930592306128 110.10136372888229,132.246692448606 109.4031345410124,132.48638306533695 108.35058009362852,132.71565235090605 108.02751882759927,132.83028699368987 107.53771626297483,133.09082027274593 107.06875636067554,133.43472420109885 105.89114593934379,133.92452676572327 104.80732749847219,134.25800936291438 104.12994097292892,134.3413800122127 103.90067168735982,134.41432933034773 103.567189090168,134.62275595359242 103.16075717484115,134.9458172196217 102.47294931813532,135.70657439446327 102.2436800325662,135.92542234887054 101.5871361693466,136.07132098514134 100.78469366985547,136.36311825768362 99.97182983920179,136.57154488092834 99.63834724200996,136.70702218603728 99.12770201506187,136.9675554650926 98.29399552208304,137.3218807246081 97.36649704864553,137.6136779971504 96.99132912680639,137.70746997761054 96.76205984123729,137.70746997761054 96.26183594545029,137.6345206594748 95.6365560757169,137.46777936087886 95.41770812131035,137.43651536739264 95.15717484225503,137.43651536739264 94.70905760227939,137.47820069204144 94.5527376348453,137.46777936087886 94.20883370649238,137.35314471809505 93.58355383675901,137.0509261143902 93.22922857724352,136.988398127417 92.8853246488906,137.0092407897414 92.1975167921833,137.12387543252595 91.56181559128734,137.18640341949916 91.14496234479941,137.3218807246081 90.86358640341894,137.47820069204144 90.42589049460587,137.88463260736827 89.62344799511474,138.95802971707732 89.45670669651957,139.374882963566 89.32122939141063,139.9897415021368 89.15448809281396,140.3023814370035 88.65426419702696,140.84429065743927 88.27909627518783,141.33409322206373 87.84140036637476,141.76136779971498 87.6746590677781,141.96979442295967 87.54960309383172,142.230327702015 87.49749643802035,142.4387543252597 87.48707510685927,143.05361286383052 87.40370445756167,143.50173010380615 87.21612049664137,143.85605536332164 86.91390189293725,144.18953796051272 86.7054752696918,144.35627925910865 86.4657846529616,144.46049257073062 86.09061673112099,144.52302055770383 85.7779767962543,144.50217789537942 85.7779767962543,144.72102584978597 85.71544880928036,144.97113779767946 85.55912884184775,145.20040708324856 85.41323020557624,145.3567270506819 85.04848361489819,145.57557500508844 84.20435579075827,145.90905760227955 83.3393853042947,146.39886016690397 83.03716670058908,146.6593934459593 82.58904946061345,147.1387746794219 82.38062283736947,147.30551597801707 82.16177488296294,147.39930795847724 81.90124160390761,147.472257276613 81.15090576022786,147.60773458172196 80.55688988398069,147.75363321799273 80.244249949114,147.85784652961544 80.00455933238233,147.96205984123742 79.75444738448957,148.11837980867077 79.56686342356926,148.26427844494157 79.44180744962287,148.4205984123749 79.41054345613665,148.59776104213338 79.49391410543424,148.78534500305295 79.62939141054319,148.91040097699934 79.99413800122124,149.18135558721724 80.10877264400506,149.2959902300018 80.22340728678887,149.47315285975952 80.47351923468311,149.92127009973515 80.69236718908964,150.22348870344004 80.9424791369824,150.431915326684 81.4427030327694,150.71329126806447 81.51565235090591,150.81750457968644 81.526073682067,150.96340321595721 81.41143903928318,151.39067779360846 81.34891105230925,152.0472216568288 81.1717484225515,152.4432322409931 80.99458579279377,152.68292285772404 80.9007938123336,152.7558721758598 80.77573783838723,152.7975575005086 80.25467128027657,152.81840016283297 79.97329533889611,152.87050681864434 78.68105027478055,153.38115204559315 78.5038876450228,153.43325870140453 78.26419702829112,153.40199470791757 77.95155709342444,153.2977813962956 77.26374923671861,152.88092814980615 77.11785060044708,152.87050681864434 76.96153063301448,152.95387746794194 76.75310400976903,153.19356808467285 76.3779360879299,153.86053327905577 76.3362507632811,153.99601058416474 76.3362507632811,154.1002238957867 76.39877875025356,154.25654386322006 76.48214939955113,154.392021168329 76.61762670466008,154.53791980459977 76.86773865255432,154.7255037655201 77.4200692041512,155.32994097292908 77.4617545288,155.41331162222667 77.44091186647634,155.47583960919985 77.0344799511495,155.6321595766332 76.80521066558039,155.78847954406655 76.66973336047144,155.93437818033806 76.34667209444218,156.4033380826381 76.22161612049581,156.53881538774704 75.71097089354771,156.7159780175048 75.47128027681605,156.851455322613 75.22116832892328,157.1224099328309 74.9814777121916,157.5392631793203 74.88768573173145,157.63305515977973 74.65841644616235,157.70600447791549 74.34577651129565,157.72684714023987 73.96018725829394,157.73726847140244 73.67881131691348,157.69558314675365 73.64754732342726,157.8727457765114 73.56417667412967,158.06032973743098 73.23069407693784,158.51886830856918 72.83468349277356,159.1754121717888 72.67836352534096,159.62352941176442 72.57415021371824,159.83195603500914 72.40740891512306,160.04038265825383 72.20940362304017,160.2175452880116 71.8133930388759,160.39470791776932 71.57370242214422,160.44681457357996 69.98966008548712,160.32175859963357 69.53112151434891,160.35302259312053 68.95794830042689,160.4572359047425 68.73910034602035,160.5822918786889 68.58278037858626,160.7907185019336 68.50983106045125,160.97830246285318 68.40561774882852,161.48894768980276 68.2909831060447,161.86411561164263 68.21803378790969,162.02043557907598 68.11382047628696,162.15591288418491 67.88455119071786,162.27054752696947 67.48854060655358,162.37476083859147 67.09253002238931,162.41644616324027 66.62357012008853,162.37476083859147 66.42556482800713,162.38518216975328 66.2067168736006,162.43728882556465 66.09208223081531,162.5102381437004 66.02955424384285,162.61445145532238 66.02955424384285,162.7395074292695 66.07123956849165,162.87498473437773 66.17545288011289,163.03130470181108 66.4776714838185,163.33352330551594 66.91536739263157,163.63574190922006 67.07168736006417,163.8337472013022 67.3322206391195,164.6466110319559 67.34264197028207,164.80293099938922 67.30095664563328,164.91756564217377 67.16547934052433,165.02177895379577 66.90494606146899,165.1155709342559 65.78986362711117,165.36568288214943 65.01868512110627,165.58453083655596 64.49761856299563,165.8242214532869 64.05992265418254,166.14728271931617 63.93486668023617,166.20981070628935 63.3825361286378,166.35570934256012 63.236637492366285,166.44950132302029 62.934418888662165,166.81424791369832 62.69472827193049,167.03309586810485 61.67343781803283,167.65837573783824 61.08984327294824,167.88764502340734 60.90225931202941,168.01270099735373 60.693832688783964,168.25239161408467 60.61046203948637,168.48166089965378 60.65214736413517,169.41958070425383 60.6000407083238,169.94064726236525 60.464563403214854,170.190759210258 60.276979442296025,170.3679218400165 59.97476083859042,170.51382047628726 59.00557704050412,170.76393242418075 58.296926521473154,170.85772440464092 57.80712395684872,170.89940972928972 57.327742723386855,170.88898839812714 56.83794015876242,170.81603907999138 56.421086912273005,170.690983106045 55.920863016486,170.4617138204759 56.07718298392009,170.74308976185637 56.63993486667954,171.5767962548337 56.86920415224865,172.12912680643208 56.931732139222575,172.33755342967606 56.942153470383666,172.77524933848986 57.03594545084382,173.27547323427612 57.03594545084382,173.56727050681843 56.983838795032455,174.02580907795664 56.84836148992351,174.51561164258106 56.681620191328335,174.88035823325836 56.09802564624375,175.92249134948116 55.95212700997371,176.2872379401585 55.75412171789083,176.90209647873004 55.61864441278188,177.3606350498675 55.56653775697052,177.66285365357163 55.55611642580795,177.89212293914073 55.62906574394445,178.13181355587167 55.79580704253962,178.42361082841396 56.05634032159495,178.73625076328065 56.31687360065028,178.96552004884975 57.15058009362911,179.60122124974572 57.36942804803565,179.82006920415225 57.56743334011705,180.08060248320757 57.90091593730887,180.64335436596778 58.203134541013,181.23737024221418 58.33861184612195,181.61253816405406 58.51577447587969,182.41498066354518 58.6304091186635,182.65467128027686 58.797150417260156,182.86309790352084 59.15147567677564,183.17573783838753 59.56832892326358,183.44669244860543 60.08939548137572,183.7072257276615 61.17321392224583,184.134500305312 61.506696519437654,184.3429269285567 61.86102177895314,184.60346020761204 61.25658457154489,185.6039079991853 60.683411357621395,186.48972114797476 58.9743130470179,188.90746997760996 58.672094443313775,189.40769387339697 58.33861184612195,190.0850803989417 57.859230612660085,190.14760838591488 57.54659067779339,190.14760838591488 57.12973743130397,190.06423773661732 56.87962548341122,189.94960309383276 56.58782821086818,189.74117647058804 56.08760431508118,189.272216568288 54.87872990026469,188.06334215347005 54.2221860370436,187.5318542641968 53.774068797067955,187.2504783228171 52.72151434968407,186.69814777121871 52.35676775900602,186.57309179727233 52.033706492976755,186.55224913494794 51.53348259719124,186.63561978424553 50.4705068186433,186.9691023814366 50.09533889680416,187.15668634235692 49.438795033584555,187.58396092000817 48.98025646244634,187.74028088744151 48.396661917361754,187.85491553022607 47.00020354162347,188.0737634846326 46.145654386320984,188.31345410136353 45.92680643191445,188.30303277020096 45.2494199063697,188.20924078974156 44.70751068593539,188.24050478322778 44.519926725015075,188.28219010787657 44.16560146549959,188.43851007530992 43.477793608792275,188.58440871158143 43.342316303683326,188.6782006920416 43.26936698554831,188.82409932831237 43.33189497252076,189.34516588642376 43.30063097903454,189.55359250966774 43.185996336250724,189.74117647058804 42.99841237533041,189.9391817626702 42.75872175859874,190.1059230612661 42.46692448605719,190.26224302869943 41.42479136983439,190.58530429472796 40.74740484428964,190.91878689191904 40.61192753918069,190.96047221656784 40.372236922450504,190.96047221656784 39.69485039690576,190.81457358029706 39.42389578668786,190.8041522491345 37.975330755138216,191.054264197028 37.38131487889254,191.12721351516376 37.00614695705192,191.14805617748814 35.92232851618181,191.0959495216768 34.96356604925659,191.2418481579483 33.79637695908741,191.33564013840848 33.587950335843445,190.81457358029706 33.327417056788114,190.28308569102384 31.159780175044933,186.51056381029915 30.899246895989606,186.01033991451214 30.711662935069292,185.57264400569906 30.576185629960346,185.14536942804781 30.461550987176533,184.6764095257478 30.138489721147273,182.32118868308578 30.013433747200892,181.675066151028 29.83627111744315,180.91430897618568 29.471524526765098,179.7054345613677 29.11719926724961,178.68414410747005 28.867087319356852,178.09012823122288 28.564868715651247,177.55864034194965 28.37728475473242,177.31894972521872 28.14801546916331,177.06883777732523 27.689476898025102,176.72493384897228 27.178831671077013,176.49566456340318 26.918298392020205,176.43313657643 26.4910238143697,176.38102992061863 26.17838387950301,176.38102992061863 25.886586606959973,176.41229391410562 25.480154691634606,176.56861388153897 24.927824140036243,176.91251780989188 24.44844290657438,177.3814777121919 24.156645634031342,177.7566456340318 23.916955017301152,178.11097089354726 23.42715245267672,178.98636271117417 22.093222063910883,181.78970079381182 20.83224099328303,184.20744962344776 20.44665174027984,185.08284144107463 20.290331772847235,185.4892733564015 20.144433136575717,186.02076124567472 20.06106248727813,186.42719316100155 20.019377162629336,186.79193975167888 20.008955831466768,187.14626501119434 20.029798493791905,187.521432933035 20.081905149603266,187.8653368613879 20.17569713006194,188.18839812741714 20.394545084469957,188.7303073478522 20.655078363525288,189.1888459189904 21.09277427233836,189.79328312639942 21.957744758803415,190.84583757378329 22.228699369019832,191.2418481579483 22.395440667616487,191.5753307551394 22.52049664156287,191.8775493588435 22.61428862202302,192.20061062487278 22.916507225727145,193.86802361082823 23.051984530836094,194.42035416242584 23.20830449827018,194.9101567270503 23.42715245267672,195.48332994097305 23.698107062894614,196.05650315489507 23.958640341949945,196.5463057195195 24.31296560146543,197.0882149399553 25.094565438631417,198.08866273152856 26.09501323020542,199.20374516588637 26.720293099938804,199.79776104213278 28.35644209240728,201.14211276205972 28.79413800122035,201.57980867087278 29.11719926724961,201.9758192550378 29.492367189090235,202.60109912477046 29.930063097903304,203.62238957866884 30.461550987176533,204.4560960716462 30.701241603908205,204.89379198046 31.1702015062075,206.00887441481783 31.57663342153435,206.83215957663336 31.868430694075904,207.34280480358217 32.16022796661894,207.72839405658462 32.66045186240594,208.28072460818225 32.910563810298704,208.50999389375136 34.21323020557683,209.2186444127823 34.63008345206477,209.4895990230002 35.026094036230525,209.78139629554252 35.588845918989975,210.29204152249136 35.90148585385667,210.62552411968244 36.21412578872336,211.02153470384673Z"/>
  </g>
</svg>