<?xml version="1.0" encoding="UTF-8" standalone="no"?>
<svg viewBox="0 0 211.8874957641488 256" xmlns="http://www.w3.org/2000/svg">
  <style>
    g.zone {
      fill: lightgray;
      stroke-width: 2;
      stroke-linecap: square;
      stroke-linejoin: bevel;
      stroke-miterlimit: 3;
      stroke-opacity: 0.8;
      stroke: black;
      fill-opacity: 0.3;
    }
  </style>
  <g class="zone" id="zone">
    <path d="M175.32226363944574,168.7075567604209 175.1704506946793,168.9678075228737 175.10538800406687,169.31480853947897 175.1921382582178,169.90037275499856 175.40901389359666,170.31243646221625 176.42832937987245,171.57031514740785 176.6018298881743,172.09081667231501 176.73195526940225,172.80650626906098 176.68858014232524,173.24025753981718 176.40664181633394,173.8258217553383 176.2982039986445,174.237885462556 176.31989156218302,174.67163673331066 176.51507963402338,175.77770247373738 176.47170450694637,176.36326668925847 176.27651643510907,177.12233141308144 175.92951541850226,177.96814639105384 175.84276516435133,178.40189766181004 175.86445272788984,178.66214842426282 176.12470349034265,179.65977634700164 176.14639105388113,180.3754659437476 176.0596407997302,180.67909183327743 175.7126397831265,181.48153168417585 175.62588952897553,181.8502202643181 175.7343273466619,183.346662148424 175.64757709251097,184.51779057946467 175.69095221958798,184.88647915960692 175.95120298204077,185.6455438834299 176.0162656726532,186.03592002711065 176.0379532361917,186.44798373432835 175.97289054557928,186.86004744154604 175.7126397831265,187.42392409352865 174.9535750593035,188.4866147068799 174.49813622501034,189.78786851914697 174.1294476448681,190.37343273466655 173.67400881057492,190.67705862419635 173.08844459505383,190.8505591324982 172.56794307014513,190.93730938664913 170.81125042358488,191.04574720433857 170.44256184344266,191.13249745848952 170.13893595391593,191.28431040325287 169.29312097594203,191.9349373093864 168.90274483226128,192.39037614368112 168.6424940698085,192.9542527956622 168.59911894273148,193.27956624872897 168.6424940698085,193.5181294476448 168.85936970518426,194.01694340901497 169.33649610301595,194.6241951880715 169.87868519146005,195.1880718400541 170.8329379871234,195.88207387326312 171.1148763131147,196.18569976279292 171.33175194849358,196.55438834293517 171.52694002033394,197.0748898678423 171.7221280921743,198.1592680447305 171.9390037275501,198.78820738732708 172.17756692646748,199.28702134869573 172.69806845137308,200.13283632666963 172.87156895967493,200.52321247034882 173.19688241274326,201.6943409013895 173.37038292104512,202.97390715011963 173.56557099288548,203.36428329379882 173.8691968824122,203.6462216197901 174.6499491697737,204.16672314469727 175.01863774991594,204.36191121653764 175.60420196543703,204.60047441545348 176.0596407997302,204.6872246696044 177.70789562860102,204.44866147068856 178.31514740766065,204.49203659776404 178.66214842426436,204.60047441545348 179.0525245679451,204.83903761436775 179.5079634022383,205.53303964757677 179.854964418842,205.79329041003112 180.3971535072861,205.88004066418205 182.11047102677244,205.945103354796 183.08641138597122,206.1836665537103 183.54185022026437,206.37885462555067 183.6502880379538,206.5523551338541 183.60691291087988,206.79091833276837 183.08641138597122,207.6367333107423 182.89122331413083,208.24398508980036 182.91291087766933,208.74279905116902 183.04303625889727,209.11148763131123 183.43341240257493,209.54523890206744 183.9105388004066,209.89223991867271 184.32260250762585,210.0440528634361 185.2768553032892,210.19586580820098 185.7756692646563,210.3476787529659 186.53473398847927,210.69467976956963 187.01186038631096,211.0416807861749 187.35886140291467,211.47543205692955 187.51067434768112,211.84412063707333 187.640799728906,213.03693663165097 187.83598780074635,213.64418841070906 188.1829888173501,214.20806506269165 188.5083022704184,214.5767536428339 188.1829888173501,215.72619451033606 187.9878007455097,216.13825821755378 187.74923754659542,216.48525923415906 187.05523551338487,217.1141985767541 185.90579464588424,217.85157573703856 185.5587936292805,218.26363944425626 185.49373093866498,218.74076584208794 185.66723144696687,219.84683158251462 185.66723144696687,220.43239579803574 185.47204337512647,221.03964757709227 185.08166723144882,221.84208742799072 183.71535072856625,223.64215520162645 182.86953575059542,224.5530328702143 181.82853270078112,225.76753642833046 181.1779057946476,226.85191460521867 180.00677736360538,228.56523212470344 179.5730260928507,228.99898339545965 177.9247712639799,230.2134869535758 176.0379532361917,231.81836665537114 174.54151135208426,232.85936970518543 174.25957302609297,233.14130803117672 174.1294476448681,233.42324635716804 174.06438495425257,233.68349711962082 174.08607251779108,234.0088105726876 174.3680108437824,235.22331413080374 174.73669942392462,237.84750931887487 174.9101999322265,238.56319891562237 175.10538800406687,239.01863774991554 175.38732633005816,239.47407658420872 175.7343273466619,239.92951541850343 176.31989156218302,240.53676719755995 176.62351745171281,240.99220603185466 177.01389359539357,241.83802100982703 177.3825821755358,242.87902405964132 177.42595730260973,243.1392748220941 177.29583192138486,244.26702812605933 177.31751948492027,244.744154523891 177.46933242968672,245.26465604879814 177.9247712639799,245.91528295493168 178.11995933582025,246.56590986106522 178.1850220264327,247.23822433073573 178.03320908166933,248.23585225347455 178.05489664520476,249.4937309386646 178.11995933582025,249.90579464588384 178.4452727888855,250.77329718739472 178.4452727888855,250.96848525923508 177.90308370044139,251.03354794984753 177.05726872246748,251.2287360216879 175.88614029142835,251.68417485598107 174.82344967807555,252.39986445272856 173.04506946797682,253.98305659098696 172.13419179939046,254.67705862419595 171.04981362250226,255.30599796679098 169.87868519146005,255.76143680108416 168.53405625211903,255.97831243646303 167.66655371060662,256 166.95086411386066,255.95662487292452 165.41104710267928,255.65299898339626 163.63266689258054,255.06743476787517 162.48322602507682,254.59030837004502 161.29041003049917,253.91799390037298 160.37953236191282,253.24567943070247 159.72890545577928,252.55167739749348 159.29515418502154,251.9227380548969 158.99152829549482,251.27211114876337 158.77465266011595,250.6865469332438 158.16740088105942,248.47441545238883 157.71196204676625,247.32497458488666 157.14808539478364,246.3924093527618 156.54083361572404,245.78515757370374 155.868519146052,245.32971873941057 155.02270416807806,244.91765503219287 154.0033886818023,244.57065401558913 151.5743815655731,243.89833954591708 150.33819044391845,243.48627583869938 149.1453744493408,242.96577431379225 147.90918332768615,242.2500847170463 146.93324296848738,241.53439512029877 146.08742799051348,240.75364283293882 145.37173839376442,239.9512029820404 143.37648254828989,237.47882073873262 142.70416807861784,236.80650626906214 142.0318536089458,236.19925449000405 141.38122670281226,235.74381565571088 140.6655371060663,235.28837682141616 137.78109115554082,233.8569976279227 136.54490003388617,233.1629955947137 135.20027109454517,232.23043036258886 133.8773297187396,231.08098949508667 133.18332768553213,230.38698746187768 132.5327007793986,229.60623517451774 132.0555743815669,228.9339207048457 131.66519823788616,228.26160623517518 131.36157234835636,227.5242290748907 131.1880718400545,226.91697729583265 130.6892578786874,224.57472043375128 130.49406980684702,224.05421890884568 130.23381904439114,223.53371738393855 129.84344290071348,222.96984073195594 129.34462893934332,222.4710267705873 128.86750254151164,222.12402575398204 128.28193832599052,221.7770247373783 127.63131141986007,221.49508641138698 127.00237207726195,221.2782107760081 125.54930532023151,220.99627245001682 123.72754998305884,220.9095221958659 120.8864791596073,220.99627245001682 118.93459844120669,221.14808539478173 117.22128092172345,221.40833615723452 112.4717045069483,222.51440189766276 110.15113520840545,222.90477804134196 108.71975601491043,223.03490342256836 107.65706540156073,223.05659098610687 106.57268722466944,223.03490342256836 105.27143341240236,222.90477804134196 103.49305320230668,222.6011521518137 101.97492375466074,222.23246357167147 100.28329379871292,221.64689935615036 98.6350389698421,220.97458488647985 97.31209759403653,220.3239579803463 95.57709251101478,219.348017621146 94.36258895289863,218.5238902067106 93.40833615723528,217.72145035581215 92.58420874279989,216.85394781430128 91.91189427312784,215.9647577092519 91.32633005760981,214.88037953236216 91.0010166045415,213.90443917316185 90.80582853270113,212.99356150457552 90.7190782785502,212.03930870891216 90.7407658420887,210.84649271433452 90.91426635039056,207.6367333107423 90.979329041003,205.42460182988887 90.89257878685206,203.88478481870595 90.6973907150117,202.58353100643888 90.28532700779553,201.1304642494069 89.9383259911918,200.32802439851 89.59132497458498,199.74246018298888 89.26601152151976,199.24364622162025 88.78888512368808,198.67976956963764 88.20332090816697,198.13758048119354 87.444256184344,197.50864113859697 87.4659437478825,197.42189088444604 87.29244323958063,196.6411385970861 87.24906811250362,196.05557438156652 87.29244323958063,195.6218231108103 87.42256862080858,195.29650965774354 87.61775669264586,195.10132158590318 87.89969501863716,194.90613351406282 89.17926126736882,194.5157573703836 89.59132497458498,194.25550660792928 91.78176889190298,191.37106065740534 92.69264656048932,189.7444933920715 93.01796001355454,189.35411724839076 93.40833615723528,189.11555404947492 93.69027448322659,189.028803795324 94.94815316841974,188.83361572348363 96.20603185360982,188.46492714334138 97.5506607929539,188.33480176211498 97.87597424601913,188.2046763808886 99.24229074889864,187.48898678414108 100.21823110810048,187.12029820399883 101.3242968485272,186.9034225686215 102.7123009149452,186.42629617078984 104.18705523551415,186.29617078956343 104.79430701457069,186.14435784479852 105.6834971196216,185.7756692646563 107.41850220264335,184.53947814300318 108.24262961707875,184.14910199932245 110.41138597085825,183.54185022026437 111.40901389359551,183.19484920366065 113.18739410369427,182.84784818705538 114.79227380549115,182.21890884446034 116.15859030837066,181.9803456455445 116.91765503219364,181.76347001016717 117.45984412063774,181.4164689935619 118.28397153507315,180.570654015588 118.82616062351725,180.24534056252122 119.39003727549985,180.00677736360538 120.04066418163339,179.87665198237897 121.38529312097748,179.78990172822805 121.99254490003402,179.6814639105386 122.86004744154643,179.3995255845473 124.20467638088743,178.74889867841375 124.83361572348555,178.5970857336504 127.21924771264084,178.20670958996965 127.674686546934,178.07658420874327 127.9566248729253,177.92477126397836 128.1951880718396,177.729583192138 128.86750254151164,176.86208065062712 129.38800406642034,176.4717045069479 129.97356828193836,176.1897661809566 130.1253812267048,176.0162656726532 130.1470687902402,175.84276516435133 130.1036936631663,175.625889528974 129.5398170111837,174.51982378854728 129.43137919349425,173.9342595730262 129.51812944764518,173.56557099288395 129.88681802778743,172.63300576075912 130.1470687902402,171.0931887495762 130.29888173500666,170.61606235174605 130.45069467977004,170.33412402575476 130.79769569637375,169.92206031853706 131.96882412741599,168.9678075228737 134.28939342595882,167.68824127414513 136.3713995255843,166.92917655032215 137.1955269400197,166.6906133514063 137.75940359200231,166.6255506607939 138.64859369705323,166.6255506607939 140.77397492375573,166.7556760420203 141.85835310064394,166.88580142324668 142.6607929515439,167.08098949508707 142.79091833276877,167.01592680447308 143.00779396814764,166.7339884784818 143.11623178583707,166.43036258895353 143.11623178583707,165.5845476109796 143.26804473060045,164.78210776008117 143.202982039988,164.13148085394764 143.2246696035265,163.9362927821088 143.9403592002725,163.04710267705943 144.56929854286753,162.3964757709259 144.7644866147079,162.0494747543206 144.85123686885882,161.72416130125384 144.8295493053203,161.5072856658765 144.74279905116938,161.3771602846501 144.07048458149734,161.11690952219575 143.7668586919706,160.85665875974297 143.28973229413896,160.16265672653395 143.11623178583707,159.59878007455134 143.09454422229857,159.0782785496442 143.202982039988,158.68790240596502 144.11385970857435,156.97458488648024 144.30904778041472,156.45408336157308 144.41748559810415,155.91189427312744 144.41748559810415,155.30464249407092 144.33073534395322,154.7841409691638 143.65842087428118,152.68044730599826 143.61504574720416,151.98644527278924 143.63673331074267,151.5310064384961 143.81023381904456,151.0538800406644 144.20060996272528,150.5116909522203 144.65604879701846,150.16468993561503 145.6103015926818,149.6875635377849 146.06574042697497,149.4056252117936 146.43442900711722,148.99356150457436 146.75974246018242,148.42968485259328 146.86818027787186,148.06099627245106 146.86818027787186,147.7356828193843 146.78143002372093,146.45611657065416 146.52117926126814,145.306675703152 146.56455438834516,144.98136225008523 146.62961707895758,144.8295493053203 146.91155540494887,144.56929854286753 147.58386987462092,144.3307353439517 151.8996950186383,143.4632328024408 152.6804473059998,143.26804473060045 153.39613690274578,142.96441884107062 153.7431379193495,142.72585564215635 154.04676380887932,142.44391731616503 155.13114198576753,140.9041003049821 156.28058285327123,139.58115892917655 155.58658082006068,139.32090816672374 154.93595391392714,138.97390715011846 153.721450355811,138.1280921721461 152.6153846153843,137.54252795662498 152.33344628939298,137.2605896306337 152.15994578109112,136.8702134869545 152.15994578109112,136.50152490681225 152.37682141647,136.06777363605605 152.87563537784018,135.2870213486961 152.98407319552652,134.9833954591663 153.00576075906503,134.65808200609953 152.9190105049141,134.2677058624203 152.55032192477185,133.4002033209079 152.33344628939298,132.94476448661476 152.00813283632775,132.46763808878308 151.5310064384961,132.05557438156538 150.4900033886818,131.4916977295843 148.8634361233495,130.42900711623153 147.1934937309402,129.4747543205697 146.84649271433645,129.14944086750293 146.34767875296626,128.58556421552035 146.08742799051348,128.39037614367996 145.65367671975574,128.30362588952903 145.11148763131163,128.3470010166045 143.63673331074267,128.97594035920108 141.25110132158738,129.6699423924101 139.3425957302607,129.6048797017961 138.14977973568307,129.6699423924101 137.6726533378514,129.58319213825916 137.28227719417373,129.34462893934332 136.848525923416,128.84581497797467 136.52321247035076,128.2819383259921 136.78346323280354,128.00000000000077 137.06540155879486,127.60962385632003 137.26058963063522,127.2409352761778 137.3907150118601,126.8288715689601 137.4557777024756,126.39512029820388 137.43409013893708,124.85530328702097 137.47746526601102,123.9878007455101 137.86784140969175,122.42629617079022 137.82446628261783,122.05760759064798 137.6726533378514,121.7322941375812 136.93527617756692,120.8864791596073 136.6967129786526,120.4527278888511 136.6316502880402,119.84547610979303 136.89190105049298,118.80447305998028 137.13046424940728,118.41409691629954 137.36902744832466,118.21890884445918 137.75940359200231,118.06709589969581 139.47272111148865,117.65503219247812 139.9715350728588,117.45984412063774 140.40528634361348,117.17790579464643 140.73059979667872,116.85259234157967 140.9691629955961,116.48390376143743 141.14266350389795,115.87665198237936 141.29447644866133,114.31514740765948 141.29447644866133,113.49101999322254 141.2077261945104,112.49339207048526 140.9908505591346,111.45238902067098 140.92578786851908,110.75838698746198 140.77397492375573,110.41138597085825 139.84140969163087,109.52219586580887 139.51609623856257,109.00169434090172 139.3859708573377,108.58963063368402 139.36428329379922,108.19925449000328 139.45103354795015,107.46187732971882 139.66790918332902,106.94137580481167 139.99322263639425,106.46424940698154 140.40528634361348,106.03049813622533 140.70891223314328,105.79193493730949 141.4896645205017,105.42324635716726 143.2246696035265,105.05455777702502 143.61504574720416,104.90274483226013 143.87529650966005,104.7075567604213 144.04879701796193,104.36055574381602 144.15723483565137,103.38461538461571 144.2873602168762,102.99423924093497 144.98136225008676,102.08336157234864 145.24161301253957,101.56286004744149 145.26330057607808,101.23754659437472 145.13317519485014,100.78210776008156 144.4391731616396,99.45916638427751 144.33073534395322,99.0254151135213 144.41748559810415,98.5916638427651 144.98136225008676,97.52897322941385 145.11148763131163,96.96509657743125 145.08980006777313,96.57472043375205 144.69942392409547,94.7963402236533 144.67773636055696,94.42765164351107 144.7644866147079,94.0806506269058 143.9403592002725,93.14808539478248 143.202982039988,92.51914605218592 141.29447644866133,91.5648932565241 140.10166045408369,90.7190782785502 139.3425957302607,90.50220264317286 138.71365638766568,90.4371399525589 137.9979667909197,90.45882751609585 134.35445611657127,90.82751609623963 132.8363266689253,90.82751609623963 131.9905116909545,90.95764147746603 130.27719417146815,91.3913927482207 129.84344290071348,91.3913927482207 129.5831921382576,91.2829549305328 129.45306675703276,91.10945442222939 129.43137919349425,90.95764147746603 129.51812944764518,90.63232802439926 129.73500508302405,90.285327007794 130.32056929854517,89.67807522873592 131.25313453066693,88.96238563198995 131.57844798373523,88.65875974246013 131.7736360555756,88.37682141646884 131.9905116909545,87.89969501863871 132.12063707217933,87.35750593019306 132.12063707217933,86.98881735005082 132.0121992544899,86.55506607929615 131.66519823788616,85.90443917316261 130.84107082345076,84.84174855980984 130.42900711623153,84.4730599796676 130.0820060996278,84.25618434429028 129.47475432057126,83.99593358183746 127.9349373093868,83.47543205693033 126.5686208065073,82.60792951541946 125.11555404947686,81.91392748221045 124.22636394442593,81.6536767197561 123.44561165706753,81.58861402914368 122.96848525923586,81.67536428329461 121.64554388343028,82.08742799051232 120.36597763470171,82.32599118942815 118.56590986106445,82.95493053202318 116.87427990511664,83.75737038292164 116.61402914266382,84.01762114537443 116.37546594374953,84.40799728905517 116.37546594374953,84.58149779735704 116.50559132497439,84.86343612334834 117.30803117587438,85.83937648254864 117.43815655709923,86.20806506269089 117.43815655709923,86.57675364283313 117.26465604879738,87.11894273127723 116.67909183327626,87.92138258217567 116.39715350728804,88.42019654354431 115.681463910539,89.87326330057628 115.59471365638805,90.19857675364305 115.57302609284955,90.37207726194492 115.70315147407749,90.74076584208716 115.96340223653029,91.06607929515393 116.5489664520514,91.47814300237164 117.48153168417625,91.99864452727877 117.82853270077997,92.32395798034554 118.06709589969735,92.73602168756324 118.17553371738371,93.14808539478248 118.17553371738371,93.40833615723528 117.98034564554334,94.05896306336882 117.24296848525887,95.3602168756359 116.59234157912533,96.24940698068528 115.85496441884085,96.92172145035579 115.724839037616,97.16028464927162 115.70315147407749,97.355472721112 115.7465266011545,97.61572348356479 115.92002710945637,97.91934937309459 117.04778041342158,99.13385293121074 117.6116570654011,99.84954252795671 118.00203320908184,100.43510674347782 118.11047102677128,100.76042019654459 118.11047102677128,100.99898339545888 117.95865808200791,101.28092172145018 117.67671975601661,101.54117248390453 117.22128092172345,101.77973568282036 116.7875296509657,101.90986106404677 115.9417146729918,102.08336157234864 115.4212131480862,102.10504913588714 112.55845476109923,101.8447983734328 109.60894611996135,101.75804811928187 108.9583192138278,101.67129786513092 108.3944425618452,101.47610979329056 107.26668925787999,100.91223314130795 105.50999661131974,100.32666892578838 102.92917655032409,99.11216536767223 102.34361233480297,98.91697729583187 101.17248390376075,98.67841409691603 100.82548288715702,98.52660115215267 100.47848187055328,98.26635038969833 99.91460521857068,97.55066079295236 99.28566587597564,96.92172145035579 97.98441206370856,95.96746865469397 96.9867841409713,95.38190443917287 96.72653337851541,95.12165367672007 96.55303287021354,94.81802778719181 95.94578109115702,93.32158590308435 95.57709251101478,92.54083361572441 95.0565909861061,91.1528295493064 94.557777024739,90.39376482548343 93.90715011860546,89.69976279227443 93.51677397492472,89.37444933920766 91.32633005760981,87.89969501863871 90.67570315147627,87.3358183666561 89.39613690274462,85.99118942731356 88.0298203998651,84.73331074212194 87.7695696374123,84.53812267028157 86.55506607929615,83.84412063707256 85.21043713995208,82.84649271433375 84.60318536089554,82.28261606235269 84.14774652660238,81.6536767197561 83.6923076923092,81.17655032192444 82.97661809556016,80.65604879701884 82.32599118942662,80.35242290748903 82.06574042697382,79.87529650965736 81.87055235513344,79.63673331074307 80.6994239240943,78.8776685869201 80.48254828871544,78.66079295154276 80.417485598103,78.35716706201295 80.56929854286636,77.66316502880395 80.6994239240943,76.25347339884743 80.87292443239618,76.188410708235 81.13317519484897,75.97153507285766 81.52355133852971,75.51609623856295 81.87055235513344,74.93053202304338 82.06574042697382,74.34496780752382 82.17417824466325,73.30396475770954 82.08742799051232,72.13283632666885 81.76211453744709,70.89664520501574 81.52355133852971,70.35445611657164 81.04642494069803,69.48695357505923 80.1572348356502,68.29413758048159 78.59573026093032,66.68925787868625 77.61978990172848,65.84344290071233 76.53541172484027,64.97594035919992 74.60521856997815,63.631311419857376 66.51575737038438,58.903422568620734 62.026431718062035,56.062351745170744 58.36123348017818,53.85022026431732 57.55879362927819,53.308031175873225 56.843104032532224,52.76584208742758 56.32260250762663,52.24534056252198 56.018976618096815,51.81158929176577 55.78041341917944,51.39952558454807 55.628600474416075,50.944086750254904 55.47678752965271,50.163334462894966 55.39003727550178,47.86445272788907 55.25991189427384,47.10538800406609 54.99966113182104,46.34632328024466 54.67434767875273,45.869196882412986 54.21890884445956,45.34869535750585 53.65503219247695,44.87156895967571 53.264656048799296,44.58963063368441 52.11521518129558,44.04744154523877 50.72721111487757,43.700440528635035 49.187394103693116,43.52694002033163 44.67638088783534,43.20162656726486 42.85462555066267,42.94137580481206 41.68349711962045,42.659437478820756 40.16536767197758,42.11724839037665 38.97255167739685,41.50999661131858 37.931548627585656,40.77261945103411 37.06404608607324,39.9484920365987 36.391731616401195,39.12436462216176 35.8712300914956,38.17011182649995 35.45916638427636,37.150796340224176 35.242290748900565,36.21823110809933 35.112165367672624,35.13385293120959 35.09047780413412,34.071162317858345 35.3290410030515,30.70958996950275 35.350728566586916,29.473398847848102 35.22060318536206,28.06370721789313 35.00372754998319,27.044391731617353 34.63503896984095,26.046763808878538 34.04947475431984,24.984073195527298 33.312097594035365,23.986445272788483 32.24940698068566,22.92375465943724 31.14334124025896,22.012876990850902 30.145713317521686,21.27549983056643 28.952897322940963,20.516435106743454 28.042019654354622,20.017621145374818 26.78414096916455,19.410369366316743 25.85157573703971,19.06336834971147 24.87563537783786,18.759742460183205 23.878007455100587,18.542866824805873 21.92612673669997,18.282616062351533 19.930870891225425,18.195865808200598 17.78380210098444,18.282616062351533 13.402914266351528,18.65130464249377 11.711284310403709,18.672992206032273 10.626906133515504,18.629617078956805 9.17383937648198,18.477804134191903 7.590647238223599,18.152490681125133 6.159268044731661,17.718739410368926 4.792951541852153,17.133175194849358 3.3181972212832083,16.28736021687545 2.7109454422235943,15.831921382582278 1.9085055913266926,15.116231785836309 1.474754320568945,14.639105388004637 0.9759403592018501,13.988478481871097 0.58556421552111,13.316164012199053 0.32531345306831067,12.730599796679485 0.15181294476644444,12.166723144696878 0.021687563538503776,11.451033547949368 0,10.7353439512034 0.06506269061551133,10.171467299220794 0.2602507624527994,9.520840393087255 0.5421890884441025,8.89190105049222 0.9108776685863388,8.349711962046575 1.279566248728575,7.894273127753406 1.8434429007111812,7.352084039309303 2.385631989158366,6.918332768553097 3.7736360555763775,6.072517790579187 5.2483903761453226,5.356828193833219 8.95696374110619,3.838698746187266 12.752287360217988,1.8217553371742186 14.07522873602357,1.2145035581161456 15.441545238903078,0.7373771602844725 17.068112504235387,0.3470010166052735 18.84649271433414,0.08675025415093313 20.386309725518593,0 22.66350389698444,0.06506269061397034 24.550321924772632,0.23856319891583658 26.849203659776983,0.6072517790580728 28.822771941716102,1.1060657404267087 30.514401897663923,1.6916299559478187 32.3361572348366,2.472382243307758 37.88817350050865,5.291765503219248 39.9484920365987,6.202643171807128 42.18231108099062,7.00508302270403 44.351067434770115,7.503896984072666 45.91257200948999,7.720772619451539 47.97289054558005,7.894273127753406 55.08641138597197,8.306336834971109 57.01660454083409,8.349711962046575 58.187732971873224,8.284649271434146 59.141985767536575,8.132836326669242 60.26973907150179,7.807522873602473 61.52761775669494,7.287021348695333 62.15655709928998,7.677397492376073 62.76380887834651,8.132836326669242 63.305997966790606,8.675025415113344 63.848187055237794,9.282277194171417 64.28193832599246,9.976279227380424 64.60725177905769,11.169095221959607 64.82412741443656,11.646221619789738 65.2361911216558,12.188410708235383 66.10369366316513,12.990850559132284 66.66757031514774,13.402914266349987 68.09894950864276,14.118603863097496 69.2700779396819,14.834293459845007 71.00508302270364,15.701796001355879 73.6292782107763,17.762114537445935 74.88715689596945,18.91155540494811 75.45103354795206,19.280243985090344 76.882412741444,19.75737038292202 78.20535411724958,20.08268383598879 80.33073534395207,20.451372416131026 82.95493053202473,20.711623178583825 83.6706201287707,20.82006099627326 84.10437139952536,20.993561504575126 86.20806506269243,22.034564554387867 87.61775669264586,22.403253134531642 88.81057268722658,22.880379532361776 89.35276177567069,22.98881735005121 89.9166384276533,22.98881735005121 90.56726533378684,22.880379532361776 91.8251440189769,22.403253134531642 92.367333107421,22.25144018976674 92.97458488648063,22.208065062691272 94.81802778719181,22.229752626228237 98.09284988139801,21.40562521179283 98.39647577092472,21.383937648254324 98.76516435106697,21.4706879024068 99.04710267705826,21.644188410708665 99.67604201965638,22.25144018976674 100.95560826838496,23.292443239579477 101.17248390376075,23.747882073874187 101.30260928498869,23.89969501863755 102.1267366994241,24.09488309047792 102.86411385970857,24.333446289393756 103.53642832938061,24.767197560149963 104.40393087089302,24.767197560149963 104.66418163334583,24.853947814300895 104.8810572687247,25.049135886141265 105.44493392070423,25.894950864113635 106.2039986445272,26.176889190104937 106.87631311419925,26.697390715012077 107.37512707556942,26.957641477464875 107.63537783802222,27.174517112843752 107.8088783463241,27.49983056591052 108.09081667231538,27.738393764826355 108.52456794307005,27.911894273128222 109.50050830227191,28.08539478143009 110.49813622500918,28.56252117926176 111.34395120298309,29.191460521856797 112.34157912572036,29.79871230091487 113.05726872246633,30.384276516435982 113.79464588275388,30.666214842427284 114.29345984412097,30.926465604880082 116.50559132497439,32.29278210775959 117.28634361233587,32.5747204337509 117.85022026431848,32.63978312436487 118.06709589969735,32.5964079972894 118.24059640799922,32.37953236191207 118.37072178922408,32.3361572348366 118.89122331413276,32.3144696712981 120.64791596069301,32.5964079972894 121.12504235852468,32.81328363266673 122.44798373432718,33.85428668248101 122.94679769569736,34.35310064384965 123.77092511013277,35.00372754998319 124.139613690275,35.43747882073939 124.22636394442593,35.7194171467307 124.20467638088743,36.02304303625896 123.79261267367127,37.06404608607324 123.68417485598184,37.606235174517344 123.79261267367127,37.95323619112262 123.92273805489613,38.08336157234902 124.11792612673649,38.19179939003691 124.46492714334332,38.23517451711238 124.74686546933461,38.126736699424484 126.28668248051599,36.890545577769835 126.85055913249859,36.5435445611661 127.52287360217063,36.30498136225027 128.99762792273958,35.95798034564653 129.9301931548644,35.545916638427286 130.79769569637375,35.24229074889902 131.27482209420543,34.982039986446225 132.25076245340728,34.266350389698715 132.92307692307932,33.962724500170445 133.48695357505883,33.78922399186704 134.4628939342607,33.637411047103676 135.15689596746816,33.65909861064064 136.28464927143338,33.91934937309344 137.88952897323026,34.15791257200928 138.75703151474266,34.35310064384965 142.29210437140168,35.61097932904126 142.81260589630728,35.91460521856953 143.2246696035265,36.239918671636296 144.30904778041472,37.32429684852604 145.50186377499236,38.23517451711238 146.60792951541907,38.90748898678442 147.36699423924205,39.23280243985119 148.2995594713669,39.42799051169156 148.8634361233495,39.40630294815306 149.05862419518988,39.60149101999343 149.34056252118117,39.7966790918338 149.6658759742464,39.9268044730602 150.2080650626905,40.0786174178251 152.6153846153843,40.12199254490057 153.26601152151784,40.25211792612697 153.87326330057743,40.4689935615043 154.39376482548303,40.77261945103411 154.71907827855136,41.03287021348691 155.52151812944825,42.13893595391362 156.12876990850788,42.659437478820756 156.67095899695198,43.245001694341866 156.90952219586626,43.375127075568265 157.34327346662093,43.4618773297192 158.25415113521035,43.41850220264373 158.9481531684178,43.48356489325616 160.59640799728862,43.80887834632293 161.9193493730942,44.220942053542174 162.67841409691718,44.19925449000367 163.39410369366317,43.960691291087834 164.45679430701594,43.3317519484928 165.6929854286706,42.37749915282945 166.5821755337184,41.92206031853628 167.44967807523085,41.72687224669591 168.29549305320475,41.59674686546951 170.35581158929173,41.55337173839405 170.74618773297246,41.46662148424311 171.1148763131147,41.24974584886578 171.9606912910886,40.490681125042805 172.39444256184328,39.970179600135666 173.02338190444138,38.90748898678442 173.41375804811904,38.47373771602822 173.8258217553383,38.19179939003691 175.4523890206706,37.36767197560151 175.7560149102004,37.06404608607324 176.5801423246358,36.08810572687293 176.97051846831656,35.7194171467307 178.68383598780287,34.76516435106735 179.2694002033209,34.331413080312686 180.3754659437476,32.79159606912977 180.98271772280722,31.403592002711758 181.2646560487985,31.013215859031018 181.7200948830917,30.622839715350278 182.5875974246041,30.03727549983071 183.6936631650308,29.386648593697167 184.10572687224698,29.017960013554934 185.2768553032892,27.28295493053165 185.97085733649666,25.938325991189103 186.5997966790917,25.049135886141265 186.77329718739355,24.572009488309593 186.96848525923394,23.50931887495835 187.1636733310743,23.11894273127761 187.29379871230225,23.531006438495314 187.53236191121655,24.073195526940957 187.77092511013393,24.463571670620155 188.0094883090482,24.702134869535993 188.5516773974923,24.96238563198879 189.70111826499604,25.6780752287363 191.13249745849106,26.285327007794375 192.8241274144358,27.326330057607112 193.19281599457804,27.62995594713692 193.7133175194867,28.21552016265649 193.90850559132707,28.54083361572326 194.01694340901344,28.844459505253067 194.01694340901344,29.256523212470768 193.80006777363764,30.12402575398164 193.80006777363764,30.44933920704841 193.90850559132707,30.796340223653683 194.38563198915566,31.555404947475118 195.42663503896995,32.76990850559127 196.098949508642,33.85428668248101 196.59776347001218,34.982039986446225 196.9664520501544,36.34835648932573 197.29176550321964,36.825482887157406 197.55201626567242,37.38935953914001 197.70382921043887,38.17011182649995 197.72551677397738,38.82073873263349 197.530328702137,40.946119959335974 197.530328702137,42.70281260589622 197.72551677397738,44.0040664181633 197.7905794645898,45.30532023043038 198.07251779058112,46.129447644865785 198.96170789562896,47.539139274822304 199.22195865808175,48.12470349034187 199.24364622162025,48.38495425279621 199.17858353100783,48.493392070484106 198.8315825144041,48.688580142324476 198.78820738732708,49.144018976617645 198.70145713317615,49.36089461199652 198.3327685530339,49.83802100982819 197.83395459166374,50.33683497119683 196.74957641477553,51.26940020332167 195.14469671297866,52.18027787190801 194.7760081328364,52.548966452050244 194.68925787868548,52.809217214504585 194.68925787868548,52.982717722806456 194.90613351406435,54.153846153847134 194.84107082345193,54.80447305998067 194.64588275161154,55.32497458488627 194.14706879024138,56.21416468993564 193.73500508302212,57.12504235852352 193.30125381226748,58.513046424941535 193.04100304981466,58.99017282277167 191.52287360216872,60.42155201626669 190.37343273466809,61.76618095560924 189.76618095560846,61.983056590986564 189.0504913588625,62.37343273466577 188.39986445272896,62.80718400542197 187.9661131819743,63.17587258556421 187.01186038631096,64.26025076245395 186.03592002710909,65.7350050830229 184.86479159606995,67.94713656387631 182.5008471704501,72.95696374110426 179.8766519823805,77.98847848187071 179.07421213148052,79.81023381904492 178.53202304303642,81.39342595730331 178.27177228058363,82.60792951541946 178.1850220264327,83.3669942392409 178.1633344628942,84.10437139952536 178.25008471704513,85.23212470349058 178.40189766181157,85.92612673669959 178.64046086072585,86.66350389698405 178.96577431379418,87.40088105726853 179.39952558454885,88.15994578109151 180.4188410708246,89.61301253812348 182.21890884446188,91.80345645543841 182.7827854964414,92.62758386987535 183.1297865130482,93.32158590308435 183.39003727550102,93.95052524567939 183.58522534734138,94.62283971535143 184.2141646899364,98.09284988139646 184.49610301592773,99.24229074889864 184.82141646899603,100.26160623517441 185.2768553032892,101.45442222975359 185.8407319552718,102.64723822433123 186.3829210437159,103.66655371060702 187.1202982040004,104.79430701457223 188.74686546933268,106.87631311419925 190.82887156896123,109.1968824127421 192.13012538122834,110.4330735343952 195.53507285665938,113.23076923076974 196.44595052524573,114.14164689935608 197.11826499491778,114.96577431379302 197.89901728227926,116.26702812605856 198.80989495086558,118.39240935276258 199.9159606912923,120.12741443578433 200.41477465266246,121.0382921043722 201.39071501186123,123.35886140291507 202.23652998983516,125.07217892239984 202.8437817688917,126.13486953575108 203.45103354795128,126.93730938664953 204.49203659776558,128.0867502541517 205.01253812267117,128.56387665198338 207.72348356489476,130.0386309725523 208.5909861064041,130.60250762453492 209.4151135208426,131.209759403593 210.58624195188173,132.27245001694425 211.23686885801527,132.96645205015324 211.8874957641488,133.79057946458866 211.73568281938543,133.94239240935354 211.19349373093826,134.24601829888184 209.56692646560595,135.02677058624175 208.98136225008483,135.22195865808214 208.04879701796,135.37377160284703 207.13791934937365,135.4171467299225 205.53303964757677,135.30870891223307 204.8173500508308,135.33039647577158 204.14503558115877,135.4171467299225 203.25584547611092,135.65570992883835 202.56184344290037,135.93764825482964 201.21721450355938,136.60996272450015 199.43883429346062,137.2605896306337 196.3375127075563,138.60521856997622 193.4530667570339,139.4944086750256 192.8675025415128,139.86309725516784 192.06506269061282,140.73059979667872 191.69637411047057,141.25110132158585 190.9806845137246,142.57404269739143 190.6770586241948,143.0077939681461 190.35174517112958,143.33310742121287 189.76618095560846,143.70179600135512 187.9661131819743,144.37411047102714 187.22873602168983,144.80786174178337 186.9034225686215,145.21992544900107 186.6214842426302,146.21755337173832 186.3395459166389,146.99830565909826 185.99254490003517,147.6489325652318 185.66723144696687,148.147746526602 186.27448322602646,147.95255845476163 187.72754998305692,147.1067434767877 188.39986445272896,146.91155540494734 188.7902405964097,146.91155540494734 189.18061674009044,146.95493053202281 190.9589969501861,147.60555743815635 191.65299898339666,147.75737038292124 192.54218908844447,147.6706201287703 194.1904439173184,147.1284310403262 194.68925787868548,147.1067434767877 195.12300914944322,147.17180616740168 195.42663503896995,147.2585564215526 195.68688580142276,147.45374449339297 196.01219925449107,147.97424601829857 196.29413758048236,149.18874957641472 196.6845137241631,150.44662826160635 196.6845137241631,150.79362927821163 196.59776347001218,151.07556760420292 195.94713656387862,151.98644527278924 195.42663503896995,153.00576075906503 195.12300914944322,153.28769908505635 194.2338190443923,153.82988817350042 193.90850559132707,154.1552016265672 193.27956624872897,155.41308031175882 193.06269061335317,155.60826838359918 191.7614368010861,156.41070823449763 191.17587258556497,156.95289732294174 190.9156218231122,157.45171128431036 190.69874618773332,158.5360894612001 190.52524567943144,158.92646560488086 190.3951202982035,159.03490342256876 190.15655709928922,159.1216536767197 189.09386648593642,159.31684174856005 188.31311419857803,159.5337173839374 187.9444256184358,159.6855303287023 187.61911216536748,159.88071840054266 187.35886140291467,160.29278210776036 187.07692307692338,161.31209759403615 186.55642155201778,162.07116231785912 185.92748220942275,162.74347678752963 184.58285327007866,163.4808539478141 183.99728905455754,163.97966790918426 183.6286004744153,164.4567943070144 183.1297865130482,165.49779735682867 182.86953575059542,165.80142324635693 182.43578447983765,166.01829888173583 181.9803456455445,166.1484242629622 181.52490681125133,166.23517451711314 181.00440528634573,166.23517451711314 180.3754659437476,166.06167400881128 178.55371060657492,165.21585903083738 178.1850220264327,165.1507963402234 177.72958319213953,165.23754659437589 176.94883090477805,165.67129786513055 176.49339207048487,166.08336157234825 176.36326668926003,166.40867502541502 176.2548288715706,167.38461538461533 176.10301592680415,167.861741782447 175.79939003727742,168.36055574381564 175.32226363944574,168.7075567604209Z"/>
  </g>
</svg>