<?xml version="1.0" encoding="UTF-8" standalone="no"?>
<svg viewBox="0 0 256 118.05960408962221" xmlns="http://www.w3.org/2000/svg">
  <style>
    g.zone {
      fill: lightgray;
      stroke-width: 2;
      stroke-linecap: square;
      stroke-linejoin: bevel;
      stroke-miterlimit: 3;
      stroke-opacity: 0.8;
      stroke: black;
      fill-opacity: 0.3;
    }
  </style>
  <g class="zone" id="zone">
    <path d="M218.13182510332592,70.19534479007933 217.65847291711765,71.25342614748782 216.76745703719806,73.0076136610825 216.46117032847272,74.09353926473749 216.37763758973125,74.70611268218418 216.4054818359797,75.151620622144 216.90667826843648,77.35131607570045 216.878834022188,77.8803567544037 216.68392429845656,78.43724167935544 216.4054818359797,78.85490537306873 215.90428540352298,79.32825755927702 213.87165542745143,80.52556014792195 213.34261474875015,80.91537959538876 212.70219708505496,81.52795301283348 212.20100065259822,82.16837067652865 210.97585381770875,84.11746791385674 210.61387861649044,85.73243419621498 210.36328040026206,86.26147487491824 210.00130519904374,86.79051555362149 208.69262562540885,88.23841635849479 207.99651946922066,89.35218620839628 207.55101152925693,90.46595605829775 207.21688057428707,92.13661083315097 206.9384381118102,92.83271698934112 206.07526647813907,94.08570807048103 204.48814444202733,95.97911681531414 203.9312595170776,96.45246900152242 203.0680878834025,96.95366543397719 202.065695018489,97.42701762018547 201.31390036980784,97.64977159016735 199.05851642375245,97.9839025451372 197.3878616489032,98.373721992604 195.2716989340862,98.4015662388505 193.7681096367199,98.6243202088304 192.9884707417863,98.8192299325638 191.95823363062829,99.29258211877207 190.23189036328208,100.3228192299321 188.58907983467338,100.99108113987377 186.91842505982018,101.85425277354688 184.9971720687386,102.52251468348855 184.13400043506746,102.88448988470688 183.52142701762074,103.35784207091515 183.13160757015396,103.97041548836187 182.49118990645877,105.30693930824324 182.10137045899592,106.47639765064167 182.04568196649896,106.89406134435498 180.18011746791433,106.11442244942334 178.23102023058428,105.05634109201486 176.36545573199965,104.36023493582668 175.83641505329442,104.05394822710333 175.36306286708611,103.49706330215358 174.7226452033949,102.38329345225013 174.13791603219667,101.65934304981347 172.4115727648465,100.21144224494213 170.85229497498324,98.48509897759395 169.87774635631823,97.70546008266233 169.09810746138857,97.31564063519552 168.26278007396195,96.98150968022567 164.3645855993058,95.97911681531414 162.91668479443248,95.50576462910585 161.8864476832705,95.0045681966491 160.16010441592428,93.80726560800417 159.57537524472608,93.50097889928082 158.82358059604093,93.36175766804438 156.45681966499953,93.3339134217959 153.5888623015014,93.16684794431097 151.3056341092015,92.83271698934112 149.05025016315005,92.91624972808259 144.87361322601703,93.25038068305442 144.17750706982883,93.25038068305442 143.6206221448791,93.1390036980625 142.84098324994548,92.77702849684614 142.33978681748874,92.22014357189441 142.08918860126036,91.71894713943766 141.28170546008224,89.12943223841637 141.00326299760934,88.6839242984546 140.75266478138096,88.51685882096967 140.44637807265562,88.51685882096967 140.0565586251888,88.60039155971312 137.63410920165444,89.5192516858812 136.9658472917108,89.82553839460455 135.57363497933443,90.63302153578267 135.07243854687766,90.82793125951608 134.20926691320653,90.91146399825953 133.76375897324277,90.82793125951608 133.26256254078604,90.66086578203115 132.59430063084633,90.29889058081282 133.20687404829303,88.82314552969302 133.20687404829303,88.40548183597971 132.232325429628,86.28931912116472 132.03741570589656,85.17554927126325 131.7868174896682,84.81357407004492 131.28562105721144,84.34022188383665 131.09071133348002,84.53513160757005 130.19969545355647,86.06656515118483 130.00478572982504,86.59560582988809 129.75418751359666,87.68153143354306 129.36436806612986,88.07135088100789 128.97454861866305,88.21057211224631 127.02545138133695,88.37763758973124 126.05090276267191,88.54470306721815 125.18773112899683,88.82314552969302 123.65629758538205,89.4914074396347 121.81857733304193,89.96475962584297 119.98085708070577,90.07613661083293 118.64433326082242,89.99260387208948 116.11050685229412,89.26865346965282 112.90841853382614,88.57254731346464 110.34674787905332,87.79290841853302 109.59495323036819,87.68153143354306 109.03806830541845,87.76506417228651 108.73178159669311,87.93212964977144 108.48118338046473,88.18272786599982 107.75723297802809,89.46356319338622 107.08897106808838,90.21535784206938 105.89166847944345,90.93930824450604 103.91472699586886,91.85816837067608 103.44137480966059,92.24798781814091 103.21862083968068,92.74918425059766 102.91233413095536,94.41983902545088 102.60604742223398,95.42223189036241 102.16053948227022,96.11833804655059 101.54796606482748,96.59169023276084 98.93060691755771,97.59408309767237 98.373721992604,97.92821405264222 97.1485751577106,98.90276267130726 96.03480530781108,99.51533608875198 92.91624972808457,100.54557319991198 91.60757015444969,101.13030237111022 89.0180552534284,102.49467043724007 88.37763758973323,102.96802262345032 87.37524472481971,103.8590385033719 86.81835979986995,104.16532521209328 85.95518816619487,104.30454644333172 83.75549271264039,104.24885795083674 81.8342397215588,104.58298890580659 79.77376549923879,105.39047204698669 77.40700456819741,105.94735697193842 74.90102240591759,106.92190559060147 73.09114639982596,107.45094626930472 72.25581901239934,107.81292147052305 70.89145094627148,108.56471611920819 70.0004350663479,108.87100282792956 69.19295192516978,108.92669132042651 65.5175114204935,108.75962584293961 63.122906243203644,108.3141179029798 62.17620187078709,108.23058516423636 60.505547095933885,108.28627365673134 57.38699151620737,108.53687187295971 56.07831194257248,108.67609310419813 55.1594518164044,108.87100282792956 52.124428975419356,110.04046117032799 50.70437241679453,110.4581248640413 48.42114422449461,110.76441157276464 46.24929301718465,111.18207526647795 44.49510550358996,111.26560800521942 43.68762236241184,111.15423102022947 42.60169675875685,110.8757885577546 42.07265608005558,110.6808788340212 41.543615401350344,110.37459212529784 40.90319773765516,109.87339569284308 40.26278007396394,109.26082227539636 37.561888187948746,106.30933217315477 36.64302806178067,105.64107026321507 35.668479443115636,105.27909506199674 34.805307809440556,105.11202958451182 33.69153795954105,105.13987383075832 28.874483358712844,105.72460300195654 27.732869262564865,105.61322601696659 25.67239504024485,105.13987383075832 24.92060039155972,105.02849684576836 23.667609310421792,105.08418533826334 22.442462475528384,105.33478355449172 21.82988905808168,105.58538177072009 21.412225364370354,105.86382423319498 21.02240591690355,106.25364368065979 20.716119208182178,106.78268435936502 19.60234935827872,109.12160104415794 18.57211224712069,111.070698281488 17.87600609093251,112.62997607134928 16.76223624102905,114.38416358494594 16.288884054820773,115.24733521861904 15.871220361105493,116.50032629975895 15.56493365238412,118.05960408962221 14.562540787470612,117.36349793343403 13.086795736352782,116.50032629975895 8.938003045468234,114.38416358494594 7.852077441813252,113.68805742875777 7.072438546879644,113.10332825755756 6.125734174463089,112.21231237763598 5.2347182945434865,111.070698281488 4.594300630848306,109.87339569284308 4.232325429629978,108.75962584293961 4.009571459650078,107.31172503806827 4.037415705898555,105.69675875571005 4.315858168371451,103.94257124211339 5.179029802046533,99.34827061126705 5.318251033284961,97.87252556014725 5.290406787036484,96.313247770284 5.1233413095535365,94.92103545790764 4.427235153361402,91.32912769197283 4.2044811833815015,89.5192516858812 4.0931041983915515,87.20817924733478 3.981727213401601,80.77615836415032 3.842505982163174,78.60430715684036 3.6475962584317503,76.93365238198714 3.3691537959548965,75.04024363715403 2.9514901022435724,73.06330215357748 1.0023928649135088,65.76810963671991 0.3619752012183274,62.90015227322177 0.027844246248476777,59.97650641722865 0,58.69567108984027 0.027844246248476777,57.164237546225486 0.3341309549738075,54.74178812268912 0.7796388949336083,52.56993691537916 1.3922123123803127,50.53730693930762 2.227539699806918,48.44898847074111 3.2020883184719495,46.472046987164546 4.343702414619928,44.606482488579914 5.401783772026434,43.24211442245006 6.738307591909793,41.98912334131015 7.462257994346448,41.487926908853396 8.520339351752954,40.931041983901665 9.578420709159458,40.596911028931814 10.720034805311395,40.42984555144689 12.613443550144504,40.42984555144689 16.093974331085395,40.84750924516019 17.79247335218708,40.98673047639862 19.35175114205034,40.931041983901665 20.604742223192225,40.76397650641674 21.996954535568584,40.34631281270344 23.082880139223565,39.84511638024866 24.14096149663007,39.037633239068555 24.864911899066723,38.17446160539545 25.393952577767998,37.17206874048392 25.783772025234803,35.891233413095534 26.0065259952147,34.331955623232275 26.090058733960134,32.32716989340921 26.062214487711657,30.71220361105098 25.92299325647323,28.70741788122792 25.115510115295102,22.887970415488184 24.8927561453152,20.49336523819832 47.41875135958506,20.242767021971922 48.47683271699156,20.27061126821842 49.31216010441817,20.437676745703342 49.6741353056365,20.68827496193172 50.00826626060635,21.5514465956068 50.370241461824676,22.052643028061578 52.43071568414469,24.14096149662809 52.95975636284596,24.50293669784642 54.79747661518608,25.449641070262974 55.10376332390745,25.70023928649135 55.46573852512578,26.145747226453132 56.579508375029235,28.094844463781214 57.24777028496894,29.70981074613945 57.66543397868422,31.82597346095246 58.138786164892494,33.46878398955917 58.472917119862345,34.35979986948075 58.69567108984224,34.6660865782041 59.30824450728895,35.30650424189731 60.505547095933885,36.28105286056036 60.9232107896452,36.754405046770614 62.036980639548666,37.784642157928644 62.45464433326395,38.5085925603653 62.78877528823379,39.70589514901023 63.039373504462176,40.234935827713485 63.2342832281936,40.48553404394186 63.596258429411925,40.596911028931814 64.45943006308701,40.51337829018836 69.63845986512959,39.23254296280196 70.41809876006319,38.9262562540786 71.78246682619107,38.090928866652 72.47857298237925,37.81248640417712 74.23276049597789,37.645420926692196 76.01479225582105,37.11638024798697 77.54622579943583,37.005003262997015 78.93843811181219,36.78224929301712 79.41179029802046,36.670872308027164 80.08005220796413,36.33674135305731 80.3863389166855,36.25320861431386 80.97106808788372,36.33674135305731 81.72286273656886,36.92147052425554 82.11268218403566,37.005003262997015 82.30759190776709,36.86578203176057 83.44920600391507,35.83554492060056 85.73243419621498,34.0535131607574 86.26147487492021,33.46878398955917 86.81835979986995,32.49423537089414 87.04111376984986,32.21579290841927 87.84859691102798,31.770284968457485 89.12943223841835,31.49184250598261 90.02044811833795,31.436154013487634 90.74439852077461,31.575375244724082 91.41266043071826,31.798129214705963 92.6656515118562,32.46639112464566 93.58451163802427,33.02327604959739 94.11355231672951,33.46878398955917 94.53121601044083,33.997824668262425 95.06025668914606,35.05590602566893 95.36654339786743,35.195127256907355 96.00696106156262,35.27865999564883 96.67522297150232,35.195127256907355 97.92821405264421,34.805307809440556 99.3761148575175,34.10920165325238 101.7428757885589,32.85621057211247 102.27191646726017,32.661300848379064 102.60604742223398,32.661300848379064 102.91233413095536,32.800522079617494 104.83358712203695,34.58255383946065 105.13987383075832,34.74961931694558 105.47400478573212,34.805307809440556 105.83597998695045,34.6660865782041 107.47879051555518,33.218185773330795 108.34196214923027,32.661300848379064 108.87100282793153,32.46639112464566 111.0428540352415,31.93735044594241 113.13117250380604,31.26908853600271 114.6904502936693,31.102023058515805 117.75331738090281,30.907113334784384 119.2847509245176,30.990646073525856 120.87187296062538,30.851424842289408 122.76528170546244,30.851424842289408 123.79551881662047,30.990646073525856 124.2131825103318,31.15771155101078 124.57515771155013,31.49184250598261 125.38264085273221,33.10680878834084 125.91168153143349,33.8307591907775 127.16467261257537,35.028061779420455 128.52904067870324,36.754405046770614 128.97454861866305,37.11638024798697 129.3365238198814,37.31128997172037 129.9490972373281,37.50619969545377 130.86795736350012,37.561888187948746 133.40178377202446,37.005003262997015 134.23711115945105,36.92147052425554 134.9610615618877,36.94931477050204 135.26734827061304,37.088536001740465 135.71285621057285,37.39482271046382 136.40896236676102,38.39721557537535 136.85447030672083,38.81487926908865 137.6619534479029,39.39960844028688 138.41374809658407,39.817272134000184 139.19338699151768,40.04002610398008 142.3676310637372,40.095714596475055 143.0358929736769,40.234935827713485 143.50924515988913,40.48553404394186 144.09397433108737,41.014574722645115 145.15205568849387,42.18403306504157 146.04307156841347,42.9636719599732 147.37959538829685,43.79899934739981 148.46552099195182,44.66217098107489 150.72090493800326,45.77594083097637 151.41701109419142,46.24929301718465 151.86251903415123,46.86186643463135 152.0852730041351,47.44659560582958 152.0574287578866,48.894496410702885 152.16880574287657,49.39569284315766 152.50293669784642,49.89688927561442 153.00413313030316,50.286708723079244 153.72808353273982,50.53730693930762 155.9556232325428,50.53730693930762 156.81879486621787,50.7600609092895 157.31999129867464,51.06634761801087 158.0160974548628,51.81814226669601 159.60321949097454,52.904067870350985 160.16010441592428,53.40526430280576 161.91429192951898,53.238198825320836 162.80530780944252,53.238198825320836 163.9469219055905,53.516641287795714 164.78224929301712,53.87861648901404 165.53404394170224,53.82292799651906 165.72895366543366,53.76723950402409 166.2579943441389,52.681313900369105 167.06547748531702,51.65107678921108 169.84990211007369,49.34000435066269 170.15618881879507,49.00587339569284 170.3510985425265,48.67174244072299 170.46247552751646,48.28192299325618 170.43463128127192,47.89210354579136 169.76636937132827,46.86186643463135 169.62714814008984,46.444202740918044 169.71068087883526,45.358277137263066 169.29301718512,44.35588427235154 169.237328692627,43.99390907113321 169.2651729388715,43.65977811616336 169.40439417010995,43.409179899934976 169.79421361757676,43.01936045246818 171.04720469871467,42.267565803785025 172.38372851859802,41.32086143136847 174.61126821840494,40.12355884272353 175.14030889710622,39.95649336523861 175.72503806830446,39.87296062649516 177.39569284315766,39.95649336523861 177.757668044376,39.87296062649516 178.11964324559432,39.59451816402028 179.9852077441829,36.39242984555229 181.43310854905226,35.028061779420455 181.62801827278764,34.52686534696568 181.65586251903215,33.8307591907775 181.76723950402607,33.52447248205415 181.9621492277575,33.24603001957729 182.43550141396577,32.772677833369016 182.65825538394566,32.355014139655715 182.74178812268715,31.993038938437387 182.68609963019415,30.433761148576107 182.43550141396577,29.180770067436196 181.9621492277575,27.705025016314412 182.9923863389155,27.621492277572937 183.99477920382904,27.259517076354612 184.96932782249405,26.646943658907905 186.52860561235732,25.393952577767998 187.69806395475376,24.864911899064747 188.22710463345504,24.50293669784642 188.61692408092185,24.113117250381592 188.9232107896472,23.667609310419813 189.09027626713012,23.36132260169646 189.42440722209997,22.13617576680503 189.6471611920799,21.690667826843253 190.98368501196325,20.46552099195182 191.6797911681514,19.518816619535265 193.07200348053172,18.544268000870233 193.65673265172995,17.959538829672006 194.26930606917668,17.235588427235353 195.9121165977814,17.79247335218708 198.00043506634594,18.90624320208856 198.8914509462695,19.212529910811913 199.89384381117904,19.35175114205034 201.4531216010423,19.212529910811913 202.17707200347897,19.26821840330689 202.53904720469728,19.463128127040292 203.04024363715405,20.075701544485018 203.40221883837236,20.326299760713393 204.26539047204744,20.660430715685223 204.96149662823564,20.743963454426698 205.74113552316527,20.660430715685223 206.353708940612,20.38198825320837 207.82945399173377,18.961931694583537 208.21927343920058,18.655644985860185 210.27974766151664,17.959538829672006 210.80878834022187,17.82031759843358 211.33782901892314,17.79247335218708 213.53752447248158,17.876006090928556 214.5677615836396,17.68109636719713 215.09680226234482,17.37480965847378 215.6536871872946,16.79008048727555 216.0156623885129,16.511638024798696 217.63062867087314,16.23319556232382 218.24320208831983,16.01044159234392 218.6330215357827,15.787687622362041 219.30128344572634,15.175114204917316 220.22014357189443,14.144877093757309 221.41744616053936,13.281705460082227 221.89079834674763,12.780509027627451 222.03001957798605,12.362845333914148 222.03001957798605,11.945181640200847 221.22253643680793,9.884707417880833 221.055470959321,9.188601261692654 221.0833152055695,8.54818359799945 221.25038068305244,7.712856210572847 221.3060691755494,7.2116597781160925 221.25038068305244,5.791603219491259 221.0833152055695,4.844898847074704 221.055470959321,4.0931041983915515 221.19469219055944,3.34130954970642 221.6958886230162,2.004785729825039 222.08570807047906,1.5035892973682845 222.78181422666722,0.974548618665032 223.283010659124,0.7239504024366548 223.81205133782922,0.5568849249517295 224.50815749401738,0.47335218620827757 226.1788122688706,0.38981944746680414 227.54318033500243,0.0556884924949751 228.18359799869367,0 229.01892538612026,0.16706547748492528 231.10724385468876,1.0023928649115301 233.3904720469847,1.4757450511198078 235.42310202305626,1.7541875135966618 238.0126169240815,1.8934087448331103 238.54165760278278,1.837720252338135 239.26560800521943,1.6428105286067116 239.9338699151631,1.3365238198833593 240.90841853382415,0.6404176636932029 242.30063084620448,1.921252991081587 243.19164672612408,3.0628670872315444 243.9434413748092,3.591907765934797 246.50511202958202,4.761366108331252 247.45181640199857,5.01196432455963 249.23384816184569,5.3460952795314585 250.15270828801377,5.652381988252833 250.5703719817251,5.902980204481209 250.98803567544036,6.264955405699537 251.23863389166874,6.5990863606693875 251.3221666304102,6.821840330651266 251.3500108766587,7.295192516859544 251.18294539917179,7.852077441809295 250.37546225799366,9.188601261692654 250.20839678050677,9.634109201654434 250.09701979551681,10.413748096584085 250.20839678050677,11.026321514030789 250.54252773548058,11.91733739395237 250.6539047204705,12.529910811399073 250.82097019795347,12.9197302588639 252.10180552533987,14.47900804872716 252.32455949532374,14.952360234935437 252.6308462040451,15.982597346095444 252.96497715901495,16.650859256037123 254.3850337176398,18.15444855340541 254.49641070262973,18.377202523385307 254.52425494887822,18.57211224711871 254.3015009788983,19.184685664563435 253.43832934522322,20.242767021971922 253.3269523602333,20.604742223188268 251.9625842941054,21.690667826843253 251.54492060039013,22.16402001305153 251.23863389166874,23.13856863171656 250.76528170546047,24.196649989123067 250.7095932129635,24.89275614531322 250.87665869045043,25.561018055252923 251.18294539917179,26.0065259952147 252.77006743528352,27.06460735262121 253.60539482271014,27.81640200130436 254.6913204263651,29.37567979116762 255.41527082880177,30.79573634979443 255.49880356754323,31.51968675222911 255.3874265825533,32.355014139655715 254.83054165760353,33.80291494452902 254.6913204263651,34.61039808570715 254.83054165760353,35.028061779420455 255.5544920600402,36.14183162932391 255.7772460300201,36.587339569283714 255.94431150750304,37.227757232978895 256,38.11877311290048 255.97215575375154,39.17685447030698 255.72155753752315,39.31607570154541 255.44311507504628,39.65020665651526 255.16467261257338,40.374157058951916 255.16467261257338,41.82205786382325 255.05329562758345,42.04481183380512 254.80269741135507,42.351098542528476 253.99521427017694,42.991516206221675 253.43832934522322,43.60408962366838 252.853600174025,44.35588427235154 252.1853382640853,45.52534261474799 251.5727648466386,45.85947356971982 249.20600391559722,46.444202740918044 248.31498803567365,46.834022188382875 247.86948009571384,47.251685882096176 246.95061996954578,48.393299978246134 246.0596040896222,49.20078311942624 245.72547313465236,49.61844681313954 245.47487491842398,50.25886447683274 245.47487491842398,50.7600609092895 245.6976288884039,51.484011311724174 246.33804655209906,52.98760060909246 246.36589079834755,53.40526430280576 246.3102023058506,53.82292799651906 246.11529258211917,54.240591690232364 245.6140961496624,54.74178812268912 244.91798999347424,55.131607570153946 243.58146617359088,55.6606482488572 243.2751794648695,55.827713726342125 243.05242549488565,56.050467696324006 242.91320426365118,56.38459865129386 242.9410485098957,56.830106591255635 242.99673700239265,57.21992603872046 243.3308679573625,58.27800739612697 243.3308679573625,58.639982597345295 243.24733521862103,59.11333478355357 243.08026974113412,59.4753099847719 242.63476180117434,60.00435066347515 242.07787687622456,60.33848161844698 241.49314770502238,60.56123558842688 239.85033717641764,61.09027626713013 238.73656732651816,61.34087448335851 237.6784859691077,61.480095714596935 236.56471611920819,61.53578420709191 235.36741353056325,61.53578420709191 234.11442244942137,61.42440722210196 233.61322601696858,61.50793996084344 230.74526865347042,62.78877528823182 228.6847944311504,63.373504459430045 228.21144224494213,63.62410267565842 227.43180335000852,64.23667609310316 226.48509897759197,64.62649554056995 225.9560582988907,64.76571677180839 225.1207309114641,64.79356101805487 223.17163367413403,64.29236458559812 222.05786382423452,64.1252991081132 221.25038068305244,64.1252991081132 220.35936480313285,64.34805307809508 219.6354144006962,64.73787252555991 218.91146399825953,65.32260169675813 218.02044811833596,66.32499456166966 217.60278442462464,66.99325647161135 217.4914074396347,67.57798564280957 217.57494017837618,68.44115727648465 217.79769414835607,69.33217315640623 218.13182510332592,70.19534479007933Z"/>
  </g>
</svg>