<?xml version="1.0" encoding="UTF-8" standalone="no"?>
<svg viewBox="0 0 256 197.8344304807496" xmlns="http://www.w3.org/2000/svg">
  <style>
    g.zone {
      fill: lightgray;
      stroke-width: 2;
      stroke-linecap: square;
      stroke-linejoin: bevel;
      stroke-miterlimit: 3;
      stroke-opacity: 0.8;
      stroke: black;
      fill-opacity: 0.3;
    }
  </style>
  <g class="zone" id="zone">
    <path d="M242.8416783030797,147.60130327814346 243.60768668129518,148.45242369838337 244.83330008644134,149.54185783629256 245.59930846465923,150.27382139769847 246.79087705299705,151.70370370370316 248.05053527495159,153.4910565862087 251.0124343373908,158.00199481348423 251.62524103996267,159.05738413458266 252.1018684752988,160.01063900525244 252.64658554425156,161.33838686082848 254.3828712015422,165.96848194693803 254.94461067890276,167.61965556220417 255.35314848061736,168.9644258261844 255.69359664871286,170.39430813218905 255.9148879579755,171.80716802978836 256,172.70935567524444 256,173.6796329543184 255.9319103663809,174.4286189241297 255.72764146552362,175.2967617527762 255.43826052264183,176.13085976461196 254.96163308730573,177.08411463528176 254.246691934304,178.258660815213 253.44663873927777,179.38213976993174 252.68063036106233,180.3013498237908 252.20400292572623,180.79499966753104 251.64226344836806,181.25460469446057 250.99541192898542,181.6971873129859 250.36558281800575,182.03763548108262 249.02081255402675,182.61639736684614 246.4844737017099,183.48454019549146 245.42908438061028,183.9952124476359 245.0035241704903,184.2675709821123 244.64605359398942,184.59099674180484 244.35667265110766,184.9484673183057 244.16942615865574,185.32296030321075 244.0502692998205,185.85065496376055 244.08431411663128,186.3443048074996 244.30560542589393,186.82093224283452 244.62903118558404,187.21244763614615 245.08863621251479,187.55289580424164 245.59930846465923,187.8592991555288 248.20373695059516,188.9998005186517 248.8505884699778,189.34024868674717 249.46339517255208,189.71474167165343 249.92300019948283,190.0722122481543 250.36558281800575,190.51479486667964 250.6719861692929,190.99142230201454 250.82518784493647,191.4850721457536 250.80816543653108,192.06383403151716 250.62091894407916,192.60855110047115 250.2123811423646,193.3234922534741 249.54850721457657,194.15759026530986 248.54418511869065,195.24702440321784 247.5058182059988,196.2173016822918 246.51851851851825,196.93224283529474 245.63335328146755,197.37482545382008 245.1226810293231,197.54504953786784 244.50987432675123,197.6982512135114 243.9821796662014,197.78336325553468 243.33532814681877,197.8344304807496 242.2288716005054,197.7493184387251 241.17348227940818,197.47695990424873 240.39045149278493,197.1535341445574 239.50528625573665,196.65988430081714 236.74765609415473,194.70230733426385 235.53906509741392,193.95332136445256 234.2113172418379,193.3064698450687 233.36019682159795,193.01708890218694 232.73036771061828,192.86388722654337 231.72604561473477,192.74473036771056 230.60256666001845,192.79579759292426 229.66633419775403,192.9660216769732 227.45342110512732,193.54478356273677 226.840614402553,193.64691801316542 226.27887492519486,193.68096282997496 225.75118026464503,193.66394042157077 225.03623911164328,193.56180597114093 224.27023073342784,193.35753707028363 223.58933439723444,193.08517853580602 222.8063036106136,192.67664073409145 221.88709355675215,192.0808564399225 220.86574905246326,191.22973601968138 220.06569585743705,190.41266041625101 219.46991156326814,189.69771926324805 218.72092559345805,188.659352350555 216.6782365848803,185.25487066959164 216.21863155794955,184.65908637542393 215.7079593058051,184.14841412327948 214.94195092758966,183.55262982911057 213.98869605691988,183.0589799853715 212.7460602433683,182.61639736684614 211.57151406343584,182.36106124077392 210.63528160117144,182.27594919874946 209.40966819602525,182.27594919874946 208.5074805505692,182.3780836491781 207.4180464126612,182.61639736684614 206.31158986634784,182.95684553494164 204.96681960236643,183.50156260389565 203.48587007114924,184.1994813484932 202.17514462397858,184.9484673183057 201.23891216171415,185.5442516124734 200.37076933306886,186.2251479486668 199.75796263049455,186.80390983443036 198.99195425227668,187.67205266307568 198.5663940421567,188.26783695724458 198.19190105725048,188.89766606822184 197.85145288915498,189.61260722122478 197.18757896136697,191.17866879446765 196.88117561007982,191.7063634550163 196.6088170756034,192.04681162311297 196.18325686548346,192.40428219961385 195.79174147217182,192.62557350887653 195.29809162843276,192.79579759292426 194.6001728838364,192.88090963494875 193.9873661812621,192.86388722654337 193.1702905778305,192.65961832568607 192.42130460802045,192.33619256599474 191.74040827182705,191.91063235587478 191.04248952723069,191.31484806170587 190.4807500498701,190.75310858434648 188.21676973202966,188.01250083117236 187.6380078462661,187.39969412859807 187.14435800252704,186.9230666932644 186.59964093357428,186.4975064831432 185.93576700578626,186.07194627302323 185.27189307799824,185.74852051333193 184.60801915021023,185.56127402087878 183.63774187113503,185.4250947536406 183.14409202739597,185.44211716204475 182.63341977525153,185.51020679566386 182.15679233991784,185.64638606290328 181.6461200877734,185.8336325553552 180.81202207593643,186.2932375822859 180.42050668262482,186.61666334197722 180.08005851452933,186.95711151007393 179.50129662876577,187.75716470510014 179.05871401024044,188.71041957576873 178.7352882505479,189.71474167165343 178.5310193496906,189.61260722122478 178.15652636478436,189.51047277079613 176.35215107387464,189.20406941950898 175.62018751246754,189.01682292705587 172.50508677438714,187.79120952190968 172.07952656426718,187.7231198882906 171.10924928519202,187.74014229669476 170.5815546246422,187.62098543786072 170.30919609016578,187.48480617062253 170.05385996409478,187.29755967816942 169.355941219496,186.54857370835813 169.100605093425,186.361327215905 167.7388124210382,185.76554292173608 166.88769200079827,185.44211716204475 166.0535939889637,184.99953454351942 165.08331670988855,184.7441984174472 164.74286854179064,184.608019150209 163.99388257198058,184.0803244896604 163.17680696854896,183.62071946272965 162.47888822395262,183.1100472105852 162.2746193230929,183.02493516856197 162.03630560542726,183.0079127601566 161.7469246625455,183.07600239377567 161.33838686082848,183.21218166101386 160.67451293304046,183.53560742070638 160.21490790611216,183.63774187113503 158.61480151605974,183.56965223751595 156.92958308398283,183.62071946272965 156.50402287386288,183.56965223751595 156.1465522973596,183.46751778708608 155.61885763681218,183.17813684420432 154.73369239976148,182.27594919874946 153.74639271228094,181.44185118691368 153.33785491056636,181.1865150608415 152.8442050668273,181.03331338519789 151.4824123944405,180.7609548507215 150.90365050867695,180.5737083582684 150.15466453886688,180.23326019017168 148.40135647317086,179.2800053195019 146.73316044949934,178.71826584214372 146.20546578894954,178.39484008245242 144.9968747922063,177.40754039497307 144.45215772325352,177.10113704368592 143.6521045282273,176.87984573442324 141.74559478688772,176.53939756632778 140.91149677505317,176.28406144025556 138.30706828911482,175.1605824855368 137.4389254604695,174.66693264179773 136.11117760489347,173.37322960303126 135.54943812753532,172.98171420972082 134.52809362324643,172.36890750714775 133.94933173748288,171.94334729702777 133.6088835693874,171.60289912893109 133.26843540128948,171.1773389188111 132.60456147350388,169.90065828845 132.07686681295408,169.10060509342378 131.80450827847767,168.41970875723038 131.75344105326153,168.13032781434862 131.7193962364532,167.31325221091825 131.24276880111708,166.2578628898198 131.174679167498,166.01954917215176 131.24276880111708,165.59398896203177 131.5151273355935,165.15140634350644 132.29815812221673,164.8450029922193 132.96203205000475,164.53859964093334 135.17494514262907,163.34703105259672 136.24735687213408,162.80231398364273 137.20061174280147,162.42782099873648 138.10279938825752,162.13844005585472 138.98796462530822,161.9341711549962 140.04335394640546,161.797991887758 143.54997007779744,161.57670057849532 144.86069552496812,161.45754371966132 146.00119688809224,161.23625241039986 146.98849657557037,160.9128266507073 148.02686348826464,160.41917680696824 149.01416317574277,159.73828047077606 149.797193962366,159.0403617261785 151.44836757763215,157.38918811091114 152.2824655894667,156.72531418312312 152.82718265842192,156.4189108318372 153.52510140301825,156.11250748055002 154.27408737283076,155.89121617128737 155.10818538466773,155.75503690404918 156.6061573242903,155.68694727043007 158.18924130593734,155.78908172085872 159.84041492120593,156.04441784693094 164.8450029922205,157.03171753441026 166.5302214242974,157.25300884367294 167.78987964625435,157.32109847729205 168.98144823458975,157.33812088569744 170.445375357404,157.25300884367294 171.75610080457466,157.09980716802937 174.97333599308487,156.58913491588493 175.99468049737376,156.50402287386044 177.08411463528176,156.4699780570509 181.10140301881822,156.5550900990754 185.52722920406924,156.52104528226582 186.95711151007512,156.5550900990754 188.659352350555,156.70829177471896 190.9573774852062,157.11682957643475 191.94467717268432,157.25300884367294 192.8468648181404,157.23598643526756 193.56180597114215,157.11682957643475 194.0554558148812,156.96362790079118 194.61719529224177,156.65722454950404 195.11084513598084,156.31677638140854 195.53640534610082,155.9422833965023 195.84280869738797,155.55076800319188 196.23432409069719,154.93796130061756 196.59179466719803,154.05279606356808 196.71095152603328,153.54212381142364 196.8130859764607,152.87824988363562 196.8301083848661,152.04415187179987 196.77904115965237,151.3462331272023 196.65988430081714,150.64831438260472 196.47263780836522,150.05253008843582 196.20027927388884,149.4567457942681 195.91089833100708,148.99714076733738 195.6044949797199,148.60562537402697 195.24702440321906,148.29922202274102 194.88955382671818,148.06090830507296 194.44697120819282,147.85663940421568 193.68096282997496,147.65237050335716 193.0511337189977,147.5672584613339 192.7106855509022,147.58428086973808 192.11490125673328,147.70343772857208 191.1616463860635,148.02686348826342 190.6169293171083,148.33326683955056 189.97007779772565,148.80989427488547 188.59126271693592,150.03550768003163 188.01250083117236,150.478090298557 187.5188509874333,150.78449364984291 186.9741339184781,151.05685218432052 186.42941684952532,151.26112108517782 185.86767737216715,151.4143227608214 185.18678103597375,151.49943480284588 184.50588469978035,151.51645721125004 183.94414522242218,151.4824123944405 182.7355542256814,151.24409867677366 181.33971673648625,150.78449364984291 180.60775317507915,150.478090298557 179.80769998005292,150.0695524968412 179.211915685884,149.69505951193494 178.78635547576405,149.35461134383945 178.37781767404704,148.92905113371827 178.02034709754616,148.45242369838337 177.81607819668886,148.06090830507296 177.5947868874262,147.51619123611897 177.05006981847342,145.6096814947794 176.76068887559165,144.84367311656274 176.33512866546926,144.09468714675145 175.7733891881111,143.49890285258252 175.24569452756128,143.14143227608164 174.58182059977327,142.81800651639034 173.78176740474706,142.54564798191396 171.87525766340988,142.01795332136413 170.90498038433472,141.6945275616728 169.96874792207032,141.285989759957 168.99847064299513,140.72425028259883 168.23246226477968,140.16251080523946 167.56858833699167,139.5497041026664 167.00684885963108,138.91987499168792 165.44078728638942,136.9793204335388 164.9130926258396,136.45162577299018 164.38539796528977,135.97499833765528 163.87472571314532,135.6175277611544 163.31298623578718,135.26005718465234 161.04900591794672,134.1365782299348 160.07872863887155,133.5918611609808 159.02333931777432,132.85989759957369 157.98497240508007,131.95770995411883 157.44025533612728,131.41299288516484 156.92958308398283,130.80018618259174 156.55509009907658,130.27249152204192 156.24868674778944,129.7447968614933 156.01037303012137,129.16603497572976 155.87419376288318,128.68940754039488 155.482678369574,126.8509874326744 155.27840946871427,126.3062703637204 155.02307334264324,125.88071015360043 154.68262517454778,125.45514994348048 154.17195292240334,125.01256732495513 153.59319103663736,124.65509674845426 153.08251878449533,124.43380543919159 152.06117428020644,124.14442449630981 151.0228073675122,124.00824522907041 149.47376820267348,123.99122282066624 147.32894474366586,124.0763348626895 146.05226411330594,124.19549172152354 144.91176275018424,124.36571580557128 141.18385530952958,125.2338586342178 139.78801782033443,125.48919476029002 138.2389786554957,125.64239643593238 136.55376022341883,125.64239643593238 135.53241571912994,125.54026198550375 134.52809362324643,125.38706030986016 132.94500964159937,125.01256732495513 131.9917547709296,124.68914156526381 130.8512534078079,124.26358135514263 129.79586408670824,123.76993151140357 128.77451958241934,123.24223685085374 127.27654764279679,122.32302679699471 126.68076334862786,121.863421770064 126.08497905445894,121.33572710951537 125.5743068023145,120.79101004056139 125.14874659219453,120.24629297160739 124.80829842409905,119.66753108584264 124.51891748121486,119.0887692000791 124.3657158055737,118.62916417314959 124.22953653833308,118.05040228738605 124.11037967950027,117.01203537469178 124.12740208790565,116.07580291242736 124.26358135514384,113.5564864685147 124.31464858035756,111.82020081122408 124.24655894673846,110.61160981448207 124.09335727109489,109.59026531019317 123.76993151140478,108.44976394707027 123.49757297692838,107.81993483609301 123.22521444244957,107.36032980916228 122.96987831637857,106.96881441585187 122.59538533147231,106.52623179732652 121.72724250282701,105.74320101070569 121.33572710951537,105.48786488463347 120.7910100405626,105.21550635015586 119.80371035308205,104.87505818205916 118.88450029922302,104.70483409801142 117.88017820333951,104.70483409801142 116.80776647383449,104.87505818205916 116.17793736285722,105.06230467451229 115.59917547709368,105.28359598377496 114.73103264844838,105.70915619389613 112.96070217434699,106.79859033180412 112.29682824655897,107.17308331670917 111.42868541791366,107.53055389321123 110.49245295564926,107.76886761087808 109.48813085976575,107.87100206130673 108.89234656559682,107.85397965290255 108.2965622714279,107.78589001928346 107.10499368309006,107.49650907640049 105.84533546113555,107.00285923266142 104.10904980384493,106.11769399561072 102.1514728372892,104.94314781567947 100.09176142030847,103.5132655096748 98.49165503025604,102.2195624709083 97.64053461001369,101.40248686747792 96.80643659817913,100.48327681361768 94.11689607021873,96.97666068222567 90.6953919808512,92.9083050734755 90.16769732030137,92.36358800452152 89.57191302613245,91.85291575237707 88.77185983110624,91.30819868342307 87.93776181926927,90.84859365649235 88.24416517055641,90.45707826318194 89.21444244963159,89.45275616729843 89.65702506815693,89.16337522441665 90.15067491189599,88.97612873196354 90.78050402287326,88.83994946472534 91.37628831704218,88.78888223951041 92.84021543985641,88.90803909834443 93.70835826850173,88.89101668993905 94.03178402819425,88.82292705631995 94.95099408205328,88.49950129662864 95.410599108984,88.38034443779462 96.95963827382272,88.22714276215103 97.28306403351283,88.10798590331822 98.01502759491994,87.7164705100066 98.42356539663695,87.59731365117378 99.07041691601958,87.56326883436424 99.95558215307028,87.7164705100066 100.14282864552219,87.68242569319705 100.3300751379741,87.59731365117378 100.41518717999858,87.4441119755302 100.44923199680935,86.95046213178993 100.55136644723677,86.66108118890816 100.97692665735916,85.8950728106915 101.21524037502479,85.57164705100017 101.65782299355014,85.09501961566528 103.13877252476975,83.85238380211372 103.63242236850881,83.29064432475556 104.26225147948608,82.3203670456804 105.77724582751644,80.99261919010557 106.18578362923103,80.55003657158022 106.44111975530447,80.20958840348352 106.57729902254266,79.83509541857848 106.57729902254266,79.40953520845731 106.50920938892357,79.08610944876598 106.11769399561193,78.1328545780962 106.06662677039822,77.87751845202398 106.10067158720655,77.63920473435714 106.23685085444475,77.41791342509447 106.96881441585187,76.48168096283005 107.4284194427826,76.0390983443047 109.45408604295498,74.64326085510957 109.87964625307495,74.38792472903735 110.54352018086297,74.16663341977468 111.56486468515186,73.96236451891738 112.09255934570167,73.89427488529829 113.18199348360966,73.86023006848873 114.23738280470931,73.63893875922606 115.34383935102025,73.69000598443978 116.62051998138257,73.65596116763024 117.6759093024798,73.80916284327381 118.27169359664872,73.75809561805889 118.71427621517407,73.65596116763024 119.27601569253223,73.40062504155802 119.78668794467667,73.11124409867624 120.6548307733244,72.48141498769898 120.80803244896555,72.3963029456745 121.1144358002527,72.32821331205541 121.40381674313447,72.32821331205541 121.74426491123238,72.41332535407868 124.11037967950027,73.0771992818667 125.0295897333593,73.28146818272519 125.55728439390911,73.28146818272519 125.7785757031718,73.21337854910489 125.94879978722075,73.06017687346252 126.1190238712697,72.70270629696044 126.30627036372161,71.97074273555454 126.578628898198,71.44304807500471 127.1403683755586,70.7110845135976 128.11064565463133,69.68974000930872 128.40002659751312,69.24715739078337 128.6042954983704,68.56626105459118 128.70642994880026,67.45980450827781 128.57025068156207,66.11503424429762 128.58727308996745,64.95751047277052 128.22980251346658,63.61274020879032 128.16171287984506,63.22122481547991 128.16171287984506,62.88077664738321 128.31491455548863,62.11476826916654 128.31491455548863,61.808364917879395 128.11064565463133,61.1955582153063 127.83828712015494,60.123146485803694 127.44677172684332,59.08477957310943 127.2595252343914,57.99534543520144 127.15739078396155,57.05911297293704 126.51053926457891,55.96967883502905 126.22115832169713,54.91428951393062 126.08497905445894,54.590863754239294 125.91475497040999,54.38659485338079 125.94879978722075,54.23339317773722 126.2552031385079,53.96103464326083 126.62969612341415,53.773788150807704 126.93609947469888,53.67165370037906 127.82126471174956,53.51845202473548 128.19575769665582,53.36525034909191 128.40002659751312,53.19502626504416 128.58727308996745,52.956712547376114 128.72345235720564,52.66733160449434 128.82558680763307,51.54385264977681 128.91069884965756,51.30553893210996 129.09794534211187,51.050202806037746 130.1703570716145,50.028858301748855 131.02147749185443,49.51818604960441 131.75344105326153,48.83728971341102 132.09388922135943,48.496841545315526 132.51944943147942,47.901057251146604 132.672651107123,47.74785557550303 133.3365250349086,47.35634018219261 134.15360063834018,46.72651107121415 134.80045215772282,46.369040494713275 134.97067624177177,46.2158388190697 135.10685550900996,45.96050269299748 135.12387791741534,45.63707693330616 134.8174745661282,44.3263514861355 134.80045215772282,44.08803776846866 134.83449697453358,43.93483609282509 134.9025866081527,43.83270164239644 135.1579227342237,43.66247755834748 135.78775184520336,43.37309661546571 136.14522242170423,43.253939756632896 137.67723917813757,43.10073808098932 138.90285258328373,43.10073808098932 140.11144358002696,42.777312321298005 140.91149677505317,42.624110645654426 141.1668329011242,42.487931378416235 141.60941551964953,42.01130394308134 141.8987964625313,41.79001263381866 142.29031185584293,41.619788549770924 142.81800651639034,41.53467650774645 143.49890285258374,41.568721324555995 143.80530620387088,41.67085577498464 144.04361992153895,41.79001263381866 144.9968747922063,42.658155462463974 145.52456945275614,43.253939756632896 145.83097280404328,42.81135713810755 145.96715207128148,42.41984174479713 146.00119688809224,42.07939357670043 146.00119688809224,41.72192300019957 145.9501296628761,41.4325420573178 145.59265908637522,40.59844404548203 145.4735022275424,40.223951060575786 145.50754704435076,39.83243566726537 145.64372631159137,39.406875457144196 146.03524170490059,38.65788948733291 146.57995877385576,37.85783629230669 146.97147416716498,37.39823126537597 147.92472903783477,36.44497639470739 148.38433406476548,35.88323691734802 148.48646851519536,35.64492319968117 148.5205133320037,35.38958707360896 148.38433406476548,34.96402686348778 147.92472903783477,34.31717534410514 147.73748254538285,34.12992885165202 146.27355542256862,33.12560675576851 145.54159186116152,32.46173282798049 144.75856107454067,31.55954518252563 143.51592526098912,30.84460402952268 143.43081321896463,30.793536804308964 143.37974599375093,30.725447170689865 144.16277678037176,30.67437994547494 144.91176275018424,30.470111044617646 145.4054125939233,30.180730101735875 145.57563667797226,29.9594387924732 145.62670390318598,29.7551698916147 145.52456945275614,29.41472172351921 145.30327814349346,29.09129596382668 144.77558348294605,28.393377219230324 143.89041824589535,27.440122348560532 143.75423897865716,27.201808630892483 143.7201941618464,26.99753973003519 143.73721657025177,26.844338054391613 143.83935102067923,26.65709156193849 144.41811290644276,26.129396901389878 144.9287851585872,25.43147815679231 145.50754704435076,24.410133652503422 145.66074871999433,23.89946140035898 145.66074871999433,23.695192499501687 145.57563667797226,23.371766739809157 145.38839018551792,23.04834098011784 145.11603165104154,22.793004854045616 144.3840680896344,22.384467052329818 143.9244630627037,22.0610412926385 143.7201941618464,21.805705166566277 143.61805971141655,21.516324223684506 143.63508211982193,21.380144956446312 143.70317175344104,21.12480883037409 144.2649112308016,19.984307467251178 144.48620254006187,19.59279207394076 144.94580756699258,18.96296296296229 145.08198683423078,18.537402752842326 145.08198683423078,18.248021809960555 144.97985238380335,17.958640867078785 144.35002327282368,17.19263248886212 144.24788882239622,16.971341179599445 144.24788882239622,16.83516191236125 144.31597845601533,16.681960236717675 144.55429217368336,16.375556885430527 144.87771793337348,16.18831039297861 145.8139503956379,15.762750182857435 147.2948999268575,15.235055522308823 148.38433406476548,15.01376421304615 149.54185783629256,14.67331604494945 149.96741804641255,14.622248819735733 150.52915752377314,14.69033845335483 151.10791940953666,14.877584945807953 152.24842077265836,15.422302014761947 153.32083250216098,16.103198350954134 154.52942349890418,16.51173615266993 155.0060509342379,16.716005053527223 155.27840946871427,16.88622913757497 155.6018352284068,17.17561008045674 156.24868674778944,18.00970809229371 156.55509009907658,18.622514794866802 156.6061573242903,19.150209455415414 156.50402287386288,19.57576966553659 156.33379878981393,19.95026265044163 156.18059711417033,20.1715539597043 155.0571181594516,21.09076401356454 154.73369239976148,21.44823459006541 154.56346831571253,21.72059312454301 154.49537868209345,21.97592925061523 154.51240109049883,22.095086109448047 154.61453554092625,22.231265376687453 154.81880444178597,22.316377418710722 155.34649910233335,22.28233260190117 156.9466054923858,21.890817208590754 158.3594653899863,21.873794800186584 160.70855774985122,21.618458674114365 161.9511935634028,21.584413857303606 162.44484340714186,21.652503490923912 162.87040361726181,21.788682758162107 163.80663607952624,22.452556685950128 165.30460801915123,23.20154265576141 165.88336990491476,23.695192499501687 166.54724383270278,24.427156060907592 167.6026331538,23.86541658354943 168.09628299753908,23.678170091096305 168.52184320766145,23.661147682690927 169.5602101203533,23.86541658354943 170.07088237249775,23.8824389919536 170.445375357404,23.814349358334503 170.99009242635918,23.439856373429464 171.22840614402483,23.388789148214535 171.517787086909,23.422833965024086 172.07952656426718,23.55901323226228 172.9987366181262,23.8824389919536 173.25407274419965,23.91648380876315 173.4753640534623,23.89946140035898 173.83283462996317,23.780304541524952 174.39457410732135,23.49092359864318 174.83715672584668,23.167497838951864 175.19462730234756,22.810027262450994 175.3648513863965,22.384467052329818 175.39889620320486,21.46525699847079 175.5010306536347,21.056719196754994 175.75636677970573,20.699248620254124 176.42024070749375,20.15453155130013 176.8458009176137,19.677904115965237 177.06709222687638,19.218299089034513 177.35647316975815,18.282066626770103 177.76501097147516,17.49903584014927 177.8671454219026,17.15858767205257 177.90119023871335,16.83516191236125 177.9352350555217,15.01376421304615 178.12248154797604,13.720061174279662 178.3267504488333,12.988097612872545 178.4118624908578,12.324223685085737 178.37781767404704,12.171022009442163 178.2756832236196,11.983775516989038 177.62883170423697,11.35394640601057 177.37349557816353,10.9964758295097 177.2713611277361,10.621982844603453 177.3224283529498,10.179400226078108 177.42456280337726,9.872996874792168 177.6118092958316,9.566593523505018 178.78635547576405,8.545249019216131 179.62045348759858,7.523904514927245 179.80769998005292,7.2175011636413045 179.9609016556965,6.791940953520128 179.94387924729114,6.485537602234189 179.80769998005292,5.736551632421693 179.73961034643384,5.089700113039054 179.58640867079026,4.698184719728636 179.45022940355207,4.579027860894611 178.59910898330972,4.1875124675841935 177.95225746392708,3.69386262384392 177.11815945209253,3.1491455548899276 176.28406144025556,2.4682492186977396 176.28406144025556,1.3617926723843758 176.35215107387464,0.8681428286453118 176.48833034111283,0.4766274353348944 176.74366646718627,0.1702240840477446 177.03304741006804,0.05106722521371862 177.4075403949743,0 177.81607819668886,0.017022408404169704 178.39484008245242,0.11915685883402598 180.04601369771856,0.5787618857635412 180.3524170490057,0.7489859698112857 180.96522375158,1.2085909967420105 181.3056719196755,1.378815080789755 181.81634417181994,1.5490391648374997 182.36106124077514,1.6171287984565974 183.36538333665865,1.5149943480279506 183.7398763215649,1.5830839816470486 184.14841412327948,1.7192632488864537 185.44211716204475,2.263980317840446 185.86767737216715,2.4852716271031188 187.79120952190968,3.949198749916141 188.1997473236267,4.221557284393742 189.10193496908033,4.6641399029190875 189.97007779772565,4.970543254205028 191.07653434403903,5.191834563467701 192.3021477491852,5.293969013897557 193.49371633752304,5.4641930979453015 194.7874193762883,5.5322827315644 196.59179466719803,5.51526032315902 197.20460136977235,5.583349956779328 196.1492120486727,7.847330274618564 193.93629895604838,12.119954784227234 193.45967152071228,13.226411330540598 193.11922335261679,14.196688609614556 192.82984240973502,15.422302014761947 192.7617527761159,16.018086308929657 192.74473036771056,16.596848194693198 192.81282000132964,17.48201343174389 192.93197686016487,18.02673050069788 193.11922335261679,18.60549238646142 193.5277611543314,19.490657623512114 193.97034377285672,20.18857636810968 194.51506084181193,20.920539929516796 195.92792073941243,22.63980317840204 196.37050335793538,23.286654697785888 196.64286189241417,23.83137176673988 196.84713079327148,24.325021610478945 197.00033246891505,24.85271627102877 197.4939823126541,27.57630161579873 197.7152736219168,28.47848926125359 197.9706097479902,29.278542456279805 198.32808032449108,30.214774918545423 198.77066294301642,31.151007380809833 199.1962231531364,31.951060575836046 199.77498503889993,32.83622581288674 201.05166566925985,34.47037701974872 202.68581687612303,36.29177471906382 203.70716138041192,37.26205199813777 206.37967949996695,39.457942682359125 206.97546379413586,40.05372697652804 207.4180464126612,40.564399228672485 208.08192034044922,41.53467650774645 208.371301283331,42.096415985104606 208.95006316909453,43.50927588270512 209.71607154730998,44.71786687944713 210.124609349027,45.43280803244887 210.97572976926693,47.40740740740754 211.48640202141138,48.46279672850598 211.86089500631763,49.17773788150772 212.2864552164376,49.841611809295735 213.27375490391572,50.98211317241864 213.81847197287092,51.49278542456309 214.26105459139626,51.76514395903948 215.5717800385669,52.44604029523167 216.62716935966415,53.09289181461551 217.42722255469036,53.70569851718861 218.36345501695718,54.57384134583392 219.07839616995892,55.40793935766968 219.79333732296067,56.463328678768114 220.5763681095815,57.84214375955787 221.325354079394,59.39118292439658 221.7168694727056,60.34443779506637 222.0573176408011,61.382804707759426 222.2615865416584,62.336059578429214 222.3296761752775,63.13611277345543 222.3296761752775,64.10639005252939 222.24456413325302,65.07666733160455 221.61473502227577,69.92805372697677 221.4445109382268,71.81754105991097 221.42748852982385,72.70270629696044 221.47855575503758,73.55382671720159 221.59771261387039,74.37090232063318 221.78495910632472,75.1709555156594 222.09136245760945,76.12421038632918 222.48287785092108,77.09448766540314 224.78090298557228,81.72458275151268 225.59797858900146,83.27362191635018 228.25347430015353,87.86967218565017 228.9513930447499,89.2655096748453 229.53015493051342,90.55921271361058 229.90464791541967,91.78482611875798 230.05784959106325,92.78914821464149 230.10891681627697,93.8615599441453 230.07487199946863,96.10851785358037 230.091894407874,97.07879513265432 230.19402885830144,98.06609482013366 230.41532016756412,99.07041691601837 230.72172351885126,100.02367178668817 231.18132854578198,101.13012833300031 231.65795598111566,102.11742802047965 233.0708158787162,104.80696854844007 233.75171221490717,106.30494048806385 234.279406875457,107.66673316044944 234.63687745195784,108.8412793403819 234.94328080324502,110.30520646319492 235.24968415453216,112.2117162045345 235.52204268900854,114.3054724383272 235.65822195624673,115.87153401157008 235.6922667730575,116.68860961500046 235.6411995478438,117.6759093024798 235.4879978722002,118.57809694793465 235.2837289713405,119.32708291774715 235.04541525367486,119.92286721191486 234.58581022674414,120.75696522375183 234.04109315779135,121.47190637675358 233.59851053926602,121.98257862889801 233.00272624509708,122.57836292306693 232.1175610080464,123.36139370968777 229.6322893809433,125.40408271826554 229.03650508677435,125.98284460402908 228.62796728505978,126.47649444776935 228.28751911696187,126.9871666999138 228.0662278076992,127.5318837688678 227.91302613205804,128.38300418910774 227.91302613205804,128.91069884965756 227.94707094886638,129.02985570849037 228.32156393377264,129.84693131192196 228.8152137775117,130.57889487332906 230.0238047742549,131.90664272890513 231.5728439390912,133.3875922601235 232.33885231730906,134.03444377950615 232.9857038366917,134.52809362324643 235.45395305538946,136.0941551964893 236.56040960170282,136.87718598311014 240.27129463395212,139.83908504554816 240.93516856174014,140.45189174812126 241.37775118026548,140.94554159186032 241.71819934836097,141.4221690271952 242.05864751645646,142.01795332136413 242.33100605093526,142.68182724915215 242.5012301349818,143.3116563601306 242.60336458541167,144.06064232994189 242.6374094022224,144.5372697652768 242.5863421770063,145.83097280404206 242.60336458541167,146.68209322428322 242.68847662743613,147.34596715207124 242.8416783030797,147.60130327814346Z"/>
    <path d="M85.48653500897692,104.7218565064168 86.23552097878941,106.15173881242028 86.55894673847952,106.88370237382739 86.83130527295832,107.66673316044944 87.22282066626754,109.21577232528693 87.52922401755468,111.22441651705516 87.9207394108663,114.93530154930446 87.97180663608003,116.46731830573779 87.93776181926927,117.36950595119386 87.78456014362811,118.44191768069646 87.5802912427684,119.17388124210358 87.32495511669738,119.8377551698916 86.79726045614757,120.79101004056139 86.0993417115512,121.64213046080131 85.07799720726233,122.57836292306693 84.09069751978177,123.32734889287822 82.38845667930191,124.4167830307862 77.74133918478579,127.17441319236572 76.34550169559307,127.90637675377283 74.98370902320627,128.50216104794174 73.60489394241651,129.01283330008619 72.00478755236409,129.4894607354211 70.52383802114447,129.79586408670704 69.33226943280906,129.9490657623506 67.97047676042467,129.98311057916015 65.02560010639084,129.7447968614933 63.56167298357661,129.71075204468377 62.47223884566862,129.77884167830285 59.20393643194467,130.08524502959 57.12720260655613,130.1533346632091 55.52709621650371,130.08524502959 53.58654165835579,129.84693131192196 51.45874060775354,129.43839351020617 47.79892280071796,128.62131790677577 46.4881973535473,128.22980251346416 45.24556153999574,127.75317507813047 44.54764279539938,127.41272691003377 43.883768867611366,127.02121151672335 42.726245096084284,126.20413591329176 41.619788549770924,125.2338586342178 39.86648048407492,123.5486402021409 39.032382472240364,122.90178868275825 38.47064299487978,122.5953853314711 37.959970742735344,122.42516124742336 37.4492984905909,122.35707161380427 36.90458142163811,122.37409402220844 36.342841944279954,122.51027328944663 35.83216969213551,122.71454219030514 35.372564665204784,123.0039231331869 34.91295963827406,123.36139370968777 34.521444244964854,123.76993151140357 34.112906443247844,124.31464858035756 33.789480683557734,124.8934104661211 33.534144557484304,125.48919476029002 33.32987565662701,126.2381807301013 33.24476361460253,126.88503224948394 33.19369638938882,127.56592858567734 33.21071879779419,128.21278010505998 33.397965290246105,129.76181926989747 33.94268235919889,132.33220293902508 34.18099607686695,133.83017487864885 34.24908571048604,134.98769865017593 34.18099607686695,135.97499833765528 34.02779440122337,136.58780504022837 33.85757031717684,137.06443247556325 33.6022341911034,137.52403750249277 33.278808431413296,137.9836425294235 32.88729303810167,138.3921803311393 32.47875523638708,138.74965090764016 31.899993350623536,139.12414389254522 31.270164239643858,139.44756965223775 30.24881973535497,139.82206263714278 29.34663208990132,140.0093091295959 28.42742203603987,140.077398763215 27.457144756964702,140.0093091295959 26.72518119556001,139.83908504554816 26.061307267771987,139.56672651107056 25.41445574838935,139.20925593456968 24.018618259194216,138.29004588070944 23.524968415452733,138.03470975463722 23.065363388524425,137.8474632621841 22.452556685950128,137.69426158654173 21.788682758162107,137.60914954451727 21.15885364718485,137.60914954451727 20.392845268966973,137.67723917813635 19.745993749584336,137.79639603697038 19.065097413393357,138.00066493782768 18.36717866879458,138.27302347230528 17.72032714941194,138.5794268235912 16.51173615267114,139.2773455681888 13.294500964160905,141.33705698517193 12.477425360729312,141.79666201210145 11.694394574108477,142.18817740541186 10.758162111844069,142.54564798191396 9.890019283198756,142.7839616995808 8.953786820931928,142.93716337522437 8.221823259524811,142.9712081920339 7.2175011636413045,142.88609615000942 5.991887758495124,142.6307600239372 4.8173415785626625,142.23924463062679 3.234257596915614,141.54132588602923 2.008644191769434,140.84340714143167 1.2426358135515594,140.2646452556681 0.8681428286453118,139.89015227076186 0.5787618857635412,139.5497041026664 0.3064033512871498,139.10712148414103 0.17022408404895412,138.8007181328539 0.03404481681075844,138.32409069751898 0,137.79639603697038 0.05106722521613765,137.20061174280147 0.20426890085729352,136.72398430746657 0.42556021011996625,136.24735687213166 0.7830307866232538,135.68561739477352 1.0894341379079844,135.31112440986726 1.6681960236715256,134.7493849325091 2.638473302746694,134.017421371102 3.9321763415119717,133.23439058447994 9.719795199149802,130.20440188842284 11.0645654631288,129.43839351020617 12.188044417847541,128.7404747656086 13.379613006185382,127.85530952855912 14.247755834830695,127.07227874193707 14.928652171021673,126.25520313850669 15.235055522308823,125.76155329476641 15.405279606357777,125.40408271826554 15.55848128200135,124.94447769133603 15.60954850721507,124.63807434004887 15.59252609880969,124.00824522907041 15.422302014763156,123.4124609349027 15.081853846665247,122.83369904913916 14.639271228139902,122.30600438858933 14.043486933973401,121.7953321364449 13.379613006185382,121.33572710951537 10.9964758295097,119.85477757829577 10.213445042888866,119.24197087572267 9.583615931911606,118.64618658155375 8.987831637742687,117.8801782033383 8.59631624443106,117.11416982512164 8.375024935168387,116.28007181328466 8.306935301549288,115.41192898463935 8.426092160384524,114.06715872065915 8.749517920074634,112.31385065496315 9.106988496575502,111.10525965822113 9.532548706695469,110.10093756233762 10.060243367245292,109.19874991688276 10.741139703438689,108.2965622714279 11.62630494048938,107.29224017554318 13.703038765875492,105.11337189972721 14.298823060044413,104.39843074672548 14.741405678569759,103.80264645255656 15.183988297095103,103.03663807433989 15.456346831571496,102.38978655495725 15.62657091562045,101.55568854312149 15.64359332402583,100.85776979852393 16.392579293835905,100.77265775649946 16.85218432076663,100.806702573309 17.17561008045916,100.87479220692809 17.550103065362986,101.06203869938122 18.265044218367144,101.62377817674059 18.588469978057255,101.79400226078833 18.860828512533644,101.86209189440743 19.52470244032166,101.91315911962236 21.68654830773467,101.99827116164563 22.912161712880852,102.10040561207549 23.405811556619916,102.2195624709083 24.869738679434146,102.7642795398623 25.68681428286574,102.95152603231541 26.776248420773726,103.05366048274406 27.88270496708709,103.03663807433989 28.325287585612433,103.07068289114945 30.078595651308436,103.49624310126941 31.678702041360864,103.68348959372254 32.580889686814515,103.73455681893746 33.6703238247225,103.90478090298521 34.01077199282041,103.88775849458104 34.19801848527232,103.78562404415118 34.947004455084816,102.91748121550587 35.372564665204784,102.560010639005 35.78110246691937,102.2876521045274 36.30879712746919,102.11742802047965 36.61520047875634,102.10040561207549 36.921603830043495,102.13445042888503 37.500365715807035,102.35574173814771 38.28339650242787,102.84939158188678 38.62384467052336,102.9685484407208 39.54305472438481,103.18983974998348 40.05372697652925,103.47922069286524 40.66653367910113,103.93882571979475 41.55169891615182,104.73887891482097 42.23259525234522,105.57297692665674 42.53899860363237,105.87938027794388 42.96455881375233,106.15173881242028 43.61141033313498,106.50920938892236 44.00292572644418,106.8156127402083 44.854046146686535,107.78589001928346 45.44983044085546,108.2965622714279 46.726511071215356,109.06257064964457 47.37336259059799,109.5051532681687 49.19476028991309,111.02014761619786 49.82458940089277,111.36059578429335 50.658687412727325,111.71806636079543 51.509807832967255,111.8712680364378 52.480085112042424,111.90531285324735 53.82485537602384,111.78615599441453 54.91428951393183,111.61593191036557 55.25473768202732,111.61593191036557 55.663275483741906,111.71806636079543 56.718664804841545,112.24576102134405 57.51871799986776,112.36491788017807 58.19961433606116,112.51811955582164 58.420905645323835,112.50109714741626 58.591129729370365,112.41598510539178 59.22095884035004,111.92233526165272 59.42522774120734,111.85424562803362 59.595451825253875,111.83722321962824 59.884832768135645,111.92233526165272 60.123146485803694,112.05851452889092 60.49763947070994,112.58620918944074 60.63381873794814,112.70536604827477 60.821065230402475,112.79047809029804 61.00831172285439,112.79047809029804 61.144490990092585,112.70536604827477 61.17853580690334,112.56918678103537 61.07640135647348,111.99042489527183 61.127468581687204,111.51379745993692 61.416849524568974,110.90099075736384 61.825387326285984,110.28818405479075 62.16583549438147,109.9136910698845 62.59139570450144,109.59026531019317 63.06802313983754,109.4370636345496 63.42549371633841,109.42004122614544 63.7659418844339,109.47110845135916 64.73621916350906,109.79453421105048 65.33200345767798,109.93071347828987 66.50654963761045,110.117959970743 67.78323026797035,110.22009442117165 68.34496974532851,110.35627368840984 68.73648513864013,110.62863222288745 69.87698650176183,111.78615599441453 70.33659152869257,112.19469379613032 70.9834430480752,112.63727641465447 71.936697918745,113.16497107520428 73.19635614070192,113.74373296096782 74.86455216437345,114.3054724383272 75.68162776780505,114.45867411396956 76.94128598975956,114.56080856439942 77.11151007380852,114.52676374758987 77.17959970742761,114.45867411396956 77.17959970742761,113.6926657357529 77.09448766540314,113.14794866679891 76.78808431411841,112.41598510539178 76.49870337123423,111.97340248686766 76.12421038633039,111.54784227674648 75.56247090896981,111.07121484141159 74.60921603830002,110.40734091362478 74.25174546179916,110.06689274552808 73.89427488529829,109.64133253540811 73.63893875922727,109.26683955050186 73.50275949198908,108.85830174878606 73.50275949198908,108.61998803111922 73.65596116763024,108.364651905047 74.21770064499081,107.92206928652166 75.68162776780505,107.13903849989961 76.87319635614047,106.3389853048734 77.50302546712015,105.99853713677791 78.96695258993438,105.45382006782391 80.66919343041424,105.01123744929858 81.17986568255868,104.77292373163051 81.5884034842757,104.48354278874875 82.03098610280104,104.1090498038425 83.25659950794721,102.67916749783903 83.4778908172099,102.4919210053859 83.8013165769,102.33871932974233 83.95451825254358,102.32169692133816 85.48653500897692,104.7218565064168Z"/>
  </g>
</svg>