<?xml version="1.0" encoding="UTF-8" standalone="no"?>
<svg viewBox="0 0 256 181.49173588388203" xmlns="http://www.w3.org/2000/svg">
  <style>
    g.zone {
      fill: lightgray;
      stroke-width: 2;
      stroke-linecap: square;
      stroke-linejoin: bevel;
      stroke-miterlimit: 3;
      stroke-opacity: 0.8;
      stroke: black;
      fill-opacity: 0.3;
    }
  </style>
  <g class="zone" id="zone">
    <path d="M207.52344995385462,135.85032301367525 206.3850994210937,135.87180132561488 205.8910982464974,135.95771457337037 205.4185753838407,136.1080627569417 204.4305730346511,136.773890427049 203.20630925413167,137.99815420756693 202.6263948317829,138.81433006124706 202.06795872137073,139.8452890343144 201.93908884973598,140.40372514472656 202.06795872137073,141.43468411779543 201.9605671616756,141.97164191626797 201.6598707945299,142.42268646698503 201.14439130799698,142.89520932964172 200.54299857370555,143.32477556842065 199.94160583941718,143.62547193556483 197.92264451715872,144.24834298179286 197.02055541572463,144.61347428475443 195.7318566993893,145.30078026680135 193.86324356070222,145.90217300108975 193.6699387532516,146.00956456078487 193.45515563386135,146.20286936823547 193.3692423861059,146.52504404731928 193.5410688816199,147.36269821293754 193.60550381743576,148.84470173672193 193.71289537713088,149.4890510948896 193.94915680845767,150.004530581424 194.59350616662533,150.84218474704227 194.87272422183142,151.33618592163705 195.98959644265577,154.06393153788053 196.35472774561734,155.2452386945207 196.4191626814332,155.86810974075027 196.3332494336777,156.64132897055114 196.09698800235088,157.24272170484105 195.79629163520516,157.60785300780262 193.4336773219248,160.20672875241135 193.0900243308998,160.89403473445674 192.66045809212238,162.05386357915881 192.5745448443669,162.3975165701823 192.53158822049068,163.23517073579902 192.74637133987787,165.31856699387484 192.83228458763335,167.61674637133936 192.93967614732847,168.432922225018 193.2403725144742,169.89344743686578 193.86324356070222,171.65466901585626 192.55306653242727,171.95536538300198 190.7274100176194,172.49232318147452 188.21444752076465,173.69510865005432 187.22644517157505,174.0602399530159 186.68948737310254,174.10319657689365 186.08809463881414,173.95284839332078 184.5846128030886,173.28702072321502 182.41530329725882,172.06275694269556 181.19103951673935,171.6761473277959 179.8593841765248,171.16066784126147 179.12912157060165,171.074754593506 176.50876751405482,171.31101602483432 174.57571943955185,171.6761473277959 172.32049668596355,171.91240875912422 171.03179796962823,172.12719187851295 170.00083899656244,172.49232318147452 169.24909807869966,172.83597617249796 168.26109572950702,173.52328215454338 167.5523114355235,174.21058813658877 167.23013675644123,174.4468495679171 166.84352714154002,174.61867606342807 166.1562211594931,174.72606762312165 165.31856699387484,174.68311099924392 164.82456581928156,174.5542411276107 164.39499958050416,174.38241463209974 163.77212853427307,173.93137008138268 163.0848225522292,173.0507592918867 162.82708280896276,172.83597617249796 162.26864669855058,172.55675811729188 161.55986240456403,172.40640993371903 160.63629499119028,172.4708448695364 158.10185418239894,172.9863243560693 157.11385183320937,173.0722376038248 156.53393741085756,173.00780266800894 155.43854350197284,172.70710630086322 154.7082808960497,172.6641496769855 153.1188858125687,172.68562798892512 151.83018709623337,172.51380149341415 149.7897474620353,172.06275694269556 149.05948485611216,172.01980031881783 148.26478731437317,172.12719187851295 147.25530665324393,172.3849316217794 145.15043208323002,173.28702072321502 144.6564309086337,173.458847218726 143.49660206393315,173.6521520261766 142.20790334759783,173.7810218978098 141.82129373269663,173.73806527393208 141.4776407416747,173.60919540229884 140.44668176860583,172.87893279637572 138.98615655675957,172.2775400620858 137.48267472103402,171.46136420840566 136.0436278211274,170.9244064099331 135.63553989428655,170.68814497860478 135.27040859132498,170.25857873982736 134.7764074167317,169.39944626226946 134.32536286601464,168.8410101518573 132.9937075258001,167.72413793103448 131.79092205722026,166.39248259082143 131.03918113935748,165.79108985653153 130.43778840506909,165.4903934893858 129.79343904690145,165.23265374611935 126.7864753754534,164.45943451631848 125.66960315462907,164.0943032133569 124.87490561288703,163.7076935984557 123.54325027267551,162.78412618508196 123.09220572195845,162.54786475375363 122.51229129960666,162.44047319406002 120.68663478479881,162.4189948821204 118.47436865508976,162.29012501048717 116.71314707609777,162.03238526722072 114.97340380904541,162.09682020303657 111.75165701820714,162.35455994630453 111.2146992197346,162.35455994630453 110.78513298095719,162.26864669854754 110.18374024666575,161.98942864334296 109.79713063176455,161.55986240456403 109.60382582431394,161.17325278966283 108.98095477808592,159.17576977934402 108.76617165869874,158.83211678832055 108.57286685124814,158.70324691668733 108.33660541991827,158.70324691668733 108.03590905277255,158.7676818525047 106.16729591408848,159.4764661464882 105.65181642755253,159.71272757781657 104.57790083060746,160.33559862404456 104.19129121570626,160.48594680761744 103.52546354560202,160.5503817434348 103.18181055457704,160.48594680761744 102.79520093967584,160.3570769359842 102.27972145314294,160.0778588807781 102.75224431579962,158.93950834801566 102.75224431579962,158.61733366893185 102.00050339793685,156.98498196157308 101.85015521436551,156.12584948401673 101.65685040691491,155.84663142881064 101.27024079201371,155.48150012584907 101.11989260844237,155.6318483094219 100.43258662639546,156.8131554660621 100.28223844282412,157.2212433929014 100.08893363537352,158.05889755851967 99.7882372682278,158.35959392566386 99.48754090108208,158.46698548535898 97.98405906535959,158.59585535699222 97.23231814749683,158.72472522862697 96.56649047738954,158.93950834801566 95.38518332074935,159.4549878345501 93.96761473277928,159.82011913751168 92.55004614481227,159.90603238526717 91.51908717174342,159.84159744944978 89.56456078530083,159.2831613390376 87.09455491232532,158.74620354056506 85.11855021394615,158.14481080627516 84.53863579159434,158.05889755851967 84.10906955281693,158.12333249433706 83.87280812148705,158.25220236597028 83.67950331403645,158.44550717342088 83.12106720362429,159.43350952261048 82.60558771709138,160.01342394496075 81.68202030371765,160.57186005537292 80.15706015605552,161.28064434935794 79.79192885309395,161.58134071650213 79.62010235758298,161.96795033140333 79.38384092625311,163.25664904773865 79.1475794949263,164.02986827753952 78.80392650390131,164.56682607601206 78.33140364124768,164.93195737897517 76.31244231898923,165.70517660877604 75.88287608020876,165.9629163520425 74.93783035489538,166.71465726990527 74.07869787734055,167.18718013256043 71.67312694018091,167.98187767430093 70.66364627905168,168.432922225018 68.66616326873287,169.48535951002495 68.17216209413655,169.85049081298806 67.39894286433415,170.53779679503344 66.96937662555672,170.77405822636027 66.30354895544944,170.88144978605538 64.60676231227635,170.83849316217763 63.12475878849044,171.09623290544408 61.53536370500941,171.71910395167362 59.70970719020157,172.14867019045258 57.77665911569861,172.90041110831382 56.38056883966818,173.30849903515312 55.73621948150053,173.5877170903592 54.68378219649509,174.167631512711 53.996476214448165,174.40389294403784 53.373605168220145,174.4468495679171 50.53846799228308,174.31797969628235 48.6913331655356,173.9743267052604 47.961070559612466,173.90989176944305 46.672371843277155,173.95284839332078 44.26680090611751,174.14615320077138 43.257320244988286,174.2535447604665 42.54853595100479,174.40389294403784 40.20739994966099,175.30598204547346 39.11200604077628,175.6281567245573 37.350784461784286,175.86441815588563 35.67547613054778,176.18659283496947 34.32234247839662,176.25102777078533 33.6994714321686,176.16511452302984 32.86181726655035,175.95033140364112 32.45372933971256,175.79998322006827 32.045641412871724,175.5637217887399 31.5516402382754,175.17711217384024 31.057639063682135,174.70458931118355 28.974242805604785,172.42788824565713 28.265458511621283,171.91240875912422 27.707022401209112,171.6761473277959 26.847889923651223,171.50432083228492 25.988757446096386,171.52579914422304 24.549710546186695,171.65466901585626 22.874402214953236,171.93388707106234 22.03674804933498,171.95536538300198 21.177615571777093,171.84797382330686 19.37343736890888,171.46136420840566 18.75056632268086,171.43988589646756 18.020303716757724,171.52579914422304 17.31151942277117,171.6761473277959 16.83899656011448,171.8694521352465 16.38795200939743,172.21310512626843 16.108733954191344,172.55675811729188 15.120731605001756,174.59719775148844 14.32603406326277,176.100679587214 13.789076264790232,177.3034650557923 12.929943787232343,178.65659870794497 12.564812484270774,179.32242637805072 12.242637805185423,180.2889504153022 12.006376373858606,181.49173588388203 11.2331571440562,180.9547780854095 10.094806611295278,180.2889504153022 6.894538132396643,178.65659870794497 6.056883966778387,178.11964090947242 5.262186425036348,177.51824817518252 4.488967195236995,176.70207232150236 3.866096149005923,175.79998322006827 3.4150515982888705,174.85493749475643 3.157311855022419,173.82397852168756 3.0928769192065695,172.87893279637572 3.1358335430827853,171.78353888748947 3.3291383505333867,170.6022317308493 3.9949660206406743,167.0583102609272 4.102357580335792,165.91995972816474 4.102357580335792,164.93195737897517 3.9520093967644585,163.64325866263985 3.4150515982888705,160.87255642251864 3.243225102777903,159.4764661464882 3.157311855022419,157.6937662555581 3.0713986072669357,152.7322761976675 2.964007047571818,151.05696786643097 2.727745616245001,149.12391979192802 2.47000587297855,147.66339458008173 2.169309505832831,146.33173923986868 0.5799144223518041,140.36076852084884 0.27921805520608506,138.9431999328803 0.10739155969511767,137.654501216545 0,135.6999748301024 0.08591324775853594,133.89579662723418 0.322174679085353,132.22048829599768 0.7087842939865557,130.58813658864042 1.2242637805194578,129.02021981709905 1.7182649551157783,127.79595603657958 2.47000587297855,126.27099588891593 3.1358335430827853,125.15412366809312 3.844617837069341,124.166121318902 4.510445507173577,123.41438040104076 5.197751489220498,122.81298766675084 5.970970719022904,122.29750818021641 6.57236345331129,121.99681181307069 7.173756187599675,121.80350700562163 7.818105545767329,121.65315882204877 8.505411527814251,121.58872388623139 9.729675308333709,121.61020219817102 12.41446430069639,121.93237687725485 13.72464132897133,122.03976843694997 14.927426797551155,121.99681181307069 15.893950834804162,121.86794194143746 16.967866431749233,121.54576726235365 17.95586878093882,121.05176608775885 18.75056632268086,120.42889504153084 19.30900243308998,119.65567581172843 19.6741337360546,118.90393489386717 19.888916855441785,118.10923735212667 20.06074335095275,116.90645188354684 20.125178286771654,115.76810135078439 20.10369997483202,114.11427133148752 19.9963084151369,112.56783287188576 19.37343736890888,108.0788656766503 19.201610873397915,106.23173084990282 19.2875241211534,104.29868277539985 19.459350616664366,103.2462454903929 19.631177112175333,102.51598288446975 19.910395167381417,101.65685040691339 20.23256984646372,100.84067455323476 21.048745700145393,99.29423609363148 22.03674804933498,97.85518919372484 24.76449366557693,94.50457253125182 25.494756271500066,93.36622199848937 26.053192381912236,92.22787146572692 26.461280308753075,91.15395586878033 26.783454987835373,89.7363872808118 26.93380317140976,88.51212350029387 27.084151354981092,85.84881281986776 27.213021226615844,84.43124423189923 27.44928265794266,83.12106720362429 27.835892272843864,81.68202030371611 28.523198254887735,79.87784210084791 29.382330732445624,78.1810554576733 30.391811393574844,76.67757362194774 31.444248678583335,75.41035321755207 32.647034147160106,74.31495930866737 33.39877506502288,73.7780015101933 34.17199429482528,73.30547864753815 35.8473026260618,72.51078110579763 38.83278798557019,71.41538719691293 40.65844450037804,70.83547277456113 42.67740582263649,70.29851497608858 44.48158402550774,69.95486198506512 48.884637972986205,69.22459937914199 51.18281735045073,68.70911989260908 52.36412450709093,68.36546690158562 54.12534608608292,67.7425958553576 58.829096400707094,65.83102609279275 60.869536034902126,65.10076348686961 63.31806359594104,64.41345750482422 65.80954778085616,63.89797801828979 69.54677405822734,63.33954190787762 73.54174007886802,62.93145398103831 102.6448527561045,60.89101434684176 118.56028190284525,59.51640238275097 121.22359258327134,59.38753251111621 123.32846715328527,59.36605419917811 125.60516821881016,59.430489134993955 129.40682943200025,59.64527225438419 130.65257152445935,59.64527225438419 131.8553569930361,59.55935900662871 132.69301115865437,59.34457588723847 133.63805688396772,58.957966272338794 134.21797130631953,58.657269905193075 136.19397600469873,57.433006124675146 137.52563134491328,56.78865676650749 138.90024330900408,56.35909052772855 140.4252034566662,56.144307408339834 141.69242386106188,56.1228290964002 142.8522527057655,56.25169896803496 144.16242973404044,56.487960399361775 146.95461028609822,57.1967446933468 148.6084403053951,57.47596274855289 150.02600889336517,57.583354308248005 151.7442738484779,57.49744106049099 153.01149425287358,57.282657941102286 154.55793271247836,56.767178454567855 155.86810974075027,56.1013507844621 158.50994210923977,54.55491232485881 159.8415974494513,53.86760634281342 161.28064434935794,53.28769192046314 164.7601308834657,52.04194982800557 166.07030791173761,51.46203540565529 166.90796207735585,51.053947478815985 168.2181391056308,50.21629331319773 169.42092457421063,49.163856028190764 169.9793606846228,48.43359342226763 170.47336185921606,47.574460944709735 170.7955365383014,46.650893531335996 170.92440640993618,45.9421092373525 170.96736303381238,45.34071650306258 170.8814497860569,44.13793103448276 170.62371004279046,43.12845037335354 170.2585787398289,42.2048829599798 169.65718600553745,41.08801073915546 168.90544508767468,40.03557345414849 168.23961741757043,39.21939760046987 166.6287440221498,37.63000251699037 163.53586710294627,34.98817014850238 162.2042117627317,33.720949744106704 160.95846967027563,32.38929440389366 160.18525044047323,31.379813742764433 159.36907458679462,30.069636714489494 158.76768185250623,28.737981374276444 158.3595939256654,27.32041278630791 158.2307240540337,26.59015018038477 158.12333249433857,25.516234583438173 158.12333249433857,24.635623793942177 158.18776743015442,23.561708196997106 158.68176860475074,19.824481919624407 158.76768185250623,18.600218139106477 158.7462035405666,17.74108566154859 158.6602902928111,16.645691752663883 158.01594093464345,12.242637805185423 157.8655927510721,10.266633106804719 157.8655927510721,8.956456078529778 157.9515059988276,8.097323600973414 158.25220236597028,6.4005369577987965 158.63881198087148,5.176273177280864 159.1328131554678,4.0379226445168905 159.75568420169583,2.942528735632184 160.37855524792383,2.1693095058313046 161.06586122997075,1.5464384596017586 162.03238526722072,0.9235674133737388 163.1707357999847,0.4510445507170524 164.35204295662487,0.1503481835728595 165.81256816847116,0 167.27309338031742,0 174.6401543753677,0.6443493581676538 175.73554828425242,0.859132477556363 176.5946807618103,1.1168722208243402 177.64711804681573,1.5893950834810266 178.57068546018948,2.1907878177694124 179.10764325866506,2.8351371759370663 179.47277456162664,3.4365299102269784 179.7734709287693,4.080879268394632 179.96677573621992,4.854098498197037 180.18155885561015,6.550885141371656 180.3319070391815,10.438459602315687 180.50373353469243,12.285594429063163 180.868864837654,14.175685879688384 181.38434432418995,15.786559275107518 181.74947562715153,16.60273512878614 182.22199848980821,17.41891098246476 182.7804346002204,18.17065190032753 183.31739239869293,18.75056632267781 183.94026344492096,19.266045809212237 184.4986995553331,19.609698800235698 185.20748384931662,19.888916855441785 185.8733115194239,20.06074335095275 186.81835724473729,20.146656598708233 187.84931621780308,20.039265039013117 189.0091450625067,19.71709035992929 190.1045389713914,19.223089185334498 191.02810638476512,18.643174762984216 191.86576055038338,17.998825404816564 192.5745448443669,17.354476046648912 194.27133148754305,15.636211091534658 195.10898565315824,14.927426797549629 196.05403137847162,14.34751237519935 196.93464216796914,13.982381072237782 197.87968789327945,13.74611964090944 198.9965601141038,13.59577145733658 203.59291886903287,13.423944961825612 205.54744525547545,13.23064015437501 207.3731017702833,12.865508851413441 208.2751908717174,12.607769108146991 208.96249685376432,12.328551052940906 209.9290208910143,11.834549878346111 210.8955449282673,11.104287272422974 211.64728584613005,10.395502978437944 213.45146404899828,8.398019968117607 214.61129289369882,7.367060995050276 216.0718181055451,6.422015269736904 217.01686383085848,5.928014095142109 217.87599630841635,5.562882792180541 219.87347931873518,4.8970551220747796 221.82800570517776,4.403053947478459 224.87792600050506,3.844617837067815 227.6486282406263,3.500964846044354 228.89437033308232,3.458008222166612 229.79645943451644,3.47948653410472 230.89185334340112,3.5868780937998377 231.75098582095902,3.715747965433063 233.55516402382725,4.209749140029384 235.61708196996494,5.00444668176837 237.6360432922234,5.949492407081744 241.93170568000673,8.183236848728898 244.10101518583957,9.214195821797755 246.57102105881506,10.288111418742826 250.32972564812587,11.770114942528735 252.02651229129896,12.564812484269249 253.31521100763428,13.380988337947871 254.21730010907143,14.132729255810641 254.6253880359092,14.605252118465803 254.94756271499458,15.05629666918438 255.31269401795612,15.850994210923368 255.50599882540672,16.753083312359 255.5274771373433,17.37595435858702 255.205302458261,18.514304891349468 254.75425790754397,19.588220488296066 253.57295075090377,21.628660122494143 250.69485695108744,25.838409262522003 249.55650641832347,27.70702240120759 248.8047655004607,29.21050423693313 246.74284755432603,33.742428056044815 243.735883882878,39.648963839248815 243.1559694605262,40.98061917946187 242.79083815756462,42.2048829599798 242.6834465978695,42.99958050172031 242.70492490980914,43.558016612132484 242.85527309338048,44.07349609866538 243.17744777246583,44.653410521017186 243.58553569930362,45.04002013591686 244.0151019380841,45.29775987918484 244.98162597533403,45.66289118214641 245.8192801409523,45.81323936571927 245.88371507676814,45.9635875492906 245.84075845289192,46.82272002684849 245.75484520513643,47.01602483429757 245.21788740666085,47.87515731185545 245.13197415890536,48.45507173420573 245.23936571860048,48.992029532678266 245.60449702156205,50.0874234415645 245.71188858125717,51.44055709371566 246.0555415722791,52.729255810050965 246.3132813155486,53.41656179209636 246.35623793942483,53.71725815924208 246.3347596274852,54.25421595771462 246.18441144391386,54.920043627821904 246.1414548200346,56.015437536706614 245.69041026931754,57.1967446933468 245.45414883799072,58.74318315294856 245.41119221411145,59.36605419917811 245.49710546186694,60.504404731940554 245.64745364544132,61.06284084235273 245.96962832452363,62.00788656766457 245.99110663646326,62.523366054199 245.69041026931754,64.39197919288459 245.5400620857462,64.7785888077858 244.98162597533403,65.83102609279275 244.3372766171664,67.8499874150512 244.22988505747125,68.6446849567917 244.46614648880114,70.83547277456113 244.31579830522674,71.52277875660651 243.90771037838897,72.72556422518635 243.52110076348777,73.52026176692685 243.28483933216094,74.33643762060548 243.09153452471034,74.72304723550668 242.64048997399328,75.30296165785695 241.67396593674027,76.2265290712307 241.26587800989944,76.89235674133799 240.9651816427568,77.73001090695472 240.8792683950013,78.52470844869522 240.9651816427568,79.14757949492477 241.1155298263281,79.66305898145768 241.54509606510553,80.71549626646464 241.86727074419088,81.29541068881645 242.55457672623476,81.91828173504446 243.69292725899874,82.51967446933438 244.1439718097158,82.8203708364801 244.5735380484932,83.18550213944167 244.83127779176272,83.5291551304636 244.98162597533403,83.98019968118065 244.8742344156389,84.6030707274102 244.89571272757854,84.94672371843212 245.47562714993035,86.3857706183403 245.69041026931754,87.35229465559178 245.69041026931754,87.73890427049298 245.3467572782956,89.69343065693405 245.153452470845,90.20891014346847 244.89571272757854,90.65995469418553 244.1439718097158,91.60500041949891 243.8647537545097,92.1204799060318 243.80031881869385,92.42117627317752 243.82179713063348,93.25883043879578 243.71440557093837,93.92465810890154 243.4781441396085,94.63344240288657 243.2633610202213,95.04153032972589 242.70492490980914,95.68587968789353 242.40422854266342,95.92214111922188 241.631009312861,96.39466398187704 240.90074670693787,97.1464048997398 240.60005033979522,97.38266633106815 238.47369745784164,98.62840842352573 237.74343485191852,98.95058310260954 237.39978186089658,99.18684453393789 237.20647705344598,99.42310596526471 237.0561288698716,99.68084570853269 236.75543250272892,100.75476130547928 236.56212769527832,101.09841429650122 236.862824062421,101.27024079201219 238.13004446681973,101.82867690242435 238.75291551304772,102.12937326957007 239.35430824733612,102.58041782028712 239.9127443577483,103.11737561875967 240.40674553234462,103.80468160080505 240.75039852336656,104.49198758285046 240.9651816427568,105.1363369410181 241.17996476214395,106.12433929020922 241.3947478815342,106.61834046480402 241.75987918449576,107.06938501552106 242.3612719187872,107.54190787817775 243.11301283664693,107.84260424532195 244.8742344156389,108.31512710797864 245.43267052605108,108.40104035573412 246.3132813155486,108.40104035573412 248.24632939005159,108.12182230052804 248.67589562882898,108.16477892440578 249.14841849148567,108.31512710797864 251.21033643762033,109.13130296165725 252.4346002181398,109.77565231982491 253.37964594345317,110.44147998993219 254.49651816427752,111.08582934809985 255.26973739407686,111.66574377045013 255.8711301283683,112.03087507341169 256,112.18122325698455 255.95704337612378,112.39600637637326 255.69930363285428,112.78261599127447 253.8092121822306,114.6941857538378 253.31521100763428,115.31705680006735 253.07894957630745,115.83253628660177 252.90712308079648,116.90645188354684 252.52051346589528,117.98036748049344 252.26277372262882,118.45289034315013 251.91912073160688,118.92541320580528 251.2962496853758,119.46237100427935 249.94311603322467,120.21411192214059 249.0625052437302,120.90141790418599 248.54702575719423,121.15915764745397 245.79780182901266,121.76055038174388 243.99362362614445,122.53376961154476 243.19892608440242,122.7700310428731 240.17048410101475,123.19959728165053 239.61204799060258,123.30698884134564 239.246916687641,123.43585871297887 238.77439382498736,123.75803339206269 237.65752160416304,124.68160080543643 236.3903011997643,125.15412366809312 235.91777833711066,125.39038509942147 234.97273261179728,126.07769108146685 234.39281818944548,126.59317056799976 234.02768688648393,127.10865005453418 233.85586039097296,127.6026512291305 233.42629415219554,130.00822216628862 233.4048158402559,131.14657269905106 233.27594596862116,131.51170400201264 232.95377128953885,132.0701401124248 232.889336353723,132.39231479150865 232.9108146656596,132.62857622283698 233.08264116117056,132.9507509019208 234.00620857454427,134.1105797466229 234.5002097491406,135.03414715999662 234.32838325362965,134.96971222417926 233.684033895462,134.54014598540184 233.19003272086567,134.28240624213387 232.58863998657728,134.08910143468327 232.00872556422547,134.02466649886742 230.41933048074446,134.06762312274515 228.14262941521955,133.87431831529454 226.51027770786231,133.87431831529454 225.62966691836783,133.98170987498966 224.10470677070268,134.3253628660116 222.73009480661187,134.45423273764482 221.8924406409936,134.66901585703508 221.29104790670524,134.9267556003015 220.58226361271866,135.33484352714083 219.33652152026264,136.21545431663682 217.61825656514992,137.01015185837733 216.15773135330363,137.93371927175107 214.33207483849273,138.5565903179791 213.6877254803251,138.68546018961231 213.06485443409707,138.72841681349007 212.27015689235807,138.6425035657346 211.56137259837456,138.38476382246813 210.38006544173132,137.5685879687895 208.8551052940692,136.73093380317124 208.36110411947288,136.32284587633194 207.9530161926351,135.91475794949264 207.52344995385462,135.85032301367525Z"/>
  </g>
</svg>