<?xml version="1.0" encoding="UTF-8" standalone="no"?>
<svg viewBox="0 0 256 126.98299414552598" xmlns="http://www.w3.org/2000/svg">
  <style>
    g.zone {
      fill: lightgray;
      stroke-width: 2;
      stroke-linecap: square;
      stroke-linejoin: bevel;
      stroke-miterlimit: 3;
      stroke-opacity: 0.8;
      stroke: black;
      fill-opacity: 0.3;
    }
  </style>
  <g class="zone" id="zone">
    <path d="M181.81209924728086,126.32283245051585 181.0984109283505,125.51993309172016 180.31335377752993,124.39587398940697 179.67103429049234,123.57513242263745 178.74323947588366,122.61165319208239 177.97602453303438,121.91580708112588 177.42291608586595,121.54112071368814 175.49595762475582,120.64901031502711 174.15779202676174,119.89963758015038 172.60551993309187,119.34652913298069 171.3565653749644,118.77557847783719 170.25034848062504,118.3652076944518 168.9657095065499,118.09757457485323 168.55533872316704,117.95483691106767 168.14496793978165,117.68720379146912 167.21717312517296,116.83077780875448 166.36074714245706,116.25982715361096 165.71842765542203,115.93866741009218 164.05910231391172,115.29634792305589 161.72177306941617,114.02955115695586 161.27571787008569,113.83328686925009 160.91887371062177,113.7619180373573 160.59771396710298,113.77976024532987 158.59938667410006,114.08307778087608 157.4396431558392,114.15444661276887 156.56537496515202,114.17228882074143 156.26205742960707,114.11876219682247 155.9765821020334,114.01170894898203 155.65542235851714,113.74407582938348 155.08447170337237,112.81628101477605 154.70978533593464,112.44159464733832 154.22804572065647,112.22748815165872 153.19319765820987,111.95985503206015 152.74714245887938,111.79927516030077 152.1048229718418,111.42458879286303 151.56955673264468,110.97853359353252 151.2127125731808,110.58600501812096 150.73097295790262,109.81879007527166 150.26707555059826,108.73041538890486 149.9280735991082,108.12378031781495 149.64259827153452,107.73125174240339 149.30359632004448,107.41009199888461 147.67995539447926,106.39308614441059 146.14552550878068,105.108447170338 145.59241706160972,104.71591859492644 144.93225536660088,104.39475885140766 143.62977418455446,104.05575689991632 141.38165597992554,104.26986339559592 141.0069696124878,104.39475885140766 140.3824923334266,104.84081405073944 139.9721215500412,105.00139392249756 138.09868971285002,105.37608028993655 135.90409813214256,105.5901867856149 135.5829383886238,105.60802899358747 135.29746306105267,105.55450236966851 134.40535266239164,105.16197379425695 133.92361304711346,105.05492054641778 133.45971563980913,105.09060496236417 132.33565653749594,105.3047114580425 130.74770002787838,105.12628937831056 130.48006690827856,105.16197379425695 130.1767493727336,105.3047114580425 129.83774742124353,105.66155561750769 129.51658767772477,106.26819068859758 129.07053247839426,107.35656537496565 128.62447727906374,108.7839420128238 128.46389740730433,109.08725954836876 128.2676331195973,109.33705045999476 127.91078896013339,109.65821020351227 127.51826038472183,109.90800111513828 125.69835517145212,110.81795372177312 125.14524672428117,111.15695567326446 124.66350710900299,111.56732645664859 123.8962921661537,112.37022581544427 122.68302202397389,113.2801784220804 122.23696682464339,113.74407582938348 121.9158070811246,114.26149986060803 121.63033175355348,114.97518817953711 121.16643434624913,116.75940897686043 120.98801226651592,117.29467521605756 119.59632004460543,120.36353498745473 119.18594926122005,120.89880122665184 118.7220518539157,121.2913298020634 118.29383886255901,121.48759408976919 117.66936158349529,121.6481739615273 116.93783105659365,121.63033175355474 116.29551156955608,121.48759408976919 114.1544466127676,120.4349038193475 112.5308056872024,119.77474212433864 111.60301087259371,119.13242263730109 110.81795372177312,118.34736548647923 109.81879007527166,117.79425703930828 109.4262614998601,117.50878171173716 107.03540563144561,115.38555896292122 106.69640367995554,115.18929467521671 105.91134652913242,114.83245051575155 105.37608028993529,114.51129077223277 104.89434067465712,114.06523557290225 104.64454976303112,113.65486478951813 104.50181209924556,113.119598550321 104.39475885140766,112.03122386395293 104.26986339559339,111.71006412043542 104.12712573180782,111.42458879286303 103.77028157234392,111.03206021745147 103.27069974909192,110.60384722609479 102.66406467800202,110.1934764427094 102.05742960691212,109.89015890716445 102.05742960691212,109.97936994703105 101.93253415110038,110.03289657095127 100.66573738500163,109.97936994703105 99.20267633119582,110.28268748257601 98.81014775578426,110.3183718985224 98.47114580429165,110.26484527460345 97.56119319765679,110.05073877892383 96.49066071926255,109.72957903540632 95.95539448006542,109.69389461945866 94.90270420964501,109.8009478672991 93.02927237245635,110.157792026763 92.90437691664208,110.28268748257601 92.9222191246159,110.46110956230795 93.42180094786538,111.03206021745147 93.58238081962476,111.33537775299769 93.58238081962476,111.60301087259498 93.51101198773199,111.92417061611376 92.77948146083035,113.2801784220804 91.83384443824784,114.56481739615299 90.95957624756063,115.58182325062701 90.79899637580125,115.88514078617196 90.53136325620142,116.61667131307486 90.37078338444203,116.84862001672704 90.15667688876368,117.04488430443281 89.67493727348551,117.33035963200521 88.12266517981564,117.95483691106767 86.85586841371435,118.543629774185 86.57039308614323,118.77557847783719 86.5525508781694,118.88263172567636 86.60607750209088,119.13242263730109 86.44549763033149,119.32868692500686 85.30359632004446,119.91747978812421 84.17953721772874,120.4349038193475 83.57290214663882,120.61332589908072 81.14636186227922,121.18427655422424 80.05798717591114,121.39838304990258 78.79119040981239,121.54112071368814 77.43518260384701,121.8444382492331 75.70448843044139,121.9336492890997 75.02648452745869,121.8444382492331 73.79537217730505,121.34485642598236 71.49372734875972,120.57764148313306 69.29913576804974,119.63200446055183 68.51407861722915,119.20379146919387 67.08670197936847,118.20462782269367 65.65932534151032,117.43741287984437 65.46306105380327,117.2411485921386 65.05269027042041,116.5988291051023 64.66016169500885,116.13493169779797 63.73236688040017,115.36771675494867 63.42904934485522,115.2249790911631 62.733203233898706,114.77892389183133 62.340674658487146,114.61834402007321 61.948146083075585,114.5291329802066 61.35935321995951,114.4934485642602 60.27097853359144,114.5291329802066 58.37970448842894,114.3685531084472 57.02369668246358,114.3685531084472 56.292166155561944,114.45776414831381 55.02536938946065,114.74323947588493 54.15110119877345,114.81460830777772 53.633677167547624,114.90381934764433 53.00919988848643,115.08224142737627 52.688040144967644,115.24282129913567 52.09924728184904,115.58182325062701 51.064399219402446,116.31335377752991 49.6370225815443,116.97351547254003 48.42375243936449,117.74073041538934 47.12127125731808,118.18678561471984 46.211318650683225,118.38304990242563 45.47978812377905,118.38304990242563 45.03373292444854,118.27599665458645 44.69473097295593,118.15110119877345 43.62419849456168,117.43741287984437 42.44661276832954,116.81293560078065 41.947030945077536,116.40256481739652 41.60802899358746,116.06356286590518 41.518817953720855,115.2249790911631 41.50097574574703,114.86813493169794 41.572344577639804,114.38639531642103 41.929188737106244,113.244494006134 42.30387510454398,112.5129634792311 42.946194591579,111.56732645664859 43.12461667131222,111.19264008921085 43.07109004739327,109.53331474770054 42.98187900752666,109.17647058823538 42.78561471981961,108.74825759687742 42.107610816836925,107.92751603010917 41.35823808196146,106.4822971842772 41.05492054641651,106.10761081683819 40.323390019514875,105.4652913298019 39.4848062447728,104.9478672985786 38.44995818232368,104.23417897964826 38.021745190966996,104.03791469194375 37.486478951769875,103.89517702815692 37.0047393364917,103.87733482018436 36.1483133537758,103.93086144410331 35.50599386674077,103.87733482018436 33.935879565094524,103.62754390855837 32.88318929467411,103.37775299693364 32.88318929467411,102.396431558406 32.7939782548075,101.86116531920887 32.61555617507682,101.43295232785093 32.09813214385099,100.61221076108141 32.06244772790587,100.45163088932202 32.151658767772474,99.93420685809872 32.4371340953436,99.2740451630886 32.5441873431815,98.86367437970448 32.562029551155334,98.32840814050735 32.49066071926255,97.90019514914941 31.991078896013086,96.97240033454199 31.366601616949353,96.09813214385225 30.831335377752232,95.61639252857535 29.814329523276935,94.93838862559267 29.618065235572423,94.65291329802028 29.511011987731987,94.22470030666359 29.511011987731987,93.86785614719842 29.850013939224596,93.10064120434913 30.046278226929108,92.4761639252854 30.313911346528936,92.17284638974044 31.188179537216133,91.47700027878393 31.259548369108913,91.24505157513303 31.812656816279866,90.56704767214907 31.955394480065426,90.17451909673879 31.937552272091597,90.04962364092579 31.866183440198817,89.90688597714022 30.956230833563964,88.94340674658515 30.74212433788562,88.5151937552272 30.54586005018111,87.85503206021707 30.40312238639301,87.55171452467212 29.582380819624767,86.55255087817066 29.475327571786863,86.30275996654593 29.403958739894083,85.91023139113436 29.189852244213206,85.33928073599085 29.118483412320423,84.9467521605793 29.189852244213206,84.44717033732982 29.296905492053643,84.16169500975744 29.671591859491375,83.60858656258776 29.88569835516972,83.14468915528342 29.939224979091204,82.80568720379208 29.850013939224596,82.50236966824585 29.56453861165094,82.16336771675451 29.154167828268083,81.89573459715595 28.565374965152007,81.69947030945143 27.42347365486245,81.48536381377183 26.816838583772544,81.32478394201243 25.175355450236054,80.57541120713697 24.693615834957882,80.23640925564563 24.122665179815638,79.50487872874272 23.355450236966345,78.77334820183982 23.194870365206953,78.68413716197321 23.212712573180784,78.64845274602682 23.141343741288,78.59492612210786 22.35628659046488,78.3629774184557 20.875383328685245,78.1131865068297 20.53638137719517,77.95260663507158 20.39364371340961,77.72065793141941 20.4114859213809,77.43518260384701 20.572065793140293,76.8642319487035 20.58990800111412,76.543072205186 20.51853916922134,76.2575968776136 19.983272930024217,74.99080011151358 19.840535266238657,74.41984945637006 19.804850850291,74.11653192082511 19.858377474212485,73.83105659325399 20.161695009757437,73.43852801784243 20.554223585166465,72.72483969891336 20.786172288818634,72.52857541120757 21.535545023696635,72.1717312517424 22.55255087816939,71.60078059659888 22.945079453580952,71.49372734875972 23.337608028992516,71.49372734875972 23.890716476163465,71.58293838862505 25.103986618343274,72.011151379983 25.300250906047786,72.02899358795683 25.460830777807175,71.97546696403661 25.7463061053783,71.79704488430467 26.834680791746372,70.85140786172342 27.191524951212813,70.3518260384727 27.369947030943496,70.01282408698135 27.512684694729057,69.49540005575679 27.459158070810105,69.04934485642627 26.745469751879764,66.49790911625367 26.120992472818568,64.90995260663486 25.817674937273615,64.39252857541156 25.300250906047786,63.91078896013339 24.925564538610054,63.69668246445505 23.676609980485125,63.12573180931154 22.2849177585721,62.39420128240863 21.517702815722807,61.91246166713173 20.893225536659074,61.395037635907165 20.53638137719517,61.002509060495605 20.21522163367639,60.556453861165096 18.12768330080685,57.41622525787514 17.788681349316775,57.05938109841124 16.539726791189313,55.935321996096775 15.344298856983334,54.4544187343184 14.969612489545602,53.91915249512128 14.559241706160211,53.2411485921386 14.18455533872248,52.4739336492893 13.096180652354406,50.51129077223276 12.953442988568845,50.02955115695586 12.864231948702235,49.173125174239956 12.650125453023893,48.72706997490945 12.311123501531283,48.33454139949789 11.436855310844086,47.71006412043542 10.883746863673135,47.15695567326447 10.277111792583232,46.42542514636157 10.009478672983402,45.85447449121805 9.759687761359938,44.694730972957196 9.670476721493328,43.927516030109174 10.152216336771499,43.23166991915266 10.616113744075841,42.33955952049037 10.812378031780355,41.62587120156129 10.883746863673135,40.82297184276561 10.848062447728012,40.14496793978292 10.705324783939915,39.34206858098724 10.473376080287744,38.64622247003073 10.152216336771499,37.91469194312782 9.79537217730506,37.290214664064095 9.385001393922206,36.70142180094802 8.332311123499254,35.43462503484799 7.279620853078838,34.41761918037397 4.014496793977151,31.58070811262896 3.2115974351801997,30.77780875383328 2.569277948145174,30.064120434904204 1.9269584611076127,29.22553666016213 1.4809032617770999,28.565374965152007 1.1062168943393678,27.851686646222934 0.7493727348754645,27.03094507945342 0.4995818232494645,26.263730136604128 0.3568441594639032,25.550041817675055 0.2676331195972935,24.90772233063876 0.21410649567834192,23.979927516030077 0.3033175355449516,22.35628659046488 0.7136883189278064,19.305269027041536 0.7315305269016354,17.895734597155947 0.6066350710899032,16.61109562308336 0.07136883189278063,12.953442988570112 0,11.686646222470086 0,10.972957903541012 0.12489545581173224,9.527739057707768 0.42821299135668384,8.136046835796009 0.8385837747420741,6.940618901588764 1.1954279342059773,6.22693058265969 1.463061053803271,5.763033175355348 1.9626428770552709,5.102871480345225 2.3908558684119545,4.674658488987274 2.9618065235567355,4.228603289656761 3.4613883468061997,3.9252857541118096 4.19291887371037,3.6041260105930286 4.817396152771567,3.4078617228885157 5.584611095620861,3.2472818511291255 6.369668246443983,3.1580708112625158 8.011151379983009,3.1580708112625158 13.93476442709648,3.6933370504596383 14.844717033731335,3.87175913019159 15.362141064954628,4.014496793978419 16.18288263172541,4.353498745469761 16.807359910786605,4.692500696961103 17.199888486198166,4.977976024532225 17.645943685531215,5.513242263729348 18.05631446891407,6.209088374685861 18.28826317256624,6.869250069695983 18.431000836351803,7.511569556732277 18.53805408419224,8.599944243100351 18.66294954000397,11.829383886255648 18.805687203789535,13.363813771954234 19.109004739334488,14.933928073599212 19.323111235015364,15.701143016448505 19.662113186505437,16.59325341510953 20.01895734596934,17.289099526066046 20.44717033732856,17.949261221076167 20.92890995260673,18.52021187621968 21.392807359908538,18.948424867577632 21.96375801505332,19.358795650961753 22.42765542235766,19.590744354613925 22.998606077499904,19.769166434345877 23.60524114858981,19.87621968218505 24.49735154725337,19.858377474212485 25.335935321995443,19.715639810426925 26.031781432951956,19.483691106774753 26.923891831612984,19.037635907442972 27.548369110676713,18.64510733203268 28.244215221633226,18.109841092835556 28.833008084749302,17.574574853638435 30.242542514636156,16.147198215779017 30.77780875383328,15.683300808474677 31.420128240868305,15.237245609144164 32.06244772790587,14.916085865625384 33.079453582378626,14.612768330080431 34.167828268746696,14.452188458321041 37.98606077501934,14.30945079453548 39.60970170058453,14.148870922776089 40.76944521884539,13.934764427097747 41.87566211318475,13.631446891552796 42.92835238360517,13.167549484248454 43.820462782268734,12.578756621131113 44.42709785335864,12.061332589907819 45.92584332310957,10.384165040423671 46.657373850013734,9.670476721494596 47.6565374965152,8.921103986617863 48.798438806802224,8.24310008363518 50.22581544466038,7.636465012545277 51.93866741009218,7.1011987733481545 54.293838862559014,6.583774742123593 56.809590186785236,6.1912461667133 58.611653192081114,6.030666294953909 60.12824086980587,6.066350710900299 61.55561750766656,6.298299414552471 62.304990242542026,6.476721494284423 63.250627265122,6.780039029829374 64.19626428770451,7.136883189294545 65.7306941734031,7.832729300251057 69.83440200724687,9.955952049065719 71.63646501254527,10.812378031781622 73.68831892946716,11.704488430442648 76.81070532478329,12.935600780596284 77.89908001115136,13.417340395873186 78.59492612210786,13.809868971284748 79.29077223306184,14.27376637858909 79.89740730415176,14.773348201839822 80.37914691942993,15.290772233063116 80.71814887092253,15.808196264287677 80.9500975745747,16.32562029551097 81.1106774463341,17.074993030387702 81.12851965430539,17.592417061610995 80.93225536660087,18.30610538054007 80.7003066629487,18.966267075550192 80.11151379983262,20.14385280178361 79.18371898522395,21.624756063563243 76.8999163646499,24.94340674658515 76.00780596598634,26.477836632283736 73.83105659325273,31.1881795372174 71.33314747700032,36.094786729858114 70.72651240591043,37.54000557569009 70.51240591022955,38.36074714245834 70.45887928631059,39.03875104544229 70.5480903261772,39.645386116532194 70.78003902982937,40.127125731809095 70.95846110956259,40.35907443546127 71.20825202118606,40.57318093113961 71.76136046835701,40.87649846668456 72.58210203512526,41.14413158628312 73.17089489824386,41.21550041817717 73.77752996933377,41.14413158628312 74.4198494563688,41.001393922497556 75.15137998327296,40.76944521884539 75.52606635071069,40.57318093113961 76.32896570950511,40.05575689991631 78.61276833007916,38.39643155840473 81.59241706160972,36.45163088932202 82.69863395595164,35.63088932255377 83.57290214663882,34.827989963758085 84.28659046556918,34.078617228881356 86.67744633398367,31.38444382492318 87.53387231669703,30.52801784220728 88.39029829941293,29.796487315305644 89.33593532199545,29.10064120434913 90.40646780038969,28.476163925285398 91.42347365486498,28.012266517981057 92.49400613325923,27.673264566489713 93.45748536381303,27.459158070811373 94.52801784220728,27.3521048229722 95.61639252857535,27.369947030944765 96.59771396710299,27.49484248675776 97.52550878171168,27.691106774463545 98.38193476442504,27.940897686088277 102.23585168664533,29.332589908001303 104.07359910788888,29.885698355170984 105.32255366601633,30.189015890715936 106.82129913576726,30.47449121828833 109.05157513242237,30.75996654585945 110.31837189852112,30.84917758572606 112.0133816559791,30.90270420964628 113.92249790911542,30.81349316977967 114.7610816838575,30.68859771396667 115.49261221075913,30.52801784220728 116.08140507387775,30.331753554502765 116.70588235294147,30.028436018957816 117.18762196821712,29.689434067465204 117.5979927516025,29.26122107610852 117.90131028714745,28.79732366880418 118.13325899079962,28.244215221633226 118.22247003066623,27.673264566489713 118.2046278226924,26.941734039586812 118.04404795093302,26.29941455255052 117.79425703930701,25.674937273488055 117.20546417619094,24.74714245887937 116.31335377752991,23.730136604404077 112.08475048787189,19.662113186506705 109.64036799553844,17.396152773905214 109.03373292444854,16.75383328686892 108.64120434903698,16.272093671592017 108.35572902146586,15.861722888206629 108.14162252578751,15.451352104822506 107.99888486200196,15.040981321438384 107.90967382213535,14.541399498187651 107.94535823808046,14.095344298857137 108.03456927794707,13.738500139391967 108.19514914970647,13.417340395873186 108.42709785335863,13.114022860328236 108.78394201282254,12.828547532757112 109.1764705882341,12.61444103707877 109.72957903540505,12.436018957345551 110.3005296905473,12.32896570950638 111.49595762475582,12.27543908558616 115.33203233900228,12.400334541399161 117.49093950376206,12.293281293559989 118.68636743797057,12.150543629774429 119.89963758015038,11.936437134094819 120.91664343462314,11.704488430442648 122.21912461666956,11.311959855032354 123.52160579871597,10.830220239754183 125.30582659604056,10.045163088932329 126.85809868971297,9.206579314190254 128.21410649567835,8.35015333147435 129.33816559799155,7.475885140785887 130.21243378868127,6.672985781990203 131.21159743518274,5.638137719542348 133.20992472818313,3.4792305547812967 134.17340395873947,2.569277948146442 135.27962085307882,1.7128519654305385 135.9933091720092,1.284638974072587 136.5999442430991,0.9813214385276354 137.36715918594837,0.6780039029826839 138.49121828826156,0.33900195149134194 139.47253972678922,0.14273766378556127 140.59659882910495,0.017842207972561277 141.7563423473658,0 142.68413716197193,0.0535266239189516 143.89740730415429,0.1784220797319516 145.28909952606477,0.4282129913579516 147.6442709785316,0.9813214385276354 150.33844438249105,1.6593253415103193 152.6757736269866,2.2838026205740514 154.17451909673753,2.783384443824784 155.3521048229722,3.265124059101687 156.60105938109714,3.889601338165419 157.760802899358,4.638974073040884 158.72428212991178,5.388346807917616 159.4914970727611,6.066350710900299 159.99107889601308,6.601616950097422 160.91887371062177,7.743518260384448 161.50766657373785,8.653470867019303 163.16699191524816,11.615277390577306 163.55952049065974,12.186228045720819 164.02341789796407,12.757178700864332 164.66573738500162,13.292444940061454 165.20100362419876,13.560078059660015 166.00390298299317,13.720657931419407 166.53916922219028,13.702815723445577 166.86032896570907,13.649289099525358 166.66406467800203,13.738500139391967 166.48564259827134,13.988291051017967 166.34290493448577,14.30945079453548 166.30722051853812,14.541399498187651 166.3785893504309,14.898243657652822 166.8781711736829,16.004460551993457 166.913855589628,16.860886534708094 166.9673822135495,17.164204070253046 167.25285754112062,17.877892389183387 167.80596598829158,18.71647616392546 168.39475885140766,19.87621968218505 168.66239197100495,20.26874825759661 168.9657095065499,20.625592417061778 169.34039587398763,20.964594368553122 169.8221354892658,21.303596320044463 171.3565653749644,22.249233342625708 171.82046278226872,22.65960412600983 172.7304153889036,23.587398940618513 173.0694173403962,23.837189852244514 173.51547253972672,24.104822971843078 175.42458879286303,24.979091162531542 176.7805965988284,25.514357401728663 177.6370225815443,25.728463897407003 179.58182325062575,26.067465848898348 180.2241427376633,26.263730136604128 180.79509339280554,26.58488988012291 182.06189015890683,27.61973794257076 182.6149986060778,27.958739894062106 184.36353498745473,28.54753275717818 186.20128240869826,29.546696403679643 186.98633955951885,29.903540563144816 187.59297463060875,30.099804850850596 189.02035126846943,30.385280178421716 189.53777529969273,30.54586005018111 189.9659882910494,30.81349316977967 191.00083635349853,31.687761360468134 191.92863116810722,32.63339838304938 192.48173961527564,32.93671591859433 192.8564259827159,33.04376916643477 193.30248118204642,33.09729579035372 195.06885977139717,33.04376916643477 196.74602732088132,33.11513799832755 197.22776693615697,33.00808475048838 197.92361304711346,32.66908279899577 198.3518260384727,32.52634513521021 198.65514357401764,32.45497630331743 198.9049344856411,32.47281851129126 199.11904098132197,32.5620295511566 199.85057150822362,33.09729579035372 200.70699749093953,33.57903540563189 201.49205464176012,34.132143852801576 201.84889880122654,34.274881516587136 202.86590465570185,34.5425146361857 203.74017284638904,35.00641204349004 204.63228324505008,35.345413994981385 206.05965988291075,35.96989127404512 206.32729300250804,36.1661555617509 207.05882352941222,36.95121271257275 207.32645664900951,37.14747700027853 207.61193197658062,37.290214664064095 208.16504042375158,37.41511011987709 209.18204627822686,37.39726791190453 209.62810147755738,37.46863674379731 212.89322553665906,38.7532757178699 213.66044047950837,38.94954000557568 215.55171452467087,39.27069974909446 216.15834959576077,39.46696403679897 215.65876777251128,42.37524393643675 215.42681906885912,43.42793420685844 215.0878171173665,44.462782269306295 214.60607750209087,45.44410370783393 214.01728463897481,46.31837189852239 213.28575411207063,47.19264008921086 212.48285475327623,47.959855032060155 210.50236966824713,49.77976024532986 209.64594368553122,50.689712851965986 209.30694173403862,51.117925843322666 208.9500975745747,51.68887649846618 208.7003066629487,52.25982715360969 208.5397267911893,52.75940897686043 208.41483133537758,53.58015054362994 208.4326735433514,54.50794535823862 208.5932534151108,55.32868692500687 208.93225536660088,56.20295511569533 209.36046835795756,56.95232785057207 209.7886813493168,57.48759408976919 210.5202118762184,58.14775578477804 211.26958461109388,58.629495400056214 212.32227488151682,58.95065514357373 213.48201839977767,59.111235015333115 214.641761918036,59.03986618344034 215.2305547811546,58.95065514357373 215.99776972400392,58.73654864789538 217.05045999442433,58.36186228045765 218.10315026484474,57.84443824923309 219.10231391134622,57.25564538611702 221.86785614719844,55.47142458879243 223.4914970727611,54.61499860607779 224.50850292723638,54.2046278226924 225.3827711179261,53.95483691106767 226.27488151658713,53.81209924728211 227.14914970727688,53.74073041538933 228.2196821856711,53.77641483133572 229.43295232785093,53.91915249512128 230.52132701421647,54.16894340674602 231.4848062447728,54.472260942290966 232.50181209924557,54.84694730972996 233.67939782548024,55.40005575689965 237.39057708391243,57.39838304990258 238.37189852244262,57.88012266517948 239.8528017842197,58.415388904376606 241.19096738221378,58.718706439921554 241.9581823250631,58.79007527181434 242.99303038750966,58.807917479788166 243.77808753833278,58.754390855867946 244.7415667688866,58.575968776135994 246.02620574295918,58.219124616670825 249.0415388904374,57.0772233063838 250.02286032896504,56.75606356286628 251.05770839141417,56.50627265124029 251.87844995818242,56.381377195427284 252.96682464455048,56.381377195427284 253.84109283523767,56.524114859214116 254.25146361862306,56.64901031502585 254.71536102592742,56.88095901867802 255.0543629774175,57.09506551435763 255.3398383049886,57.362698633956185 255.6609980485074,57.79091162531414 255.85726233621443,58.236966824644654 255.98215779202616,58.79007527181434 256,59.41455255087807 255.83942012824062,60.59213827711148 255.12573180931028,63.339838304989875 255.00083635349853,64.35684415946517 255.0722051853913,65.60579871759137 255.4825759687767,68.26428770560315 255.51826038472183,69.20992472818567 255.4647337608029,70.01282408698135 255.3398383049886,70.72651240591043 255.12573180931028,71.52941176470611 254.59046557011314,72.9032617786453 253.71619737942595,74.45553387231645 250.575968776136,79.37998327292972 249.77306941733903,80.55756899916314 247.9353219960955,83.0554781154168 247.1502648452749,84.26874825759661 246.63284081404908,85.17870086423146 246.25815444661134,85.96375801505458 245.04488430443155,88.81851129077215 244.68804014496766,89.44298856983588 244.33119598550374,89.96041260105918 243.76024533035897,90.56704767214907 243.04655701142863,91.13799832729259 242.35071090047464,91.60189573459694 239.79927516030077,93.0827989963753 238.88932255366592,93.68943406746648 238.05073877892383,94.34959576247533 236.96236409255576,95.3130749930304 236.01672706997326,96.27655422358548 235.17814329523117,97.25787566211311 234.4109283523819,98.29272372456097 233.94703094508006,99.07778087538281 233.5723445776398,99.86283802620595 233.25118483412356,100.66573738500163 233.03707833844268,101.48647895176987 232.84081405073817,102.5926958461105 232.75160301087155,105.16197379425695 232.66239197100495,105.76860886534685 232.57318093114088,106.17897964873224 232.41260105938147,106.62503484806275 232.1628101477555,107.0532478394207 231.5918594926107,107.73125174240339 230.89601338165673,108.28436018957308 230.03958739894082,108.7839420128238 227.30972957903373,110.03289657095127 226.11430164482775,110.69305826596013 224.9724003345407,111.54948424867602 222.63507109004772,113.61918037357174 221.67159185949137,114.29718427655442 221.17201003624191,114.58265960412555 220.70811262893756,114.77892389183133 220.1193197658215,114.93950376359072 219.67326456648846,114.99303038751094 219.03094507945343,114.95734597156455 218.38862559241585,114.81460830777772 217.65709506551423,114.4934485642602 216.9612489545577,114.06523557290225 216.3546138834678,113.58349595762535 215.71229439643025,112.95901867856162 213.9459158070795,110.8893225536659 213.39280735991107,110.3183718985224 212.5899080011141,109.6760524114861 211.66211318650545,109.17647058823538 211.14468915528215,108.98020630052959 210.44884304432563,108.7839420128238 209.73515472539782,108.65904655701208 208.98578199051983,108.62336214106568 208.21856704767052,108.64120434903825 207.45135210482124,108.73041538890486 206.880401449679,108.85531084471658 206.14887092277735,109.08725954836876 205.07833844438312,109.58684137161949 204.20407025369337,110.17563423473683 203.81154167828183,110.532478394202 203.34764427097747,111.03206021745147 203.04432673543252,111.46027320880943 202.81237803178036,111.9063284081412 202.598271536102,112.40591023139066 202.47337608029028,112.83412322274862 202.36632283244984,113.61918037357174 202.36632283244984,114.4934485642602 202.56258712015435,116.18845832171691 202.61611374407585,116.99135768051259 202.56258712015435,117.9726791190415 202.3306384165047,118.98968497351552 201.9737942570383,119.91747978812421 201.43852801784115,120.80959018678523 200.8497351547251,121.50543629774175 200.36799553944692,121.95149149707353 199.97546696403535,122.23696682464465 199.36883189294545,122.59381098410982 198.6373013660438,122.89712851965477 197.87008642319452,123.11123501533312 196.92444940061202,123.25397267911868 195.6219682185656,123.32534151101272 192.44605519933052,123.23613047114611 191.3398383049886,123.23613047114611 190.03735712294218,123.34318371898529 188.98466685252177,123.52160579871723 187.46807917479703,123.94981879007518 186.71870643992156,124.23529411764758 185.7195427934201,124.71703373292448 184.2743239475881,125.57345971564038 183.54279342068395,126.12656816281007 182.5257875662112,126.98299414552598 181.81209924728086,126.32283245051585Z"/>
  </g>
</svg>