<?xml version="1.0" encoding="UTF-8" standalone="no"?>
<svg viewBox="0 0 256 181.51321419582013" xmlns="http://www.w3.org/2000/svg">
  <style>
    g.zone {
      fill: lightgray;
      stroke-width: 2;
      stroke-linecap: square;
      stroke-linejoin: bevel;
      stroke-miterlimit: 3;
      stroke-opacity: 0.8;
      stroke: black;
      fill-opacity: 0.3;
    }
  </style>
  <g class="zone" id="zone">
    <path d="M123.50029364879624,131.6835304975236 122.9203792264475,132.30640154375317 121.99681181307375,133.4662303884537 121.80350700562315,133.87431831529454 121.867941941439,134.21797130631649 122.68411779511761,134.90527728836187 122.89890091450785,135.18449534356796 123.02777078613956,135.61406158234692 123.02777078613956,136.0006711972466 122.66263948317798,136.96719523449806 122.36194311603532,137.46119640909438 121.11620102357622,138.72841681349007 120.7725480325543,139.17946136420713 120.5792432251037,139.54459266716867 120.49332997734821,139.93120228206988 120.49332997734821,140.79033475962626 120.53628660122747,142.18642503565667 120.68663478479881,142.89520932964018 120.68663478479881,143.1959056967859 120.49332997734821,143.6684285594426 120.19263361020249,143.94764661464714 119.93489386693604,144.05503817434226 119.54828425203483,144.09799479822001 116.67019045222155,143.94764661464714 115.57479654333379,143.84025505495356 114.80157731353444,143.86173336689166 114.37201107475703,143.94764661464714 113.44844366138328,144.26982129373096 113.1047906703583,144.48460441312122 112.52487624800955,144.978605587716 112.13826663310834,145.1719103951666 111.17174259585533,145.4726067623108 109.71121738400906,145.70886819363915 108.98095477808592,145.94512962496748 108.63730178706399,146.11695612047845 107.52042956623964,146.86869703834122 107.04790670358297,147.06200184579183 106.79016696031651,147.10495846966955 106.33912240959945,147.0405235338522 105.43703330816535,146.6539139189525 104.68529239030258,146.50356573537965 104.04094303213493,146.50356573537965 103.37511536202764,146.63243560701287 102.81667925161547,146.89017535027932 101.67832871885454,147.6419162681421 100.66884805772533,148.50104874569845 100.28223844282412,149.10244147998839 99.76675895628817,150.43409682020143 99.44458427720586,151.07844617836906 99.4016276533266,151.33618592163705 99.50901921302172,151.63688228878124 100.00302038761804,152.36714489470438 100.81919624129665,153.87062673042993 101.14137092037896,154.81567245574178 101.27024079201371,155.46002181390944 100.43258662639546,156.8346337780002 100.28223844282412,157.24272170483954 100.11041194731315,157.9944626227023 100.02449869955767,158.16628911821326 99.89562882792292,158.31663730178613 99.48754090108208,158.4884637972971 97.98405906535959,158.6173336689303 97.23231814749683,158.74620354056506 96.56649047738954,158.9609866599538 95.38518332074935,159.4764661464882 94.03204966859819,159.82011913751015 92.24934977766655,159.92751069720526 91.26134742847697,159.82011913751015 89.56456078530083,159.3046396509757 87.09455491232532,158.7676818525032 84.9896803423114,158.14481080627516 84.53863579159434,158.08037587045777 84.10906955281693,158.14481080627516 83.87280812148705,158.27368067790837 83.67950331403645,158.46698548535898 83.12106720362429,159.45498783454858 82.60558771709138,160.03490225689885 81.68202030371765,160.59333836731102 80.15706015605552,161.30212266129604 79.79192885309395,161.60281902844025 79.62010235758298,161.98942864334145 79.38384092625311,163.27812735967674 79.21201443074214,163.87952009396668 78.91131806359643,164.45943451631695 78.61062169645376,164.76013088346266 77.92331571440684,165.12526218642424 76.78496518164286,165.5118718013239 76.31244231898923,165.72665492071414 75.88287608020876,165.9843946639806 74.93783035489538,166.73613558184337 74.07869787734055,167.20865844449852 71.67312694018091,168.00335598623903 70.66364627905168,168.4544005369561 68.66616326873287,169.50683782196305 68.17216209413655,169.87196912492615 67.39894286433415,170.55927510697154 66.96937662555672,170.79553653829836 66.30354895544944,170.90292809799348 64.60676231227635,170.85997147411575 63.12475878849044,171.11771121738218 61.53536370500941,171.74058226361174 59.70970719020157,172.17014850239067 57.77665911569861,172.92188942025192 56.38056883966818,173.32997734709124 55.73621948150053,173.60919540229733 54.68378219649509,174.18910982464914 53.996476214448165,174.42537125597593 53.373605168220145,174.46832787985522 50.53846799228308,174.33945800822048 48.6913331655356,173.99580501719853 47.961070559612466,173.93137008138115 46.672371843277155,173.9743267052589 44.26680090611751,174.1676315127095 43.257320244988286,174.27502307240462 42.54853595100479,174.42537125597593 40.20739994966099,175.32746035741158 39.11200604077628,175.6496350364954 37.350784461784286,175.88589646782376 35.67547613054778,176.20807114690757 34.64451715748197,176.29398439466306 34.043124423190534,176.25102777078533 33.07660038594058,176.0362446513951 32.45372933971256,175.82146153200637 32.045641412871724,175.58520010067804 31.5516402382754,175.19859048577834 31.057639063682135,174.72606762312165 28.974242805604785,172.44936655759525 28.265458511621283,171.93388707106234 27.51371759375851,171.65466901585626 26.847889923651223,171.52579914422304 25.988757446096386,171.54727745616114 22.2730094806618,171.9983220068782 21.392398691167326,171.9124087591227 19.37343736890888,171.48284252034375 18.535783203290627,171.48284252034375 17.74108566155164,171.59023408003887 17.161171239199835,171.76206057554984 16.645691752663883,171.9983220068782 16.302038761641946,172.320496685962 15.979864082559645,172.81449786055833 15.120731605001756,174.61867606342653 14.32603406326277,176.12215789915209 13.789076264790232,177.32494336773038 12.929943787232343,178.67807701988306 12.564812484270774,179.34390468998885 12.242637805185423,180.31042872724032 12.006376373858606,181.51321419582013 11.2331571440562,180.9762563973476 10.094806611295278,180.31042872724032 6.894538132396643,178.67807701988306 5.648796039937551,177.86190116620446 4.854098498198564,177.1531168722194 4.252705763907126,176.42285426629627 3.780182901250439,175.67111334843352 3.4150515982888705,174.87641580669452 3.221746790838269,174.1676315127095 3.1143552311462037,173.54476046648148 3.0928769192065695,172.34197499790164 3.243225102777903,171.0103196576886 3.9949660206406743,167.0797885728653 4.102357580335792,165.94143804010287 4.102357580335792,164.95343569091327 3.9520093967644585,163.66473697457795 3.4150515982888705,160.89403473445674 3.243225102777903,159.4979444584263 3.157311855022419,157.71524456749623 3.0713986072669357,152.75375450960559 2.964007047571818,151.07844617836906 2.727745616245001,149.1453981038661 2.47000587297855,147.68487289201983 2.169309505832831,146.35321755180678 0.5799144223518041,140.38224683278693 0.27921805520608506,138.9646782448184 0.04295662387926797,137.0960651061313 0,135.14153871969023 0.12886987163475166,133.50918701233147 0.4080879268408367,131.81240036915685 0.8161758536816734,130.2015269737377 1.2242637805194578,129.04169812903714 1.8900914506267457,127.43082473361801 2.47000587297855,126.29247420085404 3.1358335430827853,125.17560198003123 3.844617837069341,124.18759963084011 4.510445507173577,123.43585871297887 5.197751489220498,122.83446597868895 5.970970719022904,122.31898649215452 6.57236345331129,122.0182901250088 7.173756187599675,121.82498531755974 7.818105545767329,121.67463713398688 8.505411527814251,121.61020219816949 9.729675308333709,121.63168051010913 12.41446430069639,121.95385518919295 13.72464132897133,122.06124674888807 14.927426797551155,122.0182901250088 15.893950834804162,121.88942025337558 16.967866431749233,121.56724557429175 17.95586878093882,121.07324439969696 18.75056632268086,120.45037335346893 19.30900243308998,119.67715412366654 19.6741337360546,118.92541320580528 19.888916855441785,118.13071566406478 20.06074335095275,116.92793019548495 20.125178286771654,115.7895796627225 20.10369997483202,114.13574964342563 19.9963084151369,112.58931118382387 19.37343736890888,108.10034398858839 19.201610873397915,106.25320916184093 19.223089185334498,105.35112006040681 19.30900243308998,104.08389965601114 19.459350616664366,103.26772380233099 19.695612047991183,102.32267807701915 20.23256984646372,100.86215286517287 21.048745700145393,99.3157144055696 22.03674804933498,97.87666750566295 24.76449366557693,94.52605084318992 25.494756271500066,93.38770031042748 26.203540565486623,91.9271750985812 26.56867186844819,90.78882456581876 26.826411611714644,89.5430824733612 26.93380317140976,88.53360181223196 27.148586290796942,85.05411527812572 27.36336941018718,83.50767681852396 27.62110915345363,82.39080459769963 27.964762144475564,81.31688900075456 28.351371759376768,80.30740833962533 28.759459686217603,79.36236261431196 29.382330732445624,78.2025337696114 29.85485359510231,77.45079285174863 30.907290880107748,76.0332242637801 32.08859803674794,74.80896048326063 33.39877506502288,73.79947982213142 34.537125597786854,73.13365215202565 35.8473026260618,72.53225941773574 38.102525379647055,71.69460525211748 40.65844450037804,70.85695108649924 42.22636127191943,70.42738484772181 43.429146740499256,70.16964510445383 48.884637972986205,69.2460776910801 51.18281735045073,68.73059820454719 52.36412450709093,68.38694521352373 54.12534608608292,67.76407416729572 58.829096400707094,65.85250440473087 60.869536034902126,65.12224179880772 63.31806359594104,64.43493581676233 66.30354895544944,63.83354308247242 69.54677405822734,63.36102021981573 73.54174007886802,62.95293229297642 102.6448527561045,60.91249265877987 118.56028190284525,59.53788069468907 121.22359258327134,59.409010823054324 123.32846715328527,59.38753251111621 125.60516821881016,59.451967446932066 129.40682943200025,59.6667505663223 130.65257152445935,59.6667505663223 131.8553569930361,59.580837318566815 132.69301115865437,59.36605419917658 133.63805688396772,58.979444584276905 134.21797130631953,58.67874821713119 136.19397600469873,57.45448443661325 137.52563134491328,56.8101350784456 138.90024330900408,56.38056883966665 140.4252034566662,56.165785720277945 141.69242386106188,56.144307408338314 142.8522527057655,56.27317727997306 144.16242973404044,56.50943871129988 146.95461028609822,57.21822300528491 148.6084403053951,57.49744106049099 150.02600889336517,57.604832620186116 151.7442738484779,57.5189193724291 153.01149425287358,57.30413625304039 154.55793271247836,56.788656766505966 155.86810974075027,56.1228290964002 158.50994210923977,54.576390636796916 159.8415974494513,53.88908465475152 161.28064434935794,53.30917023240124 164.7601308834657,52.06342813994368 166.07030791173761,51.483513717593404 166.90796207735585,51.07542579075409 168.2181391056308,50.237771625135835 169.42092457421063,49.18533434012887 170.08675224431792,48.26176692675513 170.55927510697154,47.38115613725913 170.8814497860569,46.32871885225217 170.96736303381238,45.16889000755009 170.8814497860569,44.159409346420865 170.55927510697154,42.935145565902936 170.08675224431792,41.86122996895634 169.65718600553745,41.10948905109357 168.90544508767468,40.0570517660866 168.23961741757043,39.24087591240798 166.6287440221498,37.65148082892848 163.53586710294627,35.00964846044049 162.2042117627317,33.742428056044815 160.95846967027563,32.41077271583176 160.18525044047323,31.40129205470254 159.36907458679462,30.0911150264276 158.76768185250623,28.75945968621455 158.3595939256654,27.34189109824602 158.14481080627516,25.773974326704625 158.12333249433857,24.657102105880284 158.18776743015442,23.583186508935214 158.68176860475074,19.845960231562515 158.76768185250623,18.621696451044585 158.7462035405666,17.762563973486696 158.6602902928111,16.66717006460199 158.05889755851967,12.715160667840582 157.8870710630087,10.910982464970846 157.8655927510721,8.977934390467885 158.01594093464345,7.689235674132577 158.1662891182148,6.830103196576214 158.552898733116,5.4125346086076815 158.98246497189342,4.3600973236007174 159.519422770369,3.3506166624714946 160.22820706435252,2.3626143132803796 160.8940347344598,1.718264955112726 161.83908045977012,1.0524372850069643 162.67673462538838,0.6443493581676538 163.66473697457795,0.3221746790838269 165.0393489386718,0.08591324775548369 166.80057051766073,0 168.04631261011983,0.0644349358158497 174.14615320077138,0.6013927342899119 175.32746035741462,0.7732192298008793 176.35841933048044,1.0524372850069643 177.64711804681573,1.6108733954191345 178.50625052437363,2.1478311938916708 178.95729507509068,2.6633106804260986 179.47277456162664,3.458008222165086 179.7734709287693,4.10235758033274 179.96677573621992,4.875576810135145 180.18155885561015,6.572363453309763 180.3319070391815,10.459937914253794 180.50373353469243,12.307072741001273 180.868864837654,14.197164191626491 181.38434432418995,15.808037587045625 181.74947562715153,16.624213440724247 182.22199848980821,17.44038929440287 182.7804346002204,18.19213021226564 183.31739239869293,18.772044634615916 183.94026344492096,19.287524121150344 184.71348267472334,19.71709035992929 185.3793103448276,19.974830103195742 186.04513801493488,20.1251782867686 187.09757529994337,20.14665659870671 188.10705596107258,20.01778672707348 189.2024498699573,19.674133736051548 190.27636546690238,19.137175937577485 191.02810638476512,18.664653074922327 191.86576055038338,18.020303716754672 192.5745448443669,17.37595435858702 194.27133148754305,15.657689403472766 194.91568084571068,15.099253293060595 195.68890007551005,14.56229549458806 196.46211930531246,14.175685879686858 197.68638308582885,13.810554576725288 198.9965601141038,13.617249769274688 203.59291886903287,13.44542327376372 205.54744525547545,13.252118466313119 206.9435355315059,12.994378723046667 208.2751908717174,12.629247420085099 209.54241127611309,12.070811309672928 210.6163268730612,11.362027015687898 211.34658947898433,10.73915596945988 213.15076768185256,8.720194647201435 214.22468327880068,7.710713986072212 215.44894705931708,6.808624884638107 217.01686383085848,5.949492407080218 218.84252034566632,5.21922980115708 221.09774309925464,4.59635875492906 224.06175014682645,3.9949660206391484 227.1116704421507,3.565399781860204 228.89437033308232,3.47948653410472 229.79645943451644,3.500964846042828 230.89185334340112,3.6083564057379456 231.96576894034925,3.801661213188547 232.86785804178336,4.016444332577256 234.92977598791802,4.725228626562286 236.99169393405575,5.648796039936024 241.93170568000673,8.204715160667005 244.10101518583957,9.235674133735863 246.57102105881506,10.309589730680935 250.32972564812587,11.791593254466843 251.63990267640082,12.37150767681712 253.12190620018671,13.252118466313119 253.87364711804645,13.85351120060303 254.36764829264277,14.326034063259717 254.8616494672391,14.948905109487736 255.14086752244518,15.442906284084057 255.37712895377197,16.087255642251712 255.50599882540672,16.774561624297107 255.5274771373433,17.397432670525127 255.2912157060165,18.25656514808149 255.0119976508104,19.051262689822003 254.582431412033,19.953351791257635 253.83069049417023,21.242050507592943 250.437117207821,26.24649718936131 249.36320161087286,28.09363201610879 246.74284755432603,33.76390636798292 243.49962245154813,40.22887826159909 243.00562127695486,41.41018541823929 242.70492490980914,42.612970886819106 242.6834465978695,43.21436362110902 242.74788153368536,43.77279973151966 242.91970802919633,44.26680090611598 243.28483933216094,44.80375870458852 243.58553569930362,45.06149844785497 244.2513633694109,45.42662975081654 244.98162597533403,45.684369494084514 245.8192801409523,45.83471767765737 245.88371507676814,45.98506586122871 245.84075845289192,46.8441983387866 245.75484520513643,47.03750314623567 245.21788740666085,47.896635623793564 245.13197415890536,48.47655004614384 245.23936571860048,49.01350784461638 245.60449702156205,50.10890175350261 245.71188858125717,51.462035405653765 246.0555415722791,52.750734121989076 246.3132813155486,53.43804010403447 246.35623793942483,53.73873647118019 246.3347596274852,54.275694269652725 246.18441144391386,54.941521939760015 246.1414548200346,56.03691584864472 245.69041026931754,57.21822300528491 245.45414883799072,58.76466146488667 245.41119221411145,59.38753251111621 245.49710546186694,60.525883043878665 245.64745364544132,61.08431915429083 245.96962832452363,62.02936487960268 245.99110663646326,62.544844366137106 245.69041026931754,64.41345750482269 245.5400620857462,64.80006711972389 244.98162597533403,65.85250440473087 244.3372766171664,67.8714657269893 244.22988505747125,68.66616326872982 244.46614648880114,70.85695108649924 244.31579830522674,71.54425706854462 243.90771037838897,72.74704253712446 243.52110076348777,73.54174007886496 243.28483933216094,74.35791593254359 243.09153452471034,74.7445255474448 242.64048997399328,75.32443996979507 241.67396593674027,76.2480073831688 241.26587800989944,76.91383505327609 240.9651816427568,77.75148921889281 240.8792683950013,78.54618676063333 240.9651816427568,79.16905780686288 241.1155298263281,79.68453729339578 241.54509606510553,80.73697457840275 241.86727074419088,81.31688900075456 242.55457672623476,81.93976004698257 243.69292725899874,82.54115278127249 244.1439718097158,82.8418491484182 244.61649467237245,83.27141538719562 244.8742344156389,83.65802500209682 244.98162597533403,84.0446346169965 244.8742344156389,84.62454903934831 244.89571272757854,84.96820203037024 245.47562714993035,86.4072489302784 245.71188858125717,87.56707777498049 245.38971390217486,89.52160416142155 245.2608440305401,89.99412702407824 245.02458259921332,90.48812819867304 244.1439718097158,91.62647873143702 243.8647537545097,92.14195821796991 243.80031881869385,92.44265458511563 243.82179713063348,93.2803087507339 243.71440557093837,93.94613642083965 243.4781441396085,94.65492071482468 243.19892608440242,95.17040020135758 242.55457672623476,95.81474955952524 241.54509606510553,96.50205554157063 240.90074670693787,97.16788321167792 240.60005033979522,97.40414464300626 238.47369745784164,98.64988673546382 237.74343485191852,98.97206141454765 237.39978186089658,99.208322845876 237.20647705344598,99.44458427720282 237.0561288698716,99.7023240204708 236.75543250272892,100.77623961741739 236.56212769527832,101.11989260843933 236.862824062421,101.2917191039503 238.13004446681973,101.85015521436246 238.75291551304772,102.15085158150818 239.35430824733612,102.60189613222524 239.9127443577483,103.13885393069776 240.40674553234462,103.82615991274317 240.75039852336656,104.51346589478857 240.9651816427568,105.15781525295621 241.17996476214395,106.14581760214733 241.3947478815342,106.63981877674212 241.75987918449576,107.09086332745918 242.3612719187872,107.56338619011586 243.11301283664693,107.86408255726006 244.8742344156389,108.33660541991674 245.43267052605108,108.42251866767222 246.3132813155486,108.42251866767222 248.24632939005159,108.14330061246613 248.67589562882898,108.18625723634388 249.14841849148567,108.33660541991674 250.6304220152716,108.89504153032891 252.11242553905444,109.60382582431241 253.50851581508488,110.52739323768616 254.49651816427752,111.10730766003796 255.26973739407686,111.68722208238823 255.8711301283683,112.0523533853498 256,112.20270156892266 256,112.33157144055589 255.7852168806128,112.69670274351746 253.8092121822306,114.71566406577591 253.31521100763428,115.33853511200545 253.07894957630745,115.85401459853988 252.90712308079648,116.92793019548495 252.52051346589528,118.00184579243155 252.26277372262882,118.47436865508824 251.91912073160688,118.9468915177434 251.2962496853758,119.48384931621746 249.94311603322467,120.2355902340787 249.0625052437302,120.9228962161241 248.54702575719423,121.18063595939208 245.79780182901266,121.782028693682 243.99362362614445,122.55524792348287 243.19892608440242,122.79150935481121 240.17048410101475,123.22107559358862 239.61204799060258,123.32846715328375 239.246916687641,123.45733702491697 238.77439382498736,123.7795117040008 237.65752160416304,124.70307911737454 236.3903011997643,125.17560198003123 235.91777833711066,125.41186341135956 234.97273261179728,126.09916939340496 234.39281818944548,126.61464887993786 234.02768688648393,127.13012836647229 233.85586039097296,127.62412954106861 233.42629415219554,130.02970047822674 233.4048158402559,131.1680510109892 233.27594596862116,131.53318231395076 232.95377128953885,132.09161842436293 232.889336353723,132.41379310344675 232.9108146656596,132.65005453477508 233.08264116117056,132.97222921385892 234.00620857454427,134.132058058561 234.5002097491406,135.05562547193475 234.22099169393454,134.9267556003015 233.38333752831628,134.38979780182746 232.76046648208825,134.1535363704991 232.28794361943156,134.0676231227436 230.41933048074446,134.08910143468327 228.14262941521955,133.89579662723267 226.51027770786231,133.89579662723267 225.97331990938977,133.9387532511104 224.10470677070268,134.3468411779497 222.73009480661187,134.47571104958294 221.67765752160642,134.75492910478903 220.73261179629307,135.27040859132345 219.33652152026264,136.23693262857492 217.61825656514992,137.03163017031545 216.2651229129957,137.91224095981144 215.53486030707256,138.19145901501753 214.33207483849273,138.5780686299172 213.49442067287754,138.72841681349007 212.74267975501476,138.72841681349007 211.88354727745687,138.53511200603947 211.4325027267398,138.32032888665074 210.20823894622038,137.50415303297214 208.96249685376432,136.83832536286485 208.36110411947288,136.34432418827004 207.9530161926351,135.93623626143074 207.84562463293997,134.9267556003015 207.84562463293997,134.3253628660116 207.91005956875583,133.9172749391723 208.16779931202228,132.99370752579856 208.79067035825335,131.6620521855855 209.69275945968747,130.30891853343283 209.77867270744295,130.07265710210447 209.80015101938258,129.79343904689838 209.7357160835637,129.14908968873073 209.7142377716271,128.24700058729664 209.60684621193198,127.64560785300672 209.26319322091004,127.00125849483906 208.48997399110763,126.03473445758759 207.52344995385462,124.20907794277974 207.15831865089305,123.82246832787854 206.40657773303334,123.1781189697109 205.3970970719041,122.55524792348287 204.2802248510798,121.76055038174235 203.63587549291213,121.45985401459816 202.8411779511701,121.26654920714756 201.3806527393238,121.33098414296342 200.60743350952447,121.26654920714756 198.7173420588977,120.96585284000184 197.45012165450203,120.66515647285765 197.1494252873563,120.87993959224636 196.87020723215025,121.39541907878079 196.8057722963344,121.782028693682 196.84872892021366,122.53376961154324 196.74133736051854,122.8774226025667 196.54803255306794,123.11368403389504 195.9251615068399,123.60768520848983 195.60298682775456,123.92985988757366 195.0445507173424,124.6601224934968 194.52907123080948,125.5622115949309 194.05654836815282,125.81995133819888 192.23089185334496,126.27099588891593 191.54358587129803,126.57169225606012 191.1999328802761,126.89386693514395 190.4911485862926,127.77447772463995 189.8038426042457,128.39734877086948 189.54610286097923,128.71952344995333 189.35279805352863,129.2135246245481 189.35279805352863,129.60013423944932 189.5246245490396,130.15857034985996 190.01862572363592,131.31839919456203 190.04010403557555,131.64057387364588 189.9971474116963,131.9627485527297 189.84679922812495,132.28492323181354 189.46018961322375,132.67153284671474 188.9232318147512,132.97222921385892 187.89227284168234,133.38031714069822 187.65601141035555,133.50918701233147 187.4841849148415,133.68101350784394 187.37679335514946,133.9387532511104 187.39827166708602,134.28240624213387 187.4412282909653,134.58310260927806 187.69896803423174,135.3992784629567 187.69896803423174,135.67849651816277 187.63453309841591,136.04362782112432 187.50566322678114,136.3228458763304 187.16201023575923,136.73093380316973 186.7324439969818,136.9886735464377 186.2813994462617,137.16050004194867 185.01417904186602,137.56858796878797 184.1550465643112,137.76189277623857 183.3388707106295,137.8692843359337 182.47973823307467,137.91224095981144 181.55617081970092,137.91224095981144 180.58964678244791,137.82632771205596 180.20303716754978,137.8907626478718 177.99077103784072,138.87876499706292 176.4013759543597,139.32980954777997 176.03624465139814,139.52311435523058 175.4348519171067,139.99563721788573 174.70458931118355,140.29633358503145 174.29650138434576,140.40372514472656 173.65215202617813,140.4252034566647 172.14867019045258,140.0385938417635 171.28953771289773,139.90972397013024 170.66666666666666,139.90972397013024 169.9793606846228,140.08155046564275 169.42092457421063,140.38224683278693 168.86248846379846,140.833291383504 168.17518248175153,141.60651061330486 167.85300780266923,142.1219900998393 167.76709455491374,142.57303465055634 167.8315294907296,143.23886232066363 168.00335598624056,143.92616830270904 168.26109572950702,144.54903934893704 166.99387532511133,144.46312610118156 166.1562211594931,144.33425622954834 165.57630673714434,144.18390804597547 164.48091282825962,143.77582011913617 163.81508515815236,143.64695024750296 163.49291047906698,143.62547193556333 163.06334424028958,143.71138518332032 161.903515395589,144.14095142209774 161.34507928517684,144.14095142209774 160.78664317476466,143.86173336689166 159.49794445842937,142.89520932964018 158.61733366893185,142.5085997147405 156.791677154124,142.14346841177894 154.8371507676814,142.0145985401442 153.14036412450832,141.52059736554938 152.81818944542297,141.49911905361128 152.30270995889006,141.58503230136677 150.6059233157139,142.1219900998393 150.17635707693648,142.18642503565667 148.37217887406828,142.14346841177894 147.98556925916708,142.05755516402346 147.6204379562055,141.84277204463322 147.2338283413043,141.2413793103433 147.0405235338537,140.7258998238104 146.46060911150497,138.62102525379495 146.20286936823547,138.01963251950502 145.8162597533373,137.35380484939927 145.49408507425196,136.92423861062034 144.93564896383978,136.43023743602552 143.88321167883436,135.76440976591823 143.34625388035874,135.5066700226518 142.5730346505594,135.27040859132345 141.73538048494115,135.3133652152012 141.3272925581003,135.3992784629567 140.79033475962777,135.61406158234692 139.54459266717174,136.3013675643923 139.05059149257542,136.43023743602552 138.7284168134931,136.4087591240859 138.16998070308094,136.21545431663682 137.59006628072913,135.9147579494911 135.74293145398167,134.49718936152257 135.22745196744876,134.17501468243876 134.7978857286683,133.98170987498816 134.1105797466244,133.8528400033549 132.1130967363056,133.83136169141528 130.0511787901679,133.57362194814883 129.68604748720634,133.4447520765156 129.32091618424477,133.20849064518725 127.86039097239848,131.91979192885196 127.45230304555764,132.00570517660745 127.10865005453572,132.00570517660745 126.46430069636806,131.72648712140136 125.4977766591181,131.490225690073 124.7245574293157,131.51170400201264 123.54325027267551,131.64057387364588 123.50029364879624,131.6835304975236Z"/>
  </g>
</svg>