<?xml version="1.0" encoding="UTF-8" standalone="no"?>
<svg viewBox="0 0 197.72765355530203 256" xmlns="http://www.w3.org/2000/svg">
  <style>
    g.zone {
      fill: lightgray;
      stroke-width: 2;
      stroke-linecap: square;
      stroke-linejoin: bevel;
      stroke-miterlimit: 3;
      stroke-opacity: 0.8;
      stroke: black;
      fill-opacity: 0.3;
    }
  </style>
  <g class="zone" id="zone">
    <path d="M117.672814319133,237.88041999891115 117.70066916925089,238.13111364996428 117.8120885697185,238.4375170012512 117.99314509547887,238.74392035253715 118.22991132147304,239.05032370382406 118.68951634840245,239.46814645557862 119.80371035308255,240.31771938414664 120.16582340460329,240.69375986072535 120.45829933083127,241.11158261247988 121.21038028398866,242.50432511832804 121.39143680974902,243.0057124204333 121.6282030357432,244.07812414993654 121.78140471138568,244.39845492628243 122.00424351232289,244.67700342745147 122.47777596431123,245.094826179206 123.03487296664932,245.45693923072673 123.73124421957488,245.80512485718953 125.17969642565583,246.37614928458655 125.62537402752828,246.65469778575655 126.09890647951663,247.00288341221835 125.29111582612543,248.3399162178327 124.52510744790712,249.52374734780457 122.24100973831706,252.7549099613723 121.83711441162147,253.42342636418 121.39143680974902,254.32870899298183 120.75077525705926,254.41227354333253 120.33295250530472,254.41227354333253 119.77585550296466,254.30085414286492 119.44159730156181,254.14765246722146 119.05162939992319,253.86910396605143 118.38311299711552,253.24236983841962 116.76753169033313,251.62678853163524 115.8901039116472,250.9164898536527 115.29122463413229,250.54044937707403 113.88455470322619,249.8022958489736 113.39709482617889,249.63516674827218 112.96534464936539,249.60731189815527 112.29682824655971,249.71873129862288 110.87623089059268,250.16440890049435 110.3748435884884,250.41510255154748 109.49741580980447,250.98612697894546 108.8846091072306,251.19503835482274 108.10467330395532,251.3482400304662 106.23839834611783,251.64071595669418 105.09634949132182,251.96104673303907 104.80387356509382,251.94711930798013 103.89859093629198,251.82177248245455 103.1743648332525,251.86355475762943 102.92367118219937,251.91926445786322 102.45013873021102,252.1281758337405 101.53092867635023,252.3231597845598 101.34987215058986,252.44850661008638 101.2523801751812,252.6434905609047 101.33594472553092,253.33986181382926 101.29416245035605,253.6184103149983 101.14096077471358,253.86910396605143 100.89026712366046,254.1337250421625 100.56993634731458,254.35656384309874 100.17996844567793,254.565475218976 98.78722593982879,254.9972253957885 97.88194331102694,255.44290299765996 97.70088678526658,255.49861269789375 97.38055600892268,255.49861269789375 96.47527338012084,255.30362874707544 96.1131603286001,255.28970132201647 94.17724824546985,255.62395952342033 93.38338501713761,255.72145149882996 92.88199771503137,255.74930634894687 91.4335455089504,255.67966922365412 90.15222240356887,255.87465317447345 88.59235079701831,256 88.31380229584929,255.30362874707544 87.96561666938749,254.5933300690929 85.06871225722159,249.55160219792148 84.7205266307598,248.8830857951138 84.46983297970668,248.29813394265784 84.28877645394631,247.72710951525983 84.13557477830383,247.10037538762802 83.70382460149035,243.952777324411 83.3695664000875,242.32326859256767 82.99352592350782,241.00016321201227 82.53392089657842,239.63527555628002 82.18573527011662,238.68821065230333 81.86540449377075,238.0336216745546 81.53114629236791,237.4904520972735 81.15510581578822,237.0308470703441 80.80692018932643,236.72444371905718 80.3055328872202,236.4041129427123 79.74843588488211,236.1673467167181 79.20526630760101,236.0559273162505 78.53674990479334,236.01414504107464 78.00750775257119,236.0559273162505 78.74566128066962,235.1924269626245 79.65094390947147,234.34285403405647 79.85985528534972,234.03645068276953 80.16625863663468,233.0754583537349 80.43087971274674,232.49050650127793 80.75121048909263,231.91948207387992 80.87655731461919,231.58522387247706 80.91833958979404,231.09776399542977 80.77906533920854,230.35961046733033 80.79299276426748,230.22033621674484 80.8487024645013,230.09498939121926 81.07154126543652,229.90000544039995 82.10217071976493,229.315053587944 82.79854197268851,228.71617431042907 83.32778412491066,228.14514988303105 83.41134867526236,227.95016593221175 83.43920352538026,227.68554485610068 83.6898971764314,227.5044883303403 83.71775202654929,227.37914150481473 83.46705837549617,226.8081170774167 82.95174364833296,226.01425384908248 82.7706871225726,225.48501169686034 82.72890484739773,224.64936619335126 82.61748544692814,223.96692236548563 82.58963059681223,223.0616397366838 82.60355802187117,222.54632500952056 82.72890484739773,221.32071160437383 82.71497742233879,220.9028888526193 82.65926772210497,220.54077580109856 82.53392089657842,220.17866274957782 82.24144497035043,219.7329851477064 82.00467874435626,218.85555736902242 81.68434796801039,218.13133126598095 81.25259779119689,217.43496001305638 80.58408138838922,216.6550242097811 80.27767803710428,216.1675643327348 80.20804091181152,215.94472553179858 80.20804091181152,215.7358141559213 80.361242587454,215.06729775311462 80.34731516239505,214.91409607747116 80.27767803710428,214.71911212665185 79.99912953593326,214.31521679995626 79.58130678417872,213.93917632337656 78.49496762961849,213.2706599205699 77.57575757575769,212.88069201893225 76.83760404765728,212.42108699200185 76.51727327131339,212.28181274141733 76.40585387084576,212.1843207660077 76.2526521952013,211.9754093901304 76.1133779446158,211.68293346390243 75.73733746803809,210.652304009575 75.68162776780429,210.35982808334703 75.66770034274535,209.84451335618283 75.61199064251154,209.5938197051297 75.50057124204392,209.39883575431136 75.34736956639946,209.217779228551 74.58136118818314,208.6188999510361 74.45601436265657,208.46569827539264 74.40030466242277,208.32642402480812 74.37244981230685,208.1314400739888 74.41423208748171,207.69968989717628 74.60921603830103,207.60219792176665 75.2220227408729,207.19830259507106 75.6537729176864,206.9754637941348 76.90724117295002,206.51585876720443 79.67879875958936,205.79163266416396 80.33338773733809,205.66628583863738 81.28045264131478,205.59664871334462 81.78183994341904,205.4573744627601 82.15788041999873,205.2623905119418 82.43642892116777,205.02562428594663 82.84032424786534,204.60780153419208 83.41134867526236,203.9114302812685 83.78738915184205,203.5632446548067 84.49768782982457,203.06185735270046 85.16620423263224,202.6718894510628 87.03247919046775,201.72482454708611 87.92383439421064,201.36271149556538 89.44192372558635,200.9588161688698 90.43077090473791,200.62455796746596 90.96001305696007,200.58277569229108 91.25248898319003,200.59670311734905 91.57281975953393,200.68026766769975 91.97671508622953,200.83346934334324 92.31097328763435,201.0423807192205 92.63130406397825,201.36271149556538 92.93770741526518,201.86409879767163 93.13269136608449,202.1008650236658 93.34160274196276,202.21228442413343 93.78728034383322,202.28192154942616 93.95440944453463,202.37941352483483 94.30259507099642,202.8808008269401 94.81790979816161,203.43789782928016 95.30536967520891,204.06463195691197 95.50035362602625,204.2317610576134 95.70926500190451,204.35710788313995 96.37778140471218,204.5103095587834 96.55883793047255,204.59387410913413 96.65632990588121,204.78885805995245 96.86524128175749,205.65235841357844 97.01844295740194,205.97268918992432 97.19949948316231,206.2651651161523 97.43626570915649,206.55764104238028 98.46689516348489,207.6439801969425 98.8429356400626,207.92252869811153 99.13541156629059,208.04787552363808 99.52537946792921,208.1314400739888 100.91812197377638,208.2707143245743 102.43621130515207,208.57711767586025 103.68967956041571,208.75817420162062 104.24677656275576,208.74424677656265 105.23562374190732,208.57711767586025 105.95984984494879,208.52140797562643 106.32196289646953,208.43784342527573 106.51694684728885,208.35427887492503 106.67014852293133,208.22893204939845 106.86513247375063,207.92252869811153 106.86513247375063,207.61612534682558 106.72585822316513,206.71084271802374 106.72585822316513,206.41836679179576 106.78156792339894,206.20945541591848 106.97655187421825,205.90305206463157 107.47793917632252,205.42951961264322 107.64506827702591,205.10918883629833 107.65899570208289,204.9420597355959 107.61721342690802,204.7749306348945 107.25510037538729,204.09248680702888 107.15760839997861,203.8000108808009 107.14368097491968,203.54931722974777 107.18546325009453,203.29862357869465 107.68685055220078,202.14264729884067 107.96539905336981,201.6969696969692 108.53642348076882,200.9866710189867 108.92639138240546,200.19280779065346 109.07959305804992,199.98389641477618 109.34421413416001,199.76105761383997 110.40269843860432,199.19003318644195 110.79266634024296,198.89755726021397 111.08514226647094,198.54937163375217 111.54474729340033,197.51874217942378 111.85115064468727,197.07306457755232 112.31075567161668,196.69702410097364 113.46673195147164,195.94494314781525 114.3998694303894,194.97002339372165 115.24944235895742,194.28757956585602 115.82046678635444,193.71655513845803 116.4611283390462,193.14553071106002 116.62825743974763,192.8948370600069 116.69789456504037,192.7416353843644 116.73967684021524,192.4630868831944 116.76753169033313,191.8363527555626 116.89287851585772,191.4881671291008 117.04608019150217,191.26532832816457 117.19928186714465,191.12605407758005 117.38033839290502,191.00070725205347 117.56139491866539,190.93107012676074 117.26891899243739,190.91714270170277 116.9485882160935,190.79179587617622 116.71182199009932,190.5968119253569 116.4611283390462,190.23469887383715 116.26614438822689,189.7333115717309 115.63941026059607,187.51885098743261 115.4026440345999,186.93389913497566 114.31630488003968,184.9979870518464 114.09346607910247,184.71943855067738 113.49458680158756,184.10663184810352 113.0489091997171,183.4241880202379 111.60045699363415,180.86154180947682 111.34976334258103,180.36015450737156 111.09906969152988,179.7194929546808 110.91801316576951,179.3991621783359 110.58375496436469,179.02312170175722 110.06844023720149,178.56351667482681 109.00995593275717,177.75572602143464 108.21609270442293,177.35183069473905 107.96539905336981,177.08720961862795 107.88183450302009,176.89222566780865 107.86790707796115,176.66938686687342 108.11860072901426,175.9590881888909 108.43893150535817,174.24601490669687 108.480713780535,173.75855502964956 108.41107665524225,173.39644197812882 108.29965725477463,173.2014580273105 108.11860072901426,173.00647407649217 106.89298732386655,172.18475599804106 106.65622109787238,171.9619171971058 106.44730972199609,171.7112235460527 105.84843044448118,170.8198683423098 105.41668026766769,170.05385996409348 105.20776889178943,169.608182362222 104.98493009085419,168.8978836842385 104.83172841521173,168.57755290789362 104.60888961427649,168.25722213154873 104.20499428757891,167.78368967956038 103.67575213535676,167.2683749523962 103.25792938360222,166.9758990261682 102.47799358032694,166.6277133997064 101.09917849953675,166.168108372776 100.58386377237353,165.95919699689873 99.91534736956586,165.5692290952611 98.74544366465393,164.77536586692787 97.71481421032553,163.98150263859364 96.30814427941942,162.60268755780442 95.15216799956445,161.58598552853496 94.77612752298478,161.08459822642874 94.28866764593946,160.09575104727716 94.135465970295,159.90076709645786 93.95440944453463,159.73363799575642 93.52265926772114,159.46901691964536 92.65915891409614,159.10690386812462 91.69816658506049,158.60551656601936 91.40569065883251,158.39660519014208 90.82073880637654,157.89521788803583 90.2636418040365,157.51917741145715 89.90152875251576,157.37990316087263 89.23301234970809,157.2127740601702 88.99624612371392,157.1013546597026 88.77340732277868,156.90637070888428 88.46700397149175,156.36320113160318 88.23023774549758,156.0985800554921 87.81241499374303,155.73646700397137 87.0742614656446,155.1793700016323 86.47538218812969,154.78940209999465 86.08541428649104,154.59441814917534 85.6118818345027,154.44121647353188 84.84587345628637,154.27408737283045 84.41412327947288,154.09303084707008 83.91273597736861,153.70306294543244 82.53392089657842,152.25461073935048 81.69827539306932,151.47467493607522 81.32223491648965,151.29361841031485 80.97404929002785,151.23790871008103 80.75121048909263,151.251836135139 82.10217071976493,151.14041673467136 83.13280017409333,150.94543278385305 83.91273597736861,150.69473913279992 84.56732495511733,150.34655350633813 85.01300255698779,149.94265817964154 85.36118818344957,149.44127087753628 85.63973668462059,148.88417387519723 86.39181763777798,146.97611664218488 86.69822098906491,146.41901963984483 87.10211631576051,145.9037049126816 87.60350361786675,145.48588216092708 88.11881834502996,145.20733365975704 88.70377019748592,145.04020455905564 89.0241009738318,144.99842228387976 89.49763342582015,144.99842228387976 90.09651270333507,145.09591425928943 90.70931940590893,145.29089821010777 91.37783580871462,145.58337413633575 92.10206191175608,146.02905173820818 93.13269136608449,146.80898754148248 96.61454763070635,149.85909362929084 98.16049181219796,151.07077960937863 99.30254066699398,151.8785702627708 100.37495239649725,152.57494151569537 101.43343670094157,153.1459659430934 102.49192100538588,153.63342582013968 103.73146183559057,154.10695827212902 104.80387356509382,154.39943419835703 105.90414014471499,154.5804907241174 106.8790598988076,154.6640552744681 107.95147162831087,154.65012784940916 108.96817365758032,154.52478102388358 109.92916598661597,154.27408737283045 110.77873891518401,153.93982917142662 111.29405364234722,153.54986126978898 111.5308198683414,153.27131276861994 111.71187639410176,152.99276426744993 111.80936836951241,152.58886894075334 111.75365866927861,152.0874816386481 111.57260214351824,151.58609433654283 111.33583591752407,151.15434415973033 109.78989173603244,148.9259561503721 109.30243185898514,148.1181654969799 109.09352048310689,147.6864153201674 108.92639138240546,147.1989554431201 108.84282683205574,146.83684239159936 108.8288994069968,146.47472934007962 108.91246395734652,145.77835808715506 109.39992383439382,144.12099450519582 110.1798596376691,140.66699309069088 110.59768238942364,139.34388771013548 110.95979544094438,138.5082422066264 111.46118274305061,137.50546760241488 112.57537674772874,135.52777324411076 114.42772428050729,132.65872368206277 114.85947445732077,132.0737718296068 115.37478918448399,131.44703770197498 115.75082966106368,131.0709972253953 116.29399923834478,130.62531962352386 116.79538654044904,130.30498884717898 117.33855611773015,130.02644034600894 117.93743539524506,129.78967412001478 118.53631467275997,129.59469016919644 119.2744682008604,129.42756106849404 120.06833142919264,129.28828681790952 121.4889287851577,129.149012567325 122.29671943855087,129.13508514226604 123.0905826668851,129.16293999238295 124.26048637179703,129.3161416680264 125.4721723518858,129.6086175942544 126.86491485773296,130.11000489636064 128.75904466568636,130.94565039986972 130.82030357434317,131.99020727925512 132.2130460801923,132.81192535770623 133.11832870899218,133.43865948533806 133.73113541156604,133.9400467874433 134.19074043849542,134.35786953919785 134.7199825907176,134.9428213916538 135.24922474294172,135.62526521952043 136.09879767150778,136.90658832490095 136.76731407431546,137.9929274794622 137.97900005440422,140.1098960883518 138.41075023121772,140.75055764104258 138.87035525814713,141.2937272183227 139.27425058484272,141.66976769490236 139.83134758718276,142.04580817148107 140.346662314346,142.31042924759214 141.04303356726956,142.5750503237032 141.90653392089655,142.77003427452254 142.8953811000481,142.88145367499015 144.07921223002097,142.90930852510706 146.00119688809028,142.8396713998153 147.58892334475874,142.67254229911288 148.81453674990448,142.43577607311872 149.5805451281208,142.1850824220656 150.1515695555198,141.80904194548688 150.4440454817478,141.55834829443475 150.59724715739026,141.33550949349853 150.63902943256514,141.0569609923285 150.61117458244922,140.87590446656813 150.48582775692265,140.5416462651653 150.23513410586952,140.09596866329386 149.9287307545826,139.73385561177312 149.37163375224452,139.2463957347258 146.2797453892613,137.17120940101205 145.58337413633575,136.62803982373094 144.8452206082373,135.95952342092326 144.1070670801369,135.10995049235623 143.64746205320748,134.4275066644906 143.34105870192056,133.74506283662498 143.14607475110122,133.0208367335835 143.09036505086743,132.24090093030821 143.14607475110122,131.4748925520919 143.29927642674568,130.7228115989335 143.59175235297366,129.6921821446061 144.03742995484413,128.52227843969317 144.6223818073001,127.08775365866919 145.44409988575222,125.29111582612444 146.46080191502168,123.21592949241067 146.655785865839,122.70061476524647 146.75327784124966,122.32457428866778 146.82291496654042,121.69784016103596 146.72542299113175,121.18252543387176 146.47472934007862,120.61150100647374 146.04297916326712,120.02654915401779 145.61122898645363,119.63658125238014 145.06805940917252,119.30232305097631 144.650236657418,119.13519395027488 143.29927642674568,118.71737119852034 142.93716337522494,118.55024209781793 142.47755834829357,118.25776617158995 141.9204613459555,117.74245144442575 140.04025896305905,115.76475708612163 136.61411239867297,112.49181219737804 135.58348294434458,111.5865295685762 134.90103911647796,111.0990696915289 134.49714378978237,110.86230346553472 133.9400467874443,110.62553723954055 133.48044176051292,110.47233556389708 132.9651270333497,110.36091616342947 132.35232033077585,110.27735161307875 131.68380392796817,110.2355693379029 130.27713399706207,110.27735161307875 129.21864969261776,110.38877101354636 128.34122191393183,110.55590011424779 127.40808443501406,110.77873891518401 126.83706000761704,110.98765029106129 126.09890647951663,111.34976334258202 125.55573690223552,111.68402154398585 124.95685762472061,112.1575539959742 124.38583319732359,112.77036069854707 124.16299439638836,113.1324737500678 124.0097927207439,113.49458680158854 123.92622817039418,113.85669985310928 123.91230074533524,114.24666775474692 124.0097927207439,114.95696643272944 124.4972525977912,116.44720091398726 124.63652684837672,117.00429791632632 124.69223654861052,117.56139491866539 124.65045427343368,118.03492737065471 124.53903487296607,118.45275012240927 124.4136880474395,118.74522604863725 124.24655894673808,119.05162939992418 123.99586529568496,119.39981502638597 123.48055056852175,119.85942005331538 122.79810674065513,120.27724280506992 122.22708231325812,120.51400903106409 121.41929165986693,120.76470268211722 120.47222675588824,120.97361405799448 119.34410532615117,121.14074315869591 116.89287851585772,121.36358195963213 113.0489091997171,121.53071106033354 111.51689244328443,121.69784016103596 110.95979544094438,121.82318698656252 110.3191338882546,122.00424351232189 108.10467330395532,122.82596159077303 107.51972145149935,122.97916326641649 106.9069147489255,123.0905826668841 106.09912409553431,123.17414721723482 105.26347859202521,123.16021979217686 104.28855883793062,123.06272781676721 103.48076818453744,122.90952614112373 100.38887982155421,122.15744518796537 97.81230618573618,121.68391273597702 96.68418475599712,121.40536423480798 95.95995865295764,121.16859800881281 95.30536967520891,120.87612208258483 94.7622000979278,120.56971873129889 94.23295794570565,120.20760567977815 93.7594254937173,119.78978292802361 93.35553016701972,119.37196017626906 92.97948969044202,118.88450029922177 92.65915891409614,118.39704042217447 92.2134813122237,117.60317719384123 91.11321473260452,115.33300690930814 90.47255317991475,114.07953865404451 89.90152875251576,113.1046188999509 89.24693977476703,112.08791687068144 88.35558457102414,110.83444861541781 87.29710026657982,109.45563353462762 86.46145476307073,108.43893150535915 85.80686578532202,107.72863282737563 85.2079865078071,107.15760839997763 84.63696208041009,106.68407594798927 84.09379250312898,106.30803547141059 83.42527610032131,105.91806756977294 82.10217071976493,105.29133344214112 79.37239540830244,104.23284913769682 78.82922583102133,103.98215548664369 78.23034655350642,103.62004243512295 77.6593221261094,103.18829225831045 77.19971709917802,102.742614656439 76.75403949730756,102.24122735433276 75.98803111909122,101.26630760023916 75.61199064251154,100.86241227354355 75.04096621511253,100.38887982155521 74.42815951254066,100.05462162015137 73.62036885914749,99.7900005440403 72.67330395517078,99.56716174310408 68.71791523856255,98.98220989064811 61.29459768238943,98.25798378760663 60.12469397747749,98.17441923725592 58.940862847506615,98.14656438713902 57.81274141776757,98.16049181219698 56.94924106414256,98.23012893748972 55.90468418475522,98.36940318807424 55.05511125618916,98.55045971383461 54.23339317773704,98.77329851477083 53.16098144823378,99.16326641640848 52.38104564496047,99.49752461781132 51.5732549915673,99.9292747946248 50.87688373864372,100.40280724661316 50.31978673630367,100.87633969860151 49.888036559490175,101.36379957564881 49.553778358087335,101.86518687775407 49.33093955715211,102.38050160491827 49.1916653065666,102.99330830749113 49.1638104564487,103.59218758500604 49.21952015668449,104.16321201240406 49.41450410750183,104.99885751591314 49.651270333496,105.68130134377877 50.02731081007568,106.60051139763857 51.87965834285423,110.83444861541781 52.199989119200104,111.68402154398585 52.478537620369146,112.57537674772874 52.729231271422265,113.73135302758271 52.9242152222396,115.01267613296325 53.48131222457965,120.30509765518681 53.67629617539897,121.26608998422246 53.91306240139314,121.976388662205 54.108046352212455,122.42206626407645 54.344812578206636,122.85381644088993 54.98547413089641,123.73124421957488 55.40329688265095,124.17692182144631 57.47848321636472,126.12676132963352 58.244491594581056,126.97633425820156 58.57874979598588,127.46379413524788 58.84337087209597,127.89554431206136 59.05228224797423,128.3690767640497 59.19155649855776,128.8286817909801 59.30297589902538,129.53898046896265 59.31690332408432,130.30498884717898 59.219411348675656,131.1824166258639 59.05228224797423,132.03198955443096 58.6623143463356,133.28545780969458 58.383765845166565,133.92611936238535 57.65953974212509,135.41635384364315 57.52026549153958,135.79239432022186 57.43670094118986,136.16843479680054 57.40884609107197,136.5584026984382 57.45062836624683,136.93444317501786 57.58990261683234,137.4079756270062 57.81274141776757,137.86758065393562 58.39769327022551,138.77286328273746 59.19155649855776,139.7895653120069 60.91855720580974,141.80904194548688 61.92133181002223,142.85359882487325 62.53413851259411,143.3271312768616 63.188727490342835,143.70317175344127 63.82938904303458,143.95386540449343 65.76530112616285,144.55274468200832 66.41989010391157,144.8452206082363 67.01876938142648,145.221261084816 67.45051955823998,145.58337413633575 67.95190686034424,146.15439856373374 69.24715739078471,148.03460094662918 69.80425439312278,148.7170447744948 70.16636744464351,149.07915782601555 70.57026277133912,149.4134160274194 71.64267450084238,150.15156955551882 72.25548120341624,150.4997551819816 72.89614275610602,150.76437625809268 73.45323975844606,150.9315053587941 74.40030466242277,151.11256188455448 75.37522441651736,151.2239812850221 76.71225722213072,151.3075458353728 78.27212882868128,151.3354006854907 79.65094390947147,151.3075458353728 79.38632283336138,151.55823948642592 79.0659920570155,152.0456993634732 78.94064523148894,152.393884989935 78.85708068113725,153.04847396768372 78.80137098090343,153.20167564332718 78.70387900549477,153.35487731897067 78.13285457809775,153.7727000707252 77.6593221261094,154.24623252271354 77.39470104999732,154.45514389859082 76.37799902072787,154.95653120069608 75.1663130406391,155.8061041292641 74.37244981230685,156.44676568195388 73.6760785593813,157.1013546597026 73.48109460856395,157.31026603557987 73.3557477830374,157.54703226157406 73.18861868233597,158.25733093955657 72.89614275610602,159.00941189271495 72.72901365540459,159.26010554376808 72.31119090365004,159.8032751210482 71.23877917414679,160.93139655078625 70.76524672215844,161.47456612806636 70.58419019639807,161.61384037865187 69.67890756759623,162.08737283064022 69.37250421631127,162.3798487568682 69.27501224090062,162.58876013274548 69.27501224090062,162.76981665850585 69.5674881671286,163.53582503672217 69.87389151841553,164.52467221587474 69.90174636853342,164.81714814210272 69.81818181818173,164.98427724280512 69.69283499265516,165.0817692182138 69.40035906642719,165.1931886186824 67.729068059409,165.41602741961762 67.36695500788827,165.49959196996835 66.60094662967194,165.77814047113836 66.40596267885262,165.91741472172288 66.33632555355987,166.0845438224253 66.35025297861881,166.34916489853637 66.44774495402946,166.65556824982332 66.75414830531442,167.31015722757203 66.83771285566611,167.76976225450144 66.83771285566611,167.96474620532075 66.76807573037335,168.2015124313149 66.58701920461299,168.48006093248395 66.3781078287367,168.61933518306947 65.66780915075418,168.91181110929745 65.36140579946725,169.07894020999888 64.2611392198461,169.8728034383331 63.56476796692252,170.4438278657311 63.24443719057664,170.63881181654943 62.64555791306173,170.91736031771947 62.31129971165888,171.02877971818708 62.03275121048985,171.056634568304 60.38931505358759,171.09841684347984 59.92971002665818,171.15412654371363 59.67901637560506,171.2237636690054 59.31690332408432,170.8477231924267 58.71802404656941,170.37419074043837 56.6846199880305,169.20428703552543 55.55649855829343,168.45220608236704 54.62336107937567,167.70012512920968 52.49246504542809,165.87563244654802 51.54540014145139,165.12355149338964 50.02731081007568,164.03721233882743 46.099776943583365,161.39100157771566 42.89646918013252,158.995484467657 42.46471900331903,158.6472988411942 42.1583156520321,158.32696806484932 41.85191230074518,157.93700016321168 41.62907349980995,157.50524998639918 41.461944399108525,157.00386268429295 41.36445242369788,156.43283825689593 41.32267014852302,155.73646700397137 41.36445242369788,155.1236603013975 41.44801697404958,154.48299874870773 41.6987106251027,153.07632881780063 41.754420325336504,152.43566726511085 41.6987106251027,151.9621348131225 41.615146074750996,151.60002176160177 41.461944399108525,151.2239812850221 41.280887873348156,150.84794080844338 40.904847396768474,150.29084380610433 40.487024645013925,149.7337468037643 37.04695065556891,145.6530112616285 36.5037810782878,145.13769653446428 36.03024862629945,144.74772863282763 34.47037701974889,143.71709917849924 33.96898971764264,143.3271312768616 33.53723954083113,142.86752624993218 33.230836189544206,142.352211522768 33.06370708884278,141.8368967956038 33.007997388606995,141.36336434361544 33.02192481366594,140.84804961645125 33.1472716391925,140.15167836352765 33.411892715304575,139.35781513519342 33.80186061694123,138.5082422066264 34.17790109352091,137.82579837876077 34.609651270334396,137.17120940101205 35.37565964855073,136.2102170719764 36.16952287688298,135.38849899352527 36.85196670474959,134.78961971601134 37.53441053261621,134.24645013873024 39.553887166096175,132.78407050758932 40.29204069419461,132.19911865513237 40.793427996300856,131.71165877808608 41.14161362276265,131.22419890103876 41.33659757358196,130.7228115989335 41.36445242369788,130.45819052282243 41.33659757358196,130.04036777106788 41.25303302323026,129.67825471954714 41.15554104782159,129.41363364343607 40.765573146182966,128.9122463413308 40.36167781948737,128.52227843969317 40.08312931831833,128.31336706381592 39.372830640335806,127.89554431206136 38.3422011860074,127.47772156030682 37.241934606386245,127.18524563407884 36.15559545182601,127.04597138349332 35.20853054784931,127.03204395843537 34.303247919047465,127.17131820901989 33.85757031717503,127.29666503454645 33.481529840597325,127.44986671018992 32.98014253849108,127.72841521135895 32.53446493661865,128.0905282628797 32.17235188509791,128.48049616451732 31.879875958869924,128.95402861650567 31.58740003264194,129.67825471954714 31.099940155594645,131.66987650291023 30.709972253957993,132.78407050758932 30.264294652085557,133.71720798650807 29.846471900331014,134.5110712148413 29.470431423753308,135.09602306729727 29.06653609705771,135.6113377944615 28.565148794951465,136.04308797127499 28.11947119307903,136.321636472444 27.618083890974763,136.53054784832128 27.088841738752606,136.65589467384785 26.434252761003886,136.71160437408165 25.863228333604887,136.65589467384785 25.37576845655759,136.53054784832128 24.84652630433543,136.29378162232712 24.345139002231168,135.93166857080638 24.094445351178045,135.66704749469528 23.871606550242817,135.3745715684673 23.63484032424864,134.88711169142002 23.55127577389694,134.58070834013407 23.50949349872208,134.26037756378818 23.523420923781025,133.75899026168292 23.662695174364554,133.11832870899318 24.484413252814694,131.0152875251615 24.749034328926765,130.1239323214186 24.916163429628185,129.2604319677926 24.957945704803045,128.6894075403946 24.957945704803045,128.16016538817243 24.916163429628185,127.6866329361841 24.76296175398571,126.96240683314262 24.442630977639833,126.16854360480939 24.23371960176355,125.7925031282297 23.969098525651482,125.44431750176791 23.439856373429325,124.9290027746037 22.827049670855466,124.52510744790811 22.130678417931886,124.21870409662118 21.448234590065272,124.03764757086081 20.68222621184894,123.94015559545214 20.02763723410022,123.9540830205101 19.178064305532185,124.06550242097771 16.921821446058043,124.45547032261535 16.211522768075515,124.51118002284916 15.44551438985918,124.4972525977912 14.540231761057338,124.37190577226464 13.774223382841004,124.16299439638738 13.077852129917424,123.85659104510044 12.31184375170109,123.35520374299519 11.643327348893424,122.77025189053923 11.10015777161232,122.1156629127905 10.682335019857776,121.50285621021665 9.651705565529372,119.77585550296466 9.192100538599968,119.05162939992418 8.593221261085056,118.25776617158995 7.938632283336336,117.53354006854848 7.200478755235916,116.8928785158587 6.406615526903668,116.3218540884607 5.668461998803248,115.86224906153029 3.8021870409657565,114.85947445731979 3.119743213101123,114.42772428050729 2.701920461346579,114.09346607910345 2.2701702845330884,113.70349817746582 1.9498395081872122,113.35531255100402 1.5598716065505616,112.88178009901469 1.0863391545622103,112.11577172079835 0.7520809531573875,111.46118274304963 0.4317501768134906,110.63946466459949 0.2089113758782616,109.95702083673386 0.04178227517486064,109.09352048310788 0,108.3692943800664 0.05570970023380725,107.68685055220078 0.16712910070142176,107.15760839997763 0.34818562646179013,106.67014852293133 0.5988792775149123,106.23839834611783 0.9331374789177559,105.84843044448019 1.3370328056153324,105.51417224307734 1.7827104074857905,105.24955116696627 2.4233719601755634,104.99885751591314 2.896904412165894,104.88743811544553 3.662912790382228,104.80387356509382 4.2200097927203,104.78994614003587 4.818889070235213,104.81780099015278 6.016647625265038,105.0127849409711 7.200478755235916,105.30526086720008 11.239432022197827,106.48909199717096 12.367553451934898,106.75371307328203 13.300690930852653,106.87905989880859 14.247755834829356,106.92084217398346 14.707360861758762,106.87905989880859 15.194820738806058,106.78156792339894 15.612643490560602,106.65622109787238 15.946901691965426,106.5030194222289 16.476143844187582,106.14090637070916 16.75469234535662,105.83450301942223 16.921821446058043,105.56988194331116 17.047168271584603,105.22169631684838 17.102877971818412,104.83172841521173 17.033240846525658,104.13535716228715 16.643272944889006,102.36657417985931 16.517926119362446,101.29416245035605 16.49007126924653,100.3331701213204 16.503998694303498,96.41956367988703 16.559708394537306,95.52820847614414 16.65720036994795,94.88754692345339 16.824329470649374,94.2747402208805 17.047168271584603,93.67586094336559 17.868886350034746,91.71209401011944 18.077797725913005,91.04357760731178 18.244926826614428,90.41684347967995 20.68222621184894,90.8346662314345 22.3256623687512,90.87644850661034 24.24764702682052,91.07143245742867 25.431478156793375,91.33605353353975 26.448180186060853,91.47532778412526 27.437027365214394,91.68423916000253 29.372939448342663,92.17169903704884 30.94673847995217,92.71486861432994 31.2531418312391,92.71486861432994 32.06093248463029,92.46417496327682 32.50661008650273,92.38061041292612 32.86872313802347,92.35275556280921 33.32832816495287,92.40846526304301 33.89935259235187,92.56166693868649 34.31717534410642,92.74272346444685 34.609651270334396,92.92377999020722 35.19460312279036,93.38338501713761 35.66813557477872,93.6480060932487 36.183450301941924,93.81513519395011 36.963386105217204,93.95440944453463 38.06365268483837,94.02404656982739 40.09705674337728,93.91262716935977 40.66808117077429,93.91262716935977 42.35329960285142,94.14939339535395 45.22234916489942,94.41401447146502 45.61231706653607,94.38615962134813 46.141559218758225,94.24688537076361 46.447962570045156,94.2190305206467 46.96327729720837,94.26081279582156 47.603938849900125,94.44186932158193 47.92426962624402,94.48365159675778 48.66242315434444,94.37223219628918 49.734834883847704,94.38615962134813 50.7097546379423,94.28866764593846 51.28077906533932,94.28866764593846 51.74038409226872,94.34437734617228 52.199989119200104,94.45579674664087 53.300255698819285,94.91540177357028 54.3587400032636,95.1939502747403 54.010554376801814,94.69256297263506 53.48131222457965,94.14939339535395 50.94652086393647,91.96278766117157 49.03846363092412,90.55611773026448 47.96605190142086,90.01294815298436 47.54822914966631,89.63690767640468 47.367172623905944,89.35835917523563 47.13040639791177,88.84304444807144 46.74043849627314,88.23023774549758 46.42010771992924,87.47815679234019 46.336543169577546,87.0185517654098 46.32261574451859,86.48930961318764 46.378325444752406,86.14112398672486 46.50367227027896,85.91828518578963 46.9493498721514,86.18290626190071 47.408954899080804,86.39181763777798 47.95212447636191,86.5868015885973 48.35601980305751,86.68429356400597 48.87133453022072,86.76785811435667 49.511996082912475,86.80964038953252 50.7097546379423,86.78178553941562 52.032860018496706,86.57287416353834 53.021707197650244,86.29432566236832 53.968772101626946,85.94614003590654 56.19716011098518,84.98514770687089 56.89353136390876,84.76230890593565 57.54812034165748,84.59517980523324 58.36983842010762,84.46983297970768 59.31690332408432,84.40019585441492 62.21380773625022,84.37234100429801 63.06338066481627,84.33055872912216 63.926881018443254,84.2330667537135 64.86001849736101,84.03808280289418 65.70959142592905,83.7734617267831 67.81263260976071,83.03530819868367 70.76524672215844,82.17180784505769 71.53125510037476,81.89325934388765 72.24155377835729,81.58685599260072 72.95185245633982,81.23867036613893 73.98248191066823,80.63979108862402 74.90169196452901,79.99912953593424 76.72618464718965,78.67602415537786 77.35291877482247,78.25820140362332 78.18856427833155,77.75681410151806 78.96850008160683,77.35291877482148 79.98520211087629,76.92116859800898 80.79299276426748,76.65654752189789 81.76791251836208,76.40585387084478 82.75675969751364,76.22479734508441 83.99630052771833,76.09945051955785 85.13834938251435,76.05766824438298 87.06033404058564,76.07159566944094 89.17730264947429,76.1412327947337 90.38898862956304,76.22479734508441 91.33605353353975,76.36407159566892 92.2413361623416,76.60083782166409 92.7287960393889,76.80974919754136 93.07698166585068,76.99080572330074 93.7594254937173,77.50612045046495 94.48365159675679,78.28605625374023 95.569990751319,79.67879875958837 96.30814427941942,80.55622653827331 97.10200750775167,81.26652521625584 97.9515804363197,81.86540449377075 98.5226048637187,82.19966269517458 99.34432294216884,82.60355802187019 100.94597682389427,83.2581469996189 102.61726783091244,83.7734617267831 104.177139437463,84.09379250312799 105.69522876883673,84.24699417877146 107.35259235079793,84.24699417877146 109.45563353462762,84.06593765301109 110.95979544094438,83.85702627713381 111.97649747021383,83.67596975137344 113.45280452641269,83.3138566998527 114.17703062945417,83.07709047385853 114.72020020673527,82.8542516729233 115.29122463413229,82.54784832163638 115.66726511071198,82.29715467058325 116.02937816223272,81.97682389423836 116.23828953810899,81.72613024318623 116.47505576410317,81.28045264131478 116.55862031445487,80.79299276426748 116.50291061422107,80.24982318698638 116.26614438822689,79.62308905935457 115.82046678635444,78.84315325607929 115.30515205919124,78.1189271530388 113.31353027582917,75.6537729176864 112.36646537185048,74.42815951253966 111.71187639410176,73.46716718350501 111.19656166693855,72.60366682987902 110.48626298895603,71.22485174908883 110.16593221261014,70.4866982209894 109.81774658614836,69.49785104183684 109.67847233556284,68.98253631467264 109.59490778521312,68.46722158750843 109.59490778521312,68.0772536858708 109.65061748544693,67.68728578423415 109.77596431097349,67.33910015777137 109.97094826179281,67.00484195636753 110.2355693379029,66.69843860508159 110.56982753930772,66.40596267885361 110.97372286600333,66.16919645285844 111.39154561775787,65.97421250204012 111.87900549480517,65.82101082639666 112.40824764702732,65.70959142592905 113.1881834503026,65.59817202546142 114.17703062945417,65.54246232522664 115.56977313530331,65.55638975028558 116.68396713998143,65.62602687557833 117.44997551819776,65.73744627604594 118.13241934606438,65.87672052663046 120.37473478047957,66.48952722920433 120.80648495729307,66.55916435449609 121.28001740928141,66.58701920461299 121.68391273597702,66.54523692943813 122.00424351232289,66.47559980414538 122.58919536477886,66.22490615309324 123.06272781676721,65.8627931015725 123.25771176758651,65.63995430063629 123.50840541863964,65.2639138240576 123.73124421957488,64.76252652195234 123.85659104510144,64.2611392198461 123.91230074533524,63.745824492682885 123.9540830205101,62.24166258636613 124.0097927207439,61.559218758500506 124.12121212121153,60.862847505575935 124.28834122191294,60.222185952886164 124.60867199825881,59.414395299493975 124.9847124748385,58.731951471628356 125.416462651652,58.04950764376273 126.30781785539489,56.809966813557054 126.72564060714943,56.09966813557453 127.00418910831847,55.3615146074751 127.14346335890397,54.49801425384911 127.17131820901989,54.038409226918716 127.14346335890397,53.34203797399513 127.00418910831847,52.241771394374965 126.83706000761704,51.503617866274546 126.11283390457557,48.7042054295193 125.80643055328865,47.018986997443164 125.70893857787998,46.08584951852442 125.68108372776209,45.26413144007428 125.70893857787998,44.42848593656519 125.82035797834759,43.00788858059915 125.82035797834759,42.29758990261662 125.76464827811378,41.86583972580412 125.66715630270313,41.42016212393267 125.416462651652,40.70986344595015 124.9847124748385,39.94385506773282 124.37190577226464,39.08035471410683 123.74517164463381,38.3422011860074 121.83711441162147,36.30879712746849 121.40536423480798,35.793482400304285 120.94575920787857,35.16674827267247 120.58364615635783,34.59572384527545 120.24938795495301,33.96898971764364 119.34410532615117,32.07485990968924 118.87057287416282,31.21135955606325 118.50845982264208,30.59855285349038 117.8677982699523,29.707197649747485 117.19928186714465,28.94118927153016 116.36363636363555,28.11947119308002 115.37478918448399,27.29775311462889 114.28845002992178,26.517817311354598 112.49181219737704,25.361841031499633 108.98210108263928,23.217017572493106 106.34981774658544,21.740710516294243 104.63674446439241,20.89113758772621 103.42505848430363,20.389750285620956 102.51977585550378,20.083346934334024 101.54485610140918,19.818725858222948 98.39725803819213,19.080572330123516 96.75382188128988,18.551330177901356 95.44464392579243,17.994233175562297 92.33882813775027,16.57363581959625 89.4558511506453,15.375877264566427 87.97954409444445,14.707360861759751 86.85142266470739,14.108481584244839 85.68151895979545,13.384255481203365 81.11332354061337,10.348076818453942 80.06876666122601,9.56814101517866 79.42810510853624,8.983189162722695 79.03813720689762,8.565366410968151 78.53674990479334,7.924704858277389 78.14678200315471,7.325825580762477 77.78466895163398,6.643381752896854 77.26935422447076,5.515260323159783 77.01866057341765,4.804961645177256 76.8236766226003,4.066808117077826 76.71225722213072,3.412219139329106 76.69832979707375,3.0222512376914654 76.72618464718965,2.5347913606441677 76.8236766226003,2.04733148359687 77.00473314836067,1.6434361569012723 77.29720907458866,1.2256134051467285 77.58968500081664,0.9470649039767025 77.99358032751223,0.6824438278656232 78.39747565420784,0.5013873021052548 78.84315325608027,0.34818562646179013 79.8180730101729,0.16712910070241135 81.09939611555441,0.04178227517585024 82.63141287198708,0 85.45868015886022,0.013927425058946615 97.14378978292851,0.23676622599417563 116.96251564115046,0.34818562646179013 129.27435939285155,0.29247592622798285 150.26298895598742,0.37604047657968337 192.25417550731612,0.29247592622798285 193.0341113105914,1.2673956803225785 193.29873238670348,1.7130732821940262 193.5494260377566,2.1866057341823772 193.73048256351697,2.646210761111782 193.84190196398458,3.0779609379252726 193.88368423915944,3.48185626462087 193.85582938904352,3.8578967412005536 193.70262771339907,4.289646918013054 193.39622436211215,4.693542244709642 192.99232903541656,5.055655296230378 191.8363527555616,5.87737337468052 191.39067515369112,6.239486426201256 191.02856210217038,6.643381752896854 190.83357815135108,7.061204504651398 190.79179587617622,7.367607855938327 190.80572330123516,7.757575757575967 190.88928785158487,8.175398509330511 191.23747347804866,9.387084489418294 191.29318317828245,9.777052391055934 191.2792557532235,10.153092867635618 191.1956912028718,10.52913334421431 191.0564169522883,10.919101245851952 190.37397312442167,12.214351776290444 190.1929165986613,12.646101953103935 190.06756977313475,13.063924704858477 190.03971492301883,13.439965181437172 190.0814971981937,13.774223382841004 190.2207714487792,14.136336434361741 190.88928785158487,15.222675588922963 191.07034437734524,15.612643490560602 191.1678363527559,16.01653881725719 191.139981502638,16.49007126924554 191.02856210217038,16.921821446058043 190.84750557641001,17.325716772754628 189.80294869702465,19.13628203035732 188.7862466677552,21.127903813720387 188.52162559164313,21.726783091235298 188.34056906588276,22.22817039334055 188.22914966541515,22.729557695446797 188.18736739024027,23.272727272726915 188.20129481529725,23.774114574833156 188.27093194059,24.219792176704605 188.43806104129143,24.651542353517105 188.67482726728758,25.01365540503784 189.0508677438653,25.403623306675485 189.5661824710305,25.793591208313124 191.41853000380704,27.074914313693657 193.438006637289,28.384092269191097 193.91153908927734,28.76013274576979 194.301506990914,29.136173222349477 194.7332571677275,29.748979924922345 195.06751536913032,30.45927860290487 195.2764267450086,31.183504705946344 195.3042815951245,31.76845655840231 195.2485718948907,32.047005059572335 195.12322506936414,32.325553560742364 194.94216854360377,32.54839236167759 194.6914748925526,32.743376312496906 194.0925956150377,33.04977966378284 192.64414340895476,33.579021816006 192.12882868179153,33.80186061694123 191.64136880474425,34.12219139328611 191.2235460529897,34.5260867199827 190.83357815135108,35.152820847614514 190.13720689842748,36.75447472933993 189.0926500190421,38.81573363799575 188.66089984222864,39.386758065393764 187.88096403895335,40.06920189325938 187.68598008813404,40.31989554431251 187.58848811272537,40.584516620423585 187.51885098743261,40.904847396768474 187.50492356237368,41.58729122463409 187.63027038790023,42.200097927207956 187.8391817637785,42.74326750448807 188.14558511506345,43.21679995647642 188.49377074152721,43.57891300799716 188.92552091833872,43.843534084108235 190.4296828246555,44.41455851150624 191.52994940427664,44.9438006637284 192.51879658342818,45.55660736630226 192.8948370600079,45.849083292530246 193.21516783635178,46.15548664381718 193.39622436211215,46.40618029486931 193.59120831293146,46.78222077144899 194.28757956585503,48.96882650563038 194.48256351667436,49.33093955715112 194.66362004243473,49.51199608291149 194.85860399325404,49.665197758554946 195.22071704477477,49.846254284315314 195.8753060225235,50.04123823513364 196.4741853000384,50.1387302105433 197.72765355530203,50.236222185952954 197.64408900495033,50.36156901147952 197.44910505413102,50.472988411947135 196.64131440073982,50.66797236276546 196.39062074968672,50.77939176323406 196.12599967357662,50.96044828899443 195.8195963222897,51.28077906533932 195.37391872041724,51.54540014145039 194.97002339372165,51.684674392034914 194.10652304009466,51.81002121756148 193.85582938904352,51.93536804308804 193.39622436211215,52.36711821990054 193.27087753658557,52.53424732060295 193.13160328600205,52.910287797181645 193.10374843588417,53.38382024916999 193.0341113105914,53.53702192481346 192.90876448506683,53.64844132528108 192.72770795930646,53.759860725749675 192.21239323214127,53.88520755127624 192.0591915564988,53.968772101626946 191.96169958108814,54.23339317773803 191.78064305532777,54.428377128556356 191.6831510799191,54.58157880419982 191.64136880474425,54.74870790490223 191.65529622980318,55.138675806538885 191.61351395462634,55.31973233229925 191.47423970404282,55.61220825852822 191.0564169522883,56.05788586039967 190.31826342418785,56.628910287796685 190.1929165986613,56.823894238616006 190.17898917360236,56.94924106414256 189.39905337032707,57.436700941188874 188.6191175670518,57.85452369294342 187.9506011642461,58.35591099504966 187.11495566073702,58.745878896686314 186.65535063380563,58.94086284750563 186.19574560687622,59.01049997279838 185.12333387737297,58.92693542244668 183.86986562210933,58.60660464610179 182.92280071813263,58.53696752080904 182.3657037157926,58.43947554540037 180.76404983406715,58.45340297045833 179.70556552962285,58.62053207116074 179.51058157880354,58.62053207116074 179.02312170175622,58.523040095751085 178.20140362330608,58.2305641695231 177.60252434579118,58.14699961917239 176.223709265001,57.77095914259271 174.16245035634614,57.52026549154057 173.78640987976647,57.42277351613092 173.07611120178393,57.18600729013674 171.64158642075995,56.99102333931742 171.19590881888948,56.87960393884981 171.00092486807017,57.255644415428506 170.75023121701705,57.57597519177438 169.94244056362587,58.32805614493177 169.7335291877476,58.45340297045833 169.5246178118713,58.523040095751085 168.53577063271777,58.64838692127764 168.15973015614006,58.75980632174526 167.90903650508693,58.92693542244668 167.15695555192758,59.56759697513744 167.07339100157785,59.734726075838864 167.0594635765189,59.87400032642437 167.1151732767527,60.02720200206685 167.22659267722034,60.19433110276926 167.4633589032145,60.36146020347068 168.13187530602218,60.723573254991415 168.4382786573091,60.94641205592764 168.66111745824432,61.16925085686287 169.20428703552543,61.949186660138146 169.60818236222104,62.199880311191265 170.0817148142094,62.35308198683374 170.8198683423098,62.54806593765306 171.09841684347884,62.67341276317962 171.37696534464985,62.85446928893999 171.72515097111165,63.188727490342835 172.2265382732159,63.81546161797465 172.58865132473665,64.14971981937848 172.92290952614147,64.62325227136684 173.4939339535385,65.23605897394069 173.64713562918294,65.38926064958416 174.1763777814051,65.73744627604594 174.19030520646206,65.84886567651355 174.1206680811713,66.00206735215703 173.7167727544737,66.36418040367776 173.64713562918294,66.46167237908742 173.66106305423992,66.60094662967194 173.77248245470753,66.7262934551985 174.56634568304176,67.1023339317772 174.8170393340949,67.25553560742065 175.17915238561562,67.54801153364863 175.80588651324643,68.1329633861056 176.11228986453335,68.34187476198287 176.34905609052754,68.41151188727463 176.69724171698934,68.43936673739154 177.63037919590906,68.30009248680702 177.96463739731192,68.31401991186597 178.20140362330608,68.39758446221667 178.38246014906645,68.53685871280119 178.46602469941814,68.6482781132688 178.50780697459302,68.87111691420503 178.3685327240075,69.38643164136923 178.27104074859884,69.58141559218755 177.65823404602497,70.0549480441759 177.25433871932938,70.55633534628116 176.98971764321928,70.72346444698357 176.502257766172,70.96023067297774 176.3072738153527,71.0855774985043 176.14014471465126,71.32234372449848 175.97301561394983,71.75409390131098 175.77803166313052,71.9490778521303 175.48555573690254,72.10227952777278 175.19307981067456,72.18584407812448 174.83096675915382,72.18584407812448 174.35743430716548,72.11620695283172 174.19030520646206,72.14406180294863 174.0649583809375,72.21369892824137 173.98139383058577,72.33904575376695 173.88390185517713,72.67330395517078 173.75855502965055,72.9239976062239 173.59142592894912,73.18861868233499 173.35465970295297,73.4393123333881 172.96469180131632,73.74571568467404 172.18475599804106,74.23317556172134 171.43267504488367,74.7624177139435 171.23769109406436,74.95740166476281 171.1401991186557,75.12453076546424 171.08448941842187,75.6259180675695 170.9312877427774,75.97410369403228 170.76415864207598,76.1690876448506 170.29062619008764,76.50334584625443 170.12349708938623,76.69832979707276 170.06778738915241,76.85153147271622 170.0120776889186,77.35291877482148 169.90065828844902,77.50612045046495 169.64996463739786,77.68717697622532 169.14857733529163,77.91001577716153 168.74468200859602,78.1467820031557 168.5775529078946,78.27212882868128 168.27114955660767,78.62031445514405 167.72797997932656,78.88493553125514 167.5747783036821,79.05206463195655 167.26837495239718,80.05483923616805 166.7948425004088,81.08546869049547 166.75306022523196,81.32223491648965 166.78091507534987,81.55900114248382 166.9480441760513,81.89325934388765 167.21266525216137,82.11609814482387 167.53299602850726,82.25537239540839 168.25722213154873,82.51999347151947 168.466133507425,82.64534029704603 168.66111745824432,82.86817909798125 168.71682715847814,83.17458244926819 168.64719003318538,83.3974212502044 168.5218432076608,83.60633262608168 167.76976225450144,84.33055872912216 167.58870572874108,84.58125238017529 167.3519395027469,85.16620423263126 166.96197160111024,85.83472063543891 166.75306022523196,86.32218051248523 166.30738262336152,87.5060116424571 166.20989064795086,87.86812469397783 166.168108372776,88.14667319514686 166.18203579783497,88.29987487079033 166.23774549806876,88.45307654643379 166.5441488493557,88.84304444807144 166.61378597464844,88.98231869865596 166.61378597464844,89.33050432511874 166.78091507534987,89.72047222675539 167.39372177792174,90.69539198084998 168.11794788096321,91.55889233447597 168.27114955660767,91.89315053587981 168.36864153201634,92.71486861432994 168.3268592568415,92.89592514009031 168.2015124313149,93.20232849137724 168.18758500625597,93.43909471737142 168.36864153201634,93.87084489418392 168.48006093248395,94.24688537076361 168.7028997334192,94.60899842228335 168.75860943365498,94.83183722321957 168.73075458353708,94.97111147380409 168.56362548283565,95.43071650073448 168.5775529078946,95.68141015178662 168.64719003318538,95.77890212719628 168.77253685871193,95.87639410260593 169.5385452369283,96.15494260377595 169.7613840378655,96.28028942930153 169.85887601327414,96.37778140471119 170.10956966432727,96.76774930634883 170.42990044067315,97.15771720798647 170.45775529078907,97.31091888362994 170.42990044067315,97.75659648550138 170.471682715848,98.00729013655351 170.59702954137458,98.28583863772354 170.86165061748466,98.60616941406842 170.77808606713495,98.91257276535535 170.7920134921919,99.14933899134952 170.87557804254362,99.28861324193404 171.2237636690054,99.69250856863063 171.34911049453197,100.01283934497552 171.39089276970682,100.2774604210866 171.32125564441606,100.55600892225662 171.2794733692392,101.12703334965464 171.3630379195909,101.36379957564881 171.58587672052613,101.61449322670094 171.8783526467541,101.80947717752026 172.15690114792514,101.89304172787097 172.78363527555595,101.96267885316372 173.24324030248536,102.04624340351444 174.37136173222243,102.51977585550279 174.8170393340949,102.77046950655591 175.19307981067456,103.10472770795874 175.37413633643493,103.35542135901187 175.65268483760397,103.88466351123404 176.0147978891247,104.27463141287167 176.08443501441747,104.38605081333928 176.04265273924062,104.44176051357408 175.91730591371405,104.48354278874895 174.99809585985525,104.51139763886584 174.6081279582166,104.5810347641586 174.35743430716548,104.72030901474312 174.19030520646206,104.92922039062039 173.67499047929886,105.8762852945971 173.57749850389018,106.16876122082607 173.48000652847955,106.69800337304822 173.27109515260327,107.12975354986072 173.15967575213566,107.43615690114765 173.13182090201775,107.77041510255148 173.1457483270767,107.95147162831185 173.38251455307088,108.35536695500745 173.41036940318875,108.46678635547606 173.34073227789602,108.53642348076782 173.02040150155014,108.68962515641128 172.83934497578977,108.94031880746441 172.769707850497,109.14923018334169 172.68614330014728,109.90131113649907 172.60257874979558,110.2355693379029 172.42152222403521,110.54197268918983 171.98977204722172,111.04335999129509 171.906207496872,111.25227136717236 171.7947880964044,111.76758609433656 171.7669332462865,112.10184429574039 171.7947880964044,112.49181219737804 171.8504977966382,112.78428812360602 172.03155432239856,113.09069147489195 172.5050867743869,113.46673195147164 172.61650617485455,113.60600620205615 172.7418530003811,114.20488547957108 172.92290952614147,114.62270823132562 173.13182090201775,115.27729720907433 173.27109515260327,115.55584571024436 173.07611120178393,115.59762798541922 172.96469180131632,115.66726511071198 172.88112725096462,115.8901039116482 172.64436102497046,116.04330558729066 172.67221587508834,116.15472498775927 172.81149012567386,116.44720091398726 173.18753060225157,117.01822534138526 173.34073227789602,117.17142701702873 173.50786137859743,117.28284641749634 173.98139383058577,117.51961264349052 174.9841684347963,118.10456449594649 177.03149991839416,118.74522604863725 177.3100484195632,118.87057287416381 177.46325009520766,118.98199227463142 177.61645177085012,119.16304880039179 177.83929057178534,119.6226538273212 178.2571133235399,120.06833142919264 178.35460529895053,120.22153310483611 178.50780697459302,120.89004950764378 178.70279092541233,121.39143680974902 178.74457320058718,121.58642076056735 178.70279092541233,122.547413089603 178.6610086502355,122.70061476524647 178.32675044883266,123.18807464229377 177.9089276970781,123.53626026875556 177.7975082966105,123.66160709428212 177.64430662096802,123.94015559545214 177.57466949567527,124.24655894673808 177.5607420706163,124.52510744790811 177.60252434579118,124.91507534954575 177.88107284696218,125.55573690223552 177.92285512213704,125.72286600293793 177.83929057178534,126.19639845492628 177.7975082966105,126.7674228823243 177.72787117131773,127.35237473478026 177.72787117131773,127.56128611065753 177.81143572166943,127.97910886241208 177.7139437462588,128.39693161416662 177.53288722049842,128.70333496545354 177.05935476851008,129.1768674174419 176.90615309286758,129.72003699472302 176.3072738153527,130.08215004624276 176.02872531418365,130.3189162722379 175.75017681301262,130.7506664490504 175.65268483760397,131.08492465045424 175.6805396877199,131.29383602633152 175.8755236385392,131.6141668026764 176.4186932158203,132.18519123007442 177.0175724933352,132.68657853217968 177.18470159403662,132.89548990805696 177.22648386921347,133.17403840922697 177.19862901909556,133.46651433545495 177.11506446874387,133.8007725368588 177.0175724933352,134.02361133779402 176.75295141722313,134.3996518143737 176.04265273924062,135.04031336706348 175.73624938795567,135.3745715684673 175.48555573690254,135.6949023448122 175.15129753549772,136.2380719220933 174.8170393340949,136.44698329797058 174.02317610576065,136.79516892443235 173.67499047929886,136.87873347478308 172.5190141994439,136.96229802513477 171.34911049453197,137.15728197595308 170.4159730156142,137.15728197595308 170.22098906479488,137.2408465263038 170.10956966432727,137.49154017735694 170.06778738915241,138.22969370545636 169.97029541374178,138.7310810075616 169.98422283880072,139.35781513519342 170.0399325390345,139.5388716609538 170.15135193950215,139.69207333659728 170.75023121701705,140.09596866329386 170.80594091725087,140.23524291387838 170.80594091725087,140.31880746422908 170.59702954137458,141.11267069256232 170.65273924160837,141.72547739513618 170.6248843914905,142.07366302159798 170.0399325390345,143.39676840215435 170.10956966432727,143.60567977803163 170.45775529078907,144.98449485882182 170.40204559055525,145.13769653446428 170.17920678962003,145.48588216092708 169.8170937380993,145.87585006256472 169.64996463739786,146.11261628855888 169.60818236222104,146.34938251455307 169.64996463739786,147.1153908927694 169.69174691257274,147.25466514335392 169.80316631304035,147.42179424405631 170.12349708938623,147.71427017028432 171.04270714324502,148.31314944779922 171.7947880964044,148.6056253740272 171.86442522169517,148.67526249931996 171.8783526467541,148.74489962461172 171.75300582122756,149.1209401011914 171.34911049453197,149.74767422882323 170.95914259289532,150.62510200750717 170.61095696643153,151.16827158478827 170.48561014090697,151.57216691148486 170.3602633153804,152.3103204395843 170.23491648985384,152.64457864098813 169.71960176268865,153.4523692943803 169.03715793482402,154.0373211468363 168.88395625917957,154.2323050976546 168.80039170882984,154.44121647353188 168.77253685871193,154.83118437516953 168.81431913388877,155.51362820303513 168.71682715847814,156.0707252053752 168.71682715847814,156.2657091561935 168.81431913388877,156.6417496327732 169.02323050976506,157.18491921005332 169.10679506011675,157.86736303791895 169.23214188564333,158.41053261520005 169.58032751210513,159.17654099341738 169.88673086339205,159.65007344540572 170.09564223926833,159.84505739622404 170.471682715848,160.10967847233513 171.00092486807017,160.33251727327135 171.43267504488367,160.4021543985631 172.1708285729821,160.31858984821238 172.95076437625738,160.3464446983293 173.91175670529304,160.16538817256892 174.4688537076331,160.15146074751098 174.9841684347963,160.2628801479786 175.80588651324643,160.51357379903172 176.78080626734103,160.70855774985003 177.60252434579118,160.95925140090316 177.7975082966105,161.07067080137077 177.95070997225295,161.2099450519553 178.1039116478974,161.41885642783257 178.41031499918435,161.9759534301726 178.6888635003534,162.39377618192717 178.9117023012886,162.6166149828624 179.2041782275166,162.8394537837986 180.527283608073,163.66117186224875 180.70834013383336,163.7308089875415 181.2654371361734,163.82830096295018 181.59969533757624,163.9397203634188 182.37963114085153,164.39932539034817 182.6163973668457,164.42718024046508 182.92280071813263,164.38539796529022 183.77237364670066,164.03721233882743 184.12055927316246,163.96757521353567 185.4575920787758,163.9397203634188 185.24868070289952,164.39932539034817 184.64980142538462,165.48566454491038 184.12055927316246,167.0037538762851 184.0787769979876,167.21266525216237 184.0787769979876,167.4912137533324 184.14841412327837,167.88118165497005 184.25983352374797,168.09009303084633 185.16511615254782,169.2182144605844 185.73614057994683,169.7892388879814 186.1261084815835,170.06778738915142 187.35172188673118,170.7084489418422 187.71383493825192,170.97307001795326 187.93667373918717,171.19590881888848 188.11773026494754,171.47445732005852 188.36842391600064,171.97584462216378 188.53555301670207,172.75578042543907 188.5912627169359,173.34073227789503 188.7583918176373,173.46607910342158 189.66367444643913,174.0649583809365 190.16506174854538,174.3435068821065 191.2514009031056,174.71954735868522 193.02018388553444,175.1512975354987 193.3544420869373,175.30449921114118 193.39622436211215,175.37413633643393 193.39622436211215,175.4716283118436 193.145530711061,175.7501768130136 192.72770795930646,176.0426527392416 190.56895707524097,177.03149991839416 189.63581959632126,177.35183069473905 188.3544964909417,177.6303791959081 187.9227463141282,177.75572602143464 187.24030248626357,178.08998422283847 186.5160763832221,178.61922637506063 184.76122082585223,179.3434524781021 183.49382514552966,179.7194929546808 182.58854251672977,179.8309123551494 182.28213916544286,179.92840433055807 181.83646156357042,180.2069528317281 181.29329198628932,180.6387030085416 180.3740819324305,181.65540503781006 180.06767858114358,181.94788096403903 179.19025080245962,182.14286491485734 178.11783907295637,182.532832816495 177.03149991839416,182.81138131766502 176.58582231652173,182.9924378434254 175.9033784886571,183.34062346988716 174.78918448397698,183.81415592187554 173.5496436537723,184.20412382351316 173.04825635166802,184.32947064903973 172.7418530003811,184.32947064903973 172.07333659757344,184.23197867363007 171.23769109406436,184.00913987269385 170.94521516783635,183.967357597519 170.59702954137458,183.967357597519 169.99815026385966,184.0230672977528 169.7892388879814,184.00913987269385 169.329633861052,183.8559381970514 168.49398835754292,183.4520428703548 168.02045590555454,183.36847832000407 167.56085087862516,183.39633317012098 165.66672107066975,183.66095424623205 165.23497089385825,183.81415592187554 164.7892932919858,184.0787769979866 164.2739785648226,184.5662368750339 163.20156683531934,186.0007616560579 162.97872803438412,186.55785865839695 162.79767150862375,187.3795767368471 162.57483270768654,187.79739948860166 161.90631630487886,188.52162559164313 161.4049290027746,189.17621456939185 160.81997715031864,189.74723899678986 160.59713834938142,190.02578749795987 160.43000924868002,190.37397312442167 160.36037212338726,190.6525216255917 160.3464446983303,191.47423970404185 160.23502529786268,192.07311898155675 159.98433164680955,192.5466514335451 159.58043632011396,192.99232903541656 159.30188781894293,193.21516783635278 158.98155704259904,193.3544420869373 158.48016974049278,193.438006637288 158.06234698873826,193.4101517871711 158.06234698873826,193.70262771339907 157.97878243838656,194.0368859148029 157.76987106251028,194.34328926608984 157.57488711169094,194.55220064196712 157.08742723464366,194.8446765681951 155.9593058049066,195.29035417006654 154.8033295250536,195.94494314781525 154.39943419835603,196.29312877427705 153.8005549208411,196.93379032696782 153.52200641967207,197.15662912790305 153.2295304934441,197.2819759534296 152.8813448669823,197.37946792883926 151.8785702627718,197.56052445459963 151.08470703443757,197.75550840541794 150.66688428268301,197.89478265600346 150.34655350633716,198.03405690658798 150.0122953049343,198.24296828246526 149.76160165388117,198.43795223328357 149.59447255317977,198.64686360916085 149.5526902780049,198.883629835156 149.6641096784725,199.13432348620816 149.84516620423287,199.30145258690956 150.33262608128018,199.6635656384303 150.48582775692265,199.81676731407376 150.63902943256514,200.05353354006795 150.97328763396996,200.65241281758287 151.26576356019794,201.05630814427946 151.60002176160077,201.33485664544847 152.26853816440845,201.71089712202817 152.3660301398191,201.8501713726127 152.37995756487607,202.045155323431 152.22675588923357,202.61617975082902 152.14319133888188,203.49360752951395 151.90642511288772,204.02284968173612 151.66965888689353,204.343180458081 151.54431206136698,204.44067243349065 151.37718296066555,204.49638213372447 150.68081170774198,204.52423698384138 150.30477123116228,204.59387410913413 148.5777705239103,205.27631793699973 148.34100429791613,205.3459550622925 148.02067352157025,205.30417278711664 147.60285076981572,205.16489853653212 146.6836407159569,204.60780153419208 146.4886567651376,204.59387410913413 146.2797453892613,204.70529350960174 146.00119688809028,205.02562428594663 145.49980958598601,205.9169794896905 145.44409988575222,206.09803601545087 145.44409988575222,206.2373102660354 145.52766443610193,206.44622164191267 145.63908383656954,206.62727816767304 145.8201403623299,206.82226211849135 146.15439856373473,207.07295576954448 146.89255209183318,207.88074642293665 146.948261792067,207.9921658234043 146.9204069419511,208.075730373755 146.37723736466998,208.28464174963227 146.07083401338303,208.49355312550952 145.88977748762267,208.68853707632886 145.45802731080917,209.31527120396066 145.29089821010777,209.49632772972103 144.6084543822431,209.73309395571522 144.28812360589725,209.9141504814746 143.9538654044944,210.27626353299533 143.63353462814854,210.83336053533537 143.50818780262196,210.95870736086096 143.20178445133504,211.0561993362706 142.7839616995805,211.0840541863875 142.2686469724173,211.09798161144647 141.8926064958376,211.04227191121265 141.85082422066273,211.27903813720684 141.73940482019512,211.52973178825897 141.2937272183227,212.1425384908328 140.76448506610052,213.01996626951677 140.55557369022424,213.61884554703167 140.41629943963875,213.8973940482017 140.1934606387035,214.17594254937174 139.92883956259143,214.4127087753659 139.39959741036927,214.6494750013601 139.0792666340234,214.71911212665185 136.96229802513477,214.55198302595042 136.3494913225609,214.59376530112627 135.58348294434458,214.7330395517108 135.2910070181166,214.90016865241222 135.08209564223833,215.17871715358223 134.98460366682966,215.42941080463436 134.84532941624417,216.11185463250098 134.69212774060168,216.61324193460624 134.594635765193,216.82215331048351 134.45536151460752,217.00320983624388 134.14895816332057,217.15641151188734 133.61971601109843,217.29568576247186 133.09047385887627,217.35139546270568 132.46373973124346,217.29568576247186 132.19911865513336,217.30961318752983 131.90664272890538,217.37925031282256 131.75344105326093,217.47674228823223 131.6698765029112,217.61601653881675 131.6698765029112,217.78314563951915 131.725586203145,217.96420216527855 131.86486045372854,218.1731135411558 132.26875578042612,218.57700886785238 132.85370763288208,218.980904194548 133.06261900875836,219.24552527065907 133.41080463522016,220.33186442522128 133.4247320602791,220.54077580109856 133.3690223600453,220.69397747674202 133.18796583428494,220.83325172732654 132.83978020782314,220.9585985528531 131.34954572656534,221.29285675425695 130.31891627223692,221.58533268048492 129.62254501931335,221.9056634568298 129.0375931668574,222.3374136336433 128.87046406615596,222.420978183994 128.13231053805555,222.61596213481232 127.93732658723623,222.7413089603389 127.53343126054062,223.22876883738618 127.21310048419475,223.52124476361416 125.8482128284635,224.35689026712325 125.06827702518822,224.6632936184102 124.81758337413709,224.83042271911162 124.53903487296607,225.15075349545648 124.42761547249845,225.45715684674343 124.48332517273226,226.71062510200707 124.4136880474395,227.40699635493164 124.23263152167914,227.74125455633447 123.98193787062799,227.97802078232965 123.57804254393042,228.17300473314796 122.28279201349193,228.5072629345518 121.33572710951522,228.63260976007837 120.6811381317665,228.68831946031216 120.04047657907672,228.67439203525322 119.38588760132801,228.57690005984355 118.82879059898795,228.40977095914215 118.1602741961803,228.1033676078552 118.36918557205856,228.47940808443488 119.12126652521594,229.593602089113 119.42766987650288,230.33175561721345 119.51123442685457,230.6103041183825 119.52516185191153,231.19525597083944 119.6505086774381,231.8637723736461 119.6505086774381,232.25374027528375 119.58087155214534,232.8665469778576 119.45552472662077,233.3540068549039 119.17697622544975,234.00859583265265 118.59202437299378,235.01137043686413 118.2995484467658,235.624177139437 117.82601599477745,237.07262934551895 117.71459659430984,237.53223437244935 117.672814319133,237.88041999891115Z"/>
  </g>
</svg>