<?xml version="1.0" encoding="UTF-8" standalone="no"?>
<svg viewBox="0 0 256 186.7639052950555" xmlns="http://www.w3.org/2000/svg">
  <style>
    g.zone {
      fill: lightgray;
      stroke-width: 2;
      stroke-linecap: square;
      stroke-linejoin: bevel;
      stroke-miterlimit: 3;
      stroke-opacity: 0.8;
      stroke: black;
      fill-opacity: 0.3;
    }
  </style>
  <g class="zone" id="zone">
    <path d="M106.86497868625123,161.53335730060158 106.5362847311388,161.9803810795548 106.2864773252523,162.4537003749179 106.16814750141153,162.95331518668903 106.15499974320659,163.4660777566651 106.22073853422944,163.8736582610044 106.37851163268319,164.39956858918447 107.16737712495377,166.30599352883902 107.45662780545325,167.1868933285405 107.61440090390886,168.08094088644785 107.65384417852182,168.54111242360509 107.62754866211193,169.09331826819505 107.5223665964761,169.81644496944278 107.0753428175229,171.67027887627847 106.86497868625123,172.68265625802567 106.5362847311388,175.23332134970107 106.35221611627517,176.20625545683436 106.19444301782143,176.67957475219654 105.98407888654789,177.11345077294573 105.68168044784535,177.547326793694 105.37928200914094,177.86287299060243 104.57726875866541,178.52026090082822 102.07919469980979,180.25576498382316 100.869600944994,181.13666478352556 99.68630270658812,182.05700785784092 97.30655847157328,184.00287607210845 96.47824970468785,184.63396846592434 95.36069025730482,185.34394740896806 94.61126803964908,185.71208463869442 94.05906219505817,185.922448769967 93.48056083406111,186.10651738482971 92.91520723126712,186.25114272507943 92.21837604642742,186.3694725489202 91.60043141081552,186.43521133994213 91.00878229161351,186.44835909814708 90.11473473370522,186.43521133994213 87.69554722407554,186.19855169226153 86.43336243644372,186.17225617585257 85.144882132402,186.2774382414884 82.2260798110012,186.65872322941968 80.68779210107299,186.7639052950555 79.38616403882632,186.73760977864654 78.0187971855568,186.5535411637829 74.6529710852028,185.83041446253517 73.21986544091229,185.42283395819493 72.22063581736816,185.02840121205963 71.23455395203086,184.48934312567556 70.23532432848862,183.81880745724482 68.02650095013058,182.1358944070678 67.14560115042912,181.5048020132519 66.08063273586214,180.8474141030261 65.02881207950198,180.34779929125497 63.97699142314181,179.97966206152861 62.93831852498472,179.72985465564307 61.781315802988736,179.53263828257542 59.243798469518275,179.20394432746204 58.37604642801988,179.0461712290083 57.48199887011346,178.80951158132675 56.58795131220704,178.4676698680103 55.641312721482706,177.98120281444318 54.85244722921212,177.46844024446713 53.9583996713057,176.8373478506512 51.276256997584575,174.7994453289519 50.21128858301947,173.91854552924946 48.69929638950115,172.4328488521401 48.04190847927628,171.86749524934612 47.27933850341371,171.42047147039293 46.8586102408704,171.2364028555302 46.42473422012213,171.09177751528048 45.88567613373617,170.9734476914397 45.346618047352074,170.89456114221284 44.79441220276304,170.88141338400789 44.21591084176411,170.90770890041685 43.072055877971195,171.06548199887152 41.16563093831758,171.51250577782474 40.31102665502413,171.65713111807446 39.298649273276936,171.7623131837103 38.25997637512172,171.7754609419143 37.48425864105607,171.7097221508924 36.734836423398455,171.5913923270516 34.131580298905135,170.93400441682581 32.9614298187042,170.73678804375817 32.38292845770527,170.6973447691452 31.778131580298314,170.6973447691452 29.12228442298708,170.9208566586218 27.728622053309536,170.9208566586218 26.269220892609134,170.7630835601671 23.06116789070886,170.19772995737313 22.259154640233326,170.11884340814626 21.536027938985598,170.0925478917373 20.73401468851006,170.1319911663512 19.89255816342156,170.25032099019197 16.789687227157113,170.98659544964372 15.67212777977409,171.18381182271136 15.09362641877516,171.24955061373421 14.357351959322486,171.28899388834813 13.844589389348284,171.27584613014318 13.331826819372214,171.21010733912033 12.70073442555537,171.06548199887152 12.187971855579299,170.85511786759892 11.63576601099026,170.53957167069052 11.070412408196274,170.1319911663512 9.99229623542622,169.18535257562593 7.073493914025413,166.35858456165695 6.6396178932771495,165.97729957372567 6.166298597914048,165.66175337681818 5.837604642801614,165.47768476195455 5.390580863848405,165.3199116635008 4.904113810280358,165.21472959786496 4.522828822350009,165.18843408145506 3.4973036823978694,165.22787735606897 1.5908787427442561,165.45138924554558 1.1701504802009384,165.43824148734157 0.8414565250885041,165.37250269631872 0.5916491192020078,165.25417287247794 0.44702377895320944,165.13584304863716 0.3286939551124342,164.9912177083874 0.21036413127165893,164.8071490935247 0.06573879102099212,164.28123876534465 0,163.57125982230093 0.013147758203077377,162.9007241538711 0.0788865492259379,162.1907452108274 0.6047968774069536,159.39027271326643 0.9203430743144421,156.22166298598006 1.0781161727681863,155.41964973550546 1.3673668532676515,154.47301114478017 1.6171742591541478,153.92080530019115 1.906424939653613,153.3817472138061 2.287709927583962,152.80324585280812 3.2212007601033497,151.48847003235653 3.681372297261505,150.69960454008594 4.062657285191854,149.89759128961134 4.890966052077281,147.79394997689008 5.193364490779823,147.17600534127817 5.456319654871265,146.71583380412002 5.85075240100656,146.15048020132602 6.310923938162847,145.611422114941 6.876277540956831,145.11180730316988 7.494222176568731,144.66478352421666 7.954393713726886,144.40182836012616 8.361974218067127,144.21775974526346 8.808997997020336,144.05998664680877 9.334908325201352,143.941656822968 9.795079862357639,143.88906579015008 10.26839915772074,143.88906579015008 10.741718453083841,143.941656822968 11.201889990240128,144.03369113039983 12.030198757125554,144.3229418108993 12.989985106054833,144.82255662267042 14.107544553437858,145.598274356737 15.724718812592005,146.89990241898272 16.382106722816875,147.38636947254983 17.197267731497355,147.8991320425259 18.183349596834656,148.38559909609302 18.68296440860765,148.55651995275076 19.208874736786797,148.7011452930005 19.682194032149898,148.79317960043232 20.26069539314883,148.8326228750462 20.79975347953292,148.8326228750462 21.338811565917016,148.76688408402336 21.99619947614375,148.63540650197857 22.403779980482124,148.51707667813778 23.113758923526774,148.24097375584327 23.92891993220539,147.84654100970798 24.625751117045095,147.45210826357268 26.86087001181114,146.0452981356902 27.68917877869657,145.611422114941 28.464896512762213,145.28272815982857 29.201170972214886,145.04606851214703 29.97688870628053,144.87514765548832 32.40922397411516,144.5990447331938 33.44789687227038,144.4149761183311 34.03954599147425,144.24405526167243 34.59175183606329,144.03369113039983 35.06507113142639,143.82332699912817 35.60412921781048,143.52092856042376 36.22207385342239,143.11334805608445 36.629654357762625,142.784654100972 38.61496584664218,140.91767243593137 39.16717169123308,140.45750089877322 39.73252529402707,140.03677263622896 40.92897129063603,139.31364593498122 43.12464691078911,138.2092342458022 43.82147809562881,137.82794925787186 44.6103435878994,137.3283344460998 45.175697190693384,136.89445842535156 45.75419855169232,136.39484361358043 46.14863129782761,135.9478198346272 46.64824610959874,135.31672744081038 47.713214524163845,133.844178521905 48.120795028504084,133.33141595192896 48.712444147706094,132.67402804170408 49.30409326690997,132.08237892250114 49.93518566072495,131.5038775615022 51.013301833495,130.6492732782097 52.13086128087802,129.93929433516598 53.10379538801225,129.45282728159887 53.91895639669273,129.16357660110035 55.536130655846875,128.71655282214618 56.206666324276696,128.46674541626064 56.469621488366265,128.33526783421584 56.77201992707068,128.11175594473923 56.94294078372937,127.94083508808055 57.07441836577322,127.75676647321785 57.17960043141092,127.50695906733135 57.192748189613994,127.13882183760595 57.061270607570144,126.6917980586518 56.86405423450156,126.36310410353937 56.60109907041199,126.21847876328964 56.11463201684581,126.0738534230399 55.641312721482706,125.99496687381303 55.1942889425295,125.98181911560901 54.287093626418134,126.11329669765381 53.3404550356938,126.36310410353937 52.23604334651385,126.75753684967466 49.52760515638658,127.80935750603577 48.51522777463938,128.1380514611482 47.46340711827735,128.44044989985167 46.55621180216598,128.6245185147153 45.71475527707748,128.72970058035114 44.88644651019392,128.7428483385561 44.22905859996905,128.70340506394217 43.584818447947264,128.5850752401014 42.91428277951745,128.42730214164766 41.56006368445287,127.94083508808055 37.86554362898642,126.31051307072146 35.82764110728709,125.29813568897426 34.59175183606329,124.56186122952158 33.710852036361814,123.91762107750073 32.88254326947639,123.194494376253 32.19885984284163,122.44507215859538 31.567767449026654,121.65620666632479 31.015561604435746,120.84104565764524 28.05731600842197,116.02896615479483 27.794360844332395,115.4899080684098 27.61029222946876,114.96399774022973 27.531405680240955,114.37234862102679 27.557701196650846,113.85958605105071 27.702326536899644,113.37311899748454 27.92583842637625,112.91294746032638 28.254532381490552,112.49221919778212 28.688408402238817,112.11093420985178 29.18802321400994,111.80853577114736 29.740229058598977,111.57187612346675 30.35817369421088,111.40095526680805 31.107595911868497,111.29577320117222 31.975347953365027,111.28262544296729 32.80365672025045,111.34836423399014 33.7239997945649,111.47984181603493 36.0511529967637,111.90057007857918 36.774279698011426,111.992604386011 37.523701915669044,112.03204766062397 38.37830619896249,111.97945662780606 39.18031944943616,111.83483128755633 40.00862821632159,111.54558060705779 40.57398181911557,111.26947768476234 41.060448872681754,110.94078372964991 41.54691592624793,110.5332032253106 41.993939705201136,110.02044065533453 42.29633814390555,109.56026911817638 42.55929330799512,109.0869498228142 42.782805197471724,108.53474397822517 43.40074983308363,106.62831903857062 43.67685275537815,105.90519233732289 44.15017205074125,105.09003132864335 44.386831698422796,104.77448513173492 44.79441220276304,104.3143135945777 45.33347028914713,103.81469878280565 45.95141492475903,103.35452724564843 46.55621180216598,102.97324225771713 48.331159159775744,101.93456935956098 49.42242309074888,101.21144265831326 50.10610651738364,100.64608905551927 50.526834779928826,100.22536079297502 51.74957629294767,98.8054029068876 52.44640747778738,98.10857172204882 52.89343125674059,97.77987776693638 53.31415951928391,97.53007036105082 53.695444507214255,97.35914950439214 54.16876380257736,97.20137640593745 54.61578758153057,97.12248985671057 55.03651584407576,97.08304658209761 55.43094859021105,97.10934209850657 55.94371116018712,97.2145241641424 56.28555287350263,97.34600174618718 56.640542345024954,97.54321811925483 56.956088541934314,97.77987776693638 57.24533922243191,98.08227620563986 57.42940783729555,98.3189358533214 57.652919726772154,98.70022084125176 57.87643161624876,99.26557444404574 58.00790919829448,99.80463253043077 58.310307636998886,101.50069333881272 58.481228493655706,102.05289918340176 58.74418365774715,102.69713933542262 59.112320887472556,103.38082276205738 59.414719326176964,103.81469878280565 59.835447588720285,104.32746135278171 60.33506240049328,104.81392840634882 60.67690411380879,105.10317908684829 61.255405474807716,105.5107595911876 61.75502028657884,105.78686251348212 62.26778285655491,106.02352216116367 62.85943197575879,106.22073853423132 63.306455754712,106.32592059986715 63.88495711570906,106.40480714909401 64.34512865286722,106.39165939089 64.71326588259448,106.33906835807208 65.14714190334276,106.20759077602636 65.51527913306815,105.9972266447547 65.76508653895465,105.7737147552781 66.10692825227203,105.3266909763249 66.88264598633768,103.82784654101059 67.31652200708594,103.13101535617182 67.78984130244903,102.49992296235497 69.15720815571856,100.85645318679093 70.6954958656449,98.79225514868358 71.30029274305372,98.12171948025376 71.9313851368687,97.59580915207275 72.4835909814596,97.2276719223464 73.07524010066162,96.91212572543893 73.70633249447846,96.68861383596231 74.46890247033916,96.53084073750763 75.28406347901964,96.45195418828077 76.00719018026737,96.46510194648572 76.63828257408422,96.51769297930363 77.44029582455974,96.63602280314346 79.91207436700735,97.16193313132449 80.92445174875454,97.33285398798317 82.18663653638636,97.438036053619 83.0675363360897,97.3985927790051 83.85640182836029,97.25396743875537 84.59267628781296,97.0041600328698 85.10543885778716,96.75435262698424 86.80149966616912,95.71567972882809 87.7612860150984,95.29495146628383 88.44496944173316,95.08458733501217 89.04976631914012,94.9662575111714 89.68085871295696,94.87422320373959 90.66694057829613,94.79533665451271 91.98171639874587,94.82163217092167 93.3227877356055,94.93996199476244 95.21606491705603,95.20291715885202 96.92527348364106,95.53161111396538 98.05598068922903,95.84715731087287 99.05521031277316,96.24159005700817 99.92296235426967,96.72805711057528 100.52775923167663,97.18822864773344 101.22459041651634,97.84561655795831 101.84253505212824,98.59503877561593 103.55174361871514,101.19829490010831 104.78763288993893,102.84176467567235 105.93148785372998,104.20913152894094 106.6809100713876,104.9322582301896 107.44348004725016,105.49761183298358 108.14031123208801,105.86574906270899 109.0080632735864,106.22073853423132 111.17744337732958,106.95701299368399 111.99260438601007,107.31200246520538 112.79461763648374,107.71958296954563 113.49144882132344,108.14031123208987 114.24087103898106,108.67936931847396 114.92455446561583,109.23157516306394 115.6345334086586,109.90211083149376 116.33136459349831,110.63838529094643 117.15967336038187,111.5981716398757 118.02742540187839,112.68943557084977 118.73740434492305,113.67551743618802 119.21072364028429,114.39864413743574 119.61830414462452,115.10862308047946 121.09085306352986,117.94853885265339 121.48528580966517,118.55333573006128 121.87971855580047,119.06609830003642 122.40562888398148,119.60515638642144 122.89209593754765,120.01273689076169 123.45744954034164,120.43346515330593 125.41646551281316,121.7350932155526 126.03441014842507,122.20841251091475 126.66550254224191,122.78691387191276 127.27029941964886,123.40485850752465 127.86194853885274,124.08854193415942 129.8472600277323,126.59976375122092 130.60983000359485,127.52010682553629 131.05685378254807,128.0065738791034 131.56961635252415,128.4798931744656 132.01664013147735,128.84803040419192 132.4768116686355,129.17672435930436 132.95013096399674,129.46597503980382 133.4365980175648,129.70263468748442 134.4226798829021,130.07077191721078 135.61912587951292,130.33372708130128 136.84186739253175,130.478352421551 137.88054029068886,130.491500179755 138.8008833650033,130.45205690514206 139.85270402136533,130.34687483950623 142.3639258384259,130.00503312618883 143.428894252991,129.91299881875702 144.07313440501278,129.89985106055207 144.6910790406247,129.93929433516598 145.66401314775706,130.0970674336197 146.2951055415739,130.3074315648923 146.84731138616294,130.5703867289828 147.37322171434394,130.92537620050422 147.82024549329716,131.3198089466395 148.16208720661453,131.72738945097882 148.55651995274982,132.3321863283867 148.8194751168394,132.88439217297574 149.00354373170305,133.48918905038363 149.09557803913393,133.98880386215475 149.12187355554383,134.37008885008603 149.09557803913393,135.0669200349248 149.016691489908,135.52709157208204 148.88521390786227,135.96096759283122 148.56966771095477,136.67094653587495 148.09634841559168,137.34148220430475 147.84654100970704,137.60443736839525 147.41266498895692,137.99887011453058 146.78157259514194,138.43274613527882 145.86122952082562,138.892917672437 144.99347747932723,139.19531611114047 143.96795233937695,139.41882800061705 143.02131374865075,139.52401006625288 139.95788608700116,139.73437419752548 138.51163268450568,139.89214729597924 136.78927635971385,140.15510246006974 134.56730522315274,140.58897848081892 130.72815982743563,141.4567305223164 128.71655282214618,141.95634533408753 128.01972163730647,142.1798572235641 127.46751579271745,142.40336911304072 126.91530994812841,142.66632427713122 126.52087720199312,142.88983616660784 125.94237584099419,143.35000770376507 125.70571619331263,143.5866673514466 125.455908787428,143.91536130655905 125.2981356889724,144.17831647064955 125.15351034872359,144.5464537003759 125.04832828308776,144.91459093010224 125.02203276667787,145.23013712701066 125.04832828308776,145.83493400441762 125.25869241435942,146.57120846387028 125.54794309485888,147.22859637409607 126.40254737815233,148.88521390786414 126.63920702583202,149.47686302706708 126.77068460787774,149.96333008063326 126.82327564069566,150.60757023265504 126.74438909146971,151.08088952801722 126.57346823481103,151.48847003235653 126.3893996199474,151.75142519644703 126.23162652149365,151.90919829490076 125.98181911560715,152.0932669097644 125.75830722613054,152.2247444918092 125.16665810692854,152.42196086487684 124.41723588927091,152.54029068871762 122.70802732268402,152.64547275435345 121.73509321555166,152.77695033639824 120.84104565764338,152.9873144676708 120.02588464896476,153.3291561809882 119.46053104617077,153.63155461969168 118.96091623439965,153.97339633300905 116.12100046222479,156.1559241949572 114.95084998202384,156.99738072004664 113.78069950182291,157.7468029377033 112.89979970212143,158.2727132658834 111.99260438601007,158.73288480304154 109.31046171228894,159.8898875250385 108.58733501104122,160.23172923835585 108.07457244106514,160.53412767705933 107.66699193672677,160.81023059935387 107.1542293667507,161.2309588618981 106.86497868625123,161.53335730060158Z"/>
    <path d="M209.24657182476543,143.41574649478792 208.944173386061,143.78388372451425 208.72066149658443,144.2046119870585 208.65492270556155,144.4544193929441 208.5891839145387,144.9934774793291 208.5365928817208,145.13810281957885 208.44455857428989,145.28272815982857 207.9055004879058,145.67716090596386 207.4584767089526,146.12418468491708 207.2086693030661,146.32140105798473 206.24888295413683,146.7947203533469 205.1050279903439,147.59673360382243 204.35560577268816,148.20153048122938 203.6982178624614,148.81947511684126 203.51414924759965,149.0166914899089 203.39581942375887,149.24020337938552 203.23804632530513,149.91073904781535 202.96194340300875,150.62071799085905 202.804170304555,150.8573776385406 202.4097375584197,151.37014020851575 201.39736017667252,152.4351086230818 200.9503363977193,152.94787119305693 200.77941554106062,153.07934877510263 199.92481125776715,153.52637255405585 199.63556057726956,153.80247547635037 199.5435262698368,153.999691849418 199.5435262698368,154.17061270607672 199.81962919213132,154.89373940732443 200.1088798726308,155.82723023984477 200.13517538904068,156.10333316213928 200.05628883981288,156.26110626059395 199.9379590159721,156.35314056802486 199.66185609367759,156.4583226336616 197.84746546145485,156.72127779775118 197.30840737507077,156.89219865440987 196.90082687073053,157.0762672692735 196.78249704688974,157.24718812593218 196.78249704688974,157.54958656463566 196.8745313543225,157.83883724513512 197.1637820348201,158.45678188074703 197.2426685840479,158.8906579014953 197.2163730676399,159.19305634019878 197.0717477273892,159.4954547789032 196.80879256329965,159.69267115197084 196.1382568948698,159.96877407426535 195.71752863232464,160.20543372194692 193.99517230753466,161.52020954239757 193.40352318833078,161.80946022289703 192.9696471675825,161.9672333213508 192.5752144214472,162.00667659596468 191.8520877201995,161.99352883775975 191.1552565353598,162.03297211237364 190.72138051461152,162.08556314519157 190.48472086693,162.15130193621349 190.1428791536126,161.7963124646921 189.57752555081862,161.34928868573888 187.65795285296005,160.24487699655987 186.59298443839495,159.53489805351614 185.71208463869348,158.8249191104734 183.70047763340403,157.10256278568247 182.80643007549762,156.39258384263874 181.37332443120522,155.36705870268662 177.66565661753384,152.86898464383006 174.43130809922366,150.44979713420037 173.94484104565748,149.9764778388382 173.65559036515802,149.60834060911188 173.39263520106846,149.0824302809318 173.2348621026147,148.51707667813778 173.1559755533869,147.66247239484434 173.19541882799987,146.95249345180062 173.27430537722768,146.34769657439367 173.51096502490924,145.01977299573807 173.56355605772714,144.4149761183311 173.53726054131724,144.07313440501372 173.4715217502944,143.74444044990037 173.34004416825053,143.37630322017495 173.1822710697968,143.03446150685758 172.9061681475004,142.58743772790436 172.3671100611163,141.8643110266557 169.11961378460308,138.01201787273456 168.3833393251504,137.34148220430475 167.9363155461972,136.9996404909874 166.55580093472273,136.09244517487602 166.21395922140533,135.8163422525815 165.92470854090587,135.54023933028697 165.64860561861136,135.15895434235662 165.4645370037496,134.77766935442534 165.35935493811377,134.409532124699 165.306763905294,133.9625083457458 165.3199116634989,133.47604129217868 165.3856504545218,133.08160854604338 165.5171280365675,132.5556982178633 165.7406399260441,131.93775358225142 166.0561861229516,131.26721791382158 166.41117559447392,130.62297776180074 166.7530173077913,130.0970674336197 167.2000410867445,129.50541831441677 167.72595141492366,128.90062143700982 168.606851214627,128.03286939551236 169.57978532176122,127.24400390324178 171.95952955677606,125.4953520620419 172.49858764316204,125.00888500847479 172.9324636639103,124.48297468029472 173.0770890041591,124.20687175800019 173.16912331159185,123.91762107750073 173.1822710697968,123.40485850752465 173.12968003697702,123.04986903600327 173.0376457295461,122.7606183555038 172.9324636639103,122.58969749884511 172.72209953263865,122.31359457655059 172.11730265522982,121.7350932155526 171.73601766729948,121.47213805146208 171.31528940475616,121.24862616198548 170.34235529762194,120.85419341585019 169.30368239946483,120.57809049355566 168.27815725951456,120.44661291150994 167.38410970160814,120.43346515330593 166.5295054183147,120.56494273535073 166.1087771557695,120.6832725591915 165.75378768424906,120.82789789944123 165.28046838888596,121.0908530635308 164.85974012634077,121.43269477684818 164.51789841302337,121.80083200657452 164.24179549072886,122.24785578552773 163.96569256843435,122.93153921216249 163.5055210312762,124.81166863540714 163.13738380155078,125.86348929176825 162.71665553900561,126.74438909147065 162.32222279287032,127.49381130912734 161.96723332134985,128.04601715371638 161.5859483334195,128.5324842072835 161.1126290380564,128.94006471162373 160.69190077551121,129.2030198757133 160.21858148015,129.40023624878094 159.71896666837887,129.51856607262172 159.21935185660774,129.57115710543965 158.68029377022177,129.5448615890307 158.22012223306362,129.43967952339486 157.7468029377024,129.25561090853122 157.22089260952137,128.91376919521383 156.9579374454318,128.66396178932828 156.74757331416015,128.4141543834427 156.49776590827364,127.94083508808055 156.40573160084276,127.65158440758108 156.35314056802486,127.36233372708256 156.3399928098199,126.91530994812841 156.41887935904583,126.40254737815327 156.5898002157045,125.8503415335633 157.16830157670344,124.4303836474768 157.44440449899798,123.5889271223883 157.62847311386162,122.80006163011771 157.70735966308754,121.99804837964217 157.70735966308754,121.49843356787105 157.66791638847457,121.05140978891784 157.58902983924864,120.60438600996463 157.45755225720293,120.14421447280647 157.28663140054422,119.73663396846716 157.08941502747564,119.38164449694484 156.85275537979598,119.03980278362747 156.60294797390947,118.73740434492399 156.0901854039334,118.30352832417478 155.4985362847314,117.96168661085834 154.86744389091456,117.72502696317679 154.15746494787177,117.56725386472304 153.52637255405492,117.51466283190513 152.88213240203314,117.54095834831409 152.25104000821628,117.63299265574497 150.29202403574476,117.9879821272673 149.60834060911,118.05372091828922 148.9903959734981,118.05372091828922 148.21467823943246,117.9879821272673 147.50469929638967,117.83020902881262 146.82101586975492,117.59354938113201 146.09788916850718,117.1991166349967 145.49309229109835,116.73894509783855 145.1381028195779,116.41025114272611 144.78311334805556,116.00267063838588 144.23090750346654,115.21380514611529 143.25797339633232,113.5834831287562 142.66632427713031,112.68943557084977 142.07467515792644,111.9400133531931 141.45673052231453,111.29577320117222 140.7598993374767,110.70412408196928 140.07621591084194,110.24395254481114 139.497714549843,109.8889630732888 137.8673925324839,109.02121103179135 137.28889117148498,108.66622156026996 136.69724205228297,108.21919778131675 136.07929741667107,107.64069642031781 135.61912587951292,107.07534281752383 135.1721021005597,106.3522161162761 134.75137383801453,105.47131631657369 134.40953212469714,104.52467772584936 134.22546350983538,103.73581223357877 134.17287247701745,103.27564069642061 134.14657696060758,102.8154691592634 134.21231575163043,102.03975142519681 134.3043500590613,101.67161419547048 134.4226798829021,101.32977248215403 134.71193056340155,100.80386215397301 134.9485902110831,100.51461147347449 135.19839761696772,100.27795182579294 135.72430794514875,99.92296235427155 136.43428688819154,99.63371167377208 137.1179703148263,99.48908633352235 137.85424477427895,99.43649530070444 138.41959837707296,99.44964305890845 139.23475938575342,99.52852960813625 140.62842175543096,99.83092804683973 143.8233269991263,100.790714395769 145.07236402855503,101.11940835088144 146.40028760720972,101.38236351497194 147.32063068152604,101.44810230599387 147.87283652611507,101.42180678958492 148.34615582147816,101.35606799856299 148.78003184222644,101.23773817472221 149.20076010477163,101.05366955985858 149.52945405988405,100.84330542858692 149.84500025679154,100.5672025062924 150.0816599044731,100.25165630938397 150.2262852447219,99.93611011247556 150.29202403574476,99.58112064095417 150.2788762775398,99.14724462020497 150.17369421190398,98.58189101741098 149.8581480149965,97.14878537311954 149.77926146576868,96.64917056134841 149.72667043295078,95.87345282728276 149.72667043295078,91.53469261979453 149.77926146576868,90.69323609470602 149.87129577320144,90.08843921729813 150.02906887165517,89.50993785630014 150.23943300292683,88.94458425350615 151.0151507369925,87.09075034667046 151.35699245030986,85.94689538287754 151.4227312413327,85.42098505469745 151.43587899953766,84.9476657593353 151.33069693390183,83.25160495095334 151.38328796671976,82.44959170047873 151.5673565815834,81.5949874171853 152.2378922500132,79.66226696112271 152.46140413948982,78.86025371064719 152.61917723794355,77.83472857069597 152.6323249961485,77.03271532022045 152.52714293051267,76.13866776231403 152.0143803605366,73.78521904370626 151.6199476144013,71.18196291921387 151.43587899953766,70.1827332956707 150.98885522058447,68.26316059781307 150.56812695803927,66.75116840429382 150.37091058497256,66.13322376868192 150.04221662986012,65.30491500179836 149.42427199424822,64.12161676339248 149.016691489908,63.464228853166674 148.6222587437727,62.89887525037269 147.79394997688914,61.8864978686255 146.68953828770918,60.71634738842456 145.83493400441574,59.95377741256293 144.98032972112415,59.348980535155036 144.11257767962576,58.90195675620183 143.58666735144473,58.71788814133913 143.00816599044768,58.56011504288445 142.37707359663085,58.42863746083966 141.73283344460904,58.349750911612794 141.0360022597712,58.29715987879488 140.43120538236238,58.28401212058993 139.6949309229116,58.310307636998886 139.09013404550277,58.3628986698168 138.47218940989086,58.481228493657575 137.88054029068886,58.62585383390731 136.94704945816758,58.9808433054287 133.8573262801081,60.54542653176587 132.48995942684044,61.34743978224047 131.89831030763656,61.75502028658071 131.25407015561478,62.254635098351834 129.11098556828148,64.16106003800544 127.96713060448857,65.2391762107755 126.78383236608269,66.4750654819993 126.31051307071958,66.9220892609525 125.99496687381209,67.15874890863407 125.58738636947186,67.42170407272457 124.83796415181423,67.73725026963206 124.29890606543015,67.88187560988179 123.54948384777252,68.01335319192751 121.8139797647776,68.17112629038125 119.46053104617077,68.26316059781307 118.51389245544644,68.27630835601708 117.27800318422264,68.23686508140412 115.79230650711234,68.1053874993584 115.00344101484175,68.00020543372257 114.10939345693534,67.82928457706387 113.2547891736419,67.61892044579221 112.63684453802999,67.43485183092858 111.40095526680619,66.93523701915746 110.17821375378733,66.31729238354556 109.52082584356248,65.8965641210013 108.98176775717651,65.51527913307002 107.96939037542931,64.67382260798152 107.03589954290993,63.74033177546119 106.19444301782143,62.71480663550999 105.40557752555084,61.51836063889916 104.78763288993893,60.34821015869822 104.31431359457584,59.27009398592817 103.94617636485043,58.28401212058993 103.67007344255592,57.38996456268351 103.48600482769227,56.509064762981104 103.38082276205644,55.75964254532442 103.3676750038515,54.83929947100904 103.43341379487435,54.06358173694247 103.60433465153305,53.143238662627084 104.10394946330418,51.15792717374567 104.16968825432703,50.59257357095262 104.19598377073505,50.15869755020342 104.16968825432703,49.52760515638658 104.03821067228131,48.830773971547806 103.80155102459976,48.120795028504084 103.47285706948733,47.43711160187026 102.98639001592115,46.70083714241758 102.23696779826354,45.81993734271518 100.0544399363154,43.91351240306157 99.37075650968063,43.29556776744967 98.54244774279708,42.440963484156214 96.60972728673357,40.311026655026 95.84715731087287,39.574752195573325 95.29495146628197,39.11458065841517 94.50608597401138,38.575522572031076 93.74351599815068,38.16794206769084 93.08612808792581,37.87869138719137 92.37614914488117,37.628883981305805 91.4689538287698,37.37907657542024 90.46972420522755,37.19500796055755 89.68085871295696,37.08982589492078 89.02347080273209,37.05038262030781 88.02424117918984,37.05038262030781 87.16963689589639,37.08982589492078 86.27558933798997,37.181860202352595 84.43490318935736,37.51055415746503 81.5818396589794,38.154794309486824 80.53001900261924,38.325715166144576 79.99096091623328,38.35201068255447 79.26783421498556,38.35201068255447 78.61044630476069,38.28627189153161 77.78213753787713,38.154794309486824 74.21909506445454,37.47111088285207 73.48282060500185,37.30019002619337 72.50988649786763,37.010939345693906 71.37917929227966,36.590211083149654 67.98705767551762,35.18340095526717 65.34435827641133,34.24991012274685 64.22679882902644,33.76344306918067 63.41163782034783,33.263828257408605 62.80684094294087,32.751065687433474 62.28093061475986,32.15941656823053 61.72872477017082,31.331107801346036 61.29484874942069,30.529094550871438 60.96615479430825,29.740229058600846 59.53304915001774,25.901083662883728 59.32268501874608,25.21740023624897 59.138616403882445,24.41538698577437 59.08602537106453,23.836885624775437 59.112320887472556,23.20579323095953 59.243798469518275,22.614144111756584 59.454162600789935,22.075086025371558 59.730265523084455,21.60176673000939 60.09840275281172,21.102151918237332 60.51913101535504,20.64198038108011 60.99245031071814,20.23439987673987 61.93908890144248,19.577011966515002 62.55703353705438,19.235170253197623 63.29330799650705,18.880180781675296 64.55549278414074,18.367418211700162 66.39617893277149,17.77576909249722 67.90817112628982,17.394484104565937 69.98551692260212,17.013199116635587 71.65528221457419,16.829130501771953 72.33896564120894,16.81598274356794 72.83858045298007,16.842278259976897 73.37763853936602,16.92116480920377 74.06132196600079,17.065790149453502 74.78444866724851,17.30244979713505 78.43952544810199,18.65666889219869 80.6614965846631,19.511273175492143 81.18740691284411,19.64275075753693 81.54239638436644,19.695341790354842 81.87109033947887,19.695341790354842 82.30496636022714,19.629602999332917 82.79143341379519,19.471829900878237 83.26475270915641,19.19572697858372 83.67233321349666,18.82758974885738 83.98787941040415,18.472600277335992 84.3034256073135,17.972985465564868 84.59267628781296,17.420779620974894 84.82933593549265,16.81598274356794 85.43413281290147,15.093626418777028 85.68394021878609,14.528272815983044 85.9863386574905,13.949771454985047 86.3807714036258,13.371270093986118 86.78835190796605,12.924246315032907 87.2222279287143,12.542961327102558 87.70869498228049,12.253710646603093 88.16886651943864,12.069642031739457 88.6290380565968,11.964459966103629 89.11550511016297,11.92501669149066 89.54938113091124,11.938164449694671 90.0884392172972,12.00390324071753 90.61434954547822,12.122233064558307 92.84946844024427,12.766473216579163 93.91443685480937,12.976837347850822 94.33516511735269,13.016280622464725 94.8610754455337,13.00313286425978 95.4790200811456,12.911098556828897 95.92604386009882,12.79276873298812 96.20214678239333,12.582404601715528 96.5176929793027,12.266858404807104 96.89897796723304,11.68835704380911 97.71413897591165,9.926557444405228 98.39782240254641,8.217348877818328 98.52929998459213,7.796620615274076 98.58189101741004,7.2312670124800915 98.43726567716125,5.903343433825409 98.4241179189563,5.351137589235436 98.47670895177421,4.812079502850408 98.70022084125083,3.5630424734225983 98.71336859945576,3.181757485491315 98.68707308304587,2.9319500796057527 98.595038775615,2.6295516409022763 98.45041343536433,2.300857685789842 97.63525242668571,1.1438549637929152 97.53007036104988,0.9466385907252678 97.47747932823196,0.6836834266347599 97.56951363566286,0.473319295363101 97.75358225052649,0.34184171331737995 98.10857172204695,0.21036413127259315 98.72651635765885,0.10518206563676367 100.09388321092837,0.026295516408957366 102.15808124903572,0 122.86580042113962,0.013147758204945785 150.19998972831388,0.0788865492278063 160.03451286528636,0.05259103281791473 163.5055210312762,0.0788865492278063 164.83344460993274,0.11832982384077526 166.2796980124282,0.21036413127259315 167.56817831646993,0.3944327461352947 168.47537363258127,0.6047968774078879 169.29053464126176,0.9071953161113646 169.64552411278223,1.0912639309750005 170.05310461712247,1.3673668532695198 170.50012839607567,1.7749473576088262 170.81567459298503,2.1693801037441207 171.09177751527955,2.6558471573112334 171.70972215089145,4.023214010579819 172.13045041343477,4.680601920805621 172.35396230291136,4.956704843100141 172.74839504904665,5.351137589235436 173.2348621026147,5.732422577166719 173.73447691438582,6.034821015870196 174.41816034102058,6.36351497098263 175.33850341533503,6.679061167891053 176.08792563299266,6.8499820245497425 178.37563556057663,7.310153561707898 179.50634276616458,7.612552000411375 180.30835601664012,7.914950439114851 180.66334548816243,8.099019053978488 180.93944841045698,8.296235427046135 181.14981254172864,8.506599558317793 181.32073339838732,8.730111447794398 181.45221098043305,8.993066611884906 181.50480201325095,9.21657850136151 181.51794977145403,9.440090390838115 181.47850649684105,9.795079862359508 181.38647218941017,10.084330542858972 181.2155513327515,10.426172256176352 180.88685737763905,10.886343793334508 180.38724256586792,11.399106363309643 179.76929793025602,11.92501669149066 178.24415797853277,13.082019413486652 177.71824765035174,13.542190950644807 177.37640593703438,13.884032663962186 176.995120949104,14.344204201120341 176.73216578501257,14.751784705459649 176.45606286271806,15.317138308253632 176.29828976426433,15.829900878229703 176.21940321503837,16.53987982127342 176.2719942478563,17.223563247907247 176.39032407169708,17.85465564172409 176.83734785065027,19.577011966515002 176.95567767448918,20.208104360330914 177.02141646551203,20.826048995942813 177.0608597401269,22.206563607416346 176.90308664167128,25.66442401520218 176.9425299162861,27.41307585640205 177.03456422371698,28.530635303786006 177.16604180576272,29.47727389451034 177.66565661753384,31.64665399825446 177.78398644137462,32.33033742488922 177.82342971598757,33.132350675363824 177.75769092496472,34.0526937496792 177.4815880026702,35.24913974629003 176.82420009244532,37.31333778439738 176.62698371937674,38.10220327666797 176.4955061373329,39.0356941091883 176.37717631349213,41.29710852036423 176.20625545683342,42.440963484156214 175.7986749524932,44.255354116378946 174.95721842740468,47.161008679575744 174.5101946484515,48.436341225412505 173.93169328745253,49.685378254841254 173.53726054131724,50.39535719788497 171.972677314981,52.88028349853658 171.52565353602782,53.72174002362508 171.31528940475616,54.16876380257829 171.10492527348262,54.813003954600084 170.9997432078468,55.299471008166265 170.9602999332338,55.77279030352843 170.97344769143876,56.39073493914126 171.19695958091538,58.376046428021745 171.3021416465512,60.88726824508325 171.43361922859694,61.55780391351306 171.68342663448155,62.38611268039662 171.93323404036806,62.96461404139555 172.5643264341849,64.22679882902831 172.8404293564794,64.85789122284515 173.0770890041591,65.51527913307002 173.60299933234012,67.29022649067885 173.86595449642968,67.94761440090465 174.22094396795202,68.69703661856134 174.66796774690522,69.44645883621895 175.1018437676535,70.06440347183086 175.69349288685737,70.78753017307858 176.79790457603545,72.04971496071134 177.21863283858062,72.60192080530038 177.63936110112394,73.27245647373113 177.91546402341845,73.98243541677391 178.02064608905616,74.45575471213701 178.06008936366914,74.83703970006736 178.04694160546418,75.41554106106535 177.99435057264625,75.84941708181455 177.82342971598757,76.50680499204036 177.17918956396767,78.43952544810293 177.0871552565349,78.89969698526109 177.03456422371698,79.43875507164611 177.0871552565349,80.0172564326441 177.20548508037567,80.46428021159731 177.46844024446526,80.95074726516442 177.82342971598757,81.39777104411763 178.04694160546418,81.62128293359424 178.46766986800938,81.8710903394798 179.08561450362126,82.13404550357032 179.54578604077756,82.29181860202407 180.12428740177648,82.39700066765988 180.72908427918344,82.46273945868275 181.46535873863613,82.46273945868275 182.01756458322703,82.4364439422738 183.2666016126539,82.23922756920615 184.20009244517516,81.97627240511564 185.09414000308158,81.6475784500032 187.19778131580378,80.74038313389184 187.85516922602864,80.53001900262018 188.63088696009427,80.34595038775655 189.4066046941599,80.24076832212072 190.1428791536126,80.1881772893028 192.87761286015163,80.16188177289384 193.6796261106253,80.12243849827993 194.35016177905513,80.056699707258 194.941810898259,79.95151764162125 195.8095629397574,79.71485799394063 198.43911458065872,78.82081043603328 200.9503363977193,78.08453597658153 201.67346309896703,77.82158081249104 202.34399876739684,77.53233013199157 203.3037851163261,77.04586307842538 204.1189461250066,76.54624826665332 206.57757690924925,74.78444866724945 207.73457963124713,74.04817420779678 208.95732114426596,73.41708181398086 210.1537671408768,72.95691027682271 210.92948487494243,72.7333983873461 211.58687278516732,72.58877304709637 212.27055621180207,72.4704432232556 213.1251604950955,72.37840891582377 215.00528991833923,72.31267012480185 217.83205793230917,72.37840891582377 219.14683375276078,72.44414770684664 220.36957526577962,72.60192080530038 221.22417954907309,72.82543269477792 221.90786297570784,73.1278311334814 222.433773303887,73.48282060500279 222.92024035745501,73.94299214216095 223.34096861999834,74.4163114375231 224.87925632992656,76.34903189358567 225.27368907606186,76.76976015612993 225.81274716244593,77.2299316932881 226.61476041292147,77.79528529608207 227.416773663397,78.24230907503528 228.45544656155224,78.72877612860239 229.4415284268914,79.11006111653275 230.71686097272817,79.51764162087298 231.65035180524941,79.7543012685536 232.49180833033793,79.89892660880334 233.46474243747028,80.0172564326441 234.4113810281965,80.056699707258 235.48949720096655,80.04355194905307 236.87001181243915,79.93836988341724 238.47403831338835,79.74115351034959 238.94735760875145,80.20132504750681 239.78881413383994,81.4240665605266 240.06491705613448,81.6475784500032 240.80119151558713,82.12089774536537 241.05099892147365,82.35755739304692 241.14303322890453,82.60736479893248 241.1693287453144,83.22530943454439 241.14303322890453,83.60659442247473 241.18247650351748,83.76436752092941 241.30080632735826,83.92214061938316 241.74783010631148,84.1588002670647 241.86615993015226,84.27713009090547 241.93189872117512,84.47434646397312 242.03708078681095,85.6182014277651 242.23429715987953,85.86800883365066 242.65502542242285,86.11781623953622 242.82594627908153,86.14411175594519 243.04945816855815,86.13096399774118 243.57536849673915,86.0126341739004 244.83755328437098,85.49987160392433 245.67900980945947,85.07914334138007 246.63879615838874,84.86877921010841 246.96749011350306,84.76359714447166 247.40136613425133,84.57952852960895 248.04560628627124,84.25083457449652 248.86076729495173,83.69862872990655 249.11057470083637,83.56715114786176 249.3735298649278,83.48826459863488 249.9651789841298,83.36993477479412 250.74089671819732,83.08068409429465 251.18792049715051,82.96235427045387 251.47717117764813,82.93605875404492 251.71383082532967,82.94920651224986 251.96363823121618,83.01494530327179 252.10826357146496,83.12012736890856 252.26603666991872,83.35678701658917 252.4632530429873,84.26398233270054 252.56843510862313,85.64449694417407 252.5421395922151,87.40629654357794 252.594730625033,87.76128601510027 252.79194699809972,88.49756047455294 252.89712906373555,89.20753941759573 252.87083354732752,90.154178008321 252.94972009655348,91.08766884084132 252.8576857891226,92.415592419496 252.92342458014545,93.0335370551079 253.06804992039426,93.4674130758571 253.35730060089372,93.92758461301526 253.5545169739623,94.1248009860829 254.13301833495936,94.53238149042221 254.3696779826409,94.76904113810376 254.5143033228897,95.04514406039827 254.55374659750456,95.33439474089774 254.52745108109465,95.74197524523704 254.42226901545882,96.04437368394052 254.27764367521002,96.25473781521312 253.73858558882407,96.84638693441606 253.3310050844857,97.3985927790051 253.08119767859918,97.8719120743682 253.0549021621893,98.18745827127569 253.12064095321216,98.39782240254829 253.27841405166592,98.59503877561593 254.18560936777726,99.17354013661392 254.42226901545882,99.37075650968157 254.58004211391255,99.54167736634027 254.84299727800402,100.14647424374814 255.27687329875226,101.01422628524561 255.42149863900107,101.1851471419043 255.7764881105234,101.48754558060777 255.9211134507722,101.64531867906152 256,101.88197832674307 256,102.27641107287836 255.71074931950054,103.34137948744348 255.53982846284185,103.78840326639668 255.27687329875226,104.16968825432797 254.58004211391255,104.9322582301896 254.42226901545882,105.09003132864335 253.88321092907472,105.287247701711 253.186379744235,105.62908941502837 252.4632530429873,106.08926095218652 252.10826357146496,106.39165939089 251.77956961635255,106.72035334600244 251.49031893585308,107.08849057572877 251.30625032098942,107.41718453084121 251.21421601355854,107.65384417852276 251.1353294643326,107.99568589184014 251.12218170612766,108.27178881413467 251.1484772225357,108.66622156026996 251.27995480458142,109.2578706794729 251.7664218581476,110.74356735658226 251.85845616558035,111.40095526680805 251.83216064917045,111.82168352935231 251.75327409994452,112.20296851728266 251.59550100148888,112.6105490216229 251.38513687021725,112.97868625134925 251.12218170612766,113.30738020646167 250.8329310256282,113.57033537055219 250.49108931231083,113.82014277643775 250.07036104976564,114.05680242411836 249.53130296338153,114.28031431359497 248.91335832776963,114.47753068666262 247.71691233115882,114.74048585075312 246.3363977196862,114.92455446561675 245.17939499768835,115.02973653125258 244.14072209953312,115.09547532227451 241.3402496019731,115.20065738791128 239.72307534281708,115.35843048636502 239.1577217400231,115.45046479379684 238.57922037902605,115.59509013404657 236.51502234091683,116.37080786811221 235.80504339787404,116.58117199938481 234.79266601612684,116.75209285604349 233.9906527656513,116.79153613065647 232.96512762569915,116.73894509783855 231.8344204201112,116.5417287247709 228.91561809871038,115.83174978172718 225.82589492065088,115.22695290432023 225.07647270299515,115.01658877304764 224.34019824354246,114.7273380925491 223.6039237840898,114.33290534641381 222.9859791484779,113.88588156745966 222.47321657850182,113.4125622720975 222.01304504134367,112.86035642750846 221.43454368034475,111.96630886960205 219.80422166298564,108.67936931847396 219.29145909300956,107.74587848595458 218.7129577320125,106.7992398952293 217.55595501001466,105.14262236146126 216.5567253864724,103.8409942992146 215.5969390375431,102.6839915772186 214.96584664372628,102.0266036669928 214.04550356941184,101.22459041651727 213.53274099943576,100.86960094499588 212.9016486056189,100.50146371526954 211.65261157619017,99.9098145960666 209.07565096810674,98.91058497252435 208.56288839813067,98.6739253248428 207.9975347953367,98.33208361152542 207.4584767089526,97.92450310718611 207.02460068820247,97.50377484464187 205.69667710954778,95.89974834369173 205.28909660520753,95.50531559755643 204.98669816650312,95.28180370807982 204.52652662934685,95.03199630219333 204.1189461250066,94.86107544553558 203.6456268296435,94.71645010528584 202.75157927173709,94.50608597401325 201.79179292280782,94.3483128755595 199.64870833547263,94.03276667865109 197.84746546145485,93.82240254737849 191.53654152329014,93.23075342817555 190.20861794463545,93.16501463715362 188.72292126752515,93.17816239535763 187.4738842380983,93.29649221919841 186.4352113399412,93.4674130758571 185.3439474089662,93.75666375635656 184.33157002721902,94.1248009860829 183.2008628216329,94.63756355605804 182.38570181295242,95.1503261260341 181.7546094191356,95.63679317960121 181.24184684915951,96.2021467823952 180.8737096194341,96.79379590159814 180.71593652098036,97.16193313132449 180.6239022135476,97.50377484464187 180.5713111807297,97.85876431616326 180.55816342252476,98.30578809511647 180.6501977299575,99.06835807097809 180.83426634482115,99.76518925581686 181.11036926711566,100.5277592316785 183.1219762724051,105.14262236146126 183.42437471110952,105.94463561193679 183.68732987519908,106.78609213702529 183.92398952288065,107.87735606799937 184.1080581377424,109.0869498228142 184.63396846592343,114.08309794052732 184.76544604796914,114.76678136716208 184.96266242103584,115.46361255200085 185.1204355194896,115.87119305634108 185.38339068358104,116.38395562631716 185.60690257305765,116.72579733963454 186.05392635201085,117.31744645883748 186.44835909814614,117.73817472138174 188.40737507061766,119.57886087001249 188.94643315700176,120.17050998921543 189.28827487031916,120.60438600996463 189.57752555081862,121.03826203071289 189.7484464074773,121.36695598582625 189.89307174772796,121.6956499409387 190.05084484618172,122.23470802732372 190.12973139540765,122.80006163011771 190.1428791536126,123.52318833136543 190.05084484618172,124.35149709824992 189.89307174772796,125.15351034872452 189.5249345180007,126.3368085871304 189.26197935391113,126.9416054645383 188.57829592727637,128.3484155924208 188.44681834523064,128.70340506394217 188.3679317960047,129.05839453546358 188.3416362795948,129.4265317651899 188.40737507061766,129.88670330234805 188.56514816907142,130.33372708130128 188.84125109136593,130.8859329258903 189.48549124338774,131.80627600020662 190.4978686251349,133.04216527143043 191.65487134713092,134.38323660829005 192.60150993785712,135.36931847362828 193.18001129885417,135.8163422525815 193.79795593446607,136.17133172410382 194.4027528118749,136.40799137178445 196.23029120230072,136.97334497457842 196.8482358379126,137.24944789687294 197.4135894407066,137.60443736839525 197.82116994504685,137.9462790817117 198.29448924040807,138.48533716809675 199.51723075342878,140.26028452570557 200.04314108160793,140.9045246777264 200.38498279492532,141.2463663910438 200.76626778285566,141.56191258795224 201.77864516460286,142.258743772791 202.3571465256018,142.58743772790436 202.96194340300875,142.83724513378993 203.48785373118974,142.99501823224367 204.38190128909616,143.16593908890235 205.30224436341248,143.27112115453818 206.56442915104432,143.35000770376507 208.03697806994967,143.37630322017495 209.3386061321963,143.35000770376507 209.24657182476543,143.41574649478792Z"/>
  </g>
</svg>