<?xml version="1.0" encoding="UTF-8" standalone="no"?>
<svg viewBox="0 0 240.80306820076763 256" xmlns="http://www.w3.org/2000/svg">
  <style>
    g.zone {
      fill: lightgray;
      stroke-width: 2;
      stroke-linecap: square;
      stroke-linejoin: bevel;
      stroke-miterlimit: 3;
      stroke-opacity: 0.8;
      stroke: black;
      fill-opacity: 0.3;
    }
  </style>
  <g class="zone" id="zone">
    <path d="M227.86860096714918,172.50225112556203 228.38085709521505,172.80106720026689 229.170585292646,172.99316324828968 229.74687343671897,173.0571952642983 231.47573786893483,173.078539269635 232.56428214107063,173.2919793229945 233.56745039186265,173.63348340836973 235.10421877605418,174.33783558445842 235.70185092546083,174.70068367517035 236.19276304819,175.1702517925628 236.96114724028726,176.19476404869 238.07103551775978,177.4540603635149 238.22044355511068,177.68884442221113 238.3058195764545,177.96631649157928 238.26313156578107,178.2437885609474 238.07103551775978,178.60663665165933 237.70818742704785,178.99082874770647 237.0678672669678,179.5457728864427 236.89711522427714,179.73786893446703 236.74770718692625,180.420877105219 236.4702351175581,181.06119726529906 236.34217108554088,181.68017342004242 236.2354510588634,181.89361347340346 236.06469901617578,182.10705352676297 235.53109888277322,182.38452559613108 234.16508254126927,182.83274970818684 233.09788227447018,183.5371018842755 232.13740203435162,184.07070201767505 231.3476738369176,184.5829581457394 230.19509754877473,185.05252626313185 229.98165749541369,185.22327830581946 229.96031349007697,185.30865432716328 230.02434550608712,185.39403034850707 230.30181757545523,185.4794063698509 232.73503418375824,185.6074704018666 233.396698349175,185.6928464232104 234.0370185092551,185.88494247123472 234.84809071202275,186.22644655661148 235.42437885609573,186.5892946473234 235.70185092546083,186.90945472736342 235.74453893613423,187.22961480740346 235.53109888277322,187.5924628981154 234.74137068534225,188.46756711689167 234.07970651992548,189.7055194263799 233.1405702851436,190.94347173586812 232.96981824245296,191.37035184258716 232.86309821577547,192.18142404535482 232.69234617308484,192.58696014674018 232.4148741037167,192.90712022678022 231.62514590628575,193.61147240286738 231.21960980490343,194.14507253626692 230.81407370351806,194.9774887443713 230.64332166083045,195.70318492579517 230.49391362347652,195.9593129898281 229.36268134067032,197.0265132566272 228.33816908454162,197.51742537935635 227.9112889778226,197.7948974487245 227.52709688177396,198.30715357678733 226.95080873770098,198.77672169417977 226.69468067366955,199.48107387026846 226.48124062030854,199.82257795564368 225.37135234283906,200.74037018509185 225.22194430548512,201.0391862597967 225.15791228947802,201.35934633983672 225.15791228947802,201.55144238785954 225.24328831082184,201.74353843588386 226.41720860430144,202.34117058529202 226.63064865766248,202.57595464398824 226.71602467900627,202.83208270801967 226.6519926629992,203.15224278805968 226.43855260963815,203.51509087877162 225.49941637485324,204.1980990495236 225.1365682841413,204.60363515090893 225.0298482574608,204.92379523094897 225.09388027347092,205.3079873269961 225.58479239619706,206.2044355511091 226.45989661497487,207.14357178589248 226.88677672169388,208.10405202601257 227.1215607803886,208.5309321327331 227.95397698849297,209.4487243621798 228.59429714857305,210.3451725862928 229.29864932466324,211.07086876771666 229.61880940470175,211.4977488744372 229.89628147406987,212.03134900783675 230.0030015007504,212.30882107720487 230.0030015007504,212.54360513590112 229.87493746873318,213.03451725862874 229.91762547940658,213.31198932799688 230.81407370351806,214.27246956811697 231.2409538102371,214.84875771218842 231.3476738369176,215.08354177088464 231.2836418209105,215.27563781890896 231.0061697515424,215.44638986159657 230.89944972486188,215.595797898949 230.98482574620567,216.23611805902905 230.81407370351806,216.6203101550777 230.3231615807889,217.00450225112482 229.1492412873093,217.6448224112049 228.80773720193406,217.9649824912449 228.50892112722923,218.37051859262877 228.33816908454162,218.79739869934932 228.3168250792049,219.6938469234608 228.2101050525244,220.16341504085324 227.9966649991664,220.46223111555656 227.37768884442303,220.95314323828572 227.27096881774253,221.1025512756366 227.31365682841292,221.23061530765384 227.63381690845446,221.59346339836577 227.61247290311775,221.9136234784058 227.46306486576685,222.14840753710203 226.9934967483744,222.51125562781397 226.9081207270306,222.68200767050158 227.0575287643815,222.8100717025173 227.46306486576685,222.938135734533 228.1460730365173,222.9808237452049 228.74370518592698,223.36501584125355 229.1278972819726,223.7278639319655 229.74687343671897,224.51759212939797 230.0456895114208,224.9231282307818 230.19509754877473,225.22194430548512 230.2164415541114,225.43538435884616 230.173753543438,225.64882441220567 229.57612139403136,226.24645656161383 229.44805736201414,226.52392863098194 229.51208937802124,227.0575287643815 229.87493746873318,228.08204102051022 229.8322494580628,228.33816908454162 229.44805736201414,229.70418542604554 229.42671335667742,230.06703351675748 229.51208937802124,230.62197765549374 229.70418542604554,231.1342337835581 229.89628147406987,231.51842587960522 230.38719359679902,232.18009004502198 230.60063365015702,232.99116224778967 230.75004168751096,233.03385025846157 231.21960980490343,232.92713023178257 231.71052192762954,233.09788227447018 231.88127397031715,233.2259463064859 232.99116224778967,235.2322828080699 233.84492246123077,236.2994830748705 235.36034684008558,237.70818742704634 235.87260296815145,238.5832916458226 236.00066700016566,238.64732366182972 236.3208270802072,238.64732366182972 236.49157912289482,238.7326996831735 237.58012339503063,239.75721193930224 237.83625145906203,240.12006003001414 237.92162748040585,240.3975320993823 237.87893946973546,240.71769217942233 237.40937135234302,242.06236451559104 237.0678672669678,242.5959646489906 236.79039519759965,242.80940470235012 235.80857095214134,243.32166083041446 235.53109888277322,243.5991328997826 235.0615307653838,244.28214107053455 234.80540270134935,244.5596131399027 233.75954643988695,245.39202934800707 232.67100216775117,246.03234950808712 231.66783391695915,246.95014173753532 230.8567617141915,247.37702184425436 229.89628147406987,247.65449391362247 229.1492412873093,247.6971819242944 228.0606970151735,247.50508587627007 227.67650491912485,247.56911789227868 227.44172086043014,247.7398699349663 226.63064865766248,248.5509421377355 225.58479239619706,249.38335834583836 225.37135234283906,249.61814240453458 225.28597632149223,249.9596464899113 225.32866433216563,250.34383858595845 225.41404035350945,250.57862264465467 225.734200433551,251.0481907620471 226.18242454560672,251.45372686343094 226.78005669501337,251.70985492746237 228.9144572286146,252.28614307153535 229.51208937802124,252.49958312489485 230.13106553276458,252.84108721027158 230.51525762881323,253.28931132232734 230.70735367683756,253.69484742371117 230.89944972486188,254.8047357011837 231.1128897782229,255.38102384525513 231.0915457728862,255.55177588794274 230.89944972486188,255.72252793063188 230.49391362347652,255.87193596798278 228.9784892446217,256 228.44488911122215,255.97865599466328 227.84725696181246,255.8932799733195 225.86226446556518,255.40236785059184 224.43221610805415,254.89011172252748 223.38635984658873,254.29247957311932 221.9563114890777,253.67350341837445 221.18792729698043,253.41737535434305 219.7578789394694,253.097215274303 219.11755877938933,253.0331832582944 218.712022678004,253.05452726363112 217.02584625646153,253.35334333833444 214.7847256961798,253.56678339169545 214.31515757879038,253.54543938635874 214.08037352009265,253.43871935967977 213.95230948807844,253.22527930631873 213.95230948807844,252.32883108220724 213.80290145072453,251.81657495414288 213.6108054027002,251.51775887943955 213.3119893279984,251.24028681007144 211.17758879439717,251.28297482074333 210.64398866099762,251.38969484742233 209.3420043355008,251.9232949808234 208.87243621810833,251.9873269968305 208.5736201434035,251.9659829914953 207.3143238285801,251.24028681007144 206.80206770051726,251.06953476738232 205.94830748707616,250.9201267300314 205.67083541770805,250.8134067033509 203.64315491078733,249.55411038852748 203.1949307987316,249.21260630315075 202.85342671335636,248.8711022177755 202.42654660663734,248.23078205769545 201.95697848924488,247.37702184425436 201.72219443054715,247.05686176421432 201.48741037185243,246.8434217108548 201.0391862597967,246.6086376521586 199.69451392362947,246.22444555611145 198.43521760880304,245.98966149741523 197.17592129397963,245.60546940136658 196.19409704852433,245.41337335334228 195.53243288310756,245.45606136401418 194.0596965149231,245.7335334333823 192.8644322161068,245.6908454227104 192.03201600800242,245.8189094547261 191.43438385859577,245.7975654493909 190.8580957145228,245.6481574120385 190.43121560780378,245.4774053693509 189.6201434050361,244.90111722527791 189.08654327163654,244.30348507587127 188.40353510088306,242.8947807236939 188.16875104218838,241.93430048357382 188.04068701017113,240.88844422210994 187.5924628981154,239.62914790728652 187.57111889277868,239.18092379523077 187.72052693013262,238.32716358178968 187.6564949141225,237.2813073203258 187.6778389194592,236.76905119226143 187.78455894613973,236.4702351175581 187.95531098882734,236.17141904285478 188.16875104218838,235.93663498415856 189.10788727697022,235.1682507920628 189.89761547440423,233.93029848257456 190.08971152242856,233.41804235451022 190.28180757045288,232.28681007170252 190.47390361847417,231.66783391695765 191.00750375187673,230.83541770885327 191.60513590128338,229.49074537268604 192.22411205602674,228.53026513256594 192.41620810405107,227.8899449724859 192.28814407203686,227.74053693513346 191.05019176254712,227.2496248124058 189.87627146906752,226.48124062031005 189.3640153410047,226.0543605135895 189.04385526096314,225.60613640153377 188.97982324495604,225.30732032682891 188.9371352342826,224.28280807070175 188.95847923961932,224.0266800066688 189.15057528764365,223.6851759212936 189.91895947974095,222.78872769718058 190.15374353843563,222.42587960646864 190.23911955977945,222.19109554777393 189.7055194263799,220.07803901950942 189.5987993996994,219.7578789394694 188.6596631649145,219.48040687010126 188.10471902617823,219.41637485409265 187.7418709354663,219.43771885942937 187.4857428714349,219.50175087543647 187.22961480740346,219.65115891278887 186.6746706686672,220.16341504085324 186.3971985992991,220.33416708354085 186.01300650325044,220.39819909954946 185.71419042854862,220.37685509421274 185.22327830581946,220.22744705686185 184.79639819910045,219.92863098215702 184.5829581457394,219.6725029181256 184.09204602301025,218.79739869934932 183.72919793229832,218.45589461397256 183.3876938469231,218.30648657662167 183.08887777221824,218.26379856594977 181.78689344672446,218.26379856594977 180.97582124395373,218.37051859262877 179.16158079039408,218.8400867100212 177.60346840086584,219.39503084875747 176.96314824078576,219.56578289144508 171.9046189761554,220.48357512089328 170.60263465065856,220.63298315824568 170.0050025012519,220.59029514757378 169.7275304318838,220.48357512089328 169.47140236784935,220.33416708354085 168.36151409037987,219.37368684342076 167.8065699516436,218.7333666833407 166.9314657328658,217.49541437385247 166.65399366349766,217.23928630982107 166.31248957812244,217.04719026179674 164.32749708187515,216.38552609638148 163.28164082040976,216.15074203768526 162.7693846923469,216.12939803234855 160.82708020677,216.21477405369234 159.8665999666484,216.21477405369234 159.75987993997092,215.72386193096472 159.39703184925898,214.95547773886892 158.92746373186654,214.29381357345216 158.4578956144741,213.84558946139643 157.17725529431397,212.86376521594113 154.48791062197648,211.11355677838856 153.1859262964827,210.21710855427708 151.45706186426682,208.78706019676454 150.4538936134718,207.78389194597256 149.85626146406517,207.05819576454869 149.25862931465852,206.18309154577238 148.89578122394659,205.47873936968372 148.57562114390504,204.64632316158085 148.3835250958807,203.85659496414837 148.2981490745369,203.0668667667159 148.34083708521032,201.85025846256437 148.51158912789793,200.74037018509185 148.78906119726605,199.65182591295607 149.74954143738464,196.9624812406201 151.1795897948987,193.59012839753217 153.2713023178265,189.23595130898747 153.7622144405526,188.04068701017113 153.95431048857694,187.29364682341057 154.01834250458404,186.6533266633305 153.95431048857694,186.05569451392387 153.74087043521894,185.3726863431704 153.3993663498407,184.6896781724184 152.95114223778495,184.07070201767505 152.5242621310659,183.6438219109545 151.90528597632257,183.15290978822688 150.90211772553056,182.6406536601625 148.49024512256122,181.89361347340346 147.87126896781788,181.57345339336342 147.2096048024011,181.10388527597098 146.50525262631393,180.4422211105542 143.62381190595215,177.41137235284302 138.03168250791921,172.07537101884301 136.43088210772058,170.73069868267427 135.7478739369671,170.26113056528183 135.12889778222373,169.8982824745699 134.48857762214368,169.62081040520175 133.8055694513932,169.36468234117035 133.05852926463265,169.17258629314603 132.29014507253535,169.0445222611303 131.32966483241677,168.9591462397865 130.00633650158323,168.9378022344498 127.82924795731164,169.0872102718022 125.69484742371041,169.42871435717743 124.07270301817506,169.8342504585628 123.11222277805649,170.2184425546099 122.2584625646154,170.64532266133045 121.08454227113579,171.39236284809104 120.2307820576947,172.1394030348501 119.63314990828805,172.82241120560207 119.20626980156598,173.54810738702594 119.05686176421509,173.9322994830746 118.92879773220089,174.48724362181085 118.90745372686418,175.084875771219 119.0141737535447,175.98132399533048 119.2276138069027,176.70702017675436 119.86793396698276,178.64932466233122 120.08137402034379,179.67383691845842 120.06003001500707,180.69834917458712 119.93196598299289,181.3173253293305 119.73986993496857,181.82958145739485 119.50508587627083,182.2991495747873 119.14223778555889,182.83274970818684 118.77938969484696,183.23828580957067 118.24578956144741,183.68650992162642 117.54143738536025,184.13473403368366 116.85842921460677,184.4762381190589 115.32166083041523,185.00983825245845 114.14774053693561,185.28731032182657 112.8884442221122,185.5007503751876 110.09237952309421,185.84225446056283 107.57378689344739,186.01300650325044 103.02751375687986,186.18375854593955 100.40220110054948,186.43988660997098 99.4844088711013,186.5892946473234 98.54527263631942,186.82407870601963 95.19426379856517,188.08337502084305 94.2551275637833,188.36084709021117 92.84642321160597,188.63831915957928 91.60847090211925,188.766383191595 90.050358512591,188.74503918625982 88.34283808570882,188.5102551275636 82.85742871435639,187.20827080206675 77.84158746039641,186.22644655661148 76.07003501751015,185.6928464232104 75.06686676671816,185.24462231115467 74.44789061197177,184.90311822577945 73.6154744038674,184.36951809237837 73.06053026513416,183.89994997498744 72.3988660997174,183.28097382024256 71.77988994497404,182.5766216441554 71.24628981157146,181.80823745205964 70.71268967817191,180.93313323328337 67.66049691512555,174.82874770718607 66.78539269634774,173.33466733366643 66.03835250958716,172.1607470401868 64.41620810405182,169.85559446389797 62.79406369851647,167.74253793563346 61.23595130898821,165.8642654660667 60.0620310155086,164.64765716191368 59.27230281807461,163.94330498582653 58.31182257795603,163.19626479906594 57.479406369851645,162.6626646656664 56.43355010838926,162.08637652159342 54.38452559613185,161.16858429214525 50.649324662332,159.73853593463423 49.816908454227615,159.35434383858558 48.89911622477942,158.79939969984932 48.194764048692264,158.28714357178495 47.57578789394588,157.7108554277135 46.63665165916401,156.6863431715848 45.16391529097957,154.85075871268995 44.63031515758002,154.3385025846256 44.01133900283364,153.84759046189794 43.45639486410041,153.52743038185793 42.858762714690734,153.271302317825 41.3433383358359,152.80173420043252 39.3796898449223,152.4175421043854 34.32116058029193,151.69184592296153 22.17642154410443,150.5179256294804 20.020677005169535,150.4112056028014 17.60880440220019,150.4325496081366 16.370852092713484,149.66416541604085 16.072036018008646,149.40803735200942 15.79456394864052,149.02384525596077 15.58112389528252,148.3835250958807 15.431715857928586,148.0847090211774 14.5992996498242,147.2736368184082 14.108387527098074,146.95347673836818 13.041187260295949,146.48390862097725 12.592963148240209,146.1850925462724 12.37952309488221,145.97165249291288 11.781890945472535,145.1178922794733 10.97081874270486,144.28547607136892 7.086209771554102,140.9344672336162 4.16208104052192,138.77872269467977 2.689344672337474,138.0530265132559 2.113056528264508,137.60480240120017 1.643488410872058,137.02851425712873 1.2379523094897376,136.15341003835243 0.640320160080062,135.21427380356752 0.14940803735393549,134.06169751542464 0.021344005336709805,133.35734533933595 0,132.5462731365683 0.08537602134380606,132.01267300316724 0.27747206936812796,131.671168917792 0.9604802401216096,132.07670501917585 1.664832416208768,132.39686509921586 2.4972486243131518,132.69568117392072 3.116224779056504,132.8450892112716 3.9059529764874683,132.97315324328733 4.887777221945788,133.03718525929594 6.723361680842168,132.99449724862401 8.751042187759836,132.674337168584 10.266466566617702,132.24745706186346 11.717858929465438,131.7138569284639 15.13289978322678,130.24112056027946 16.200100050025874,129.89961647490424 17.203268300817868,129.6434884108713 18.462564615641284,129.45139236284848 19.91395697848902,129.34467233616797 24.353510088379068,129.30198432549608 25.655494413872866,129.23795230948747 26.97882274470641,129.08854427213657 28.408871102217436,128.7897281974317 29.71085542771427,128.38419209604788 32.933800233451294,127.25295981324018 37.458729364682114,125.92963148240815 39.29431382357849,125.22527930631948 40.596298149075324,124.62764715691132 41.940970485242545,123.83791895947884 43.20026680006596,123.02684675671117 47.170251792563555,120.16675004168759 48.472236118060394,119.37702184425511 50.03034850758864,118.54460563615073 51.588460897116896,117.88294147073547 53.231949307988955,117.34934133733441 55.15290978822914,116.92246123061538 56.75371018842778,116.70902117725436 58.24779056194893,116.60230115057536 60.2754710688666,116.55961313990345 63.79723194930846,116.62364515591054 66.18776054694109,116.73036518259106 67.53243288310831,116.81574120393486 68.77038519259501,116.98649324662247 69.73086543271663,117.19993329998351 70.56328164082102,117.45606136401493 71.31032182758159,117.79756544939167 71.82257795564443,118.096381524095 72.84709021177314,118.92879773219937 73.8075704518917,119.97465399366327 75.47240286810047,122.10905452726297 76.6036351509097,123.45372686343171 77.62814740703841,124.39286309821509 78.73803568450789,125.22527930631948 80.42421210605336,126.18575954643957 82.57995664498826,127.16758379189638 85.09854927463812,128.06403201600784 87.29698182424643,128.6403201600793 89.1112222778061,128.93913623478414 90.98949474737287,129.10988827747175 93.01717525429358,129.13123228280847 95.19426379856517,128.98182424545604 98.37452059362877,128.6189761547441 100.93580123394902,128.17075204268838 102.87810571952592,127.6798399199592 104.60697015174179,127.06086376521586 105.48207437051958,126.63398365849531 106.27180256795056,126.12172753043096 106.8267467066868,125.63081540770331 107.25362681340584,125.09721527430376 107.50975487743726,124.56361514090422 107.63781890945448,123.96598299149606 107.61647490411778,123.325662831416 107.46706686676687,122.66399866599923 107.04018676004785,121.68217442054394 106.25045856261384,120.44422211105572 105.46073036518288,119.37702184425511 102.66466566616792,115.94063698515858 101.21327330331715,114.06236451559029 99.97532099383045,112.22678005669543 99.10021677505567,110.71135567783908 98.33183258295838,109.15324328831083 97.84092046022923,108.02201100550313 97.4353843588469,106.91212272803061 97.13656828414207,105.90895447723862 96.98716024679116,105.11922627980614 96.96581624145446,104.32949808237366 97.05119226279827,103.73186593296701 97.24328831082259,103.19826579956595 97.54210438552742,102.6860096715016 97.94764048690975,102.21644155411066 98.45989661497562,101.76821744205492 99.07887276971897,101.40536935134148 99.71919292979904,101.10655327663815 100.46623311655961,100.87176921794193 101.512089378022,100.65832916458241 102.4725696181436,100.5302651325667 103.71052192763031,100.46623311655809 105.35401033850236,100.44488911122139 106.89077872269391,100.50892112723 108.0646990161735,100.5942971485738 109.85759546439951,100.89311322327863 113.27263631815782,101.85359346339874 114.57462064365465,102.04568951142154 115.193596798398,102.02434550608635 115.83391695847806,101.91762547940583 116.43154910788773,101.7255294313815 117.00783725196071,101.40536935134148 117.60546940136734,100.93580123395054 118.05369351342308,100.40220110054948 118.3951975987983,99.82591295647804 118.69401367350315,99.05752876438225 118.88610972152748,97.90495247623784 118.97148574287128,95.3863598465895 119.07820576955179,94.14840753710128 119.37702184425663,92.69701517425354 119.71852592963185,91.65115891278964 120.08137402034379,90.86143071535716 120.65766216441675,89.83691845922998 122.83475070868836,86.69934967483675 123.218942804737,85.9736534934129 123.56044689011223,85.1412372853085 123.77388694347023,84.22344505586183 123.85926296481706,83.51909287977315 123.88060697015074,82.28114057028493 123.83791895948036,81.38469234617345 123.70985492746313,80.42421210605336 123.47507086876843,79.31432382858085 122.2798065699521,74.6399866599961 121.81023845255966,72.05736201434065 121.66083041520875,70.62731365682811 121.61814240453533,69.36801734200469 121.66083041520875,68.08737702184457 121.83158245789636,65.91028847757146 121.83158245789636,64.82174420543565 121.68217442054242,63.818575954643656 121.36201434050392,62.79406369851647 120.76438219109424,61.556111389028246 120.3375020843752,60.87310321827628 119.61180590295135,59.89127897281948 118.65132566283276,58.76004669001177 115.72719693180058,55.64382191095527 115.06553276638381,54.854093713522786 114.36118059029666,53.893613473402695 113.57145239286265,52.61297315324257 111.71452392862956,48.792396198098906 110.96748374187202,47.447723861931685 109.9002834750699,45.86826746706672 108.61964315490977,44.35284308821038 107.33900283474965,43.09354677338696 106.18642654660675,42.13306653326687 104.90578622644662,41.151242287810064 103.41170585292546,40.126730031682875 97.13656828414207,36.2421210605306 93.99899949974886,34.40653660163422 91.54443888610912,33.083208270802196 88.91912622978178,31.802567950642068 86.59262964815625,30.92746373186578 84.62898115724568,30.372519593129525 79.80523595131001,29.24128731032182 77.28664332166015,28.430215107554147 75.28030682007616,27.57645489411457 70.5205936301476,25.39936634984145 65.14190428547568,23.13690178422604 62.986159746540785,22.11238952809733 61.25729531432492,21.109221277305338 53.31732532933276,15.858595964649131 52.420877105218246,15.21827580456907 51.37502084375586,14.364515591129493 50.435884608970966,13.446723361681302 49.75287643822052,12.656995164248821 49.00583625145994,11.611138902784923 48.472236118060394,10.714690678673442 47.938635984657815,9.626146406536124 47.42637985659498,8.452226113056515 47.042187760546334,7.363681840920713 46.74337168584453,6.232449558113008 46.572619643153885,5.229281307321012 46.551275637820204,4.311489077872822 46.65799566449769,3.479072869768438 46.87143571785872,2.838752709688376 47.23428380857065,2.177088544271604 47.59713189928259,1.7288644322158642 48.066700016675036,1.344672336168737 48.72836418209181,0.9391362347848998 49.368684342171875,0.6830081707519651 50.329164582290446,0.4268801067205469 51.33233283308245,0.25612806403293475 52.442221110554954,0.1280640320157091 55.64382191095527,0 59.9766549941648,0.021344005336709805 77.88427547106983,0.362848090711934 108.25679506419783,0.5336001333995462 127.12489578122447,0.4482241120557401 159.29031182257847,0.5762881440729658 223.64248791062016,0.4482241120557401 224.83775220943647,1.9423044855768958 225.24328831082184,2.625312656328861 225.62748040687046,3.351008837752729 225.9049524762386,4.055361013839887 226.07570451892622,4.717025179256659 226.13973653493332,5.336001334000011 226.09704852426293,5.912289478072977 225.86226446556518,6.573953643488232 225.39269634817273,7.192929798233101 224.77372019342937,7.7478739369693574 223.0021677505401,9.007170251792772 222.31915957978964,9.562114390529027 221.76421544105338,10.18109054527238 221.46539936634855,10.821410705352442 221.40136735034145,11.290978822744892 221.42271135567816,11.888610972153051 221.55077538769237,12.528931132233112 222.08437552109493,14.385859596464686 222.16975154243875,14.983491745872845 222.14840753710203,15.55977988994581 222.0203435050848,16.13606803401726 221.8069034517268,16.73370018342542 220.7610471902614,18.7186926796727 220.48357512089328,19.380356845089473 220.29147907286895,20.020677005169535 220.24879106219856,20.596965149240983 220.31282307820567,21.109221277305338 220.52626313156668,21.664165416041595 221.55077538769237,23.328997832248845 221.82824745706048,23.926629981657005 221.97765549441442,24.545606136401872 221.934967483741,25.27130231782574 221.76421544105338,25.932966483240996 221.48674337168526,26.551942637985864 219.88594297148663,29.326663331665628 218.32783058195838,32.37885609471352 217.92229448057302,33.29664832416171 217.6448224112049,34.06503251625748 217.4740703685173,34.83341670835477 217.41003835251018,35.66583291645763 217.43138235784386,36.434217108554925 217.53810238452436,37.117225279306886 217.7942304485558,37.77888944472214 218.15707853927077,38.3338335834584 218.7333666833407,38.931465732866556 219.5230948807747,39.52909788227472 222.36184759046003,41.492746373186804 225.45672836418285,43.4990828747708 226.18242454560672,44.07537101884225 226.78005669501337,44.651659162915216 227.44172086043014,45.5907953976986 227.95397698849297,46.6793396698344 228.27413706853451,47.78922794730691 228.3168250792049,48.68567617141839 228.2314490578611,49.11255627813894 228.0393530098368,49.539436384859485 227.76188094046867,49.880940470234705 227.37768884442303,50.17975654493954 226.45989661497487,50.64932466233048 224.24012006002982,51.46039686509967 223.45039186259888,51.801900950474895 222.7033516758383,52.29281307320254 222.06303151575824,52.91178922794741 221.46539936634855,53.8722694680675 220.39819909954946,56.32683008170723 218.79739869935082,59.48574287143564 218.13573453393406,60.36084709021193 216.94047023511774,61.40670335167582 216.64165416041288,61.790895447724466 216.492246123062,62.196431549108304 216.38552609638148,62.68734367183595 216.36418209104477,63.73319993329985 216.5562781390691,64.67233616808475 216.87643821911064,65.50475237618761 217.34600633650007,66.23044855761148 217.87960646990263,66.78539269634774 218.54127063531638,67.19092879773157 220.8464232116052,68.06603301650786 222.53259963315068,68.87710521927553 224.0480240120055,69.81624145406043 224.62431215607847,70.26446556611617 225.11522427880462,70.73403368350863 225.39269634817273,71.11822577955576 225.69151242287757,71.69451392362872 226.75871268967666,75.04552276137993 227.0575287643815,75.60046690011619 227.33500083374963,75.87793896948432 227.63381690845446,76.11272302818054 228.18876104719072,76.39019509754867 229.1919292979827,76.689011172252 230.1097215274309,76.83841920960441 232.0306820076711,76.98782724695683 231.90261797565387,77.17992329498115 231.60380190094904,77.35067533766876 230.36584959146234,77.64949141237209 229.98165749541369,77.82024345506122 229.57612139403136,78.09771552442935 229.10655327663892,78.58862764715698 228.42354510588544,78.99416374854081 227.80456895114207,79.20760380190033 226.48124062030854,79.39969984992466 226.0543605135895,79.63448390862088 225.39269634817273,80.25346006336423 225.2006003001484,80.50958812739717 224.9871602467904,81.08587627146862 224.94447223611698,81.81157245289249 224.83775220943647,82.04635651158871 224.43221610805415,82.36651659162874 223.47173586793255,82.62264465566167 223.27963981990823,82.77205269301258 223.1942637985644,83.11355677838932 222.9167917291963,83.41237285309265 222.7673836918454,83.64715691178887 222.7033516758383,83.9032849758218 222.724695681175,84.43688510922135 222.68200767050158,84.67166916791757 222.36184759046003,85.35467733866953 221.8069034517268,85.90962147740579 220.80373520093482,86.67800566950156 220.50491912622996,87.0195097548768 220.46223111555656,87.25429381357301 220.63298315824417,87.63848590962166 220.73970318492468,88.57762214440504 220.6756711689176,89.81557445389326 220.52626313156668,90.1784225446052 219.82191095547648,91.09621477405338 219.6725029181256,91.48040687010203 219.6298149074522,91.90728697682106 219.65115891278887,92.46223111555732 220.12072703018134,93.95631148907847 220.16341504085474,94.42587960646941 219.97131899283042,94.91679172919704 219.48040687010126,95.62114390528572 219.37368684342076,95.89861597465385 219.37368684342076,96.11205602801337 219.43771885943087,96.3895280973815 219.54443888610837,96.53893613473392 220.31282307820567,97.15791228947727 220.6970151742543,97.86226446556594 220.95314323828572,98.52392863098271 221.12389528097333,99.20693680173467 221.18792729698043,99.61247290311852 221.16658329164676,100.08204102050945 220.9958312489561,100.55160913790189 220.24879106219856,101.98165749541444 219.71519092879598,102.7500416875102 219.22427880606986,103.21960980490266 218.22111055527785,104.03068200767034 216.53493413373238,105.24729031182184 216.34283808570805,105.46073036518288 216.30015007503766,105.6955144238791 216.47090211772527,105.97298649324571 217.21794230448586,106.39986659996626 217.96498249124645,106.6986826746711 218.925462731365,106.91212272803061 222.25512756378257,107.25362681340584 223.08754377188694,107.23228280807065 224.47490411872454,107.10421877605494 225.45672836418285,107.16825079206204 226.45989661497487,107.33900283475116 227.37768884442303,107.70185092546309 229.0211772552951,108.66233116558318 229.61880940470175,108.93980323495131 230.40853760213272,109.15324328831083 232.07337001834148,109.43071535767896 234.91212272802986,110.41253960313425 235.50975487743952,110.71135567783908 235.97932299482895,111.07420376855102 236.1500750375196,111.30898782724724 236.42754710688772,111.9493079873273 236.64098716024571,112.18409204602354 236.96114724028726,112.37618809404634 237.81490745372534,112.61097215274256 238.02834750708635,112.73903618475826 238.3058195764545,113.14457228614363 238.79673169918365,113.65682841420646 238.98882774720798,113.9983324995832 239.18092379522926,114.55327663831946 239.18092379522926,115.1295647823909 239.3303318325832,115.42838085709575 239.69317992329513,115.79122894780768 240.76038019009422,116.49558112389484 240.80306820076763,116.64498916124725 240.7390361847575,116.87977321994347 240.58962814740661,117.1785892946468 239.3303318325832,118.88610972152748 238.60463565115933,120.18809404702279 237.5374353843572,121.59679839919862 236.72636318158953,122.74937468734304 235.93663498415856,123.60313490078413 234.80540270134935,124.4782391195589 233.4393863598454,125.22527930631948 232.99116224778967,125.52409538102431 232.4148741037167,126.16441554110438 231.77455394363665,127.29564782391208 231.17692179423,127.82924795731164 230.68600967150084,128.10672002667977 228.3168250792049,129.25929631482418 226.18242454560672,129.85692846423234 225.69151242287757,130.02768050691995 225.37135234283906,130.30515257628807 225.1365682841413,130.81740870435243 225.11522427880462,131.35100883775198 225.2006003001484,131.60713690178338 225.39269634817273,131.8632649658163 225.62748040687046,132.01267300316724 227.84725696181246,133.12256128063973 228.46623311655884,133.6348174087041 228.9784892446217,134.25379356344743 229.25596131398981,134.7660496915118 229.4053693513407,135.29964982491285 229.4053693513407,135.98265799566482 229.31999332999692,136.7723861930958 229.1278972819726,137.34867433716875 228.85042521260445,137.81824245455968 228.33816908454162,138.41587460396784 227.52709688177396,139.16291479072842 227.0361847590448,139.56845089211225 226.54527263631866,139.8672669668171 226.13973653493332,140.016675004168 225.28597632149223,140.25145906286423 224.94447223611698,140.46489911622373 224.77372019342937,140.72102718025667 224.66700016674886,141.0625312656319 224.62431215607847,141.46806736701726 224.6456561614152,142.0656995164239 224.60296815074176,142.27913956978492 224.41087210271743,142.38585959646392 223.8986159746546,142.36451559112874 223.74920793730067,142.44989161247253 223.77055194263738,143.11155577788932 223.6851759212936,143.55977988994505 223.45039186259888,144.1787560446884 222.9808237452064,145.1392362848085 222.48991162247725,147.0815407703854 222.19109554777242,147.78589294647256 221.29464732366094,149.3013173253289 220.95314323828572,150.00566950141757 220.71835917958796,150.77405369351334 220.6543271635809,151.3716858429215 220.73970318492468,151.94797398699296 221.1025512756366,153.2926463231617 221.27330331832422,155.27763881940896 221.934967483741,156.96381524095293 222.42587960647018,158.4578956144741 222.8527597131892,161.10455227613815 223.49307987326927,162.7480406870102 223.64248791062016,163.7512089378022 223.74920793730067,164.09271302317742 223.91995997998828,164.47690511922607 224.49624812406125,165.45872936468135 224.56028014006836,165.8002334500581 224.49624812406125,166.44055361013815 224.51759212939797,166.78205769551337 225.26463231615853,168.48957812239405 225.39269634817273,168.85242621310599 225.39269634817273,169.21527430381792 225.24328831082184,169.57812239452986 224.9658162414537,169.91962647990658 224.15474403868603,170.55994663998666 224.0266800066688,170.79473069868288 224.0266800066688,171.0295147573776 224.21877605469314,171.28564282141053 224.66700016674886,171.54177088544193 225.67016841754085,171.86193096548197 227.69784892446157,172.33149908287442 227.86860096714918,172.50225112556203Z"/>
  </g>
</svg>