<?xml version="1.0" encoding="UTF-8" standalone="no"?>
<svg viewBox="0 0 256 237.16650411035442" xmlns="http://www.w3.org/2000/svg">
  <style>
    g.zone {
      fill: lightgray;
      stroke-width: 2;
      stroke-linecap: square;
      stroke-linejoin: bevel;
      stroke-miterlimit: 3;
      stroke-opacity: 0.8;
      stroke: black;
      fill-opacity: 0.3;
    }
  </style>
  <g class="zone" id="zone">
    <path d="M145.06785564999205,202.79894106172617 144.5149784032335,203.54800055733668 144.1761181552179,204.1900515535757 144.01560540615813,204.86777204960438 143.99777065626205,205.56332729552915 144.08694440573996,206.11620454228898 144.30096140448546,206.82959453810858 145.37104639821547,209.41563327295697 145.76341089591682,210.61056151595457 145.97742789466486,211.82332450884954 146.0309321443506,212.4475407551912 145.9952626445584,213.19660025080296 145.85258464539476,214.17751149505506 145.2462031489479,216.69221123032037 144.96084715062057,218.0654869722738 144.5149784032335,221.52542845200153 144.2652919046958,222.845199944268 144.05127490595032,223.48725094050573 143.76591890762046,224.07579768705776 143.35571966002556,224.6643444336085 142.9455204124281,225.09237843110077 141.857600668802,225.9841159258762 138.46899818865862,228.33830291208176 136.82820119827142,229.5332311550806 135.22307370767638,230.7816636477652 131.99498397659275,233.42120663229935 130.87139473317447,234.2772746272826 129.35544099205734,235.2403511216399 128.3388602480156,235.73972411871398 127.58980075240257,236.02508011704256 126.80507175700241,236.27476661557898 126.0381775114958,236.47094886442966 125.09293576703335,236.63146161348942 124.25470252194492,236.72063536296608 123.45213877664868,236.73847011286216 122.23937578375246,236.72063536296608 118.95778180298056,236.39960986484783 117.24564581301405,236.3639403650569 115.49784032325536,236.50661836422057 111.53852584645479,237.02382611119074 109.45186010868048,237.16650411035442 107.68621986902569,237.1308346105635 105.83140587989298,236.8811481120258 101.26570990664557,235.9002368677737 99.32172216803747,235.34735962101263 97.96628117597758,234.81231712414763 96.62867493381633,234.0810923784332 95.27323394175897,233.17152013376167 92.2769959593144,230.88867214713795 91.08206771631681,230.0326041521547 89.63745297477901,229.14086665737926 88.21067298313982,228.46314616135058 86.78389299150064,227.9637731642765 85.37494774975501,227.62491291626216 83.80548975895216,227.35739166782966 80.36338302912051,226.91152292044129 79.18628953601647,226.6975059216958 77.97352654312279,226.37648042357628 76.7607635502291,225.91277692629438 75.47666155775359,225.25289118016053 74.40657656402357,224.55733593423577 73.19381357112988,223.7012679392525 69.55552459244629,220.93688170544954 68.11090985091101,219.74195346245065 66.0599136129289,217.72662672425946 65.16817611815472,216.95973247875287 64.13376062421435,216.353350982306 63.563048627559695,216.10366448376962 62.97450188100894,215.90748223491894 62.24327713529199,215.74696948585918 61.512052389577576,215.63996098648644 60.762992893967066,215.62212623659033 59.97826389856438,215.65779573638125 58.426640657655085,215.87181273512803 55.840601922807956,216.47819423157486 54.68134317960001,216.67437648042554 53.30806743764657,216.8170544795892 51.89912219590348,216.83488922948402 50.84687195206955,216.74571548000736 49.83029120802527,216.5852027309476 46.29901072871569,215.69346523617216 44.71171798801675,215.42594398773966 43.92698899261406,215.3724397380539 43.10659049742172,215.3724397380539 39.503971018530315,215.67563048627736 37.61348752960795,215.67563048627736 35.633830291207666,215.46161348753057 31.28215131670575,214.69471924202398 30.19423157307964,214.58771074265124 29.213320328827542,214.55204124286033 28.12540058520143,214.60554549254732 26.983976591889576,214.76605824160708 22.774975616551327,215.764804235754 21.259021875434218,216.03232548418652 20.474292880031527,216.12149923366442 19.47554688588334,216.17500348335145 18.779991639961107,216.15716873345534 18.084436394036338,216.06799498397743 17.228368399051817,215.87181273512803 16.532813153127048,215.58645673679942 15.783753657516542,215.15842273930716 15.016859412009941,214.60554549254732 13.554409920578575,213.32144350007053 9.595095443778005,209.48697227253882 9.006548697227254,208.96976452556862 8.364497700988228,208.54173052807764 7.918628953601141,208.29204402953994 7.312247457154298,208.07802703079446 6.6523617110191795,207.93534903163078 6.135153964050261,207.89967953183861 4.744043472200727,207.9531837815256 2.158004737353599,208.25637452974902 1.5872927406989397,208.23853977985422 1.1414239933118533,208.14936603037629 0.8025637452962484,207.98885328131652 0.6063814964468429,207.82834053225676 0.4458687473870863,207.63215828340608 0.2853559983273297,207.3824717848697 0.08917374947538968,206.6690817890501 0,205.70600529469283 0.017834749893557253,204.79643305002256 0.10700849937148141,203.8333565556653 0.8203984951923402,200.03455482792322 1.2484324926833348,195.7363801031083 1.462449491428832,194.64846035948344 1.8548139891301776,193.36435836700667 2.1936742371457827,192.61529887139616 2.586038734847128,191.88407412568048 3.1032464818160466,191.09934513027906 4.369513724395473,189.31587014072818 4.993729970738408,188.24578514699814 5.510937717707327,187.1578654033733 6.634526961125623,184.30430542009367 7.044726208720525,183.46607217500525 7.4014212066322225,182.8418559286623 7.936463703497233,182.0749616831557 8.560679949837633,181.34373693744 9.327574195344232,180.66601644141136 10.165807440432664,180.0596349449645 10.790023686775598,179.70293994705406 11.3429009335367,179.45325344851767 11.949282429983544,179.23923644977089 12.662672425804402,179.07872370071115 13.286888672144803,179.0073847011293 13.928939668383828,179.0073847011293 14.570990664622855,179.07872370071115 15.195206910963256,179.20356694997997 16.318796154381552,179.59593144768132 17.62073289675316,180.27365194371 19.13668663787027,181.32590218754518 21.33036087501605,183.0915424271987 22.222098369790224,183.75142817333256 23.327852863312426,184.44698341925732 24.665459105473687,185.10686916539117 25.343179601504897,185.3387209140315 26.05656959732322,185.5349031628822 26.698620593562246,185.659746412151 27.483349588964938,185.71325066183803 28.214574334679355,185.71325066183803 28.94579908039377,185.6240769123601 29.83753657517048,185.44572941340553 30.390413821929045,185.28521666434577 31.353490316287584,184.9106869165405 32.45924480980725,184.3756444196755 33.4044865542697,183.8406019228105 36.43639403650392,181.93228368399204 37.559983279922214,181.34373693744 38.61223352375614,180.89786819005295 39.61097951790433,180.57684269193342 40.66322976173826,180.34499094329183 43.96265849240625,179.97046119548656 45.37160373414934,179.72077469695017 46.17416747944812,179.48892294830858 46.923226975058625,179.20356694997997 47.565277971297654,178.91821095165264 48.29650271701207,178.5080117040552 49.1347359621005,177.95513445729537 49.687613208861606,177.50926570990828 52.38066044308022,174.9767312247469 53.129719938693256,174.35251497840397 53.896614184199855,173.78180298174803 55.519576424688445,172.80089173749593 58.49797965723692,171.30277274627366 59.44322140169937,170.78556499930474 60.51330639542939,170.1078445032748 61.28020064093599,169.51929775672406 62.064929636338675,168.84157726069537 62.599972133203686,168.23519576424854 63.27769262923236,167.37912776926402 64.72230737076764,165.38163578096763 65.27518461752874,164.68608053504286 66.07774836282499,163.7943430402687 66.88031210812377,162.99177929497117 67.73638010310576,162.2070502995685 69.19882959453713,161.0477915563618 70.71478333565423,160.08471506200453 72.03455482792194,159.42482931587068 73.14030932144414,159.0324648181706 75.33398355858992,158.4260833217225 76.2435558032602,158.08722307370815 76.60025080116935,157.90887557475358 77.01045004876678,157.60568482653017 77.24230179740837,157.37383307788858 77.42064929636169,157.12414657935216 77.56332729552788,156.78528633133655 77.58116204542145,156.2859133342637 77.40281454646814,155.6795318378156 77.13529329803436,155.23366309042854 76.7785983001252,155.03748084157786 76.11871255399261,154.84129859272718 75.47666155775359,154.73429009335442 74.87028006130674,154.71645534345961 73.63968231851696,154.89480284241418 72.35558032604145,155.23366309042854 70.8574613348179,155.76870558729354 67.18350285634719,157.19548557893398 65.81022711439375,157.64135432632108 64.38344712275203,158.05155357391723 63.152849379962255,158.30124007245493 62.0114253866504,158.44391807161858 60.88783614323464,158.46175282151466 59.99609864846047,158.40824857182767 59.12219590357985,158.2477358227679 58.212623658909585,158.03371882402243 56.375644419672966,157.37383307788858 51.36407969903847,155.16232409084668 48.59969346523549,153.78904834889326 46.923226975058625,152.79030235474505 45.728298732061035,151.91639960986572 44.60470948864274,150.93548836561362 43.67730249407638,149.91890762156933 42.821234499094395,148.84882262783933 42.07217500348135,147.74306813431838 38.05935627699504,141.21554967256552 37.70266127908588,140.4843249268498 37.452974780548196,139.77093493103024 37.34596628117418,138.9683711857327 37.38163578096636,138.27281593980794 37.57781802981577,137.61293019367537 37.88100877803919,136.98871394733243 38.32687752542881,136.4180019506765 38.91542427197956,135.9007942037076 39.59314476800824,135.49059495611016 40.34220426361875,135.1695694579919 41.18043750870718,134.93771770935032 42.197018252751455,134.79503971018664 43.37411174585296,134.77720496029056 44.49770098927126,134.86637870976847 45.746133481954594,135.04472620872306 48.90288421345891,135.61543820537898 49.88379545771101,135.74028145464783 50.90037620175529,135.79378570433357 52.059634944963236,135.72244670475175 53.147554688586816,135.52626445590107 54.27114393200511,135.13389995820097 55.03803817751171,134.75937021039445 55.69792392364429,134.31350146300738 56.35780966977688,133.76062421624755 56.96419116622372,133.06506897032278 57.37439041382115,132.44085272397984 57.73108541173032,131.79880172774207 58.03427615995374,131.04974223213156 58.87250940504217,128.46370349728318 59.24703915284743,127.48279225303108 59.88909014908645,126.37703775951015 60.21011564720597,125.94900376201788 60.762992893967066,125.32478751567622 61.49421763968148,124.64706701964627 62.33245088476991,124.02285077330461 63.152849379962255,123.50564302633443 65.56054061585607,122.09669778459006 67.040824857181,121.11578654033796 67.96823185174735,120.34889229483136 68.53894384840454,119.77818029817544 70.19757558868531,117.8520273094609 71.14281733314776,116.90678556499971 71.7491988295946,116.46091681761263 72.31991082624927,116.12205656959829 72.83711857321818,115.8902048209567 73.47916956945721,115.67618782220994 74.08555106590406,115.56917932283719 74.65626306256125,115.51567507315144 75.19130555942625,115.55134457294236 75.88686080535102,115.69402257210602 76.35056430263167,115.8723700710606 76.83210254981094,116.13989131949312 77.26013654730447,116.46091681761263 77.65250104500328,116.8711160652088 77.90218754354096,117.1921415633283 78.20537829176438,117.70934931029723 78.5085690399878,118.47624355580383 78.68691653894365,119.20746830151951 79.09711578654108,121.50815103803932 79.32896753518014,122.25721053364981 79.68566253309184,123.13111327852917 80.18503553016467,124.05852027309552 80.5952347777621,124.64706701964627 81.16594677441677,125.34262226557104 81.84366727044797,126.00250801170489 82.30737076772861,126.39487250940624 83.0920997631313,126.94774975616608 83.76982025915999,127.32227950397133 84.46537550508475,127.64330500209084 85.26793925038353,127.91082625052334 85.87432074683038,128.053504249687 86.65904974223054,128.16051274905976 87.28326598857346,128.14267799916493 87.78263898564883,128.0713389995831 88.37118573219958,127.89299150062725 88.8705587292724,127.60763550229993 89.20941897728801,127.3044447540765 89.67312247457119,126.69806325762966 90.72537271840511,124.66490176954237 91.31391946495587,123.71966002508118 91.9559704611949,122.86359203009665 93.8107844503276,120.63424829315869 95.89745018809937,117.83419255956606 96.71784868329425,116.9246203148958 97.57391667827623,116.21123031907494 98.32297617388927,115.71185732200085 99.12553991918553,115.28382332450985 99.98160791417006,114.98063257628644 101.01602340810788,114.76661557753967 102.1217779016301,114.65960707816693 103.1026891458822,114.67744182806301 103.95875714086671,114.74878082764485 105.04667688449283,114.90929357670333 108.39960986484655,115.6226835725242 109.7728856068,115.85453532116578 111.48502159676652,115.99721332032945 112.67994983976664,115.94370907064244 113.75003483349666,115.74752682179177 114.74878082764485,115.40866657377742 115.44433607356707,115.0698063257631 117.74501881008688,113.66086108401873 119.04695555245848,113.0901490873628 119.97436254702484,112.80479308903547 120.79476104221719,112.64428033997572 121.6508290372017,112.51943709070689 122.9884352793655,112.41242859133413 124.77191026891384,112.44809809112505 126.59105475825437,112.60861084018481 129.15925874320794,112.96530583809397 131.4777762296213,113.41117458548231 133.0115647206345,113.83920858297331 134.36700571269438,114.37425107983833 135.54409920579587,115.03413682597218 136.36449770098824,115.65835307231511 137.30973944545067,116.55009056708928 138.14797269053912,117.56667131113356 140.466490176955,121.09795179044187 142.14295666713187,123.32729552737983 143.6945799080386,125.18210951651129 144.7111606520829,126.16302076076465 145.74557614602327,126.92991500627124 146.69081789048317,127.42928800334407 147.86791138358723,127.91082625052334 150.81064511634352,128.90957224467152 151.91639960986572,129.39111049184953 153.00431935348928,129.94398773861064 153.94956109795174,130.51469973526656 154.966141841996,131.245924480981 155.8935488365624,131.99498397659275 156.85662533091838,132.90455622126302 157.80186707538084,133.9033022154112 158.9254563187966,135.20523895778283 160.1025498118981,136.685523199109 161.06562630625663,138.02312944127152 161.70767730249312,139.00404068552362 162.26055454925424,139.96711717988092 164.2580465375506,143.81942315730873 164.7930890344156,144.63982165250232 165.32813153128063,145.33537689842584 166.04152152710148,146.0666016441415 166.70140727323405,146.61947889090263 167.46830151874067,147.19019088755854 170.12567925316964,148.95583112721334 170.96391249825805,149.5978821234511 171.81998049324258,150.3826111188525 172.64037898843492,151.22084436394096 173.4429427337337,152.1482513585073 176.13598996795233,155.55468858854803 177.1704054618927,156.80312108123263 177.77678695833953,157.46300682736648 178.4723422042643,158.10505782360426 179.07872370071115,158.60443082067835 179.70293994705406,159.05029956806544 180.34499094329055,159.44266406576676 181.00487668942569,159.763689563885 182.34248293158694,160.26306256095913 183.96544517207806,160.61975755886954 185.62407691235884,160.8159398077202 187.03302215410446,160.83377455761504 188.2814546467878,160.7802703079293 189.7082346384295,160.63759230876565 193.11467186846897,160.17388881148247 194.55928661000425,160.04904556221362 195.43318935488486,160.03121081231754 196.2714225999733,160.08471506200453 197.59119409223848,160.29873206075004 198.447262087223,160.58408805907862 199.1963215828335,160.94078305698906 199.90971157865437,161.42232130416707 200.5160930751012,161.95736380103207 200.97979657238437,162.5102410477919 201.5148390692494,163.33063954298552 201.87153406715856,164.07969903859603 202.12122056569623,164.90009753378962 202.2460638149638,165.5778180298183 202.281733314756,166.0950257767885 202.2460638149638,167.04026752124966 202.13905531559232,167.66448376759135 201.96070781663647,168.25303051414335 201.5326738191455,169.21610700850061 200.89062282290647,170.1256792531709 200.5517625748934,170.48237425108132 199.9632158283401,171.01741674794633 199.1071478333581,171.60596349449708 197.85871534067223,172.23017974084001 196.6816218475682,172.6403789884362 195.2905113557212,172.9435697366596 194.00640936324316,173.08624773582326 189.85091263759318,173.37160373415188 187.889090149089,173.58562073289738 185.552737912777,173.9423157308078 182.53866518043887,174.53086247735982 177.33091821095243,175.7079559704626 174.60220147694164,176.38567646649125 173.6569597324792,176.6888672147147 172.9079002368687,176.9920579629381 172.1588407412582,177.34875296084854 171.62379824439319,177.65194370907196 170.83906924899048,178.27615995541362 170.51804375087096,178.59718545353314 170.1791835028579,179.0430542009202 169.96516650410987,179.39974919883065 169.76898425526048,179.89912219590474 169.6263062560968,180.39849519297883 169.5906367563046,180.8265291904711 169.6263062560968,181.64692768566343 169.91166225442413,182.64567367981164 170.30402675212548,183.53741117458708 171.46328549533342,185.78458966141986 171.7843109934504,186.58715340671736 171.96265849240623,187.24703915284996 172.0339974919881,188.12094189773057 171.9269889926166,188.76299289396835 171.695137243975,189.31587014072818 171.44545074543734,189.6725651386386 171.23143374669183,189.8865821373841 170.89257349867623,190.13626863592177 170.5893827504528,190.31461613487636 169.78681900515656,190.58213738330886 168.77023826111227,190.74265013236862 166.45172077469638,190.88532813153228 165.1319492824312,191.06367563048687 163.919186289535,191.34903162881545 162.81343179601532,191.81273512609863 162.04653755050873,192.2229343736948 161.36881705448005,192.686637870978 157.51651107705095,195.64720635363037 155.92921833635202,196.78863034694348 154.3419255956531,197.80521109098652 153.1469973526555,198.5186010868061 151.91639960986572,199.14281733314903 148.27811063118213,200.71227532395315 147.29719938693003,201.17597882123633 146.60164414100527,201.58617806883248 146.04876689424668,201.96070781663775 145.44238539779985,202.44224606381576 145.06785564999205,202.79894106172617Z"/>
    <path d="M251.59481677581235,106.45562212623719 251.80883377455785,106.66963912498268 252.02285077330586,106.83015187404244 253.07510101713981,107.31169012122044 253.48530026473472,107.57921136965295 254.18085551065948,108.25693186568289 254.30569875992958,108.5066183642193 254.4840462588829,109.04166086108431 254.7158980075245,109.36268635920382 254.96558450606216,109.57670335794933 256,110.21875435418708 253.77065626306458,110.45060610282867 252.46871952069296,110.71812735126117 251.63048627560454,110.93214435000795 250.41772328271085,111.34234359760411 249.4368120384562,111.75254284520028 248.5094050438924,112.19841159258736 247.70684129859362,112.67994983976664 247.11829455204284,113.0901490873628 246.404904556222,113.69653058380965 245.976870558731,114.16023408109282 245.6201755608193,114.65960707816693 245.35265431238807,115.1233105754501 245.1029678138504,115.76536157168786 244.96028981468672,116.40741256792562 244.92462031489453,117.17430681343222 245.0851330639543,118.35140030653498 245.24564581301405,118.97561655287792 245.54883656123747,119.84951929775727 246.03037480841675,121.02661279086004 248.40239654451838,126.44837675909197 248.9196042914873,127.85732200083633 249.2584645395029,129.0165807440443 249.4903162881445,130.15800473735612 249.66866378709778,131.29942873066798 250.38205378291866,138.07663369095854 250.5247317820823,139.03971018531453 250.7565835307239,139.96711717988092 251.05977427894734,140.84101992476025 251.46997352654478,141.69708791974477 252.02285077330586,142.49965166504228 252.62923226975272,143.2487111606528 252.1833635223631,143.1952069109658 251.48780827644086,143.2487111606528 250.29288003344072,143.40922390971255 249.86484603594974,143.58757140866715 249.56165528772632,143.83725790720482 249.34763828898082,144.0691096558464 248.95527379127947,144.83600390135175 248.83043054200937,144.9965166504115 248.1348752960846,145.5493938971726 247.35014630068446,146.36979239236493 246.90427755329736,146.61947889090263 246.72593005434152,146.76215689006628 246.26222655705834,147.2436951372443 245.6736798105076,147.95708513306514 244.79977706562696,149.11634387627183 244.40741256792563,149.5443778737641 243.99721332033073,149.88323812177842 243.42650132367353,150.2577678695837 242.78445032743704,150.45395011843434 242.23157308067593,150.48961961822528 240.85829733872248,150.41828061864342 240.6264455900809,150.45395011843434 240.44809809112505,150.6144628674941 240.18057684269382,151.1495053643591 239.91305559426004,151.48836561237346 239.3066740978132,151.95206910965663 238.89647485021575,152.1125818587164 238.55761460220268,152.1304166086112 238.12958060470916,152.00557335934363 236.50661836422057,150.93548836561362 235.75755886861006,150.59662811759927 234.66963912498395,150.23993311968886 234.40211787655016,149.88323812177842 234.00975337884884,149.41953462449524 233.65305838093968,149.098509126377 233.13585063397076,148.72397937857176 231.9944266406589,148.09976313222882 230.85300264734704,147.68956388463263 230.0326041521547,147.47554688588588 229.08736240769227,147.2793646370352 228.2669639124999,147.20802563745337 227.5000696669933,147.17235613766246 226.8580186707543,147.20802563745337 226.0732896753516,147.3150341368274 225.52041242859303,147.47554688588588 224.84269193256435,147.72523338442355 224.20064093632533,148.0819283823327 223.62992893966813,148.54563187961588 223.16622544238496,149.04500487669 222.79169569457972,149.65138637313683 222.41716594677445,150.57879336770318 221.88212344990944,152.80813710464116 221.41841995262627,154.23491709628033 220.7228647067015,155.7508708373987 219.90246621150916,157.21332032882881 219.31391946495842,158.03371882402243 218.68970321861548,158.62226557057318 217.9763132227946,159.08596906785635 217.15591472760227,159.40699456597585 216.31768148251385,159.5675073150356 215.62212623658908,159.58534206493044 214.9444057405604,159.4961683154525 214.1775114950538,159.24648181691612 213.5176257489212,158.88978681900568 213.01825275184586,158.46175282151466 212.5367145046691,157.87320607496267 212.2335237564457,157.24898982861973 212.12651525707167,156.85662533091966 212.07301100738593,156.44642608332222 212.07301100738593,155.98272258603905 212.14435000696778,155.46551483907012 212.411871255399,154.53810784450377 213.1966002508017,152.6119548557905 213.57112999860695,151.47053086247863 213.7673122474589,150.70363661697203 213.87432074683036,150.04375087083818 213.94565974641222,148.97366587710815 213.90999024662256,148.3316148808704 213.82081649714462,147.72523338442355 213.67813849798097,147.1010171380806 213.48195624912904,146.51247039152986 213.00041800195228,145.60289814685834 212.66155775393668,145.15702939947124 212.32269750592363,144.782499651666 211.73415075937032,144.3009614044867 210.9315870140741,143.83725790720482 210.07551901908957,143.5162324090853 209.11244252473355,143.3022154103398 208.25637452974902,143.230876410758 207.38247178486841,143.2665459105489 206.5264037898839,143.39138915981647 203.86902605545492,143.87292740699573 202.94161906088857,143.9621011564724 202.10338581580015,143.9621011564724 201.05113557196623,143.87292740699573 200.0880590776102,143.65891040824897 199.16065208304386,143.33788491013073 198.17974083879176,142.80284241326572 197.3593423435969,142.17862616692278 196.87780409642014,141.7327574195357 196.39626584924088,141.1798801727746 195.64720635363037,140.10979517904457 194.32743486136266,137.8982861920027 193.5248711160664,136.685523199109 192.72230737076762,135.668942455066 191.8840741256792,134.79503971018664 190.9388323812193,133.99247596488914 190.01142538665295,133.3682597185462 189.22669639125024,132.88672147136694 187.01518740420838,131.70962797826417 186.23045840880567,131.22808973108616 185.42789466350942,130.6217082346393 184.589661418421,129.83697923923663 184.19729692071965,129.3732757419547 183.73359342343647,128.73122474571568 183.18071617667536,127.75031350146358 182.64567367981036,126.55538525846472 182.23547443221545,125.32478751567622 182.02145743346742,124.21903302215527 181.96795318378167,123.61265152570716 181.98578793367778,122.95276577957459 182.12846593284144,121.90051553573939 182.41382193116877,121.11578654033796 182.8418559286623,120.4202312944132 183.16288142677928,120.06353629650276 183.53741117458708,119.74251079838452 183.96544517207806,119.45715480005592 184.41131391946516,119.22530305141433 185.44572941340553,118.8864428034 186.49797965723945,118.72593005434024 187.37188240211754,118.70809530444542 188.13877664762413,118.74376480423633 189.280200640936,118.90427755329608 191.18851887975444,119.36798105057927 196.36059634945124,120.88393479169638 197.80521109098652,121.22279503971072 199.1963215828335,121.4011425386653 200.39124982583363,121.41897728856138 201.01546607217657,121.34763828897955 201.62184756862342,121.20496028981589 202.10338581580015,121.04444754075614 202.54925456318978,120.81259579211454 202.95945381078468,120.52723979378595 203.2626445590081,120.24188379545862 203.51233105754577,119.93869304723519 203.72634805629127,119.49282429984684 203.85119130555884,119.02912080256493 203.86902605545492,118.60108680507267 203.77985230597702,117.86986205935699 203.28047930890418,115.6048488226281 203.1199665598444,114.23157308067466 203.08429706005478,113.00097533788488 203.10213180994833,107.98941061725039 203.17347080953016,106.84798662393852 203.2983140588003,106.02758812874492 203.51233105754577,105.2428591333435 203.7976870558731,104.4759648878369 204.84993729970702,101.9612651525716 205.1174585481408,101.10519715758709 205.3314755468863,100.30263341228957 208.45255677859845,100.83767590915457 210.55705726626883,100.89118015884158 213.01825275184586,101.140866657378 214.5342064929655,101.47972690539234 215.83614323533456,101.65807440434818 217.10241047791652,101.92559565278069 219.58144071338964,102.54981189912236 221.5967674515821,103.24536714504713 221.98913194928346,103.24536714504713 223.0235474432213,102.92434164692762 223.5942594398785,102.81733314755486 224.05796293716168,102.78166364776395 224.64650968371242,102.85300264734578 225.37773442942935,103.04918489619645 225.91277692629438,103.28103664483804 226.28730667409963,103.51288839347963 227.03636616971013,104.10143514003164 227.642747666157,104.44029538804598 228.30263341228957,104.65431238679147 229.30137940643775,104.83265988574607 230.7103246481834,104.92183363522399 233.3141981329266,104.77915563606032 234.045422878641,104.77915563606032 236.20342761599716,105.08234638428374 239.87738609447038,105.42120663229808 240.37675909154322,105.38553713250717 241.0544795875719,105.20718963355259 241.44684408527323,105.17152013376166 242.10672983140583,105.2250243834474 242.9271283266007,105.456876132089 243.3373275741956,105.510380381776 244.28256931865803,105.36770238261107 245.65584506061148,105.38553713250717 246.90427755329736,105.26069388323832 247.63550229901176,105.26069388323832 248.22404904556254,105.33203288282016 248.81259579211581,105.47471088198509 250.2215410338589,106.06325762853584 251.59481677581235,106.45562212623719Z"/>
    <path d="M188.424132645954,63.045840880590774 187.03302215410446,63.349031628814195 185.7667549115225,63.8305698759922 181.57558868608035,65.95290511355742 179.72077469695017,67.04082485718226 178.9182109516514,67.59370210394336 178.04430820677078,68.27142259997204 175.13724397380665,70.85746133481916 173.58562073289738,72.31991082625053 171.98049324230234,73.9963773164274 171.33844224606332,74.60275881287424 170.9104082485723,74.92378431099375 170.35753100181122,75.28047930890418 169.34095025776693,75.70851330639518 168.6097255120525,75.90469555524585 167.59314476800824,76.0830430542017 165.2389577818027,76.29706005294719 162.04653755050873,76.42190330221604 160.76243555803322,76.43973805211085 159.08596906785635,76.38623380242512 157.07064232966388,76.20788630346927 156.00055733593385,76.0652083043056 154.78779434304016,75.83335655566401 153.62853559983222,75.54800055733669 152.7903023547438,75.29831405879901 151.11383586456694,74.62059356277032 149.45520412428615,73.78236031768189 148.563466629512,73.21164832102598 147.83224188379504,72.69444057405579 146.4589661418416,71.55301658074393 145.19269889926215,70.28674933816323 144.05127490595032,68.89563884631497 142.9811899122203,67.27267660582385 142.14295666713187,65.6853838651249 141.50090567089285,64.22293437369355 141.00153267382,62.88532813153102 140.62700292601474,61.67256513863733 140.37731642747707,60.47763689563847 140.23463842831342,59.46105615159546 140.2168036784173,58.21262365891086 140.30597742789524,57.16037341507566 140.53782917653683,55.911940922391054 141.21554967256552,53.21889368816991 141.30472342204342,52.45199944266458 141.3403929218331,51.86345269611256 141.30472342204342,51.00738470112804 141.12637592308758,50.06214295666686 140.80535042496805,49.09906646230959 140.359481677581,48.1716594677445 139.69959593144839,47.17291347359631 138.68301518740412,45.97798523059745 135.72244670475175,43.39194649575032 134.7950397101854,42.553713250661886 133.6714504667696,41.39445450745394 131.0497422321303,38.50522502438339 129.71213598996906,37.238957781802696 128.80256374529625,36.54340253587793 127.89299150062598,35.97269053922201 126.98341925595572,35.50898704193883 126.09168176118155,35.134457294133576 124.89675351818396,34.742092796432225 123.84450327434749,34.47457154800099 122.72091403093172,34.27838929915032 121.20496028981462,34.10004180019447 119.86735404765082,34.064372300403555 118.92211230319091,34.10004180019447 117.8520273094609,34.1713807997763 116.62142956667111,34.31405879894123 114.53476382889681,34.70642329664131 110.66462310157416,35.58032604152193 109.23784310993499,35.81217779016225 107.75755886860753,35.84784728995443 106.86582137383336,35.77650829037133 105.95624912916308,35.65166504110376 100.67716316009482,34.652919046955574 98.75101017138027,34.15354604988148 96.82485718266572,33.45799080395671 92.22349170962866,31.549672565138255 88.63870698063334,30.283405322557563 87.26543123867991,29.694858576006812 86.56987599275514,29.302494078305468 85.85648599693428,28.820955831127463 85.1966002508017,28.250243834471537 84.78640100320426,27.822209836979276 84.30486275602499,27.215828340532433 83.73415075937034,26.32409084575699 83.30611676187681,25.53936185035557 82.87808276438581,24.611954855789214 80.75574752682186,18.958339138915687 80.47039152849453,18.030932144349332 80.29204402953869,17.26403789884273 80.14936603037502,16.318796154381552 80.16720078026857,15.48056290929312 80.32771352932834,14.624494914308595 80.577400027866,13.928939668385096 80.91626027588161,13.286888672147336 81.30862477358296,12.698341925595319 81.86150202034153,12.074125679252385 82.48571826668446,11.485578932701634 83.35962101156508,10.80785843667169 84.01950675769766,10.379824439180696 84.85774000278609,9.916120941897518 85.85648599693428,9.434582694718248 86.99790999024614,8.953044447540245 88.15716873345409,8.525010450047983 90.65403371882329,7.775950954437476 92.11648321025466,7.419255956527047 93.59676745158211,7.1338999581997165 96.21847568621888,6.741535460498371 97.39556917932292,6.652361711020447 98.30514142399319,6.634526961125623 99.17904416887127,6.705865960707455 100.08861641354407,6.884213459662036 101.44405740560141,7.2944127072594735 109.59453810784414,10.34415493938978 110.29009335376891,10.504667688448269 110.84297060053002,10.540337188239185 111.27100459802101,10.522502438344361 111.82388184478211,10.415493938971611 112.4659328410186,10.165807440433932 112.94747108819787,9.86261669221051 113.50034833495897,9.363243695136415 114.03539083182399,8.721192698898657 114.3564163299435,8.203984951929737 114.74878082764485,7.454925456317962 115.06980632576183,6.634526961125623 115.8902048209567,4.298174724814908 116.22906506896977,3.531280479308309 116.6392643165672,2.7465514839068845 117.17430681343222,1.9618224885041935 117.72718406019332,1.3554409920573507 118.31573080674407,0.8382332450884319 118.97561655287666,0.4458687473870863 119.59983279921958,0.19618224884940555 120.22404904556252,0.053504249685740704 120.88393479169511,0 121.47248153824586,0.01783474989482449 122.20370628396282,0.10700849937274864 122.91709627978366,0.26752124843250524 125.94900376201788,1.1414239933118533 127.19743625470122,1.4089452417443586 127.96433050020782,1.480284241326191 128.67772049602868,1.4624494914300992 129.5159537411171,1.337606242162526 130.06883098787821,1.194928242997594 130.5325344851614,1.5516232409080233 131.8523059774291,2.265013236727615 133.52877246760596,3.245924480980979 133.92113696530475,3.6204542287862327 135.0982304584088,4.940225721052667 135.31224745715429,5.421763968231937 135.36575170684003,5.778458966141099 135.34791695694648,6.902048209558128 135.20523895778283,7.686777204959552 135.24090845757246,8.310993451302487 135.34791695694648,8.632018949420733 135.6332729552738,9.09572244670391 135.93646370349722,9.34540894524159 137.22056569597274,10.237146440015763 137.64859969346628,10.665180437508026 138.1658074404352,11.3429009335367 138.41549393897287,11.521248432492548 139.03971018531328,11.735265431238046 140.78751567507197,12.056290929357559 141.16204542287977,12.1811341786264 141.4117319214149,12.323812177790066 141.62574892016042,12.573498676326478 141.94677441827992,13.35822767172917 142.64232966420468,14.196460916817601 142.87418141284627,14.535321164831938 143.23087641075543,15.658910408247701 143.67674515814505,17.51372439738041 144.15828340532178,19.2080256374521 144.2831266545919,19.475546885884604 144.60415215270888,19.957085133063877 144.65765640239715,20.117597882123633 144.56848265291924,20.313780130973036 144.15828340532178,20.68830987877956 143.89076215689056,21.08067437647964 143.56973665877103,21.81189912219532 143.35571966002556,22.45395011843308 143.03469416190603,23.149505364357847 142.87418141284627,24.558450606102205 142.8563466629502,25.48585760066856 142.44614741535528,26.787794343040172 142.28563466629552,27.626027588128604 142.3034694161916,28.07189633551569 142.4104779155631,28.32158283405337 142.5353211648332,28.48209558311186 143.08819841159178,28.927964330500213 143.1595374111736,29.070642329663876 148.20677163160028,28.73178208164954 150.54312386791227,28.73178208164954 151.23867911383704,28.767451581440458 151.8450606102839,28.874460080813204 152.62978960568404,29.070642329663876 156.1610700849936,30.247735822766646 159.08596906785635,31.299986066601843 160.2452278110643,31.781524313779848 161.0121220565709,32.227393061166936 161.38665180437616,32.56625330918127 161.85035530165933,33.136965305838466 162.59941479726984,34.1713807997763 162.84910129580751,34.617249547164654 162.86693604570107,34.99177929496991 162.33189354883606,36.02619478890902 162.18921554967238,36.65041103525195 162.22488504946458,37.238957781802696 162.33189354883606,37.559983279922214 162.56374529747765,38.02368677720539 162.84910129580751,38.4873902744873 163.1879615438206,38.93325902187566 163.90135153964144,39.664483767591335 165.0249407830572,40.69889926152918 165.88100877804172,41.7689842552592 166.41605127490675,42.3218615020203 167.02243277135358,42.785564999303475 167.70015326738226,43.19576424689965 170.00083600390207,44.26584924062967 170.98174724815414,44.67604848822584 171.98049324230234,44.97923923644926 172.85439598718042,45.157586735405104 173.53211648321164,45.22892573498694 174.85188797547679,45.24676048488176 175.72579072035742,45.3894384840467 176.38567646649,45.60345548279219 176.97422321304327,45.853141981328605 177.38442246063818,46.1384979796572 177.74111745854734,46.49519297756763 178.18698620593696,47.04807022432747 178.40100320468247,47.458269471923636 178.59718545353186,48.01114671868474 178.88254145186173,49.24174446147452 179.6672704472619,50.77553295248645 179.77427894663592,51.18573220008388 180.0239654451736,53.02271143932051 180.11313919464897,53.308067437647836 180.25581719381518,53.59342343597643 180.7373554409919,54.110631182945355 181.37940643723093,54.52083043054152 181.89661418419985,54.7170126793922 183.41256792531695,55.127211926988366 184.42914866936124,55.59091542427154 186.19478890901604,56.785843667270406 186.6406576564031,57.196042914866574 186.80117040546287,57.48139891319517 186.8725094050447,57.74892016162768 186.99735265431227,59.603734150759124 187.01518740420838,60.72732339417615 187.19353490316422,61.35153964051782 187.44322140169936,61.797408387906174 187.71074265013314,62.064929636338675 188.22795039710206,62.43945938414393 189.1375226417723,62.93883238121803 188.424132645954,63.045840880590774Z"/>
  </g>
</svg>