<?xml version="1.0" encoding="UTF-8" standalone="no"?>
<svg viewBox="0 0 256 95.98417337349969" xmlns="http://www.w3.org/2000/svg">
  <style>
    g.zone {
      fill: lightgray;
      stroke-width: 2;
      stroke-linecap: square;
      stroke-linejoin: bevel;
      stroke-miterlimit: 3;
      stroke-opacity: 0.8;
      stroke: black;
      fill-opacity: 0.3;
    }
  </style>
  <g class="zone" id="zone">
    <path d="M206.7590486039306,52.31419450564324 206.90868216357276,52.23362258891266 207.69138078323897,51.96888629108454 207.91007598579188,51.84227327907956 208.48558967672415,51.301290409604306 209.30281911784573,50.40348905175214 209.4984937727623,50.25385549210998 209.79776089204663,50.069691111011615 210.1891102018797,49.908547277551264 210.68405197608058,49.7819342655463 211.07540128591367,49.71287262263472 212.15736702486421,49.586259610629746 212.64079852524608,49.45964659862478 213.30839440672713,49.114338384066066 214.26374713367187,48.5618452407718 216.26653477811337,47.68706443055683 217.16433613596635,47.38779731127251 217.34850051706388,47.249674025449345 217.50964435052506,46.984937727620405 217.6132368148912,46.86983498943444 218.0276066723623,46.70869115597409 218.23479160109787,46.674160334517886 218.52254844656318,46.69718088215508 218.94842857785167,46.80077334652286 219.68508610224347,47.08853019198818 220.07643541207656,47.21514320399315 220.55986691246008,47.295715120723735 220.88215457938077,47.4223281327287 221.1929319724841,47.68706443055683 222.11375387797347,48.72298907423297 222.55114428308096,49.14886920552144 222.75832921181652,49.27548221752642 223.03457578346283,49.379074681894195 223.67915111730585,49.50568769389916 224.2776853558745,49.55172878917355 225.0718942493597,49.66683152735951 225.7970414999325,49.92005755136945 226.49916820286896,50.24234521829097 226.79843532215327,50.34593768265875 227.8343599658294,50.19630412301659 228.5595072164022,50.17328357537939 229.28465446697666,50.08120138483062 229.62996268153537,50.08120138483062 229.9062092531817,50.115732206286005 230.30906883683377,50.265365765928166 230.88458252776442,50.587653432849685 232.4960208623712,51.17467739759933 233.95782563733746,51.47394451688366 234.52182905444909,51.61206780270682 234.8786475428268,51.7156602670746 235.54624342430785,51.991906838721725 236.28290094869968,52.17607121982009 236.61669888943936,52.23362258891266 237.37637696146757,52.26815341036886 238.48136324805608,52.567420529653184 238.58495571242386,53.11991367294664 238.8151611887958,53.799019828245875 239.09140776044376,54.37453351917652 239.88561665392731,55.87086911559815 240.08129130884387,56.319769794523815 240.21941459466865,56.74564992581311 240.3460276066728,57.29814306910738 240.4035789757662,57.85063621240083 240.49566116631496,59.749831392473745 240.57623308304474,60.70518411941929 240.8064385594183,62.12094779911034 241.03664403579023,63.1108313475121 241.33591115507457,64.07769434827665 241.65819882199526,64.94096488467261 242.038037858011,65.71215323052063 242.57902072748624,66.5984443145546 243.98327413335747,68.4976394946275 244.60482891956414,69.48752304302926 245.15732206285676,70.60401960343599 246.04361314689075,72.83701272424861 246.45798300436184,73.74632435591977 247.0104761476561,74.77073872577691 247.64354120768016,75.71458117890427 248.55285283935214,76.88862910840437 249.64632885212004,78.10871813317806 250.6131918528854,79.07558113394262 253.3065959264427,81.60784137403957 254.20439728429568,82.51715300571072 254.8144417966817,83.18474888719096 255.25183220179082,83.72573175666622 255.58563014253053,84.2206735308671 255.82734589272147,84.69259475743078 255.95395890472562,85.08394406726389 256,85.360190638911 256,85.68247830583253 255.93093835708925,85.97023515129786 255.7928150712661,86.2004406276706 255.58563014253053,86.41913583022435 255.35542466615695,86.5572591160475 255.07917809451064,86.64934130659627 254.80293152286433,86.69538240187066 254.36554111775683,86.70689267568966 253.95117126028575,86.66085158041528 253.4332089384485,86.5572591160475 252.8692055213352,86.36158446113095 252.05197608021365,85.98174542511605 250.6247021267044,85.12998516253826 250.19882199541428,84.89977968616552 249.63481857830266,84.68108448361177 249.0708151611894,84.56598174542582 248.6449350299009,84.56598174542582 248.1615035295174,84.6350433883374 247.8046850411413,84.73863585270517 247.36729463603385,84.9228002338027 247.04500696911148,85.10696461490107 246.63063711164202,85.3947214603664 246.2853288970833,85.71700912728791 245.96304123016097,86.08533788948382 245.68679465851466,86.54574884222932 245.5256508250535,86.9601186996996 245.4680994559601,87.43203992626329 245.5256508250535,87.85792005755177 245.69830493233204,88.28380018884106 245.986061777799,88.72119059394855 247.3903151836702,90.34413920237432 247.96582887460085,91.09230700058514 248.29962681534218,91.6217795962414 248.65644530371827,92.33541657299683 248.82909941099845,92.8073377995597 248.94420214918523,93.2677487523052 249.00175351827698,93.6360775145011 249.00175351827698,93.94685490760361 248.9672226968216,94.24612202688793 248.87514050627283,94.56840969380946 248.73701722044967,94.82163571781939 248.5413425655331,95.05184119419133 248.31113708915956,95.23600557528968 248.06942133896862,95.36261858729466 247.67807202913554,95.51225214693682 247.25219189784704,95.62735488512278 246.23928780180893,95.76547817094594 245.00768850321623,95.81151926622033 234.17652083989037,95.80000899240214 206.85113079447936,95.9381322782253 195.45595971404188,95.92662200440711 191.4964255204365,95.98417337349969 191.0820556629654,95.9611528258625 190.54107279349014,95.90360145676992 190.04613101928925,95.78849871858314 189.65478170945616,95.65037543275997 189.24041185198504,95.40865968256904 189.0447371970685,95.22449530147068 188.91812418506436,95.05184119419133 188.81453172069658,94.85616653927478 188.6994289825098,94.55689941999046 188.38865158940808,93.2217076570308 188.11240501776015,92.49656040645718 187.89370981520722,92.09370082280508 187.62897351737828,91.71386178679099 187.31819612427495,91.34553302459508 186.96137763589886,91.00022481003637 186.3973742187856,90.55132413110988 185.84488107549132,90.18299536891398 185.08520300346314,89.75711523762467 183.00184344229186,88.65212895103697 182.31122701317443,88.23775909356668 181.48248729823385,87.65073512881703 178.25961062901865,85.23357762690604 177.25821680679792,84.43936873342084 176.53306955622512,83.73724203048523 176.22229216312178,83.38042354210751 175.95755586529447,82.98907423227442 175.66979901982913,82.49413245807354 175.38204217436382,81.87257767186769 175.16334697180926,81.26253315948085 174.9676723168927,80.49134481363285 174.91012094779933,79.97338249179478 174.89861067398033,79.36333797940793 174.9676723168927,78.6957420979277 175.19787779326464,77.22242704914409 175.22089834090266,76.73899554876222 175.19787779326464,76.07139966728198 175.0137134121671,74.95490310687526 174.70293601906377,73.50460860572883 174.40366889977943,72.38811204532212 174.12742232813312,71.57088260419972 173.7936243873934,70.79969425835253 173.27566206555454,69.83283125758797 172.74618946989827,68.9695607211912 172.06708331459987,67.94514635133406 170.52470662290384,65.71215323052063 169.38518951485992,64.12373544355104 168.32624432354743,62.70797176385999 167.65864844206638,61.879232048919405 166.65725461984724,60.774245762331695 165.9436176430918,60.07211905939526 165.43716559507192,59.63472865428778 164.90769299941567,59.20884852299848 164.26311766557265,58.7369272964348 163.29625466480888,58.17292387932235 162.5135560451427,57.79308484330826 161.56971359201535,57.40173553347434 159.57843622139282,56.711119104357735 158.41589856571255,56.37732116361721 157.3684636482174,56.101074591970075 156.49368283800243,55.905399937053524 155.74551503979163,55.77878692504856 154.81318286048327,55.66368418686259 153.99595341936168,55.6061328177692 153.05211096623432,55.583112270132006 151.99316577492016,55.61764309158821 151.19895688143498,55.69821500831879 150.34719661885802,55.85935884177914 149.6450699159216,56.0320129490585 148.83935074861736,56.308259520705626 148.33289870059912,56.52695472325937 147.86097747403463,56.78018074726931 147.41207679510813,57.056427318915624 147.04374803291304,57.344184164381765 146.38766242525102,57.977249224405796 144.8222651859186,59.83040330920433 143.94748437570365,60.70518411941929 143.40650150622676,61.154084798345785 142.9921316487573,61.464862191449114 142.31302549345887,61.91376287037479 141.48428577851828,62.408704644575664 140.5289330515719,62.90364641877654 139.36639539588998,63.4561395620708 138.38802212130724,63.85899914572209 137.45568994199888,64.1812868126436 136.75356323906408,64.36545119374198 135.79821051211772,64.53810530102133 134.84285778517136,64.6301874915701 133.95656670113738,64.64169776538911 132.63288521199593,64.52659502720232 131.73508385414294,64.37696146756016 130.81426194865358,64.1812868126436 128.5237174587484,63.57124230025677 124.56418326514138,62.38568409693847 123.56278944292063,62.143968346747535 122.61894698979327,61.97131423946818 121.41036823883859,61.83319095364502 119.7759093565938,61.75261903691444 118.11842992671264,61.75261903691444 116.2077244728199,61.8677217751004 115.51710804370411,61.890742322737594 114.72289915021891,61.84470122746321 113.95171080437008,61.70657794164005 113.15750191088489,61.464862191449114 112.37480329121868,61.11955397689041 111.82231014792443,60.82028685760608 109.9576457893077,59.70379029719936 108.70302594307864,59.03619441571913 108.0469403354166,58.771458117891 107.31028281102479,58.57578346297445 106.72325884627514,58.50672182006287 106.03264241715772,58.495211546243866 103.50038217705995,58.759947844071995 102.52200890247721,58.79447866552819 101.54363562789446,58.7369272964348 100.63432399622411,58.57578346297445 100.04730003147283,58.40312935569509 99.41423497144879,58.18443415314135 97.21577267209237,57.25210197383299 96.45609460006256,56.95283485454867 94.26914257452513,56.28523897306844 93.5555055977697,56.02050267524031 93.07207409738783,55.801807472685745 92.58864259700596,55.51405062722043 91.03475563149094,54.466615709726106 90.4822624881983,54.12130749516739 89.75711523762386,53.78750955442687 89.10102962996345,53.58032462569213 88.4909851175758,53.545793804235934 87.76583786700299,53.545793804235934 85.03790297198867,53.81053010206406 81.32008452857424,53.89110201879464 80.50285508745104,53.94865338788804 79.83525920597162,54.0292253046178 78.79933456229548,54.22489995953435 77.62528663279619,54.50114653118148 76.05988939346216,54.93853693628897 72.33056067622873,56.055033496695685 71.35218740164598,56.319769794523815 70.23569084123844,56.572995818533755 68.81992716154821,56.8032012949065 67.58832786295552,56.929814306911474 66.65599568364716,56.95283485454867 66.12652308799092,56.91830403309247 65.74668405197681,56.872262937818086 65.21721145631894,56.72262937817592 64.77982105121144,56.49242390180317 64.42300256283373,56.204667056337854 64.05467380063864,55.75576637741136 63.83597859808408,55.32988624612288 63.67483476462455,54.89249584101458 63.36405737152121,53.41918079223096 63.22593408569806,52.9127287442119 63.04176970459888,52.4868486129226 62.77703340677157,52.07247875545231 62.43172519221286,51.738680814711785 62.05188615619876,51.508475338339856 61.476372465266486,51.301290409604306 61.038982060159,51.23222876669272 60.624612202689526,51.28978013578612 60.164201249944036,51.41639314779027 59.86493413065971,51.53149588597705 59.531136189920005,51.70414999325641 58.921091677532345,52.16456094600108 57.90818758149422,53.15444449440283 57.43626635492972,53.55730407805494 56.78018074726931,53.97167393552523 56.30825952070481,54.178858864259965 55.92842048469072,54.31698215008394 55.19176296029891,54.51265680500049 54.4551054359071,54.63926981700546 53.64938626860289,54.73135200755423 51.39337260015307,54.915516388651774 49.735893170271915,55.18025268648072 47.61800278764525,55.61764309158821 46.6166089654245,55.85935884177914 45.960523357762455,56.07805404433288 45.33896857155742,56.36581088979902 45.051211726092106,56.561485544715566 44.76345488062515,56.826221842543696 44.52173913043421,57.148509509465214 44.39512611843006,57.42475608111235 44.28002338024328,57.94271840295042 44.2570028326069,59.220358796817486 44.187941189694506,59.84191358302252 44.09585899914573,60.19873207140024 43.95773571332258,60.60159165505234 43.77357133222503,60.992940964885435 43.57789667730849,61.32673890562514 43.27862955802416,61.75261903691444 43.02540353401422,62.05188615619876 42.71462614091089,62.37417382312028 42.34629737871416,62.696461490041806 41.97796861651908,62.96119778786993 41.60963985432235,63.191403264241856 41.17224944921487,63.41009846679642 40.700328222652004,63.60577312171297 39.91762960298581,63.847488871903906 39.12342070950061,63.99712243154607 38.24863989928564,64.07769434827665 37.35083854143266,64.08920462209484 36.10772896902097,64.00863270536425 33.886246122026535,63.72087585989893 33.01146531181157,63.64030394316835 29.984263297512925,63.53671147880057 29.19005440402936,63.4561395620708 28.68360235600948,63.35254709770303 28.00449620071106,63.12234162133028 27.47502360505317,62.811564228227766 27.24481812868124,62.627399847129404 27.037633199945684,62.408704644575664 26.864979092667145,62.178499168203736 26.669304437750597,61.83319095364502 26.47362978283405,61.30371835798795 26.335506497009256,60.670653297963916 26.266444854098495,60.003057416483685 26.197383211186096,58.72541702261661 26.128321568275336,58.230475248415736 25.967177734814168,57.724023200395855 25.713951710804228,57.309653342925564 25.357133222426512,56.94132458072966 24.896722269682652,56.59601636617095 24.286677757294992,56.25070815161224 22.456544220133654,55.318375972303876 21.90405107683939,54.96155748392698 21.432129850276525,54.55869790027487 21.006249718988048,54.10979722134839 20.61490040915495,53.60334517332932 19.279708646194486,51.54300615979524 18.78476687199361,50.852389730677814 18.209253181061335,50.16177330156039 17.5761881210373,49.52870824153636 17.092756620655432,49.114338384066066 16.60932512027356,48.75751989568835 15.52735938132304,48.06690346657093 14.606537475832049,47.571961692370046 12.465626545569016,46.54754732251292 11.222516973157326,45.91448226248888 9.657119733824933,45.02819117845491 7.792455375208215,43.888674070411 6.526325255158514,43.05993435547042 5.582482802032785,42.38082820017118 4.845825277640975,41.75927341396533 4.0976574794301595,41.03412616339253 3.5912054314102786,40.435591924823875 3.130794478664784,39.82554741243704 2.7509554426506915,39.2155029000502 2.44017804954736,38.651499482937744 2.1639314779010443,37.98390360145751 1.9682568229844954,37.37385908906985 1.8186232633423323,36.71777348140863 1.5538869655133867,35.15237624207624 1.4618047749646148,34.76102693224232 1.300660941505082,34.32363652713484 1.1164965604059027,33.92077694348355 0.8517602625785927,33.494896812194256 0.5064520480198806,33.092037228542154 0,32.59709545434128 0.1266130120041523,31.95252012049824 0.2992671192843262,31.43455779866017 0.4949417742008752,31.07773931028327 0.9553527269463699,30.352592059709647 1.2431095724116907,29.708016725867427 1.668989703700169,28.90229755856322 2.129400656445664,27.935434557799482 2.256013668449816,27.716739355244922 2.4171575019109848,27.55559552178457 2.589811609189523,27.440492783598607 2.8430376331994633,27.33690031923083 3.3494896812193438,27.233307854863053 3.867452003056594,27.210287307225858 4.178229396159925,27.256328402500245 5.029989658738518,27.452003057416793 5.501910885301383,27.49804415269118 7.493188255923889,27.256328402500245 7.953599208667748,27.244818128682056 8.310417697045466,27.313879771593637 8.713277280697568,27.4635133312358 9.093116316711662,27.739759902882113 10.2096128771192,28.959848927656612 10.474349174946509,29.213074951666552 10.739085472775455,29.42025988040129 10.957780675330016,29.54687289240626 11.17647587788294,29.627444809136843 11.625376556809428,29.742547547322808 11.959174497549135,29.788588642597194 12.68432174812194,29.754057821141814 13.582123105974919,29.581403713862457 14.525965559102284,29.454790701857487 15.11298952385193,29.28213659457813 16.367609370082626,28.798705094195444 16.74744840609672,28.718133177465678 17.28843127557198,28.660581808372285 18.577581943258057,28.55698934400451 19.26819837237548,28.533968796367315 19.65954768220858,28.568499617823512 20.64943123061033,28.752663998921058 22.168787374668334,28.821725641833453 22.50258531540804,28.798705094195444 22.870914077604766,28.67209208219129 23.4349174947164,28.36131468908796 23.78022570927511,28.211681129445797 24.52839350748593,27.992985926892054 25.564318151162066,27.59012634324077 26.54269142574481,27.359920866868023 27.394451688323404,27.026122926127496 28.188660581808605,26.88799964030434 29.09797221347895,26.91102018794153 29.45479070185667,26.853468818848143 29.684996178228598,26.72685580684399 30.099366035699706,26.358527044648085 30.364102333528653,26.162852389730716 31.43455779866017,25.598848972618264 31.97554066813543,25.35713322242733 33.26469133582151,24.931253091138032 33.72510228856537,24.67802706712891 34.23155433658525,24.275167483476807 34.46175981295881,24.137044197653648 35.54372555190933,23.722674340183357 35.79695157591764,23.52699968526599 35.98111595701682,23.23924283980067 36.10772896902097,22.82487298233038 36.23434198102676,22.134256553212953 36.32642417157553,21.9270716244774 36.52209882649208,21.76592779101705 37.33932826761366,21.386088755002138 37.834270041814534,21.08682163571781 38.110516613460845,20.7760442426153 38.409783732745176,20.246571646959044 38.51337619711295,20.142979182591265 38.63998920911874,20.073917539679687 38.87019468549067,20.03938671822349 39.180972078594,20.085427813497876 40.23991726990651,20.407715480419395 41.56359875904797,20.695472325884715 42.61103367654311,20.994739445169042 43.16352681983738,21.02927026662524 43.92320489186556,20.983229171350853 44.68288296389538,20.787554516434305 45.31594802391942,20.51130794478717 45.67276651229713,20.396205206601206 46.07562609594924,20.32714356368881 46.88134526325181,20.25808192077723 47.04248909671298,20.20053055168384 47.203632930174145,20.03938671822349 47.30722539454192,19.590486039297 47.38779731127169,19.37179083674326 47.75612607346841,18.738725776719225 47.836697990198175,18.65815385998864 48.04388291893373,18.85382851490519 48.14747538330151,19.003462074547354 48.22804730003128,19.46387302729203 48.63090688368338,20.338653837507817 48.63090688368338,20.51130794478717 48.37768085967344,21.121352457174012 48.65392743131975,21.270986016816174 48.86111236005531,21.34004765972775 49.04527674115449,21.374578481183953 49.402095229530566,21.34004765972775 49.609280158266124,21.259475742997168 50.184793849196765,20.92567780225746 50.46104042084472,20.79906479025249 51.46243424306384,20.4192257542384 51.62357807652501,20.3846949327822 51.75019108853079,20.3846949327822 51.85378355289857,20.45375657569378 51.96888629108372,20.63792095679214 52.30268423182342,21.70837642192366 52.4062766961912,21.915561350659214 52.61346162492676,22.14576682703196 52.93574929184909,22.295400386673304 53.16595476822102,22.341441481948507 53.453711613686345,22.341441481948507 55.1802526864799,22.203318196124535 56.112584865788264,22.168787374669154 57.056427318915624,22.30691066049231 58.241985522233925,22.375972303403888 59.22035879681667,22.387482577222894 59.531136189920005,22.44503394631547 59.77285194011094,22.57164695832044 60.48648891686474,23.066588732521314 60.91236904815485,23.273773661256868 61.510903286723504,23.469448316173416 63.12234162133028,23.883818173643707 63.46764983588899,24.021941459466866 63.78993750280969,24.183085292928034 64.1927970864618,24.505372959849552 64.83737242030483,25.21900993660417 65.55100939706027,25.817544175172007 65.7927251472512,26.11681129445633 66.05746144507852,26.577222247201824 66.25313609999506,26.807427723573756 66.47183130254963,26.934040735578726 67.24301964839681,27.221797581044047 68.04873881570103,27.659187986152347 68.81992716154821,27.98147565307387 68.84294770918622,27.808821545794512 69.00409154264575,27.325390045411822 69.2688278404747,26.772896902118376 69.42997167393587,26.519670878108435 69.68319769794581,26.323996223191884 70.04001618632189,26.174362663549722 70.8342250798071,25.89811609190259 71.52484150892452,25.54129760352569 72.20394766422457,25.265051031878556 72.91758464097838,24.83917090058926 73.43554696281726,24.620475698035516 73.81538599883135,24.528393507486747 74.28730722539422,24.470842138393355 75.16208803561082,24.459331864575166 75.85270446472661,24.298188031113998 76.7850366440366,24.160064745290843 77.0958140371383,24.067982554741253 77.45263252551601,23.906838721280902 77.86700238298712,23.665122971089968 78.02814621644666,23.538509959084998 78.7532934670211,22.68674969650722 79.11011195539717,22.168787374669154 79.22521469358396,21.881030529203013 79.36333797940712,21.19041410008559 79.5475023605063,20.730003147340913 79.83525920597162,20.269592194596235 80.37624207544688,19.671057956027585 80.52587563508904,19.452362753473842 80.62946809945682,19.2336675509201 80.77910165909898,18.566071669439868 81.28555370711723,17.76035250213648 81.49273863585279,17.495616204307535 81.75747493368173,17.24239018029841 81.97617013623466,17.081246346837244 82.81642012499424,16.58630457263637 83.0236050537298,16.39062991771982 83.13870779191657,16.217975810440464 83.21927970864634,15.987770334067715 83.23078998246535,15.769075131513974 83.0236050537298,14.859763499842808 83.01209477991078,14.675599118745264 83.04662560136617,14.422373094735324 83.17323861337196,13.973472415808834 83.54156737556704,13.24832516523603 83.7372420304836,12.810934760127727 83.64515983993482,12.5807292837558 83.51854682793066,12.154849152466502 83.47250573265629,11.659907378265627 83.51854682793066,11.48725327098627 83.59911874466043,11.337619711344107 83.88687559012575,10.969290949148203 84.1516118879547,10.704554651320075 84.35879681669026,10.554921091677912 84.65806393597458,10.393777258217561 84.88826941234652,10.324715615305164 85.16451598399446,10.290184793849784 85.47529337709616,10.313205341486977 85.93570432984166,10.393777258217561 86.51121802077229,10.554921091677912 86.75293377096322,10.589451913134111 86.9716289735178,10.566431365496918 87.19032417607072,10.508879996403525 87.5816734859038,10.347736162942358 87.90396115282616,10.094510138933234 88.0996358077427,9.990917674565457 88.9513960703213,9.749201924374523 90.13695427363959,9.219729328717449 90.34413920237351,9.185198507262069 90.86210152421239,9.231239602536455 91.35704329841327,9.231239602536455 91.81745425115713,9.208219054899262 92.25484465626624,9.150667685805871 92.92244053774566,8.978013578526514 93.5094645024953,8.782338923609965 93.80873162177964,8.632705363967803 93.92383435996642,8.552133447237217 94.05044737197058,8.379479339957863 94.11950901488296,8.2298457803157 94.15403983633834,8.03417112539915 94.15403983633834,7.884537565756987 94.01591655051519,7.447147160649503 93.99289600287717,7.286003327189152 93.98138572905981,7.1018389460907905 94.03893709815156,6.963715660267633 94.13101928870198,6.871633469718043 94.25763230070612,6.8025718268064645 94.81012544400039,6.5838766242527225 95.09788228946572,6.422732790792372 95.30506721820127,6.215547862056818 95.38563913493104,6.042893754777461 95.40865968256904,5.870239647498106 95.39714940875004,5.69758554021875 95.13241311092109,5.076030754012904 95.04033092037233,4.776763634729396 95.04033092037233,4.569578705993841 95.14392338474009,4.3048424081657135 95.28204667056326,4.132188300886358 95.65037543275997,3.798390360145833 96.03021446877408,3.326469133582151 96.21437884987162,3.153815026302795 96.58270761206833,2.9926711928424443 97.56108088665108,2.750955442651509 97.81430691066102,2.6128321568275337 98.09055348230734,2.129400656445664 98.38982060159167,1.7380513466125658 98.56247470887183,1.5653972393332098 98.89627264961155,1.300660941505082 98.99986511397933,1.1740479295001118 99.05741648307271,0.9898835484017504 99.0343959354347,0.5870239647504648 99.06892675689008,0.3798390360149104 99.16100894743886,0.18416438109836145 99.3566836023554,0 100.05881030529183,0.1496335596421631 101.07171440133159,0.3107773931033316 101.48608425880107,0.3453082145587121 102.26878287846726,0.3107773931033316 102.69466300975738,0.41436985747110877 103.03997122431609,0.5755136909314594 103.63850546288474,1.0013938222207557 104.17948833236001,1.3351917629604624 104.58234791601048,1.6804999775191747 104.77802257092702,1.887684906254729 105.2959848927659,2.866058180837474 105.71035475023702,3.384020502675542 105.89451913133456,3.7293287172342544 105.95207050042795,4.051616384155773 105.96358077424532,4.535047884537643 105.99811159570234,4.880356099096355 105.98660132188333,5.029989658738518 105.94056022660895,5.156602670743489 105.45712872622707,5.881749921317111 105.12333078548573,6.5953868980717285 104.98520749966258,7.090328672272603 104.95067667820719,7.309023874826345 104.95067667820719,7.6313115417478645 105.00822804730059,8.172294411223126 105.22692324985351,8.390989613776867 105.49165954768246,8.60968481633061 106.30888898880403,9.058585495257098 106.99950541792145,9.518996448001776 107.43689582302893,9.657119733824933 107.86277595431905,9.680140281462126 108.4267793714307,9.588058090913355 109.2324985387349,9.323321793085226 109.5662964794746,9.173688233443064 110.18785126568126,8.759318375972773 111.10867317117062,8.333438244683476 111.77626905265004,7.861517018119794 112.15610808866576,7.642821815566052 112.36329301740132,7.539229351198275 112.76615260105179,7.4241266130123105 113.09995054179312,7.366575243918919 113.66395395890477,7.320534148644533 114.48118340002797,7.136369767546989 114.95310462659084,7.078818398453598 115.8278854368058,7.078818398453598 117.04797446157949,7.182410862821375 118.04936828380025,7.17090058900237 118.30259430781018,7.2169416842767555 118.6363922485499,7.343554696281726 119.08529292747637,7.6313115417478645 119.28096758239293,7.723393732296636 119.87950182096158,8.218335506497512 120.13272784497153,8.517602625781837 120.39746414279882,8.931972483252128 120.52407715480462,9.058585495257098 121.44489906029398,9.553527269457973 122.5959264421569,10.33622588912417 123.89658738366033,10.923249853873816 124.529652443686,11.176475877883757 125.77276201609607,11.579335461535043 126.46337844521348,11.867092307001181 126.69358392158705,11.936153949912761 127.00436131468875,11.959174497549952 128.12085787509628,11.901623128456562 128.99563868531126,11.705948473540014 129.81286812643282,11.613866282991241 130.99842632975114,11.372150532800307 132.47174137853474,10.992311496785396 133.1968886291092,10.658513556045689 133.84146396295222,10.33622588912417 134.02562834404978,10.186592329482007 134.03713861786878,10.129040960388615 134.00260779641175,9.95638685310926 134.12922080841756,9.818263567286103 135.0155118924515,9.392383435996805 136.1204981790384,8.931972483252128 136.32768310777396,8.805359471247158 136.52335776269052,8.598174542511604 136.60392967942192,8.44854098286944 136.77658378670046,7.965109482487571 137.0067892630724,7.654332089385058 137.4096488467245,7.205431410458568 138.01969335911215,6.376691695517986 138.49161458567502,5.501910885302201 138.5376556809494,5.294725956566646 138.5376556809494,5.122071849288108 138.43406321658162,4.926397194370741 138.11177554966093,4.558068432174836 138.1002652758419,4.465986241626064 138.1347960972973,4.396924598714485 138.35349129985187,4.3163526819839015 139.389415943528,4.132188300886358 140.0685220988264,4.063126657973961 140.41383031338512,4.086147205611971 141.10444674250255,4.293332134346708 141.6914707072522,4.431455420170684 141.91016590980675,4.465986241626064 142.1633919338167,4.442965693988872 143.10723438694407,4.247291039072322 143.88993300661025,4.28182186052852 143.99352547097803,4.258801312891328 144.0050357447954,4.189739669978931 144.21222067353096,4.28182186052852 144.58054943572768,4.500517063082262 144.9028371026484,4.742232813273198 145.16757340047732,4.972438289645945 145.34022750775586,5.179623218380682 145.43230969830464,5.363787599479043 145.51288161503604,5.57097252821378 145.5819432579468,6.273099231150209 145.6394946270402,6.526325255160149 145.75459736522697,6.768041005351084 145.93876174632453,6.9982464817230134 146.1459466750601,7.17090058900237 146.39917269907002,7.332044422463539 146.99770693763867,7.608290994110671 147.2164021401916,7.7349040061148235 148.65518636751983,9.0240546738009 149.01200485589754,9.288790971629028 149.6565801897406,9.645609460006746 150.24360415449024,10.2096128771192 150.85364866687627,10.612472460771302 151.80900139382263,10.992311496785396 153.19023425205748,11.671417652084632 153.4434602760674,11.740479294996211 153.76574794298813,11.786520390270598 154.07652533609144,11.775010116451591 154.35277190773778,11.717458747359018 154.6175082055667,11.625376556810247 154.88224450339567,11.45272244953089 155.17000134886098,11.164965604064752 155.3541657299585,10.877208758599432 156.21743626635447,8.966503304707508 156.33253900454127,8.621195090148797 156.63180612382558,7.470167708286696 156.81597050492314,7.0097567555420195 157.0231554336587,6.675958814801494 157.310912279124,6.376691695517986 158.09361089879022,5.789667730767522 158.58855267299109,5.271705408929453 158.89933006609442,5.006969111101325 159.25614855447213,4.788273908547583 160.43019648397143,4.2012499437979365 160.68342250798136,4.040106110336768 160.9136279843533,3.8329211816020314 161.04024099635907,3.671777348140863 161.14383346072685,3.476102693224314 161.4315903061922,2.55528078773496 161.7193471516575,1.8531540847985306 161.92653208039306,1.4618047749654326 162.14522728294597,1.2315992985926854 162.34090193786253,1.1395171080439135 162.5135560451427,1.1164965604067205 163.53797041499982,1.2315992985926854 164.26311766557265,1.0934760127695276 164.56238478485696,1.0704554651323346 164.8731621779603,1.1395171080439135 165.44867586889094,1.3927431320538537 165.63284024998848,1.4272739535092342 165.84002517872403,1.4157636796910467 167.25578885841426,1.277640393867889 168.46436760937058,1.0359246436761362 168.72910390719952,0.9323321793091769 169.13196349084998,0.6445753338430383 169.37367924104092,0.5640034171132718 170.60527853963362,0.43739040510830174 170.88152511128155,0.43739040510830174 171.66422373094775,0.6445753338430383 172.09010386223622,0.8517602625785927 172.44692235061396,1.104986286588533 173.4368058990157,1.933726001529115 174.48424081651083,2.589811609190341 174.70293601906377,2.796996537925895 174.88710040016295,3.0502225619358354 175.10579560271586,3.441571871768933 175.4050627220002,4.143698574704545 175.71584011510353,4.638640348905421 175.94604559147547,4.89186637291536 176.29135380603418,5.179623218380682 176.70572366350527,5.421338968571616 176.9934805089706,5.524931432939393 177.66107639045,5.69758554021875 177.97185378355334,5.835708826042725 178.21356953374428,6.07742457623366 178.5243469268476,6.606897171889916 178.75455240321955,6.825592374443658 178.9732476057741,6.917674564993248 179.3530866417882,6.952205386448628 180.28541882109656,6.906164291174242 181.7702441436992,6.6989793624386875 181.97742907243472,6.6874690886205 182.20763454880665,6.733510183894886 182.495391394272,6.860123195899856 184.00323726451262,7.67735263702225 185.07369272964414,8.091722494492542 185.4880625871136,8.298907423228096 186.04055573040787,8.667236185424 186.63908996897652,9.219729328717449 186.90382626680548,9.392383435996805 187.1685625646328,9.484465626545576 187.997302279575,9.657119733824933 188.7109392563288,9.92185603165388 189.516658423633,10.290184793849784 190.51805224585212,10.647003282226684 191.38132278224973,11.130434782609372 192.62443235466142,11.705948473540014 192.9812508430375,11.947664223730948 193.47619261723838,12.396564902657436 194.07472685580703,13.018119688863282 194.39701452272936,13.409468998696381 195.0876309518468,14.387842273279125 195.45595971404188,14.790701856931229 195.91637066678737,15.216581988220526 195.44444944022285,15.665482667147014 195.0761206780278,16.079852524617305 194.75383301110546,16.528753203543793 194.54664808237152,16.897081965739698 194.38550424891037,17.345982644665373 194.31644260599796,17.72582168068028 194.31644260599796,18.10566071669519 194.36248370127234,18.49701002652829 194.50060698709714,18.991951800729165 194.74232273728808,19.49840384874823 195.0300795827534,19.97032507531191 195.44444944022285,20.476777123330972 195.87032957151297,20.90265725462027 196.21563778607168,21.1673935524484 196.79115147700233,21.524212040826114 197.2745829773842,21.754417517198043 196.8256822984577,21.98462299357079 196.29620970280146,22.43352367249728 195.76673710714522,22.813362708511374 195.54804190459063,23.089609280158506 195.0876309518468,23.883818173643707 194.949507666022,24.033451733285872 194.81138438019883,24.12553392383464 193.31504878377885,24.793129805314873 192.35969605683246,24.988804460231425 191.17413785351417,25.288071579515748 190.81731936513646,25.460725686795104 190.6101344364009,25.64489006789265 190.46050087676036,25.8866058180844 190.20727485275043,26.65779416393159 190.20727485275043,26.945551009397732 190.3338878647546,27.417472235961412 190.35690841239258,27.636167438515155 190.3223775909356,27.854862641068898 190.04613101928925,28.68360235600948 190.01160019783387,28.99437974911281 190.05764129310828,29.236095499303744 190.12670293601903,29.431770154220295 190.3108673171182,29.67348590441123 190.92091182950423,30.133896857155907 191.31226113933732,30.352592059709647 192.3021446877391,30.78998246481795 193.1193741288623,31.18133177465105 193.3726001528706,31.377006429567597 193.52223371251276,31.607211905939526 193.57978508160616,31.791376287037888 193.59129535542516,32.090643406322215 193.41864124814498,33.299222157277704 193.15390495031767,34.92217076570349 192.9927611168565,35.61278719482091 192.85463783103336,36.03866732611021 192.83161728339533,36.23434198102676 192.84312755721433,36.48756800503588 192.92369947394573,36.76381457668302 193.07333303358791,37.051571422148335 193.3265590575962,37.408389910526054 193.95962411762187,38.283170720741836 194.29342205836159,38.61696866148154 194.6502405467393,38.89321523312868 195.3063261543997,39.27305426914277 196.06600422642953,39.9751809720792 196.76813092936595,40.41257137718669 196.9868261319189,40.60824603210323 197.65442201339994,41.460006294681826 198.35654871633471,42.15062272379925 198.48316172834052,42.392338473990186 198.64430556180005,42.85274942673486 198.78242884762483,43.140506272200184 199.1852884312753,43.73904051076884 199.7608021222076,44.45267748752345 200.3363158131382,44.89006789263094 200.70464457533495,45.25839665482684 201.19958634953582,45.67276651229795 201.49885346882016,45.99505417921865 201.76358976664747,46.38640348905257 201.90171305247063,46.47848567960134 202.43118564812852,46.69718088215508 202.64988085068143,46.823793894160055 202.85706577941698,46.984937727620405 203.07576098197154,47.21514320399315 203.24841508925007,47.491389775640286 203.31747673216248,47.69857470437502 203.30596645834348,47.84820826401718 203.2023739939757,48.23955757385028 203.2023739939757,48.46976305022303 203.24841508925007,48.68845825277677 203.34049727979885,48.88413290769332 203.478620565622,49.079807562609865 203.9275212445485,49.494177420080156 204.08866507800968,49.735893170271915 204.12319589946506,49.92005755136945 204.04262398273528,50.311406861202556 204.01960343509728,50.55312261139349 204.08866507800968,50.74879726631085 204.22678836383284,50.95598219504559 204.74475068567173,51.39337260015307 205.37781574569576,51.75019108853079 205.918798615171,52.0839890292705 206.39071984173387,52.27966368418705 206.65545613956283,52.32570477946225 206.7590486039306,52.31419450564324Z"/>
  </g>
</svg>