<?xml version="1.0" encoding="UTF-8" standalone="no"?>
<svg viewBox="0 0 256 221.93423997245606" xmlns="http://www.w3.org/2000/svg">
  <style>
    g.zone {
      fill: lightgray;
      stroke-width: 2;
      stroke-linecap: square;
      stroke-linejoin: bevel;
      stroke-miterlimit: 3;
      stroke-opacity: 0.8;
      stroke: black;
      fill-opacity: 0.3;
    }
  </style>
  <g class="zone" id="zone">
    <path d="M186.81081081081234,142.63108968841487 185.42262007230087,145.56171458082187 182.5580995007759,151.092442761232 181.94112583921458,152.52470304699605 181.500430366673,153.7806851437419 181.12583921501187,155.36718884489628 181.03770012050356,156.13840592184482 181.0156653468757,156.88758822516706 181.05973489413142,157.68084007574504 181.1699087622676,158.40798760543944 181.36822172490895,159.09106558788122 181.65467378206176,159.8622826648298 182.02926493372289,160.6334997417799 182.60216904802851,161.53692546049248 183.30728180409815,162.48442072645923 185.1361680151512,164.7099328627981 185.7090721294537,165.54725426063024 186.06162850749007,166.25236701669834 186.32604579101502,166.89137545188441 186.52435875365953,167.57445343432622 187.1633671888456,171.10001721466668 187.4498192459984,172.2678602169042 187.78034085040693,173.30349457737927 188.2430710965764,174.51540712687253 188.815975210882,175.7273196763642 189.36684455155975,176.76295403683926 190.116026854882,177.90876226545052 191.76863487691529,180.0241005336548 193.88397314512113,182.3818213117577 195.206059562749,183.63780340850357 198.66551902220743,186.4802892064038 199.59097951454632,187.40574969874268 200.27405749698812,188.24307109657482 201.0673093475661,189.56515751420113 201.99276983990498,191.72456532966112 203.11654329488834,193.48734721983058 203.6233430883135,194.41280771217103 204.61490790153286,196.77052849027396 205.47426407299128,198.5112756068171 206.09123773454948,199.59097951454632 206.70821139611084,200.4062661387506 207.76588053021376,201.57410914098813 208.29471509726366,202.05887416078542 211.04906180065558,203.55723876742994 211.93045274573873,204.13014288173554 212.9660871062138,204.92339473231195 214.17799965570862,206.04716818729534 214.9932862799113,206.97262867963423 215.27973833706412,207.39128937855105 214.57462558099445,207.83198485109264 212.9220175589612,208.62523670166905 212.32707867102772,208.82354966431353 211.37958340506097,208.97779307970387 210.45412291272208,209.02186262695804 208.82354966431353,208.91168875882187 208.09640213461915,208.93372353244973 207.41332415217735,209.02186262695804 206.50989843346633,209.2642451368567 205.80478567739667,209.5506971940095 204.43862971251622,210.23377517644974 202.63177827509105,210.89481838526368 199.48080564641015,212.2609743501457 198.88586675847978,212.48132208641806 197.0790153210546,212.9660871062138 196.35186779136023,213.27457393699444 195.80099845067934,213.67119986228187 195.1399552418654,214.42038216560414 194.7653640902043,214.9492167326556 194.03821656050988,216.2933379239113 193.72972972972923,216.7340333964529 193.3992081253238,217.06455500085985 192.80426923739034,217.439146152521 191.41607849888203,217.9239111723183 190.7550352900681,218.23239800309898 190.4024789120348,218.4307109657419 190.0719573076263,218.7171630228947 189.85160957135707,219.06971940092953 189.60922706145683,219.9951798932684 189.32277500430402,220.78843174384482 188.97021862627076,221.44947495265876 188.63969702186225,221.93423997245606 188.5295231537292,221.89017042520192 188.3312101910847,221.64778791530324 188.08882768118448,221.0969185746255 187.55999311413458,218.6069891547601 187.36168015149008,218.29850232397942 187.05319332070943,218.07815458770864 186.81081081081234,218.0120502668266 186.52435875365953,218.05611981408077 186.01755896023437,218.25443277672525 185.57686348769278,218.51885006025176 184.51919435358985,219.35617145808234 183.90222069203165,220.25959717679493 183.50559476674266,220.56808400757404 182.9547254260649,220.74436219659066 182.1835083491148,220.8104665174727 181.47839559304512,220.5901187812019 179.82578757101186,219.6866930624893 179.16474436219792,219.0256498536754 178.56980547426446,217.94594594594616 178.34945773799208,217.63745911516548 178.15114477535073,217.4832156997767 177.75451885006174,217.39507660526684 177.37992769840062,217.439146152521 176.82905835772286,217.59338956791132 176.07987605440061,217.96798071957247 175.48493716646712,218.49681528662393 174.64761576863657,219.51041487347268 174.3391289378559,219.75279738336977 174.05267688070307,219.8850060251338 172.06954725426127,220.34773627130323 169.82200034429454,220.96470993286303 169.18299190910844,220.9867447064893 168.32363573765002,220.898605611981 167.44224479256374,220.56808400757404 166.56085384747743,220.03924944052258 165.30487175073316,219.44431055259065 163.7844723704608,218.4307109657419 163.29970735066348,217.9900154932003 162.4183164055772,216.93234635909738 162.04372525391608,216.6238595283183 161.31657772422167,216.07299018763896 160.28094336374662,215.5000860733349 159.77414357032146,215.12549492167378 159.39955241866033,214.57462558099445 159.04699604062708,213.56102599414726 158.87071785161044,213.27457393699444 158.34188328456054,213.09829574797783 157.5927009812383,212.74573936994298 156.182475469099,211.77620933034996 154.92649337235468,211.09313134790816 154.77224995696278,210.89481838526368 154.6400413152019,210.63040110173873 154.57393699432143,210.21174040282344 154.70614563608234,209.85918402478862 155.32311929764367,208.88965398519557 155.43329316577672,208.58116715441489 155.45532793940458,208.25064555000793 155.36718884489628,207.8540196247205 154.99259769323515,206.97262867963423 154.55190222069356,206.17937682905782 154.30951971079335,205.8708899982787 153.9569633327601,205.6064727147522 152.89929419865717,205.03356860044812 151.24668617662388,203.95386469271736 149.5500086073349,202.9843346531243 149.19745222930163,202.65381304871735 148.55844379411243,201.97073506627555 148.3821656050958,201.86056119814094 148.09571354794298,201.7944568772589 147.43467033912907,201.83852642451308 145.93630573248456,202.4775348597007 145.01084524014567,202.71991736959936 143.7328283697704,203.11654329488678 143.13788948184003,203.18264761576881 141.57342055431195,203.11654329488678 140.36150800482028,203.18264761576881 139.87674298502296,203.09450852126048 139.612325701498,202.96229987949644 139.25976932346475,202.65381304871735 138.9292477190562,202.2131175761742 138.708899982787,201.7724221036326 137.65123084868407,202.03683938715756 137.012222413498,202.14701325529373 136.3732139783088,202.1910828025479 135.91048373213937,202.08090893441172 134.72060595627553,201.13341366844497 133.39851953864766,200.4062661387506 131.85608538474744,198.97400585298655 130.5560337407474,198.13668445515597 129.9390600791892,197.40953692546003 129.63057324840855,197.14511964193508 128.44069547254472,196.52814598037529 128.0881390945083,196.28576347047664 127.84575658461122,195.91117231881552 127.75761749010292,195.5365811671544 127.8016870373555,195.25012911000158 128.04406954725573,194.50094680667934 128.04406954725573,194.21449474952652 127.97796522637213,193.90600791874584 127.77965226373078,193.44327767257641 126.98640041315281,192.3635737648472 126.54570494061122,191.9449130659319 126.21518333620268,191.81270442416943 125.84059218454156,191.76863487691529 124.69478395593032,191.90084351867776 124.18798416250829,191.90084351867776 121.76415906352177,191.3720089516263 120.88276811843862,191.349974178 119.86916853158829,191.39404372525416 120.11155104148851,191.12962644172765 120.28782923050514,190.82113961094853 120.46410741952177,190.31433981752494 120.5081769667775,189.87364434498178 120.5081769667775,189.41091409881236 120.4420726458939,189.03632294715123 119.97934239972447,187.956619039422 119.8250989843357,187.47185401962471 119.86916853158829,186.9650542262011 120.04544672060806,186.4141848855218 120.55224651403009,185.44465484592874 121.25735927009974,184.40902048545368 121.76415906352177,183.8140815975202 122.99810638664133,182.5801342744022 123.5930452745748,181.85298674470627 123.72525391633886,181.54449991392715 123.76932346359145,181.21397830952017 123.65914959545526,180.8393871578575 123.43880185918604,180.4207264589422 122.90996729213302,179.737648476502 122.35909795145525,179.27491823033253 121.3234635909802,178.6359097951449 120.86073334481075,178.28335341711164 119.91323807884402,177.4239972456532 118.89963849199681,176.25615424341566 117.29110001721614,175.33069375107522 117.11482182819951,175.17645033568647 114.36047512480759,174.91203305215996 111.36374591151858,174.82389395765162 110.32811155104352,174.62558099500714 108.9839903597878,173.9645377861932 107.19917369599048,173.36959889826127 104.5770356343626,172.13565157514174 103.98209674642912,171.93733861249723 102.79221897056216,171.69495610259858 102.4396625925289,171.5407126872098 102.08710621449563,171.2762954036833 101.51420210019002,170.54914787398891 100.87519366500395,169.91013943880128 99.55310724737608,168.94060939920823 98.40729901876483,168.23549664314015 98.09881218798417,167.7727663969707 97.48183852642596,166.25236701669834 97.10724737476482,165.45911516612193 96.5784128077118,164.04888965398575 96.07161301428977,163.27767257703562 95.41056980547583,162.57255982096754 95.01394388018684,162.24203821656056 92.78843174384795,160.74367360991607 92.12738853503402,160.17076949561044 90.82733689103088,158.80461353072843 89.43914615252255,157.5265966603547 89.1747288689976,157.32828369771022 87.94078154587805,156.62317094164212 86.57462558099446,155.60957135479336 85.95765191943626,155.0366672404893 85.49492167326682,154.39765880530166 85.03219142709737,153.91289378550437 84.30504389739986,153.38405921845447 83.64400068858592,153.0755723876738 83.37958340506097,152.5908073678765 83.18127044241648,152.3484248579794 81.99139266655264,151.5772077810293 81.77104493028028,151.35686004475852 81.70494060939984,151.04837321397784 81.8591840247886,150.34326045790974 81.99139266655264,148.9110001721457 82.27784472370546,148.75675675675691 82.58633155448612,148.47030469960413 82.96092270614724,147.9855396798068 83.18127044241648,147.56687898089152 83.40161817868884,146.7956619039414 83.48975727319714,145.53967980719557 83.31347908418051,144.32776725770387 82.91685315889153,143.09381993458433 82.34394904458591,142.0361508004814 81.44052332587489,140.8242382509897 80.44895851265242,139.76656911688679 79.21501118953286,138.62076088827712 77.76071613014409,137.45291788603802 76.24031674987172,136.39524875193666 74.54363918058273,135.33757961783374 67.58065071441011,131.28318127044182 63.01945257359303,128.39662592528742 59.295575830609636,126.14907901532067 58.4802892064038,125.59820967464292 57.75314167670941,125.04734033396359 57.22430710965952,124.51850576691369 56.91582027887885,124.07781029437055 56.67343776897863,123.65914959545526 56.51919435358986,123.19641934928582 56.36495093820109,122.40316749870942 56.27681184369277,120.06748149423278 56.14460320192873,119.29626441728267 55.88018591840378,118.52504734033413 55.26321225684244,117.70976071612985 54.51402995352019,117.02668273368963 53.89705629196198,116.60802203477277 53.19194353589232,116.2775004303658 52.464796006197936,116.05715269409501 51.53933551385905,115.83680495782423 49.97486658633097,115.66052676880602 45.391633671889146,115.33000516439907 43.54071268721138,115.06558788087412 42.35083491134442,114.7791358237213 41.205026682733184,114.38250989843388 39.99311413324149,113.80960578412827 39.00154932002215,113.21466689619479 38.208297469444176,112.57565846100871 37.415045618869335,111.73833706317815 36.68789808917182,110.70270270270308 36.15906352212192,109.55689447409185 35.850576691341246,108.43312101910847 35.696333275952476,107.37545188500555 35.65226372869675,106.27371320365003 35.89464623859697,102.6379755551734 35.9166810122217,101.18368049578149 35.7844723704608,99.9497331726635 35.49802031330798,98.69375107591608 35.01325529351068,97.52590807367855 34.37424685832461,96.46823893957563 33.55896023411877,95.49870889998259 32.3911172318828,94.3969702186255 30.628335341713356,93.05284902737134 29.416422792218533,92.28163195042123 28.49096229987965,91.77483215699763 27.212945429507503,91.15785849543785 26.26545016354076,90.80530211740302 25.27388535031829,90.49681528662391 24.260285763471092,90.27646755035312 22.27715613702929,90.0120502668266 20.249956963334892,89.9239111723183 18.068514374248593,90.0120502668266 13.617490101567682,90.38664141848774 11.898777758650827,90.40867619211559 10.797039077295311,90.36460664486144 9.58512652780362,90.25443277672527 8.24100533654789,90.0120502668266 6.985023239800473,89.68152866241964 5.530728180411695,89.15269409536975 4.2086417627838255,88.49165088655582 2.9526596660364106,87.67636426235154 1.7848166637973109,86.64072990187648 0.9915648132224678,85.64916508865558 0.41866069891684893,84.56946118092637 0.06610432088358541,83.44568772594299 0,82.34394904458591 0.17627818901663175,81.33034945773714 0.44069547254471075,80.6693062489232 0.6610432088139347,80.27268032363578 1.4322602857640472,79.32518505766905 2.423825098986515,78.46582888621062 3.8340506111227004,77.60647271475219 5.332415217767202,76.8793251850578 9.100361508006317,75.33689103115758 12.956446892753748,73.28765708383531 14.300568084009479,72.67068342227553 15.424341538992856,72.25202272336026 16.52608022034837,71.96557066620744 17.583749354451292,71.74522292993666 18.707522809434668,71.56894474091845 20.117748321570854,71.45877087278384 21.26355655018209,71.43673609915598 23.841625064554243,71.56894474091845 26.573936994321432,71.92150111895329 28.821483904288183,72.42830091237688 30.738509209846402,73.06730934756452 32.41315200551067,73.75038733000476 34.616629368221695,74.80805646410768 38.49474952659699,76.81322086417578 40.58805302117497,77.73868135651622 42.37286968497228,78.39972456533016 44.55431227405858,78.95059390600792 46.36116371148375,79.23704596316072 48.74091926321454,79.45739369943152 55.9683250129121,79.8760543983468 58.34808056464289,79.92012394560096 59.36168015149009,79.83198485109264 60.353244964709425,79.63367188844815 61.23463590979572,79.3692546049232 62.35840936477909,78.92855913238006 63.460148046134606,78.28955069719399 64.67206059562943,77.51833362024387 68.55018075400473,74.56567395420903 69.82819762437687,73.7063177827506 70.75365811671575,73.15544844207284 71.87743157169913,72.58254432776722 73.17748321569914,72.05370976071576 74.74195214322722,71.59097951454632 76.04200378722723,71.34859700464767 78.3776897917023,71.12824926837688 81.2422103632304,71.04011017386856 83.59993114133333,71.06214494749486 85.56102599414727,71.26045791013935 88.02892064038637,71.7231881563088 100.67688070235945,74.91823033224229 101.71251506283451,75.11654329488678 102.7261146496817,75.24875193664926 103.49733172663183,75.29282148390341 104.24651402995407,75.24875193664926 105.28214839042913,75.05043897400633 106.0754002410071,74.74195214322566 106.84661731795723,74.32329144431037 107.52969530039589,73.79445687725891 108.23480805646554,73.11137889481869 108.76364262351544,72.47237045963104 110.23997245653521,70.40110173868092 110.85694611809342,69.62988466173081 111.54002410053522,68.94680667929057 112.39938027199365,68.30779824410294 113.52315372697701,67.75692890342519 114.71303150284085,67.38233775176406 116.12325701497704,67.16199001549327 117.57755207436894,67.1179204682391 118.6572559820966,67.18402478911956 119.93527285247187,67.38233775176406 121.10311585470784,67.64675503529057 122.75572387674424,68.15355482871418 125.09140988121932,69.07901532105305 130.15940781545842,71.37063177827552 132.1645722155281,72.11981408159778 133.72904114305618,72.60457910139351 135.315544844209,72.97917025305465 136.5274573937007,73.17748321569914 137.98175245308948,73.28765708383531 138.9953520399398,73.24358753658116 139.81063866414252,73.13341366844497 140.42761232570385,73.0012050266825 141.37510759166747,72.67068342227553 142.36667240488993,72.25202272336026 141.6615596488203,72.05370976071576 140.8242382509897,71.59097951454632 140.2954036839398,71.2163883628852 139.72249956963418,70.64348424857957 139.01738681356454,70.07058013427395 137.56309175417576,69.07901532105305 136.96815286624226,68.26372869684879 136.10879669478385,67.47047684627238 135.60199690136182,66.89757273196676 135.315544844209,66.25856429678068 135.24944052332543,65.61955586159304 135.38164916508947,65.1568256154236 135.7562403167506,64.8483387846445 137.2325701497672,64.12119125494854 138.8411086245479,63.085556894473484 139.4801170597371,62.777070063694374 140.42761232570385,62.46858323291371 142.7632983301789,61.91771389223595 143.6006197280095,61.851609571353926 145.82613186434838,62.116026854880445 146.70752280943466,62.13806162850674 147.7651919435376,61.91771389223595 149.8364606644877,61.30074023067617 150.32122568428503,61.23463590979415 150.89412979859063,61.256670683422016 152.56877259425175,61.41091409881235 153.9128937855075,61.697366155965156 156.31468411086303,62.51265278016786 158.8266483043547,63.460148046134606 159.88431743845763,63.76863487691528 161.82337751764686,64.05508693406809 163.89464623859698,64.12119125494854 162.3301773110689,63.504217593388766 160.6775692890356,62.64486142193191 157.4384575658464,61.63126183508314 155.32311929764367,60.70580134274426 154.5298674470657,60.44138405921775 153.89085901187963,60.33121019108313 153.2298158030657,60.33121019108313 151.18058185574344,60.63969702186224 150.54157342055424,60.63969702186224 149.94663453262388,60.507488380099765 148.47030469960413,59.978653813048304 147.87536581167376,59.824410397657964 147.10414873472365,59.758306076777515 145.25322775004275,59.714236529523355 144.4599758994679,59.62609743501504 143.22602857634837,59.27354105698021 141.28696849715914,58.30401101738717 138.2682045102423,57.26837665691211 137.58512652780362,57.15820278877593 136.0867619211591,57.11413324152177 133.90531933207282,56.805646410741105 132.29678085729213,56.71750731623278 131.6357376484782,56.585298674470316 130.79841625064765,56.25477707006335 129.9831296264418,55.792046823893905 129.38819073851147,55.2852470304703 128.99156481322248,54.71234291616469 128.83732139783058,54.293682217249405 128.79325185057797,53.919091065588276 128.88139094508628,53.52246514029929 129.38819073851147,52.37665691168805 129.696677569289,50.966431399551865 130.26958168359462,48.9392322258559 130.73231192976405,47.81545877087253 131.17300740230877,47.044241693922416 131.4814942330863,46.60354622138084 132.3628851781726,45.501807540023755 134.03752797383373,43.62885178171813 134.7426407299034,42.63728696849723 135.40368393871734,41.469443966259696 135.88844895851463,39.92700981235947 136.17490101566744,39.221897056291375 136.5274573937007,38.538819073851144 136.94611809261443,37.87777586503721 137.58512652780362,37.1065587880871 138.2682045102423,36.46755035290103 139.10552590807598,35.850576691341246 140.18522981580364,35.23360302978147 141.57342055431195,34.726803236356304 143.13788948184003,34.37424685832304 144.79049750387333,34.17593389567855 146.86176622482344,34.13186434842439 148.47030469960413,34.22000344293271 150.5195386469295,34.4183164055772 152.7450507832684,34.77087278361203 156.73334480977988,35.45395076605226 158.38595283181314,35.67429850232305 159.35548287140773,35.74040282320507 160.32501291100235,35.74040282320507 161.801342744019,35.56412463418844 162.52849027371337,35.365811671543945 163.29970735066348,35.03529006713698 163.93871578584955,34.550525047339676 164.3573764847664,34.04372525391607 164.57772422103562,33.58099500774664 164.68789808917182,32.96402134618686 164.64382854191922,32.369082458253374 164.44551557927474,31.619900154931127 164.9523153726999,31.487691513168652 165.54725426063024,31.4215871922882 168.14735754863338,31.355482871406178 168.58805302117497,31.31141332415202 169.11688758822487,31.13513513513539 170.06438285419162,30.694439662592245 170.57118264761678,30.38595283181314 171.67292132897228,29.482527113100552 173.413668445517,28.226545016353136 175.28662420382264,27.34515407126841 175.52900671371972,27.10277156136976 175.6391805818559,26.838354277844815 175.74935444999207,26.463763126183686 175.74935444999207,26.155276295403016 175.61714580822803,25.428128765708628 175.13238078843386,24.392494405233567 174.97813737304196,23.907729385436266 174.9561025994141,23.48906868652098 175.06627646755027,23.224651402994468 175.37476329833095,23.00430366672368 176.58667584782265,22.56360819418053 177.15957996212825,22.43139955241806 179.803752797384,22.078843174384797 180.26648304355345,21.9025649853666 180.46479600619793,21.74832156997783 180.59700464796197,21.483904286451313 180.5749698743341,21.197452229298506 180.13427440179254,19.655018075399845 179.6054398347395,18.244792563263662 179.6054398347395,17.95834050611085 179.67154415561996,17.78206231709422 179.89189189189233,17.45154071268725 180.24444826992558,17.165088655534444 181.67670855568963,16.415906352212193 181.96316061284244,16.195558615939838 182.7123429161647,15.336202444482973 184.40902048545368,13.551385780684097 185.07006369426762,12.692029609227236 185.33448097779257,12.295403683938247 185.79721122396515,11.105525908072853 186.01755896023437,10.047856773971496 186.34808056464288,9.496987433292173 187.51592356687885,8.373213978308797 188.92614907901503,7.227405749699125 190.8431743845764,5.8832845584433935 192.4517128593571,5.0900327078669845 192.8703735582739,4.759511103460017 193.61955586159618,4.010328800137767 194.5229815803072,3.3492855913238317 194.67722499569598,3.1069030814251803 194.7653640902043,2.864520571526529 194.89757273196832,1.8288862110514688 195.0958856946128,1.2780168703737116 195.47047684627395,0.6830779824402309 195.93320709244338,0.15424341539033562 196.0213461869517,0.11017386813461202 198.11464968152967,0 198.66551902220743,0.08813909450831588 199.15028404200473,0.3084868307791056 199.81132725081866,0.8593561714584284 202.56567395421058,3.7018419693570954 203.3809605784133,4.406954725425188 204.10810810810767,4.759511103460017 205.98106386641643,5.222241349629458 206.818385264247,5.618867274918446 208.20657600275533,6.56636254088519 209.46255809950276,7.557927354106092 209.9693578929248,8.10879669478385 210.45412291272208,8.968152866242278 210.80667929075534,9.276639697021384 211.18127044241646,9.452917886038016 212.23893957651939,9.717335169564528 212.81184369082501,9.937682905835318 213.6932346359113,10.532621793767232 214.61869512825018,11.325873644345208 215.08142537441964,11.656395248752174 216.601824754692,12.449647099328583 217.96798071957247,13.022551213634202 218.65105870201424,13.441211912549486 218.93751075916705,13.705629196074433 219.17989326906726,14.014116026855104 219.95111034601425,15.57858495438006 220.54604923394774,16.371836804958033 222.37493544500077,17.980375279738713 224.60044758133967,20.161817868823444 225.63608194181472,20.977104493027717 227.75142021002057,22.475469099672218 228.85315889137607,23.13651230848615 229.9548975727316,23.621277328283455 232.13634016181788,24.34842485797941 233.37028748493745,24.899294198657167 234.03133069375139,25.36202444482661 234.86865209158194,26.17731106903088 235.50766052677116,26.92649337235313 235.86021690480442,27.43329316577673 236.1025994147015,27.940092959200328 236.45515579273476,29.06386641418527 236.7856773971433,29.768979170253363 237.4687553795851,30.980891719745053 238.41625064555183,32.39111723188124 238.74677224995725,32.787743157170226 239.12136340161837,33.14029953520349 241.06042348080757,34.44035117920507 241.3468755379604,34.74883800998417 241.52315372697703,35.05732484076327 241.6333275951132,35.630228955068894 241.5672232742296,36.401446032019 241.06042348080757,39.111723188156766 240.66379755551858,40.23549664314014 240.68583232914645,40.5880530211734 240.81804097090736,40.896539851954074 241.21466689619635,41.315200550869356 242.47064899294375,41.954208986055434 244.1452917886049,43.232225856429146 244.9605784128076,43.9593733861251 245.48941297986062,44.55431227405701 245.77586503701343,45.061112067480614 246.1724909622993,46.07471165432938 246.56911688758828,46.86796350490579 248.86073334481077,50.92236185229771 249.56584610087728,52.00206576002693 250.51334136684403,52.97159579962153 250.8658977448804,53.41229127216311 252.58461008779415,56.47512480633414 252.9592012394584,57.400585298674585 253.95076605267775,60.90411430538718 254.2592528834584,61.697366155965156 254.6558788087474,62.270270270269215 255.03046996040854,62.57875710104988 255.53726975383057,62.777070063694374 256,62.79910483732068 255.71354794284719,62.90927870545685 255.42709588569437,63.10759166810134 255.1847133757973,63.32793940437213 254.94233086589708,63.680495782406965 254.74401790325572,64.23136512308471 254.699948356,65.22292993630562 254.63384403511955,65.66362540884877 254.52367016698335,65.90600791874586 254.2592528834584,66.30263384403484 253.24565329660808,67.20605956274743 252.34222757789706,68.10948528146001 250.99810638664133,69.18918918918924 249.5217765536247,70.73162334308789 247.69289034257164,71.92150111895329 246.96574281287727,72.5164400068852 246.48097779307997,73.2215527629533 245.75383026338557,74.85212601136183 245.29110001721614,75.4029953520396 244.6741263556548,75.86572559820904 242.99948355999365,76.76915131692162 242.58082286107995,77.12170769495646 242.3384403511797,77.45222929936341 241.7214666896215,78.70821139610926 240.81804097090736,79.83198485109264 240.37734549836577,80.53709760716073 239.5840936477878,82.3659838182122 239.51798932690735,82.76260974350119 239.54002410053522,83.15923566879017 239.694267515924,83.62196591495962 240.2671716302296,84.70166982268884 240.33327595111007,84.96608710621379 240.31124117748533,85.2305043897403 240.04682389395725,85.7373041831639 239.2535720433824,86.48648648648614 238.94508521260173,86.97125150628345 238.85694611809342,87.30177311069042 238.85694611809342,87.76450335685986 239.07729385436576,89.1967636426239 239.07729385436576,89.68152866241964 238.7688070235851,90.16629368221695 238.52642451368803,90.36460664486144 238.21793768290735,90.49681528662391 237.64503356860172,90.62902392838639 236.4992253399905,90.71716302289471 234.93475641246553,90.98158030642122 234.05336546737925,91.00361508004751 232.07023584093744,90.71716302289471 229.66844551557878,90.23239800309896 227.46496815286775,90.0120502668266 226.84799449130642,89.87984162506413 226.38526424513697,89.68152866241964 225.79032535720663,89.24083318987806 224.15975210879807,87.52212084696122 223.78516095713695,87.05939060079177 223.49870889998414,86.59666035462233 223.25632639008393,86.08986056119716 222.92580478567854,84.72370459631513 222.77156137028976,84.41521776553603 222.48510931313695,84.28300912377355 221.42744017903402,84.0406266138749 221.0969185746255,83.84231365123041 220.78843174384795,83.57789636770546 220.01721466689784,82.58633155448456 219.201928042692,81.70494060939826 218.65105870201424,80.91168875882185 218.3866414184893,80.75744534343309 217.68152866242278,80.64727147529692 217.35100705801423,80.47099328628028 217.04252022723358,80.09640213461915 216.55775520743626,79.30315028404118 216.05095541401423,78.79635049061758 215.5221208469612,78.46582888621062 214.88311241177513,78.22344637631197 214.3763126183531,78.0912377345495 213.91358237218054,78.06920296092319 213.07626097434996,78.13530728180365 211.511792046825,78.66414184885511 209.11000172146635,79.30315028404118 207.69977620933017,79.8760543983468 204.7471165432969,81.3744190049913 203.68944740919397,81.99139266655108 202.56567395421058,82.78464451712905 201.97073506627711,83.33551385780682 201.0673093475661,84.43725253916233 200.4283009123769,85.09829574797625 199.9876054398353,85.47288689963895 199.3926665519018,85.78137373041805 198.599414701327,86.00172146668885 197.10105009468248,86.11189533482502 196.06541573420742,86.31020829746952 191.68049578240695,87.45601652607918 189.69736615596517,88.18316405577514 189.01428817352337,88.53572043380997 188.04475813393188,89.17472886899604 187.73627130315123,89.32897228438638 187.67016698227076,90.0120502668266 187.71423652952336,90.32053709760729 187.80237562403167,90.54088483387807 188.00068858667618,90.78326734377673 189.21260113616785,91.73076260974346 189.4549836460681,92.01721466689628 189.6312618350847,92.32570149767538 189.719400929593,92.72232742296437 189.74143570322087,93.53761404716865 189.8295747977292,94.00034429333809 190.42451368565955,95.63091754174506 190.6448614219319,96.09364778791449 190.88724393183213,96.42416939232146 191.06352212084875,96.5784128077118 191.57032191427078,96.7987605439826 192.73816491650987,97.52590807367855 194.19245997590178,98.14288173523832 195.91117231881552,99.20055086933968 196.57221552762945,99.79548975727316 197.01291100017417,100.43449819245923 197.12308486830722,100.74298502323991 197.14511964193508,100.98536753313856 196.902737132038,102.04303666723992 196.902737132038,102.37355827164689 197.01291100017417,102.7261146496817 197.49767601996834,103.49733172663025 198.55534515407126,104.73127904974982 199.23842313651306,105.83301773110689 199.74522292993822,106.97882595971812 200.11981408159934,108.36701669822645 200.5825443277688,109.07212945429454 200.78085729041328,109.64503356860016 200.8689963849216,110.21793768290578 200.89103115854945,110.87898089171972 200.69271819590497,112.81804097090736 200.6706834222771,113.63332759511006 200.71475296952968,115.06558788087412 200.89103115854945,116.14529178860333 200.95713547942992,117.4673782062312 201.2435875365827,118.30469960406177 202.14701325529373,119.73695988982581 202.4555000860744,120.53021174040222 202.3673609915661,120.70648992941885 202.01480461353285,120.90480289206334 201.97073506627711,121.36753313823279 201.83852642451308,121.67601996901347 201.0012050266825,122.57944568772605 199.899466345327,123.52694095369279 198.26889309691845,124.45240144603167 197.9163367188852,124.76088827681235 197.82819762437688,124.95920123945527 197.80616285074902,125.17954897572763 198.02651058702136,126.34739197796516 197.96040626614092,127.11860905491528 197.7620933034964,127.64744362196517 197.25529351007125,128.55086934067776 196.8366328111544,129.4763298330182 196.3959373386128,130.8865553451544 196.24169392322406,131.21707694956135 195.86710277156294,131.63573764847663 194.58908590118764,132.82561542434203 193.42124289895168,134.19177138922407 192.58392150112113,134.52229299363103 191.59235668789864,135.11723188156296 190.82113961094853,135.7782750903769 190.13806162850986,136.549492167327 189.4549836460681,137.49698743329216 188.70580134274581,138.7529695300396 187.82441039765953,140.4716818729549 186.81081081081234,142.63108968841487Z"/>
  </g>
</svg>