<?xml version="1.0" encoding="UTF-8" standalone="no"?>
<svg viewBox="0 0 256 183.18655811536655" xmlns="http://www.w3.org/2000/svg">
  <style>
    g.zone {
      fill: lightgray;
      stroke-width: 2;
      stroke-linecap: square;
      stroke-linejoin: bevel;
      stroke-miterlimit: 3;
      stroke-opacity: 0.8;
      stroke: black;
      fill-opacity: 0.3;
    }
  </style>
  <g class="zone" id="zone">
    <path d="M81.81534730642728,132.81136324268368 80.83977134938499,131.79144292395623 79.90853975402787,131.30365494543508 78.79993071193637,130.81586696691707 76.71574571280259,130.23939026502873 70.81794560886999,129.13078122293408 67.49211848258918,127.80045037242303 64.16629135631467,126.07102026676117 57.64767018880857,124.03117962930939 53.390611467176946,122.16871643859517 51.79421444656115,121.63658409838885 50.50822795773526,121.41486228997243 49.17789710722419,121.41486228997243 45.05387147064178,122.0356833535428 43.767884981809594,122.0356833535428 42.57058721635404,121.76961718344121 39.59951498354201,120.70535250303173 38.40221721808646,120.39494197124498 36.85016455915584,120.26190888619577 33.12523817772108,120.17322016282857 31.528841157111582,119.99584271609419 29.045556902823844,119.28633292915347 25.143253074654695,117.33518101507205 19.068075523987716,115.25099601593827 17.69340031179778,115.0292742075187 14.677983717306875,114.94058548415151 10.287891910619734,114.319764420578 7.050753507709269,114.14238697384361 5.720422657198205,113.87632080374203 4.035336913218364,113.2111553784865 2.3945955309173943,112.27992378312938 1.197297765461848,111.26000346440507 0.39909925515394934,110.1070500606284 0.08868872336404335,109.26450718863848 0,108.51065304001575 0.1773774467343884,107.71245452970786 1.197297765461848,105.4065477221545 1.8181188290290566,102.56850857439798 2.7936947860713435,99.1096483630711 3.5475489346940696,96.98111900225214 4.478780530051185,95.16300017321994 5.099601593624695,94.23176857786282 7.1837865927584845,91.5711068768407 10.553958080718166,87.80183613372706 11.972977654599575,85.80633985796047 13.303308505110639,83.4560886887251 14.278884462152925,80.35198337086385 14.855361164041264,78.93296379698559 15.564870950978817,77.5582885847925 16.407413822965587,76.22795773428145 17.69340031179778,74.67590507535081 19.068075523987716,73.38991858652493 20.75316126797386,72.14827645938105 22.926034990471692,70.90663433223719 25.719729776543033,69.88671401350973 28.868179456089457,69.17720422657217 32.19400658236397,68.77810497141822 36.36237658063155,68.68941624805103 39.59951498354201,68.86679369478541 43.72354062013072,69.26589294993937 48.2023211501819,69.97540273688007 56.22865061493346,71.35007794907315 59.55447774120797,71.79352156590913 61.505629655292545,71.92655465096149 63.456781569377114,71.92655465096149 66.42785380218285,71.57179975749271 67.89121773774313,71.17270050233877 69.44327039667375,70.50753507708323 70.72925688549965,69.53195912004095 71.57179975749271,68.51203880131663 72.01524337432554,67.58080720595953 72.2369651827451,66.33916507881565 72.14827645938105,65.14186731335381 71.74917720422711,63.634159016108356 72.76909752295457,63.368092846006775 73.96639528841011,63.235059760957554 79.19902996709033,63.102026675905186 80.08591720076227,63.013337952537995 81.15018188116859,62.658583059069215 83.05698943356799,61.771695825394126 84.07690975229545,61.150874761823765 86.29412783647847,59.33275593279156 89.79733240949366,56.80512731681865 93.56660315260729,55.03135284947161 94.05439113112529,54.54356487095047 94.27611293954484,54.01143253074731 94.4978347479644,53.25757838212458 94.4978347479644,52.63675731855107 94.23176857785967,51.17339338299079 93.25619262082368,49.089208383857 92.94578208903378,48.11363242681471 92.90143772734861,47.27108955482479 93.12315953576817,46.73895721461847 93.74398059934168,46.2955135977825 96.18292049194424,45.40862636410741 97.33587389572092,45.142560194005824 102.65719729776518,44.43305040706827 103.5884288931223,44.078295513596345 103.98752814827624,43.76788498181274 104.25359431838098,43.235752641606425 104.2092499566958,42.659275939718086 103.32236272302386,39.555170621859986 102.25809804261122,36.717131474103475 102.25809804261122,36.140654772215136 102.39113112766044,35.785899878746356 102.83457474449956,35.120734453490826 103.54408453143712,34.54425775160249 106.4264680408788,33.036549454357036 107.00294474276714,32.59310583751792 108.5106530400126,30.863675731856052 111.92516888965746,27.271782435473657 113.25549974016852,25.542352329811795 113.78763208037168,24.744153819503897 114.7188636757351,22.349558288583353 115.16230729256792,20.22102892776754 115.8274727178266,19.112419885672885 118.17772388705882,16.85085743980471 121.01576303481534,14.544950632254508 124.87372250129931,11.839944569547209 128.11086090420977,10.243547548934561 128.95340377620286,9.57838212367903 130.4611120734483,8.070673826433577 132.27923090247737,6.7403429759225135 132.58964143426095,6.25255499740137 132.76701888099535,5.764767018880226 133.03308505110007,3.6805820197464367 133.43218430625404,2.5719729776549336 134.18603845487675,1.3746752121930856 135.11727005023388,0.31041053178675515 135.29464749696825,0.22172180841641007 139.50736185692102,0 140.21687164385858,0.0886887233671942 141.05941451585164,0.31041053178675515 142.12367919625797,1.0199203187243087 144.4739303654965,3.2371384029104657 148.4649229170297,7.4498527628600675 150.10566429932436,8.868872336738326 151.56902823488463,9.57838212367903 154.85051099948026,10.332236272301756 156.13649748830616,10.8200242508229 157.5111727005024,11.618222761127647 159.81707950805574,13.214619781743444 161.85692014550438,14.811016802356091 162.921184825917,15.786592759395228 163.49766152780535,16.540446908021103 164.3402043997921,18.048155205266557 165.04971418672966,18.668976268836914 165.8035683353524,19.023731162305694 167.93209769617135,19.555863502512008 169.08505109994803,19.99930711934798 170.85882556729823,21.19660488480668 172.72128875801243,22.793001905422475 173.65252035336957,23.458167330678005 176.71228130954563,25.054564351290654 179.4616317339318,26.20751775506733 180.83630694612805,27.05006062705725 181.4127836480164,27.582192967260415 181.90057162654068,28.203014030833923 183.452624285465,31.351463710374045 184.64992205092685,32.947860730989845 188.33050407067643,36.184999133900305 192.8092846007276,40.575090940584296 196.09076736532325,43.10271955655721 199.81569374675172,45.63034817252697 201.94422310757068,46.87199029967084 203.58496448986534,47.53715572492637 207.97505629655248,49.0005196604898 210.45834055084023,50.10912870258131 211.78867140135128,51.04036029793842 213.47375714533112,52.68110168023624 214.75974363416333,54.18880997748169 215.4692534211009,55.208730296206 215.95704139961887,56.22865061493031 216.66655118655643,58.490213060801636 217.3317166118151,59.909232634679896 218.70639182401135,62.348172527282465 220.61319937641073,65.18621167503898 221.27836480166312,65.98441018534687 222.03221895028585,66.69391997228443 225.934522778455,69.31023731162453 226.51099948034334,69.9310583751949 226.8657543738121,70.55187943876525 227.08747618223168,71.70483284254193 226.95444309717615,73.25688550147255 225.934522778455,78.71124198856918 225.1363242681471,80.97280443443736 225.18066862983227,81.68231422137491 225.4467347999307,82.30313528494843 226.2449333102386,83.14567815693835 228.77256192621152,84.43166464576423 232.1427334141712,87.00363762341917 233.78347479646587,88.4670015589826 234.8477394768785,89.66429932444129 235.42421617876684,90.6842196431656 236.22241468906844,92.72406028061737 237.02061319937633,94.32045730123002 241.63242681448304,102.4798198510308 243.05144638835813,104.65269357353178 244.95825394075754,106.60384548761635 245.66776372770138,107.4907327212883 249.1266239390251,113.65459899532246 249.88047808765415,115.51706218603985 251.87597436341758,122.56781569374597 252.4967954269911,124.16421271436177 253.294993937299,125.31716611813529 254.04884808592172,125.93798718170879 255.0687684046429,126.33708643686275 256,126.38143079854477 255.42352329811166,126.60315260696433 254.84704659622332,127.00225186211827 254.35925861770534,127.44569547895425 253.87147063918104,128.15520526589495 253.47237138403338,129.26381430798645 253.38368266066306,131.25931058375306 253.25064957561383,132.14619781742815 253.02892776719426,132.63398579594613 252.4967954269911,133.43218430625404 250.45695478953618,135.25030313528623 248.63883596050712,137.06842196431845 245.93382989779982,139.24129568681943 242.9627576649941,142.34540100467754 239.2821756452445,144.73999653559807 237.81881170968424,145.93729430105677 236.84323575264193,147.35631387493504 235.55724926381606,150.23869738437674 234.93642820024255,151.21427334141902 234.44864022172456,151.74640568162218 233.5617529880463,152.4559154685629 230.2359258617718,154.2296899359099 228.99428373463107,155.2052658929522 228.37346267105755,156.04780876494212 227.26485362896605,158.3980599341775 225.00329118309787,161.3691321669864 224.11640394941963,162.96552918759903 222.83041746059374,166.2913563138767 222.83041746059374,167.0452104624994 223.00779490732813,167.75472024943696 224.29378139615403,170.2380045037247 224.47115884288843,171.213580460767 224.3381257578392,171.79005716265533 224.07205958773446,172.27784514117647 223.58427160921647,172.89866620474683 222.1209076736562,174.2289970552579 221.58877533345304,175.2932617356674 221.5000866100827,176.62359258617843 221.98787458860068,180.25983024424286 221.89918586523663,180.61458513771163 221.58877533345304,181.19106183959997 220.8349211848303,181.8562272648555 219.7263121427325,182.25532652000945 216.75523990992676,182.56573705179306 213.60679023038665,183.09786939199938 212.7199029967084,183.18655811536655 211.4782608695677,183.09786939199938 208.50718863675564,182.65442577516026 203.008487787977,181.5901610947539 198.574051619611,181.1467174779148 197.33240949246397,180.88065130781322 196.22380045037247,180.39286332929208 195.0265026849106,179.41728737225293 191.92239736705568,176.1358046076573 191.16854321843294,175.2045730123002 190.5920665165446,174.27334141694305 190.1042785380203,173.2534210982156 189.43911311276793,170.50407067382628 189.12870258098434,169.88324961025592 188.552225879096,169.61718344015435 186.42369651827704,169.1293954616332 185.75853109301835,168.73029620647924 185.13771002945114,168.19816386627608 183.58565737052052,166.2026675905095 181.94491598821955,164.4288931231593 180.83630694612805,162.83249610254666 180.30417460592489,162.52208557076304 178.88515503204977,162.3003637623435 178.21998960679107,161.94560886887473 177.5991685432176,161.191754720252 176.62359258617528,159.5953576996362 175.60367226745413,158.5754373809119 174.5394075870415,157.91027195565636 173.2534210982156,157.42248397713522 172.23350077949445,157.15641780703362 171.30226918413103,157.1120734453516 169.6171834401512,157.24510653040082 166.46873376061106,158.3093712108103 161.6351983370848,159.5953576996362 158.79715918932828,160.74831110341287 152.85501472371683,163.76372769790376 150.72648536289788,165.00536982504764 148.4649229170297,166.60176684566343 147.26762515156784,167.71037588775494 145.44950632253878,169.92759397193794 144.1635198337066,171.257924822449 143.27663260003465,172.01177897107488 142.0793348345728,172.63260003464524 140.4829378139633,173.07604365148123 137.4675212194724,173.29776545990077 135.3833362203386,173.69686471505472 126.55880824527915,176.00277152260492 122.56781569374597,177.46613545816837 121.19314048154973,178.17564524510905 119.24198856747145,179.46163173393495 118.62116750389795,179.77204226572172 117.24649229170171,179.1512212021482 116.49263814307898,178.57474450025987 113.56591027195843,174.53940758704465 112.94508920838491,173.1203880131664 112.54598995323096,171.1248917373998 111.92516888965746,169.75021652520357 111.74779144292306,168.19816386627608 111.61475835787385,167.71037588775494 111.2156591027199,167.35562099428617 110.1070500606284,167.08955482418142 109.66360644378928,166.91217737744705 109.26450718863532,166.46873376061106 108.82106357180251,165.71487961198835 108.5106530400126,164.96102546336562 108.33327559327822,164.20717131474288 108.11155378485864,161.01437727351444 107.84548761476022,159.2406028061674 107.84548761476022,157.15641780703362 107.66811016802583,156.26953057335854 106.86991165771794,154.5844448293787 104.74138229689896,151.08124025636664 104.2092499566958,150.5047635544783 103.2780183613387,149.88394249090794 100.26260176684778,148.59795600207892 98.44448293781242,147.66672440672178 97.15849644898654,146.7798371730467 95.7838212367903,145.71557249264038 94.89693400311836,144.73999653559807 94.09873549281046,143.54269877013624 92.85709336566974,140.34990472891093 92.41364974883062,139.5517062186062 91.7928286852571,138.7535077082983 90.63987528148043,137.6892430278888 89.35388879265454,136.7580114325317 88.15659102719269,136.09284600727617 84.69773081586897,134.98423696518466 83.41174432703677,134.45210462497835 82.56920145505,133.7869391997228 81.81534730642728,132.81136324268368Z"/>
  </g>
</svg>