<?xml version="1.0" encoding="UTF-8" standalone="no"?>
<svg viewBox="0 0 188.61596407359247 256" xmlns="http://www.w3.org/2000/svg">
  <style>
    g.zone {
      fill: lightgray;
      stroke-width: 2;
      stroke-linecap: square;
      stroke-linejoin: bevel;
      stroke-miterlimit: 3;
      stroke-opacity: 0.8;
      stroke: black;
      fill-opacity: 0.3;
    }
  </style>
  <g class="zone" id="zone">
    <path d="M49.50890916992557,242.29697233087154 49.861219759525454,241.2029552368537 50.120817036069965,240.55396204548848 51.1592061422559,238.69969578444162 51.45588874402256,238.05070259307638 51.696943357958624,237.17919745038486 51.789656671011365,236.36332029552392 51.789656671011365,235.84412574243095 51.62277270751696,234.95407793712965 51.60423004490852,234.17528610748954 51.4929740692447,233.80443285528122 51.08503549181423,232.82167173692588 50.08373171085045,231.33825872808995 49.78704910908115,230.83760683760673 50.13935969868104,230.39258293495675 50.417499637839256,229.31710850354997 50.658554251772685,228.8535419382876 50.71418223960591,228.51977401130011 50.67709691438376,228.07475010864883 50.54729827611151,227.75952484427108 50.36187165000603,227.53701289294477 49.972475735186634,227.29595827901002 49.916847747356044,227.1847023033462 50.157902361292116,226.9251050268004 51.08503549181423,226.2946544980449 51.40026075619197,225.9608865710561 51.84528465884459,224.25496161089387 52.12342459800017,223.32782848037175 52.32739388671409,222.88280457772046 52.79096045197778,222.08547008547058 52.97638707808063,221.6960741706512 53.05055772852229,221.32522091844154 53.16181370418611,220.24974648703477 53.25452701723884,218.56236418948362 53.402868318122174,216.91206721715199 53.662465594669314,216.09619006229235 54.1074894973193,215.05780095610643 54.47834274952763,213.92669853686775 54.6637693756331,212.7955961176304 54.849196001738584,212.12806026365408 54.904823989569174,211.8313776618861 54.86773866434702,211.55323772272922 54.70085470085525,211.23801245835148 53.903520208605386,210.5704766043752 53.36578299290002,209.9029407503989 52.67970447631397,209.19831957120175 52.49427785020849,208.82746631899212 52.401564537158386,208.32681442851023 52.457192524988976,207.5665652614812 52.54990583804172,207.26988265971323 52.80950311458622,206.7692307692313 52.90221642763896,206.2314935535273 52.84658843980837,205.65667101260374 52.4386498623779,203.3388381862958 52.4386498623779,202.63421700709867 52.6611618137029,201.52165725047107 53.773721570330494,197.34955816311756 53.82934955816372,196.6078516586996 53.69955091988883,196.12574243082747 53.32869766768051,195.62509054034555 52.4386498623779,194.67941474721104 52.104881935389095,194.21584818194998 51.60423004490852,193.14037375054323 51.1592061422559,192.39866724612526 50.95523685354198,191.4900767782129 50.88106620310032,191.30465015210743 50.695639576994836,191.08213820078242 50.39895697522818,190.95233956250885 50.13935969868104,190.95233956250885 49.84267709691438,191.06359553817134 49.08242792988403,191.47153411560183 48.711574677675706,191.61987541648514 48.22946544980357,191.71258872953788 47.50630160799537,191.78675937997954 47.00564971751479,191.78675937997954 46.18977256265385,191.69404606692814 45.448066058234566,191.56424742865457 44.873243517309696,191.3788208025504 44.46530493988186,191.11922352600325 44.18716500072364,190.6556569607422 44.038823699840314,190.11791974503817 43.66797044763199,188.39345212226615 43.55671447196818,188.02259887005653 44.79907286686803,186.72461248732478 45.9301752861067,185.8160220194124 46.690424453134426,185.05577285238337 47.5990149210481,184.22135303491265 47.76589888454251,183.9617557583655 47.877154860206325,183.6465304939878 47.95132551064799,182.55251339997128 48.11820947413975,182.0889468347102 48.32217876285631,181.79226423294222 48.526148051570225,181.60683760683807 48.7672026655063,181.43995364334367 49.00825727944236,181.34724033029093 48.618861364622965,181.32869766768115 48.192380124584055,181.16181370418676 47.877154860206325,180.90221642763962 47.54338693321752,180.4201071997688 47.28378965667037,179.75257134579118 46.44936983920099,176.8042879907291 46.134144574820624,176.025496161089 44.68781689120685,173.44806605823524 44.39113428943756,173.0772128060269 43.59379979718769,172.26133565116595 43.000434593654376,171.3527451832536 41.07199768216583,167.94089526292913 40.738229755177024,167.27335940895284 40.404461828190854,166.42039692887107 40.16340721425479,165.99391568883084 39.71838331160217,165.49326379834895 39.03230479501611,164.88135593220323 37.62306243662185,163.80588150079646 36.566130667824844,163.26814428509374 36.23236274083604,162.91583369549517 36.12110676517486,162.65623641894803 36.10256410256378,162.35955381718136 36.43633202955259,161.4138780240482 36.8628132695915,159.13313052296107 36.918441257424725,158.48413733159452 36.825727944371984,158.0020281037224 36.67738664348866,157.74243082717658 36.43633202955259,157.48283355063074 34.804577719830704,156.38881645661291 34.48935245545297,156.09213385484625 34.21121251629739,155.75836592785743 33.41387802404752,154.57163552078816 32.83905548312264,153.5517890772133 32.56091554396443,152.95842387367867 32.26423294219777,152.01274808054416 32.06026365348385,151.58626684050392 31.763581051717196,151.15978560046372 31.225843836011833,150.52933507170823 30.521222656814707,149.84325655512086 29.964942778500905,149.45386064030149 28.92655367231497,148.99029407504042 27.090830073879165,148.3783862088947 26.40475155729311,148.1002462697378 25.514703751990506,147.58105171664485 23.95712009271292,146.52411994784916 22.584963059538175,145.46718817905213 20.71215413588286,143.63146458061766 19.17311313921371,142.27785021005397 18.6724612487305,141.61031435607637 18.023468057366596,140.29378531073485 17.819498768650043,140.0341880341877 17.578444154713974,139.8116760828627 17.0036216137891,139.45936549326416 15.853976531941985,138.97725626539201 14.574532811819982,138.30972041141573 14.185136897000586,138.0315804722588 13.406345067361793,137.3640446182812 12.664638562942514,136.86339272779932 12.182529335070377,136.67796610169515 11.29248152976777,136.45545415036884 10.977256265390038,136.30711284948552 10.680573663623381,136.0475155729397 10.27263508619291,135.3243517311315 9.957409821815178,134.9720411415329 9.401129943501378,134.48993191366077 8.418368825148665,133.74822540924282 7.621034332898798,133.22903085614985 7.1018397798045125,132.9694335796027 6.471389251049048,132.76546429088748 5.451542807474187,132.54295233956248 4.876720266549312,132.30189772562642 4.2091844125743325,131.78270317253345 2.373460814138529,129.8542662610462 1.260901057510929,128.8158771548603 0.7602491670277183,128.5748225409242 0.29668260176665734,128.50065189048254 0,128.51919455309232 1.798638273213654,128.37085325220897 3.170795306388397,128.11125597566314 4.2091844125743325,127.77748804867434 5.080689555265865,127.31392148341328 5.67405475879918,126.77618426770924 6.137621324060241,126.10864841373295 6.5084745762711975,125.36694190931499 7.509778357234984,122.82659713168205 7.917716934665455,122.08489062726278 8.45545415036818,121.39881211067672 9.122990004345795,120.84253223236293 9.809068520931849,120.47167898015329 10.587860350570642,120.2491670288283 11.014341590612188,120.19353904099638 11.644792119367652,120.19353904099638 12.442126611617521,120.32333767926995 13.258003766478463,120.58293495581577 14.148051571778435,120.97233087063518 15.112270027522706,121.56569607417113 16.48442706069745,122.60408518035574 21.12009271331333,126.66492829204675 23.178328263074125,128.27813993915623 24.698826597132197,129.353614370563 26.12661161813753,130.28074750108644 27.535853976531786,131.0409966681155 28.945096334926046,131.6899898594807 30.59539330725637,132.3204403882375 32.0231783282617,132.70983630305687 33.488048674489185,132.95089091699296 34.78603505721963,133.06214689265545 36.21382007822496,133.04360423004437 37.56743444878863,132.87672026655127 38.846878168910635,132.54295233956248 39.97798058814931,132.0979284369112 40.66405910473536,131.57873388381822 40.979284369113095,131.2078806316099 41.22033898304916,130.83702737940024 41.35013762132405,130.2992901636962 41.275966970882386,129.63175430971992 41.03491235694632,128.9642184557436 40.719687092568584,128.38939591482006 38.66145154280779,125.42256989714558 38.012458351441246,124.3470954657388 37.73431841228303,123.77227292481525 37.51180646095804,123.12327973344871 37.40055048529686,122.64117050557658 37.382007822685786,122.15906127770576 37.493263798346966,121.23192814718232 38.1422569897135,119.02535129653819 39.18064609589944,114.42677096914315 39.73692597421324,112.66521802115032 40.21903520208537,111.55265826452272 40.88657105606299,110.21758655656882 42.36998406489891,107.58452846588446 44.83615819209018,103.76473996812952 45.41098073301505,102.98594813849073 46.09705924960111,102.15152832102002 46.59771114008432,101.65087643053681 47.32087498189252,101.05751122700218 47.988410835867505,100.63102998696196 48.711574677675706,100.26017673475232 49.50890916992557,99.94495147037459 50.30624366217544,99.68535419382876 51.28900478053079,99.46284224250245 52.34593654932517,99.27741561639829 54.237288135591555,99.09198899029413 55.312762566999645,99.07344632768306 56.36969433579665,99.11053165290389 57.92727799507424,99.31450094161912 59.54048964218505,99.70389685643852 61.394755903229296,100.37143271041613 63.91655801825115,101.48399246704373 66.66087208460064,102.87469216282692 68.51513834564751,103.96870925684476 69.72041141532522,104.80312907431546 70.53628857018616,105.47066492829175 71.44487903809984,106.34217007098329 72.09387222946376,107.12096190062208 72.87266405910518,108.17789366941909 73.68854121396349,109.42025206432027 74.57858901926609,110.86657974793535 76.1918006663769,113.68506446472519 76.56265391858523,114.24134434303899 77.1374764595101,114.98305084745695 77.65667101260175,115.52078806316099 78.21295089091555,115.98435462842205 78.8063160944515,116.3552078806317 79.54802259887077,116.70751847023026 80.27118644067635,116.96711574677607 81.01289294509563,117.15254237288156 82.29233666521763,117.33796899898572 84.3134868897589,117.41213964942739 86.87237433000028,117.31942633637595 88.98623786759431,117.09691438504964 90.61799217731355,116.78168912067191 91.63783862088842,116.44792119368311 92.04577719831889,116.20686657974836 92.50934376357995,115.85455599014848 92.97291032884101,115.35390409966658 93.04708097928267,114.94596552223611 92.84311169056876,114.25988700565006 92.36100246269662,113.48109517600994 91.97160654787723,113.05461393596973 91.35969868173284,112.53541938287675 87.24322758221125,109.77256265391883 86.31609445168648,109.04939881211062 85.33333333333377,108.15935100680801 84.35057221497843,107.02824858757066 83.73866434883404,106.1196581196583 83.33072577140356,105.21106765174594 83.07112849485642,104.24684919600166 82.99695784441475,103.56077067941429 83.0340431696369,102.5038389106186 83.18238447052023,101.53962045487432 83.4234390844563,100.59394466174112 84.05388961321177,98.7767637259164 85.03665073156448,96.34767492394596 86.13066782558364,93.95567144719635 87.3173982326529,91.545125307837 87.68825148486123,90.69216282775523 87.87367811096671,90.00608431116916 87.9663914240168,89.30146313197072 87.91076343618622,88.78226857887907 87.72533681008338,88.18890337534312 87.42865420831409,87.59553817180849 87.03925829349468,87.05780095610577 86.66840504128636,86.68694770389612 86.13066782558364,86.26046646385589 85.25916268289211,85.81544256120459 83.16384180790917,85.16644936983937 82.62610459220643,84.88830943068247 82.18108068955381,84.5916268289145 81.43937418513717,83.90554831232713 79.97450383890968,82.32942199043846 78.73214544400983,81.06852093292753 79.3625959727653,80.67912501810814 80.4195277415623,79.6963638997528 81.0314356077067,79.21425467188197 82.60756192959536,78.15732290308496 82.95987251919524,77.8050123134864 83.68303636100082,76.93350717079487 84.09097493843129,76.56265391858523 84.48037085325068,76.32159930465048 85.44458930899495,75.83949007677833 86.13066782558364,75.43155149934786 86.7611183543391,74.93089960886597 87.09488628132527,74.50441836882443 87.22468491960016,74.20773576705777 87.26177024481969,73.92959582790087 87.13197160654742,72.5759814573372 87.1505142691585,72.37201216862196 87.26177024481969,72.26075619295948 87.29885557004182,72.14950021729697 87.16905693176957,72.00115891641232 86.5942343908447,71.64884832681376 86.44589308996137,71.4634217007096 86.39026510212815,71.2965377372152 86.39026510212815,70.98131247283747 86.53860640301147,69.99855135448344 86.53860640301147,69.2939301752863 86.0379545125309,66.8462987107048 85.88961321164757,65.97479356801327 85.72272924815317,65.27017238881614 85.70418658554209,65.0662031001009 85.77835723598376,64.8436911487759 85.8710705490365,64.71389251050233 86.61277705345577,64.1205273069677 87.1505142691585,63.93510068086354 87.59553817180849,63.916558018252466 87.89222077357515,63.82384470519973 88.07764739968063,63.34173547732891 88.15181805012229,62.859626249456774 88.80081124148883,62.155005070258326 89.09749384325548,61.61726785455561 89.39417644502214,60.4490801100961 89.41271910763322,59.59611763001564 89.5425177459081,59.114008402143504 89.44980443285537,58.68752716210327 89.28292046936096,58.3908445603353 89.02332319281382,58.14978994639923 87.89222077357515,57.3339127915396 87.63262349703064,56.92597421410913 87.50282485875574,56.64783427495224 87.52136752136683,56.40677966101617 87.72533681008338,55.68361581920928 87.63262349703064,54.97899464001083 87.4842821961473,54.44125742430811 87.59553817180849,54.23728813559288 87.81805012313347,54.126032159930375 87.91076343618622,54.03331884687764 87.9293060987973,53.439953643343 88.24453136317503,53.03201506591253 88.31870201361669,52.84658843980837 87.91076343618622,51.97508329711684 87.81805012313347,50.825438215268406 87.57699550919742,49.99101839779771 87.57699550919742,49.23076923076867 87.3730262204835,47.91424018542584 87.5399101839779,47.00564971751347 87.72533681008338,46.46791250181075 87.89222077357515,45.74474866000254 87.83659278574456,45.22555410690958 87.91076343618622,44.483847602491615 87.76242213530288,43.9831957120084 87.70679414747231,43.68651311024175 87.78096479791397,43.05606258148628 87.87367811096671,42.79646530493914 88.00347674923896,42.592496016223905 88.6524699406055,42.01767347530035 88.93060987976108,41.68390554831154 89.00478053020275,41.498478922207376 89.09749384325548,39.31044473417301 89.19020715630822,38.56873822975505 89.15312183108871,37.40055048529554 89.19020715630822,36.34361871649985 89.15312183108871,35.50919889902915 88.89352455454157,34.39663914240155 88.83789656671098,31.911922352599206 88.93060987976108,31.318557149064574 89.2087498189193,30.595393307257687 89.39417644502214,29.946400115891148 89.70940170940251,28.55570042010665 89.7650296972331,28.110676517455346 89.72794437201095,27.776908590467855 89.26437780674989,26.590178183398592 88.87498189193049,25.051137186729445 88.74518325365824,24.754454584962787 88.46704331450002,24.45777198319481 87.3173982326529,23.77169346660876 87.13197160654742,23.586266840503278 87.05780095610577,23.363754889178285 87.05780095610577,23.141242937851978 87.11342894393636,23.02998696218948 87.70679414747231,22.566420396928418 87.98493408662789,22.251195132550688 88.2630740257861,21.17572070114392 88.72664059104716,20.19295958278989 88.83789656671098,19.692307692306677 88.80081124148883,19.26582645226645 88.67101260321657,18.820802549615145 88.42995798928051,18.505577285237415 87.85513544835563,18.079096045197186 87.52136752136683,17.68970013037779 87.410111545703,17.485730841662555 87.35448355787241,17.022164276401494 87.39156888309456,16.76256699985435 87.61408083441957,16.05794582065722 87.72533681008338,15.446037954511514 87.85513544835563,15.03809937708236 88.05910473706955,14.630160799651888 88.57829929016384,13.906996957843685 88.91206721715264,13.517601043024289 89.39417644502214,13.165290453425724 91.24844270606901,12.182529335071695 91.89743589743556,11.756048095030149 92.1570331739827,11.440822830652417 92.3795451253077,11.032884253223262 92.52788642619102,10.606403013181717 92.58351441402161,10.179921773141487 92.50934376357995,9.716355207880428 92.08286252354104,8.900478053019484 91.93452122265508,8.529624800811161 91.80472258438282,7.4541503694043945 91.65638128349948,6.934955816311426 91.47095465739402,6.564102564101787 90.46965087643022,5.080689555264548 90.06171229899975,4.1720990873521835 89.98754164855809,3.8383311603646937 89.95045632333594,3.170795306388397 89.91337099811642,2.892655367231497 89.46834709546644,1.9840648993191325 89.33854845719155,1.5946689844984183 89.32000579458048,0.9827611183540288 89.39417644502214,0.7231638418068861 89.46834709546644,0.6860785165860539 89.74648703462202,0.6860785165860539 91.2669853686801,1.0383891061846182 92.36100246269662,1.1496450818484323 93.60336085759647,1.4834130088359219 94.64174996378242,1.6688396349400827 96.03244965956823,1.7430102853830647 97.1635520788069,1.9284369114872255 97.53440533101522,1.9655222367080576 97.99797189627628,1.8357235984344862 98.35028248587616,1.5761263218886612 98.72113573808448,1.0754744314054505 99.18470230334555,0.29668260176665734 99.40721425467055,0.09271331305142166 99.66681153121769,0.01854266260975732 100.00057945820649,0 101.39127915398967,0 101.87338838186182,0.12979863827225382 103.44951470375047,0.7973344922485505 104.0614225698975,1.0013037809637861 107.15804722584423,1.7244676227719897 107.67724177893588,1.817180935824729 109.3275387512662,1.9284369114872255 110.0507025930744,2.00260756192889 112.12748080544628,2.373460814138529 113.9075764160515,2.762856728957926 114.35260031870148,2.7999420541787576 114.64928292046814,2.7257714037370935 114.96450818484587,2.595972765463522 115.68767202665407,2.169491525423293 116.13269592930669,2.00260756192889 116.44792119368442,1.9469795740969829 116.89294509633442,1.9655222367080576 117.50485296247881,2.095320874981629 119.63725916268126,2.7257714037370935 121.009416195856,3.022454005503751 122.91931044473347,3.2820512820508934 124.16166883963334,3.689989859481365 127.10995219469673,4.060843111689687 128.94567579313255,4.561495002172897 129.7430102853824,4.672750977835394 130.83702737939893,5.06214689265479 131.22642329421834,5.1548602057075295 131.74561784731262,5.191945530928361 133.15486020570688,4.969433579602051 135.28726640590932,4.950890916992294 136.0289729103286,5.080689555264548 137.28987396783953,5.173402868317287 138.84745762711714,5.581341445747758 140.38649862378628,5.71114008402133 140.77589453860566,5.674054758800497 141.16529045342506,5.562798783136683 142.72287411270528,4.839634941329797 143.61292191800527,4.1720990873521835 144.6513110241912,3.615819209038383 145.70824279298822,2.9853686802829187 145.83804143126045,3.2820512820508934 145.9307547443132,3.912501810806358 145.94929740692427,4.524409676952065 145.87512675648262,5.173402868317287 145.74532811821035,5.488628132695019 145.13342025206333,6.2859626249448874 145.00362161379107,6.619730551933694 144.96653628856893,6.990583804142016 144.98507895118001,7.472693032014152 145.39301752861047,8.77067941474723 145.43010285383264,9.178617992176385 145.2632188903382,9.605099232216613 144.83673765029667,10.21700709836232 144.74402433724393,10.458061712298388 144.74402433724393,10.643488338402548 144.79965232507715,10.884542952338617 144.89236563812727,11.014341590612188 145.55990149210487,11.552078806314913 145.8936694190937,12.16398667246062 146.11618137041867,12.738809213385496 146.26452267130202,13.332174416920127 146.3201506591326,13.684485006518692 146.30160799652415,14.092423583947845 146.1532666956382,14.500362161378318 145.5042735042743,15.742720556279489 145.13342025206333,16.317543097203046 144.83673765029667,16.63276836158078 144.2248297841523,17.13342025206399 142.203679559611,18.635375923510985 142.07388092133874,18.857887874835978 142.07388092133874,18.969143850499794 142.12950890916935,19.098942488772046 142.5374474865998,19.395625090540022 143.24206866579695,19.72939301752751 143.74272055628015,19.896276981021913 144.35462842242453,20.026075619295487 147.24728378965736,20.322758221062145 147.97044763146556,20.304215558452388 149.17572070114326,20.19295958278989 150.02868318122634,20.24858757062048 150.9001883239179,20.396928871505125 151.69752281616775,20.71215413588286 153.1253078371731,21.54657395335356 153.64450239026473,21.787628567289627 154.3305809068508,21.973055193393787 155.7769085904672,22.214109807329855 158.24308271765847,23.067072287410312 158.76227727075275,23.326669563957456 159.1702158481806,23.641894828335186 159.31855714906655,23.84586411705042 159.5596117630026,24.402143995364224 159.74503838910547,24.60611328407946 160.02317832826367,24.772997247572544 160.7648848326803,24.97696653628778 160.9503114587858,25.088222511950278 161.19136607272188,25.44053310155016 161.61784731276342,25.885557004200145 161.78473127625782,26.182239605968118 161.9516152397496,26.664348833840254 161.9516152397496,27.165000724322148 162.08141387802448,27.424598000869292 162.39663914240222,27.739823265247022 163.24960162248266,28.296103143560824 163.36085759814648,28.44444444444415 163.3423149355354,28.62987107054831 163.175430972041,28.945096334926046 162.08141387802448,30.428509343763285 161.45096334926902,31.559611763000643 160.52383021874425,32.78342749529074 159.6708677386638,33.988700564971076 159.13313052296107,34.52643778067512 158.46559466898347,35.064174996377844 157.89077212806123,35.435028248587486 156.96363899753646,35.935680139069376 156.42590178183374,36.34361871649985 156.07359119223386,36.75155729393032 155.62856728958386,37.567434448789946 155.23917137476448,38.012458351441246 154.57163552078686,38.43893959148148 152.51339997102605,39.44024337244658 150.65913370998183,39.95943792553955 150.23265246994026,40.10777922642288 150.0101405186153,40.274663189917284 149.88034188034038,40.47863247863252 149.75054324206815,40.79385774301025 149.71345791684863,41.16471099521857 149.80617122989872,41.47993625959631 149.97305519339312,41.70244821092261 150.1770244821097,41.83224684919487 152.1054613935956,42.79646530493914 152.64319860930095,43.24148920759044 153.14385049978154,43.853397073736154 153.329277125887,44.224250325944475 153.45907576415925,44.68781689120685 153.45907576415925,45.28118209474148 153.3849051137176,45.96726061132754 153.2180211502232,46.46791250181075 152.9769665362871,46.8758510792399 152.53194263363713,47.39504563233287 151.82732145444,48.04403882369941 151.40084021439847,48.396349413297976 150.97435897435955,48.655946689845116 150.62204838475967,48.78574532811737 149.88034188034038,48.98971461683261 149.6578299290154,49.11951325510618 149.50948862813206,49.286397218600584 149.3796899898598,49.5459944951464 149.32406200202922,49.879762422135215 149.32406200202922,50.565840938721266 149.30551933941814,50.71418223960591 149.12009271331266,50.84398087787817 148.67506881066268,50.825438215268406 148.5452701723878,50.89960886571007 148.56381283499886,51.47443140663495 148.4896421845572,51.863827321454345 148.28567289584328,52.40156453715707 147.87773431841282,53.23598435462777 147.45125307837128,54.92336665218025 147.19165580182414,55.535274518324634 146.41286397218533,56.851803563667474 146.11618137041867,57.46371142981318 145.94929740692427,57.982905982906146 145.85658409387153,58.53918586121995 145.9307547443132,59.151093727364334 146.24598000869094,60.31928147182384 146.39432130957425,62.04374909459583 146.96914385049914,63.508619440821995 147.39562509054068,64.80660582355507 147.58105171664351,65.7337389540772 147.72939301752947,66.92046936114646 147.87773431841282,67.43966391423943 148.3227582210628,68.53368100825728 148.4896421845572,69.53498478922238 148.69361147327112,70.03563667970427 149.19426336375435,70.88859915978473 149.24989135158492,71.1852817615527 149.19426336375435,71.7415616398665 149.2128060263654,72.03824424163317 149.86179921773194,73.5216572504704 149.97305519339312,73.83688251484813 149.97305519339312,74.15210777922586 149.84325655512086,74.4673330436036 149.6022019411848,74.76401564537157 149.045922062871,75.17195422280072 148.84195277415708,75.37592351151596 148.76778212371542,75.61697812545202 148.82341011154602,75.8024047515575 149.12009271331266,76.06200202810334 149.52803129074314,76.22888599159774 150.2141098073292,76.45139794292272 151.97566275532333,76.8593365203532 152.30943068231215,77.1374764595101 152.75445458496213,77.32290308561426 153.58887440243416,77.48978704910867 155.03520208605056,77.50832971171974 155.92524989135052,77.61958568738224 156.8894683470948,77.91626828914889 158.24308271765847,78.5281761552946 158.92916123424453,78.91757207011399 159.35564247428607,79.32551064754446 160.02317832826367,80.21555845284576 160.98739678400796,81.3095755468636 161.1728234101108,81.698971461683 161.1542807474997,81.99565406345097 160.98739678400796,82.3108793278287 160.6721715196302,82.64464725481619 160.1158916413164,83.12675648268834 159.96755034043045,83.29364044618274 159.8377517021582,83.88700564971737 159.59669708822213,84.44328552803117 159.4854411125583,84.98102274373389 159.3927277995082,85.16644936983937 159.2443864986249,85.35187599594353 158.7808199333612,85.5929306098796 157.59408952629192,85.98232652469899 156.6669563957698,86.5942343908447 155.83253657830042,87.05780095610577 155.14645806171174,87.50282485875707 154.14515428074796,87.91076343618754 153.95972765464248,88.05910473707087 153.9411849920314,88.13327538751253 153.99681297986461,88.2074460379542 154.23786759380067,88.28161668839586 156.35173113139206,88.39287266405836 156.92655367231694,88.46704331450002 157.48283355063074,88.63392727799442 158.18745472982786,88.9306098797624 158.6881066203111,89.24583514414013 158.92916123424453,89.52397508329703 158.96624655946667,89.80211502245393 158.7808199333612,90.11734028683166 158.09474141677512,90.8775894538607 157.51991887585027,91.95306388526747 156.70404172099197,93.02853831667423 156.55570042010598,93.39939156888255 156.46298710705588,94.10401274807968 156.31464580616992,94.45632333767956 156.07359119223386,94.73446327683646 155.3875126756478,95.34637114298086 155.03520208605056,95.80993770824192 154.68289149645068,96.53310155005012 154.53455019556733,97.16355207880558 154.40475155729246,97.38606403013189 153.42199043893973,98.31319716065401 152.53194263363713,98.73967840069557 152.1610893814288,98.98073301463164 151.82732145444,99.42575691728162 151.32666956395678,99.83369549471209 151.1041576126318,100.4456033608578 150.91873098652633,100.74228596262445 150.12139649427647,101.37273649137992 149.89888454295146,101.61379110531598 149.7690859046792,102.07735767057837 149.7690859046792,102.24424163407146 149.80617122989872,102.37404027234503 149.97305519339312,102.5038389106186 150.91873098652633,102.96740547587966 151.08561495002073,103.18991742720597 151.12270027524286,103.44951470375179 151.0485296248012,103.70911198029762 150.8816456613068,103.95016659423368 150.06576850644586,104.54353179776831 149.8247138925098,104.80312907431546 149.69491525423754,105.00709836303069 149.6578299290154,105.21106765174594 149.71345791684863,105.50775025351258 150.06576850644586,106.17528610748889 150.9001883239179,107.10241923801232 151.2710415761262,107.93683905548302 151.47501086484013,108.30769230769266 152.19817470664833,109.10502679994121 152.75445458496213,109.88381862958133 153.36636245110915,110.51426915833679 153.64450239026473,110.88512241054643 153.8855570042008,111.34868897580749 153.97827031725353,111.58974358974356 153.97827031725353,111.79371287845879 153.86701434158974,112.22019411849902 153.90409966681187,112.4612487324351 154.68289149645068,113.29566854990578 155.053744748659,113.79632044038767 155.14645806171174,114.00028972910292 155.09083007388114,114.16717369259732 154.84977545994508,114.31551499348065 154.75706214689234,114.44531363175422 154.831232797334,115.00159351006802 154.68289149645068,115.33536143705683 154.2564102564091,115.66912936404432 153.23656381283428,116.22540924235811 152.93988121106761,116.50354918151501 152.68028393452047,116.85585977111359 152.53194263363713,117.22671302332323 152.51339997102605,118.00550485296202 152.42068665797333,118.41344343039249 152.23526003187047,118.67304070693831 151.69752281616775,119.09952194697986 151.604809503115,119.22932058525211 151.64189482833453,119.34057656091592 151.92003476749275,119.65580182529365 151.90149210488167,119.93394176445055 151.7716934666094,120.1379110531658 151.36375488917895,120.45313631754352 151.2895842387373,120.56439229320603 151.38229755179003,120.69419093147827 151.7716934666094,120.82398956975184 152.36505867014273,120.86107489497267 152.884253223237,121.19484282196149 153.2180211502232,121.51006808633922 153.75575836592856,122.19614660292659 154.01535564247305,122.54845719252515 154.14515428074796,122.80805446907098 154.163696943359,122.99348109517646 154.12661161813688,123.17890772128062 153.6074170650452,123.69810227437358 153.49616108938142,123.93915688830965 153.551789077212,124.40272345357072 153.86701434158974,125.29277125887332 153.47761842677033,126.85035491815091 153.49616108938142,127.23975083297162 153.66304505287582,127.79603071128543 153.8855570042008,128.27813993915623 154.31203824424236,128.85296248008112 154.4974648703452,129.55758365927824 154.62726350862008,129.59466898449907 155.03520208605056,129.50195567144766 155.46168332608946,129.65029697233098 155.6100246269728,129.7615529479935 156.57424308271706,131.50456323337656 157.31594958713634,132.4316963639 158.63247863247787,133.65551209619008 159.0775025351305,134.4157612632191 159.18875851079167,134.47138925104971 159.46689844994987,134.47138925104971 159.6152397508332,134.54555990149137 160.56091554396642,135.43560770679397 160.7834274952914,135.75083297117172 160.85759814573305,136.08460089816052 160.41257424308307,137.43821526872418 160.1158916413164,137.90178183398524 159.87483702738035,138.0872084600894 159.02187454729724,138.5322323627407 158.7808199333612,138.7732869766768 158.37288135593334,139.36665218021142 158.15036940460573,139.60770679414748 157.2417789366947,140.33087063595568 156.29610314356148,140.88715051426948 155.42459800086996,141.68448500651934 154.71997682167282,142.05533825872766 153.8855570042008,142.29639287266374 153.23656381283428,142.33347819788457 152.29088801970107,142.16659423439017 151.95712009271227,142.2222222222221 151.75315080399835,142.3705635231054 151.0485296248012,143.07518470230386 150.13993915688752,143.79834854411072 149.91742720556255,144.07648848326764 149.88034188034038,144.4287990728662 149.9915978560042,144.83673765029667 150.26973779516243,145.24467622772715 150.65913370998183,145.5969868173257 151.17832826307347,145.8194987686507 153.4405331015508,146.44994929740747 153.92264232942296,146.69100391134222 154.2564102564091,146.9506011878894 154.42329421990354,147.19165580182545 154.55309285817842,147.45125307837128 154.75706214689234,148.50818484716828 154.94248877299782,149.00883673765017 154.8868607851646,149.19426336375435 154.6643488338396,149.34260466463897 154.14515428074796,149.47240330291123 153.08822251195093,149.54657395335423 152.51339997102605,149.50948862813206 151.75315080399835,149.3796899898598 150.3809937708236,149.02737940026125 149.30551933941814,148.6565261480516 148.04461828190722,147.97044763146422 146.709546573952,147.41416775315045 146.2088946834714,147.2658264522671 144.87382297551883,146.98768651311022 144.16920179631907,146.98768651311022 142.7043314500942,147.24728378965602 140.7573518759946,147.4327104157615 140.34941329856676,147.41416775315045 140.1454440098502,147.32145444009902 140.03418803418901,147.13602781399354 140.03418803418901,146.35723598435473 139.90438939591414,145.91221208170344 139.66333478197808,145.55990149210487 139.40373750543094,145.41156019122155 139.12559756627533,146.02346805736593 138.32826307402547,147.46979574098233 137.62364189482835,149.49094596552231 137.56801390699775,149.7690859046792 137.56801390699775,150.13993915688886 137.66072722004787,150.65913370998183 137.80906852093383,150.9372736491374 139.01434159061154,152.43922932058572 139.77459075764187,153.19947848761342 140.29378531073354,153.57033173982308 141.92553962045542,154.42329421990485 142.40764884832757,154.77560480950342 142.7043314500942,155.07228741127005 142.9453860640303,155.4431406634797 143.2791539910191,156.110676517456 143.5016659423441,157.14906562364195 143.57583659278575,157.92785745328072 143.79834854411072,158.09474141677512 145.00362161379107,158.892075909025 145.6711574677687,159.26292916123464 147.11748515138245,159.76358105171653 149.47240330291254,160.3384035926414 149.91742720556255,160.54237288135533 149.97305519339312,160.63508619440807 149.97305519339312,160.76488483268164 149.63928726640697,161.13573808489127 149.08300738809316,161.52513399971068 146.2088946834714,162.8416630450535 144.96653628856893,163.26814428509374 143.260611328408,163.63899753730206 142.68578878748315,163.80588150079646 141.77719831957208,164.25090540344777 140.81297986382782,164.9555265826449 138.47660437490882,165.91974503838918 136.78922207735633,166.42039692887107 135.58394900767863,166.5687382297557 135.17601043024814,166.69853686802796 134.5826452267122,167.0693901202376 133.72968274663174,167.77401129943473 132.3204403882375,169.36868028393445 132.45023902650973,169.53556424742888 132.80254961610962,170.27727075184683 133.2104881935401,171.44545849630634 133.39591481964294,171.7977690859049 133.56279878313734,172.0202810372299 133.72968274663174,172.0759090250618 133.87802404751508,172.0202810372299 134.08199333623162,171.76068376068406 134.1561639866733,171.42691583369526 134.3601332753872,171.40837317108551 134.50847457627054,171.50108648413692 134.95349847892317,171.96465304939932 136.17731421121195,172.59510357815478 136.418368825148,172.78053020425892 136.5852527886424,172.9659568303631 136.640880776473,173.11429813124775 136.6037954512535,173.28118209474215 136.23294219904253,173.6334926843407 135.93625959727586,174.11560191221153 135.3058090685204,174.5791684774739 135.138925105026,174.87585107924056 135.02766912936482,175.26524699406127 135.0832971171954,175.5248442706071 135.3243517311315,175.74735622193208 135.75083297117038,175.9142401854265 136.15877154860087,175.98841083586817 136.8077647399674,175.87715486020568 138.51368970013095,175.28378965667102 138.66203100101427,175.17253368100853 138.77328697667545,175.04273504273496 138.94017094016988,174.4679125018114 139.05142691583367,174.22685788787533 139.3851948428225,173.9116326234976 139.90438939591414,173.6891206721713 141.01694915254174,173.41098073301438 142.63016079965254,172.72490221642835 143.18644067796635,172.61364624076452 143.53875126756358,172.61364624076452 144.79965232507715,172.85470085470058 146.24598000869094,172.92887150514227 147.28436911487685,172.79907286687 147.84064899319065,172.6321889033756 148.26713023323222,172.44676227727143 148.5452701723878,172.2427929885562 148.76778212371542,172.0202810372299 149.19426336375435,171.44545849630634 149.41677531507932,171.297117195423 149.67637259162646,171.24148920759112 150.325365782993,171.26003187020086 150.7147616978124,171.22294654498003 152.0127480805455,170.9077212806023 152.34651600753165,170.77792264233005 152.51339997102605,170.64812400405648 152.6617412719094,170.4070693901204 152.81008257279535,169.86933217441637 152.93988121106761,169.59119223525946 153.06967984933985,169.47993625959697 153.23656381283428,169.4057656091553 153.7186730407064,169.38722294654553 155.18354338693388,169.62827756048162 157.18615094886147,170.49978270317314 157.5570042010724,170.81500796755088 158.1689120672168,171.4640011589161 158.7808199333612,171.98319571200906 158.98478922207775,172.22425032594512 159.337099811675,172.94741416775332 159.8377517021582,174.44936983920033 159.93046501521093,175.04273504273496 159.91192235259987,175.50630160799602 159.85629436476927,175.78444154715294 159.57815442561105,176.4148920759097 159.0033318846888,177.26785455599017 158.87353324641393,177.71287845864146 158.9106185716361,178.06518904824003 159.04041720990833,178.34332898739694 159.5039837751694,178.806895552658 161.3953353614358,180.12342459800084 162.2297551789078,180.54990583804107 162.952919020716,180.79096045197713 165.21512385919073,181.365782992902 165.9939156888295,181.45849630595342 167.19918875850985,181.5326669563964 168.0150659133708,181.49558163117558 168.42300449080128,181.34724033029093 168.97928436911508,180.88367376502987 169.22033898305114,180.77241778936738 169.9064174996372,181.71809358250056 170.53686802839266,182.4783427495296 171.20440388237026,183.1458786035059 171.9090250615674,183.68361581920863 173.09575546863667,184.33260901057517 175.4692162827752,185.33391279154026 176.61886136462493,185.89019266985406 179.73402868318013,187.68883094306904 180.6797044763133,188.33782413443427 181.10618571635484,188.76430537447447 181.34724033029093,189.07953063885222 181.4770389685632,189.41329856584102 181.51412429378533,189.72852383021876 181.4770389685632,189.9881211067659 181.365782992902,190.2106330580909 181.143271041577,190.52585832246862 180.01216862233832,191.6569607417073 179.6969433579606,192.06489931913646 179.56714471968834,192.30595393307252 179.51151673185512,192.58409387222943 179.56714471968834,193.01057511226966 179.73402868318013,193.28871505142655 179.97508329711619,193.56685499058347 180.4201071997688,193.9377082427931 180.88367376502987,194.21584818194998 182.10748949731865,194.8092133854846 185.3153701289292,196.18137041865936 186.42792988555678,196.774735622194 187.16963638997606,197.36810082572862 187.46631899174272,197.7018687527161 187.70737360567878,198.03563667970494 188.0411415326676,198.75880052151314 188.35636679704533,199.81573229030883 188.50470809792867,200.76140808344203 188.61596407359247,202.05939446617379 188.57887874837033,203.45009416195828 188.44908011009807,204.5997392438067 188.208025496162,205.76792698826623 187.9298855570038,206.6208894683467 187.596117630015,207.3440533101549 187.2623497030288,207.88179052585892 186.8729537882068,208.30827176589915 186.35375923511512,208.71621034332964 185.89019266985406,208.9387222946546 185.2597421410986,209.06852093292818 184.66637693756266,209.105606258149 183.77632913226003,209.03143560770735 182.62668405041293,208.82746631899212 181.16181370418545,208.4009850789519 179.95654063450775,207.93741851368952 178.86252354048858,207.36259597276594 178.34332898739694,206.9546573953355 177.89830508474694,206.47254816746334 177.50890916992492,205.91626828914954 176.71157467767506,204.5997392438067 176.21092278719448,203.93220338983042 175.89569752281673,203.65406345067353 175.54338693321685,203.41300883673745 175.1354483557864,203.2275822106333 174.6904244531364,203.07924090974996 173.9301752861087,202.9308996088653 173.00304215558393,202.87527162103473 165.4190931479073,203.06069824713887 164.08402143995468,203.0050702593083 161.3953353614358,202.70838765754033 160.72779950746082,202.70838765754033 160.13443430392485,202.8381862958139 159.74503838910547,203.0050702593083 159.42981312472773,203.24612487324436 159.13313052296107,203.57989280023185 158.9106185716361,203.98783137766233 158.6881066203111,204.71099521947053 158.3357960307112,206.88048674489383 158.02057076633346,208.01158916413118 156.51861509488648,211.72012168622362 156.01796320440326,212.72142546718874 155.46168332608946,213.61147327249 154.831232797334,214.37172243951906 154.14515428074796,215.00217296827452 149.06446472548208,218.61799217731422 148.45255685933506,219.21135738084885 148.17441692017948,219.58221063305848 147.9333623062434,219.99014921048897 147.41416775315176,219.97160654787788 145.6526148051576,220.1755758365931 145.28176155294665,220.15703317398206 144.89236563812727,220.08286252354037 144.35462842242453,219.87889323482514 143.22352600318587,219.26698536868076 142.27785021005266,218.85904679125028 137.3640446182812,217.07895118064638 135.54686368245646,216.26307402578675 134.11907866145114,215.79950746052438 132.54295233956248,215.1319716065481 131.4674779081544,214.83528900478143 130.1324062002018,214.68694770389678 129.46487034622683,214.53860640301346 129.05693176879635,214.3531797769093 128.18542662610483,213.79689989859548 127.49934810951613,213.55584528465943 125.99739243806913,213.24062002028168 123.86498623786667,212.68434014196788 122.3444879038086,212.48037085325265 121.30609879762267,212.406200202811 120.49022164276435,212.42474286542074 119.0068086339258,212.5730841663054 116.33666521802061,212.72142546718874 114.87179487179577,213.01810806895537 113.46255251339888,213.24062002028168 112.81355932203233,213.42604664638586 112.0162248297851,213.8339852238163 110.84803708532428,214.66840504128703 109.97653194263275,215.09488628132726 109.04939881211062,215.6697088222508 108.19643633203016,216.05910473707152 107.80704041721077,216.30015935100758 105.71171954222783,217.91337099811707 104.91438504997795,218.82196146602945 104.65478777343081,219.02593075474468 103.96870925684476,219.3596986817335 102.93032015065882,219.65638128350014 102.3925829349561,219.34115601912242 101.6137911053173,218.97030276691277 100.46414602346755,218.5809068520934 99.03636100246221,218.3583949007684 97.51586266840415,218.32130957554756 95.93973634651549,218.46965087643088 94.28943937418516,218.78487614080862 92.39808778791877,219.32261335651134 90.6550775025357,219.95306388526814 89.13457916847763,220.56497175141251 87.66970882225016,221.32522091844154 86.52006374040303,222.14109807330118 85.61147327248935,223.03114587860378 85.07373605678663,223.7357670578009 84.53599884108391,224.64435752571327 84.01680428798961,225.71983195712005 82.9227871939731,228.24163407214323 82.32942199043714,229.39127915399166 81.5877154860205,230.522381573229 80.12284513979301,232.4693611473273 79.54802259887077,233.37795161523968 79.06591337099864,234.37925539620477 77.8606403013183,237.4202520643196 77.45270172388783,238.1619585687389 76.93350717079355,238.94075039837767 76.30305664203809,239.6453715775748 75.5242648123993,240.34999275677325 70.59191655801675,244.16978125452687 66.75358539765338,247.02535129653754 65.73373895407852,247.85977111400823 64.75097783572316,248.78690424453168 63.675503404317716,250.01071997682178 62.87816891206785,251.1789077212813 62.340431696362494,252.12458351441447 61.190786614515375,254.46095900333216 60.37490945965443,256 59.744458930898965,255.53643343473894 59.15109372736302,255.1655801825293 57.22265681587711,254.4053310155016 56.29552368535235,253.9417644502392 55.34984789221916,253.29277125887398 54.75648268868584,252.7179487179491 54.57105606258036,252.4398087787922 54.42271476169704,252.10604085180339 54.1074894973193,250.67825583079807 53.866434883383235,250.01071997682178 53.32869766768051,248.95378820802608 52.73533246414456,247.95248442706097 52.38302187454731,247.4889178617999 51.993625959727915,247.0995219469805 50.51021295088936,245.96841952774184 50.0466463856283,245.56048095031136 49.67579313341998,245.1525423728822 49.34202520643117,244.5962624945684 49.19368390554784,244.18832391713795 49.15659858032569,243.76184267709772 49.26785455598951,243.11284948573118 49.50890916992557,242.29697233087154Z"/>
  </g>
</svg>