<?xml version="1.0" encoding="UTF-8" standalone="no"?>
<svg viewBox="0 0 207.13721302722894 256" xmlns="http://www.w3.org/2000/svg">
  <style>
    g.zone {
      fill: lightgray;
      stroke-width: 2;
      stroke-linecap: square;
      stroke-linejoin: bevel;
      stroke-miterlimit: 3;
      stroke-opacity: 0.8;
      stroke: black;
      fill-opacity: 0.3;
    }
  </style>
  <g class="zone" id="zone">
    <path d="M187.36429969745575,214.5178857447933 187.86545648692052,215.61131873998886 188.52607225485002,216.59085246485108 190.1434418935777,218.36768108204348 192.2164086136322,220.3495283858336 193.24150204662908,221.21516284036247 194.10713650115795,221.8757786082936 197.4102153408087,223.97152518241708 198.89090585513568,225.019398469478 203.8569140416455,228.9830930770599 204.7453283502417,229.80316782345574 205.33760455597246,230.46378359138524 205.79320163730262,231.10161950524906 206.24879871863274,231.8989143975792 206.61327638370008,232.7873287061754 206.84107492436354,233.6301833066386 207.0005339028315,234.83751557216587 206.9549741946969,237.54831820608584 207.0005339028315,238.4139526606147 207.13721302722894,239.09734828261153 205.97544046983467,239.71240434240966 204.768108204309,240.50969923473818 204.10749243637625,241.147535148602 203.31019754404932,242.12706887346422 202.80904075458457,242.58266595479597 200.5310553479274,243.8583377825236 198.2986296494049,245.4073678590493 197.54689446520936,245.74906567004768 195.2461292044849,246.3641217298442 193.74265883609382,247.0247374977753 192.55810642463226,247.3664353087737 191.9202705107668,247.52589428724008 191.44189357536936,247.54867414130578 189.18668802277955,247.45755472503973 187.66043780032115,247.45755472503973 186.79480334579227,247.6397935575718 185.88360918312878,247.9814913685702 185.20021356113196,248.16373020110225 183.81064246307423,248.41430859583465 182.94500800854212,248.48264815803498 181.78323545114785,248.43708844990195 180.07474639615742,247.9587115145045 179.66470902295868,247.9131518063715 179.00409325502918,247.9131518063715 178.34347748709968,248.00427122263753 177.8423206976349,248.16373020110225 176.40718989143932,248.75600640683305 175.79213383164443,248.93824523936672 175.29097704217966,248.96102509343243 173.99252536038475,248.80156611496608 173.4685887168559,248.82434596903337 173.01299163552252,248.93824523936672 172.05623776472763,249.37106246663117 171.55508097526285,249.5077415910302 170.07439046093586,249.71276027762957 168.88983804947753,249.7583199857626 168.11532301121468,249.96333867236194 167.11300943228514,250.3961558996264 166.06513614522422,250.96565225128987 165.4273002313588,251.44402918668732 164.65278519309595,252.10464495461844 163.69603132230102,252.993059263213 163.42267307350295,253.31197722014574 163.14931482470163,253.8814735718092 162.9442961381055,254.8154475885384 162.7620573055702,255.15714539953683 162.37479978643879,255.49884321053523 161.85086314290996,255.7266417512003 160.8257697099131,255.88610072966665 158.73002313579124,256 158.13774693006044,255.95444029186697 157.79604911906043,255.86332087560095 157.27211247553157,255.61274248086858 156.36091831286805,254.88378715073875 155.8142018152719,254.519309485673 154.12849261434553,253.67645488520984 152.94394020288397,252.94749955508001 152.21498487275574,252.6969211603476 151.8505072076884,252.65136145221462 151.34935041822362,252.6741413062819 149.95977932016592,252.9702794091473 149.13970457376843,253.06139882541333 147.4539953728421,252.94749955508001 146.22388325324908,252.74248086848226 145.54048763125226,252.46912261968257 145.03933084178752,252.08186510055114 144.46983449012401,251.28457020822097 144.1053568250599,250.4189357536921 144.53817405232274,249.8038796938956 144.92543157145417,249.1888236340975 145.40380850685162,248.00427122263753 145.56326748531959,247.3208756006407 145.69994660971702,246.4324612920445 145.69994660971702,244.8378715073858 145.608827193451,244.01779676098832 145.44936821498624,243.2660615767928 144.9937711336561,242.0131696031325 144.6065136145247,241.37533368926867 144.21925609539326,240.8969567538696 143.7636590140599,240.44135967253948 143.30806193272974,240.09966186154108 142.8296849973323,239.84908346680868 142.1462893753355,239.5985050720763 141.50845346147005,239.43904609360993 140.80227798540915,239.32514682327823 139.98220323901168,239.39348638547693 138.77487097348276,239.71240434240966 137.8636768108225,240.07688200747376 137.1802811888257,240.50969923473818 136.3374265883609,241.17031500266933 134.69727709556918,242.62822566292897 133.51272468410758,243.49386011745784 132.78376935397935,243.88111763658927 132.0548140238479,244.200035593522 131.3030788396524,244.40505428012136 130.57412350952092,244.54173340452041 129.68570920092796,244.61007296671912 129.00231357893117,244.61007296671912 128.205018686601,244.5189535504531 127.13436554547275,244.31393486385372 126.04093255027718,243.99501690692261 124.99305926321625,243.6305392418569 124.01352553835403,243.22050186865977 122.9428723972258,242.673785371062 122.14557750489563,242.17262858159722 121.57608115323215,241.7170315002671 121.02936465563275,241.147535148602 120.5509877202353,240.50969923473818 120.27762947143722,239.98576259120773 119.98149136857182,239.25680726107788 119.25253603844361,236.70546360562267 118.86527851931218,235.68037017262742 118.29578216764547,234.67805659369952 117.54404698344993,233.88076170136935 116.8378715073858,233.4023847659719 115.9494571987896,232.96956753870745 114.87880405766137,232.60508987364335 112.32746040220937,231.8989143975792 111.02900872041444,231.46609717031478 109.77611674675414,230.919380672717 108.47766506495921,230.16764548852146 107.4525716319656,229.4159103043243 106.56415732336941,228.59583555792847 105.81242213917064,227.75298095746527 103.71667556504879,225.15607759387703 103.01050008898464,224.44990211781453 102.30432461292051,223.8120662039507 101.62092899092369,223.33368926855326 100.86919380672816,222.8553123331542 97.83947321587547,221.35184196476152 96.54102153408054,220.62288663463167 95.1286705819555,219.64335290976945 93.73909948389455,218.43602064424218 93.01014415376633,217.70706531411233 92.32674853176951,216.88699056771648 91.82559174230475,216.18081509165233 91.415554369106,215.47463961558984 91.0966364121733,214.700124577327 90.91439757964125,214.06228866346316 90.39046093611239,211.60206442427398 90.11710268731107,210.87310909414413 89.77540487631428,210.30361274248065 89.31980779498416,209.73411639081718 88.63641217298733,209.14184018508638 87.86189713472125,208.66346324968893 87.17850151272766,208.36732514682353 85.81171026873402,207.9800676276921 84.42213917067306,207.79782879515844 82.34917245061528,207.77504894109273 79.47891083822735,207.88894821142446 77.77042178323691,208.0484071898908 76.24417156077853,208.2762057305559 71.25538352020142,209.43797828795178 69.387435486743,209.77967609895018 67.31446876668522,209.98469478554793 65.0592632140954,209.98469478554793 63.69247197010176,209.8480156611489 62.34846058017543,209.64299697454953 60.22993415198626,209.14184018508638 58.95426232425864,208.70902295782196 57.42801210180026,208.13952660615683 56.015661149671985,207.47891083822734 54.648869905678346,206.77273536216322 52.64424274782252,205.54262324257022 51.84694785549235,204.92756718277212 51.04965296316219,204.2213917067096 50.366257341165365,203.49243637657978 49.79676098950189,202.76348104644993 49.34116390817176,201.98896600818546 48.953906389037094,201.2144509699226 48.74888770244096,200.5993949101261 48.56664886990567,199.8248798718633 48.40718989144093,198.43530877380232 48.429969745508245,197.18241680014202 48.6122085780403,193.81099839829093 48.68054814023901,191.4874532835024 48.589428723972986,189.87008364477637 48.38441003737362,188.50329240078273 47.951592810110796,186.97704217832273 47.58711514504669,186.13418757786116 47.22263747997935,185.51913151806306 46.880939668982556,184.9951948745326 46.379782879517784,184.4029186688018 45.21801032212351,183.35504538174087 44.69407367859143,183.01334757074247 43.965118348463214,182.64886990567672 42.64388681260097,182.19327282434497 41.41377469300799,181.9654742836799 40.069763303081665,181.9654742836799 38.63463249688607,182.19327282434497 37.79177789642451,182.44385121907735 37.017262858161665,182.73998932194274 35.85549030076739,183.30948567360784 33.486385477844216,184.7673963338675 32.59797116924803,185.26855312333066 31.436198611853754,185.74693005872973 30.183306638193457,186.06584801566083 28.83929524826713,186.20252714005989 28.042000355936967,186.17974728599418 27.244705463606806,186.08862786972816 25.650115678946477,185.7013703505951 23.96440647802336,185.0407545826656 21.640861363234816,183.85620217120402 19.02117814557764,182.28439224061262 16.264815803526275,180.3708844990212 14.123509521269787,178.63961558996183 12.984516817939594,177.54618259476788 11.868303968679955,176.3160704751733 8.269087026163797,171.62342053746156 3.690336358785422,166.17903541555432 2.984160882721285,165.45008008542447 2.186865990391121,164.76668446342765 1.1162128492628767,164.03772913329783 0,163.4226730734997 0.4100373731987399,162.89873642996926 1.7084890549936707,161.55472504004294 2.3007652607244644,161.16746752091152 2.9613810286539692,160.91688912617911 3.804235629115528,160.73465029364706 4.601530521445691,160.66631073144674 6.560597971170127,160.8257697099131 7.722370528564398,160.80298985584577 8.155187755830454,160.71187043957974 9.385299875423437,160.27905321231532 10.000355935221547,160.11959423384897 12.073322655279325,159.9145755472496 12.506139882542143,159.75511656878484 13.485673607404362,159.23117992525277 14.03239010500376,159.07172094678802 14.898024559532635,159.02616123865502 16.08257697099422,159.23117992525277 16.333155365724988,159.18562021711975 16.583733760455754,159.07172094678802 16.697633030789095,158.86670226018865 16.743192738923728,158.20608649225753 16.87987186332115,157.8188289731261 17.449368214987864,156.79373554013088 17.76828617191734,156.36091831286643 18.360562377648133,155.72308239900264 20.342409681439886,154.0601530521436 21.00302544936939,153.30841786794807 21.84588004983095,152.00996618615312 23.87328706175733,150.23313756896238 24.420003559353493,149.64086136323158 24.761701370353524,149.18526428189983 24.943940202885578,148.68410749243668 24.943940202885578,148.1146111407716 24.85282078661955,147.68179391350714 24.328884143087468,146.40612208577951 24.260544580888755,146.06442427478112 24.30610428902015,145.74550631785002 24.488343121552205,145.44936821498462 25.467876846414423,144.19647624132432 26.082932906212534,143.60420003559352 28.7937355401325,141.73625200213513 29.363231891795976,141.3945541911367 30.25164620039217,141.0984160882713 31.61843744438581,140.82505783947323 32.324612920449944,140.7339384232072 33.782523580709615,140.6883787150742 35.194874532837886,140.3922406122088 36.67556504716163,140.4605801744075 38.384054102155304,140.4150204662745 39.79640505428034,140.62003915287386 40.593699946610506,140.55169959067354 41.185976152341304,140.4150204662745 41.937711336536836,140.0733226552761 42.62110695853365,139.68606513614466 43.782879515931164,138.8432105356831 43.9878982025273,138.72931126534976 44.39793557572604,138.63819184908374 44.78519309485746,138.63819184908374 45.24079017619083,138.75209111941547 48.40718989144093,139.64050542801166 49.43228332443778,139.89108382274404 50.00177967610126,139.93664353087703 50.34347748709805,139.91386367681136 50.63961558996345,139.82274426054371 50.79907456843142,139.708844990212 51.02687310909487,139.34436732514627 51.34579106602759,138.1598149136863 51.710268731091695,137.45363943762214 52.46200391529046,136.47410571275992 53.76045559708216,135.10731446876628 54.14771311621358,134.5150382630355 54.42107136501166,133.6038441003736 54.55775048941232,132.1231535860466 54.37551165688026,130.32354511478854 54.39829151094758,128.77451503826285 53.91991457555013,126.97490656700477 53.828795159280865,126.4509699234743 53.828795159280865,125.99537284214256 54.03381384588024,124.97027940914732 54.03381384588024,124.56024203594858 53.76045559708216,123.74016728955272 53.39597793201805,122.30503648336037 52.87204128848597,120.91546538529941 52.6214628937552,119.45755472503974 52.48478376935454,118.20466275137944 51.61914931482567,116.74675209111977 51.231891795694246,115.33440113899312 51.04965296316219,114.90158391172868 50.821854422495505,114.62822566292898 50.821854422495505,114.51432639259563 51.004093255027556,114.26374799786487 51.52802989855964,113.89927033279915 52.188645666489144,113.67147179213408 53.53265705641871,113.4208933974017 53.8743548674155,113.26143441893534 54.14771311621358,113.03363587827027 54.39829151094758,112.71471792133757 54.58053034347964,112.32746040220614 54.717209467877055,110.82399003381346 54.8311087382104,110.50507207688236 55.0816871329444,110.16337426588395 56.51681793913676,108.79658302189031 57.65581064246371,108.11318739989349 58.63534436732593,107.20199323722998 59.0909414486593,106.74639615589984 59.660437800322775,105.94910126356969 59.86545648692215,105.74408257697031 60.7538707955151,105.22014593343985 61.84730379071066,104.37729133297667 62.712938245239535,103.89891439757922 62.940736785906225,103.69389571097985 63.122975618438275,103.35219789998143 63.14575547250559,102.919380672717 62.73571809930685,101.16533190959194 62.712938245239535,100.84641395266084 62.75849795337417,100.64139526606147 62.84961736964019,100.50471614166243 63.19131518063699,100.27691760099574 64.03416978110178,99.88966008186432 64.51254671649923,99.73020110339958 66.5627335824897,99.52518241680022 68.20288307528142,99.52518241680022 69.82025271400906,99.09236518953577 70.8909058551373,98.88734650293641 71.2326036661341,98.70510767040435 71.96155899626555,97.9533724862072 72.37159636946106,97.68001423740913 72.91831286706045,97.49777540487545 73.67004805125599,97.42943584267674 74.46734294358615,97.52055525894276 75.08239900338425,97.77113365367515 76.35807083110863,98.93290621106942 77.04146645310546,99.73020110339958 78.08933974016962,99.68464139526657 79.00053390282989,99.70742124933227 81.50631785015372,100.25413774693004 82.03025449368258,100.25413774693004 83.07812778074674,100.117458622531 83.60206442427558,100.16301833066402 83.94376223527561,100.29969745506305 84.30823990033971,100.61861541199416 85.21943406300323,101.84872753158875 85.35611318740065,102.12208578038846 85.47001245773399,102.44100373731955 85.49279231180131,102.78270154831796 85.47001245773399,103.05605979711603 85.21943406300323,103.8077949813132 85.21943406300323,104.1494927923116 85.40167289553528,104.62786972770905 85.72059085246475,104.94678768464176 87.13294180459303,105.6757430147716 87.45185976152574,105.94910126356969 88.08969567538793,106.70083644776683 89.43370706531425,107.5664709022957 91.02829684997458,109.04716141662269 92.39508809396823,109.79889660081822 93.62520021356121,110.77843032568045 94.10357714895866,110.89232959601378 94.7641929168914,110.84676988788077 95.74372664175363,110.6645310553471 96.51824168001647,110.45951236874934 96.63214095034981,110.36839295248332 97.08773803167995,109.75333689268521 97.29275671827932,109.36607937355379 97.42943584267674,108.93326214628935 97.49777540487868,108.47766506495759 97.47499555081137,106.86029542623157 97.52055525894276,105.94910126356969 97.9305926321415,104.30895177077795 97.8850329240101,103.92169425164653 97.72557394554214,103.57999644064813 96.95105890727929,102.69158213205193 96.70048051254852,102.23598505072017 96.63214095034981,101.59814913685638 96.85993949101326,100.66417512012879 97.08773803167995,100.18579818472972 97.40665598861266,99.88966008186432 97.81669336180816,99.73020110339958 99.61630183306787,99.29738387613514 100.14023847659995,99.09236518953577 100.59583555793007,98.79622708667038 100.93753336892686,98.45452927567197 101.18811176366087,98.06727175654055 101.37035059619292,97.42943584267674 101.52980957465766,95.78928634988502 101.52980957465766,94.92365189535452 101.43869015839164,93.87577860829359 101.21089161772818,92.78234561309803 101.14255205552624,92.0533902829682 100.9830930770615,91.6889126179041 100.00355935219929,90.75493860117489 99.66186154119926,90.2082221035771 99.52518241680183,89.77540487631266 99.50240256273452,89.36536750311393 99.59352197900054,88.59085246485108 99.82132051966722,88.0441359672533 100.16301833066402,87.54297917779016 100.59583555793007,87.0873820964584 100.9147535148628,86.83680370172601 101.73482826125704,86.44954618259459 103.55721658658405,86.06228866346316 103.96725395977955,85.90282968499682 104.24061220858087,85.69781099839906 104.42285104111292,85.33333333333333 104.53675031144627,84.30823990033811 104.67342943584369,83.89820252713936 105.40238476597514,82.94144865634446 105.67574301477322,82.39473215874668 105.69852286884054,82.05303434774827 105.56184374443987,81.57465741235082 104.83288841430843,80.18508631429148 104.71898914397832,79.72948923295972 104.81010856024434,79.27389215162798 105.40238476597514,78.15767930236672 105.53906389037256,77.56540309663592 105.51628403630524,77.1553657234388 105.10624666310974,75.28741768998039 105.08346680904242,74.90016017084896 105.15180637124114,74.55846235985055 106.60971703150081,73.7839473215877 107.2703327994303,73.53336892685533 107.83982915109702,73.51058907278801 109.22940024915475,73.7839473215877 109.91279587115156,73.8067271756534 110.41395266061633,73.71560775938738 111.14290799074779,73.21445096992423 111.46182594767726,73.14611140772391 111.84908346681192,73.19167111585692 112.60081865100746,73.37390994838897 113.83093077060043,73.8067271756534 114.17262858160046,73.85228688378642 114.46876668446586,73.82950702972072 114.94714361986331,73.67004805125437 115.69887880405885,73.28279053212295 116.29115500978963,72.84997330485851 116.76953194518708,72.37159636946106 116.99733048585378,71.80210001779596 117.04289019398517,70.57198789820298 117.17956931838583,70.02527140060519 117.52126712938262,69.54689446520774 118.40968143797882,68.8179391350779 118.97917778964229,68.1801032212141 119.27531589250769,67.56504716141599 119.66257341163912,66.31215518775569 120.14095034703656,65.4009610250938 120.34596903363592,64.80868481936301 120.43708844990196,63.55579284570271 120.43708844990196,61.93842320697669 120.68766684463596,60.20715429791732 120.96102509343405,59.227620573055106 121.07492436376738,58.33920626446053 121.02936465563275,58.13418757786116 120.89268553123533,57.883609183128776 120.02705107670646,57.0407545826656 119.68535326570642,56.56237764726815 119.54867414130901,56.061220857803384 119.57145399537308,55.69674319273928 119.68535326570642,55.241146111407524 120.00427122263913,54.648869905676726 121.57608115323215,53.28207866168309 122.69229400249179,51.91528741768944 123.0112119594245,51.34579106602597 123.17067093788924,50.79907456842819 122.82897312689245,48.52108916177266 122.6467342943604,48.13383164264123 122.46449546182834,47.97437266417488 121.32550275849815,47.45043602064441 120.45986830396927,46.78982025271329 119.34365545470963,46.060864922583455 118.22744260544675,45.14967075992157 116.72397223705569,45.19523046805458 115.65331909592744,45.14967075992157 114.87880405766137,45.03577148958822 114.55988610073189,44.9218722192565 114.14984872753315,44.6257341163911 111.23402740701381,42.05161060687018 110.96066915821574,41.68713294180445 110.77843032568045,41.208756006407 110.66453105535034,40.479800676277165 110.71009076348173,39.70528563801432 110.36839295248494,38.86243103755114 110.25449368215159,38.247374977754646 110.07225484961954,37.99679658302227 109.47997864388874,37.63231891795654 109.02438156255538,37.245061398825115 108.34098594055855,36.538885922762596 107.79426944296239,35.80993059263276 107.49813134009699,35.33155365723369 107.33867236163226,34.96707599216958 107.33867236163226,34.6937177433715 107.42979177789829,34.23812066203975 107.38423206976366,34.078661683573394 107.04253425876686,33.96476241324167 104.0355935219815,33.62306460224326 103.16995906745262,33.62306460224326 101.11977220146215,33.91920270510704 100.59583555793007,33.896422851041336 100.14023847659995,33.7597437266423 99.66186154119926,33.50916533190991 99.25182416800375,33.190247374977204 98.95568606513835,32.894109272111805 98.7734472326063,32.59797116924803 98.65954796227295,32.09681437978326 98.86456664887233,30.843922406122964 98.8190069407377,30.638903719523594 98.65954796227295,30.57056415732326 99.68464139526657,30.0466275137928 101.71204840718971,28.679836269799157 103.30663819185004,28.04200035593535 103.87613454351352,27.928101085602005 106.10856024203603,27.83698166933598 106.99697455063223,27.74586225306995 107.54369104823162,27.609183128670914 107.748709734831,27.54084356647058 107.97650827549445,27.358604733938527 108.06762769176048,27.039686777007436 107.97650827549445,26.743548674142037 107.4525716319656,26.0373731980779 107.33867236163226,25.809574657412835 107.33867236163226,23.918846769888727 107.72592988076369,23.098772023491247 108.47766506495921,22.096458444563332 108.65990389749126,21.731980779497604 108.68268375155859,21.43584267663221 108.38654564869319,20.61576793023635 108.43210535682782,19.681793913507143 108.56878448122524,19.203416978109694 109.16106068695603,18.223883253247475 109.47997864388874,17.107670403986216 109.68499733048812,17.312689090585586 109.98113543335351,17.517707777184956 110.59619149314838,17.745506317850023 111.41626623954586,17.859405588183368 112.94251646200425,17.859405588183368 113.6714717921357,17.90496529631638 114.21818828973186,18.018864566649725 114.87880405766137,18.292222815447804 115.2888414308601,18.542801210180187 115.63053924186013,18.81615945897827 116.4733938423217,19.97793201637254 117.11122975618711,20.52464851397032 117.6807261078506,21.13970457376843 117.93130450258136,21.27638369816747 118.3869015839115,21.367503114433497 119.34365545470963,21.321943406300484 120.07261078483785,21.390282968499196 121.8038796938956,21.731980779497604 123.19345079195655,22.16479800676366 123.99074568428672,22.142018152696345 124.74248086848225,21.891439757963962 125.85869371774513,21.23082399003446 127.15714539954006,20.228510411104924 128.09111941626765,19.75013347570747 129.00231357893117,19.5451147891081 129.89072788752733,19.408435664709064 132.0548140238479,19.362875956576048 132.46485139704666,19.271756540310022 132.71542979178065,19.15785726997668 133.899982203239,18.064424274782738 134.37835913863645,17.449368214984627 134.85673607403714,16.583733760455754 135.26677344723265,16.128136679123998 135.6995906744987,15.831998576258602 137.40807972948915,14.966364121729727 137.72699768642184,14.647446164798634 138.5926321409507,13.622352731803403 139.00266951414946,13.235095212671979 140.80227798540915,12.232781633742444 141.41733404520403,11.77718455241231 142.5791066025983,10.159814913686285 143.21694251646372,8.701904253426616 143.51308061932912,8.291866880227877 143.99145755472657,7.881829507029137 144.90265171739009,7.266773447232645 146.06442427478436,6.583377825235824 146.4972415020472,6.1961203061044 147.7273536216434,4.373731980779006 148.4563089517716,2.9613810286523505 149.1169247197011,2.027407011924765 149.29916355223318,1.526250222459998 149.50418223883253,0.4100373731987399 149.73198077949922,0 149.84588004983257,0.43281722726443733 150.09645844456332,1.0023135789295337 150.34703683929735,1.412350952126655 150.5976152340281,1.6629293468590385 151.16711158569157,1.9362875956571193 152.3744438512205,2.6880227798542697 153.87791421961478,3.325858693718077 155.65474283680393,4.419291688912019 156.33813845880076,5.034347748710129 156.79373554013412,5.694963516639634 156.90763481046423,6.013881473572346 156.93041466453155,6.26445986830473 156.67983626980077,7.357892863498672 156.67983626980077,7.699590674497083 156.79373554013412,8.064068339562809 157.29489232959565,8.861363231891355 158.3883253247912,10.137035059618968 159.09450080085534,11.276027762947542 159.61843744438744,12.460580174409131 160.00569496351886,13.895710980601484 160.4840718989163,14.624666310731318 160.6890905855157,15.216942516462112 160.7802100017817,15.809218722192904 160.802989855849,16.492614344189725 160.59797116924963,18.497241502047174 160.57519131518234,19.340096102508735 160.62075102331372,20.82078661683572 160.802989855849,21.936999466096974 160.87132941804774,23.303790710090617 161.16746752091314,24.169425164619494 162.1014415376407,25.650115678946477 162.37479978643879,26.265171738742968 162.3975796405061,26.538529987542667 162.3292400783074,26.65242925787439 161.96476241324328,26.857447944473762 161.91920270510866,27.33582487987121 161.82808328884263,27.563623420537898 161.4408257697112,28.064780210002667 160.91688912617911,28.58871685353313 159.77789642285217,29.568250578395347 158.0921872219258,30.52500444919025 157.70492970279437,30.912261968321673 157.61381028652835,31.18562021712137 157.61381028652835,31.367859049653426 157.84160882719505,32.59797116924803 157.77326926499634,33.28136679124485 157.56825057839697,33.82808328884101 157.04431393486487,34.76205730557022 156.61149670759883,35.718811176366735 156.1558996262687,37.176721836626406 155.8825413774706,37.67787862608955 154.2879515928103,39.181348994483855 153.0806193272846,40.593699946610506 152.4427834134192,40.821498487275576 151.69104822922367,41.2315358604727 151.00765260722685,41.68713294180445 150.5520555258967,42.074390460935874 149.54974194696717,43.21338316426445 148.52464851397033,44.762413240790146 147.29453639437733,47.08595835557868 144.81153230112082,52.348104644953885 142.05516995906945,57.6330307883964 141.21231535860466,59.546538529987814 140.64281900694118,61.20946787684685 140.3694607581431,62.48513970457447 140.27834134187708,63.282434596903016 140.25556148780976,64.05694963516586 140.34668090407578,65.24150204662745 140.50613988254375,65.97045737675728 140.75671827727453,66.74497241502013 141.09841608827455,67.51948745328298 141.5540131696047,68.31678234561315 142.62466631073295,69.84303256807314 144.51539419825866,72.14379782879436 145.10767040398622,73.00943228332486 145.47214806905356,73.73838761345469 145.74550631785164,74.3990033813842 145.950525004451,75.10517885744834 146.6111407723805,78.74995550809751 147.08951770777796,80.5723438334229 147.4995550809767,81.68855668268417 148.00071187044148,82.87310909414413 148.54742836803763,83.9665420893397 149.2763836981691,85.19665420893429 150.91653319096082,87.40630005338949 152.05552589428777,88.77309129738313 153.55899626268206,90.41324079017647 154.9257875066757,91.71169247196978 158.50222459512455,94.65029364655643 159.45897846591944,95.60704751735135 160.1651539419836,96.47268197188184 160.98522868838106,97.83947321587385 161.94198255917598,100.07189891439799 163.10375511657026,101.89428723972178 163.62769176010232,102.8510411105183 164.65278519309595,105.28848549564017 165.54119950169212,107.08809396689826 166.17903541555432,108.20430681615952 166.81687132941974,109.04716141662269 167.9103043246153,110.25449368214997 168.45702082221146,110.75565047161474 171.3045025805321,112.30468054814044 172.21569674319235,112.89695675387124 173.08133119772447,113.53479266773503 174.31144331731747,114.65100551699629 175.49599572877904,115.99501690692263 176.77166755650666,117.93130450257975 177.81954084356758,119.86759209823848 178.77629471436248,121.96333867236196 179.36857092009328,123.58070831108797 179.59636946075997,124.42356291154954 179.77860829329202,125.47143619861208 179.86972770955805,127.20270510766984 179.73304858515738,128.9339740167292 178.89019398469583,135.426232425699 178.68517529809645,137.49919914575517 178.63961558996508,138.66097170314944 178.68517529809645,139.82274426054371 178.7990745684298,140.93895710980658 179.00409325502918,142.00961025093483 179.6191493148273,143.94589784659195 180.50756362342022,145.92774515038207 183.6739633386736,152.26054458088552 187.31873998932437,158.61612386545627 188.20715429791733,160.256273358248 188.91332977398145,161.69140416444196 189.6195052500456,163.39989321943403 189.9839829151097,164.67556504716163 190.18900160170907,166.01957643708795 190.2573411639078,167.45470724328194 190.2117814557764,170.46164798006728 190.2345613098437,171.7600996618606 190.37124043424112,173.08133119772123 190.62181882897514,174.1975440469825 191.07741591030526,175.7010144153768 191.69247197010338,177.18170492970216 194.5855134365554,182.8766684463418 195.31446876668684,184.51681793913514 195.97508453461634,186.3164264103932 196.40790176187917,187.91101619505193 196.84071898914522,190.14344189357445 197.31909592454267,193.4237408791595 197.6380138814754,196.22566292934712 197.7063534436741,198.45808862786964 197.52411461114204,200.21213739099468 197.18241680014202,201.53336892685533 196.86349884321254,202.33066381918388 196.47624132408112,203.08239900338103 195.51948745328622,204.40363053924165 194.44883431215473,205.56540309663592 192.94536394376368,206.93219434062956 189.6195052500456,209.66577682861686 188.9588894821161,210.28083288841333 188.38939313045262,210.91866880227715 187.8198967787859,211.78430325680765 187.5237586759205,212.51325858693747 187.31873998932437,213.65225129026442 187.31873998932437,214.35842676632856 187.36429969745575,214.5178857447933Z"/>
  </g>
</svg>