<?xml version="1.0" encoding="UTF-8" standalone="no"?>
<svg viewBox="0 0 228.2006191950472 256" xmlns="http://www.w3.org/2000/svg">
  <style>
    g.zone {
      fill: lightgray;
      stroke-width: 2;
      stroke-linecap: square;
      stroke-linejoin: bevel;
      stroke-miterlimit: 3;
      stroke-opacity: 0.8;
      stroke: black;
      fill-opacity: 0.3;
    }
  </style>
  <g class="zone" id="zone">
    <path d="M120.45077399380806,230.12260061919486 120.49040247678151,230.57832817337405 120.58947368421232,230.8953560371504 120.80743034055786,231.31145510835898 121.1244582043342,231.74736842105145 121.89721362229118,232.48049535603639 123.48235294117856,233.68916408668724 123.99752321981653,234.22414860681053 124.4136222910237,234.8185758513926 125.48359133127029,236.79999999999902 125.74117647058928,237.5133126934972 126.07801857585235,239.03900928792442 126.23653250774053,239.39566563467423 126.53374613003297,239.79195046439605 127.28668730650321,240.48544891640753 128.0792569659441,241.00061919504552 129.06996904024942,241.49597523219816 131.1306501547985,242.30835913312578 131.764705882354,242.70464396284763 132.43839009288018,243.19999999999888 131.28916408668948,245.1021671826612 130.19938080495336,246.786377708978 126.94984520124014,251.38328173374492 126.3752321981448,252.3343653250768 125.74117647058928,253.62229102167174 124.82972136223086,253.74117647058787 124.23529411764879,253.74117647058787 123.4427244582051,253.5826625386997 122.96718266254058,253.36470588235275 122.41238390092916,252.9684210526309 121.46130030959728,252.0767801857578 119.16284829721593,249.77832817337364 117.91455108359162,248.7678018575844 117.06253869969056,248.2328173374611 115.06130030959883,247.18266253869842 114.36780185758596,246.94489164086616 113.75356037151717,246.90526315789413 112.80247678018812,247.0637770897823 110.78142414860683,247.6978328173364 110.06811145511004,248.05448916408622 108.81981424148856,248.86687306501523 107.94798761610078,249.16408668730625 106.83839009288073,249.3820433436532 104.18328173374675,249.79814241486037 102.55851393188874,250.25386996903956 102.14241486068157,250.23405572755283 100.85448916408663,250.05572755417936 99.8241486068135,250.1151702786367 99.4674922600637,250.1944272445808 98.79380804953753,250.49164086687182 97.48606811145586,250.76904024767754 97.22848297213687,250.94736842105246 97.08978328173544,251.22476780185676 97.20866873065015,252.21547987616066 97.14922600619279,252.61176470588111 96.93126934984726,252.9684210526309 96.57461300309745,253.34489164086602 96.11888544891684,253.66191950464378 95.56408668730822,253.9591331269348 93.5826625387004,254.5733746130022 92.29473684210545,255.2074303405563 92.03715170278647,255.2866873065004 91.58142414860866,255.2866873065004 90.29349845201372,255.0092879256961 89.77832817337574,254.98947368420937 87.02414860681095,255.4650154798753 85.89473684210701,255.60371517027815 85.1814241486074,255.64334365325018 83.12074303405831,255.5442724458194 81.29783281733866,255.8216718266251 79.07863777089857,256 78.68235294117814,255.0092879256961 78.18699690402688,253.99876160990686 74.06563467492306,246.82600619195003 73.5702786377718,245.87492260061816 73.213622291022,245.04272445820385 72.95603715170301,244.23034055727481 72.73808049535748,243.33869969040174 72.12383900928869,238.8606811145509 71.64829721362416,236.54241486068003 71.11331269349947,234.66006191950441 70.45944272446003,232.71826625386865 69.96408668730878,231.37089783281635 69.50835913312817,230.4396284829712 69.03281733746364,229.66687306501424 68.49783281733895,229.0130030959748 68.00247678018769,228.5770897832809 67.28916408668809,228.12136222910172 66.4965944272472,227.78452012383863 65.72383900929024,227.62600619195047 64.77275541795838,227.56656346749168 64.01981424148813,227.62600619195047 65.069969040248,226.39752321981427 66.35789473684294,225.18885448916342 66.65510835913538,224.75294117646953 67.09102167182645,223.3857585139319 67.46749226006298,222.55356037151617 67.9232198142436,221.74117647058716 68.1015479876185,221.26563467492264 68.16099071207586,220.57213622290976 67.96284829721424,219.5219814241485 67.98266253870096,219.32383900928687 68.06191950464505,219.14551083591337 68.37894736842141,218.86811145510765 69.84520123839124,218.03591331269334 70.83591331269375,217.18390092879227 71.58885448916399,216.37151702786326 71.70773993808153,216.09411764705754 71.74736842105499,215.71764705882242 72.10402476780197,215.46006191950343 72.14365325077542,215.28173374612996 71.78699690402561,214.46934984520092 71.0538699690421,213.33993808049416 70.7962848297231,212.58699690402392 70.73684210526575,211.3981424148598 70.57832817337476,210.42724458204262 70.53869969040413,209.13931888544766 70.55851393189084,208.40619195046415 70.73684210526575,206.66253869969 70.71702786377902,206.06811145510792 70.63777089783494,205.55294117646997 70.45944272446003,205.037770897832 70.04334365325288,204.40371517027788 69.7065015479898,203.15541795665638 69.25077399380918,202.12507739938042 68.63653250774038,201.13436532507652 67.68544891640852,200.02476780185648 67.24953560371745,199.331269349845 67.15046439628664,199.01424148606725 67.15046439628664,198.71702786377622 67.36842105263217,197.76594427244575 67.34860681114544,197.5479876160988 67.24953560371745,197.2705882352931 66.85325077399419,196.69597523219775 66.25882352941213,196.16099071207304 64.71331269350101,195.2099071207426 63.40557275541934,194.65510835913256 62.35541795665666,194.00123839009174 61.89969040247886,193.8030959752315 61.74117647059069,193.66439628482865 61.52321981424233,193.36718266253763 61.32507739938071,192.95108359133047 60.79009287925882,191.48482972136202 60.71083591331473,191.06873065015486 60.691021671828004,190.33560371516992 60.61176470588392,189.97894736842014 60.45325077399574,189.70154798761584 60.23529411764739,189.44396284829685 58.9869969040259,188.4334365325076 58.88792569659508,188.17585139318862 58.84829721362445,187.75975232198147 58.90773993808181,187.28421052631552 59.066253869969984,187.22476780185676 60.3343653250782,186.41238390092775 61.64210526315987,185.87739938080443 62.81114551083728,185.50092879256934 66.17956656346804,184.60928792569624 67.32879256966153,184.39133126934928 68.9139318885461,184.2328173374611 69.54798761610162,184.0346749225995 70.02352941176615,183.73746130030844 70.41981424148659,183.38080495356004 71.70773993808153,181.8947368421049 72.24272445820623,181.39938080495364 73.25325077399546,180.68606811145403 74.20433436532733,180.13126934984402 76.85944272445849,178.78390092879172 78.1275541795667,178.26873065015374 80.28730650154942,177.6941176470584 81.6941176470591,177.21857585139247 82.44705882352933,177.1591331269351 82.86315789473932,177.1789473684204 83.31888544891711,177.29783281733654 83.89349845201245,177.5157894736835 84.36904024767979,177.81300309597452 84.8247678018576,178.26873065015374 85.26068111455149,178.98204334365334 85.5380804953572,179.3188854489164 85.83529411764964,179.4773993808046 86.46934984520234,179.5764705882354 86.70712074303461,179.71517027863686 87.20247678018586,180.42848297213504 87.93560371517219,181.22105263157874 88.62910216718507,182.11269349845185 88.90650154798797,182.3504643962841 89.2037151702804,182.528792569659 90.15479876161227,182.74674922600596 90.41238390093126,182.8656346749221 90.55108359133271,183.1430340557264 90.84829721362233,184.37151702786255 91.0662538699707,184.82724458204316 91.32383900928969,185.24334365325035 91.66068111455276,185.6594427244575 93.1269349845226,187.20495356037142 93.66191950464449,187.60123839009188 94.07801857585166,187.77956656346677 94.63281733746308,187.8984520123829 96.61424148606808,188.09659442724453 98.7739938080508,188.53250773993702 100.55727554179701,188.790092879256 101.3498452012407,188.77027863777067 102.75665634675036,188.53250773993702 103.78699690402632,188.45325077399292 104.30216718266429,188.3343653250768 104.57956656347001,188.21547987616066 104.79752321981555,188.03715170278576 105.07492260062126,187.60123839009188 105.07492260062126,187.1653250773994 104.87678018575964,185.87739938080443 104.87678018575964,185.46130030959728 104.95603715170373,185.16408668730625 105.23343653250944,184.72817337461237 105.94674922600623,184.05448916408622 106.18452012384131,183.598761609907 106.20433436532522,183.36099071207332 106.14489164086785,183.12321981424105 105.62972136222987,182.15232198142388 105.49102167182843,181.73622291021672 105.4712074303417,181.3795665634669 105.53065015479906,181.02291021671712 106.24396284829866,179.37832817337377 106.64024767801911,178.74427244581966 107.45263157894952,177.73374613003043 108.00743034055814,176.6043343653251 108.2253869969065,176.30712074303403 108.60185758514021,175.99009287925628 110.10773993808068,175.17770897832727 110.6625386996921,174.76160990712012 111.07863777089928,174.26625386996886 111.73250773993871,172.79999999999902 112.1684210526326,172.1659442724449 112.82229102167202,171.63095975232162 114.46687306501677,170.56099071207362 115.79442724458235,169.17399380804926 117.00309597523321,168.2030959752321 117.81547987616081,167.39071207430305 118.66749226006186,166.65758513931814 118.88544891641021,166.38018575851385 119.08359133127183,165.88482972136117 119.16284829721593,164.8148606811146 119.28173374613066,164.35913312693398 119.4006191950482,164.101547987615 119.65820433436718,163.82414860681067 120.03467492260089,163.52693498451964 120.29226006191988,163.42786377708882 119.87616099071272,163.4080495356035 119.42043343653492,163.22972136222862 119.08359133127183,162.9523219814229 118.72693498452203,162.43715170278634 118.44953560371633,161.72383900928673 117.55789473684463,158.5733746130029 117.22105263157874,157.74117647058716 115.67554179566763,154.98699690402378 115.35851393188845,154.59071207430335 114.5065015479874,153.71888544891556 113.8724458204347,152.74798761609838 111.8117647058828,149.1021671826619 111.45510835913299,148.38885448916372 111.098452012386,147.4773993808039 110.84086687306701,147.02167182662467 110.36532507739967,146.48668730650138 109.63219814241616,145.83281733746054 108.12631578947568,144.68359133126847 106.99690402476891,144.10897832817312 106.64024767801911,143.732507739938 106.52136222910438,143.45510835913228 106.50154798761766,143.13808049535592 106.85820433436746,142.12755417956672 107.31393188854526,139.69040247677967 107.37337461300544,138.9969040247668 107.27430340557463,138.4817337461288 107.11578947368645,138.2043343653245 106.85820433436746,137.92693498452022 105.1145510835919,136.7578947368414 104.77770897832882,136.44086687306503 104.4804953560392,136.08421052631525 103.88606811145713,135.21238390092887 103.13312693498689,133.94427244581925 102.71702786377692,133.0922600619196 102.30092879256975,131.84396284829668 102.04334365325076,131.4080495356028 101.6272445820436,130.8730650154795 100.69597523219845,129.90216718266234 100.12136222910311,129.44643962848312 99.17027863777125,128.9907120743025 96.87182662538707,128.19814241486023 95.88111455108458,127.76222910216633 94.553560371519,126.930030959752 92.29473684210545,125.30526315789398 91.56160990712195,124.63157894736783 90.05572755418146,123.12569659442735 88.78761609907325,122.01609907120731 88.25263157894854,121.50092879256933 87.77708978328401,120.78761609907113 87.18266253870195,119.55913312693495 86.9647058823536,119.28173374612925 86.56842105263316,118.96470588235289 86.09287925696582,118.66749226006186 84.86439628483105,118.15232198142388 83.49721362229202,117.43900928792569 83.08111455108485,117.14179566563465 82.24891640867052,116.42848297213504 81.45634674922684,115.89349845201176 80.94117647058886,115.69535603715153 79.99009287925699,115.45758513931786 79.65325077399392,115.29907120742969 79.33622291021756,115.02167182662538 78.90030959752367,114.24891640866842 78.5634674922606,113.8724458204333 77.96904024767854,113.35727554179532 76.91888544891867,112.56470588235304 76.06687306501762,112.00990712074301 75.51207430340618,111.73250773993729 74.83839009288003,111.51455108359035 73.74860681114671,111.27678018575808 73.13436532507792,111.0191950464391 72.42105263158113,110.46439628482908 70.45944272446003,108.40371517027857 69.2705882352959,107.29411764705853 68.73560371517121,107.03653250773955 68.24024767801995,106.95727554179545 67.9232198142436,106.97708978328077 69.84520123839124,106.8185758513926 71.31145510836109,106.5411764705883 72.42105263158113,106.1845201238385 73.35232198142627,105.68916408668724 73.98637770897898,105.1145510835905 74.48173374613023,104.4012383900923 74.87801857585349,103.60866873065001 75.94798761610008,100.89411764705868 76.38390092879396,100.10154798761498 76.9585139318893,99.36842105263146 77.6718266253889,98.7739938080494 78.40495356037242,98.37770897832756 79.23715170278675,98.1399380804953 79.69287925696736,98.08049535603652 80.36656346749352,98.08049535603652 81.21857585139458,98.21919504643938 82.09040247678234,98.49659442724369 83.0414860681114,98.91269349845085 84.07182662538736,99.54674922600637 85.5380804953572,100.65634674922501 90.49164086687534,104.99566563467437 92.69102167182871,106.71950464396178 94.31578947368673,107.86873065015388 95.84148606811394,108.85944272445778 97.34736842105441,109.6718266253868 98.8532507739949,110.36532507739827 100.61671826625437,111.03900928792582 102.14241486068157,111.45510835913299 103.70773993808223,111.71269349845198 105.09473684210518,111.83157894736811 106.62043343653238,111.81176470588139 108.0668730650155,111.63343653250789 109.43405572755454,111.27678018575808 110.6427244582054,110.80123839009215 111.3758513931889,110.24643962848214 111.71269349845198,109.8501547987617 111.97027863777097,109.45386996903984 112.10897832817523,108.8792569659431 112.02972136223114,108.1659442724449 111.77213622291215,107.45263157894671 111.43529411764908,106.83839009287932 109.23591331269571,103.66811145510738 108.54241486068284,102.51888544891528 108.24520123839041,101.9046439628479 108.00743034055814,101.21114551083502 107.88854489164342,100.69597523219704 107.86873065015669,100.18080495356048 107.98761609907142,99.19009287925657 108.68111455108429,96.83219814241504 109.79071207430434,91.91826625386892 110.3851393188864,90.03591331269332 111.07863777089928,88.4904024767794 111.89102167182688,86.86563467492279 112.72321981424402,85.41919504643967 113.61486068111572,83.9331269349845 115.61609907120744,80.86191950464337 116.94365325077584,79.07863777089716 117.43900928792709,78.54365325077387 118.17213622291061,77.86996904024771 119.00433436532494,77.27554179566565 119.97523219814353,76.780185758513 121.04520123839012,76.36408668730583 122.0953560371528,76.06687306501479 123.36346749226102,75.80928792569581 124.6117647058825,75.6309597523209 126.35541795665807,75.51207430340477 127.70278637771038,75.5318885448915 129.4266253869992,75.69040247677968 130.91269349845297,76.00743034055743 132.4780185758536,76.50278637770869 133.96408668730737,77.07739938080402 136.2229102167181,78.08792569659467 139.1554179566578,79.57399380804841 140.7801857585158,80.50526315789497 142.42476780185774,81.63467492260033 143.2965944272455,82.34798761609852 143.95046439628496,82.94241486068059 144.70340557275517,83.77461300309491 145.45634674922823,84.7455108359135 147.20000000000098,87.4204334365314 149.33993808049698,91.12569659442664 150.21176470588478,92.35417956656282 150.74674922600664,92.94860681114488 151.34117647058872,93.46377708978287 151.97523219814423,93.87987616099002 152.70835913312774,94.25634674922514 153.50092879257144,94.5733746130029 154.49164086687395,94.83095975232189 155.38328173374845,94.96965944272334 156.3343653250775,95.06873065015415 158.7517027863792,95.08854489164088 162.00123839009524,94.89040247677926 163.88359133126946,94.63281733746027 164.75541795665723,94.43467492260005 165.627244582045,94.17708978328106 166.0631578947389,93.9591331269341 166.65758513932096,93.54303405572695 167.0736842105281,93.18637770897855 167.29164086687365,92.8693498452008 169.2136222910241,98.61547987615982 169.5702786377711,99.52693498451964 169.90712074303417,100.08173374612966 170.3628482972148,100.57708978328091 171.0761609907144,101.09226006191889 173.1368421052635,102.02352941176403 174.1077399380821,102.6179566563461 174.58328173374662,103.01424148606795 175.0191950464405,103.46996904024715 175.4749226006211,104.18328173374535 175.7325077399401,104.83715170278619 175.83157894736811,105.31269349845212 175.79195046439747,105.68916408668724 175.53436532507848,106.22414860681053 174.58328173374662,107.43281733746139 174.1077399380821,107.82910216718183 173.2160990712076,108.46315789473594 172.62167182662552,109.05758513931801 171.15541795665848,110.72198142414807 170.58080495356035,111.49473684210503 170.22414860681334,112.10897832817241 170.10526315789582,112.52507739938099 169.94674922600763,113.71393188854371 169.31269349845212,115.51702786377663 168.95603715170515,116.88421052631567 168.67863777089943,119.91578947368335 168.42105263158044,121.67925696594423 168.38142414860698,122.61052631578937 168.02476780185998,124.29473684210475 167.866253869969,124.75046439628396 167.68792569659692,125.00804953560295 167.4105263157912,125.28544891640867 166.81609907120912,125.60247678018501 164.57708978328233,126.27616099071116 162.71455108359203,126.94984520123732 161.32755417956628,127.26687306501508 159.58390092879355,127.38575851393121 159.04891640866884,127.48482972136202 158.19690402476778,127.86130030959714 157.02786377709037,128.47554179566453 156.63157894736995,128.61424148606739 156.2352941176495,128.6340557275541 155.7003095975248,128.5349845201233 153.0253869969041,127.70278637770896 155.343653250775,129.58513931888456 155.73993808049542,129.8030959752315 156.03715170278787,129.8823529411756 156.37399380805095,129.90216718266234 158.0185758513957,129.82291021671824 159.14798761609964,130.0408668730652 160.9708978328193,130.15975232198133 161.4068111455132,130.21919504643867 161.90216718266444,130.37770897832826 162.17956656346735,130.4965944272444 162.43715170278634,130.73436532507665 162.9523219814243,131.4080495356028 163.24953560371674,131.62600619194976 164.57708978328233,131.68544891640852 167.0736842105281,131.90340557275547 167.6681114551102,132.0222910216716 168.2030959752321,132.2006191950465 168.67863777089943,132.39876160990673 169.1938080495374,132.71578947368306 169.66934984520194,133.0922600619196 170.02600619195172,133.448916408668 170.2835913312707,133.88482972136188 170.5411764705897,134.47925696594396 170.6204334365338,134.91517027863785 170.52136222910298,135.29164086687297 170.6204334365338,135.37089783281704 171.21486068111585,135.31145510835827 171.92817337461545,135.1529411764701 173.96904024767784,134.41981424148517 174.58328173374662,134.24148606811028 175.05882352941396,134.16222910216618 175.77213622291075,134.14241486068087 176.70340557275588,134.22167182662497 177.83281733746267,134.39999999999986 180.78513931888625,134.9746130030952 181.32012383901096,135.1529411764701 182.7863777089808,135.8662538699683 184.09411764705965,136.34179566563424 184.90650154799008,136.55975232198116 185.85758513931913,136.65882352941057 188.1362229102166,136.7578947368414 189.95913312693622,136.99566563467508 193.069969040248,137.1145510835912 195.44767801857625,137.15417956656324 197.9839009287927,137.41176470588223 201.60990712074528,137.51083591331164 202.24396284829797,137.41176470588223 207.11826625387204,136.28235294117545 207.95046439628635,136.18328173374604 208.94117647058886,136.18328173374604 213.02291021671923,136.55975232198116 214.74674922600806,136.59938080495323 215.83653250774137,136.6786377708973 216.49040247678082,136.7578947368414 217.24334365325103,136.95603715170162 219.83900928792767,138.04582043343635 220.57213622291118,138.26377708978328 221.34489164086813,138.40247678018474 222.15727554179574,138.97708978328149 223.58390092879495,139.82910216718253 225.12941176470608,140.36408668730581 227.6458204334386,140.97832817337462 228.02229102167232,141.1368421052628 228.16099071207657,141.2359133126936 228.2006191950472,141.35479876160974 228.14117647058984,141.5133126934979 227.9232198142415,141.75108359133017 227.34860681114614,142.16718266253875 224.1585139318903,143.6532507739939 222.8309597523219,144.10897832817312 221.00804953560507,144.50526315789355 220.39380804953626,144.68359133126847 219.42291021672048,145.1591331269344 218.39256965944455,145.91207430340464 215.89597523219874,146.9424148606806 214.09287925696583,147.4773993808039 212.8049535603737,147.63591331269348 212.3690402476798,147.7746130030949 211.73498452012427,148.17089783281676 210.96222910216733,148.78513931888554 209.65448916408846,150.23157894736727 209.21857585139458,150.64767801857585 207.97027863777308,150.92507739938014 206.44458204334586,151.47987616099016 204.89907120743194,151.876160990712 204.2650154798764,152.133746130031 203.29411764706066,152.62910216718225 201.70897832817326,153.3027863777084 199.94551083591378,153.85758513931842 199.232198142417,154.03591331269334 198.7962848297231,154.03591331269334 197.84520123839124,153.89721362229048 196.6563467492271,153.5801857585127 196.24024767801995,153.52074303405536 195.7448916408687,153.52074303405536 194.89287925696763,153.59999999999943 194.5956656346752,153.5801857585127 193.94179566563577,153.36222910216716 192.75294117647164,152.78761609907042 192.0792569659455,152.6687306501543 191.42538699690607,152.70835913312635 188.73065015479864,153.08482972136147 188.11640866873267,153.3027863777084 187.48235294117714,153.67925696594352 186.74922600619362,154.3727554179564 185.22352941176644,156.4136222910216 184.90650154799008,157.20619195046388 184.64891640867108,158.37523219814128 184.3318885448919,158.96965944272335 183.38080495356004,159.9999999999993 182.66749226006326,160.93126934984443 181.83529411764894,161.74365325077343 181.51826625386977,162.13993808049528 181.2804953560375,162.63529411764654 181.1814241486067,163.0315789473684 181.1616099071228,164.2006191950458 181.0030959752346,165.05263157894686 180.6464396284848,165.726315789473 180.07182662538946,166.36037151702712 179.67554179566622,166.67739938080487 179.21981424148842,166.8755417956651 178.50650154798882,166.99442724458123 177.91207430340674,166.95479876160917 177.91207430340674,167.37089783281635 177.79318885448922,167.84643962848227 177.49597523219958,168.28235294117616 177.21857585139387,168.5795665634672 176.525077399381,168.99566563467437 174.9201238390097,169.62972136222848 173.27554179566778,170.56099071207362 172.7009287925696,171.05634674922487 171.84891640866854,171.96780185758467 171.45263157894811,172.28482972136104 171.03653250774096,172.46315789473593 170.5411764705897,172.6018575851388 169.1145510835933,172.85944272445778 167.98513931888655,173.1368421052621 167.39071207430447,173.33498452012373 166.93498452012386,173.53312693498393 166.45944272445934,173.83034055727498 166.10278637770952,174.10773993807928 165.86501547987726,174.4049535603703 165.80557275541992,174.74179566563478 165.96408668730808,175.09845201238318 166.22167182662707,175.33622291021544 166.91517027863995,175.85139318885342 167.13312693498548,176.06934984520038 167.35108359133102,176.40619195046344 167.82662538699836,177.2582043343645 168.24272445820552,177.83281733746125 168.71826625387004,178.22910216718168 169.66934984520194,178.7640866873064 169.8080495356062,178.96222910216662 169.8278637770901,179.23962848297091 169.60990712074457,180.05201238389992 169.491021671827,181.30030959752284 169.15417956656395,182.05325077399306 168.81733746130087,182.50897832817228 168.63900928792597,182.64767801857514 168.4012383900937,182.72693498451923 167.4105263157912,182.76656346749127 166.8755417956665,182.8656346749221 164.41857585139414,183.83653250773926 164.08173374613108,183.9356037151701 163.62600619195047,183.8761609907113 163.0315789473684,183.6780185758511 161.72383900928955,182.8854489164074 161.44643962848383,182.8656346749221 161.1492260061942,183.02414860681026 160.75294117647096,183.47987616098945 160.03962848297417,184.7479876160991 159.96037151703007,185.0055727554181 159.96037151703007,185.2037151702783 160.07925696594478,185.50092879256934 160.23777089783297,185.7585139318883 160.49535603715196,186.03591331269263 160.9708978328193,186.39256965944242 162.02105263157915,187.5417956656345 162.10030959752325,187.70030959752268 162.0606811145526,187.8191950464388 161.28792569659564,188.11640866872986 160.85201238390175,188.41362229102089 160.59442724458276,188.6910216718266 159.98018575851398,189.5826625386997 159.74241486068172,189.84024767801867 158.77151702786594,190.17708978328176 158.31578947368533,190.43467492259933 157.8402476780208,190.9498452012373 157.3845201238402,191.742414860681 157.20619195046527,191.9207430340545 156.77027863777138,192.05944272445737 156.17585139318933,192.0990712074294 155.44272445820582,192.11888544891613 154.9077399380811,192.03962848297203 154.84829721362374,192.37647058823512 154.68978328173557,192.73312693498352 154.05572755418007,193.60495356037129 153.30278637770982,194.85325077399278 153.0055727554202,195.70526315789385 152.80743034055857,196.10154798761567 152.4904024767822,196.49783281733752 152.1139318885457,196.8346749226006 151.36099071207545,197.17151702786367 150.90526315789484,197.2705882352931 147.89349845201386,197.03281733746084 147.0216718266261,197.0922600619196 145.93188854489276,197.2904024767798 145.5157894736856,197.52817337461207 145.21857585139315,197.92445820433392 145.07987616099172,198.2811145510823 144.8817337461301,199.2520123839009 144.66377708978456,199.96532507739911 144.5250773993831,200.26253869969014 144.32693498452147,200.52012383900913 143.8910216718276,200.7380804953561 143.13808049535734,200.9362229102163 142.3851393188871,201.01547987616038 141.4934984520126,200.9362229102163 141.11702786377887,200.95603715170162 140.70092879257172,201.05510835913242 140.48297213622337,201.19380804953528 140.36408668730866,201.3919504643955 140.36408668730866,201.62972136222916 140.44334365325273,201.88730650154676 140.64148606811153,202.18452012383779 141.2160990712097,202.75913312693453 142.04829721362404,203.33374613002988 142.34551083591364,203.710216718265 142.8408668730649,205.25572755417892 142.86068111455162,205.55294117646997 142.78142414860753,205.7708978328169 142.52383900928857,205.96904024767713 142.0284829721373,206.14736842105202 139.90835913312802,206.62291021671797 138.4421052631582,207.03900928792513 137.4513931888557,207.49473684210432 136.61919504644135,208.10897832817312 136.38142414860909,208.22786377708925 135.33126934984642,208.50526315789355 135.0538699690407,208.68359133126847 134.47925696594535,209.37708978328135 134.02352941176474,209.7931888544885 132.08173374613037,210.98204334365263 130.97213622291034,211.41795665634652 130.61547987616333,211.65572755417878 130.2191950464401,212.111455108358 130.0606811145519,212.54736842105189 130.139938080496,214.33065015479806 130.0408668730652,215.321362229102 129.7832817337462,215.79690402476652 129.4266253869992,216.133746130031 128.85201238390104,216.4111455108353 127.00928792569749,216.88668730650124 125.6619195046452,217.06501547987614 124.73065015480005,217.14427244582023 123.81919504644164,217.1244582043335 122.8879256965965,216.98575851393065 122.0953560371528,216.74798761609838 121.14427244582093,216.3120743034045 121.44148606811338,216.8470588235292 122.51145510835997,218.43219814241377 122.94736842105385,219.48235294117646 123.06625386997139,219.8786377708969 123.0860681114553,220.71083591331262 123.2643962848302,221.66191950464307 123.2643962848302,222.2167182662531 123.16532507739939,223.08854489164088 122.98699690402731,223.78204334365236 122.59071207430405,224.7133126934975 121.75851393188972,226.13993808049528 121.34241486068257,227.01176470588166 120.6687306501564,229.07244582043216 120.45077399380806,230.12260061919486Z"/>
    <path d="M66.08049535603723,107.31393188854385 65.64458204334615,107.90835913312591 65.4266253869978,108.34427244581981 65.32755417956699,108.72074303405493 65.22848297213618,109.53312693498394 65.14922600619208,109.75108359133088 65.01052631579064,109.96904024767782 64.19814241486303,110.56346749225989 63.52445820433688,111.23715170278605 63.14798761610035,111.53436532507708 61.70154798761723,112.24767801857527 59.9777089783284,113.45634674922613 58.84829721362445,114.36780185758455 57.85758513931913,115.29907120742969 57.58018575851623,115.59628482972072 57.40185758514133,115.93312693498379 57.164086687309066,116.94365325077302 56.74798761609909,118.01362229102102 56.510216718266825,118.37027863777082 55.91578947368476,119.14303405572639 54.39009287925755,120.74798761609908 53.7164086687314,121.52074303405465 53.45882352941241,121.71888544891627 52.17089783281747,122.39256965944243 51.734984520126396,122.80866873064959 51.59628482972213,123.10588235294063 51.59628482972213,123.36346749225962 52.012383900929294,124.45325077399292 52.44829721362318,125.860061919504 52.48792569659663,126.27616099071116 52.369040247679095,126.51393188854483 52.190712074304194,126.65263157894628 51.77461300309703,126.81114551083587 49.396904024768766,127.12817337461222 48.88173374613079,127.24705882352835 47.79195046439747,127.6433436532502 47.51455108359176,127.84148606811041 47.415479876160944,128.0792569659441 47.43529411764767,128.45572755417922 47.57399380805194,128.8916408668731 48.00990712074301,129.82291021671824 48.12879256966055,130.47678018575766 48.12879256966055,130.75417956656338 48.029721362229736,131.09102167182647 47.772136222910746,131.4873065015469 47.47492260062112,131.68544891640852 46.46439628483189,132.10154798761567 46.02848297213801,132.33931888544794 44.46315789473734,133.46873065015473 43.47244582043484,134.28111455108373 43.01671826625423,134.55851393188803 42.164705882353175,134.95479876160988 41.68916408668865,135.11331269349805 41.292879256968206,135.1529411764701 38.95479876161058,135.21238390092887 38.300928792571156,135.29164086687297 37.944272445821355,135.39071207430237 37.42910216718338,134.85572755417905 36.577089783282325,134.1820433436529 33.684210526316086,132.51764705882286 32.07925696594479,131.44767801857486 30.751702786379212,130.37770897832826 27.720123839011524,127.78204334365306 26.37275541795922,126.71207430340506 24.213003095976497,125.16656346749113 18.625386996905647,121.40185758513852 14.068111455110753,117.9938080495357 13.45386996904196,117.49845201238304 12.899071207430532,116.90402476780098 12.482972136223369,116.32941176470564 12.185758513933743,115.69535603715153 12.027244582045569,115.16037151702683 11.888544891641303,114.34798761609923 11.82910216718394,113.35727554179532 11.888544891641303,112.48544891640753 12.007430340558843,111.57399380804912 12.364086687308644,109.57275541795597 12.443343653252732,108.81981424148574 12.423529411766006,108.32445820433449 12.344272445821918,107.80928792569651 12.185758513933743,107.29411764705853 11.94798761610148,106.75913312693383 11.452631578947413,105.90712074303418 10.640247678019811,104.81733746129946 5.74613003096184,99.01176470588166 4.973374613004874,98.27863777089674 4.2996904024787215,97.72383900928813 2.080495356038636,96.25758513931828 1.5256965944272067,95.84148606811112 1.050154798762681,95.40557275541723 0.7529411764730561,95.04891640866883 0.3170278637791663,94.31578947368392 0.05944272446017756,93.42414860681082 0,92.90897832817284 0,92.37399380804955 0.15851393189099103,91.38328173374563 0.3170278637791663,90.78885448916357 0.6538699690422427,89.85758513931843 1.3869969040257573,88.37151702786326 2.278637770900263,86.94489164086687 3.36842105263358,85.57770897832783 4.497832817337533,84.40866873064903 5.468730650156125,83.55665634674938 6.95479876160988,82.38761609907057 10.02600619195102,80.14860681114516 10.699690402477172,79.57399380804841 11.294117647059238,78.90030959752227 11.710216718266402,78.2068111455108 11.868730650157392,77.592569659442 11.848916408670666,76.79999999999971 11.730030959753128,76.28482972136175 11.591331269351677,75.90835913312662 12.800000000002534,76.30464396284847 13.632198142416863,76.68111455108358 14.14736842105484,76.97832817337462 15.118266253870617,77.69164086687282 15.534365325077781,77.90959752321976 16.029721362229033,78.00866873064916 16.584520123840463,77.88978328173303 16.960990712076992,77.69164086687282 17.495975232198877,77.21609907120688 17.71393188854723,76.91888544891584 18.011145510836855,76.32445820433378 18.209287925698483,76.14613003095889 18.46687306501747,76.10650154798684 19.992569659444676,76.18575851393092 20.60681114551347,76.14613003095889 21.320123839010257,75.92817337461194 21.954179566565774,75.51207430340477 22.409907120743576,75.13560371516965 22.845820433437463,74.66006191950372 23.816718266256057,73.37213622291019 24.470588235295484,72.57956656346649 24.98575851393346,72.0445820433432 25.18390092879509,71.88606811145502 25.67925696594634,71.60866873064931 26.551083591331306,70.69721362229089 27.32383900928827,70.0829721362221 27.462538699692537,69.9046439628472 27.898452012386425,69.05263157894755 28.136222910218688,68.79504643962856 28.473065015481765,68.51764705882285 28.94860681114629,68.31950464396263 30.276160990714686,68.14117647058772 31.048916408668838,68.08173374612896 31.524458204336177,68.12136222910242 34.53622291021714,70.9746130030952 35.62600619195046,72.12383900928728 36.141176470588434,72.77770897832812 36.577089783282325,73.43157894736754 36.9139318885454,74.08544891640838 37.15170278637766,74.73931888544782 37.36965944272602,75.73003095975172 37.4489164086701,76.68111455108358 37.38947368421274,77.71145510835814 37.19133126935112,78.97956656346635 36.89411764706149,80.1882352941172 36.497832817338235,81.41671826625338 36.1015479876178,82.3281733746132 35.15046439628593,84.26996904024757 34.93250773994039,84.80495356037088 34.73436532507877,85.69659442724397 34.75417956656549,86.42972136222889 34.873065015480215,86.94489164086687 35.11083591331529,87.59876160990629 35.46749226006228,88.27244582043245 35.90340557275617,88.92631578947328 37.25077399380848,90.66996904024744 39.70773993808083,93.54303405572695 41.13436532508003,95.02910216718212 41.7287925696621,95.50464396284805 42.442105263158886,95.98018575851398 43.09597523219831,96.29721362229033 43.67058823529647,96.534984520124 45.90959752322046,97.20866873065015 46.82105263157888,97.5256965944265 47.673065015479935,97.94179566563366 48.54489164086772,98.51640866873042 49.1591331269365,99.07120743034044 49.71393188854512,99.72507739937986 51.55665634675149,102.39999999999915 52.111455108360104,103.11331269349735 52.58699690402463,103.62848297213533 53.14179566563606,104.12383900928799 53.87492260061958,104.69845201238333 55.4996904024776,105.72879256965928 56.351702786378645,106.14489164086645 57.12445820433562,106.40247678018544 57.976470588236666,106.62043343653238 58.88792569659508,106.77894736842056 60.27492260062084,106.93746130030873 62.17708978328176,107.05634674922486 64.39628482972185,107.09597523219831 66.35789473684294,107.05634674922486 66.08049535603723,107.31393188854385Z"/>
    <path d="M110.7417956656362,11.630959752322314 111.03900928792582,11.96780185758539 112.24767801857668,13.73126934984486 112.66377708978385,14.068111455107937 113.7733746130039,14.781424148606133 114.14984520124041,15.138080495355934 114.28854489164186,15.514551083591055 114.32817337461532,16.445820433436197 114.28854489164186,17.020433436531537 114.34798761609923,17.258204334365207 114.52631578947413,17.49597523219747 115.20000000000029,17.85263157894727 115.41795665634864,18.090402476779534 115.57647058823682,19.259442724458346 115.59628482972353,19.893498452012455 115.71517027863825,20.190712074303487 116.03219814241743,20.50773993807984 116.38885448916442,20.725696594426783 116.68606811145685,20.844582043342914 117.16160990712137,20.824767801857597 117.95417956656507,20.646439628482696 119.85634674922599,19.87368421052573 121.1244582043342,19.23962848297162 122.57089783281732,18.922600619195272 123.18513931888612,18.724458204333644 124.6910216718266,17.99133126935013 125.91950464396417,17.159133126934393 126.49411764705953,16.901547987615405 127.58390092879283,16.663777089783142 128.91145510836122,16.18823529411721 129.72383900928884,16.00990712074231 130.0408668730652,16.00990712074231 130.51640866873254,16.089164086686395 130.7541795665648,16.22786377708925 130.95232198142642,16.465634674922924 131.09102167182786,16.782662538699274 131.34860681114685,18.011145510835448 131.40804953560422,18.546130030958743 131.50712074303502,20.091640866872677 131.4674922600644,22.746749226005242 131.54674922600847,23.281733746129945 131.8439628482981,24.391331269349987 131.98266253869954,25.302786377708404 131.96284829721566,26.88792569659438 132.08173374613037,28.294736842105454 131.94303405572893,30.29597523219719 132.04210526315973,31.22724458204233 132.26006191950526,31.881114551083165 132.59690402476835,32.4557275541785 132.9931888544916,32.87182662538707 133.86501547987658,33.48606811145446 134.14241486068227,33.74365325077345 134.40000000000126,34.15975232198061 134.49907120743208,34.556037151702455 134.47925696594535,35.15046439628452 134.30092879257046,35.764705882351905 134.08297213622492,36.081733746129665 133.2705882352945,36.97337461300276 132.65634674922853,37.80557275541709 132.279876160992,38.51888544891669 132.24024767801853,38.99442724458122 132.33931888544936,39.31145510835898 132.57708978328162,39.60866873065001 133.94427244582064,40.480495356036386 134.30092879257046,40.77770897832742 134.53869969040272,41.0352941176464 134.93498452012597,41.946749226006226 135.58885448916539,43.25448916408649 135.80681114551092,43.51207430340548 136.34179566563563,43.96780185758469 136.55975232198116,44.20557275541695 136.67863777089872,44.562229102166754 136.67863777089872,45.15665634674882 136.24272445820483,46.76160990712011 135.98513931888584,47.435294117646265 135.58885448916539,48.00990712074301 134.53869969040272,49.159133126935096 134.30092879257046,49.39690402476736 133.48854489164285,49.69411764705839 132.43839009288018,50.20928792569637 131.34860681114685,50.90278637770925 130.81362229102214,51.35851393188846 130.3182662538709,51.85386996903971 129.882352941177,52.40866873064973 129.60495356037129,52.90402476780098 129.46625386996985,53.260681114550785 129.3473684210551,53.77585139318876 129.3275541795684,54.19195046439592 129.36718266253902,54.78637770897799 129.56532507740067,55.67801857585109 130.3182662538709,58.05572755417935 130.4173374613017,58.749226006192224 130.4173374613017,59.36346749225961 130.2191950464401,60.314551083591475 129.80309597523294,61.16656346749253 129.20866873065086,61.89969040247605 128.51517027863798,62.45448916408607 127.74241486068101,62.910216718265275 126.93003095975341,63.24705882352835 125.78080495356274,63.60371517027816 124.43343653250761,63.90092879256919 122.82848297213631,64.13869969040145 120.37151702786397,64.37647058823512 118.80619195046613,64.47554179566453 114.58575851393431,64.63405572755411 112.14860681114587,64.87182662538638 111.29659442724481,65.01052631578924 110.42476780185984,65.22848297213618 107.31393188854526,66.39752321981358 106.4421052631603,66.65510835913257 105.13436532507862,66.91269349845156 103.98513931888795,67.03157894736769 102.53869969040483,67.01176470588237 100.95356037151744,66.79380804953543 95.86130030959785,65.58513931888457 91.20495356037213,64.67368421052615 90.07554179566819,64.3566563467484 89.18390092879368,64.01981424148532 88.25263157894854,63.56408668730611 87.28173374612994,62.949845201237316 86.58823529411988,62.37523219814198 86.01362229102173,61.780804953559915 85.45882352941311,61.10712074303376 84.86439628483105,60.235294117645985 84.23034055727554,59.10588235294062 82.6650154798777,55.876160990711305 81.75356037151927,54.09287925696511 80.94117647058886,52.70588235294076 80.00990712074372,51.25944272445764 78.7417956656355,49.47616099071145 77.23591331269502,47.51455108359035 76.04705882353089,46.06811145510864 75.11578947368575,45.057585139318 74.2637770897847,44.245201238388994 73.45139318885708,43.57151702786284 72.67863777090012,43.036532507739544 71.72755417956826,42.48173374612952 69.84520123839124,41.590092879256424 65.96160990712251,40.08421052631594 65.18885448916554,39.72755417956614 64.33684210526448,39.21238390092817 63.52445820433688,38.59814241486078 62.87058823529464,37.964086687306676 62.23653250774194,37.250773993807066 61.14674922600862,35.86377708978272 60.61176470588392,35.28916408668738 59.957894736844494,34.734365325077356 59.28421052631834,34.31826625387019 58.253869969042384,33.90216718266162 56.86687306501663,33.54551083591323 54.984520123839616,33.20866873065015 50.80371517028125,32.61424148606809 39.52941176470593,31.524458204333364 37.52817337461419,31.425386996903956 35.249535603716744,31.425386996903956 34.1399380804967,30.731888544891078 33.86253869969099,30.494117647058815 33.604953560371996,30.137461300309013 33.40681114551319,29.54303405572695 33.26811145510892,29.26563467492264 32.49535603715196,28.512693498450993 32.03962848297416,28.21547987615996 31.048916408668838,27.77956656346748 30.632817337461674,27.502167182661765 30.434674922602863,27.304024767801543 29.879876160991433,26.51145510835926 29.126934984521192,25.738699690402296 25.520743034058164,22.62786377708911 22.80619195046683,20.626625386995972 21.439009287927796,19.952941176469817 20.904024767803094,19.536842105262654 20.468111455109202,19.00185758513936 20.09164086687549,18.18947368421035 19.61609907120815,17.476160990712152 19.23962848297444,16.68359133126846 19.04148606811281,16.089164086686395 18.942414860681996,15.17770897832798 19.00185758513936,14.464396284829782 19.061300309599535,14.226625386996112 19.200000000000987,14.028482972135892 19.834055727556503,14.404953560371013 20.48792569659593,14.702167182662045 21.260681114552895,14.97956656346776 21.835294117648235,15.118266253869209 22.56842105263175,15.23715170278534 23.47987616099298,15.296594427244111 25.18390092879509,15.256965944272066 27.06625386996928,14.959752321981034 28.473065015481765,14.563467492259187 29.82043343653407,14.068111455107937 32.990712074306025,12.700928792568904 33.981424148608525,12.383900928792555 34.91269349845367,12.146130030958883 36.08173374613107,11.96780185758539 37.42910216718338,11.868730650154577 41.5504643962872,11.829102167182533 42.75913312693524,11.769659442723764 43.98761609907282,11.630959752322314 45.55294117647066,11.29411764705783 49.515789473686304,9.926934984520207 53.7164086687314,8.698452012384033 55.00433436532634,8.222910216718098 56.01486068111557,7.786996904024209 57.26315789473706,7.133126934984782 58.49164086687465,6.380185758513133 62.196904024768486,3.725077399380566 63.44520123838998,2.912693498451556 65.01052631579064,2.040866873065184 66.4173374613003,1.3869969040243493 67.98266253870096,0.8520123839010539 69.36965944272671,0.49535603715125165 71.19256965944355,0.17832817337490112 73.0154798761632,0.03962848297204382 74.89783281733739,0 76.89907120743194,0.019814241485317966 81.13931888545048,0.19814241486021908 82.34798761610134,0.3368421052630764 83.20000000000239,0.4755417956659337 83.89349845201245,0.653869969039427 84.62662538699878,0.9114551083584157 85.30030959752494,1.228482972136174 85.77585139318947,1.5455108359125247 86.70712074303461,2.3182662538694907 87.46006191950485,3.170278637770545 89.77832817337574,6.082972136222101 90.66996904025025,6.994427244581924 91.52198142414849,7.687925696593395 92.77027863777279,8.500309597522405 94.37523219814409,9.312693498451415 96.05944272445947,10.026006191949612 97.94179566563648,10.679876160990446 99.28916408668879,11.056346749225566 100.39876160990883,11.29411764705783 101.66687306501704,11.492260061919456 102.71702786377692,11.611145510835588 104.14365325077613,11.670588235294359 105.76842105263414,11.650773993807633 107.84891640866996,11.492260061919456 110.26625386996886,11.195046439628424 110.7417956656362,11.630959752322314Z"/>
  </g>
</svg>