<?xml version="1.0" encoding="UTF-8" standalone="no"?>
<svg viewBox="0 0 174.6248995983947 256" xmlns="http://www.w3.org/2000/svg">
  <style>
    g.zone {
      fill: lightgray;
      stroke-width: 2;
      stroke-linecap: square;
      stroke-linejoin: bevel;
      stroke-miterlimit: 3;
      stroke-opacity: 0.8;
      stroke: black;
      fill-opacity: 0.3;
    }
  </style>
  <g class="zone" id="zone">
    <path d="M147.68835341365266,219.2706827309242 149.51325301204838,220.45301204819233 150.4385542168655,220.8899598393569 152.1092369477899,221.45542168674697 155.37349397590478,222.25220883534223 155.99036144578287,222.53493975903544 156.06746987951672,222.66345381526097 156.06746987951672,222.84337349397632 155.60481927710998,223.35742971887655 154.83373493976055,223.89718875502078 150.84979919678787,225.72208835341468 149.12771084337183,226.31325301204876 146.76305220883555,226.82730923694714 145.96626506024026,227.05863453815235 144.70682730923826,227.67550200803225 143.37028112449877,228.65220883534104 140.1317269076297,229.98875502008056 137.79277108433558,230.6827309236943 136.12208835341485,230.8883534136555 135.5566265060248,231.06827309236903 134.7341365461837,231.58232931726926 133.73172690762905,232.3791164658645 132.0353413654625,234.25542168674642 131.46987951807245,234.7951807228925 129.85060240963972,235.15502008032138 127.8714859437763,235.87469879518096 125.86666666666706,236.3887550200812 125.04417670682597,236.72289156626607 123.78473895582397,237.36546184738998 121.72851405622305,238.2393574297191 119.44096385542059,238.95903614457868 118.51566265060346,239.19036144578388 117.95020080321339,239.19036144578388 116.71646586345358,239.01044176706853 115.17429718875472,238.59919678714797 114.63453815261047,238.52208835341412 113.99196787148657,238.52208835341412 112.88674698795225,238.6248995983938 112.50120481927571,238.59919678714797 111.65301204819244,238.31646586345477 110.11084337349358,237.57108433734933 109.41686746987799,237.44257028112565 108.6714859437744,237.44257028112565 106.69236947791097,237.75100401606468 105.27871485943763,237.8795180722902 104.61044176706788,238.03373493975974 103.9935742971898,238.29076305220892 103.27389558232838,238.72771084337347 102.47710843373312,239.4730923694789 100.67791164658688,241.7863453815272 100.343775100402,242.2746987951816 100.08674698795097,242.81445783132583 99.82971887549995,243.6369477911651 99.59839357429841,244.81927710843325 99.28995983935572,245.461847389559 98.93012048192865,245.92449799196757 97.95341365461621,246.92690763052218 97.02811244979908,248.13493975903617 95.94859437751062,249.18875502008063 95.53734939758824,249.70281124498086 95.2289156626492,250.34538152610477 95.10040160642369,250.859437751005 95.10040160642369,252.11887550200885 94.97188755020183,253.12128514056346 94.74056224899662,253.81526104417722 94.40642570281176,254.35502008032145 93.66104417670816,255.17751004016074 92.99277108433841,255.69156626506097 92.55582329317386,255.84578313253047 91.8875502008041,255.974297188756 91.32208835341403,256 90.88514056224948,255.94859437751015 90.06265060240838,255.07469879518104 89.54859437750997,254.35502008032145 89.31726907630478,253.73815261044155 89.2144578313251,252.11887550200885 89.03453815261157,251.4506024096391 88.64899598393504,250.91084337349486 88.10923694779079,250.4995983935743 86.64417670682579,249.67710843373504 85.74457831325084,249.4971887550197 84.99919678714724,249.4971887550197 81.22088353413758,249.83132530120454 80.60401606425584,249.80562248996054 80.37269076305066,249.70281124498086 80.11566265060328,249.47148594377566 79.62730923694706,248.6746987951804 79.39598393574187,248.39196787148538 79.21606425702834,248.23775100401585 78.90763052208929,248.10923694779217 76.08032128513895,247.8008032128513 74.1526104417672,247.20963855421724 72.84176706827353,247.23534136546306 72.14779116465795,247.0811244979917 71.55662650602204,246.72128514056283 71.01686746987781,246.23293172690842 70.57991967871325,245.53895582329284 69.86024096385549,243.996787148594 68.42088353413631,242.12048192771024 67.88112449799208,241.73493975903554 67.5469879518072,241.6578313253017 66.98152610441713,241.6578313253017 66.23614457831353,241.76064257028136 65.67068273092346,241.9148594377509 64.56546184738916,242.42891566265112 63.383132530121,243.3799196787159 62.97188755019863,243.6369477911651 62.74056224899709,243.7140562249008 62.252208835340866,243.7397590361448 61.506827309237266,243.58554216867526 61.018473895581046,243.4056224899599 60.58152610441649,243.1742971887547 59.81044176706706,242.55742971887662 59.373493975902505,242.37751004016127 58.628112449798905,242.2746987951816 56.90602409638652,242.42891566265112 56.10923694779125,242.35180722891545 55.389558232929836,242.01767068273057 53.12771084337321,240.55261044176737 52.74216867469667,240.14136546184685 52.45943775100346,239.7044176706823 52.35662650602378,239.31887550200756 52.35662650602378,238.93333333333285 52.43373493975763,238.65060240963965 53.204819277107056,237.648192771085 53.61606425702578,236.87710843373557 53.84738955823097,236.0289156626505 53.821686746988796,235.36064257028073 53.64176706827161,234.66666666666697 53.05060240963937,233.48433734939698 52.92208835341385,233.04738955823242 52.89638554216802,232.40481927710852 53.204819277107056,230.99116465863517 53.17911646586123,230.50281124498076 52.45943775100346,229.4489959839363 51.431325301203,227.26425702811352 51.12289156626396,226.87871485943882 50.71164658634524,226.57028112449794 50.35180722891453,226.3903614457826 50.01767068272966,226.33895582329276 49.709236947790615,226.36465863453859 48.42409638554278,226.72449799196747 46.41927710843353,227.21285140562188 45.67389558232993,227.2385542168677 44.97991967871435,227.13574297188802 44.18313253011909,226.75020080321332 43.61767068272901,226.2875502008029 43.129317269076445,225.56787148594333 42.94939759035927,224.95100401606524 42.94939759035927,224.1799196787158 43.052208835338945,223.71726907630543 43.54056224899517,222.14939759036073 44.02891566265139,221.04417670682824 44.491566265058125,220.47871485943818 46.11084337349449,219.24497991967837 46.65060240963872,218.60240963855443 47.113253012049114,217.831325301205 47.524497991967834,216.4947791164655 48.0899598393579,215.31244979919737 48.55261044176464,214.56706827309193 50.14618473895517,212.433734939759 49.220883534134394,212.25381526104366 48.398393574296946,212.15100401606395 46.830522088352254,212.1767068273098 45.49397590361275,212.45943775100483 44.15742971887325,213.0506024096389 43.052208835338945,213.3847389558238 41.51004016064009,213.61606425702897 40.584738955822964,213.641767068273 39.58232931726833,213.5389558232933 36.960642570281,213.10200803212874 35.41847389558214,212.94779116465924 32.693975903615126,212.51084337349468 31.254618473895945,212.07389558233012 28.478714859437265,210.81445783132628 28.144578313252392,210.5831325301211 27.93895582329303,210.32610441767008 27.296385542169112,208.70682730923735 26.42248995984,207.60160642570304 25.72851405622442,206.95903614457913 24.39196787148492,206.11084337349402 23.1582329317251,204.90281124498006 22.387148594375667,204.31164658634597 21.43614457831271,202.87228915662678 20.536546184737766,201.97269076305184 20.228112449798722,201.45863453815343 19.971084337347694,200.63614457831417 19.61124497992064,200.01927710843427 19.405622489957626,199.47951807229003 18.428915662648834,197.91164658634534 18.043373493975945,197.5261044176706 17.34939759036036,197.06345381526023 17.092369477909333,196.78072289156702 16.218473895580225,195.13574297188848 15.421686746988613,194.10763052208802 14.65060240963918,192.591164658635 13.10843373494032,190.38072289156636 11.900401606426334,188.3502008032131 10.769477911646195,187.03935742971944 9.76706827309157,185.39437751004093 9.612851405620223,185.24016064256958 9.227309236947335,185.08594377510005 7.351004016063597,184.75180722891517 5.911646586344417,184.34056224899643 4.626506024096583,183.72369477911653 3.598393574296125,183.10682730923662 4.549397590359083,182.38714859437704 4.986345381523639,181.87309236947863 5.3204819277085145,181.3590361445784 5.500401606425695,180.613654618473 5.397590361446015,179.68835341365403 5.0634538152611395,178.7630522088351 4.626506024096583,177.96626506024165 1.7734939759040556,173.85381526104345 0.8738955823291111,172.36305220883443 0.23132530120519443,170.89799196787126 0.07710843373384728,170.2297188755015 0,169.56144578313175 0.02570281124583329,168.89317269076383 0.15421686746769456,168.04497991967872 1.053815261042639,164.98634538152683 2.2875502008024586,159.35742971887564 2.7502008032128473,157.66104417670724 3.2642570281112504,156.17028112449822 3.932530120481,154.62811244979937 5.75742971887307,151.10682730923708 6.914056224899042,149.12771084337368 8.327710843372389,146.91726907630505 10.049799196784779,144.2698795180719 11.129317269076903,142.75341365461887 12.414457831324738,141.26265060240985 13.77670682731007,140.08032128513986 14.702008032127194,139.48915662650577 15.447389558230793,139.10361445783107 17.375100401606197,138.35823293172749 18.737349397587877,137.97269076305275 20.09959839357321,137.71566265060173 21.71887550200592,137.48433734939653 23.36385542168446,137.35582329317285 24.854618473895307,137.33012048192703 26.31967871486032,137.38152610441685 27.424899598390972,137.48433734939653 28.735742971888293,137.71566265060173 31.280321285138125,138.3839357429715 33.850602409637446,139.36064257028028 37.628915662650755,141.0827309236945 41.38152610441823,143.0361445783139 43.15502008032228,144.11566265060236 44.825702811243005,145.27228915662653 46.1622489959825,146.37751004016081 47.2160642570288,147.40562248995946 48.44979919678496,148.89638554216847 49.914859437749975,151.0040160642574 51.559839357428515,153.6771084337346 53.79598393574296,157.58393574297156 54.9269076305231,159.17751004016029 55.82650602409439,160.12851405622504 56.80321285140318,160.89959839357448 57.882730923695306,161.51646586345439 58.93654618473795,161.95341365461894 59.96465863453841,162.261847389558 61.04417670682688,162.4931726907632 62.252208835340866,162.6473895582327 63.48594377510069,162.72449799196838 66.98152610441713,162.69879518072256 70.8883534136523,162.3903614457835 73.22730923694643,162.0305220883528 74.92369477911663,161.54216867469842 75.4891566265067,161.25943775100336 76.26024096385613,160.71967871485913 76.80000000000037,160.25702811245057 77.08273092369357,159.84578313253002 77.15983935742742,159.3317269076298 76.87710843373421,158.38072289156685 76.41445783132383,157.55823293172756 75.66907630522023,156.71004016064245 74.82088353413695,155.99036144578287 73.921285140562,155.34779116465896 70.2200803212862,152.95742971887498 68.70361445782952,151.8265060240967 67.0329317269088,150.43855421686735 65.82489959839116,149.23052208835335 64.84819277108237,147.99678714859354 64.15421686747044,146.89156626505923 63.69156626506005,145.83775100401658 63.383132530121,144.73253012048227 63.228915662649655,143.5502008032123 63.25461847389549,142.3164658634543 63.434538152609015,141.00562248995882 63.82008032128556,139.43775100401595 64.69397590361467,136.9188755020083 66.05622489959634,133.55180722891552 67.57269076305303,130.2361445783126 69.21767068273158,126.8947791164657 69.73172690762998,125.71244979919571 69.988755020081,124.76144578313276 70.11726907630286,123.78473895582214 70.04016064256902,123.06506024096437 69.78313253012165,122.24257028112328 69.37188755019926,121.420080321284 68.83212851405503,120.6746987951804 68.31807228915663,120.16064257028017 67.57269076305303,119.5694779116461 66.36465863453904,118.9526104417662 63.46024096385485,118.05301204819308 62.71485943775125,117.66746987951836 62.09799196786952,117.25622489959781 61.06987951807271,116.30522088353302 59.039357429717626,114.12048192771024 57.31726907630524,112.37269076305202 58.19116465863435,111.83293172690779 59.656224899599366,110.47068273092246 60.50441767068264,109.80240963855454 62.68915662650542,108.33734939758952 63.17751004016164,107.84899598393513 64.17991967871261,106.64096385542113 64.74538152610269,106.1269076305209 65.28514056224692,105.79277108433786 66.62168674698643,105.12449799196811 67.57269076305303,104.55903614457804 68.44658634538214,103.86506024096428 68.90923694778888,103.27389558232838 69.08915662650605,102.86265060240966 69.14056224899407,102.47710843373494 68.96064257028054,100.6008032128512 68.98634538152638,100.31807228915618 69.14056224899407,100.16385542168665 69.19196787148574,100.00963855421713 69.01204819277221,99.80401606425595 68.21526104417694,99.31566265060155 68.00963855421759,99.05863453815235 67.93253012048008,98.82730923694714 67.93253012048008,98.3903614457826 68.13815261043945,97.02811244979908 68.13815261043945,96.0514056224903 67.44417670682752,92.6586345381517 67.23855421686815,91.45060240963772 67.00722891566296,90.47389558232892 66.98152610441713,90.1911646586339 67.0843373493968,89.88273092369485 67.21285140562232,89.7028112449795 68.24096385542278,88.88032128514023 68.98634538152638,88.62329317269102 69.60321285140446,88.5975903614452 70.01445783132318,88.46907630521967 70.27148594377421,87.80080321285176 70.37429718875389,87.132530120482 71.27389558232883,86.15582329317138 71.68514056224755,85.4104417670678 72.09638554216629,83.79116465863325 72.12208835341211,82.60883534136511 72.3020080321293,81.94056224899535 72.17349397590378,81.34939759036128 71.94216867469859,80.93815261044072 71.58232931726788,80.60401606425584 70.01445783132318,79.47309236947754 69.65461847389614,78.90763052208747 69.47469879517895,78.52208835341276 69.50040160642479,78.18795180722788 69.78313253012165,77.18554216867508 69.65461847389614,76.20883534136446 69.44899598393677,75.46345381526086 69.60321285140446,75.18072289156584 69.91164658634351,75.0265060240963 70.04016064256902,74.8979919678708 70.06586345381486,74.07550200803152 70.50281124497941,73.51004016064145 70.60562248995909,73.25301204819226 70.04016064256902,72.04497991967827 69.91164658634351,70.45140562248956 69.57751004015863,69.29477911646542 69.57751004015863,68.24096385542096 69.29477911646542,66.41606425702706 69.52610441767061,65.15662650602323 69.78313253012165,64.41124497991963 70.01445783132318,63.40883534136501 69.93734939758934,62.68915662650542 70.04016064256902,61.66104417670679 69.83453815260965,60.96706827309121 69.75742971887581,60.55582329317248 69.86024096385549,59.68192771084337 69.988755020081,59.32208835341266 70.16867469879453,59.039357429717626 71.06827309236948,58.24257028112419 71.45381526104237,57.7799196787138 71.55662650602204,57.5228915662646 71.68514056224755,54.48995983935672 71.81365461847308,53.46184738955809 71.76224899598506,51.84257028112355 71.81365461847308,50.37751004016037 71.76224899598506,49.22088353413622 71.40240963855435,47.678714859437356 71.3253012048205,44.23453815260893 71.45381526104237,43.41204819276965 71.8393574297189,42.409638554216855 72.09638554216629,41.510040160641914 72.5333333333345,39.58232931726833 72.61044176706834,38.965461847388426 72.55903614457667,38.50281124497986 71.91646586345276,36.85783132530132 71.37670682730852,34.72449799196656 71.19678714859499,34.31325301204784 70.81124497991844,33.902008032127284 69.21767068273158,32.95100401606433 68.96064257028054,32.6939759036133 68.85783132530086,32.385542168674256 68.85783132530086,32.07710843373339 68.9349397590347,31.92289156626387 69.75742971887581,31.28032128513995 70.1429718875487,30.8433734939754 70.52851405622523,29.352610441766377 71.17108433734916,27.99036144578287 71.3253012048205,27.296385542167286 71.27389558232883,26.705220883533208 71.09397590361532,26.0883534136533 70.75983935743044,25.651405622488745 69.96305220883517,25.060240963854667 69.50040160642479,24.52048192771043 69.34618473895344,24.237751004015397 69.26907630521958,23.59518072289148 69.32048192771126,23.235341365460773 69.6289156626503,22.25863453815198 69.78313253012165,21.410441767066875 69.96305220883517,20.844979919678632 70.24578313252837,20.279518072288564 70.96546184738979,19.27710843373394 71.42811244980018,18.737349397589703 72.09638554216629,18.248995983935306 74.6666666666656,16.8867469879518 75.56626506024054,16.2955823293159 75.92610441767125,15.85863453815134 76.2345381526103,15.293172690763098 76.44016064256965,14.702008032127194 76.5172690763035,14.110843373493118 76.41445783132383,13.468273092369202 75.82329317269158,12.337349397589064 75.61767068272856,11.82329317269066 75.43775100401503,10.332530120481639 75.23212851405567,9.612851405622049 74.97510040160465,9.09879518072182 73.58714859437713,7.04257028112273 73.02168674698706,5.783132530118904 72.91887550200738,5.320481927710341 72.86746987951571,4.395180722891389 72.8160642570277,4.009638554216674 72.19919678714962,2.7502008032128473 72.01927710843243,2.210441767066785 71.9935742971866,1.3622489959835071 72.04497991967827,1.1052208835324793 72.14779116465795,0.9510040160629585 72.8160642570277,1.0024096385527987 74.69236947791144,1.4393574297173544 76.20883534136446,1.5935742971887015 77.93092369477685,2.056224899597264 79.37028112449603,2.3132530120464656 81.29799196787144,2.4160642570279722 82.86586345381613,2.6730923694771738 83.37991967871453,2.7244979919670143 84.02248995983845,2.5445783132516597 84.51084337349467,2.184738955822778 85.02489959839308,1.4907630522071946 85.66746987951699,0.4112449799187223 85.97590361445603,0.12851405622368756 86.33574297188675,0.025702811244006998 86.79839357429712,0 88.72610441766888,0 89.39437751003862,0.17991967871352785 91.5791164658614,1.1052208835324793 92.42730923694833,1.387951807227514 96.71967871486005,2.390361445782139 97.43935742971782,2.5188755020076528 99.72690763052027,2.6730923694771738 100.7293172690749,2.7759036144568543 103.60803212851326,3.2899598393570835 106.0755020080329,3.8297188755013196 106.69236947791097,3.88112449799116 107.1036144578297,3.7783132530114796 107.54056224899426,3.598393574296125 108.54297188754889,3.007228915662049 109.15983935743061,2.7759036144568543 109.59678714859517,2.6987951807211807 110.21365461847326,2.7244979919670143 111.06184738955653,2.9044176706823683 114.01767068272875,3.7783132530114796 115.9196787148583,4.189558232930202 118.56706827309148,4.54939759036091 120.28915662650387,5.1148594377509795 124.37590361445622,5.628915662649383 126.9204819277097,6.322891566264966 128.025702811244,6.477108433734487 129.54216867469702,7.016867469878723 130.08192771084128,7.145381526104236 130.8016064257027,7.196787148594077 132.75502008032026,6.888353413653209 135.71084337349248,6.862650602409202 136.73895582329294,7.04257028112273 138.48674698795116,7.171084337348243 140.6457831325281,7.736546184738313 142.77911646586287,7.916465863453667 143.3188755020071,7.865060240963826 143.85863453815134,7.710843373492479 146.01767068273193,6.708433734939681 147.2514056224881,5.783132530118904 148.69076305220727,5.012048192769472 150.1558232931723,4.138152610440361 150.33574297188582,4.54939759036091 150.46425702811135,5.4232931726900215 150.48995983935717,6.271485943775125 150.3871485943775,7.171084337348243 150.20722891566396,7.608032128512799 149.35903614457703,8.713253012047105 149.1791164658635,9.175903614457493 149.12771084337183,9.689959839355897 149.15341365461768,10.358232931725647 149.71887550200773,12.157429718875536 149.7702811244994,12.722891566263778 149.5389558232942,13.314056224897856 148.94779116465833,14.162248995982958 148.8192771084328,14.496385542167834 148.8192771084328,14.753413654617036 148.8963855421703,15.08755020080191 149.02489959839215,15.267469879517265 149.95020080321294,16.01285140562086 150.41285140562331,16.861044176705967 150.72128514056237,17.65783132530123 150.92690763052173,18.4803212851405 151.00401606425558,18.968674698794896 150.9783132530134,19.53413654618314 150.77269076305038,20.09959839357321 149.87309236947908,21.821686746987424 149.35903614457703,22.618473895580863 148.94779116465833,23.05542168674542 148.09959839357504,23.749397590361003 145.29799196787053,25.8313253012041 145.118072289157,26.13975903614314 145.118072289157,26.293975903614488 145.19518072289085,26.473895582328016 145.7606425702809,26.885140562248566 146.7373493975897,27.347791164657128 147.43132530120528,27.57911646586232 148.27951807228857,27.759036144577674 152.28915662650707,28.170281124496398 153.29156626506168,28.144578313252392 154.9622489959824,27.99036144578287 156.14457831325421,28.067469879516718 157.3526104417682,28.273092369477904 158.45783132530252,28.71004016064246 160.43694779116592,29.866666666666607 161.15662650602368,30.20080321285148 162.10763052208665,30.45783132530068 164.1124497991959,30.791967871485557 167.5309236947785,31.97429718875371 168.25060240963992,32.33413654618442 168.81606425702634,32.771084337348974 169.02168674698933,33.05381526104401 169.3558232931742,33.824899598393436 169.6128514056216,34.10763052208847 169.99839357429812,34.33895582329184 171.02650602409494,34.621686746986875 171.28353413654597,34.775903614456396 171.61767068273085,35.26425702811262 172.20883534136675,35.881124497990704 172.44016064257195,36.29236947791125 172.6714859437735,36.960642570281 172.6714859437735,37.65461847389476 172.85140562249066,38.014457831325466 173.28835341365522,38.45140562249002 174.6248995983947,39.37670682730897 174.59919678714888,39.685140562248016 174.36787148594368,40.12208835341257 172.85140562249066,42.17831325301166 171.97751004016155,43.74618473895453 170.69236947791006,45.44257028112291 169.71566265060127,46.830522088352254 168.7646586345383,47.858634538152714 167.40240963855297,48.91244979919535 165.75742971887445,49.81204819277029 165.21767068273022,50.171887550201 164.5236947791146,50.942971887550435 163.98393574297037,51.94538152610323 163.64979919678552,52.40803212851362 163.2642570281126,52.793574297188336 162.8787148594361,53.050602409637534 159.4345381526113,54.74698795180592 156.60722891566095,55.51807228915535 156.19598393574222,55.749397590360545 155.9389558232912,56.10923694779125 155.75903614457766,56.54618473895581 155.70763052208966,57.06024096385421 155.83614457831152,57.49718875501877 156.06746987951672,57.80562248995963 156.35020080321357,57.98554216867316 159.02329317268894,59.32208835341266 159.76867469879616,59.938955823292574 160.4626506024081,60.787148594377676 160.71967871485913,61.30120481927608 160.89959839357266,61.94377510040182 160.89959839357266,62.766265060241096 160.79678714859298,63.71726907630405 160.56546184738778,64.41124497991963 160.2313253012029,64.97670682730788 159.61445783132484,65.69638554216746 158.63775100401602,66.59598393574241 158.04658634538012,67.0843373493968 157.45542168674788,67.44417670682752 156.96706827309166,67.62409638554105 155.9389558232912,67.90682730923608 155.63052208835217,68.08674698795143 155.4248995983928,68.31807228915663 155.24497991967928,68.67791164658551 155.16787148594543,69.1405622489959 155.16787148594543,70.09156626505886 155.1421686746996,70.29718875502004 154.88514056224855,70.47710843373358 154.2682730923705,70.45140562248956 154.0883534136533,70.55421686746925 154.11405622489914,71.35100401606451 154.01124497991944,71.89076305220874 153.72851405622623,72.63614457831234 153.16305220883618,73.7927710843365 152.57188755020027,76.13172690763062 152.21204819276957,76.9799196787139 151.13253012048108,78.80481927710778 150.72128514056237,79.65301204819289 150.48995983935717,80.37269076305249 150.36144578313167,81.14377510040191 150.46425702811135,81.99196787148519 150.9012048192759,83.61124497991973 151.10682730923526,86.00160642570187 151.9036144578305,88.03212851405512 152.49477911646642,89.83132530120501 152.7518072289138,91.11646586345285 152.95742971887682,92.76144578313139 153.16305220883618,93.48112449799098 153.77991967871426,94.99759036144583 154.01124497991944,96.38554216867517 154.29397590361265,97.07951807228893 154.98795180722826,98.26184738955708 155.06506024096208,98.67309236947763 154.98795180722826,99.44417670682707 155.01365461847408,99.85542168674579 155.913253012049,101.91164658634487 156.06746987951672,102.34859437750943 156.06746987951672,102.78554216867398 155.8875502008032,103.22248995983854 155.5534136546183,103.6337349397591 154.78232931726888,104.19919678714733 154.49959839357567,104.48192771084237 154.396787148596,104.81606425702724 154.47389558232985,105.07309236947827 154.88514056224855,105.43293172690716 155.45060240963863,105.66425702811235 156.4016064257016,105.97269076305139 158.8433734939754,106.53815261044146 159.30602409638578,106.92369477911618 159.92289156626387,107.18072289156538 161.07951807228983,107.41204819277057 163.08433734939908,107.4377510040164 164.31807228915525,107.59196787148592 165.65461847389477,108.00321285140464 167.5309236947785,108.85140562248975 168.48192771084146,109.39116465863398 169.07309236947737,109.95662650602405 169.99839357429812,111.19036144578205 171.33493975903764,112.7068273092369 171.591967871485,113.24658634538113 171.56626506023917,113.65783132530169 171.33493975903764,114.09477911646624 170.89799196787308,114.5574297188748 170.12690763052365,115.22570281124456 169.92128514056063,115.45702811244975 169.7413654618471,116.27951807228902 169.40722891566224,117.05060240963846 169.2530120481909,117.79598393574204 169.12449799196904,118.05301204819308 168.91887550200966,118.31004016064227 168.27630522088208,118.64417670682715 166.63132530120356,119.18393574297139 165.3461847389557,120.0321285140565 164.1895582329334,120.6746987951804 163.2385542168668,121.29156626506033 161.85060240963927,121.8570281124504 161.59357429718824,122.06265060240975 161.56787148594242,122.16546184738942 161.6449799196799,122.26827309236911 161.9791164658648,122.37108433734879 164.90923694779116,122.5253012048183 165.70602409638641,122.628112449798 166.47710843373585,122.85943775100318 167.45381526104464,123.27068273092374 168.14779116466022,123.7076305220883 168.48192771084146,124.09317269076301 168.53333333333313,124.47871485943772 168.27630522088208,124.91566265060227 167.32530120481914,125.96947791164675 166.52851405622388,127.46024096385577 165.39759036144739,128.9510040160648 165.19196787148437,129.4650602409632 165.0634538152625,130.441767068272 164.8578313252995,130.9301204819282 164.5236947791146,131.31566265060292 163.57269076305167,132.1638554216862 163.08433734939908,132.80642570281012 162.59598393574288,133.80883534136473 162.3903614457835,134.68273092369384 162.21044176706633,134.99116465863472 160.84819277108465,136.27630522088256 159.61445783132484,136.86746987951844 159.10040160642643,137.20160642570332 158.63775100401602,137.8184738955814 157.94377510040044,138.3839357429715 157.63534136546141,139.2321285140566 157.3783132530104,139.6433734939753 156.27309236947607,140.51726907630442 155.96465863453705,140.8514056224893 155.7847389558235,141.49397590361502 155.7847389558235,141.7253012048184 155.83614457831152,141.90522088353376 156.06746987951672,142.0851405622491 157.3783132530104,142.72771084337302 157.60963855421556,143.0361445783139 157.66104417670724,143.39598393574278 157.55823293172756,143.75582329317166 157.32690763052236,144.08995983935654 156.19598393574222,144.9124497991958 155.86184738955737,145.27228915662653 155.68192771084384,145.55502008032155 155.63052208835217,145.83775100401658 155.70763052208966,146.24899598393532 156.19598393574222,147.17429718875425 157.3526104417682,148.45943775100392 157.86666666666662,149.61606425702806 158.14939759035983,150.1301204819283 159.15180722891444,151.23534136546078 159.92289156626387,152.31485943775107 160.7710843373508,153.18875502008018 161.15662650602368,153.7028112449804 161.49076305220856,154.34538152610432 161.6192771084341,154.6795180722892 161.6192771084341,154.96224899598423 161.46506024096274,155.5534136546183 161.51646586345439,155.8875502008032 162.59598393574288,157.04417670682733 163.11004016064126,157.7381526104411 163.2385542168668,158.02088353413612 163.16144578313293,158.25220883534132 162.82730923694805,158.45783132530067 162.69879518072256,158.63775100401602 162.80160642570223,159.40883534136546 162.59598393574288,159.87148594377587 162.00481927710698,160.33413654618442 160.59116465863363,161.10522088353386 160.1799196787149,161.49076305220856 159.8200803212842,161.97911646586297 159.61445783132484,162.4931726907632 159.588755020079,163.57269076305167 159.4602409638535,164.13815261044172 159.2032128514061,164.4979919678706 158.45783132530252,165.0891566265065 158.329317269077,165.26907630522004 158.380722891565,165.4232931726914 158.76626506024155,165.86024096385594 158.74056224899573,166.24578313253068 158.5606425702822,166.5285140562257 157.99518072289212,166.96546184739026 157.89236947791244,167.11967871485976 158.02088353413797,167.2995983935733 158.5606425702822,167.47951807228864 159.38313253011964,167.5309236947785 160.10281124498104,167.99357429718887 160.56546184738778,168.43052208835343 161.31084337349503,169.3815261044182 161.6706827309221,169.86987951807262 161.85060240963927,170.2297188755015 161.87630522088511,170.48674698795253 161.82489959839344,170.74377510040173 161.10522088353568,171.46345381526132 160.95100401606433,171.7975903614462 161.0281124497982,172.4401606425701 161.46506024096274,173.67389558232992 160.92530120481848,175.83293172690688 160.95100401606433,176.37269076305293 161.18232931726953,177.14377510040237 161.49076305220856,177.8120481927703 162.08192771084447,178.60883534136556 162.33895582329185,179.58554216867435 162.51887550200902,179.6369477911642 163.08433734939908,179.5084337349405 163.67550200803134,179.71405622489988 163.8811244979907,179.86827309236938 164.08674698795005,180.17670682730844 164.80642570281148,181.5903614457836 165.52610441766925,182.69558232931792 166.45140562249003,183.8008032128522 168.07068273092273,185.2658634538154 168.68755020080448,186.31967871485986 168.84176706827216,186.39678714859372 169.2273092369487,186.39678714859372 169.43293172690807,186.4995983935734 170.74377510040173,187.7333333333332 171.10361445783244,188.27309236947744 171.12931726907462,188.73574297188784 170.53815261044238,190.5092369477919 170.12690763052365,191.1518072289158 169.79277108433877,191.408835341365 168.61044176706696,192.0257028112449 168.27630522088208,192.3598393574298 167.71084337349566,193.18232931726908 167.40240963855297,193.51646586345393 166.14297188755097,194.51887550200857 164.8321285140573,195.289959839358 163.62409638554334,196.3951807228923 162.64738955823455,196.9092369477907 161.49076305220856,197.24337349397558 160.59116465863363,197.2947791164654 159.28032128513996,197.06345381526023 158.81767068272956,197.1405622489959 158.53493975903635,197.34618473895526 157.55823293172756,198.32289156626587 156.29879518072192,199.3253012048187 155.99036144578287,199.7108433734934 155.9389558232912,200.1991967871478 156.09317269076254,200.76465863453785 156.4787148594391,201.33012048192793 157.01847389558333,201.81847389558231 157.7381526104411,202.12690763052137 160.87389558233048,203.0008032128523 161.54216867470024,203.33493975903536 162.00481927710698,203.69477911646607 162.23614457831215,204.02891566265095 162.41606425702935,204.38875502007983 162.69879518072256,205.85381526104484 162.95582329317358,206.54779116465858 162.8787148594361,206.80481927710778 162.57028112449703,207.01044176706898 161.85060240963927,207.19036144578251 160.38554216867425,207.293172690764 159.588755020079,207.24176706827234 158.53493975903635,207.0618473895588 156.63293172690678,206.57349397590443 155.1421686746996,206.0594377510042 153.39437751004138,205.1084337349394 151.5437751003998,204.33734939758997 150.84979919678787,204.13172690763062 148.99919678714997,203.7461847389559 148.02248995983754,203.7461847389559 145.9919678714861,204.10602409638477 143.29317269076128,204.3630522088358 142.72771084337487,204.33734939758997 142.444979919678,204.2088353413663 142.2907630522103,203.95180722891527 142.2907630522103,202.87228915662678 142.1108433734931,202.25542168674687 141.77670682730823,201.7670682730925 141.41686746987753,201.5614457831331 141.03132530120465,202.4096385542164 139.92610441767033,204.41445783132565 139.0265060240954,206.9333333333333 138.89799196786987,207.4216867469877 138.84658634538187,207.8843373493981 139.00080321284958,208.83534136546288 139.28353413654642,209.32369477911726 140.10602409638386,210.27469879518023 140.8771084337333,211.3028112449807 141.93092369477958,212.35662650602333 142.65060240963734,212.87068273092356 144.91244979919765,214.05301204819352 145.58072289156738,214.54136546184793 145.9919678714861,214.95261044176664 146.4546184738965,215.69799196787207 146.84016064256937,216.59759036144519 147.17429718875425,218.26827309236955 147.2000000000001,218.9108433734935 147.68835341365266,219.2706827309242Z"/>
  </g>
</svg>