<?xml version="1.0" encoding="UTF-8" standalone="no"?>
<svg viewBox="0 0 256 197.84463812050123" xmlns="http://www.w3.org/2000/svg">
  <style>
    g.zone {
      fill: lightgray;
      stroke-width: 2;
      stroke-linecap: square;
      stroke-linejoin: bevel;
      stroke-miterlimit: 3;
      stroke-opacity: 0.8;
      stroke: black;
      fill-opacity: 0.3;
    }
  </style>
  <g class="zone" id="zone">
    <path d="M232.54869268662407,93.17468738158405 234.00378931413454,95.47859037514289 235.5558923834788,98.58279651383144 236.11367942402578,99.94088669950811 236.47745358090165,100.98370594922407 236.71996968548788,101.8810155361876 236.91398256915548,102.99658961727978 237.0109890109893,104.37893141341404 236.91398256915548,106.22205380826145 235.96816976127334,113.59454338764765 235.72565365668711,116.28647214854169 235.70140204623124,117.54755589238283 235.77415687760572,118.7601364153088 235.94391815081403,119.92421371731788 236.21068586585957,121.06403940886764 236.64721485410996,122.42212959454432 237.2050018946569,123.80447139067859 240.4789693065572,130.40090943539263 241.64304660856283,132.60780598711594 245.42629784009145,139.1557408109131 246.6388783630157,141.55665024630574 247.39067828723026,143.37552103069382 247.77870405456545,144.7336112163705 247.99696854869237,146.16445623342167 248.06972338006685,147.69230769230836 248.02122015915168,150.89352027283073 248.045471769611,152.27586206896498 248.19098143235996,153.68245547555856 248.4577491474055,154.8707843880252 248.94278135657453,156.47139067828812 249.59757483895527,158.04774535809 252.67752936718452,164.1106479727164 253.45358090185837,165.85676392573 254.01136794240188,167.3603637741574 254.5206517620302,169.0337248957948 254.95718075028404,171.11936339522498 255.39370973853786,173.83554376657833 255.7817355058731,176.8184918529755 256,179.51042061386954 255.95149677908483,181.62031072375905 255.8059871163324,182.5661235316412 255.56347101174617,183.56043956044027 255.27245168624475,184.4092459264869 254.90867752936887,185.23380068207592 254.01136794240188,186.6161424782119 253.35657446002458,187.41644562334164 252.5320197044321,188.26525198939 250.93141341417265,189.72034861690048 247.39067828723026,192.63054187192142 246.68738158393433,193.28533535430046 246.0810913224722,193.9643804471388 245.47480106100662,194.88594164456336 245.1595301250459,195.6619931792355 244.98976885183762,196.58355437665836 244.94126563092243,197.62637362637432 242.29784009094357,197.57787040545742 239.79992421371713,197.84463812050123 239.193633952255,197.7476316786657 238.41758241758114,197.4566123531643 237.5202728306176,196.99583175445287 236.841227737781,196.58355437665836 235.0466085638505,195.05570291777167 234.68283440697115,194.61917392951955 234.36756347101044,194.03713527851502 234.19780219780213,193.60060629026117 234.0522925350497,192.72754831375525 233.9552860932159,192.4607805987114 233.7612732095483,192.2182644941269 233.4702538840469,192 232.7912087912103,191.8544903372493 231.11784766957288,191.8059871163324 228.3531640773009,191.02993558166025 227.72262220537948,190.69041303524023 226.87381583933458,190.132625994695 225.95225464191174,189.13830996589596 225.44297082227996,188.77453580901832 224.5214096248571,188.5077680939745 222.41151951496934,188.33800682076622 221.8537324744224,188.2167487684731 221.46570670708718,187.9984842743462 220.4956422887457,187.29518757105026 219.54982948086356,186.88291019325573 218.4827586206883,186.68889730958642 216.71239105722054,186.7131489200457 216.1788556271329,186.68889730958642 215.79082985979426,186.5918908677526 215.28154604016592,186.2523683213343 213.89920424403337,184.79727169382383 213.14740431981883,183.63319439181475 212.63812050019052,183.05115574081194 212.1288366805622,182.663129973475 211.40128836680694,182.3236074270567 210.69799166350757,182.10534293292977 210.09170140204546,181.98408488063666 209.60666919287644,181.95983327017908 209.0488821523295,182.03258810155356 208.17582417582528,182.3963622584312 206.40545661235407,183.51193633952337 206.04168245547473,183.09965896172884 205.65365668813953,182.4691170898074 205.43539219401262,181.79007199696906 205.28988253126363,180.4562334217517 205.12012125805188,180.04395604395546 204.7320954907167,179.55892383478644 204.19856006062903,179.1708980674495 203.3497536945807,178.78287230011432 202.7919666540372,178.61311102690428 201.72489579386192,178.44334975369426 201.26411519514878,178.27358848048598 200.73057976506115,177.88556271314906 200.29405077681076,177.40053050397833 200.14854111405833,176.9882531261838 200.12428950359902,176.43046608563859 200.34255399772593,175.75142099280023 200.9245926487322,174.80560818491807 200.97309586964738,174.538840469876 200.85183781735427,174.34482758620666 200.34255399772593,174.12656309207975 199.2512315270948,173.85979537703764 197.3353543008712,173.78704054566143 196.72906403940905,173.69003410382763 196.34103827207383,173.3990147783245 195.83175445244552,172.62296324365235 195.3952254641917,172.35619552861027 195.00719969685647,172.23493747631716 194.32815460401642,172.18643425540026 192.48503220917073,172.45320197044407 191.97574838954242,172.35619552861027 191.32095490716165,172.08942781356646 190.90867752936714,171.87116331943955 190.0356195528595,171.289124668435 189.6960970064429,170.97385373247428 189.47783251231598,170.53732474422216 189.28381962864836,169.10647972716927 188.92004547176901,167.7968927624095 188.72603258810142,167.3603637741574 188.1439939370986,166.41455096627524 187.87722622205308,165.85676392573 187.6347101174703,165.15346722243237 187.41644562334338,163.94088669950813 187.19818112921647,163.35884804850357 186.95566502463024,162.94657067070906 186.6403940886695,162.60704812428904 185.57332322849425,161.8309965896169 184.67601364153072,160.83668056081783 184.2879878741955,160.23039029935572 184.1909814323617,159.9636225843119 184.14247821144306,159.57559681697668 184.36074270556998,158.89655172413833 184.67601364153072,158.43577112542692 185.01553618795074,158.0962485790069 186.0341038272074,157.36870026525165 186.6161424782102,157.19893899204337 188.87154225085385,157.02917771883335 189.62334217506495,156.85941644562334 190.2053808260712,156.56839712012192 190.44789693065744,156.32588101553569 190.73891625615886,155.7923455854498 191.24820007578717,154.3372489579393 192.09700644183553,153.14892004547264 192.3395225464183,152.6881394467595 192.43652898825212,152.27586206896498 192.4607805987114,151.83933308071286 192.3637741568776,151.16028798787454 192.0485032209169,150.09321712769926 192.12125805229138,148.5896172792719 192.00000000000173,146.9162561576362 192.09700644183553,146.5039787798417 192.48503220917073,145.60666919287644 192.58203865100452,145.2671466464564 192.55778704054524,144.46684350132668 192.2667677150438,143.3512694202345 192.2425161045845,143.0602500947331 192.3395225464183,142.57521788556238 192.72754831375696,141.62940507768192 192.94581280788043,140.7805987116336 192.99431602879906,140.12580522925285 192.75179992421283,138.52519893899165 192.82455475559075,138.08866995073956 193.21258052292598,137.16710875331498 193.18832891246666,136.43956043956146 192.89730958696526,135.42099280030308 191.7574838954155,134.0143993937095 191.51496779082927,133.5536187949981 191.41796134899548,133.16559302766288 191.44221295945476,132.72906403940905 191.56347101174788,132.38954149299076 191.7574838954155,132.14702538840453 190.22963243653052,130.71618037135335 189.84160666919186,130.40090943539263 189.04130352406213,129.9158772262219 187.05267146646403,128.84880636604836 183.94846532777547,127.34520651762098 183.14816218264573,127.05418719211785 182.3963622584312,126.88442591890956 181.69306555513526,126.81167108753334 181.13527851458832,126.83592269799266 180.60174308450067,126.98143236074336 179.97120121257925,127.32095490716166 179.70443349753714,127.63622584312238 179.60742705570334,128 179.58317544524402,129.26108374384287 179.51042061386954,129.67336112163738 179.3406593406578,130.1098901098895 178.97688518378192,130.59492231906023 178.37059492231978,131.17696097006478 177.61879499810524,131.6619931792355 176.13944676013546,132.43804471390766 175.29064039409053,132.70481242894974 174.4418340280422,132.70481242894974 172.01667298219024,132.14702538840453 170.48882152330526,132.02576733611312 168.88821523304236,131.7589996210693 166.29329291398213,131.41947707464928 165.46873815839308,131.20121258052237 164.66843501326335,130.74043198181093 164.15915119363504,130.57067070860265 163.11633194391908,130.35240621447574 161.68548692686792,130.20689655172504 159.5028419856022,130.20689655172504 158.3872679045083,130.32815460401642 157.05342932929094,130.52216748768402 156.2288745737019,130.54641909814333 155.35581659719767,130.44941265630953 154.50701023114934,130.23114816218262 153.70670708601614,130.1098901098895 150.6510041682462,129.8916256157643 149.65668813944544,129.8916256157643 148.395604395606,130.13414172034882 146.23721106479616,130.88594164456165 145.77643046608645,131.07995452823099 143.30276619931934,132.41379310344834 141.8719211822647,133.57787040545742 141.48389541492952,134.03865100416883 141.3141341417212,134.35392194012954 141.1443728685095,134.88745737021546 140.85335354300807,136.60932171276974 140.44107616521356,137.6521409624857 140.34406972337976,138.06441834028024 140.46532777567288,138.71921182266098 141.0958696475943,139.95604395604454 141.1443728685095,140.19856006062903 141.12012125805362,140.39257294429666 140.95035998484187,140.586585827966 140.29556650246457,140.9018567639267 139.7135278514583,141.3383857521788 138.96172792724377,142.30845017051854 138.54945054944923,142.62372110647928 137.87040545661262,142.8419856006062 135.2027283061779,143.27851458886002 134.49943160287853,143.4482758620683 132.99583175445287,144.17582417582355 132.02576733611141,144.49109511178426 131.3467222432748,144.61235316407738 129.8431223948457,144.70935960591117 129.11557408109044,144.8548692686619 128.48503220916902,145.1216369837057 127.87874194770689,145.48541114058332 126.95718075028404,146.4312239484655 126.35089048882192,146.8192497158024 125.50208412277357,147.0617658203869 123.9742326638886,147.32853353543072 122.17961348995809,148.03183023872666 120.19098143235998,148.41985600606358 119.07540735126953,148.8078817733988 116.65024630541758,149.48692686623713 115.72868510799474,149.92345585449098 113.98256915498285,151.20879120879144 113.03675634710069,151.64532019704527 112.11519514967786,151.88783630162976 110.46608563849978,152.0333459643805 108.9139825691555,152.5668813944681 107.67715043577194,152.8093974990526 106.58582796513736,153.22167487684715 105.05797650625239,154.02197802197858 104.69420234937648,154.16748768472928 103.19060250094738,154.31299734748 101.78400909435553,154.72527472527452 100.37741568776023,154.94353921940143 99.98938992042503,155.06479727169454 99.62561576354568,155.30731337627904 99.26184160666978,155.7438423645329 98.24327396741313,157.56271314892098 95.79386131110188,160.78817733990093 95.33308071239217,161.07919666540406 93.90223569533757,161.51572565365618 93.58696475937685,161.7339901477831 93.36870026525338,161.95225464191 93.22319060250095,162.3160287987876 93.17468738158233,162.80106100795837 93.22319060250095,163.45585449033737 93.41720348616856,164.32891246684332 93.39295187570924,164.42591890867712 91.96210685865807,163.7226222053812 90.65251989390002,163.31034482758668 89.10041682455575,163.11633194391908 87.57256536566733,163.21333838575288 86.04471390678236,163.5528609321712 84.68662372110569,164.0621447517995 83.47404319818143,164.71693823418025 80.46684350132668,166.53580901856836 79.49677908298521,166.97233800682048 78.47821144372857,167.3118605532405 77.09586964759258,167.57862826828432 75.95604395604282,167.6513830996588 74.52519893899165,167.53012504736742 73.09435392194048,167.1906025009474 72.05153467222453,166.82682834406975 70.54793482379543,166.17203486169075 69.286851079956,165.5414929897693 67.15270935960547,164.32891246684332 65.77036756346948,163.4801061007967 63.56347101174789,161.97650625236932 61.67184539598358,160.54566123531643 60.55627131489313,159.59984842743427 59.343690791965436,158.43577112542692 58.1553618795005,157.12618416066715 54.3236074270567,152.13035240621429 50.05532398635907,147.01326259947 48.50322091701479,145.38840469874953 47.29064039408709,144.44259189086736 46.15081470253733,143.71504357711214 45.03524062144688,143.2057597574838 43.725653656688834,142.7934823796893 42.270557029178356,142.55096627510477 41.00947328533548,142.47821144372855 39.43311860553189,142.59946949602167 38.14778325123315,142.9147404319824 36.886699507390276,143.42402425161072 35.33459643804599,141.1928760894281 34.970822281166654,140.8291019325505 32.90943539219405,139.3012504736638 31.6968548692698,138.79196665403546 31.260325881015966,138.52519893899165 30.62978400909453,137.91890867752952 30.096248579006893,137.11860553239808 29.926487305798602,136.56081849185284 29.974990526713782,135.97877984084832 30.120500189466206,135.42099280030308 30.775293671846956,133.6991284577488 30.896551724136625,133.16559302766288 30.920803334595934,132.0500189465707 30.70253884046902,130.35240621447574 30.72679045092833,129.98863205759812 30.848048503221445,129.8188707843881 31.13906782872285,129.8431223948474 32.93368700265336,130.54641909814333 33.68548692686446,130.69192876089403 35.795377036755696,130.74043198181093 41.64001515725692,131.03145130731406 43.04660856384877,130.98294808639716 43.99242137173093,130.78893520272783 44.331943918150955,130.61917392951955 44.622963243652364,130.35240621447574 44.84122773777928,130.0128836680557 45.08374384236551,129.4308450170529 45.37476316786692,128.2425161045845 45.447517999241406,127.32095490716166 45.37476316786692,126.64190981432333 45.20500189465862,126.1811292156119 44.96248579007239,125.7931034482767 44.45320197044407,125.18681318681284 42.73133762788805,123.70746494884477 40.59719590754096,122.22811671087499 39.31186055323877,121.54907161803665 37.15346722243237,120.74876847290692 36.37741568776195,120.31223948465309 35.94088669950812,119.92421371731788 35.55286093217291,119.39067828723024 35.26184160666806,118.66312997347501 35.09208033345977,117.98408488063667 35.11633194391908,117.01402046229693 35.35884804850186,115.87419477074717 35.843880257674314,114.8556271314888 36.49867374005162,114.03107237589975 37.71125426297932,112.8427434634331 39.166350890489795,111.67866616142575 40.18491852974644,111.0723758999619 41.93103448275832,110.27207275483217 43.14361500568258,109.47176960970071 43.67715043577021,108.98673740052999 44.089427813564726,108.52595680181857 44.259189086776466,108.23493747631716 44.35619552861027,107.94391815081403 44.28344069723233,107.67715043577194 44.01667298219024,107.36187949981121 42.65858279651356,106.19780219780215 40.59719590754096,104.18491852974644 39.020841227737364,102.94808639636288 38.56006062902767,102.53580901856836 37.3959833270186,101.00795755968167 37.032209170139254,100.32891246684333 36.886699507390276,99.94088669950811 36.91095111784614,99.6256157635474 37.15346722243237,99.40735126942049 37.808260704813115,99.16483516483598 39.3603637741574,98.77680939749905 40.23342175066162,98.48579007199764 40.64569912845614,98.26752557787073 40.79120879120856,98.09776430466071 40.93671845396099,97.73399014778309 40.912466843501676,97.39446760136478 40.52444107616647,96.64266767715023 40.354679802954735,96.15763546798122 40.40318302387335,94.77529367184523 40.354679802954735,94.50852595680142 40.20917014020575,94.21750663130001 39.9181508147009,93.87798408487998 39.43311860553189,93.48995831754478 37.90526714664692,93.02917771883335 37.56574460022689,92.83516483516574 37.29897688518479,92.59264873057951 37.007957559679944,92.1076165214105 36.76544145509716,91.06479727169454 36.57142857142956,90.48275862069 36.30466085638402,90.0704812428955 35.746873815840516,89.46419098143164 35.577112542628775,89.07616521409643 35.6256157635474,88.85790071996952 35.77112542629638,88.61538461538501 36.59568018188542,87.79082985979598 37.007957559679944,87.18453959833212 37.201970443350994,86.6752557787038 37.37173171655928,85.60818491853026 37.56574460022689,85.09890109890193 38.19628647214832,83.93482379689286 39.28760894278291,82.47972716938239 39.33611216369808,82.16445623342166 39.263357332323594,81.75217885562715 39.09359605911186,81.26714664645641 38.82682834406976,80.70935960591119 38.48730579764973,80.53959833270117 38.099280030314524,80.12732095490665 36.91095111784614,78.16294050776784 35.91663508904881,77.1201212580519 35.28609321712737,76.56233421750667 33.37021599090719,75.47101174687381 32.03637741568638,74.47669571807475 30.62978400909453,73.6036377415688 30.071996968547584,73.43387646835879 28.883668056082644,73.31261841606741 28.156119742327405,73.1428571428574 25.827965138309263,72.22129594543455 26.579765062523816,71.78476695718071 28.253126184161207,70.49943160288025 28.68965517241504,70.03865100416883 29.05342932929094,69.35960591133049 29.10193255020956,69.02008336491046 28.980674497916446,68.53505115574146 28.665403561955728,68.09852216748762 27.50132625994666,66.88594164456164 27.161803713526627,66.23114816218262 27.016294050777645,65.64910951117808 26.94353921939971,64.94581280788215 26.919287608943844,63.830238726789986 26.967790829859023,63.17544524441096 27.113300492611447,62.52065176203193 27.54982948086528,61.42932929139907 28.01061007957498,60.62902614626762 28.907919666541957,59.27093596059095 29.00492610837576,58.88291019325574 29.05342932929094,58.05835543766497 29.247442212958543,57.573323228495966 30.047745358091717,56.09397499052617 30.338764683593123,55.633194391814754 30.751042061387643,55.293671845396446 31.236074270556653,55.075407351269526 30.775293671846956,54.6873815839326 29.635467980297197,53.959833270177356 27.71959075407357,52.57749147404309 26.385752178856208,51.098143236075025 25.536945812807858,50.41909814323669 24.785145888593306,50.12807881773356 24.009094353922887,50.031072375899754 23.35430087154214,50.07957559681665 22.262978400911003,50.29784009094357 21.632436528989565,50.27358848048426 20.58961727927361,50.07957559681665 19.619552860932142,49.74005305039835 19.11026904130382,49.47328533535453 18.600985221675497,49.0367563471007 17.267146646458134,47.60591133004953 15.763546798029031,46.19931792345596 15.27851458886002,45.54452444107693 14.575217885564093,44.11367942402404 14.235695339144062,43.5801439939364 13.87192118226472,43.216369837058785 13.095869647594302,42.68283440697287 11.495263357331398,41.2762410003793 11.131489200455501,40.83971201212547 10.234179613488525,39.43311860553189 8.973095869649097,38.075028419855215 7.93027661993314,36.20765441455021 6.547934823797151,34.21902235695382 4.098522167485894,31.72110647972739 2.4979158772264354,30.193255020840695 0,28.131868131868092 0.24251610458622846,26.676771504357617 0.630541871921437,23.596816976126643 0.8488063660483532,22.6267525577869 1.1883289124683838,21.365668813944026 2.061386888972603,19.086017430844507 2.885941644561644,17.339901477832623 5.86888973095709,11.956043956044542 7.687760515346911,8.463812050019051 8.318302387268348,7.372489579386192 9.191360363772567,6.1356574460026305 10.331186055322327,4.850322091702168 11.471011746872087,3.8317544524437994 12.926108374382563,2.764683592270253 13.79916635089023,2.206896551723306 14.744979158772384,1.7461159530118844 15.739295187569718,1.3095869647597749 17.048882152331217,0.8973095869652543 18.14020462296235,0.6062902614621248 19.546798029557653,0.3395225464183074 22.165971959073755,0.048503220916901055 23.645320197043546,0 25.027661993179535,0 27.816597195907377,0.2425161045845053 30.266009852215188,0.6547934823790259 33.006441834027854,1.358090185676676 35.67411898446258,2.231148162182618 38.85107995452908,3.443728685108591 46.854111405836704,7.0329670329661615 52.09245926487236,9.215611974231878 63.36945812808029,13.459643804471922 66.95869647593786,15.035998484273792 68.36528988252971,15.763546798029031 69.91739295187399,16.685107995453595 71.39674118984378,17.63092080333403 73.09435392194048,18.81924971580069 75.61652140962623,20.759378552481902 78.47821144372857,23.208791208791435 82.23721106479788,26.652519893900028 83.2315270935952,27.47707464948907 84.03183023872839,28.03486169003429 84.66237211064637,28.398635846911912 85.38992042440161,28.71390678287263 85.85070102311477,28.835164835164022 85.70519136036233,30.411519514967612 85.53543008715404,31.187571049639754 85.53543008715404,31.357332322849768 85.65668813944716,31.575596816976685 86.04471390678236,31.890867752937403 87.1602879878728,32.618416066692646 87.37855248199973,32.88518378173474 87.66957180750113,33.41871921182237 88.39712012125638,33.7582417582424 89.19742326638955,34.34028040924522 89.70670708601787,34.87381583933285 90.2159909056462,35.5771125426305 90.89503599848281,36.20765441455021 92.39863584691192,37.32322849564238 93.75672603258859,38.099280030314524 94.04774535809,38.31754452444144 95.57559681697497,39.72413793103502 97.00644183402957,41.227737779462394 97.73399014778481,41.85827965138383 100.18340280409262,43.507389162561914 100.61993179234646,43.87116331943954 101.3474801061017,44.647214854111674 101.9052671466452,45.49602122016003 102.48730579765146,47.04812428950431 102.89958317544598,47.92118226601025 103.57862826828259,49.59454338764765 103.7726411519502,49.934065934065956 104.06366047745504,50.22508525956736 105.1792345585455,50.87987874194811 106.63433118605597,51.946949602121656 107.19211822659948,52.48048503220929 108.16218264494094,53.62031072375905 108.74422129594376,53.91133004926046 110.05380826070525,54.178097764304276 110.708601743086,54.39636225843119 113.59454338764765,55.75445244410786 115.55892383478644,56.40924592648689 116.82000757862932,57.03978779840833 117.28078817733902,57.20954907161834 118.178097764306,57.355058734369045 121.47631678666217,57.45206517620285 124.67752936718452,57.74308450170598 125.91436150056809,57.597574838953555 126.47214854111503,57.45206517620285 126.98143236074336,57.25805229253525 127.514967790831,56.82152330428141 127.66047745357997,56.5790071996969 127.70898067449859,56.36074270556999 127.56347101174617,55.87571049640098 127.24820007578545,55.414929897687834 126.49640015157435,54.4206138688905 125.38082607048045,53.28078817734074 125.11405835543836,52.868510799544495 124.99280030314524,52.5532398635855 125.01705191360455,52.213717317165475 125.16256157635354,51.946949602121656 125.98711633194257,51.19514967790883 126.78741947707574,50.07957559681665 127.53921940128686,48.74573702159929 127.75748389541377,48.018188707844054 127.75748389541377,47.727169382342645 127.63622584312411,47.2663887836295 127.36945812807856,46.80560818491808 126.98143236074336,46.44183402804046 125.9386131110274,45.85979537703592 125.28381962864665,45.399014778324506 124.99280030314524,45.03524062144688 124.84729064039281,44.622963243652364 124.87154225085213,44.42895035998476 124.96854869268593,44.06517620310714 125.7688518378191,42.44031830238664 126.08412277377637,41.88253126184142 126.73891625615713,40.985221674876165 126.93292913982474,40.378931413414044 126.93292913982474,39.96665403561952 126.88442591890956,39.74838954149261 126.66616142478263,39.38461538461499 125.79310344827498,38.31754452444144 125.72034861690048,38.099280030314524 125.79310344827498,37.85676392573002 126.10837438423569,37.3959833270186 126.42364532019641,37.15346722243237 128.1940128836676,36.32891246684333 130.08563849943192,35.6741189844643 131.6377415687762,35.35884804850358 133.2868510799543,34.87381583933285 133.65062523683363,34.80106100795836 134.28116710875506,34.82531261841595 135.2997347480117,35.09208033345977 137.1428571428574,35.94088669950812 138.67070860174235,36.910951117847866 140.95035998484187,37.71125426297759 141.4596438044702,38.02652519893831 141.82341796134955,38.34179613489903 142.72072754831308,39.43311860553189 143.0602500947331,39.990905646078836 143.30276619931934,40.64569912845786 143.3512694202345,41.251989389919984 143.2542629784007,41.71276998863141 143.01174687381447,42.294808639635946 142.7449791587724,42.70708601743046 142.38120500189305,43.04660856385049 141.33838575218053,43.84691170898022 140.56233421750667,44.71996968548616 140.36832133383908,45.1079954528231 140.34406972337976,45.27775672603311 140.44107616521356,45.56877605153452 140.61083743842528,45.714285714285225 141.02311481621982,45.787040545661434 141.556650246304,45.714285714285225 143.20575975748554,45.27775672603311 144.15157256536423,45.132247063282406 145.84918529746093,45.132247063282406 149.92345585449098,44.71996968548616 150.7237589996207,44.69571807502858 151.42705570291662,44.76847290640479 152.27586206896498,45.01098901098929 153.60970064418234,45.95680181887145 155.7438423645329,47.023872679045 156.56839712012192,47.727169382342645 157.51420992800408,48.76998863205688 159.01780977642974,47.969685486927155 159.72110647972568,47.702917771883335 160.32739674119122,47.678666161424026 161.80674497915757,47.969685486927155 162.53429329291282,47.993937097384745 163.06782872300045,47.89693065555094 163.84388025767433,47.36339522546503 164.1834028040909,47.29064039408881 164.59568018188887,47.33914361500572 165.3959833270186,47.53315649867332 166.70557029177664,47.993937097384745 167.06934444865598,48.042440318301644 167.38461538461672,48.018188707844054 167.89389920424503,47.84842743463404 168.57294429708165,47.50890488821573 169.5187571049638,46.80560818491808 169.83402804092452,46.46608563849977 170.05229253505144,45.98105342932904 170.12504736642592,45.447517999241406 170.12504736642592,44.550208412277875 170.27055702917835,43.96816976127334 170.63433118605425,43.458885941645015 171.58014399393642,42.68283440697287 172.18643425539852,42.003789314134536 172.50170519135924,41.34899583175379 172.91398256915377,40.015157256536426 173.42326638878208,39.04509283819668 173.641530882909,38.41455096627524 173.73853732474282,37.08071239105788 173.73853732474282,35.35884804850358 174.00530503978834,33.515725653656176 174.29632436528976,32.472906403940215 174.41758241758288,31.527093596059785 174.36907919666425,31.30882910193287 174.22356953391528,31.04206138688905 173.30200833649243,30.144751799923796 172.9382341796131,29.635467980295473 172.7927245168641,29.101932550207838 172.81697612731998,28.71390678287263 172.9382341796131,28.228874573701898 173.27775672603312,27.59833270178046 174.9511178476705,26.143236074269982 176.13944676013546,24.688139446759504 176.47896930655548,24.08184918529738 176.64873057976376,23.49981053429284 176.30920803334718,21.22015915119332 176.09094353922026,20.6623721106481 175.89693065555267,20.492610837438082 174.68435013262496,19.93482379689286 173.7627889352021,19.23152709359521 172.57446002273718,18.45547555892307 171.3861311102688,17.485411140583327 171.3861311102688,15.909056460779734 171.4831375521026,15.205759757483806 171.58014399393642,14.8662372110655 171.774156877604,14.50246305418788 172.18643425539852,14.13868889731026 172.59871163319306,14.017430845017145 173.3505115574076,13.993179234557834 174.12656309208145,14.090185676393359 175.3148920045464,14.381205001894765 176.74573702159756,14.793482379689285 177.03675634710243,14.93899204243999 177.66729821902385,15.448275862068312 178.22508525956735,15.763546798029031 178.7343690791957,16.00606290261526 179.48616900341023,16.224327396740453 180.2379689276248,16.272830617657352 181.47480106100835,16.12732095490665 182.00833649109597,16.224327396740453 182.5903751420988,16.41834028040978 184.4334975369445,17.194391815081918 185.03978779841006,17.509662751042637 187.78021978021926,19.59530125047283 188.36225843122554,19.98332701780976 189.64759378552426,20.613868889731197 190.88442591890782,21.050397877983308 192.4607805987114,21.365668813944026 194.2068965517233,21.511178476696454 195.90450928382,21.753694581280957 197.7476316786657,21.85070102311476 200.3183023872666,21.82644941265545 201.1913603637743,21.923455854490975 199.6877605153452,25.148920045470923 196.53505115574146,31.236074270556653 195.8560060629014,32.81242895036025 195.37097385373238,34.19477074649451 194.95869647593787,35.94088669950812 194.86169003410404,36.78969306555475 194.83743842364476,37.61424782114379 194.88594164456336,38.48730579765146 195.00719969685647,39.28760894278118 195.22546419097995,40.039408866995736 195.54073512694066,40.88821523304237 195.9530125047352,41.73702159909072 196.58355437665662,42.73133762788978 197.3596059113305,43.77415687760573 199.37248957938792,46.22356953391355 200.0030314513059,47.145130731338114 200.39105721864456,47.92118226601025 200.68207654414596,48.624478969306175 200.90034103827287,49.37627889352073 201.6036377415688,53.25653656688143 201.91890867752952,54.541871921181894 202.28268283440886,55.681697612731654 202.7919666540372,57.01553618795074 203.42250852595862,58.3493747631681 204.02879878742075,59.48920045471786 204.8533535430098,60.750284198560735 206.67222432739618,63.07843880257715 209.0003789314143,65.6733611216374 210.4554755589248,67.05570291777165 214.26297840090928,70.18416066691954 215.28154604016592,71.20272830617618 216.0333459643805,72.12428950360075 216.90640394088814,73.5793861311095 217.92497158014478,75.95604395604454 219.16180371352834,77.89617279272403 219.71959075407528,78.9147404319824 220.81091322470644,81.50966275104264 221.75672603258857,83.42553997726453 222.4357711254252,84.6138688897312 223.11481621826528,85.51117847669646 224.27889352027432,86.79651383099691 224.86093217127714,87.33004926108455 227.89238347859123,88.97915877226264 228.86244789692924,89.60970064418407 229.78400909435553,90.28874573702241 231.0935960591136,91.47707464948907 231.82114437286882,92.2531261841612 232.54869268662407,93.17468738158405Z"/>
  </g>
</svg>