<?xml version="1.0" encoding="UTF-8" standalone="no"?>
<svg viewBox="0 0 256 144.45615922538474" xmlns="http://www.w3.org/2000/svg">
  <style>
    g.zone {
      fill: lightgray;
      stroke-width: 2;
      stroke-linecap: square;
      stroke-linejoin: bevel;
      stroke-miterlimit: 3;
      stroke-opacity: 0.8;
      stroke: black;
      fill-opacity: 0.3;
    }
  </style>
  <g class="zone" id="zone">
    <path d="M208.62829478214792,57.88344988344591 209.133225748608,61.50977227899871 220.14990138066844,70.50672404518292 224.51066881836013,77.57575757575461 243.37672583826298,98.69105253720271 244.52429621660153,100.34355388201112 243.1472117626005,106.40272547964632 247.14075667922435,110.02904787519911 249.89492558722642,115.6291913214963 256,119.6227362381169 255.9540971848649,121.9637798099291 243.3308230231279,125.49829657521494 243.0554061323303,127.51802044109442 234.6092881477445,132.79684418145564 226.66810112964495,142.52824098977547 215.6973283127196,144.45615922538474 161.0270754886203,140.27900304823024 144.96109019186767,143.90532544378303 140.78393401470336,142.84956069571143 138.9478214093643,140.09539178769631 137.84615384616086,132.2001075847188 139.8658777120273,114.7570378339586 134.81656804733512,111.54384077460547 118.65877712031227,107.27487896718401 98.8746637977464,98.41563564640185 84.96611081226553,89.74000358615359 53.844002151693466,62.38192576653965 35.71239017392623,54.9456697148969 5.737851891705758,46.132329209249846 0,37.732114039802454 13.816747355210662,29.74502420656124 46.591357360594394,15.974179666485687 75.78554778555718,7.711672942440353 109.6159225389962,7.619867312173401 204.86426394118655,0 207.52662721893142,21.895642818718827 203.85440200825332,43.97489689797156 208.26107226106706,53.47677963062239 208.62829478214792,57.88344988344591Z"/>
  </g>
</svg>