<?xml version="1.0" encoding="UTF-8" standalone="no"?>
<svg viewBox="0 0 256 224.59638386648078" xmlns="http://www.w3.org/2000/svg">
  <style>
    g.zone {
      fill: lightgray;
      stroke-width: 2;
      stroke-linecap: square;
      stroke-linejoin: bevel;
      stroke-miterlimit: 3;
      stroke-opacity: 0.8;
      stroke: black;
      fill-opacity: 0.3;
    }
  </style>
  <g class="zone" id="zone">
    <path d="M190.84283727399372,224.59638386648078 214.69819193324545,221.17830319888472 235.06425591100069,210.85285118219608 238.62475660640777,204.8712100139055 245.03365785813648,176.17357440890194 256,167.55716272600628 254.006119610585,146.4077885952702 247.4547983310149,128.24923504867687 247.09874826148229,90.721557719051 242.89735744090032,74.84172461752003 243.1109874826118,57.89374130737098 242.0428372739937,51.48484005563216 239.62169680111526,49.77579972183413 232.64311543812224,15.38136300417216 221.74798331014904,10.183031988872555 191.98219749652236,3.8453407510392448 128.10681502086587,3.8453407510392448 81.96272600835444,0 47.49707927677178,10.325452016688637 15.45257301808779,30.477885952712157 2.349930458967865,61.09819193324039 0,73.98720445062355 0.07121001391057036,96.20472878998277 2.492350486789006,103.82420027816082 14.598052851181183,117.28289290681334 19.725173852580337,127.67955493741255 47.2834492350603,152.4606397774663 64.23143254520936,160.50737134909258 83.52934631432626,180.09012517385176 97.48650904033256,189.48984700973335 157.01808066760617,216.62086230876002 190.84283727399372,224.59638386648078Z"/>
  </g>
</svg>