<?xml version="1.0" encoding="UTF-8" standalone="no"?>
    <svg
    xmlns:dc="http://purl.org/dc/elements/1.1/"
    xmlns:cc="http://creativecommons.org/ns#"
    xmlns:rdf="http://www.w3.org/1999/02/22-rdf-syntax-ns#"
    xmlns:svg="http://www.w3.org/2000/svg"
    xmlns="http://www.w3.org/2000/svg"
    xmlns:inkscape="http://www.inkscape.org/namespaces/inkscape"
  >
  <style>
  g.comuni {
      fill: lightyellow;
      stroke-width: 3.5;
      stroke-linecap: square;
      stroke-linejoin: bevel;
      stroke-miterlimit: 3;
      stroke-opacity: 1;
      stroke: black;
      fill-opacity: 0;
  }
  </style>
  <g inkscape:groupmode="layer" id="layer1" inkscape:label="Base"/>
  <g inkscape:groupmode="layer" id="layer2" inkscape:label="Comuni">
  <g class="comuni" id="comuni">
<path d="M68.16974286165072,71.68323079350009 58.76005679129032,79.51790503233784 63.404322448338895,83.47562707051353 62.19277488562608,86.30257138349575 43.171478151125555,91.18914655308228 13.81164221485952,104.27386023031929 0,119.33743492664125 4.523110900773849,127.09133932796826 12.842404164696154,136.33948572329857 15.75011831518625,146.274175737496 19.950149865905644,150.99921123205246 30.409843823945888,155.96655623914975 39.90029973182276,163.1550717778786 39.49645054425183,168.24357154124772 48.09843823947035,183.2667613188172 44.74648998265107,190.25335226376058 43.37340274491677,196.9976336961631 71.03707209339404,194.81684808328978 103.91039596150085,187.7494873008328 113.6431613819157,181.8936740810829 122.12399432087096,174.05899984224226 128.5451964032133,156.006941157908 133.8356207603708,151.20113582583792 141.5087553241842,150.3934374506989 165.5377819845345,151.44344533837875 188.59757059473293,139.04527528000892 200.95535573434165,127.5355734342917 218.24010096229517,123.45669663984702 223.9343745070121,120.30667297680749 229.83057264552028,116.3489509386318 246.3883893358484,98.33727717305288 242.51143713519494,91.9968449282213 256,66.31203659883185 249.41725824262468,52.21769995267326 238.9979492033427,43.29263290739741 217.0689383183406,39.77914497554804 213.39391071146687,36.225272124940425 195.13992743334998,27.05789556712374 191.14182047641032,21.121312509857347 191.22259031392682,11.953935952043533 188.43603091969996,10.903928064363685 187.87064205710752,9.08660672030307 185.0840826628807,7.269285376242456 185.2860072566604,5.128884682124518 172.9282221170517,2.3827102066559105 167.43587316611448,4.725035494556448 150.71651680075337,6.017352894777138 150.23189777567742,2.907714150495835 137.10679917967357,0 129.9182836409476,2.140400694115069 114.77393910711203,1.6961665877887586 102.82000315507423,6.380817163589835 102.29499921122857,7.228900457484214 105.84887206183906,8.076983751378593 108.3527370247697,11.388547089445368 85.37371825208776,15.709733396433746 86.01987695219665,17.32513014670889 83.87947625807872,18.53667770941597 94.09686070358099,23.907871904084196 97.89304306672945,29.642530367565122 91.22953147183766,34.89256980596149 87.63527370248042,35.82142293736949 86.22180154598787,39.49645054424896 87.15065467739299,44.5849503076181 68.53320713046341,63.64663196087687 68.16974286165072,71.68323079350009Z" id="15f3e70f-dbd5-477f-968a-274da3edceae"/></g>
  </g>
  </svg>
  