<?xml version="1.0" encoding="UTF-8" standalone="no"?>
<svg viewBox="0 0 256 176.40976771889257" xmlns="http://www.w3.org/2000/svg">
  <style>
    g.zone {
      fill: lightgray;
      stroke-width: 2;
      stroke-linecap: square;
      stroke-linejoin: bevel;
      stroke-miterlimit: 3;
      stroke-opacity: 0.8;
      stroke: black;
      fill-opacity: 0.3;
    }
  </style>
  <g class="zone" id="zone">
    <path d="M9.148302561049197,150.41334127457702 79.43776057176781,176.40976771889257 156.96962477665218,173.89398451460187 247.2328767123405,164.3645026801738 256,137.9106611078069 240.06670637285268,108.86480047647679 240.90530077428832,100.86003573556415 227.2590827873708,89.95830851697656 202.48243001786435,77.15068493151092 194.09648600357286,64.1143537820169 185.78677784395933,42.53960690887552 176.4097677188763,34.99225729600885 165.50804050029956,17.610482430018624 105.96783799880183,0 74.48243001787519,16.238237045859076 73.33889219772779,33.010125074447465 70.51816557475243,38.575342465752755 54.96605122095146,43.53067301965621 50.4681357951048,51.306730196545864 42.53960690885927,56.56700416915024 41.70101250744529,61.97974985110507 47.72364502680737,66.9350804050031 41.92972007145743,81.72483621203553 21.650982727797658,85.4603930911299 7.92852888622386,93.54139368672047 16.466944609871224,110.16081000596381 7.318642048822024,123.04466944610738 0,128.07623585468335 1.6009529481716924,136.69088743300324 6.632519356742251,141.49374627755623 18.830256104822293,145.53424657535152 9.148302561049197,150.41334127457702Z"/>
  </g>
</svg>