<?xml version="1.0" encoding="UTF-8" standalone="no"?>
<svg viewBox="0 0 246.98941088739682 256" xmlns="http://www.w3.org/2000/svg">
  <style>
    g.zone {
      fill: lightgray;
      stroke-width: 2;
      stroke-linecap: square;
      stroke-linejoin: bevel;
      stroke-miterlimit: 3;
      stroke-opacity: 0.8;
      stroke: black;
      fill-opacity: 0.3;
    }
  </style>
  <g class="zone" id="zone">
    <path d="M0,12.370469798658654 3.0926174496639853,14.928560775542381 5.192542878453063,17.4866517524234 8.094258016408457,20.235645041015715 9.736017897094746,22.90827740492243 12.332289336318563,24.39731543624293 12.714093959735745,25.92453392990352 14.47039522744502,27.642654735272703 4.9252796420588645,44.136614466815765 5.612527964207623,47.954660700968596 6.223415361670774,48.75645041014305 7.941536167042669,49.4436987322891 8.705145413871607,50.16912751677795 8.819686800894592,50.89455630126951 8.437882177482836,52.498135719612996 8.8960477255802,53.185384041759036 10.61416853094667,53.7580909768821 12.026845637586987,54.82714392244533 12.179567486952775,56.04891871737434 13.24862043251329,57.194332587620465 12.714093959735745,59.714243102164104 15.539448173005534,64.25771812080579 18.05935868754917,66.77762863534672 20.08292319165264,67.77032065622704 22.67919463087646,67.84668158090993 26.000894854586413,68.80119313944746 27.337211036541127,71.05384041759962 27.604474272935324,72.733780760626 27.069947800152356,74.1082774049208 27.757196122301114,75.86457867263279 29.704399701718977,77.62087994034206 32.3006711409428,79.07173750932247 34.82058165548101,81.20984340044892 35.31692766592117,82.62252050708382 35.08784489187521,85.48605518269912 39.211334824762325,87.35689783743409 39.516778523493905,87.96778523489995 39.402237136465494,88.92229679343748 40.39492915734583,89.60954511558624 40.7003728560774,90.75495898583236 40.58583146905442,91.97673378076138 38.98225205071093,94.38210290827661 38.10410141685358,97.62744220730909 36.920507084270085,98.08560775540646 32.94973900074875,97.32199850857481 31.65160328113684,95.37479492915693 29.971662938107748,94.99299030574247 28.635346756153037,95.06935123042537 25.580909768831855,104.99627143922328 20.541088739750005,106.1798657718122 19.35749440716108,105.9889634601036 19.319313944818276,106.21804623415501 16.22669649515429,107.554362416107 15.653989560033944,108.12706935123006 13.095898583147502,108.77613721103602 12.981357196124518,109.38702460850189 12.255928411632956,109.73064876957626 12.103206562267168,109.46338553318478 11.072334079049458,109.50156599552487 10.91961222968367,109.92155108128215 11.683221476512609,110.4942580164052 10.270544369877715,111.56331096196843 8.743325876214412,111.7923937360171 6.452498135722169,111.37240865025984 6.452498135722169,111.71603281133422 6.757941834453744,112.13601789709149 7.979716629385472,112.36510067114017 9.392393736020367,114.38866517524364 9.31603281133476,113.93049962714356 19.395674869503882,109.57792692020776 21.64832214765332,109.99791200596503 21.877404921704716,111.21968680089405 21.53378076063034,111.83057419835991 15.883072334079912,114.7322893363153 14.012229679347655,116.3740492170016 13.821327367639064,116.90857568978457 14.164951528713443,118.43579418344515 14.73765846383379,119.69574944071698 15.692170022371322,120.57390007457161 21.26651752423614,123.36107382550402 25.46636838180887,129.1263236390747 27.948098434004276,130.19537658463796 31.84250559284543,132.7534675615217 32.109768829234206,133.4407158836677 31.99522744221122,135.73154362415997 32.56793437733157,136.7624161073831 34.09515287099487,138.21327367636079 36.00417598806993,139.12960477255822 38.10410141685358,140.8859060402675 38.0277404921734,141.57315436241626 37.37867263236745,142.29858314690512 32.49157345265139,145.467561521252 35.31692766592117,148.1401938851614 35.08784489187521,152.7982102908288 35.77509321402396,154.28724832214658 36.5387024608529,154.82177479492955 45.77837434750205,156.31081282625007 50.20730797912075,164.5577926920216 51.810887397464235,166.81043997017102 58.68337061894096,169.29217002237186 63.79955257270842,174.29381058911363 64.71588366890315,176.85190156599464 64.33407904549139,178.30275913497235 64.90678598061174,179.71543624160995 65.17404921700593,181.35719612229622 68.5721103654015,186.358836689038 69.71752423564762,187.04608501118403 70.25205070843059,187.88605518269858 70.36659209545357,188.11513795674725 69.18299776286464,187.88605518269858 69.60298284862463,189.56599552572766 70.44295302013376,190.3677852348994 71.85563012677407,192.65861297539166 73.039224459363,193.72766592095488 71.47382550335689,194.14765100671215 69.98478747203639,195.71304996271283 66.09038031320067,197.431170768082 62.8832214765137,197.58389261745052 61.01237882177601,197.20208799403335 58.53064876957518,197.20208799403335 60.13422818791866,198.88202833706242 60.17240865026147,199.87472035794275 59.370618941089724,200.7910514541375 59.44697986577533,201.40193885160335 61.12692020879899,202.39463087248367 62.46323639075371,202.66189410887247 63.9140939597314,202.05100671140931 65.17404921700593,202.2037285607751 64.71588366890315,203.4255033557041 64.98314690529735,206.09813571961084 67.19761372110398,208.54168530946885 68.22848620432711,209.07621178225182 69.98478747203639,209.1525727069347 70.78657718120813,209.57255779269198 72.50469798658003,211.90156599552432 75.06278896346105,213.08516032811326 76.55182699478155,212.89425801640465 78.4608501118566,213.6960477255764 79.75898583146851,213.886950037285 81.4771066368404,215.41416853094557 83.72975391498984,216.5595824011917 85.25697240865316,217.74317673378064 86.02058165548209,219.19403430275833 86.51692766592225,221.37032065622486 85.8678598061163,222.5539149888138 86.02058165548209,223.12662192393685 86.70782997763085,223.89023117076852 88.84593586875731,224.84474272930603 89.38046234154028,226.44832214764952 90.37315436241518,227.67009694257854 91.25130499627254,229.7318419090221 90.60223713646657,230.9917971662939 89.87680835198044,231.41178225205118 90.18225205071202,232.09903057419723 89.95316927666062,232.6335570469802 90.71677852348957,233.66442953020064 92.66398210290743,234.58076062639807 94.30574198359372,236.26070096942445 96.25294556301701,237.25339299030477 98.35287099180066,239.42967934377134 99.04011931394399,239.8878448918714 100.07099179716712,239.84966442952862 101.36912751677903,238.09336316181933 106.02714392244913,237.0243102162561 106.75257270693527,235.84071588366717 107.8216256525012,235.42073079791263 108.69977628635313,233.62624906786056 107.47800149142682,232.6717375093203 105.83624161074053,231.90812826249135 106.0653243847865,229.6173005219991 106.67621178225508,229.19731543624184 108.69977628635313,229.12095451155895 110.87606263982238,228.1664429530187 112.02147651006851,226.83012677106672 112.59418344519428,224.73020134228034 116.67949291573859,223.12662192393685 119.00850111856822,222.515734526471 120.34481730052293,223.16480238627966 121.94839671886642,223.39388516032835 125.61372110365618,222.09574944071645 127.67546607009702,223.08844146159404 133.51707680835605,223.69932885905993 134.47158836689357,222.6302759134967 140.23683818046155,221.179418344519 142.87129008202817,218.58314690529517 145.5057419835948,216.5977628635345 146.76569724086391,216.10141685309435 149.05652498135615,216.40686055182593 153.21819537658607,218.01043997017211 155.92900820283288,219.95764354959 157.64712900820476,221.94302759134794 158.75436241610808,222.2102908277394 160.2815809097714,222.05756897837364 167.95585384041988,219.07949291573533 171.20119313944963,218.50678598061228 172.7665920954503,219.23221476510113 173.60656226696486,224.11931394481718 175.32468307233677,226.10469798657786 175.51558538404535,225.95197613720936 175.89739000745712,226.33378076062655 176.3173750932171,227.28829231916407 177.615510812829,228.89187173750756 178.07367636092636,229.04459358687606 178.9900074571211,230.64817300521955 180.02087994034423,231.67904548843995 181.43355704697913,232.48083519761443 182.1589858314707,234.0462341536151 184.06800894854575,234.92438478747246 186.0152125279636,236.37524235645014 186.96972408650115,237.78791946308775 187.08426547352954,239.39149888143123 188.49694258016444,241.3768829231919 189.83325876211916,242.48411633109524 190.4059656972395,243.82043251304995 193.15495898583453,246.0348993288593 194.37673378076084,248.74571215510608 195.94213273676695,250.50201342281807 197.46935123042482,251.685607755407 197.50753169276763,252.41103653989586 199.87472035794548,254.4727815063367 201.21103653989476,255.19821029082826 203.04369873228964,255.8854586129743 204.18911260253577,256 208.77076808352024,253.86189410887354 210.52706935122953,253.74735272184785 211.2906785980639,253.0601043997018 212.89425801640738,252.41103653989586 216.63594332587732,252.41103653989586 220.03400447427288,250.69291573452668 222.6684563758395,250.0056674123779 223.47024608501124,249.43296047725485 223.62296793437702,248.55480984340022 224.95928411633173,247.48575689783698 228.28098434004713,248.74571215510608 230.45727069351096,249.96748695003782 234.5043997017179,250.0056674123779 236.56614466815873,251.18926174496684 240.34601043997148,252.48739746457875 242.25503355704654,252.8310216256531 246.72214765100804,250.69291573452668 246.22580164056788,250.73109619686676 246.98941088739682,250.3492915734523 246.53124533929946,249.92930648769502 246.53124533929946,249.24205816554627 244.96584638329878,248.707531692766 244.81312453393298,247.63847874720278 244.04951528709861,247.2184936614455 243.66771066368688,246.60760626398235 242.29321401938935,246.26398210290796 241.72050708426357,245.34765100671052 240.80417598806883,244.7367636092474 240.61327367636025,244.2785980611473 240.80417598806883,243.66771066368415 239.73512304250832,242.8659209545097 239.23877703206816,241.60596569724058 236.8715883668903,240.53691275167736 235.87889634600998,239.62058165547992 234.69530201342107,235.84071588366717 233.12990305742036,233.39716629380914 231.18269947800252,229.23549589858195 230.68635346756236,226.60104399701532 225.79925428784628,221.90484712900783 224.50111856823438,219.5376584638327 220.72125279642162,216.29231916480293 220.60671140939866,215.94869500372855 220.9885160328104,215.41416853094557 222.85935868754808,214.23057419835936 219.07949291573533,213.54332587621062 218.086800894855,213.8105891126021 216.4450410141687,213.58150633855342 216.06323639075154,212.81789709172176 216.25413870246012,212.4360924683073 217.39955257270626,211.82520507084143 217.8577181208036,210.908873974644 217.59045488441484,209.6107382550321 217.70499627143784,206.78538404175958 217.1704697986603,204.64727815063313 213.8487695749449,202.92915734526395 212.3979120059672,201.44011931394346 209.95436241610918,201.09649515287177 208.57986577181165,200.25652498135724 207.93079791200572,200.4474272930631 206.93810589112536,199.64563758389136 206.89992542878798,199.83653989559997 206.365398956005,198.23296047725648 206.8235645041024,196.85846383295896 206.63266219239378,196.2475764354958 204.38001491424436,193.2695003728548 202.3564504101409,191.66592095451134 201.59284116331193,190.2914243102165 199.72199850857427,189.87143922445924 198.53840417599076,188.8787472035789 198.42386278896237,187.5424310216242 197.46935123042482,186.358836689038 197.35480984340182,185.25160328113196 195.94213273676695,184.8316181953774 193.3458612975377,182.27352721849365 192.69679343773174,182.08262490678507 191.39865771811984,182.23534675615088 188.00059656972428,183.49530201342267 183.95346756152276,183.41894108873979 182.92259507829962,182.54079045488515 181.12811334824755,181.9299030574193 181.01357196122456,180.74630872483309 180.40268456376143,180.02087994034153 177.65369127516638,180.3645041014159 176.3173750932171,179.79179716629284 175.9737509321427,179.52453392990407 176.01193139448552,178.8372856077553 173.45384041759908,176.92826249067753 173.22475764355312,176.50827740492025 173.56838180462205,176.0501118568229 172.04116331096418,174.6756152125281 170.39940343027789,174.6756152125281 165.7795674869506,176.20283370618867 164.40507084265852,175.74466815809132 163.4123788217782,175.8592095451143 162.41968680089784,175.01923937360246 160.39612229679437,174.37017151379652 159.25070842654824,172.881133482476 157.41804623415337,171.27755406412982 155.73810589112972,170.51394481730088 154.47815063385517,168.83400447427178 152.8363907531689,167.45950782997699 152.26368381804855,165.55048471290192 151.50007457121418,165.20686055182753 150.66010439970506,163.45055928411557 149.01834451901877,162.41968680089514 148.98016405667596,161.57971662938058 148.17837434750422,160.93064876957465 147.41476510066985,159.47979120059694 145.353020134229,158.02893363161925 145.27665920954882,156.65443698732173 144.3603281133487,155.4326621923927 144.16942580164007,154.51633109619797 144.81849366144604,153.37091722595187 144.81849366144604,152.07278150633724 145.62028337061778,151.2709917971655 144.97121551081182,150.58374347501945 144.89485458613166,149.667412378822 142.94765100671378,149.01834451901607 142.45130499627362,148.5983594332588 143.10037285607956,145.7730052199863 142.45130499627362,145.00939597315462 140.8859060402675,143.9785234899315 141.2295302013419,142.90947054437098 139.28232662192403,140.38956002982735 139.39686800895242,139.3205070842641 137.90782997763193,137.44966442952915 137.86964951528913,136.11334824757714 137.2205816554832,134.92975391498823 137.90782997763193,134.58612975391384 138.0605518269977,133.40253542132763 138.5187173750951,132.79164802386177 139.89321401939262,131.76077554064133 140.12229679343858,130.50082028336953 141.68769574944469,128.32453392990297 147.52930648769828,123.62833706189551 147.60566741237844,123.24653243847833 145.08575689784024,122.02475764354931 142.33676360925062,122.06293810589212 139.12960477255822,120.95570469798608 138.70961968680368,119.69574944071698 137.56420581655755,118.39761372110506 137.06785980611738,118.13035048471359 135.50246085011128,118.16853094705367 133.51707680835605,116.4885906040273 133.02073079791586,116.3740492170016 133.51707680835605,115.38135719612126 132.94436987323027,113.4723340790462 133.63161819537902,112.78508575689744 137.41148396719177,111.67785234899412 138.74780014914649,110.72334079045389 140.84772557793013,109.80700969425915 144.47486950037165,109.34884414615908 145.467561521252,106.98165548098395 147.87293064877264,104.61446681580881 149.5528709917963,103.54541387024558 153.18001491424326,102.24727815063368 154.47815063385517,101.21640566741324 155.92900820283288,100.87278150633887 157.72348993288495,98.92557792692101 155.8908277404955,97.32199850857481 154.89813571961517,96.94019388516034 152.53094705443732,93.84757643549635 150.73646532438525,92.05309470544428 150.50738255033926,89.87680835197773 146.8038777032067,88.38777032065722 146.26935123042375,87.92960477255716 145.5057419835948,86.21148396718797 145.84936614466918,85.37151379567614 145.773005219989,84.64608501118728 146.49843400447514,84.11155853840432 146.57479492916073,83.76793437732994 145.23847874720602,82.04981357196075 142.7185682326624,80.67531692766596 141.4586129753933,78.5753914988823 141.0004474272959,76.78090976883023 140.27501864280435,75.94093959731568 135.08247576435673,72.27561521252863 133.74615958240202,72.23743475018583 132.94436987323027,71.77926920208847 129.8135719612235,72.08471290082004 127.40820283370824,70.21387024608508 125.76644295302196,69.9466070096936 123.70469798658111,68.53392990305869 119.1994034302768,66.73944817300662 117.97762863535051,65.13586875466042 115.68680089485827,63.79955257270842 111.14332587621115,59.44697986577262 106.79075316927806,58.33974645786659 104.07994034303127,59.370618941089724 98.58195376584662,58.68337061894096 95.22207307979387,56.23982102908293 93.31304996271338,55.55257270693689 81.93527218493777,48.90917225950884 77.08635346756452,48.94735272184893 73.84101416853474,48.298284862042976 72.19925428784845,48.451006711408766 70.59567486949955,47.992841163311404 67.0067114093954,46.38926174496792 64.71588366890315,44.86204325130461 62.31051454138792,44.480238627890145 60.59239373602145,43.48754660700981 56.69798657718572,42.456674123789384 52.307233407904405,39.402237136465494 47.68739746458254,38.027740492170686 43.10574198359805,34.476957494406626 41.15853840418019,33.866070096943474 39.66950037285969,34.09515287099216 37.41685309470483,33.78970917226058 33.5606263982119,31.193437733036763 25.16092468307187,30.77345264727949 25.237285607757475,30.35346756152222 28.597166293810233,28.597166293810233 30.811633109622296,26.84086502610096 29.589858314690566,26.2681580909779 28.520805369130052,26.61178225205228 27.069947800152356,25.733631618194927 26.955406413123946,24.511856823265912 25.46636838180887,22.90827740492243 24.817300522002913,21.45741983594473 23.519164802391007,20.999254287844654 23.251901565996807,20.31200596569861 18.9756897837439,17.33392990305761 18.097539149891976,15.463087248322639 15.883072334079912,13.592244593587669 18.097539149891976,12.408650260998744 20.961073825504563,12.370469798658654 26.459060402689204,11.530499627144108 30.964354958988082,9.850559284117729 32.14794929157701,9.850559284117729 34.51513795674943,10.843251304998063 35.96599552572713,12.408650260998744 37.49321401939043,12.828635346756018 40.77673378076301,15.501267710665443 42.76211782252368,16.493959731543065 43.86935123042699,17.410290827740504 45.89291573453046,18.09753914988926 48.64190902312007,17.830275913497776 50.62729306488074,18.555704697986624 51.16181953765828,18.479343773303732 52.38359433259001,17.601193139449094 53.56718866517893,15.844891871737108 56.20164056674556,13.859507829979155 57.69067859806063,13.24862043251329 57.80521998508904,10.99597315436385 58.14884414616342,9.88873974645782 57.57613721103765,7.674272930648471 56.39254287844872,6.070693512304986 56.35436241611134,4.772557792693077 53.52900820283613,2.2526472781521525 53.41446681581315,1.2981357196119092 52.154511558538616,0 26.76450410142078,5.879791200596395 26.76450410142078,8.628784489188714 14.508575689787822,8.628784489188714 0,12.370469798658654Z"/>
  </g>
</svg>