<?xml version="1.0" encoding="UTF-8" standalone="no"?>
<svg viewBox="0 0 256 173.3870336468659" xmlns="http://www.w3.org/2000/svg">
  <style>
    g.zone {
      fill: lightgray;
      stroke-width: 2;
      stroke-linecap: square;
      stroke-linejoin: bevel;
      stroke-miterlimit: 3;
      stroke-opacity: 0.8;
      stroke: black;
      fill-opacity: 0.3;
    }
  </style>
  <g class="zone" id="zone">
    <path d="M0,69.57136544410112 0.5171390695031312,70.53292090145838 1.4867748248216457,71.38943248532333 3.21595858847292,72.07625781200709 4.589609241840432,73.80544157565836 6.399595985101966,75.01748626980651 10.132693643078017,75.38917997601163 13.62338236222444,75.3164572943632 18.649327693957744,78.09607979294267 19.481598383939506,78.75866422574381 17.307998232434105,81.1100309323911 14.891989142099074,83.18666750836488 12.44365885992017,85.06937693327484 11.013446120825018,85.69155987627084 11.377059529070035,86.92784546430161 12.330534688466038,87.98636449719106 14.956631525786824,89.58626349346684 15.304084338109329,90.28116911811128 14.512215137932696,91.96995139195799 15.368726721797076,93.12543400037907 22.923805315320692,96.64844391136937 23.2712581276432,97.440313111546 23.10965216842268,99.99368726721836 24.879237421879086,101.66630894514257 24.838835932073955,102.42585695347533 23.036929486774827,102.87835363929071 22.68947667445232,103.27428823937903 23.085411274540064,106.33672116659326 22.77027965406143,106.74073606464283 21.695600025250037,107.03162679123827 21.31582602108366,107.5730067546246 21.905687772235794,108.07398522820579 21.865286282430663,108.60728489363086 21.647118237484804,108.9708983018753 22.140016413104167,109.35067230604169 24.321696862570825,110.55463670222856 27.287166214254007,111.3707467962884 30.850577615049435,111.88788586579153 31.86061486017193,115.09576415630376 33.18578372577421,118.27940155293281 36.660311848999264,121.3822359699516 45.62136228773427,121.81857205984504 45.152705005996374,122.99829556214931 42.009469099172456,124.60627485638577 41.80746165014796,126.00416640363648 39.973234013003804,127.48286093049687 40.09443848241805,128.79186920017722 42.97910485449097,129.90695031879315 43.560886307681855,131.47452812322507 43.156871409632856,134.0440628748188 49.815036929485814,138.17309513288313 51.544220693137085,138.21349662268827 52.48153525661173,138.72255539423074 51.87551290953823,140.0719651537156 48.522189255728556,142.94047092986602 50.55034404393595,145.6796919386404 50.53418344801459,147.05334259200848 51.81087052585048,148.67748248216685 50.509942554130824,152.18433179723522 50.4129789785992,154.84274982639988 58.40439366201569,159.09298655387963 62.71927277318262,159.66668770910982 67.1876775456088,162.0746165014836 72.56915598762703,164.2966984407554 78.37889022157685,169.42768764598216 81.9665425162549,169.9933085032511 86.39454579887597,173.3870336468659 107.66997033015565,171.633608989332 109.73852660816817,172.6355659364944 129.96351240451907,166.72886812701236 136.62975822233443,166.9227952780762 144.08787324032528,161.5736380279024 152.81459503819192,157.41228457799417 162.0342150116779,156.54769269616853 172.36891610378044,150.6167539928039 187.50331418471026,155.16596174483976 189.4264250994248,158.76169433747907 196.90070071333815,162.85032510573888 200.25402436714782,162.0988573953668 206.09607979294154,161.29082759926823 209.65141089577685,163.0442522568021 210.08774698566972,161.49283504829273 209.19083391200022,159.31923489678732 210.34631652042071,157.94558424341923 210.72609052458824,156.36992614102667 211.37251436146687,156.06287481850927 212.107821475917,154.53569850388251 212.05933968815063,152.8145950381925 214.18445805189077,150.42282684174006 215.55002840729705,148.02297834732698 217.52162110977795,146.5685247143492 221.73953664541327,139.9992424720666 222.65261031500526,137.42970772047232 222.99198282936652,135.239946973045 222.1516318414235,131.1674768007071 224.14746543778702,128.62218294299657 224.81004987058816,126.40818130168606 226.4180291648252,124.73555962376128 226.52307303831807,122.86093049681256 228.34922037750098,120.9620604759801 229.87639669212774,122.17410517012823 240.55855059655278,122.79628811312423 243.72602739725932,121.67312669654704 246.79654062243537,124.71131872987866 250.57812006817664,125.28501988510885 254.828356795657,123.94369042358464 256,122.92557288050031 250.60236096206043,118.48140900195732 248.67925004734477,115.03112177261545 244.5017360015146,111.95252824947927 241.26961681711916,111.63739662900122 237.04362098352374,108.86585442838242 227.73511773246622,101.01988510826394 222.20819392715114,97.6099993687272 220.25276182059162,97.27870715232663 216.68127012183493,97.90089009532264 212.41487279843437,90.55589924878535 205.16684552742814,84.35023041474663 203.2033331229085,83.70380657786801 202.7265955432105,82.59680575721273 208.38280411590105,82.62104665109536 212.4552742882395,81.13427182627372 217.48929991793406,77.99911621741106 224.0828230540993,77.8617511520743 234.87810112997843,81.2877974875324 234.12663341960692,74.36298213496663 231.387412410832,74.38722302884925 228.83403825516024,73.70039770216549 227.46846789975282,72.11665930181222 227.1856574711192,70.49251941165382 227.9856069692571,68.8279780316903 227.5492708793631,67.49472886812734 225.7716053279466,65.88674957389088 225.40799191970154,65.11912126759687 223.01622372324914,65.65242093302193 221.35976264124687,65.5796982513735 219.50937440818137,64.89287292468917 218.37005239568222,64.9332744144943 218.40237358752609,65.87866927592962 216.43078088504518,66.29884476990114 216.88327757086057,64.48885802664017 213.9339688150999,61.167855564674376 210.92809797361272,58.784167666183215 209.69181238558082,57.37011552301 210.57256486332898,56.60248721671656 208.4393662016287,55.33388043684135 209.1746733160777,54.20263872230289 204.39113692317403,50.825074174610606 201.25598131431022,51.7300675462408 198.2905119626282,51.22100877469892 193.3857711003091,50.93819834606416 188.35982576857467,49.58878858657927 188.86080424215643,51.019001325674424 186.7760873682214,51.51189950129436 185.69332744144873,50.744271195000344 183.15611388169947,50.84931506849322 182.5500915346248,50.57458493781972 182.2753614039513,49.70999305599408 181.01483492203678,49.00700713338839 178.59074553374165,49.15245249668582 177.46758411716388,47.29398396565905 175.7949624392391,45.718325863266465 175.91616690865447,44.999179344738835 174.8657281737257,44.54668265892345 173.32239126317756,41.83978284199241 174.00921658986132,41.35496496433315 174.14658165519808,40.82974559686934 172.55476295688356,40.1671611640682 171.55280600972117,40.175241462029454 169.90442522568014,38.60766365759755 168.805504702985,39.22176630263288 168.21564295183285,40.15908086610694 166.89047408623173,40.1671611640682 164.52294678366195,38.62382425351949 164.4583043999742,37.50066283694228 167.52881762514912,36.24821665298958 167.4722555394226,35.31898238747563 166.65614544536336,34.3978284199235 165.1693706205417,33.88876964838105 164.0058077141588,32.34543273783233 162.02613471371666,31.246512215138324 164.26437724891096,30.454643014961693 173.1203838141531,31.892936052016953 173.85569092860206,32.57168108074003 175.85960482292685,32.814090019569655 176.70803610883112,32.62016286850584 177.47566441512512,31.90909664793889 179.44725711760603,31.14146834164545 179.56038128906016,30.9071397007765 179.28565115838552,30.559686888454568 177.6372703743445,29.11331355343748 177.85543841929152,26.980114891736633 176.15049554952284,26.84274982639988 175.98080929234223,26.559939397765696 175.73032005555135,26.30136986301413 175.11621741051658,26.02663973234063 174.69604191654508,25.646865728174248 174.54251625528698,25.388296193422683 174.72836310838895,25.170128148475673 174.4455526797542,24.798434442270548 173.87185152452457,24.38633924625972 173.62944258569496,24.071207625781664 173.6375228836562,23.901521368600463 173.13654441007444,23.513667066473403 172.77293100183056,23.37630200113665 171.45584243418955,23.634871535888216 170.7770974054659,23.966163752288786 169.791301054226,24.240893882962286 169.36304526229327,24.216652989079094 168.91862887443912,23.80455779306884 169.16911811123,23.360141405214712 168.98327125812688,22.81876144182839 168.18332175998898,22.90764471939933 167.64194179660325,22.77027965406258 166.87431349030922,22.810681143867708 165.33097657976109,23.15813395618964 164.2078151631833,23.214696041916707 163.8361214569782,23.15005365822896 163.21393851398219,22.608673694842636 163.41594596300666,22.358184458052325 164.41790291016906,22.14809671106657 164.68455274288246,21.525913768070563 164.31285903667617,20.903730825074554 164.82999810617932,20.378511457610166 165.49258253898046,19.958335963638657 165.0804873429702,19.36039391452584 165.38753866548757,18.98061991035946 165.6299476043172,18.471561138817012 165.64610820023972,17.922100877470008 165.43602045325397,17.582728363108757 161.0645792563594,17.873619089704196 159.06874565999587,20.55627801275205 135.04601982198002,21.081497380216433 132.080550470298,19.635124045199344 129.33324916356295,19.659364939082536 127.36973675904215,16.912063632346936 127.99191970203817,14.277886497064896 120.21867306356869,12.168928729247241 107.97702165267302,6.011741682974905 105.17315826021036,2.448330282179479 95.56568398459672,0 84.22902594533181,5.688529764535591 85.6915598762697,16.039391452560043 82.95233886749477,16.548450224102496 82.67760873682128,22.81876144182839 73.78928097973528,24.378258948299038 71.42175367716663,28.951707594217535 67.89066346821508,31.424278770280207 62.92936052016837,31.577804431538894 52.30376870146984,28.685057761505288 45.20118679376276,30.81017612524488 40.62773814784369,31.66668770910926 40.312606527365055,33.65444100751267 37.541064326746266,34.139258885171934 37.12088883277475,36.038128906003834 33.3150684931497,37.274414494034595 32.272710056183335,39.73082507417475 29.177955937124654,41.411527050060215 29.37996338614915,44.24771163436676 31.11722744776168,46.04153778170578 28.66081686762152,46.99501294110236 21.5743955558358,45.91225301433028 15.2636828483042,46.53443595732629 7.837889022157227,48.06969256991375 8.136860046713348,49.07972981503739 7.134903099550959,49.6049491825012 6.520800454516206,51.37453443595761 4.371441196893422,53.8471056120197 3.0301117353697835,55.92374218799348 3.8785430212729097,58.2185468089137 3.482608421185167,58.800328262105154 4.524966858152685,60.24670159712167 5.203711886875186,60.48103023799005 5.478442017548688,62.15365191591483 5.114828609304819,62.67079098541796 6.8359320749948385,66.37156745155013 6.044062874818205,68.47244492140653 5.139069503187438,69.33703680323217 0.8969130736695111,69.13502935420767 0,69.57136544410112Z"/>
  </g>
</svg>