<?xml version="1.0" encoding="UTF-8" standalone="no"?>
<svg viewBox="0 0 256 224.20436027306764" xmlns="http://www.w3.org/2000/svg">
  <style>
    g.zone {
      fill: lightgray;
      stroke-width: 2;
      stroke-linecap: square;
      stroke-linejoin: bevel;
      stroke-miterlimit: 3;
      stroke-opacity: 0.8;
      stroke: black;
      fill-opacity: 0.3;
    }
  </style>
  <g class="zone" id="zone">
    <path d="M0,109.91763928650037 6.342215371063877,120.53027967407999 15.799163179916036,132.51001981942252 19.407179035456064,135.469720325919 19.717242898039675,136.58313146883899 18.58973794318454,137.97841885047322 11.514644351464128,140.275710195992 11.007267121780218,141.71327901343273 11.4864567275938,143.15084783087448 12.430742127284798,143.09447258313082 20.393745870953556,149.74675181678032 31.556044924025578,156.56815679365778 41.971371944506906,158.2876018498128 47.36930191587778,156.8782206562434 51.16053732657994,154.29905307201034 57.20678264699437,154.66549218233862 58.39066284959216,153.58026866328996 59.91279453864789,150.15547236291508 61.90002202158104,148.9715921603173 63.2530279674088,148.63334067386035 64.09865668355064,146.51926888350573 63.816780444835366,144.912574322836 61.80136533803189,144.02466417088766 61.449020039639784,142.4743448579606 63.915437128386515,140.10658445276403 68.0167364016743,138.65492182338713 71.59656463334198,136.04756661528273 73.83748073111609,132.51001981942252 75.8388020259854,132.4113631358734 77.23408940761966,129.95903985906182 83.46355428319822,127.08390222417933 90.98964985685988,129.32481832195543 94.30169566174847,129.60669456066972 96.06342215371099,128.73287822065654 96.47214269984575,127.43624752257243 98.79762166923683,126.52014974675176 100.37612860603522,123.89870072671222 105.44990090288432,123.63091829993411 117.47192248403437,120.85443734860176 121.71415987667979,120.78396828892295 122.74300814798576,119.76921382955312 124.51882845188246,120.07927769213774 125.82955296190372,120.0510900682664 126.53424355868793,120.85443734860176 128.42281435807192,121.16450121118638 133.5106804668572,126.73155692578723 138.61264038758063,129.11341114291997 150.01453424355944,132.76370843426548 151.3252587535787,135.0046245320416 143.29178595023112,136.89319533142458 143.47500550539527,139.5287381634003 147.5058357190042,144.17969610217946 151.0574763267996,146.78705131028383 157.8929751156132,147.53402334287554 164.5029729134562,144.92666813477217 168.3928650077075,145.6313587315564 164.2633781105494,159.44329442854027 165.50363356088985,168.11098876899322 162.48755780665073,168.9848051090064 162.3889011231016,174.22770314908547 169.63312045804997,179.23100638625877 171.36665932614017,191.2530279674078 180.6685752037005,201.10460251045956 176.24311825589095,213.84540850032997 181.40145342435704,223.95067165822468 239.21426998458446,224.20436027306764 238.83373706232203,223.90839022241818 238.6927989429644,223.40101299273226 240.6659326139614,221.51244219334927 241.30015415106877,220.38493723849314 240.82096454525518,220.13124862365117 240.24311825589047,219.0178374807312 240.00352345298367,217.97489539748906 240.1444615723413,217.55208103941814 239.48205241136358,217.29839242457618 237.93173309843755,216.340013212948 237.6780444835946,216.08632459810607 237.57938780004343,215.50847830874233 236.62100858841626,215.84672979519928 236.0572561109897,215.84672979519928 234.19687293547602,215.19841444615673 233.47808852675564,214.6910372164718 232.53380312706466,213.6340013212945 230.6593261396168,212.98568597225295 230.33516846509505,212.73199735741 230.25060559348205,212.3796520590179 228.13653380312743,210.97027086544747 227.14996696762793,209.64545254349204 227.17815459150026,209.34948249284258 227.65734419731385,208.63069808412223 227.74190706892685,208.1233208544373 227.67143800925,207.47500550539476 227.0090288482723,207.12266020700267 226.91037216472114,206.7844087205457 226.60030830213555,206.55890772957508 226.55802686632904,206.206562431182 225.96608676503016,205.9246861924687 225.34595903985894,204.92402554503406 226.3325258753584,204.37436687954164 227.67143800925,203.82470821404925 227.50231226602006,203.62739484694995 226.727152609557,203.21867430081417 226.19158775600079,202.79585994274325 225.96608676503016,202.4717022682225 226.02246201277282,202.20391984144436 227.8687513763483,202.11935696983036 228.96806870733312,201.69654261175944 230.32107465316088,201.7106364236946 231.47676723188835,201.45694780885265 232.49152169125816,202.0347940982164 233.28077515965737,201.97841885047373 233.5767452103068,201.65426117595194 233.80224620127743,200.8931953314241 234.11231006386305,200.66769434045347 234.28143580709101,199.92072230786175 234.9156573441984,199.30059458269054 236.93107245100188,199.45562651398333 238.39682889231494,198.63818542171282 238.7773618145794,198.62409160977765 239.41158335168478,199.2019378991414 240.59546355428256,199.99119136753959 241.01827791235348,200.14622329883238 241.53974895397556,200.14622329883238 242.1598766791448,200.6958819643248 243.79475886368581,201.0905086985244 244.83770094692798,200.96366439110292 245.38735961242037,200.70997577626096 245.62695441532716,200.456287161418 246.7544593701823,200.7381634001323 247.78330764148828,200.68178815238863 248.27659105923803,200.47038097335317 249.53094032151463,199.62475225721232 249.75644131248728,199.25831314688403 249.89737943184292,198.48315349042002 250.24972473023502,198.2576524994494 250.95441532702122,198.0603391323491 251.72957498348427,197.44021140717888 251.8282316670334,197.20061660427208 251.77185641929074,196.55230125522954 251.51816780444778,196.27042501651624 252.391984144462,196.0872054613521 252.3778903325258,195.63620347940986 252.63157894736875,195.35432724069557 252.84298612640322,195.2979519929529 252.84298612640322,195.4670777361809 256,195.4670777361809 253.94230345738802,192.5496586654919 252.80070469059675,192.3523452983926 252.84298612640322,190.1959920722305 252.32151508478316,188.88526756221123 247.54371283858148,187.02488438669855 246.34573882404754,185.41818982602882 246.41620788372637,184.67121779343714 243.71019599207284,184.57256110988698 237.72032591940106,177.42699845848875 235.02840783968372,175.73574102620503 227.2063422153706,175.12970711297098 226.88218454085083,173.83307641488688 223.3587315569258,171.21162739484635 223.64060779563906,168.02642589737926 227.84056375247798,164.37612860603372 222.45672759304128,160.33120458048862 221.70975556044857,158.59766571239842 220.30037436688016,157.31512882624946 220.3567496146228,150.52191147324334 218.17220876458936,148.70380973353917 216.21316890552853,147.60449240255437 211.42127284739072,146.7729574983487 210.12464214930563,144.64479189605788 210.35014314027825,142.98172208764552 210.46289363576358,138.5844527637083 209.08170006606548,138.28848271305884 207.37634882184562,136.93547676723207 207.24950451442413,129.0570358951773 206.4320634221546,128.09865668355016 206.53072010570375,126.63290024223707 207.67231887249505,125.7168024664174 207.29178595023063,124.33560889671831 206.34750055053962,123.61682448799795 205.69918520149807,120.95309403215091 208.94076194670782,115.79475886368583 202.16163840563686,109.86126403875771 201.61197974014647,108.22638185421667 204.233428760185,105.71768332966245 204.98040079277771,103.91367540189343 198.38449680687086,100.84122439991164 197.98987007267226,102.01101079057428 195.65029729134503,101.37678925346788 194.45232327681106,97.89561770535133 193.25434926227712,96.75401893856004 192.6765029729144,93.23056595463498 193.08522351904915,91.97621669235838 192.97247302356382,90.8628055494384 191.19665271966514,89.87623871393991 190.74565073772388,88.39638846069168 192.18321955516464,85.50715701387303 191.83087425677252,83.68905527416885 188.32151508478364,79.55956837700974 188.25104602510484,71.2019378991414 186.3342876018505,68.22814358070875 187.72957498348475,66.42413565293974 187.5181678044483,64.85972252807751 183.7410262056823,58.50341334507847 183.02224179696194,57.869191807972086 181.3450781766124,57.36181457828617 176.60955736621924,57.26315789473703 166.7861704470388,54.48667694340468 146.51926888350673,56.31887249504503 144.6729795199292,54.655802686632654 144.54613521250775,53.24642149306324 143.31997357410344,52.894076194671136 143.68641268443173,52.04844747852928 143.22131689055232,51.456507377229386 142.079718123761,50.41356529398824 141.30455846729797,50.10350143140263 141.2904646553618,49.22968509138945 140.5434926227711,48.83505835718985 140.75489980180558,48.41224399911893 140.09249064082786,47.86258533362653 140.6703369301926,47.355208103941614 140.92402554503354,45.95992072230736 141.9246861924692,44.902884827130045 142.91125302796868,44.649196212288096 142.3193129266678,43.47940982162547 142.65756441312573,42.9156573441969 142.4743448579616,41.027086544813905 140.34617925567082,40.54789693900032 138.64082801145094,40.84386698964977 138.48579608015913,38.64523232768116 136.08984805109122,36.68619246861934 137.54151068046815,35.57278132569937 139.5287381634013,34.65668354987869 140.61396168244994,33.76877339793035 140.3884606914773,32.52851794758891 139.4441752917863,32.00704690596783 138.21801365338,32.021140717902995 137.2878220656252,32.64126844307422 134.7650297291358,30.95001101079052 133.41202378330803,30.78088526756255 133.9757762607366,29.991631799163358 134.07443294428575,29.315128826249474 132.9187403655583,28.58225060559294 132.3690817000659,27.652059017837104 131.34023342875992,27.990310504294044 130.66373045584803,27.708434265579758 127.32349702708711,27.581589958159284 126.59061880643058,26.820524113631418 126.71746311385206,25.91852014974691 127.39396608676594,25.63664391103263 126.84430742127354,24.861484254569596 126.91477648095236,24.269544153269702 127.57718564193007,23.748073111649628 127.23893415547214,23.071570138735748 126.28055494384498,23.001101079056927 125.57586434706076,22.479630037436852 125.23761286060282,21.197093151287913 123.4336049328338,21.634001321295003 122.19334948249336,21.027967408059943 121.22087645893004,19.886368641268646 120.17793437568788,19.618586214490527 120.0510900682664,18.92798942964048 119.65646333406781,18.575644131248378 119.48733759083984,18.06826690156347 117.90883065404145,16.968949570578662 117.88064303016913,16.701167143800543 117.28870292887024,16.32063422153711 117.24642149306374,15.728694120238215 116.73904426337782,15.37634882184511 116.5135432724072,14.53072010570326 115.75247742788034,14.248843866989978 114.76591059238085,13.403215150848126 114.75181678044468,13.135432724070007 114.18806430301811,12.698524554062917 113.61021801365338,12.050209205020366 113.15921603171213,11.04954855758671 112.1444615723403,10.232107465316188 111.93305439330585,9.738824047566442 111.4397709755561,9.330103501431681 110.91829993393603,8.597225280775143 110.87601849812754,8.00528517947625 110.52367319973543,7.483814137855175 109.80488879101506,6.948249284298937 109.10019819423084,6.624091609777159 108.83241576745172,6.04624532041443 108.31094472583166,5.750275269763981 107.93041180356722,5.369742347500549 107.59216031711128,4.777802246201654 107.42303457388331,4.721426998457996 106.94384496806973,4.129486897159102 106.78881303677592,3.777141598766998 106.64787491742028,3.6362034794093554 106.57740585774147,3.6925787271530135 105.92909050869791,2.945606694560311 105.83043382514876,1.8885707993829983 105.63312045804847,1.1556925787274626 105.28077515965636,0.9583792116271633 104.77339792997245,0.9160977758206716 103.85730015415177,1.0993173309848059 101.02444395507678,2.1986346619686103 100.46069147764821,2.255009909711267 100.05197093151345,2.1563532261611176 99.41774939440606,1.4234750055055816 98.41708874697241,0.7046905967852091 96.8808632459805,0.11275049548531299 96.03523452983866,0 95.57013873596124,0.18321955516413432 94.59766571239791,0.9160977758206716 93.62519268883459,1.8744769874478349 91.4970270865458,2.410041841004073 91.14468178815369,2.80466857520367 88.98832856199057,2.5791675842320427 88.24135652939988,2.2127284739047752 86.87425677163596,2.691918079718357 86.28231667033705,2.607355208104372 85.7890332525873,2.36776040519658 85.15481171548193,2.522792336489386 83.42127284739173,3.185201497467102 83.20986566835526,3.9603611539311325 82.73067606254169,4.495926007487371 81.9414225941425,4.805989870072983 81.23673199735828,4.834177493944311 80.96894957057916,5.045584672979774 80.92666813477267,5.834838141378968 81.53270204800774,6.11671438009225 81.98370402994898,6.469059678485355 81.64545254349304,7.159656463334399 81.26491962122861,7.286500770754876 81.02532481832182,7.709315128825801 79.4186302576531,8.047566615282742 78.99581589958218,8.385818101739682 78.79850253248188,8.766351024003114 75.14820524113736,9.344197313366845 74.47170226822348,10.683109447258442 79.20722307861664,14.798502532481379 80.43338471702292,27.764809513323417 79.30587976216779,37.37678925346838 79.74278793217287,48.70821404976837 79.96828892314551,50.24443955075927 76.09249064082836,50.99141158335197 68.73552081039466,56.53027967408049 61.77317771415956,60.913455186082544 56.69940541730846,61.92820964545237 46.946487557806854,60.49064082801162 43.01431402774705,61.64633340673808 40.477427879321496,63.15437128385765 37.85597885928296,63.84496806870769 34.69896498568619,65.76172649196202 32.85267562211068,66.52279233648989 29.16009689495767,66.07179035454763 26.98964985686039,64.02818762387082 25.27020480070436,64.2395948029063 21.197093151288914,65.47985025324773 18.632019378991032,66.86104382294683 17.180356749614123,68.36908170006639 17.067606254128812,71.08918740365507 16.22197753798696,72.73816340013228 15.869632239594857,74.88042281435824 16.630698084123722,76.99449460471287 17.011231006386154,79.51728694120226 16.25016516185929,82.85752036996216 15.024003523453006,85.56353226161669 12.33208544373565,88.52323276811215 11.993833957277708,90.73596124201693 10.344857960802504,92.11715481171503 8.92138295529592,93.72384937238473 6.694560669455981,95.20369962563298 4.5241136313586985,95.65470160757523 5.581149526537013,102.70160757542331 0,109.91763928650037Z"/>
  </g>
</svg>