<?xml version="1.0" encoding="UTF-8" standalone="no"?>
<svg viewBox="0 0 256 212.72999403149535" xmlns="http://www.w3.org/2000/svg">
  <style>
    g.zone {
      fill: lightgray;
      stroke-width: 2;
      stroke-linecap: square;
      stroke-linejoin: bevel;
      stroke-miterlimit: 3;
      stroke-opacity: 0.8;
      stroke: black;
      fill-opacity: 0.3;
    }
  </style>
  <g class="zone" id="zone">
    <path d="M0,47.536476745787674 1.8629080391167037,50.08107984022791 3.620035811027874,52.97240714384109 11.259721775859338,51.84408429365026 20.58013865295446,51.16238923832715 26.24525962995292,52.09678159864089 31.363849226389732,55.1056425324824 32.41577521693179,57.72076580505937 32.50392543960335,59.22519627198034 31.322712455810176,63.78550112483355 35.912400716220155,65.19002800606016 37.01134015885422,66.5886782057756 36.43542537073539,67.2997566686563 36.69987603874922,67.79927459712596 37.52261145034623,68.12249208025332 37.546118176391815,69.38597860520645 38.1572930535786,70.12056379413232 39.53243652724803,70.12644047564393 40.613745925347274,71.65437766861005 40.0084477296721,72.94137091960877 40.325788531288694,73.48790230016999 39.72636701712512,74.30476103025582 40.27289839768593,75.70928791148243 40.1671181304804,76.42036637436316 39.64409347596517,76.87874753225282 40.07309122629807,77.60157935815633 44.3160552775351,79.55851430145536 51.9557412423674,80.85138423396525 53.4954317983559,81.84454340939335 55.716817409668764,82.30880124879464 56.498416050686224,82.87883935540144 56.71585326660806,83.61342454432774 55.98714475919336,83.99540884256906 55.540516964326486,85.28240209356777 53.97731968229157,87.08066663605891 53.00179055139786,88.59097378449107 53.618842110095414,90.2599513337311 53.330884716036834,90.68307240255281 54.088976631008705,91.73499839309487 54.58261787796675,91.90542215692554 54.78242504935461,93.12189522978751 54.51797438134161,93.49800284651765 55.76970754327153,96.18952297874297 55.19379275515354,97.71746017170909 54.53560442587559,98.34626509342986 51.45034663238615,98.19934805564476 50.79803498461981,98.51668885726095 51.17414260134994,99.21601395711845 51.879344382719054,99.83894219732802 53.136954226160576,100.33846012579768 54.13599008309987,101.5960699692392 55.452366741655766,102.47757219595059 58.16739359992667,102.74789954547519 60.7061200128553,102.69500941187285 64.36141591295113,104.71658785179743 64.9667141086263,105.1984757357331 63.38588678205741,106.9085900555531 61.62875901014624,108.41889720398525 59.84812451218949,109.7881639961435 58.807951884669805,110.24066847252197 59.07240255268364,111.13980074376734 59.76585097102954,111.90964602176201 61.675772462237404,113.0732289610212 61.92846976722803,113.57862357100204 61.35255497911004,114.80685000688679 61.975483219319194,115.64721546301821 67.47018043248698,118.20944860199242 67.7228777374776,118.7853633901104 67.60534410724887,120.64239474771593 68.89233735824757,121.85886782057747 68.86295395069038,122.41127588264989 67.55245397364693,122.74037004728886 67.2997566686563,123.02832744134786 67.58771406271488,125.2555897341719 67.35852348376984,125.5494238097425 66.57692484275239,125.76098434415316 66.30072081171618,126.1547220054177 66.72971856204909,126.51907625912504 66.7003351544919,126.90693723887796 66.54166475368443,127.17138790689138 66.90014232587976,127.44759193792758 68.48684633396024,128.32321748312737 70.64358844864798,128.91676231577975 73.23520499517937,129.2928699325099 73.96979018410482,131.62591249253947 74.93356595197616,133.94132500803465 77.46053900188242,136.19797070841548 83.97777879803508,136.51531151003167 83.6369312703729,137.37330701069746 81.35090216243489,138.54276663146786 81.2039851246498,139.55943253294154 79.86997842155994,140.63486524952918 79.95812864423065,141.58688765437773 82.056103943804,142.39786970295197 82.4792250126253,143.53794591616557 82.18539093705512,145.40673063679347 87.02777650245574,148.40971488912336 88.28538634589725,148.43909829668056 88.96708140122078,148.8093292318995 88.5263302878655,149.79073504430482 86.0875074606308,151.87695698085497 87.56255451999417,153.86915201322236 87.55080115697179,154.86818787016207 88.47931683577434,156.04940085395526 87.53317111243697,158.59988062990666 87.46265093430024,160.53330884716013 93.27468894908378,163.62444332216157 96.41283687617599,164.0416877094717 99.66264175198533,165.79293879987125 103.57651163858422,167.40902621550893 107.80184564528729,171.14071897525352 110.41109223635266,171.55208668105203 113.63151370460481,174.02029291584392 129.10481612414483,172.7450530278684 130.60924659106539,173.4737615352831 131.46724209173118,174.56682429640514 131.95500665717844,175.900830999495 132.0078967907804,177.05853725724262 133.16560304852797,177.69321886047456 133.19498645608516,179.32105963913503 133.55346402828133,179.9498645608558 140.41742803360694,181.30737798999124 149.3558606124603,185.6678756714566 151.25990542215658,186.97249896698972 152.59978880675806,188.48280611542145 156.5489187824249,190.08714016803634 154.78003764749053,190.8393554014966 153.72811165694847,195.81690464165993 154.13947936274738,196.8805839952252 153.06992332767052,198.69647858225073 152.00036729259446,199.66025435012168 153.0640466461589,202.598595105826 154.27464303750926,204.25581929204367 153.91028878380234,206.74165557136953 154.02782241403025,208.72209724071413 155.39121252467731,211.70745144851006 155.73793673385026,212.72999403149535 162.0083559065239,211.60754786281612 163.78311372296903,210.0854873513612 175.46595656765052,209.03356136081914 179.90285110876462,205.64271612873588 188.07731509113452,205.95418024884088 189.2585280749277,205.67797621780426 190.4103576511637,206.54772508149284 199.5956108534961,204.24994261053206 203.54474082916295,205.04329461457232 214.16978100178991,200.68867361461815 212.43028327441357,196.70428354988292 213.24714200449898,193.95987328405482 212.20109269546853,192.7257701666589 215.04540654699053,189.11748771865382 213.30590881961334,181.99494972682598 215.86814195858756,178.89793857031333 215.76823837289362,175.1956292181259 218.77709930673473,170.14755979982542 224.96524493824842,171.28763601303905 226.92217988154826,170.51191405353276 232.8635048895821,173.1975575042469 237.50608328359567,173.3621045865664 244.12322666544227,175.39543638951378 248.23102704191743,171.9281942977826 248.78931178550062,165.26403746384443 246.9734171984759,162.46086038290238 248.90096873421774,161.24438731004082 248.8245718745694,160.5391855286717 256,156.02001744639807 254.20173545750845,152.00036729259446 248.90684541572935,148.16877094715554 245.97438134153577,144.66626876635598 246.07428492722968,144.0727239337036 244.3641706074097,143.76125981359903 242.6129195170101,142.59180019282863 236.98305862908046,137.32041687709471 233.05743537945918,134.08824204581975 231.65878517974335,131.5788990404479 228.62054083834508,129.33988338460105 226.2698682337811,129.11069280565644 223.19636380331485,127.09499104724303 216.42642670217157,121.38873329966502 212.406776548368,118.90877370185034 210.98461962260654,118.66782975988251 208.38712639456355,119.12033423626099 205.28423855654015,113.77843074239031 200.0128552408058,109.26513934162784 198.5848216335336,108.79500482071539 198.23809742436066,107.98989945365234 202.35177448234657,108.00752949818633 205.31362196409734,106.92622010008708 208.97479454570475,104.64606767366068 213.7701666590142,104.54616408796676 221.62141315825673,107.0378770488038 221.07488177769594,102.00156099352652 219.08268674532812,102.0191910380605 217.225655387723,101.51967310959085 216.23249621229448,100.36784353335486 216.02681235939585,99.18663054956168 216.60860382902547,97.97603415821132 216.29126302740886,97.0063817088288 214.99839309489937,95.83692208805842 214.73394242688553,95.27863734447439 212.99444469950836,95.66649832422732 211.7897249896696,95.61360819062497 210.44396492355736,95.1140902621549 209.61535283044873,95.1434736697121 209.6388595564943,95.8310454065468 208.2049492677105,96.1366328451402 208.53404343234948,94.82025618658473 206.38905468068498,92.40494008539561 204.2029291584409,90.67131903953002 203.3037968871947,89.64289977503313 203.94435517193867,89.08461503144952 202.39291125292695,88.16197603415816 202.92768927046455,87.33924062256072 199.448693815711,84.88278775079205 197.16854138928377,85.54097608006958 195.01179927459688,85.17074514485105 191.4446535971718,84.96506129195159 187.78935769707513,83.98365547954627 188.15371195078288,85.02382810706595 186.63752812083914,85.38230567926169 185.85005279831006,84.82402093567768 184.00477480372817,84.90041779532602 183.56402369037207,84.70061062393818 183.36421651898422,84.0718057022174 182.44745420320405,83.56053441072497 180.6844497497821,83.66631467793009 179.86759101969585,82.31467793030623 178.6511179468339,81.16872503558143 178.73926816950544,80.6457003810662 177.97529957302194,80.31660621642723 176.85285340434316,78.347917910105 177.3523713328128,77.99531701942044 177.45227491850673,77.61333272117912 176.29456866075913,77.13144483724345 175.56586015334443,77.13732151875506 174.3670171250173,75.99724530554144 173.56778843946503,76.44387310040874 173.13879068913212,77.12556815573184 172.1750149212616,77.13144483724345 170.4531472384184,76.00899866856423 170.40613378632725,75.19213993847839 172.63927276066246,74.28125430421024 172.5981359900829,73.6054359303979 172.00459115743095,72.93549423809758 170.9232817593317,72.56526330287863 170.07703962168827,71.4428171341994 168.63725265139286,70.64358844864798 170.26509343005375,70.06767366052998 176.70593636655806,71.11372296956043 177.24071438409567,71.60736421651889 178.69813139892506,71.78366466186117 179.31518295762342,71.64262430558726 179.87346770120746,71.12547633258322 181.30737798999124,70.56719158899962 181.3896515311512,70.39676782516854 181.1898443597625,70.14407052017833 179.99100133143534,69.09214452963585 180.14967173224366,67.54070061062373 178.90969193333612,67.4407970249298 178.7862816215966,67.23511317203075 178.60410449474273,67.04705936366568 178.15747669987584,66.84725219227782 177.85188926128245,66.57104816124162 177.74023231256615,66.38299435287655 177.87539598732803,66.22432395206825 177.66971213442855,65.95399660254364 177.25246774711886,65.65428584546144 177.0761673017766,65.4250952665168 177.0820439832882,65.30168495477689 176.71768972958043,65.01960424222949 176.45323906156744,64.91970065653557 176.0066112666997,64.9902208346723 175.4953399752077,65.10775446490062 175.0016987282488,65.34869840686846 174.28474358385733,65.54850557825633 173.97327946375233,65.53087553372193 173.65006198062497,65.23116477664014 173.83223910747884,64.90794729351278 173.69707543271613,64.51420963224824 173.11528396308654,64.5788531288738 172.72154630182243,64.47894954317987 172.16326155823842,64.50833295073706 171.0408153895596,64.76103025572726 170.22395665947334,64.80216702630723 169.95362930994875,64.75515357421608 169.50112483357026,64.36141591295154 169.64804187135536,64.17923878609808 170.37675037877005,64.02644506680139 170.57068086864714,63.5739405904229 170.3003535191217,63.121436114044414 170.67646113585184,62.739451815802674 171.15834901978752,62.43386437720928 170.8586382627057,61.998989945365196 171.08195216013917,61.72278591432899 171.25825260548143,61.35255497911004 171.27000596850465,60.95294063633432 171.11721224920794,60.7061200128553 167.93792755153535,60.917680547265945 166.94476837610767,60.61209310867255 166.21605986869298,60.165465313805676 165.54611817639181,59.665947385336025 166.23368991322695,59.4073733988338 165.8752123410308,59.184059501400355 164.54708231945253,59.1370460493092 164.50594554887297,57.60323217483147 164.54708231945253,49.55805518571226 158.18263624259654,39.80276387677347 149.40287406455147,31.757586887654263 146.48804003489272,29.489187824250656 142.93264772048997,29.653734906570143 137.0089527569901,28.783986042881548 132.6954685276155,29.736008447729677 130.06271521050456,27.714430007805092 130.09209861806175,24.27069464211908 125.69046416601641,19.99834718332486 121.62380056012083,20.621275423534435 117.45135668702054,18.458656627335944 117.75694412561393,14.156925760984542 115.28873789082205,12.758275561269114 113.28478949543185,13.551627565309362 110.71667967494605,13.298930260318738 108.18382994352818,14.662320370965377 101.91928745236615,10.7484504843669 92.35204995179284,2.762040310362068 87.92690877370192,4.384004407510937 81.95032367659847,2.8325604884992295 77.54868922455314,0.24682062347902137 73.10004132041665,0.687571736834715 69.72094945135619,0 64.32615582388317,0.8344887746202244 60.441669344841465,4.7307286166843046 56.18695193058122,6.834580597768843 49.37587805885838,7.040264450667888 40.79592305220116,11.647582755612683 30.405950140029997,6.0235985491942 19.204995179284197,3.596529084982292 12.793535650337068,8.215600752949877 10.284192644965627,7.404618704375234 5.823791377805924,11.077544649005874 5.37128690142744,16.172627519397526 9.285156788026333,21.60268123593975 9.796428079518352,25.275607180570393 8.685735273862756,28.143427758137996 11.212708323768176,35.79486708599225 8.356641109223782,41.59515173775301 2.0803452550385395,45.12116064459856 0,47.536476745787674Z"/>
  </g>
</svg>