<?xml version="1.0" encoding="UTF-8" standalone="no"?>
<svg viewBox="0 0 256 167.70231378763867" xmlns="http://www.w3.org/2000/svg">
  <style>
    g.zone {
      fill: lightgray;
      stroke-width: 2;
      stroke-linecap: square;
      stroke-linejoin: bevel;
      stroke-miterlimit: 3;
      stroke-opacity: 0.8;
      stroke: black;
      fill-opacity: 0.3;
    }
  </style>
  <g class="zone" id="zone">
    <path d="M0,97.19885895404151 1.1846592709985366,98.70808240887504 1.8581299524569879,100.54998415213974 1.9311568938188688,102.14846275752804 3.529635499207163,103.0247860538827 3.5702060221867544,105.27239302694159 4.065166402535695,106.14060221870069 13.542440570522833,108.01496038034882 25.88399366085599,114.03562599049125 28.512963549920602,115.83695721077693 30.36297939778144,117.92228209191744 35.815657686212475,120.13743264659287 33.37331220285237,121.17603803486534 31.920887480190142,128.04868462757517 32.488874801902114,129.51733755942968 31.012107765451443,132.02459587955667 29.535340729001923,133.35530903328072 31.003993660855297,137.41236133122027 32.67549920760662,139.70053882725873 32.17242472266269,143.13280507131554 32.3347068145799,145.86725832012664 34.21717908082418,149.98922345483365 34.695911251980824,151.40107765451685 43.3536608557846,149.85128367670373 45.8041204437397,147.74973058637093 61.93496038034871,146.29730586370871 68.0611093502382,141.61546751188587 79.34782884310658,142.04551505546792 80.97876386687832,141.66415213946104 82.56912836767047,142.8650396196513 95.25147385103034,139.69242472266257 100.70415213946139,140.78782884310635 115.37445324881087,134.7752773375595 112.9726782884315,129.2739144215533 114.10053882725815,125.48462757527743 112.65622820919207,123.78066561014266 116.58345483359784,118.7986053882727 114.18167987321733,108.96431061806653 117.71942947702064,104.6881774960379 117.58148969889072,99.57629160063415 121.7359112519806,92.60627575277343 130.28006339144173,94.18041204437444 132.98206022187054,93.10935023771795 141.18541996830382,96.81749603803519 147.5955625990493,97.04469096671987 156.7320443740097,99.85217115689399 154.37083993660877,104.0958478605392 159.15004754358137,117.30561014263088 162.3145483359745,120.25914421553108 167.37774960380307,124.79492868462783 171.07778129952476,129.95549920760732 172.25432646592714,134.32088748019015 187.2248494453249,144.1146117274167 191.83366085578413,149.68088748019036 194.1380665610143,161.6816481774962 190.73825673534094,165.80361331220323 191.3305863708402,166.46085578446937 192.27182250396234,166.22554675118857 194.08938193343857,167.06941362916038 195.67163232963574,167.09375594294767 196.6128684627579,167.62928684627562 197.76507131537298,167.70231378763867 202.5361648177494,165.64133122028545 211.77001584786015,163.58034865293223 214.29350237717944,162.69591125198082 214.97508716323287,160.60247226624418 217.57160063391404,157.75442155309045 220.54136291600653,155.75023771790796 225.38548335974602,153.90022187004772 229.37762282091867,151.8392393026945 229.96183835182296,150.6058954041208 232.18510301109396,149.94053882725848 231.8443106180661,148.2609191759116 231.00044374009542,147.71727416798748 230.8625039619655,147.43328050713149 230.9274167987324,147.1898573692551 230.39188589540385,146.99511885895444 229.8969255150549,146.99511885895444 229.49933438985744,146.89774960380353 229.01248811410466,146.7030110935023 228.89889064976202,146.49204437400937 228.92323296354934,146.30541996830428 229.4425356576867,146.09445324881133 229.7103011093504,146.0619968304279 230.1322345483363,145.85103011093491 230.25394611727393,145.69686212361327 230.47302694136303,145.5913787638668 230.57039619651337,145.4290966719496 230.81381933438976,145.31549920760696 230.8057052297936,145.07207606973057 230.6190808240891,144.73939778129943 230.67587955625984,144.56900158478606 230.32697305863695,144.40671949286886 230.02675118858983,144.17141045958803 230.36754358161656,143.36000000000024 230.1322345483363,143.165261489699 230.06732171156943,143.01109350237735 229.76709984152114,142.6784152139462 230.06732171156943,142.46744849445327 230.40811410459614,142.36196513470676 230.45679873217074,141.96437400950873 230.90307448494394,141.7290649762285 230.8462757527732,141.41261489698906 229.92126782884336,141.17730586370823 229.4263074484944,141.17730586370823 228.8826624405709,141.0069096671949 228.65546751188563,140.8770839936611 228.56621236133145,140.70668779714774 227.99011093502332,140.42269413629177 227.96576862123604,140.3172107765453 228.20919175911243,140.13870047543577 228.18484944532514,139.90339144215554 228.28221870047548,139.7086529318543 228.2010776545163,139.35974643423143 227.88462757527685,139.3029477020601 227.57629160063357,139.3435182250397 226.85413629160053,139.651854199683 226.32671949286816,139.44900158478617 225.32868462757529,139.29483359746453 224.93109350237665,139.09198098256772 224.80938193343906,138.76741679873214 224.8661806656098,138.44285261489716 224.9554358161651,138.29679873217108 225.10960380348618,138.22377179080863 225.0446909667193,137.9884627575278 224.68767036450026,138.0533755942947 224.095340729001,137.8018383518227 223.3569572107768,137.87486529318576 221.92887480190188,137.2338510301113 221.77470681457967,137.0391125198101 221.58808240887515,136.4873534072904 221.94510301109304,136.3088431061809 222.0019017432649,136.22770206022173 222.02624405705222,135.91125198098285 222.2858954041209,135.79765451664025 222.16418383518214,135.52988906497654 222.03435816164836,135.43251980982564 221.92076069730572,135.4812044374008 221.70979397781278,135.44874801901736 221.25540412044344,135.22966719492885 220.84969889064982,135.24589540412057 220.20868462757483,135.05115689381932 219.90034865293154,134.71847860538819 219.90846275752767,134.45071315372448 219.69749603803473,134.23163232963537 219.6244690966717,134.0287797147386 219.49464342313792,133.93952456418384 219.4621870047545,133.82592709984178 219.59201267828826,133.61496038034883 219.5595562599048,133.53381933439022 219.0240253565763,133.42022187004758 218.2937559429471,133.06320126782916 218.22072900158523,132.94960380348653 218.23695721077635,132.7548652931853 218.12335974643372,132.6737242472267 217.133438985737,132.44652931854202 216.45996830427856,132.47087163232987 216.31391442155248,132.39784469096685 216.23277337559446,132.22744849445348 216.0623771790811,132.06516640253568 216.02992076069765,131.87042789223446 215.90009508716273,131.797400950872 215.7540412044378,131.57020602218734 215.81083993660855,131.43226624405742 216.0623771790811,131.24564183835176 216.07049128367723,130.99410459587978 215.89198098256773,130.75879556259895 215.52684627575255,130.58028526149002 215.32399366085576,130.40177496038052 216.08671949286838,130.01229793977805 216.20031695721102,129.7364183835182 216.51676703645043,129.4767670364501 217.09286846275742,129.49299524564182 217.19023771790773,129.64716323296346 217.50668779714718,129.55790808240928 217.62028526148978,129.50922345483355 217.67708399366055,129.13597464342337 218.2694136291598,128.9087797147387 218.50472266244006,128.75461172741706 218.53717908082348,128.64912836767058 218.98345483359785,128.68158478605403 219.2431061806654,128.59232963549925 219.52709984152136,128.6247860538827 219.8029793977812,128.45438985736934 220.19245641838367,128.45438985736934 220.50079239302696,128.38947702060247 220.7523296354995,128.17039619651337 220.97141045958745,128.1785103011095 221.24729001584728,127.50503961965164 221.79904912836813,127.44824088748032 221.9694453248815,127.62675118858984 221.83961965134657,127.72412044374016 221.8233914421554,127.91074484944525 221.9694453248815,128.04868462757517 223.4056418383514,128.47873217115722 223.3812995245641,128.55987321711584 223.54358161648133,128.98992076069732 223.42998415213987,129.22522979397812 223.94117274167994,129.8824722662443 223.94117274167994,130.1421236133124 224.03042789223412,130.25572107765444 224.59841521394608,130.60462757527733 225.38548335974602,130.89673534072887 225.71816164817776,131.22129952456447 226.05083993660833,131.1969572107766 226.47277337559422,131.42415213946126 226.5782567353407,131.31866877971478 226.96773375594316,131.22941362916004 227.12190174326423,131.00221870047537 227.13812995245652,130.86427892234545 227.535721077654,130.62085578446903 227.79537242472267,130.61274167987347 227.7548019017431,130.72633914421553 227.80348652931883,130.86427892234545 229.0449445324881,131.66757527733765 229.2721394611722,131.93534072900192 229.43442155309057,132.00025356576882 229.98618066561025,131.97591125198093 230.22960380348664,132.05705229794012 230.55416798732222,132.31670364500823 231.12215530903305,132.58446909667194 231.65768621236157,132.9901743264661 232.2175594294774,132.8116640253566 232.7530903328048,132.94148969889096 233.19125198098297,132.9333755942948 233.90529318541988,132.64126782884324 234.24608557844658,132.62503961965152 234.48139461172684,132.5276703645012 235.82833597464375,132.72240887480186 237.1752773375595,132.5520126782885 238.57901743264597,132.56012678288462 239.05774960380379,132.4303011093503 239.56893819334385,132.1868779714739 239.70687797147377,131.9596830427892 240.42091917591065,132.07328050713184 240.81039619651312,132.01648177496054 241.28101426307478,132.15442155309046 241.6461489698888,132.09762282091913 241.87334389857403,131.80551505546757 241.96259904912822,131.58643423137906 242.46567353407332,131.62700475435807 242.82269413629118,131.46472266244086 242.87949286846307,131.3592393026944 243.025546751188,131.28621236133134 242.92817749603765,131.16450079239314 243.04988906497644,130.90484944532503 242.91194928684652,130.79936608557855 243.26896988906438,130.89673534072887 243.8856418383521,130.8237083993664 243.99923930269358,130.67765451664036 244.01546751188587,130.53160063391428 244.3806022186999,130.15023771790797 244.98916006339144,130.05286846275763 245.35429477020546,129.64716323296346 251.2857052297943,129.290142630745 251.11530903328094,128.43004754358148 251.92671949286816,127.26161648177523 252.59207606973047,126.6449445324881 252.92475435816104,126.24735340729006 253.82541996830474,126.02827258320154 254.30415213946137,125.50896988906531 254.82345483359762,125.46028526148956 254.83968304278875,125.11949286846284 255.2453882725835,124.8841838351826 256,123.98351822503948 252.67321711568965,120.74599049128386 245.6626307448499,111.1551188589541 244.39683042789218,111.04963549920762 241.6218066561015,109.41058637084032 235.5524564183839,106.93578446909676 234.17305863708356,105.06142630744863 234.6031061806656,104.17698890649781 232.53400950871682,102.1971473851032 228.8420919175913,100.85020602218687 212.118922345483,93.29597464342302 208.91385103011143,92.56570522979383 200.5157527733752,86.80469096671952 197.74072900158453,86.1231061806655 189.58605388272585,82.788209191759 180.9201901743259,79.11251980982576 175.32957210776496,77.3842155309037 173.1306497622824,73.0999683042789 170.6477337559427,67.54992076069753 163.33692551505584,62.259524564183714 159.28798732171128,57.423518225039814 159.4259270998412,56.60399366085587 157.0647226624403,56.17394611727439 154.6467194928686,54.55923930269438 146.87340729001625,47.28088748019037 141.45318541996866,42.818129952456644 139.52202852614863,39.35340729001579 135.32703645007916,36.26193343898568 132.08139461172684,35.945483359746824 127.83771790808278,33.16234548335999 118.49026941362942,25.283549920761146 112.94022187004805,21.859397781299883 110.97660855784459,21.526719492868732 107.39017432646554,22.151505546751444 103.10592709984189,14.775784469097111 95.82757527733732,8.544152139461147 93.85584786053886,7.895023771791143 93.37711568938221,6.783391442155641 86.64240887480231,4.341045958795533 81.48183835182226,1.460538827258375 78.24431061806608,0 78.6013312202851,3.756830427892414 68.2233914421554,3.7892868462758567 64.15011093502356,2.1258954041206772 58.18624405705245,2.3855467511887944 56.09280507131521,7.335150554675318 52.11689381933485,8.795689381933693 42.86681458003181,8.690206022187215 34.00621236133123,11.124437400951173 30.338637083994147,11.65996830427913 25.178066561014095,12.820285261489795 22.086592709983982,12.26041204437397 10.840443740095187,17.242472266244512 8.560380348653446,21.510491283677013 10.004690966719522,25.072583201268195 7.700285261489334,29.689508716323566 10.053375594295263,33.74656101426311 12.722916006339467,37.41413629160077 18.784152139460918,44.42472266244051 19.108716323296495,49.48792393026966 23.676957210776127,56.70947702060235 48.25458003169596,54.94060221870069 53.25286846275765,58.340412044374084 56.14148969889095,58.478351822504 57.285578446909895,63.19264659271028 59.58998415213893,65.31854199683038 59.28164817749565,67.69597464342303 62.83562599049126,68.74269413629165 62.89242472266199,75.08792393026965 52.514484944532306,81.0436767036452 43.25629160063427,81.91188589540431 34.49305863708402,86.09064976228206 27.00374009508764,91.46218700475448 20.309603803486176,91.26744849445325 0,97.19885895404151Z"/>
  </g>
</svg>