<?xml version="1.0" encoding="UTF-8" standalone="no"?>
<svg viewBox="0 0 172.99321006998846 256" xmlns="http://www.w3.org/2000/svg">
  <style>
    g.zone {
      fill: lightgray;
      stroke-width: 2;
      stroke-linecap: square;
      stroke-linejoin: bevel;
      stroke-miterlimit: 3;
      stroke-opacity: 0.8;
      stroke: black;
      fill-opacity: 0.3;
    }
  </style>
  <g class="zone" id="zone">
    <path d="M0,85.36007521153269 2.166092134126927,87.15178105087307 3.636895435080734,88.94348689021155 5.669278178211515,90.86890212054807 6.819178940773051,92.74083359448461 8.637626658311518,93.78376684425 8.90504544030381,94.85344197221346 10.135171837461515,96.05682649117308 3.4497022876846093,107.60931787318462 3.9310560952692155,110.28350569309424 4.358926146453843,110.84508513527692 5.562310665415358,111.32643894285962 6.097148229396142,111.83453462864232 6.17737386399231,112.34263031442691 5.909955082003818,113.46578919878846 6.230857620392288,113.94714300637116 7.434242139350003,114.34827117935771 8.423691632719205,115.0970437689327 8.530659145515362,115.95278387130385 9.27943173508846,116.75504021727693 8.90504544030381,118.52000417841923 10.883944427034612,121.70228768411154 12.6489083881769,123.46725164525192 14.06622793273073,124.16254047842885 15.884675650269196,124.21602423482693 18.211219053588458,124.88457118980385 19.14718479055768,126.46234200355192 19.334377937953807,127.63898464431155 18.959991643165356,128.60169225947885 19.441345450749964,129.83181865663846 20.805181238903813,131.06194505379617 22.62362895644228,132.07813642536345 24.38859291758077,133.57568160451345 24.73623733416923,134.56513109787886 24.575786064976892,136.57077196281153 27.46390891048073,137.8811239945673 27.677843936073042,138.30899404575385 27.597618301473076,138.97754100073078 28.292907134649994,139.4588948083154 28.506842160242307,140.26115115428846 28.42661652564614,141.1168912566596 27.303457641284595,142.80162958320193 26.688394442703842,145.07468923012692 25.859396218534577,145.39559176851537 23.078240885826897,144.8607542045327 22.169017027057663,143.49691841637886 20.992374386296138,143.22949963438847 20.056408649326915,143.28298339078654 17.917058393399977,150.23587172255193 14.3871304711192,151.064869946725 13.558132246946135,150.93116055572887 13.531390368746145,151.091611824925 11.36529823461922,152.02757756189231 10.96417006163458,152.42870573487886 9.172464222292302,152.88331766426347 9.092238587696135,153.31118771545 8.58414290191154,153.5518646192423 8.477175389115382,153.36467147184808 7.7551446777422735,153.39141335004615 7.648177164946117,153.68557401023654 8.183014728926901,154.08670218322308 7.1935652355615005,154.83547477279808 6.123890107596131,154.9959260419923 4.519377415649978,154.70176538180195 4.519377415649978,154.94244228559424 4.733312441242292,155.23660294578463 5.589052543615347,155.39705421497885 6.5785020369807485,156.81437375953269 6.5250182805807695,156.4934712211423 13.584874125146124,153.44489710644424 15.162644938892287,153.73905776663463 15.323096208088423,154.5947978690058 15.08241930429612,155.0226679201923 11.124621330826916,157.0550506633231 9.814269299073043,158.20495142588462 9.680559908076898,158.57933772067307 9.9212368118692,159.64901284863654 10.32236498485384,160.53149482920767 10.990911939830768,161.14655802778654 14.895226156899996,163.09871513632115 17.83683275880381,167.13673874438462 19.575054841742308,167.8855113339596 22.30272641805381,169.6772171733 22.489919565446133,170.1585709808827 22.409693930849965,171.76308367282886 22.810822103834603,172.48511438420576 23.880497231799975,173.50130575577117 25.217591141753836,174.14311083255 26.688394442703842,175.3732372297077 26.634910686307663,175.8545910372923 26.180298756923047,176.362686723075 22.757338347438427,178.58226261360002 24.73623733416923,180.45419408753847 24.575786064976892,183.71670322782884 25.0571398725615,184.75963647759232 25.591977436542283,185.13402277238077 32.063511960723076,186.17695602214616 35.16556983181923,191.9532017131519 36.28872871618077,193.5309725268981 41.10226679201923,195.26919460984038 44.68567847069998,198.77238065392308 45.32748354747693,200.56408649326156 45.060064765488434,201.58027786482694 45.461192938473076,202.56972735819423 45.6483860858692,203.71962812075577 48.02841324558844,207.22281416483847 48.83066959156152,207.70416797242117 49.20505588634997,208.29248929280195 49.285281520946135,208.45294056199617 48.456283296773066,208.29248929280195 48.75044395696535,209.46913193356346 49.33876527734231,210.03071137574423 50.32821477071151,211.6352240676904 51.157212994884574,212.38399665726539 50.06079598871922,212.67815731745577 49.01786273895384,213.77457432361732 46.29019116264614,214.97795884257692 44.04387339392304,215.084926355375 42.733521362165376,214.8175075733827 40.995299279223076,214.8175075733827 42.11845816358462,215.99415021414424 42.14520004178461,216.68943904732114 41.58362059960384,217.33124412409808 41.63710435600382,217.75911417528462 42.81374699676154,218.45440300846153 43.74971273373076,218.64159615585385 44.76590410529615,218.21372610466923 45.6483860858692,218.3206936174654 45.32748354747693,219.17643371983655 45.51467669487305,221.0483651937731 47.065705630419224,222.7598453985154 47.78773634179613,223.13423169330386 49.01786273895384,223.18771544970193 49.57944218113461,223.4818761098923 50.78282670009613,225.11313068003656 52.57453253943461,225.94212890420962 53.61746578919998,225.80841951321347 54.95455969915385,226.36999895539424 55.86378355792308,226.5037083463904 57.06716807688459,227.57338347435385 58.64493889063076,228.37563982032694 59.71461401859613,229.2046380445 60.24945158257691,230.22082941606538 60.59709599916537,231.74511647341347 60.14248406978076,232.57411469758654 60.24945158257691,232.97524287057308 60.73080539016152,233.51008043455576 62.228350569311516,234.1786273895327 62.60273686409997,235.30178627389424 63.29802569727308,236.1575263762654 63.91308889585383,237.60158779901732 63.45847696646922,238.48406977958845 62.950381280688426,238.77823043977884 63.16431630628074,239.25958424736154 63.0038650370846,239.63397054215 63.53870260106539,240.356001253525 64.90253838921923,240.99780633030386 66.05243915178077,242.17444897106347 67.41627493993842,242.8697378042404 68.88707824088843,244.3940248615885 69.36843204846923,244.71492739997885 70.09046275984615,244.68818552177885 70.99968661861539,243.45805912462114 74.26219575890767,242.70928653504615 74.77029144468845,241.88028831087308 75.51906403426536,241.5861276506846 76.1341272328423,240.32925937532693 75.27838713047305,239.6607124203481 74.12848636791152,239.1258748563673 74.28893763710386,237.52136216442116 74.71680768829228,237.22720150423078 76.1341272328423,237.17371774783268 77.6584142901923,236.50517079285385 78.46067063616537,235.56920505588653 78.86179880915381,234.09840175493463 81.72317977645766,232.97524287057308 83.3544343466,232.54737281938657 84.29040008356922,233.00198474877308 85.41355896793077,233.1624360179673 87.98077927504613,232.25321215919809 89.42484069779616,232.94850099237308 93.5163480622615,233.37637104355963 94.18489501723843,232.62759845398463 98.22291862530001,231.61140708241922 100.06810822103846,229.79295936488077 101.91329781677692,228.40238169852694 102.79577979734616,228.05473728193846 104.40029248929231,228.26867230753078 107.31515721299614,229.39183119189423 109.21383056513078,230.7556669800481 110.41721508409229,232.14624464640002 111.19272955186537,232.33343779379425 112.26240467983074,232.2264702809981 117.63752219784998,230.14060378146922 119.91058184477306,229.73947560848268 121.00699885093462,230.24757129426538 121.59532017131538,233.67053170375002 122.79870469027689,235.06110937010385 122.93241408127304,234.95414185730579 123.19983286326153,235.22156063929808 123.49399352345381,235.890107594275 124.40321738222305,237.01326647863655 124.72411992061151,237.12023399143462 125.36592499738846,238.24339287579616 126.08795570876538,238.96542358717116 127.07740520213078,239.52700302935384 127.58550088791537,240.6234200355154 128.92259479786924,241.23848323409615 130.28643058602307,242.25467460566153 130.954977541,243.24412409902885 131.03520317559997,244.3672829833904 132.0246526689654,245.75786064974423 132.9606184059346,246.53337511751732 133.36174657891925,247.46934085448655 135.28716180925767,249.0203697900346 136.14290191162692,250.91904314216924 137.23931891779227,252.14916953932885 138.30899404575385,252.97816776350192 138.33573592395382,253.48626344928462 139.99373237229997,254.93032487203462 140.9296981092654,255.43842055781923 142.21330826282306,255.91977436540193 143.01556460879615,256 146.22458999268846,254.50245482085 147.45471638984617,254.42222918625194 147.98955395383075,253.94087537866923 149.1127128381923,253.48626344928462 151.73341690170383,253.48626344928462 154.11344406142308,252.282878930325 155.95863365716153,251.8015251227404 156.5202130993423,251.40039694975385 156.62718061213846,250.785333751175 157.56314634910768,250.0365611616 159.88968975243074,250.91904314216924 161.41397680977693,251.7747832445423 164.2486158988846,251.8015251227404 165.69267732163462,252.63052334691346 168.34012326334613,253.5397472056827 169.6772171733,253.780424109475 172.80601692259614,252.282878930325 172.4583725060077,252.30962080852308 172.99321006998846,252.0422020265327 172.67230753159998,251.7480413663423 172.67230753159998,251.2666875587577 171.57589052543844,250.89230126397115 171.46892301264228,250.14352867439615 170.9340854486577,249.84936801420577 170.6666666666692,249.42149796302115 169.7039590515,249.18082105922886 169.30283087851154,248.53901598245 168.6610258017346,248.11114593126538 168.52731641073845,247.790243392875 168.6610258017346,247.3623733416904 167.91225321216152,246.8007938995077 167.56460879557304,245.91831191893846 165.9066123472269,245.16953932936346 165.21132351405,244.52773425258462 164.38232528987695,241.88028831087308 163.28590828371537,240.16880810613077 161.92207249556154,237.25394338242884 161.57442807897306,235.4087537866904 158.15146766948845,232.11950276820193 157.2422438107192,230.4615063198577 154.5947978690077,228.18844667293462 154.5145722344115,227.9477697691423 154.7819910164,227.57338347435385 156.0923430481577,226.7443852501827 153.44489710644615,226.26303144259808 152.74960827326922,226.4502245899923 151.59970751070767,226.28977332079808 151.33228872871538,225.7549357568154 151.46599811971154,225.487516974825 152.2682544656846,225.05964692363847 152.5891570040731,224.41784184685963 152.40196385668077,223.5086179880904 152.48218949127693,221.5297190013577 152.10780319649228,220.0321738222077 149.78125979316923,218.82878930324807 148.76506842160384,217.78585605348272 147.05358821686153,217.5451791496923 146.0908806016923,216.95685782931153 145.6362686723077,217.0905672203058 144.94097983913076,216.528987778125 144.91423796093457,216.66269716912115 144.53985166614612,215.5395382847596 144.8607542045346,214.5768306695904 144.72704481353847,214.14896061840577 143.14927399979229,212.063094118875 141.73195445523845,210.93993523451346 141.19711689125768,209.97722761934617 139.8867648595,209.68306695915578 139.05776663533075,208.98777812597885 138.97754100073078,208.05181238900963 138.30899404575385,207.22281416483847 138.2287684111577,206.44729969706347 137.23931891779227,206.153139036875 135.42087120025002,204.3614331975346 134.96625927086538,204.22772380653848 134.05703541209616,204.33469131933464 131.6770082523769,205.21717329990577 128.84236916327305,205.1636895435077 128.12033845189615,204.54862634492883 126.86347017653846,204.12075629374232 126.7832445419423,203.29175806957116 126.35537449075767,202.78366238378655 124.42995926041924,203.02433928757887 123.49399352345381,202.62321111459232 123.25331661966152,202.4360179672 123.2800584978615,201.9546641596154 121.48835265851922,200.61757024965962 121.3279013893269,200.32340958946924 121.5685782931154,200.00250705108078 120.49890316515382,199.03979943591347 119.34900240259229,199.03979943591347 116.1132351405,200.10947456387694 115.15052752533458,199.78857202548846 114.45523869215766,199.86879766008462 113.75994985898075,199.28047633970576 112.34263031442691,198.82586441032115 111.54037396845384,197.78293116055576 110.25676381489615,196.6597722761923 109.08012117413843,196.12493471221154 108.19763919356538,194.94829207145 107.04773843100385,193.9855844562827 106.64661025801921,192.64849054632884 106.11177269403463,192.40781364253652 105.52345137365766,191.17768724537694 104.37355061109612,190.45565653400192 104.34680873289614,189.86733521362115 103.78522929071536,189.41272328423653 103.25039172673078,188.39653191267115 101.80633030398076,187.38034054110577 101.75284654758458,186.41763292593654 101.11104147080384,185.5618928235654 100.9773320798077,184.92008774678845 101.4319440091923,184.1178314008154 101.4319440091923,183.20860754204423 101.99352345137308,182.64702809986346 101.53891152198847,182.16567429228076 101.48542776559229,181.52386921550192 100.12159197743844,181.0692572861173 99.77394756084998,180.77509662592692 100.2285594902346,178.79619763919422 99.77394756084998,178.26136007521154 98.67753055468462,177.53932936383464 98.91820745847693,176.79055677426152 97.55437167032308,175.02559281311923 97.63459730492305,174.27682022354423 96.59166405515766,172.96646819178846 96.56492217695767,172.03050245482115 96.11031024757305,171.20150423064808 96.59166405515766,170.9608273268558 96.69863156795383,170.1318291026846 97.01953410634229,169.7039590514981 97.9822417215115,168.9819283401231 98.14269299070384,168.09944635955193 99.23910999686919,166.57515930220384 103.33061736133074,163.28590828371537 103.38410111772693,163.01848950172308 101.61913715658844,162.16274939935192 99.69372192625382,162.18949127755192 97.44740415752692,161.41397680977693 97.15324349733844,160.53149482920767 96.35098715136536,159.62227097043845 96.0033427347769,159.43507782304422 94.90692572861154,159.46181970124232 93.5163480622615,158.28517706048268 93.16870364567305,158.20495142588462 93.5163480622615,157.5096625927077 93.11521988927306,156.17256868275385 93.59657369685767,155.69121487516924 96.2440196385692,154.91570040739614 97.17998537553842,154.2471534524173 98.65078867648843,153.60534837564038 101.1912671054,153.28444583725002 101.88655593857693,151.62644938890577 103.57129426512304,149.96845294056155 104.74793690588078,149.21968035098655 107.28841533479616,148.3104564922173 108.19763919356538,147.5884257808423 109.21383056513078,147.34774887705 110.47069884048847,145.98391308889614 109.18708868693459,144.8607542045327 108.49179985375767,144.5933354225423 106.83380340541153,142.42724328841538 105.57693513005384,141.17037501305768 105.4164838608615,139.64608795570962 102.82252167554616,138.60315470594423 102.4481353807577,138.28225216755385 101.91329781677692,137.07886764859424 102.15397472056922,136.49054632821537 102.10049096417305,135.9824506424327 102.60858664995384,135.60806434764424 102.66207040635382,135.36738744385192 101.7261046693846,134.16400292489232 99.9611407082423,133.201295309725 99.07865872767306,131.730492008775 98.75775618928459,130.4736237334173 98.2496605035,129.88530241303653 94.61276506842306,127.31808210592307 93.67679933145384,127.29134022772308 93.11521988927306,126.97043768933462 90.92238587694615,127.18437271492692 89.23764755040382,125.87402068317115 88.08774678784229,125.68682753577693 86.64368536509227,124.69737804241153 83.48814373759615,123.44050976705384 82.6324036352269,122.31735088269039 81.02789094328074,121.38138514572307 77.84560743758462,118.332811031025 74.79703332288845,117.55729656325 72.89835997075382,118.27932727462692 69.04752951008076,117.79797346704231 66.69424422856152,116.0864932623 65.35715031860386,115.6051394547173 57.388070615273065,110.95205264807308 53.991852083988434,110.97879452627116 51.71879243706535,110.52418259688655 50.56889167450382,110.63115010968271 49.445732790138464,110.31024757129423 46.93199623942308,109.18708868693268 45.32748354747693,108.11741355896731 43.64274522093461,107.84999477697693 42.439360701976895,107.1547059438 39.71168912566919,106.432675232425 36.63637313276923,104.29332497649615 33.400605870680735,103.33061736132885 30.19158048678843,100.84362268881155 28.82774469863458,100.41575263762692 27.7848114488692,100.57620390682115 26.207040635119235,100.36226888122884 23.506110937011524,98.54382116369038 17.622897733207697,98.2496605035 17.676381489607675,97.95549984330961 20.029666771126927,96.72537344615 21.5806957066769,95.4952470489923 20.724955604303844,95.09411887600577 19.976183014730747,95.33479577979807 18.959991643165356,94.71973258121731 18.87976600856539,93.86399247884616 17.83683275880381,92.74083359448461 17.382220829419193,91.72464222291923 16.47299697064996,91.40373968452886 16.285803823253836,90.92238587694615 13.290713464953843,88.83651937741539 12.67565026637689,87.52616734565962 11.124621330826916,86.21581531390385 12.67565026637689,85.38681708973078 14.681291131307681,85.36007521153269 18.53212159198073,84.77175389115193 21.68766321947306,83.5951112503923 22.51666144364612,83.5951112503923 24.174657891988456,84.29040008356922 25.190849263553844,85.38681708973078 26.260524391519215,85.68097774992115 28.560325916642288,87.5529092238596 29.950903582996126,88.24819805703463 30.72641805076921,88.89000313381347 32.143737595323046,89.37135694139808 34.06915282565767,89.18416379400385 35.4597304920115,89.69225947978654 35.83411678679615,89.63877572338846 36.68985688916921,89.02371252480961 37.518855113342276,87.79358612765 39.36404470908073,86.40300846129807 40.40697795884231,85.97513841011154 40.48720359344228,84.39736759636537 40.72788049723458,83.62185312859039 40.326752324246144,82.07082419304231 39.49775410007308,80.94766530868077 39.47101222187689,80.03844144991153 37.492113235142284,78.27347748877115 37.411887600546116,77.60493053379231 36.529405619973076,76.69570667502308 18.746056617573043,80.81395591768462 18.746056617573043,82.73937114802115 10.161913715661504,82.73937114802115 0,85.36007521153269Z"/>
    <path d="M27.544134545076897,30.16483860858654 27.597618301473076,31.127546223753853 28.39987464744615,32.17047947351923 28.720777185838422,32.09025383892306 28.506842160242307,32.70531703750191 28.640551551238456,33.07970333228847 29.255614749819205,33.40060587067884 30.646192416173047,35.03186044082308 31.90306069153074,35.99456805599039 32.063511960723076,36.98401754935769 32.46464013371151,37.35840384414614 34.36331348584615,37.91998328632691 34.497022876842294,38.64201399770192 34.81792541523076,39.06988404888845 37.17121069675382,39.81865663846345 37.786273895330766,40.62091298443652 39.81865663846535,41.50339496500577 40.19304293325,42.359135067376926 40.64765486263462,42.46610258017308 42.064974407188444,42.412618823775006 45.91580486785769,42.760263240363464 52.89543507782307,41.15575054841731 56.58581426929999,40.915073644625004 60.0355165569846,39.95236602945769 64.15376579964614,39.203593439882695 68.9673038754846,40.08607542045384 74.58309829729613,39.631463491069226 77.47122114279998,46.26344928444615 78.67460566175768,46.93199623942308 79.98495769351536,48.29583202757693 79.47686200773076,49.23179776454615 79.34315261673461,50.38169852710769 82.73937114802304,50.03405411051923 87.41919983286536,48.72370207876346 88.99697064661153,47.89470385459039 89.74574323618462,46.90525436122499 88.16797242243845,45.94254674605768 85.97513841011154,42.653295727567304 86.21581531390385,39.658205369267314 87.5529092238615,38.187402068317304 87.92729551864615,36.18176120338462 86.8041366342846,35.35276297921345 85.89491277551538,33.93544343465962 85.78794526271922,33.2401546014827 85.19962394233845,32.09025383892306 84.15669069257308,31.341481249348064 82.47195236603075,28.667293429436544 80.14540896270769,27.41042515407885 79.10247571294231,26.01984748772691 77.79212368118844,25.886138096730765 76.56199728403074,25.29781677635 74.47613078449997,24.816462968767297 67.7371774783269,21.95508200146345 67.57672620913075,21.446986315680753 68.08482189491535,18.371670322782695 67.9511125039192,17.676381489605774 68.16504752951153,16.339287579651913 69.74281834325768,14.815000522301927 70.41136529823461,13.825551028936527 70.27765590724226,13.584874125144223 67.28256554894227,12.488457118980765 65.57108534419997,11.418781991017298 64.44792645983462,10.028204324663458 64.12702392144615,7.808628434138452 63.939830774053824,7.594693408546139 62.78993001149229,7.300532748355757 60.81103102475769,5.909955082001917 60.195967826180734,5.054214979630762 59.26000208921151,3.0753159928980605 58.88561579442306,0.13370939099614615 58.003133813853815,0.29416066019038145 57.06716807688459,0 55.409171628538466,0.02674187819998928 52.14666248824998,1.7649639611403884 49.552700302938426,1.5242870573499856 47.76099446359615,2.7276715763096004 42.84048887496153,5.027473101430774 42.439360701976895,5.375117518019233 41.90452313799231,6.444792645984602 39.230335318084585,8.156272850726912 36.15501932518843,9.627076151676919 33.21341272328461,10.429332497649996 32.063511960723076,11.044395696228849 31.715867544134614,11.739684529405768 31.5019325185423,13.665099759740391 31.074062467357674,14.788258644103838 31.5019325185423,17.08806016922691 34.149378460253835,18.13099341899039 35.219053588219204,18.82628225216731 38.240885824715384,19.46808732894615 37.38514572234613,20.083150527525003 34.92489292802692,20.5912462133077 34.25634597304999,21.15282565549037 33.82847592186536,21.821372610467304 33.72150840906921,23.452627180611547 34.95163480622691,25.083881750757687 32.116995717123054,26.126815000523067 31.18102998015383,27.0360388592923 30.53922490337689,28.292907134649994 29.683484801003836,28.827744698632678 27.865037083465367,29.44280789721153 27.544134545076897,29.656742922803843 27.544134545076897,30.16483860858654Z"/>
  </g>
</svg>