<?xml version="1.0" encoding="UTF-8" standalone="no"?>
<svg viewBox="0 0 256 146.04952898902533" xmlns="http://www.w3.org/2000/svg">
  <style>
    g.zone {
      fill: lightgray;
      stroke-width: 2;
      stroke-linecap: square;
      stroke-linejoin: bevel;
      stroke-miterlimit: 3;
      stroke-opacity: 0.8;
      stroke: black;
      fill-opacity: 0.3;
    }
  </style>
  <g class="zone" id="zone">
    <path d="M0,3.5614256579584924 7.334175002428451,16.36515489948532 6.103525298631007,20.119258036320925 2.9958240264159812,21.617170049528916 4.58696707778999,24.967272020976825 7.116635913373231,25.445858016897954 10.000582693989283,27.347771195493642 12.772652228804526,28.35466640769123 21.051568417985962,27.42857142857127 23.581237253569206,30.356026026998016 27.13644750898394,33.45751189666885 29.293192191901348,35.90016509662982 38.06312518209231,39.85937651743226 36.73924444012884,45.39730018451943 38.460910944935804,46.73982713411636 46.06234825677392,49.87239001650949 46.547149655239686,52.92415266582455 47.2681363503937,58.039428959891 46.11828687967388,58.5055841507233 45.75779353209732,59.375740506943735 50.51257647858632,61.25279207536132 72.20433135864867,78.15247159366773 78.35757987763412,80.78780227250627 78.44459551325639,82.93833155287903 83.09993201903472,85.67310867242865 89.42099640672096,87.31397494415799 94.10119452267696,85.59852384189523 104.21986986500904,94.04525589977611 110.84548897737187,98.18471399436683 113.52432747402197,96.74274060405925 116.24045838593814,97.01000291346979 118.3599106535886,96.17092356997166 120.97037972224948,97.65018937554618 120.64717878993896,102.19986403806924 125.06011459648442,104.48713217441959 129.36117315723084,103.82829950470973 134.01650966300917,108.34689715451049 133.9854326502869,111.98912304554705 136.7699329901914,114.12722152083099 141.33203845780372,113.1203263086334 147.5971642225891,114.04020588520916 151.35748276196978,113.86617461396507 154.44032242400715,116.26531999611493 163.72613382538617,124.7742060794404 170.4574147810043,135.09177430319468 172.73225211226625,134.1967563367966 173.9131785957075,135.8500534136152 175.57269107507074,137.04962610469033 177.9034670292318,138.0067980965326 179.39516363989515,138.82723123239725 180.79984461493623,139.05720112654132 182.73905020879843,139.72224919879537 183.4103136835971,140.1324657667277 185.29979605710395,140.07031174128355 187.05875497717787,138.87695445275304 189.3584539186175,138.61590754588667 192.5096630086432,137.3666116344562 193.1063416529089,136.76993299019097 195.19471690783706,135.57657570166046 196.729921336312,133.4446926289207 197.91084781975323,132.79829076429968 200.28513159172584,132.56832087015607 200.01165387977068,144.1600466155185 231.80343789453207,143.42041371273146 234.6998154802374,145.03020297173893 237.48431582014192,145.96872875594815 241.89103622414274,146.04952898902533 243.29571719918383,145.73875886180411 245.68864717879035,145.73875886180411 246.34126444595515,145.05506458191658 246.99388171311992,144.843740895406 248.1685927940174,144.8375254928618 249.84053607846903,144.43973973001786 250.91580071865585,143.7933378653973 251.54355637564296,142.9418277168103 252.62503641837444,142.30164125473394 253.10362241429556,141.60551616975758 253.84947071962722,141.3071768476252 255.11119743614609,141.19529960182524 255.7700301058564,140.9901913178593 256,140.15111197436116 255.98756919491072,139.31824803340723 255.73895309313409,138.5537535204425 253.68787025347197,138.03787510925488 252.07808099446405,137.9384286685438 250.74798484995597,137.53442750315565 247.93240749732914,137.62765854132212 246.83228124696555,137.88249004564383 245.0049528989024,137.7271049820332 243.59405652131667,137.8638438380108 242.4814994658638,137.6400893464114 239.35515198601576,137.56550451587796 237.9566864135184,137.8265514227443 236.20394289598914,137.01854909196803 234.65009225988118,136.01786928231465 232.1266388268426,133.96057104010833 231.13217441973427,133.52549286199834 230.52928037292395,132.41293580654502 229.9698941439252,132.33213557346784 228.7019520248617,131.8908419928132 228.62736719432868,131.61736428085803 229.92017092356986,130.1380984752835 231.52996018257778,128.87637175876418 231.03272797902272,128.79557152568657 230.38011071185795,128.78935612314237 229.07487617752753,128.05593862289953 227.79450325337476,127.72030688550018 226.66329999028883,127.18578226667908 225.9050208798679,126.6139652325915 225.7993590366126,126.19131785957033 225.97960571040088,125.06011459648398 225.84908225696793,124.65611343109629 225.52588132465743,124.20238904535282 225.17781878216925,124.04700398174175 225.3580654559584,123.56220258327643 225.78692823152332,123.25143245605476 225.1094493541809,122.95309313392235 224.12120034961634,123.0898319898995 222.96513547635277,123.91648052830881 222.18199475575415,124.70583665145162 220.76488297562378,125.16577643973928 219.4037098183934,126.5083033893362 218.34087598329583,127.29144410993437 216.84296397008873,127.41575216082313 216.0287462367678,126.93095076235781 215.22695930853618,125.89297853743793 214.88511216859263,125.55113139749395 214.69243468971507,124.9544527532287 215.50043702049135,123.99728076138643 215.28289793143614,123.23900165096592 215.55637564339133,122.74176944741133 214.81674274060427,121.04496455278202 214.93483538894796,120.31154705253918 215.5874526561136,119.5967757599298 215.99766922404552,118.82606584442046 215.99145382150175,117.16655336505765 215.7987763426242,116.90550645819131 213.2442458968633,117.12926094979072 211.13100903175658,117.67000097115645 206.02194814023477,118.00563270855535 203.57307953772917,117.85646304748937 202.03165970671049,117.35923084393477 199.96814606195997,117.02359910653543 199.20365154899528,116.93036806836896 197.96057104010856,116.96766048363547 197.58143148489896,116.61959794114773 195.05797805185946,115.51325628823905 195.72302612411352,114.58716130911864 195.74167233174742,113.77294357579862 195.6733029037582,113.27571137224402 195.25065553073702,112.47392444401238 194.7720695348159,112.08856948625771 192.15538506361128,111.84616878702482 192.0372924152667,111.64727590560307 192.1864620763327,111.2619209478484 191.75138389822314,111.08788967660432 190.80042730892464,111.49810624453708 190.1540254443045,111.59133728270355 187.31358648149913,111.71564533359187 185.57948917160377,110.62173448577201 184.8647178789944,110.61551908322782 182.707973196077,111.90832281246942 181.64513936097944,111.11896668932661 179.24599397882918,108.70739050208749 174.64659609595077,110.48499562979487 173.94425560842978,110.54714965523902 170.46363018354893,109.62727007866326 170.426337768282,97.25240361270224 170.14042925123843,97.14052636690275 170.02855200543848,96.9043410702145 169.6183354375066,96.35738564630458 169.73021268330564,95.99067689618293 169.64941245022803,95.77935320967235 169.32621151791838,95.5431679129841 169.22676507720686,95.33184422647352 169.27648829756217,94.97756628144072 169.20811886957384,94.89055064581889 168.8041177041857,94.88433524327425 168.35039331844223,94.72895017966363 168.3939011362538,94.60464212877487 168.00854617849868,94.61707293386415 168.03962319122098,94.38710303972009 167.60454501311054,93.8836554336213 167.7350684665435,93.65990094202144 167.54239098766683,93.17509954355612 165.043799164805,91.68340293289276 165.31106147421553,90.85675439448346 166.70331164416825,90.10469068660758 166.69088083907985,89.73798193648595 165.60940079634838,89.85607458483007 163.99961153734137,90.64543070797288 162.77517723608855,90.49004564436225 162.4768379139557,90.57706127998408 162.1536369816452,90.40303000873999 160.4879090997382,90.55841507235105 159.13295134505245,90.0363212586188 158.74759638729734,90.37816839856234 158.0576867048656,90.63921530542868 157.18131494610097,90.70758473341704 155.87608041177054,90.41546081382883 154.82567738176226,90.57706127998408 154.50247644945176,90.4341070214623 154.36573759347417,90.16062930950712 154.75730795377302,89.86228998737471 155.5031562591047,89.72555113139711 154.831892784306,88.70000971156605 154.40924541128484,88.73730212683255 152.8118869573662,88.09711566475661 152.8429639700885,87.8422841604349 152.38923958434503,87.56259104593552 152.0163154316792,87.6309604739243 150.2573565116053,87.09022045255858 148.26842769738778,87.22695930853617 148.0073807905219,87.48800621540208 147.22424006992327,87.68689909682384 146.22977566281494,87.61852966883548 145.11100320481745,87.74905312226844 143.15936680586597,87.25803632125847 142.07167136059076,86.92240458385913 140.1200349616393,87.14615907545854 139.21880159269702,86.82917354569267 138.572399728076,87.26425172380267 136.32242400699258,86.35680295231573 135.85626881615983,86.31951053704924 135.5144216762163,85.84713994367274 134.74371176070696,85.52393901136223 134.73128095561856,85.26289210449633 134.8120811886962,85.10129163834107 135.2285131591727,84.77187530348637 131.64222589103656,80.97426434883918 130.1940370981839,81.13586481499443 129.08769544527567,80.28435466640747 129.22443430125324,78.86102748373291 127.77003010585595,76.85345246188193 126.8004273089253,76.52403612702723 126.04836360104899,75.99572691075032 123.99106535884223,75.47363309701807 120.2866854423624,73.64630474895581 119.4600369039531,73.6525201515 119.23006700980861,73.56550451587819 119.01252792075427,72.4280858502472 118.74526561134371,72.1297465281148 119.06846654365334,71.63872972710483 118.91308148004272,71.50199087112723 116.29018160629347,71.65116053219366 115.23356317374055,71.0544818879284 110.24881033310706,69.21472273477688 110.06234825677414,68.91016801009984 110.85170437991651,68.08973487423518 111.51675245217056,66.70370010682711 111.42352141400454,66.03243663202842 112.026415460814,65.39225016995204 111.9829076430033,64.93852578420857 111.68456832087045,64.63397105953153 110.14936389239641,64.06836942798857 108.937360396232,63.770030105855724 108.22880450616725,63.73273769058923 107.68806448480152,63.297659512479235 107.30892492959104,63.42196756336755 107.09760124308046,63.70166067786693 106.08449062833823,64.00621540254397 105.62455084005101,63.434398368456385 105.69913567058401,62.8936583470911 106.61901524715933,62.97445858016872 106.62523064970397,62.62639603768055 106.08449062833823,62.427503156258794 106.61279984461558,61.88054773234887 106.59415363698167,61.55113139749417 106.79304651840386,61.45168495678307 107.42701757793562,61.613285422938326 110.30474895600703,59.69272603670961 109.8572399728082,59.36330970185446 110.44148781198462,58.57395357871209 111.06924346897173,58.53044576090096 111.31164416820461,58.39992230746801 110.70253471885053,57.616781586869834 111.08788967660476,57.37438088763695 111.79023016412575,57.63542779450286 112.00776925318097,57.48625813343688 111.70321452850348,57.21899582402633 111.83995338448106,56.88336408662699 112.23152374477993,56.796348451004725 112.63552491016807,56.16859279401761 112.52986306691278,55.839176459162466 112.92764882975628,55.78945323880714 113.30678838496677,55.57812955229655 113.90346702923246,54.45935709429904 113.42488103331132,53.78187821695616 112.30610857531381,54.03049431873324 111.85238418957034,53.81917063222265 111.77158395649272,53.09818393706864 112.16936971933622,52.7874138098474 111.70321452850348,52.16587355540405 112.05127707099165,51.55054870350576 111.32407497329301,51.0284548897735 111.22462853258234,50.45042245314128 110.51607264251761,49.96562105467595 110.67767310867286,49.605127707098944 109.17354569292024,48.1072156938914 109.86967077789659,46.795765757016326 109.84480916771892,46.49121103233928 109.67699329901903,46.130717684762274 108.30960473924488,45.70185490919647 105.84830533165,45.88831698552939 103.80965329707715,45.94425560842936 103.05758958920084,45.235699718364174 100.4222589103623,44.71360590463235 99.90638049917513,44.21015829853356 98.79382344372137,43.67563367971247 99.86287268136354,43.17218607361367 99.83179566864125,42.7246770904144 101.13081480042793,42.488491793726155 101.093522385161,42.345537535204365 100.77653685539512,42.09070603088265 100.9132757113727,41.87938234437207 100.86355249101739,41.64941245022802 100.5465669612515,41.54375060697273 99.51481013887538,42.13421384869378 99.16053219384345,41.978828785082726 99.10459357094348,41.67427406040568 99.21647081674341,41.388365543362106 99.16053219384345,39.85937651743226 98.78139263863297,39.08245119937828 98.93056229969895,38.61629600854598 99.27862484218713,38.429833932213064 98.62600757502236,37.746139652325546 97.14674176944739,38.34281829659124 96.77381761678154,38.672234631445946 96.28280081577203,38.840050500145395 95.58046032825104,38.709527046712445 95.61153734097334,38.34281829659124 95.05836651451922,37.746139652325546 96.88569486258147,35.17917840147581 97.11566475672508,34.73788482082162 96.338739438672,34.650869185199355 95.82907643002856,34.38360687578881 96.18956977760513,33.9858211129453 96.9975721083814,33.67505098572362 96.58114013790488,32.3263086335825 96.79246382441546,31.996892298727794 97.48858890939093,31.872584247839033 98.37739147324483,32.35738564630436 99.99961153734114,31.804214819850237 99.09216276585421,30.82839662037451 98.55763814703312,30.791104205108013 98.12255996892355,31.157812955229655 97.83043604933535,31.24482859085148 97.61911236282477,30.971350878896736 97.929882490046,30.548703505875128 97.58181994755783,30.181994755753927 97.58803535010246,29.939594056521045 97.8242206467907,29.809070603088088 100.20471982130708,29.16266873846751 100.46576672817388,28.64679032727944 100.21715062639636,28.441682043313495 99.50237933378698,28.18685053899178 97.68126638826848,27.192386131883023 96.94784888802607,27.391279013304775 96.18956977760513,27.192386131883023 95.2696902010298,26.22278333495193 95.19510537049682,25.445858016897954 93.43614645042291,25.89958240264142 90.83189278430667,26.894046809750176 87.98523841895756,26.887831407205983 87.3015441390696,26.56463047489547 84.56676701952041,26.76973875886142 83.85821112945568,26.570845877439666 79.65038360687616,27.83257259395941 77.94114790715759,28.597067106924115 75.09449354180848,28.795959988345864 74.3486452364768,28.336020200058204 72.47780907060297,28.11226570845879 71.54549868893926,28.46032825094652 71.08555890065115,28.329804797513567 70.82451199378524,28.025250072836524 69.87977080703138,27.69583373798182 69.15256870933273,27.66475672525952 69.20229192968893,27.378848208215942 70.41429542585247,26.5832766825285 71.7195299601829,26.27250655530726 72.1608235408371,25.93065941536372 71.97436146450417,25.66961250849737 70.58211129455236,24.762163737010436 70.93638923958429,24.103331067301024 71.17257453627342,22.61163445663767 71.42740604059469,20.200058269398554 70.59454209964075,19.752549286199724 68.25133534039043,19.963872972710305 66.89016218316003,19.03156259104571 54.61474215791054,19.273963290278594 52.016703894338065,16.358939496940682 52.09128872487194,15.047489560066053 51.27085558900727,13.823055258813245 49.28192677478887,12.890744877148649 48.72875594833475,9.92599786345541 47.03816645625009,9.683597164222526 46.39176459162907,10.255414198310117 43.77508012042356,11.106924346897085 42.47606098863776,10.796154219675405 39.387005924055764,11.523356317374056 36.76410605030651,11.803049431872992 35.48373312615374,11.486063902107118 33.14674176944805,10.06273671943256 31.64261435369542,8.81344080800209 32.276585413227174,8.16703894338151 34.309022045256256,7.576575701660451 29.647470136933276,4.586967077789548 11.150432164708217,0 0,3.5614256579584924Z"/>
  </g>
</svg>