<?xml version="1.0" encoding="UTF-8" standalone="no"?>
    <svg
    xmlns:dc="http://purl.org/dc/elements/1.1/"
    xmlns:cc="http://creativecommons.org/ns#"
    xmlns:rdf="http://www.w3.org/1999/02/22-rdf-syntax-ns#"
    xmlns:svg="http://www.w3.org/2000/svg"
    xmlns="http://www.w3.org/2000/svg"
    xmlns:inkscape="http://www.inkscape.org/namespaces/inkscape"
  >
  <style>
  g.comuni {
      fill: lightyellow;
      stroke-width: 3.5;
      stroke-linecap: square;
      stroke-linejoin: bevel;
      stroke-miterlimit: 3;
      stroke-opacity: 1;
      stroke: black;
      fill-opacity: 0;
  }
  </style>
  <g inkscape:groupmode="layer" id="layer1" inkscape:label="Base"/>
  <g inkscape:groupmode="layer" id="layer2" inkscape:label="Comuni">
  <g class="comuni" id="comuni">
<path d="M235.743689320387,122.28349514563027 232.8357281553373,121.16504854368848 228.58563106795887,116.64155339805737 226.24932038834737,116.46757281553262 218.74330097087324,120.41941747572729 214.86601941747364,124.42097087378592 215.3382524271839,125.9370873786394 217.37631067961163,127.87572815533922 218.12194174757283,132.20038834951447 223.11766990291247,132.52349514563113 229.43067961164797,135.18291262135926 230.92194174757037,136.30135922330103 229.33126213592004,138.58796116504857 233.95417475728087,140.6508737864074 235.42058252427037,144.80155339805793 240.0683495145605,147.23728155339737 237.5083495145603,149.7475728155336 231.02135922329828,151.4625242718447 226.34873786407528,147.46097087378607 220.30912621359067,136.89786407766857 218.49475728155167,136.1522330097074 216.2081553398059,136.25165048543707 214.39378640776687,137.44466019417393 213.7972815533958,139.5572815533967 210.96388349514467,139.8306796116494 205.62019417475554,136.40077669902897 201.46951456310504,135.2326213592232 194.55999999999844,135.90368932038757 187.52621359223107,134.83495145630977 180.89009708737893,132.2998058252424 172.06679611650188,133.19456310679547 165.18213592232817,130.68427184465924 155.36466019417188,123.9487378640774 151.46252427184294,119.59922330097103 148.35572815533737,116.02019417475695 146.76504854368707,110.32854368932009 142.83805825242527,105.65592233009708 136.57475728155194,103.59300970873649 132.42407766990144,104.1895145631058 130.58485436892954,105.68077669902819 125.48970873786199,104.88543689320304 118.50563106796035,101.57980582524164 106.92349514563077,94.27262135922335 98.34873786407529,91.98601941747582 86.64233009708491,86.79145631067857 81.84543689320112,83.73436893203873 78.56466019417259,78.58951456310545 74.61281553397791,75.95495145631018 59.20310679611445,61.78796116504752 38.15145631067807,35.56660194174676 36.883883495144396,35.26834951456299 36.75961165048361,34.19961165048517 32.93203883494972,34.299029126213085 29.651262135921183,30.67029126213505 27.1409708737867,30.59572815533999 27.016699029125913,27.240388349514625 24.406990291259973,27.240388349514625 24.53126213592076,25.37631067961164 21.82213592233043,25.351456310678778 21.871844660192625,23.4873786407758 18.963883495142916,23.412815533980737 18.91417475728072,20.156893203883296 10.886213592230584,19.759223300969836 11.0601941747571,12.998834951455141 9.61864077669691,12.725436893204234 9.792621359223427,10.041165048543235 8.3759223300961,5.244271844659445 3.3304854368907364,5.269126213592309 2.311456310678637,3.852427184464984 0.2733980582509067,3.5044660194172517 0,0.7704854368922903 139.2093203883472,0 142.71378640776447,9.370097087378868 145.9448543689308,11.855533980582255 150.41864077669797,19.709514563105873 155.0166990291259,33.82679611650457 167.51844660193967,49.98213592232923 176.24233009708527,57.56271844660194 179.77165048543537,63.353786407766734 185.26446601941464,66.38601941747547 193.8889320388323,72.69902912621274 195.52932038834834,75.6815533980575 199.45631067961017,76.84970873786325 202.71223300970584,78.81320388349415 205.0733980582502,81.62174757281419 212.9273786407738,87.78563106796133 221.42757281553423,92.98019417475682 229.95262135922047,94.34718446601842 242.42951456310487,97.85165048543567 250.2337864077663,103.54330097087254 252.8186407766994,106.5009708737862 252.89320388349444,111.62097087378663 251.8741747572788,114.67805825242645 256,119.49980582524135 254.88155339805644,120.96621359223263 247.22640776698867,121.33902912621323 245.88427184465993,122.9794174757275 246.00854368932073,125.19145631067822 247.077281553395,127.08038834951405 244.9398058252429,127.15495145631088 240.41631067961,124.07300970873642 235.743689320387,122.28349514563027Z"/></g>
  </g>
  </svg>
  