<?xml version="1.0" encoding="UTF-8" standalone="no"?>
<svg viewBox="0 0 256 204.16668871543942" xmlns="http://www.w3.org/2000/svg">
  <style>
    g.zone {
      fill: lightgray;
      stroke-width: 2;
      stroke-linecap: square;
      stroke-linejoin: bevel;
      stroke-miterlimit: 3;
      stroke-opacity: 0.8;
      stroke: black;
      fill-opacity: 0.3;
    }
  </style>
  <g class="zone" id="zone">
    <path d="M0,71.12051858711527 1.7102791374510729,72.9831988358259 4.334964942452245,73.5928032808581 9.33033470035654,71.50998809366345 14.071702606165188,73.40653525598692 14.765974335228865,76.26828945627793 16.848789522422305,75.15068130705203 19.74441063632614,76.38682365392344 23.994708294748108,75.76028575208423 25.07844953036117,78.89297526127909 22.115094589231667,82.53366847466646 23.36817039290769,85.0228866252151 21.217621378488584,87.44437094853927 22.419896811748366,89.47638576531406 17.627728535521072,89.42558539489421 14.105569519776816,91.52533403889467 18.338933721391765,95.42002910438009 18.372800635003397,95.99576663579946 15.849715570841926,97.94311416854156 16.25611853419833,99.09458923138028 14.647440137584551,100.14446355338052 16.814922608810672,103.26021960576837 16.08678396613296,105.30916787935017 20.675750760683258,103.75128985315625 21.217621378488584,109.47479825373826 23.859240640296775,110.643206773384 18.81307051197143,117.53512369361054 29.53194867045773,119.85500727609502 27.144331260747588,122.3780923402577 25.095382987168186,129.20227543325979 25.501785950522184,131.7761608678411 30.531022622040513,133.14777086916385 30.666490276491846,128.96520703796875 31.767164968911924,126.7807911099356 36.37306522026683,124.25770604577414 41.57163645984812,131.82696123825974 49.56422807249596,130.77708691625952 53.052520174626174,131.5729593861629 56.82868104246607,134.80724963619627 56.473078449530725,138.75274507210034 51.39304140759375,145.83093001719928 52.358248445562495,146.22039952374746 55.40627067072228,148.25241434052225 57.421352030692454,151.52057150416846 61.31604709617667,153.50178595052338 62.80619129514373,156.6852758301369 64.66887154385556,157.7182166953313 68.29263130043711,157.22714644794343 70.86651673501723,160.37676941394412 79.97671649689215,162.9845217621383 80.07831723772945,162.67971953962277 88.17250959121458,160.07196719142863 92.11800502711985,159.14062706707392 93.50654848524961,155.0427305199115 97.16417515544279,148.6080169334576 94.86122502976534,144.71332186797338 91.3559994708305,141.85156766768236 88.84984786347364,140.37835692551994 85.97116020637682,136.11112581029334 84.0068792168277,134.04524407990573 79.77351501521275,126.57758962825861 81.80552983198754,126.03571901045208 84.34554835295603,129.08374123561427 90.7463950257971,138.05847334303544 94.40402169599028,139.3284826035197 96.48683688318613,141.61449927239133 97.80764651409022,144.45932001587653 103.64968911231655,147.62587643868304 105.47850244741434,150.11509458923288 103.73435639634923,155.12739780394298 102.63368170392916,156.49900780526573 98.23098293425124,158.44635533800903 94.25162058473434,162.73051991004144 91.93173700224986,163.74652731842883 87.03796798518287,163.64492657759033 85.86955946553712,165.49067336949392 88.6974467522153,168.6402963354946 85.81875909511848,174.31300436565797 85.37848921815045,176.44661992327127 89.95052255589373,177.14089165233614 93.87908453499197,181.54359042201406 99.24699034263864,185.76002116682199 101.92247651805846,190.5521894430493 104.39476121180128,197.12237068395453 107.42584998015644,196.8006350046308 114.47016801164254,195.0564889535669 116.53604974202896,193.56634475459865 116.53604974202896,191.1617938880815 117.53512369360935,189.28218018256504 118.11086122502871,188.6048419103072 120.3460775234829,187.38563302024158 122.8014287604187,187.14856462495175 129.21920889006438,191.24646117211415 132.41963222648494,194.61621907659887 134.85805000661372,194.07434845879234 135.28138642677715,193.5494112977916 141.9870353221325,192.33020240772723 141.6652996428112,189.1467125281137 144.18838470697267,187.97830400846797 148.43868236539222,186.53896017991954 150.47069718216702,186.40349252546702 152.43497817171615,186.70829474798373 156.51594126207274,188.87577721920985 158.5140891652335,189.36684746659773 158.3955549675892,192.17780129646889 161.02024077259034,194.98875512634004 163.4247916391051,195.54755920095357 162.15478237862206,200.8815980949874 164.18679719539685,202.96441328218086 169.11443312607548,202.23627463950314 171.56978436301128,202.65961105966534 173.04299510517373,204.16668871543942 181.86532610133656,198.7310490805671 183.66027252282032,196.86836883185768 188.36777351501493,193.48167747056596 190.7723243815321,192.26246858050155 191.97459981478949,191.11099351766163 190.73845746792045,189.31604709617787 190.51832252943646,187.89363672443528 189.654716232305,186.40349252546702 189.51924857785366,184.08360894298255 189.68858314591904,182.7966662256925 185.64148696917647,178.56330202407875 184.45614499272372,171.67138510385098 183.8465405476927,170.60457732504375 185.65842042598348,168.08149226088227 193.07527450720954,167.6073554703014 198.68024871014725,169.1483000396883 203.38774970234186,166.76068262997816 209.60232835031056,167.11628522291352 212.2270141553117,166.151078184946 218.76332848260412,170.82471226352774 230.3966133086381,154.50085990210496 241.55576134409486,149.38695594655516 252.95197777483781,147.87987829077989 256,144.06985050932715 254.746924196324,141.91930149490804 255.25492790051769,139.80261939410056 248.78634740045095,133.9097764254544 243.1136393702876,130.89562111390504 242.69030295012655,129.65947876703362 243.52004233364158,127.57666357983899 241.67429554173916,124.935044318032 236.42492393173683,119.56713851038533 226.6035189839936,117.97539357057858 221.62508268289392,114.99510517264326 220.30427305199223,112.11641751554524 217.019182431539,109.77960047625375 215.30890329408794,107.23958195528526 205.11496229659994,104.2084931869301 204.89482735811592,101.8547426908328 201.45733562640677,97.41817700754083 200.89853155179202,95.25069453631471 200.59372932927772,92.86307712660458 203.18454822066485,86.58076465140903 208.50165365789047,80.55245402831152 211.27874057415,73.13559994708305 208.45085328747183,63.788331789919496 185.31975128985275,53.96692684217507 181.10332054504482,55.15226881862783 174.1606032543984,54.11932795343342 165.32133880142857,54.32252943511042 163.1199894165908,53.42505622436854 162.9167879349114,52.22278079110996 158.44635533800783,52.22278079110996 157.46421484323446,51.96877893901311 156.8884773118151,52.08731313665863 156.49900780526573,52.37518190236831 140.32755655510007,35.67879349120316 126.03571901045088,20.55721656303774 68.37729858446978,7.010451117873269 54.627331657625916,0 54.32252943510922,1.6594787670324251 50.69876967852767,3.793094324646918 41.453102262203814,10.837412356131818 27.093530890328942,10.109273713454105 24.11324249239242,15.849715570843129 25.332451382456814,27.737002248975173 28.312739780393336,40.67416324910745 23.723772985845443,62.68765709750062 17.576928165100018,61.94258499801588 5.198571239581291,66.85328747188869 0,71.12051858711527Z"/>
  </g>
</svg>