<?xml version="1.0" encoding="UTF-8" standalone="no"?>
<svg viewBox="0 0 256 185.49413632406382" xmlns="http://www.w3.org/2000/svg">
  <style>
    g.zone {
      fill: lightgray;
      stroke-width: 2;
      stroke-linecap: square;
      stroke-linejoin: bevel;
      stroke-miterlimit: 3;
      stroke-opacity: 0.8;
      stroke: black;
      fill-opacity: 0.3;
    }
  </style>
  <g class="zone" id="zone">
    <path d="M0,65.48471347365225 1.573206329697396,66.91370922312726 6.476366057252914,67.60854201874335 10.330721565012652,69.18174834844075 11.287755415576767,70.80739488912793 16.059814615660606,74.55686997490623 21.815127771802523,76.58892815076568 23.89962615865176,77.72950273979592 25.14508116966251,78.7651969068475 24.98776053669314,80.96768576842331 30.651303323603393,83.20950478824192 36.74747785117987,90.76089517078923 47.03886925795065,97.42080196650826 51.391406770112454,104.30357965893344 52.49265120090175,107.86951400624747 58.6281558867201,109.82291186562223 61.34193680544867,112.22205151841021 55.38997285809364,121.18932759768555 60.50289342961018,125.54186510984829 64.23925846264056,141.92943104419552 42.86987248425218,155.28857479387455 39.88078045782675,164.8064730885436 47.28796026015355,164.229630767655 54.15762789983081,165.0031238797558 57.50069135043871,166.41900957648383 57.9071029856091,168.45106775234234 55.71772417678029,171.8859015721819 51.95513903825408,173.17068674143454 45.872074563425514,174.38992164695037 40.864034413888554,177.65432478107172 39.723459824857386,179.3193014800017 41.10001536334354,182.15107287345685 52.00757924924387,185.49413632406382 65.83868489783379,184.95662416141707 83.65524658165512,171.9383417831717 96.69974906539633,167.61202437650385 96.17534695549658,163.20704665335134 99.54463051159844,160.19173452143195 105.75879551390427,159.20848056537108 130.405694679161,162.45977364674545 148.47134736518709,160.3490551544013 162.42044348850263,156.7962308598352 163.63967839401755,151.14579812567192 167.4153735852917,141.52301940902328 170.1029343985244,138.966559123265 178.27049726020408,137.26225226609313 190.89547805602513,133.7880882880117 203.46801864085637,127.5739232857068 212.74993598606952,120.31095406360426 220.72084805653608,117.66272340861339 233.6998002765396,118.88195831412925 235.508987555692,118.44932657346209 238.41941926563177,100.2001331489736 252.14564449224025,86.04127618169704 256,76.69380857274525 240.53013775797498,62.31208070876256 238.51118963486346,52.61064167562924 242.9817176217546,42.266810057868675 240.5432478107229,38.438674655605695 238.0523377887014,31.778767859886653 246.57387207456352,12.88718185077092 251.87033338454341,3.0153121319203193 208.9218005838056,0 185.2450453218609,13.870435806831793 139.17631996722417,11.104214677114369 120.70425564602768,18.28852358273223 94.57592052030522,19.743739437702132 85.73974496850435,24.948430378450336 72.19706048036107,22.745941516874538 65.81246479233796,22.81149178061224 58.16930404055991,24.030726686127164 58.30040456803345,26.888718185077185 43.57781533261712,33.98125672146245 42.463460849079915,40.208531776515265 37.11455932811026,43.17140369744486 2.818661340708145,42.58145132380834 3.9723459824872287,45.295232242535974 1.756747068160726,48.625185640395955 2.713780918728567,52.51887130639664 6.083064474830428,57.461361192195895 4.876939622063418,59.034567521893294 2.530240180265237,60.67332411532746 0,65.48471347365225Z"/>
  </g>
</svg>