<?xml version="1.0" encoding="UTF-8" standalone="no"?>
<svg viewBox="0 0 256 200.9630383180712" xmlns="http://www.w3.org/2000/svg">
  <style>
    g.zone {
      fill: lightgray;
      stroke-width: 2;
      stroke-linecap: square;
      stroke-linejoin: bevel;
      stroke-miterlimit: 3;
      stroke-opacity: 0.8;
      stroke: black;
      fill-opacity: 0.3;
    }
  </style>
  <g class="zone" id="zone">
    <path d="M0,29.630835311403477 4.687690742623924,40.80027127839852 24.74059003051744,51.62247089408679 51.043743641912265,60.65061602802992 63.60212501413439,70.69153385328156 69.82344297502594,90.97592404204694 99.10704193511853,128.88255905956666 113.31479597603908,144.36351305527117 122.60336837345766,149.42737651180954 123.50039561433536,150.8452582796402 129.6059681247879,153.1601672883445 132.73109528654265,157.9636034814033 134.29365886741184,159.2078670735816 132.1813043969738,161.05979428054422 130.82129535435647,163.05640330055147 130.47405900305586,164.44534870577442 130.70554990392566,166.8181304396941 129.4323499491376,169.21984853622556 123.90550469085548,168.69899400926644 124.2527410421643,171.33220300666565 141.6434949700509,181.11269356843772 150.6137673787704,185.134847971062 172.08454843450076,195.49406578500856 178.94246637278223,196.91194755283925 186.63953882672192,196.3621566632724 218.0644286198705,200.9630383180712 236.4100825138461,196.30428393805497 256,178.73991183451807 255.45020911043113,174.97818469537543 255.24765457217106,169.16197581100604 222.2312648355353,157.35593986661902 251.31230925737609,149.62993105007166 197.3749293545871,115.16672318299754 199.60302927546414,98.84661467163896 224.48830111902214,96.35808748728235 227.15044647902906,82.23714253419107 180.73652085452943,58.162088843675356 174.05222109189825,48.52628009494589 151.30824008138805,39.4402622357853 134.6698315813304,38.86153498360872 115.39821408387559,25.695489996608487 96.76319656381068,0 0,29.630835311403477Z"/>
  </g>
</svg>