<?xml version="1.0" encoding="UTF-8" standalone="no"?>
    <svg
    xmlns:dc="http://purl.org/dc/elements/1.1/"
    xmlns:cc="http://creativecommons.org/ns#"
    xmlns:rdf="http://www.w3.org/1999/02/22-rdf-syntax-ns#"
    xmlns:svg="http://www.w3.org/2000/svg"
    xmlns="http://www.w3.org/2000/svg"
    xmlns:inkscape="http://www.inkscape.org/namespaces/inkscape"
  >
  <style>
  g.comuni {
      fill: lightyellow;
      stroke-width: 3.5;
      stroke-linecap: square;
      stroke-linejoin: bevel;
      stroke-miterlimit: 3;
      stroke-opacity: 1;
      stroke: black;
      fill-opacity: 0;
  }
  </style>
  <g inkscape:groupmode="layer" id="layer1" inkscape:label="Base"/>
  <g inkscape:groupmode="layer" id="layer2" inkscape:label="Comuni">
  <g class="comuni" id="comuni">
<path d="M255.9037593984999,72.75789473684056 256,65.10676691729408 251.86165413534454,57.792481203008265 247.29022556391462,53.07669172932134 232.3248120300755,44.22255639097554 226.2616541353425,32.5293233082703 222.6045112782013,28.583458646615078 212.4992481203061,21.750375939850365 201.09473684210806,17.323308270674044 198.01503759398807,9.960902255638173 193.20300751879762,5.389473684208259 184.3969924812053,3.7052631578946738 176.1203007518807,0 169.19097744361244,0.6255639097746919 158.2676691729355,6.640601503757643 145.66015037594156,9.960902255638173 130.02105263158109,19.729323308269276 111.73533834586827,20.210526315786954 99.99398496240956,23.386466165413893 88.54135338345803,29.44962406015032 77.28120300752042,32.38496240601329 60.87218045113167,43.59699248120084 38.11127819548905,47.01353383458491 30.31578947368556,50.14135338345837 25.118796992480952,53.557894736842435 24.781954887220287,55.819548872180654 20.73984962406495,59.7172932330824 4.042105263162178,66.69473684210413 0,72.18045112781934 3.1278195488734593,82.71879699248215 15.83157894736753,93.01654135338441 19.103759398494585,106.24962406014964 30.219548872185445,112.4090225563896 34.454135338347854,118.71278195488658 41.91278195489068,123.7172932330841 45.81052631579242,137.1428571428564 45.18496240601773,146.71879699248043 40.5172932330877,155.7654135338333 30.363909774439037,165.10075187970023 14.676691729325102,171.5488721804508 12.174436090226333,177.90075187969782 7.073684210528683,183.38646616541303 7.073684210528683,189.35338345864594 12.751879699247548,199.50676691729458 10.875187969923473,217.07067669172918 12.03007518797274,222.07518796992673 19.58496240601568,227.9458646616561 33.25112781955195,232.37293233082897 49.612030075187214,234.87518796992433 74.34586466165402,235.98195488722013 88.68571428571846,229.7263157894732 110.91729323308651,228.57142857142736 119.48270676691828,226.5503759398497 164.378947368422,208.79398496240802 170.15338345864782,203.83759398496395 173.32932330827475,195.32030075187882 182.32781954887415,186.41804511278295 186.12932330827576,168.85413533834495 190.1714285714311,160.76992481203084 196.33082706767107,154.85112781954803 197.1969924812063,147.00751879699104 199.12180451128387,143.63909774436047 218.08120300752486,132.9082706766906 223.90375939849733,126.70075187970056 235.40451127819549,121.7443609022565 245.12481203007653,112.4090225563896 251.0917293233094,97.49172932330737 249.02255639097828,94.26766917293037 243.68120300752008,92.87218045112739 243.3924812030129,89.45563909774333 253.305263157901,78.82105263157699 255.9037593984999,72.75789473684056Z" id="15f3e70f-dbd5-477f-968a-274da3edceae"/></g>
  </g>
  </svg>
  