<?xml version="1.0" encoding="UTF-8" standalone="no"?>
<svg viewBox="0 0 238.18995765276603 256" xmlns="http://www.w3.org/2000/svg">
  <style>
    g.zone {
      fill: lightgray;
      stroke-width: 2;
      stroke-linecap: square;
      stroke-linejoin: bevel;
      stroke-miterlimit: 3;
      stroke-opacity: 0.8;
      stroke: black;
      fill-opacity: 0.3;
    }
  </style>
  <g class="zone" id="zone">
    <path d="M218.056866303717,246.2431941923834 238.18995765276603,223.78705384150837 229.51724137932172,207.21597096189512 227.5039322444146,211.55232909860626 223.01270417424402,208.3000604960674 212.3266787658926,188.47670901391533 196.99455535391115,178.71990320629874 202.87961282517298,163.54264972776573 197.1494252873706,138.14398064125976 211.08771929826088,114.75862068964986 207.52571082880306,86.26255293405349 214.18511796734026,59.93466424682368 212.3266787658926,46.306110102841366 202.10526315791964,36.54930429521379 199.7822141560936,24.934059286138577 144.64851784634848,7.124016938893592 73.40834845736853,0 39.80157289776365,1.0840895341722832 13.473684210533845,11.61524500907521 1.5486993345506974,32.832425892318525 0,54.66908650937771 2.1681790683665745,71.39503932243942 10.686025408351393,77.28009679371226 10.840895341810864,96.32909860858899 25.24379915305752,121.72776769509498 27.876588021780503,145.57773744707228 16.571082879613233,163.54264972776573 23.849969751988304,179.33938294011463 17.34543254688858,192.50332728372953 22.920750151253483,211.70719903206574 32.21294615851365,218.5214761040514 33.60677555960488,238.03508771930655 44.1379310344968,245.62371445856755 70.31094978826714,252.28312159710472 108.87356321839903,256 169.11796733213063,254.4513006654603 218.056866303717,246.2431941923834Z"/>
  </g>
</svg>