<?xml version="1.0" encoding="UTF-8" standalone="no"?>
    <svg
    xmlns:dc="http://purl.org/dc/elements/1.1/"
    xmlns:cc="http://creativecommons.org/ns#"
    xmlns:rdf="http://www.w3.org/1999/02/22-rdf-syntax-ns#"
    xmlns:svg="http://www.w3.org/2000/svg"
    xmlns="http://www.w3.org/2000/svg"
    xmlns:inkscape="http://www.inkscape.org/namespaces/inkscape"
  >
  <style>
  g.comuni {
      fill: lightyellow;
      stroke-width: 3.5;
      stroke-linecap: square;
      stroke-linejoin: bevel;
      stroke-miterlimit: 3;
      stroke-opacity: 1;
      stroke: black;
      fill-opacity: 0;
  }
  </style>
  <g inkscape:groupmode="layer" id="layer1" inkscape:label="Base"/>
  <g inkscape:groupmode="layer" id="layer2" inkscape:label="Comuni">
  <g class="comuni" id="comuni">
<path d="M0,20.29451893672266 4.3359209597726185,35.590684544813435 13.911079745941787,52.031051517292816 48.538226299687985,75.2161844271958 61.485768054571096,80.75652787579604 97.7388849682438,107.61514937661666 100.32839331921186,116.76876029169551 107.19360150552635,126.52458245119033 108.94001411432234,141.8207480592811 112.43283933192289,147.96330275229303 125.3201599623627,158.9837685250545 144.2295930369278,165.0661020936274 152.8412138320383,173.01529051987862 160.60973888496815,191.9849447188913 178.61585509291788,204.20983298047614 189.7567631145617,220.10820983298285 200.89767113619695,231.12867560574006 218.0606916019746,237.271230298752 235.28393319218702,237.271230298752 251.60385791578406,231.79110797459504 250.76076217360344,223.8419195483438 256,201.2589978828525 254.4944718889601,135.19642437073557 251.06186779581142,126.64502470007267 248.59280169371286,103.39967066572638 225.34744765937512,79.55210538696842 220.22865208185664,69.73606210303458 215.95295224652733,50.164196659610205 218.54246059750395,39.74594213126469 223.7214772994572,32.45918607386417 223.7816984239005,15.296165608095059 197.04351917195368,6.142554693016202 191.86450247000042,0 179.76005645729794,0 143.4467184191905,9.755822159490531 94.18583862619994,19.571865443424368 82.08139261349746,26.316631380852247 0,20.29451893672266Z" id="15f3e70f-dbd5-477f-968a-274da3edceae"/></g>
  </g>
  </svg>
  