<?xml version="1.0" encoding="UTF-8" standalone="no"?>
    <svg
    xmlns:dc="http://purl.org/dc/elements/1.1/"
    xmlns:cc="http://creativecommons.org/ns#"
    xmlns:rdf="http://www.w3.org/1999/02/22-rdf-syntax-ns#"
    xmlns:svg="http://www.w3.org/2000/svg"
    xmlns="http://www.w3.org/2000/svg"
    xmlns:inkscape="http://www.inkscape.org/namespaces/inkscape"
  >
  <style>
  g.comuni {
      fill: lightyellow;
      stroke-width: 3.5;
      stroke-linecap: square;
      stroke-linejoin: bevel;
      stroke-miterlimit: 3;
      stroke-opacity: 1;
      stroke: black;
      fill-opacity: 0;
  }
  </style>
  <g inkscape:groupmode="layer" id="layer1" inkscape:label="Base"/>
  <g inkscape:groupmode="layer" id="layer2" inkscape:label="Comuni">
  <g class="comuni" id="comuni">
<path d="M133.12000000000464,0 83.95636363636477,11.927272727271863 26.356363636362293,10.938181818181187 20.538181818185734,12.159999999998595 14.72000000000091,19.258181818180443 8.087272727276659,23.44727272727401 3.14181818181501,32.29090909091048 0,52.42181818181823 10.06545454545801,59.461818181816334 14.254545454547447,65.92000000000174 16.058181818185815,77.73090909091023 26.996363636367004,91.28727272727335 24.610909090907672,108.45090909090908 28.974545454548355,132.65454545454702 29.963636363639033,151.56363636363739 34.15272727272847,161.57090909091164 40.02909090908877,168.61090909090973 48.34909090909216,172.74181818181955 82.32727272727765,159.6509090909099 98.96727272727617,158.37090909090875 122.29818181818267,176.64000000000266 161.45454545454828,197.8181818181807 219.52000000000422,198.92363636363888 231.9709090909133,195.9563636363627 256,165.23636363636385 255.12727272727682,134.516363636365 248.4945454545443,115.60727272727468 240.98909090908862,105.54181818181667 240.11636363636543,91.40363636363672 236.7418181818237,83.14181818181707 220.9163636363646,74.24000000000099 208.4072727272718,63.06909090908894 168.378181818183,50.734545454547366 160.00000000000412,39.5054545454557 151.5636363636415,17.047272727272357 141.4981818181835,3.4909090909092413 133.12000000000464,0Z" id="15f3e70f-dbd5-477f-968a-274da3edceae"/></g>
  </g>
  </svg>
  