<?xml version="1.0" encoding="UTF-8" standalone="no"?>
<svg viewBox="0 0 171.59959002391932 256" xmlns="http://www.w3.org/2000/svg">
  <style>
    g.zone {
      fill: lightgray;
      stroke-width: 2;
      stroke-linecap: square;
      stroke-linejoin: bevel;
      stroke-miterlimit: 3;
      stroke-opacity: 0.8;
      stroke: black;
      fill-opacity: 0.3;
    }
  </style>
  <g class="zone" id="zone">
    <path d="M38.614280833619716,154.06354629313276 43.9057055005158,150.74000683293303 43.99316706525454,147.1978134608802 34.24120259651464,136.5275025623493 27.331738981892727,136.57123334472178 14.562350529551132,139.544926545951 5.772463272974719,137.57704133925463 0.918346429791009,133.59754014349258 0,130.44892381277654 3.4547318073140647,119.25384352579451 12.244619063890477,113.00034164673805 19.460198155107324,105.65357020840376 20.59719849675452,99.35633754697481 16.705158865734298,89.60437307823803 14.125042705844976,73.46771438332732 16.09292791253822,64.45917321489473 15.65562008883206,56.32524769388377 20.59719849675452,44.86778271267307 15.830543218315768,34.59104885548205 18.235736248721384,22.30269900922531 27.550392893748914,15.655620088828954 28.774854800134854,12.069695934403663 27.943969935088806,6.47215579091265 32.31704817219388,0.787154082676676 42.7687051588686,0 49.10966860266692,3.061154765971066 62.18517253160344,1.3993850358727535 76.48513836693212,2.84250085411488 82.3450632046456,7.652886914929217 80.28971643320739,11.063887939870803 80.50837034506357,17.317389818927268 91.8783737615293,19.591390502221657 89.56064229586865,32.404509736932624 97.95695251110517,50.028015032454825 108.18995558592371,84.05056371711639 107.6651861974726,97.43218312265095 109.06457123334846,102.7673385719164 117.81072770755239,112.91288008199619 125.1137683635142,130.44892381277654 136.7461564742086,146.3231978134617 144.57396651862152,170.55005124701086 149.03450632046534,177.67816877348898 154.98189272292376,194.42705842159262 163.11581824393784,209.42671677485302 162.1974718141468,228.58079945336542 162.59104885548672,230.37376153057807 170.55005124701086,237.72053296890925 171.59959002391932,251.18961393918565 148.02869832592935,252.4140758455747 134.253501879058,256 122.44619063887991,255.2128459173202 112.82541851725745,239.25111035189633 92.88418175606527,227.18141441749268 82.3450632046456,218.17287324906007 74.77963785446133,209.20806286299995 74.16740690126525,202.38606081311988 54.969593440386596,194.20840450973645 49.06593782029444,189.791595490262 33.67270242569104,185.6809019473856 19.197813460884873,179.55859241544036 11.195080286982028,174.48582166040356 19.547659719852284,168.14485821660213 34.59104885548205,163.72804919713082 38.43935770413601,160.01093269559118 38.614280833619716,154.06354629313276Z"/>
  </g>
</svg>