<?xml version="1.0" encoding="UTF-8" standalone="no"?>
    <svg
    xmlns:dc="http://purl.org/dc/elements/1.1/"
    xmlns:cc="http://creativecommons.org/ns#"
    xmlns:rdf="http://www.w3.org/1999/02/22-rdf-syntax-ns#"
    xmlns:svg="http://www.w3.org/2000/svg"
    xmlns="http://www.w3.org/2000/svg"
    xmlns:inkscape="http://www.inkscape.org/namespaces/inkscape"
  >
  <style>
  g.comuni {
      fill: lightyellow;
      stroke-width: 3.5;
      stroke-linecap: square;
      stroke-linejoin: bevel;
      stroke-miterlimit: 3;
      stroke-opacity: 1;
      stroke: black;
      fill-opacity: 0;
  }
  </style>
  <g inkscape:groupmode="layer" id="layer1" inkscape:label="Base"/>
  <g inkscape:groupmode="layer" id="layer2" inkscape:label="Comuni">
  <g class="comuni" id="comuni">
<path d="M154.3460334592541,148.90275229357678 151.8868861305987,144.26076632487644 146.9409606044257,141.60820291419137 147.24490016189836,139.03853211009098 150.3671883432275,138.04382083108237 150.94743658931455,136.7175391257408 149.51063140852605,134.89390178089496 149.98035617916815,133.0702644360491 151.61057744198433,131.63345925526062 156.25256341068467,131.79924446842807 163.27080410145768,126.02439287641583 164.87339449541165,121.52056125202267 169.0456556934699,119.31009174311747 174.7376146788994,118.61932002158545 187.08861305990084,119.80744738262179 190.5977334052893,115.4970318402583 185.65180787911234,111.96028062600958 184.1321100917411,107.40118726389589 188.30437128979938,103.20129519697738 195.5160280626001,100.68688613059753 213.36556934700332,98.17247706421965 217.53783054506158,94.16600107932884 217.53783054506158,89.91084727468784 222.8429573664317,82.64392876416464 236.43734484619392,88.91613599568119 245.55553157042522,94.9120345385853 255.80658391796837,105.68807339449499 256,235.63604964921498 252.04878575283166,235.30447922288008 243.4279546681047,229.86119805720276 234.2268753372907,227.12574203993296 200.9316783594152,212.39848893685692 191.2608742579591,209.4972477064197 190.48720992984434,207.97754991904847 191.34376686454183,205.38024824608587 187.5583378305429,208.30912034538335 183.5794927145163,206.40259039395477 178.716459794926,203.30793308148785 175.31786292498646,199.52250404748895 175.04155423637206,197.5054506206134 168.5759309228278,191.5095520777093 165.84047490555804,185.90048569886451 166.31019967620014,182.03216405828286 170.09562871019904,180.78877495952403 178.05331894225623,181.14797625472116 183.08213707501199,178.08094981111452 193.2502968159724,175.62180248245912 201.31851052347454,170.62061521856361 202.83820831084577,162.93923367512082 201.31851052347454,161.50242849433235 197.69886670264503,161.11559633027298 195.98575283324217,159.09854290339746 196.28969239071486,157.96567728008557 203.50134916351948,151.85925526173648 203.58424177010224,149.15143011332893 198.83173232595692,147.76988667026293 191.34376686454183,148.90275229357678 178.44015110631165,148.40539665407246 156.05914732865696,150.80928224500735 154.3460334592541,148.90275229357678Z"/>
<path d="M105.4670264436031,193.02924986508248 78.91376146789017,204.63421478683136 66.01014570965998,225.88235294117416 42.4962763086895,232.45849973016533 28.072962763088082,224.86001079330725 37.660874257961446,195.54365893146036 44.87253103076216,182.17031840258807 39.180572045332674,181.14797625472116 39.56740420938809,177.63885590933467 45.646195358876916,172.08505126821237 48.29875876956395,163.02212628170355 44.126497571505695,147.16200755531366 44.87253103076216,131.30188882892375 42.606799784134466,126.27307069616603 40.700269832703896,107.20777118186622 44.76200755531719,71.3705342687526 38.43453858607621,68.3587695628704 40.31343766864455,63.35758229897294 31.60971397733484,62.36287101996629 20.474473826228028,54.37754991904885 12.627307069615817,46.115920129519004 7.322180248245676,37.88192120884941 0,20.41921208850358 0.11052347544496587,10.693146249324988 6.935348084186333,5.9682676740419 11.853642741501057,3.7301672962764325 19.45213167836111,3.978845116026624 29.31635186184493,0.4973556395023464 64.98780356179306,0 110.02611980572071,1.4920669185090025 147.21726929303614,31.388667026442945 153.29606044252498,50.37107393416001 157.0814894765239,101.43291958985203 140.3924446842948,114.47468969238942 140.3924446842948,125.52703723691153 132.79395574743472,152.6881813275757 129.11905018888078,154.2078791149469 112.04317323259625,141.110847274689 122.2942255801394,155.20259039395359 123.42709120345128,158.35250944414295 117.15488397193867,166.2825688073379 117.34830005396638,173.9639503507807 114.88915272531098,178.63356718834132 114.58521316783438,186.9504587155956 110.71689152725273,190.87404209389976 105.4670264436031,193.02924986508248Z"/></g>
  </g>
  </svg>
  