<?xml version="1.0" encoding="UTF-8" standalone="no"?>
    <svg
    xmlns:dc="http://purl.org/dc/elements/1.1/"
    xmlns:cc="http://creativecommons.org/ns#"
    xmlns:rdf="http://www.w3.org/1999/02/22-rdf-syntax-ns#"
    xmlns:svg="http://www.w3.org/2000/svg"
    xmlns="http://www.w3.org/2000/svg"
    xmlns:inkscape="http://www.inkscape.org/namespaces/inkscape"
  >
  <style>
  g.comuni {
      fill: lightyellow;
      stroke-width: 3.5;
      stroke-linecap: square;
      stroke-linejoin: bevel;
      stroke-miterlimit: 3;
      stroke-opacity: 1;
      stroke: black;
      fill-opacity: 0;
  }
  </style>
  <g inkscape:groupmode="layer" id="layer1" inkscape:label="Base"/>
  <g inkscape:groupmode="layer" id="layer2" inkscape:label="Comuni">
  <g class="comuni" id="comuni">
<path d="M127.65907990314959,1.363680387408236 122.63825665859818,0 114.67312348668513,4.0600484261483984 109.93123486682711,3.2542372881335404 102.86489104116446,5.547699757868476 100.97433414043694,4.865859564163257 100.69539951573915,3.6881355932194806 96.1704600484263,3.2232445520572317 92.01743341404237,0.9917675544793175 85.84987893462569,2.1384987893445833 79.34140435835421,7.221307506053013 79.86828087167129,10.320581113800605 78.75254237288013,11.188377723970284 69.23777239709437,15.372397094430523 65.36368038740824,15.682324455204622 63.81404358353554,16.79806295399358 64.3099273607741,20.021307506053013 57.212590799032924,23.988377723970284 59.10314769975603,28.048426150120886 58.29733656174117,32.728329297819684 53.772397094432726,34.58789346246868 49.55738498789177,34.27796610169458 34.06101694915161,38.33801452784518 26.93268765133193,38.833898305083736 24.267312348668074,42.27409200968394 19.587409200967073,44.784503631959645 6.601452784502613,48.37966101694799 5.764648910409244,50.11525423728735 0,54.6401937046002 0.4338983050859402,56.28280871670623 6.1675544794166735,59.16513317191305 2.882324455204622,59.66101694915161 0.2169491525407679,67.59515738498835 4.431961259077317,72.15108958837752 12.521065375300008,75.71525423728735 13.202905569005226,76.86198547215481 18.161743341404016,77.45084745762671 26.467796610167476,77.35786924939337 35.67263922518133,79.06246973365643 35.11476997578575,75.90121065375182 36.63341404358434,73.23583535109016 53.43147699757792,74.2895883777243 53.86537530266386,73.57675544794057 63.101210653751814,74.19661016949097 67.25423728813574,76.30411622275923 69.6096852300233,75.5912832929777 74.9094430992725,76.14915254237329 76.52106537530221,77.29588377723856 86.62469733656205,77.66779661016967 90.99467312348675,75.71525423728735 98.9598062953998,76.30411622275923 108.35060532687591,78.9694915254231 136.21307506053233,82.56464891041145 139.49830508474437,80.05423728813574 147.58740920096707,77.66779661016967 150.59370460048575,79.83728813559277 150.59370460048575,81.20096852300101 158.77578692493955,83.71138014527891 171.23486682808695,84.73414043583455 175.91476997578795,82.7196125907996 182.6092009685217,82.84358353510923 185.89443099273814,81.97578692493956 191.44213075060662,83.77336561743374 194.63438256658753,83.77336561743374 197.08280871670624,85.880871670702 206.53559322033936,85.5089588377731 207.40338983051123,85.94285714285682 206.87651331719417,87.18256658595543 210.50266343825663,88.70121065375182 220.26537530266606,87.61646489104136 235.91670702179437,82.50266343825663 238.5510895883797,79.74430992735944 241.68135593220362,79.21743341404238 244.59467312348676,74.87845036319618 249.55351089588552,74.66150121065321 249.33656174334476,72.83292978208273 245.58644067796826,72.05811138014418 245.0285714285727,70.2295399515737 253.70653753026946,67.71912832929799 255.28716707022068,64.89878934624599 251.47506053268714,56.37578692493956 252.09491525423977,50.70411622275924 251.10314769975824,47.48087167070201 255.101210653754,43.730750605325504 256,34.773849878933135 249.7084745762737,27.552542372880126 244.1607748184052,27.304600484260845 237.49733656174558,29.81501210653655 235.54479418886103,29.69104116222691 225.62711864406788,25.07312348668293 222.21791767554618,24.51525423728735 219.92445520581126,22.314769975785747 203.74624697336586,21.32300242130643 182.76416464890985,12.273123486682932 176.65859564164577,11.653268765132532 174.42711864406786,12.45907990314739 169.00338983050904,11.467312348668074 163.26973365617388,6.136561743340365 146.84358353510925,2.479418886197193 143.86828087166907,3.843099273607631 147.18450363195964,6.198547215495184 146.53365617433295,7.872154963679721 140.7690072639237,6.849394673121893 139.18837772397248,4.927845036318077 128.99176755448153,5.702663438256627 127.65907990314959,1.363680387408236Z"/></g>
  </g>
  </svg>
  