<?xml version="1.0" encoding="UTF-8" standalone="no"?>
<svg viewBox="0 0 183.00451825619524 256" xmlns="http://www.w3.org/2000/svg">
  <style>
    g.zone {
      fill: lightgray;
      stroke-width: 2;
      stroke-linecap: square;
      stroke-linejoin: bevel;
      stroke-miterlimit: 3;
      stroke-opacity: 0.8;
      stroke: black;
      fill-opacity: 0.3;
    }
  </style>
  <g class="zone" id="zone">
    <path d="M24.321406765171663,0.12504579313684386 7.752839174502089,0.2188301379905874 9.003297105874971,2.500915862743541 7.096348760532549,4.564171449505907 7.315178898520915,6.252289656857742 3.7513737941142007,8.37806814018853 3.7513737941142007,10.159970692391887 0,13.723775796800822 2.375870069604476,26.41592380021935 7.940407864209576,28.041519111002764 8.815728416167483,31.292709732567367 14.161436072779775,36.63841738918188 24.946635730860326,42.328000976919384 29.729637318354598,48.705336426913966 50.330931737697384,59.771889119551304 61.053608499207286,75.52765905482917 71.65123946758035,81.84247160825534 71.36988643302134,83.40554402247032 67.74355843204398,85.53132250580111 69.30663084625675,100.75564782024628 67.93112712174702,102.88142630357929 67.43094394919964,107.22676761509462 70.33825863963682,116.8552936866538 66.21174746611209,120.45036023934584 66.05544022468993,124.76444010257583 66.9620222249376,130.0163634143366 70.93222615704016,134.23665893271507 69.52546098424511,137.48784955427968 65.61777994871319,141.7706679692266 71.02601050189169,150.3675662474057 70.68213457076648,171.0001221150316 74.40224691659536,182.91073391134373 76.24667236536713,194.91513005250962 73.9958480888995,199.6981316400061 69.93185981194097,204.57491757235414 70.96348760532548,206.04420564171537 66.4305776041049,215.39137867871554 63.24190987910428,217.6734644034685 62.96055684454971,219.92428867993613 66.99328367321847,241.40090365123905 58.30260105018784,251.7171815850531 60.24081084381558,253.62412993039553 66.27427036268273,256 71.15105629502852,255.34350958603045 82.0300402979606,250.8731224813783 85.34375381609362,246.65282696299982 79.37281719379712,236.39907192575419 87.81340823055406,227.42703626816453 88.5324215410898,223.3005250946398 97.8483331298091,217.54841861033165 104.35071437293831,214.89119550616817 109.44633044327692,214.10965929905956 121.01306630846386,216.14165343753885 128.51581389669226,215.86030040297982 132.6735865185023,214.64110391989226 134.58053486384028,212.890462815972 136.7063133471711,206.4193430211259 135.79973134692784,199.9482232262798 138.11307851996614,191.57015508609126 137.2064965197229,189.69446818903415 141.39553058981383,176.53339846135137 145.17816583221335,171.62535108071802 152.58712907559024,165.74819880327303 156.46354866284128,163.93503480278434 160.0586152155333,159.55843204298372 159.40212480156376,150.86774941995307 157.21382342166234,143.958969349128 163.2472829405295,136.76883624374173 161.8405177677389,125.57723775796754 172.59445597752966,120.3565758944921 179.2531444620855,113.76041030650914 173.81365246061722,104.60080595921423 181.7540603248268,97.75454878495536 180.09720356575806,79.02894126266969 182.0354133593858,76.34045671022088 181.3789229454163,67.43094394919964 183.00451825619524,62.05397484430426 182.69190377335536,57.0834045671025 178.22151666870099,50.424716082548905 177.62754915130208,43.89107339113437 174.75149590914577,39.82708511417806 173.21968494321834,34.16876297472144 154.71290755892102,25.227988765417113 153.99389424838083,23.383563316645333 134.70558065697713,11.47295152033319 133.61142996703086,7.721577726218989 131.61069727683693,6.53364269141453 123.45145927463453,8.784466967884383 118.38710465258124,8.846989864452805 108.78984002930738,5.095616070338604 101.72475271706016,3.9076810355363665 100.0366345097061,2.219562828184532 94.44083526682012,0 24.321406765171663,0.12504579313684386Z"/>
  </g>
</svg>