<?xml version="1.0" encoding="UTF-8" standalone="no"?>
    <svg
    xmlns:dc="http://purl.org/dc/elements/1.1/"
    xmlns:cc="http://creativecommons.org/ns#"
    xmlns:rdf="http://www.w3.org/1999/02/22-rdf-syntax-ns#"
    xmlns:svg="http://www.w3.org/2000/svg"
    xmlns="http://www.w3.org/2000/svg"
    xmlns:inkscape="http://www.inkscape.org/namespaces/inkscape"
  >
  <style>
  g.comuni {
      fill: lightgray;
      stroke-width: 2;
      stroke-linecap: square;
      stroke-linejoin: bevel;
      stroke-miterlimit: 3;
      stroke-opacity: 0.8;
      stroke: black;
      fill-opacity: 0.3;
  }
  </style>
  <g inkscape:groupmode="layer" id="layer1" inkscape:label="Base"/>
  <g inkscape:groupmode="layer" id="layer2" inkscape:label="Comuni">
  <g class="comuni" id="comuni">
<path d="M237.52149229522118,7.370640713707646 238.35198702352417,15.052716950532607 256,14.948905109491044 255.5847526358485,20.035685320358038 240.0129764801302,27.19870235198993 232.8499594484983,39.55231143552301 219.14679643146914,48.16869424169254 210.4266017842728,70.07299270073236 208.7656123276668,84.39902676399613 199.5263584752626,91.56204379562065 194.0243309002515,116.26926196269419 175.5458231954579,130.18004866180647 173.26196269261726,136.4087591240938 175.0267639902796,141.28791565288503 170.87429034874978,155.09489051094837 174.7153284671549,169.31711273317057 199.73398215734574,201.18734793187602 206.48175182482612,226.72506082725255 67.06244931062288,244.995944849963 33.73884833738719,245.61881589619026 0,203.57502027575086 10.692619626927058,185.71938361719927 16.298459042994498,158.83211678832666 27.40632603407306,149.9042984590472 33.94647201947032,141.70316301703653 34.05028386051188,135.9935117599349 43.912408759135936,126.02757502027667 77.75506893754994,97.89456609894954 73.39497161395177,90.73154906731764 76.61313868613699,85.64476885645065 66.0243309002515,80.45417680454209 55.64314679643437,55.95458231955169 47.96107055960941,53.982157339828355 35.08840227088327,41.42092457421215 37.89132197891699,31.247364152478163 78.6893755068945,29.378751013789017 129.45336577453764,15.467964314684112 164.74939172750405,13.599351175994965 190.80616382806627,18.167072181676268 191.0137875101494,15.779399837794053 197.24249797243672,15.5717761557183 206.68937550689452,0 223.818329278192,0 224.4412003244119,7.370640713707646 237.52149229522118,7.370640713707646Z"/></g>
  </g>
  </svg>
  