<?xml version="1.0" encoding="UTF-8" standalone="no"?>
    <svg
    xmlns:dc="http://purl.org/dc/elements/1.1/"
    xmlns:cc="http://creativecommons.org/ns#"
    xmlns:rdf="http://www.w3.org/1999/02/22-rdf-syntax-ns#"
    xmlns:svg="http://www.w3.org/2000/svg"
    xmlns="http://www.w3.org/2000/svg"
    xmlns:inkscape="http://www.inkscape.org/namespaces/inkscape"
  >
  <style>
  g.comuni {
      fill: lightyellow;
      stroke-width: 3.5;
      stroke-linecap: square;
      stroke-linejoin: bevel;
      stroke-miterlimit: 3;
      stroke-opacity: 1;
      stroke: black;
      fill-opacity: 0;
  }
  </style>
  <g inkscape:groupmode="layer" id="layer1" inkscape:label="Base"/>
  <g inkscape:groupmode="layer" id="layer2" inkscape:label="Comuni">
  <g class="comuni" id="comuni">
<path d="M230.4378204571118,28.83253671678027 242.18440948987552,34.8170678717305 256,37.86495176848901 221.516642043973,68.83323194577135 216.35526201442514,94.50664812722634 203.6520378899811,106.80942035282871 175.04197445033438,112.99417745719977 176.48805075171674,152.70565742591438 144.09594160076477,162.73920222473203 134.79655861649545,170.12531502563598 129.3904579820966,183.2067437212137 136.26488224558895,194.90883809854884 148.701138437474,208.23498739897443 155.19735812983265,209.7033110280695 169.90284174850086,208.12375076040607 175.04197445033438,217.6678543495264 174.48579125749575,224.6980099070126 168.34552880855014,230.61579907882148 161.84930911619148,231.03849830537902 143.784479012774,243.63048579125788 121.87086121491154,230.28208916311797 81.6476927087869,221.36091074997762 76.17485009124829,222.18406187538 42.35891196662828,237.0675241157547 37.175284609369285,236.48909359520334 33.148518293213016,234.59807073954914 31.591205353262307,231.8171547753544 31.65794733640522,229.0807334665851 54.261232293385824,174.218823324932 58.59946119753287,155.64230468410452 56.9531589467281,140.82558442687113 47.03085078647724,126.8987572781783 18.443034674544826,108.67819588076861 17.70887285999808,104.54019292604556 16.796732423743226,37.13078995394068 0,0 36.70809072738471,2.8254106196233657 78.26609889632333,14.72773094638091 100.86938385330708,5.094638046406515 118.40027809159706,5.072390718692211 133.66194490310073,2.3582167376372047 138.91231424350264,3.0256365690441993 141.55974624141945,4.226992265577106 151.0593551751112,16.66324845746056 156.9326496914915,17.597636221429724 172.23881115842374,22.158338402711905 207.23385765186393,29.70018249760968 217.48987572781672,26.31858868514768 218.71347875206234,22.781263578690293 230.4378204571118,28.83253671678027Z" id="15f3e70f-dbd5-477f-968a-274da3edceae"/></g>
  </g>
  </svg>
  