<?xml version="1.0" encoding="UTF-8" standalone="no"?>
<svg viewBox="0 0 229.53422022759952 256" xmlns="http://www.w3.org/2000/svg">
  <style>
    g.zone {
      fill: lightgray;
      stroke-width: 2;
      stroke-linecap: square;
      stroke-linejoin: bevel;
      stroke-miterlimit: 3;
      stroke-opacity: 0.8;
      stroke: black;
      fill-opacity: 0.3;
    }
  </style>
  <g class="zone" id="zone">
    <path d="M85.26494630549443,229.9445423946125 84.19810867125774,231.79099214617534 88.42442699150173,236.79692258374547 83.54159320403697,236.79692258374547 83.45952877063728,241.0642731206922 75.70443981407284,241.10530533739205 75.45824651386214,247.0139445423937 88.8757813752204,247.21910562590162 88.17823369129685,248.53213656034612 89.94261900945709,253.62013143131884 87.80894374098371,254.76903349895812 87.80894374098371,256 55.80381471389477,255.05625901586575 58.59400544958893,252.38916493027696 59.49671421702042,248.81936207725374 61.26109953518065,248.6962654271513 59.49671421702042,247.6704600096174 60.07116525084152,245.24955922423345 62.656194903027725,243.32104503926803 59.82497195063081,240.16156435326073 60.809745151467816,238.60234011860845 63.435807020356776,238.60234011860845 62.57413046962804,237.37137361756658 64.50264465459347,236.09937489982192 61.589357268791034,235.2376983490932 60.85077736816474,236.05834268312208 61.014906234969935,231.5858310626703 60.07116525084152,230.51899342843362 57.691296682157436,232.7347331303096 54.6549126462584,228.34428594326042 54.86007372976053,225.71822407436852 59.12742426670727,222.3535823048562 60.27632633434947,217.59384516749387 57.1578778650391,221.6970668376325 52.521237377785035,219.64545600256463 53.05465619490337,222.06635678794564 51.86472191056425,222.3535823048562 52.06988299406637,223.99487097291106 49.52588555858292,227.31848052572357 51.29027087674315,232.0782176630859 49.81311107549056,237.41240583426642 50.3465298926089,239.75124218624774 47.31014585670404,245.0443981407255 42.345247635839584,249.27071646096948 39.226799166529204,245.82401025805456 36.14938291392741,247.05497675909643 34.59015867927514,244.51097932360716 33.277127744827744,246.72671902548313 29.255970508091707,245.00336592402564 24.496233370729374,246.43949350857548 25.563071004966062,245.08543035742827 23.88075012021135,241.6387241545104 19.40823849975665,244.6340759737125 16.618047764062496,243.69033498958117 16.125661163646907,245.57781695784385 13.417534861352435,242.74659400544985 11.53005289308977,242.95175508895488 13.1303093444448,240.61291873697647 12.67895496073197,239.25885558582922 10.381150825453402,238.93059785221885 7.098573489337828,235.2376983490932 16.00256451354447,236.87898701714806 10.750440775766549,231.62686327937016 13.909921461773852,230.19073569482322 8.370572207082466,226.826093925308 5.046962654269968,227.27744830902373 5.4983170379827975,225.4309985574609 4.267350536940915,225.1027408238476 5.621413688091068,222.51771117166138 9.15018432441152,221.3688091040221 6.811347972430194,216.69113640006236 1.354063151144321,220.95848693700913 0,219.64545600256463 2.502965218786521,219.56339156916204 1.6412886680519556,218.49655393492534 2.62606186888896,213.44959128065247 6.811347972430194,213.81888123096562 5.621413688091068,210.70043276165816 8.821926590801128,211.27488379547924 11.037666292674183,209.92082064433203 11.776246193300478,207.37682320884565 8.206443340277271,203.97114922263054 11.119730726073866,202.78121493829144 10.299086392047888,201.13992627023364 11.283859592884893,200.48341080301287 9.806699791632301,200.0320564192971 6.893412405835707,201.96057060426253 4.267350536940915,198.30870331783964 8.493668857184906,199.66276646898396 6.27792915531185,194.98509376502423 9.109152107708763,194.65683603141383 13.7047603782659,196.09296361596367 15.510177913123051,194.615803814714 18.17727199871477,197.24186568360295 17.80798204840162,192.93348292995637 24.865523321042524,194.8619971149218 27.61468184003975,192.89245071325362 30.445904792430834,193.1386440134614 33.195063311428065,196.17502804936626 32.128225677191374,193.01554736335896 38.28305818240079,192.52316076294048 37.257252764866855,191.25116204519875 31.84100016028374,192.0307741625249 33.35919217823326,188.78922904311497 32.21029011059106,190.18432441096206 30.199711492225955,189.81503446064892 30.03558262542076,192.15387081263023 24.742426670940084,192.0307741625249 20.885398301009243,188.9533579099202 20.55714056739885,190.2253566276648 17.93107869850989,190.2253566276648 14.812630229199513,188.09168135919145 17.972110915206816,186.61452155794177 14.607469145697392,186.28626382432847 12.227600577013309,182.55233210450297 11.53005289308977,186.20419939092585 8.32953999037971,185.99903830742082 11.447988459690087,188.99439012662293 8.780894374098372,188.6251001763098 7.673024523158928,190.43051771116984 4.349414970346429,188.87129347651756 6.85238018913295,186.8196826414468 4.2263183202439905,185.91697387401823 5.293155954480676,185.21942619009468 4.759737137362333,184.0705241224554 8.001282256769318,184.52187850617113 8.657797723990102,183.7422663888421 7.016509055938146,181.40343003686368 8.575733290590419,181.6496233370715 9.15018432441152,180.00833466901662 7.016509055938146,180.1724635358218 6.1138002885066545,177.1771117166197 3.980125020033281,175.61788748196741 7.87818560666688,177.62846610033543 8.288507773682785,176.88988619970914 8.001282256769318,173.56627664689665 5.990703638404216,171.30950472832083 9.806699791632301,172.04808462894712 9.396377624616397,169.873377143771 10.340118608750645,170.48886039429195 10.83250520916623,171.67879467863398 9.15018432441152,173.48421221349406 10.83250520916623,174.14072768071776 10.05289309184301,175.82304856547537 11.53005289308977,177.99775605064858 12.514826093926775,172.49943901265996 14.238179195384243,174.3458887642228 13.499599294757948,175.53582304856482 14.443340278892196,177.46433723353024 16.4539188972573,177.54640166693284 15.920500080138956,175.28962974835704 19.244109632951453,176.39749959929355 18.17727199871477,173.36111556339162 16.535983330662813,173.36111556339162 18.136239782017842,171.8429235454392 16.535983330662813,171.59673024523138 15.961532296841712,169.91440936047377 18.95688411604382,169.7092482769658 21.91120371854317,171.8429235454392 21.623978201635538,169.3809905433554 16.535983330662813,166.9600897579744 24.41416893732969,168.7244750761317 17.890046481807133,164.2929956723827 18.095207565315086,162.5696425709223 20.393011700593654,164.74435005609843 22.116364802051123,165.1957044398142 22.198429235450806,163.4723513383538 23.224234652990567,163.34925468825136 24.00384677031379,165.44189774002197 25.850296521879528,165.44189774002197 25.850296521879528,176.06924186568318 34.4670620291727,176.15130629908577 34.59015867927514,169.99647379387636 35.86215739701978,172.74563231287067 37.01105946465615,169.99647379387636 40.580862317679355,169.99647379387636 40.3757012341714,172.6225356627653 42.427312069239264,172.9507933963757 43.00176310306036,175.86408078217522 49.36175669177773,181.2393011700585 50.5106587594141,180.8289790030455 50.26446545920922,193.54896618047732 58.67606988299444,193.7130950472825 58.59400544958893,199.70379868568673 67.12870652348242,199.78586311908933 67.12870652348242,205.36624459047763 73.57076454559947,205.44830902388023 72.46289469466002,206.43308222471433 75.45824651386214,207.21269434204046 75.7454720307756,212.01346369610556 73.81695784581018,212.62894694662648 76.44301971469913,213.40855906395262 78.00224394935141,218.61965058502778 76.64818079820125,221.5329379708273 78.86392050008014,225.63615964096593 80.62830581824036,225.80028850777404 85.26494630549443,229.9445423946125Z"/>
    <path d="M108.32505209167981,0 114.9722711973048,0.24619330020779334 116.40839878185464,4.267350536943831 118.8703317839384,5.949671421701459 123.79419778810593,6.442058022117045 123.87626222151144,10.627344125661194 126.74851739060529,15.263984612918174 129.04632152588385,15.510177913125966 132.94438211251745,20.803333867606643 133.3136720628306,15.633274563231321 130.11315916012055,11.365924026284574 129.53870812629944,7.631992306459087 131.30309344445968,5.25212373777792 133.02644654591714,6.647219105624997 136.59624939894033,3.7339317198254878 144.26927392209927,4.923866004164613 147.59288347491758,6.770315755727437 155.10177913127134,20.064753966980348 154.77352139766094,22.854944702674505 156.4968744991184,23.798685686808753 159.6563551851257,29.625260458404856 155.5121012982814,31.71790351017547 155.55313351498415,33.68744991184365 158.54848533418627,34.056739862156796 156.989261099534,35.944221830419465 160.4769995191517,38.447187049205986 173.9355665972127,41.31944221830274 176.80782176630655,45.34059945503878 176.56162846610167,46.94085590639381 172.41737457925737,49.48485334188017 170.07853822728188,53.17775284500581 172.9507933963757,56.665491264623505 178.98252925148267,59.414649783617826 181.4854944702692,61.958647219104186 177.87465940054324,65.52845007212447 173.73040551370477,66.22599775604802 172.13014906234972,68.97515627504232 174.05866324731514,75.58134316396749 175.82304856547537,76.03269754768323 174.18175989741758,77.55088956563567 174.96137201474664,82.47475556980028 176.6847251162041,83.58262542073972 169.25789389325007,85.0597852219894 160.88732168616758,84.52636640487106 164.49815675588772,89.0399102420256 159.04087193460185,95.85125821445578 165.81118769033512,96.3436448148743 170.57092482769747,98.8466100336579 173.03285782978122,97.9439012662264 172.82769674627326,98.7645456002553 176.8488539830093,99.0107389004631 177.5874338836356,103.07292835390189 184.85013623977864,106.88892450712997 186.69658599134436,109.47395415931909 183.9063952556502,110.66388844365821 183.74226638884502,113.24891809584733 189.44574451033577,115.99807661484165 194.49270716461157,122.23497355345366 193.09761179675866,126.83058182400788 194.16444943099535,128.26670940855772 193.1386440134614,129.5797403430022 193.83619169738495,133.72399422984358 197.5290912005106,136.59624939894033 199.0062510017632,140.08398781856096 198.39076775123934,143.65379067158125 201.55024843724664,146.6081102740806 200.23721750280507,149.80862317679066 194.24651386440084,153.2553293797085 195.72367366565345,155.9224234652973 194.1234172142984,159.94358070203336 192.3590318961382,159.7384196185283 189.1995512101309,161.99519153710412 189.93813111075136,164.0468023721749 188.83026125981775,165.77015547363237 185.4656194903025,167.65763744189795 187.10690815836026,168.92963615963967 185.05529732328657,172.04808462894712 185.58871614040493,173.8535021638072 195.14922263183234,175.12550088155183 199.04728321846594,172.74563231287067 209.1412085270059,174.63311428113335 220.75332585350117,183.2498797884265 220.26093925308558,190.92290431158835 227.15435165892129,192.31799967943542 229.53422022759952,195.64160923224793 224.73345087353445,197.5290912005106 222.51771117166138,199.70379868568673 221.5329379708302,203.39669818881237 218.08623176790945,206.30998557460896 220.30197146978833,212.71101138002908 219.48132713575652,215.78842763263378 216.65010418335962,218.33242506812016 211.27488379547924,218.16829620131205 208.19746754287164,216.07565314954144 204.46353582304906,218.74274723513315 175.6589196986702,217.42971630068865 175.53582304856192,211.4800448789872 183.98845968904988,211.60314152908964 183.86536303894746,208.03333867606935 188.05064914248868,207.4178554255484 185.17839397339483,201.8374739541572 183.98845968904988,201.05786183683105 183.53710530533706,202.74018272158867 179.14665811828786,204.29940695624094 178.69530373456922,202.98637602179647 177.66949831703528,205.6124378906854 174.18175989741758,205.6534701073882 174.9203397980439,202.98637602179647 173.97659881390965,202.98637602179647 171.71982689533382,205.6534701073882 174.22279211412035,198.14457445103153 171.96602019554453,201.0168296201312 170.73505369450265,200.6065074531153 171.76085911203657,198.59592883474727 169.0527328097421,199.90895976919177 168.97066837634242,198.51386440134468 167.1242186247767,198.76005770155248 167.042154191377,193.75412726398235 162.93893252123544,193.83619169738495 163.06202917133788,190.92290431158835 158.9177752844994,190.799807661483 158.79467863439697,187.84548805898365 146.32088475717296,187.68135919217846 146.6901747074861,175.69995191537 151.53197627824812,175.37169418175964 151.73713736175608,158.13816316717327 159.94358070203336,158.13816316717327 159.90254848533058,150.2599775605064 169.7913127103684,145.3771437730387 169.66821606026596,136.26799166532996 166.34460650745348,130.4824491104337 167.4524763583871,138.11444141689276 165.7291232569296,143.6948228882811 143.3665651546736,143.2024362878655 143.2845007212681,140.289148902066 135.20115403109327,140.1250200352608 134.9959929475853,131.13896457765446 127.56916172463708,131.34412566116242 127.81535502484196,129.3335470427944 126.3381952235952,129.37457925949425 126.91264625741047,116.24426991504944 134.87289629748287,116.28530213174928 135.03702516428805,92.65074531174864 130.9338034941465,92.69177752844848 130.89277127744958,86.86520275684947 127.19987177432394,86.86520275684947 125.39445423946096,79.97179035101668 128.18464497515512,73.6117967622993 132.0827055617887,70.90367046000775 129.45664369289975,71.80637922743924 129.62077255970496,70.41128385959216 125.72271197307136,73.81695784580727 123.54800448789523,76.89437409841197 122.07084468664846,86.82417054014962 118.2958807501173,86.86520275684947 118.2958807501173,101.71886520275464 114.11059464657608,101.71886520275464 113.90543356306812,104.75524923865952 101.47267190254685,104.63215258855416 101.34957525244441,125.35342202275821 97.20532136560011,125.35342202275821 96.91809584869247,132.5750921622043 94.4561628466087,133.3136720628306 89.57332905914393,132.6571565956069 87.93204039108615,129.94903029331533 88.8757813752204,128.6770315755707 86.45488058983939,128.30774162526046 84.81359192178161,130.72864241064147 83.33643212052901,129.90799807661259 83.21333547042657,126.2561307901897 81.44895015226635,126.05096970668174 81.40791793556359,124.45071325532963 77.38676069882756,121.41432921942476 75.70443981407284,115.34156114761795 74.4324410963282,116.61355986536259 73.69386119570191,114.9722711973048 81.8182401025795,106.60169899022233 82.10546561948713,102.41641288667819 78.86392050008014,105.78105465619345 78.04327616604833,104.34492707164361 74.88379548004103,105.1655714056725 75.3351498637597,107.58647219105643 69.79580060906831,110.29459849334798 68.11347972431359,113.00272479563954 65.24122455521393,113.90543356307103 64.46161243789071,115.99807661484165 61.8765827857045,117.47523641609132 62.86135598653568,113.00272479563954 62.0407116525097,108.61227760859036 60.030133034138764,108.7353742586928 60.891809584867495,105.9041513062988 59.04535983330759,106.06828017310399 57.568200032054996,103.31912165410968 59.74290751723113,102.0881551530678 59.04535983330759,100.15964096810238 56.41929796441863,99.421061067479 54.53181599615014,95.60506491424799 49.60794999198261,91.1325532937962 50.3465298926089,87.76791152428096 43.247956403271075,88.3833947748019 39.43196025003716,85.92146177271813 36.395576214138124,80.79243468504556 34.754287546080334,75.86856868087804 35.821125180317026,73.94005449591262 34.13880429555648,71.80637922743924 34.343965379064436,60.31735855104932 35.24667414649593,59.61981086712577 38.89854143291881,62.45103381951977 42.14008655233163,62.615162686327885 44.88924507132303,66.22599775604802 52.19297964417464,62.24587273601473 56.05000801410548,63.31271037025142 58.01955441576783,59.86600416733357 62.86135598653568,60.6456162846597 64.29748357108551,59.414649783617826 59.291553133512465,58.01955441577074 45.34059945504169,57.97852219906799 44.68408398781508,55.59865363038682 48.253886840838284,53.34188171181101 43.8634396537891,52.19297964417172 41.56563551851053,47.7615002404227 39.59608911684235,47.0229203397964 38.447187049205986,43.371053053373515 41.15531335149463,42.63247315274722 41.852861035424,39.47299246673991 39.18576694983228,35.24667414649593 43.781375220389414,35.49286744670372 43.247956403271075,33.4002243949331 49.7720788587878,32.08719346048862 51.16717422663488,30.281775925628555 53.21878506170857,30.77416252604414 59.74290751723113,26.711973072605346 63.394774803654016,26.342683122295114 64.74883795479835,24.20900785382174 68.72896297483162,22.239461452153563 68.6879307581347,19.941657316874995 52.80846289469267,27.20435967302385 43.04279531976312,28.476358390765572 34.343965379064436,25.439974354863622 34.26190094566475,23.18320243628781 41.52460330180777,21.00849495111168 42.09905433562887,19.36720628305681 48.21285462413553,19.613399583264602 49.60794999198261,18.218304215417525 49.936207725593,13.048244911042202 51.782657477158736,11.40695624298733 50.838916493024485,9.847732008332143 57.486135598655316,8.61676550729026 58.92226318319932,5.498317037985713 63.517871453756456,3.446706202914938 75.3351498637597,1.4771598012496756 80.30004808462998,3.2005129027071444 83.91088315435012,1.7643853181573101 96.34364481487137,3.898060586630683 99.54415771758143,1.8874819682626645 106.47860234011989,1.436127584546919 108.32505209167981,0Z"/>
  </g>
</svg>