<?xml version="1.0" encoding="UTF-8" standalone="no"?>
    <svg
    xmlns:dc="http://purl.org/dc/elements/1.1/"
    xmlns:cc="http://creativecommons.org/ns#"
    xmlns:rdf="http://www.w3.org/1999/02/22-rdf-syntax-ns#"
    xmlns:svg="http://www.w3.org/2000/svg"
    xmlns="http://www.w3.org/2000/svg"
    xmlns:inkscape="http://www.inkscape.org/namespaces/inkscape"
  >
  <style>
  g.comuni {
      fill: lightgray;
      stroke-width: 2;
      stroke-linecap: square;
      stroke-linejoin: bevel;
      stroke-miterlimit: 3;
      stroke-opacity: 0.8;
      stroke: black;
      fill-opacity: 0.3;
  }
  </style>
  <g inkscape:groupmode="layer" id="layer1" inkscape:label="Base"/>
  <g inkscape:groupmode="layer" id="layer2" inkscape:label="Comuni">
  <g class="comuni" id="comuni">
<path d="M29.010151232651708,0 31.74145431945533,0.34472757406270255 46.538222498446,7.584006629377572 61.62668324010714,11.08431738139683 74.59374352599984,16.493888543609952 77.45763414128969,23.547545059042584 88.59498653408063,35.02962502589624 89.49658172778251,37.89351564118609 94.90615288999375,44.65547959395013 95.94033561218185,47.99668531178704 93.155997513986,60.1947379324641 93.076444996892,66.42635177128697 94.4288377874448,72.60493059871574 99.99751398384028,79.31385954008755 106.0965402941807,81.8065050756167 128.29169256266857,83.58317795732434 144.04309094675713,87.03045369794947 155.84338098197549,93.4211725709547 164.83281541329998,101.29687176299898 177.7733581934947,109.09301843795302 198.85477522270799,113.91920447482896 219.06111456391366,120.6546509218969 225.84959602237572,122.16614874663394 231.97513983841037,122.51087632069664 242.39651957737792,118.53325046612845 248.97286099026348,116.99523513569528 252.47317174228274,118.55976797182457 254.06422208411,121.52972860990265 252.0488916511298,124.18147917961416 249.90097368966335,130.28050548995267 254.54153718665896,145.07727366894525 254.27636212968648,152.21048270147 256,158.83985912575156 255.7348249430313,161.54464470685718 253.24217940749838,162.71141495752966 219.8301222291293,160.45742697327498 196.2295421586926,155.12740832815396 193.524756577587,154.11974311166387 184.8800497203252,147.3047441475038 176.68614045991433,143.56577584421007 174.51170499274988,140.06546509218893 169.07561632484064,135.10669152682863 149.6117671431526,123.12077895172993 145.55458877149417,120.73420343898901 137.81147710793425,120.0712657965616 131.44727574062514,122.6964988605751 119.85912575098325,125.50735446447085 112.77895172985451,130.01533043298022 99.44064636420111,143.03542573026704 91.8036047234332,152.50217526413857 85.67806090739855,162.9765900145021 80.00331468821484,170.37497410399746 71.35860783095305,171.2235342863052 66.42635177128697,170.6401491609699 68.49471721566319,162.44623990055905 67.30142945929084,160.69608452454943 59.823492852703396,154.94178578827362 54.67909674746463,148.78972446654285 53.53884400248828,143.75139838408853 51.974311166355236,125.9846695670179 47.14812512948117,115.24507975968567 42.268904081211105,99.387611352807 39.40501346592125,94.7470478558114 34.84400248601588,82.07168013258729 26.703128237001025,64.01325875284806 24.87342034389928,54.785166770250974 12.171535114979054,26.066708100269736 3.473793246325026,23.149782473585766 0,17.952351356950995 0.053035011396001176,12.807955251708458 2.2539879842546826,8.379531800289326 9.068986948414732,5.06484358815042 16.122643463849247,3.420758234929025 22.858089910919066,0.23865755127446855 29.010151232651708,0Z"/></g>
  </g>
  </svg>
  