<?xml version="1.0" encoding="UTF-8" standalone="no"?>
    <svg
    xmlns:dc="http://purl.org/dc/elements/1.1/"
    xmlns:cc="http://creativecommons.org/ns#"
    xmlns:rdf="http://www.w3.org/1999/02/22-rdf-syntax-ns#"
    xmlns:svg="http://www.w3.org/2000/svg"
    xmlns="http://www.w3.org/2000/svg"
    xmlns:inkscape="http://www.inkscape.org/namespaces/inkscape"
  >
  <style>
  g.comuni {
      fill: lightyellow;
      stroke-width: 3.5;
      stroke-linecap: square;
      stroke-linejoin: bevel;
      stroke-miterlimit: 3;
      stroke-opacity: 1;
      stroke: black;
      fill-opacity: 0;
  }
  </style>
  <g inkscape:groupmode="layer" id="layer1" inkscape:label="Base"/>
  <g inkscape:groupmode="layer" id="layer2" inkscape:label="Comuni">
  <g class="comuni" id="comuni">
<path d="M0,43.65643967739162 7.598902469441966,43.59258335411989 13.260829799616191,44.69942629084604 18.22033757379229,46.849255841023584 27.947784152323244,47.06211025193339 35.73825559158343,44.082148499209715 44.2950029101165,43.03916188575681 53.97987860646731,42.69859482830203 67.53870458135663,43.528727030846646 79.96940217843122,40.78290513012285 96.01862476095438,41.059615864304384 102.9576785565814,40.378481749396336 107.51276295002947,34.439843685042085 112.42969984202239,26.03209445414406 118.55990687619335,18.433191984700585 129.266483744907,7.982040409078407 134.94969651616978,4.363515423629852 144.25143427288415,2.107258667995889 149.3599401346953,0 155.5752889332326,0.5321360272714906 174.45547518084285,12.068845098528234 178.81899060447273,16.049222582521644 180.56439677392527,18.858900806518683 187.14159807100742,21.860148000332433 194.08065186663444,27.330506360688435 211.93913694188186,31.970732518499826 242.0154652032911,34.22698927413228 245.1444250436513,35.844682797039845 247.5709653280104,39.99534380976141 250.25293090546245,47.807100690113174 249.18865885091947,51.872619938471416 240.97247858983968,62.728194894820106 242.48374490729083,73.41348632244065 247.01754385965035,80.13968570715937 255.74457470691004,88.93057287769231 256,94.08164962168513 253.12646545273273,102.14883179512836 249.08223164546456,106.74648707075809 235.8001164047568,109.34331088384533 230.79803774840056,108.34289515257409 223.49713145422868,105.53321692857705 198.72087802444582,94.67764197222986 192.10110584518048,89.90970316787198 186.01346969318968,89.52656522823706 179.4788392782907,93.1450902136856 170.21967240375648,95.01820902968313 157.91668745322838,95.52905961586455 143.03816413070612,97.70017460713369 134.97098195726136,98.1045979878602 127.69136110418108,94.93306726531982 112.9405504282023,93.1663756547772 101.9785482663987,90.95268978132489 86.86588509187507,89.50527978714547 82.97064937224498,87.82372994096617 68.98611457553605,86.86588509187658 57.78997256173408,91.42096948532465 45.848840109750824,92.35752889332265 40.31462542612309,94.48607300241164 33.1627172195893,95.99733931986431 27.436933566140315,96.12505196640929 16.687785815246524,97.87045813586032 11.430281865800328,96.87004240458907 4.278373659266535,86.35503450569516 2.5329674898139887,78.60713394861511 1.8305479338128385,71.94479088717115 2.6606801363574526,65.02702253263422 0.2128544109067813,53.19231728610586 0,43.65643967739162Z" id="15f3e70f-dbd5-477f-968a-274da3edceae"/></g>
  </g>
  </svg>
  