<?xml version="1.0" encoding="UTF-8" standalone="no"?>
<svg viewBox="0 0 256 156.87679999999818" xmlns="http://www.w3.org/2000/svg">
  <style>
    g.zone {
      fill: lightgray;
      stroke-width: 2;
      stroke-linecap: square;
      stroke-linejoin: bevel;
      stroke-miterlimit: 3;
      stroke-opacity: 0.8;
      stroke: black;
      fill-opacity: 0.3;
    }
  </style>
  <g class="zone" id="zone">
    <path d="M0,58.16319999999833 10.485759999998844,48.00511999999871 25.55903999999864,14.74560000000056 50.790399999998044,7.618560000002617 58.81855999999679,9.338880000001518 69.8777599999914,19.087359999999173 87.16287999999477,22.85568000000203 100.51583999999566,13.025280000001658 110.0185599999968,10.321919999999228 145.4079999999958,1.720319999998901 172.19584000000032,0 205.0457599999965,16.138240000000224 230.60479999999515,24.82176000000327 256,49.80736000000034 255.2627199999988,63.07839999999851 248.13567999999503,77.0867200000037 246.57920000000158,91.58656000000192 223.0681600000011,121.32351999999955 197.0995200000005,129.92511999999988 193.24928000000074,129.02399999999906 190.05439999999945,132.21888000000035 176.1280000000028,134.10303999999888 170.06591999999947,131.31775999999954 156.2214399999939,138.93632000000215 149.3401599999983,134.02112000000199 145.81759999999775,134.26687999999848 137.46175999999977,146.71871999999857 130.00703999999678,143.5238400000031 114.44223999999231,144.09727999999888 69.63199999999487,156.87679999999818 63.8156799999997,148.76672000000252 50.21696000000229,142.04928000000072 43.58143999999156,134.51264000000083 12.288000000000466,122.14272000000346 7.37280000000028,99.61472000000067 7.37280000000028,78.31552000000374 0,58.16319999999833Z"/>
  </g>
</svg>