<?xml version="1.0" encoding="UTF-8" standalone="no"?>
<svg viewBox="0 0 182.56735340728736 256" xmlns="http://www.w3.org/2000/svg">
  <style>
    g.zone {
      fill: lightgray;
      stroke-width: 2;
      stroke-linecap: square;
      stroke-linejoin: bevel;
      stroke-miterlimit: 3;
      stroke-opacity: 0.8;
      stroke: black;
      fill-opacity: 0.3;
    }
  </style>
  <g class="zone" id="zone">
    <path d="M90.00414482506234,4.306717054737106 161.1586005120041,4.306717054737106 166.3079361209301,10.454711690845908 172.29989028404046,27.61916372059097 176.13848591978228,47.37388760209708 179.16567109594027,79.17493599902508 182.56735340728736,149.39314884798296 179.16567109594027,175.48311593319465 171.02035840546134,190.4630013409728 151.29684261855135,206.78483481653123 125.4565402901376,242.98622455199362 106.60685115201704,251.3499939046699 91.62696574423889,256 71.96586614653008,250.50737535048106 52.398390832618524,236.7758137266859 38.042667316834084,225.0727782518592 26.370839936605762,222.076801170304 9.768133609655484,214.93014750701016 5.149335608921523,201.22979397781336 12.015116420821322,136.348165305376 15.853712056563142,117.8105571132523 19.723515786905537,108.04242350359682 19.723515786905537,96.27697183957122 14.137266853589301,87.850786297696 6.428867487505086,79.73668170181764 0.8738266487849893,62.50981348287366 0,27.182250396196256 2.153358527368553,18.443983908326405 20.566134341094386,4.525173716934462 56.580275508957776,0.6553699865920681 72.87090088991563,0 90.00414482506234,4.306717054737106Z"/>
  </g>
</svg>