<?xml version="1.0" encoding="UTF-8" standalone="no"?>
<svg viewBox="0 0 256 186.72852738217583" xmlns="http://www.w3.org/2000/svg">
  <style>
    g.zone {
      fill: lightgray;
      stroke-width: 2;
      stroke-linecap: square;
      stroke-linejoin: bevel;
      stroke-miterlimit: 3;
      stroke-opacity: 0.8;
      stroke: black;
      fill-opacity: 0.3;
    }
  </style>
  <g class="zone" id="zone">
    <path d="M8.757598003232351,0 191.23887828512443,0 195.5988841579777,1.5410365585087082 208.52855674643945,9.659668183820468 237.9585963881949,29.805902217000515 248.78343855527902,45.29144031713394 256,68.14388489208635 254.98517104683435,85.62149464101986 239.98825429452083,103.85082954044883 220.4058141242097,120.57671413889224 198.1923359271752,135.7239759213038 190.97577448245423,143.8801938041387 185.3002495962393,154.78020848627185 173.15988841579883,186.72852738217583 54.95110850095173,185.93921597415724 43.86316253119741,159.85435325209204 43.33695492585701,128.73293202172985 36.64660108647644,119.78740273087631 32.51211275877288,108.51152547349812 32.51211275877288,92.19908970782559 34.05314931727892,87.5383937747763 32.51211275877288,79.79562472470958 27.851416825723586,74.34561738364435 30.971076200261503,66.60284833357764 30.444868594921104,60.02525326677459 27.325209220377847,53.823520775216586 17.5527822639852,49.53868741741234 7.742769050066711,42.96109235060929 1.5410365585060377,36.383497283803564 0,28.640728233739527 1.0148289531656391,6.953457642048101 8.757598003232351,0Z"/>
  </g>
</svg>