<?xml version="1.0" encoding="UTF-8" standalone="no"?>
    <svg
    xmlns:dc="http://purl.org/dc/elements/1.1/"
    xmlns:cc="http://creativecommons.org/ns#"
    xmlns:rdf="http://www.w3.org/1999/02/22-rdf-syntax-ns#"
    xmlns:svg="http://www.w3.org/2000/svg"
    xmlns="http://www.w3.org/2000/svg"
    xmlns:inkscape="http://www.inkscape.org/namespaces/inkscape"
  >
  <style>
  g.comuni {
      fill: lightgray;
      stroke-width: 2;
      stroke-linecap: square;
      stroke-linejoin: bevel;
      stroke-miterlimit: 3;
      stroke-opacity: 0.8;
      stroke: black;
      fill-opacity: 0.3;
  }
  </style>
  <g inkscape:groupmode="layer" id="layer1" inkscape:label="Base"/>
  <g inkscape:groupmode="layer" id="layer2" inkscape:label="Comuni">
  <g class="comuni" id="comuni">
<path d="M22.160504959420642,0 196.1550946798934,0.28854824165643195 207.63931469792357,3.5779981965733807 236.14788097385133,28.16230838593347 247.22813345356164,50.89990982867518 239.32191163210078,81.486023444544 224.25969341749314,113.2840396753846 222.70153291253118,122.28674481514975 211.56357078448713,142.13886384129844 213.17944093778283,154.14247069432 221.31650135257047,180.91974752028867 238.16771866545864,204.98467087466142 238.39855725879363,211.21731289450105 230.8963029756526,214.8530207394041 219.41208295761425,216.5266005410294 197.71325518484718,214.44905320108424 163.72227231740212,219.29666366095495 130.53922452659668,238.45626690712328 109.64833183047747,241.80342651036986 86.56447249774149,242.49594229035432 67.17403065825049,250.2867448151518 42.589720468886284,256 42.01262398556522,250.40216411181518 48.302975653738585,243.8232642019854 60.19116321009676,235.97475202885417 66.53922452659567,226.91433724075938 68.15509467989138,217.27682596934352 66.53922452659567,207.6970243462573 67.17403065825049,192.1731289449961 61.80703336338426,183.28584310189436 60.01803426510372,174.74481514878278 63.596032461673,167.0694319206487 73.69522091974243,158.35527502254408 72.07935076645492,151.14156898106359 62.61496844003211,140.3498647430138 56.67087466185303,127.13435527502455 57.017132551847304,119.28584310189333 54.6510369702375,113.91884580703122 37.22272317402827,101.91523895401374 20.602344454458684,100.126239855725 8.714156898100514,94.12443642921627 3.924256086563559,89.27682596934147 0,70.69431920649012 5.54012623985106,64.69251577998138 21.410279531106536,56.32461677186694 29.316501352567403,48.53381424706947 35.664562669066314,38.95401262398326 33.29846708746471,31.740306582506854 26.950405770957595,26.950405770965798 20.602344454458684,8.367899008114437 22.160504959420642,0Z"/></g>
  </g>
  </svg>
  