<?xml version="1.0" encoding="UTF-8" standalone="no"?>
    <svg
    xmlns:dc="http://purl.org/dc/elements/1.1/"
    xmlns:cc="http://creativecommons.org/ns#"
    xmlns:rdf="http://www.w3.org/1999/02/22-rdf-syntax-ns#"
    xmlns:svg="http://www.w3.org/2000/svg"
    xmlns="http://www.w3.org/2000/svg"
    xmlns:inkscape="http://www.inkscape.org/namespaces/inkscape"
  >
  <style>
  g.comuni {
      fill: lightyellow;
      stroke-width: 3.5;
      stroke-linecap: square;
      stroke-linejoin: bevel;
      stroke-miterlimit: 3;
      stroke-opacity: 1;
      stroke: black;
      fill-opacity: 0;
  }
  </style>
  <g inkscape:groupmode="layer" id="layer1" inkscape:label="Base"/>
  <g inkscape:groupmode="layer" id="layer2" inkscape:label="Comuni">
  <g class="comuni" id="comuni">
<path d="M217.3881796690306,3.2680851063796483 226.9503546099281,7.867612293143039 235.66524822694623,21.968794326239294 244.38014184397295,39.64066193853418 253.51867612292648,65.90638297872218 256,90.17494089834531 249.3427895981028,100.70543735224294 241.89881796689946,107.24160756501084 200.32151300236507,110.57021276595515 151.72387706855412,106.27328605200643 137.13853427895353,110.57021276595515 127.57635933805601,119.76926713947762 103.06572104018714,162.4964539007061 92.2931442080395,169.032624113474 42.42458628841377,167.09598108746948 24.934278959812858,157.89692671394698 13.31442080377722,148.6978723404245 0,113.17257683214937 0.8472813238793905,87.57257683215109 12.467139479906429,56.7073286051997 23.300236406618733,46.23735224586243 41.577304964534385,36.37257683215023 73.16879432623585,33.770212765956 122.19007092198218,37.70401891252967 151.30023640661872,28.50496453900719 162.07281323876637,19.305910165484708 167.09598108746948,10.167375886522585 179.9867612293113,2.9654846335692664 192.81702127659707,0 217.3881796690306,3.2680851063796483Z"/></g>
  </g>
  </svg>
  