<?xml version="1.0" encoding="UTF-8" standalone="no"?>
    <svg
    xmlns:dc="http://purl.org/dc/elements/1.1/"
    xmlns:cc="http://creativecommons.org/ns#"
    xmlns:rdf="http://www.w3.org/1999/02/22-rdf-syntax-ns#"
    xmlns:svg="http://www.w3.org/2000/svg"
    xmlns="http://www.w3.org/2000/svg"
    xmlns:inkscape="http://www.inkscape.org/namespaces/inkscape"
  >
  <style>
  g.comuni {
      fill: lightyellow;
      stroke-width: 3.5;
      stroke-linecap: square;
      stroke-linejoin: bevel;
      stroke-miterlimit: 3;
      stroke-opacity: 1;
      stroke: black;
      fill-opacity: 0;
  }
  </style>
  <g inkscape:groupmode="layer" id="layer1" inkscape:label="Base"/>
  <g inkscape:groupmode="layer" id="layer2" inkscape:label="Comuni">
  <g class="comuni" id="comuni">
<path d="M81.25127653856356,41.8754815013886 78.10946878079235,25.40965690226743 83.15470751590067,9.196094239900214 91.34175400877693,4.357251634864792 107.09665860431731,0 123.4707515900731,2.91247872435779 134.79960584072384,11.604049090746846 142.04640329660427,15.731971692198217 149.91238914270338,24.67580399534285 159.36074531935918,38.96300277703081 165.34623309146332,49.62680283078018 169.45122278957254,58.11197706709634 172.59303054734374,68.29418615067671 175.1156499148963,92.5801307892143 175.1156499148963,104.734569560155 171.33172086356748,117.8751231747742 165.6672937382405,130.53408581922443 160.00286661291676,142.71145749350563 153.07712980381675,152.48087431694023 149.2932007524847,161.26417629669464 142.98665233360012,168.0981814924309 138.58353489205263,174.93218668816556 131.9559258263909,180.29848607005266 128.194929678401,185.20612738511127 127.39227806145158,191.05401773716738 128.3554600017896,202.68099973125476 127.55280838484342,205.98333781241618 124.86965869389905,208.322493953238 121.56732061273927,209.1710113768701 110.23846636208852,216.5095404461159 102.05141986920898,219.4449520738158 95.74487145032766,226.0725611394792 94.48356176654815,230.1775508375884 85.03520558989561,243.96022574576685 82.21445847890156,251.09235868494136 80.01289975812945,254.5093612828087 76.84815909701608,256 71.80292036190777,256 59.212756427484024,250.33557287467463 54.16751769237571,245.93245543312716 53.54832930215702,235.13105795932972 49.14521186060955,229.7418256741021 41.57735375794871,225.82029920272362 31.509809191077487,224.35259338887445 22.680641404640376,224.35259338887445 6.306548418884581,220.91265788766498 1.9034309773338454,217.49565528979605 0,213.57412881841756 0,207.19878168950976 1.2613096837762643,200.3647764937735 5.98548777210416,195.22780614530146 6.306548418884581,188.85245901639365 9.769416823432953,181.76619188390183 12.911224581204165,172.24903699722282 18.598584609870063,163.94732598763738 28.666129176744537,153.2147272238648 34.97267759562912,143.94983427394138 41.898414404729124,136.38197617128054 45.98047119949944,130.53408581922443 54.48857833915613,123.21848965331915 61.41431514825613,115.44423542058541 79.37077846456862,101.8220908357972 85.67732688345319,93.0617217593833 88.19994625100573,80.42569201827524 87.55782495744815,63.93693451581192 84.41601719967693,60.038340947773975 82.21445847890156,51.805428648213386 81.25127653856356,41.8754815013886Z" id="15f3e70f-dbd5-477f-968a-274da3edceae"/></g>
  </g>
  </svg>
  