<?xml version="1.0" encoding="UTF-8" standalone="no"?>
<svg viewBox="0 0 256 253.98102466793262" xmlns="http://www.w3.org/2000/svg">
  <style>
    g.zone {
      fill: lightgray;
      stroke-width: 2;
      stroke-linecap: square;
      stroke-linejoin: bevel;
      stroke-miterlimit: 3;
      stroke-opacity: 0.8;
      stroke: black;
      fill-opacity: 0.3;
    }
  </style>
  <g class="zone" id="zone">
    <path d="M254.34535104364443,87.83301707779952 240.78937381404154,99.41555977229616 225.56356736243006,108.87286527514257 219.11195445920362,111.3168880455413 212.64516129032202,110.33017077798873 200.349146110058,106.58064516129106 190.75521821631844,98.11005692599723 189.51043643263688,94.67931688804592 189.08538899430772,83.76470588235335 192,54.011385199241566 194.2922201138526,49.791271347249264 197.84440227703973,47.84819734345332 202.42884250474492,46.87666034155589 207.6356736242898,47.1954459203044 212.43263757115852,48.81973434535183 234.74762808349126,65.0626185958262 252.67552182163152,76.11385199240974 255.16508538899464,80.34914611005719 256,82.96015180265721 255.59013282732596,86.20872865275209 254.34535104364443,87.83301707779952Z"/>
    <path d="M1.6698292220107374,243.40037950664262 0,247.37760910816112 3.3396584440214747,250.0189753320693 11.263757115748136,253.98102466793262 18.35294117646943,253.98102466793262 44.614800759012525,242.5047438330188 49.92789373813917,238.20872865275288 57.12333965844438,225.2599620493367 82.97533206831129,197.92030360531442 84.64516129032202,189.35863377609184 80.89563567362437,184.10626185958364 74.21631878557926,180.8121442125244 70.89184060721078,181.14611005692697 62.96774193548411,188.05313092979182 50.459203036052266,201.19924098671854 38.360531309296604,212.0683111954467 29.601518026564573,221.63187855787595 14.178368121442587,232.1821631878567 7.514231499050475,235.81024667931854 3.764705882352814,240.10626185958338 1.6698292220107374,243.40037950664262Z"/>
    <path d="M137.18406072106336,0.9715370018974309 141.1461100569267,0 144.27324478178465,1.3055028463000098 148.02277039848232,11.643263757116175 146.76280834914562,27.82542694497208 149.69259962049307,35.931688804554106 155.52182163187766,44.690702087287214 157.19165085389054,48.25806451612951 155.94686907020898,53.115749525616664 141.34345351043723,66.12523719165131 129.66982922201075,77.49525616698335 117.16129032258104,87.92409867172721 110.07210626185976,92.81214421252466 101.7381404174569,95.74193548387103 95.07400379506694,95.08918406072102 93.81404174573024,93.78368121442209 100.49335863377534,76.52371916508592 100.49335863377534,67.09677419354874 104.6527514231492,57.988614800758974 111.74193548387049,48.25806451612951 117.37381404174671,43.066413662239775 124.03795066413667,33.16888045540795 129.66982922201075,20.705882352941558 136.349146110058,1.3055028463000098 137.18406072106336,0.9715370018974309Z"/>
    <path d="M158.86148007590128,77.41935483870975 165.7381404174569,78.39089184060718 173.03984819734387,82.14041745730592 177.0018975332072,88.00000000000081 179.29411764705978,95.01328273244849 177.6242884250469,103.65085388994362 171.99240986717282,110.0113851992413 169.48766603415672,115.06641366224005 167.81783681214384,121.60910815939309 159.07400379506694,135.9848197343462 155.11195445920362,150.39089184060745 149.88994307400358,152.85009487666133 144.6831119544587,153.50284629981132 140.09867172675567,148.91840607210722 138.21631878557926,142.52751423149925 138.64136622390845,136.3187855787488 141.34345351043723,130.26185958254337 140.93358633776103,124.2201138519931 138.21631878557926,117.35863377609157 138.64136622390845,104.95635673624362 140.09867172675567,98.59582542694595 143.43833017077714,90.27703984819824 147.38519924098748,84.58444022770465 151.98481973434565,79.69639468690718 154.47438330170877,78.39089184060718 158.86148007590128,77.41935483870975Z"/>
    <path d="M83.81024667931665,95.16508538899463 88.18216318785618,98.26185958254337 91.94686907020899,99.56736242884338 103.62049335863331,101.52561669829231 109.23719165085438,99.56736242884338 113.19924098671771,97.60910815939336 115.70398481973382,98.42884250474465 117.16129032258104,100.8728652751423 117.78368121442074,107.88614800759107 117.16129032258104,115.71916508539005 123.00569259962079,128.13662239089206 124.25047438330233,132.38709677419467 123.00569259962079,138.76280834914644 120.288425047439,143.68121442125312 111.52941176470482,155.14231499051286 104.24288425047517,160.54648956356826 90.89943074003794,167.27134724857774 88.60721062618535,167.1195445920316 85.26755218216388,165.96584440227772 73.80645161290307,149.40417457305594 70.67931688804511,142.04174573055053 70.05692599620541,134.67931688804617 73.5939278937374,123.56736242884311 74.42884250474278,114.24667931688876 77.55597722960073,99.56736242884338 77.98102466793208,95.6660341555985 82.14041745730592,94.1935483870972 84.02277039848232,94.67931688804592 83.81024667931665,95.16508538899463Z"/>
  </g>
</svg>