<?xml version="1.0" encoding="UTF-8" standalone="no"?>
    <svg
    xmlns:dc="http://purl.org/dc/elements/1.1/"
    xmlns:cc="http://creativecommons.org/ns#"
    xmlns:rdf="http://www.w3.org/1999/02/22-rdf-syntax-ns#"
    xmlns:svg="http://www.w3.org/2000/svg"
    xmlns="http://www.w3.org/2000/svg"
    xmlns:inkscape="http://www.inkscape.org/namespaces/inkscape"
  >
  <style>
  g.comuni {
      fill: lightgray;
      stroke-width: 2;
      stroke-linecap: square;
      stroke-linejoin: bevel;
      stroke-miterlimit: 3;
      stroke-opacity: 0.8;
      stroke: black;
      fill-opacity: 0.3;
  }
  </style>
  <g inkscape:groupmode="layer" id="layer1" inkscape:label="Base"/>
  <g inkscape:groupmode="layer" id="layer2" inkscape:label="Comuni">
  <g class="comuni" id="comuni">
<path d="M175.39206520435994,0 185.6713412441549,1.227376243558975 191.71616924367555,5.247033441207968 205.61620520196317,21.141555795277288 211.5076111710384,42.37516480882226 213.1952535059336,72.35382955771458 209.85065324223748,93.6488073834351 208.99148987174925,106.7817331895 211.5076111710384,117.45990650845131 210.67913220664013,143.78712693275884 214.8828958408245,155.07898837348745 214.8828958408245,161.36929162171901 207.30384753685402,184.62807143713349 204.7877262375649,199.72479923289012 187.08282392424488,238.1723600623289 183.70753925446314,250.78365096488199 176.43533501138353,255.26357425386723 27.800071916575245,256 26.112429581684378,244.46266331056046 15.986575572334827,226.1747572815553 5.0322425985826404,212.9497782572227 4.203763634184366,201.62723241040413 0,182.11195013783998 6.719884933477866,170.78940429102357 24.424787246793514,176.46601941747568 29.48771425146611,191.56274721323447 36.23828359103393,201.62723241040413 48.02109552918439,214.85221143473672 48.88025889967698,221.78688721083554 55.60014383315049,225.5610691597758 72.47656718206785,226.1747572815553 84.25937912021833,224.30300851012905 88.46314275440268,216.11027208438347 88.46314275440268,199.72479923289012 91.83842742418878,163.24104039314525 81.74325782092482,140.65731751168803 89.32230612489528,127.46302289344322 88.46314275440268,99.9084262255789 85.94702145510918,86.74481601342404 80.05561548603396,67.9966438930848 81.77394222701477,51.51911782332594 113.37888049862241,20.40513004914452 132.92484717727433,5.7993527508097245 147.9295217547611,1.0125854009358273 175.39206520435994,0Z"/></g>
  </g>
  </svg>
  