<?xml version="1.0" encoding="UTF-8" standalone="no"?>
<svg viewBox="0 0 256 149.83488244942433" xmlns="http://www.w3.org/2000/svg">
  <style>
    g.zone {
      fill: lightgray;
      stroke-width: 2;
      stroke-linecap: square;
      stroke-linejoin: bevel;
      stroke-miterlimit: 3;
      stroke-opacity: 0.8;
      stroke: black;
      fill-opacity: 0.3;
    }
  </style>
  <g class="zone" id="zone">
    <path d="M224.64734827775146,47.378895571350995 183.00710770913565,10.28758884636233 178.38819026790688,10.917441224712162 175.65882996172758,8.188080918532878 165.3012575177736,6.15855658830006 143.326407873156,12.737014762165018 138.98742482231376,12.876981957353316 136.11809732094122,9.447785675232538 128.90978676872643,12.31711317660012 126.32039365774041,17.285948605797156 120.02186987425206,15.186440677967703 110.08419901585799,7.348277747403086 101.82613449973344,6.508474576273294 88.17933296883703,0 85.24002186987778,5.0388190267886985 80.9010388190256,6.998359759429853 80.48113723346569,12.45708037178842 72.9928922908743,13.926735921268042 71.3832695462014,18.475669764900182 63.685073810830055,17.84581738655035 63.54510661563678,29.603061782392306 60.74576271187081,32.19245489338329 44.99945325314494,35.06178239475087 36.18151995626721,47.308911973754356 25.613996719523307,47.86878075451252 6.928376161838189,58.64625478403639 0,68.72389283761379 0.48988518316650437,99.30672498632916 30.23291416075208,99.44669218151745 30.23291416075208,119.67195188627385 63.40513942045346,119.81191908146215 67.25423728813914,142.34663750683293 74.53253143795055,142.2766539092363 74.53253143795055,149.7648988518277 155.2936030617829,149.83488244942433 162.92181519956753,147.45544013121827 162.99179879715425,139.89721159103024 191.47512301804014,139.89721159103024 191.75505740841675,129.88955713504453 230.24603608529335,129.46965554947963 235.56478950245867,120.37178786222032 256,108.96446145434662 224.64734827775146,47.378895571350995Z"/>
  </g>
</svg>