<?xml version="1.0" encoding="UTF-8" standalone="no"?>
    <svg
    xmlns:dc="http://purl.org/dc/elements/1.1/"
    xmlns:cc="http://creativecommons.org/ns#"
    xmlns:rdf="http://www.w3.org/1999/02/22-rdf-syntax-ns#"
    xmlns:svg="http://www.w3.org/2000/svg"
    xmlns="http://www.w3.org/2000/svg"
    xmlns:inkscape="http://www.inkscape.org/namespaces/inkscape"
  >
  <style>
  g.comuni {
      fill: lightyellow;
      stroke-width: 3.5;
      stroke-linecap: square;
      stroke-linejoin: bevel;
      stroke-miterlimit: 3;
      stroke-opacity: 1;
      stroke: black;
      fill-opacity: 0;
  }
  </style>
  <g inkscape:groupmode="layer" id="layer1" inkscape:label="Base"/>
  <g inkscape:groupmode="layer" id="layer2" inkscape:label="Comuni">
  <g class="comuni" id="comuni">
<path d="M35.34860681114767,9.691994692613845 31.90659000442334,10.07695709862879 23.77708978328268,18.410260946483625 22.41839893852367,21.69376382131736 15.239982308713673,29.95913312693521 11.367713401150816,32.85767359575401 8.786200796109982,36.66200796107988 10.054312251218606,40.806015037593895 6.770809376384869,41.892967713401745 0.543476337905535,48.23352498894326 0,53.577708978328914 2.853250773995209,57.01972578505002 6.34055727554312,59.05776205218854 18.455550641310428,61.593984962405784 23.686510393632293,61.75249889429477 31.29517912428404,60.55232198142473 36.4582043343657,60.93728438743968 49.79601946041805,66.87023440955285 64.13020787262464,65.0586466165419 64.71897390535376,88.94896063688677 55.117558602390304,115.05846970367091 41.19097744360884,143.68155683326052 42.61760283060805,148.45961963732884 46.127554179569366,169.76842105263125 50.58858911986134,177.06006191950505 62.816806722689215,191.25838124723606 67.73073861123635,210.4159221583378 69.74613003096145,212.72569659442746 73.14285714285899,214.605218929677 139.4696152145095,238.1332153914203 141.91525873507317,239.24281291463996 142.82105263158024,240.57885891198555 147.66704997788716,242.5036709420619 151.6751879699272,243.00185758513902 155.2530738611255,247.28173374613021 154.34727996461842,250.3614329942514 156.90614772224907,252.64856258292767 157.58549314462857,255.72826183104885 158.64980097302302,256 163.0202565236646,254.5507297655906 167.05103936311485,254.89040247678037 175.24847412649572,247.87049977885934 178.0337903582507,243.93029632905788 177.94321096860034,237.97470145953133 175.70137107474764,236.04988942945658 172.4405130473273,230.84157452454653 172.30464396285012,225.52003538257426 171.0138876603281,219.42857142857213 167.00574966829126,214.42406015037622 162.04652808492054,213.97116320212268 161.36718266254104,212.52189296771328 156.99672711189945,210.9367536488283 155.8871295886782,209.28367978770473 151.31287041132245,208.1061477222465 150.9505528527209,206.90597080937647 149.27483414418714,205.77372843874343 138.79026979213,204.89057938965135 121.24051304732666,186.48031844316773 119.94975674480463,179.93595754091203 115.2396284829749,178.32817337461367 111.72967713401358,175.02202565236652 110.39363113666798,170.35718708536038 110.28040689960419,160.2802299867316 114.99053516143393,156.90614772224745 110.21247235736399,151.99221583370195 112.34108801415611,147.07828394515644 113.88093763821588,145.37992038920765 113.83564794338909,140.44334365325037 111.43529411764902,135.55205661211824 111.29942503317184,132.3138434321097 106.29491375497754,110.34834144183957 111.20884564352146,108.40088456435144 111.25413533834825,105.93259619637278 108.83113666519479,101.83387881468396 102.83025210084304,97.80309597523213 107.63095975232315,86.25422379478053 115.62459088898984,78.14736842105327 118.16081379920388,72.41822202565267 121.716054842992,69.11207430340554 121.716054842992,66.59849624060169 128.71331269350122,50.20362671384318 133.58195488721833,44.42919062361739 133.46873065015774,41.19097744360884 131.0910216718279,33.786112339672876 129.89084475895623,32.13303847854931 130.16258292791062,23.93560371517005 131.34011499336884,20.62945599292291 131.22689075630507,10.824237063246889 112.4090225563931,7.608668730650136 86.20893409995695,7.608668730650136 86.29951348960734,4.347810703228189 71.42184873949843,0 66.21353383458674,0.06793454223698511 59.827686864220034,2.6268022998676344 51.74347633790618,3.4193719593093177 50.56594427244794,4.913931888545516 47.46360017691497,6.4311366651918975 44.63299425033317,6.499071207430492 40.39840778416877,12.114993365767306 35.34860681114767,9.691994692613845Z"/></g>
  </g>
  </svg>
  