<?xml version="1.0" encoding="UTF-8"?><svg id="uuid-7f25befa-3c0b-4b98-9e44-63862e755480" xmlns="http://www.w3.org/2000/svg" width="85.16" height="61.43" viewBox="0 0 85.16 61.43"><path d="M60.51,30.72h-.09c.17,0,.26-.21,.14-.33L30.85,.69c-.08-.08-.2-.08-.27,0L.88,30.39c-.12,.12-.04,.33,.14,.33h-.09c-.14,0-.21,.17-.11,.27l29.79,29.79c.06,.06,.16,.06,.22,0l29.79-29.79c.1-.1,.03-.27-.11-.27Z" fill="#231f20"/><rect x="9.39" y="9.39" width="42.66" height="42.66" transform="translate(30.72 -12.72) rotate(45)" fill="none" stroke="#231f20" stroke-linecap="round" stroke-linejoin="round" stroke-width="1.1"/><path d="M39.39,29.1c0-.54-.31-1.13-.73-1.45-.91-.69-2.65-.92-3.54,0-1.65,1.73-3.33,3.43-5,5.14-1.09-1.42-2.12-2.88-3.21-4.3-.76-.99-2.31-1.33-3.42-.74-1,.53-1.69,1.77-.9,2.8,1.43,1.87,2.77,3.81,4.27,5.63-.43,.46-.86,.91-1.29,1.36-.52,.55-1.04,1.11-1.55,1.67-.1,.11-.2,.22-.31,.33,0,0-.18,.2-.25,.27-.07,.07-.23,.24-.25,.26-.14,.15-.28,.3-.43,.45-.4,.42-.73,.83-.73,1.45,0,.54,.31,1.13,.73,1.45,.91,.69,2.66,.92,3.54,0,1.1-1.15,2.18-2.31,3.26-3.47,.13-.14,.25-.27,.38-.41,1.36,1.33,2.83,2.57,4.42,3.57,.99,.62,2.79,.26,3.42-.74,.73-1.15,.13-2.16-.9-2.8,.58,.37-.15-.13-.29-.23-.24-.18-.48-.37-.71-.56-.47-.38-.92-.78-1.37-1.19-.49-.43-.97-.87-1.43-1.33,1.86-1.9,3.73-3.79,5.57-5.71,.4-.42,.73-.83,.73-1.45Z" fill="#ed1c24"/><path d="M81.38,19.8c-.06-2.4-1.94-4.43-4.71-4.39,.17-.64,.31-1.43,.31-2.13,0-4.24-3.44-7.68-7.68-7.68-2.64,0-4.97,1.34-6.35,3.37-.9-.67-2-1.07-3.21-1.07-2.7,0-4.93,1.99-5.32,4.59-1.01-1.1-2.45-1.79-4.06-1.79-2.61,0-4.76,1.71-5.35,4.14L30.72,.55,10.91,20.36l11.72-6.68,6.81,3.86,2.91-2.59,15.47,15.24h18.8l12.77-.02h.09c2.73-.29,5.12-2.62,5.12-5.42,0-2.21-1.33-4.11-3.23-4.95Z" fill="#fff" stroke="#231f20" stroke-linecap="round" stroke-linejoin="round" stroke-width="1.1"/><path d="M55.49,22.06c.87-.95,2.29-1.28,3.53-.72,1.31,.59,1.99,1.99,1.74,3.34" fill="#fff" stroke="#231f20" stroke-linecap="round" stroke-linejoin="round" stroke-width="1.1"/><path d="M61.91,18.07c1.8-1,4.11-.79,5.7,.69,1.68,1.56,2.01,4.02,.95,5.94" fill="#fff" stroke="#231f20" stroke-linecap="round" stroke-linejoin="round" stroke-width="1.1"/><line x1="36.84" y1="10.99" x2="52.92" y2="26.62" fill="#fff" stroke="#231f20" stroke-linecap="round" stroke-linejoin="round" stroke-width="1.1"/><line x1="34.62" y1="12.93" x2="48.26" y2="26.19" fill="#fff" stroke="#231f20" stroke-linecap="round" stroke-linejoin="round" stroke-width="1.1"/></svg>