<?xml version="1.0" encoding="UTF-8"?><svg id="uuid-2e8425dd-ed3b-4cff-a8a7-be0461cf123c" xmlns="http://www.w3.org/2000/svg" width="61.43" height="61.43" viewBox="0 0 61.43 61.43"><g><path d="M30.61,60.77L.82,30.98c-.1-.1-.03-.27,.11-.27H60.51c.14,0,.21,.17,.11,.27l-29.79,29.79c-.06,.06-.16,.06-.22,0Z" fill="#fff200"/><g><path d="M28.2,35.05c.01,2.73,.02,5.46,.03,8.19v1.18c0,1.25,1.35,2.09,2.5,2.05s2.51-.73,2.5-2.05c-.01-2.73-.02-5.46-.03-8.19,0-.39,0-.79,0-1.18,0-1.25-1.35-2.09-2.5-2.05s-2.51,.73-2.5,2.05h0Z" fill="#231f20"/><circle cx="30.72" cy="50.8" r="2.41" fill="#231f20"/></g><path d="M30.58,.69L.88,30.39c-.12,.12-.04,.33,.14,.33H60.41c.17,0,.26-.21,.14-.33L30.85,.69c-.08-.08-.2-.08-.27,0Z" fill="#231f20"/><rect x="9.39" y="9.39" width="42.66" height="42.66" transform="translate(30.72 -12.72) rotate(45)" fill="none" stroke="#231f20" stroke-linecap="round" stroke-linejoin="round" stroke-width="1.1"/></g><g><path d="M55.38,19.11c-.05,0-.11,.01-.16,.02,.4-.56,.64-1.23,.64-1.97,0-1.87-1.51-3.38-3.38-3.38-1.19,0-2.24,.62-2.84,1.56,0-.02,0-.03,0-.05,0-1.29-1.04-2.33-2.33-2.33-1.13,0-2.06,.85-2.27,1.92L30.72,.55,10.91,20.36l11.72-6.68,6.81,3.86,7-6.23,14.15,13.72c1.03,.96,1.96,1.35,3.17,1.66,2.68,.71,5.37-1.15,5.2-3.98-.12-1.98-1.61-3.59-3.59-3.59Z" fill="#fff" stroke="#231f20" stroke-linecap="round" stroke-linejoin="round" stroke-width="1.1"/><path d="M52.07,19.52c.61,.32,1.03,.96,1.03,1.7,0,.78-.47,1.45-1.14,1.75" fill="none" stroke="#231f20" stroke-linecap="round" stroke-linejoin="round" stroke-width="1.1"/></g></svg>