<?xml version="1.0" encoding="UTF-8"?><svg id="uuid-06eea256-c9d1-4b6a-822d-12cec247e514" xmlns="http://www.w3.org/2000/svg" width="61.43" height="61.43" viewBox="0 0 61.43 61.43"><polygon points="30.72 60.88 .55 30.72 60.88 30.72 30.72 60.88" fill="#fff"/><polygon points="30.72 .55 .55 30.72 60.88 30.72 30.72 .55" fill="#231f20"/><g><path d="M30.72,.55L10.91,20.36l11.72-6.68,6.81,3.86,7-6.23,14.15,13.72,2.46-2.13L30.72,.55Z" fill="#fff" stroke="#231f20" stroke-linecap="round" stroke-linejoin="round" stroke-width="1.1"/><path d="M30.72,33c-5.41,0-9.8,4.39-9.8,9.8s4.39,9.8,9.8,9.8,9.8-4.39,9.8-9.8-4.39-9.8-9.8-9.8Zm0,1.63c.81,0,1.47,.66,1.47,1.47s-.66,1.47-1.47,1.47-1.47-.66-1.47-1.47,.66-1.47,1.47-1.47Zm3.52,15.03h-7.04v-1.37h2.26v-8.2h-2.08v-1.37h4.89v9.57h1.97v1.37Z" fill="#231f20"/></g><rect x="9.39" y="9.39" width="42.66" height="42.66" transform="translate(30.72 -12.72) rotate(45)" fill="none" stroke="#231f20" stroke-linecap="round" stroke-linejoin="round" stroke-width="1.1"/></svg>