<svg xmlns="http://www.w3.org/2000/svg" x="0px" y="0px" width="512px" height="512px" viewBox="0 0 512 512" enable-background="new 0 0 512 512" xml:space="preserve">
    <defs>
        <style><![CDATA[
            .sprite { display: none; }
            .sprite:target { display: inline; }
        ]]></style>
        <clipPath id="left-side">
           <polygon points="0,0 512,0 50,462 0,512"></polygon>
        </clipPath>
        <clipPath id="right-side">
            <polygon points="462,50 512,0 512,512 0,512"></polygon>
        </clipPath>
    </defs>
    <g class="sprite" id="full">
        <path fill="#555555" d="M159.094,278.646h-1.042l-33.521-51.188l-40.938-60.437h-31.75v176.395h35.062V232.312h1.521
            l29.104,44.542l44.688,66.562h31.938V167.021h-35.062V278.646z M206.469,354.166h25.834l64.791-196.332h-26.125L206.469,354.166z
            M398.719,167.021h-35.833l-61.979,176.395h37.375l11.521-36.375h61.459l10.749,36.375h38.146L398.719,167.021z M359.281,277.625
            l7.146-23.292l13.604-45.832h1l13.854,46.604l6.896,22.521H359.281z"/>
    </g>
    <g class="sprite" id="left" clip-path="url(#left-side)">
        <line x1="462" y1="50" x2="50" y2="462" stroke="#555555" stroke-width="10" stroke-linecap="round"/>
        <g transform="translate(10,10) scale(0.5)">
            <path fill="#555555" d="M159.094,278.646h-1.042l-33.521-51.188l-40.938-60.437h-31.75v176.395h35.062V232.312h1.521
                l29.104,44.542l44.688,66.562h31.938V167.021h-35.062V278.646z M206.469,354.166h25.834l64.791-196.332h-26.125L206.469,354.166z
                M398.719,167.021h-35.833l-61.979,176.395h37.375l11.521-36.375h61.459l10.749,36.375h38.146L398.719,167.021z M359.281,277.625
                l7.146-23.292l13.604-45.832h1l13.854,46.604l6.896,22.521H359.281z"/>
        </g>
    </g>
    <g class="sprite" id="right" clip-path="url(#right-side)">
        <line x1="462" y1="50" x2="50" y2="462" stroke="#555555" stroke-width="10" stroke-linecap="round"/>
        <g transform="translate(255,255) scale(0.5)">
            <path fill="#555555" d="M159.094,278.646h-1.042l-33.521-51.188l-40.938-60.437h-31.75v176.395h35.062V232.312h1.521
                l29.104,44.542l44.688,66.562h31.938V167.021h-35.062V278.646z M206.469,354.166h25.834l64.791-196.332h-26.125L206.469,354.166z
                M398.719,167.021h-35.833l-61.979,176.395h37.375l11.521-36.375h61.459l10.749,36.375h38.146L398.719,167.021z M359.281,277.625
                l7.146-23.292l13.604-45.832h1l13.854,46.604l6.896,22.521H359.281z"/>
        </g>
    </g>
</svg>
