<svg xmlns="http://www.w3.org/2000/svg" x="0px" y="0px" width="512px" height="512px" viewBox="0 0 512 512" enable-background="new 0 0 512 512" xml:space="preserve">
    <defs>
        <style><![CDATA[
            .sprite { display: none; }
            .sprite:target { display: inline; }
        ]]></style>
       <clipPath id="left-side">
           <polygon points="0,0 512,0 50,462 0,512"></polygon>
        </clipPath>
        <clipPath id="right-side">
            <polygon points="462,50 512,0 512,512 0,512"></polygon>
        </clipPath>
    </defs>
    <g class="sprite" id="full">
        <path fill-rule="evenodd" clip-rule="evenodd" fill="#ffffff" d="M400,64c-5.312,0-10.562,0.375-15.792,1.125
            C354.334,24.417,307.188,0,256,0s-98.312,24.417-128.208,65.125C122.562,64.375,117.312,64,112,64C50.25,64,0,114.25,0,176
            s50.25,112,112,112c13.688,0,27.084-2.5,39.709-7.333C180.666,305.917,217.5,320,256,320c38.542,0,75.333-14.083,104.291-39.333
            C372.916,285.5,386.312,288,400,288c61.75,0,112-50.25,112-112S461.75,64,400,64z M225,480c0,17.688,14.312,32,32,32
            s32-14.312,32-32s-32-64-32-64S225,462.312,225,480z M352,448c0,17.688,14.312,32,32,32s32-14.312,32-32s-32-64-32-64
            S352,430.312,352,448z M96,384c0,17.688,14.312,32,32,32s32-14.312,32-32s-32-64-32-64S96,366.312,96,384z"/>
    </g>
    <g class="sprite" id="left" clip-path="url(#left-side)">
        <line x1="462" y1="50" x2="50" y2="462" stroke="#ffffff" stroke-width="10" stroke-linecap="round"/>
        <g transform="translate(0,-5) scale(0.5)">
            <path fill-rule="evenodd" clip-rule="evenodd" fill="#ffffff" d="M400,64c-5.312,0-10.562,0.375-15.792,1.125
                C354.334,24.417,307.188,0,256,0s-98.312,24.417-128.208,65.125C122.562,64.375,117.312,64,112,64C50.25,64,0,114.25,0,176
                s50.25,112,112,112c13.688,0,27.084-2.5,39.709-7.333C180.666,305.917,217.5,320,256,320c38.542,0,75.333-14.083,104.291-39.333
                C372.916,285.5,386.312,288,400,288c61.75,0,112-50.25,112-112S461.75,64,400,64z M225,480c0,17.688,14.312,32,32,32
                s32-14.312,32-32s-32-64-32-64S225,462.312,225,480z M352,448c0,17.688,14.312,32,32,32s32-14.312,32-32s-32-64-32-64
                S352,430.312,352,448z M96,384c0,17.688,14.312,32,32,32s32-14.312,32-32s-32-64-32-64S96,366.312,96,384z"/>
        </g>
    </g>
    <g class="sprite" id="right" clip-path="url(#right-side)">
        <line x1="462" y1="50" x2="50" y2="462" stroke="#ffffff" stroke-width="10" stroke-linecap="round"/>
        <g transform="translate(255,255) scale(0.5)">
            <path fill-rule="evenodd" clip-rule="evenodd" fill="#ffffff" d="M400,64c-5.312,0-10.562,0.375-15.792,1.125
                C354.334,24.417,307.188,0,256,0s-98.312,24.417-128.208,65.125C122.562,64.375,117.312,64,112,64C50.25,64,0,114.25,0,176
                s50.25,112,112,112c13.688,0,27.084-2.5,39.709-7.333C180.666,305.917,217.5,320,256,320c38.542,0,75.333-14.083,104.291-39.333
                C372.916,285.5,386.312,288,400,288c61.75,0,112-50.25,112-112S461.75,64,400,64z M225,480c0,17.688,14.312,32,32,32
                s32-14.312,32-32s-32-64-32-64S225,462.312,225,480z M352,448c0,17.688,14.312,32,32,32s32-14.312,32-32s-32-64-32-64
                S352,430.312,352,448z M96,384c0,17.688,14.312,32,32,32s32-14.312,32-32s-32-64-32-64S96,366.312,96,384z"/>
        </g>
    </g>
</svg>
