<!-- log book by IconMark from the Noun Project -->
<svg role="img" aria-labelledby="logbook-logo-svg" x="0px" y="0px" width="{{ include.width }}" height="{{ include.height }}" class="w-100" viewBox="0 0 100 100" xmlns="http://www.w3.org/2000/svg">
    <title id="logbook-logo-svg">Climbing Log Book</title>
    <path class="{{ include.class }}" fill="currentColor" d="M74.6,5H23.7L11.1,19H11v0.1l0,0l0,0V94c0,0.5,0.5,1,1,1h51c6.6,0,12-5.4,12-12V31c0-6.6-5.4-12-12-12H19.1l7.2-8h48.2  c4.7,0,8.4,3.6,8.4,8V67c0,0.2,0,0.4,0,0.6v10.8c3.6-2.5,6-6.7,6-11.4V19C89,11.3,82.5,5,74.6,5z M30.4,54.8c0.8-0.8,2-0.8,2.8,0  l6.6,6.6l13.1-13.1c0.8-0.8,2-0.8,2.8,0c0.8,0.8,0.8,2,0,2.8l-14,14c-0.1,0.1-0.2,0.2-0.3,0.2c-0.1,0.1-0.1,0.2-0.2,0.3  c-0.4,0.4-0.9,0.6-1.4,0.6s-1-0.2-1.4-0.6l-8-8C29.6,56.9,29.6,55.6,30.4,54.8z"/>
</svg>
