<!-- Slackline by Looo from NounProject.com -->
<svg width="{{ include.width }}" height="{{ include.height }}" version="1.1" viewBox="80 -10 580 580" xmlns="http://www.w3.org/2000/svg" xmlns:xlink="http://www.w3.org/1999/xlink">
 <g>
  <path fill="currentcolor" d="m577.7 480.6c-2.5195-5.4609-8.1914-8.1914-13.863-6.5117-2.3125 0.62891-4.6211 1.8906-6.7227 2.7305-84.02 35.289-171.4 47.891-261.93 37.18-58.184-6.9336-113.43-23.527-165.94-49.152-8.4023-3.9922-15.125-2.1016-18.066 4.832-2.9414 6.5117 0 12.602 7.9805 16.594 74.777 36.551 153.76 55.035 236.94 55.453 72.887-0.21094 143.05-14.492 210.26-42.852 2.5195-1.0508 5.043-2.1016 7.1406-3.5703 5.0508-3.3633 6.7305-9.2422 4.207-14.703z"/>
  <path fill="currentcolor" d="m365.75 106.08c23.734 0 43.062-19.324 43.062-43.062 0-23.734-19.324-43.062-43.062-43.062-23.734 0-43.062 19.324-43.062 43.062 0 23.734 19.328 43.062 43.062 43.062z"/>
  <path fill="currentcolor" d="m204.86 186.74c39.281-7.9805 78.77-15.965 118.05-23.945v123.72c-23.316 6.7227-46.633 13.234-70.578 18.066-16.176 3.1523-24.574 21.637-21.004 36.551 8.1914 33.609 15.965 67.426 23.945 101.25 8.8203 37.391 66.168 21.844 57.555-15.543-5.4609-23.734-11.133-47.262-16.594-70.996 15.543-3.7812 30.668-8.4023 46-12.812v139.68c0 16.805 13.652 30.246 30.246 30.246 16.805 0 30.246-13.652 30.246-30.246v-319.92c39.281 7.9805 78.77 15.965 118.05 23.945 25.836 5.2539 34.656-34.656 9.0312-39.699-46-9.4492-155.44-32.137-155.44-32.137v0.21094c-3.7812-1.0508-7.5625-1.8906-11.555-1.8906s-7.9805 0.83984-11.555 1.8906v-0.21094s-109.23 22.688-155.23 31.93c-25.832 5.25-17.012 45.16 8.8281 39.91z"/>
 </g>
</svg>
