<!-- comparison by SBTS from the Noun Project -->
<svg width="{{ include.width }}" height="{{ include.height }}" xmlns="http://www.w3.org/2000/svg" xmlns:xlink="http://www.w3.org/1999/xlink" version="1.1" x="0px" y="0px" viewBox="0 0 468 468" class="w-100" xml:space="preserve">
  <g>
    <path fill="currentColor" d="M406.352,84.523H468v-16.35h-61.648v-42.87h-16.364v42.87H268.177c-2.38-13.629-12.688-24.521-25.995-27.742V0h-16.364   v40.432c-13.308,3.22-23.616,14.113-25.996,27.742H79.713v-42.87H63.349v42.87H0v16.35h63.349v55.242l-47.501,98.727H1.971   l0.082,17.692c0.173,37.13,30.865,67.14,68.667,67.14h0c38.148,0,68.983-30.541,68.666-68.009l-0.143-16.823h-13.491l-46.04-98.37   V84.523h121.14c3.974,12.792,15.137,22.404,28.756,24.126h-3.79v233.261h-37.64v52.525h91.643v-52.525h-37.639V108.65h-3.79   c13.619-1.723,24.782-11.335,28.756-24.126h122.841v55.242l-47.547,98.823h-13.613l0.082,17.691   c0.173,37.13,30.865,67.14,68.667,67.14c38.148,0,68.983-30.54,68.666-68.009l-0.142-16.822h-13.664l-46.086-98.467V84.523z    M77.621,301.589H61.258v-45.256h16.364V301.589z M34.004,238.492l37.352-77.631l36.334,77.631H34.004z M388.342,301.589h-16.364   v-45.256h16.364V301.589z M423.099,301.589h-16.364v-45.256h16.364V301.589z M360.597,238.589l37.397-77.727l36.379,77.727H360.597   z"/>
    <path fill="currentColor" d="M151.023,468h165.953v-57.215H151.023V468z M222.412,431.214h66.968v16.349h-66.968V431.214z M178.62,431.214h23.175   v16.349H178.62V431.214z"/>
  </g>
</svg>
