<?xml version="1.0" standalone="no"?>
<!DOCTYPE svg PUBLIC "-//W3C//DTD SVG 20010904//EN"
 "http://www.w3.org/TR/2001/REC-SVG-20010904/DTD/svg10.dtd">
<svg version="1.0" xmlns="http://www.w3.org/2000/svg"
 width="512.000000pt" height="512.000000pt" viewBox="0 0 512.000000 512.000000"
 preserveAspectRatio="xMidYMid meet">
<metadata>
Created by potrace 1.11, written by Peter Selinger 2001-2013
</metadata>
<g transform="translate(0.000000,512.000000) scale(0.100000,-0.100000)"
fill="#000000" stroke="none">
<path d="M415 5110 c-203 -42 -361 -199 -405 -402 -6 -31 -10 -757 -9 -2155 0
-2297 -3 -2149 56 -2273 16 -32 56 -84 98 -126 80 -81 166 -127 267 -144 91
-14 4219 -14 4290 1 191 40 348 195 394 389 21 86 19 4252 -2 4330 -50 190
-194 331 -384 376 -45 11 -454 13 -2160 13 -1158 -1 -2123 -5 -2145 -9z"/>
</g>
</svg>
